<svg xmlns="http://www.w3.org/2000/svg" width="644.722" height="186.079"><path style="-inkscape-font-specification:SciFly" d="M97.202 113.4c-1.68 0-3-.48-3.96-1.438-.96-.96-1.44-2.28-1.44-3.96V61.198c0-1.92-.3-3.78-.9-5.58-.602-1.8-1.5-3.418-2.7-4.858-1.2-1.44-2.73-2.61-4.59-3.51-1.86-.9-4.11-1.35-6.75-1.35-2.642 0-4.892.45-6.752 1.35-1.86.9-3.39 2.07-4.59 3.51-1.2 1.44-2.07 3.06-2.61 4.86-.54 1.8-.81 3.658-.81 5.577V108c0 1.682-.48 3.002-1.44 3.962-.958.96-2.278 1.44-3.96 1.44h-5.4c-1.68 0-3-.48-3.96-1.44s-1.44-2.28-1.44-3.96V61.198c0-1.92-.3-3.78-.9-5.58-.6-1.8-1.5-3.418-2.7-4.858-1.2-1.44-2.73-2.61-4.59-3.51-1.86-.9-4.05-1.35-6.57-1.35-2.52 0-4.74.45-6.66 1.35-1.92.9-3.48 2.07-4.68 3.51-1.2 1.44-2.1 3.06-2.7 4.86-.6 1.8-.9 3.658-.9 5.577V108c0 1.682-.48 3.002-1.44 3.962-.96.96-2.28 1.44-3.96 1.44H5.4c-1.68 0-3-.48-3.96-1.44S0 109.682 0 108.002V61.198c0-4.318.75-8.368 2.25-12.15 1.5-3.78 3.6-7.02 6.3-9.72 2.7-2.698 5.97-4.827 9.81-6.387 3.84-1.56 8.1-2.34 12.78-2.34 4.56 0 8.61.84 12.15 2.52 3.54 1.68 6.51 3.54 8.912 5.58 1.197 1.08 2.336 1.08 3.417 0 2.28-2.28 5.19-4.196 8.73-5.756 3.54-1.56 7.71-2.34 12.51-2.34 4.68 0 8.94.78 12.78 2.34 3.84 1.56 7.11 3.69 9.81 6.388 2.7 2.7 4.8 5.94 6.3 9.72 1.5 3.783 2.25 7.833 2.25 12.15V108c0 1.682-.48 3.002-1.44 3.962-.96.96-2.28 1.44-3.96 1.44zm91.028-17.638c1.08 1.08 1.59 2.28 1.53 3.6-.062 1.32-.572 2.58-1.53 3.778-2.403 3-5.945 5.76-10.625 8.28-4.68 2.522-10.26 3.783-16.737 3.783-5.04 0-9.57-.81-13.59-2.43-4.02-1.622-7.472-3.872-10.352-6.752s-5.1-6.24-6.66-10.08c-1.56-3.84-2.34-7.92-2.34-12.24V62.465c0-4.32.69-8.432 2.07-12.332 1.38-3.9 3.42-7.29 6.122-10.17 2.7-2.88 6-5.16 9.902-6.84 3.9-1.677 8.37-2.516 13.408-2.517 5.04 0 9.54.84 13.5 2.52 3.96 1.678 7.35 3.958 10.17 6.838 2.82 2.88 4.98 6.27 6.48 10.17 1.5 3.9 2.25 8.013 2.25 12.334v10.8c0 1.677-.48 2.996-1.44 3.957-.96.963-2.28 1.443-3.96 1.443h-40.502c-1.197 0-1.796.6-1.796 1.796v3.24c0 4.56 1.35 8.4 4.048 11.52 2.7 3.12 6.93 4.68 12.69 4.68 4.56 0 8.098-.81 10.618-2.428 2.52-1.617 4.44-3.15 5.762-4.59 1.32-1.32 2.638-1.948 3.958-1.887 1.32.06 2.52.63 3.6 1.71zm-12.602-33.3c0-4.562-1.26-8.463-3.78-11.702-2.52-3.24-6.66-4.86-12.42-4.86-5.64 0-9.6 1.62-11.88 4.86-2.278 3.24-3.418 7.14-3.418 11.703v.895c0 1.2.6 1.802 1.796 1.802h27.9c1.2 0 1.802-.6 1.802-1.802zM267.44 113.4c-1.68 0-3-.48-3.96-1.438-.96-.96-1.44-2.28-1.44-3.96V63c0-4.56-1.41-8.55-4.23-11.97-2.82-3.42-7.11-5.13-12.87-5.13-5.76 0-10.05 1.71-12.87 5.13-2.82 3.42-4.23 7.41-4.23 11.97v45c0 1.68-.48 3-1.44 3.96-.958.96-2.28 1.44-3.96 1.44h-5.4c-1.68 0-3-.48-3.96-1.44s-1.44-2.28-1.44-3.96V63c0-4.322.81-8.462 2.432-12.42 1.62-3.96 3.87-7.41 6.75-10.35 2.88-2.94 6.36-5.28 10.44-7.02 4.08-1.74 8.64-2.61 13.678-2.61 5.04 0 9.6.87 13.68 2.61 4.083 1.74 7.563 4.08 10.444 7.02 2.88 2.94 5.13 6.39 6.748 10.35 1.62 3.958 2.428 8.098 2.428 12.42v45c0 1.68-.48 3-1.44 3.96s-2.28 1.44-3.96 1.44zm32.443 0c-1.68 0-3-.48-3.96-1.438-.96-.96-1.44-2.28-1.44-3.96v-4.5c0-2.64 1.02-5.34 3.06-8.102l32.76-45.357c.48-.6.6-1.14.36-1.62-.24-.48-.78-.72-1.622-.72H301.69c-1.68 0-3-.48-3.96-1.442-.96-.96-1.44-2.28-1.44-3.954V37.8c0-1.678.48-2.997 1.44-3.958.96-.96 2.28-1.44 3.96-1.44h45.9c1.678 0 2.997.48 3.96 1.44.96.962 1.44 2.28 1.44 3.958v4.505c0 1.44-.27 2.728-.81 3.867-.54 1.14-1.41 2.55-2.612 4.23l-32.398 44.82c-.6.84-.75 1.532-.45 2.072s.99.81 2.07.81h30.597c1.68 0 3 .48 3.96 1.44s1.44 2.28 1.44 3.96v4.5c0 1.68-.48 3-1.44 3.96s-2.28 1.44-3.96 1.44zM378.1 19.803c-1.68 0-3-.48-3.96-1.442-.96-.96-1.44-2.28-1.44-3.954V5.4c0-1.68.48-3 1.44-3.96S376.42 0 378.1 0h5.4c1.68 0 3 .48 3.96 1.44s1.44 2.28 1.44 3.96v9.003c0 1.677-.48 2.997-1.44 3.958-.96.965-2.28 1.446-3.96 1.446zm0 93.598c-1.68 0-3-.48-3.96-1.435-.96-.96-1.44-2.28-1.44-3.96V37.797c0-1.677.48-2.996 1.44-3.957.96-.96 2.28-1.44 3.96-1.44h5.4c1.68 0 3 .48 3.96 1.44.96.962 1.44 2.28 1.44 3.958V108c0 1.682-.48 3.002-1.44 3.962-.96.96-2.28 1.44-3.96 1.44zm66.863 0c-9 0-15.632-2.46-19.89-7.38-4.26-4.92-6.39-11.76-6.39-20.52v-36c0-1.2-.6-1.796-1.8-1.796h-5.4c-1.682 0-3.002-.48-3.96-1.442-.96-.96-1.44-2.28-1.44-3.955V37.8c0-1.678.48-2.997 1.44-3.958.958-.96 2.278-1.44 3.96-1.44h5.4c1.2 0 1.8-.6 1.8-1.798v-12.6c0-1.682.48-3.002 1.44-3.96.96-.96 2.28-1.44 3.96-1.44h5.4c1.68 0 3 .48 3.96 1.44.96.958 1.44 2.278 1.44 3.96v12.6c0 1.198.6 1.797 1.802 1.797h13.497c1.68 0 3 .48 3.96 1.44.96.965 1.44 2.28 1.44 3.96v4.506c0 1.677-.48 2.996-1.44 3.958-.96.962-2.28 1.443-3.96 1.443h-13.497c-1.2 0-1.802.598-1.802 1.796v35.1c0 4.2.81 7.5 2.43 9.903 1.62 2.4 4.71 3.6 9.27 3.6h3.6c1.68 0 3 .48 3.96 1.44s1.438 2.28 1.438 3.96v4.5c0 1.68-.475 3-1.435 3.96s-2.28 1.44-3.96 1.44z" font-size="180" letter-spacing="0" word-spacing="0" fill="#00aaef" font-family="SciFly"/><text y="784.49" x="613.956" style="line-height:125%;-inkscape-font-specification:Balsamiq Sans" font-size="52.387" letter-spacing="0" word-spacing="0" fill="#6adf5f" font-family="Balsamiq Sans" transform="translate(-497.924 -609.047)"><tspan y="784.49" x="613.956">funny learning</tspan></text><g transform="matrix(.849 0 0 .849 -194.881 -360.446)" fill="#6adf5f"><rect width="45" height="86.002" x="227.663" y="922.095" ry="11.775" rx="11.775" transform="rotate(-45)"/><rect width="41.213" height="155.714" x="980.4" y="-383.425" ry="11.775" rx="11.775" transform="rotate(45)"/></g></svg>