<?xml version="1.0" encoding="UTF-8" standalone="no"?>
<!-- Created with Inkscape (http://www.inkscape.org/) -->

<svg
   xmlns:dc="http://purl.org/dc/elements/1.1/"
   xmlns:cc="http://creativecommons.org/ns#"
   xmlns:rdf="http://www.w3.org/1999/02/22-rdf-syntax-ns#"
   xmlns:svg="http://www.w3.org/2000/svg"
   xmlns="http://www.w3.org/2000/svg"
   xmlns:sodipodi="http://sodipodi.sourceforge.net/DTD/sodipodi-0.dtd"
   xmlns:inkscape="http://www.inkscape.org/namespaces/inkscape"
   version="1.1"
   width="633.2713"
   height="361.04138"
   id="svg2"
   xml:space="preserve"
   inkscape:version="0.48.4 r9939"
   sodipodi:docname="browserNotSupported.svg"><sodipodi:namedview
     pagecolor="#ffffff"
     bordercolor="#666666"
     borderopacity="1"
     objecttolerance="10"
     gridtolerance="10"
     guidetolerance="10"
     inkscape:pageopacity="0"
     inkscape:pageshadow="2"
     inkscape:window-width="1264"
     inkscape:window-height="1041"
     id="namedview13"
     showgrid="false"
     inkscape:zoom="0.49996457"
     inkscape:cx="-63.44046"
     inkscape:cy="658.52661"
     inkscape:window-x="0"
     inkscape:window-y="0"
     inkscape:window-maximized="0"
     inkscape:current-layer="g12"
     fit-margin-top="0"
     fit-margin-left="0"
     fit-margin-right="0"
     fit-margin-bottom="0" /><metadata
     id="metadata8"><rdf:RDF><cc:Work
         rdf:about=""><dc:format>image/svg+xml</dc:format><dc:type
           rdf:resource="http://purl.org/dc/dcmitype/StillImage" /><dc:title /></cc:Work></rdf:RDF></metadata><defs
     id="defs6" /><g
     transform="matrix(1.25,0,0,-1.25,-122.86762,403.82614)"
     id="g10"><g
       transform="scale(0.1,0.1)"
       id="g12"><g
         id="g3757"
         style="opacity:0.5"><path
           style="fill:#00aaef;fill-opacity:1;fill-rule:evenodd;stroke:none"
           id="path18"
           inkscape:connector-curvature="0"
           d="m 4388.72,347.266 c 401.33,1.398 793.21,-34.317 1150.53,67.113 113.64,32.144 296.86,185.066 290.6,258.543 -11.94,72.402 -236.6,81.476 -352.77,109.953 -280.42,22.395 -426.72,53.602 -687.28,52.184 -326.62,2.968 -684.41,10.644 -997.69,-44.696 -145.06,-27.246 -225.3,-71.281 -271.79,-150.234 32.21,-265.238 471.73,-289.121 868.4,-292.863" /><path
           style="fill:#6adf5f;fill-opacity:1;fill-rule:evenodd;stroke:none"
           id="path20"
           inkscape:connector-curvature="0"
           d="m 4196.76,2843.08 c -74.31,141.69 -158.31,224.24 -301.08,309.19 -275.47,139.83 -483.74,91.34 -678.03,-136.41 -66.71,-81.78 -39.04,-152.61 -55.11,-229.26 91.39,-164.52 227.87,-214.65 390.9,-362.52 158.07,-152.61 225.72,-365.68 513.14,-255.3 298.77,179.87 278.29,400.84 130.18,674.3" /><path
           style="fill:#ffffff;fill-opacity:1;fill-rule:evenodd;stroke:none"
           id="path22"
           inkscape:connector-curvature="0"
           d="m 4691.63,1445.13 c -6.6,-0.47 -12.67,-4.29 -16,-10 -10.22,-17.04 -18.68,-31.75 -24.75,-44.5 -5.32,-11.16 -11.03,-19.65 -9,-33 -7.8,1.07 -15.89,1.38 -23.75,1.25 -12.05,-0.2 -23.79,-1.5 -34.25,-3.25 -3.96,-0.66 -17.82,-1.04 -31.5,-1.75 -13.68,-0.71 -26.84,-0.42 -41,-7.5 -10.22,-5.11 -35.51,-9.96 -53.75,-13 -27.1,-4.52 -66.2,-16.2 -90.25,-40.25 -17.76,-17.76 -44.45,-30.18 -66.25,-59.25 -18.32,-24.43 -36.52,-53.62 -43.25,-87.25 -5.65,-28.23 -11.44,-55.18 -17.25,-84.25 -5.44,-27.21 -12.75,-58.92 -12.75,-90.751 0,-27.754 -5.44,-63.113 0.25,-97.25 4.8,-28.84 4.5,-58.918 4.5,-91 0,-31.645 -2.25,-62.832 -2.25,-96.5 0,-15.887 0.67,-31.324 1.25,-46.5 -72.69,78.008 -133.01,207.012 -205.75,304 -3.86,5.148 -6.19,11.605 -8.75,20 -2.57,8.394 -4.97,19.469 -15,29.5 -1.67,1.734 -3.62,2.98 -5.75,4 4.3,4.241 6.07,9.381 7,13.001 1.29,5.07 1.29,9.31 1.25,13.5 -0.17,16.76 -4,36.84 -4,42.75 0,8.42 0.71,12.71 0.5,19.5 -0.22,6.79 -2.49,14.98 -6.25,22.5 -3.58,7.4 -11.31,11.86 -19.5,11.25 -6.69,-0.51 -12.73,-4.39 -16,-10.25 -3.27,-5.86 -3.33,-13.04 -0.25,-19 2.44,-4.9 1.94,-3.9 2,-5.75 0.06,-1.85 -0.5,-8 -0.5,-18.25 0,-5.89 0.79,-11.93 1.5,-18 -9.33,7.11 -19.54,14.36 -29.25,20.75 -4.24,2.78 -8.17,5.21 -11.75,7.25 -3.58,2.03 -5.15,3.71 -12.25,5.25 -1.78,0.38 -3.97,0.82 -8.5,0 -4.53,-0.83 -12.79,-5.5 -15.5,-12.5 -2.72,-7 -1.13,-11.63 -0.25,-14.25 0.88,-2.62 1.73,-4.02 2.5,-5.25 3.07,-4.91 5.63,-7.38 10,-11.75 1.79,-1.8 5.07,-4.7 7.25,-6.75 -11.58,4.93 -20.7,9.44 -31,11.5 -2.58,0.51 -5.26,0.9 -10,0.25 -4.74,-0.65 -14.2,-4.85 -17.5,-13.5 -3.3,-8.65 -0.76,-14.34 0.75,-17.75 1.5,-3.42 3.19,-5.84 5,-8.25 6.21,-8.599 18.06,-10.724 27,-5.001 3.93,-1.504 5.04,-1.883 10,-4 11.35,-4.84 24.74,-10.68 38,-15.5 13.26,-4.82 25.84,-9 39.5,-9 1.13,0 2.37,0.09 3.75,0.25 0.99,-1.949 2.37,-3.672 4,-5.25 0.46,-0.461 2.41,-4.531 5,-13 2.58,-8.469 6.19,-20.512 15,-32.25 74.24,-98.984 137.24,-242.879 228.5,-327.25 2.88,-2.836 6.41,-4.777 10.25,-5.5 0,-15.91 0,-31.828 0,-47.75 -67.53,2.996 -142.95,7.324 -207.25,-8.75 -52.1,-13.024 -120.1,135.75 -182,135.75 -60.85,0 -120.97,-148.25 -180.25,-148.25 -60.26,0 -120.84,19.5 -186.75,19.5 -55.19,0 -110.54,135.25 -161.25,135.25 -68.21,0 -131.33,-154.75 -193.25,-154.75 -55.04,0 -116.49,-2.301 -165,0 -42.1,1.996 -42.11,-38.106 0,-40 54.87,-2.465 109.96,0 165,0 67.24,0 130.28,145.5 193.25,145.5 53.99,0 95.74,-130.508 161.25,-126 57.43,3.953 118.5,-21.598 186.75,-19.5 71.12,2.254 122.29,139 180.25,139 58.39,0 117.69,-145.707 191.75,-125.5 60.45,16.492 142.97,9.141 217.25,6.75 l 0,1 20.25,0 c -0.01,1.16 0,2.344 0,3.5 0,29.73 0,59.519 0,89.25 0,33.055 -2.25,63.699 -2.25,94.25 0,31.644 2.25,62.832 2.25,96.5 0,31.898 0.55,64.207 -5,97.5 -4.14,24.848 0.25,58.617 0.25,90.75 0,25.422 6.42,55.081 12,83.001 5.73,28.64 11.51,55.58 17.25,84.25 4.81,24.05 19.42,48.9 36,71 14.91,19.88 38.6,31.1 62.5,55 9.99,9.99 49.49,25.83 68.5,29 17.89,2.98 44.23,6.24 65.25,16.75 -0.32,-0.16 12.45,2.6 25,3.25 12.55,0.65 24.94,0.41 36,2.25 16.88,2.81 41.65,3.59 54,0.5 20.6,-5.15 42.79,-8 64.25,-8 1.87,0 3.76,-0.15 5.75,-0.25 4.12,-2.12 9.08,-2.81 13.75,-1.75 0.56,0.13 0.96,0.33 1.5,0.5 11.57,-1.31 23.94,-3.13 36.25,-3.5 2.13,-5.9 7.12,-10.42 13.25,-12.25 5.14,-1.54 10.41,-0.96 15,1.5 4.68,-2.31 10.03,-4.45 16.25,-6 12.3,-3.08 28.27,-14.64 45.5,-23.25 10.81,-5.41 20.89,-16.29 36.5,-28 -0.52,0.39 4.49,-5.7 8.75,-13.25 4.26,-7.55 7.84,-16.09 16.25,-24.5 2.05,-2.06 4.47,-6.58 7.75,-14.25 3.28,-7.67 7.51,-18.27 17,-27.75 9.98,-9.98 23.39,-35.83 27,-50.25 7.23,-28.95 14.25,-41.52 14.25,-67 0,-29.65 2.5,-58.665 2.5,-86.751 0,-31.176 2.5,-61.008 2.5,-89.25 0,-30.594 -0.15,-58.137 -4.75,-85.75 -5.52,-33.09 2.25,-64.121 2.25,-87.5 0,-23.324 1.09,-46.141 -0.75,-66.5 -0.17,-0.156 -0.33,-0.344 -0.5,-0.5 -5.52,-4.777 -7.78,-12.113 -6.25,-19.25 0.62,-2.895 1.78,-5.465 3.5,-7.75 -2.77,-31.516 1.5,-60.371 1.5,-87 0,-2.832 1.5,-28.168 1.5,-31 l 16,0.75 c 63.26,-14.402 164.62,133 234,133 67.87,0 143.68,-123.859 201.25,-138.25 76.98,-19.246 173.63,131.75 243.25,131.75 70.85,0 141.64,-132.25 212.5,-132.25 43.93,0 90.23,-2.957 131.75,0 33.97,2.391 33.98,42.18 0,40 -44.17,-2.867 -87.82,0 -131.75,0 -70.86,0 -141.65,141.75 -212.5,141.75 -76.01,0 -170.96,-158.133 -233.5,-142.5 -68.6,17.152 -146.9,148.75 -211,148.75 -68.4,0 -147.21,-116.441 -211.75,-139 -0.92,29.98 -4.23,57.23 0,82.75 85.19,85.441 146.14,221.445 217.25,316.25 8.8,11.738 12.41,23.781 15,32.25 2.58,8.469 4.54,12.539 5,13 1.62,1.57 3.01,3.309 4,5.25 1.38,-0.16 2.62,-0.25 3.75,-0.25 13.65,0 26.24,4.18 39.5,9 13.26,4.82 26.65,10.66 38,15.5 5.04,2.152 6.28,2.484 10.25,4 8.91,-5.645 20.54,-3.527 26.75,5.001 1.81,2.41 3.49,4.83 5,8.25 1.51,3.41 4.05,9.1 0.75,17.75 -3.3,8.65 -13.02,12.85 -17.75,13.5 -4.74,0.65 -7.43,0.26 -10,-0.25 -10.31,-2.06 -19.18,-6.57 -30.75,-11.5 2.18,2.05 5.45,4.95 7.25,6.75 4.37,4.37 6.92,6.84 10,11.75 0.77,1.23 1.62,2.63 2.5,5.25 0.88,2.62 2.46,7.25 -0.25,14.25 -2.72,7 -10.97,11.67 -15.5,12.5 -4.53,0.82 -6.72,0.38 -8.5,0 -7.11,-1.54 -8.67,-3.22 -12.25,-5.25 -3.58,-2.04 -7.52,-4.47 -11.75,-7.25 -9.77,-6.43 -19.89,-13.85 -29.25,-21 0.71,6.11 1.5,12.32 1.5,18.25 0,10.25 -0.56,16.4 -0.5,18.25 0.06,1.85 -0.45,0.86 2,5.75 3.28,6.37 2.9,14.23 -1,20.25 -3.9,6.01 -10.59,9.39 -17.75,9 -7.3,-0.36 -13.81,-4.68 -17,-11.25 -3.76,-7.52 -6.04,-15.71 -6.25,-22.5 -0.22,-6.79 0.5,-11.08 0.5,-19.5 0,-5.91 -3.83,-25.99 -4,-42.75 -0.04,-4.19 -0.05,-8.43 1.25,-13.5 0.92,-3.6 3,-8.52 7.25,-12.751 -2.15,-1.024 -4.33,-2.508 -6,-4.25 -10.04,-10.031 -12.44,-21.106 -15,-29.5 -2.57,-8.395 -4.89,-14.852 -8.75,-20 -64.76,-86.336 -119.68,-197.984 -182.25,-276.5 -0.14,7.359 -0.25,14.535 -0.25,21.5 0,30.379 -6.4,58.867 -2.75,80.75 5.29,31.762 5.25,61.898 5.25,92.5 0,30.492 -2.5,60.269 -2.5,89.25 0,30.344 -2.5,59.421 -2.5,86.751 0,32.88 -9.21,51.58 -15.5,76.75 -5.76,23.01 -18.58,50.07 -37.25,68.75 -2.86,2.86 -5.31,7.53 -8.5,15 -3.2,7.47 -7.23,17.73 -16.5,27 -0.48,0.48 -5.17,7.87 -9.75,16 -4.58,8.12 -8.72,17.42 -19.5,25.5 -11.9,8.92 -23.68,22.21 -42.75,31.75 -7.68,3.84 -18.82,12.05 -33,18.75 3.57,1.29 7.05,2.37 10.75,3.5 22.63,6.91 47.36,11 63.25,11 7.21,-0.1 14.11,3.77 17.75,10 3.64,6.23 3.64,14.02 0,20.25 -3.64,6.23 -10.54,9.85 -17.75,9.75 -22.2,0 -49.12,-4.84 -75,-12.75 -17.74,-5.42 -34.53,-11.92 -49,-20.5 -5.68,2.32 -12.17,4.25 -20,4.25 -3.4,0 -7.45,0.32 -11.75,0.75 9.35,10.86 20.57,22.09 28.25,29.5 3.49,3.37 5.63,3.66 10,11.5 1.09,1.96 3.33,4.59 2.75,12 -0.29,3.7 -2.3,8.75 -5.5,12.25 -3.2,3.49 -6.79,5.25 -9.5,6 -10.84,2.99 -11.91,0.08 -14.5,-0.75 -10.38,-3.31 -22.73,-9.99 -50.25,-23.75 -12.97,-6.48 -22.88,-10.59 -31,-13.75 4.95,9.91 11.89,22.08 21,37.25 3.98,6.4 3.91,14.56 0,21 -3.91,6.44 -10.99,10.07 -18.5,9.5 z m 91,-68.5 c 0.19,0.06 -0.06,-0.54 -1.5,-0.75 0.08,0.03 1.45,0.73 1.5,0.75 z m -284,-318.5 c -2.91,0.01 -5.47,-0.48 -7.5,-1 -8.15,-2.08 -13.1,-5.59 -13.5,-5.75 -3.21,-1.27 -5.99,-3.44 -8,-6.25 -4.83,-6.8 -11.16,-15.08 -10.25,-29.25 0.45,-7.09 4.7,-16.185 11.75,-21.001 7.05,-4.817 14.94,-6 23.25,-6 6.9,0 14.47,1.566 20.5,6.5 6.03,4.931 8.87,12.371 9.75,18.001 1.76,11.26 -1.12,19.23 -2.75,25.75 -1.53,6.12 -6.42,13.58 -13.5,16.75 -3.54,1.58 -6.84,2.24 -9.75,2.25 z m 242.25,0 c -2.91,-0.01 -6.21,-0.67 -9.75,-2.25 -7.08,-3.18 -11.97,-10.63 -13.5,-16.75 -1.63,-6.52 -4.51,-14.49 -2.75,-25.75 0.88,-5.63 3.72,-13.07 9.75,-18.001 6.03,-4.934 13.6,-6.5 20.5,-6.5 8.3,0 16.2,1.183 23.25,6 7.05,4.816 11.29,13.911 11.75,21.001 0.91,14.17 -5.18,22.45 -10,29.25 -2.01,2.81 -4.79,4.98 -8,6.25 -0.4,0.16 -5.61,3.67 -13.75,5.75 -2.04,0.52 -4.59,1.01 -7.5,1 z m -127,-78.501 c -4.47,-0.406 -8.81,-2.543 -11.75,-6 -3.37,-3.949 -4.68,-9.145 -3.75,-14.25 0.34,-2.117 1.93,-24.633 3,-43.75 0.53,-9.559 1.16,-18.734 1.5,-25.75 0.17,-3.508 0.16,-6.387 0.25,-8.5 0.09,-2.113 0.25,-5.067 0.25,-3.25 -0.39,-6.414 2.75,-12.426 8.25,-15.75 5.49,-3.324 12.5,-3.324 18,0 5.49,3.324 8.64,9.336 8.25,15.75 0,2.387 -0.15,2.562 -0.25,4.75 -0.1,2.191 -0.08,4.953 -0.25,8.5 -0.34,7.094 -0.96,16.59 -1.5,26.25 -1.08,19.32 -1.94,37.617 -3.5,47.25 -1.24,8.348 -8.32,14.582 -16.75,14.75 -0.65,0.016 -1.11,0.059 -1.75,0 z m 8.25,-168.75 c -5.12,-0.106 -10.43,-0.535 -15.75,-1.75 -32.08,-7.328 -47.24,-17.856 -70.75,-31.75 -16.34,-9.656 -26.59,-22.758 -34.25,-34.75 -7.66,-11.992 -13.26,-22.93 -21.5,-33.25 -6.84,-8.57 -16.87,-22.758 -26,-37.5 -9.13,-14.742 -17.27,-27.344 -20,-43 -0.41,-0.656 -0.85,-1.356 -1.25,-2 -3.27,-5.254 -6.12,-10.231 -8.25,-14 -1.6,-2.828 -3.33,-5.582 -3.5,-6 -3.86,-5.359 -4.59,-12.391 -2,-18.5 2.67,-6.305 8.44,-10.742 15.25,-11.5 6.8,-0.758 13.51,2.187 17.5,7.75 3.11,4.176 3.67,6.07 5.75,9.75 2.08,3.68 4.46,8.019 7.25,12.5 5.57,8.965 13.11,18.18 16,20.25 43.73,31.355 97.81,55.75 149.75,55.75 40.83,0 92.58,-21.965 130,-51 11.95,-9.277 26.87,-31.363 39.25,-47.5 4.1,-5.453 10.98,-8.129 17.75,-7.25 6.76,0.879 12.43,5.18 15,11.5 2.57,6.32 1.48,13.648 -2.75,19 -6.09,7.941 -13.48,19.383 -22.75,30.75 -0.17,0.652 -0.51,1.363 -0.75,2 -0.91,2.582 -2.58,8.641 -4.5,14.75 -1.93,6.109 -3.34,11.789 -7.75,18.75 -17.85,28.211 -41.93,81.168 -84.5,103.75 -13.47,7.148 -28.2,16.723 -45,24 -12.6,5.457 -26.88,9.57 -42.25,9.25 z m 1,-37.5 c 8.26,0.18 16.64,-2.34 26.25,-6.5 12.8,-5.547 26.81,-14.559 42.25,-22.75 14.97,-7.941 31.54,-30.074 46.75,-53.25 -33.93,18.004 -71.67,29.75 -108,29.75 -41.13,0 -80.76,-11.75 -116.75,-29.5 8.63,11.781 14.3,22.715 19.75,31.25 6.27,9.816 11.52,16.355 21.5,22.25 24.73,14.613 32.62,21.242 60,27.5 2.78,0.637 5.5,1.191 8.25,1.25" /><path
           style="fill:#ffffff;fill-opacity:1;fill-rule:evenodd;stroke:none"
           id="path24"
           inkscape:connector-curvature="0"
           d="m 3468.19,3067.97 c -7.96,0.09 -15.94,0.02 -23.87,-0.12 -15.23,-0.28 -30.41,-1.01 -45.5,-2.13 -4.9,-0.36 -9.75,-0.8 -14.63,-1.25 -0.58,-0.05 -1.17,-0.07 -1.75,-0.12 -4.55,-0.43 -9.09,-0.88 -13.62,-1.38 -4.99,-0.54 -9.91,-1.11 -14.88,-1.75 -1.55,-0.2 -3.08,-0.41 -4.62,-0.62 -9.31,-1.26 -18.53,-2.68 -27.75,-4.25 -4.03,-0.68 -7.99,-1.39 -12,-2.13 -1.04,-0.19 -2.09,-0.43 -3.13,-0.62 -5,-0.95 -10.02,-1.84 -15,-2.88 -3.73,-0.77 -7.41,-1.54 -11.12,-2.37 -1.26,-0.28 -2.5,-0.59 -3.75,-0.88 -14.84,-3.38 -29.47,-7.2 -44,-11.37 -9.69,-2.78 -19.33,-5.75 -28.88,-8.88 -13.5,-4.42 -26.82,-9.02 -40,-14.12 -3.35,-1.3 -6.67,-2.66 -10,-4 -4.52,-1.82 -9.02,-3.72 -13.5,-5.63 -4.31,-1.83 -8.61,-3.59 -12.87,-5.5 -0.29,-0.13 -0.59,-0.24 -0.88,-0.37 -4.32,-1.93 -8.6,-4 -12.87,-6 -4.06,-1.9 -8.11,-3.78 -12.13,-5.75 -0.87,-0.43 -1.76,-0.82 -2.62,-1.25 -3.52,-1.74 -7.02,-3.46 -10.5,-5.25 -0.77,-0.39 -1.49,-0.86 -2.25,-1.25 -2.73,-1.42 -5.54,-2.81 -8.25,-4.25 -1.06,-0.56 -2.07,-1.18 -3.13,-1.75 -3.78,-2.04 -7.51,-4.03 -11.25,-6.13 -0.5,-0.28 -1,-0.59 -1.5,-0.87 -3.79,-2.14 -7.63,-4.3 -11.37,-6.5 -1.53,-0.89 -2.99,-1.85 -4.5,-2.75 -5.68,-3.38 -11.3,-6.85 -16.88,-10.38 -1.4,-0.88 -2.85,-1.73 -4.25,-2.62 -0.3,-0.19 -0.57,-0.43 -0.87,-0.63 -4.16,-2.67 -8.28,-5.37 -12.38,-8.12 -0.55,-0.37 -1.08,-0.76 -1.62,-1.13 -3.94,-2.66 -7.87,-5.27 -11.75,-8 -3.25,-2.27 -6.43,-4.67 -9.63,-7 -1.95,-1.42 -3.94,-2.81 -5.87,-4.25 -1.63,-1.2 -3.27,-2.4 -4.88,-3.62 -1.51,-1.14 -3,-2.35 -4.5,-3.5 -4.08,-3.14 -8.12,-6.29 -12.12,-9.5 -3.74,-3 -7.46,-6.06 -11.13,-9.13 -0.25,-0.2 -0.5,-0.41 -0.75,-0.62 -9.6,-8.06 -18.99,-16.35 -28.12,-24.88 -0.44,-0.4 -0.82,-0.84 -1.25,-1.25 -2.31,-2.16 -4.61,-4.31 -6.88,-6.5 -2.57,-2.47 -5.1,-4.98 -7.62,-7.5 -4.16,-4.13 -8.33,-8.26 -12.38,-12.5 -0.42,-0.44 -0.82,-0.92 -1.25,-1.37 -2.13,-2.24 -4.28,-4.48 -6.37,-6.75 -0.68,-0.74 -1.33,-1.51 -2,-2.25 -2.73,-2.97 -5.46,-5.98 -8.13,-9 -0.45,-0.51 -0.93,-0.99 -1.37,-1.5 -4.37,-4.97 -8.55,-10.03 -12.75,-15.13 -4.64,-5.61 -9.18,-11.23 -13.63,-17 -4.45,-5.76 -8.87,-11.71 -13.12,-17.62 -4.09,-5.69 -8.1,-11.43 -12,-17.25 -1.11,-1.65 -2.16,-3.34 -3.25,-5 -3.06,-4.65 -6.07,-9.28 -9,-14 -3.85,-6.2 -7.62,-12.42 -11.25,-18.75 -3.24,-5.65 -6.44,-11.37 -9.5,-17.13 -0.49,-0.92 -1.02,-1.83 -1.5,-2.75 -3.3,-6.26 -6.41,-12.61 -9.5,-19 -2.91,-6.01 -5.66,-12.12 -8.38,-18.25 -0.47,-1.05 -1.03,-2.06 -1.5,-3.12 -2.4,-5.5 -4.63,-11.05 -6.87,-16.63 -0.32,-0.79 -0.68,-1.57 -1,-2.37 -2.49,-6.24 -4.84,-12.53 -7.13,-18.88 -0.24,-0.67 -0.51,-1.33 -0.75,-2 -0.15,-0.42 -0.35,-0.82 -0.5,-1.25 -1.09,-3.07 -2.08,-6.15 -3.12,-9.25 -0.95,-2.82 -1.97,-5.65 -2.88,-8.5 -0.46,-1.44 -0.8,-2.93 -1.25,-4.37 -0.56,-1.79 -1.21,-3.58 -1.75,-5.38 -0.31,-1.03 -0.57,-2.08 -0.87,-3.12 -1.07,-3.59 -2.13,-7.13 -3.13,-10.75 -20.73,-68.57 -31.92,-135.39 -34.75,-199.88 -1.92,0.28 -3.99,0.4 -5.5,0.38 -7.23,0 -14.51,0 -21.75,0 -21.14,0 -40.4,-7.44 -52.5,-21.75 -12.09,-14.31 -16.37,-32.93 -16.37,-52.5 0,-14.56 2.14,-27.94 6,-40 -18.42,-12.94 -35.35,-27.92 -50.13,-44.88 -67.1,-75.36 -91.47,-146.17 -81.75,-209.62 9.9,-64.58 53.44,-117.88 110.63,-161.5 108.49,-82.76 268.25,-133.93 382.12,-162.5 -1.59,-2.71 -3.15,-5.36 -6,-8.25 -7.51,-7.6 -20.23,-15.42 -36.87,-22.25 -33.3,-13.66 -81.86,-23.32 -134.13,-29.88 -104.54,-13.11 -222.07,-14.36 -280,-24.37 -22.21,-3.71 -66.15,-4.85 -108.5,-10.5 -42.35,-5.65 -85.58,-13.53 -109.37,-45.25 -4.03,-5.37 -7.32,-12.87 -6.75,-21.13 0.57,-8.26 4.95,-15.3 9.5,-19.75 9.09,-8.89 19.27,-12.31 31.25,-15.75 23.96,-6.88 56,-10.68 89.62,-13.37 33.62,-2.7 68.52,-4 96.13,-4.88 13.8,-0.43 25.67,-0.7 34.62,-1 6.98,-0.23 13.38,-0.68 14.88,-0.75 32.7,-5.45 72.77,-0.67 107.12,-2.5 17.18,-0.91 32.51,-3.51 43.25,-8 6.81,-2.84 11.29,-6.37 14.88,-10.62 -3.41,-2.07 -6.37,-4.05 -12.63,-6.75 -18.12,-7.83 -45.53,-16.42 -74.12,-24.25 -57.19,-15.66 -122.11,-28.77 -132.5,-30.25 -0.3,-0.04 -0.59,-0.08 -0.88,-0.13 -162.67,-30.19 -492.7,-54.2 -743.37,-25 2.12,16.38 4.62,33.7 4.62,52.88 0,25.6 0,51.15 0,76.75 0,19.19 1.05,39.56 1.75,60.25 105.79,20.96 218.24,72.08 317.13,95.25 14.28,3.35 24.7,10.42 32.12,15.25 7.42,4.83 11.73,6.56 12.38,6.62 2.29,0.12 4.48,0.68 6.5,1.5 0.89,-0.95 1.79,-1.8 2.62,-2.5 10.47,-8.76 22.74,-13.68 36,-18.5 13.26,-4.81 27.32,-8.92 39.13,-12.5 5.26,-1.59 6.35,-2.11 10.37,-3.5 3.19,-10.05 13.63,-15.91 23.88,-13.37 2.93,0.69 5.65,1.47 9,3.12 3.34,1.65 8.85,4.26 11.87,13 3.03,8.75 -1.41,18.34 -4.62,21.88 -3.22,3.54 -5.7,4.86 -8,6.12 -9.12,4.99 -18.66,7.42 -30.5,11 2.83,0.17 6.84,0.29 9.25,0.5 6.15,0.55 9.86,0.72 15.37,2.5 1.38,0.45 2.89,1.06 5.25,2.5 2.36,1.45 6.59,3.9 9,11 2.42,7.11 -0.8,16.21 -3.75,19.75 -2.94,3.54 -5.14,4.53 -6.75,5.38 -6.43,3.38 -8.7,3.01 -12.75,3.75 -4.05,0.74 -8.59,1.42 -13.62,2 -11.57,1.34 -24.02,2.34 -35.75,2.87 4.45,4.22 9.07,8.47 12.87,13 6.59,7.87 10.02,12.87 11.25,14.25 1.24,1.39 0.24,0.95 5.25,3.13 8.92,3.8 13.81,13.55 11.63,23 -2.19,9.45 -10.82,15.87 -20.5,15.37 -2.46,-0.13 -4.88,-0.73 -7.13,-1.75 -7.71,-3.35 -14.6,-8.06 -19.12,-13.12 -4.52,-5.07 -6.72,-8.67 -12.13,-15.13 -3.79,-4.52 -19.73,-17.63 -30.62,-30.37 -2.73,-3.19 -5.24,-6.41 -7.5,-11.13 -1.61,-3.34 -3.42,-8.4 -2.88,-14.37 -1.84,0.44 -3.76,0.73 -5.75,0.62 -0.46,-0.02 -0.92,-0.06 -1.37,-0.12 -14.14,-1.25 -23.27,-8.21 -30.63,-13 -7.35,-4.79 -13.11,-8.28 -19.37,-9.75 -101.62,-23.81 -211.39,-71.73 -307.5,-93 0,23.51 0,46.99 0,70.5 116.36,37.93 233.12,136.38 340.75,191.62 13.05,6.71 21.46,16.02 27.5,22.5 6.03,6.49 9.63,9.17 10.25,9.38 2.22,0.7 4.23,1.79 6,3.12 1.16,-0.74 2.24,-1.38 3.25,-1.87 12.27,-5.98 25.34,-7.66 39.37,-9.13 14.03,-1.47 28.68,-2.13 41,-2.75 5.47,-0.27 6.65,-0.5 10.88,-0.87 5.5,-8.99 17.04,-12.16 26.37,-7.25 2.68,1.37 5.03,2.71 7.88,5.12 2.84,2.41 7.68,6.41 8.5,15.63 0.82,9.22 -5.9,17.34 -9.88,20 -3.98,2.65 -6.58,3.33 -9.12,4 -10.09,2.64 -19.94,2.76 -32.38,3.37 2.75,0.86 6.68,1.95 9,2.75 5.84,2.02 9.22,3.06 14.13,6.13 1.22,0.76 2.68,1.65 4.62,3.62 1.94,1.98 5.38,5.4 6,12.88 0.63,7.48 -4.66,15.53 -8.37,18.25 -3.71,2.72 -5.99,3.19 -7.75,3.62 -7.06,1.73 -9.27,0.89 -13.38,0.63 -4.1,-0.27 -8.73,-0.73 -13.75,-1.38 -11.55,-1.49 -23.85,-3.68 -35.37,-6 3.31,5.18 6.78,10.55 9.37,15.88 4.49,9.22 6.64,14.86 7.5,16.5 0.86,1.64 0.03,0.92 4.38,4.25 7.28,5.36 10.15,14.95 6.87,23.37 -3.28,8.43 -11.89,13.6 -20.87,12.63 -3.8,-0.4 -7.39,-1.87 -10.38,-4.25 -6.67,-5.12 -12.21,-11.37 -15.37,-17.38 -3.17,-6.01 -4.44,-10.04 -8.13,-17.62 -2.58,-5.31 -14.88,-21.87 -22.37,-36.88 -1.87,-3.75 -3.57,-7.5 -4.63,-12.62 -0.75,-3.66 -1.26,-9.07 0.75,-14.75 -0.62,0 -1.24,0.05 -1.87,0 -1.8,-0.14 -3.56,-0.52 -5.25,-1.13 -13.41,-4.63 -20.52,-13.57 -26.5,-20 -5.98,-6.42 -10.78,-11.18 -16.5,-14.12 -109.17,-56.04 -221.3,-147.23 -321.75,-184.75 0.38,10.17 0.77,20.4 1.12,30.75 1.73,2.17 3.03,4.63 3.75,7.5 1.49,5.95 0.19,12 -3.12,16.62 0.01,1.88 0,3.74 0,5.63 0,33.67 -2.5,64.98 -2.5,96.62 0,32.08 -0.06,62.04 4.75,90.88 1.86,11.19 2.56,22.58 2.62,33.75 11.24,1.4 22.87,2.92 35.13,4.5 15.87,2.04 31.22,4.08 42.87,5.62 11.65,1.55 17.61,2.37 20.88,2.88 10.22,1.63 17.59,10.79 16.87,21.12 -0.71,10.33 -9.27,18.42 -19.62,18.63 -1.13,0.01 -2.26,-0.07 -3.38,-0.25 1.39,0.22 -8.4,-1.21 -20,-2.75 -11.6,-1.54 -26.93,-3.46 -42.75,-5.5 -10.83,-1.4 -21.13,-2.71 -31.5,-4 -0.45,8.26 -0.87,16.17 -0.87,23.5 0,31.83 -7.31,63.41 -12.75,90.62 -5.82,29.07 -11.73,56.03 -17.38,84.25 -5.15,25.8 -16.96,49.04 -30.5,69.5 2.2,1.95 3.95,4.33 5.13,7.13 2.8,6.65 1.78,14.29 -2.63,20 -20.47,27.29 -51.99,56.96 -96.12,68 -5.16,1.29 -10.77,2.5 -16.63,3.62 -17.01,8.48 -35.4,13.83 -51.12,17 10.85,0.37 21.7,0.63 32.62,0.63 14.29,0 42.77,-8.71 69.38,-20.13 26.61,-11.41 52.18,-24.84 67.25,-32.37 9.9,-4.94 21.93,-0.91 26.87,9 4.94,9.9 0.91,21.94 -9,26.87 -14.24,7.12 -40.9,21.04 -69.37,33.25 -28.48,12.22 -57.99,23.38 -85.13,23.38 -86.46,0 -166.83,-12.13 -248.62,-12.13 -7.21,0.1 -13.87,-3.64 -17.5,-9.87 -0.08,-0.13 -0.18,-0.24 -0.25,-0.38 -8.47,-0.99 -16.99,-1.62 -25.13,-1.62 -23.92,0 -47.48,-5 -61.87,-5 -13.52,0 -23.2,-5.35 -31.25,-9.5 -8.06,-4.15 -14.92,-7.54 -18.25,-8.38 -24.14,-6.03 -42.54,-20.7 -53.63,-26.25 -19.07,-9.54 -30.85,-22.7 -42.75,-31.62 -10.78,-8.08 -14.92,-17.5 -19.5,-25.63 -4.58,-8.12 -9.4,-15.4 -9.87,-15.87 -9.28,-9.28 -13.06,-19.53 -16.25,-27 -3.2,-7.48 -5.65,-12.27 -8.5,-15.13 -18.68,-18.67 -31.75,-45.74 -37.5,-68.75 -6.297,-25.17 -15.379,-43.86 -15.379,-76.75 0,-27.32 -2.5,-56.4 -2.5,-86.75 0,-28.98 -2.5,-58.63 -2.5,-89.12 0,-30.6 -0.043,-60.74 5.25,-92.5 3.649,-21.89 -2.75,-50.62 -2.75,-81 0,-26.17 -2.195,-55.33 2.75,-85 4.875,-29.24 -0.25,-60.47 -0.25,-95.88 0,-28.9 0,-57.84 0,-86.75 0,-25.97 2.375,-45.31 2.375,-69.37 0,-22.51 5,-40.73 5,-56.88 0,-6.95 0.907,-22.87 2.25,-47.75 1.344,-24.87 3.214,-56.63 5.004,-88.5 1.78,-31.86 3.53,-63.81 4.87,-88.75 1.34,-24.93 2.13,-44.78 2.13,-46.12 -0.11,-7.21 3.77,-13.87 10,-17.5 4.79,-2.8 10.43,-3.5 15.62,-2 5.78,0 11.47,0 17.25,0 31.31,0 59.84,2.5 89.25,2.5 1.64,0 3.35,0.1 5,0.12 -0.5,-3.34 -0.76,-6.76 -1,-10.87 -0.53,-9.03 -0.71,-20.83 -0.75,-35 -0.07,-28.35 0.57,-65.83 1.25,-104.627 0.69,-38.797 1.35,-78.883 1.38,-112.125 0.02,-33.243 -1.03,-61.09 -2.38,-69.125 -11.63,-69.442 0.89,-121.567 -6.75,-178.375 -2.19,-1.313 -4.15,-2.578 -7.37,-4.375 -9.62,-5.352 -22.92,-12.297 -36.63,-19.375 -13.71,-7.075 -27.88,-14.286 -39.5,-20.25 -11.61,-5.961 -19.81,-10.008 -25.12,-13.25 -9.57,-5.797 -12.55,-18.188 -6.75,-27.75 5.79,-9.563 18.18,-12.672 27.75,-6.875 1.32,0.808 11.12,6.097 22.62,12 11.5,5.906 25.64,13.097 39.5,20.25 13.86,7.152 27.36,14.218 37.75,20 5.2,2.89 9.63,5.422 13.25,7.75 1.81,1.164 3.29,2.14 5.13,3.625 0.91,0.742 1.88,1.593 3.25,3.125 1.37,1.535 3.98,3.175 5.25,10.75 11.61,69.355 -3.15,122.425 7.5,186 2.72,16.23 3.02,42.093 3,75.875 -0.03,33.785 -0.82,74.078 -1.5,112.875 -0.69,38.797 -1.32,76.127 -1.25,103.747 0.03,13.82 0.3,25.24 0.75,32.75 0.17,3.02 0.32,4.77 0.5,6.13 1.4,2.85 2.14,5.92 2.12,9 39.15,2.48 78.72,5.63 106.75,-1.38 56.9,-14.22 111.52,-2.02 158.38,-7.87 39.13,-4.89 77.66,-1.64 114.87,1.37 0.09,-130.892 0.37,-280.814 -23.12,-400.872 -3.64,-18.59 -6.25,-37.977 -6.25,-57.875 l 0.12,0 c -0.82,-10.7 3.52,-19.25 8.25,-26.125 5.31,-7.703 12.03,-14.559 19.88,-21.5 15.68,-13.883 35.94,-27.832 56.37,-40.875 20.43,-13.039 40.99,-24.981 56.75,-33.875 7.88,-4.446 14.56,-8.106 19.38,-10.75 2.4,-1.321 4.41,-2.383 5.75,-3.125 0.67,-0.371 1.62,-0.871 2,-1.125 5.8,-3.719 13.07,-4.321 19.37,-1.375 6.7,3.129 11.16,9.629 11.63,17 0.46,7.375 -3.13,14.429 -9.38,18.375 -3.14,2.14 -2.64,1.679 -4.12,2.5 -1.48,0.82 -3.37,1.812 -5.75,3.125 -4.78,2.625 -11.31,6.289 -19,10.625 -15.38,8.675 -35.39,20.312 -54.88,32.75 -19.49,12.437 -38.49,25.828 -51.25,37.125 -6.38,5.648 -11.24,10.851 -13.5,14.125 -1.05,1.535 -1.09,2.191 -1.12,2.25 0,0.293 0,0.586 0,0.875 0,16.336 2.18,33.187 5.5,50.125 24.88,127.136 24,280.043 23.87,411.372 7.79,0.39 15.51,0.63 23.13,0.63 26.02,0 60.84,-1.44 88.37,-2.13 1.71,-3.35 4.39,-6.16 7.75,-8.12 6.23,-3.64 13.9,-3.64 20.13,0 5,2.92 8.39,7.81 9.5,13.37 1.3,1.26 2.43,2.77 3.37,4.38 3.64,6.23 3.64,13.89 0,20.12 -0.59,1.02 -1.26,2 -2,2.88 0.91,21.42 2.32,53.33 4.13,90.87 2.39,49.62 4.66,97.42 5,116.88 255.48,-30.71 584.37,-6.57 753.75,24.87 17.4,2.49 77.59,14.84 136.62,31 29.52,8.08 57.84,16.95 79.38,26.25 10.77,4.66 19.78,9.17 27.5,15.38 3.86,3.1 7.65,6.53 10.62,12.25 2.97,5.71 4.21,14.98 1.25,22.37 -8.01,20.02 -24.3,33.62 -42,41 -17.7,7.39 -37.13,9.84 -56.62,10.88 -38.98,2.07 -80.13,-1.62 -102.63,2.12 -6.54,1.09 -10.94,0.82 -20.12,1.13 -9.19,0.3 -21.07,0.69 -34.75,1.12 -27.37,0.87 -61.78,2.15 -94.25,4.75 -32.48,2.61 -63.37,6.76 -81.63,12 -2.47,0.71 -1.96,0.86 -3.87,1.63 14.8,9.52 42.2,17.94 73.5,22.12 39.32,5.26 81.29,6.01 109.75,10.75 0.04,0 0.08,0 0.12,0 48.8,8.44 170.42,10.47 278.25,24 53.92,6.77 104.81,16.4 144.38,32.63 19.78,8.11 36.87,17.83 50,31.12 13.13,13.3 21.97,31.21 21.87,50.75 -0.04,9.24 -6.39,17.24 -15.37,19.38 -111.7,26.84 -281.86,80.48 -386.75,160.5 -52.45,40.01 -87.54,85.54 -95.25,135.87 -6.58,42.91 5.84,92.01 49.75,149.75 l 0.25,-0.37 c 6.35,8.52 13.13,16.86 19.87,25 12.02,14.81 26.92,26.76 42.25,38 0.59,-0.67 1.15,-1.35 1.75,-2 17.31,-18.8 40.56,-29.22 64.63,-33.88 6.69,-1.6 13.73,0.38 18.62,5.13 24.83,-115.76 78.36,-219.59 153.25,-305.88 131.43,-151.42 327.72,-249.48 548.38,-268.12 0.04,-0.01 0.08,0 0.12,0 31.49,-2.66 63.52,-3.65 95.88,-3 0.37,-0.01 0.75,0.01 1.12,0 9.42,-0.29 18.87,-0.31 28.38,0 4.75,0.15 9.48,0.45 14.25,0.75 14.31,0.9 28.7,2.44 43.12,4.62 4.81,0.73 9.69,1.51 14.5,2.38 48.13,8.69 96.51,24.36 143.75,45.87 4.73,2.15 9.43,4.36 14.13,6.63 65.8,31.76 129.09,74.87 186.12,126.75 130.68,118.87 228.86,284.33 244.5,467.12 0,0.09 0,0.17 0,0.25 24.09,322.29 -139.31,594.37 -380.37,718.38 -0.09,0.04 -0.17,0.08 -0.25,0.12 -7.29,3.62 -14.54,7.12 -21.88,10.5 -0.46,0.21 -0.92,0.42 -1.37,0.63 -6.85,3.14 -13.75,6.19 -20.63,9.12 -0.97,0.42 -1.9,0.85 -2.87,1.25 -6.36,2.69 -12.74,5.24 -19.13,7.75 -1.5,0.59 -3,1.17 -4.5,1.75 -6.92,2.68 -13.92,5.16 -20.87,7.63 -0.97,0.34 -1.91,0.78 -2.88,1.12 -5.46,1.92 -10.9,3.71 -16.37,5.5 -6.91,2.27 -13.82,4.43 -20.75,6.5 -0.55,0.17 -1.09,0.34 -1.63,0.5 -0.58,0.18 -1.16,0.33 -1.75,0.5 -4.05,1.2 -8.06,2.37 -12.12,3.5 -6.32,1.76 -12.67,3.41 -19,5 -6.68,1.69 -13.45,3.24 -20.13,4.75 -1.33,0.31 -2.66,0.71 -4,1 -1.33,0.3 -2.67,0.47 -4,0.75 -6.69,1.44 -13.3,2.86 -20,4.13 -6.44,1.22 -12.93,2.31 -19.37,3.37 -2.83,0.47 -5.68,0.94 -8.5,1.38 -6.79,1.04 -13.6,2 -20.38,2.87 -8.03,1.03 -15.98,1.96 -24,2.75 -8.02,0.8 -16.12,1.45 -24.12,2 -8.01,0.56 -16.01,1.06 -24,1.38 -8,0.32 -15.91,0.54 -23.88,0.62 z m -0.25,-40.12 c 113.51,-1.15 230.04,-26.98 340.63,-81.88 33.36,-17.16 65.2,-37.31 95.12,-60.25 -0.54,-1.24 -0.97,-2.51 -1.25,-3.87 -0.28,-1.35 -0.16,-2.31 -0.25,-3.5 -12.3,-16.09 -24.1,-30.87 -39.62,-49.5 -16.73,-20.07 -45.47,-60.6 -73.75,-98.25 -14.14,-18.83 -28.07,-36.71 -39.63,-50.38 -10.29,-12.17 -20.9,-21.2 -21.75,-22.37 -19.85,15.98 -41.17,30.01 -63.75,41.62 -0.08,0.05 -0.17,0.09 -0.25,0.13 -61.62,30.59 -126.38,45.86 -190,48 -5.96,0.2 -11.82,0.28 -17.75,0.25 -54.02,-0.28 -106.86,-10.08 -155.75,-28 0.88,5.84 -0.79,11.93 -5,16.5 0.36,0.2 -7.14,13.19 -12.75,29 -5.98,16.86 -12.67,38.52 -19.25,61.12 -13.17,45.21 -25.69,93.32 -34.25,118 -5.67,16.37 -10.21,30.23 -14.5,43.88 73.21,24.26 151.3,37.87 231.13,39.37 7.54,0.15 15.06,0.21 22.62,0.13 z m -521.5,-197 c 59.2,-73.36 109.45,-157.72 182.38,-227.13 -34.16,-39.35 -60.11,-85.55 -74.5,-137.37 -6.45,-21.28 -11.22,-42.32 -14.5,-63 -62.28,-5.62 -134.83,-23.53 -206,-47.38 -30.9,-10.35 -61.14,-21.85 -90,-34.12 -1.23,74.1 9.41,152.22 34,233.37 0.04,0.17 0.08,0.34 0.12,0.5 29.51,106.87 88.98,200.27 168.5,275.13 z m 509.5,-123.25 c 5.41,0.03 10.82,0.05 16.25,-0.13 57.94,-1.87 117.14,-15.76 173.5,-43.75 4.35,-2.23 8.63,-4.57 12.88,-7 3.14,-1.79 6.29,-3.6 9.37,-5.5 1.08,-0.66 2.18,-1.32 3.25,-2 2.52,-1.59 5.02,-3.21 7.5,-4.87 1.6,-1.07 3.17,-2.15 4.75,-3.25 0.85,-0.59 1.65,-1.28 2.5,-1.88 3.03,-2.14 6.04,-4.38 9,-6.62 0.12,-0.09 0.26,-0.16 0.38,-0.25 0.07,-0.06 0.17,-0.07 0.25,-0.13 2.33,-1.77 4.58,-3.66 6.87,-5.5 2.31,-1.85 4.61,-3.71 6.88,-5.62 2.95,-2.5 5.87,-5.03 8.75,-7.63 3.51,-3.18 6.98,-6.42 10.37,-9.75 0.13,-0.12 0.25,-0.25 0.38,-0.37 0.08,-0.08 0.16,-0.17 0.25,-0.25 3.45,-3.4 6.8,-6.94 10.12,-10.5 3.41,-3.66 6.74,-7.31 10,-11.13 3.24,-3.78 6.41,-7.68 9.5,-11.62 3.11,-3.96 6.17,-8.02 9.13,-12.13 2.96,-4.11 5.82,-8.24 8.62,-12.5 2.64,-4.01 5.26,-8.11 7.75,-12.25 0.13,-0.2 0.25,-0.41 0.38,-0.62 2.4,-4.02 4.73,-8 7,-12.13 0.22,-0.4 0.4,-0.84 0.62,-1.25 2.44,-4.48 4.74,-9.13 7,-13.75 2.29,-4.66 4.52,-9.33 6.63,-14.12 1.79,-4.08 3.47,-8.21 5.12,-12.38 1.33,-3.35 2.63,-6.71 3.88,-10.12 1.24,-3.4 2.47,-6.8 3.62,-10.25 2.29,-6.89 4.33,-13.91 6.25,-21 0.96,-3.55 1.88,-7.15 2.75,-10.75 0.88,-3.65 1.72,-7.3 2.5,-11 0.77,-3.66 1.58,-7.3 2.25,-11 0.08,-0.46 0.17,-0.92 0.25,-1.38 0.58,-3.25 1,-6.58 1.5,-9.87 0.49,-3.2 0.97,-6.39 1.38,-9.63 0.07,-0.54 0.18,-1.07 0.25,-1.62 0.31,-2.51 0.61,-4.97 0.87,-7.5 0.14,-1.33 0.25,-2.67 0.38,-4 0.33,-3.55 0.63,-7.17 0.87,-10.75 0.28,-4.13 0.47,-8.32 0.63,-12.5 0.14,-3.93 0.21,-7.91 0.25,-11.88 0.03,-3.51 0.05,-7.08 0,-10.62 -0.01,-0.42 0,-0.83 0,-1.25 -0.06,-2.96 -0.14,-5.9 -0.25,-8.88 -0.05,-1.08 -0.08,-2.17 -0.13,-3.25 -0.19,-4.04 -0.44,-8.05 -0.75,-12.12 -0.24,-2.84 -0.55,-5.67 -0.87,-8.5 -0.17,-1.42 -0.32,-2.83 -0.5,-4.25 -0.55,-4.23 -1.16,-8.43 -1.88,-12.63 -0.01,-0.04 0.01,-0.08 0,-0.12 -0.48,-2.76 -1.07,-5.51 -1.62,-8.25 -0.3,-1.46 -0.57,-2.93 -0.88,-4.38 -0.28,-1.3 -0.58,-2.57 -0.87,-3.87 -0.3,-1.3 -0.56,-2.58 -0.88,-3.88 -0.36,-1.48 -0.74,-3.02 -1.12,-4.5 -0.02,-0.04 0,-0.08 0,-0.12 -0.7,-2.71 -1.49,-5.31 -2.25,-8 -0.42,-1.45 -0.82,-2.93 -1.25,-4.38 -1.2,-3.96 -2.41,-7.95 -3.75,-11.87 -0.05,-0.13 -0.09,-0.25 -0.13,-0.38 -0.87,-2.55 -1.81,-5.09 -2.75,-7.62 -0.54,-1.46 -1.06,-2.92 -1.62,-4.38 -1.49,-3.85 -3.13,-7.57 -4.75,-11.37 -0.07,-0.16 -0.06,-0.35 -0.13,-0.5 -1.05,-2.46 -2.14,-4.94 -3.25,-7.38 -0.65,-1.43 -1.33,-2.82 -2,-4.25 -0.54,-1.14 -1.08,-2.24 -1.62,-3.37 -1.33,-2.74 -2.73,-5.55 -4.13,-8.25 -0.47,-0.91 -0.9,-1.85 -1.37,-2.75 -1.2,-2.28 -2.51,-4.5 -3.75,-6.75 -0.32,-0.58 -0.56,-1.18 -0.88,-1.75 -1.98,-3.55 -4.03,-7.02 -6.12,-10.5 -0.13,-0.21 -0.25,-0.42 -0.38,-0.63 -1.29,-2.14 -2.66,-4.26 -4,-6.37 -0.95,-1.51 -1.9,-3.01 -2.87,-4.5 -2.15,-3.3 -4.39,-6.52 -6.63,-9.75 -0.22,-0.32 -0.4,-0.68 -0.62,-1 -0.21,-0.3 -0.42,-0.58 -0.63,-0.88 -2.16,-3.08 -4.38,-6.1 -6.62,-9.12 -0.09,-0.12 -0.16,-0.26 -0.25,-0.38 -0.59,-0.78 -1.16,-1.59 -1.75,-2.37 -2.01,-2.64 -4.06,-5.28 -6.13,-7.88 -7.65,-9.6 -15.68,-18.88 -24.12,-27.75 -0.75,-0.79 -1.5,-1.59 -2.25,-2.37 -2.78,-2.88 -5.65,-5.71 -8.5,-8.5 -3.61,-3.53 -7.28,-6.99 -11,-10.38 -3.3,-2.99 -6.63,-5.87 -10,-8.75 -0.92,-0.78 -1.83,-1.6 -2.75,-2.37 -2.47,-2.06 -5,-4.13 -7.5,-6.13 -0.49,-0.39 -1.01,-0.73 -1.5,-1.12 -2.98,-2.36 -5.98,-4.62 -9,-6.88 -3.53,-2.63 -7.05,-5.25 -10.63,-7.75 -3.57,-2.48 -7.13,-4.9 -10.75,-7.25 -0.25,-0.16 -0.5,-0.33 -0.75,-0.5 -3.37,-2.17 -6.72,-4.19 -10.12,-6.25 -3.71,-2.24 -7.39,-4.4 -11.13,-6.5 -3.7,-2.07 -7.39,-4.06 -11.12,-6 -10.24,-5.3 -20.51,-10.08 -30.88,-14.25 -3.94,-1.58 -7.92,-3.08 -11.87,-4.5 -0.55,-0.19 -1.09,-0.43 -1.63,-0.62 -0.78,-0.28 -1.6,-0.48 -2.37,-0.75 -3.74,-1.28 -7.52,-2.5 -11.25,-3.63 -4.52,-1.36 -9.01,-2.62 -13.5,-3.75 -4.45,-1.11 -8.84,-2.12 -13.25,-3 -0.04,-0.01 -0.09,0.01 -0.13,0 -4.3,-0.85 -8.62,-1.63 -12.87,-2.25 -0.17,-0.02 -0.34,-0.1 -0.5,-0.12 -0.21,-0.03 -0.42,-0.1 -0.63,-0.13 -3.65,-0.51 -7.26,-0.9 -10.87,-1.25 -0.54,-0.05 -1.09,-0.08 -1.63,-0.12 -1.78,-0.16 -3.6,-0.26 -5.37,-0.38 -4.6,-0.29 -9.23,-0.49 -13.75,-0.5 -2.28,0 -4.5,0.05 -6.75,0.13 -0.38,0.01 -0.75,0.01 -1.13,0 -16.73,-0.36 -33.25,0.14 -49.5,1.5 -4.06,0.34 -8.1,0.81 -12.12,1.25 -108.76,11.96 -204.45,61.43 -268.63,135.37 -36.92,42.54 -63.56,93.07 -76.5,149.63 5.11,2.19 12.99,8.08 15.63,11 3.61,3.61 7.25,7.26 10.87,10.87 2.91,2.91 25.11,23.39 40.75,45.13 7.82,10.87 15.19,21.87 16.75,36.87 0.78,7.51 -0.75,16.86 -6.37,24.38 -5.63,7.52 -13.95,11.89 -22.38,14 -17.05,4.26 -36.44,6.26 -57.62,6.37 2.95,16.26 6.91,32.71 12,49.5 0.08,0.17 0.16,0.33 0.25,0.5 41.55,150.47 195.52,251.33 363.12,252.38 z m 647.88,-74.75 c 49.21,-107.45 73.3,-232.14 63.25,-366.63 -13.27,-155.05 -90.89,-298.78 -198.25,-408.62 -61.52,71.1 -110.86,155.84 -179.88,228.12 47.96,59.53 81.65,131.95 88.38,210.5 0,0.05 0,0.09 0,0.13 4.97,66.58 -4.41,129.42 -25,185.75 91.81,42.16 168.6,104.65 251.5,150.75 z m -2748.13,-251.5 c 1.47,-1.45 3.2,-2.67 5.13,-3.63 1.23,-0.61 2.84,-0.82 4.12,-1.37 l 0,-0.13 c 1.69,-0.42 4.23,-1.4 6,-1.87 4.6,-1.59 9.14,-3.39 14.38,-4.5 66.11,-19.84 167.28,-64.03 206.87,-103.63 7.84,-7.8 20.58,-7.71 28.38,0.13 7.8,7.83 7.71,20.45 -0.13,28.25 -20.8,20.79 -49.94,39.96 -81.87,57 20.72,-2.22 40.31,-4.52 56.87,-7.13 9.06,-4.31 16.61,-8.73 20.25,-12.37 23.9,-23.9 47.59,-34.87 62.5,-54.75 16.58,-22.1 31.19,-47.21 36,-71.25 5.74,-28.67 11.65,-55.62 17.38,-84.25 5.58,-27.91 12,-57.33 12,-82.75 0,-9.38 0.32,-18.84 0.75,-28.25 -0.65,-0.06 -2.05,-0.22 -2.5,-0.25 -7.22,-0.44 -13.6,-4.74 -16.75,-11.25 -3.16,-6.51 -2.51,-14.19 1.62,-20.13 4.13,-5.93 11.05,-9.19 18.25,-8.5 0.15,0.01 0.47,0.12 0.63,0.13 -0.12,-8.04 -0.61,-15.74 -1.75,-22.63 -3.13,-18.75 -5.24,-64.52 -5.75,-82.75 -68.15,-45.18 -226.68,-22.36 -293.88,13.13 -7.8,5.51 -18.73,17.33 -26.25,12.37 -0.03,-0.02 -0.09,0.02 -0.12,0 -10.23,-0.49 -18.44,-8.64 -19,-18.87 -2.19,-32.39 -2.05,-75.6 0.12,-104.38 1.09,-14.38 7.23,-30.61 20.88,-40.5 13.64,-9.88 31.13,-13.12 53.5,-13.12 83.85,0 159.66,2.75 246.87,2.75 6.52,0 13.39,0.4 20,0.75 -0.72,-18.69 -1.62,-37.66 -1.62,-57.63 0,-28.9 0,-57.73 0,-86.62 -10.47,-1.45 -20.75,-2.51 -30.75,-3 -7.45,0.09 -14.34,-3.95 -17.88,-10.5 -3.53,-6.56 -3.05,-14.46 1.13,-20.63 4.17,-6.17 11.35,-9.59 18.75,-8.75 9.18,0.46 18.52,1.27 27.87,2.38 -0.67,-17.73 -1.5,-35.74 -1.5,-53.75 0,-14.14 0,-28.26 0,-42.38 -134.39,-21.04 -322.49,-0.57 -479.25,-20.12 -62.46,-7.79 -126.1,8.07 -192.37,9.25 -12.73,0.22 -23.96,0.25 -34.38,0.62 -0.36,23.13 -2.25,41.33 -2.25,62.5 0,28.91 0,57.85 0,86.75 0,30.92 5.9,64.73 -0.37,102.38 -3.88,23.26 -2.13,50.43 -2.13,78.5 0,23.38 7.64,54.41 2.13,87.5 -4.61,27.61 -4.63,55.4 -4.63,86 0,28.24 2.5,57.95 2.5,89.12 0,28.09 2.5,57.11 2.5,86.75 0,25.48 7.01,38.06 14.25,67 3.61,14.43 16.9,40.15 26.88,50.13 9.48,9.48 13.72,20.08 17,27.75 3.27,7.67 5.82,12.32 7.87,14.37 8.41,8.41 12.12,17.08 16.38,24.63 4.25,7.55 9.14,13.63 8.62,13.25 15.61,11.7 25.81,22.34 36.63,27.75 17.22,8.61 33.19,20.17 45.5,23.25 11.39,2.85 19.76,8.15 26.75,11.75 6.98,3.6 12.25,5 13,5 21.71,0 44.32,5 61.87,5 17.56,0 35.7,1.98 53,5.5 z m 1732.75,-17.13 c 14.15,-0.22 26.63,-1.44 37,-3.75 -1.46,-3.38 -3.8,-8 -7.75,-13.5 -11.5,-15.99 -35.09,-37.94 -42,-44.75 -1.83,20.03 -2.01,40.66 -0.37,61.88 4.52,0.11 8.89,0.19 13.12,0.12 z m -53.12,-3 c -2.78,-46.17 1.99,-90.34 13.5,-131.5 -92.93,-41.89 -170.32,-104.96 -253.75,-151.62 -26.46,61.99 -43.34,129.06 -49.13,200.25 31.76,14.43 65.88,27.98 100.63,39.62 65.28,21.88 133.05,37.15 188.75,43.25 z m -331.25,-33.5 c 0.06,-7.89 0.18,-15.68 0.5,-23.5 -19.3,-9.25 -37.72,-18.89 -54.63,-28.87 -0.85,5.19 -1.37,10.92 -1.37,17.25 0,13.61 3.17,22.1 7,26.62 3.82,4.53 8.99,7.63 21.87,7.63 7.24,0 14.52,0 21.75,0 1.33,-0.02 3.13,0.42 4.88,0.87 z m 3.75,-67.62 c 1.45,-14.01 3.36,-27.92 5.62,-41.63 -1.61,0.72 -3.34,1.25 -5.12,1.5 -16.1,3.12 -29.64,9.31 -39.63,18.63 12.15,7.18 25.29,14.43 39.13,21.5 z M 1539.07,2109.22 c -2.91,-0.01 -6.09,-0.54 -9.63,-2.12 -7.08,-3.17 -11.97,-10.75 -13.5,-16.88 -1.63,-6.52 -4.51,-14.61 -2.75,-25.87 0.88,-5.63 3.72,-12.82 9.75,-17.75 6.03,-4.93 13.6,-6.63 20.5,-6.63 8.31,0 16.08,1.19 23.13,6 7.05,4.82 11.42,13.92 11.87,21 0.91,14.18 -5.3,22.46 -10.12,29.25 -2.02,2.81 -4.79,4.98 -8,6.25 -0.4,0.16 -5.61,3.55 -13.75,5.63 -2.04,0.52 -4.6,1.13 -7.5,1.12 z m 1624.25,-63.25 c 83.54,-75.81 199.82,-119.54 326.12,-117.12 0.37,-0.01 0.76,0.01 1.13,0 40.13,-1.16 81.54,7.17 121.62,23.25 0.97,-2.39 1.96,-4.8 2.88,-7.38 5.98,-16.86 12.66,-38.52 19.25,-61.12 13.16,-45.21 25.68,-93.32 34.25,-118 7.94,-22.91 13.79,-40.98 19.62,-60.38 -0.34,-1.15 -0.78,-1.88 -1,-3.25 -1.01,-6.42 1.48,-13 4,-16.37 2.47,-3.3 4.75,-4.77 6.5,-5.88 -60.6,-21.77 -121.57,-32.79 -179.25,-30.87 -0.37,0.01 -0.75,0.01 -1.12,0 -201.6,-4.3 -387,60.05 -525.63,171.87 1.45,2.18 2.56,4.76 3.13,7.5 0.28,1.35 0.16,2.31 0.25,3.5 12.3,16.09 24.1,30.87 39.62,49.5 16.72,20.07 45.47,60.6 73.75,98.25 14.14,18.83 28.07,36.71 39.63,50.38 5.48,6.48 11.03,12.08 15.25,16.12 z M 1435.94,1833.85 c 66.86,-29.4 233.52,-49 302.75,-17.75 0.45,-27.53 2.2,-33.22 2.38,-58.25 -8.33,-0.37 -16.27,-1 -20.88,-1 -83.73,0 -159.54,-2.75 -246.87,-2.75 -18.02,0 -26.97,3.3 -30,5.5 -3.04,2.2 -3.93,3.57 -4.5,11.12 -0.86,11.33 -6.25,37.54 -2.88,63.13 z m 300.13,-437.63 c -0.54,-13.24 -2.67,-26.9 -4.5,-41.5 -52.5,7.64 -100.55,17.98 -141.75,31.38 51.19,0.92 100.78,3.37 146.25,10.12 z m -672.13,-10.37 c 59.94,-1.07 126.26,-17.72 198.13,-8.75 71.81,8.96 152.37,8.53 232.75,8.37 3.01,-3.1 7.06,-5.21 11.5,-5.87 55.8,-30.23 133.58,-50.83 222.37,-64 0,-10.6 -2.55,-66.79 -5.12,-120.25 -1.59,-32.85 -3.03,-63.05 -4,-85.38 -26.38,0.71 -60.61,2.13 -87.25,2.13 -13.96,0 -27.81,-0.64 -41.5,-1.5 -0.68,0.06 -1.44,0.01 -2.13,0 -1.34,-0.01 -2.58,-0.1 -3.87,-0.38 -44.24,-3.02 -86.78,-8.15 -126,-3.25 -56.18,7.03 -108.89,-4.21 -153.75,7 -13.46,3.37 -27.57,5.07 -41.88,5.75 -42.92,2.07 -87.55,-5.12 -121.5,-5.12 -31.58,0 -60.13,-2.5 -89.25,-2.5 -1.21,0 -2.42,0 -3.62,0 -0.39,7.65 -0.9,16.51 -1.5,27.75 -1.35,25.02 -3.09,57.01 -4.88,88.87 -1.79,31.87 -3.53,63.58 -4.87,88.38 -1.34,24.8 -2.25,44.77 -2.25,45.62 0,8.09 -0.7,15.47 -1.5,22.5 10.54,0.24 22.66,0.76 30.12,0.63" /></g></g></g></svg>