<svg xmlns="http://www.w3.org/2000/svg" viewBox="0 0 656 556" preserveAspectRatio="xMinYMid"><g fill-rule="evenodd"><path d="M53.085 297.035c-1.006.035-1.892.67-2.25 1.61-.91 2.31-1.67 4.302-2.156 6-.49 1.696-1.1 3.014-.13 5 .06.124.13.24.22.36-1.49.224-2.98.6-4.33 1.186-2.05.9-4.4 1.61-6.6 1.97-2.95.49-5.77 1.58-7.547 1.88-1.667.28-2.75 1.14-3.656 1.81-.91.68-1.67 1.25-2.063 1.43-2.85 1.24-4.825 3.432-6.078 4.344-2.157 1.567-3.327 3.42-4.61 4.765-1.164 1.216-1.493 2.464-1.89 3.56-.4 1.096-.843 2.09-.89 2.156-.955 1.334-1.214 2.685-1.455 3.67-.24.99-.44 1.62-.735 2.03-1.92 2.69-2.966 6.298-3.203 9.25-.26 3.235-1.02 5.73-.344 9.785.56 3.37.86 6.993 1.482 10.734.595 3.574.89 7.288 1.516 11.048.63 3.774 1.242 7.49 2.546 11.298.9 2.626.703 6.3 1.33 10.05.464 2.802.766 5.91 1.64 9.013-1.9 2.1-4.277 4.263-6.565 6.61-2.88 2.954-5.67 6.26-6.83 10.485-1.158 4.225-.41 9.186 3.046 14.548 2.726 4.226 7.08 8.817 13.61 14.093-.69.316-1.367.686-2.06 1.077-1.536.866-3.075 1.874-4.375 2.704-.57.36-.7.42-1.155.688-1.22-.53-2.64-.017-3.236 1.17-.174.335-.32.66-.438 1.11-.117.452-.32 1.204.264 2.203.582 1 1.854 1.346 2.45 1.33.6-.02.93-.15 1.236-.27 1.22-.46 2.224-1.176 3.534-2.013-.22.287-.54.686-.72.937-.447.628-.72.988-1 1.657-.067.166-.146.36-.2.703-.055.34-.15.94.33 1.75.476.806 1.595 1.24 2.17 1.25.575.007.836-.12 1.047-.204.845-.336 1.008-.567 1.407-.89.4-.326.832-.71 1.297-1.14 1.07-.99 2.183-2.087 3.19-3.158.036.762.065 1.55.186 2.28.21 1.264.405 1.99.436 2.22.03.227.06.095-.14.75-.407 1.32.334 2.717 1.654 3.124 1.32.404 2.72-.338 3.126-1.658.06-.2.095-.408.14-.61.474 2.1.995 4.382 1.376 6.094.676 3.047 1.19 5.474 1.22 5.64.096.924.696 1.72 1.56 2.063.77.307 1.638.218 2.314-.232.603-.1 1.207-.21 1.812-.31 3.86-.643 7.31-1.52 10.936-2.126.402-.067.807-.14 1.218-.22.043.93.103 1.956.19 3.186.25 3.534.666 8.2 1.11 13.03.44 4.83.91 9.826 1.22 13.97.307 4.143.435 7.626.34 8.64-.81 8.765 1.23 15.144.8 22.297-.263.184-.504.338-.893.593-1.15.756-2.748 1.758-4.39 2.766-1.646 1.01-3.344 2.04-4.736 2.89-1.393.85-2.368 1.44-3 1.89-.75.52-1.162 1.406-1.078 2.314.082.91.65 1.69 1.483 2.064.83.37 1.797.274 2.53-.27.16-.112 1.325-.845 2.705-1.687 1.377-.84 3.07-1.886 4.732-2.905 1.66-1.02 3.29-2.01 4.53-2.83.62-.406 1.15-.77 1.58-1.092.212-.16.392-.313.606-.515.108-.1.22-.2.375-.407.16-.204.476-.434.565-1.39.81-8.754-1.523-15.227-.78-23.25.188-2.05-.03-5.274-.345-9.485-.315-4.21-.776-9.23-1.22-14.06-.44-4.83-.863-9.48-1.11-12.927-.115-1.636-.196-2.98-.216-3.92 4.62-1.08 9.253-2.2 12.733-1.92 7.31.584 13.79-2.044 19.688-2.283 3.67-.15 7.204-.84 10.64-1.656.01 17.026.007 41.987-2.89 56.78-.453 2.325-.78 4.75-.78 7.235h.03c-.1 1.335.427 2.41 1.018 3.266.66.964 1.505 1.805 2.485 2.673 1.96 1.73 4.495 3.49 7.048 5.12 2.556 1.63 5.125 3.123 7.096 4.235.986.555 1.82 1.012 2.42 1.343.303.167.553.3.72.39.085.05.19.11.236.14 1.137.69 2.63.38 3.39-.73.79-1.154.496-2.728-.656-3.518-.394-.266-.347-.21-.53-.31-.187-.103-.42-.227-.72-.39-.597-.33-1.415-.787-2.376-1.33-1.923-1.084-4.424-2.54-6.86-4.093-2.435-1.557-4.81-3.23-6.405-4.64-.8-.71-1.41-1.36-1.69-1.768-.13-.19-.138-.29-.14-.295v-.094c0-2.04.272-4.147.686-6.265 3.174-16.21 3-42.034 2.986-59.016 2.095-.52 4.176-.99 6.202-1.33 3.224-.538 7.553-1.08 10.968-1.56.547.702 1.434 1.092 2.375.934 1.167-.194 2-1.165 2.08-2.295.408-.513.624-1.173.53-1.874-.086-.66-.43-1.22-.904-1.61-.222-1.775-.49-3.93-.844-6.92.052.08.1.17.156.25.784 1.14 2.344 1.426 3.483.64 1.14-.785 1.426-2.345.64-3.484-.39-.564-.32-.445-.36-.67-.04-.23-.083-1-.264-2.27-.106-.732-.32-1.49-.517-2.232 1.285.717 2.676 1.437 4 2.06.573.27 1.1.5 1.58.69.476.187.7.37 1.606.436.224.018.516.06 1.06-.122.548-.18 1.478-.945 1.69-1.86.212-.913-.063-1.455-.22-1.764-.155-.31-.288-.47-.406-.61-.464-.55-.832-.8-1.45-1.264-.25-.186-.683-.475-.984-.686 1.51.403 2.692.787 4 .858.327.018.675.04 1.25-.125.574-.164 1.682-.887 1.936-2.016.257-1.125-.16-1.774-.404-2.17-.248-.394-.486-.655-.75-.92-.926-.944-2.425-1.005-3.423-.142-.52-.118-.665-.136-1.33-.313-1.49-.397-3.258-.89-4.983-1.25-.786-.164-1.553-.312-2.31-.405 4.626-7 7.4-12.7 8.72-17.55 1.672-6.155.896-11.12-1.486-14.797-2.38-3.678-6.05-5.98-9.685-7.92-3.573-1.916-7.2-3.51-9.904-5.347-.552-3.55-.877-7.105-1.5-10.845-.69-4.15-1.63-7.953-2.28-11.86-.658-3.95-1.297-7.653-1.296-11.31 0-1.422-.15-2.833-.375-4.22 1.36-.4 2.77-.82 4.25-1.262 1.914-.58 3.767-1.15 5.17-1.58 1.405-.43 2.124-.635 2.517-.765 1.23-.362 1.984-1.6 1.75-2.86-.233-1.26-1.38-2.134-2.656-2.03-.23.015-.453.06-.67.14.168-.056-1.005.306-2.405.734-1.4.43-3.246 1-5.155 1.58-1.306.393-2.557.765-3.81 1.14-.226-1.016-.426-1.984-.578-2.89-.654-3.927-2.208-7.666-3.438-10.91-1.317-3.464-2.587-6.666-3.86-10.03-1.52-4.01-4.367-7.255-7.128-9.89-3.286-3.137-6.837-4.097-9.39-5.92-2.34-1.67-5.39-2.51-8.19-2.877.625-.375 1.29-.74 1.97-1.08 2.648-1.315 5.618-2.33 7.577-2.655 1.285-.21 2.2-1.37 2.09-2.67-.106-1.3-1.193-2.303-2.5-2.298-.14 0-.28.01-.42.03-2.738.457-5.957 1.62-8.986 3.127-2.88 1.434-5.525 3.096-7.327 5.205-1.23-.072-2.336-.19-3.018-.39.963-1.83 2.562-4.087 3.58-5.453.36-.49.603-.57.98-1.624.094-.263.316-.644.093-1.545-.11-.452-.44-1.025-.907-1.39-.465-.367-.96-.495-1.31-.532-1.4-.143-1.447.22-1.75.378-1.21.62-2.624 1.69-5.735 3.952-1.466 1.067-2.594 1.787-3.53 2.344.407-1.324 1-2.973 1.81-5.032.32-.784.22-1.68-.264-2.374-.486-.692-1.294-1.09-2.14-1.06zm12.14 6.625c.023-.01.015.054-.156.11l.15-.11zm-5.468 10.47c.6-.005 1.006.02.985.015 2.807.864 6.107.717 8.375.72 2.407 0 7.593 1.16 9.03 2.186 3.437 2.46 6.597 3.34 8.844 5.49 2.5 2.39 4.82 5.17 5.91 8.03 1.3 3.42 2.57 6.62 3.86 10.03 1.26 3.33 2.67 6.84 3.19 9.97.197 1.16.447 2.31.69 3.46-.09.022-.27.077-.33.094-.912.167-1.66.83-1.94 1.718-.272.89-.03 1.86.63 2.516.658.658 1.628.89 2.514.61.02-.004.06-.01.08-.015.15.996.25 1.94.25 2.815 0 2.38.23 4.68.545 6.938-4.848 5.142-6.2 5.486-12.954 6.61-7.68 1.28-16.26-.913-23.47-4.39-.48-.233-1.82-1.384-2.86-2.546-.514-.584-.99-1.175-1.39-1.66-.392-.48-.53-.715-1.09-1.25-.542-.526-1.274-.814-2.03-.795-1.144.03-2.16.74-2.563 1.81s-.11 2.29.733 3.064c-.27-.257.202.24.61.732s.936 1.144 1.545 1.826c1.22 1.368 2.613 2.898 4.61 3.86 7.92 3.82 17.49 6.446 26.828 4.89 5.637-.936 9.195-2.106 13.11-5.42.657 3.563 1.465 6.898 2.034 10.313.626 3.765.946 7.594 1.624 11.67l1.828 11c.3 1.807.528 3.68.767 5.58-6.135-.21-13.772 1.53-21.686 3.53-8.442 2.13-17.15 4.63-23.86 5.75-9.663 1.61-19.564 1.767-29.22 3.375-3.207.534-7.004-.9-12.217-.156-.14-.07-.35-.21-.875-.373 0-.002-.01 0-.013 0-.206-1.246-.416-2.49-.624-3.734-.57-3.444-.61-7.28-1.75-11.313.4-.72.42-1.61.034-2.36-.235-.45-.59-.8-1.02-1.03-.54-2.32-.84-4.91-1.28-7.55-.48-2.886-.17-6.865-1.53-10.83-1.135-3.31-1.716-6.73-2.344-10.5-.58-3.48-.89-7.205-1.53-11.048-.578-3.463-.86-7.095-1.47-10.75-.524-3.142.092-4.83.39-8.547.15-1.853 1.256-5.315 2.28-6.75.976-1.363 1.286-2.752 1.532-3.766.245-1.016.46-1.64.67-1.94.865-1.21 1.147-2.34 1.517-3.36.37-1.017.852-1.87.796-1.81 1.685-1.76 2.716-3.3 3.937-4.185 1.95-1.415 3.67-3.164 5.126-3.797 1.344-.587 2.27-1.4 3.06-1.985.786-.59 1.41-.876 1.5-.893 2.676-.445 5.365-1.53 7.53-1.89 2.646-.44 5.332-1.254 7.766-2.31 1.46-.636 4.5-1.064 6.64-1.064 1.4 0 2.953-.277 4.514-.454.78-.09 1.574-.12 2.173-.125zm14.03 31.936c-.472.01-1.05.114-1.656.516-.8.537-1.24 1.573-1.31 2.36-.06.837-.26 1.882.19 3.234.23.676.74 1.5 1.58 1.984.85.485 1.82.547 2.67.406 1.03-.17 1.95-.48 2.72-1.22.77-.737 1.12-1.944 1.03-2.826-.18-1.766-1.122-2.668-1.86-3.406-.3-.307-.69-.518-1.11-.61-.05-.012-.76-.333-1.81-.422-.13-.01-.28-.018-.435-.016zm39.188 56.14c2.182 1.164 4.418 2.208 6.485 3.314 3.385 1.81 6.242 3.76 7.844 6.234 1.6 2.473 2.27 5.572.86 10.766-1.265 4.647-4.33 10.836-9.97 18.92-.124-.953-.218-1.713-.296-2.186-.538-3.227-.2-6.79-.875-10.844l-1.58-9.47c-.592-3.56-.913-7.466-1.562-11.358-.29-1.792-.6-3.583-.9-5.375zM15.32 415.74c.336 2.33.513 4.826.952 7.467l1.782 10.688c.532 3.202 1.24 5.532 1.734 8.5.462 2.775 1.45 4.946 1.78 6.937.112.672.447 2.2.892 4.203-7.52-5.83-12.15-10.68-14.703-14.64-2.916-4.524-3.2-7.675-2.422-10.516.778-2.85 2.9-5.57 5.578-8.32 1.393-1.43 2.916-2.85 4.406-4.33zm93.186 3.25c.674-.01 1.314.016 1.907.06.037.235.07.47.11.704l1.577 9.468c.538 3.225.185 6.79.86 10.844.218 1.308 1.063 8.293 1.844 14.938.477 4.07.9 7.822 1.234 10.593-3.267.455-7.512 1-10.797 1.548-7.55 1.257-14.59 3.915-21.28 4.187-7.07.288-13.33 2.76-19.09 2.297-6.91-.56-14.57 2.35-20.15 3.28-3.894.65-7.36 1.54-10.953 2.14l-.452.08c-.204-.94-.442-2.03-.75-3.41-.68-3.06-1.547-6.95-2.422-10.85-.873-3.895-1.745-7.784-2.42-10.815-.674-3.03-1.2-5.457-1.22-5.56-.47-2.826-1.46-5.004-1.78-6.92-.546-3.29-1.24-5.63-1.72-8.5-.085-.53-.176-1.055-.264-1.58.11-.01.24-.028.36-.048 3.94-.658 7.662.96 12.685.124 1.987-.33 4.02-.597 6.077-.83 0 .317.03.987.423 1.89 1.007 2.323 2.987 6.728 4.982 10.39.997 1.834 1.964 3.466 2.984 4.706.51.616.963 1.173 1.908 1.64.474.23 1.168.443 1.985.295.82-.15 1.56-.72 1.94-1.25 1.01-1.414 3.89-5.997 6.75-10.266 1.254-1.876 2.47-3.614 3.42-4.89.34.82.86 1.54 1.5 2.015 1.13.84 2.37 1.283 3.69 1.47-.857.84-1.206 1.82-1.47 2.92-.28 1.16-.43 2.52-.486 4.234-.205 6.325.546 10.143 2.454 14.53.77 1.78 1.41 3.976 2.687 5.783.32.453.7.92 1.313 1.33.61.407 1.58.71 2.513.545 1.87-.33 2.63-1.645 3.345-3.015.335-.64.636-1.39 1.096-2.563.46-1.175 1.006-2.618 1.518-4.05.51-1.43.988-2.847 1.328-4.016.17-.586.3-1.1.39-1.594.05-.25.1-.48.11-.796.015-.314.176-.682-.405-1.64-.484-.797-2.56-4.492-4.5-7.812-.97-1.66-1.92-3.244-2.67-4.435l-.268-.403c.34-.265.63-.57.817-.876.425-.72.514-1.34.56-1.89.092-1.1-.064-2.033-.17-2.86-.05-.382-.056-.46-.08-.732.513.278 1.12.373 1.703.25.234.1.375.14.78.36 1.32.715 3.253 1.947 5.235 3.297 1.98 1.35 4.027 2.82 5.687 4.064 1.66 1.24 3.045 2.365 3.25 2.56.406.39 1.04.836 1.94.924.9.086 1.823-.35 2.31-.798.974-.896 1.097-1.64 1.313-2.438.432-1.595.606-3.53.72-5.64.11-2.116.12-4.35.076-6.27-.045-1.915-.123-3.377-.3-4.436-.09-.55-.176-1.103-.265-1.655 2.42-.384 4.64-.616 6.546-.64zm-11.468 1.56c.087.516.18 1.03.266 1.547.056.343.177 1.932.22 3.735.04 1.803.022 3.943-.08 5.89-.058 1.114-.196 1.76-.313 2.625-.46-.352-.65-.546-1.21-.968-1.72-1.29-3.82-2.81-5.872-4.21-2.057-1.4-4.054-2.67-5.672-3.55-.81-.44-1.477-.79-2.28-1.017-.247-.07-.517-.154-.875-.173 2.68-.7 5.375-1.405 8.03-2.076 2.67-.672 5.288-1.29 7.8-1.81zm-17.64 4.376c-.158.104-.31.223-.454.375l-.125.14c-.13-.06-.25-.11-.38-.15-.09-.02-.2-.03-.32-.03l1.268-.33zm-15.72 3.484c-.332.375-.643.795-1.015 1.28-1.132 1.476-2.545 3.516-4 5.69-2.304 3.44-4.07 6.185-5.282 8.03-.53-.794-1.07-1.56-1.73-2.765-1.85-3.406-3.82-7.75-4.8-9.985.09.2.07-.01 0-.42 5.47-.51 11.11-.946 16.83-1.83zm8.485 1.08c.49-.005 1.26.062 2.016.155.13.016.24.044.37.062.04.345.03.765.07 1.094.053.4.04.56.064.88-1.913.1-3.43-.2-3.78-.36.097-.28.484-.93 1.25-1.82zm2.53 12.467c1.026 1.433 2.177 3.677 3.205 5.938-.717-.7-1.448-1.43-1.782-1.89-.477-.658-.605-.966-1.39-1.564l-.25-.17c.002-.07-.003-.12 0-.2.03-.98.13-1.49.218-2.11zm49.032 1.11c.01-.015.08.015.14.124-.014-.01-.115-.08-.124-.09-.01-.01-.02-.02-.01-.03zm-44.53 12.093c.098.046.194.1.296.14-.04.13-.09.232-.14.36-.05-.163-.09-.334-.15-.5zm-61.016 1.985c.01-.015.02.005.01.03l-.08.11c.02-.078.04-.126.06-.14" fill="#fff"/><path d="M508.427 166.75c-6.153-1.204-11.568.347-15.685-1.743-.084-.038-.168-.072-.253-.098-12-4.08-27.01 2.18-39.21 10.25-17.35 11.46-30.41 26.75-36.41 56.33-5.037 24.82-3.28 36.18 3.1 59.35 4.712 17.11 15.517 27.49 23.19 37.16 7.07 8.91 15.14 11.78 23.002 12.82 7.86 1.04 15.65.38 22.603 1.74 16.14 3.156 33.875-7.996 48.08-10.627 9.08-1.683 16.823-12.338 22.77-24.955 5.947-12.62 10.09-27.345 11.338-38.975 2.635-24.59-.265-49.932-11.394-70.2-12.58-22.914-34.8-27.87-51.144-31.063m39.606-90.45c-48.774 1.47-97.587 3.05-146.377 4.094-23.878.775-58.81.437-79.47-1.343-15.1-2.12-10.718 22.265-10.25 36.095 1.575 19.057 2.195 38.177-.593 57.157-1.51 30.865-2.795 62.11 3.567 92.562 4.16 20.782-2.845 41.443-1.53 62.34.37 21.264-3.976 42.296-2.283 63.593.675 14.6-4.995 39.097 17.784 34.47 8.398-.62 16.73-1.98 25.063-3.25l15.214 1.73c29.885-1.298 58.628.27 89.193.893 21.565-.17 47.16 1.96 64.75-.157 14.69-3.85 31.445-.03 44.618-3.66 13.175-3.63 1.974-17.92 3.01-35.56 1.04-17.632 4.674-46.28 2.127-72.53-4.01-13.77-.225-27.502 2.156-41.56.406-22.42 3.24-55.354-.03-75.5-.674-21.04.795-27.98.997-44.874.205-16.898-.472-60.45-4.306-72.126-6.19-2.09-17.155-2.27-23.626-2.372zm-183.75 5.47c2.343-.02 1.716 1.936 1.78 2.874 1.32.84 9.855-2.164 13.97 0 5.132 2.236-2.347 2.42-4.877 1.407-5.95-1.58-7.214 3.226-11.28 3.407-.644-5.87-8.283.09-13.19-2.81-4.685 4.075-9.645-2.266-14.343-.094-3.57-3.523 7.53-3.075 9.505-.563 3.536-2.992 8.526.787 12.217-1.344 4.588.61 3.87-1.24 6.22-2.874zm140.873.218c3.51.28.833 3.22 1 4.595-3.69 2.964-1.81-3.09-6.438-1.468-7.598 1.193-15.158.46-22.844.403-4.487-3.344 7.496-2.17 10.436-1.625 5.77-.966 13.286.26 17.842-1.907zm6.47.908c4.007 1.173 9.827.526 14.592.876 7.43-1.11 14.497-.2 21.5-.25 6.022.12 2.473 4.35-1.688 1.844-6.73-.07-13.74-.15-20.88.56-4.074-.78-17.995 1.28-13.53-3.03zm-47.783.78c2.496.46 7.206-.08 8.41 1.47-2.562 2.71-10.255-.643-14.624 1.345-7.27-.56-14.245.513-21.53.438-4.706-1.6-14.055.775-16.22-2.28 6.65-2.193 15 1.1 22.373.19 7.1-1.38 14.536.542 21.595-1.158zm-67.59.315c.65-.013 1.215-.007 1.595 0 3.49-.057 6.817.83 10.342.438 3.643-1.644 11.593 2 4.562 2.096-8.164.32-16.234-.87-24.375.092-6.378-1.86 3.317-2.53 7.875-2.626zm103.78 6.376c2.23.103 1.51 1.946 1.627 2.873 1.335.83 9.856-2.18 13.97-.03 5.044 2.15-2.428 2.55-4.908 1.41-5.965-1.595-7.205 3.266-11.28 3.436-.636-5.875-8.29.063-13.19-2.844-4.7 4.07-9.644-2.23-14.345-.06-3.57-3.522 7.554-3.12 9.53-.624 3.53-2.88 8.528.87 12.22-1.28 4.697.676 3.778-1.41 6.376-2.877zm-118.842.185c1.077-.066 1.57.61 2 1.126 7.448-.845 14.428 1.93 21.846.22 5.713-1.745 8.464 3.43 1.437 1.97-7.862 1.81-15.27-.65-23.157-.066.52 5.685-7.29-2.025-2.123-3.25zm-6.435.876c6.696 3.535-6.8 2.53-9.28 2.94-6.7 1.13-13.56-1.915-19.91-.19-3.03-1.09-9.933 2.135-10.154-1.126 6-1.145 12.66-1.68 19.347-1 6.52.43 14.21.55 20-.624zm46.22.72c.577-.01 1.075-.028 1.53.06 5.485 1.215 11.074.604 16.656.563 8.267 1.706 16.637-.41 24.97-.25 6.93 1.187-2.39 3.066-5.5 2.19-7.49 1.37-15.203.597-22.69.19-6.225 1.23-12.27-1.5-18.37-.096-6.7-.39-.644-2.58 3.407-2.656zm110.84.404c.654-.013 1.216-.01 1.596 0 3.496-.063 6.82.86 10.347.47 3.636-1.64 11.59 1.93 4.56 2.03-8.165.33-16.197-.833-24.342.126-6.378-1.86 3.287-2.53 7.843-2.626zM364.28 98.36c2.344-.02 1.717 1.936 1.78 2.874 1.32.84 9.856-2.165 13.97 0 5.133 2.235-2.346 2.418-4.876 1.406-5.952-1.58-7.214 3.194-11.28 3.375-.644-5.87-8.284.12-13.19-2.78-4.685 4.074-9.645-2.266-14.343-.095-3.57-3.523 7.52-3.095 9.51-.594 3.535-2.984 8.528.81 12.22-1.312 4.587.608 3.87-1.24 6.22-2.875zm57 .217c1.092-.072 1.57.62 2.03 1.125 7.446-.838 14.458 1.902 21.875.188 5.624-1.65 8.5 3.386 1.406 1.97-7.86 1.81-15.29-.65-23.18-.064.52 5.68-7.29-1.985-2.12-3.22zm90.343.875c4.01 1.173 9.83.557 14.594.907 7.428-1.11 14.497-.2 21.5-.25 6.022.12 2.473 4.31-1.688 1.81-6.73-.07-13.74-.15-20.88.56-4.07-.78-17.99 1.27-13.53-3.03zm-50.563.625c.57-.005 1.116.057 1.563.157 5.02.973 10.264.923 15.406.468 7.75 1.424 15.64.38 23.43-.156 5.014-1.6 7.69 3.02 1.403 2.03-8.02.18-16.125 1.893-24.094.283-7.1 1.07-14.176-1.02-21.126-.04-6.632-.37-.594-2.71 3.408-2.75zm-64.812.47c.65-.015 1.214-.008 1.594 0 3.49-.058 6.818.86 10.343.468 3.644-1.533 11.766 1.962 4.563 2.062-8.163.327-16.234-.87-24.375.094-6.378-1.85 3.32-2.52 7.875-2.62zm24.75 4.812h42.062c2.16.38 4.28.92 6.313 1.65h-54.22c1.887-.71 3.86-1.25 5.845-1.66zm-8.438 2.75h59.47c1.024.48 2.008 1.03 2.968 1.65H409.56c.97-.61 1.96-1.168 3-1.66zm-5.094 3.12h69.563c.64.51 1.27 1.03 1.87 1.62h-73.37c.62-.584 1.26-1.11 1.93-1.627zm-3.593 3.31h76.72c.352.5.592 1.04.78 1.62H402.56c.416-.57.85-1.1 1.313-1.624zm-2.063 2.75h79.875c.144.56.273 1.11.47 1.652-27.108 0-54.237.002-81.345 0 .09-.163.178-.318.28-.468.23-.41.473-.8.72-1.19zm-1.625 3.09h82.72c.452.62.975 1.15 1.53 1.624H399.59c.223-.513.392-1.063.595-1.625zm-3.562 3.31h90.375c1.29.65 2.66 1.16 4.062 1.66h-98.5c1.315-.65 2.67-1.215 4.063-1.66zm-6.125 2.783H494.06c1.113.46 2.176.99 3.156 1.656H387.998c.802-.59 1.642-1.147 2.5-1.657zm-4.313 3.093h54c-1.662.53-3.335.83-3.72.97-.665.243-1.387.49-2.123.687h-49.907c.563-.57 1.143-1.13 1.75-1.655zm57.875 0h54.906c.14.147.274.28.407.44.326.385.617.81.906 1.22H449.9c-.725-.2-1.466-.42-2.125-.66-.39-.14-2.05-.47-3.72-1zm-61.156 3.344h42.688c-.045.24-.063.53-.063.97 0 .218-.02.443-.04.657h-43.87c.403-.562.833-1.09 1.28-1.623zm75.78 0h42.69c.32.54.607 1.07.905 1.627h-43.44c-.02-.212-.07-.44-.07-.654 0-.44-.05-.73-.097-.97zm-24.718 1.5c2.598-.015 5.114 1.068 7.563 1.877 3.74 2.208 10.12-.8 11.9 4.53-.48 2.57 1.15 4.657 3.75 4.316 4.42-.156 10.54-1.543 12.75 3.844 1.85 2.77-.39 5.102-1.19 7.53 3.154-.39 6.57 2.71 5.404 6.25.244 2.39-3.85 2.85-3 4.845 4.764 2.96 4.045 9.35 3.844 14.373-.474 15.012-.435 30.046-.438 45.092-1.057 17.365-.33 34.9-1.876 52.22h20.096c-.08.555-.213 1.107-.345 1.655H472.49c-.036.368-.056.73-.094 1.095h19.75c-.174.564-.364 1.114-.594 1.656H472.21c-.052.48-.096.96-.155 1.44h18.78c-.31.57-.62 1.13-1 1.653h-17.97c-.026.2-.067.394-.093.592-1.14.5-2.34.87-3.532 1.092h20.188c-.6.608-1.26 1.18-1.97 1.657h-89.655c-.51-.556-1.042-1.107-1.562-1.658h4.22c-.77-.37-1.474-.92-2.123-1.69h-3.56c-.433-.523-.827-1.083-1.19-1.657h4.5c-.034-.48-.062-.96-.094-1.44h-5.062c-.022-.55-.04-1.1-.06-1.654h4.97c-.024-.366-.01-.727-.032-1.094h-5l-.06-1.655h4.936c-.033-.55-.06-1.104-.093-1.655h-4.906c-.023-.55-.07-1.11-.095-1.658h4.94c-.03-.49-.07-.985-.098-1.47h-4.874c-.02-.554-.073-1.074-.095-1.626h4.876l-.06-1.126h-4.847c-.02-.556-.01-1.107-.03-1.66h4.812c-.03-.553-.07-1.104-.096-1.657h-4.82l-.06-1.626h4.78c-.024-.486-.04-.98-.064-1.47h-4.78c-.02-.55.018-1.103 0-1.655h4.718c-.015-.366-.048-.727-.063-1.093h-4.713c-.02-.554-.043-1.136-.062-1.69h4.72c-.014-.393-.015-.76-.03-1.155h-4.72c-.017-.547-.075-1.11-.093-1.655h4.75c-.015-.49-.013-.95-.03-1.44h-4.75c-.016-.55-.013-1.104-.03-1.656h4.72c-.013-.366-.022-.76-.033-1.125h-4.72c-.016-.55-.045-1.11-.06-1.656h4.72c-.018-.553-.048-1.102-.065-1.656h-4.72c-.015-.55-.045-1.11-.06-1.658h4.75c-.013-.487-.02-.98-.032-1.47h-4.75c-.015-.55-.015-1.102-.03-1.655h4.75c-.008-.365-.02-.726-.03-1.093h-4.75c-.016-.548-.017-1.078-.03-1.626h4.75c-.014-.56-.053-1.124-.064-1.686h-4.75c-.016-.55-.02-1.08-.034-1.626h4.75c-.01-.487-.022-.98-.03-1.47h-4.75c-.015-.55-.05-1.102-.063-1.654h4.78c-.008-.365.005-.727 0-1.093h-4.78c-.016-.55-.02-1.104-.034-1.656h4.812c-.01-.552-.026-1.1-.03-1.654h-4.847l-.03-1.688h4.846c-.005-.487-.024-.95-.03-1.437h-4.844c-.01-.552-.05-1.103-.06-1.656H395c-.004-.357.005-.738 0-1.094h-4.905c-.012-.555-.02-1.106-.032-1.66h4.906c-.01-.55 0-1.102 0-1.655h-4.91l-.03-1.655h4.9c-.006-.49.004-.986 0-1.47H390c-.01-.55-.05-1.106-.062-1.658h4.97c-.003-.367.002-.73 0-1.096h-4.97l-.03-1.655h4.968c-.004-.552.004-1.102 0-1.654h-4.938c.06-.6.064-1.162-.062-1.656h4.97c-.005-.488 0-.98-.002-1.468h-5.998c-.33-.213-.713-.36-1.22-.44-1.784-.556-3.613-.92-5.437-1.186h12.65v-1.097h-38.56c-.446-.06-.876-.176-1.316-.25-.14.06-.3.18-.438.25h-25.88c-.22-.54-.397-1.095-.567-1.657 22.244-.004 44.507 0 66.75 0-.003-.566-.027-1.127-.03-1.69h-67.18c-.126-.544-.18-1.107-.28-1.656h67.466c-.003-.486.002-.95 0-1.436h-67.75c-.088-.55-.17-1.11-.25-1.657 22.652 0 45.315.002 67.97 0-.004-.374 0-.75 0-1.124H326.65c-.055-.547-.1-1.096-.125-1.656h68.25c-.004-.554-.03-1.103-.033-1.656h-68.25c.005-.55.026-1.11.062-1.66h68.187c0-.476-.03-.96-.03-1.435h-68.03c.07-.55.16-1.11.25-1.655 22.6-.003 45.19 0 67.78 0 .01-.02.01-.045.01-.064.06-.347.088-.71.125-1.06-22.562 0-45.124.03-67.687.03.127-.56.277-1.11.44-1.657 22.46 0 44.917.003 67.376 0 .005-.54 0-1.105-.032-1.657h-66.78c.216-.56.455-1.12.72-1.655h31.312c1.605.42 3.22.682 4.906.75 3.003-.11 5.898-.36 8.877.155-.457-.33-.952-.618-1.437-.906h22.25c-.05-.486-.13-.98-.19-1.47h-24.78c-1.088-.536-2.206-1.03-3.25-1.624h27.874c-.047-.374-.115-.75-.157-1.123h-29.47c-.677-.483-1.295-1.03-1.875-1.654h31.22c-.045-.56-.08-1.14-.094-1.69h-33.63c-5.044-2.31-11.203-.064-16.624-.283-1.988.05-3.923-.43-5.626-1.34 18.624-.005 37.244-.03 55.87-.035.026-.48.086-.97.156-1.44h-58.15c-.58-.497-1.12-1.022-1.594-1.624h60.094c.114-.384.248-.75.406-1.123h-61.25c-.317-.52-.613-1.084-.843-1.655 20.994-.003 42.004 0 63 0 .214-.32.423-.63.686-.94.483-.218.84-.46 1.093-.718h-65.28c-.12-.545-.224-1.085-.282-1.625h65.754c-.182-.29-.46-.596-.844-.907-.2-.19-.377-.39-.53-.592H332c-.01-.547.046-1.08.093-1.624 21.19-.004 42.37 0 63.562 0-.098-.37-.182-.75-.188-1.127h-63.28c.082-.55.182-1.08.312-1.626h63.25c.18-.596.47-1.165.84-1.687h-22.66c.01-.543.012-1.074.03-1.625h24.25c.65-.44 1.38-.765 2.154-.906-.087-.19-.175-.38-.28-.564h-26.06c.023-.545.057-1.072.093-1.623h24.906c-.25-.37-.517-.738-.72-1.126h-24.1c.048-.547.06-1.14.125-1.687h23.376c-.037-.25-.074-.51-.062-.78.05-.302.14-.6.22-.874h-23.28c.094-.55.225-1.08.345-1.623h23.626c.373-.61.846-1.097 1.375-1.5h-24.62c.16-.558.335-1.084.53-1.626h29.878c.75-.022 1.5-.03 2.25 0h.623c.012.02.02.05.03.066 1.266.073 2.497.18 3.563.25 3.436.664 3.018-2.806 3.906-5.22-.83-.03-1.64-.095-2.43-.095-2.02 0-4.03-.085-5.72.034-.097.18-.19.346-.28.53h-29.5c.214-.3.416-.59.655-.876.11-.257.225-.495.344-.75h37.562c.037-.044.056-.113.094-.155 1.68-.59 3.48-.938 5.28-1.285h-42.19c.31-.565.616-1.112.97-1.655h44.434c-.1.403-.224.766-.404 1.125 2.73-.51 5.426-1.115 7.936-2.28.375-.05.753-.09 1.125-.095zm25.032 1.25h43.844c.29.557.61 1.107.906 1.658h-44.03c-.322-.498-.57-1.05-.72-1.656zm2.187 3.096h43.375c.33.56.69 1.09 1.063 1.624H475.28c-.11-.2-.193-.402-.282-.593-1.34-.014-2.78.03-4.25.03-2.24 0-4.724.326-7.094-.122-.833-.158-1.686-.433-2.47-.938zm-111.155 1.41c.762-.016 1.524.053 2.28.22h-4.156c.616-.127 1.246-.206 1.875-.22zm184.03.094c.472-.003.96.047 1.438.126h-2.72c.432-.07.843-.12 1.282-.126zm-189.968 1.813h11.812c.752.498 1.424 1.028 2.094 1.625H342.06c.61-.617 1.3-1.147 2.03-1.624zm33 0h29.843c-.06.163-.102.307-.156.47.22.347.41.687.81 1.155h-31.31c.24-.555.51-1.092.81-1.624zm99.437 0h30.15c.32.534.63 1.068.94 1.625h-30.84c.14-.22.21-.42.37-.874-.21-.295-.43-.548-.628-.75zm51.96 0h11.03c.84.492 1.634 1.032 2.405 1.625h-15.65c.692-.6 1.447-1.145 2.217-1.624zm-187.377 2.75h18.03c.52.53 1.045 1.058 1.532 1.625H339.99c.105-.14.177-.265.28-.405.245-.42.546-.83.845-1.22zm134.72 0h32.373c.28.542.564 1.068.813 1.625h-34.09c.21-.61.545-1.15.906-1.624zm49.25 0h18.22c.58.52 1.122 1.052 1.655 1.625h-21.31c.455-.556.91-1.09 1.437-1.624zm-50.407 3.094h34.906c.21.55.4 1.1.564 1.66h-35.06c-.25-.403-.435-.89-.435-1.434 0-.073.03-.145.03-.22zm47.813 0h23.72c.426.54.832 1.098 1.22 1.66h-26.19c.407-.56.836-1.114 1.25-1.653zm-183.594.038h23c.435.545.88 1.072 1.312 1.625h-25.47c.375-.556.77-1.086 1.155-1.625zm-2.25 3.282h27.812c.435.555.92 1.146 1.373 1.686h-30.15c.32-.556.624-1.143.97-1.686zm140.874 0c11.024-.003 22.04 0 33.06 0 .116.55.228 1.13.28 1.686h-30.03c-.05-.34-.11-.71-.185-1.03-1.35-.12-1.585-.235-2.75-.53-.13-.035-.243-.09-.373-.126zm42.47 0h28.5c.313.535.597 1.13.875 1.686-10.198.002-20.368 0-30.564 0 .424-.544.78-1.13 1.19-1.686zm-184.97 2.81h31.75c.51.566 1.077 1.104 1.626 1.625H334.21c.26-.55.524-1.083.814-1.624zm145.032 0h30.875c.016.55-.004 1.076-.06 1.625h-32.5c.314-.326.65-.66 1.03-.936.255-.22.437-.45.657-.69zm37.844 0h32c.24.536.51 1.045.72 1.594-11.39 0-22.804.03-34.19.03.51-.52 1-1.05 1.47-1.62zm-40.564 3.063c11.1-.002 22.215 0 33.314 0-.124.556-.284 1.107-.5 1.656H476.99v-.066c-.01-.562.13-1.103.344-1.593zm37.564 0h36.22c.17.54.3 1.108.438 1.656h-39.03c.845-.477 1.635-1.038 2.374-1.66zm-181.31.03h36.502c.35.268.72.508 1.092.75.356.166.92.577 1.47.876h-39.69c.178-.55.406-1.087.625-1.628zm143.91 3.28h74.435c.105.548.184 1.11.25 1.658-24.403.005-48.81 0-73.216 0-.557-.402-1.085-.955-1.47-1.653zm2.842 2.783h71.97c.043.545.053 1.083.03 1.625-23.694.006-47.4 0-71.094 0-.004-.203 0-.414 0-.622v-.562c-.43-.115-.677-.263-.907-.437zm.936 3.094h70.905c-.088.554-.19 1.114-.345 1.654-23.495.006-46.976 0-70.47 0-.02-.544-.08-1.1-.094-1.653zm.155 3.31c23.282-.003 46.53 0 69.81 0-.24.565-.53 1.096-.843 1.624-22.98.005-45.958 0-68.938 0-.02-.54-.01-1.07-.03-1.622zm.06 2.78h68.157c-.426.58-.89 1.12-1.406 1.625-22.237.002-44.48-.003-66.72 0v-.094c0-.5-.017-1.02-.03-1.53zm.03 3.06h64.94c-1.105.747-2.35 1.316-3.687 1.66h-.316c-4.545-1.42-9.613-2.076-14.314-.627-.73.173-1.46.377-2.155.625h-44.5c.01-.547.03-1.1.03-1.66zm-147.873 3.346h11.344c1.438.48 2.87 1.058 4.28 1.656h-17.46c.57-.598 1.17-1.15 1.845-1.657zm147.813 0h40.78c-.984.52-1.917 1.076-2.874 1.656h-38.03c.046-.55.1-1.1.126-1.657zm57.375 0h12.654c.76.446 1.444 1.016 2.06 1.656h-18.9c1.365-.63 2.77-1.2 4.19-1.657zm-57.596 2.75h36.31c-.895.556-1.785 1.12-2.687 1.656h-33.84c.09-.55.156-1.1.217-1.657zm51.154 0h22.095c.38.518.704 1.08 1 1.656h-26c.96-.57 1.904-1.13 2.904-1.657zm-201.562.03h21.004c1.303.57 2.588 1.11 3.906 1.626H329.65c.35-.57.775-1.1 1.188-1.626zm150.035 3.095h31.376c-.39.206-.76.41-1.16.6 2.88-.01 5.756-.35 8.628-.595h36.407c.19.54.354 1.1.47 1.66-25.255.002-50.52-.003-75.78 0-.006-.54.024-1.097.064-1.657zm.03 3.318h75.94c.21.54.425 1.068.597 1.625h-76.407c-.054-.54-.08-1.05-.124-1.623zm.25 2.75c25.54-.002 51.056 0 76.596 0 .14.542.27 1.073.373 1.625h-76.874c-.016-.513-.04-1.05-.095-1.623zm.127 3.093h77.09c.068.543.097 1.104.126 1.653-25.737.002-51.48 0-77.22 0-.004-.544.008-1.102 0-1.657zm0 3.31h77.25c-.017.55-.07 1.11-.128 1.655-25.72.003-51.44-.002-77.157 0 .022-.537.03-1.096.03-1.656zm-.097 2.75h77.063c-.09.55-.144 1.144-.28 1.69-25.65 0-51.346-.007-77 0 .015-.1.047-.22.063-.317.07-.44.112-.91.153-1.375zm-.375 3.124h76.75c-.16.546-.36 1.11-.565 1.656-25.425.008-50.857 0-76.282 0 .013-.54.05-1.1.095-1.65zm-.097 3.344H556.3c-.26.554-.568 1.084-.876 1.622-9.485 0-18.95.03-28.437.03-3.183-.437-6.374-.325-9.594 0h-36.59c-.03-.547-.08-1.09-.094-1.655zm-151.56 2.75h23.375c-.856.52-1.713 1.062-2.563 1.622h-19.81c-.36-.525-.718-1.057-1-1.625zm151.72 0h28.124c-4.727.65-9.486 1.113-14.19.403-.003.408.002.81 0 1.22h-13.87c-.025-.542-.03-1.07-.06-1.625zm50.874 0h23.06c-.38.573-.813 1.1-1.25 1.622H534.8c-.972-.662-1.967-1.222-3.062-1.625zm-200.43 3.09h16.343c-.618.366-1.232.724-1.875 1.03-.38.227-.79.433-1.19.626h-11.31c-.69-.425-1.33-.96-1.91-1.595l-.068-.063zm149.687 0h13.78c-.004.552.006 1.103 0 1.656H481V212.2zm55.844 0h15.344c-.672.626-1.383 1.19-2.156 1.656h-10.79c-.83-.5-1.615-1.07-2.41-1.658zm-55.843 3.312h13.75c-.006.552-.025 1.104-.03 1.656h-13.72v-1.66zm0 2.75h13.72c-.01.552-.025 1.104-.033 1.656h-13.687v-1.66zm0 3.125h13.687c-.01.552.01 1.104 0 1.656h-13.72c.014-.4.033-.8.033-1.22v-.435zm-.094 3.312h13.72c-.01.552-.02 1.103-.033 1.656h-13.78c.03-.564.07-1.116.1-1.658zm-.125 2.75h13.81l-.03 1.656h-13.85c0-.58.04-1.13.06-1.658zm-.13 3.093h13.84c-.014.553-.02 1.135-.03 1.688h-14.03c.08-.583.164-1.164.22-1.687zm-.41 3.344h14.16c-.015.552.014 1.104 0 1.656h-14.25c0-.58.05-1.125.093-1.656zm-.095 2.75h14.22c-.016.552-.048 1.104-.064 1.656h-14.15c.003-.414 0-1.47 0-1.656zm0 3.125h14.094c-.016.546-.014 1.076-.03 1.624h-14.09c.004-.71.026-1.054.03-1.625zm-.03 3.31h14.03c-.018.55-.014 1.08-.03 1.626h-14c.005-.84-.008-.83 0-1.626zm-.033 2.72h14l-.062 1.656h-13.94c.007-.57-.004-1.08 0-1.657zm-.03 3.125h13.905l-.063 1.65h-13.84c.007-.514-.005-1.11 0-1.657zm-.03 3.31h13.81c-.017.46-.013.91-.03 1.37-.016.086-.05.195-.063.28h-13.72c.01-.483-.008-1.064 0-1.655zm-.064 2.78h13.625c-.074.55-.135 1.1-.19 1.653h-13.5c.015-.224.02-.564.03-.78.01-.18.026-.57.034-.875zm-.157 3.09h13.47c-.038.55-.043 1.105-.064 1.656h-13.47c.03-.544.035-1.14.062-1.655zm-.157 2.81h13.53c-.01.553-.06 1.138-.06 1.69h-13.56l.093-1.69zm-.157 2.783h13.655c.003.55.024 1.104.03 1.657h-13.75c.035-.598.03-1.066.064-1.658zm-.157 3.125h13.843c.01.55.024 1.08.03 1.625h-13.96c.032-.574.06-1.04.094-1.626zm-.188 3.282h14.065c.006.553.036 1.1.03 1.654h-14.18c.03-.54.06-1.09.094-1.656zm-.154 2.78h14.22c-.013.55-.01 1.073-.034 1.624H478.9c.025-.484.064-1.105.093-1.625zm-.157 3.093h14.25c-.036.55-.07 1.108-.124 1.657h-14.22c.027-.48.063-1.062.095-1.655zM450.71 288c-1.547.153-3.104.328-4.656.47h11.75c-2.39-.23-4.778-.484-7.095-.47zm-52.937 3.22h86.56c-.49.203-.965.396-1.5.53.188.38.378.747.565 1.127h-84.37c-.367-.58-.81-1.127-1.25-1.655zm2 3.126h84.31c.278.546.568 1.105.846 1.654h-84.97c.04-.41.037-.867-.03-1.31-.05-.127-.1-.22-.153-.345zm-.19 3.31h86.22c.284.55.56 1.11.845 1.656h-87.97c.355-.53.68-1.08.908-1.656zm-1.685 2.75h89.345c.287.55.554 1.104.844 1.656-30.51 0-61.027.002-91.53 0 .43-.55.91-1.105 1.34-1.656zm-2.405 3.094h93.344l.872 1.657c-31.694 0-63.4.003-95.094 0 .227-.574.53-1.125.875-1.654zm-1.656 3.313h96.75c.283.55.56 1.11.84 1.66h-98.47c.285-.55.59-1.11.877-1.657zm-1.44 2.75h99.592c.286.554.59 1.136.875 1.69h-26.34c-.192-.35-.37-.71-.562-1.06-.06.353-.14.707-.19 1.06h-46.75c.002-.55.01-1.133 0-1.685-.375.537-.77 1.124-1.097 1.688h-26.37c.276-.55.566-1.14.845-1.686zm-1.53 3.127h26.28c-.28.544-.548 1.1-.814 1.656h-26.28c.266-.554.543-1.105.813-1.657zm28.123 0h46.623c-.062.55-.14 1.104-.187 1.656h-46.47c.02-.553.02-1.105.033-1.657zm48.31 0h26.28c.282.553.567 1.1.844 1.656h-26.25c-.29-.552-.58-1.11-.873-1.657zm-78.063 3.343h26.312c-.26.55-.517 1.11-.78 1.656h-26.25c.25-.55.46-1.11.716-1.66zm29.656 0h46.41c-.035.55-.07 1.11-.095 1.656h-46.37c.012-.55.047-1.11.063-1.66zm50.19 0h26.156c.27.55.58 1.11.843 1.656H469.9c-.278-.55-.53-1.11-.813-1.66zm-81.094 2.75h26.22c-.138.26-.27.525-.41.78-.21.29-.455.583-.656.876h-25.9c.246-.55.5-1.11.75-1.66zm30.843 0h46.34c-.015.55-.02 1.11-.03 1.656h-46.31c-.01-.55-.003-1.11 0-1.66zm51.623 0h26.156c.26.55.497 1.11.75 1.656h-26.09c-.268-.55-.54-1.11-.813-1.66zm-83.844 3.094h25.626c-.338.546-.658 1.097-.97 1.657h-25.43c.24-.553.54-1.1.783-1.655zm32.28 0h46.25c-.003.553.003 1.105 0 1.657h-46.12c-.055-.55-.097-1.104-.126-1.655zm53.064 0h26.063c.247.55.477 1.103.72 1.657h-26c-.26-.553-.518-1.104-.78-1.655zm-86.78 3.313h25.187c-.272.546-.53 1.1-.78 1.656h-25.126c.228-.547.487-1.11.72-1.66zm34.062 0h45.875v1.656H419.4c-.034-.375-.062-.76-.092-1.127-.03-.18-.04-.358-.065-.535zm54.312 0h25.9c.233.55.465 1.102.69 1.656H474.3c-.25-.556-.496-1.106-.75-1.66zm-89.567 2.75h25.127c-.23.542-.473 1.106-.687 1.656h-25.09c.22-.55.432-1.11.657-1.66zm35.53 0h45.597c-.003.547-.02 1.11-.03 1.656h-45.37c-.063-.55-.13-1.117-.188-1.66zm55.284 0h25.78c.216.546.42 1.107.626 1.656h-25.65c-.24-.55-.506-1.11-.75-1.66zm-92.063 3.124h25.126c-.2.55-.38 1.104-.565 1.658h-25.18c.216-.55.406-1.1.626-1.656zm37.126 0h45.22c-.02.555-.04 1.104-.066 1.658h-45c-.055-.556-.096-1.103-.157-1.656zm56.28 0h25.624c.197.55.373 1.105.562 1.658h-25.47c-.235-.553-.48-1.104-.72-1.656zm34.5.158c.294-.01.61-.004.905 0 2.194.04 4.367.566 6.345 1.5h-13.22c1.86-.904 3.9-1.42 5.97-1.5zm-137.69.094c.293-.01.583-.006.875 0 2.12.03 4.215.506 6.097 1.406h-12.93c1.86-.827 3.916-1.327 5.97-1.41zm-8.78 3.062h42.593c-.173.55-.34 1.074-.5 1.625h-43.9c.55-.604 1.157-1.13 1.813-1.624zm55.968 0h44.907c.004.564-.08 1.084-.186 1.625h-44.59c-.026-.545-.085-1.08-.126-1.624zm57.407 0h43.16c.617.494 1.16 1.017 1.657 1.625h-44.12c-.23-.553-.458-1.072-.69-1.624zm-116.093 2.75h44.53c-.007.027-.023.035-.03.062-.15.516-.31 1.07-.47 1.593h-45c.28-.577.605-1.14.97-1.656zm58.843 0h44.28c-.155.554-.307 1.105-.47 1.656h-43.8c.018-.55.01-1.1 0-1.653zm58.404 0h44.47c.338.524.627 1.087.877 1.656h-44.68c-.22-.55-.432-1.103-.655-1.653zm-118.8 3.095h45.124c-.176.553-.372 1.133-.562 1.688h-44.93c.046-.332.08-.7.16-1.03.057-.22.15-.44.22-.654zm60.312 0h43.53c-.108.54-.193 1.128-.188 1.688h-43.53c.084-.542.14-1.13.186-1.684zm59.717 0h44.656c.16.543.3 1.13.375 1.688-14.787.004-29.558 0-44.344 0-.22-.55-.47-1.133-.69-1.684zm-120.5 3.344h44.438c-.204.554-.4 1.11-.624 1.658h-43.56c-.106-.54-.23-1.1-.25-1.653zm60.25 0h44.22c.2.598.453 1.144.78 1.658h-45.5c.196-.534.36-1.1.5-1.653zm61.53 0h43.845c-.007.555-.034 1.108-.126 1.658h-43.09l-.63-1.653zm-121.28 2.75h42.813c-.244.558-.48 1.116-.75 1.658h-41.43c-.26-.53-.452-1.09-.625-1.653zm58.813 0h46.78c.507.588 1.08 1.14 1.69 1.658h-49.37c.34-.53.656-1.093.91-1.653zm63.53 0h42.377c-.13.445-.25.883-.44 1.314l-.28.346h-41.06c-.2-.55-.39-1.104-.598-1.653zm-120.84 3.13h39.78c-.315.563-.647 1.12-.998 1.656H362.81c-.524-.504-.962-1.06-1.375-1.658zm55.344 0h52.28c.725.546 1.428 1.09 2.125 1.656h-56.09c.64-.466 1.21-.994 1.69-1.658zm66.624 0h39.125c-.593.58-1.2 1.132-1.846 1.656H483.99c-.194-.554-.395-1.105-.593-1.658zm-10.375 3.28c.216.23.397.474.592.72.292.3.57.61.812.937H410.12c.647-.648 1.436-1.145 2.25-1.625 20.216 0 40.44-.03 60.656-.03zm11.53 0h33.85c-.88.587-1.754 1.148-2.687 1.657H486.06c-.525-.5-1.036-1.038-1.5-1.625-.004-.01.004-.024 0-.03zm-119.407.03h33.876c-.45.578-.904 1.1-1.408 1.627h-29.25c-.83-.408-1.67-.795-2.47-1.25-.26-.11-.5-.245-.75-.375zm5.657 2.75h25.656c-.68.6-1.407 1.13-2.187 1.627h-18.84c-1.575-.463-3.11-.99-4.624-1.625zm38.438 0h65.875c.284.534.542 1.053.72 1.627h-67.345c.102-.273.244-.544.375-.813.114-.3.222-.55.375-.81zm78.125 0h26.156c-1.297.613-2.613 1.133-3.94 1.627h-19.55c-.938-.464-1.817-.984-2.657-1.625zm-104.56 3.1h7.813c-2.596.278-5.22.27-7.813 0zm25.25 0h68.094c.09.545.13 1.1.13 1.656h-32.35c-.44-.645-.912-1.244-1.56-1.438-.772.418-1.514.913-2.22 1.438H407.9c.007-.554.045-1.1.156-1.656zm86.063 0h10.594c-3.48.72-7.163.795-10.594 0zm-86.063 3.31h30.094c-.6.538-1.13 1.098-1.72 1.658h-28c-.18-.54-.28-1.098-.37-1.656zm37.22 0h30.874c-.07.56-.16 1.113-.31 1.658h-28.68c-.58-.505-1.14-1.01-1.687-1.53-.057-.037-.134-.085-.188-.126zM408.87 364.7h26.375c-.588.56-1.175 1.125-1.78 1.657h-23.69c-.344-.53-.647-1.09-.905-1.66zm39.594 0h27c-.214.57-.458 1.127-.75 1.657H450.65c-.75-.53-1.477-1.086-2.187-1.66zm-37.594 3.094h20.812c-.86.633-1.81 1.194-2.78 1.656H412.56c-.61-.502-1.172-1.06-1.687-1.656zm41.937 0h20.97c-.463.61-.99 1.163-1.563 1.656h-16.282c-1.057-.493-2.12-1.045-3.125-1.656zm-37.72 3.313h10.47c-2.165 1.075-4.596 1.706-7.03 1.123-1.178-.192-2.35-.578-3.438-1.125zm45.44 0h8.968c-.71.275-1.456.473-2.25.56-2.295.21-4.543-.015-6.72-.56zm-109.126.25c1.52-.026.7 1.615.91 3.06h9.63c-.172-2.745 2.75-4.43 2.094 0h10.09c-1.173-3.81 2.77-3.706 1.688 0h10.063c-1.176-3.81 2.77-3.706 1.685 0h107.72c-1.176-3.81 2.77-3.706 1.686 0h10.097c-1.174-3.81 2.77-3.706 1.688 0h10.064c-1.173-3.81 2.77-3.706 1.688 0h10.06c-1.173-3.81 2.77-3.706 1.688 0h9.344c2.12.45 6.58-1.445 5.47 2.25H342.13c-2.12-.45-6.61 1.445-5.5-2.25h8.936c2.61-.054 6.277.953 5.065-2.937.327-.077.567-.122.78-.125zm118.47 11.81c3.53-.07 13.68 1.9 4.56 2.625-6.95-.972-13.99 1.083-21.09 0-7.94 1.616-16.03-.045-24.03-.22-6.23 1.3-13.2-.66-19.78.5-2.77-.35-15.15 1.443-11.12-1.967 8.6.07 17.14-1.07 25.72-.033 7.386-1.687 15.675.96 23.53.313 7.1-1.39 14.536.545 21.595-1.156.17-.026.39-.06.624-.065zm22.63.313c6.168 3.136-9.372 2.116-11.69 2.312-3.75-3.457 8.69-1.63 11.69-2.312zm-128.06 4.66c2.23.1 1.51 1.98 1.626 2.9 1.338.83 9.856-2.15 13.97 0 5.06 2.15-2.393 2.55-4.876 1.404-5.95-1.588-7.21 3.233-11.28 3.407-.653-5.872-8.316.095-13.22-2.81-4.69 4.064-9.62-2.26-14.313-.095-3.565-3.526 7.52-3.118 9.505-.626 3.5-2.835 8.562.77 12.22-1.28 4.7.68 3.78-1.44 6.374-2.906zm140.94.22c3.162.53.607 3.21.78 4.59-3.284 3.03-2.05-2.44-5.155-1.41-7.84.56-15.403 1.024-23.313.25-6.662-1.838 5.68-3.036 8.5-1.627 6.235-.696 14.134.284 19.188-1.81zm6.25.9c4.007 1.17 9.83.56 14.594.903 7.43-1.117 14.497-.165 21.5-.22 6.026.12 2.466 4.303-1.69 1.783-6.73-.07-13.735-.14-20.876.562-4.07-.785-18.007 1.267-13.53-3.03zm-47.813.75c2.66.2 5.735.33 8.157.97-.056 3.8-9.665-.408-13.406 1.84-7.16-.28-14.035.23-21.186.5-5.156-1.387-14.91.7-17.5-2.28 6.65-2.196 15 1.07 22.377.154 7.093-1.388 14.504.514 21.56-1.187zm-67.56.34c.65-.014 1.214-.01 1.593 0 3.49-.063 6.82.858 10.34.468 3.648-1.646 11.606 1.972 4.563 2.063-8.162.33-16.233-.863-24.374.097-6.36-1.864 3.322-2.533 7.873-2.625zm103.593 6.375c2.365-.027 1.723 1.935 1.81 2.875 1.335.83 9.86-2.16 13.97 0 5.194 2.226-2.356 2.4-4.908 1.375-5.964-1.584-7.2 3.236-11.28 3.406-.647-5.86-8.285.08-13.19-2.81-4.694 4.06-9.644-2.2-14.343-.03-3.574-3.52 7.56-3.13 9.53-.626 3.5-2.83 8.56.728 12.22-1.31 4.582.598 3.842-1.235 6.19-2.875zm-118.66.187c.795-.054 1.433.406 1.72.844 6.97-.078 14.747 1.9 22.124.5 5.62-1.65 8.53 3.386 1.436 1.97-7.86 1.804-15.27-.673-23.158-.095.525 5.68-7.29-1.98-2.126-3.22zm-6.28.906c2.327.127 1.845 2.373-.032 2.657-7.314-.16-14.863 1.1-22.125-.25-5.894-1.152-13.237 2.218-17.53-.25 4.903-2.282 13.013-1.866 19.53-1.56 6.59.433 14.29.565 20.157-.594zm46.06.625c.57-.006 1.086.056 1.53.156 2.18.31 4.387.7 6.658.75 7.536-.67 14.79.72 22.346.372 3.76-.124 16.435-2.807 14.53 1.188-9.135-.216-18.283 2.126-27.344.314-7.1 1.08-14.175-1.006-21.126-.03-6.632-.367-.595-2.71 3.408-2.75zm110.844.5c.65-.014 1.213-.01 1.593 0 3.495-.064 6.82.83 10.346.44 3.637-1.64 11.59 1.99 4.56 2.09-8.164.32-16.196-.9-24.34.063-6.38-1.86 3.286-2.5 7.842-2.595zm-167.376 5.78c2.206.11 1.533 1.95 1.625 2.876 1.304.855 9.85-2.165 13.97 0 5.044 2.145-2.4 2.55-4.876 1.403-5.954-1.59-7.21 3.26-11.28 3.437-.64-5.87-8.28.05-13.19-2.843-4.69 4.06-9.65-2.23-14.34-.065-3.57-3.523 7.523-3.12 9.502-.626 3.495-2.83 8.56.76 12.22-1.28 4.692.676 3.78-1.44 6.373-2.907zm56.844.22c.79-.053 1.448.367 1.718.813 6.97-.07 14.806 1.916 22.187.53 5.624-1.655 8.5 3.384 1.406 1.97-7.857 1.81-15.297-.647-23.185-.064.52 5.686-7.29-2.024-2.125-3.25zm90.343.875c4.01 1.17 9.827.556 14.594.91 7.423-1.113 14.495-.165 21.5-.22 6.02.122 2.466 4.3-1.69 1.78-6.727-.07-13.737-.136-20.877.564-4.07-.79-17.99 1.274-13.53-3.033zm-50.563.72c.58-.01 1.105-.025 1.56.064 5.45 1.21 11.07.615 16.623.56 8.26 1.714 16.665-.41 25-.25 6.93 1.186-2.423 3.07-5.53 2.19-7.49 1.36-15.175.6-22.658.186-6.23 1.23-12.3-1.5-18.407-.094-6.7-.39-.647-2.58 3.404-2.657zm-64.815.407c.65-.01 1.214-.006 1.594 0 3.49-.06 6.82.86 10.344.47 3.644-1.645 11.594 1.937 4.563 2.03-8.163.33-16.234-.833-24.375.127-6.376-1.858 3.32-2.532 7.877-2.625zm47.28 7.19c2.21.11 1.516 1.95 1.626 2.875 1.337.83 9.86-2.16 13.97 0 5.134 2.236-2.374 2.42-4.906 1.407-5.956-1.58-7.208 3.2-11.28 3.375-.648-5.86-8.28.078-13.188-2.812-4.696 4.06-9.65-2.198-14.346-.032-3.57-3.52 7.554-3.12 9.53-.624 3.498-2.83 8.563.726 12.22-1.313 4.695.68 3.78-1.403 6.376-2.872zm-62.343.22c.795-.055 1.43.374 1.72.81 6.97-.073 14.744 1.89 22.124.5 5.623-1.654 8.532 3.385 1.437 1.97-7.86 1.805-15.27-.64-23.157-.063.06.648-.026 1.08-.156 1.407l-2.405-.22c-1.38-1.316-2.3-3.75.44-4.406zm-6.28.874c2.327.125 1.845 2.37-.032 2.655-7.313-.16-14.862 1.1-22.124-.25-5.894-1.155-13.237 2.215-17.53-.25 4.903-2.285 13.013-1.87 19.53-1.564 6.59.434 14.29.566 20.157-.592zm168 .78c1.19-.01 2.36.145 3.53.28 4.948-.93 6.65 3.566.594 2.19-6.588-.694-13.305 1.2-20.032.157-8.363 1.733-16.845-.29-25.28-.22-6.225 1.41-13.595-.915-20.22.562-3.02.516-15.77-.158-7.873-2.22 8.477.23 16.83-.905 25.28.156 6.964-1.87 14.99 1.07 22.44.25 7.096-1.397 14.508.55 21.564-1.156" opacity=".5" fill="#6adf5f"/><path d="M481.256 163.79c-3.123.3-6.313 1.054-9.506 2.11-.537.485-.895 1-.59 1.715 4.764 2.96 4.026 9.35 3.825 14.372-.474 15.014-.42 30.038-.422 45.084-1.057 17.37-.338 34.91-1.884 52.23h20.1c-.08.56-.207 1.11-.34 1.66H472.5l-.112 1.1h19.77c-.173.57-.388 1.12-.618 1.66h-19.32l-.17 1.44h18.787c-.31.57-.637 1.136-1.013 1.66h-17.97c-.03.197-.06.393-.086.59-1.14.5-2.324.845-3.516 1.07h20.167c-.6.607-1.26 1.18-1.97 1.658-22.226.003-44.457.003-66.686 0 .065.243.13.46.197.705.037.134.076.26.113.395h64.264c-.495.2-.987.396-1.52.533.185.38.375.747.563 1.126h-62.8c.153.49.315.986.48 1.463h63.027c.274.55.562 1.11.842 1.66h-63.28c.21.56.423 1.113.644 1.66H485.8c.28.547.557 1.11.842 1.66h-63.64c.164.37.336.73.506 1.094h63.733c.29.555.555 1.11.845 1.66h-63.78c.243.49.505.96.76 1.436h63.785l.874 1.66h-63.76c.32.564.652 1.11.984 1.66h63.65c.284.545.56 1.11.842 1.66h-63.48c.233.363.466.736.703 1.095H492c.286.55.59 1.107.873 1.66H466.52c-.192-.35-.37-.69-.564-1.04-.057.355-.118.686-.168 1.04h-36c.345.496.69.98 1.04 1.46h34.79c-.062.55-.12 1.11-.168 1.66h-33.412c.426.567.863 1.11 1.293 1.66h31.98c-.03.55-.06 1.11-.08 1.66h-30.57c.3.37.6.73.9 1.098h29.64c-.012.547-.02 1.112-.03 1.66h-28.26c.41.49.808.953 1.21 1.434h27.03c-.005.554.002 1.11 0 1.66H439.5c.467.557.924 1.11 1.38 1.66h24.242v1.66h-22.87c.29.357.59.74.87 1.096h21.996c-.004.548-.02 1.113-.028 1.66H444.5c.448.51.92.995 1.377 1.46h19.21c-.015.556-.032 1.108-.056 1.66h-17.38c.67.596 1.35 1.146 2.03 1.66h15.386c.004.564-.087 1.09-.196 1.633h-12.86c.642.397 1.29.78 1.94 1.124 3.55 0 7.107-.002 10.658 0-.155.552-.316 1.08-.477 1.63h-6.5c1.73.638 3.48 1.102 5.21 1.463h.9l-.03.168c.83.158 1.658.318 2.48.426 4.876.644 9.71.617 14.346.843-.19-.477-.402-.955-.59-1.43h31.05c1.5-.46 2.988-.95 4.47-1.464H479.38c-.22-.55-.424-1.083-.648-1.63 13.77 0 27.542-.003 41.314 0 5.908-2.134 11.61-4.24 16.82-5.205 9.078-1.68 16.807-12.36 22.753-24.975 5.94-12.62 10.11-27.327 11.36-38.956 2.632-24.59-.268-49.934-11.39-70.2-.44-.796-.89-1.58-1.35-2.334-25.66.004-51.3 0-76.95 0-.01-.542 0-1.102 0-1.66h75.91c-.34-.504-.7-.975-1.04-1.46h-74.9c-.02-.515-.06-1.06-.118-1.63 24.613-.004 49.218 0 73.83 0-.29-.38-.577-.76-.874-1.127-24.35 0-48.717-.004-73.067 0-.053-.54-.097-1.06-.14-1.634h71.83c-.5-.57-1.003-1.12-1.517-1.66-23.46 0-46.94-.004-70.397 0-.01-.543.012-1.1.052-1.66h31.387c-.388.2-.756.404-1.15.59 2.874-.01 5.733-.35 8.604-.59h29.84c-.52-.5-1.067-.99-1.6-1.464h-18.45c.96-.572 1.923-1.13 2.923-1.66h13.553c-.472-.377-.95-.737-1.432-1.096h-9.87c1.36-.63 2.77-1.207 4.19-1.66h3.345c-1.545-1.03-3.13-1.956-4.724-2.81-3.107-.47-6.3-.43-9.338.503-.73.174-1.44.4-2.14.647h-44.49c.01-.542.025-1.1.028-1.66h54.956c-1-.512-2-1.003-3.01-1.46H481.54v-.084c0-.5-.015-1.01-.028-1.52h48.178c-1.094-.42-2.196-.782-3.29-1.15h-44.916c-.02-.54-.033-1.08-.057-1.63h39.657c-2.32-.633-4.587-1.175-6.807-1.66H481.37c-.022-.546-.07-1.1-.085-1.658h23.12c-4.495-.226-8.478.325-11.673-1.295-.084-.04-.168-.06-.253-.085l-.26-.083h-10.97c-.007-.205 0-.41 0-.618v-.423zm.198 14.99h40.81c-.986.52-1.94 1.08-2.898 1.66H481.34c.046-.548.09-1.103.115-1.66zm-.198 2.757h36.31c-.895.557-1.798 1.123-2.7 1.66H481.03c.093-.552.165-1.105.226-1.66zm.03 15.61h77.23c-.013.547-.056 1.114-.112 1.66-25.718 0-51.43-.003-77.147 0 .025-.538.025-1.1.028-1.66zm-.113 2.757c25.692-.003 51.397 0 77.09 0-.09.548-.174 1.116-.31 1.658-25.653.003-51.324-.002-76.978 0 .015-.096.04-.214.056-.31.08-.44.1-.885.15-1.35zm-.367 3.12h76.754c-.156.547-.36 1.085-.562 1.632-25.425.003-50.85 0-76.275 0 .01-.54.037-1.075.084-1.63zm-.083 3.32h75.6c-.26.557-.565 1.093-.873 1.63-9.485 0-18.977.028-28.462.028-3.183-.436-6.37-.325-9.59 0h-36.592c-.03-.547-.068-1.095-.083-1.66zm.14 2.756h28.125c-4.725.652-9.472 1.13-14.175.42-.003.408.002.803 0 1.21h-13.865c-.025-.54-.052-1.073-.085-1.63zm50.878 0h23.07c-.38.576-.8 1.106-1.24 1.63h-18.76c-.97-.66-1.97-1.226-3.06-1.63zm-50.73 3.094h13.78c0 .552.01 1.107 0 1.658h-13.78v-1.658zm55.83 0h15.36c-.672.626-1.392 1.193-2.164 1.658h-10.78c-.825-.5-1.624-1.072-2.417-1.66zm-55.825 3.318h13.75c-.005.553-.02 1.108-.026 1.66h-13.73v-1.66zm0 2.756h13.725c-.008.553-.02 1.108-.03 1.66h-13.7v-1.66zm0 3.122h13.69l-.026 1.66h-13.7c.012-.4.03-.82.03-1.238v-.422zm-.113 3.32c4.58-.002 9.148-.002 13.727-.002-.01.553-.018 1.108-.03 1.66h-13.78c.03-.56.055-1.117.085-1.66zm-.11 2.727H494.6c-.01.553-.016 1.108-.027 1.66h-13.84c0-.577.036-1.134.056-1.66zm-.113 3.123h13.837c-.01.55-.013 1.106-.03 1.658h-14.03c.078-.583.17-1.136.226-1.658zm-.423 3.317h14.177c-.014.553-.014 1.108-.03 1.66h-14.23c0-.58.04-1.13.085-1.66zm-.082 2.756h14.203c-.015.553-.04 1.108-.057 1.66h-14.15c.003-.413 0-1.475 0-1.66zm0 3.123h14.09c-.016.547-.01 1.084-.027 1.63h-14.1c.007-.71.027-1.06.03-1.63zm-.03 3.32h14.036c-.02.546-.04 1.082-.057 1.63h-13.98c.01-.84-.004-.835 0-1.63zm-.026 2.726h13.977c-.017.553-.035 1.108-.055 1.66h-13.92c0-.57-.01-1.084 0-1.66zm-.03 3.123h13.895c-.02.548-.037 1.11-.057 1.658h-13.87c.007-.513.02-1.11.028-1.658zm-.055 3.318h13.81c-.02.463-.01.915-.03 1.38-.015.084-.04.193-.056.28h-13.73c.01-.485-.01-1.067 0-1.66zm-.06 2.757h13.64c-.075.552-.145 1.105-.197 1.658-4.498.002-9.004 0-13.5 0 .01-.225.015-.542.027-.758.01-.182.02-.594.027-.9zm-.14 3.122h13.47c-.036.55-.064 1.08-.084 1.63h-13.48c.03-.545.057-1.116.086-1.63zm-.17 2.813h13.53c-.014.55-.056 1.106-.06 1.658h-13.56c.033-.585.054-1.092.085-1.658zm-.14 2.755h13.64c.003.552.02 1.107.03 1.66h-13.76c.033-.597.05-1.068.084-1.66zm-.17 3.122h13.84c.01.548.02 1.084.026 1.63h-13.95c.033-.574.05-1.046.084-1.63zm-.196 3.29h14.062c.002.555.03 1.105.026 1.66H479.07c.03-.54.052-1.094.085-1.66zm-.14 2.785h14.202c-.01.55-.008 1.08-.03 1.63-4.757.002-9.536.002-14.29.002.025-.49.083-1.12.112-1.64zm-.17 3.094h14.26c-.036.55-.088 1.12-.14 1.66h-14.21c.025-.48.05-1.06.084-1.66zm-28.125 12.04c-1.547.15-3.09.31-4.64.45h11.72c-2.39-.23-4.77-.46-7.087-.45zm16.593 24.7h26.296c.28.556.564 1.106.84 1.66h-26.27c-.29-.55-.574-1.11-.87-1.66zm1.77 3.32h26.184c.27.55.55 1.11.814 1.66H469.9c-.28-.55-.535-1.112-.816-1.66zm1.378 2.757h26.16c.26.547.506 1.11.76 1.66h-26.1c-.27-.55-.544-1.113-.817-1.66zm1.52 3.094h26.046c.245.55.49 1.106.73 1.66h-25.99c-.26-.553-.525-1.11-.79-1.66zm1.577 3.32h25.93c.237.55.456 1.106.68 1.66h-25.86c-.252-.555-.505-1.11-.76-1.66zm1.27 2.756h25.79c.215.544.412 1.11.62 1.66h-25.69c-.244-.55-.487-1.114-.73-1.66zm1.35 3.12h25.62c.2.55.373 1.11.56 1.66h-25.48c-.235-.55-.464-1.108-.702-1.66zm34.48.17c.295-.01.604-.007.9 0 2.19.04 4.38.554 6.356 1.49H504.7c1.86-.906 3.894-1.41 5.963-1.49zm-33.075 3.15h43.144c.615.492 1.16 1.023 1.657 1.63h-44.13l-.675-1.632zm6.13 7.51c1.73.143 3.416.35 5.064.673 5.232 1.024 10.635.533 16.03-.675h-21.1" fill="#6adf5f"/><path d="M286.52.02c-1.877-.004-3.73.452-5.372 1.405-3.843 1.655-6.794 4.795-9.704 7.594-4.05-3.01-8.94-6.14-14.315-5.18-6.64 1.02-10.21 8.16-9.48 14.37.18 1.47.7 3.88-1.58 3.482-6.168.743-9.16 7.225-10.13 12.63-1.39 6.662.33 14.57 6.02 18.787.367 2.062-2.508 2.12-3.573 3.486-4.41 4.3-6.494 10.48-7.735 16.37-2.304 12.28 1.87 25.46 10.743 34.226 2.435 3.07 3.635 6.864 4.61 10.603-1.11 2.02-3.075-.663-4.78-.45-5.87-.403-9.93 5.597-10.04 10.995-.257 4.21 1.25 8.78 4.866 11.224.51 1.922-1.925 2.877-2.474 4.612-5 8.67-1.514 21.65 8.017 25.706.81 1.938-1.51 3.447-2.056 5.26-2.45 5.385-5.106 11.01-5.342 16.988-.06 6.433 4.703 13.83 11.812 13.22 1.355-.337 3.748-.855 3.065 1.49-1.525 29.673 2.564 59.195 5.794 88.62-1.043 1.55-2.818-.284-4.388.28-7.544.57-11.775 9.31-10.268 16.117 1.177 5.97 3.507 11.81 6.78 17.015-.208 2.084-2.848 1.107-4.22 1.97-11.508 3.743-15.167 20.287-7.17 28.97.91.94 2.974 2.437 1.152 3.57-6.036 5.907-4.684 18.385 3.85 21.12 1.474.785 3.29.07 4.556.9-.366 3.548-2.37 7.098-4.81 9.79-12.35 12.69-13.863 34.46-3.01 48.46 1.183 1.566 3.35 2.18 4.528 3.46.313 1.75-2.31 2.39-2.924 3.993-5.107 7.175-4.29 17.59.702 24.635 1.856 2.67 5.123 3.653 8.07 4.162-.035 3.945-.566 8.24 1.604 11.785 2.69 5.47 9.75 7.196 15.048 4.752 2.737-.83 4.74-2.99 7.2-4.22 3.777 4.06 8.505 8.25 14.232 8.97 5.664.71 10.584-3.8 11.95-9.058.27-1.923 2.193-1.084 3.094-.113 13.08 8.75 31.9 6.88 43.117-4.08 2.25-2.49 5.13-4.51 8.35-5.625 2.13.823-.277 3.036-.11 4.64-1.017 4.8 3.025 8.56 6.946 10.462 4.582 2.41 10.544 2.75 14.79-.533 2.13-1.11 3.715-2.81 5.457-4.334 3.806 2.604 8.354 4.318 13.05 3.6 7.303-.704 13.97-6.416 15.02-13.863 1.722-1.366 3.216 1.28 4.5 2.25 4.813 5.413 12.78 9.343 19.967 6.807 4.55-1.484 7.036-6.77 6.245-11.28.606-2.396 4.085-.743 5.962-1.235 1.413.17 4.746-.78 4.303 1.52-.72 3.745.925 8.184 4.104 10.32 5.995 3.044 13.165 1.08 18.223-2.81 2.7-1.75 4.696-4.25 7.143-6.276 2.12.02 1.325 2.79 2.28 4.105 3.707 9.99 17.71 13.92 26.155 7.312 1.668.004 2.01 2.335 3.77 2.42 2.237 1.447 4.43 3.39 7.283 3.656 5.3.74 10.96-1.32 14.794-5.01 2.444-2.943 2.8-7.382.93-10.714.625-2.32 3.24-.046 4.61.48 4.286 2.515 7.126 6.862 11.7 9.03 11.61 6.82 27.186 6.18 37.998-1.97 2.094.097 1.673 2.86 2.786 4.22 2.53 5.54 9.73 7.734 14.964 4.864 3.89-1.675 7.07-4.677 9.87-7.68 2.252.63 4.065 3.04 6.5 3.797 5.195 2.67 12.44 1.58 15.494-3.796 2.446-3.586 2.154-8.077 1.94-12.205 1.42-1.01 3.8-.607 5.345-1.886 5.22-3.47 6.72-10.307 6.89-16.17-.034-5.288-2.046-10.756-6.41-13.95-.37-2.06 2.492-2.115 3.542-3.49 4.246-4.09 6.272-10.017 7.566-15.58 2.62-12.506-1.49-26.1-10.604-35.07-1.895-2.423-3.088-5.317-3.938-8.243.815-1.8 3.363-.883 4.78-2.164 5.77-3.033 8.84-11.458 4.36-16.793-.573-1.54-2.658-2.93-2.054-4.554 8.736-6.02 9.09-19.855 1.885-27.28-2.81-2.997-6.91-4.83-11.05-4.867-1.55-1.557.91-3.466 1.15-5.23 1.18-3.535 2.96-6.856 4.274-10.297 1.453-6.156.32-14.195-5.71-17.55-2.28-1.387-5.024-.65-7.424-1.32.01-6.565 1.106-13.25 1.52-19.86 2.075-23.356 3.603-46.833 2.392-70.283 1.268-1.332 3.276.47 5.006-.11 7.544-.635 11.92-9.347 10.32-16.23-.98-6.374-4.14-12.115-7.316-17.69.407-1.974 3.01-1.73 4.275-3.065 9.064-6.1 10.37-20.93 2.192-28.21-.498-1.644 1.877-2.546 2.392-4.105 1.887-3.23 3.523-7.78 1.04-11.08-1.13-4.016-4.36-7.88-8.802-7.904-1.234-.265-3.645 1.19-3.46-.98 1.123-4.808 3.77-9.045 7.256-12.46 10.475-12.866 11.18-32.907.96-46.125-1.19-1.58-3.365-2.176-4.53-3.485-.24-1.746 2.36-2.378 2.98-3.994 5.106-7.17 4.23-17.53-.7-24.61-1.886-2.644-5.12-3.65-8.1-4.132.01-3.835.606-8.014-1.41-11.5-2.52-5.493-9.485-7.544-14.85-5.23-2.883.836-5.075 3.04-7.59 4.386-3.73-3.993-8.21-8.11-13.803-8.913-.624-.07-1.26-.094-1.886-.054-5.36.02-9.392 4.507-10.6 9.45-1.2 2.02-3.08-.79-4.58-1.268-13.033-7.66-30.78-5.432-41.57 5.063-2.11 2.328-4.69 4.21-7.622 5.348-2.093-.69-.158-3.15-.843-4.753-.44-4.478-4.224-7.49-8.27-8.69-3.414-1.313-7.493-2.625-10.77-.34-2.658 1.06-5.1 2.71-7.368 4.36-4.374-3.603-10.364-5.276-15.92-3.685-7.64 1.683-13.487 9.16-12.908 16.986-1.578 1.75-3.13-1.337-4.67-1.91-5.175-3.95-12.06-6.15-18.42-4.417-4.807 1.71-8.115 7.093-7.06 12.12-1.445 2.07-4.69.483-6.89.985-1.513-.12-5.15.75-4.417-1.773 1.1-5.98-4.38-12.12-10.46-11.784-6.804-.76-13.006 3.013-18.03 7.144-2.273-.12-.91-3.066-1.66-4.555-1.77-9.94-13.48-15.89-22.725-12.43-2.334.656-4.166 2.354-6.16 3.54-1.568-1.424-3.07-3.403-5.37-3.71-2.683-1.837-5.995-2.94-9.143-1.687-5.21 1.21-11.57 4.26-11.95 10.293-.435 1.45 1.34 3.67-.62 4.245-5.41-1.886-8.433-7.22-13.386-9.814-11.694-7.248-27.78-6.768-38.758 1.574-2.1-.097-1.64-2.842-2.756-4.19-1.75-3.9-5.91-6.097-10.04-6.103zm.028 4.3c4.362-.236 7.004 3.967 7.734 7.764.942 1.972-.044 5.463 2.53 6.243 2.732.483 2.808-3.216 4.698-4.33 11.12-8.702 28.24-7.837 38.67 1.603 4.095 4.706 9.81 7.6 15.808 8.944 6.662 1.4 13.218 4.188 20.08 3.908 2.43-.945.938-3.922 1.35-5.82.262-6.538 5.19-13.263 12.123-13.445 6.83-.528 13.76 4.85 13.93 11.897.21 2.96-.93 5.906-3.01 7.96-1.22 1.153-1.55 3.55.31 4.246 9.5.546 19.096.104 28.63.254 18.86-.06 37.75.123 56.59-.085 2.146-.65 1.714-3.53.03-4.5-5.143-5.62-2.49-15.59 4.445-18.4 5.69-3.05 13.476-1.04 16.594 4.72 2.193 3.47 2.56 7.693 2.25 11.67.81 2.63 4.233 1.28 6.16 1.24 6.69-1.27 13.383-3.06 19.83-5.007 4.72-1.455 8.51-4.73 11.95-8.185 10.633-9.04 27.733-9.583 38.503-.564 1.46 1.306 1.897 4.75 4.5 3.825 2.245-1.126 1.286-4.247 2.25-6.187.747-3.65 3.146-7.836 7.427-7.764 4.35.17 8.042 3.256 10.882 6.33 1.315 1.556 2.855 5.533 5.484 3.43 3.628-3.5 8.797-7.53 14.12-5.595 4.735 2.347 5.115 8.415 4.16 12.995-.53 1.666-1.235 4.627 1.21 5.066 1.85-.12 3.806-1.196 5.68-.196 4.047 2.037 4.94 7.146 5.488 11.22.688 6.16-2.85 12.533-8.717 14.74-2.17.813-1.36 4.206.9 4.246 3.717 1.185 7.558 3.105 9.11 6.945 7.218 12.878 4.75 30.36-5.906 40.615-6.032 7.455-6.502 17.47-9.03 26.38-.31 2.64-1.19 5.48-.562 8.1 1.36 2.246 4.33.345 6.36 1.096 6.594.586 12.27 6.475 12.093 13.19.235 6.53-4.43 13.676-11.42 13.95-4.356.315-8.17-2.62-10.262-6.215-1.555-1.65-4.36.335-3.487 2.363 7.13 34.09 6.565 69.226 3.488 103.754-2.104 25.61-5.15 51.266-5.176 76.95.43 2.206 3.9 2.02 4.19-.11 1.247-6.12 7.95-10.964 14.09-8.66C652.2 338.102 654.29 353 646 358.75c-3.347 2.65-7.77 3.167-11.87 2.814-2.7.845-1.216 4.29-1.267 6.273.326 3.915 2.1 7.64 1.913 11.588.353 1.79 1.753 3.18 1.8 5.147 1.274 5.7 3.874 11.095 8.1 15.132 9.607 11.39 10.466 29.637 1.21 41.455-2.28 2.443-5.972 2.607-8.493 4.5-1.23 1.574.302 3.52 1.995 3.797 6.428 2.905 8.87 10.79 7.088 17.27-.778 3.78-2.863 8.79-7.48 8.576-1.496-.237-3.53-1.45-4.614.31-.95 2.058.69 4.346.504 6.525.613 4.303-1.016 9.932-5.766 10.995-5.356.805-9.703-3.23-13.443-6.41-2.567-1.01-3.422 2.525-4.867 3.825-2.797 3.02-6.44 6.07-10.714 6.3-3.902.157-6.56-3.292-7.34-6.777-1.005-2.102-.4-4.83-1.826-6.693-1.513-1.38-3.568.036-3.968 1.742-2.58 4.01-7.547 5.66-11.867 7.112-11.14 3.14-23.67-.737-31.333-9.337-7.052-6.214-16.914-6.83-25.592-9.45-2.59-.355-5.748-1.345-8.157.085-1.576 1.633-.035 4.156-.757 6.13-.653 6.56-6.177 12.84-13.135 12.403-6.58-.04-12.807-5.45-12.824-12.207.037-1.795 1.133-4.798-1.49-5.315-25.678.03-51.4-.115-77.063.084-2.004.49-1.6 2.855-1.27 4.36.487 6.665-5.2 12.52-11.7 13.02-6.27.92-12.16-3.79-13.67-9.756-.965-2.23-.333-4.77-.982-7.003-1.45-2.144-4.65-.712-6.78-1.21-4.74-.67-9.152 1.613-13.724 2.446-6.054 1.373-11.948 4.048-16.088 8.83-10.19 9.498-26.927 10.697-38.25 2.505-2.1-.986-2.308-3.69-4.163-4.81-2.114-.852-3.357 1.637-3.21 3.432-.78 3.975-2.036 9.436-6.776 10.236-4.284.872-8.088-2.257-11.054-4.95-1.89-1.37-2.43-4.21-4.584-5.148-2.35-.352-3.41 2.536-5.314 3.403-3.317 2.51-8.606 4.925-12.262 1.774-4.372-3.8-3.054-10.255-2.193-15.19-.184-2.11-2.855-2.296-4.303-1.32-4.196.762-6.895-3.44-7.706-7.005-2.265-6.54-.485-14.957 5.99-18.394 1.52-.536 3.863-1.757 2.924-3.77-1.16-2.012-4.136-1.746-5.907-3.036-4.84-2.2-6.5-7.844-8.07-12.49-3.33-11.8.235-25.193 9.058-33.723 5.822-7.41 6.3-17.316 8.802-26.1.32-2.635 1.16-5.457.534-8.07-1.36-2.24-4.31-.357-6.33-1.125-6.573-.648-12.304-6.46-12.12-13.19-.26-6.7 4.68-14.036 11.87-13.98 5.72-.15 10.09 5.01 11.135 10.24 1.095 2.1 4.494.77 3.992-1.494-.458-47.968-12.576-95.39-8.72-143.465 1-12.752 3.46-25.425 7.088-37.66.1-2.274-3.346-2.944-4.134-.815-2.705 5.128-9.71 7.383-14.71 4.19-8.15-4.712-8.92-18.44-.617-23.427 3.244-2.258 7.332-2.606 11.136-2.28 2.747-.797 1.29-4.26 1.32-6.243-1.06-6.573-2.843-13.104-4.525-19.573-1.306-5.115-4.387-9.45-7.99-13.19-8.964-11.435-9.556-29.04-.534-40.587 2.303-2.343 5.813-2.674 8.44-4.36 1.39-1.523-.128-3.7-1.913-3.937-6.398-2.95-8.928-10.796-7.144-17.297.795-3.685 2.712-8.593 7.227-8.55 1.62.018 3.725 1.537 4.894-.337 1.03-2.137-.81-4.608-.535-6.92-.592-4.32 1.41-9.995 6.273-10.66 5.24-.53 9.31 3.473 12.993 6.526 2.595.895 3.34-2.564 4.81-3.88 2.726-2.98 6.45-5.98 10.605-6.33zm233.015 3.855c3.554.486 7.91 1.486 9.366 5.315 1.69 4.054-2.03 8.552-6.19 8.664-2.93.538-5.88 1.99-8.86 1.63-.63-3.294-.86-6.838-2.67-9.844.15-1.783 2.63-2.41 3.71-3.77 1.34-1.048 2.86-2.038 4.64-1.995zM365.888 8.4c3.787.066 7.54 2.24 9.76 5.175-1.628 3.117-2.296 6.59-2.7 10.012-2.245.887-5.03-.723-7.425-1.068-2.446-.81-5.685-.58-6.694-3.49-1.86-2.1-3.1-6.05-.12-7.76 2.253-1.26 4.43-2.95 7.17-2.87zm-85.36 10.546c-4.17.606-5.39 5.81-4.64 9.338-1.125 1.83-3.17-.205-4.838-.057-6.152-.967-13.955-.275-17.38 5.654-3.33 6.34.403 14.8 6.974 17.16 1.025 2.16-2.455 2.25-3.544 3.49-4.485 2.21-6.572 8.47-3.32 12.55 1.538 2.484 4.442 3.814 5.993 6.186-1.505 3.16-5.684 3.39-8.69 4.106-1.815.034-5.056.83-4.333 3.29.955 2.755 4.65 1.52 6.75 1.154 4.07-1.08 9.212-2.507 10.913-6.808 1.035-3.702-2.15-6.655-4.92-8.522-2.21-1.42-3.83-4.99-1.183-6.833 3.61-3.357 8.68-4.8 13.444-5.4 1.163.52 2.003-.972 2.84.225-.354.546.66-.26 1.52-.253 2.106-.945 1.274-4.67-1.07-4.84-.94-1.19-2.505-2-3.994-1.264-4.616-.15-10.575-.54-13.106-5.034-1.77-3.3-1.035-8.39 3.01-9.563 4.944-1.934 10.714-.784 15.244 1.66 2.794 1.894 4.032 5.22 6.02 7.734 1.07 1.955 4.256 1.427 4.582-.79-.402-2.56-2.785-4.384-3.683-6.833-1.358-3.385-3.705-7.27-2.223-10.967 1.693-.95 3.41 1.344 4.894 2.19 3.15 2.335 5.5 5.65 8.522 8.044 2.208.67 4.158-2.563 2.138-4.05-3.58-4.29-7.833-8.29-12.854-10.912-.952-.382-1.996-.72-3.065-.644zm325.097 0c-5.852 1.15-9.957 6.136-14.118 10.04-1.37 1.22-3.17 3.874-.928 5.204 2.49 1.61 3.93-1.835 5.51-3.12 2.63-2.764 5.49-5.363 8.88-7.174 2.32.66 1.203 3.87.926 5.654-1.044 4.16-3.59 7.617-5.57 11.306-1.155 2.01 1.27 4.09 3.15 2.954 2.807-1.944 3.5-5.84 6.273-7.96 3.4-2.68 8.047-3.384 12.29-3.263 3.51.218 7.8 2.238 7.65 6.328.233 3.552-2.07 6.822-5.456 7.875-3.624 1.53-7.655 1.067-11.42 1.435-1.227 1.252-3.65 1.975-3.374 4.133.1 1.3 1.336 2.414 2.675 2.14.16-.604 1.75-.344 2.812-.34 3.056-.006 5.93 1.464 8.8 2.392 2.426 1.24 5.86 2.76 6.105 5.822-.58 4.768-7.382 5.587-7.623 10.603-.537 4.425 4.482 6.74 7.93 7.987 2.93.57 6.365 2.47 9.2.73 1.73-1.36.32-4.138-1.748-4.02-3.35-.507-7.11-1-9.9-3.095-1.59-2.025 1.42-3.468 2.62-4.556 3.492-2.77 5.873-8.03 2.952-12.09-1.63-2.84-5.03-4.02-7.34-5.79-.262-1.702 2.34-1.72 3.29-2.87 5.94-4.03 7.16-14.273.957-18.7-5.293-3.484-12.38-3.265-18.2-1.404-2.066-.844-.282-3.583-1.18-5.287-.5-2.48-2.35-5.178-5.175-4.924zm-178.2.9c3.993.12 4.847 4.828 6.244 7.706.85 2.77-3.3 1.394-4.87 1.717h-17.75c-1.75-1.85 1.992-3.07 3.01-4.36 3.233-2.79 7.29-4.58 11.554-4.81.586-.17 1.19-.26 1.8-.26zm31.332.225c4.058.06 8.248.78 11.587 3.3 1.95 1.48 4.378 2.917 5.654 4.867-.845 2.158-4.565.525-6.58 1.04H453.13c-1.59-1.34.55-3.153.787-4.724.818-2.09 2.31-4.463 4.837-4.473zM305.082 39.73c-2.152.355-2.124 3.206-1.265 4.726.04 3.98-1.97 7.923-4.698 10.66-2.71.606-5.47-.387-7.99-.985-2.17.83-4.42-2.91-6.11-.42-1.55 3.25 1.26 7.41-1.127 10.41-2.464 1.89-5.897.69-8.72 1.38-2.077-.36-5.725.63-4.89 3.4 1.39 8.89.41 17.92.954 26.86 1.567 111.88 1.764 223.77 3.177 335.65-.707 2.14 1.812 4.618 3.77 3.12 2.922-.16 5.92.277 8.774.51 3.3 2.147.782 6.55 2.11 9.533.844 1.413 2.96 1.02 3.57-.45.99-1.612 2.897-1.787 4.5-1.294 4.103.267 8.512-.905 12.375.73 2.164 2.846-.28 6.33-.39 9.42-.48 1.997-1.247 5.773 1.515 6.36 28.408.06 56.87-.517 85.22 1.686 30.114 1.144 60.24.22 90.366.48 23.46-.24 46.92-.94 70.37-1.41 8.507-.564 17.15-.38 25.595-1.236 2-.52 2.023-2.754 1.407-4.33-.522-3.64-2.04-7.797-.31-11.25 3.11-.568 7.63-1.615 9.425 1.8 1.526 1.18 3.917-.645 3.177-2.505-.15-2.524-.496-6.915 2.954-7.23 3.335-.685 7.07-1.567 10.21.196 3.18-.405 4.23-4.44 3.796-7.142 1.78-120.772 1.748-241.583 3.66-362.333-1.076-1.962-3.55-2.654-5.455-3.487-3.376-.608-6.73 1.852-9.984.674-3-2.616.41-7.047-1.712-9.9-1.39-1.49-3.255.333-3.91 1.687-2.082.67-4.624-.215-6.92.17-2.3-.16-5.26.482-7.03-1.126-1.02-4.39 2.78-9.1.085-13.162-1.85-2.464-4.862.013-7.116.056-27.74-.037-55.54-.432-83.22 1.688-30.403 1.07-60.827.237-91.24.45-22.93-.31-45.84-.947-68.764-1.434-7.486-.553-15.136-.204-22.53-1.235-.97-.87-2.43-.607-3.627-.703zm235.406 5.43c11.828.33 23.737-.148 35.522.28 2.783 1.975.433 5.34.507 7.96-2.314 3.262-6.975 1.382-10.294 1.63-16.538.08-33.13.05-49.67.874-16.597.973-33.205 1.68-49.837 1.602-24.603-.062-49.196-.082-73.8-.112-24.695-.323-49.396-.992-74.08-1.463-3.917-.36-8.22.54-11.786-1.32-1.57-2.8 1.325-5.4 1.49-8.18 1.56-2.23 4.696-.65 6.92-1.01 15.46.63 30.934 1.165 46.406 1.267 40.563 1.215 81.153.875 121.725.648 18.97-.755 37.91-2.303 56.9-2.165zM291.104 58.32c6.777 1.59 13.883.376 20.784 1.24 24.224 1.03 48.472.86 72.704 1.602 35.552.235 71.128.395 106.677-.112 24.03-1.175 48.06-2.558 72.14-2.053 10.22.098 20.52-.025 30.71.028 3.27 1.836 2.03 6.28.31 8.775-.06 2.187 2.49 3.96 1.35 6.27-1.91 120.854-1.87 241.71-3.63 362.56-1.338 3.336-5.69 2.287-8.5 2.222-27.207 1.653-54.515 1.272-81.76 2.167-36.016.34-72.04.37-108.056-.03-24.64-1.14-49.29-2.73-73.97-2.06-2.29.28-4.46-.9-6.607-1.01-2.03.882-4.213 1.533-6.413.923-4.55-.275-9.364.864-13.723-.618-.932-3.875-.55-8.294-.845-12.376-1.63-121.845-1.587-243.7-3.656-365.54.48-.888 1.357-1.976 2.473-2zm7.846 4.474c-2.976.482-2.235 4.396-2.11 6.525 2.155 121.49 1.683 243.06 3.827 364.55.767 2.02 3.842 1.852 4.696 0 6.592-1.98 13.656-.31 20.447-.9 23.285-.36 46.564.532 69.806 1.822 32.09.69 64.208.206 96.3.2 23.788-.556 47.604-.71 71.382-1.577 5.25-.19 10.802-1.06 15.89.252.792 1.73 3.366 2.33 4.612.62 1.01-2.5.046-5.578.45-8.24 1.645-120.57 1.72-241.16 3.516-361.717-.692-2.046-3.808-1.95-4.668-.084-5.05 1.81-10.563.093-15.807.675-25.16-.17-50.34-.042-75.46 1.69-31.07 1.026-62.18.216-93.26.42-24.33-.31-48.64-.89-72.95-1.52-6.854-.52-13.892-.02-20.64-1.064-1.825-.897-4.066-.76-5.88-1.657-.046.015-.1-.04-.14 0zm310.754 4.302c3.243.62 2.893 4.916 2.475 7.425-.89 57.45-1.39 115.03-1.8 172.52-.46 60.28-.86 120.55-1.78 180.82-1.42 3.34-5.67 1.48-8.328 2.65-2.263.998-4.488-1.105-4.22-3.403 1.013-61.43 1.32-122.885 1.83-184.33.44-57.285.88-114.566 1.827-171.845 1.814-3.42 6.715-3.11 9.984-3.824zM304.014 68.7c15.432.742 30.87 1.156 46.32 1.434 43.77 1.077 87.566 1.146 131.345.73 20.78-.54 41.54-2.154 62.35-2.08 12.49.348 25-.218 37.49.422 2.67 1.466 2.39 5.06 2.25 7.678-2.01 116.38-1.76 232.787-3.52 349.172-.95 3.653-5.59 3.335-8.52 2.953-26.11 1.48-52.28 1.23-78.417 1.99-34.26 0-68.547.68-102.798-.42-26.147-1.64-52.37-1.79-78.553-1.55-2.33-.21-5.505.32-7.115-1.6-.793-10.58-.896-21.18-.9-31.78-1.23-107.05-1.298-214.126-3.038-321.16-.595-2.38.487-5.296 3.092-5.798zm-23.795.844c1.76.098 4.87-.498 4.47 2.193.94 12.17.37 24.398.81 36.59 1.34 106.437 1.51 212.87 2.98 319.304-1.166 3.51-5.89 2.96-8.61 1.83-2.002-1.26-.582-4.47-1.124-6.52-.86-36.13-.857-72.31-1.293-108.45-.654-80.82-.993-161.622-2.39-242.44.58-2.13 3.296-2.45 5.145-2.5zm160.34 37.152c-37.92.48-71.92 17.168-95.46 43.426h-9.88c-.43 0-.846.2-1.15.505-.307.307-.48.693-.48 1.125V165c-13.747 20.656-21.77 45.426-21.77 72.056 0 26.63 8.024 51.405 21.77 72.056v56.73c0 .432.173.845.48 1.152.304.306.72.45 1.15.45h214.06c.434 0 .85-.144 1.154-.45.306-.307.45-.72.45-1.153v-56.72c13.743-20.65 21.77-45.424 21.77-72.053 0-26.63-8.026-51.402-21.77-72.056v-13.25c0-.43-.144-.82-.45-1.125-.305-.303-.72-.504-1.15-.503h-9.9c-23.88-26.64-58.558-43.423-97.145-43.423-.563 0-1.128-.007-1.688 0zm.05 3.263c.543-.01 1.08 0 1.63 0 36.29 0 69.06 15.23 92.22 39.68-.05 0-.09-.01-.14 0-.416.02-.815.15-1.155.39-.04.03-.07.054-.11.082h-34.9c.38-.776.666-1.613.59-2.7-.06-.836-.464-1.698-1.014-2.335-.55-.636-1.214-1.12-1.995-1.547-.936-.51-1.78-.636-2.473-.647.37-1.354.716-2.748.308-4.36-.265-1.053-.98-2.114-1.94-2.84-.96-.727-2.11-1.165-3.542-1.492-3.625-.633-7.194.246-10.773-.28-.208-.32-.49-.764-.82-1.35-.215-.38-.44-.77-.703-1.18.004-.353.02-.752.056-1.18.188-2.1.15-4.97-1.432-7.85-2.9-5.265-9.736-7.22-14.99-7.815-.815-.093-1.595-.158-2.336-.254-.994-.13-2.192-.227-3.487-.254-7.2.2-14.294.067-21.488 0h-.03c-.48 0-.94-.008-1.408 0-1.29.027-2.5.097-3.49.225-.74.1-1.528.19-2.335.284-5.235.596-12.024 2.55-14.908 7.817-1.577 2.88-2.21 5.835-2.026 7.935.023.257.045.5.057.73-.822.72-1.63 1.517-2.39 2.532-.42.81-1.134.57-1.94.533-2.558-.095-5.123-.38-7.286.112-1.426.326-2.588.792-3.544 1.52s-1.65 1.76-1.91 2.81c-.407 1.61-.09 3.008.28 4.36-.69.014-1.52.14-2.448.647-.78.426-1.45.91-2 1.546-.546.638-.924 1.503-.983 2.335-.076 1.09.19 1.923.564 2.703h-34.87c-.04-.028-.073-.057-.113-.085-.36-.25-.77-.39-1.21-.394-.034-.004-.08.025-.113.025 22.813-24.083 54.95-39.26 90.59-39.71zm-10.01 8.46c2.82-.04 6.31.09 9.05.14 0 0 .76-.01.76 0 .426 2.26-.26 4.5-.057 6.75-1.427.45-3.977.7-5.4 1.15-2.307.84-5.89 1.49-8.355 1.49-1.747 0-3.486.65-4.417 1.94-.93 1.29-1.012 2.682-1.012 3.992 0 .807-.14.978-.25 1.097-.112.12-.415.326-1.07.45-1.31.25-4.563.056-7.086.057-.298 0-2.13.18-2.448.17 1.91-1.72 2.53-3.28 2.335-5.767-.21-2.366.457-4.2 1.13-5.43 1.544-2.82 7.19-5.12 11.586-5.622.76-.086 1.56-.144 2.39-.25.7-.09 1.69-.154 2.84-.17zm20.84 0c.77-.01 1.54-.01 2.25 0 1.16.01 2.132.07 2.84.17.83.1 1.65.16 2.42.25 4.42.5 10.09 2.8 11.64 5.62.67 1.225 1.024 3.06.814 5.43-.288 1.97.735 3.92 1.687 5.65-.32.013-1.5-.054-1.8-.054-2.535 0-5.515.193-6.834-.057-.66-.125-.956-.33-1.07-.45-.113-.12-.253-.294-.253-1.097 0-1.31-.102-2.705-1.04-3.994-.932-1.29-2.635-1.94-4.385-1.94-2.48 0-6.12-.65-8.438-1.49-1.384-.506-3.854-.71-5.15-1.157-.447-2.12-.192-4.518-.307-6.75 2.07-.038 5.313-.12 7.62-.14zm-212.17 2.892c.12-.01.26 0 .39 0 3 .174 5.722 1.994 8.07 3.6.565 3.362 2.18 6.757 1.77 10.155-3.25.606-6.708.99-9.618 2.87-1.942-.286-1.97-2.845-3.29-4.024-2.03-2.6-3.464-6.76-.648-9.36.98-1.22 1.522-3.05 3.32-3.237zm405.28.086c4.51.21 6.02 5.765 5.71 9.506-.27 2.537-1.12 5.707-3.6 6.834-2.84-1.543-6.08-2.183-9.2-2.586-.88-2.19.52-5.028.87-7.4.15-3.307 2.94-6.058 6.214-6.357zm-202.45 7.426c.49.25.997.424 1.49.59 1.806.62 3.766 1 4.19 1.157 2.957 1.075 6.777 1.745 9.93 1.745.937 0 .85.11.87.14.022.03.198.49.198 1.435 0 1.567.49 3.048 1.464 4.078.97 1.03 2.217 1.52 3.402 1.745 2.37.447 4.85.11 7.087.11 1.47 0 2.936-.043 4.276-.027.324.702.75 1.51 1.49 2.25.204.204.425.48.646.787-.253.73-.2.8-.788 1.38-.928.916-1.716 2.32-1.716 3.94 0 .817.418 1.487.87 1.967.1.104.183.198.282.282.094.077.19.165.28.222.62.4 1.214.575 1.83.732 1.162.296 1.404.414 2.755.534.055.237.102.506.14.76.04.247.085.5.113.757-.68.255-.998.87-1.52 1.322-1.37.994-2.42 2.335-2.39 3.963.022 1.627 1.07 2.74 2.05 3.43 1.005.71 1.072 1.215 2.192 1.52.003.19 0 .374 0 .562 0 3.387.282 6.633.282 9.702 0 3.327-.007 6.31-.507 9.31-.597 3.598.226 6.996.226 9.536 0 3.05.198 5.965-.224 8.49-.68 4.093-.023 7.78-.023 11.14v9.42c0 2.53-.28 4.64-.28 7.54 0 1.69-.564 3.696-.564 6.186 0 .093-.08 17.67-.223 20.363-.147 2.696-.34 6.157-.536 9.62-.19 3.46-.39 6.927-.53 9.646-.067 1.22-.1 2.18-.14 3.01h-.423c-3.164 0-6.243-.28-9.674-.28-3.69 0-8.557-.79-13.22-.564-1.556.078-3.088.3-4.557.62-6.06 1.328-17.3.846-17.3.846-.98.1-1.99.16-3.007.17-1.646.083-1.995.053-2.844-.086-3.475-.165-4.906-.417-7.76-.534-1.526-.098-3.057-.17-4.614-.17-2.89 0-6.61.148-9.473.226-.11-2.425-.31-5.72-.48-9.28-.28-5.81-.536-11.928-.536-13.08 0-3.573-.816-21.963-.816-24.806v-8.35c0-3.38-.254-6.76-.254-9.957v-9.675c0-3.594-.282-6.92-.282-10.24 0-3.44.284-6.83.284-10.49 0-3.465.04-6.985-.565-10.603-.383-2.297-.096-5.277 0-8.27 1.113-.304 1.134-.807 2.137-1.52.975-.69 2.03-1.807 2.054-3.43.028-1.62-1.022-2.967-2.39-3.966-.584-.426-.05-.686-.645-.954.026-.13.057-.236.085-.367.023-.114.06-.25.083-.365.083-.416.14-.8.224-1.21.99-.11.88-.256 1.745-.48.613-.157 1.18-.333 1.8-.73.09-.06.185-.15.28-.226.1-.08.212-.177.31-.28.453-.477.844-1.15.844-1.97 0-1.61-.768-3.02-1.69-3.936-.744-.74-.965-1.2-1.267-1.66.294-.904.676-1.81 1.153-2.7 1.69-.12 3.69-.03 5.71-.03 2.225 0 4.666.34 7.03-.11 1.18-.226 2.436-.715 3.404-1.746.967-1.03 1.46-2.512 1.46-4.077 0-.946.18-1.405.2-1.434.02-.028-.058-.14.872-.14 3.14 0 6.93-.696 9.87-1.772.42-.152 2.364-.504 4.163-1.124.494-.17.97-.335 1.462-.59zm-43.453 9.51c.625-.01 1.396.012 2.22.027-.706.88-1.18 1.976-1.18 3.32 0 .85.4 1.648.816 2.137.42.49.84.81 1.264 1.07-.195.964-.39 1.905-.59 2.87-.72.05-1.44.105-2.11.166-1.276.118-2.23.128-3.43.675-.375.173-.784.42-1.15.873-.154.188-.264.396-.368.648h-2.868c-.138-.294-.292-.58-.45-.87-.537-.98-.62-1.433-.647-1.405.086-.084.243-.242.674-.48-.043.023.65.012 1.856-.027.6-.02 1.65-.06 2.53-1.1.88-1.036.735-2.26.48-3.207-.477-1.73-.66-3.047-.566-3.43.05-.19.05-.22.31-.42.26-.2.846-.495 1.884-.73.22-.05.697-.1 1.322-.11zm87.13 0c.63.01 1.1.062 1.323.112 1.045.237 1.648.53 1.912.73.26.2.29.234.333.422.095.38-.115 1.672-.59 3.403-.26.945-.378 2.2.505 3.233.88 1.034 1.926 1.077 2.53 1.097 1.21.04 1.892.05 1.857.03.433.237.587.394.674.48-.025-.034-.106.426-.645 1.405-.16.29-.312.578-.45.873h-2.895c-.1-.25-.24-.46-.395-.645-.37-.45-.774-.7-1.152-.87-1.2-.545-2.146-.558-3.43-.676-.42-.04-.875-.05-1.32-.086-.135-.45-.275-.925-.395-1.406-.15-.6-.352-1.225-.59-1.856.288-.2.59-.432.87-.76.42-.486.817-1.28.817-2.133 0-1.348-.47-2.443-1.18-3.32.83-.015 1.59-.038 2.22-.028zm-57.46 14.316c-.315-.002-.59.056-.814.11-.886.228-1.448.604-1.49.62-.35.143-.657.366-.873.677-.525.737-1.196 1.637-1.098 3.177.05.77.527 1.756 1.293 2.28.764.523 1.6.674 2.502.674.75 0 1.54-.195 2.194-.73.657-.536 1-1.3 1.098-1.914.193-1.223-.132-2.103-.31-2.81-.164-.666-.692-1.484-1.46-1.83-.385-.17-.725-.25-1.042-.25zm26.045 0c-.257.024-.5.123-.79.253-.77.344-1.326 1.162-1.49 1.827-.18.71-.476 1.59-.28 2.814.09.612.41 1.377 1.07 1.912.65.535 1.47.73 2.22.73.9 0 1.734-.15 2.5-.675.766-.52 1.244-1.504 1.294-2.274.1-1.54-.574-2.44-1.098-3.177-.217-.31-.52-.534-.87-.677-.046-.014-.608-.39-1.493-.616-.22-.058-.5-.115-.815-.113-.08 0-.17-.007-.255 0zm-117.54.76h5.43c-1.886 2.25-3.694 4.545-5.428 6.92v-6.92zm9.816 0h1.913c.097.094.22.18.337.253.49.335.403.25.506.422.103.17.357.77.9 1.742.312.56.736 1.09 1.125 1.63-1.263-.18-2.642-.3-3.91-.392-.55-.04-1.04-.08-1.49-.084-.445-.002-.68-.06-1.432.17-.19.058-.46.104-.847.42-.385.32-.9 1.22-.786 2.028.11.808.507 1.177.73 1.378.22.205.396.29.534.368.55.303.93.38 1.574.563.26.075.705.177 1.012.254-1.353.146-2.433.216-3.516.56-.27.09-.57.17-.983.48-.416.316-1.1 1.23-.957 2.22.144 1 .716 1.42 1.04 1.66.324.25.6.38.9.51 1.04.486 2.265.08 2.81-.93.457-.06.567-.102 1.155-.164 1.332-.14 2.93-.32 4.442-.563 1.51-.242 2.92-.513 4.216-1.235.108-.06.218-.11.34-.197.2.134.4.247.646.31.07.02.517.29 1.21.955.695.67 1.64 1.605 3.095 2.25 11.995 5.34 25.24 15.337 38.08 18.76-.077 2.035-.14 4.096-.14 6.246 0 .52-.01 1.01 0 1.52-.102.01-.207.056-.31.083-11.72 2.457-28.345-.813-42.58-.45-.7.02-1.402-.205-2.307-.506-.68-.227-1.525-.55-2.533-.59-.335-.016-.688.02-1.068.083-.258.03-.508.11-.732.22-.105-.637-.44-1.13-.7-1.434-.37-.435-.724-.698-1.1-.958-1.493-1.04-3.524-1.99-4.05-2.363-.744-.53-1.07-.83-1.685-1.237-.617-.41-1.49-.73-2.39-.873-.147-.02-.28-.032-.426-.026-1.113.05-2.02.965-2.08 2.08-.06 1.115.754 2.08 1.857 2.25.59.092.452.06.62.17.167.11.694.563 1.603 1.21.52.37 1.1.662 1.684.983-1.22.38-2.503.836-3.685 1.295-.51.2-.97.4-1.38.59-.36.17-.61.233-1.07.62v-29.53c3.005-4.46 6.287-8.71 9.816-12.746zm7.285 0h29.17c-.32.652-.312 1.393.057 2.025.395.676 1.128 1.08 1.912 1.07.27 0 1.4.022 2.56-.088.57-.054 1.17-.14 1.8-.337.31-.095.65-.215 1.04-.475.383-.26.88-.716 1.093-1.49.06-.234.127-.464.167-.706h3.18l.056.053c.907.897 2.01 1.465 3.207 2.11.425.23.863.46 1.294.673-.2 1.12-.37 2.267-.477 3.432-1.51 0-2.915.004-3.968-.17-1.307-.22-1.843-.537-2.166-1.127-.58-1.05-1.9-1.42-2.955-.84-1.054.58-1.45 1.9-.87 2.954 1.135 2.077 3.33 2.994 5.286 3.32 1.506.25 3.014.238 4.47.226-.013.34-.006.715-.024 1.068-.17.132-.353.27-.48.45.05-.066-.676.58-1.544.79-.87.21-1.79.19-2.617-.31-1.03-.62-2.364-.27-2.98.76-.62 1.03-.3 2.36.73 2.98 1.963 1.18 4.14 1.235 5.88.815.32-.076.6-.18.9-.28.04.773.122 1.564.25 2.334.51 3.06.507 6.227.506 9.62-11.217-3.365-24.093-12.74-36.42-18.225-.64-.285-1.17-.774-1.857-1.435-.688-.66-1.527-1.575-3.01-1.997-.21-.065-.427-.115-.647-.112-.048 0-.098.028-.14.03.18-.63.102-1.212 0-1.602-.147-.55-.367-.954-.59-1.35-.906-1.582-2.33-3.292-2.646-3.853-.064-.113-.114-.204-.17-.307zm135.59 0h3.236c.037.242.076.472.14.703.214.78.737 1.23 1.124 1.49.39.26.726.382 1.043.48.63.194 1.22.282 1.8.336 1.16.11 2.285.085 2.56.085.784.01 1.52-.394 1.913-1.07.37-.63.407-1.374.086-2.026h29.136c-.054.106-.106.197-.17.31-.312.56-1.74 2.27-2.643 3.856-.228.395-.42.8-.564 1.35-.1.39-.204.976-.025 1.604-.06-.002-.11-.03-.17-.03-.196.008-.4.057-.59.115-1.482.422-2.32 1.335-3.01 1.997-.686.66-1.243 1.15-1.882 1.435-12.16 5.41-24.838 14.603-35.946 18.083.317-2.79.31-5.48.31-8.214 0-1.2-.01-2.39-.058-3.57.28.09.54.18.842.25 1.74.42 3.914.336 5.88-.843.693-.383 1.13-1.115 1.124-1.91-.007-.794-.455-1.51-1.155-1.884-.7-.378-1.558-.35-2.22.082-.83.494-1.72.52-2.59.31-.87-.21-1.65-.856-1.606-.79-.135-.196-.29-.368-.477-.507-.005-.29 0-.556 0-.844v-.17c1.478.01 3.003 0 4.527-.252 1.963-.327 4.146-1.216 5.288-3.29.58-1.056.187-2.378-.87-2.956-1.05-.577-2.373-.21-2.95.844-.323.59-.85.91-2.164 1.126-1.057.176-2.46.172-3.97.17-.053-1.243-.087-2.44-.113-3.63.3-.153.606-.32.9-.478 1.206-.646 2.298-1.215 3.208-2.11l.052-.06zm46.408 0h1.913c3.53 4.033 6.813 8.283 9.816 12.742v29.502c-.45-.373-.71-.426-1.07-.59-.406-.19-.864-.393-1.38-.59-1.18-.46-2.463-.917-3.68-1.296.582-.32 1.19-.61 1.713-.987.91-.644 1.407-1.096 1.575-1.21.167-.11.06-.075.647-.166 1.157-.13 1.992-1.144 1.912-2.307-.08-1.16-1.06-2.057-2.224-2.025-.124.004-.246.005-.366.03-.9.14-1.75.464-2.36.872-.614.41-.94.707-1.686 1.238-.522.373-2.58 1.32-4.08 2.363-.37.26-.73.523-1.093.957-.26.305-.597.798-.706 1.433-.23-.116-.462-.196-.73-.223-.38-.065-.732-.1-1.07-.085-1.004.04-1.822.364-2.5.59-.905.3-1.607.524-2.306.505-14.237-.363-30.89 2.907-42.61.45-.01-.633-.03-1.25-.03-1.856 0-2.123-.292-4.2-.392-6.02 12.826-3.435 26.07-13.396 38.052-18.73 1.457-.65 2.43-1.584 3.123-2.25.692-.67 1.11-.94 1.18-.96.242-.06.447-.175.646-.306.124.09.26.14.367.198 1.296.72 2.706.994 4.22 1.237 1.514.244 3.083.423 4.415.563.59.06.7.102 1.156.17.546 1.01 1.8 1.41 2.84.925.3-.13.576-.26.9-.504.324-.248.867-.667 1.01-1.66.147-.998-.54-1.91-.954-2.22-.418-.317-.715-.39-.986-.48-1.083-.35-2.134-.42-3.487-.56.306-.08.75-.18 1.01-.258.645-.186.995-.26 1.546-.564.14-.076.31-.163.534-.366.222-.2.617-.57.73-1.375.114-.81-.4-1.71-.786-2.026-.387-.32-.655-.366-.844-.42-.754-.234-.96-.176-1.404-.17-.45.003-.97.043-1.52.083-1.264.09-2.615.21-3.88.39.388-.54.81-1.07 1.125-1.63.54-.974.795-1.57.9-1.744.1-.17-.015-.09.476-.42.116-.078.24-.16.338-.257zm6.3 0h5.43v6.947c-1.736-2.375-3.54-4.697-5.43-6.947zm-101.333 7.763c-.518.047-1.02.302-1.35.702-.33.4-.47.916-.423 1.433.06.74.17 4.19.255 7.31.04 1.56.083 3.046.11 4.19.027 1.145.03 2.135.03 1.997-.01.704.373 1.36.983 1.715.61.354 1.33.354 1.94 0 .61-.358.994-1.01.984-1.718 0-.324 0-.932-.03-2.08-.024-1.15-.07-2.655-.11-4.22-.084-3.13-.19-6.342-.28-7.51-.03-.526-.3-1.007-.7-1.35-.35-.3-.784-.472-1.238-.477-.065 0-.103-.005-.168 0zM632.7 169.61c.142-.004.287.03.45.14 1.653 1.14 4.14.69 5.483 1.97 1.52 7.29 8.782 12.697 8.13 20.59-.675 1.844-.494 3.974-1.69 5.598-2.227 2.436-5.796 2.45-8.66 3.683-2.237-.85-.89-4.12-1.55-6.02-.715-8.42-1.727-16.78-3.177-25.112.244-.365.583-.824 1.01-.845zm-379.63.285c.284.138.554.282.842.42.137 2.846-1.194 5.857-1.548 8.805-1.412 7.165-2.312 14.38-2.896 21.655-1.48 1.39-3.19-.87-4.864-1.04-1.928-.655-4.41-.72-4.92-3.15-2.766-5.988.764-12.306 3.683-17.466 1.544-2.47 2.41-5.3 3.486-7.908 2.118-.17 4.317-.28 6.217-1.323zm80.52 1.35v131.68c-11.66-19.204-18.395-41.752-18.395-65.868 0-24.11 6.74-46.61 18.395-65.814zm217.293 0c11.654 19.2 18.393 41.703 18.393 65.812 0 24.11-6.74 46.665-18.397 65.87V171.242zm-129.49 6.47c-.76.006-1.456.46-1.77 1.152-.306.67-.203 1.452.252 2.025.013.037.22.318.393.59.236.37.545.867.9 1.38.72 1.03 1.546 2.208 2.84 3.04 5.237 3.356 11.79 6.073 18.62 6.073 5.74 0 11.88-2.456 16.567-5.708 2.244-1.557 3.888-3.95 5.035-5.287.47-.53.626-1.276.395-1.94-.23-.67-.82-1.17-1.52-1.298-.086-.017-.165-.026-.25-.03-.077-.003-.15-.005-.227 0-.525.04-1.008.285-1.35.703-1.356 1.58-2.975 3.69-4.304 4.613-4.1 2.846-9.776 5.034-14.343 5.034-5.764 0-11.72-2.384-16.51-5.455-.342-.22-1.134-1.127-1.74-1.998-.302-.44-.59-.85-.814-1.21-.226-.36-.27-.54-.62-.96-.373-.46-.95-.732-1.545-.73zm-70.31 19.714c.07-.01.58.06 1.49.363.915.303 2.205.715 3.798.675 13.297-.34 29.77 3.084 42.92.48.057 1.434.114 2.87.114 4.3v9.676c0 3.43.28 6.816.28 9.955v8.356c0 3.57.79 21.962.79 24.805 0 1.72.286 7.467.566 13.278.198 4.09.35 7.574.45 9.9-.08.095-.133.2-.196.31-.4.676-.4 1.515 0 2.193.1.175.22.34.363.478.12.607.496 1.12 1.04 1.437.677.397 1.49.397 2.166 0 .362-.212.654-.505.84-.87 2.99-.074 6.79-.253 9.62-.253.67 0 1.347.03 2.027.057-3.328 6.766-8.766 16.766-13.977 26.83-6.084 11.75-11.864 23.454-13.67 30.996-.41 1.708-.936 3.364-1.604 4.894-.228.03-.558.08-1.153.03-1.47-.136-3.634-.66-5.82-1.297-2.18-.638-4.4-1.404-6.1-1.996-.85-.298-1.582-.546-2.14-.733-.272-.092-.49-.16-.7-.224-.11-.03-.23-.057-.363-.087-.138-.027-.094-.165-.9-.026-.432.06-.818.237-1.125.507-12.94-9.006-24.147-20.36-32.965-33.44V199.34c.265.19.506.26.675.31.29.086.49.102.65.112.63.037.997-.057 1.66-.168.267-.045.7-.163 1.012-.225-1.16.71-2.095 1.24-2.923 2.02-.21.19-.437.41-.677.87-.244.46-.45 1.58.11 2.42s1.205.98 1.6 1.07c.4.08.716.06 1.04.06 1.146-.02 2.08-.91 2.14-2.06.384-.26.478-.367.984-.678 1.144-.7 2.508-1.52 3.77-2.39 1.262-.87 2.43-1.69 3.29-2.897.068-.095.128-.214.197-.338.24.027.49.025.73-.03zm182.307 0c.242.053.492.05.73.03.07.12.13.24.198.333.86 1.208 2.03 2.026 3.29 2.896 1.265.87 2.628 1.69 3.77 2.39.508.312.63.42 1.01.676.06 1.14.97 2.03 2.11 2.05.33.01.647.026 1.04-.056.4-.08 1.076-.23 1.635-1.064.558-.84.325-1.96.085-2.42-.244-.46-.47-.676-.677-.87-.83-.784-1.736-1.316-2.897-2.027.31.06.742.18 1.01.223.662.11 1.03.205 1.66.168.156-.006.33-.024.62-.11.165-.05.415-.122.673-.31v108.677c-8.823 13.09-20.02 24.46-32.963 33.47-.302-.273-.67-.468-1.097-.535-.806-.14-.79 0-.927.03-.135.03-.23.053-.335.084-.215.063-.455.13-.73.225-.555.187-1.26.435-2.11.73-1.7.59-3.918 1.358-6.103 1.996-2.186.64-4.38 1.16-5.85 1.295-.602.05-.93 0-1.153-.03-.67-1.53-1.197-3.187-1.606-4.895-1.805-7.542-7.56-19.245-13.64-30.994-5.296-10.23-10.834-20.4-14.145-27.166.554.017 1.096.027 1.63.027 3.197 0 6.274.258 9.676.258h1.886c.566.162 1.197.107 1.717-.197.675-.39 1.08-1.13 1.07-1.91 0-.144.105-2.295.25-5.005.145-2.71.34-6.184.535-9.646.193-3.463.387-6.917.533-9.62.144-2.703.223-19.83.223-20.587 0-1.755.56-3.74.56-6.187 0-2.617.255-4.717.255-7.54v-9.42c0-3.85-.56-7.23-.03-10.41.167-.994.26-2 .31-2.98 13.08 2.46 29.368-.87 42.526-.533 1.59.04 2.853-.37 3.766-.676.912-.304 1.42-.378 1.49-.367zm-185.626.7c.01 0 0 .03 0 .03-.015.01-.07.02-.14 0 .02 0 .13-.03.14-.03zm188.976 0c.01 0 .096.03.112.03-.07.02-.12.01-.14 0 .002 0 .02-.03.027-.03zm-81.03 29.28c-.17.014-.325.04-.45.086-.495.17-.783.42-.786.42-.138.066-.265.168-.365.282-.065.08-.13.154-.17.25-.207.465-.455 1.085-.14 1.912.157.415.537.844.985 1.04.446.2.915.217 1.433.17.425-.04.9-.14 1.266-.534s.44-.96.392-1.32c-.1-.73-.43-1.15-.65-1.52-.2-.33-.55-.62-.957-.73-.204-.06-.39-.07-.563-.06zm-32.426.06c-.174.01-.354.07-.48.11-.495.17-.755.39-.758.39-.1.05-.2.122-.28.2-.108.1-.198.202-.257.334-.208.463-.428 1.11-.113 1.94.16.413.51.813.957 1.01.45.198.917.243 1.436.197.425-.04.9-.17 1.266-.56.37-.393.47-.93.424-1.294-.096-.725-.454-1.15-.675-1.52-.198-.328-.55-.644-.957-.76-.205-.055-.39-.068-.563-.054zm34.452 54.28c1.384.03 2.84.1 4.302.193 3.232 6.94 9.382 18.127 15.244 29.446 6.05 11.682 11.704 23.57 13.247 30.01.48 2 1.127 4.026 2.025 5.99.45 1.106 1.535 1.844 2.42 2.08.99.267 1.94.262 2.953.17 1.63-.148 3.435-.565 5.29-1.07-11.33 6.22-23.698 10.75-36.79 13.276.224-.31.36-.67.395-1.068.064-.8-.314-1.595-.986-2.03-.547-.39-1.403-.89-2.614-1.63-1.213-.74-2.68-1.63-4.108-2.506-1.43-.877-2.83-1.734-3.827-2.39-.344-.228-.557-.4-.787-.564-.376-6.22 1.406-11.76.7-19.376-.07-.79.04-4.9.31-9.957s.658-11.34 1.04-17.465c.387-6.122.768-12.115.987-16.62.11-2.25.182-4.106.196-5.484.003-.38.005-.706 0-1.01zm-4.36.17c.003.243.003.43 0 .78-.01 1.27-.09 3.12-.198 5.346-.215 4.45-.57 10.414-.956 16.537-.383 6.125-.796 12.43-1.07 17.524-.27 5.09-.424 8.702-.25 10.573.644 6.98-1.407 12.62-.705 20.226.077.822.343 1.032.48 1.208.134.176.243.25.337.34.185.175.347.31.533.45.375.28.84.6 1.38.957 1.08.71 2.464 1.56 3.91 2.447 1.445.888 2.935 1.8 4.135 2.533 1.196.732 2.192 1.362 2.33 1.462.047.034.096.052.14.083-6.9 1.163-13.973 1.8-21.203 1.8-7.227 0-14.31-.61-21.207-1.77.05-.035.093-.076.14-.115.14-.1 1.164-.73 2.363-1.462 1.2-.732 2.66-1.645 4.105-2.532 1.445-.886 2.86-1.736 3.938-2.446.54-.356.977-.677 1.35-.957.187-.14.377-.276.562-.45.093-.088.202-.163.337-.338.136-.18.374-.39.45-1.21.704-7.606-1.32-13.244-.674-20.224.174-1.87-.01-5.48-.28-10.57s-.682-11.4-1.067-17.52c-.383-6.125-.74-12.09-.956-16.54-.095-1.937-.147-3.494-.17-4.725 1.183-.03 2.377-.13 3.572-.28 1.354-.17 2.753-.187 4.22-.17 2.59.36 5.263.015 6.944.085 1.97-.058 4.005-.25 6.05-.76.457-.114.95-.21 1.46-.28zm-31.36.95c1.57.13 3.143.25 4.753.338.02 1.33.097 3 .195 5.034.22 4.506.573 10.5.96 16.624s.8 12.41 1.07 17.465c.27 5.06.353 9.167.28 9.957-.704 7.62 1.08 13.18.703 19.41-.227.16-.45.31-.786.532-1 .66-2.397 1.515-3.826 2.392-1.43.877-2.896 1.764-4.106 2.504-1.212.74-2.068 1.24-2.617 1.63-.67.434-1.05 1.227-.984 2.026.032.4.167.757.393 1.068-13.09-2.525-25.457-7.056-36.787-13.274 1.85.505 3.657.923 5.287 1.07 1.017.093 1.97.098 2.955-.17.886-.235 1.97-.973 2.42-2.08h.03c.895-1.963 1.516-3.99 1.995-5.99 1.542-6.44 7.227-18.327 13.275-30.01 5.606-10.825 11.46-21.53 14.794-28.517zM254.12 300c.455.014.87.135 1.265.45 1.205 10.78 2.13 21.635 2.615 32.485-1.507 1.745-3.026-1.25-4.696-1.576-1.702-.96-.764-3.54-1.913-5.1-2.6-6.135-8.34-11.97-6.91-19.18.65-2.76 2.338-5.488 5.347-5.99 1.353-.17 2.936-1.14 4.3-1.1zm377.943.225c.137.002.27.057.422.196 2.102 1.22 5.034 1.03 6.722 2.76 3.348 4.96 1.353 11.24-1.434 15.92-2.155 3.9-4.614 7.84-4.923 12.35-1 .76-2.753 2.9-3.908 1.35.346-10.64 1.14-21.28 1.996-31.89.364-.21.715-.683 1.125-.674zM336.835 313.78c18.298 25.055 45.313 43.367 76.584 50.43h-76.59v-50.43zm210.825 0v50.43h-76.585c31.27-7.063 58.29-25.375 76.585-50.43zm-305.887 50.514c.19-.01.366.01.533.168 2.29 1.088 4.863 1.066 7.23 1.715.238 4.04-1.552 8.025-2.25 12.01-1.728 2.853-6.306 3.606-8.298.563-3.338-4.214-2.977-11.834 2.193-14.43.2.016.4-.02.6-.027zm402.58.393h.253c1.804 3.313 5.657 6.93 4.08 11.11-.842 1.476-1.98 2.69-2.87 4.134-1.76 1.53-5.162.83-6.187-1.09-.72-4.22-2.66-8.45-2.37-12.71 2.33-.46 4.77-.792 7.084-1.433zm-6.497 54.14c-.192-.01-.365-.014-.562.03-5.21.38-11.006 1.905-14.428 6.1-1.825 3.292.345 7.073 3.207 8.805 2.166 1.474 5.317 4.628 2.952 7.228-3.135 3.556-8.02 4.73-12.375 5.99-1.102.338-2.592-.648-3.346.366-1.07.29-1.26-1.165-2.448-.42-2.52 1.013-1.193 4.65.9 5.343 2.508 1.85 6.13.25 9 1.23 4.01.452 8.677 2.83 8.888 7.37.795 3.74-2.24 7.35-6.02 7.48-4.935.8-10.538-.188-14.4-3.46-2.573-2.24-3.264-6.29-6.41-7.82-2.336-.477-3.9 2.83-1.914 4.272 2.823 4.37 5.636 9.304 5.43 14.68-1.14 2.166-3.892.01-5.064-1.124-3.16-2.445-5.706-5.547-8.69-8.21-2.25-.824-4.338 2.5-2.25 4.02 3.717 4.41 8.07 8.635 13.33 11.083 3.007 1.49 6.388-.805 7.004-3.91.93-1.85-.38-4.285.928-5.766 4.45 1.015 9.44 1.87 14.035.533 4.526-.84 8.288-4.646 8.633-9.364.684-5.606-2.98-11.116-8.212-13.16-.85-2.21 2.567-2.135 3.685-3.405 3.91-2.25 6.36-7.48 3.88-11.585-1.4-2.944-4.58-4.46-6.33-6.948.32-3.143 4.43-3.275 6.75-4.022 1.94-.676 5.36-.056 6.05-2.557.27-1.4-.88-2.708-2.23-2.788zm-389.22.03c-2.757.146-2.32 4.22-.03 4.808 3.723.218 8.012.882 11.054 3.488.53 2.018-2.484 2.978-3.544 4.415-3.648 2.742-5.327 8.172-2.475 12.038 1.68 2.615 5.01 3.683 7.15 5.485.298 1.81-2.56 1.76-3.482 3.04-5.997 4.26-6.815 14.89-.17 18.85 5.208 3.17 11.965 2.84 17.663 1.1 2.023.896.284 3.6 1.21 5.316.33 3.407 4.29 6.25 7.454 4.218 5.234-2.437 9.284-6.697 13.134-10.882 1.37-1.602.333-4.472-1.912-4.08-2.55.83-3.65 3.884-5.85 5.346-2.125 2.046-4.39 4.024-7.06 5.34-2.28-.686-1.163-3.81-.925-5.595 1.13-4.117 3.323-7.79 5.598-11.333 1.36-2.12-1.837-4.556-3.487-2.67-2.674 2.097-3.344 5.876-6.214 7.876-3.624 2.6-8.42 3.306-12.796 2.924-3.42-.33-7.236-2.68-6.89-6.553-.158-3.642 2.45-6.75 5.875-7.73 3.475-1.33 7.295-.976 10.885-1.154 1.13-.898 2.56-1.704 3.346-3.01.97-1.838-1.56-4.568-3.094-2.813-1.522-.675-3.57.31-5.23-.73-4.293-1.252-9.45-2.58-11.81-6.722-.7-4.25 4.347-5.69 6.355-8.55 2.102-2.637 1.344-6.795-1.66-8.44-3.746-2.647-8.546-3.855-13.078-3.963zm70.593 23.708c5.81.65 11.64.007 17.49.225 28.78-.186 57.5 3.15 86.28 2.28 39.65.067 79.304.126 118.94-1.07 11.407-.033 22.83-.33 34.2-.76 3.095 1.967 1.4 6.12 2.362 9.056.15 3.036-3.63 3.036-5.766 2.73-25.094 1.39-50.303 1.236-75.43 1.995-32.07.23-64.127.42-96.19-.14-22.044-1.2-44.12-2.4-66.206-1.88-6.502-.13-13.106.28-19.547-.19-2.984-2.702-.157-6.83-.084-10.07.57-1.61 2.365-2.207 3.94-2.164zm-46.05 3.235c-.03-.036-.15.124-.31.562.28-.292.34-.526.31-.562zm241.12 31.47c.345-.063.77.02 1.123.086 3.294.622 6.805 1.225 9.787 2.644 1.16 3.306 5.503 6 4.163 9.9-2.928 3.94-8.788 5.978-13.388 3.712-2.24-.975-4.066-2.74-5.683-4.472 1.73-3.437 3.295-7.183 3.263-11.138.097-.465.382-.666.73-.73zm-143.66.93c1.75-.11 3.06.765 2.81 2.783.304 2.974 1.91 5.603 2.95 8.27-3.097 1.968-5.884 5.26-9.757 5.624-2.205-.065-4.054-1.354-6.188-1.8-3.427-1.18-3.81-5.495-2.168-8.267 1.25-2.253 2.205-5.562 5.26-5.654 2.096-.59 4.093-1.17 6.3-.844.264-.055.535-.096.786-.112zm45.62.533c1.29.064 2.79.395 3.74.113h14.143c1.557 1.486-.457 3.64-1.042 5.287-1.484 3.395-5.627 4.968-8.97 3.292-4.226-1.005-7.4-4.204-10.38-7.173.11-1.362 1.21-1.58 2.505-1.52zm45.81.085c3.363.03 6.74.104 10.07.028 1.7 1.55-1.304 2.83-2.14 4.05-3.665 3.35-9.2 6.68-14.145 3.994-2.716-1.437-4.546-4.824-3.8-7.82 3.294-.265 6.65-.28 10.013-.252" fill="#fff"/></g></svg>