<svg xmlns="http://www.w3.org/2000/svg" viewBox="0 0 656 556" preserveAspectRatio="xMinYMid"><g fill-rule="evenodd"><path d="M53.085 297.035c-1.006.035-1.892.67-2.25 1.61-.91 2.31-1.67 4.302-2.156 6-.49 1.696-1.1 3.014-.13 5 .06.124.13.24.22.36-1.49.224-2.98.6-4.33 1.186-2.05.9-4.4 1.61-6.6 1.97-2.95.49-5.77 1.58-7.55 1.88-1.67.28-2.75 1.14-3.66 1.81-.91.68-1.67 1.25-2.07 1.43-2.85 1.24-4.83 3.44-6.08 4.35-2.16 1.57-3.33 3.42-4.61 4.77-1.168 1.22-1.497 2.47-1.89 3.56-.4 1.1-.847 2.09-.89 2.16-.96 1.34-1.218 2.69-1.46 3.67-.24.99-.44 1.62-.735 2.03-1.92 2.69-2.966 6.3-3.203 9.25-.26 3.24-1.02 5.73-.345 9.79.56 3.37.86 6.994 1.48 10.735.593 3.57.89 7.286 1.514 11.046.63 3.774 1.24 7.49 2.547 11.298.9 2.628.703 6.3 1.33 10.05.464 2.804.766 5.91 1.64 9.015-1.9 2.1-4.277 4.265-6.565 6.61-2.88 2.956-5.67 6.26-6.83 10.487-1.157 4.22-.41 9.182 3.047 14.544 2.725 4.227 7.08 8.818 13.61 14.09-.69.32-1.368.69-2.06 1.08-1.537.865-3.076 1.87-4.376 2.7-.57.36-.7.42-1.157.69-1.22-.53-2.64-.015-3.235 1.17-.175.337-.32.66-.44 1.11-.117.45-.32 1.206.264 2.205.58 1 1.852 1.344 2.45 1.33.6-.02.93-.15 1.234-.27 1.22-.46 2.227-1.178 3.537-2.015-.22.287-.54.686-.72.937-.444.627-.72.987-1 1.656-.064.164-.143.36-.2.7-.052.34-.15.94.33 1.75.48.806 1.598 1.24 2.17 1.25.578.007.84-.12 1.05-.204.846-.337 1.01-.568 1.408-.89.4-.327.835-.71 1.3-1.14 1.07-.99 2.186-2.088 3.19-3.16.04.76.068 1.55.19 2.28.21 1.264.404 1.99.435 2.22.03.227.06.095-.14.75-.405 1.32.336 2.717 1.656 3.124 1.32.405 2.72-.34 3.124-1.66.06-.2.095-.405.14-.61.474 2.1.995 4.385 1.376 6.097.676 3.05 1.19 5.476 1.22 5.64.096.926.696 1.72 1.56 2.065.77.303 1.638.214 2.314-.236.6-.1 1.204-.21 1.81-.31 3.86-.644 7.31-1.52 10.935-2.127.403-.07.81-.14 1.22-.22.042.93.102 1.954.19 3.184.25 3.535.665 8.2 1.11 13.03.44 4.83.91 9.827 1.22 13.97.306 4.144.434 7.627.34 8.64-.81 8.766 1.23 15.145.8 22.298-.264.184-.505.34-.894.593-1.15.756-2.75 1.758-4.39 2.766-1.645 1.01-3.343 2.04-4.735 2.89-1.395.85-2.37 1.44-3 1.89-.75.52-1.164 1.403-1.08 2.31.082.91.65 1.69 1.483 2.063.83.37 1.795.276 2.53-.27.16-.11 1.323-.843 2.703-1.685 1.375-.84 3.07-1.885 4.73-2.904 1.66-1.02 3.29-2.01 4.53-2.83.62-.406 1.15-.77 1.58-1.092.21-.16.39-.31.606-.514.11-.1.22-.2.378-.404.16-.2.474-.43.563-1.39.81-8.75-1.522-15.224-.78-23.25.19-2.05-.03-5.27-.344-9.482-.316-4.21-.777-9.23-1.22-14.06-.44-4.83-.864-9.48-1.11-12.93-.116-1.636-.197-2.98-.217-3.92 4.62-1.08 9.253-2.2 12.733-1.92 7.31.584 13.79-2.044 19.69-2.283 3.67-.15 7.2-.84 10.64-1.656.01 17.03.004 41.99-2.89 56.78-.456 2.33-.78 4.75-.78 7.24h.03c-.1 1.334.424 2.41 1.02 3.265.66.966 1.5 1.807 2.48 2.675 1.96 1.73 4.494 3.49 7.047 5.12 2.56 1.63 5.13 3.123 7.1 4.235.987.557 1.82 1.014 2.42 1.345l.72.39c.086.05.19.11.237.14 1.136.69 2.63.38 3.39-.73.79-1.156.495-2.73-.657-3.52-.394-.27-.347-.21-.53-.31-.187-.106-.42-.23-.72-.39-.597-.33-1.415-.79-2.376-1.33-1.92-1.087-4.42-2.54-6.86-4.096-2.432-1.556-4.81-3.23-6.402-4.64-.8-.71-1.41-1.36-1.69-1.77-.13-.19-.14-.29-.14-.292v-.094c0-2.04.27-4.15.686-6.267 3.175-16.21 3-42.03 2.987-59.01 2.095-.52 4.176-.99 6.2-1.33 3.226-.54 7.555-1.08 10.97-1.56.547.7 1.434 1.09 2.375.93 1.168-.197 2-1.168 2.08-2.298.41-.513.625-1.173.53-1.874-.085-.66-.43-1.22-.903-1.61-.22-1.78-.49-3.93-.84-6.92.053.08.1.17.157.25.782 1.14 2.342 1.422 3.48.64 1.14-.79 1.426-2.35.64-3.488-.39-.565-.32-.446-.36-.67-.04-.23-.083-1-.264-2.27-.107-.733-.32-1.49-.518-2.233 1.285.716 2.676 1.436 4 2.06.573.27 1.1.5 1.58.69.476.186.7.37 1.606.435.223.015.515.06 1.06-.125.547-.18 1.477-.942 1.69-1.86.21-.91-.064-1.452-.22-1.76-.156-.31-.29-.47-.407-.61-.465-.55-.83-.8-1.45-1.263-.25-.186-.684-.475-.985-.686 1.51.404 2.69.79 4 .86.326.017.674.04 1.25-.126.573-.16 1.68-.88 1.935-2.01.257-1.124-.16-1.773-.404-2.17-.246-.393-.484-.654-.75-.92-.924-.943-2.423-1.004-3.42-.14-.52-.12-.667-.137-1.33-.314-1.49-.396-3.26-.89-4.985-1.25-.783-.163-1.55-.31-2.31-.404 4.63-7 7.4-12.7 8.72-17.55 1.675-6.152.9-11.12-1.483-14.794-2.38-3.68-6.05-5.98-9.686-7.92-3.574-1.916-7.2-3.51-9.905-5.347-.55-3.55-.878-7.104-1.5-10.844-.69-4.15-1.63-7.955-2.28-11.86-.66-3.95-1.298-7.655-1.297-11.31 0-1.42-.15-2.835-.38-4.22 1.36-.4 2.77-.82 4.25-1.26 1.91-.58 3.768-1.15 5.17-1.58 1.406-.43 2.12-.638 2.518-.768 1.23-.364 1.982-1.6 1.75-2.86-.235-1.26-1.38-2.136-2.658-2.03-.23.013-.455.06-.67.14.17-.058-1.007.304-2.407.732-1.4.43-3.245 1-5.154 1.58-1.307.39-2.56.765-3.81 1.14-.227-1.016-.427-1.984-.58-2.89-.652-3.93-2.206-7.666-3.436-10.91-1.318-3.464-2.588-6.666-3.86-10.03-1.52-4.01-4.368-7.255-7.13-9.89-3.286-3.14-6.837-4.1-9.39-5.92-2.34-1.67-5.39-2.51-8.19-2.88.625-.372 1.29-.74 1.97-1.08 2.648-1.312 5.618-2.33 7.577-2.652 1.284-.21 2.2-1.37 2.09-2.67-.107-1.3-1.194-2.302-2.5-2.297-.14 0-.28.01-.42.03-2.74.457-5.958 1.62-8.987 3.127-2.88 1.432-5.525 3.094-7.327 5.203-1.23-.07-2.336-.19-3.018-.39.962-1.83 2.56-4.088 3.58-5.454.36-.49.602-.57.98-1.625.093-.263.315-.644.092-1.545-.11-.457-.44-1.03-.907-1.39-.468-.37-.96-.5-1.31-.537-1.4-.146-1.45.22-1.75.375-1.21.62-2.627 1.69-5.738 3.953-1.467 1.068-2.595 1.788-3.53 2.345.406-1.323 1-2.972 1.81-5.03.32-.785.22-1.68-.265-2.375-.485-.69-1.293-1.09-2.14-1.06zm12.14 6.625c.023-.01.015.054-.156.11l.15-.11zm-5.468 10.47c.6-.005 1.006.02.985.015 2.807.864 6.107.717 8.375.72 2.407 0 7.593 1.16 9.03 2.186 3.437 2.46 6.597 3.34 8.844 5.49 2.5 2.39 4.82 5.17 5.91 8.03 1.3 3.42 2.57 6.62 3.86 10.03 1.26 3.33 2.67 6.84 3.19 9.97.2 1.16.45 2.31.69 3.46l-.33.1c-.91.17-1.66.83-1.94 1.72-.27.89-.03 1.86.63 2.52.66.66 1.63.89 2.52.61l.08-.01c.15.998.25 1.94.25 2.817 0 2.38.23 4.68.55 6.936-4.84 5.14-6.2 5.486-12.95 6.61-7.68 1.28-16.26-.913-23.47-4.39-.48-.233-1.82-1.384-2.86-2.546-.51-.585-.99-1.176-1.39-1.66-.39-.48-.53-.716-1.09-1.25-.54-.527-1.27-.815-2.03-.796-1.14.03-2.16.74-2.56 1.81s-.11 2.29.735 3.06c-.27-.255.2.24.61.734s.934 1.144 1.543 1.826c1.22 1.37 2.614 2.9 4.61 3.86 7.92 3.82 17.49 6.444 26.83 4.89 5.636-.938 9.194-2.108 13.11-5.42.656 3.56 1.464 6.9 2.033 10.31.626 3.77.946 7.598 1.624 11.67l1.826 11c.3 1.81.53 3.68.766 5.58-6.135-.21-13.772 1.53-21.686 3.53-8.443 2.13-17.15 4.63-23.86 5.75-9.664 1.61-19.565 1.77-29.22 3.38-3.21.535-7.005-.9-12.22-.155-.14-.07-.35-.21-.873-.372 0-.002-.01 0-.013 0-.202-1.246-.412-2.49-.62-3.734-.57-3.444-.61-7.28-1.75-11.31.4-.72.42-1.61.035-2.36-.235-.45-.59-.8-1.02-1.03-.54-2.32-.84-4.91-1.28-7.55-.48-2.886-.17-6.865-1.53-10.83-1.135-3.31-1.716-6.73-2.34-10.5-.58-3.48-.89-7.205-1.53-11.048-.58-3.46-.86-7.093-1.47-10.75-.52-3.14.09-4.83.39-8.545.15-1.855 1.26-5.317 2.28-6.75.98-1.365 1.29-2.754 1.53-3.77.24-1.014.46-1.64.67-1.94.86-1.21 1.144-2.34 1.514-3.36.37-1.015.85-1.87.796-1.81 1.688-1.76 2.72-3.3 3.94-4.183 1.95-1.417 3.67-3.166 5.126-3.8 1.343-.586 2.27-1.4 3.06-1.984.785-.59 1.41-.876 1.5-.893 2.675-.448 5.364-1.53 7.53-1.89 2.645-.44 5.33-1.257 7.765-2.31 1.46-.64 4.5-1.067 6.64-1.067 1.4 0 2.954-.277 4.515-.454.78-.09 1.57-.12 2.17-.124zm14.03 31.936c-.472.01-1.05.114-1.656.516-.8.537-1.24 1.573-1.31 2.36-.06.837-.26 1.882.19 3.234.23.676.74 1.5 1.58 1.984.85.485 1.82.547 2.67.406 1.03-.17 1.95-.48 2.72-1.22.77-.737 1.12-1.944 1.03-2.826-.18-1.766-1.12-2.668-1.86-3.406-.3-.307-.69-.518-1.11-.61-.05-.012-.76-.333-1.81-.422-.13-.01-.28-.018-.43-.016zm39.188 56.14c2.182 1.164 4.418 2.208 6.485 3.314 3.385 1.81 6.242 3.76 7.844 6.234 1.6 2.473 2.27 5.572.86 10.766-1.265 4.647-4.33 10.836-9.97 18.92-.124-.953-.218-1.713-.296-2.186-.538-3.227-.2-6.79-.875-10.844l-1.58-9.47c-.592-3.56-.913-7.466-1.562-11.358-.29-1.792-.6-3.583-.9-5.375zM15.32 415.74c.336 2.33.513 4.826.952 7.467l1.782 10.688c.532 3.202 1.24 5.532 1.734 8.5.462 2.775 1.45 4.946 1.78 6.937.112.672.447 2.2.892 4.203-7.52-5.83-12.15-10.68-14.703-14.64-2.916-4.524-3.2-7.675-2.422-10.516.778-2.85 2.9-5.57 5.578-8.32 1.393-1.43 2.916-2.85 4.406-4.33zm93.186 3.25c.674-.01 1.314.016 1.907.06.037.235.07.47.11.704l1.577 9.468c.538 3.225.185 6.79.86 10.844.218 1.308 1.063 8.293 1.844 14.938.477 4.07.9 7.822 1.234 10.593-3.267.455-7.512 1-10.797 1.548-7.55 1.257-14.59 3.915-21.28 4.187-7.07.288-13.33 2.76-19.09 2.297-6.91-.56-14.57 2.35-20.15 3.28-3.89.65-7.36 1.54-10.95 2.14l-.45.08c-.2-.94-.44-2.03-.75-3.41-.68-3.06-1.54-6.95-2.42-10.85-.87-3.9-1.74-7.79-2.42-10.82-.67-3.03-1.2-5.46-1.22-5.56-.47-2.83-1.46-5.01-1.78-6.92-.54-3.29-1.24-5.63-1.72-8.5-.08-.53-.17-1.06-.26-1.58.11-.01.24-.03.36-.05 3.94-.66 7.67.96 12.69.12 1.99-.33 4.02-.6 6.08-.83 0 .31.03.98.424 1.89 1.005 2.32 2.985 6.72 4.98 10.39.997 1.83 1.964 3.46 2.984 4.7.51.613.964 1.17 1.91 1.64.473.23 1.167.44 1.984.292.82-.15 1.56-.72 1.94-1.25 1.01-1.413 3.89-5.996 6.75-10.265 1.255-1.874 2.47-3.61 3.42-4.89.34.82.86 1.54 1.5 2.017 1.13.84 2.37 1.282 3.69 1.47-.856.84-1.205 1.82-1.47 2.92-.28 1.16-.43 2.52-.485 4.233-.2 6.33.55 10.147 2.458 14.53.77 1.78 1.41 3.98 2.685 5.787.32.453.7.92 1.313 1.33.61.407 1.58.71 2.515.545 1.87-.33 2.63-1.646 3.342-3.016.335-.64.636-1.39 1.096-2.56.46-1.175 1.007-2.618 1.52-4.05.51-1.43.987-2.847 1.327-4.016.17-.585.3-1.1.39-1.593.05-.25.1-.48.11-.79.014-.317.175-.685-.406-1.64-.482-.8-2.56-4.495-4.5-7.815-.97-1.66-1.92-3.243-2.67-4.434l-.266-.4c.34-.27.63-.57.816-.88.424-.72.513-1.34.56-1.89.09-1.1-.065-2.03-.17-2.86-.05-.38-.057-.46-.08-.73.51.28 1.12.372 1.7.25.234.1.375.14.78.36 1.32.714 3.25 1.946 5.235 3.296 1.98 1.35 4.028 2.82 5.688 4.062 1.66 1.24 3.047 2.365 3.25 2.56.408.39 1.04.84 1.94.924.9.085 1.825-.35 2.31-.8.976-.9 1.1-1.64 1.315-2.44.433-1.596.607-3.53.72-5.64.11-2.117.12-4.35.077-6.27-.043-1.916-.12-3.38-.3-4.437-.09-.55-.174-1.102-.263-1.654 2.42-.386 4.64-.618 6.545-.64zm-11.468 1.56c.087.516.18 1.03.266 1.547.056.343.177 1.932.22 3.735.04 1.803.022 3.943-.08 5.89-.058 1.114-.196 1.76-.313 2.625-.46-.352-.65-.546-1.21-.968-1.72-1.29-3.82-2.81-5.87-4.21-2.05-1.4-4.05-2.67-5.67-3.55-.81-.44-1.47-.79-2.28-1.02-.24-.07-.51-.16-.87-.18 2.68-.7 5.38-1.41 8.03-2.08 2.67-.67 5.29-1.29 7.8-1.81zm-17.64 4.376c-.158.104-.31.223-.454.375l-.125.14c-.13-.06-.25-.11-.38-.15-.09-.02-.2-.03-.32-.03l1.26-.33zm-15.72 3.484c-.332.375-.643.795-1.015 1.28-1.132 1.476-2.545 3.516-4 5.69-2.304 3.44-4.07 6.185-5.282 8.03-.53-.794-1.07-1.56-1.73-2.765-1.85-3.406-3.82-7.75-4.8-9.985.09.2.07-.01 0-.42 5.47-.51 11.11-.946 16.83-1.83zm8.485 1.08c.49-.005 1.26.062 2.016.155.13.016.24.044.37.062.04.345.03.765.07 1.094.05.4.04.56.06.88-1.92.1-3.43-.2-3.78-.36.09-.28.48-.93 1.25-1.82zm2.53 12.467c1.026 1.433 2.177 3.677 3.205 5.938-.717-.7-1.448-1.43-1.782-1.89-.477-.658-.605-.966-1.39-1.564l-.25-.17c.002-.07-.003-.12 0-.2.03-.98.13-1.49.218-2.11zm49.032 1.11c.01-.015.08.015.14.124-.014-.01-.115-.08-.124-.09-.01-.01-.02-.02-.01-.03zm-44.53 12.093c.098.046.194.1.296.14-.04.13-.09.232-.14.36-.05-.163-.09-.334-.15-.5zm-61.016 1.985c.01-.015.02.005.01.03l-.08.11c.02-.078.04-.126.06-.14" fill="#fff"/><path d="M508.427 166.75c-6.153-1.204-11.568.347-15.685-1.743-.084-.038-.168-.072-.253-.098-12-4.08-27.01 2.18-39.21 10.25-17.35 11.46-30.41 26.75-36.41 56.33-5.04 24.82-3.28 36.18 3.1 59.35 4.71 17.11 15.51 27.49 23.19 37.16 7.07 8.91 15.14 11.78 23 12.82 7.86 1.04 15.65.38 22.6 1.74 16.14 3.15 33.87-8 48.08-10.63 9.08-1.69 16.82-12.34 22.77-24.96 5.94-12.62 10.09-27.35 11.34-38.98 2.63-24.59-.27-49.93-11.4-70.2-12.58-22.92-34.8-27.87-51.15-31.07m39.603-90.45c-48.776 1.47-97.59 3.05-146.38 4.094-23.877.777-58.81.44-79.47-1.34-15.1-2.12-10.717 22.264-10.25 36.094 1.576 19.057 2.196 38.177-.59 57.157-1.51 30.866-2.797 62.11 3.565 92.563 4.16 20.786-2.843 41.447-1.53 62.34.37 21.268-3.974 42.3-2.28 63.597.674 14.6-4.996 39.096 17.783 34.47 8.4-.62 16.73-1.98 25.063-3.25l15.215 1.73c29.886-1.3 58.63.27 89.194.892 21.564-.17 47.16 1.96 64.75-.16 14.69-3.85 31.444-.03 44.617-3.66 13.18-3.63 1.98-17.92 3.01-35.56 1.04-17.63 4.68-46.28 2.13-72.53-4.01-13.77-.22-27.5 2.16-41.56.403-22.42 3.24-55.354-.03-75.5-.677-21.04.792-27.98.994-44.874.204-16.9-.473-60.45-4.307-72.13-6.19-2.09-17.157-2.27-23.628-2.37zm-183.75 5.47c2.34-.02 1.714 1.936 1.78 2.874 1.32.84 9.853-2.16 13.97 0 5.13 2.24-2.35 2.42-4.88 1.41-5.95-1.58-7.213 3.225-11.28 3.406-.643-5.87-8.28.09-13.19-2.81-4.684 4.076-9.644-2.265-14.34-.093-3.57-3.524 7.53-3.076 9.503-.564 3.534-2.993 8.524.786 12.215-1.345 4.59.61 3.87-1.24 6.22-2.874zm140.87.218c3.51.28.834 3.22 1 4.595-3.69 2.962-1.81-3.09-6.437-1.47-7.598 1.193-15.158.46-22.844.403-4.487-3.345 7.496-2.17 10.436-1.626 5.77-.967 13.284.26 17.84-1.908zm6.47.91c4.01 1.17 9.83.524 14.593.874 7.43-1.11 14.497-.2 21.5-.25 6.022.12 2.473 4.35-1.688 1.843-6.73-.07-13.74-.15-20.88.56-4.076-.78-17.997 1.28-13.53-3.03zm-47.78.78c2.494.46 7.204-.08 8.41 1.47-2.564 2.71-10.257-.645-14.626 1.343-7.27-.56-14.245.516-21.53.44-4.706-1.6-14.055.777-16.22-2.28 6.65-2.19 15 1.1 22.373.19 7.1-1.38 14.534.544 21.593-1.156zm-67.59.313c.65-.01 1.213-.004 1.593 0 3.49-.054 6.815.83 10.34.44 3.643-1.642 11.593 2 4.562 2.098-8.166.32-16.236-.87-24.377.094-6.376-1.86 3.32-2.53 7.877-2.63zm103.78 6.38c2.23.103 1.51 1.946 1.625 2.873 1.337.83 9.86-2.18 13.97-.03 5.046 2.15-2.426 2.55-4.906 1.41-5.965-1.595-7.205 3.266-11.28 3.436-.636-5.876-8.29.06-13.19-2.845-4.7 4.07-9.644-2.23-14.345-.06-3.57-3.52 7.554-3.12 9.53-.623 3.53-2.88 8.53.87 12.22-1.28 4.697.676 3.78-1.41 6.376-2.877zm-118.844.185c1.077-.067 1.57.61 2 1.125 7.45-.84 14.43 1.93 21.846.22 5.712-1.74 8.463 3.43 1.436 1.97-7.86 1.81-15.27-.65-23.155-.062.52 5.683-7.29-2.027-2.124-3.25zm-6.435.875c6.696 3.54-6.8 2.53-9.28 2.94-6.7 1.13-13.56-1.91-19.91-.19-3.03-1.09-9.933 2.14-10.154-1.122 6-1.147 12.66-1.68 19.346-1 6.52.43 14.21.55 20-.626zm46.22.72c.577-.01 1.075-.024 1.53.06 5.485 1.22 11.074.608 16.656.567 8.266 1.705 16.636-.41 24.97-.25 6.93 1.186-2.39 3.065-5.5 2.19-7.49 1.37-15.204.596-22.69.19-6.226 1.23-12.27-1.5-18.37-.097-6.7-.39-.645-2.58 3.406-2.656zm110.84.408c.654-.015 1.216-.01 1.596 0 3.495-.065 6.82.86 10.346.47 3.634-1.64 11.59 1.93 4.56 2.03-8.167.33-16.2-.835-24.344.124-6.38-1.86 3.286-2.53 7.842-2.625zm-167.52 5.82c2.344-.02 1.717 1.934 1.78 2.872 1.32.84 9.856-2.165 13.97 0 5.133 2.235-2.346 2.42-4.876 1.406-5.95-1.58-7.213 3.193-11.28 3.374-.643-5.87-8.283.12-13.19-2.78-4.684 4.078-9.644-2.262-14.34-.09-3.57-3.525 7.52-3.097 9.51-.596 3.535-2.984 8.53.81 12.22-1.31 4.59.61 3.87-1.24 6.22-2.874zm57 .215c1.092-.07 1.57.62 2.03 1.125 7.446-.84 14.46 1.9 21.875.186 5.627-1.65 8.5 3.39 1.41 1.97-7.86 1.81-15.29-.65-23.18-.06.52 5.68-7.29-1.984-2.12-3.22zm90.343.875c4.01 1.17 9.83.555 14.593.905 7.427-1.11 14.496-.2 21.5-.25 6.02.12 2.47 4.31-1.69 1.81-6.73-.07-13.74-.15-20.88.56-4.07-.78-17.99 1.27-13.53-3.03zm-50.564.623c.57-.002 1.117.06 1.564.16 5.02.977 10.268.927 15.41.47 7.75 1.426 15.64.38 23.43-.154 5.01-1.6 7.69 3.02 1.4 2.03-8.02.18-16.125 1.893-24.094.283-7.1 1.07-14.176-1.02-21.126-.04-6.63-.37-.593-2.71 3.41-2.75zm-64.81.47c.65-.012 1.215-.005 1.595 0 3.49-.055 6.817.86 10.342.47 3.643-1.532 11.765 1.96 4.562 2.06-8.166.33-16.237-.87-24.378.097-6.377-1.85 3.32-2.52 7.876-2.62zm24.75 4.815h42.063c2.16.38 4.28.92 6.314 1.65h-54.22c1.89-.71 3.86-1.25 5.85-1.66zm-8.437 2.75h59.47c1.025.48 2.01 1.03 2.97 1.65h-65.43c.97-.61 1.96-1.17 3-1.66zm-5.093 3.12h69.56c.64.51 1.27 1.03 1.87 1.62h-73.37c.62-.584 1.26-1.11 1.93-1.63zm-3.595 3.31h76.72c.354.5.594 1.04.78 1.62h-78.81c.417-.57.85-1.1 1.314-1.624zm-2.06 2.75h79.874c.145.56.274 1.11.47 1.65h-81.34c.09-.16.178-.32.28-.47.23-.41.473-.8.72-1.19zm-1.626 3.09h82.72c.453.62.976 1.15 1.53 1.62h-84.84c.223-.51.392-1.06.595-1.62zm-3.56 3.31H487c1.29.65 2.66 1.16 4.06 1.66h-98.5c1.316-.65 2.67-1.215 4.064-1.66zm-6.124 2.78h103.56c1.112.46 2.175.99 3.155 1.66H388c.802-.59 1.642-1.147 2.5-1.657zm-4.315 3.096h54c-1.66.53-3.335.83-3.72.97-.665.24-1.387.49-2.12.686h-49.91c.56-.57 1.14-1.13 1.75-1.653zm57.875 0h54.907c.14.146.274.28.407.44.33.384.62.81.91 1.22H449.9c-.725-.2-1.466-.42-2.125-.66-.39-.14-2.05-.47-3.72-1zm-61.155 3.343h42.69c-.045.24-.063.53-.063.97 0 .215-.02.44-.04.654h-43.87c.4-.563.83-1.09 1.28-1.624zm75.78 0h42.69c.32.54.61 1.07.907 1.624h-43.44c-.02-.213-.07-.44-.07-.655 0-.44-.05-.73-.1-.97zm-24.716 1.5c2.597-.018 5.113 1.065 7.562 1.874 3.74 2.207 10.12-.8 11.9 4.53-.48 2.57 1.15 4.656 3.75 4.315 4.42-.155 10.54-1.542 12.75 3.845 1.85 2.77-.39 5.1-1.19 7.53 3.15-.39 6.57 2.71 5.4 6.25.244 2.39-3.85 2.85-3 4.844 4.764 2.96 4.045 9.35 3.844 14.37-.47 15.016-.43 30.05-.43 45.096-1.06 17.365-.33 34.9-1.88 52.22h20.092c-.08.555-.213 1.107-.345 1.655h-19.93c-.036.37-.056.73-.094 1.097h19.75c-.174.563-.364 1.113-.594 1.655h-19.34c-.05.48-.092.96-.15 1.44h18.78c-.31.57-.62 1.13-1 1.654h-17.97c-.025.2-.066.393-.09.59-1.14.5-2.34.87-3.534 1.093h20.19c-.6.604-1.26 1.18-1.97 1.653H396.8c-.51-.554-1.042-1.105-1.562-1.656h4.22c-.77-.37-1.47-.92-2.12-1.69h-3.56c-.432-.523-.826-1.083-1.19-1.657h4.5c-.033-.48-.06-.96-.093-1.44h-5.06c-.023-.55-.04-1.1-.06-1.65h4.97c-.025-.368-.01-.73-.033-1.096h-5l-.06-1.657h4.937c-.04-.55-.06-1.103-.1-1.654h-4.91c-.025-.55-.07-1.11-.097-1.66h4.94c-.03-.49-.07-.984-.1-1.47h-4.873c-.02-.553-.07-1.073-.093-1.625h4.874l-.06-1.13h-4.843c-.02-.556-.01-1.107-.03-1.66h4.81c-.03-.553-.07-1.104-.093-1.657h-4.82l-.06-1.623h4.78c-.022-.488-.04-.98-.062-1.47h-4.78c-.02-.55.02-1.105 0-1.657h4.72c-.02-.366-.05-.727-.066-1.093h-4.71l-.06-1.69h4.72c-.017-.394-.018-.76-.03-1.156h-4.72c-.02-.545-.078-1.11-.096-1.653h4.75c-.016-.49-.014-.95-.03-1.44h-4.75c-.017-.55-.014-1.103-.03-1.655h4.72c-.014-.368-.023-.76-.034-1.127h-4.72c-.016-.55-.045-1.11-.06-1.657h4.72c-.02-.554-.05-1.103-.065-1.657h-4.72c-.014-.55-.044-1.11-.06-1.66h4.75c-.012-.49-.02-.98-.03-1.47h-4.75c-.016-.55-.016-1.1-.03-1.656h4.75l-.03-1.09h-4.75c-.017-.55-.02-1.08-.03-1.626h4.75c-.015-.56-.054-1.125-.065-1.687h-4.75c-.02-.55-.02-1.08-.037-1.62h4.75l-.03-1.47h-4.75c-.014-.55-.05-1.1-.062-1.654h4.78c-.005-.36.008-.723 0-1.09h-4.78c-.013-.55-.02-1.103-.03-1.655h4.812c-.01-.55-.028-1.1-.03-1.65h-4.85l-.03-1.69h4.846c-.01-.485-.028-.95-.03-1.435h-4.848c-.01-.55-.05-1.103-.06-1.656H395c-.004-.358.005-.74 0-1.095h-4.905c-.012-.554-.02-1.105-.032-1.66h4.906c-.01-.55 0-1.1 0-1.654h-4.91l-.03-1.66h4.9c-.01-.49 0-.99 0-1.47H390c-.01-.55-.05-1.11-.062-1.66h4.97c-.003-.366.002-.73 0-1.095h-4.97l-.03-1.656h4.968c-.004-.557.004-1.107 0-1.66h-4.938c.06-.6.064-1.16-.062-1.653h4.97c-.005-.49 0-.98-.002-1.47h-5.998c-.33-.213-.713-.36-1.22-.44-1.784-.556-3.613-.92-5.437-1.186h12.65v-1.097h-38.56c-.45-.06-.88-.177-1.32-.25-.14.06-.3.18-.44.25h-25.88c-.22-.54-.4-1.096-.57-1.658 22.24-.002 44.5 0 66.75 0-.01-.564-.03-1.125-.03-1.69h-67.18c-.13-.542-.18-1.105-.28-1.654h67.47c-.01-.482 0-.95 0-1.432h-67.75c-.09-.55-.17-1.11-.25-1.66h67.97c-.01-.375 0-.75 0-1.125h-68.12c-.06-.547-.1-1.096-.13-1.656h68.25c-.01-.554-.03-1.103-.04-1.656h-68.25c.006-.55.027-1.11.063-1.66h68.186c0-.47-.03-.96-.03-1.43h-68.03c.07-.55.16-1.11.25-1.654 22.6-.003 45.19 0 67.78 0 .01-.02.01-.045.01-.064.06-.343.09-.71.13-1.06-22.56 0-45.12.03-67.685.03.127-.56.277-1.11.44-1.653 22.46 0 44.917.003 67.376 0 .007-.54 0-1.105-.03-1.657h-66.78c.216-.56.455-1.12.72-1.655h31.31c1.604.42 3.22.68 4.905.75 3.006-.11 5.9-.36 8.88.152-.457-.33-.952-.618-1.437-.906h22.25c-.05-.49-.13-.98-.19-1.47h-24.78c-1.088-.54-2.206-1.03-3.25-1.626h27.874c-.047-.377-.115-.75-.157-1.126h-29.47c-.677-.483-1.295-1.03-1.875-1.654h31.22c-.046-.56-.08-1.14-.095-1.69h-33.63c-5.042-2.31-11.2-.064-16.622-.283-1.99.05-3.925-.43-5.628-1.34 18.623-.004 37.243-.03 55.87-.034.025-.48.085-.97.155-1.44h-58.15c-.58-.496-1.12-1.02-1.595-1.623h60.096c.115-.38.25-.75.407-1.12h-61.25c-.317-.52-.613-1.083-.843-1.654 20.994-.003 42.004 0 63 0 .214-.32.423-.63.686-.94.484-.22.84-.46 1.094-.72h-65.28c-.12-.543-.225-1.083-.283-1.623h65.756c-.183-.29-.46-.6-.845-.91-.2-.19-.375-.39-.53-.596H332c-.01-.548.046-1.08.093-1.625 21.19-.004 42.37 0 63.562 0-.098-.37-.182-.75-.188-1.127h-63.28c.082-.55.182-1.08.312-1.628h63.25c.18-.597.47-1.166.84-1.688h-22.66c.01-.544.01-1.075.03-1.626h24.25c.65-.44 1.38-.764 2.15-.905-.09-.19-.18-.38-.28-.567h-26.06c.02-.546.05-1.073.09-1.624h24.9c-.25-.37-.52-.74-.72-1.126h-24.1c.05-.544.06-1.14.12-1.684h23.38c-.038-.25-.075-.51-.06-.78.05-.303.14-.6.22-.875h-23.28c.092-.55.223-1.08.343-1.624h23.626c.38-.61.85-1.097 1.38-1.5H375.3c.16-.558.336-1.084.53-1.626h29.88c.75-.022 1.5-.03 2.25 0h.623c.01.02.02.05.03.066 1.266.072 2.497.18 3.563.25 3.44.663 3.02-2.807 3.91-5.22-.83-.03-1.64-.096-2.43-.096-2.02 0-4.03-.08-5.72.038-.095.18-.19.347-.28.53h-29.5c.216-.3.418-.59.657-.875.11-.258.224-.496.343-.75h37.56c.04-.045.06-.114.096-.156 1.68-.59 3.48-.94 5.28-1.287h-42.19c.31-.567.615-1.114.97-1.657h44.433c-.1.403-.228.766-.408 1.125 2.73-.51 5.425-1.113 7.935-2.28.374-.05.75-.09 1.124-.093zM459 135.65h43.843c.29.556.61 1.106.906 1.657h-44.03c-.33-.498-.57-1.05-.72-1.656zm2.186 3.095h43.375c.33.56.69 1.09 1.07 1.624h-30.34c-.11-.2-.19-.41-.28-.6-1.34-.02-2.78.03-4.25.03-2.24 0-4.72.32-7.09-.12-.83-.16-1.684-.43-2.47-.94zm-111.155 1.41c.77-.016 1.53.053 2.28.22h-4.15c.62-.127 1.25-.206 1.88-.22zm184.03.094c.48-.01.96.04 1.44.12h-2.72c.43-.07.85-.12 1.28-.13zm-189.96 1.81h11.82c.75.49 1.422 1.02 2.092 1.62h-15.94c.61-.62 1.3-1.15 2.03-1.63zm33 0h29.85c-.06.16-.102.3-.156.47.22.34.41.68.81 1.15h-31.31c.24-.56.51-1.09.81-1.63zm99.44 0h30.15c.32.53.63 1.06.94 1.62h-30.84c.14-.22.21-.42.37-.88-.21-.296-.43-.55-.63-.75zm51.96 0h11.03c.84.49 1.63 1.03 2.4 1.62h-15.65c.69-.6 1.45-1.15 2.22-1.63zm-187.38 2.75h18.03c.52.53 1.05 1.05 1.53 1.62H340c.106-.14.18-.27.28-.41.246-.42.547-.83.846-1.22zm134.72 0h32.37c.28.54.57 1.06.818 1.62h-34.09c.21-.61.545-1.15.906-1.63zm49.25 0h18.22c.58.52 1.12 1.05 1.66 1.62h-21.31c.453-.56.91-1.09 1.435-1.63zm-50.403 3.09h34.907c.21.55.4 1.1.564 1.66h-35.06c-.25-.4-.434-.89-.434-1.44 0-.075.03-.147.03-.22zm47.814 0h23.72c.426.54.83 1.1 1.22 1.66h-26.19c.407-.56.836-1.12 1.25-1.65zm-183.594.04h23c.435.54.88 1.07 1.31 1.62h-25.47c.377-.56.77-1.09 1.157-1.63zm-2.25 3.28h27.81c.437.55.92 1.14 1.375 1.68h-30.15c.32-.558.625-1.145.97-1.688zm140.874 0c11.022-.01 22.04 0 33.06 0 .114.55.226 1.13.28 1.68h-30.03c-.05-.34-.11-.71-.187-1.03-1.35-.12-1.586-.237-2.75-.53-.13-.037-.244-.09-.374-.128zm42.47 0h28.5c.31.53.595 1.13.873 1.68H518.8c.423-.546.78-1.13 1.19-1.688zm-184.97 2.81h31.75c.51.56 1.075 1.1 1.624 1.62h-34.18c.26-.55.525-1.086.815-1.627zm145.03 0h30.873c.015.55-.005 1.07-.06 1.62h-32.5c.313-.33.65-.66 1.03-.94.254-.22.436-.45.656-.69zm37.842 0h32c.24.53.51 1.04.72 1.59-11.39 0-22.803.03-34.19.03.51-.52 1-1.05 1.47-1.62zm-40.563 3.06c11.1-.007 22.21 0 33.31 0-.128.55-.288 1.102-.5 1.65H477v-.064c-.01-.563.13-1.104.342-1.594zm37.56 0h36.22c.17.54.3 1.103.434 1.65h-39.03c.847-.475 1.637-1.036 2.376-1.66zm-181.31.03h36.5c.35.263.72.503 1.09.75.355.16.92.572 1.47.87h-39.69c.177-.55.405-1.085.624-1.626zm143.91 3.28h74.43c.106.543.185 1.11.25 1.653-24.402.004-48.81 0-73.215 0-.555-.403-1.083-.956-1.47-1.654zm2.84 2.78h71.97c.04.54.05 1.08.03 1.62-23.696.006-47.4 0-71.096 0-.002-.203 0-.414 0-.622v-.56c-.43-.114-.675-.26-.905-.436zm.934 3.09h70.907c-.086.554-.19 1.114-.343 1.654-23.496.007-46.977 0-70.47 0-.02-.543-.08-1.1-.095-1.65zm.157 3.31c23.284-.003 46.53 0 69.81 0-.24.565-.53 1.096-.84 1.624-22.98.006-45.96 0-68.94 0-.02-.54-.01-1.07-.03-1.62zm.06 2.78h68.16c-.43.58-.89 1.12-1.41 1.625-22.235 0-44.48-.004-66.72 0v-.095c0-.5-.015-1.02-.03-1.53zm.03 3.06h64.94c-1.103.747-2.35 1.316-3.685 1.66h-.318c-4.55-1.42-9.617-2.076-14.318-.627-.73.172-1.46.376-2.158.624h-44.5c.01-.546.03-1.1.03-1.66zm-147.873 3.35h11.343c1.44.48 2.87 1.057 4.28 1.655H331.8c.57-.597 1.17-1.15 1.846-1.656zm147.812 0h40.78c-.985.52-1.918 1.075-2.875 1.655h-38.03c.04-.55.1-1.1.12-1.656zm57.374 0h12.654c.76.445 1.442 1.015 2.06 1.655h-18.9c1.363-.63 2.77-1.2 4.19-1.656zm-57.596 2.75h36.31c-.897.555-1.787 1.12-2.69 1.655h-33.84c.09-.55.155-1.1.216-1.656zm51.152 0h22.094c.38.517.704 1.08 1 1.655h-26c.96-.57 1.904-1.13 2.904-1.656zm-201.563.03h21.006c1.303.57 2.59 1.11 3.906 1.625h-26.08c.35-.57.774-1.1 1.187-1.625zm150.037 3.094h31.376c-.39.207-.76.41-1.16.6 2.88-.01 5.755-.35 8.627-.594h36.41c.19.54.36 1.1.47 1.66-25.25 0-50.52-.003-75.78 0 0-.54.03-1.097.07-1.657zm.03 3.32h75.94c.21.54.425 1.07.597 1.625h-76.41c-.053-.54-.08-1.05-.123-1.627zm.25 2.75h76.596c.14.542.27 1.073.37 1.625h-76.88c-.015-.517-.04-1.05-.094-1.627zm.127 3.093h77.09c.068.543.097 1.104.126 1.653-25.74.003-51.48 0-77.22 0-.007-.543.005-1.1 0-1.656zm0 3.31h77.25c-.017.55-.07 1.11-.13 1.655-25.72 0-51.44-.006-77.155 0 .02-.54.03-1.1.03-1.66zm-.097 2.75h77.062c-.09.55-.15 1.144-.28 1.69-25.65 0-51.35-.007-77 0 .01-.1.04-.22.06-.317.07-.44.11-.91.15-1.374zm-.386 3.13h76.75c-.16.546-.36 1.11-.56 1.656-25.427.008-50.86 0-76.284 0 .014-.54.05-1.1.096-1.65zm-.093 3.344h75.6c-.26.555-.568 1.085-.876 1.623-9.49 0-18.95.03-28.44.03-3.19-.437-6.38-.325-9.6 0H480.8c-.03-.547-.08-1.09-.094-1.655zm-151.56 2.75h23.376c-.85.52-1.71 1.063-2.56 1.623h-19.81c-.36-.525-.72-1.057-1-1.625zm151.72 0h28.125c-4.728.65-9.487 1.114-14.19.404-.004.407 0 .81 0 1.22h-13.87c-.026-.543-.03-1.07-.06-1.626zm50.875 0h23.06c-.38.574-.814 1.1-1.25 1.623H534.8c-.972-.662-1.967-1.222-3.062-1.625zm-200.43 3.09h16.342c-.618.367-1.232.725-1.875 1.03-.38.228-.79.434-1.19.627h-11.31c-.69-.42-1.33-.96-1.91-1.59l-.068-.06zm149.686 0h13.78c-.007.553.003 1.104 0 1.657H481v-1.64zm55.84 0h15.34c-.67.627-1.39 1.19-2.16 1.657h-10.79c-.83-.5-1.617-1.07-2.41-1.65zm-55.85 3.313h13.75c-.01.552-.03 1.104-.03 1.656h-13.72v-1.66zm0 2.75h13.72c-.01.552-.03 1.104-.037 1.656h-13.68v-1.66zm0 3.125h13.683c-.01.55.01 1.102 0 1.654h-13.72c.013-.4.032-.8.032-1.22v-.435zm-.1 3.31h13.72c-.01.552-.02 1.103-.033 1.656H480.8c.03-.563.07-1.115.1-1.657zm-.125 2.75h13.81l-.03 1.656H480.7c0-.58.04-1.13.06-1.657zm-.13 3.093h13.84c-.014.554-.02 1.136-.03 1.69H480.4c.08-.58.164-1.163.22-1.686zm-.41 3.345h14.16c-.015.55.014 1.1 0 1.65h-14.25c0-.58.05-1.13.093-1.66zm-.095 2.75h14.22c-.02.55-.05 1.1-.067 1.65h-14.15v-1.66zm0 3.12h14.09c-.015.54-.013 1.07-.03 1.62H480.1c.005-.71.027-1.057.03-1.628zm-.03 3.31h14.03c-.02.55-.017 1.08-.03 1.62h-14c.002-.84-.01-.83 0-1.63zm-.036 2.72h14l-.06 1.66h-13.94c.006-.57-.005-1.08 0-1.66zm-.03 3.12h13.903l-.064 1.65h-13.84c.007-.517-.005-1.11 0-1.66zm-.03 3.31h13.81c-.02.46-.015.91-.03 1.37-.018.083-.05.192-.065.28H480c.01-.486-.007-1.067 0-1.658zm-.066 2.78h13.625c-.075.55-.136 1.1-.19 1.65h-13.5c.014-.223.02-.563.03-.78.01-.18.025-.57.033-.874zm-.157 3.09h13.47c-.04.55-.044 1.102-.065 1.653h-13.47c.03-.543.03-1.14.06-1.654zm-.158 2.81h13.53c-.01.55-.06 1.14-.06 1.69h-13.56l.09-1.69zm-.16 2.78h13.655c.005.55.026 1.105.03 1.66H479.4c.036-.6.03-1.068.065-1.66zm-.157 3.126h13.84c.01.55.024 1.08.03 1.626h-13.96l.094-1.624zm-.19 3.283h14.07c.006.55.036 1.1.03 1.65h-14.18c.03-.54.06-1.09.094-1.656zm-.155 2.78h14.22c-.01.55-.01 1.07-.032 1.62H478.9c.025-.484.064-1.105.093-1.625zm-.155 3.09h14.25c-.033.55-.07 1.11-.12 1.66h-14.22c.026-.48.06-1.063.094-1.656zM450.71 288c-1.547.153-3.104.328-4.656.47h11.75c-2.39-.23-4.778-.484-7.095-.47zm-52.937 3.22h86.56c-.49.203-.965.396-1.5.53.188.38.378.747.565 1.127h-84.37c-.367-.58-.81-1.127-1.25-1.655zm2 3.126h84.31c.278.546.568 1.105.846 1.654h-84.97c.04-.41.03-.867-.03-1.31-.05-.127-.1-.22-.16-.345zm-.19 3.31h86.22c.284.55.56 1.11.845 1.656h-87.97c.355-.53.68-1.08.908-1.656zm-1.685 2.75h89.345c.287.55.554 1.104.844 1.656-30.51 0-61.027.002-91.53 0 .43-.55.91-1.105 1.34-1.656zm-2.405 3.094h93.344l.872 1.657c-31.7 0-63.4.003-95.1 0 .22-.574.53-1.125.87-1.654zm-1.656 3.313h96.75c.283.55.56 1.11.84 1.66h-98.47c.285-.55.59-1.11.877-1.657zm-1.44 2.75h99.592c.28.554.59 1.136.87 1.69h-26.34c-.19-.35-.37-.71-.56-1.06-.06.353-.14.707-.19 1.06h-46.75c0-.55.01-1.133 0-1.685-.38.537-.77 1.124-1.1 1.688h-26.37c.27-.55.56-1.14.84-1.686zm-1.53 3.127h26.28c-.28.544-.548 1.1-.814 1.656h-26.28c.266-.554.543-1.105.813-1.657zm28.123 0h46.623c-.062.55-.14 1.104-.187 1.656h-46.47c.02-.553.02-1.105.033-1.657zm48.31 0h26.28c.282.553.567 1.1.844 1.656h-26.25c-.29-.552-.58-1.11-.873-1.657zm-78.063 3.343h26.312c-.26.55-.52 1.11-.78 1.656h-26.25c.25-.55.46-1.11.71-1.66zm29.656 0h46.41c-.035.55-.07 1.11-.095 1.656h-46.37c.012-.55.047-1.11.063-1.66zm50.19 0h26.156c.27.55.58 1.11.84 1.656H469.9c-.278-.55-.53-1.11-.813-1.66zm-81.094 2.75h26.22c-.14.26-.27.525-.41.78-.21.29-.46.583-.66.876h-25.9c.24-.55.5-1.11.75-1.66zm30.84 0h46.34c-.02.55-.02 1.11-.03 1.656h-46.31c-.01-.55-.01-1.11 0-1.66zm51.62 0h26.15c.26.55.49 1.11.75 1.656h-26.09c-.27-.55-.54-1.11-.82-1.66zm-83.85 3.094h25.62c-.34.546-.66 1.097-.97 1.657h-25.43c.24-.553.54-1.1.782-1.655zm32.28 0h46.25c-.01.553 0 1.105 0 1.657h-46.12c-.06-.55-.1-1.104-.13-1.655zm53.06 0H498c.247.55.477 1.103.72 1.657h-26c-.26-.553-.518-1.104-.78-1.655zm-86.78 3.313h25.184c-.27.546-.53 1.1-.78 1.656h-25.12c.23-.547.487-1.11.72-1.66zm34.06 0h45.88v1.656h-45.7c-.036-.375-.064-.76-.094-1.127-.03-.18-.04-.36-.065-.54zm54.31 0h25.9c.23.55.463 1.102.69 1.656H474.3c-.25-.556-.496-1.106-.75-1.66zm-89.57 2.75h25.13c-.23.542-.475 1.106-.69 1.656h-25.09c.22-.55.43-1.11.657-1.66zm35.53 0h45.6c-.005.547-.02 1.11-.03 1.656H419.7c-.064-.55-.13-1.117-.19-1.66zm55.285 0h25.78c.216.546.42 1.107.626 1.656h-25.65c-.24-.55-.506-1.11-.75-1.66zm-92.063 3.124h25.126c-.2.55-.38 1.104-.567 1.658H382.1c.216-.55.406-1.1.626-1.656zm37.126 0h45.22c-.02.555-.04 1.104-.068 1.658h-45c-.057-.556-.098-1.103-.16-1.656zm56.28 0h25.622c.195.55.37 1.105.56 1.658h-25.47c-.238-.553-.48-1.104-.72-1.656zm34.5.158c.292-.01.61-.004.903 0 2.194.04 4.367.566 6.345 1.5h-13.22c1.86-.904 3.9-1.42 5.97-1.5zm-137.69.094c.29-.01.58-.006.873 0 2.12.03 4.215.506 6.097 1.406h-12.93c1.86-.827 3.916-1.327 5.97-1.41zm-8.78 3.062h42.59c-.17.55-.34 1.074-.5 1.625h-43.9c.55-.604 1.16-1.13 1.814-1.624zm55.966 0h44.91c.003.564-.08 1.084-.187 1.625h-44.59c-.026-.545-.085-1.08-.126-1.624zm57.41 0h43.16c.616.494 1.16 1.017 1.656 1.625h-44.12c-.23-.553-.46-1.072-.69-1.624zm-116.094 2.75h44.53c-.008.027-.024.035-.03.062-.15.516-.31 1.07-.47 1.593h-45c.28-.577.604-1.14.97-1.656zm58.842 0h44.28c-.158.554-.31 1.105-.47 1.656h-43.8c.015-.55.01-1.1 0-1.653zm58.4 0h44.47c.338.524.627 1.087.877 1.656h-44.68c-.22-.55-.43-1.103-.654-1.653zm-118.8 3.095H405c-.178.553-.37 1.133-.56 1.688h-44.93c.042-.33.08-.7.16-1.03.053-.22.15-.44.22-.65zm60.31 0h43.53c-.11.54-.192 1.128-.19 1.688H420c.087-.54.14-1.13.19-1.68zm59.718 0h44.66c.16.543.3 1.13.373 1.688-14.785.01-29.556 0-44.34 0-.22-.55-.47-1.13-.69-1.68zm-120.5 3.344h44.44c-.204.554-.4 1.11-.624 1.658h-43.56c-.108-.54-.23-1.1-.25-1.653zm60.25 0h44.22c.2.598.455 1.144.78 1.658h-45.5c.2-.534.36-1.1.5-1.653zm61.53 0h43.847c-.005.555-.03 1.108-.124 1.658h-43.09l-.63-1.653zm-121.28 2.75h42.815c-.246.558-.48 1.116-.75 1.658h-41.43c-.26-.53-.454-1.09-.627-1.653zm58.815 0h46.78c.505.588 1.08 1.14 1.69 1.658h-49.37c.34-.53.654-1.093.91-1.653zm63.53 0h42.375c-.13.445-.25.883-.44 1.314l-.28.35h-41.06c-.2-.55-.39-1.1-.6-1.65zm-120.84 3.13h39.78c-.317.563-.65 1.12-1 1.656h-37.4c-.525-.504-.963-1.06-1.376-1.658zm55.34 0h52.28c.726.546 1.43 1.09 2.126 1.656h-56.09c.64-.466 1.21-.994 1.69-1.658zm66.625 0h39.13c-.594.58-1.2 1.132-1.847 1.656h-36.68c-.197-.554-.398-1.105-.596-1.658zm-10.37 3.28c.215.23.396.474.59.72.29.3.57.61.81.937h-64.3c.648-.648 1.437-1.145 2.25-1.625 20.217 0 40.44-.03 60.657-.03zm11.53 0h33.85c-.88.587-1.755 1.148-2.69 1.657h-29.65c-.523-.5-1.034-1.038-1.5-1.625-.002-.01.006-.03 0-.03zm-119.41.03H399c-.45.578-.902 1.1-1.406 1.627h-29.25c-.83-.408-1.67-.795-2.47-1.25-.26-.11-.5-.245-.75-.375zm5.66 2.75h25.653c-.68.6-1.41 1.13-2.19 1.627h-18.84c-1.574-.463-3.11-.99-4.623-1.625zm38.435 0h65.88c.286.534.544 1.053.72 1.627h-67.34c.104-.273.246-.544.377-.813.112-.3.22-.55.373-.81zm78.128 0H513.5c-1.296.613-2.612 1.133-3.94 1.627h-19.55c-.937-.464-1.816-.984-2.656-1.625zm-104.56 3.1h7.815c-2.596.278-5.22.27-7.813 0zm25.25 0h68.096c.09.545.13 1.1.13 1.656h-32.35c-.44-.645-.918-1.244-1.56-1.438-.778.418-1.52.913-2.22 1.438H407.9c.007-.554.045-1.1.156-1.656zm86.065 0h10.6c-3.48.72-7.164.795-10.595 0zm-86.063 3.31h30.092c-.6.538-1.13 1.098-1.72 1.658h-28c-.18-.54-.28-1.098-.37-1.656zm37.22 0h30.872c-.07.56-.16 1.113-.31 1.658h-28.68c-.58-.505-1.14-1.01-1.688-1.53-.06-.037-.14-.085-.19-.126zm-36.4 2.783h26.374c-.59.56-1.18 1.125-1.78 1.657h-23.69c-.348-.53-.65-1.09-.91-1.66zm39.593 0h27c-.215.57-.46 1.127-.75 1.657h-24.06c-.75-.53-1.478-1.086-2.188-1.66zm-37.595 3.094h20.81c-.86.633-1.81 1.194-2.78 1.656h-16.34c-.61-.502-1.17-1.06-1.685-1.656zm41.937 0h20.97c-.463.61-.99 1.163-1.563 1.656h-16.28c-1.06-.493-2.12-1.045-3.127-1.656zm-37.72 3.313h10.47c-2.165 1.075-4.596 1.706-7.03 1.123-1.178-.192-2.35-.578-3.438-1.125zm45.44 0h8.968c-.71.275-1.455.473-2.25.56-2.294.21-4.542-.015-6.72-.56zm-109.126.25c1.52-.026.7 1.615.91 3.06h9.63c-.17-2.745 2.75-4.43 2.096 0h10.09c-1.173-3.81 2.77-3.706 1.688 0h10.064c-1.177-3.81 2.77-3.706 1.684 0h107.72c-1.175-3.81 2.77-3.706 1.69 0h10.092c-1.174-3.81 2.77-3.706 1.688 0h10.066c-1.173-3.81 2.77-3.706 1.688 0h10.06c-1.173-3.81 2.77-3.706 1.688 0h9.347c2.12.45 6.58-1.445 5.47 2.25H342.13c-2.12-.45-6.61 1.445-5.5-2.25h8.936c2.61-.054 6.277.953 5.065-2.937.33-.077.57-.122.78-.125zm118.47 11.81c3.53-.07 13.68 1.9 4.56 2.625-6.95-.972-13.99 1.083-21.09 0-7.94 1.616-16.03-.045-24.03-.22-6.23 1.3-13.2-.66-19.78.5-2.77-.35-15.15 1.443-11.12-1.967 8.6.07 17.14-1.07 25.72-.033 7.39-1.687 15.677.96 23.53.313 7.1-1.39 14.54.545 21.597-1.156.17-.03.39-.06.63-.07zm22.63.313c6.17 3.136-9.37 2.116-11.69 2.312-3.75-3.457 8.69-1.63 11.69-2.312zm-128.06 4.66c2.23.1 1.51 1.98 1.63 2.9 1.336.83 9.854-2.15 13.97 0 5.06 2.15-2.395 2.55-4.88 1.404-5.95-1.588-7.21 3.233-11.28 3.407-.65-5.87-8.313.1-13.22-2.81-4.69 4.07-9.62-2.26-14.31-.09-3.564-3.52 7.52-3.12 9.506-.62 3.5-2.83 8.562.77 12.22-1.28 4.7.68 3.78-1.44 6.374-2.9zm140.94.22c3.164.53.61 3.21.78 4.59-3.28 3.03-2.05-2.44-5.153-1.41-7.84.56-15.4 1.024-23.31.25-6.66-1.838 5.68-3.036 8.5-1.627 6.237-.696 14.136.284 19.19-1.81zm6.25.9c4.01 1.17 9.83.56 14.596.903 7.43-1.117 14.497-.165 21.5-.22 6.026.12 2.466 4.303-1.69 1.783-6.73-.07-13.735-.14-20.876.562-4.07-.785-18.01 1.267-13.53-3.03zm-47.81.75c2.66.2 5.734.33 8.156.97-.056 3.8-9.665-.408-13.406 1.84-7.16-.28-14.036.23-21.187.5-5.158-1.387-14.91.7-17.5-2.28 6.65-2.196 15 1.07 22.375.154 7.09-1.388 14.502.514 21.56-1.187zm-67.56.34c.65-.014 1.213-.01 1.59 0 3.49-.063 6.82.858 10.34.468 3.65-1.646 11.61 1.972 4.566 2.063-8.162.33-16.233-.86-24.374.1-6.36-1.86 3.323-2.53 7.874-2.62zm103.59 6.375c2.37-.027 1.726 1.935 1.81 2.875 1.34.83 9.86-2.16 13.97 0 5.197 2.226-2.353 2.4-4.905 1.375-5.968-1.584-7.2 3.236-11.28 3.406-.65-5.86-8.29.08-13.19-2.81-4.698 4.06-9.648-2.2-14.34-.03-3.58-3.52 7.56-3.13 9.53-.62 3.5-2.83 8.56.73 12.22-1.31 4.58.6 3.84-1.23 6.19-2.87zm-118.66.187c.8-.054 1.436.406 1.72.844 6.97-.078 14.75 1.9 22.127.5 5.62-1.65 8.53 3.386 1.44 1.97-7.86 1.804-15.27-.673-23.16-.095.527 5.68-7.29-1.98-2.124-3.22zm-6.28.906c2.33.127 1.85 2.373-.03 2.657-7.313-.16-14.86 1.1-22.124-.25-5.894-1.152-13.237 2.218-17.53-.25 4.903-2.282 13.013-1.866 19.53-1.56 6.59.433 14.29.565 20.157-.594zm46.06.625c.57-.006 1.09.056 1.53.156 2.18.31 4.39.7 6.66.75 7.537-.67 14.79.72 22.347.37 3.76-.13 16.44-2.81 14.53 1.19-9.13-.22-18.28 2.12-27.34.31-7.1 1.08-14.174-1.01-21.125-.03-6.633-.37-.596-2.71 3.407-2.75zm110.847.5c.65-.014 1.218-.01 1.598 0 3.493-.064 6.82.83 10.344.44 3.637-1.64 11.59 1.99 4.56 2.09-8.164.32-16.196-.9-24.34.063-6.38-1.86 3.286-2.5 7.84-2.595zm-167.37 5.78c2.21.11 1.535 1.95 1.627 2.876 1.304.85 9.85-2.17 13.97 0 5.044 2.14-2.4 2.55-4.876 1.4-5.954-1.59-7.21 3.26-11.28 3.43-.64-5.87-8.28.05-13.19-2.85-4.69 4.06-9.65-2.23-14.34-.068-3.57-3.523 7.523-3.12 9.5-.626 3.497-2.83 8.56.76 12.22-1.28 4.694.676 3.78-1.44 6.375-2.907zm56.846.22c.79-.053 1.448.367 1.718.813 6.97-.07 14.81 1.916 22.19.53 5.627-1.655 8.5 3.384 1.41 1.97-7.86 1.81-15.3-.647-23.186-.064.52 5.686-7.29-2.024-2.124-3.25zm90.343.875c4.01 1.17 9.822.556 14.59.91 7.425-1.113 14.5-.165 21.5-.22 6.02.122 2.47 4.3-1.69 1.78-6.725-.07-13.735-.136-20.875.564-4.07-.79-17.99 1.274-13.53-3.033zm-50.568.72c.58-.01 1.106-.025 1.56.064 5.45 1.21 11.07.615 16.624.56 8.26 1.714 16.665-.41 25-.25 6.93 1.186-2.423 3.07-5.53 2.19-7.49 1.36-15.175.6-22.66.186-6.23 1.23-12.3-1.5-18.406-.094-6.7-.39-.644-2.58 3.407-2.657zm-64.814.407c.65-.01 1.21-.006 1.59 0 3.49-.06 6.82.86 10.344.47 3.643-1.645 11.593 1.937 4.562 2.03-8.165.33-16.236-.833-24.377.127-6.376-1.858 3.32-2.532 7.877-2.625zm47.28 7.19c2.21.11 1.512 1.95 1.622 2.875 1.336.83 9.86-2.16 13.97 0 5.133 2.236-2.375 2.42-4.907 1.407-5.96-1.58-7.21 3.2-11.28 3.375-.65-5.86-8.28.078-13.19-2.812-4.7 4.06-9.65-2.198-14.35-.032-3.57-3.52 7.556-3.12 9.53-.624 3.5-2.83 8.565.726 12.22-1.313 4.697.68 3.78-1.4 6.378-2.87zm-62.347.22c.796-.055 1.43.374 1.72.81 6.97-.073 14.745 1.89 22.125.5 5.62-1.654 8.53 3.385 1.435 1.97-7.86 1.805-15.27-.64-23.156-.063.06.648-.03 1.08-.16 1.407l-2.404-.22c-1.38-1.32-2.3-3.75.44-4.41zm-6.28.874c2.328.12 1.846 2.37-.03 2.65-7.314-.16-14.863 1.1-22.125-.25-5.896-1.16-13.24 2.21-17.53-.25 4.9-2.29 13.01-1.87 19.53-1.57 6.59.43 14.29.56 20.155-.6zm168 .78c1.19-.01 2.36.14 3.53.28 4.95-.93 6.65 3.56.595 2.19-6.59-.7-13.307 1.2-20.034.15-8.365 1.73-16.847-.29-25.28-.22-6.227 1.41-13.597-.92-20.22.56-3.02.51-15.77-.16-7.875-2.22 8.475.23 16.83-.91 25.28.15 6.962-1.87 14.99 1.07 22.44.25 7.094-1.4 14.506.55 21.562-1.16" opacity=".5" fill="#6adf5f"/><path d="M481.256 163.79c-3.123.3-6.313 1.054-9.506 2.11-.537.485-.895 1-.59 1.715 4.764 2.96 4.026 9.35 3.825 14.372-.474 15.014-.42 30.038-.422 45.084-1.057 17.37-.338 34.91-1.884 52.23h20.1c-.08.56-.21 1.11-.34 1.66H472.5l-.112 1.1h19.77c-.173.57-.388 1.12-.618 1.66h-19.32l-.17 1.44h18.787c-.31.57-.637 1.14-1.013 1.66h-17.97c-.03.2-.06.4-.086.59-1.14.5-2.324.85-3.516 1.07h20.167c-.6.61-1.26 1.18-1.97 1.66-22.23.01-44.46.01-66.69 0 .06.25.13.46.19.71.03.14.07.26.11.4h64.26c-.498.2-.99.4-1.52.54.182.38.372.747.56 1.126h-62.8c.152.49.314.986.48 1.463h63.026c.273.55.56 1.11.84 1.66h-63.28c.21.56.423 1.114.644 1.66h63.51c.28.55.56 1.11.845 1.66H423c.164.37.336.73.506 1.095h63.733c.29.555.55 1.11.84 1.66H424.3c.244.49.506.96.76 1.436h63.786l.875 1.66h-63.76c.32.565.66 1.11.99 1.66h63.65c.29.546.56 1.11.84 1.66h-63.48c.24.364.47.737.71 1.096H492c.286.55.59 1.11.873 1.66H466.52c-.192-.35-.37-.69-.564-1.04-.057.357-.118.688-.168 1.04h-36c.345.498.69.98 1.04 1.46h34.79c-.062.55-.12 1.11-.168 1.66h-33.412c.426.57.863 1.11 1.293 1.66h31.98c-.03.55-.06 1.11-.08 1.66h-30.57c.3.37.6.73.9 1.1h29.64l-.03 1.66h-28.26c.41.49.81.953 1.21 1.434h27.03c0 .552.01 1.11 0 1.66H439.5c.467.555.924 1.11 1.38 1.66h24.242v1.66h-22.87c.29.355.59.74.87 1.094h21.996c-.004.546-.02 1.11-.028 1.66H444.5c.448.51.92.993 1.377 1.46h19.21c-.015.554-.032 1.106-.056 1.66h-17.38c.67.594 1.35 1.144 2.03 1.66h15.39c.01.562-.08 1.09-.19 1.63h-12.86c.65.397 1.29.78 1.94 1.124h10.66c-.15.555-.31 1.08-.48 1.63h-6.5c1.73.64 3.48 1.105 5.21 1.466h.9l-.03.17c.83.158 1.66.318 2.48.426 4.88.645 9.71.618 14.35.844-.19-.478-.4-.956-.59-1.43H511c1.5-.46 2.988-.95 4.47-1.465h-36.09c-.22-.55-.424-1.086-.648-1.63 13.77 0 27.542-.006 41.314 0 5.908-2.137 11.61-4.24 16.82-5.208 9.078-1.68 16.807-12.36 22.753-24.977 5.94-12.62 10.11-27.327 11.36-38.956 2.63-24.59-.27-49.936-11.39-70.2-.44-.798-.89-1.58-1.35-2.336-25.66.004-51.3 0-76.95 0-.01-.54 0-1.1 0-1.66h75.91c-.34-.504-.7-.975-1.04-1.46h-74.9c-.02-.515-.06-1.06-.12-1.63 24.61-.004 49.22 0 73.83 0-.29-.38-.58-.76-.88-1.127-24.35 0-48.72-.005-73.07 0-.06-.54-.1-1.06-.14-1.635h71.83c-.5-.57-1.01-1.12-1.52-1.66-23.46 0-46.94-.002-70.4 0-.01-.54.01-1.1.05-1.66h31.39c-.39.2-.76.406-1.15.59 2.87-.01 5.73-.35 8.6-.59h29.84c-.52-.5-1.07-.99-1.6-1.462h-18.45c.96-.57 1.92-1.13 2.92-1.66h13.553c-.47-.374-.95-.734-1.43-1.093h-9.87c1.36-.63 2.77-1.204 4.19-1.66h3.343c-1.545-1.03-3.13-1.953-4.724-2.81-3.104-.47-6.3-.43-9.335.506-.73.174-1.44.4-2.14.647H481.5c.01-.54.026-1.1.03-1.66h54.956c-1-.51-2-1-3.01-1.46h-51.94v-.085c0-.5-.017-1.01-.03-1.52h48.177c-1.094-.42-2.196-.78-3.29-1.15H481.48c-.02-.54-.032-1.08-.056-1.63h39.657c-2.32-.63-4.58-1.173-6.8-1.66h-32.91c-.02-.544-.07-1.1-.08-1.656h23.12c-4.49-.228-8.48.323-11.67-1.297-.08-.04-.17-.06-.25-.087l-.26-.085h-10.97c-.01-.202 0-.41 0-.615v-.42zm.198 14.99h40.81c-.986.52-1.94 1.08-2.898 1.66H481.34c.046-.548.09-1.103.115-1.66zm-.198 2.757h36.31c-.895.557-1.798 1.123-2.7 1.66H481.03c.093-.552.165-1.105.226-1.66zm.03 15.61h77.23c-.013.547-.056 1.114-.112 1.66-25.718 0-51.43-.003-77.147 0 .025-.538.025-1.1.028-1.66zm-.113 2.757c25.692-.003 51.397 0 77.09 0-.09.548-.174 1.116-.31 1.658-25.653.003-51.324-.002-76.978 0 .015-.096.04-.214.056-.31.08-.44.1-.885.15-1.35zm-.367 3.12h76.754c-.156.547-.36 1.085-.562 1.632-25.425.003-50.85 0-76.275 0 .01-.54.037-1.075.084-1.63zm-.083 3.32h75.6c-.26.557-.565 1.093-.873 1.63-9.485 0-18.977.028-28.462.028-3.183-.436-6.37-.325-9.59 0h-36.592c-.03-.547-.068-1.095-.083-1.66zm.14 2.756h28.125c-4.725.652-9.472 1.13-14.175.42-.003.408.002.803 0 1.21h-13.865c-.025-.54-.052-1.073-.085-1.63zm50.878 0h23.07c-.38.576-.8 1.106-1.24 1.63h-18.76c-.97-.66-1.97-1.226-3.06-1.63zm-50.73 3.094h13.78c0 .552.01 1.107 0 1.658h-13.78v-1.658zm55.83 0h15.36c-.67.626-1.39 1.193-2.16 1.658h-10.78c-.82-.5-1.62-1.072-2.41-1.66zm-55.82 3.318h13.75c0 .553-.02 1.108-.02 1.66h-13.73v-1.66zm0 2.756h13.73c0 .553-.02 1.108-.03 1.66h-13.7v-1.66zm0 3.122h13.69l-.02 1.66h-13.7c.02-.4.03-.82.03-1.238v-.422zm-.11 3.32c4.58-.002 9.15-.002 13.73-.002-.01.553-.01 1.108-.03 1.66h-13.78l.09-1.66zm-.11 2.727h13.8c-.01.553-.01 1.108-.02 1.66h-13.84c0-.577.04-1.134.06-1.66zm-.11 3.123h13.84c-.01.55-.01 1.106-.03 1.658h-14.03c.08-.583.17-1.136.23-1.658zm-.42 3.317h14.18c-.01.553-.01 1.108-.03 1.66h-14.23c0-.58.04-1.13.09-1.66zm-.08 2.756h14.2c-.01.553-.04 1.108-.05 1.66h-14.15c.004-.413 0-1.475 0-1.66zm0 3.123h14.09c-.01.547-.01 1.084-.03 1.63h-14.1c.01-.71.03-1.06.03-1.63zm-.03 3.32h14.04c-.02.546-.04 1.082-.054 1.63h-13.98c.01-.84-.004-.835 0-1.63zm-.02 2.726h13.97c-.018.553-.036 1.108-.056 1.66h-13.92c0-.57-.01-1.084 0-1.66zm-.03 3.123H494l-.058 1.658h-13.87c.006-.513.02-1.11.027-1.658zm-.057 3.318h13.81c-.02.463-.01.915-.03 1.38-.015.084-.04.193-.056.28h-13.73c.01-.485-.01-1.067 0-1.66zm-.06 2.757h13.64c-.075.552-.145 1.105-.197 1.658-4.5.002-9.005 0-13.5 0 .01-.225.014-.542.026-.758.01-.182.02-.594.027-.9zm-.14 3.122h13.47c-.036.55-.064 1.08-.084 1.63h-13.48c.03-.545.054-1.116.083-1.63zm-.17 2.813h13.53c-.014.55-.056 1.106-.06 1.658h-13.56c.033-.585.054-1.092.085-1.658zm-.14 2.755h13.64c.003.552.02 1.107.03 1.66h-13.76c.033-.597.05-1.068.084-1.66zm-.17 3.122h13.84c.01.548.02 1.084.026 1.63h-13.95c.03-.574.05-1.046.08-1.63zm-.196 3.29h14.064c0 .555.03 1.105.027 1.66h-14.18c.03-.54.05-1.094.084-1.66zm-.14 2.785h14.204c-.01.55-.01 1.08-.03 1.63-4.756.002-9.535.002-14.29.002.026-.49.084-1.12.11-1.64zm-.17 3.094h14.26c-.034.55-.086 1.12-.14 1.66h-14.21c.027-.48.05-1.06.086-1.66zm-28.123 12.04c-1.55.15-3.09.31-4.64.45h11.72c-2.39-.23-4.77-.46-7.09-.45zm16.59 24.7h26.296c.28.56.56 1.11.84 1.66H468.2c-.29-.55-.577-1.11-.87-1.66zm1.77 3.32h26.184c.27.55.55 1.11.815 1.66h-26.2c-.28-.55-.535-1.11-.816-1.66zm1.378 2.76h26.16c.26.55.508 1.11.76 1.66h-26.1c-.27-.55-.542-1.11-.815-1.66zm1.52 3.1h26.048c.245.55.49 1.11.73 1.66h-25.99c-.26-.55-.525-1.11-.79-1.66zm1.58 3.32h25.93c.24.55.457 1.11.68 1.66h-25.86c-.25-.55-.504-1.11-.76-1.66zm1.27 2.76h25.79c.216.55.413 1.11.62 1.66h-25.69c-.243-.55-.486-1.11-.73-1.66zm1.35 3.12h25.62c.2.55.374 1.11.56 1.66H476.9c-.234-.55-.463-1.11-.7-1.66zm34.48.17c.296-.01.605 0 .9 0 2.19.04 4.38.56 6.357 1.49H504.7c1.86-.9 3.894-1.41 5.963-1.49zm-33.074 3.15h43.146c.616.49 1.16 1.03 1.66 1.63h-44.13l-.677-1.63zm6.13 7.51c1.73.15 3.42.35 5.066.68 5.233 1.024 10.636.533 16.03-.675h-21.1" fill="#6adf5f"/><path d="M286.52.02c-1.877-.004-3.73.452-5.372 1.405-3.843 1.655-6.794 4.795-9.704 7.594-4.05-3.01-8.94-6.14-14.315-5.18-6.64 1.02-10.21 8.16-9.48 14.37.18 1.47.7 3.88-1.58 3.48-6.17.74-9.16 7.22-10.13 12.63-1.39 6.66.33 14.57 6.02 18.78.36 2.06-2.51 2.12-3.58 3.48-4.41 4.3-6.5 10.48-7.74 16.37-2.31 12.28 1.87 25.46 10.74 34.222 2.43 3.07 3.63 6.863 4.61 10.602-1.11 2.02-3.08-.666-4.78-.45-5.87-.406-9.93 5.594-10.04 10.992-.26 4.21 1.25 8.78 4.862 11.223.51 1.922-1.926 2.877-2.475 4.612-5 8.67-1.514 21.65 8.017 25.704.81 1.936-1.51 3.445-2.06 5.26-2.45 5.383-5.106 11.01-5.342 16.986-.06 6.432 4.704 13.83 11.813 13.22 1.355-.338 3.75-.856 3.065 1.49-1.522 29.672 2.567 59.194 5.797 88.62-1.04 1.55-2.816-.285-4.386.28-7.54.57-11.77 9.31-10.263 16.116 1.176 5.97 3.506 11.81 6.78 17.015-.21 2.082-2.85 1.105-4.22 1.97-11.51 3.74-15.168 20.285-7.17 28.97.91.94 2.973 2.435 1.15 3.57-6.035 5.905-4.683 18.383 3.85 21.12 1.475.783 3.29.07 4.557.9-.365 3.546-2.37 7.096-4.81 9.79-12.35 12.69-13.86 34.46-3.01 48.46 1.184 1.564 3.35 2.18 4.53 3.46.313 1.75-2.31 2.39-2.924 3.99-5.11 7.17-4.29 17.59.7 24.63 1.854 2.67 5.12 3.657 8.07 4.166-.037 3.944-.568 8.24 1.602 11.784 2.69 5.47 9.75 7.195 15.047 4.75 2.74-.83 4.74-2.99 7.2-4.22 3.78 4.06 8.505 8.25 14.232 8.97 5.665.71 10.585-3.8 11.95-9.06.27-1.923 2.194-1.084 3.095-.113 13.08 8.75 31.9 6.88 43.114-4.08 2.25-2.49 5.13-4.51 8.35-5.623 2.13.822-.28 3.035-.11 4.64-1.02 4.8 3.023 8.56 6.944 10.46 4.582 2.41 10.544 2.75 14.79-.533 2.13-1.11 3.715-2.81 5.46-4.332 3.803 2.602 8.35 4.316 13.05 3.6 7.3-.706 13.97-6.418 15.02-13.865 1.72-1.368 3.213 1.28 4.5 2.25 4.81 5.41 12.78 9.34 19.964 6.805 4.55-1.487 7.04-6.77 6.247-11.28.605-2.4 4.084-.746 5.96-1.238 1.414.17 4.747-.78 4.304 1.52-.72 3.744.924 8.183 4.103 10.32 5.993 3.043 13.163 1.08 18.22-2.81 2.7-1.75 4.695-4.25 7.14-6.277 2.12.02 1.326 2.79 2.28 4.108 3.708 9.99 17.71 13.92 26.156 7.314 1.67.003 2.01 2.334 3.77 2.42 2.237 1.446 4.43 3.39 7.283 3.655 5.3.74 10.96-1.32 14.79-5.01 2.447-2.945 2.8-7.384.93-10.716.628-2.32 3.24-.045 4.61.48 4.29 2.516 7.13 6.86 11.7 9.03 11.61 6.82 27.19 6.18 38-1.97 2.095.1 1.674 2.86 2.787 4.22 2.53 5.54 9.73 7.735 14.963 4.865 3.89-1.676 7.07-4.678 9.87-7.68 2.25.63 4.062 3.04 6.5 3.796 5.192 2.67 12.44 1.58 15.49-3.8 2.447-3.585 2.155-8.076 1.94-12.204 1.42-1.01 3.8-.605 5.346-1.884 5.22-3.47 6.72-10.305 6.89-16.17-.04-5.29-2.05-10.754-6.41-13.95-.37-2.06 2.49-2.113 3.54-3.49 4.243-4.09 6.27-10.015 7.563-15.58 2.62-12.504-1.49-26.1-10.603-35.07-1.892-2.42-3.085-5.315-3.935-8.24.815-1.8 3.363-.884 4.78-2.165 5.77-3.032 8.84-11.46 4.36-16.792-.573-1.54-2.66-2.93-2.054-4.55 8.737-6.02 9.09-19.855 1.886-27.28-2.81-2.997-6.91-4.83-11.05-4.867-1.55-1.555.91-3.464 1.15-5.23 1.18-3.533 2.96-6.854 4.274-10.295 1.45-6.155.32-14.194-5.71-17.55-2.28-1.386-5.026-.65-7.426-1.32.01-6.564 1.103-13.25 1.52-19.86 2.072-23.355 3.6-46.83 2.39-70.28 1.27-1.33 3.275.47 5.005-.11 7.542-.636 11.92-9.348 10.32-16.23-.98-6.375-4.14-12.116-7.318-17.69.41-1.975 3.01-1.73 4.275-3.066 9.065-6.1 10.37-20.93 2.193-28.21-.5-1.646 1.874-2.548 2.39-4.107 1.886-3.23 3.52-7.78 1.04-11.08-1.13-4.017-4.36-7.88-8.8-7.905-1.237-.268-3.65 1.19-3.46-.98 1.12-4.81 3.77-9.048 7.253-12.46 10.475-12.87 11.18-32.91.96-46.128-1.19-1.58-3.365-2.176-4.53-3.485-.24-1.745 2.36-2.377 2.98-3.993 5.106-7.17 4.23-17.53-.7-24.61-1.886-2.645-5.12-3.65-8.1-4.133.01-3.835.606-8.014-1.41-11.5-2.52-5.493-9.485-7.544-14.85-5.23-2.883.836-5.075 3.04-7.59 4.386-3.73-3.99-8.21-8.11-13.803-8.91-.625-.07-1.26-.096-1.887-.056-5.36.02-9.39 4.51-10.6 9.45-1.2 2.02-3.08-.79-4.58-1.267-13.03-7.66-30.78-5.43-41.57 5.065-2.11 2.328-4.69 4.21-7.62 5.348-2.09-.69-.16-3.15-.84-4.75-.44-4.48-4.224-7.49-8.27-8.69-3.414-1.314-7.493-2.626-10.77-.34-2.66 1.06-5.1 2.71-7.37 4.36-4.373-3.604-10.363-5.277-15.92-3.686-7.64 1.683-13.486 9.16-12.91 16.986-1.575 1.75-3.13-1.334-4.67-1.91-5.172-3.95-12.06-6.15-18.42-4.414-4.804 1.71-8.112 7.092-7.06 12.12-1.442 2.07-4.69.482-6.89.984-1.51-.12-5.15.75-4.414-1.773 1.1-5.98-4.38-12.12-10.46-11.78-6.806-.76-13.008 3.013-18.03 7.144-2.275-.12-.91-3.064-1.66-4.553-1.77-9.94-13.48-15.89-22.727-12.43-2.333.66-4.165 2.358-6.16 3.54-1.567-1.42-3.07-3.4-5.37-3.71-2.685-1.83-6-2.936-9.145-1.68-5.21 1.21-11.57 4.26-11.95 10.295-.438 1.45 1.34 3.67-.62 4.246-5.41-1.887-8.436-7.22-13.39-9.815-11.692-7.25-27.78-6.77-38.76 1.572-2.1-.095-1.64-2.84-2.752-4.19-1.75-3.9-5.91-6.095-10.04-6.1zm.028 4.3c4.362-.236 7.004 3.967 7.734 7.764.942 1.972-.044 5.463 2.53 6.243 2.732.483 2.808-3.216 4.698-4.33 11.12-8.702 28.24-7.837 38.67 1.603 4.095 4.706 9.81 7.6 15.808 8.944 6.662 1.4 13.218 4.188 20.08 3.908 2.43-.945.938-3.922 1.35-5.82.262-6.538 5.19-13.263 12.123-13.445 6.83-.528 13.76 4.85 13.93 11.897.21 2.96-.93 5.906-3.01 7.96-1.22 1.153-1.55 3.55.31 4.246 9.5.546 19.1.104 28.63.254 18.86-.06 37.75.123 56.59-.085 2.15-.65 1.72-3.53.03-4.5-5.14-5.62-2.49-15.59 4.45-18.4 5.69-3.05 13.48-1.04 16.6 4.72 2.2 3.47 2.56 7.69 2.25 11.67.81 2.63 4.24 1.28 6.16 1.24 6.69-1.27 13.39-3.06 19.83-5.01 4.72-1.46 8.51-4.73 11.95-8.19 10.64-9.04 27.74-9.59 38.51-.57 1.46 1.302 1.9 4.75 4.5 3.82 2.248-1.125 1.29-4.246 2.25-6.186.75-3.65 3.15-7.837 7.43-7.765 4.35.17 8.043 3.255 10.883 6.33 1.314 1.555 2.854 5.532 5.483 3.43 3.63-3.5 8.797-7.53 14.12-5.596 4.735 2.347 5.115 8.415 4.16 12.995-.53 1.67-1.235 4.63 1.21 5.07 1.85-.12 3.806-1.2 5.68-.2 4.047 2.04 4.94 7.15 5.49 11.22.686 6.16-2.85 12.536-8.72 14.74-2.17.816-1.36 4.21.9 4.25 3.718 1.184 7.56 3.104 9.11 6.944 7.22 12.876 4.75 30.36-5.905 40.613-6.03 7.456-6.5 17.47-9.03 26.38-.31 2.64-1.19 5.48-.56 8.1 1.36 2.247 4.33.346 6.36 1.097 6.59.583 12.27 6.472 12.09 13.19.236 6.53-4.43 13.673-11.42 13.95-4.355.312-8.17-2.62-10.26-6.218-1.556-1.65-4.36.335-3.488 2.363 7.13 34.09 6.567 69.23 3.49 103.756-2.103 25.61-5.15 51.266-5.175 76.95.43 2.206 3.9 2.02 4.19-.11 1.25-6.12 7.95-10.964 14.09-8.66 9.578 3.2 11.668 18.1 3.378 23.85-3.344 2.65-7.77 3.166-11.87 2.813-2.7.843-1.213 4.29-1.264 6.27.326 3.915 2.1 7.64 1.91 11.588.355 1.79 1.755 3.18 1.8 5.144 1.276 5.7 3.876 11.095 8.1 15.132 9.61 11.39 10.468 29.635 1.21 41.453-2.28 2.44-5.97 2.604-8.49 4.5-1.23 1.57.3 3.52 1.995 3.794 6.43 2.9 8.87 10.79 7.09 17.27-.78 3.78-2.864 8.79-7.48 8.57-1.497-.234-3.53-1.45-4.615.31-.95 2.06.69 4.35.504 6.528.61 4.305-1.018 9.93-5.768 10.997-5.354.806-9.7-3.23-13.44-6.41-2.568-1.01-3.423 2.526-4.868 3.826-2.797 3.02-6.44 6.07-10.714 6.3-3.903.158-6.56-3.29-7.34-6.776-1.006-2.104-.4-4.83-1.827-6.695-1.513-1.38-3.57.034-3.97 1.74-2.58 4.01-7.55 5.66-11.87 7.11-11.14 3.14-23.67-.736-31.33-9.336-7.052-6.215-16.914-6.83-25.592-9.45-2.59-.356-5.745-1.346-8.154.084-1.573 1.63-.032 4.153-.754 6.13-.653 6.56-6.177 12.84-13.135 12.4-6.58-.04-12.805-5.45-12.822-12.208.04-1.797 1.136-4.8-1.49-5.317-25.675.03-51.4-.118-77.06.08-2.004.49-1.6 2.857-1.27 4.36.487 6.667-5.2 12.52-11.7 13.02-6.27.92-12.16-3.79-13.67-9.754-.965-2.23-.333-4.77-.98-7.005-1.45-2.145-4.65-.713-6.78-1.21-4.74-.67-9.154 1.612-13.726 2.445-6.052 1.378-11.95 4.05-16.09 8.83-10.19 9.5-26.923 10.7-38.25 2.51-2.1-.985-2.304-3.69-4.16-4.81-2.11-.85-3.354 1.638-3.21 3.433-.78 3.976-2.033 9.437-6.773 10.237-4.288.87-8.09-2.26-11.058-4.95-1.89-1.37-2.43-4.21-4.585-5.15-2.35-.35-3.41 2.537-5.314 3.404-3.32 2.51-8.61 4.926-12.264 1.775-4.37-3.8-3.056-10.258-2.195-15.19-.18-2.11-2.852-2.3-4.3-1.32-4.195.76-6.894-3.44-7.705-7.008-2.265-6.54-.485-14.957 5.99-18.394 1.52-.536 3.863-1.757 2.924-3.77-1.16-2.01-4.133-1.746-5.904-3.036-4.84-2.2-6.5-7.844-8.07-12.49-3.33-11.8.235-25.193 9.06-33.723 5.82-7.41 6.3-17.316 8.8-26.1.32-2.635 1.16-5.457.533-8.07-1.36-2.24-4.31-.357-6.33-1.125-6.575-.647-12.306-6.46-12.12-13.19-.26-6.7 4.68-14.035 11.87-13.98 5.72-.15 10.09 5.01 11.133 10.24 1.096 2.1 4.495.77 3.993-1.493-.457-47.97-12.575-95.39-8.72-143.465 1-12.75 3.46-25.43 7.09-37.66.1-2.278-3.346-2.948-4.134-.82-2.706 5.127-9.71 7.38-14.71 4.19-8.15-4.713-8.92-18.44-.62-23.43 3.244-2.26 7.33-2.604 11.136-2.28 2.747-.795 1.29-4.26 1.32-6.24-1.06-6.575-2.843-13.106-4.525-19.575-1.308-5.117-4.39-9.45-7.99-13.19-8.966-11.437-9.558-29.04-.536-40.59 2.3-2.343 5.81-2.674 8.44-4.36 1.39-1.523-.13-3.7-1.916-3.937-6.4-2.95-8.93-10.8-7.146-17.3.796-3.686 2.713-8.594 7.228-8.55 1.62.017 3.726 1.536 4.895-.338 1.03-2.136-.81-4.607-.534-6.92-.59-4.32 1.41-9.994 6.276-10.66 5.24-.53 9.31 3.474 12.99 6.527 2.596.893 3.34-2.566 4.81-3.88 2.727-2.98 6.45-5.98 10.606-6.33zm233.015 3.855c3.554.486 7.91 1.486 9.366 5.315 1.69 4.054-2.03 8.552-6.19 8.664-2.93.538-5.88 1.99-8.86 1.63-.63-3.294-.86-6.838-2.67-9.844.15-1.783 2.63-2.41 3.71-3.77 1.34-1.048 2.86-2.038 4.64-1.995zM365.888 8.4c3.787.066 7.54 2.24 9.76 5.175-1.628 3.117-2.296 6.59-2.7 10.012-2.245.887-5.03-.723-7.425-1.068-2.446-.81-5.685-.58-6.694-3.49-1.86-2.1-3.1-6.05-.12-7.76 2.25-1.26 4.43-2.95 7.17-2.87zm-85.36 10.546c-4.17.606-5.39 5.81-4.64 9.338-1.125 1.83-3.17-.205-4.838-.057-6.152-.967-13.955-.275-17.38 5.654-3.33 6.34.403 14.8 6.974 17.16 1.025 2.16-2.455 2.25-3.544 3.49-4.485 2.21-6.572 8.47-3.32 12.55 1.538 2.49 4.442 3.82 5.993 6.19-1.505 3.16-5.684 3.39-8.69 4.11-1.815.04-5.056.83-4.333 3.29.955 2.76 4.65 1.52 6.75 1.16 4.07-1.08 9.212-2.502 10.913-6.81 1.035-3.7-2.15-6.65-4.92-8.52-2.21-1.42-3.83-4.99-1.183-6.83 3.61-3.356 8.68-4.8 13.444-5.4 1.163.52 2.003-.97 2.84.226-.354.545.66-.26 1.52-.254 2.106-.945 1.274-4.67-1.07-4.84-.94-1.19-2.505-2-3.994-1.264-4.616-.15-10.575-.54-13.106-5.03-1.77-3.3-1.035-8.39 3.01-9.563 4.944-1.93 10.714-.78 15.244 1.66 2.794 1.897 4.032 5.22 6.02 7.737 1.07 1.95 4.256 1.422 4.582-.79-.402-2.56-2.785-4.39-3.683-6.838-1.358-3.383-3.705-7.27-2.223-10.965 1.693-.95 3.41 1.343 4.894 2.19 3.15 2.334 5.5 5.65 8.522 8.043 2.208.67 4.158-2.56 2.138-4.05-3.58-4.29-7.833-8.29-12.854-10.91-.952-.38-1.996-.72-3.065-.642zm325.097 0c-5.852 1.15-9.957 6.136-14.118 10.04-1.37 1.22-3.17 3.874-.928 5.204 2.49 1.61 3.93-1.835 5.51-3.12 2.63-2.764 5.49-5.363 8.88-7.174 2.32.66 1.2 3.87.92 5.654-1.05 4.16-3.59 7.617-5.57 11.306-1.16 2.01 1.27 4.09 3.15 2.954 2.8-1.944 3.5-5.84 6.27-7.96 3.4-2.68 8.04-3.384 12.29-3.263 3.51.218 7.8 2.238 7.65 6.328.23 3.552-2.07 6.822-5.46 7.875-3.63 1.53-7.66 1.067-11.42 1.435-1.23 1.252-3.65 1.975-3.38 4.133.1 1.3 1.336 2.414 2.675 2.14.16-.604 1.75-.344 2.812-.34 3.054-.006 5.93 1.464 8.8 2.392 2.424 1.24 5.86 2.76 6.103 5.822-.58 4.768-7.383 5.587-7.624 10.603-.538 4.425 4.48 6.74 7.93 7.987 2.93.57 6.364 2.47 9.2.73 1.73-1.36.32-4.138-1.75-4.02-3.35-.507-7.11-1-9.9-3.095-1.59-2.025 1.42-3.468 2.62-4.556 3.49-2.77 5.873-8.03 2.95-12.09-1.63-2.84-5.03-4.02-7.34-5.79-.26-1.7 2.34-1.72 3.29-2.87 5.94-4.03 7.16-14.27.96-18.7-5.294-3.48-12.38-3.26-18.2-1.4-2.067-.84-.283-3.58-1.18-5.28-.5-2.48-2.35-5.17-5.176-4.92zm-178.2.9c3.993.12 4.847 4.828 6.244 7.706.85 2.77-3.3 1.394-4.87 1.717h-17.75c-1.75-1.85 1.99-3.07 3.01-4.36 3.23-2.79 7.29-4.58 11.55-4.81.58-.17 1.19-.26 1.8-.26zm31.332.225c4.058.06 8.248.78 11.587 3.3 1.95 1.48 4.378 2.92 5.654 4.87-.845 2.16-4.565.53-6.58 1.04H453.13c-1.59-1.34.55-3.15.787-4.72.818-2.09 2.31-4.46 4.837-4.47zM305.082 39.73c-2.152.355-2.124 3.206-1.265 4.726.04 3.98-1.97 7.923-4.698 10.66-2.71.606-5.47-.387-7.99-.985-2.17.83-4.42-2.91-6.11-.42-1.55 3.25 1.26 7.41-1.13 10.41-2.47 1.89-5.9.69-8.72 1.38-2.08-.36-5.73.63-4.89 3.4 1.39 8.89.41 17.92.95 26.86 1.56 111.88 1.76 223.77 3.17 335.65-.71 2.14 1.81 4.62 3.77 3.12 2.92-.16 5.92.28 8.77.51 3.3 2.15.78 6.55 2.11 9.54.843 1.42 2.96 1.02 3.57-.45.99-1.61 2.896-1.78 4.5-1.29 4.102.27 8.51-.9 12.374.73 2.164 2.85-.28 6.33-.39 9.42-.48 2-1.247 5.78 1.515 6.36 28.41.06 56.87-.51 85.22 1.69 30.116 1.15 60.24.22 90.37.48 23.46-.24 46.92-.94 70.37-1.41 8.51-.56 17.15-.38 25.595-1.23 2-.52 2.023-2.754 1.407-4.33-.52-3.64-2.04-7.797-.31-11.25 3.11-.568 7.63-1.615 9.427 1.8 1.524 1.18 3.915-.645 3.175-2.505-.15-2.526-.497-6.917 2.953-7.23 3.333-.687 7.07-1.57 10.21.194 3.18-.407 4.23-4.44 3.794-7.14 1.78-120.776 1.75-241.587 3.66-362.337-1.075-1.96-3.55-2.652-5.454-3.485-3.375-.61-6.73 1.85-9.983.675-3-2.614.41-7.045-1.71-9.9-1.39-1.49-3.253.335-3.91 1.69-2.08.67-4.622-.214-6.92.17-2.3-.16-5.26.483-7.03-1.125-1.02-4.39 2.78-9.1.087-13.162-1.85-2.462-4.86.015-7.115.058-27.74-.034-55.54-.43-83.22 1.69-30.4 1.07-60.827.24-91.24.45-22.93-.31-45.84-.943-68.764-1.43-7.48-.553-15.13-.204-22.53-1.235-.97-.87-2.43-.606-3.622-.7zm235.406 5.43c11.828.33 23.737-.148 35.522.28 2.783 1.975.433 5.34.507 7.96-2.314 3.262-6.975 1.382-10.294 1.63-16.538.08-33.13.05-49.67.874-16.597.973-33.205 1.68-49.837 1.602-24.603-.062-49.196-.082-73.8-.112-24.695-.323-49.396-.992-74.08-1.463-3.917-.36-8.22.54-11.786-1.32-1.57-2.8 1.325-5.4 1.49-8.18 1.56-2.23 4.696-.65 6.92-1.01 15.46.63 30.934 1.17 46.406 1.27 40.563 1.22 81.153.88 121.725.65 18.97-.75 37.91-2.3 56.9-2.16zM291.104 58.32c6.777 1.59 13.883.376 20.784 1.24 24.224 1.03 48.472.86 72.704 1.602 35.552.235 71.128.395 106.677-.112 24.03-1.175 48.06-2.558 72.14-2.053 10.22.098 20.52-.025 30.71.028 3.27 1.836 2.03 6.28.31 8.775-.06 2.187 2.49 3.96 1.35 6.27-1.91 120.854-1.87 241.71-3.63 362.56-1.34 3.336-5.69 2.287-8.5 2.222-27.21 1.653-54.52 1.272-81.76 2.167-36.02.34-72.04.37-108.06-.03-24.64-1.14-49.29-2.73-73.97-2.06-2.29.28-4.46-.9-6.61-1.01-2.03.88-4.22 1.53-6.42.92-4.55-.28-9.37.86-13.728-.62-.933-3.88-.55-8.3-.846-12.38-1.63-121.85-1.587-243.7-3.656-365.54.48-.89 1.356-1.98 2.47-2zm7.846 4.474c-2.976.482-2.235 4.396-2.11 6.525 2.155 121.49 1.683 243.06 3.827 364.55.767 2.02 3.842 1.85 4.696 0 6.592-1.98 13.656-.31 20.447-.9 23.285-.36 46.564.53 69.806 1.82 32.09.69 64.208.2 96.3.2 23.788-.56 47.604-.71 71.382-1.58 5.25-.19 10.802-1.06 15.89.25.792 1.73 3.366 2.33 4.612.62 1.01-2.5.046-5.58.45-8.24 1.645-120.57 1.72-241.16 3.516-361.72-.692-2.05-3.808-1.95-4.668-.09-5.05 1.81-10.563.09-15.807.67-25.16-.17-50.34-.04-75.46 1.69-31.07 1.027-62.18.217-93.26.42-24.33-.31-48.64-.89-72.95-1.52-6.85-.52-13.89-.02-20.64-1.063-1.82-.897-4.06-.76-5.88-1.657-.04.015-.1-.04-.14 0zm310.754 4.302c3.243.62 2.893 4.916 2.475 7.425-.89 57.45-1.39 115.03-1.8 172.52-.46 60.28-.86 120.55-1.78 180.82-1.42 3.34-5.67 1.48-8.33 2.65-2.27 1-4.49-1.1-4.22-3.4 1.01-61.43 1.32-122.88 1.83-184.33.44-57.28.88-114.56 1.82-171.84 1.81-3.42 6.71-3.11 9.98-3.82zM304.014 68.7c15.432.742 30.87 1.156 46.32 1.434 43.77 1.077 87.566 1.146 131.345.73 20.78-.54 41.54-2.154 62.35-2.08 12.49.348 25-.218 37.49.422 2.67 1.466 2.39 5.06 2.25 7.678-2.01 116.38-1.76 232.787-3.52 349.172-.95 3.653-5.59 3.335-8.52 2.953-26.11 1.48-52.28 1.23-78.42 1.99-34.26 0-68.55.68-102.8-.42-26.15-1.64-52.37-1.79-78.56-1.55-2.33-.21-5.51.32-7.12-1.6-.795-10.58-.898-21.18-.9-31.78-1.23-107.05-1.3-214.13-3.04-321.16-.596-2.38.486-5.3 3.09-5.8zm-23.795.844c1.76.098 4.87-.498 4.47 2.193.94 12.17.37 24.398.81 36.59 1.34 106.437 1.51 212.87 2.98 319.304-1.17 3.51-5.89 2.96-8.61 1.83-2.01-1.26-.59-4.47-1.13-6.52-.86-36.13-.86-72.31-1.3-108.45-.66-80.82-1-161.62-2.39-242.44.58-2.13 3.29-2.45 5.14-2.5zm160.34 37.152c-37.92.48-71.92 17.168-95.46 43.426h-9.88c-.43 0-.85.2-1.15.505-.31.307-.48.693-.48 1.125V165c-13.75 20.656-21.77 45.426-21.77 72.056 0 26.63 8.02 51.405 21.77 72.056v56.73c0 .432.17.845.48 1.152.3.306.72.45 1.15.45h214.06c.43 0 .85-.144 1.15-.45.3-.307.45-.72.45-1.153v-56.72c13.74-20.65 21.77-45.42 21.77-72.05 0-26.63-8.03-51.4-21.77-72.05v-13.25c0-.43-.15-.82-.45-1.12-.31-.3-.72-.5-1.15-.5h-9.9c-23.88-26.64-58.56-43.42-97.15-43.42-.57 0-1.13-.007-1.69 0zm.05 3.263c.54-.01 1.08 0 1.63 0 36.29 0 69.06 15.23 92.22 39.68-.05 0-.09-.01-.14 0-.42.02-.82.15-1.16.39l-.11.08h-34.9c.38-.78.66-1.62.59-2.7-.06-.84-.47-1.7-1.02-2.34-.55-.64-1.22-1.12-2-1.55-.94-.51-1.78-.64-2.477-.65.37-1.36.716-2.75.31-4.36-.267-1.06-.98-2.12-1.94-2.84-.96-.73-2.11-1.17-3.544-1.5-3.625-.633-7.194.246-10.773-.28-.206-.32-.49-.764-.82-1.35-.213-.38-.44-.77-.7-1.18.004-.353.02-.75.056-1.18.19-2.1.15-4.97-1.43-7.85-2.9-5.265-9.737-7.22-14.99-7.815-.816-.094-1.596-.16-2.337-.255-.997-.13-2.195-.224-3.49-.25-7.2.2-14.294.067-21.488 0h-.03c-.48 0-.94-.008-1.41 0-1.29.027-2.5.097-3.49.225-.74.1-1.53.19-2.338.283-5.235.595-12.024 2.55-14.908 7.816-1.58 2.88-2.21 5.837-2.028 7.937.023.258.045.5.057.73-.82.72-1.63 1.518-2.39 2.53-.42.81-1.132.57-1.94.535-2.556-.093-5.12-.38-7.284.114-1.43.325-2.59.79-3.547 1.52s-1.65 1.76-1.91 2.81c-.407 1.61-.09 3.007.28 4.36-.69.013-1.52.14-2.448.646-.78.43-1.45.91-2 1.55-.544.636-.922 1.5-.98 2.333-.077 1.09.19 1.924.563 2.704h-34.87c-.04-.027-.07-.056-.11-.084-.36-.25-.77-.39-1.21-.39-.03-.01-.08.02-.11.02 22.81-24.08 54.95-39.26 90.59-39.71zm-10.01 8.46c2.82-.04 6.31.09 9.05.14 0 0 .76-.01.76 0 .42 2.26-.26 4.5-.06 6.75-1.43.45-3.98.7-5.4 1.15-2.31.84-5.89 1.49-8.36 1.49-1.75 0-3.49.65-4.42 1.94-.93 1.29-1.02 2.68-1.02 3.99 0 .8-.14.98-.25 1.09-.11.12-.416.32-1.07.45-1.31.25-4.564.05-7.087.05-.298 0-2.13.18-2.448.17 1.91-1.72 2.53-3.28 2.333-5.77-.21-2.366.46-4.2 1.13-5.43 1.545-2.82 7.19-5.12 11.587-5.62.76-.087 1.56-.145 2.39-.25.7-.09 1.69-.155 2.84-.17zm20.84 0c.77-.01 1.54-.01 2.25 0 1.16.01 2.13.07 2.84.17.83.1 1.65.16 2.42.25 4.42.5 10.09 2.8 11.64 5.62.67 1.22 1.02 3.06.81 5.43-.29 1.97.73 3.92 1.68 5.65-.32.01-1.5-.06-1.8-.06-2.54 0-5.52.19-6.84-.06-.66-.13-.96-.33-1.07-.45-.116-.12-.256-.3-.256-1.1 0-1.31-.103-2.71-1.04-4-.933-1.29-2.636-1.94-4.386-1.94-2.48 0-6.12-.65-8.438-1.49-1.386-.507-3.856-.71-5.15-1.158-.45-2.12-.194-4.52-.31-6.75 2.07-.04 5.313-.12 7.62-.14zm-212.17 2.89c.12-.01.26 0 .39 0 3 .17 5.72 1.99 8.07 3.6.56 3.36 2.18 6.75 1.77 10.15-3.25.6-6.71.99-9.62 2.87-1.94-.29-1.97-2.85-3.29-4.03-2.03-2.6-3.47-6.76-.65-9.36.98-1.22 1.52-3.05 3.32-3.24zm405.28.08c4.51.21 6.02 5.76 5.71 9.5-.27 2.532-1.12 5.702-3.6 6.83-2.84-1.544-6.08-2.184-9.2-2.587-.88-2.19.52-5.03.87-7.4.15-3.308 2.94-6.06 6.21-6.358zm-202.45 7.43c.49.25.99.42 1.49.59 1.8.62 3.76 1 4.19 1.15 2.95 1.07 6.77 1.74 9.93 1.74.93 0 .85.11.87.14.02.03.19.49.19 1.435 0 1.566.49 3.047 1.46 4.077.97 1.03 2.21 1.52 3.4 1.744 2.37.442 4.85.11 7.082.11 1.47 0 2.935-.048 4.275-.03.325.7.75 1.51 1.49 2.25.205.202.426.48.647.785-.254.73-.2.8-.79 1.38-.93.915-1.717 2.32-1.717 3.94 0 .816.42 1.486.87 1.966.1.103.184.197.28.28.096.08.19.166.28.223.62.4 1.216.574 1.83.73 1.16.297 1.406.415 2.757.535.054.234.1.503.14.76.04.244.084.5.112.754-.68.255-1 .87-1.52 1.322-1.37.994-2.42 2.335-2.39 3.963.02 1.627 1.07 2.74 2.05 3.43 1.003.71 1.07 1.215 2.19 1.52v.56c0 3.39.28 6.635.28 9.704 0 3.325-.007 6.31-.507 9.31-.6 3.596.223 6.994.223 9.534 0 3.05.2 5.965-.223 8.49-.68 4.093-.022 7.78-.022 11.14v9.42c0 2.53-.28 4.64-.28 7.54 0 1.69-.563 3.696-.563 6.186 0 .096-.08 17.67-.22 20.366-.15 2.697-.34 6.158-.538 9.62-.19 3.46-.39 6.928-.53 9.647-.068 1.22-.1 2.18-.14 3.01h-.42c-3.167 0-6.246-.28-9.677-.28-3.69 0-8.557-.79-13.22-.564-1.556.075-3.088.3-4.557.62-6.06 1.325-17.3.843-17.3.843-.98.1-1.99.16-3.01.17-1.647.08-1.996.05-2.845-.088-3.475-.164-4.906-.416-7.76-.533-1.526-.1-3.057-.17-4.614-.17-2.89 0-6.61.145-9.472.223-.11-2.424-.31-5.72-.48-9.28-.28-5.81-.535-11.927-.535-13.08 0-3.572-.816-21.962-.816-24.805v-8.35c0-3.38-.254-6.76-.254-9.96v-9.674c0-3.594-.284-6.92-.284-10.24 0-3.44.285-6.83.285-10.49 0-3.465.04-6.985-.566-10.603-.384-2.297-.097-5.277 0-8.27 1.11-.304 1.133-.807 2.136-1.52.974-.69 2.03-1.807 2.053-3.43.03-1.62-1.02-2.967-2.39-3.966-.585-.425-.05-.685-.646-.953.026-.13.057-.236.085-.367.023-.116.06-.25.083-.367.082-.416.14-.8.223-1.21.99-.11.88-.256 1.744-.48.614-.157 1.18-.333 1.8-.73.09-.06.186-.15.28-.226.1-.08.213-.176.31-.28.454-.476.845-1.15.845-1.97 0-1.61-.77-3.02-1.69-3.935-.746-.74-.967-1.2-1.27-1.66.293-.907.675-1.81 1.15-2.7 1.69-.12 3.69-.03 5.71-.03 2.225 0 4.666.34 7.03-.11 1.18-.23 2.436-.718 3.404-1.75.97-1.03 1.46-2.51 1.46-4.076 0-.944.18-1.403.2-1.432.02-.03-.06-.14.87-.14 3.14 0 6.93-.7 9.87-1.775.42-.15 2.366-.503 4.165-1.123.496-.17.97-.336 1.464-.59zm-43.46 9.51c.62-.01 1.39.01 2.22.02-.71.88-1.18 1.97-1.18 3.32 0 .85.4 1.643.81 2.132.42.49.84.81 1.262 1.07-.195.964-.39 1.905-.59 2.87-.72.05-1.44.105-2.11.166-1.276.117-2.23.127-3.43.674-.375.175-.784.42-1.15.875-.154.19-.264.397-.368.65h-2.87c-.14-.295-.297-.58-.45-.87-.54-.98-.62-1.434-.65-1.406.084-.085.24-.24.67-.48-.04.02.65.01 1.858-.03.6-.02 1.65-.06 2.53-1.1.88-1.033.735-2.26.48-3.204-.477-1.73-.66-3.047-.566-3.43.05-.19.05-.22.31-.42.26-.2.845-.495 1.883-.73.22-.05.696-.1 1.32-.11zm87.13 0c.63.01 1.1.06 1.32.11 1.04.23 1.642.53 1.91.73.26.2.29.23.33.42.1.38-.11 1.67-.59 3.4-.26.94-.375 2.2.51 3.23.88 1.03 1.923 1.074 2.53 1.094 1.21.04 1.89.05 1.854.03.433.236.587.393.674.48-.027-.035-.108.425-.647 1.404-.16.29-.31.58-.45.88h-2.894c-.1-.25-.24-.46-.4-.647-.37-.45-.773-.7-1.15-.87-1.2-.544-2.147-.56-3.43-.675-.42-.04-.876-.05-1.32-.086-.136-.45-.276-.924-.396-1.405-.15-.6-.35-1.224-.59-1.855.29-.2.59-.434.87-.76.42-.49.816-1.28.816-2.135 0-1.347-.47-2.44-1.18-3.32.83-.014 1.59-.037 2.22-.027zm-57.46 14.31c-.32-.008-.59.05-.82.11-.888.222-1.45.6-1.49.62-.35.14-.66.36-.875.67-.526.738-1.197 1.638-1.1 3.178.05.77.53 1.756 1.294 2.28.764.523 1.6.674 2.502.674.75 0 1.54-.195 2.193-.73.657-.536 1-1.3 1.1-1.914.192-1.22-.13-2.1-.31-2.81-.165-.66-.69-1.48-1.46-1.83-.386-.17-.726-.25-1.04-.25zm26.04 0c-.26.02-.5.12-.79.25-.77.34-1.33 1.16-1.49 1.82-.18.71-.48 1.59-.28 2.81.09.61.41 1.376 1.07 1.91.65.536 1.47.73 2.22.73.9 0 1.73-.15 2.5-.674.76-.52 1.24-1.504 1.29-2.274.1-1.54-.577-2.44-1.1-3.178-.22-.31-.52-.538-.87-.68-.048-.015-.61-.39-1.495-.617-.22-.058-.5-.115-.815-.113-.08 0-.17-.007-.256 0zm-117.54.76h5.43c-1.89 2.25-3.7 4.54-5.43 6.92v-6.92zm9.81 0h1.91c.096.09.22.18.336.25.49.33.403.25.506.42.102.17.356.77.9 1.74.31.56.735 1.09 1.124 1.63-1.26-.18-2.64-.3-3.91-.39-.55-.04-1.04-.08-1.49-.09-.442 0-.68-.06-1.43.17-.19.06-.46.105-.846.42-.386.32-.9 1.22-.787 2.03.11.807.506 1.176.73 1.377.22.206.395.29.533.37.55.304.93.38 1.572.564.26.078.705.18 1.012.257-1.352.146-2.432.216-3.515.56-.27.09-.57.17-.983.48-.415.316-1.1 1.23-.956 2.22.146 1 .718 1.42 1.04 1.66.326.25.6.38.9.51 1.04.486 2.267.08 2.81-.93.46-.06.57-.1 1.157-.164 1.33-.14 2.93-.32 4.44-.564 1.51-.24 2.92-.51 4.216-1.235.11-.06.22-.11.34-.196.2.133.4.246.646.31.07.02.514.29 1.21.954.692.67 1.64 1.605 3.092 2.25 11.995 5.34 25.24 15.337 38.08 18.76-.077 2.035-.14 4.096-.14 6.246 0 .52-.01 1.01 0 1.52-.1.01-.207.06-.31.087-11.72 2.454-28.345-.816-42.58-.45-.7.02-1.4-.208-2.307-.51-.68-.227-1.523-.55-2.53-.59-.334-.016-.687.02-1.067.083-.26.03-.51.11-.73.22-.103-.634-.44-1.13-.7-1.43-.37-.437-.722-.7-1.1-.96-1.49-1.04-3.522-1.99-4.05-2.363-.742-.53-1.07-.83-1.683-1.237-.617-.41-1.49-.73-2.39-.874-.147-.02-.28-.035-.426-.03-1.113.05-2.02.968-2.08 2.08-.06 1.118.754 2.08 1.857 2.25.59.095.455.06.62.17.17.11.697.566 1.606 1.21.52.37 1.1.665 1.686.986-1.22.38-2.503.837-3.685 1.296-.51.2-.97.4-1.38.59-.36.17-.61.233-1.07.62v-29.53c3.004-4.46 6.286-8.71 9.815-12.746zm7.283 0h29.17c-.32.65-.31 1.39.057 2.02.394.68 1.127 1.08 1.91 1.07.27 0 1.4.025 2.56-.085.57-.054 1.17-.14 1.8-.337.31-.098.65-.218 1.04-.478.384-.26.88-.715 1.094-1.49.06-.233.13-.463.17-.705h3.18l.058.05c.907.9 2.01 1.468 3.207 2.11.425.23.863.46 1.294.676-.2 1.12-.37 2.267-.478 3.43-1.51 0-2.915.006-3.968-.17-1.308-.22-1.84-.535-2.167-1.125-.58-1.05-1.9-1.42-2.957-.84-1.055.58-1.45 1.9-.87 2.952 1.134 2.076 3.33 2.993 5.285 3.32 1.506.25 3.014.24 4.47.225-.013.34-.006.71-.024 1.063-.17.134-.35.27-.48.45.05-.064-.675.58-1.543.79-.87.21-1.79.19-2.62-.31-1.03-.62-2.364-.27-2.98.76-.62 1.03-.3 2.36.73 2.98 1.963 1.18 4.14 1.24 5.88.82.32-.078.6-.18.9-.28.04.77.12 1.562.25 2.332.51 3.06.507 6.226.506 9.62-11.22-3.366-24.095-12.74-36.42-18.226-.64-.283-1.17-.772-1.86-1.433-.687-.66-1.526-1.574-3.01-1.996-.21-.065-.426-.115-.646-.112-.047 0-.097.03-.14.03.18-.63.103-1.21 0-1.6-.146-.55-.366-.95-.59-1.35-.905-1.58-2.33-3.29-2.645-3.85-.065-.11-.115-.203-.17-.306zm135.59 0h3.236c.04.24.077.47.14.7.215.78.74 1.23 1.125 1.49.39.26.73.38 1.045.48.63.19 1.22.28 1.8.33 1.16.11 2.287.083 2.56.083.786.01 1.52-.394 1.915-1.07.37-.63.407-1.374.086-2.026h29.138c-.055.107-.107.2-.17.31-.313.56-1.74 2.27-2.644 3.857-.227.397-.42.8-.563 1.35-.1.39-.206.98-.027 1.606-.06 0-.11-.03-.17-.03-.198.01-.4.058-.59.116-1.48.422-2.32 1.335-3.01 2-.688.66-1.245 1.15-1.88 1.43-12.16 5.41-24.84 14.605-35.95 18.085.314-2.79.31-5.48.31-8.213 0-1.2-.01-2.39-.06-3.57.28.09.54.18.84.25 1.74.42 3.915.337 5.88-.842.694-.386 1.13-1.118 1.125-1.91-.008-.797-.456-1.51-1.156-1.887s-1.554-.35-2.22.083c-.83.494-1.72.52-2.59.31-.87-.21-1.65-.856-1.602-.79-.134-.196-.29-.37-.476-.507-.004-.29 0-.556 0-.844v-.17c1.48.01 3.004 0 4.528-.25 1.964-.327 4.147-1.216 5.29-3.29.58-1.056.186-2.38-.87-2.956-1.05-.58-2.374-.21-2.95.84-.324.59-.85.91-2.165 1.127-1.056.18-2.46.17-3.97.17-.05-1.24-.086-2.44-.11-3.63.3-.15.604-.32.9-.48 1.204-.64 2.296-1.21 3.206-2.11l.05-.06zm46.41 0h1.91c3.53 4.03 6.814 8.28 9.817 12.74v29.5c-.45-.375-.71-.428-1.07-.59-.407-.19-.865-.395-1.38-.59-1.18-.46-2.464-.92-3.68-1.298.58-.32 1.19-.61 1.71-.987.91-.644 1.41-1.096 1.577-1.21.17-.11.06-.075.65-.166 1.16-.13 1.993-1.144 1.913-2.307-.08-1.16-1.06-2.055-2.224-2.023-.124.005-.246.006-.366.03-.9.14-1.75.465-2.36.87-.615.41-.94.71-1.687 1.24-.525.374-2.58 1.32-4.08 2.364-.37.26-.73.52-1.096.955-.26.302-.598.795-.707 1.43-.23-.117-.46-.197-.73-.224-.38-.067-.73-.1-1.07-.087-1.004.04-1.82.363-2.5.59-.905.3-1.607.523-2.306.504-14.235-.366-30.89 2.904-42.61.45-.01-.636-.03-1.25-.03-1.86 0-2.122-.29-4.2-.39-6.02 12.83-3.434 26.07-13.395 38.055-18.73 1.454-.65 2.43-1.583 3.12-2.25.692-.67 1.11-.94 1.18-.96.242-.06.447-.174.646-.305.126.09.26.14.37.196 1.3.72 2.71.994 4.22 1.237 1.516.243 3.085.422 4.417.562.59.06.7.1 1.157.17.545 1.01 1.8 1.41 2.84.924.3-.13.575-.26.9-.5.323-.25.866-.67 1.01-1.66.146-1-.54-1.91-.955-2.22-.42-.32-.718-.39-.99-.48-1.08-.35-2.13-.42-3.484-.56.31-.08.75-.18 1.01-.26.65-.183 1-.26 1.55-.56.14-.077.31-.164.536-.367.22-.2.618-.57.73-1.374.115-.81-.4-1.71-.785-2.027-.384-.32-.652-.367-.84-.42-.754-.235-.96-.177-1.404-.17-.45 0-.97.04-1.52.08-1.26.09-2.615.21-3.88.39.39-.54.81-1.07 1.125-1.63.54-.97.796-1.57.9-1.74.1-.17-.014-.09.477-.42.116-.08.24-.16.338-.26zm6.3 0h5.43v6.94c-1.738-2.374-3.54-4.696-5.43-6.946zm-101.335 7.76c-.52.04-1.02.3-1.35.7-.33.4-.47.91-.424 1.43.06.74.17 4.19.254 7.31l.11 4.19c.028 1.142.03 2.132.03 1.994-.01.704.37 1.36.98 1.715.61.352 1.33.352 1.94 0 .61-.36.998-1.01.988-1.72 0-.324 0-.93-.03-2.08-.024-1.15-.07-2.655-.11-4.22-.084-3.13-.19-6.34-.28-7.51-.03-.526-.3-1.007-.7-1.35-.35-.3-.784-.47-1.24-.477-.063 0-.1-.006-.166 0zm191.812 8.44c.14-.01.284.03.45.14 1.65 1.14 4.14.69 5.48 1.97 1.52 7.29 8.782 12.69 8.13 20.59-.675 1.84-.494 3.97-1.69 5.59-2.227 2.436-5.796 2.45-8.66 3.683-2.237-.85-.89-4.12-1.55-6.02-.715-8.42-1.727-16.78-3.177-25.11.245-.366.584-.825 1.01-.846zm-379.63.28c.28.14.55.28.84.42.136 2.843-1.195 5.854-1.55 8.802-1.41 7.164-2.31 14.38-2.895 21.654-1.48 1.39-3.19-.87-4.865-1.04-1.93-.655-4.41-.72-4.92-3.15-2.767-5.988.763-12.306 3.682-17.466 1.544-2.47 2.41-5.3 3.486-7.91 2.12-.17 4.318-.28 6.218-1.323zm80.52 1.35v131.68c-11.66-19.207-18.398-41.75-18.398-65.87 0-24.11 6.74-46.61 18.394-65.816zm217.29 0c11.654 19.2 18.393 41.7 18.393 65.81s-6.74 46.663-18.396 65.87V171.24zm-129.49 6.47c-.76.003-1.456.46-1.77 1.15-.306.67-.203 1.45.252 2.023.012.037.22.32.392.59.235.37.544.867.9 1.38.72 1.03 1.545 2.21 2.84 3.04 5.236 3.356 11.79 6.073 18.62 6.073 5.74 0 11.88-2.455 16.566-5.707 2.244-1.556 3.89-3.95 5.035-5.286.47-.53.626-1.276.395-1.94-.23-.67-.82-1.17-1.52-1.3-.084-.015-.163-.024-.25-.03-.075 0-.15-.003-.225 0-.523.04-1.006.287-1.35.705-1.354 1.58-2.973 3.69-4.302 4.61-4.1 2.845-9.776 5.033-14.343 5.033-5.76 0-11.72-2.386-16.51-5.457-.34-.22-1.13-1.13-1.74-2-.3-.44-.59-.85-.81-1.21-.228-.36-.27-.54-.62-.96-.37-.46-.95-.734-1.547-.73zm-70.31 19.71c.07-.01.58.06 1.49.36.915.305 2.205.717 3.8.677 13.3-.34 29.77 3.085 42.92.48.06 1.435.114 2.87.114 4.3v9.677c0 3.43.28 6.815.28 9.954v8.357c0 3.57.79 21.962.79 24.805 0 1.72.287 7.468.567 13.28.2 4.09.35 7.575.45 9.9-.08.096-.13.2-.195.31-.4.677-.4 1.516 0 2.194.1.175.22.34.362.48.12.606.494 1.12 1.04 1.436.675.4 1.49.4 2.164 0 .363-.21.655-.505.84-.87 2.99-.074 6.79-.25 9.62-.25.67 0 1.348.03 2.028.054-3.327 6.767-8.765 16.767-13.976 26.83-6.082 11.75-11.862 23.455-13.67 30.997-.41 1.71-.934 3.36-1.602 4.89-.227.03-.557.08-1.152.03-1.47-.137-3.633-.66-5.82-1.3-2.18-.636-4.4-1.402-6.1-1.994-.85-.297-1.58-.545-2.14-.73-.27-.095-.49-.16-.7-.227-.11-.03-.23-.058-.362-.088-.138-.026-.094-.164-.9-.025-.43.06-.818.237-1.125.507-12.94-9.004-24.146-20.36-32.964-33.44V199.34c.267.19.508.26.677.31.29.086.49.102.65.112.63.037 1-.057 1.66-.168.27-.045.7-.163 1.01-.225-1.16.71-2.09 1.24-2.92 2.02-.21.19-.437.41-.677.87-.244.46-.45 1.58.11 2.42s1.205.98 1.6 1.07c.4.08.716.06 1.04.06 1.146-.02 2.08-.91 2.14-2.06.384-.26.48-.37.984-.68 1.144-.7 2.508-1.52 3.77-2.39 1.26-.87 2.43-1.69 3.29-2.9.068-.1.128-.22.197-.34.24.02.49.02.73-.03zm182.307 0c.24.05.49.05.73.03.07.12.13.24.2.33.86 1.21 2.03 2.028 3.29 2.898 1.264.87 2.63 1.69 3.77 2.39.51.312.63.42 1.01.676.06 1.14.97 2.03 2.11 2.05.33.01.646.026 1.04-.056.4-.08 1.075-.23 1.634-1.06.56-.84.325-1.96.085-2.42-.247-.46-.47-.675-.68-.87-.83-.78-1.735-1.315-2.896-2.026.31.06.74.18 1.01.222.66.11 1.03.202 1.66.165.154-.006.33-.024.62-.11.163-.05.413-.12.67-.31V308c-8.823 13.09-20.02 24.46-32.963 33.47-.3-.273-.67-.468-1.097-.535-.807-.14-.79 0-.928.03-.136.03-.23.053-.336.084-.215.06-.455.13-.73.22-.555.18-1.26.43-2.11.73-1.7.59-3.92 1.35-6.103 1.99-2.186.64-4.38 1.16-5.85 1.293-.6.05-.93 0-1.153-.03-.67-1.53-1.196-3.187-1.605-4.895-1.8-7.543-7.56-19.246-13.64-30.995-5.295-10.23-10.83-20.4-14.14-27.164.55.017 1.09.027 1.63.027 3.19 0 6.27.26 9.67.26h1.887c.565.16 1.196.105 1.716-.2.677-.39 1.08-1.13 1.07-1.91 0-.144.107-2.295.25-5.005.147-2.71.34-6.187.537-9.65.194-3.46.388-6.913.534-9.62.142-2.7.22-19.83.22-20.583 0-1.755.56-3.74.56-6.187 0-2.616.254-4.716.254-7.54v-9.42c0-3.85-.56-7.23-.03-10.41.165-.993.26-2 .31-2.98 13.08 2.46 29.366-.87 42.524-.532 1.59.04 2.85-.37 3.762-.677.91-.305 1.42-.38 1.49-.368zm-185.626.7c.01 0 0 .03 0 .03-.015.01-.07.02-.14 0 .02 0 .13-.03.14-.03zm188.976 0c.01 0 .095.03.11.03-.07.02-.12.01-.14 0 .003 0 .02-.03.03-.03zM455.7 227.4c-.17.013-.326.04-.45.085-.496.17-.784.42-.787.42-.14.066-.266.17-.366.282-.068.08-.13.154-.17.25-.21.465-.458 1.085-.14 1.912.154.41.534.84.982 1.04.44.2.91.21 1.43.17.42-.04.9-.14 1.26-.54s.44-.96.39-1.32c-.1-.73-.43-1.15-.65-1.52-.2-.33-.55-.62-.958-.73-.204-.06-.39-.07-.563-.06zm-32.427.06c-.175.01-.355.07-.48.11-.496.17-.756.39-.76.39-.1.05-.2.12-.28.2-.107.1-.197.2-.256.333-.21.462-.43 1.11-.116 1.94.16.412.51.812.96 1.01.45.197.92.242 1.44.196.43-.04.9-.17 1.27-.56.37-.4.47-.93.425-1.3-.097-.73-.455-1.15-.676-1.52-.197-.33-.55-.65-.956-.76-.206-.06-.39-.07-.564-.06zm34.45 54.28c1.385.03 2.84.1 4.303.19 3.23 6.94 9.38 18.13 15.243 29.448 6.05 11.682 11.7 23.57 13.25 30.01.48 2 1.12 4.026 2.02 5.99.45 1.106 1.53 1.844 2.42 2.08.99.267 1.94.262 2.95.17 1.63-.148 3.43-.565 5.29-1.07-11.33 6.22-23.7 10.75-36.79 13.276.22-.31.36-.67.39-1.068.064-.8-.314-1.596-.986-2.03-.547-.39-1.403-.89-2.614-1.63-1.21-.74-2.68-1.63-4.104-2.507-1.43-.88-2.83-1.74-3.827-2.39-.346-.23-.56-.4-.79-.57-.38-6.22 1.404-11.76.7-19.38-.07-.79.04-4.9.31-9.96s.656-11.34 1.04-17.465c.385-6.12.766-12.115.985-16.62.11-2.25.184-4.106.2-5.484.004-.38.01-.71 0-1.01zm-4.36.17c.004.24.004.43 0 .78-.01 1.27-.09 3.12-.197 5.345-.216 4.45-.57 10.414-.957 16.537-.38 6.125-.8 12.43-1.07 17.524-.27 5.09-.43 8.702-.25 10.573.64 6.98-1.41 12.62-.71 20.22.07.82.34 1.03.48 1.2.13.178.24.25.33.34.187.177.35.31.535.45.375.28.84.6 1.38.96 1.08.71 2.464 1.56 3.91 2.446 1.445.89 2.935 1.8 4.135 2.533 1.196.73 2.19 1.36 2.33 1.46.047.034.096.052.14.083-6.9 1.165-13.973 1.8-21.203 1.8s-14.31-.61-21.21-1.77c.05-.033.095-.074.14-.113.14-.1 1.166-.73 2.365-1.46 1.2-.73 2.66-1.644 4.107-2.53 1.442-.884 2.86-1.734 3.935-2.444.54-.357.98-.678 1.35-.958.19-.14.38-.278.563-.45.09-.09.2-.16.334-.34.14-.18.374-.39.45-1.21.704-7.606-1.32-13.244-.67-20.224.17-1.87-.01-5.48-.28-10.57s-.686-11.4-1.07-17.52c-.38-6.127-.74-12.09-.955-16.54-.1-1.94-.15-3.496-.17-4.727 1.18-.03 2.372-.13 3.57-.28 1.35-.17 2.75-.19 4.22-.17 2.59.36 5.26.013 6.94.083 1.97-.06 4.006-.25 6.05-.76.458-.115.95-.21 1.46-.28zm-31.36.95c1.57.13 3.144.25 4.754.337.02 1.33.094 3 .192 5.035.22 4.507.57 10.5.96 16.625s.8 12.41 1.07 17.466c.27 5.06.35 9.167.28 9.957-.71 7.62 1.08 13.18.7 19.41-.23.16-.45.31-.79.533-1 .66-2.398 1.513-3.827 2.39-1.43.877-2.895 1.764-4.105 2.504-1.214.74-2.07 1.24-2.62 1.63-.67.432-1.05 1.225-.983 2.024.03.4.165.76.39 1.07-13.09-2.52-25.456-7.05-36.786-13.27 1.85.51 3.655.93 5.285 1.07 1.02.1 1.97.1 2.955-.17.885-.23 1.97-.97 2.42-2.08h.03c.894-1.96 1.515-3.99 1.994-5.99 1.543-6.44 7.23-18.32 13.276-30.01 5.607-10.82 11.46-21.53 14.795-28.51zM254.12 300c.455.014.87.135 1.265.45 1.205 10.78 2.13 21.635 2.615 32.485-1.507 1.745-3.026-1.25-4.696-1.576-1.702-.96-.764-3.54-1.913-5.1-2.6-6.14-8.34-11.97-6.91-19.18.65-2.76 2.34-5.49 5.35-5.99 1.36-.17 2.94-1.14 4.3-1.1zm377.943.225c.137.002.27.057.422.196 2.102 1.22 5.034 1.03 6.722 2.76 3.348 4.96 1.353 11.24-1.434 15.92-2.155 3.9-4.614 7.84-4.923 12.35-1 .76-2.753 2.9-3.908 1.35.346-10.64 1.14-21.28 1.996-31.89.364-.21.715-.68 1.125-.67zM336.835 313.78c18.298 25.055 45.313 43.367 76.584 50.43h-76.59v-50.43zm210.825 0v50.43h-76.585c31.27-7.063 58.29-25.375 76.585-50.43zm-305.887 50.514c.19-.01.366.01.533.168 2.29 1.088 4.863 1.066 7.23 1.715.238 4.04-1.552 8.025-2.25 12.01-1.728 2.853-6.306 3.606-8.298.563-3.338-4.214-2.977-11.834 2.193-14.43.2.016.4-.02.6-.027zm402.58.393h.253c1.804 3.313 5.657 6.93 4.08 11.11-.842 1.476-1.98 2.69-2.87 4.134-1.76 1.53-5.162.83-6.187-1.09-.72-4.22-2.66-8.45-2.37-12.71 2.33-.46 4.77-.79 7.08-1.43zm-6.497 54.14c-.192-.01-.365-.014-.562.03-5.21.38-11.006 1.905-14.428 6.1-1.825 3.292.345 7.073 3.207 8.805 2.166 1.474 5.317 4.628 2.952 7.228-3.135 3.556-8.02 4.73-12.375 5.99-1.102.338-2.592-.648-3.346.366-1.07.29-1.26-1.165-2.448-.42-2.52 1.013-1.193 4.65.9 5.343 2.508 1.85 6.13.25 9 1.23 4.01.45 8.677 2.83 8.888 7.37.795 3.74-2.24 7.35-6.02 7.48-4.935.8-10.538-.19-14.4-3.46-2.573-2.24-3.264-6.29-6.41-7.82-2.336-.48-3.9 2.83-1.914 4.27 2.823 4.37 5.636 9.3 5.43 14.68-1.14 2.16-3.892.01-5.064-1.13-3.16-2.45-5.706-5.55-8.69-8.21-2.25-.83-4.338 2.5-2.25 4.02 3.717 4.41 8.07 8.63 13.33 11.08 3.007 1.49 6.388-.81 7.004-3.91.93-1.85-.38-4.29.928-5.77 4.45 1.01 9.44 1.87 14.035.53 4.526-.84 8.288-4.648 8.633-9.366.684-5.607-2.98-11.117-8.212-13.16-.85-2.21 2.567-2.136 3.685-3.406 3.91-2.25 6.36-7.48 3.88-11.583-1.4-2.945-4.58-4.46-6.33-6.95.32-3.14 4.43-3.274 6.75-4.02 1.94-.677 5.36-.057 6.05-2.558.27-1.4-.88-2.71-2.23-2.79zm-389.22.03c-2.757.146-2.32 4.22-.03 4.808 3.723.218 8.012.882 11.054 3.488.53 2.018-2.484 2.978-3.544 4.415-3.648 2.742-5.327 8.172-2.475 12.038 1.68 2.615 5.01 3.683 7.15 5.485.3 1.81-2.56 1.76-3.48 3.04-5.99 4.26-6.81 14.89-.17 18.85 5.21 3.17 11.97 2.84 17.67 1.1 2.03.9.29 3.6 1.21 5.32.33 3.41 4.29 6.25 7.46 4.22 5.238-2.43 9.288-6.69 13.138-10.88 1.37-1.6.334-4.47-1.91-4.08-2.55.83-3.65 3.89-5.85 5.35-2.126 2.05-4.39 4.03-7.06 5.34-2.28-.68-1.164-3.81-.926-5.59 1.13-4.115 3.324-7.79 5.6-11.33 1.36-2.12-1.837-4.555-3.487-2.67-2.676 2.1-3.346 5.877-6.216 7.877-3.625 2.6-8.42 3.307-12.797 2.925-3.42-.33-7.235-2.68-6.89-6.55-.16-3.643 2.45-6.75 5.876-7.73 3.473-1.33 7.293-.977 10.883-1.155 1.13-.898 2.56-1.704 3.342-3.01.97-1.838-1.56-4.568-3.092-2.813-1.52-.672-3.57.31-5.23-.73-4.29-1.25-9.45-2.58-11.81-6.72-.7-4.25 4.35-5.69 6.357-8.55 2.104-2.636 1.346-6.794-1.66-8.44-3.744-2.646-8.544-3.854-13.076-3.962zm70.593 23.708c5.81.65 11.64.007 17.49.225 28.78-.186 57.5 3.15 86.28 2.28 39.65.067 79.3.126 118.94-1.07 11.4-.033 22.83-.33 34.2-.76 3.09 1.967 1.4 6.12 2.36 9.056.15 3.036-3.63 3.036-5.77 2.73-25.1 1.39-50.31 1.236-75.43 1.995-32.07.23-64.13.42-96.19-.14-22.05-1.2-44.12-2.4-66.21-1.88-6.51-.13-13.11.28-19.55-.19-2.99-2.7-.16-6.83-.09-10.07.57-1.61 2.363-2.2 3.94-2.16zm-46.05 3.235c-.03-.036-.15.124-.31.562.28-.292.34-.526.31-.562zm241.12 31.47c.34-.063.77.02 1.12.086 3.29.622 6.8 1.225 9.78 2.644 1.16 3.306 5.5 6 4.16 9.9-2.93 3.94-8.79 5.978-13.39 3.712-2.24-.975-4.07-2.74-5.68-4.472 1.73-3.437 3.29-7.183 3.26-11.138.092-.465.38-.666.73-.73zm-143.66.93c1.75-.11 3.06.765 2.81 2.783.3 2.974 1.91 5.603 2.95 8.27-3.1 1.968-5.89 5.26-9.76 5.624-2.21-.065-4.06-1.354-6.19-1.8-3.43-1.18-3.81-5.495-2.17-8.267 1.25-2.253 2.2-5.562 5.26-5.654 2.09-.59 4.09-1.17 6.3-.844.26-.055.53-.096.78-.112zm45.62.533c1.29.064 2.79.395 3.74.113h14.14c1.55 1.486-.46 3.64-1.04 5.287-1.49 3.395-5.63 4.968-8.97 3.292-4.23-1.005-7.4-4.204-10.38-7.173.11-1.362 1.21-1.58 2.5-1.52zm45.81.085c3.36.03 6.74.104 10.07.028 1.7 1.55-1.31 2.83-2.14 4.05-3.67 3.35-9.2 6.68-14.15 3.994-2.72-1.437-4.55-4.824-3.8-7.82 3.29-.265 6.65-.28 10.01-.252" fill="#fff"/></g></svg>