<svg xmlns="http://www.w3.org/2000/svg" width="656.719" height="556.227"><g fill-rule="evenodd"><path d="M53.085 297.035c-1.006.035-1.892.67-2.25 1.61-.91 2.31-1.67 4.302-2.156 6-.49 1.696-1.096 3.014-.13 5 .06.124.135.24.22.36-1.49.224-2.98.6-4.33 1.186-2.05.895-4.396 1.607-6.593 1.97-2.95.49-5.77 1.58-7.547 1.878-1.666.277-2.75 1.135-3.655 1.812-.91.677-1.67 1.25-2.063 1.422-2.852 1.24-4.825 3.433-6.078 4.345-2.156 1.567-3.326 3.42-4.61 4.765-1.163 1.217-1.492 2.465-1.89 3.56-.398 1.097-.842 2.09-.89 2.157-.954 1.332-1.213 2.683-1.454 3.67-.24.987-.44 1.62-.735 2.03-1.918 2.687-2.965 6.296-3.202 9.25-.26 3.233-1.02 5.728-.344 9.783.56 3.37.86 6.993 1.483 10.734.595 3.574.89 7.288 1.516 11.048.63 3.772 1.242 7.488 2.546 11.296.9 2.625.705 6.3 1.33 10.048.466 2.803.768 5.912 1.64 9.014-1.9 2.1-4.275 4.262-6.563 6.61-2.878 2.953-5.67 6.26-6.828 10.484-1.158 4.225-.41 9.186 3.046 14.548 2.726 4.226 7.08 8.817 13.61 14.093-.69.316-1.367.686-2.06 1.077-1.536.866-3.075 1.874-4.375 2.704-.57.36-.7.42-1.156.686-1.22-.53-2.64-.016-3.236 1.17-.174.336-.322.66-.438 1.11-.115.453-.318 1.205.266 2.204.584 1 1.856 1.345 2.453 1.33.598-.02.928-.15 1.235-.27 1.22-.46 2.224-1.177 3.534-2.014-.22.288-.54.687-.72.938-.448.627-.72.987-1 1.656-.068.167-.147.362-.202.704-.054.34-.15.942.33 1.75.477.807 1.596 1.24 2.17 1.25.576.008.837-.12 1.048-.203.844-.333 1.007-.564 1.406-.89.4-.323.832-.71 1.297-1.14 1.07-.99 2.183-2.084 3.19-3.155.036.763.065 1.552.186 2.28.21 1.265.405 1.99.436 2.22.03.228.06.096-.14.75-.406 1.32.335 2.718 1.655 3.125 1.32.405 2.72-.337 3.125-1.657.06-.2.095-.408.14-.61.474 2.1.995 4.382 1.376 6.094.676 3.048 1.19 5.475 1.22 5.64.096.925.696 1.72 1.56 2.064.77.306 1.638.217 2.314-.233.603-.1 1.207-.213 1.812-.313 3.86-.642 7.31-1.52 10.938-2.125.402-.067.807-.14 1.218-.22.043.93.103 1.956.19 3.186.25 3.535.666 8.2 1.11 13.03.44 4.83.91 9.827 1.22 13.97.307 4.144.435 7.627.34 8.64-.81 8.766 1.23 15.145.8 22.298-.263.184-.504.338-.893.593-1.15.756-2.747 1.758-4.39 2.766-1.645 1.01-3.343 2.04-4.735 2.89-1.393.85-2.368 1.438-3 1.89-.75.52-1.162 1.406-1.078 2.314.083.908.65 1.69 1.484 2.062.83.37 1.797.276 2.53-.267.16-.113 1.325-.846 2.705-1.688 1.378-.842 3.072-1.887 4.733-2.906 1.662-1.02 3.29-2.01 4.53-2.83.62-.407 1.15-.77 1.58-1.093.213-.162.393-.314.607-.516.108-.1.22-.2.375-.405.16-.204.475-.434.564-1.39.81-8.754-1.523-15.227-.78-23.25.188-2.05-.03-5.274-.345-9.485-.316-4.21-.777-9.23-1.22-14.06-.44-4.83-.864-9.48-1.11-12.925-.116-1.638-.197-2.982-.217-3.922 4.62-1.078 9.253-2.2 12.733-1.92 7.31.584 13.79-2.044 19.688-2.283 3.667-.15 7.202-.84 10.64-1.655.01 17.026.005 41.987-2.89 56.78-.455 2.325-.78 4.748-.78 7.235h.03c-.1 1.336.425 2.41 1.016 3.267.66.963 1.504 1.804 2.484 2.672 1.96 1.73 4.494 3.49 7.047 5.12 2.556 1.63 5.125 3.123 7.096 4.235.985.556 1.82 1.013 2.42 1.344.302.165.552.3.72.39.084.047.188.11.235.14 1.136.69 2.628.38 3.39-.733.79-1.153.495-2.727-.657-3.517-.393-.266-.346-.21-.53-.31-.186-.103-.42-.227-.72-.39-.596-.33-1.414-.787-2.375-1.33-1.923-1.084-4.424-2.54-6.86-4.093-2.435-1.555-4.81-3.23-6.405-4.64-.798-.707-1.406-1.357-1.688-1.766-.132-.19-.137-.29-.14-.295v-.094c0-2.04.273-4.147.687-6.265 3.174-16.21 3-42.033 2.986-59.015 2.096-.52 4.177-.99 6.203-1.33 3.224-.537 7.553-1.08 10.968-1.56.547.703 1.434 1.093 2.375.935 1.166-.196 2-1.167 2.08-2.297.407-.515.623-1.175.53-1.876-.087-.66-.43-1.22-.905-1.61-.222-1.776-.49-3.933-.844-6.92.053.08.1.17.157.25.785 1.137 2.345 1.425 3.484.64 1.14-.786 1.426-2.346.64-3.485-.39-.564-.32-.445-.36-.67-.04-.23-.083-1-.264-2.27-.107-.732-.32-1.49-.518-2.232 1.285.717 2.676 1.437 4 2.06.573.27 1.1.5 1.58.69.476.187.7.37 1.606.436.226.017.518.06 1.063-.123.547-.18 1.477-.946 1.688-1.86.213-.914-.062-1.456-.22-1.765-.154-.31-.287-.47-.405-.61-.466-.55-.834-.8-1.45-1.264-.25-.186-.685-.475-.986-.686 1.512.403 2.693.787 4 .858.328.018.676.04 1.25-.125.575-.163 1.683-.886 1.937-2.015.256-1.128-.16-1.777-.405-2.172-.248-.395-.486-.656-.75-.92-.926-.945-2.425-1.006-3.423-.143-.52-.117-.665-.135-1.33-.312-1.49-.397-3.258-.89-4.983-1.25-.787-.164-1.554-.312-2.312-.405 4.627-7 7.4-12.7 8.72-17.55 1.673-6.154.897-11.12-1.485-14.796-2.38-3.677-6.05-5.98-9.687-7.92-3.576-1.915-7.204-3.51-9.907-5.346-.552-3.55-.877-7.105-1.5-10.845-.69-4.152-1.63-7.957-2.28-11.86-.658-3.955-1.297-7.657-1.296-11.312 0-1.424-.15-2.835-.374-4.22 1.36-.403 2.77-.818 4.25-1.264 1.915-.58 3.768-1.15 5.17-1.58 1.406-.43 2.125-.635 2.518-.765 1.23-.363 1.984-1.6 1.75-2.86-.233-1.26-1.38-2.135-2.656-2.03-.23.014-.454.06-.67.14.167-.057-1.006.305-2.406.733-1.4.43-3.248 1-5.157 1.58-1.306.393-2.557.765-3.81 1.14-.226-1.016-.426-1.984-.578-2.89-.653-3.927-2.207-7.666-3.437-10.91-1.314-3.464-2.584-6.666-3.86-10.03-1.52-4.01-4.364-7.255-7.125-9.89-3.285-3.137-6.836-4.097-9.39-5.92-2.338-1.67-5.39-2.51-8.188-2.877.625-.375 1.29-.74 1.97-1.08 2.648-1.315 5.618-2.33 7.577-2.655 1.286-.21 2.2-1.37 2.09-2.672-.105-1.3-1.192-2.302-2.5-2.297-.14 0-.28.01-.42.03-2.737.457-5.956 1.62-8.985 3.127-2.88 1.433-5.525 3.095-7.327 5.204-1.23-.072-2.336-.19-3.018-.39.965-1.83 2.564-4.087 3.58-5.453.36-.49.605-.57.983-1.625.094-.264.316-.645.093-1.546-.11-.452-.44-1.025-.906-1.39-.465-.367-.96-.495-1.31-.532-1.4-.145-1.447.22-1.75.376-1.21.62-2.624 1.692-5.735 3.953-1.468 1.067-2.596 1.787-3.53 2.344.405-1.324 1-2.973 1.81-5.032.32-.784.22-1.68-.266-2.374-.487-.692-1.295-1.09-2.14-1.06zm12.14 6.625c.023-.01.015.054-.156.11l.152-.11zm-5.468 10.47c.6-.005 1.006.02.985.015 2.807.864 6.107.717 8.375.72 2.407 0 7.593 1.16 9.03 2.186 3.437 2.46 6.597 3.34 8.844 5.488 2.5 2.385 4.82 5.165 5.91 8.03 1.296 3.42 2.566 6.62 3.86 10.032 1.26 3.327 2.666 6.834 3.187 9.97.193 1.153.443 2.302.688 3.452-.088.023-.268.078-.328.095-.915.167-1.663.83-1.938 1.718-.277.888-.035 1.86.625 2.515.658.657 1.628.89 2.514.61.02-.005.06-.01.08-.016.15.995.25 1.94.25 2.814 0 2.378.232 4.678.545 6.937-4.847 5.142-6.198 5.486-12.953 6.61-7.683 1.28-16.26-.913-23.47-4.39-.48-.233-1.82-1.384-2.86-2.546-.517-.585-.994-1.176-1.39-1.66-.395-.482-.53-.716-1.092-1.25-.543-.527-1.275-.815-2.032-.796-1.143.03-2.16.74-2.562 1.812-.403 1.072-.108 2.288.733 3.063-.27-.255.203.24.61.734s.937 1.145 1.546 1.827c1.22 1.368 2.612 2.898 4.61 3.86 7.92 3.82 17.488 6.446 26.827 4.89 5.636-.936 9.194-2.106 13.11-5.42.656 3.563 1.464 6.898 2.033 10.313.626 3.765.946 7.594 1.624 11.67l1.828 11c.3 1.807.527 3.68.766 5.58-6.135-.21-13.772 1.532-21.686 3.53-8.443 2.13-17.15 4.632-23.86 5.75-9.664 1.61-19.565 1.767-29.22 3.375-3.208.533-7.005-.9-12.218-.157-.14-.072-.35-.213-.875-.374-.002-.003-.01 0-.014 0-.206-1.247-.416-2.492-.624-3.735-.572-3.444-.61-7.28-1.75-11.313.398-.72.418-1.61.033-2.36-.234-.45-.59-.797-1.018-1.03-.542-2.32-.84-4.91-1.28-7.548-.48-2.886-.172-6.865-1.532-10.83-1.134-3.31-1.715-6.73-2.343-10.5-.58-3.48-.89-7.205-1.53-11.048-.577-3.463-.86-7.095-1.47-10.75-.523-3.142.093-4.83.39-8.547.15-1.853 1.257-5.315 2.28-6.75.977-1.363 1.287-2.752 1.533-3.766.247-1.014.46-1.64.673-1.937.863-1.21 1.145-2.342 1.515-3.36.37-1.018.854-1.87.798-1.812 1.685-1.762 2.716-3.3 3.937-4.186 1.948-1.416 3.67-3.165 5.125-3.798 1.346-.586 2.273-1.398 3.06-1.984.788-.588 1.41-.875 1.5-.892 2.678-.446 5.367-1.53 7.53-1.89 2.648-.44 5.334-1.255 7.768-2.312 1.46-.635 4.5-1.063 6.64-1.063 1.4 0 2.954-.277 4.515-.454.78-.09 1.574-.12 2.173-.124zm14.03 31.936c-.472.01-1.05.114-1.656.516-.803.537-1.244 1.573-1.31 2.36-.064.837-.26 1.882.19 3.234.224.676.733 1.5 1.578 1.984.844.485 1.82.547 2.672.406 1.022-.17 1.947-.48 2.717-1.22.77-.737 1.122-1.944 1.032-2.826-.18-1.766-1.128-2.668-1.86-3.406-.305-.307-.69-.518-1.11-.61-.054-.012-.766-.333-1.814-.422-.13-.01-.278-.018-.437-.016zm39.188 56.14c2.182 1.164 4.418 2.208 6.485 3.314 3.385 1.81 6.242 3.76 7.844 6.234 1.6 2.473 2.27 5.572.86 10.766-1.265 4.647-4.33 10.836-9.97 18.92-.124-.953-.218-1.713-.296-2.186-.538-3.227-.2-6.79-.875-10.844l-1.58-9.47c-.592-3.56-.913-7.466-1.562-11.358-.293-1.792-.6-3.583-.902-5.375zM15.32 415.74c.336 2.33.513 4.826.952 7.467l1.782 10.688c.532 3.202 1.24 5.532 1.734 8.5.462 2.775 1.45 4.946 1.78 6.937.112.672.447 2.2.892 4.203-7.52-5.83-12.15-10.68-14.703-14.64-2.916-4.524-3.2-7.675-2.422-10.516.778-2.846 2.9-5.568 5.578-8.317 1.393-1.43 2.916-2.847 4.406-4.327zm93.186 3.25c.674-.01 1.314.016 1.907.06.037.235.07.47.11.704l1.577 9.468c.538 3.225.185 6.79.86 10.844.218 1.308 1.063 8.293 1.844 14.938.477 4.07.9 7.822 1.234 10.593-3.267.455-7.512 1-10.797 1.548-7.55 1.257-14.594 3.915-21.28 4.187-7.07.288-13.33 2.76-19.09 2.297-6.917-.558-14.576 2.35-20.157 3.28-3.894.65-7.36 1.54-10.953 2.14l-.453.08c-.205-.94-.443-2.028-.75-3.41-.68-3.058-1.548-6.95-2.423-10.844-.874-3.894-1.746-7.783-2.42-10.814-.675-3.03-1.2-5.457-1.22-5.562-.47-2.824-1.46-5.002-1.78-6.92-.547-3.29-1.24-5.628-1.72-8.5-.086-.527-.177-1.053-.265-1.58.112-.007.24-.026.36-.046 3.942-.657 7.663.962 12.686.125 1.987-.33 4.02-.598 6.077-.83 0 .316.03.986.423 1.89 1.008 2.322 2.988 6.727 4.983 10.39.997 1.833 1.964 3.465 2.984 4.705.51.617.963 1.174 1.908 1.64.473.23 1.167.444 1.984.296.82-.15 1.56-.72 1.94-1.25 1.01-1.413 3.89-5.996 6.75-10.265 1.255-1.876 2.47-3.614 3.42-4.89.34.82.863 1.54 1.5 2.015 1.133.84 2.37 1.285 3.69 1.47-.856.843-1.205 1.82-1.47 2.92-.28 1.16-.43 2.523-.485 4.236-.205 6.324.546 10.142 2.454 14.53.77 1.78 1.408 3.975 2.686 5.782.32.452.7.92 1.313 1.33.61.406 1.58.71 2.514.544 1.87-.332 2.632-1.645 3.344-3.015.334-.64.635-1.39 1.095-2.563.46-1.173 1.006-2.616 1.518-4.048.51-1.43.988-2.847 1.328-4.016.17-.585.3-1.098.39-1.593.05-.25.1-.482.11-.797.015-.314.176-.682-.405-1.64-.485-.797-2.562-4.492-4.5-7.812-.97-1.66-1.92-3.246-2.672-4.437-.094-.145-.18-.27-.267-.404.336-.264.63-.568.814-.875.426-.72.515-1.342.56-1.89.093-1.1-.063-2.035-.17-2.86-.05-.384-.055-.46-.08-.734.514.277 1.12.372 1.704.25.234.1.375.14.78.36 1.32.714 3.253 1.946 5.235 3.296 1.98 1.35 4.026 2.82 5.686 4.064 1.66 1.24 3.045 2.365 3.25 2.56.406.39 1.037.836 1.937.924.9.086 1.826-.35 2.313-.798.973-.895 1.096-1.64 1.312-2.437.433-1.594.607-3.53.72-5.64.11-2.115.12-4.35.077-6.268-.044-1.916-.122-3.378-.298-4.437-.09-.55-.177-1.104-.266-1.656 2.42-.383 4.64-.615 6.547-.64zm-11.468 1.56c.087.516.18 1.03.266 1.547.056.343.177 1.932.22 3.735.04 1.803.022 3.943-.08 5.89-.058 1.114-.196 1.76-.313 2.625-.46-.352-.65-.546-1.214-.968-1.72-1.29-3.82-2.808-5.875-4.207-2.057-1.4-4.054-2.67-5.672-3.547-.81-.44-1.478-.79-2.28-1.016-.248-.07-.518-.153-.876-.172 2.68-.7 5.375-1.406 8.03-2.077 2.67-.672 5.288-1.29 7.8-1.81zm-17.64 4.376c-.158.104-.31.223-.454.375l-.125.14c-.125-.06-.247-.11-.38-.152-.082-.025-.195-.03-.312-.03l1.267-.33zm-15.72 3.484c-.332.375-.643.795-1.015 1.28-1.132 1.476-2.545 3.516-4 5.69-2.304 3.44-4.07 6.185-5.282 8.03-.534-.794-1.073-1.56-1.73-2.765-1.854-3.406-3.826-7.75-4.8-9.985.09.2.068-.01 0-.42 5.47-.51 11.108-.946 16.83-1.83zm8.485 1.08c.49-.005 1.26.062 2.016.155.132.016.24.044.37.062.04.345.036.765.078 1.094.052.397.04.56.063.88-1.912.094-3.43-.205-3.78-.36.098-.28.485-.93 1.25-1.828zm2.53 12.467c1.026 1.433 2.177 3.677 3.205 5.938-.717-.7-1.448-1.43-1.782-1.89-.477-.658-.605-.966-1.39-1.564l-.25-.17c.002-.073-.003-.123 0-.2.03-.98.13-1.49.218-2.11zm49.032 1.11c.01-.015.08.015.14.124-.014-.01-.115-.08-.124-.09-.01-.01-.02-.026-.012-.03zm-44.53 12.093c.098.046.194.1.296.14-.042.13-.09.232-.14.36-.05-.163-.092-.334-.153-.5zm-61.016 1.985c.013-.015.022.005.01.03-.004.01-.07.095-.077.11.018-.078.044-.126.063-.14" fill="#fff"/><path d="M508.427 166.75c-6.153-1.204-11.568.347-15.685-1.743-.084-.038-.168-.072-.253-.098-12-4.08-27.008 2.18-39.21 10.25-17.35 11.463-30.406 26.75-36.406 56.332-5.034 24.82-3.277 36.18 3.103 59.35 4.712 17.11 15.517 27.49 23.19 37.16 7.07 8.91 15.14 11.78 23.002 12.82 7.86 1.04 15.65.385 22.603 1.745 16.14 3.156 33.875-7.996 48.078-10.627 9.08-1.682 16.825-12.337 22.773-24.954 5.946-12.62 10.09-27.345 11.337-38.975 2.637-24.59-.263-49.932-11.392-70.2-12.58-22.914-34.8-27.87-51.144-31.063m39.606-90.45c-48.773 1.47-97.586 3.05-146.376 4.094-23.878.775-58.81.437-79.47-1.343-15.1-2.122-10.718 22.264-10.25 36.094 1.575 19.057 2.195 38.177-.593 57.157-1.51 30.866-2.795 62.11 3.567 92.563 4.16 20.783-2.845 41.444-1.53 62.34.37 21.265-3.976 42.297-2.283 63.594.674 14.6-4.996 39.098 17.783 34.47 8.397-.62 16.73-1.98 25.062-3.25l15.215 1.73c29.884-1.297 58.627.27 89.192.894 21.562-.17 47.157 1.96 64.75-.157 14.688-3.85 31.442-.03 44.615-3.66 13.174-3.63 1.973-17.92 3.01-35.56 1.038-17.633 4.673-46.28 2.126-72.53-4.01-13.77-.225-27.503 2.156-41.56.403-22.42 3.24-55.355-.03-75.5-.677-21.04.792-27.98.994-44.875.205-16.897-.472-60.45-4.306-72.125-6.19-2.093-17.154-2.27-23.625-2.374zm-183.75 5.47c2.344-.02 1.717 1.936 1.78 2.874 1.32.84 9.856-2.164 13.97 0 5.133 2.236-2.346 2.42-4.876 1.407-5.952-1.58-7.214 3.225-11.28 3.406-.644-5.87-8.283.09-13.19-2.812-4.685 4.076-9.645-2.265-14.343-.093-3.57-3.522 7.53-3.074 9.505-.562 3.537-2.992 8.527.787 12.218-1.344 4.587.61 3.87-1.24 6.22-2.874zm140.874.218c3.51.28.833 3.22 1 4.593-3.69 2.964-1.81-3.09-6.438-1.468-7.597 1.193-15.157.46-22.843.403-4.486-3.344 7.497-2.17 10.437-1.625 5.77-.966 13.288.26 17.844-1.907zm6.47.906c4.007 1.173 9.827.526 14.592.876 7.43-1.11 14.498-.2 21.5-.25 6.023.12 2.474 4.35-1.687 1.844-6.73-.07-13.74-.15-20.88.56-4.073-.78-17.994 1.28-13.53-3.03zm-47.783.78c2.496.46 7.206-.08 8.41 1.47-2.562 2.708-10.255-.643-14.624 1.345-7.27-.56-14.243.512-21.53.437-4.704-1.6-14.053.776-16.22-2.28 6.65-2.192 15 1.1 22.375.19 7.1-1.38 14.535.543 21.594-1.157zm-67.59.315c.65-.014 1.215-.008 1.595 0 3.49-.058 6.818.83 10.343.437 3.644-1.643 11.594 2 4.563 2.097-8.164.32-16.234-.87-24.375.093-6.378-1.86 3.317-2.53 7.875-2.625zm103.78 6.375c2.23.102 1.51 1.945 1.627 2.872 1.335.827 9.856-2.18 13.97-.032 5.044 2.15-2.428 2.55-4.908 1.408-5.964-1.595-7.204 3.266-11.28 3.436-.635-5.875-8.29.063-13.19-2.844-4.7 4.068-9.643-2.23-14.344-.062-3.57-3.523 7.553-3.12 9.53-.625 3.53-2.88 8.527.87 12.22-1.28 4.696.677 3.777-1.41 6.375-2.876zm-118.842.184c1.075-.067 1.57.61 2 1.125 7.446-.845 14.426 1.93 21.844.22 5.714-1.745 8.465 3.43 1.438 1.97-7.862 1.81-15.27-.65-23.157-.066.52 5.684-7.29-2.026-2.124-3.25zm-6.437.875c6.696 3.535-6.8 2.53-9.28 2.94-6.7 1.13-13.56-1.915-19.91-.19-3.03-1.09-9.933 2.135-10.154-1.126 5.996-1.146 12.658-1.68 19.344-1 6.52.428 14.21.55 20-.625zm46.22.72c.577-.01 1.075-.028 1.53.06 5.485 1.215 11.074.604 16.656.563 8.264 1.704 16.634-.413 24.97-.25 6.93 1.185-2.394 3.064-5.5 2.187-7.49 1.37-15.206.598-22.69.19-6.228 1.23-12.27-1.5-18.374-.095-6.7-.39-.643-2.58 3.408-2.656zm110.84.404c.654-.014 1.216-.01 1.596 0 3.493-.064 6.82.86 10.344.47 3.635-1.642 11.59 1.928 4.56 2.03-8.166.33-16.198-.834-24.343.125-6.378-1.86 3.287-2.53 7.843-2.624zM364.28 98.36c2.344-.02 1.717 1.936 1.78 2.874 1.32.84 9.856-2.165 13.97 0 5.133 2.235-2.346 2.418-4.876 1.406-5.952-1.58-7.214 3.194-11.28 3.375-.644-5.87-8.284.12-13.19-2.78-4.685 4.074-9.645-2.266-14.343-.095-3.57-3.523 7.52-3.095 9.505-.594 3.533-2.984 8.526.81 12.218-1.312 4.587.608 3.87-1.24 6.22-2.875zm57 .217c1.092-.072 1.57.62 2.03 1.125 7.446-.838 14.458 1.902 21.875.188 5.624-1.65 8.5 3.386 1.406 1.97-7.86 1.81-15.295-.65-23.183-.064.522 5.68-7.29-1.985-2.125-3.22zm90.343.875c4.01 1.173 9.83.557 14.594.907 7.428-1.11 14.497-.2 21.5-.25 6.022.12 2.473 4.314-1.688 1.81-6.73-.07-13.74-.15-20.88.56-4.07-.78-17.99 1.27-13.53-3.03zm-50.563.625c.57-.005 1.116.057 1.563.157 5.02.973 10.264.923 15.406.468 7.755 1.424 15.642.38 23.434-.156 5.017-1.6 7.69 3.02 1.406 2.03-8.02.18-16.124 1.893-24.093.283-7.1 1.07-14.176-1.016-21.126-.036-6.632-.367-.594-2.712 3.408-2.75zm-64.812.47c.65-.015 1.214-.008 1.594 0 3.49-.058 6.818.86 10.343.468 3.644-1.533 11.766 1.962 4.563 2.062-8.163.327-16.234-.87-24.375.094-6.378-1.853 3.32-2.522 7.875-2.62zm24.75 4.812h42.062c2.16.38 4.28.92 6.313 1.652h-54.22c1.887-.71 3.86-1.25 5.845-1.656zm-8.438 2.75h59.47c1.024.482 2.008 1.034 2.968 1.652H409.56c.97-.605 1.96-1.163 3-1.656zm-5.094 3.12h69.563c.64.51 1.275 1.038 1.87 1.626h-73.37c.62-.583 1.263-1.11 1.937-1.626zm-3.593 3.313h76.72c.352.5.592 1.044.78 1.625H402.56c.416-.57.85-1.1 1.313-1.625zm-2.063 2.75h79.875c.144.558.273 1.114.47 1.656-27.108 0-54.237.002-81.345 0 .09-.163.178-.318.28-.468.23-.408.473-.8.72-1.188zm-1.625 3.094h82.72c.452.62.975 1.15 1.53 1.624H399.59c.223-.512.392-1.062.595-1.624zm-3.562 3.31h90.375c1.29.65 2.66 1.16 4.062 1.658h-98.5c1.315-.65 2.67-1.214 4.063-1.658zm-6.125 2.783H494.06c1.113.46 2.176.99 3.156 1.657H387.998c.802-.59 1.642-1.147 2.5-1.657zm-4.313 3.094h54c-1.662.53-3.335.83-3.72.97-.665.243-1.387.488-2.123.687h-49.907c.563-.57 1.143-1.13 1.75-1.655zm57.875 0h54.906c.14.147.274.28.407.438.326.386.617.81.906 1.22H449.9c-.725-.198-1.466-.42-2.125-.658-.39-.14-2.05-.47-3.72-1zm-61.156 3.344h42.688c-.045.24-.063.53-.063.97 0 .217-.016.442-.035.656H381.62c.406-.564.836-1.092 1.28-1.625zm75.78 0h42.69c.32.54.607 1.07.905 1.626h-43.44c-.02-.214-.065-.44-.065-.656 0-.44-.047-.73-.095-.97zm-24.718 1.5c2.598-.016 5.114 1.067 7.563 1.876 3.74 2.206 10.12-.8 11.902 4.53-.48 2.57 1.156 4.655 3.75 4.314 4.42-.156 10.54-1.543 12.75 3.844 1.85 2.77-.39 5.102-1.187 7.53 3.156-.39 6.57 2.71 5.406 6.25.245 2.39-3.85 2.85-3 4.845 4.765 2.96 4.046 9.35 3.845 14.373-.474 15.013-.435 30.047-.438 45.093-1.057 17.365-.33 34.9-1.876 52.22h20.095c-.08.555-.213 1.107-.345 1.655h-19.936c-.036.368-.056.73-.094 1.095h19.75c-.174.564-.364 1.114-.594 1.656h-19.344c-.053.48-.097.96-.156 1.44h18.78c-.31.57-.62 1.13-.998 1.653h-17.97c-.026.198-.067.396-.093.594-1.14.5-2.34.87-3.532 1.093h20.187c-.6.608-1.26 1.18-1.97 1.657h-89.655c-.51-.555-1.042-1.106-1.562-1.657h4.22c-.772-.367-1.478-.918-2.127-1.688h-3.56c-.432-.522-.826-1.082-1.188-1.656h4.5c-.034-.48-.062-.96-.094-1.44h-5.063c-.022-.55-.04-1.102-.06-1.655h4.97c-.024-.364-.01-.725-.032-1.092h-5c-.022-.55-.04-1.102-.062-1.655h4.937c-.034-.55-.06-1.105-.094-1.656h-4.907c-.022-.55-.07-1.11-.094-1.657h4.94c-.03-.488-.07-.984-.096-1.47h-4.875c-.02-.553-.073-1.073-.095-1.625h4.875c-.018-.376-.04-.75-.06-1.126h-4.845c-.02-.555-.01-1.106-.03-1.658h4.812c-.028-.554-.068-1.105-.094-1.658h-4.813l-.06-1.625h4.78c-.023-.488-.04-.98-.063-1.47h-4.78c-.02-.553.018-1.105 0-1.657h4.718c-.015-.367-.048-.728-.063-1.094h-4.717c-.02-.555-.044-1.137-.063-1.69h4.72c-.016-.394-.017-.76-.032-1.156h-4.72c-.017-.547-.075-1.11-.093-1.655h4.75c-.017-.49-.015-.95-.03-1.44h-4.75c-.018-.55-.015-1.104-.032-1.656h4.72c-.013-.366-.022-.76-.033-1.125h-4.72c-.016-.55-.045-1.11-.06-1.657h4.718c-.016-.555-.046-1.104-.063-1.658h-4.72c-.015-.547-.045-1.108-.06-1.656h4.75c-.013-.487-.02-.98-.032-1.47h-4.75c-.016-.55-.016-1.102-.03-1.655h4.748c-.007-.366-.02-.727-.03-1.094h-4.75c-.015-.546-.016-1.076-.03-1.624h4.75c-.013-.562-.052-1.125-.063-1.687h-4.75c-.014-.55-.018-1.08-.032-1.626h4.75c-.01-.487-.022-.98-.03-1.47h-4.75c-.015-.55-.05-1.102-.063-1.654h4.78c-.006-.365.007-.727 0-1.093h-4.78c-.014-.552-.018-1.104-.032-1.656h4.813c-.01-.552-.024-1.1-.03-1.654h-4.845l-.03-1.688h4.845c-.006-.487-.025-.95-.03-1.437h-4.845c-.013-.553-.05-1.104-.063-1.657H395c-.004-.356.005-.737 0-1.093h-4.905c-.012-.555-.02-1.106-.032-1.66h4.906c-.01-.55.002-1.102 0-1.655h-4.91l-.03-1.656h4.906c-.005-.488.005-.985 0-1.47H390c-.01-.55-.05-1.105-.062-1.657h4.97c-.003-.366.002-.73 0-1.095h-4.97l-.03-1.656h4.968c-.004-.554.004-1.104 0-1.656h-4.938c.06-.6.064-1.164-.062-1.658h4.97c-.005-.488 0-.98-.002-1.468h-5.998c-.33-.212-.713-.36-1.22-.438-1.784-.557-3.613-.92-5.437-1.187h12.653c0-.368.004-.73.002-1.095H356.28c-.443-.06-.873-.175-1.313-.25-.14.062-.3.182-.438.25h-25.88c-.217-.54-.393-1.094-.563-1.656 22.244-.003 44.507 0 66.75 0-.003-.565-.027-1.126-.03-1.69H327.62c-.125-.543-.18-1.106-.28-1.655h67.467c-.003-.488.002-.95 0-1.438h-67.75c-.088-.55-.17-1.11-.25-1.657 22.652 0 45.315.002 67.97 0-.004-.374 0-.75 0-1.124H326.65c-.055-.547-.1-1.096-.125-1.656h68.25c-.004-.554-.03-1.103-.033-1.656h-68.25c.005-.548.026-1.11.062-1.658h68.187c-.002-.478-.03-.96-.03-1.437h-68.03c.065-.55.154-1.11.25-1.656 22.595-.003 45.19 0 67.78 0 .003-.02.003-.045.003-.064.062-.346.088-.708.125-1.06-22.562 0-45.124.03-67.687.03.127-.558.277-1.11.44-1.656 22.46-.003 44.917.003 67.376 0 .005-.543 0-1.105-.032-1.657h-66.78c.215-.56.454-1.12.718-1.655h31.313c1.605.42 3.22.684 4.906.75 3.003-.11 5.898-.36 8.877.157-.458-.33-.953-.618-1.438-.906h22.25c-.05-.486-.13-.98-.19-1.47h-24.78c-1.088-.536-2.206-1.032-3.25-1.624h27.874c-.046-.376-.114-.75-.156-1.125h-29.47c-.678-.484-1.296-1.032-1.876-1.655h31.22c-.045-.557-.08-1.137-.094-1.687H360.43c-5.045-2.31-11.204-.064-16.625-.283-1.988.05-3.923-.432-5.626-1.343 18.626-.004 37.246-.03 55.873-.034.025-.48.085-.97.155-1.438h-58.15c-.58-.498-1.12-1.023-1.594-1.625h60.094c.114-.386.248-.75.406-1.125h-61.25c-.317-.52-.613-1.085-.843-1.656 20.996-.003 42.006 0 63 0 .216-.32.425-.63.688-.94.484-.218.84-.46 1.094-.718h-65.28c-.12-.545-.225-1.085-.283-1.625 21.925 0 43.83.002 65.753 0-.182-.29-.46-.595-.844-.906-.2-.19-.375-.39-.53-.593H332c-.01-.547.046-1.08.093-1.624 21.19-.002 42.37 0 63.562 0-.098-.367-.182-.75-.188-1.125h-63.28c.082-.55.182-1.08.312-1.624h63.25c.184-.596.472-1.165.84-1.687h-22.656c.01-.544.016-1.075.03-1.626h24.252c.648-.44 1.38-.765 2.156-.906-.088-.19-.176-.38-.28-.564H374.03c.023-.546.057-1.073.093-1.624h24.906c-.25-.37-.515-.737-.72-1.125h-24.097c.048-.547.06-1.14.125-1.687h23.376c-.038-.25-.075-.51-.063-.78.05-.304.14-.603.22-.876h-23.28c.094-.55.225-1.082.345-1.625h23.625c.373-.61.846-1.097 1.375-1.5H375.31c.158-.558.334-1.084.53-1.626h29.877c.75-.024 1.5-.032 2.25 0h.625c.012.018.018.048.03.064 1.266.074 2.497.18 3.563.25 3.436.665 3.018-2.805 3.906-5.22-.83-.03-1.643-.094-2.433-.094-2.018 0-4.03-.087-5.72.032-.096.18-.19.347-.28.53h-29.5c.215-.3.417-.588.656-.875.11-.257.226-.495.345-.75h37.563c.037-.044.056-.113.094-.155 1.68-.588 3.48-.936 5.28-1.283H379.91c.31-.567.617-1.114.97-1.657h44.435c-.1.403-.225.766-.405 1.125 2.73-.51 5.427-1.115 7.937-2.28.375-.052.753-.092 1.125-.095zm25.032 1.25h43.844c.29.556.61 1.106.906 1.657h-44.03c-.322-.498-.57-1.052-.72-1.656zm2.187 3.095h43.375c.33.56.69 1.09 1.063 1.625H475.28c-.11-.2-.193-.403-.282-.594-1.34-.016-2.78.03-4.25.03-2.24 0-4.724.324-7.094-.124-.833-.157-1.686-.432-2.47-.937zM350.03 140.17c.762-.015 1.524.054 2.28.22h-4.156c.616-.126 1.246-.205 1.875-.22zm184.03.095c.472-.004.96.046 1.438.125h-2.72c.432-.07.843-.12 1.282-.125zm-189.968 1.812h11.812c.752.498 1.424 1.028 2.094 1.625H342.06c.61-.618 1.3-1.148 2.03-1.625zm33 0h29.843c-.06.163-.102.307-.156.47.224.347.412.687.81 1.155h-31.31c.24-.556.515-1.093.81-1.625zm99.437 0h30.152c.32.534.63 1.068.938 1.625h-30.84c.148-.222.217-.42.374-.875-.212-.295-.427-.548-.625-.75zm51.965 0h11.03c.843.492 1.636 1.032 2.407 1.625H526.28c.693-.6 1.448-1.146 2.218-1.625zm-187.375 2.75h18.03c.52.53 1.046 1.058 1.533 1.625h-20.687c.105-.142.177-.266.28-.406.245-.42.546-.83.845-1.22zm134.72 0h32.374c.278.542.564 1.068.813 1.625h-34.095c.21-.612.545-1.15.906-1.625zm49.25 0h18.22c.582.52 1.123 1.052 1.656 1.625h-21.313c.456-.557.91-1.092 1.438-1.625zm-50.406 3.094h34.906c.21.55.4 1.1.565 1.66H475.09c-.252-.406-.436-.89-.436-1.437 0-.073.03-.145.03-.22zm47.813 0h23.718c.427.538.833 1.095 1.22 1.66h-26.188c.408-.56.837-1.117 1.25-1.656zm-183.594.035h23c.436.545.882 1.072 1.313 1.625h-25.47c.377-.557.773-1.087 1.157-1.626zm-2.25 3.282h27.813c.437.556.922 1.147 1.375 1.687h-30.155c.32-.556.625-1.143.97-1.686zm140.875 0c11.022-.002 22.037 0 33.06 0 .114.552.226 1.132.28 1.687h-30.03c-.05-.34-.113-.71-.187-1.03-1.35-.12-1.585-.235-2.75-.53-.13-.035-.243-.09-.373-.126zm42.467 0h28.5c.313.536.597 1.13.875 1.687-10.197.002-20.367 0-30.563 0 .422-.544.78-1.13 1.187-1.686zm-184.97 2.812h31.75c.51.565 1.077 1.103 1.626 1.624h-34.186c.26-.55.523-1.083.813-1.624zm145.032 0h30.874c.016.55-.004 1.075-.06 1.624h-32.5c.314-.326.65-.66 1.03-.936.255-.22.437-.45.657-.688zm37.843 0h32c.24.535.512 1.044.72 1.593-11.388 0-22.803.03-34.19.03.51-.524 1-1.054 1.47-1.623zm-40.563 3.062c11.1-.002 22.215 0 33.314 0-.124.556-.284 1.107-.5 1.656h-33.154v-.063c-.01-.562.13-1.103.344-1.593zm37.564 0h36.22c.17.54.3 1.108.438 1.656h-39.03c.845-.474 1.635-1.035 2.374-1.656zm-181.31.03h36.502c.35.268.723.508 1.094.75.356.166.92.577 1.47.876h-39.688c.178-.55.406-1.084.625-1.625zm143.91 3.28h74.435c.103.548.182 1.11.25 1.658-24.405.002-48.813-.002-73.218 0-.557-.405-1.085-.958-1.47-1.656zm2.842 2.783h71.97c.045.545.055 1.083.032 1.625-23.694.003-47.4-.002-71.094 0-.004-.206 0-.417 0-.625v-.562c-.43-.115-.677-.263-.907-.437zm.938 3.094h70.905c-.086.555-.19 1.115-.343 1.655-23.494.003-46.975-.002-70.47 0-.02-.547-.078-1.1-.093-1.656zm.155 3.312c23.284-.004 46.53 0 69.813 0-.242.564-.53 1.095-.844 1.623-22.98.002-45.958-.003-68.938 0-.018-.542-.008-1.074-.03-1.625zm.063 2.78h68.156c-.426.58-.892 1.12-1.406 1.624-22.238.002-44.482-.003-66.72 0v-.094c0-.5-.018-1.02-.03-1.53zm.03 3.06h64.938c-1.105.746-2.352 1.315-3.687 1.658h-.315c-4.544-1.42-9.612-2.075-14.313-.626-.73.173-1.46.377-2.156.625h-44.5c.01-.547.03-1.1.03-1.66zm-147.874 3.345h11.344c1.437.48 2.87 1.058 4.28 1.656H331.81c.57-.595 1.17-1.15 1.844-1.654zm147.813 0h40.78c-.984.52-1.917 1.076-2.874 1.656h-38.03c.047-.546.102-1.1.127-1.654zm57.375 0h12.656c.76.446 1.446 1.016 2.062 1.656h-18.906c1.364-.63 2.768-1.2 4.188-1.654zm-57.594 2.75h36.312c-.895.556-1.785 1.12-2.687 1.656h-33.84c.09-.55.157-1.1.218-1.654zm51.156 0h22.094c.38.518.706 1.08 1 1.656h-26c.963-.57 1.906-1.126 2.906-1.654zm-201.563.03h21.003c1.303.57 2.588 1.11 3.906 1.626h-26.096c.35-.57.775-1.1 1.188-1.623zm150.034 3.095h31.375c-.39.202-.76.41-1.16.595 2.88-.01 5.756-.35 8.628-.594h36.405c.19.54.353 1.1.468 1.66-25.255.002-50.52-.003-75.78 0-.006-.54.024-1.097.064-1.657zm.03 3.314h75.938c.21.54.424 1.068.596 1.625-25.463 0-50.942-.005-76.406 0-.055-.54-.082-1.054-.125-1.627zm.25 2.75c25.54-.002 51.055 0 76.595 0 .14.542.27 1.073.373 1.625-25.628 0-51.248-.005-76.875 0-.016-.517-.04-1.055-.095-1.627zm.126 3.093h77.092c.067.546.096 1.107.125 1.656-25.738.002-51.482 0-77.22 0-.005-.544.007-1.102 0-1.657zm0 3.312h77.25c-.016.547-.07 1.11-.127 1.656-25.718.003-51.44-.002-77.156 0 .024-.537.03-1.096.03-1.656zm-.096 2.75h77.063c-.09.55-.145 1.145-.282 1.687-25.652.002-51.346-.003-77 0 .015-.097.047-.217.063-.313.072-.44.113-.91.154-1.375zm-.375 3.125h76.75c-.158.546-.36 1.11-.564 1.656-25.425.006-50.857 0-76.282 0 .012-.54.048-1.1.094-1.653zm-.096 3.344h75.594c-.26.555-.568 1.085-.876 1.623-9.485 0-18.952.03-28.437.03-3.183-.437-6.374-.325-9.594 0h-36.59c-.03-.547-.08-1.09-.094-1.655zm-151.562 2.75h23.375c-.857.52-1.714 1.063-2.564 1.623H330.15c-.36-.525-.717-1.057-1-1.625zm151.72 0h28.124c-4.725.65-9.484 1.114-14.188.404-.003.407.002.81 0 1.22h-13.876c-.025-.543-.03-1.07-.062-1.626zm50.874 0h23.062c-.38.574-.813 1.1-1.25 1.623h-18.75c-.973-.662-1.968-1.222-3.063-1.625zM331.31 212.2h16.344c-.618.367-1.232.725-1.875 1.032-.38.226-.79.432-1.19.625h-11.31c-.69-.425-1.328-.96-1.91-1.595-.017-.02-.044-.044-.062-.063zm149.688 0h13.78c-.004.553.006 1.104 0 1.657H481V212.2zm55.844 0h15.343c-.672.627-1.383 1.19-2.156 1.657h-10.785c-.828-.5-1.613-1.07-2.407-1.658zm-55.844 3.313h13.75c-.006.552-.025 1.104-.03 1.656h-13.72v-1.658zm0 2.75h13.72c-.01.552-.025 1.104-.033 1.656h-13.687v-1.658zm0 3.125h13.687c-.01.552.01 1.104 0 1.656h-13.72c.014-.4.033-.8.033-1.22v-.436zm-.094 3.312h13.72c-.01.553-.02 1.104-.033 1.657h-13.78c.03-.564.068-1.116.097-1.658zm-.125 2.75h13.81l-.03 1.657h-13.847c.004-.58.043-1.13.063-1.658zm-.13 3.094h13.845c-.013.553-.018 1.135-.03 1.688h-14.033c.078-.584.165-1.165.22-1.688zm-.405 3.344H494.4c-.013.552.016 1.104 0 1.656h-14.25c0-.58.05-1.125.095-1.656zm-.094 2.75h14.22c-.015.552-.047 1.104-.063 1.656H480.15c.004-.414 0-1.47 0-1.656zm0 3.125h14.095c-.016.547-.014 1.077-.03 1.625H480.12c.005-.71.027-1.054.03-1.625zm-.03 3.312h14.03c-.017.548-.013 1.078-.03 1.625h-14c.006-.84-.007-.828 0-1.625zm-.032 2.72h14l-.062 1.655h-13.94c.006-.568-.005-1.08 0-1.656zm-.03 3.124h13.905l-.062 1.654h-13.84c.006-.513-.006-1.108 0-1.656zm-.03 3.31h13.81c-.017.463-.013.913-.03 1.376-.016.085-.05.194-.063.28h-13.72c.01-.484-.008-1.065 0-1.656zm-.064 2.78h13.625c-.074.554-.135 1.104-.188 1.658h-13.5c.013-.225.02-.565.03-.78.01-.18.024-.57.032-.876zm-.157 3.096h13.47c-.038.55-.043 1.104-.064 1.655h-13.47c.03-.544.036-1.14.063-1.655zm-.157 2.81h13.53c-.01.552-.06 1.137-.06 1.69h-13.56l.094-1.69zm-.156 2.782h13.656c.003.55.024 1.103.03 1.656h-13.75c.035-.598.03-1.066.064-1.658zm-.156 3.124h13.844c.01.548.023 1.078.03 1.625H479.25c.032-.574.06-1.04.094-1.626zm-.187 3.282h14.064c.005.554.035 1.1.03 1.655H479.06c.03-.54.06-1.09.094-1.656zm-.155 2.78h14.22c-.012.55-.01 1.074-.033 1.625h-14.28c.025-.484.064-1.105.093-1.625zm-.156 3.094h14.25c-.037.55-.07 1.108-.125 1.657h-14.22c.026-.48.062-1.063.094-1.656zm-28.125 12.03c-1.548.153-3.105.328-4.657.47h11.75c-2.39-.23-4.778-.484-7.095-.47zm-52.938 3.22h86.56c-.493.203-.967.396-1.5.53.186.38.376.747.563 1.127h-84.37c-.367-.58-.81-1.128-1.25-1.656zm2 3.126h84.31c.276.547.566 1.106.844 1.655h-84.97c.04-.41.035-.867-.03-1.31-.05-.127-.1-.22-.155-.345zm-.19 3.31h86.22c.282.55.56 1.11.843 1.657h-87.97c.355-.53.68-1.08.908-1.655zm-1.687 2.75h89.345c.287.552.554 1.105.844 1.657-30.508 0-61.025.003-91.53 0 .433-.55.912-1.104 1.34-1.655zm-2.405 3.095h93.344l.874 1.657c-31.694 0-63.4.002-95.094 0 .228-.575.53-1.126.876-1.655zm-1.656 3.313h96.75c.285.547.56 1.11.842 1.657h-98.47c.285-.55.59-1.11.877-1.656zm-1.44 2.75h99.594c.286.552.59 1.134.875 1.688h-26.34c-.194-.35-.37-.71-.564-1.06-.058.353-.138.707-.188 1.062h-46.75c.002-.55.01-1.135 0-1.687-.375.537-.77 1.124-1.097 1.688h-26.37c.275-.552.565-1.14.844-1.687zm-1.53 3.125h26.28c-.28.544-.546 1.1-.812 1.656h-26.28c.265-.555.542-1.106.812-1.658zm28.125 0h46.625c-.062.55-.14 1.104-.187 1.656h-46.47c.02-.554.02-1.106.033-1.658zm48.312 0h26.28c.282.553.567 1.1.844 1.656h-26.25c-.29-.553-.58-1.11-.874-1.658zm-78.063 3.343h26.312c-.26.55-.516 1.11-.78 1.657h-26.25c.25-.547.46-1.11.717-1.657zm29.656 0h46.407c-.035.55-.07 1.11-.095 1.657H418.84c.013-.548.048-1.11.064-1.657zm50.19 0h26.156c.27.55.58 1.11.844 1.657h-26.187c-.278-.55-.53-1.11-.813-1.657zm-81.094 2.75h26.22c-.137.26-.268.526-.408.78-.21.29-.456.584-.657.877h-25.904c.246-.55.5-1.108.75-1.657zm30.844 0h46.344c-.016.55-.022 1.11-.03 1.657H418.84c-.012-.55-.004-1.108 0-1.657zm51.626 0h26.156c.26.55.496 1.11.75 1.657H471.28c-.268-.55-.54-1.11-.813-1.657zm-83.844 3.095h25.625c-.338.545-.658 1.096-.97 1.656H385.84c.24-.553.54-1.1.783-1.655zm32.28 0h46.25c-.004.552.002 1.104 0 1.656H419.03c-.055-.55-.097-1.104-.126-1.655zm53.063 0h26.063c.247.55.477 1.102.718 1.656h-26c-.26-.553-.516-1.104-.78-1.655zm-86.78 3.312h25.187c-.273.546-.53 1.1-.78 1.656h-25.127c.228-.546.487-1.11.72-1.658zm34.062 0h45.875v1.656h-45.72c-.035-.374-.063-.76-.093-1.126-.03-.178-.04-.356-.065-.533zm54.312 0h25.903c.232.55.464 1.102.688 1.656h-25.84c-.25-.555-.495-1.105-.75-1.658zm-89.565 2.75h25.125c-.23.542-.473 1.106-.687 1.656H383.34c.222-.548.433-1.11.658-1.658zm35.53 0h45.595c-.003.547-.022 1.11-.03 1.656h-45.376c-.062-.55-.13-1.116-.187-1.658zm55.282 0h25.78c.216.546.42 1.107.626 1.656H475.56c-.24-.55-.505-1.11-.75-1.658zm-92.063 3.124h25.125c-.2.55-.38 1.104-.564 1.658H382.12c.215-.55.405-1.1.625-1.656zm37.125 0h45.22c-.018.555-.04 1.104-.065 1.658h-45c-.055-.556-.096-1.103-.157-1.656zm56.28 0h25.625c.197.55.373 1.105.562 1.658h-25.47c-.234-.553-.48-1.104-.718-1.656zm34.5.158c.295-.01.61-.004.906 0 2.192.04 4.365.566 6.343 1.5h-13.22c1.86-.904 3.9-1.42 5.97-1.5zm-137.688.094c.293-.01.583-.005.875 0 2.12.032 4.213.507 6.095 1.407h-12.937c1.86-.824 3.917-1.324 5.97-1.407zm-8.78 3.063h42.593c-.172.55-.34 1.074-.5 1.625H362.37c.55-.604 1.157-1.13 1.813-1.624zm55.968 0h44.907c.002.564-.08 1.084-.188 1.625h-44.59c-.027-.545-.086-1.08-.127-1.624zm57.407 0h43.155c.617.494 1.16 1.017 1.657 1.625h-44.127c-.228-.553-.456-1.072-.688-1.624zm-116.095 2.75h44.532c-.008.027-.024.035-.03.062-.153.516-.312 1.07-.47 1.593h-45c.28-.577.604-1.14.97-1.656zm58.844 0h44.28c-.154.554-.306 1.105-.468 1.656H420.31c.018-.55.01-1.1 0-1.655zm58.405 0h44.47c.337.524.626 1.087.876 1.656H479.37c-.22-.55-.433-1.105-.656-1.655zM359.9 340.23h45.124c-.177.553-.373 1.133-.563 1.688h-44.93c.043-.334.08-.7.156-1.03.058-.22.15-.443.22-.656zm60.312 0h43.53c-.107.54-.192 1.128-.187 1.688h-43.53c.084-.544.14-1.13.186-1.686zm59.718 0h44.656c.16.543.3 1.13.376 1.688-14.786.002-29.557 0-44.343 0-.215-.55-.47-1.135-.69-1.686zm-120.5 3.344h44.438c-.205.553-.4 1.11-.625 1.657H359.68c-.106-.54-.23-1.103-.25-1.655zm60.25 0h44.22c.2.597.453 1.143.78 1.657h-45.5c.196-.536.36-1.1.5-1.655zm61.53 0h43.845c-.007.554-.034 1.107-.126 1.657h-43.09l-.625-1.655zm-121.28 2.75h42.813c-.245.557-.48 1.115-.75 1.657H360.56c-.26-.53-.452-1.09-.625-1.655zm58.813 0h46.78c.506.587 1.078 1.14 1.688 1.657h-49.37c.338-.533.653-1.095.91-1.655zm63.53 0h42.376c-.128.444-.25.882-.44 1.313-.09.11-.187.235-.28.344h-41.06c-.2-.55-.39-1.106-.594-1.655zM361.43 349.45h39.78c-.315.563-.647 1.12-.998 1.656H362.81c-.524-.504-.962-1.06-1.375-1.658zm55.344 0h52.28c.725.546 1.428 1.09 2.125 1.656h-56.09c.643-.466 1.213-.994 1.69-1.658zm66.624 0h39.125c-.592.58-1.2 1.132-1.845 1.656H483.99c-.194-.554-.395-1.105-.593-1.658zm-10.375 3.28c.217.23.398.474.593.72.292.3.57.61.812.937H410.12c.647-.648 1.436-1.145 2.25-1.625 20.216 0 40.44-.03 60.656-.03zm11.53 0H518.4c-.88.587-1.754 1.148-2.687 1.657H486.06c-.525-.5-1.036-1.038-1.5-1.625-.004-.01.004-.022 0-.03zm-119.406.03h33.876c-.45.578-.903 1.1-1.407 1.627h-29.25c-.83-.408-1.67-.795-2.47-1.25-.26-.11-.5-.245-.75-.375zm5.657 2.75h25.656c-.68.6-1.407 1.13-2.187 1.627H375.43c-1.575-.463-3.11-.99-4.624-1.625zm38.438 0h65.875c.284.534.542 1.053.72 1.627h-67.345c.102-.273.244-.544.375-.813.114-.3.222-.553.375-.812zm78.125 0h26.156c-1.296.613-2.612 1.133-3.938 1.627H490.03c-.938-.464-1.817-.984-2.657-1.625zm-104.56 3.1h7.813c-2.596.278-5.22.27-7.813 0zm25.25 0h68.094c.087.545.124 1.1.127 1.656H443.93c-.444-.645-.916-1.244-1.562-1.438-.774.418-1.516.913-2.22 1.438h-32.25c.008-.554.046-1.1.157-1.656zm86.063 0h10.594c-3.48.72-7.163.795-10.594 0zm-86.063 3.31h30.094c-.6.538-1.133 1.098-1.72 1.658h-28c-.18-.54-.282-1.098-.372-1.656zm37.22 0h30.874c-.073.56-.16 1.113-.31 1.658h-28.686c-.58-.505-1.14-1.01-1.688-1.53-.056-.037-.133-.085-.187-.126zm-36.407 2.783h26.375c-.588.56-1.175 1.125-1.78 1.657h-23.69c-.344-.53-.647-1.09-.905-1.66zm39.594 0h27c-.214.57-.458 1.127-.75 1.657H450.65c-.75-.53-1.477-1.086-2.187-1.66zm-37.594 3.094h20.812c-.86.633-1.81 1.194-2.78 1.656H412.56c-.61-.502-1.172-1.06-1.687-1.656zm41.937 0h20.97c-.463.61-.99 1.163-1.563 1.656h-16.282c-1.057-.493-2.12-1.045-3.125-1.656zm-37.72 3.313h10.47c-2.165 1.075-4.596 1.706-7.03 1.123-1.178-.192-2.35-.578-3.438-1.125zm45.44 0h8.968c-.71.275-1.456.473-2.25.56-2.295.21-4.543-.015-6.72-.56zm-109.126.25c1.52-.026.695 1.615.908 3.06h9.625c-.172-2.745 2.75-4.43 2.094 0h10.092c-1.175-3.81 2.77-3.706 1.686 0h10.062c-1.174-3.81 2.77-3.706 1.687 0h107.72c-1.176-3.81 2.77-3.706 1.686 0h10.094c-1.175-3.81 2.77-3.706 1.687 0h10.063c-1.174-3.81 2.77-3.706 1.687 0h10.06c-1.173-3.81 2.77-3.706 1.688 0h9.343c2.12.45 6.58-1.445 5.47 2.25H342.125c-2.12-.45-6.61 1.445-5.5-2.25h8.937c2.61-.054 6.276.953 5.064-2.937.324-.077.564-.122.78-.125zm118.47 11.81c3.53-.07 13.68 1.9 4.56 2.625-6.95-.972-13.992 1.083-21.09 0-7.94 1.616-16.03-.045-24.03-.22-6.23 1.3-13.2-.66-19.78.5-2.773-.35-15.157 1.443-11.126-1.967 8.598.07 17.14-1.07 25.72-.033 7.385-1.687 15.674.96 23.53.313 7.1-1.39 14.535.545 21.594-1.156.17-.024.39-.058.624-.063zm22.626.313c6.165 3.136-9.375 2.116-11.688 2.312-3.754-3.457 8.686-1.63 11.688-2.312zm-128.063 4.656c2.228.102 1.508 1.98 1.625 2.903 1.338.83 9.856-2.15 13.97 0 5.06 2.148-2.393 2.55-4.876 1.406-5.95-1.588-7.21 3.233-11.28 3.407-.652-5.875-8.315.092-13.22-2.814-4.69 4.065-9.62-2.26-14.312-.094-3.567-3.526 7.52-3.118 9.503-.626 3.5-2.836 8.563.767 12.22-1.28 4.7.677 3.78-1.44 6.375-2.907zm140.938.22c3.163.53.608 3.21.78 4.59-3.283 3.03-2.05-2.44-5.154-1.407-7.84.558-15.403 1.026-23.313.25-6.662-1.836 5.68-3.034 8.5-1.625 6.235-.696 14.134.284 19.188-1.81zm6.25.902c4.008 1.174 9.83.56 14.595.906 7.43-1.117 14.497-.165 21.5-.22 6.026.12 2.466 4.303-1.688 1.783-6.73-.07-13.736-.14-20.877.563-4.07-.784-18.007 1.268-13.53-3.03zm-47.812.75c2.66.2 5.734.33 8.156.97-.056 3.804-9.665-.405-13.406 1.842-7.162-.28-14.036.23-21.187.5-5.157-1.386-14.91.698-17.5-2.28 6.65-2.195 15 1.07 22.376.155 7.095-1.388 14.506.514 21.562-1.187zm-67.562.344c.65-.015 1.215-.01 1.594 0 3.49-.064 6.82.857 10.342.467 3.648-1.646 11.606 1.972 4.563 2.063-8.163.33-16.234-.866-24.375.094-6.36-1.863 3.324-2.532 7.875-2.624zm103.594 6.374c2.366-.026 1.724 1.936 1.81 2.876 1.336.83 9.86-2.16 13.97 0 5.195 2.225-2.355 2.4-4.907 1.374-5.963-1.583-7.2 3.237-11.28 3.407-.646-5.864-8.284.076-13.188-2.813-4.695 4.062-9.645-2.2-14.344-.03-3.572-3.52 7.56-3.13 9.53-.626 3.5-2.83 8.56.727 12.22-1.31 4.584.597 3.844-1.236 6.19-2.876zm-118.658.188c.795-.054 1.433.406 1.72.844 6.97-.078 14.747 1.9 22.124.5 5.622-1.65 8.53 3.386 1.436 1.97-7.86 1.804-15.27-.673-23.157-.095.525 5.68-7.29-1.98-2.126-3.22zm-6.28.906c2.327.127 1.845 2.373-.032 2.657-7.314-.16-14.863 1.1-22.125-.25-5.895-1.152-13.238 2.218-17.53-.25 4.902-2.282 13.012-1.866 19.53-1.56 6.59.433 14.29.565 20.156-.594zm46.062.625c.57-.006 1.085.056 1.53.156 2.18.31 4.386.702 6.657.75 7.536-.67 14.79.722 22.346.374 3.76-.124 16.436-2.807 14.53 1.188-9.134-.217-18.282 2.125-27.343.313-7.1 1.08-14.174-1.005-21.125-.03-6.634-.366-.597-2.71 3.406-2.75zm110.843.5c.652-.014 1.214-.01 1.594 0 3.495-.064 6.82.83 10.346.44 3.637-1.64 11.593 1.99 4.562 2.09-8.166.32-16.198-.9-24.343.063-6.378-1.86 3.287-2.5 7.843-2.594zm-167.375 5.78c2.206.11 1.533 1.95 1.625 2.876 1.304.857 9.853-2.163 13.97 0 5.044 2.147-2.398 2.55-4.876 1.405-5.954-1.59-7.21 3.26-11.28 3.438-.64-5.87-8.28.05-13.19-2.844-4.69 4.06-9.65-2.23-14.34-.064-3.57-3.522 7.523-3.12 9.502-.625 3.497-2.83 8.56.76 12.22-1.28 4.694.677 3.78-1.438 6.375-2.906zm56.844.22c.79-.053 1.447.367 1.717.813 6.97-.07 14.806 1.917 22.187.53 5.624-1.654 8.5 3.385 1.406 1.97-7.858 1.81-15.298-.646-23.186-.063.52 5.686-7.29-2.024-2.125-3.25zm90.342.875c4.01 1.17 9.827.554 14.594.907 7.425-1.112 14.497-.164 21.5-.22 6.023.123 2.468 4.3-1.688 1.782-6.726-.07-13.736-.137-20.876.563-4.07-.79-17.99 1.274-13.53-3.033zm-50.563.72c.58-.012 1.107-.027 1.562.062 5.452 1.21 11.07.615 16.625.56 8.26 1.714 16.665-.41 25-.25 6.93 1.186-2.423 3.07-5.53 2.19-7.49 1.36-15.175.6-22.658.186-6.23 1.23-12.3-1.5-18.407-.094-6.7-.39-.645-2.58 3.406-2.657zm-64.813.405c.65-.01 1.214-.006 1.594 0 3.49-.06 6.82.86 10.344.47 3.644-1.645 11.594 1.937 4.563 2.03-8.163.33-16.234-.833-24.375.127-6.378-1.858 3.32-2.532 7.875-2.625zm47.28 7.19c2.21.11 1.516 1.95 1.626 2.875 1.335.83 9.86-2.16 13.97 0 5.132 2.235-2.376 2.42-4.908 1.406-5.956-1.58-7.208 3.2-11.28 3.378-.648-5.86-8.28.078-13.188-2.812-4.694 4.06-9.648-2.198-14.344-.032-3.57-3.522 7.553-3.12 9.53-.625 3.497-2.83 8.562.726 12.22-1.313 4.694.677 3.78-1.406 6.375-2.875zm-62.343.22c.793-.055 1.43.374 1.72.81 6.97-.073 14.742 1.89 22.122.5 5.623-1.654 8.532 3.385 1.437 1.97-7.86 1.805-15.27-.64-23.158-.063.06.648-.026 1.08-.156 1.407l-2.406-.22c-1.38-1.315-2.302-3.75.438-4.405zm-6.28.874c2.325.126 1.843 2.372-.034 2.656-7.314-.16-14.863 1.1-22.125-.25-5.894-1.155-13.237 2.215-17.53-.25 4.903-2.285 13.013-1.87 19.53-1.564 6.59.433 14.29.565 20.157-.593zm168 .78c1.19-.008 2.36.146 3.53.282 4.946-.93 6.65 3.565.592 2.188-6.588-.695-13.305 1.2-20.032.156-8.364 1.734-16.846-.29-25.28-.22-6.226 1.41-13.596-.914-20.22.563-3.02.517-15.77-.157-7.874-2.22 8.476.232 16.83-.904 25.28.157 6.963-1.868 14.99 1.07 22.44.25 7.095-1.396 14.507.552 21.563-1.155" opacity=".5" fill="#6adf5f"/><path d="M481.256 163.79c-3.123.3-6.313 1.054-9.506 2.11-.537.485-.895 1-.59 1.715 4.764 2.96 4.026 9.35 3.825 14.372-.474 15.014-.42 30.038-.422 45.084-1.057 17.37-.338 34.91-1.884 52.23h20.105c-.08.56-.205 1.11-.338 1.66h-19.94l-.113 1.1h19.77c-.173.563-.388 1.117-.618 1.66h-19.32l-.17 1.433h18.787c-.312.57-.637 1.136-1.013 1.66h-17.97c-.028.197-.06.393-.085.59-1.14.5-2.325.845-3.517 1.07h20.167c-.6.607-1.26 1.18-1.97 1.658-22.225.003-44.456.003-66.685 0 .066.243.13.46.198.705.036.134.075.262.112.395h64.265c-.494.2-.986.396-1.52.533.186.38.376.746.564 1.125h-62.8c.152.488.314.985.48 1.462h63.026c.275.55.563 1.11.843 1.66h-63.28c.21.56.425 1.114.646 1.66h63.507c.282.548.558 1.11.843 1.66H423.01c.164.37.336.73.506 1.095h63.732c.287.554.553 1.11.843 1.66h-63.783c.244.49.506.96.76 1.435h63.786l.874 1.66h-63.76c.32.565.653 1.11.985 1.66h63.646c.286.546.56 1.11.844 1.66h-63.48c.233.364.466.737.703 1.096H492c.286.552.59 1.106.873 1.66H466.52c-.192-.35-.37-.69-.564-1.04-.057.354-.118.685-.168 1.04h-36c.345.495.69.98 1.04 1.462h34.79c-.062.55-.12 1.108-.168 1.66h-33.412c.426.564.863 1.11 1.293 1.66h31.98c-.03.548-.06 1.11-.082 1.658h-30.57c.298.37.6.732.9 1.097H465.2c-.018.547-.02 1.112-.03 1.66h-28.265c.407.49.806.953 1.21 1.434h27.027c-.004.554.003 1.11 0 1.66h-25.65c.468.557.925 1.112 1.38 1.66h24.243v1.66H442.25c.29.357.588.74.87 1.096h21.995c-.004.548-.02 1.113-.028 1.66H444.5c.448.51.92.995 1.377 1.46h19.21c-.015.556-.032 1.108-.056 1.66h-17.38c.67.596 1.346 1.146 2.026 1.66h15.383c.003.564-.088 1.09-.197 1.633H452.01c.642.397 1.29.782 1.94 1.124 3.55 0 7.107-.002 10.658 0-.155.552-.316 1.08-.477 1.63h-6.5c1.727.638 3.475 1.102 5.207 1.463h.9l-.03.168c.828.156 1.654.316 2.476.424 4.876.645 9.71.618 14.346.844-.19-.478-.403-.956-.59-1.433h31.05c1.5-.46 2.987-.95 4.47-1.462h-36.083c-.22-.55-.424-1.082-.648-1.63 13.772 0 27.543-.002 41.315 0 5.908-2.133 11.61-4.24 16.82-5.204 9.078-1.68 16.807-12.36 22.753-24.976 5.946-12.62 10.115-27.326 11.362-38.955 2.637-24.59-.263-49.934-11.39-70.2-.438-.796-.89-1.58-1.35-2.334-25.654.003-51.298 0-76.95 0-.007-.543.004-1.103 0-1.66 25.302.002 50.606 0 75.91 0-.334-.505-.7-.976-1.04-1.462-24.973.002-49.928 0-74.9 0-.015-.514-.06-1.06-.113-1.63 24.613-.003 49.218 0 73.83 0-.29-.38-.577-.76-.874-1.126-24.35 0-48.718-.003-73.068 0-.054-.54-.098-1.06-.14-1.633h71.83c-.5-.57-1.004-1.12-1.518-1.657-23.46 0-46.94-.004-70.397 0-.01-.543.015-1.1.055-1.66h31.387c-.388.2-.756.404-1.152.59 2.876-.01 5.735-.35 8.606-.59h29.84c-.522-.5-1.067-.99-1.602-1.464h-18.45c.962-.573 1.925-1.13 2.925-1.66h13.553c-.475-.378-.954-.738-1.435-1.097h-9.87c1.36-.63 2.77-1.205 4.19-1.66h3.345c-1.546-1.03-3.13-1.954-4.725-2.81-3.106-.468-6.3-.43-9.337.505-.73.175-1.44.4-2.137.648H481.51c.01-.545.025-1.1.028-1.66h54.956c-1-.515-2-1.006-3.01-1.462H481.54v-.085c0-.5-.015-1.01-.028-1.52h48.178c-1.094-.42-2.196-.783-3.29-1.15-14.97-.002-29.944-.002-44.916 0-.02-.542-.033-1.08-.057-1.632h39.657c-2.32-.632-4.587-1.174-6.807-1.66H481.37c-.022-.545-.07-1.1-.085-1.657h23.12c-4.495-.225-8.478.326-11.673-1.294-.084-.04-.168-.06-.253-.086l-.258-.083h-10.968c-.003-.204 0-.41 0-.617v-.423zm.198 14.99h40.81c-.986.52-1.94 1.08-2.898 1.66H481.34c.046-.548.09-1.103.115-1.66zm-.198 2.757h36.31c-.895.557-1.798 1.123-2.7 1.66H481.03c.093-.552.165-1.105.226-1.66zm.03 15.61h77.23c-.013.547-.056 1.114-.112 1.66-25.718 0-51.43-.003-77.147 0 .025-.538.025-1.1.028-1.66zm-.113 2.757c25.692-.003 51.397 0 77.09 0-.09.548-.174 1.116-.31 1.658-25.653.003-51.324-.002-76.978 0 .015-.096.04-.214.056-.31.078-.44.1-.885.146-1.35zm-.367 3.12h76.754c-.156.547-.36 1.085-.562 1.632-25.425.003-50.85 0-76.275 0 .01-.54.037-1.075.084-1.63zm-.083 3.32h75.6c-.26.557-.565 1.093-.873 1.63-9.485 0-18.977.028-28.462.028-3.183-.436-6.37-.325-9.59 0h-36.592c-.03-.547-.068-1.095-.083-1.66zm.14 2.756h28.125c-4.725.652-9.472 1.13-14.175.42-.003.408.002.803 0 1.21h-13.865c-.025-.54-.052-1.073-.085-1.63zm50.878 0h23.067c-.38.576-.8 1.106-1.238 1.63h-18.76c-.97-.66-1.97-1.226-3.066-1.63zm-50.733 3.094h13.78c-.004.552.006 1.107 0 1.658h-13.78v-1.658zm55.827 0h15.358c-.672.626-1.392 1.193-2.164 1.658H539.25c-.826-.5-1.625-1.072-2.418-1.66zm-55.826 3.318h13.752c-.007.553-.02 1.108-.028 1.66h-13.725v-1.66zm0 2.756h13.725c-.007.553-.02 1.108-.03 1.66h-13.695v-1.66zm0 3.122H494.7l-.027 1.66h-13.698c.013-.4.03-.82.03-1.238v-.422zm-.113 3.32c4.58-.002 9.148-.002 13.727-.002-.01.553-.017 1.108-.03 1.66h-13.78c.03-.56.056-1.117.086-1.66zm-.11 2.727h13.808c-.01.553-.016 1.108-.027 1.66H480.73c0-.577.035-1.134.055-1.66zm-.113 3.123h13.838c-.013.55-.015 1.106-.03 1.658h-14.033c.078-.583.17-1.136.226-1.658zm-.422 3.317h14.175c-.015.553-.015 1.108-.03 1.66h-14.23c0-.58.04-1.13.084-1.66zm-.084 2.756h14.203c-.016.553-.04 1.108-.058 1.66h-14.15c.003-.413 0-1.475 0-1.66zm0 3.123h14.09c-.016.547-.01 1.084-.027 1.63h-14.1c.006-.71.026-1.06.03-1.63zm-.03 3.32h14.036c-.018.546-.04 1.082-.057 1.63h-13.98c.01-.84-.005-.835.002-1.63zm-.026 2.726h13.977c-.017.553-.035 1.108-.055 1.66h-13.92c.003-.57-.008-1.084 0-1.66zm-.03 3.123h13.895c-.02.548-.037 1.11-.057 1.658H480.05c.006-.513.02-1.11.027-1.658zm-.055 3.318h13.81c-.02.463-.01.915-.03 1.38-.015.084-.04.193-.056.28h-13.73c.01-.485-.01-1.067 0-1.66zm-.057 2.757h13.64c-.074.552-.144 1.105-.196 1.658-4.498.002-9.004 0-13.5 0 .01-.225.015-.542.027-.758.01-.182.02-.594.027-.9zm-.14 3.122h13.47c-.035.55-.063 1.08-.083 1.63H479.74c.03-.545.056-1.116.085-1.63zm-.17 2.813h13.53c-.013.55-.055 1.106-.058 1.658h-13.56c.032-.585.053-1.092.084-1.658zm-.14 2.755h13.64c.004.552.02 1.107.03 1.66H479.43c.033-.597.05-1.068.084-1.66zm-.17 3.122h13.84c.01.548.02 1.084.027 1.63h-13.95c.033-.574.052-1.046.084-1.63zm-.195 3.29h14.063c.004.555.032 1.105.028 1.66H479.07c.03-.54.052-1.094.085-1.66zm-.14 2.785h14.203c-.01.55-.006 1.08-.028 1.63-4.754.002-9.533.002-14.288.002.026-.488.084-1.116.113-1.636zm-.17 3.094h14.26c-.035.55-.087 1.115-.14 1.66H478.76c.025-.48.05-1.062.084-1.66zm-28.124 12.04c-1.547.15-3.09.308-4.64.45h11.72c-2.39-.23-4.77-.464-7.087-.45zm16.593 24.695h26.296c.28.554.565 1.104.843 1.66h-26.27c-.29-.552-.576-1.11-.87-1.66zm1.77 3.32h26.184c.27.547.552 1.11.816 1.658h-26.186c-.278-.55-.534-1.112-.815-1.66zm1.378 2.755h26.157c.26.546.506 1.11.76 1.66h-26.1c-.27-.55-.544-1.114-.817-1.66zm1.52 3.093h26.043c.247.552.49 1.106.73 1.66h-25.987c-.26-.553-.523-1.108-.788-1.66zm1.574 3.32h25.93c.236.55.455 1.106.678 1.66H474.31c-.252-.555-.505-1.11-.76-1.66zm1.268 2.756h25.79c.216.544.413 1.11.62 1.66H475.55c-.244-.55-.487-1.114-.73-1.66zm1.35 3.12h25.622c.2.55.373 1.11.56 1.66h-25.48c-.235-.55-.464-1.108-.702-1.66zm34.482.17c.294-.01.603-.007.9 0 2.19.04 4.38.554 6.355 1.49h-13.22c1.86-.906 3.894-1.41 5.963-1.49zm-33.076 3.15h43.144c.616.492 1.16 1.023 1.658 1.63h-44.13l-.676-1.632zm6.13 7.51c1.732.143 3.416.35 5.064.673 5.233 1.025 10.636.534 16.03-.674H483.71" fill="#6adf5f"/><path d="M286.52.02c-1.877-.004-3.73.452-5.372 1.405-3.843 1.655-6.794 4.795-9.704 7.594-4.05-3.01-8.94-6.137-14.315-5.18-6.64 1.026-10.21 8.164-9.48 14.373.184 1.47.7 3.88-1.578 3.486-6.163.743-9.155 7.225-10.125 12.63-1.39 6.662.33 14.57 6.02 18.787.367 2.062-2.508 2.12-3.573 3.486-4.41 4.3-6.494 10.48-7.735 16.37-2.304 12.278 1.87 25.46 10.743 34.226 2.436 3.07 3.636 6.864 4.612 10.603-1.11 2.02-3.076-.662-4.782-.45-5.87-.402-9.93 5.598-10.04 10.996-.258 4.21 1.25 8.78 4.865 11.222.51 1.922-1.926 2.877-2.475 4.612-5 8.67-1.515 21.65 8.016 25.707.81 1.937-1.51 3.446-2.054 5.26-2.452 5.384-5.107 11.01-5.343 16.987-.06 6.434 4.703 13.832 11.812 13.22 1.355-.336 3.748-.854 3.065 1.49-1.524 29.674 2.565 59.196 5.795 88.62-1.043 1.552-2.818-.283-4.388.282-7.543.57-11.774 9.31-10.267 16.116 1.178 5.97 3.508 11.81 6.78 17.014-.207 2.084-2.847 1.107-4.22 1.97-11.507 3.743-15.166 20.287-7.17 28.97.91.94 2.975 2.437 1.153 3.57-6.035 5.907-4.683 18.385 3.852 21.12 1.473.785 3.29.07 4.555.9-.365 3.548-2.37 7.098-4.808 9.79-12.348 12.69-13.863 34.46-3.01 48.46 1.183 1.566 3.352 2.18 4.528 3.46.312 1.75-2.31 2.39-2.925 3.993-5.106 7.177-4.288 17.592.703 24.637 1.857 2.67 5.124 3.653 8.072 4.162-.036 3.945-.567 8.24 1.603 11.785 2.69 5.47 9.75 7.196 15.047 4.752 2.737-.83 4.74-2.99 7.2-4.22 3.777 4.06 8.505 8.25 14.232 8.97 5.665.714 10.585-3.8 11.952-9.055.27-1.923 2.192-1.084 3.093-.113 13.08 8.75 31.9 6.88 43.116-4.08 2.25-2.49 5.128-4.51 8.35-5.624 2.13.824-.277 3.037-.11 4.64-1.017 4.8 3.025 8.56 6.946 10.463 4.582 2.41 10.544 2.75 14.79-.533 2.13-1.11 3.715-2.81 5.457-4.333 3.806 2.603 8.354 4.317 13.05 3.6 7.303-.705 13.97-6.417 15.02-13.864 1.722-1.367 3.216 1.28 4.5 2.25 4.813 5.412 12.78 9.342 19.967 6.806 4.548-1.486 7.035-6.773 6.244-11.28.606-2.398 4.085-.745 5.962-1.237 1.413.17 4.746-.78 4.303 1.52-.72 3.746.927 8.185 4.106 10.32 5.996 3.045 13.166 1.08 18.224-2.81 2.7-1.75 4.697-4.25 7.144-6.275 2.12.02 1.324 2.79 2.28 4.105 3.706 9.99 17.71 13.922 26.154 7.313 1.667.004 2.01 2.335 3.77 2.42 2.236 1.447 4.43 3.39 7.282 3.656 5.3.74 10.96-1.317 14.794-5.007 2.444-2.944 2.8-7.383.93-10.715.625-2.32 3.24-.048 4.61.477 4.286 2.516 7.126 6.863 11.7 9.03 11.61 6.82 27.186 6.18 37.998-1.97 2.093.098 1.672 2.86 2.785 4.22 2.53 5.54 9.73 7.735 14.963 4.865 3.89-1.674 7.07-4.676 9.87-7.68 2.253.63 4.066 3.04 6.5 3.798 5.196 2.67 12.44 1.578 15.495-3.797 2.445-3.586 2.153-8.077 1.94-12.205 1.42-1.01 3.798-.606 5.344-1.885 5.218-3.47 6.72-10.306 6.89-16.17-.033-5.287-2.045-10.755-6.412-13.95-.37-2.06 2.493-2.114 3.543-3.49 4.247-4.09 6.273-10.016 7.567-15.58 2.618-12.505-1.49-26.1-10.604-35.07-1.895-2.422-3.088-5.316-3.938-8.242.817-1.8 3.365-.884 4.782-2.165 5.768-3.032 8.838-11.457 4.36-16.792-.573-1.54-2.658-2.93-2.054-4.555 8.736-6.022 9.09-19.855 1.885-27.28-2.813-2.997-6.91-4.83-11.053-4.867-1.547-1.555.913-3.464 1.15-5.23 1.18-3.533 2.963-6.854 4.276-10.295 1.452-6.155.32-14.194-5.71-17.55-2.28-1.386-5.025-.65-7.425-1.32.01-6.564 1.106-13.25 1.52-19.858 2.075-23.357 3.603-46.834 2.392-70.284 1.268-1.333 3.276.468 5.006-.112 7.547-.634 11.924-9.346 10.32-16.228-.978-6.375-4.14-12.116-7.313-17.69.407-1.975 3.01-1.73 4.275-3.066 9.065-6.1 10.372-20.93 2.193-28.21-.497-1.644 1.878-2.546 2.393-4.105 1.886-3.23 3.522-7.78 1.04-11.08-1.13-4.017-4.36-7.88-8.803-7.905-1.234-.267-3.645 1.19-3.46-.983 1.123-4.807 3.77-9.044 7.256-12.46 10.474-12.865 11.18-32.906.958-46.124-1.187-1.58-3.364-2.178-4.528-3.487-.24-1.745 2.36-2.377 2.98-3.993 5.105-7.17 4.23-17.53-.702-24.61-1.885-2.645-5.117-3.65-8.1-4.133.013-3.838.607-8.017-1.407-11.504-2.52-5.493-9.487-7.544-14.85-5.232-2.885.838-5.077 3.04-7.59 4.388C611.442 4.99 606.96.872 601.367.07c-.624-.07-1.26-.095-1.886-.055-5.362.02-9.397 4.508-10.602 9.45-1.2 2.02-3.08-.79-4.583-1.267-13.033-7.66-30.78-5.432-41.568 5.063-2.108 2.325-4.688 4.21-7.623 5.345-2.093-.69-.158-3.15-.843-4.753-.44-4.477-4.224-7.49-8.27-8.69-3.414-1.312-7.493-2.624-10.77-.34-2.658 1.06-5.1 2.71-7.368 4.36-4.374-3.602-10.364-5.275-15.92-3.684-7.64 1.685-13.487 9.16-12.908 16.988-1.577 1.75-3.13-1.336-4.67-1.91-5.174-3.95-12.06-6.148-18.42-4.416-4.806 1.71-8.114 7.094-7.06 12.122-1.444 2.07-4.69.483-6.89.985-1.512-.12-5.15.75-4.416-1.772 1.097-5.982-4.38-12.12-10.463-11.785-6.803-.76-13.005 3.013-18.028 7.144-2.273-.12-.91-3.067-1.66-4.556-1.768-9.937-13.478-15.89-22.725-12.43-2.334.658-4.166 2.356-6.16 3.543-1.568-1.425-3.07-3.404-5.37-3.71-2.683-1.838-5.995-2.94-9.143-1.688-5.21 1.212-11.57 4.26-11.95 10.294-.437 1.45 1.34 3.67-.62 4.246-5.413-1.887-8.435-7.222-13.388-9.815-11.693-7.247-27.78-6.767-38.757 1.575-2.098-.097-1.638-2.842-2.757-4.19-1.75-3.9-5.91-6.097-10.04-6.103zm.028 4.3c4.362-.236 7.004 3.967 7.734 7.764.942 1.972-.044 5.463 2.53 6.243 2.732.483 2.808-3.216 4.698-4.33 11.12-8.702 28.24-7.837 38.67 1.603 4.095 4.706 9.81 7.6 15.808 8.944 6.662 1.4 13.218 4.188 20.08 3.908 2.43-.945.938-3.922 1.35-5.82.262-6.538 5.19-13.263 12.123-13.445 6.827-.528 13.76 4.85 13.926 11.897.21 2.96-.932 5.906-3.01 7.96-1.222 1.153-1.554 3.55.31 4.246 9.5.546 19.093.104 28.63.254 18.856-.06 37.75.123 56.588-.085 2.145-.646 1.713-3.53.03-4.5-5.144-5.618-2.49-15.59 4.444-18.398 5.69-3.05 13.476-1.04 16.594 4.725 2.194 3.47 2.56 7.693 2.25 11.67.81 2.63 4.234 1.28 6.16 1.24 6.69-1.27 13.384-3.06 19.83-5.007 4.722-1.454 8.51-4.73 11.95-8.184 10.634-9.04 27.734-9.583 38.504-.564 1.46 1.306 1.896 4.75 4.5 3.825 2.244-1.126 1.285-4.247 2.25-6.187.746-3.65 3.145-7.835 7.426-7.763 4.35.167 8.043 3.255 10.883 6.33 1.316 1.555 2.856 5.532 5.485 3.43 3.626-3.5 8.795-7.53 14.12-5.596 4.733 2.347 5.113 8.415 4.16 12.995-.53 1.663-1.237 4.624 1.21 5.063 1.85-.12 3.804-1.196 5.68-.196 4.045 2.038 4.94 7.147 5.486 11.22.688 6.16-2.85 12.534-8.717 14.74-2.17.814-1.36 4.207.9 4.247 3.716 1.186 7.557 3.106 9.11 6.946 7.217 12.875 4.75 30.358-5.907 40.612-6.032 7.455-6.502 17.47-9.03 26.38-.307 2.64-1.19 5.48-.562 8.1 1.36 2.246 4.33.345 6.358 1.096 6.595.586 12.27 6.475 12.094 13.19.235 6.53-4.43 13.676-11.42 13.95-4.356.315-8.17-2.62-10.262-6.215-1.556-1.65-4.36.335-3.488 2.363 7.13 34.09 6.564 69.225 3.487 103.753-2.104 25.607-5.15 51.264-5.176 76.95.426 2.204 3.896 2.02 4.19-.112 1.244-6.12 7.947-10.964 14.09-8.66 9.575 3.2 11.665 18.097 3.375 23.848-3.346 2.65-7.77 3.167-11.87 2.814-2.698.844-1.215 4.29-1.266 6.272.326 3.915 2.1 7.64 1.913 11.588.352 1.79 1.752 3.178 1.8 5.146 1.273 5.7 3.873 11.095 8.1 15.132 9.606 11.39 10.465 29.638 1.21 41.456-2.28 2.444-5.973 2.608-8.494 4.5-1.23 1.575.304 3.522 1.997 3.798 6.428 2.905 8.87 10.79 7.088 17.27-.778 3.78-2.863 8.79-7.48 8.576-1.496-.237-3.53-1.45-4.614.31-.95 2.058.69 4.346.506 6.525.614 4.303-1.015 9.932-5.765 10.995-5.355.806-9.702-3.23-13.442-6.41-2.567-1.01-3.422 2.526-4.867 3.826-2.797 3.02-6.44 6.07-10.714 6.3-3.904.157-6.562-3.292-7.34-6.777-1.007-2.103-.402-4.83-1.828-6.694-1.512-1.38-3.567.036-3.967 1.742-2.58 4.012-7.547 5.66-11.867 7.114-11.14 3.14-23.67-.736-31.332-9.336-7.052-6.214-16.914-6.83-25.592-9.45-2.59-.355-5.748-1.345-8.157.085-1.577 1.634-.036 4.157-.758 6.13-.653 6.56-6.177 12.84-13.135 12.404-6.58-.04-12.808-5.45-12.825-12.208.037-1.795 1.133-4.798-1.49-5.315-25.678.03-51.4-.115-77.063.084-2.004.49-1.6 2.854-1.27 4.36.487 6.664-5.2 12.518-11.7 13.02-6.27.92-12.16-3.79-13.67-9.757-.965-2.23-.333-4.77-.982-7.003-1.45-2.145-4.65-.713-6.78-1.21-4.74-.67-9.153 1.612-13.725 2.445-6.054 1.373-11.948 4.048-16.088 8.832-10.19 9.496-26.927 10.695-38.25 2.503-2.1-.986-2.308-3.69-4.163-4.81-2.112-.852-3.355 1.637-3.207 3.432-.78 3.976-2.037 9.437-6.777 10.237-4.283.872-8.087-2.257-11.053-4.95-1.892-1.37-2.43-4.21-4.585-5.148-2.352-.352-3.41 2.536-5.316 3.403-3.318 2.51-8.607 4.924-12.263 1.773-4.372-3.8-3.054-10.254-2.193-15.19-.186-2.11-2.857-2.295-4.305-1.32-4.196.763-6.895-3.44-7.706-7.004-2.265-6.54-.485-14.957 5.99-18.394 1.52-.537 3.863-1.758 2.924-3.77-1.16-2.013-4.136-1.747-5.907-3.037-4.84-2.2-6.503-7.843-8.07-12.488-3.33-11.8.232-25.194 9.055-33.724 5.822-7.412 6.3-17.316 8.802-26.1.322-2.635 1.162-5.457.535-8.07-1.36-2.24-4.308-.357-6.33-1.125-6.572-.646-12.303-6.46-12.12-13.19-.26-6.7 4.68-14.034 11.87-13.98 5.723-.15 10.09 5.01 11.136 10.24 1.097 2.103 4.496.77 3.994-1.492-.458-47.968-12.576-95.39-8.72-143.465 1-12.752 3.46-25.425 7.088-37.66.1-2.274-3.348-2.944-4.136-.815-2.706 5.127-9.71 7.382-14.71 4.19-8.15-4.713-8.922-18.442-.618-23.428 3.245-2.257 7.333-2.605 11.137-2.28 2.746-.796 1.29-4.26 1.32-6.242-1.06-6.574-2.844-13.105-4.526-19.574-1.306-5.114-4.387-9.45-7.99-13.19-8.964-11.434-9.556-29.04-.534-40.586 2.303-2.343 5.813-2.674 8.44-4.36 1.39-1.523-.128-3.7-1.913-3.937-6.397-2.95-8.927-10.796-7.143-17.297.796-3.685 2.713-8.593 7.228-8.55 1.62.018 3.725 1.537 4.894-.337 1.03-2.136-.81-4.607-.535-6.92-.592-4.32 1.41-9.994 6.273-10.66 5.24-.53 9.31 3.474 12.993 6.527 2.593.897 3.337-2.562 4.81-3.88 2.724-2.978 6.45-5.978 10.603-6.33zm233.015 3.855c3.554.486 7.91 1.486 9.366 5.315 1.695 4.054-2.025 8.552-6.19 8.664-2.925.538-5.88 1.99-8.86 1.63-.63-3.294-.86-6.838-2.67-9.844.15-1.783 2.63-2.41 3.71-3.77 1.34-1.048 2.862-2.038 4.64-1.995zM365.888 8.4c3.787.066 7.54 2.24 9.76 5.175-1.628 3.117-2.296 6.59-2.7 10.012-2.245.887-5.03-.723-7.425-1.068-2.446-.81-5.685-.58-6.694-3.49-1.86-2.096-3.095-6.05-.116-7.76 2.256-1.257 4.43-2.95 7.17-2.87zm-85.36 10.546c-4.17.606-5.39 5.81-4.64 9.338-1.125 1.83-3.17-.205-4.838-.057-6.152-.967-13.955-.275-17.38 5.654-3.33 6.34.403 14.797 6.974 17.16 1.025 2.16-2.455 2.244-3.544 3.488-4.485 2.212-6.572 8.47-3.32 12.544 1.538 2.485 4.442 3.815 5.993 6.187-1.505 3.16-5.684 3.39-8.69 4.105-1.815.034-5.056.83-4.333 3.292.955 2.753 4.65 1.517 6.75 1.152 4.07-1.08 9.212-2.506 10.913-6.807 1.035-3.702-2.15-6.655-4.92-8.522-2.21-1.42-3.83-4.99-1.183-6.833 3.61-3.357 8.68-4.798 13.444-5.4 1.163.522 2.003-.972 2.84.225-.354.546.66-.26 1.52-.253 2.106-.946 1.274-4.67-1.07-4.84-.94-1.19-2.505-1.998-3.994-1.265-4.616-.15-10.575-.54-13.106-5.035-1.77-3.3-1.035-8.387 3.01-9.562 4.944-1.934 10.714-.784 15.244 1.66 2.794 1.894 4.032 5.22 6.02 7.734 1.07 1.954 4.256 1.426 4.582-.79-.402-2.562-2.785-4.385-3.683-6.834-1.358-3.386-3.705-7.27-2.223-10.968 1.693-.95 3.41 1.346 4.894 2.192 3.15 2.335 5.5 5.648 8.522 8.044 2.208.67 4.158-2.564 2.138-4.05-3.58-4.29-7.833-8.29-12.854-10.913-.952-.383-1.996-.72-3.065-.645zm325.097 0c-5.852 1.15-9.957 6.136-14.118 10.04-1.37 1.22-3.17 3.874-.928 5.204 2.49 1.61 3.93-1.835 5.51-3.12 2.634-2.764 5.496-5.363 8.886-7.174 2.318.66 1.204 3.87.927 5.654-1.044 4.16-3.59 7.617-5.57 11.306-1.155 2.01 1.27 4.09 3.15 2.954 2.807-1.944 3.5-5.84 6.273-7.96 3.4-2.68 8.047-3.384 12.29-3.263 3.508.218 7.798 2.238 7.65 6.328.233 3.552-2.072 6.822-5.456 7.875-3.623 1.53-7.654 1.067-11.42 1.435-1.226 1.252-3.65 1.975-3.373 4.133.097 1.3 1.334 2.414 2.673 2.14.16-.604 1.75-.344 2.813-.34 3.058-.006 5.933 1.464 8.803 2.392 2.425 1.24 5.86 2.76 6.104 5.822-.58 4.768-7.382 5.587-7.623 10.603-.535 4.425 4.484 6.74 7.93 7.987 2.93.57 6.367 2.47 9.198.73 1.735-1.36.322-4.138-1.744-4.02-3.35-.507-7.112-1-9.9-3.095-1.592-2.025 1.418-3.468 2.618-4.556 3.493-2.772 5.874-8.035 2.953-12.09-1.63-2.84-5.03-4.023-7.34-5.793-.263-1.706 2.34-1.722 3.29-2.87 5.94-4.033 7.16-14.277.956-18.702-5.293-3.486-12.38-3.267-18.198-1.406-2.067-.845-.283-3.584-1.182-5.288-.502-2.48-2.35-5.177-5.175-4.923zm-178.2.9c3.993.12 4.847 4.828 6.244 7.706.852 2.77-3.3 1.394-4.87 1.717h-17.746c-1.75-1.846 1.996-3.068 3.01-4.36 3.237-2.786 7.293-4.58 11.558-4.81.585-.17 1.19-.256 1.8-.257zm31.332.225c4.058.055 8.248.777 11.587 3.295 1.95 1.478 4.378 2.915 5.654 4.865-.845 2.157-4.565.524-6.58 1.04H453.13c-1.59-1.342.55-3.154.787-4.725.818-2.088 2.31-4.463 4.837-4.473zM305.082 39.73c-2.152.355-2.124 3.206-1.265 4.726.04 3.98-1.97 7.923-4.698 10.66-2.71.606-5.47-.387-7.99-.985-2.168.83-4.416-2.91-6.104-.42-1.552 3.248 1.258 7.41-1.126 10.408-2.463 1.89-5.896.69-8.72 1.38-2.076-.36-5.724.632-4.89 3.4 1.392 8.884.412 17.915.955 26.86 1.567 111.876 1.764 223.77 3.177 335.645-.707 2.14 1.812 4.618 3.77 3.12 2.922-.16 5.918.277 8.774.51 3.3 2.147.782 6.55 2.11 9.533.844 1.413 2.958 1.02 3.57-.45.99-1.612 2.897-1.787 4.5-1.294 4.103.268 8.512-.904 12.375.73 2.165 2.847-.28 6.33-.39 9.42-.48 1.998-1.246 5.774 1.516 6.36 28.407.06 56.87-.516 85.22 1.687 30.113 1.143 60.24.22 90.365.48 23.46-.24 46.92-.94 70.37-1.41 8.506-.565 17.15-.382 25.594-1.237 1.997-.52 2.022-2.753 1.406-4.33-.524-3.64-2.04-7.796-.31-11.25 3.11-.567 7.63-1.614 9.423 1.8 1.526 1.18 3.917-.644 3.177-2.504-.15-2.523-.495-6.914 2.955-7.23 3.335-.684 7.07-1.566 10.21.197 3.18-.406 4.23-4.44 3.796-7.143 1.78-120.772 1.746-241.583 3.66-362.333-1.078-1.962-3.55-2.654-5.457-3.487-3.376-.608-6.73 1.852-9.984.674-3.003-2.615.41-7.046-1.717-9.9-1.39-1.49-3.255.334-3.91 1.688-2.082.67-4.624-.214-6.92.17-2.3-.16-5.26.483-7.03-1.125-1.02-4.39 2.78-9.1.085-13.164-1.848-2.464-4.863.013-7.117.056-27.74-.037-55.54-.432-83.22 1.688-30.403 1.07-60.827.236-91.24.45-22.93-.31-45.84-.948-68.764-1.435-7.485-.553-15.135-.204-22.528-1.235-.972-.87-2.43-.608-3.628-.704zm235.406 5.43c11.828.33 23.737-.148 35.522.28 2.783 1.975.433 5.34.507 7.96-2.314 3.262-6.975 1.382-10.294 1.63-16.538.08-33.13.05-49.67.874-16.597.973-33.205 1.68-49.837 1.602-24.603-.062-49.196-.082-73.8-.112-24.695-.323-49.396-.992-74.08-1.463-3.917-.36-8.22.54-11.786-1.32-1.57-2.802 1.325-5.402 1.49-8.182 1.56-2.23 4.696-.656 6.92-1.013 15.46.627 30.934 1.163 46.406 1.265 40.563 1.214 81.153.874 121.725.647 18.966-.756 37.91-2.304 56.9-2.166zM291.104 58.32c6.777 1.59 13.883.376 20.784 1.24 24.224 1.03 48.472.86 72.704 1.602 35.552.235 71.128.395 106.677-.112 24.03-1.175 48.064-2.558 72.14-2.053 10.22.098 20.525-.025 30.71.028 3.273 1.836 2.035 6.28.31 8.775-.058 2.187 2.496 3.96 1.35 6.27-1.907 120.854-1.87 241.71-3.628 362.56-1.333 3.336-5.69 2.287-8.494 2.222-27.208 1.653-54.516 1.272-81.76 2.167-36.017.34-72.04.373-108.057-.03-24.64-1.14-49.29-2.726-73.97-2.056-2.29.283-4.46-.897-6.606-1.012-2.032.886-4.213 1.537-6.413.927-4.55-.275-9.365.864-13.724-.618-.933-3.874-.55-8.293-.846-12.375-1.63-121.845-1.587-243.7-3.656-365.54.48-.888 1.358-1.976 2.474-2zm7.846 4.474c-2.976.482-2.235 4.396-2.11 6.525 2.155 121.494 1.683 243.06 3.827 364.552.767 2.02 3.842 1.857 4.696 0 6.592-1.974 13.656-.304 20.447-.9 23.285-.354 46.564.537 69.806 1.827 32.09.69 64.208.206 96.3.2 23.788-.556 47.604-.71 71.382-1.577 5.25-.19 10.802-1.06 15.89.252.792 1.73 3.366 2.33 4.612.62 1.01-2.5.046-5.577.45-8.24 1.645-120.57 1.72-241.16 3.516-361.716-.692-2.047-3.808-1.95-4.668-.085-5.05 1.81-10.563.093-15.807.675-25.16-.17-50.343-.044-75.46 1.69-31.07 1.024-62.18.214-93.26.42-24.33-.31-48.64-.89-72.954-1.52-6.857-.52-13.895-.02-20.644-1.066-1.824-.898-4.065-.762-5.88-1.658-.045.016-.1-.038-.14 0zm310.754 4.302c3.243.62 2.893 4.916 2.475 7.425-.89 57.448-1.39 115.025-1.8 172.52-.46 60.278-.86 120.55-1.776 180.82-1.418 3.335-5.67 1.48-8.325 2.643-2.263.998-4.488-1.105-4.22-3.403 1.013-61.43 1.32-122.886 1.83-184.33.44-57.286.88-114.567 1.827-171.846 1.814-3.42 6.715-3.11 9.984-3.824zM304.014 68.7c15.432.742 30.87 1.156 46.32 1.434 43.77 1.077 87.566 1.146 131.345.73 20.782-.54 41.54-2.154 62.35-2.08 12.493.348 25.003-.218 37.49.422 2.67 1.466 2.39 5.06 2.25 7.678-2.004 116.38-1.758 232.787-3.517 349.172-.95 3.653-5.59 3.335-8.52 2.953-26.11 1.484-52.277 1.232-78.413 1.993-34.26 0-68.546.683-102.797-.422-26.146-1.636-52.37-1.787-78.552-1.546-2.33-.207-5.505.322-7.115-1.602-.792-10.578-.895-21.18-.9-31.78-1.228-107.046-1.297-214.123-3.037-321.16-.594-2.382.488-5.293 3.093-5.795zm-23.795.844c1.76.098 4.87-.498 4.47 2.193.942 12.17.372 24.398.813 36.59 1.343 106.437 1.51 212.87 2.982 319.304-1.164 3.51-5.888 2.96-8.607 1.83-2.003-1.26-.583-4.47-1.125-6.522-.86-36.136-.857-72.31-1.293-108.45-.653-80.82-.992-161.627-2.39-242.44.58-2.134 3.297-2.45 5.146-2.502zm160.34 37.152c-37.917.48-71.92 17.168-95.46 43.426h-9.872c-.43 0-.847.2-1.15.505-.308.307-.48.693-.48 1.125V165c-13.748 20.656-21.77 45.426-21.77 72.056 0 26.63 8.023 51.405 21.77 72.056v56.73c0 .432.172.845.48 1.152.303.306.72.45 1.15.45h214.06c.433 0 .848-.144 1.153-.45.307-.307.45-.72.45-1.153v-56.725c13.744-20.65 21.77-45.427 21.77-72.056 0-26.63-8.025-51.403-21.77-72.057v-13.247c0-.43-.143-.818-.45-1.125-.304-.304-.72-.505-1.15-.504h-9.9c-23.88-26.642-58.557-43.426-97.144-43.426-.563 0-1.128-.007-1.688 0zm.053 3.263c.547-.01 1.083 0 1.632 0 36.292 0 69.062 15.23 92.22 39.68-.05 0-.09-.002-.14 0-.414.02-.813.156-1.153.394-.04.028-.072.057-.112.085h-34.9c.383-.776.668-1.613.59-2.7-.058-.836-.462-1.698-1.012-2.335-.55-.636-1.215-1.12-1.996-1.547-.938-.51-1.783-.637-2.475-.648.37-1.354.716-2.748.308-4.36-.266-1.053-.98-2.114-1.94-2.84-.96-.727-2.112-1.165-3.543-1.492-3.625-.635-7.194.244-10.773-.28-.208-.32-.49-.766-.82-1.35-.215-.382-.44-.77-.703-1.18.004-.355.02-.754.056-1.18.186-2.1.15-4.97-1.434-7.85-2.9-5.267-9.736-7.22-14.99-7.817-.815-.092-1.595-.157-2.336-.253-.995-.13-2.193-.228-3.488-.255-7.2.2-14.294.067-21.488 0h-.03c-.48 0-.94-.008-1.406 0-1.29.027-2.496.097-3.488.225-.738.098-1.527.19-2.334.283-5.234.597-12.023 2.55-14.907 7.818-1.577 2.88-2.21 5.834-2.026 7.934.022.257.044.498.056.73-.822.718-1.63 1.517-2.39 2.532-.42.81-1.134.57-1.94.535-2.558-.095-5.123-.38-7.286.112-1.425.327-2.587.793-3.543 1.52s-1.65 1.762-1.912 2.812c-.405 1.608-.088 3.007.28 4.36-.687.013-1.518.138-2.446.646-.78.428-1.45.91-2 1.548-.545.637-.923 1.502-.982 2.334-.077 1.09.188 1.923.563 2.703h-34.87c-.04-.028-.072-.057-.112-.085-.36-.25-.77-.388-1.21-.393-.034-.002-.08.027-.113.027 22.814-24.084 54.95-39.26 90.592-39.71zM430.6 118.42c2.827-.038 6.31.09 9.057.14 0 .006.76-.005.76 0 .425 2.26-.26 4.5-.058 6.75-1.426.452-3.976.7-5.4 1.154-2.306.84-5.89 1.49-8.354 1.49-1.747 0-3.486.65-4.417 1.94-.93 1.29-1.013 2.684-1.013 3.994 0 .807-.14.978-.252 1.097-.113.12-.416.326-1.07.45-1.31.25-4.564.056-7.087.057-.298 0-2.13.18-2.448.168 1.91-1.72 2.53-3.28 2.335-5.765-.21-2.368.454-4.203 1.125-5.43 1.546-2.823 7.19-5.12 11.588-5.624.76-.086 1.56-.144 2.39-.252.7-.09 1.69-.152 2.84-.17zm20.84 0c.77-.008 1.54-.01 2.25 0 1.16.015 2.138.077 2.84.17.835.107 1.655.165 2.42.25 4.423.504 10.09 2.805 11.645 5.626.672 1.225 1.025 3.06.815 5.43-.287 1.97.736 3.92 1.688 5.65-.32.013-1.5-.054-1.8-.054-2.536 0-5.516.193-6.835-.057-.66-.125-.955-.33-1.068-.45-.114-.12-.254-.294-.254-1.097 0-1.31-.103-2.705-1.04-3.994-.933-1.29-2.636-1.94-4.386-1.94-2.478 0-6.118-.65-8.437-1.49-1.384-.505-3.854-.71-5.15-1.156-.447-2.12-.192-4.518-.307-6.75 2.067-.038 5.312-.12 7.62-.14zm-212.17 2.898c.12-.01.26 0 .393 0 2.998.174 5.725 1.994 8.072 3.6.566 3.362 2.18 6.757 1.77 10.155-3.252.606-6.707.99-9.617 2.87-1.942-.286-1.97-2.845-3.29-4.024-2.03-2.6-3.464-6.76-.648-9.36.98-1.22 1.523-3.05 3.32-3.236zm405.28.086c4.515.21 6.023 5.765 5.71 9.506-.268 2.538-1.118 5.708-3.6 6.835-2.84-1.545-6.078-2.185-9.197-2.588-.876-2.19.52-5.028.872-7.4.15-3.307 2.94-6.058 6.215-6.357zm-202.443 7.425c.49.25.997.425 1.49.59 1.806.62 3.766 1 4.19 1.158 2.957 1.074 6.777 1.744 9.93 1.744.937 0 .85.11.87.14.022.028.198.488.198 1.435 0 1.566.49 3.047 1.463 4.077.97 1.03 2.217 1.52 3.402 1.747 2.37.448 4.85.11 7.088.11 1.47 0 2.935-.042 4.275-.026.325.703.75 1.51 1.49 2.25.205.205.426.48.647.788-.252.73-.2.8-.787 1.38-.927.915-1.715 2.32-1.715 3.938 0 .818.418 1.488.87 1.968.1.104.183.198.282.282.095.078.19.166.28.223.62.4 1.215.576 1.83.733 1.163.296 1.405.414 2.756.534.055.238.102.507.14.76.04.248.085.5.113.758-.68.255-.997.87-1.52 1.322-1.37.997-2.42 2.338-2.39 3.966.023 1.627 1.072 2.74 2.05 3.43 1.006.71 1.073 1.215 2.193 1.52.003.19 0 .374 0 .562 0 3.388.282 6.634.282 9.703 0 3.326-.007 6.31-.507 9.31-.598 3.597.225 6.995.225 9.535 0 3.05.197 5.965-.225 8.49-.68 4.093-.025 7.78-.025 11.14v9.42c0 2.53-.28 4.64-.28 7.54 0 1.69-.564 3.696-.564 6.186 0 .094-.08 17.67-.224 20.364-.146 2.695-.34 6.156-.535 9.62-.192 3.46-.39 6.926-.532 9.645-.067 1.22-.1 2.18-.14 3.01h-.423c-3.165 0-6.244-.28-9.675-.28-3.69 0-8.556-.79-13.22-.565-1.555.077-3.087.3-4.556.62-6.06 1.327-17.298.845-17.298.845-.982.098-1.992.16-3.008.168-1.644.084-1.993.054-2.842-.085-3.476-.165-4.907-.417-7.762-.534-1.525-.098-3.056-.17-4.613-.17-2.892 0-6.61.148-9.474.226-.11-2.424-.308-5.72-.48-9.28-.278-5.81-.533-11.927-.533-13.08 0-3.572-.815-21.962-.815-24.805v-8.352c0-3.377-.252-6.76-.252-9.954v-9.675c0-3.593-.282-6.918-.282-10.238 0-3.44.283-6.832.283-10.49 0-3.466.04-6.986-.564-10.604-.382-2.297-.095-5.277 0-8.27 1.114-.304 1.135-.807 2.138-1.52.975-.69 2.028-1.807 2.054-3.43.026-1.622-1.024-2.967-2.39-3.966-.586-.427-.05-.687-.647-.955.026-.13.057-.235.085-.366.024-.114.06-.25.084-.365.084-.415.142-.8.225-1.21.99-.11.88-.255 1.745-.478.613-.157 1.18-.333 1.8-.73.09-.06.185-.148.28-.226.1-.08.212-.177.31-.28.453-.477.844-1.152.844-1.97 0-1.612-.767-3.02-1.69-3.936-.743-.74-.964-1.2-1.266-1.66.295-.903.677-1.808 1.154-2.7 1.69-.12 3.69-.03 5.71-.03 2.225 0 4.666.34 7.03-.11 1.18-.225 2.436-.714 3.404-1.745.966-1.03 1.46-2.513 1.46-4.078 0-.947.178-1.406.198-1.435.02-.028-.058-.14.872-.14 3.14 0 6.928-.696 9.87-1.772.42-.153 2.365-.505 4.164-1.125.494-.17.97-.335 1.462-.59zm-43.453 9.51c.625-.01 1.396.013 2.22.028-.706.88-1.18 1.975-1.18 3.32 0 .85.398 1.647.816 2.136.42.49.84.81 1.265 1.07-.197.965-.39 1.906-.59 2.87-.72.05-1.44.106-2.11.167-1.278.118-2.232.128-3.43.675-.377.173-.786.42-1.153.873-.153.187-.263.395-.367.647h-2.868c-.138-.295-.292-.582-.45-.872-.537-.98-.62-1.434-.647-1.406.087-.084.244-.242.675-.48-.042.023.65.012 1.857-.027.603-.02 1.652-.06 2.53-1.1.878-1.034.737-2.26.478-3.205-.473-1.732-.658-3.048-.562-3.432.05-.19.05-.222.31-.42.26-.2.846-.496 1.884-.732.218-.05.697-.1 1.322-.11zm87.13 0c.63.01 1.1.063 1.323.113 1.045.238 1.648.53 1.912.73.26.2.29.235.334.423.096.38-.114 1.673-.59 3.404-.26.945-.377 2.2.506 3.233.88 1.035 1.927 1.078 2.53 1.098 1.21.04 1.893.05 1.858.03.433.237.587.394.674.48-.027-.034-.108.426-.647 1.405-.16.29-.313.578-.45.873h-2.896c-.1-.25-.24-.46-.395-.647-.37-.45-.776-.7-1.154-.872-1.2-.544-2.145-.557-3.43-.675-.42-.037-.874-.05-1.32-.084-.134-.45-.274-.926-.394-1.407-.15-.6-.353-1.225-.59-1.856.287-.2.59-.434.87-.76.42-.488.816-1.28.816-2.135 0-1.347-.47-2.442-1.18-3.32.83-.014 1.59-.037 2.22-.027zm-57.46 14.317c-.315-.003-.592.055-.814.11-.885.227-1.447.603-1.49.62-.35.142-.656.365-.872.676-.525.738-1.196 1.638-1.098 3.178.05.77.528 1.756 1.294 2.28.766.523 1.6.674 2.504.674.75 0 1.54-.194 2.194-.73.655-.535 1-1.3 1.096-1.913.192-1.223-.133-2.103-.31-2.81-.165-.666-.693-1.484-1.46-1.83-.386-.17-.726-.25-1.043-.25zm26.045 0c-.256.023-.5.122-.79.252-.77.344-1.325 1.162-1.49 1.827-.18.708-.475 1.588-.28 2.812.092.612.41 1.377 1.07 1.912.65.536 1.47.73 2.22.73.9 0 1.735-.15 2.5-.674.767-.523 1.245-1.508 1.295-2.278.1-1.54-.574-2.44-1.098-3.177-.217-.31-.52-.533-.87-.676-.046-.016-.608-.392-1.493-.618-.22-.058-.5-.115-.815-.113-.08 0-.17-.008-.255 0zm-117.538.758h5.428c-1.885 2.25-3.693 4.545-5.427 6.92v-6.92zm9.815 0h1.912c.096.094.22.178.336.253.49.335.403.25.506.422.103.172.357.77.9 1.743.312.562.736 1.092 1.125 1.632-1.264-.182-2.643-.3-3.91-.393-.55-.04-1.042-.08-1.49-.085-.446-.004-.68-.062-1.433.17-.19.056-.458.102-.844.42-.385.318-.9 1.218-.786 2.026.112.808.508 1.177.73 1.378.222.205.397.29.535.368.55.303.93.38 1.574.563.26.075.705.177 1.012.254-1.353.142-2.433.212-3.516.56-.27.09-.57.167-.984.48-.416.312-1.1 1.226-.957 2.22.143.997.715 1.416 1.04 1.66.323.245.6.375.9.507 1.04.484 2.264.08 2.81-.93.456-.063.566-.104 1.154-.166 1.333-.14 2.93-.32 4.443-.563 1.512-.243 2.922-.514 4.217-1.236.108-.06.218-.11.34-.197.2.134.4.247.646.31.07.02.516.29 1.21.955.694.67 1.638 1.604 3.094 2.25 11.995 5.34 25.24 15.336 38.08 18.76-.077 2.034-.14 4.095-.14 6.245 0 .52-.01 1.01 0 1.52-.102.01-.207.056-.31.083-11.72 2.457-28.345-.813-42.58-.45-.7.02-1.402-.205-2.307-.506-.68-.227-1.525-.55-2.533-.59-.334-.016-.687.02-1.067.083-.258.03-.508.11-.732.223-.106-.636-.442-1.128-.7-1.433-.37-.434-.725-.697-1.1-.957-1.494-1.04-3.525-1.99-4.05-2.362-.745-.53-1.07-.83-1.686-1.238-.616-.41-1.49-.73-2.39-.872-.146-.023-.28-.034-.425-.028-1.115.05-2.02.966-2.08 2.08-.06 1.116.752 2.08 1.855 2.25.59.093.453.06.62.17.168.11.695.564 1.604 1.21.523.37 1.1.663 1.686.984-1.22.38-2.503.836-3.685 1.295-.51.2-.97.4-1.377.59-.36.17-.61.235-1.07.62v-29.53c3.005-4.46 6.287-8.71 9.816-12.744zm7.284 0h29.17c-.32.652-.312 1.393.057 2.025.395.677 1.128 1.08 1.912 1.07.27 0 1.4.023 2.56-.087.572-.053 1.17-.14 1.8-.336.31-.098.65-.218 1.04-.478.384-.26.88-.716 1.094-1.49.062-.234.128-.464.168-.706h3.178l.057.057c.905.898 2.008 1.466 3.205 2.11.425.23.863.46 1.294.674-.2 1.12-.372 2.268-.478 3.433-1.51.002-2.915.006-3.968-.17-1.306-.218-1.842-.535-2.165-1.125-.578-1.053-1.9-1.42-2.953-.843-1.054.577-1.45 1.9-.872 2.953 1.137 2.076 3.332 2.993 5.288 3.32 1.504.25 3.012.237 4.47.225-.015.34-.008.714-.026 1.067-.17.133-.354.27-.48.45.048-.065-.677.578-1.545.788-.87.21-1.79.188-2.618-.31-1.03-.62-2.364-.27-2.98.76-.62 1.03-.3 2.363.73 2.98 1.963 1.18 4.14 1.237 5.88.817.32-.076.6-.18.9-.28.04.773.122 1.564.25 2.334.51 3.06.507 6.227.506 9.62-11.218-3.365-24.094-12.74-36.42-18.225-.64-.285-1.17-.774-1.858-1.435-.688-.66-1.527-1.576-3.01-1.998-.21-.065-.427-.115-.647-.112-.046 0-.096.025-.14.03.182-.63.104-1.215 0-1.605-.145-.55-.365-.954-.59-1.35-.904-1.582-2.33-3.292-2.644-3.853-.065-.113-.115-.204-.17-.307zm135.59 0h3.236c.037.242.076.472.14.703.214.78.737 1.23 1.124 1.49.39.26.726.382 1.043.48.63.194 1.22.282 1.8.336 1.158.11 2.286.086 2.558.086.786.01 1.52-.393 1.915-1.07.37-.63.406-1.373.085-2.025h29.136c-.054.103-.106.194-.17.31-.312.56-1.74 2.27-2.643 3.853-.227.395-.418.8-.563 1.35-.103.39-.207.976-.028 1.604-.06-.004-.11-.032-.17-.03-.197.006-.4.055-.59.113-1.483.422-2.322 1.335-3.01 1.997-.687.66-1.244 1.15-1.883 1.434-12.16 5.41-24.838 14.603-35.946 18.083.317-2.79.31-5.48.31-8.214 0-1.2-.01-2.39-.058-3.57.28.09.542.18.844.25 1.74.42 3.914.336 5.88-.843.693-.385 1.13-1.117 1.124-1.91-.007-.796-.455-1.51-1.155-1.886-.7-.376-1.556-.35-2.22.084-.83.498-1.72.52-2.59.31-.87-.21-1.65-.852-1.604-.787-.135-.195-.292-.367-.477-.506-.006-.29 0-.556 0-.844v-.168c1.477.008 3.002 0 4.526-.254 1.962-.324 4.145-1.213 5.287-3.29.58-1.053.184-2.375-.87-2.953-1.053-.577-2.376-.21-2.953.844-.323.59-.85.908-2.164 1.126-1.055.176-2.458.172-3.967.17-.054-1.243-.088-2.44-.114-3.63.3-.153.604-.32.9-.478 1.204-.644 2.296-1.213 3.206-2.11l.054-.06zm46.408 0h1.912c3.53 4.033 6.813 8.283 9.816 12.742v29.502c-.45-.373-.71-.426-1.07-.59-.406-.19-.864-.393-1.38-.59-1.18-.46-2.463-.917-3.682-1.296.583-.32 1.19-.61 1.714-.984.91-.646 1.407-1.098 1.575-1.21.167-.11.06-.077.647-.168 1.157-.13 1.992-1.144 1.912-2.307-.08-1.162-1.058-2.057-2.223-2.025-.123.003-.245.004-.365.028-.904.14-1.75.464-2.363.872-.616.41-.942.707-1.688 1.238-.524.372-2.583 1.32-4.08 2.362-.373.26-.73.523-1.095.957-.26.305-.596.798-.705 1.433-.23-.116-.464-.196-.73-.223-.38-.065-.734-.1-1.07-.085-1.006.04-1.824.364-2.503.59-.905.3-1.607.524-2.306.505-14.237-.363-30.89 2.907-42.61.45-.01-.633-.03-1.25-.03-1.856 0-2.122-.292-4.2-.392-6.02 12.826-3.434 26.07-13.395 38.052-18.73 1.457-.65 2.43-1.583 3.123-2.25.692-.67 1.11-.94 1.18-.96.242-.06.447-.174.646-.305.123.087.26.137.366.196 1.296.72 2.706.994 4.22 1.237 1.514.244 3.083.423 4.415.563.59.06.7.102 1.155.17.545 1.01 1.798 1.41 2.84.925.298-.132.575-.262.9-.506.323-.246.866-.665 1.01-1.66.146-.996-.54-1.91-.955-2.22-.415-.315-.712-.39-.983-.48-1.084-.35-2.135-.42-3.488-.56.307-.08.752-.18 1.012-.256.644-.184.994-.26 1.545-.562.14-.077.312-.164.535-.367.222-.2.617-.57.73-1.377.114-.81-.4-1.71-.786-2.026-.387-.32-.655-.365-.844-.42-.756-.233-.96-.175-1.406-.17-.448.004-.97.044-1.52.084-1.264.09-2.615.21-3.88.39.388-.54.812-1.07 1.125-1.63.54-.974.795-1.57.9-1.744.1-.172-.015-.087.476-.422.115-.074.24-.16.337-.253zm6.3 0h5.43v6.947c-1.737-2.375-3.54-4.697-5.43-6.947zm-101.334 7.763c-.518.047-1.02.302-1.35.702-.332.4-.472.917-.423 1.434.06.743.17 4.194.255 7.313.04 1.56.084 3.046.11 4.19.028 1.145.03 2.135.03 1.997-.01.705.374 1.36.984 1.716.61.355 1.33.355 1.94 0 .61-.357.995-1.01.985-1.717 0-.324-.002-.932-.03-2.08-.027-1.15-.07-2.655-.112-4.22-.085-3.13-.19-6.342-.282-7.51-.032-.526-.3-1.007-.7-1.35-.35-.3-.784-.472-1.238-.477-.065 0-.103-.006-.168 0zm191.812 8.437c.142-.007.287.027.45.14 1.653 1.136 4.14.688 5.483 1.97 1.52 7.29 8.783 12.694 8.13 20.588-.674 1.843-.493 3.973-1.69 5.597-2.226 2.437-5.795 2.452-8.66 3.684-2.236-.85-.89-4.118-1.55-6.02-.714-8.423-1.726-16.78-3.176-25.114.247-.364.586-.823 1.012-.844zm-379.63.282c.284.138.554.282.842.42.137 2.846-1.194 5.857-1.548 8.805-1.412 7.166-2.312 14.38-2.896 21.656-1.484 1.39-3.19-.87-4.867-1.04-1.928-.655-4.41-.72-4.92-3.15-2.766-5.988.764-12.306 3.683-17.466 1.546-2.467 2.413-5.296 3.488-7.905 2.118-.17 4.317-.28 6.217-1.323zm80.52 1.35v131.68c-11.66-19.204-18.395-41.752-18.395-65.868 0-24.11 6.74-46.61 18.395-65.814zm217.293 0c11.655 19.2 18.394 41.703 18.394 65.812 0 24.11-6.74 46.665-18.394 65.87V171.242zM421.4 177.715c-.76.007-1.456.46-1.77 1.153-.306.67-.203 1.452.252 2.025.014.035.22.316.394.59.233.37.542.865.9 1.38.717 1.03 1.543 2.206 2.84 3.037 5.234 3.357 11.787 6.074 18.62 6.074 5.74 0 11.88-2.456 16.564-5.708 2.244-1.557 3.888-3.95 5.035-5.287.47-.53.625-1.275.394-1.94-.23-.67-.82-1.17-1.52-1.297-.085-.015-.164-.024-.25-.028-.076-.003-.15-.005-.226 0-.524.038-1.007.285-1.35.703-1.355 1.58-2.974 3.69-4.303 4.613-4.1 2.846-9.776 5.034-14.343 5.034-5.766 0-11.72-2.385-16.51-5.456-.344-.22-1.136-1.127-1.74-1.998-.304-.436-.59-.85-.816-1.21-.227-.36-.27-.536-.62-.956-.374-.46-.95-.736-1.546-.73zM351.09 197.43c.07-.01.58.062 1.49.366.915.303 2.205.715 3.798.675 13.296-.34 29.77 3.086 42.92.478.056 1.438.113 2.87.113 4.304v9.676c0 3.43.28 6.817.28 9.956v8.355c0 3.57.79 21.962.79 24.805 0 1.718.285 7.465.565 13.276.198 4.09.35 7.575.45 9.9-.08.096-.133.2-.196.31-.4.677-.4 1.516 0 2.194.1.173.22.34.363.476.12.604.496 1.116 1.04 1.434.677.397 1.488.397 2.166 0 .363-.212.655-.505.842-.87 2.99-.074 6.79-.253 9.62-.253.67 0 1.346.03 2.026.058-3.328 6.765-8.766 16.765-13.977 26.83-6.084 11.75-11.864 23.453-13.67 30.995-.41 1.708-.936 3.364-1.604 4.894-.227.03-.557.084-1.152.03-1.47-.134-3.638-.656-5.823-1.295-2.182-.637-4.4-1.403-6.1-1.995-.85-.297-1.584-.545-2.14-.732-.274-.093-.49-.162-.7-.225-.11-.03-.23-.055-.365-.085-.138-.028-.094-.166-.9-.027-.432.06-.818.237-1.125.507-12.94-9.007-24.147-20.36-32.965-33.44V199.34c.265.19.506.26.675.31.29.086.49.102.647.112.63.037.998-.057 1.66-.168.268-.045.7-.163 1.013-.225-1.162.71-2.098 1.24-2.926 2.02-.207.197-.435.41-.675.87-.245.463-.45 1.584.11 2.42s1.204.988 1.6 1.07c.4.082.715.065 1.04.06 1.145-.02 2.08-.91 2.14-2.056.383-.256.477-.364.983-.675 1.144-.7 2.508-1.52 3.77-2.39 1.262-.87 2.43-1.69 3.29-2.897.068-.095.128-.214.197-.338.24.028.49.026.73-.03zm182.307 0c.242.056.492.053.73.03.07.123.13.24.198.336.858 1.208 2.028 2.026 3.29 2.896 1.262.87 2.625 1.69 3.768 2.39.507.313.628.42 1.012.677.058 1.14.967 2.03 2.11 2.052.327.008.644.025 1.04-.057.398-.08 1.073-.23 1.632-1.067.558-.84.325-1.96.085-2.42-.242-.46-.468-.676-.675-.87-.83-.784-1.737-1.316-2.898-2.027.312.06.743.18 1.01.225.663.11 1.03.205 1.66.168.157-.008.33-.026.62-.112.166-.05.416-.123.674-.31v108.676c-8.822 13.09-20.018 24.46-32.962 33.47-.303-.273-.67-.468-1.098-.535-.806-.14-.79 0-.927.028-.137.03-.23.054-.337.085-.214.063-.454.13-.73.225-.554.187-1.26.435-2.11.732-1.7.59-3.917 1.356-6.102 1.994-2.187.64-4.38 1.16-5.85 1.295-.603.053-.93 0-1.154-.03-.668-1.53-1.194-3.186-1.603-4.894-1.805-7.542-7.56-19.245-13.64-30.994-5.296-10.233-10.834-20.403-14.145-27.168.554.017 1.096.027 1.63.027 3.197 0 6.274.256 9.676.256h1.885c.565.163 1.196.108 1.716-.196.677-.395 1.08-1.13 1.07-1.914 0-.145.107-2.296.25-5.006.147-2.71.34-6.185.537-9.647.194-3.463.388-6.917.534-9.62.147-2.703.226-19.83.226-20.587 0-1.755.562-3.74.562-6.187 0-2.618.252-4.718.252-7.54v-9.42c0-3.85-.56-7.23-.03-10.41.167-.995.26-2 .31-2.98 13.08 2.46 29.368-.87 42.526-.534 1.592.04 2.854-.37 3.767-.674.913-.304 1.42-.378 1.49-.367zm-185.626.703c.01 0 0 .027 0 .03-.016.006-.07.016-.14 0 .02 0 .13-.03.14-.03zm188.975 0c.01 0 .096.03.112.03-.07.016-.12.006-.14 0 .002-.003.02-.03.027-.03zm-81.03 29.28c-.17.012-.325.04-.45.084-.495.17-.783.42-.786.42-.138.066-.265.168-.365.282-.065.08-.13.156-.17.252-.207.465-.455 1.085-.14 1.912.157.414.537.843.985 1.04.446.2.915.216 1.433.17.425-.04.9-.142 1.266-.535s.44-.96.393-1.32c-.096-.73-.426-1.15-.647-1.52-.198-.33-.548-.62-.956-.73-.203-.06-.39-.07-.562-.06zm-32.426.056c-.174.01-.354.07-.48.11-.495.17-.755.392-.758.393-.1.05-.2.124-.28.2-.105.1-.195.204-.254.336-.208.463-.428 1.11-.113 1.94.158.413.51.813.956 1.01.448.198.917.243 1.436.197.424-.04.9-.17 1.265-.563.368-.392.47-.93.424-1.293-.096-.724-.454-1.15-.675-1.52-.198-.327-.55-.643-.957-.76-.205-.054-.39-.067-.563-.053zm34.452 54.28c1.387.03 2.84.103 4.305.196 3.232 6.94 9.382 18.127 15.244 29.446 6.048 11.682 11.704 23.57 13.247 30.01.48 2 1.127 4.026 2.025 5.99.45 1.106 1.536 1.844 2.42 2.08.99.267 1.94.262 2.954.17 1.63-.148 3.435-.565 5.288-1.07-11.33 6.22-23.697 10.75-36.788 13.276.223-.31.36-.67.394-1.068.063-.8-.315-1.592-.987-2.027-.547-.39-1.403-.89-2.614-1.63-1.213-.74-2.68-1.627-4.108-2.504-1.43-.877-2.827-1.734-3.825-2.39-.345-.228-.558-.4-.788-.564-.375-6.223 1.407-11.763.702-19.378-.072-.79.04-4.9.31-9.957s.657-11.34 1.04-17.464c.386-6.125.767-12.118.986-16.622.108-2.25.182-4.107.196-5.485.004-.38.006-.706 0-1.01zm-4.36.17c.006.246.006.43 0 .784-.01 1.267-.09 3.12-.195 5.344-.215 4.45-.57 10.414-.956 16.537-.383 6.123-.796 12.428-1.07 17.522-.27 5.092-.424 8.703-.25 10.574.644 6.98-1.407 12.62-.705 20.225.077.822.343 1.032.48 1.208.134.175.243.25.337.338.186.175.348.31.534.45.374.28.84.6 1.38.957 1.078.71 2.463 1.56 3.908 2.445 1.445.887 2.935 1.8 4.135 2.532 1.197.732 2.193 1.362 2.332 1.462.046.034.095.052.14.083-6.9 1.163-13.974 1.8-21.204 1.8-7.226 0-14.31-.61-21.206-1.77.05-.035.092-.076.14-.115.14-.1 1.163-.73 2.362-1.463 1.2-.732 2.66-1.645 4.106-2.532 1.445-.886 2.86-1.736 3.938-2.446.54-.356.977-.677 1.35-.957.187-.14.377-.276.562-.45.094-.088.203-.163.338-.338.135-.177.373-.387.45-1.21.703-7.604-1.32-13.242-.675-20.222.174-1.87-.01-5.48-.28-10.574-.27-5.093-.682-11.4-1.067-17.52-.384-6.124-.74-12.088-.957-16.54-.094-1.936-.146-3.493-.17-4.724 1.184-.03 2.378-.13 3.573-.28 1.354-.17 2.753-.186 4.22-.168 2.59.36 5.263.014 6.944.084 1.97-.058 4.003-.25 6.048-.76.457-.114.952-.212 1.462-.28zm-31.36.954c1.57.128 3.146.25 4.756.336.02 1.333.097 3 .195 5.036.22 4.504.573 10.497.958 16.622s.8 12.41 1.07 17.466c.27 5.06.354 9.167.28 9.957-.703 7.62 1.08 13.18.704 19.41-.227.16-.45.31-.786.532-1 .66-2.396 1.516-3.825 2.393-1.43.875-2.896 1.762-4.106 2.502-1.212.74-2.068 1.24-2.617 1.63-.672.435-1.05 1.228-.983 2.027.032.398.167.756.393 1.067-13.092-2.526-25.457-7.057-36.787-13.275 1.85.504 3.658.922 5.288 1.07 1.016.092 1.968.097 2.954-.17.887-.236 1.97-.974 2.42-2.08h.03c.896-1.964 1.517-3.99 1.996-5.99 1.542-6.44 7.227-18.328 13.275-30.01 5.606-10.826 11.46-21.53 14.794-28.518zM254.12 300c.455.014.87.135 1.265.45 1.205 10.78 2.13 21.635 2.615 32.485-1.507 1.745-3.026-1.25-4.696-1.576-1.702-.96-.764-3.54-1.913-5.095-2.6-6.133-8.344-11.968-6.914-19.18.647-2.758 2.335-5.486 5.344-5.992 1.352-.17 2.935-1.14 4.3-1.096zm377.943.225c.137.002.27.057.422.196 2.102 1.218 5.034 1.03 6.722 2.76 3.348 4.953 1.353 11.233-1.434 15.92-2.155 3.893-4.614 7.837-4.923 12.347-1 .758-2.753 2.895-3.908 1.35.346-10.644 1.14-21.28 1.996-31.894.364-.21.715-.683 1.125-.674zM336.835 313.78c18.298 25.055 45.313 43.367 76.584 50.43H336.83v-50.43zm210.825 0v50.43h-76.585c31.27-7.063 58.29-25.375 76.585-50.43zm-305.887 50.514c.19-.01.366.01.533.168 2.29 1.088 4.863 1.066 7.23 1.715.238 4.04-1.552 8.025-2.25 12.01-1.728 2.853-6.306 3.606-8.298.563-3.338-4.214-2.977-11.834 2.193-14.43.198.016.4-.02.596-.027zm402.58.393h.253c1.804 3.313 5.657 6.93 4.08 11.11-.842 1.476-1.98 2.69-2.87 4.134-1.76 1.525-5.162.826-6.187-1.094-.715-4.22-2.66-8.453-2.366-12.71 2.332-.46 4.768-.795 7.087-1.436zm-6.497 54.14c-.192-.01-.365-.014-.562.03-5.21.38-11.006 1.905-14.428 6.1-1.825 3.292.345 7.073 3.207 8.805 2.166 1.474 5.317 4.628 2.952 7.228-3.135 3.556-8.02 4.73-12.375 5.99-1.102.338-2.592-.648-3.346.366-1.07.29-1.26-1.165-2.448-.42-2.52 1.013-1.193 4.65.9 5.343 2.508 1.854 6.13.25 9 1.233 4.01.456 8.677 2.834 8.888 7.37.795 3.738-2.24 7.35-6.02 7.48-4.935.804-10.538-.184-14.4-3.46-2.573-2.24-3.264-6.285-6.41-7.82-2.336-.473-3.9 2.832-1.914 4.276 2.823 4.37 5.636 9.304 5.43 14.68-1.14 2.166-3.892.01-5.064-1.124-3.16-2.445-5.706-5.547-8.69-8.212-2.25-.823-4.338 2.5-2.25 4.022 3.717 4.41 8.07 8.634 13.33 11.082 3.007 1.49 6.388-.806 7.004-3.91.93-1.85-.38-4.286.928-5.767 4.45 1.016 9.44 1.87 14.035.534 4.526-.842 8.288-4.647 8.633-9.365.684-5.606-2.98-11.116-8.212-13.16-.85-2.21 2.567-2.135 3.685-3.405 3.91-2.252 6.365-7.482 3.88-11.587-1.4-2.944-4.58-4.46-6.33-6.948.32-3.143 4.433-3.275 6.75-4.022 1.945-.676 5.363-.056 6.05-2.557.275-1.395-.878-2.704-2.227-2.784zm-389.22.03c-2.757.146-2.32 4.22-.03 4.808 3.723.218 8.012.882 11.054 3.488.53 2.018-2.484 2.978-3.544 4.415-3.648 2.742-5.327 8.172-2.475 12.038 1.68 2.615 5.006 3.683 7.148 5.485.293 1.805-2.566 1.76-3.487 3.04-5.997 4.26-6.815 14.883-.17 18.844 5.208 3.172 11.965 2.84 17.663 1.098 2.023.897.284 3.6 1.21 5.317.33 3.406 4.29 6.25 7.454 4.217 5.234-2.438 9.284-6.698 13.134-10.883 1.37-1.603.333-4.473-1.912-4.08-2.55.83-3.65 3.883-5.85 5.345-2.127 2.047-4.39 4.025-7.06 5.342-2.28-.687-1.165-3.81-.927-5.596 1.13-4.118 3.323-7.79 5.598-11.334 1.36-2.12-1.837-4.558-3.487-2.67-2.675 2.095-3.345 5.874-6.215 7.874-3.625 2.602-8.42 3.307-12.797 2.925-3.417-.33-7.233-2.68-6.89-6.554-.155-3.644 2.454-6.753 5.878-7.733 3.474-1.33 7.294-.975 10.884-1.153 1.13-.898 2.56-1.704 3.345-3.01.97-1.838-1.56-4.568-3.094-2.813-1.523-.675-3.57.31-5.23-.73-4.294-1.252-9.45-2.58-11.81-6.722-.7-4.25 4.346-5.69 6.354-8.55 2.102-2.638 1.344-6.796-1.66-8.44-3.746-2.648-8.546-3.856-13.078-3.964zm70.593 23.708c5.81.65 11.64.007 17.49.225 28.78-.186 57.5 3.15 86.287 2.28 39.65.067 79.304.126 118.94-1.07 11.407-.033 22.83-.33 34.2-.76 3.095 1.967 1.4 6.12 2.362 9.056.15 3.036-3.63 3.036-5.766 2.73-25.094 1.39-50.303 1.236-75.432 1.995-32.068.23-64.125.416-96.187-.14-22.045-1.2-44.122-2.4-66.207-1.88-6.503-.135-13.107.274-19.548-.197-2.984-2.702-.157-6.83-.084-10.07.57-1.61 2.367-2.207 3.94-2.164zm-46.045 3.235c-.03-.036-.148.124-.31.562.28-.292.34-.526.31-.562zM514.3 477.27c.348-.063.77.02 1.126.086 3.294.622 6.805 1.225 9.787 2.644 1.16 3.306 5.502 6 4.162 9.9-2.928 3.94-8.788 5.978-13.388 3.712-2.24-.975-4.066-2.74-5.683-4.472 1.73-3.437 3.295-7.183 3.263-11.138.097-.465.382-.666.73-.73zm-143.66.93c1.754-.11 3.062.765 2.812 2.783.305 2.974 1.912 5.603 2.952 8.27-3.098 1.968-5.885 5.26-9.758 5.624-2.205-.065-4.054-1.354-6.188-1.8-3.427-1.18-3.81-5.495-2.168-8.267 1.252-2.253 2.206-5.562 5.26-5.654 2.097-.59 4.094-1.17 6.3-.844.265-.055.536-.096.787-.112zm45.62.533c1.293.064 2.79.395 3.74.113h14.146c1.557 1.486-.457 3.64-1.042 5.287-1.485 3.395-5.628 4.968-8.97 3.292-4.227-1.005-7.402-4.204-10.38-7.173.11-1.362 1.208-1.58 2.504-1.52zm45.813.085c3.363.03 6.738.104 10.07.028 1.7 1.55-1.304 2.83-2.14 4.05-3.665 3.35-9.2 6.68-14.145 3.994-2.716-1.437-4.546-4.824-3.8-7.82 3.294-.265 6.65-.28 10.013-.252" fill="#fff"/></g></svg>