<svg xmlns="http://www.w3.org/2000/svg" viewBox="0 0 656 556" preserveAspectRatio="xMinYMid"><g fill-rule="evenodd"><path d="M53.085 297.035c-1.006.035-1.892.67-2.25 1.61-.91 2.31-1.67 4.302-2.156 6-.49 1.696-1.1 3.014-.13 5 .06.124.13.24.22.36-1.49.224-2.98.6-4.33 1.186-2.05.9-4.4 1.61-6.6 1.97-2.95.49-5.77 1.58-7.55 1.88-1.67.28-2.75 1.14-3.66 1.81-.91.68-1.67 1.25-2.065 1.43-2.85 1.24-4.825 3.44-6.078 4.35-2.158 1.57-3.328 3.42-4.61 4.768-1.165 1.217-1.494 2.465-1.89 3.56-.4 1.097-.844 2.09-.89 2.157-.956 1.334-1.215 2.685-1.456 3.67-.24.99-.44 1.62-.735 2.03-1.92 2.69-2.966 6.298-3.203 9.25-.26 3.235-1.02 5.73-.345 9.785.56 3.37.86 6.993 1.482 10.734.593 3.572.89 7.286 1.514 11.046.63 3.773 1.24 7.49 2.545 11.297.9 2.627.702 6.3 1.33 10.05.463 2.803.765 5.91 1.64 9.014-1.9 2.1-4.278 4.265-6.566 6.61-2.88 2.956-5.67 6.26-6.83 10.487-1.157 4.224-.41 9.185 3.047 14.547 2.727 4.225 7.08 8.816 13.61 14.09-.69.318-1.366.688-2.06 1.08-1.535.863-3.074 1.87-4.374 2.7-.57.36-.7.42-1.156.69-1.22-.53-2.64-.017-3.234 1.17-.175.335-.32.66-.44 1.11-.117.45-.32 1.204.264 2.203.583 1 1.855 1.346 2.45 1.33.6-.02.93-.15 1.237-.27 1.22-.46 2.224-1.176 3.534-2.013-.22.286-.54.685-.72.936-.445.627-.72.987-1 1.656-.065.166-.144.36-.2.703-.053.34-.15.94.33 1.75.478.804 1.597 1.24 2.17 1.25.577.005.838-.12 1.05-.206.845-.336 1.01-.567 1.407-.89.4-.326.834-.71 1.3-1.14 1.07-.99 2.185-2.087 3.19-3.158.04.762.067 1.55.19 2.28.21 1.264.403 1.99.434 2.22.03.227.06.095-.14.75-.406 1.32.335 2.717 1.655 3.124 1.32.404 2.72-.34 3.125-1.66.06-.2.095-.406.14-.61.474 2.1.995 4.384 1.376 6.096.675 3.047 1.19 5.474 1.22 5.64.095.924.695 1.72 1.56 2.063.77.303 1.637.214 2.313-.236.6-.1 1.205-.21 1.81-.31 3.86-.643 7.31-1.52 10.936-2.126.405-.068.81-.14 1.22-.22.044.93.104 1.955.19 3.185.25 3.534.667 8.2 1.11 13.03.44 4.83.91 9.826 1.22 13.97.308 4.143.436 7.626.34 8.64-.81 8.765 1.23 15.144.8 22.297-.262.184-.503.34-.892.593-1.15.756-2.75 1.758-4.39 2.766-1.648 1.01-3.346 2.04-4.738 2.89-1.395.85-2.37 1.44-3 1.89-.75.52-1.164 1.405-1.08 2.313.082.91.65 1.69 1.483 2.064.83.37 1.797.274 2.53-.27.16-.11 1.325-.845 2.705-1.687 1.376-.84 3.07-1.885 4.73-2.904 1.66-1.02 3.29-2.01 4.53-2.83.62-.407 1.15-.77 1.58-1.093.213-.16.393-.313.607-.515.11-.1.22-.2.376-.406.16-.202.476-.432.565-1.39.81-8.752-1.522-15.225-.78-23.25.19-2.05-.03-5.272-.344-9.483-.315-4.21-.776-9.23-1.22-14.06-.44-4.83-.863-9.48-1.11-12.93-.115-1.637-.196-2.98-.216-3.92 4.62-1.08 9.253-2.2 12.733-1.92 7.31.583 13.79-2.045 19.69-2.284 3.67-.15 7.203-.84 10.64-1.655.01 17.028.006 41.99-2.89 56.78-.454 2.327-.78 4.75-.78 7.237h.03c-.1 1.334.426 2.41 1.02 3.265.66.965 1.502 1.806 2.482 2.674 1.96 1.73 4.494 3.49 7.047 5.12 2.56 1.63 5.13 3.123 7.1 4.235.986.556 1.82 1.013 2.42 1.344.303.167.553.3.72.39.085.05.19.11.236.14 1.137.69 2.63.38 3.39-.73.79-1.154.496-2.728-.656-3.518-.395-.27-.348-.21-.53-.31-.188-.106-.42-.23-.72-.39-.598-.33-1.416-.79-2.377-1.33-1.92-1.087-4.422-2.54-6.86-4.096-2.433-1.557-4.81-3.23-6.403-4.64-.8-.71-1.41-1.36-1.69-1.77-.13-.19-.14-.29-.14-.293v-.093c0-2.04.27-4.148.683-6.266 3.174-16.21 3-42.032 2.986-59.014 2.094-.52 4.175-.99 6.2-1.33 3.225-.54 7.554-1.08 10.97-1.56.546.7 1.433 1.09 2.374.933 1.167-.196 2-1.167 2.08-2.297.408-.514.624-1.174.53-1.875-.086-.66-.43-1.22-.904-1.61-.22-1.776-.49-3.93-.842-6.92.052.08.1.17.156.25.784 1.14 2.344 1.425 3.483.64 1.14-.786 1.426-2.346.64-3.485-.39-.565-.32-.446-.36-.67-.04-.23-.083-1-.264-2.27-.107-.733-.32-1.49-.518-2.233 1.285.717 2.676 1.437 4 2.06.573.27 1.1.5 1.58.69.476.187.7.37 1.606.436.222.017.514.06 1.06-.123.546-.18 1.476-.943 1.69-1.86.21-.91-.065-1.453-.22-1.762-.157-.31-.29-.47-.408-.61-.464-.55-.832-.8-1.45-1.264-.25-.186-.683-.475-.984-.686 1.51.403 2.69.787 4 .858.326.018.674.04 1.25-.125.573-.16 1.68-.882 1.935-2.01.258-1.125-.16-1.774-.403-2.17-.247-.394-.485-.655-.75-.92-.925-.944-2.424-1.005-3.42-.14-.52-.12-.668-.138-1.33-.315-1.49-.396-3.26-.89-4.986-1.25-.785-.163-1.552-.31-2.31-.404 4.627-7 7.4-12.7 8.72-17.55 1.673-6.153.897-11.12-1.485-14.795-2.38-3.68-6.05-5.98-9.686-7.92-3.574-1.916-7.2-3.51-9.905-5.347-.55-3.55-.877-7.105-1.5-10.845-.69-4.15-1.63-7.952-2.28-11.86-.66-3.95-1.297-7.652-1.296-11.31 0-1.42-.15-2.832-.376-4.22 1.36-.4 2.77-.82 4.25-1.26 1.91-.58 3.766-1.15 5.17-1.58 1.404-.43 2.12-.635 2.516-.765 1.23-.362 1.984-1.6 1.75-2.86-.233-1.26-1.38-2.134-2.656-2.03-.23.015-.454.06-.67.14.17-.056-1.006.306-2.406.734-1.4.43-3.245 1-5.154 1.58-1.307.39-2.558.765-3.81 1.14-.227-1.016-.427-1.984-.58-2.89-.652-3.93-2.206-7.666-3.436-10.91-1.317-3.464-2.587-6.666-3.86-10.03-1.52-4.01-4.367-7.255-7.128-9.89-3.286-3.14-6.837-4.1-9.39-5.92-2.34-1.67-5.39-2.51-8.19-2.88.625-.372 1.29-.74 1.97-1.08 2.648-1.312 5.618-2.33 7.577-2.652 1.284-.21 2.2-1.37 2.09-2.67-.107-1.3-1.194-2.302-2.5-2.297-.14 0-.28.01-.42.03-2.74.456-5.958 1.62-8.987 3.126-2.88 1.432-5.526 3.094-7.328 5.203-1.23-.07-2.336-.19-3.018-.39.964-1.83 2.563-4.088 3.58-5.454.36-.49.604-.57.98-1.625.095-.263.317-.644.094-1.545-.11-.455-.44-1.028-.906-1.39-.468-.37-.96-.498-1.31-.535-1.4-.143-1.45.22-1.75.378-1.21.62-2.627 1.69-5.738 3.953-1.466 1.067-2.594 1.787-3.53 2.344.407-1.324 1-2.973 1.81-5.03.32-.786.22-1.68-.264-2.376-.487-.69-1.295-1.09-2.14-1.06zm12.14 6.625c.023-.01.015.054-.156.11l.15-.11zm-5.468 10.47c.6-.005 1.006.02.985.015 2.807.864 6.107.717 8.375.72 2.407 0 7.593 1.16 9.03 2.186 3.437 2.46 6.597 3.34 8.844 5.49 2.5 2.39 4.82 5.17 5.91 8.03 1.3 3.42 2.57 6.62 3.86 10.03 1.26 3.33 2.67 6.84 3.19 9.97.2 1.16.45 2.31.69 3.46l-.33.1c-.91.17-1.66.83-1.94 1.72-.27.89-.03 1.86.63 2.517.66.658 1.63.89 2.52.61.02-.004.06-.01.08-.015.15.996.25 1.94.25 2.815 0 2.38.23 4.68.548 6.936-4.847 5.14-6.2 5.486-12.953 6.61-7.68 1.28-16.26-.913-23.47-4.39-.48-.233-1.82-1.384-2.86-2.546-.514-.583-.99-1.174-1.39-1.66-.392-.48-.53-.714-1.09-1.25-.542-.525-1.274-.813-2.03-.794-1.144.03-2.16.74-2.563 1.81s-.11 2.29.733 3.06c-.27-.256.2.24.61.733s.934 1.144 1.543 1.826c1.22 1.37 2.614 2.9 4.61 3.86 7.92 3.82 17.49 6.445 26.83 4.89 5.636-.937 9.194-2.107 13.11-5.42.656 3.562 1.464 6.9 2.033 10.312.626 3.768.946 7.597 1.624 11.67l1.828 11c.3 1.81.53 3.68.768 5.58-6.135-.21-13.772 1.53-21.686 3.53-8.443 2.13-17.15 4.63-23.86 5.75-9.664 1.61-19.565 1.77-29.22 3.378-3.21.536-7.005-.9-12.22-.154-.14-.07-.35-.21-.873-.372 0-.002-.01 0-.013 0-.205-1.246-.415-2.49-.623-3.734-.57-3.443-.61-7.28-1.75-11.312.4-.72.42-1.61.034-2.36-.234-.45-.59-.8-1.02-1.03-.54-2.32-.84-4.91-1.28-7.55-.48-2.885-.17-6.864-1.53-10.83-1.134-3.31-1.715-6.73-2.343-10.5-.58-3.48-.89-7.204-1.53-11.047-.575-3.46-.86-7.093-1.47-10.75-.52-3.14.095-4.83.39-8.545.15-1.854 1.26-5.316 2.28-6.75.98-1.364 1.29-2.753 1.535-3.767.243-1.016.46-1.64.67-1.94.863-1.21 1.145-2.34 1.515-3.36.37-1.017.85-1.87.796-1.81 1.687-1.76 2.718-3.3 3.94-4.185 1.95-1.416 3.67-3.165 5.125-3.8 1.343-.585 2.27-1.4 3.06-1.983.785-.59 1.41-.877 1.5-.894 2.675-.447 5.364-1.53 7.53-1.89 2.645-.44 5.33-1.256 7.765-2.31 1.46-.638 4.5-1.066 6.64-1.066 1.4 0 2.953-.277 4.514-.454.78-.09 1.57-.12 2.17-.124zm14.03 31.936c-.472.01-1.05.114-1.656.516-.8.537-1.24 1.573-1.31 2.36-.06.837-.26 1.882.19 3.234.23.676.74 1.5 1.58 1.984.85.485 1.82.547 2.67.406 1.03-.17 1.95-.48 2.72-1.22.77-.737 1.12-1.944 1.03-2.826-.18-1.766-1.12-2.668-1.86-3.406-.3-.307-.69-.518-1.11-.61-.05-.012-.76-.333-1.81-.422-.13-.01-.28-.018-.43-.016zm39.188 56.14c2.182 1.164 4.418 2.208 6.485 3.314 3.385 1.81 6.242 3.76 7.844 6.234 1.6 2.473 2.27 5.572.86 10.766-1.265 4.647-4.33 10.836-9.97 18.92-.124-.953-.218-1.713-.296-2.186-.538-3.227-.2-6.79-.875-10.844l-1.58-9.47c-.592-3.56-.913-7.466-1.562-11.358-.29-1.792-.6-3.583-.9-5.375zM15.32 415.74c.336 2.33.513 4.826.952 7.467l1.782 10.688c.532 3.202 1.24 5.532 1.734 8.5.462 2.775 1.45 4.946 1.78 6.937.112.672.447 2.2.892 4.203-7.52-5.83-12.15-10.68-14.703-14.64-2.916-4.524-3.2-7.675-2.422-10.516.778-2.85 2.9-5.57 5.578-8.32 1.393-1.43 2.916-2.85 4.406-4.33zm93.186 3.25c.674-.01 1.314.016 1.907.06.037.235.07.47.11.704l1.577 9.468c.538 3.225.185 6.79.86 10.844.218 1.308 1.063 8.293 1.844 14.938.477 4.07.9 7.822 1.234 10.593-3.267.455-7.512 1-10.797 1.548-7.55 1.257-14.59 3.915-21.28 4.187-7.07.288-13.33 2.76-19.09 2.297-6.91-.56-14.57 2.35-20.15 3.28-3.89.65-7.36 1.54-10.95 2.14l-.45.08c-.2-.94-.44-2.03-.75-3.41-.68-3.06-1.543-6.95-2.42-10.85-.87-3.9-1.743-7.79-2.42-10.82-.672-3.03-1.2-5.46-1.22-5.56-.47-2.83-1.46-5.008-1.78-6.92-.544-3.29-1.24-5.63-1.72-8.5-.083-.53-.174-1.06-.262-1.58.11-.01.24-.03.36-.05 3.94-.66 7.663.96 12.686.122 1.987-.33 4.02-.598 6.077-.83 0 .316.03.986.423 1.89 1.005 2.322 2.985 6.727 4.98 10.39.997 1.833 1.964 3.465 2.984 4.705.51.616.964 1.173 1.91 1.64.473.23 1.167.443 1.984.295.82-.15 1.56-.72 1.94-1.25 1.01-1.413 3.89-5.996 6.75-10.265 1.254-1.874 2.47-3.612 3.42-4.89.34.82.86 1.54 1.5 2.017 1.13.84 2.37 1.283 3.69 1.47-.857.84-1.206 1.82-1.47 2.92-.28 1.16-.43 2.52-.486 4.234-.203 6.327.548 10.145 2.456 14.53.77 1.78 1.41 3.98 2.685 5.785.32.453.7.92 1.313 1.33.61.407 1.58.71 2.512.545 1.87-.33 2.63-1.646 3.343-3.016.336-.64.637-1.39 1.097-2.563.46-1.173 1.007-2.616 1.52-4.05.51-1.43.987-2.845 1.327-4.014.17-.586.3-1.1.39-1.594.05-.25.1-.48.11-.793.014-.316.175-.684-.406-1.64-.482-.8-2.56-4.494-4.5-7.814-.97-1.66-1.92-3.244-2.67-4.435l-.266-.4c.34-.267.63-.57.816-.88.425-.72.514-1.34.56-1.89.092-1.1-.064-2.03-.17-2.86-.05-.38-.056-.46-.08-.73.513.28 1.12.374 1.703.25.232.1.373.14.78.36 1.32.716 3.25 1.948 5.233 3.298 1.98 1.35 4.026 2.82 5.686 4.062 1.66 1.24 3.046 2.368 3.25 2.56.407.39 1.04.84 1.94.927.9.085 1.824-.35 2.31-.8.975-.9 1.098-1.64 1.314-2.44.432-1.596.606-3.53.72-5.64.11-2.117.12-4.35.076-6.27-.045-1.916-.123-3.38-.3-4.437-.09-.55-.176-1.102-.265-1.654 2.42-.386 4.64-.618 6.544-.64zm-11.468 1.56c.087.516.18 1.03.266 1.547.056.343.177 1.932.22 3.735.04 1.803.022 3.943-.08 5.89-.058 1.114-.196 1.76-.313 2.625-.46-.352-.65-.546-1.21-.968-1.72-1.29-3.82-2.81-5.87-4.21-2.05-1.4-4.05-2.67-5.67-3.55-.81-.44-1.472-.79-2.28-1.02-.242-.07-.512-.16-.87-.18 2.68-.7 5.375-1.405 8.03-2.076 2.67-.67 5.288-1.29 7.8-1.81zm-17.64 4.376c-.158.104-.31.223-.454.375l-.125.14c-.13-.06-.25-.11-.38-.15-.09-.02-.2-.03-.32-.03l1.26-.33zm-15.72 3.484c-.332.375-.643.795-1.015 1.28-1.132 1.476-2.545 3.516-4 5.69-2.304 3.44-4.07 6.185-5.282 8.03-.53-.794-1.07-1.56-1.73-2.765-1.85-3.406-3.82-7.75-4.8-9.985.09.2.07-.01 0-.42 5.47-.51 11.11-.946 16.83-1.83zm8.485 1.08c.49-.005 1.26.062 2.016.155.13.016.24.044.37.062.04.345.03.765.07 1.094.05.4.04.56.06.88-1.918.1-3.43-.2-3.78-.36.092-.28.48-.93 1.25-1.82zm2.53 12.467c1.026 1.433 2.177 3.677 3.205 5.938-.717-.7-1.448-1.43-1.782-1.89-.477-.658-.605-.966-1.39-1.564l-.25-.17c.002-.07-.003-.12 0-.2.03-.98.13-1.49.218-2.11zm49.032 1.11c.01-.015.08.015.14.124-.014-.01-.115-.08-.124-.09-.01-.01-.02-.02-.01-.03zm-44.53 12.093c.098.046.194.1.296.14-.04.13-.09.232-.14.36-.05-.163-.09-.334-.15-.5zm-61.016 1.985c.01-.015.02.005.01.03l-.08.11c.02-.078.04-.126.06-.14" fill="#fff"/><path d="M508.427 166.75c-6.153-1.204-11.568.347-15.685-1.743-.084-.038-.168-.072-.253-.098-12-4.08-27.01 2.18-39.21 10.25-17.35 11.46-30.41 26.75-36.41 56.33-5.04 24.82-3.28 36.18 3.1 59.35 4.71 17.11 15.51 27.49 23.19 37.16 7.07 8.91 15.14 11.78 23 12.82 7.86 1.04 15.65.38 22.6 1.74 16.14 3.15 33.87-8 48.08-10.63 9.08-1.69 16.82-12.34 22.77-24.96 5.943-12.62 10.09-27.346 11.34-38.976 2.63-24.59-.27-49.93-11.4-70.2-12.58-22.914-34.8-27.87-51.143-31.063m39.606-90.45c-48.776 1.47-97.59 3.05-146.38 4.094-23.877.777-58.81.44-79.47-1.34-15.1-2.12-10.717 22.264-10.25 36.094 1.576 19.057 2.196 38.177-.592 57.157-1.51 30.866-2.795 62.11 3.567 92.563 4.16 20.784-2.843 41.445-1.53 62.34.37 21.266-3.974 42.298-2.28 63.595.674 14.6-4.996 39.097 17.783 34.47 8.4-.62 16.73-1.98 25.064-3.25l15.215 1.73c29.885-1.298 58.63.27 89.193.893 21.565-.17 47.16 1.96 64.75-.16 14.69-3.85 31.445-.03 44.618-3.66 13.177-3.63 1.976-17.92 3.01-35.56 1.04-17.63 4.676-46.28 2.13-72.53-4.01-13.77-.224-27.5 2.157-41.56.404-22.42 3.24-55.352-.03-75.5-.676-21.04.793-27.98.995-44.872.205-16.9-.472-60.45-4.306-72.13-6.19-2.09-17.156-2.27-23.627-2.37zm-183.75 5.47c2.34-.02 1.714 1.936 1.78 2.874 1.32.84 9.853-2.162 13.97 0 5.13 2.238-2.35 2.42-4.88 1.41-5.95-1.58-7.213 3.225-11.28 3.406-.643-5.87-8.282.09-13.19-2.81-4.684 4.076-9.644-2.265-14.342-.093-3.57-3.523 7.53-3.075 9.505-.563 3.534-2.992 8.524.787 12.215-1.344 4.59.61 3.87-1.24 6.22-2.873zm140.87.218c3.51.28.834 3.22 1 4.595-3.69 2.963-1.81-3.09-6.437-1.47-7.598 1.194-15.158.46-22.844.404-4.487-3.344 7.496-2.17 10.436-1.625 5.77-.967 13.285.26 17.84-1.908zm6.47.91c4.008 1.17 9.828.524 14.593.874 7.43-1.11 14.497-.2 21.5-.25 6.022.12 2.473 4.35-1.688 1.843-6.73-.07-13.74-.15-20.88.56-4.075-.78-17.996 1.28-13.53-3.03zm-47.782.78c2.496.46 7.206-.08 8.41 1.47-2.562 2.71-10.255-.645-14.624 1.343-7.27-.56-14.245.514-21.53.44-4.706-1.6-14.055.775-16.22-2.28 6.65-2.193 15 1.1 22.373.19 7.1-1.38 14.534.542 21.593-1.158zm-67.59.313c.65-.012 1.215-.006 1.595 0 3.49-.056 6.815.83 10.34.44 3.643-1.644 11.593 2 4.562 2.096-8.165.32-16.235-.87-24.376.092-6.377-1.86 3.318-2.53 7.876-2.627zm103.78 6.377c2.23.103 1.51 1.946 1.627 2.873 1.337.83 9.858-2.18 13.97-.03 5.046 2.15-2.426 2.55-4.906 1.41-5.965-1.596-7.205 3.265-11.28 3.435-.636-5.877-8.29.06-13.19-2.846-4.7 4.07-9.644-2.23-14.345-.06-3.57-3.52 7.554-3.12 9.53-.624 3.53-2.88 8.528.87 12.22-1.28 4.697.676 3.778-1.41 6.376-2.877zm-118.842.185c1.077-.067 1.57.61 2 1.125 7.45-.842 14.43 1.93 21.846.22 5.713-1.742 8.464 3.43 1.437 1.97-7.86 1.81-15.27-.65-23.155-.063.52 5.685-7.29-2.025-2.124-3.25zm-6.435.875c6.696 3.538-6.8 2.53-9.28 2.94-6.7 1.13-13.56-1.912-19.91-.19-3.03-1.09-9.933 2.138-10.154-1.123 6-1.145 12.66-1.68 19.346-1 6.52.43 14.21.55 20-.624zm46.22.72c.577-.01 1.075-.025 1.53.06 5.485 1.218 11.074.607 16.656.566 8.266 1.705 16.636-.41 24.97-.25 6.93 1.186-2.39 3.065-5.5 2.19-7.49 1.37-15.204.596-22.69.19-6.226 1.23-12.27-1.5-18.37-.097-6.7-.39-.645-2.58 3.406-2.658zm110.84.407c.654-.013 1.216-.01 1.596 0 3.495-.063 6.82.86 10.346.47 3.634-1.64 11.59 1.93 4.56 2.03-8.167.33-16.2-.833-24.344.126-6.378-1.86 3.287-2.53 7.843-2.625zm-167.52 5.82c2.344-.02 1.717 1.936 1.78 2.874 1.32.84 9.856-2.163 13.97 0 5.133 2.237-2.346 2.42-4.876 1.408-5.95-1.58-7.213 3.194-11.28 3.375-.643-5.87-8.283.12-13.19-2.78-4.684 4.077-9.644-2.263-14.34-.092-3.57-3.524 7.52-3.096 9.51-.595 3.535-2.984 8.53.81 12.22-1.312 4.59.61 3.87-1.24 6.22-2.872zm57 .217c1.092-.07 1.57.62 2.03 1.126 7.446-.84 14.458 1.9 21.875.185 5.625-1.65 8.5 3.387 1.407 1.97-7.86 1.81-15.29-.65-23.18-.063.52 5.68-7.29-1.983-2.12-3.22zm90.343.876c4.01 1.17 9.83.554 14.594.904 7.428-1.11 14.497-.2 21.5-.25 6.022.12 2.473 4.31-1.688 1.81-6.73-.07-13.74-.15-20.88.56-4.07-.78-17.99 1.27-13.53-3.03zm-50.563.622c.57-.004 1.116.058 1.563.158 5.02.975 10.267.925 15.41.47 7.75 1.424 15.64.38 23.43-.156 5.01-1.6 7.69 3.02 1.4 2.03-8.02.18-16.126 1.894-24.095.284-7.1 1.07-14.175-1.02-21.125-.04-6.63-.37-.595-2.71 3.41-2.75zm-64.812.47c.65-.014 1.215-.007 1.595 0 3.49-.057 6.817.86 10.342.47 3.643-1.534 11.765 1.96 4.562 2.06-8.164.328-16.235-.87-24.376.095-6.375-1.85 3.32-2.52 7.878-2.62zm24.75 4.813h42.063c2.16.38 4.28.92 6.313 1.65h-54.22c1.89-.71 3.86-1.25 5.848-1.66zm-8.437 2.75h59.47c1.024.48 2.008 1.03 2.968 1.65h-65.43c.97-.61 1.96-1.17 3-1.66zm-5.094 3.12h69.563c.64.51 1.27 1.03 1.87 1.62h-73.37c.62-.586 1.26-1.11 1.93-1.63zm-3.593 3.31h76.72c.355.5.595 1.04.78 1.62h-78.81c.418-.57.85-1.1 1.315-1.626zm-2.06 2.75h79.875c.144.56.273 1.11.47 1.65H400.81c.09-.163.178-.32.28-.47.23-.41.473-.8.72-1.19zm-1.625 3.09h82.72c.452.62.975 1.15 1.53 1.62H399.59c.223-.51.392-1.06.595-1.623zm-3.562 3.31H487c1.29.65 2.66 1.16 4.06 1.66h-98.5c1.316-.65 2.67-1.217 4.064-1.66zm-6.123 2.78h103.56c1.112.46 2.175.99 3.155 1.657H387.998c.802-.59 1.642-1.146 2.5-1.656zm-4.315 3.094h54c-1.662.53-3.335.83-3.72.97-.665.24-1.387.49-2.123.685h-49.91c.563-.57 1.143-1.13 1.75-1.655zm57.875 0h54.907c.14.145.274.28.407.44.33.383.62.81.91 1.22H449.9c-.725-.2-1.466-.42-2.125-.66-.39-.14-2.05-.47-3.72-1zm-61.155 3.342h42.688c-.045.24-.063.53-.063.97 0 .217-.02.44-.04.656h-43.87c.4-.563.83-1.09 1.28-1.624zm75.78 0h42.69c.32.54.607 1.07.905 1.626h-43.44c-.02-.213-.07-.44-.07-.655 0-.44-.05-.73-.1-.97zm-24.718 1.5c2.598-.016 5.114 1.067 7.563 1.876 3.74 2.207 10.12-.8 11.9 4.53-.48 2.57 1.15 4.656 3.75 4.315 4.42-.155 10.54-1.542 12.75 3.845 1.85 2.77-.39 5.102-1.19 7.53 3.15-.39 6.57 2.71 5.4 6.25.244 2.39-3.85 2.85-3 4.845 4.764 2.96 4.045 9.35 3.844 14.372-.472 15.013-.433 30.047-.436 45.093-1.058 17.364-.33 34.9-1.877 52.22h20.094c-.08.554-.213 1.106-.345 1.654h-19.93c-.036.37-.056.73-.094 1.096h19.75c-.173.564-.363 1.114-.593 1.656h-19.34c-.052.48-.096.96-.155 1.44h18.78c-.31.57-.62 1.13-1 1.652h-17.97c-.025.2-.066.393-.092.59-1.14.5-2.34.87-3.532 1.093h20.188c-.6.606-1.26 1.18-1.97 1.655H396.8c-.51-.555-1.042-1.106-1.562-1.657h4.22c-.77-.37-1.47-.92-2.12-1.69h-3.56c-.432-.523-.826-1.083-1.19-1.657h4.5c-.033-.48-.06-.96-.093-1.44h-5.06c-.023-.55-.04-1.1-.06-1.654h4.97c-.025-.366-.01-.727-.033-1.094h-5l-.06-1.656h4.937c-.036-.55-.06-1.103-.096-1.654h-4.905c-.024-.55-.07-1.11-.096-1.658h4.94c-.03-.49-.07-.985-.1-1.47h-4.873c-.02-.554-.07-1.074-.093-1.626h4.874l-.06-1.13h-4.845c-.02-.555-.01-1.106-.03-1.66h4.81c-.03-.552-.07-1.103-.092-1.656h-4.82l-.06-1.624h4.78c-.024-.488-.04-.98-.064-1.47h-4.78c-.02-.55.02-1.105 0-1.657h4.72c-.018-.366-.05-.727-.066-1.093h-4.713l-.06-1.69h4.72c-.014-.394-.015-.76-.03-1.156h-4.72c-.017-.546-.075-1.11-.093-1.654h4.75c-.015-.49-.013-.95-.03-1.44h-4.75c-.016-.55-.013-1.104-.03-1.656h4.72c-.013-.366-.022-.76-.033-1.125h-4.72c-.017-.55-.046-1.11-.06-1.656h4.72c-.02-.554-.05-1.103-.066-1.657h-4.72c-.015-.55-.045-1.11-.06-1.66h4.75c-.013-.488-.02-.98-.03-1.47h-4.75c-.017-.55-.017-1.1-.03-1.656h4.75l-.03-1.09h-4.75c-.018-.55-.02-1.08-.03-1.627h4.75c-.016-.56-.055-1.125-.066-1.687h-4.75c-.02-.55-.02-1.08-.037-1.625h4.75l-.03-1.47h-4.75c-.014-.55-.05-1.1-.062-1.652h4.78c-.007-.362.006-.724 0-1.09h-4.78c-.015-.55-.02-1.104-.033-1.656h4.812c-.01-.55-.027-1.1-.03-1.653h-4.848l-.03-1.69h4.845c-.005-.485-.024-.95-.03-1.435h-4.844c-.01-.55-.05-1.103-.06-1.656H395c-.004-.357.005-.738 0-1.094h-4.905c-.012-.554-.02-1.105-.032-1.66h4.906c-.01-.55 0-1.1 0-1.654h-4.91l-.03-1.657h4.9c-.01-.49 0-.988 0-1.47H390c-.01-.55-.05-1.108-.062-1.66h4.97c-.003-.367.002-.73 0-1.096h-4.97l-.03-1.655h4.968c-.004-.555.004-1.105 0-1.657h-4.938c.06-.6.064-1.16-.062-1.655h4.97c-.005-.49 0-.98-.002-1.47h-5.998c-.33-.213-.713-.36-1.22-.44-1.784-.556-3.613-.92-5.437-1.186h12.65v-1.098h-38.56c-.45-.06-.88-.176-1.32-.25-.14.06-.3.18-.44.25h-25.88c-.22-.54-.4-1.095-.57-1.657 22.244-.002 44.507 0 66.75 0-.003-.564-.027-1.125-.03-1.69h-67.18c-.126-.542-.18-1.105-.28-1.654h67.47c-.003-.484.002-.95 0-1.434h-67.75c-.088-.55-.17-1.11-.25-1.66 22.652 0 45.315.003 67.97 0-.004-.373 0-.75 0-1.123h-68.12c-.056-.547-.1-1.096-.126-1.656h68.25c-.004-.553-.03-1.102-.033-1.655h-68.25c.006-.55.027-1.11.063-1.66h68.187c0-.473-.03-.96-.03-1.432h-68.03c.07-.55.16-1.11.25-1.655 22.6-.002 45.19 0 67.78 0 .01-.02.01-.044.01-.063.06-.346.09-.71.13-1.06-22.56 0-45.12.03-67.684.03.127-.56.277-1.11.44-1.656 22.46 0 44.917.003 67.376 0 .005-.54 0-1.105-.032-1.657h-66.78c.216-.56.455-1.12.72-1.654h31.31c1.604.42 3.22.68 4.905.75 3.005-.11 5.9-.36 8.88.154-.458-.33-.953-.617-1.438-.905h22.25c-.05-.49-.13-.98-.19-1.47h-24.78c-1.087-.54-2.205-1.03-3.25-1.627h27.875c-.047-.376-.115-.75-.157-1.125h-29.47c-.677-.483-1.295-1.03-1.875-1.654h31.22c-.045-.56-.08-1.14-.094-1.69h-33.63c-5.044-2.31-11.203-.064-16.624-.283-1.99.05-3.924-.43-5.627-1.34 18.623-.005 37.243-.03 55.87-.035.025-.48.085-.97.155-1.44h-58.15c-.58-.497-1.12-1.022-1.594-1.624h60.096c.114-.383.248-.75.406-1.122h-61.25c-.316-.52-.612-1.083-.842-1.654 20.994-.004 42.004 0 63 0 .214-.32.423-.63.686-.94.483-.22.84-.46 1.093-.72h-65.28c-.12-.544-.225-1.084-.283-1.624h65.754c-.182-.29-.46-.597-.844-.908-.2-.19-.377-.39-.53-.594H332c-.01-.547.046-1.08.093-1.624 21.19-.005 42.37 0 63.562 0-.098-.37-.182-.75-.188-1.128h-63.28c.082-.55.182-1.08.312-1.627h63.25c.18-.596.47-1.165.84-1.687h-22.66c.01-.542.01-1.073.03-1.624h24.25c.65-.44 1.38-.765 2.15-.906-.09-.19-.18-.38-.28-.566h-26.06c.02-.547.052-1.074.09-1.625h24.904c-.25-.37-.517-.737-.72-1.125h-24.1c.05-.547.06-1.14.125-1.687h23.38c-.037-.25-.074-.51-.06-.78.05-.302.14-.6.22-.874h-23.28c.093-.55.224-1.08.344-1.625h23.626c.378-.61.85-1.096 1.38-1.5h-24.62c.16-.557.335-1.083.53-1.625h29.878c.75-.023 1.5-.03 2.25 0h.623c.01.02.02.05.03.065 1.267.072 2.498.18 3.564.25 3.44.663 3.02-2.807 3.91-5.22-.83-.03-1.64-.096-2.43-.096-2.02 0-4.03-.082-5.72.037-.097.18-.19.347-.28.53h-29.5c.214-.3.416-.59.655-.875.11-.256.224-.494.343-.75h37.56c.04-.043.058-.112.096-.154 1.68-.59 3.48-.94 5.28-1.285h-42.19c.31-.566.615-1.113.97-1.656h44.433c-.1.402-.225.765-.405 1.124 2.73-.51 5.426-1.115 7.936-2.28.374-.05.75-.09 1.124-.095zM459 135.65h43.843c.29.556.61 1.106.906 1.657h-44.03c-.326-.498-.57-1.05-.72-1.656zm2.186 3.095h43.375c.33.56.69 1.09 1.067 1.624h-30.34c-.11-.2-.193-.407-.282-.598-1.34-.014-2.78.03-4.25.03-2.24 0-4.723.326-7.093-.122-.833-.156-1.686-.43-2.47-.936zm-111.155 1.41c.766-.016 1.528.053 2.28.22h-4.152c.616-.127 1.246-.206 1.875-.22zm184.03.094c.476-.008.96.042 1.44.12h-2.72c.43-.07.845-.12 1.28-.124zm-189.964 1.81h11.812c.752.495 1.424 1.025 2.094 1.622h-15.94c.61-.617 1.3-1.147 2.03-1.624zm33 0h29.843c-.06.16-.103.304-.157.47.22.344.41.684.81 1.152h-31.31c.24-.555.51-1.092.81-1.624zm99.437 0h30.15c.32.53.63 1.065.94 1.622h-30.84c.14-.22.21-.42.37-.874-.21-.295-.43-.548-.63-.75zm51.96 0h11.03c.84.49 1.63 1.03 2.4 1.622h-15.65c.69-.6 1.448-1.145 2.218-1.624zm-187.38 2.75h18.03c.52.53 1.045 1.055 1.53 1.622h-20.68c.107-.14.18-.265.28-.405.247-.42.548-.83.847-1.22zm134.72 0h32.37c.28.54.565 1.065.814 1.622h-34.09c.21-.61.545-1.15.906-1.624zm49.25 0h18.22c.58.52 1.12 1.05 1.655 1.622h-21.31c.455-.556.91-1.09 1.437-1.624zm-50.407 3.09h34.906c.21.55.4 1.1.564 1.66h-35.06c-.25-.4-.435-.89-.435-1.432 0-.074.03-.146.03-.22zm47.813 0h23.72c.425.54.83 1.1 1.22 1.66h-26.19c.406-.56.835-1.112 1.25-1.65zm-183.595.04h23c.436.546.88 1.073 1.31 1.626h-25.47c.378-.558.77-1.088 1.158-1.627zm-2.25 3.283h27.81c.438.554.92 1.145 1.376 1.685h-30.15c.32-.557.624-1.144.97-1.687zm140.875 0c11.023-.004 22.04 0 33.06 0 .115.55.227 1.13.28 1.685h-30.03c-.05-.34-.11-.71-.186-1.03-1.35-.12-1.585-.236-2.75-.53-.13-.036-.243-.09-.373-.127zm42.47 0h28.5c.312.534.596 1.13.874 1.685H518.8c.423-.545.78-1.13 1.19-1.687zm-184.97 2.81h31.75c.51.565 1.076 1.103 1.625 1.624h-34.18c.26-.55.525-1.084.815-1.625zm145.03 0h30.874c.016.55-.004 1.075-.06 1.624h-32.5c.314-.327.65-.66 1.03-.937.255-.22.437-.45.657-.69zm37.843 0h32c.24.535.51 1.044.72 1.593-11.39 0-22.804.03-34.19.03.51-.52 1-1.05 1.47-1.62zm-40.564 3.062c11.1-.003 22.212 0 33.31 0-.124.555-.284 1.106-.5 1.655h-33.15v-.064c-.01-.563.13-1.104.344-1.594zm37.56 0h36.22c.17.54.3 1.107.438 1.655h-39.03c.845-.475 1.635-1.036 2.374-1.66zm-181.31.03h36.5c.35.267.72.507 1.094.75.356.165.92.576 1.47.875h-39.69c.178-.55.406-1.085.625-1.626zm143.91 3.28h74.435c.104.547.183 1.11.25 1.657-24.404.004-48.81 0-73.217 0-.557-.403-1.085-.956-1.47-1.654zm2.84 2.782h71.97c.045.543.055 1.08.03 1.623-23.692.006-47.4 0-71.092 0-.004-.203 0-.414 0-.622v-.56c-.43-.114-.677-.262-.907-.436zm.938 3.092h70.905c-.088.554-.19 1.114-.345 1.654-23.495.006-46.976 0-70.47 0-.02-.544-.08-1.1-.094-1.653zm.155 3.31c23.282-.003 46.53 0 69.81 0-.24.565-.53 1.096-.843 1.624-22.98.005-45.96 0-68.94 0-.02-.54-.01-1.07-.03-1.622zm.06 2.78h68.157c-.427.58-.89 1.12-1.407 1.625-22.237 0-44.48-.004-66.72 0v-.095c0-.5-.017-1.02-.03-1.53zm.03 3.06h64.94c-1.105.747-2.35 1.316-3.687 1.66h-.317c-4.547-1.42-9.615-2.076-14.316-.627-.73.172-1.46.376-2.156.624h-44.5c.01-.546.03-1.1.03-1.66zm-147.875 3.35h11.344c1.438.48 2.87 1.057 4.28 1.655h-17.46c.57-.597 1.17-1.15 1.845-1.656zm147.813 0h40.78c-.983.52-1.916 1.075-2.873 1.655h-38.03c.04-.55.1-1.1.12-1.656zm57.376 0h12.654c.76.445 1.444 1.015 2.06 1.655h-18.9c1.365-.63 2.77-1.2 4.19-1.656zm-57.596 2.75h36.31c-.895.555-1.785 1.12-2.687 1.655h-33.84c.09-.55.155-1.1.216-1.656zm51.154 0h22.094c.38.517.704 1.08 1 1.655h-26c.96-.57 1.904-1.13 2.904-1.656zm-201.563.03h21.005c1.303.57 2.59 1.11 3.906 1.625h-26.08c.35-.57.775-1.1 1.188-1.625zm150.036 3.094h31.376c-.39.206-.76.41-1.16.6 2.88-.01 5.755-.35 8.627-.595h36.41c.19.54.355 1.1.47 1.66-25.254 0-50.52-.004-75.78 0-.005-.54.025-1.098.065-1.658zm.03 3.318h75.94c.21.54.425 1.07.597 1.626H481.02c-.054-.54-.08-1.05-.124-1.627zm.25 2.75h76.596c.14.543.27 1.074.372 1.626H481.23c-.016-.517-.04-1.05-.095-1.627zm.127 3.094h77.09c.067.543.096 1.104.125 1.653-25.737.002-51.48 0-77.22 0-.004-.544.008-1.1 0-1.657zm0 3.31h77.25c-.018.55-.07 1.11-.13 1.655-25.72 0-51.44-.003-77.156 0 .02-.54.03-1.097.03-1.657zm-.098 2.75h77.062c-.09.55-.15 1.144-.28 1.69-25.65 0-51.35-.007-77 0 .01-.1.042-.22.06-.317.07-.44.11-.91.15-1.375zM480.79 203h76.75c-.16.547-.36 1.11-.563 1.657-25.426.008-50.858 0-76.283 0 .014-.54.05-1.1.096-1.65zm-.095 3.345h75.6c-.26.554-.568 1.084-.876 1.622-9.49 0-18.95.03-28.44.03-3.184-.437-6.375-.325-9.595 0H480.8c-.03-.547-.08-1.09-.094-1.655zm-151.56 2.75h23.376c-.85.52-1.71 1.062-2.56 1.622h-19.81c-.36-.525-.72-1.057-1-1.625zm151.72 0h28.125c-4.728.65-9.487 1.113-14.19.403-.004.407 0 .81 0 1.22h-13.87c-.026-.543-.03-1.07-.06-1.626zm50.875 0h23.06c-.38.573-.814 1.1-1.25 1.622H534.8c-.972-.662-1.967-1.222-3.062-1.625zm-200.43 3.09h16.342c-.618.366-1.232.724-1.875 1.03-.38.227-.79.433-1.19.626h-11.31c-.69-.42-1.33-.96-1.91-1.59l-.068-.062zm149.686 0h13.78c-.005.552.005 1.103 0 1.656H481v-1.64zm55.843 0h15.34c-.67.626-1.385 1.19-2.158 1.656h-10.79c-.83-.5-1.614-1.07-2.41-1.653zm-55.85 3.312h13.75c-.005.552-.024 1.104-.03 1.656h-13.72v-1.66zm0 2.75h13.72c-.01.552-.024 1.104-.032 1.656h-13.68v-1.66zm0 3.125h13.688c-.01.55.01 1.102 0 1.654h-13.72c.014-.4.033-.8.033-1.22v-.435zm-.093 3.31h13.72c-.01.552-.02 1.103-.035 1.656H480.8c.03-.563.07-1.115.1-1.657zm-.127 2.75h13.81l-.03 1.656H480.7c0-.58.04-1.13.06-1.657zm-.13 3.093h13.84c-.014.553-.02 1.135-.03 1.688h-14.03c.08-.582.164-1.163.22-1.686zm-.41 3.344h14.16c-.015.55.014 1.1 0 1.65h-14.25c0-.58.05-1.124.093-1.655zm-.095 2.75h14.22c-.018.55-.05 1.1-.066 1.65h-14.15v-1.655zm0 3.12h14.092c-.016.545-.014 1.075-.03 1.623H480.1c.005-.71.027-1.053.03-1.624zm-.03 3.31h14.03c-.02.55-.016 1.08-.03 1.625h-14c.003-.84-.01-.83 0-1.628zm-.035 2.72h14l-.06 1.66h-13.94c.008-.57-.003-1.08 0-1.66zm-.03 3.124h13.905l-.063 1.65h-13.84c.007-.514-.005-1.11 0-1.657zm-.03 3.31h13.81c-.017.46-.013.91-.03 1.37-.016.086-.05.195-.063.28H480c.01-.483-.007-1.064 0-1.655zm-.064 2.78h13.624c-.073.55-.134 1.1-.19 1.653h-13.5c.016-.223.02-.563.03-.78.01-.18.027-.57.035-.874zm-.158 3.09h13.47c-.04.55-.044 1.105-.065 1.656h-13.47c.03-.543.034-1.14.06-1.654zm-.158 2.81h13.53c-.01.553-.06 1.138-.06 1.69h-13.56l.093-1.69zm-.157 2.783h13.654c.003.55.024 1.105.03 1.66H479.4c.036-.6.03-1.068.065-1.66zm-.158 3.126h13.842c.01.55.024 1.08.03 1.625h-13.96l.094-1.624zm-.19 3.282h14.07c.008.55.038 1.1.03 1.652h-14.18c.03-.54.06-1.09.096-1.657zm-.153 2.78h14.22c-.012.55-.01 1.07-.033 1.622H478.9c.025-.485.064-1.106.093-1.626zm-.156 3.09h14.25c-.035.55-.07 1.11-.123 1.66h-14.22c.028-.48.064-1.062.096-1.655zM450.71 288c-1.547.153-3.104.328-4.656.47h11.75c-2.39-.23-4.778-.484-7.095-.47zm-52.937 3.22h86.56c-.49.203-.965.396-1.5.53.188.38.378.747.565 1.127h-84.37c-.367-.58-.81-1.127-1.25-1.655zm2 3.126h84.31c.278.546.568 1.105.846 1.654h-84.97c.04-.41.03-.867-.03-1.31-.05-.127-.1-.22-.16-.345zm-.19 3.31h86.22c.284.55.56 1.11.845 1.656h-87.97c.355-.53.68-1.08.908-1.656zm-1.685 2.75h89.345c.287.55.554 1.104.844 1.656-30.51 0-61.027.002-91.53 0 .43-.55.91-1.105 1.34-1.656zm-2.405 3.094h93.344l.872 1.657c-31.7 0-63.4.003-95.1 0 .224-.574.53-1.125.872-1.654zm-1.656 3.313h96.75c.283.55.56 1.11.84 1.66h-98.47c.285-.55.59-1.11.877-1.657zm-1.44 2.75h99.592c.28.554.59 1.136.87 1.69h-26.34c-.19-.35-.37-.71-.56-1.06-.06.353-.14.707-.19 1.06h-46.75c0-.55.01-1.133 0-1.685-.38.537-.77 1.124-1.1 1.688h-26.37c.274-.55.564-1.14.843-1.686zm-1.53 3.127h26.28c-.28.544-.548 1.1-.814 1.656h-26.28c.266-.554.543-1.105.813-1.657zm28.123 0h46.623c-.062.55-.14 1.104-.187 1.656h-46.47c.02-.553.02-1.105.033-1.657zm48.31 0h26.28c.282.553.567 1.1.844 1.656h-26.25c-.29-.552-.58-1.11-.873-1.657zm-78.063 3.343h26.312c-.26.55-.52 1.11-.78 1.656h-26.25c.25-.55.46-1.11.71-1.66zm29.656 0h46.41c-.035.55-.07 1.11-.095 1.656h-46.37c.012-.55.047-1.11.063-1.66zm50.19 0h26.156c.27.55.58 1.11.84 1.656H469.9c-.278-.55-.53-1.11-.813-1.66zm-81.094 2.75h26.22c-.14.26-.27.525-.41.78-.21.29-.46.583-.66.876h-25.9c.24-.55.5-1.11.75-1.66zm30.84 0h46.34c-.02.55-.02 1.11-.03 1.656h-46.31c-.01-.55-.01-1.11 0-1.66zm51.62 0h26.153c.26.55.497 1.11.75 1.656h-26.09c-.268-.55-.54-1.11-.813-1.66zm-83.847 3.094h25.626c-.338.546-.658 1.097-.97 1.657h-25.43c.24-.553.54-1.1.783-1.655zm32.28 0h46.25c-.003.553.003 1.105 0 1.657h-46.12c-.055-.55-.097-1.104-.126-1.655zm53.064 0h26.063c.248.55.478 1.103.72 1.657h-26c-.26-.553-.517-1.104-.78-1.655zm-86.78 3.313h25.187c-.27.546-.53 1.1-.78 1.656H384.45c.23-.547.488-1.11.72-1.66zm34.062 0h45.874v1.656H419.4c-.034-.375-.062-.76-.092-1.127-.03-.18-.04-.36-.065-.54zm54.31 0h25.9c.23.55.464 1.102.69 1.656H474.3c-.25-.556-.496-1.106-.75-1.66zm-89.57 2.75h25.13c-.23.542-.474 1.106-.688 1.656h-25.09c.22-.55.432-1.11.657-1.66zm35.53 0h45.6c-.004.547-.02 1.11-.03 1.656H419.7c-.064-.55-.13-1.117-.19-1.66zm55.286 0h25.78c.216.546.42 1.107.626 1.656h-25.65c-.24-.55-.506-1.11-.75-1.66zm-92.063 3.124h25.126c-.2.55-.38 1.104-.567 1.658h-25.18c.216-.55.406-1.1.626-1.656zm37.126 0h45.22c-.02.555-.04 1.104-.068 1.658h-45c-.055-.556-.096-1.103-.157-1.656zm56.28 0h25.622c.197.55.373 1.105.562 1.658h-25.47c-.238-.553-.48-1.104-.72-1.656zm34.5.158c.292-.01.61-.004.903 0 2.194.04 4.367.566 6.345 1.5h-13.22c1.86-.904 3.9-1.42 5.97-1.5zm-137.69.094c.29-.01.58-.006.873 0 2.12.03 4.215.506 6.097 1.406h-12.93c1.86-.827 3.917-1.327 5.97-1.41zm-8.78 3.062h42.59c-.172.55-.34 1.074-.5 1.625h-43.9c.55-.604 1.158-1.13 1.814-1.624zm55.966 0h44.91c.004.564-.08 1.084-.186 1.625h-44.59c-.025-.545-.084-1.08-.125-1.624zm57.41 0h43.16c.617.494 1.16 1.017 1.657 1.625h-44.12c-.23-.553-.458-1.072-.69-1.624zm-116.093 2.75h44.53c-.007.027-.023.035-.03.062-.15.516-.31 1.07-.47 1.593h-45c.28-.577.605-1.14.97-1.656zm58.843 0h44.28c-.156.554-.308 1.105-.47 1.656h-43.8c.017-.55.01-1.1 0-1.653zm58.403 0h44.47c.337.524.626 1.087.876 1.656h-44.68c-.22-.55-.43-1.103-.655-1.653zm-118.8 3.095h45.123c-.175.553-.37 1.133-.56 1.688h-44.93c.045-.33.08-.7.16-1.03.056-.22.15-.44.22-.65zm60.31 0h43.53c-.11.54-.193 1.128-.19 1.688h-43.53c.086-.54.14-1.13.188-1.68zm59.717 0h44.66c.16.543.3 1.13.374 1.688-14.785.01-29.556 0-44.342 0-.22-.55-.47-1.13-.69-1.68zm-120.5 3.344h44.44c-.203.554-.4 1.11-.623 1.658h-43.56c-.105-.54-.23-1.1-.25-1.653zm60.25 0h44.22c.2.598.456 1.144.78 1.658h-45.5c.2-.534.36-1.1.5-1.653zm61.53 0h43.848c-.006.555-.033 1.108-.125 1.658h-43.09l-.63-1.653zm-121.28 2.75h42.816c-.245.558-.48 1.116-.75 1.658h-41.43c-.26-.53-.453-1.09-.626-1.653zm58.816 0h46.78c.506.588 1.08 1.14 1.69 1.658h-49.37c.34-.53.655-1.093.91-1.653zm63.53 0h42.376c-.13.445-.25.883-.44 1.314l-.28.35h-41.06c-.2-.55-.39-1.1-.598-1.65zm-120.84 3.13h39.78c-.316.563-.648 1.12-1 1.656h-37.4c-.524-.504-.962-1.06-1.375-1.658zm55.343 0h52.28c.724.546 1.427 1.09 2.124 1.656h-56.09c.64-.466 1.21-.994 1.69-1.658zm66.623 0h39.125c-.594.58-1.2 1.132-1.847 1.656h-36.68c-.196-.554-.397-1.105-.595-1.658zm-10.375 3.28c.215.23.396.474.59.72.29.3.57.61.81.937h-64.3c.648-.648 1.437-1.145 2.25-1.625 20.217 0 40.44-.03 60.657-.03zm11.53 0h33.85c-.88.587-1.755 1.148-2.688 1.657h-29.65c-.525-.5-1.036-1.038-1.5-1.625-.004-.01.004-.03 0-.03zm-119.408.03h33.876c-.45.578-.903 1.1-1.407 1.627h-29.25c-.83-.408-1.67-.795-2.47-1.25-.26-.11-.5-.245-.75-.375zm5.657 2.75h25.655c-.68.6-1.408 1.13-2.188 1.627h-18.84c-1.575-.463-3.11-.99-4.624-1.625zm38.437 0h65.877c.285.534.543 1.053.72 1.627h-67.34c.103-.273.245-.544.376-.813.113-.3.22-.55.374-.81zm78.127 0h26.157c-1.297.613-2.613 1.133-3.94 1.627h-19.55c-.938-.464-1.817-.984-2.657-1.625zm-104.56 3.1h7.814c-2.597.278-5.22.27-7.814 0zm25.25 0h68.095c.09.545.13 1.1.13 1.656h-32.35c-.44-.645-.912-1.244-1.56-1.438-.772.418-1.514.913-2.22 1.438H407.9c.007-.554.045-1.1.156-1.656zm86.064 0h10.593c-3.48.72-7.164.795-10.595 0zm-86.064 3.31h30.092c-.6.538-1.13 1.098-1.72 1.658h-28c-.18-.54-.28-1.098-.37-1.656zm37.22 0h30.872c-.07.56-.16 1.113-.31 1.658h-28.68c-.58-.505-1.14-1.01-1.687-1.53-.056-.037-.133-.085-.187-.126zm-36.4 2.783h26.374c-.587.56-1.174 1.125-1.78 1.657h-23.69c-.343-.53-.646-1.09-.904-1.66zm39.593 0h27c-.215.57-.46 1.127-.75 1.657h-24.06c-.75-.53-1.478-1.086-2.188-1.66zm-37.595 3.094h20.81c-.86.633-1.81 1.194-2.78 1.656h-16.34c-.61-.502-1.17-1.06-1.685-1.656zm41.937 0h20.97c-.463.61-.99 1.163-1.563 1.656h-16.28c-1.058-.493-2.12-1.045-3.126-1.656zm-37.72 3.313h10.47c-2.165 1.075-4.596 1.706-7.03 1.123-1.178-.192-2.35-.578-3.438-1.125zm45.44 0h8.968c-.71.275-1.455.473-2.25.56-2.294.21-4.542-.015-6.72-.56zm-109.126.25c1.52-.026.7 1.615.91 3.06h9.63c-.17-2.745 2.75-4.43 2.096 0h10.09c-1.173-3.81 2.77-3.706 1.688 0h10.064c-1.176-3.81 2.77-3.706 1.685 0h107.72c-1.175-3.81 2.77-3.706 1.69 0h10.092c-1.174-3.81 2.77-3.706 1.688 0h10.066c-1.174-3.81 2.77-3.706 1.687 0h10.06c-1.173-3.81 2.77-3.706 1.688 0h9.347c2.12.45 6.58-1.445 5.47 2.25H342.13c-2.12-.45-6.61 1.445-5.5-2.25h8.936c2.61-.054 6.277.953 5.065-2.937.33-.077.57-.122.78-.125zm118.47 11.81c3.53-.07 13.68 1.9 4.56 2.625-6.95-.972-13.99 1.083-21.09 0-7.94 1.616-16.03-.045-24.03-.22-6.23 1.3-13.2-.66-19.78.5-2.77-.35-15.15 1.443-11.12-1.967 8.6.07 17.14-1.07 25.72-.033 7.39-1.687 15.677.96 23.53.313 7.1-1.39 14.54.545 21.597-1.156.17-.03.39-.06.624-.07zm22.63.313c6.17 3.136-9.37 2.116-11.69 2.312-3.75-3.457 8.69-1.63 11.69-2.312zm-128.06 4.66c2.23.1 1.51 1.98 1.63 2.9 1.336.83 9.854-2.15 13.97 0 5.06 2.15-2.395 2.55-4.88 1.404-5.95-1.588-7.21 3.233-11.28 3.407-.65-5.87-8.313.1-13.22-2.81-4.69 4.07-9.62-2.26-14.31-.09-3.564-3.522 7.52-3.12 9.506-.622 3.5-2.834 8.562.77 12.22-1.28 4.7.68 3.78-1.44 6.374-2.905zm140.94.22c3.164.53.61 3.21.78 4.59-3.28 3.03-2.05-2.44-5.153-1.41-7.84.56-15.403 1.024-23.313.25-6.66-1.838 5.68-3.036 8.5-1.627 6.236-.696 14.135.284 19.19-1.81zm6.25.9c4.01 1.17 9.83.56 14.596.903 7.43-1.117 14.497-.165 21.5-.22 6.026.12 2.466 4.303-1.69 1.783-6.73-.07-13.735-.14-20.876.562-4.07-.785-18.01 1.267-13.53-3.03zm-47.81.75c2.66.2 5.734.33 8.156.97-.056 3.8-9.665-.408-13.406 1.84-7.16-.28-14.037.23-21.188.5-5.157-1.387-14.91.7-17.5-2.28 6.65-2.196 15 1.07 22.376.154 7.093-1.388 14.504.514 21.56-1.187zm-67.56.34c.65-.014 1.213-.01 1.59 0 3.49-.063 6.82.858 10.34.468 3.65-1.646 11.61 1.972 4.566 2.063-8.162.33-16.233-.86-24.374.1-6.36-1.86 3.323-2.53 7.874-2.62zm103.59 6.375c2.368-.027 1.726 1.935 1.81 2.875 1.338.83 9.86-2.16 13.97 0 5.197 2.226-2.353 2.4-4.905 1.375-5.963-1.584-7.2 3.236-11.28 3.406-.646-5.86-8.284.08-13.19-2.81-4.693 4.06-9.643-2.2-14.342-.03-3.573-3.52 7.56-3.13 9.53-.62 3.5-2.83 8.56.73 12.22-1.31 4.583.6 3.843-1.232 6.19-2.872zm-118.66.187c.798-.054 1.436.406 1.72.844 6.97-.078 14.75 1.9 22.127.5 5.62-1.65 8.53 3.386 1.436 1.97-7.86 1.804-15.27-.673-23.158-.095.525 5.68-7.29-1.98-2.126-3.22zm-6.28.906c2.33.127 1.848 2.373-.03 2.657-7.313-.16-14.862 1.1-22.124-.25-5.894-1.152-13.237 2.218-17.53-.25 4.903-2.282 13.013-1.866 19.53-1.56 6.59.433 14.29.565 20.157-.594zm46.06.625c.57-.006 1.09.056 1.53.156 2.18.31 4.39.7 6.66.75 7.537-.67 14.79.72 22.347.37 3.76-.13 16.435-2.81 14.53 1.19-9.135-.22-18.283 2.12-27.344.31-7.1 1.08-14.175-1.01-21.126-.03-6.633-.37-.596-2.71 3.407-2.75zm110.847.5c.65-.014 1.213-.01 1.593 0 3.494-.064 6.82.83 10.345.44 3.638-1.64 11.59 1.99 4.56 2.09-8.163.32-16.195-.9-24.34.063-6.38-1.86 3.287-2.5 7.843-2.595zm-167.376 5.78c2.208.11 1.535 1.95 1.627 2.876 1.304.85 9.85-2.17 13.97 0 5.044 2.14-2.4 2.55-4.876 1.4-5.954-1.59-7.21 3.26-11.28 3.43-.64-5.87-8.28.05-13.19-2.843-4.69 4.06-9.65-2.23-14.34-.065-3.57-3.523 7.523-3.12 9.5-.626 3.497-2.83 8.56.76 12.22-1.28 4.694.676 3.78-1.44 6.375-2.907zm56.846.22c.79-.053 1.448.367 1.718.813 6.97-.07 14.808 1.916 22.19.53 5.626-1.655 8.5 3.384 1.41 1.97-7.86 1.81-15.3-.647-23.187-.064.52 5.686-7.29-2.024-2.125-3.25zm90.343.875c4.01 1.17 9.825.556 14.592.91 7.426-1.113 14.5-.165 21.5-.22 6.02.122 2.47 4.3-1.69 1.78-6.724-.07-13.734-.136-20.874.564-4.07-.79-17.99 1.274-13.53-3.033zm-50.565.72c.58-.01 1.106-.025 1.56.064 5.45 1.21 11.07.615 16.624.56 8.26 1.714 16.664-.41 25-.25 6.93 1.186-2.424 3.07-5.53 2.19-7.49 1.36-15.176.6-22.66.186-6.23 1.23-12.3-1.5-18.407-.094-6.7-.39-.645-2.58 3.406-2.657zm-64.814.407c.65-.01 1.21-.006 1.59 0 3.49-.06 6.82.86 10.345.47 3.645-1.645 11.595 1.937 4.564 2.03-8.164.33-16.235-.833-24.376.127-6.377-1.858 3.32-2.532 7.876-2.625zm47.28 7.19c2.21.11 1.513 1.95 1.623 2.875 1.336.83 9.86-2.16 13.97 0 5.133 2.236-2.375 2.42-4.907 1.407-5.958-1.58-7.21 3.2-11.28 3.375-.65-5.86-8.28.078-13.19-2.812-4.696 4.06-9.65-2.198-14.346-.032-3.57-3.52 7.556-3.12 9.53-.624 3.5-2.83 8.565.726 12.22-1.313 4.697.68 3.78-1.4 6.378-2.87zm-62.346.22c.796-.055 1.43.374 1.72.81 6.97-.073 14.745 1.89 22.125.5 5.622-1.654 8.53 3.385 1.436 1.97-7.86 1.805-15.27-.64-23.155-.063.06.648-.03 1.08-.16 1.407l-2.404-.22c-1.38-1.32-2.3-3.75.44-4.41zm-6.28.874c2.328.12 1.846 2.37-.03 2.65-7.314-.16-14.863 1.1-22.125-.25-5.895-1.16-13.238 2.21-17.53-.25 4.902-2.29 13.012-1.87 19.53-1.568 6.59.433 14.29.565 20.156-.593zm168 .78c1.19-.01 2.36.14 3.53.28 4.95-.93 6.65 3.56.595 2.19-6.59-.7-13.306 1.2-20.033.15-8.363 1.73-16.845-.29-25.28-.22-6.225 1.41-13.595-.917-20.22.56-3.02.516-15.77-.158-7.873-2.22 8.475.23 16.83-.905 25.28.156 6.962-1.87 14.99 1.07 22.44.25 7.094-1.397 14.506.55 21.562-1.156" opacity=".5" fill="#6adf5f"/><path d="M481.256 163.79c-3.123.3-6.313 1.054-9.506 2.11-.537.485-.895 1-.59 1.715 4.764 2.96 4.026 9.35 3.825 14.372-.474 15.014-.42 30.038-.422 45.084-1.057 17.37-.338 34.91-1.884 52.23h20.1c-.08.56-.21 1.11-.34 1.66H472.5l-.112 1.1h19.77c-.173.57-.388 1.12-.618 1.66h-19.32l-.17 1.44h18.787c-.31.57-.637 1.14-1.013 1.66h-17.97c-.03.2-.06.4-.086.59-1.14.5-2.324.85-3.516 1.07h20.167c-.6.61-1.26 1.18-1.97 1.66-22.23.01-44.46.01-66.69 0 .06.25.13.46.192.71.036.136.075.26.112.397h64.263c-.495.2-.987.396-1.52.533.185.38.375.746.563 1.125h-62.8c.153.49.315.986.48 1.463h63.027c.273.55.56 1.11.84 1.66h-63.28c.21.56.423 1.115.644 1.66h63.51c.28.55.56 1.11.844 1.66H423c.164.37.336.73.506 1.096h63.733c.29.555.55 1.11.84 1.66H424.3c.244.49.506.96.76 1.436h63.786l.875 1.66h-63.76c.32.564.654 1.11.986 1.66h63.65c.283.545.56 1.11.84 1.66h-63.48c.234.363.467.736.704 1.095H492c.286.55.59 1.108.873 1.66H466.52c-.192-.35-.37-.69-.564-1.04-.057.356-.118.687-.168 1.04h-36c.345.497.69.98 1.04 1.46h34.79c-.062.55-.12 1.11-.168 1.66h-33.412c.426.568.863 1.11 1.293 1.66h31.98c-.03.55-.06 1.11-.08 1.66h-30.57c.3.37.6.73.9 1.1h29.64l-.03 1.66h-28.26c.41.49.81.952 1.21 1.433h27.03c0 .554.01 1.11 0 1.66H439.5c.467.557.924 1.11 1.38 1.66h24.242v1.66h-22.87c.29.357.59.74.87 1.096h21.996c-.004.548-.02 1.113-.028 1.66H444.5c.448.51.92.995 1.377 1.46h19.21c-.015.556-.032 1.108-.056 1.66h-17.38c.67.596 1.35 1.146 2.03 1.66h15.39c.01.564-.082 1.09-.19 1.633h-12.86c.642.397 1.29.78 1.94 1.124h10.66c-.157.556-.318 1.08-.48 1.63h-6.5c1.73.64 3.48 1.106 5.21 1.467h.9l-.03.17c.83.157 1.658.317 2.48.425 4.876.645 9.71.618 14.346.844-.19-.477-.4-.955-.59-1.43H511c1.5-.46 2.988-.95 4.47-1.464h-36.09c-.22-.55-.424-1.084-.648-1.63 13.77 0 27.542-.004 41.314 0 5.908-2.135 11.61-4.24 16.82-5.206 9.078-1.68 16.807-12.36 22.753-24.975 5.94-12.62 10.11-27.327 11.36-38.956 2.63-24.59-.27-49.934-11.39-70.2-.44-.796-.89-1.58-1.35-2.334-25.66.004-51.3 0-76.95 0-.01-.54 0-1.1 0-1.66h75.91c-.34-.504-.7-.975-1.04-1.46h-74.9c-.02-.515-.06-1.06-.12-1.63 24.61-.004 49.22 0 73.83 0-.29-.38-.58-.76-.88-1.127-24.35 0-48.718-.005-73.068 0-.054-.54-.098-1.06-.14-1.635h71.83c-.5-.57-1.004-1.12-1.518-1.66-23.46 0-46.94-.005-70.398 0-.01-.544.01-1.1.05-1.66h31.388c-.388.2-.756.403-1.15.59 2.874-.01 5.733-.35 8.604-.59h29.84c-.52-.5-1.07-.99-1.6-1.465h-18.45c.96-.57 1.92-1.13 2.92-1.66h13.554c-.47-.376-.95-.736-1.43-1.095h-9.87c1.36-.63 2.77-1.205 4.19-1.66h3.344c-1.545-1.03-3.13-1.954-4.724-2.81-3.105-.47-6.3-.43-9.336.505-.73.173-1.44.4-2.14.646H481.5c.01-.54.026-1.1.03-1.66h54.956c-1-.51-2-1-3.01-1.46h-51.94v-.084c0-.5-.017-1.01-.03-1.52h48.177c-1.094-.42-2.196-.78-3.29-1.15H481.48c-.02-.54-.032-1.08-.056-1.63h39.657c-2.32-.632-4.58-1.174-6.8-1.66h-32.91c-.02-.545-.07-1.1-.084-1.657h23.12c-4.495-.226-8.478.325-11.673-1.295-.084-.04-.168-.06-.253-.087l-.26-.084h-10.97c-.01-.203 0-.41 0-.616v-.42zm.198 14.99h40.81c-.986.52-1.94 1.08-2.898 1.66H481.34c.046-.548.09-1.103.115-1.66zm-.198 2.757h36.31c-.895.557-1.798 1.123-2.7 1.66H481.03c.093-.552.165-1.105.226-1.66zm.03 15.61h77.23c-.013.547-.056 1.114-.112 1.66-25.718 0-51.43-.003-77.147 0 .025-.538.025-1.1.028-1.66zm-.113 2.757c25.692-.003 51.397 0 77.09 0-.09.548-.174 1.116-.31 1.658-25.653.003-51.324-.002-76.978 0 .015-.096.04-.214.056-.31.08-.44.1-.885.15-1.35zm-.367 3.12h76.754c-.156.547-.36 1.085-.562 1.632-25.425.003-50.85 0-76.275 0 .01-.54.037-1.075.084-1.63zm-.083 3.32h75.6c-.26.557-.565 1.093-.873 1.63-9.485 0-18.977.028-28.462.028-3.183-.436-6.37-.325-9.59 0h-36.592c-.03-.547-.068-1.095-.083-1.66zm.14 2.756h28.125c-4.725.652-9.472 1.13-14.175.42-.003.408.002.803 0 1.21h-13.865c-.025-.54-.052-1.073-.085-1.63zm50.878 0h23.07c-.38.576-.8 1.106-1.24 1.63h-18.76c-.97-.66-1.97-1.226-3.06-1.63zm-50.73 3.094h13.78c0 .552.01 1.107 0 1.658h-13.78v-1.658zm55.83 0h15.36c-.67.626-1.39 1.193-2.16 1.658h-10.78c-.82-.5-1.62-1.072-2.412-1.66zm-55.82 3.318h13.75c0 .553-.02 1.108-.022 1.66h-13.73v-1.66zm0 2.756h13.73c-.008.553-.02 1.108-.03 1.66h-13.7v-1.66zm0 3.122h13.69l-.022 1.66h-13.7c.013-.4.03-.82.03-1.238v-.422zm-.11 3.32c4.58-.002 9.15-.002 13.728-.002-.01.553-.017 1.108-.03 1.66h-13.78c.03-.56.056-1.117.086-1.66zm-.11 2.727h13.8c-.01.553-.014 1.108-.025 1.66h-13.84c0-.577.036-1.134.056-1.66zm-.112 3.123h13.838c-.01.55-.012 1.106-.03 1.658h-14.03c.08-.583.17-1.136.227-1.658zm-.422 3.317h14.178c-.013.553-.013 1.108-.03 1.66h-14.23c0-.58.04-1.13.086-1.66zm-.08 2.756h14.202c-.015.553-.04 1.108-.057 1.66h-14.15c.004-.413 0-1.475 0-1.66zm0 3.123h14.09c-.017.547-.01 1.084-.028 1.63h-14.1c.007-.71.027-1.06.03-1.63zm-.03 3.32h14.035c-.02.546-.04 1.082-.056 1.63h-13.98c.01-.84-.004-.835 0-1.63zm-.027 2.726h13.97c-.018.553-.036 1.108-.056 1.66h-13.92c0-.57-.01-1.084 0-1.66zm-.03 3.123h13.893l-.057 1.658h-13.87c.006-.513.02-1.11.027-1.658zm-.057 3.318h13.81c-.02.463-.01.915-.03 1.38-.015.084-.04.193-.056.28h-13.73c.01-.485-.01-1.067 0-1.66zm-.06 2.757h13.64c-.075.552-.145 1.105-.197 1.658-4.5.002-9.005 0-13.5 0 .01-.225.014-.542.026-.758.01-.182.02-.594.027-.9zm-.14 3.122h13.47c-.036.55-.064 1.08-.084 1.63h-13.48c.03-.545.056-1.116.085-1.63zm-.17 2.813h13.53c-.014.55-.056 1.106-.06 1.658h-13.56c.033-.585.054-1.092.085-1.658zm-.14 2.755h13.64c.003.552.02 1.107.03 1.66h-13.76c.033-.597.05-1.068.084-1.66zm-.17 3.122h13.84c.01.548.02 1.084.026 1.63h-13.95c.032-.574.05-1.046.083-1.63zm-.196 3.29h14.063c0 .555.03 1.105.025 1.66h-14.18c.03-.54.052-1.094.085-1.66zm-.14 2.785h14.203c-.01.55-.01 1.08-.03 1.63-4.758.002-9.537.002-14.29.002.024-.49.082-1.12.11-1.64zm-.17 3.094h14.26c-.035.55-.087 1.12-.14 1.66h-14.21c.026-.48.05-1.06.085-1.66zm-28.124 12.04c-1.55.15-3.09.31-4.64.45h11.72c-2.39-.23-4.77-.46-7.09-.45zm16.59 24.7h26.296c.28.56.563 1.11.84 1.66h-26.27c-.29-.55-.575-1.11-.87-1.66zm1.77 3.32h26.184c.27.55.55 1.11.814 1.66H469.9c-.28-.55-.535-1.11-.816-1.66zm1.378 2.76h26.16c.26.55.506 1.11.76 1.66h-26.1c-.27-.55-.544-1.11-.817-1.66zm1.52 3.1h26.046c.245.55.49 1.106.73 1.66h-25.99c-.26-.553-.525-1.11-.79-1.66zm1.577 3.32h25.93c.24.55.458 1.106.68 1.66h-25.86c-.25-.555-.503-1.11-.76-1.66zm1.27 2.756h25.79c.217.544.414 1.11.62 1.66h-25.69c-.242-.55-.485-1.114-.73-1.66zm1.35 3.12h25.62c.2.55.375 1.11.56 1.66h-25.48c-.233-.55-.462-1.11-.7-1.66zm34.48.17c.297-.01.606-.007.9 0 2.19.04 4.38.554 6.358 1.49H504.7c1.86-.906 3.894-1.41 5.963-1.49zm-33.073 3.15h43.147c.617.49 1.16 1.023 1.66 1.63h-44.13l-.676-1.632zm6.13 7.51c1.73.143 3.42.35 5.067.673 5.234 1.024 10.637.533 16.03-.675h-21.1" fill="#6adf5f"/><path d="M286.52.02c-1.877-.004-3.73.452-5.372 1.405-3.843 1.655-6.794 4.795-9.704 7.594-4.05-3.01-8.94-6.14-14.315-5.18-6.64 1.02-10.21 8.16-9.48 14.37.18 1.47.7 3.88-1.58 3.48-6.17.74-9.16 7.22-10.13 12.63-1.39 6.66.33 14.57 6.02 18.78.36 2.062-2.51 2.12-3.58 3.486-4.41 4.3-6.496 10.48-7.737 16.37-2.304 12.28 1.87 25.46 10.743 34.226 2.435 3.07 3.635 6.863 4.61 10.602-1.11 2.02-3.075-.665-4.78-.45-5.87-.405-9.93 5.595-10.04 10.993-.257 4.21 1.25 8.78 4.866 11.224.51 1.923-1.926 2.878-2.475 4.613-5 8.67-1.514 21.65 8.017 25.705.81 1.937-1.51 3.446-2.058 5.26-2.45 5.384-5.107 11.01-5.343 16.987-.06 6.432 4.704 13.83 11.813 13.22 1.356-.338 3.75-.856 3.066 1.49-1.524 29.672 2.565 59.194 5.795 88.62-1.04 1.55-2.816-.285-4.386.28-7.543.57-11.774 9.31-10.267 16.116 1.176 5.97 3.506 11.81 6.78 17.015-.21 2.083-2.85 1.106-4.22 1.97-11.51 3.742-15.168 20.286-7.17 28.97.91.94 2.973 2.436 1.15 3.57-6.035 5.906-4.683 18.384 3.85 21.12 1.475.784 3.29.07 4.557.9-.365 3.547-2.37 7.097-4.81 9.79-12.35 12.69-13.862 34.46-3.01 48.46 1.184 1.565 3.35 2.18 4.53 3.46.313 1.75-2.31 2.39-2.924 3.992-5.106 7.173-4.29 17.59.703 24.633 1.855 2.67 5.122 3.654 8.07 4.163-.036 3.943-.567 8.24 1.603 11.783 2.69 5.47 9.75 7.195 15.048 4.75 2.738-.83 4.74-2.99 7.2-4.22 3.778 4.06 8.506 8.25 14.233 8.97 5.664.71 10.584-3.8 11.95-9.06.27-1.923 2.193-1.084 3.094-.113 13.08 8.75 31.9 6.88 43.115-4.08 2.25-2.49 5.13-4.51 8.35-5.624 2.13.823-.28 3.036-.11 4.64-1.02 4.8 3.023 8.56 6.944 10.462 4.583 2.41 10.545 2.75 14.79-.534 2.13-1.11 3.716-2.81 5.46-4.334 3.804 2.602 8.352 4.316 13.05 3.6 7.3-.706 13.97-6.418 15.02-13.865 1.72-1.367 3.214 1.28 4.5 2.25 4.81 5.412 12.78 9.342 19.965 6.806 4.55-1.487 7.036-6.77 6.245-11.28.605-2.4 4.084-.746 5.96-1.238 1.414.17 4.747-.78 4.304 1.52-.72 3.745.923 8.184 4.102 10.32 5.994 3.044 13.164 1.08 18.222-2.81 2.7-1.75 4.695-4.25 7.142-6.276 2.12.02 1.324 2.79 2.28 4.106 3.706 9.99 17.71 13.92 26.154 7.313 1.668.004 2.01 2.335 3.77 2.42 2.237 1.447 4.43 3.39 7.283 3.656 5.3.74 10.96-1.32 14.79-5.01 2.446-2.944 2.8-7.383.93-10.715.627-2.32 3.24-.046 4.61.48 4.288 2.515 7.128 6.86 11.7 9.03 11.61 6.82 27.188 6.18 38-1.97 2.094.097 1.673 2.86 2.786 4.22 2.53 5.54 9.73 7.734 14.963 4.864 3.89-1.676 7.07-4.678 9.87-7.68 2.25.63 4.064 3.04 6.5 3.796 5.194 2.67 12.44 1.58 15.493-3.798 2.445-3.587 2.153-8.078 1.94-12.206 1.42-1.01 3.8-.606 5.344-1.885 5.22-3.47 6.72-10.306 6.89-16.17-.034-5.29-2.046-10.755-6.41-13.95-.37-2.06 2.49-2.114 3.54-3.49 4.248-4.09 6.274-10.016 7.568-15.58 2.62-12.505-1.49-26.1-10.604-35.07-1.894-2.422-3.087-5.316-3.937-8.242.815-1.8 3.363-.883 4.78-2.164 5.77-3.033 8.84-11.458 4.36-16.793-.573-1.54-2.658-2.93-2.054-4.552 8.735-6.02 9.09-19.855 1.884-27.28-2.81-2.997-6.91-4.83-11.05-4.867-1.55-1.555.91-3.464 1.15-5.23 1.18-3.533 2.96-6.854 4.274-10.295 1.454-6.154.32-14.193-5.71-17.55-2.28-1.385-5.023-.65-7.423-1.32.01-6.563 1.105-13.25 1.52-19.86 2.074-23.354 3.602-46.83 2.39-70.28 1.27-1.33 3.277.47 5.007-.11 7.544-.635 11.92-9.347 10.32-16.23-.98-6.374-4.14-12.115-7.316-17.69.408-1.974 3.01-1.73 4.276-3.065 9.064-6.1 10.37-20.93 2.192-28.21-.5-1.645 1.876-2.547 2.39-4.106 1.888-3.23 3.524-7.78 1.04-11.08-1.13-4.017-4.36-7.88-8.8-7.905-1.235-.267-3.646 1.19-3.46-.98 1.122-4.81 3.77-9.047 7.255-12.46 10.475-12.868 11.18-32.91.96-46.127-1.19-1.58-3.365-2.176-4.53-3.485-.24-1.746 2.36-2.378 2.98-3.994 5.106-7.17 4.23-17.53-.7-24.61-1.886-2.644-5.12-3.65-8.1-4.132.01-3.835.606-8.014-1.41-11.5-2.52-5.493-9.485-7.544-14.85-5.23-2.883.836-5.075 3.04-7.59 4.386-3.73-3.992-8.21-8.11-13.803-8.912-.624-.07-1.26-.094-1.886-.054-5.36.02-9.39 4.508-10.6 9.45-1.2 2.02-3.08-.79-4.58-1.267-13.03-7.66-30.78-5.43-41.57 5.065-2.11 2.328-4.69 4.21-7.62 5.348-2.09-.69-.16-3.15-.84-4.752-.44-4.477-4.225-7.49-8.27-8.69-3.415-1.312-7.494-2.624-10.77-.34-2.66 1.06-5.1 2.71-7.37 4.36-4.374-3.602-10.364-5.275-15.92-3.684-7.64 1.683-13.487 9.16-12.91 16.986-1.576 1.75-3.13-1.335-4.67-1.91-5.173-3.95-12.06-6.15-18.42-4.415-4.805 1.71-8.113 7.093-7.06 12.12-1.443 2.07-4.69.483-6.89.985-1.51-.12-5.15.75-4.415-1.774 1.1-5.98-4.38-12.12-10.46-11.782-6.804-.76-13.006 3.013-18.03 7.144-2.273-.12-.91-3.065-1.66-4.554-1.77-9.94-13.48-15.89-22.725-12.43-2.334.66-4.166 2.357-6.16 3.54-1.568-1.42-3.07-3.4-5.37-3.71-2.683-1.834-5.995-2.94-9.143-1.684-5.21 1.21-11.57 4.26-11.95 10.294-.434 1.45 1.34 3.67-.62 4.245-5.41-1.886-8.432-7.22-13.385-9.814-11.692-7.25-27.78-6.77-38.76 1.573-2.1-.097-1.64-2.84-2.752-4.19-1.75-3.9-5.91-6.097-10.04-6.103zm.028 4.3c4.362-.236 7.004 3.967 7.734 7.764.942 1.972-.044 5.463 2.53 6.243 2.732.483 2.808-3.216 4.698-4.33 11.12-8.702 28.24-7.837 38.67 1.603 4.095 4.706 9.81 7.6 15.808 8.944 6.662 1.4 13.218 4.188 20.08 3.908 2.43-.945.938-3.922 1.35-5.82.262-6.538 5.19-13.263 12.123-13.445 6.83-.528 13.76 4.85 13.93 11.897.21 2.96-.93 5.906-3.01 7.96-1.22 1.153-1.55 3.55.31 4.246 9.5.546 19.1.104 28.63.254 18.86-.06 37.75.123 56.59-.085 2.15-.65 1.72-3.53.03-4.5-5.14-5.62-2.49-15.59 4.45-18.4 5.69-3.05 13.48-1.04 16.598 4.72 2.194 3.47 2.56 7.69 2.25 11.67.81 2.63 4.234 1.28 6.16 1.24 6.69-1.27 13.384-3.06 19.83-5.01 4.72-1.46 8.51-4.73 11.95-8.19 10.634-9.04 27.734-9.584 38.504-.565 1.46 1.306 1.897 4.75 4.5 3.825 2.245-1.125 1.286-4.246 2.25-6.186.747-3.65 3.146-7.837 7.427-7.765 4.35.17 8.042 3.255 10.882 6.33 1.313 1.555 2.853 5.532 5.482 3.43 3.63-3.5 8.798-7.53 14.12-5.596 4.736 2.348 5.116 8.416 4.16 12.996-.53 1.667-1.234 4.628 1.21 5.067 1.85-.12 3.807-1.196 5.68-.196 4.048 2.04 4.94 7.148 5.49 11.22.687 6.16-2.85 12.535-8.718 14.74-2.17.815-1.36 4.208.9 4.248 3.718 1.185 7.56 3.105 9.11 6.945 7.22 12.878 4.75 30.36-5.905 40.615-6.03 7.455-6.5 17.47-9.03 26.38-.31 2.64-1.19 5.48-.56 8.1 1.36 2.246 4.33.345 6.36 1.096 6.59.584 12.27 6.473 12.09 13.19.234 6.53-4.43 13.674-11.42 13.95-4.357.313-8.17-2.62-10.263-6.217-1.555-1.65-4.36.336-3.487 2.364 7.13 34.09 6.566 69.23 3.49 103.757-2.104 25.61-5.15 51.266-5.176 76.95.43 2.206 3.9 2.02 4.19-.11 1.248-6.12 7.95-10.964 14.09-8.66 9.576 3.2 11.666 18.1 3.376 23.85-3.346 2.65-7.77 3.166-11.87 2.813-2.7.844-1.215 4.29-1.266 6.272.325 3.915 2.1 7.64 1.912 11.588.352 1.79 1.752 3.18 1.8 5.148 1.273 5.7 3.873 11.095 8.1 15.132 9.606 11.39 10.465 29.636 1.21 41.454-2.28 2.44-5.973 2.605-8.494 4.5-1.23 1.572.303 3.52 1.996 3.795 6.43 2.9 8.87 10.79 7.09 17.27-.78 3.78-2.864 8.79-7.48 8.572-1.497-.237-3.53-1.45-4.615.31-.95 2.06.69 4.346.505 6.525.612 4.302-1.017 9.93-5.767 10.994-5.353.806-9.7-3.23-13.44-6.41-2.567-1.01-3.422 2.526-4.867 3.826-2.796 3.02-6.44 6.07-10.713 6.3-3.903.156-6.56-3.293-7.34-6.778-1.006-2.104-.4-4.83-1.827-6.695-1.512-1.38-3.567.035-3.967 1.74-2.58 4.01-7.55 5.66-11.87 7.11-11.14 3.14-23.67-.735-31.333-9.335-7.052-6.214-16.914-6.83-25.592-9.45-2.59-.355-5.746-1.345-8.155.085-1.576 1.632-.035 4.155-.757 6.13-.654 6.56-6.178 12.84-13.136 12.402-6.58-.04-12.805-5.45-12.822-12.208.04-1.798 1.137-4.8-1.49-5.318-25.674.03-51.4-.116-77.06.083-2.003.49-1.6 2.856-1.27 4.36.488 6.666-5.2 12.52-11.7 13.02-6.27.92-12.16-3.79-13.67-9.755-.964-2.23-.332-4.77-.98-7.003-1.45-2.144-4.65-.712-6.78-1.21-4.74-.67-9.153 1.613-13.725 2.446-6.055 1.376-11.95 4.05-16.09 8.83-10.19 9.5-26.926 10.7-38.25 2.508-2.1-.985-2.307-3.69-4.162-4.81-2.112-.85-3.355 1.638-3.21 3.433-.78 3.976-2.034 9.437-6.774 10.237-4.285.87-8.09-2.26-11.055-4.95-1.89-1.37-2.43-4.21-4.585-5.15-2.35-.35-3.41 2.536-5.313 3.403-3.32 2.51-8.61 4.924-12.265 1.773-4.37-3.8-3.054-10.256-2.193-15.19-.183-2.11-2.854-2.297-4.3-1.32-4.197.76-6.896-3.44-7.707-7.006-2.265-6.54-.485-14.957 5.99-18.394 1.52-.535 3.863-1.756 2.924-3.77-1.16-2.01-4.135-1.745-5.906-3.035-4.84-2.2-6.5-7.843-8.07-12.49-3.33-11.8.236-25.192 9.06-33.722 5.82-7.41 6.3-17.316 8.8-26.1.32-2.635 1.16-5.457.534-8.07-1.36-2.24-4.31-.357-6.33-1.125-6.572-.647-12.303-6.46-12.12-13.19-.26-6.7 4.68-14.035 11.87-13.98 5.72-.15 10.09 5.01 11.136 10.24 1.096 2.1 4.495.77 3.993-1.493-.457-47.968-12.575-95.39-8.72-143.465 1-12.75 3.46-25.426 7.09-37.66.1-2.275-3.346-2.945-4.134-.816-2.707 5.127-9.71 7.382-14.71 4.19-8.15-4.713-8.92-18.44-.62-23.428 3.243-2.26 7.33-2.606 11.135-2.28 2.748-.797 1.29-4.26 1.32-6.243-1.06-6.573-2.842-13.104-4.524-19.573-1.305-5.116-4.386-9.45-7.99-13.19-8.963-11.436-9.555-29.04-.533-40.588 2.3-2.344 5.81-2.675 8.44-4.36 1.39-1.524-.13-3.7-1.915-3.938-6.398-2.95-8.928-10.797-7.144-17.298.795-3.686 2.712-8.594 7.227-8.55 1.62.017 3.726 1.536 4.895-.338 1.03-2.136-.81-4.607-.534-6.92-.59-4.32 1.41-9.994 6.275-10.66 5.24-.53 9.31 3.474 12.993 6.527 2.594.895 3.34-2.564 4.81-3.88 2.725-2.98 6.45-5.98 10.604-6.33zm233.015 3.855c3.554.486 7.91 1.486 9.366 5.315 1.69 4.054-2.03 8.552-6.19 8.664-2.93.538-5.88 1.99-8.86 1.63-.63-3.294-.86-6.838-2.67-9.844.15-1.783 2.63-2.41 3.71-3.77 1.34-1.048 2.86-2.038 4.64-1.995zM365.888 8.4c3.787.066 7.54 2.24 9.76 5.175-1.628 3.117-2.296 6.59-2.7 10.012-2.245.887-5.03-.723-7.425-1.068-2.446-.81-5.685-.58-6.694-3.49-1.86-2.1-3.1-6.05-.12-7.76 2.25-1.26 4.43-2.95 7.17-2.87zm-85.36 10.546c-4.17.606-5.39 5.81-4.64 9.338-1.125 1.83-3.17-.205-4.838-.057-6.152-.967-13.955-.275-17.38 5.654-3.33 6.34.403 14.8 6.974 17.16 1.025 2.16-2.455 2.25-3.544 3.49-4.485 2.21-6.572 8.47-3.32 12.55 1.538 2.49 4.442 3.82 5.993 6.19-1.505 3.16-5.684 3.39-8.69 4.11-1.815.035-5.056.83-4.333 3.29.955 2.756 4.65 1.52 6.75 1.155 4.07-1.08 9.212-2.507 10.913-6.81 1.035-3.7-2.15-6.654-4.92-8.52-2.21-1.42-3.83-4.99-1.183-6.834 3.61-3.357 8.68-4.8 13.444-5.4 1.163.52 2.003-.972 2.84.225-.354.545.66-.26 1.52-.254 2.106-.945 1.274-4.67-1.07-4.84-.94-1.19-2.505-2-3.994-1.264-4.616-.15-10.575-.54-13.106-5.03-1.77-3.3-1.035-8.39 3.01-9.564 4.944-1.93 10.714-.78 15.244 1.66 2.794 1.897 4.032 5.22 6.02 7.737 1.07 1.952 4.256 1.424 4.582-.79-.402-2.56-2.785-4.387-3.683-6.836-1.358-3.384-3.705-7.27-2.223-10.966 1.693-.95 3.41 1.343 4.894 2.19 3.15 2.334 5.5 5.65 8.522 8.043 2.208.67 4.158-2.56 2.138-4.05-3.58-4.29-7.833-8.29-12.854-10.91-.952-.38-1.996-.72-3.065-.643zm325.097 0c-5.852 1.15-9.957 6.136-14.118 10.04-1.37 1.22-3.17 3.874-.928 5.204 2.49 1.61 3.93-1.835 5.51-3.12 2.63-2.764 5.49-5.363 8.88-7.174 2.32.66 1.2 3.87.92 5.654-1.047 4.16-3.59 7.617-5.57 11.306-1.158 2.01 1.27 4.09 3.15 2.954 2.804-1.944 3.5-5.84 6.27-7.96 3.4-2.68 8.047-3.384 12.29-3.263 3.51.218 7.8 2.238 7.65 6.328.233 3.552-2.07 6.822-5.456 7.875-3.624 1.53-7.655 1.067-11.42 1.435-1.227 1.252-3.65 1.975-3.374 4.133.1 1.3 1.337 2.414 2.676 2.14.16-.604 1.75-.344 2.812-.34 3.055-.006 5.93 1.464 8.8 2.392 2.425 1.24 5.86 2.76 6.104 5.822-.58 4.768-7.384 5.587-7.625 10.603-.538 4.425 4.48 6.74 7.93 7.987 2.93.57 6.364 2.47 9.2.73 1.73-1.36.32-4.138-1.75-4.02-3.35-.507-7.11-1-9.9-3.095-1.59-2.025 1.42-3.468 2.62-4.556 3.49-2.77 5.873-8.03 2.95-12.09-1.63-2.84-5.03-4.02-7.34-5.79-.26-1.7 2.34-1.72 3.29-2.87 5.94-4.03 7.16-14.27.96-18.7-5.294-3.48-12.38-3.26-18.2-1.4-2.067-.84-.283-3.58-1.18-5.282-.5-2.48-2.35-5.177-5.176-4.923zm-178.2.9c3.993.12 4.847 4.828 6.244 7.706.85 2.77-3.3 1.394-4.87 1.717h-17.75c-1.75-1.85 1.99-3.07 3.01-4.36 3.23-2.79 7.29-4.58 11.55-4.81.58-.17 1.19-.26 1.8-.26zm31.332.225c4.058.06 8.248.78 11.587 3.3 1.95 1.48 4.378 2.92 5.654 4.87-.845 2.16-4.565.53-6.58 1.04H453.13c-1.59-1.34.55-3.15.787-4.72.818-2.09 2.31-4.46 4.837-4.47zM305.082 39.73c-2.152.355-2.124 3.206-1.265 4.726.04 3.98-1.97 7.923-4.698 10.66-2.71.606-5.47-.387-7.99-.985-2.17.83-4.42-2.91-6.11-.42-1.55 3.25 1.26 7.41-1.13 10.41-2.47 1.89-5.9.69-8.72 1.38-2.08-.36-5.73.63-4.89 3.4 1.39 8.89.41 17.92.95 26.86 1.565 111.88 1.762 223.77 3.175 335.65-.707 2.14 1.812 4.62 3.77 3.12 2.922-.16 5.92.28 8.774.51 3.3 2.15.782 6.55 2.11 9.54.844 1.415 2.96 1.02 3.57-.45.99-1.61 2.897-1.785 4.5-1.292 4.103.268 8.512-.904 12.375.73 2.164 2.847-.28 6.33-.39 9.42-.48 1.998-1.247 5.774 1.515 6.36 28.41.06 56.87-.516 85.22 1.687 30.116 1.144 60.24.22 90.368.48 23.46-.24 46.92-.94 70.37-1.41 8.508-.564 17.15-.38 25.596-1.236 2-.52 2.023-2.754 1.407-4.33-.52-3.64-2.04-7.797-.31-11.25 3.11-.568 7.63-1.615 9.428 1.8 1.523 1.18 3.914-.645 3.174-2.505-.15-2.526-.495-6.917 2.955-7.23 3.335-.687 7.07-1.57 10.21.194 3.18-.405 4.23-4.44 3.796-7.14 1.78-120.774 1.75-241.585 3.66-362.335-1.075-1.96-3.55-2.653-5.454-3.486-3.377-.61-6.73 1.85-9.985.673-3-2.615.41-7.046-1.71-9.9-1.39-1.49-3.254.334-3.91 1.688-2.08.67-4.623-.213-6.92.17-2.3-.16-5.26.484-7.03-1.124-1.02-4.39 2.78-9.1.086-13.162-1.85-2.463-4.86.014-7.114.057-27.74-.037-55.54-.432-83.22 1.688-30.4 1.07-60.825.24-91.24.45-22.93-.31-45.84-.944-68.762-1.43-7.483-.554-15.133-.205-22.53-1.236-.97-.87-2.43-.606-3.624-.702zm235.406 5.43c11.828.33 23.737-.148 35.522.28 2.783 1.975.433 5.34.507 7.96-2.314 3.262-6.975 1.382-10.294 1.63-16.538.08-33.13.05-49.67.874-16.597.973-33.205 1.68-49.837 1.602-24.603-.062-49.196-.082-73.8-.112-24.695-.323-49.396-.992-74.08-1.463-3.917-.36-8.22.54-11.786-1.32-1.57-2.8 1.325-5.4 1.49-8.18 1.56-2.23 4.696-.65 6.92-1.01 15.46.63 30.934 1.17 46.406 1.27 40.563 1.22 81.153.88 121.725.65 18.97-.75 37.91-2.3 56.9-2.16zM291.104 58.32c6.777 1.59 13.883.376 20.784 1.24 24.224 1.03 48.472.86 72.704 1.602 35.552.235 71.128.395 106.677-.112 24.03-1.175 48.06-2.558 72.14-2.053 10.22.098 20.52-.025 30.71.028 3.27 1.836 2.03 6.28.31 8.775-.06 2.187 2.49 3.96 1.35 6.27-1.91 120.854-1.87 241.71-3.63 362.56-1.34 3.336-5.69 2.287-8.5 2.222-27.21 1.653-54.52 1.272-81.76 2.167-36.02.34-72.04.37-108.06-.03-24.64-1.14-49.29-2.73-73.97-2.06-2.29.28-4.46-.9-6.61-1.01-2.03.88-4.215 1.53-6.415.92-4.55-.28-9.364.86-13.723-.62-.933-3.88-.55-8.298-.846-12.38-1.63-121.845-1.587-243.7-3.656-365.54.48-.888 1.357-1.976 2.473-2zm7.846 4.474c-2.976.482-2.235 4.396-2.11 6.525 2.155 121.49 1.683 243.06 3.827 364.55.767 2.02 3.842 1.85 4.696 0 6.592-1.98 13.656-.31 20.447-.9 23.285-.36 46.564.53 69.806 1.82 32.09.69 64.208.2 96.3.2 23.788-.56 47.604-.71 71.382-1.58 5.25-.19 10.802-1.06 15.89.25.792 1.73 3.366 2.33 4.612.62 1.01-2.5.046-5.58.45-8.24 1.645-120.57 1.72-241.16 3.516-361.72-.692-2.046-3.808-1.95-4.668-.084-5.05 1.81-10.563.093-15.807.675-25.16-.17-50.34-.04-75.46 1.69-31.07 1.027-62.18.217-93.26.42-24.33-.31-48.64-.89-72.95-1.52-6.85-.52-13.89-.02-20.64-1.063-1.82-.897-4.06-.76-5.88-1.657-.04.015-.1-.04-.14 0zm310.754 4.302c3.243.62 2.893 4.916 2.475 7.425-.89 57.45-1.39 115.03-1.8 172.52-.46 60.28-.86 120.55-1.78 180.82-1.42 3.34-5.67 1.48-8.33 2.65-2.27 1-4.49-1.1-4.22-3.4 1.01-61.43 1.32-122.88 1.83-184.33.44-57.28.88-114.56 1.82-171.84 1.814-3.42 6.715-3.11 9.984-3.823zM304.014 68.7c15.432.742 30.87 1.156 46.32 1.434 43.77 1.077 87.566 1.146 131.345.73 20.78-.54 41.54-2.154 62.35-2.08 12.49.348 25-.218 37.49.422 2.67 1.466 2.39 5.06 2.25 7.678-2.01 116.38-1.76 232.787-3.52 349.172-.95 3.653-5.59 3.335-8.52 2.953-26.11 1.48-52.28 1.23-78.42 1.99-34.26 0-68.55.68-102.8-.42-26.15-1.64-52.37-1.79-78.557-1.55-2.33-.21-5.505.32-7.115-1.6-.793-10.58-.896-21.18-.9-31.78-1.23-107.05-1.298-214.13-3.038-321.16-.595-2.38.487-5.3 3.092-5.8zm-23.795.844c1.76.098 4.87-.498 4.47 2.193.94 12.17.37 24.398.81 36.59 1.34 106.437 1.51 212.87 2.98 319.304-1.17 3.51-5.89 2.96-8.61 1.83-2.01-1.26-.59-4.47-1.13-6.52-.86-36.13-.86-72.31-1.296-108.45-.654-80.82-.993-161.62-2.39-242.44.58-2.13 3.296-2.45 5.145-2.5zm160.34 37.152c-37.92.48-71.92 17.168-95.46 43.426h-9.88c-.43 0-.85.2-1.15.505-.31.307-.48.693-.48 1.125V165c-13.75 20.656-21.77 45.426-21.77 72.056 0 26.63 8.02 51.405 21.77 72.056v56.73c0 .432.17.845.48 1.152.3.306.72.45 1.15.45h214.06c.43 0 .85-.144 1.15-.45.3-.307.45-.72.45-1.153v-56.72c13.74-20.65 21.77-45.42 21.77-72.05 0-26.63-8.03-51.4-21.77-72.05v-13.25c0-.43-.15-.82-.45-1.125-.31-.303-.72-.504-1.15-.503h-9.9c-23.88-26.64-58.56-43.423-97.15-43.423-.563 0-1.128-.007-1.688 0zm.05 3.263c.54-.01 1.08 0 1.63 0 36.29 0 69.06 15.23 92.22 39.68-.05 0-.09-.01-.14 0-.42.02-.82.15-1.16.39l-.11.08h-34.9c.38-.78.662-1.62.59-2.7-.06-.84-.468-1.7-1.018-2.34-.55-.638-1.215-1.12-1.996-1.55-.936-.51-1.78-.636-2.473-.647.37-1.355.716-2.75.31-4.36-.267-1.054-.98-2.115-1.94-2.84-.96-.728-2.11-1.166-3.544-1.493-3.625-.632-7.194.247-10.773-.28-.206-.32-.49-.763-.82-1.35-.213-.38-.44-.77-.7-1.18.004-.352.02-.75.056-1.18.188-2.1.15-4.97-1.432-7.85-2.9-5.264-9.735-7.22-14.99-7.814-.814-.094-1.594-.16-2.335-.255-.996-.13-2.194-.225-3.49-.252-7.2.2-14.293.067-21.487 0h-.03c-.48 0-.94-.008-1.408 0-1.29.027-2.5.097-3.49.225-.74.1-1.528.19-2.335.284-5.235.596-12.024 2.55-14.908 7.817-1.577 2.88-2.21 5.836-2.026 7.936.024.256.046.5.058.73-.82.72-1.63 1.516-2.39 2.53-.42.81-1.132.57-1.94.533-2.556-.095-5.12-.38-7.284.112-1.428.325-2.59.79-3.546 1.52s-1.65 1.76-1.91 2.81c-.406 1.61-.09 3.007.28 4.36-.69.013-1.52.14-2.447.646-.78.428-1.45.91-2 1.548-.545.638-.923 1.503-.982 2.335-.076 1.09.19 1.924.564 2.704h-34.87c-.04-.027-.073-.056-.113-.084-.36-.25-.77-.39-1.21-.394-.03-.006-.08.023-.11.023 22.812-24.082 54.95-39.26 90.59-39.71zm-10.01 8.46c2.82-.04 6.31.09 9.05.14 0 0 .76-.01.76 0 .42 2.26-.26 4.5-.06 6.75-1.43.45-3.98.7-5.4 1.15-2.31.84-5.89 1.49-8.36 1.49-1.748 0-3.487.65-4.418 1.94-.93 1.29-1.013 2.68-1.013 3.99 0 .8-.14.98-.25 1.09-.11.12-.415.326-1.07.45-1.31.25-4.563.056-7.086.057-.298 0-2.13.18-2.448.17 1.91-1.72 2.53-3.28 2.334-5.767-.21-2.365.458-4.2 1.13-5.43 1.545-2.82 7.19-5.12 11.587-5.62.76-.086 1.56-.144 2.39-.25.7-.09 1.69-.154 2.84-.17zm20.84 0c.77-.01 1.54-.01 2.25 0 1.16.01 2.13.07 2.84.17.83.1 1.65.16 2.42.25 4.42.5 10.09 2.8 11.64 5.62.67 1.22 1.02 3.06.81 5.43-.29 1.97.73 3.92 1.682 5.65-.32.01-1.5-.06-1.8-.06-2.536 0-5.516.19-6.835-.06-.66-.125-.956-.33-1.07-.45-.113-.12-.253-.294-.253-1.097 0-1.31-.103-2.705-1.04-3.994-.933-1.29-2.636-1.94-4.386-1.94-2.48 0-6.12-.65-8.438-1.49-1.385-.506-3.855-.71-5.15-1.157-.448-2.12-.193-4.52-.308-6.75 2.07-.04 5.312-.12 7.62-.14zm-212.17 2.89c.12-.01.26 0 .39 0 3 .17 5.72 1.99 8.07 3.6.56 3.36 2.18 6.75 1.77 10.15-3.25.604-6.71.99-9.62 2.87-1.94-.288-1.97-2.847-3.29-4.026-2.03-2.6-3.47-6.76-.65-9.36.98-1.22 1.52-3.05 3.32-3.237zm405.28.08c4.51.21 6.02 5.764 5.71 9.505-.27 2.537-1.12 5.707-3.6 6.834-2.84-1.543-6.08-2.183-9.2-2.586-.88-2.19.52-5.03.87-7.4.15-3.308 2.94-6.06 6.21-6.358zm-202.45 7.43c.49.25.992.423 1.49.59 1.8.62 3.76 1 4.19 1.156 2.952 1.074 6.772 1.744 9.93 1.744.932 0 .85.11.87.14.02.03.193.49.193 1.436 0 1.566.49 3.047 1.464 4.077.97 1.03 2.213 1.52 3.4 1.745 2.37.442 4.85.11 7.085.11 1.47 0 2.935-.048 4.275-.03.325.7.75 1.51 1.49 2.25.205.202.426.48.647.785-.253.73-.2.8-.788 1.38-.93.915-1.718 2.32-1.718 3.94 0 .816.417 1.486.87 1.966.1.102.182.196.28.28.094.08.19.165.28.222.62.4 1.214.574 1.83.73 1.16.297 1.404.415 2.755.535.054.236.1.505.14.76.04.246.084.5.112.756-.68.256-.998.87-1.52 1.323-1.37.993-2.42 2.334-2.39 3.962.022 1.626 1.07 2.74 2.05 3.43 1.005.71 1.072 1.214 2.192 1.52v.56c0 3.388.28 6.634.28 9.703 0 3.327-.007 6.31-.507 9.31-.597 3.598.226 6.996.226 9.536 0 3.05.2 5.966-.223 8.49-.68 4.094-.023 7.78-.023 11.14v9.42c0 2.53-.28 4.64-.28 7.54 0 1.69-.564 3.697-.564 6.187 0 .094-.08 17.67-.22 20.364-.148 2.696-.34 6.157-.537 9.62-.19 3.46-.39 6.927-.53 9.646-.067 1.22-.1 2.18-.14 3.01h-.42c-3.166 0-6.245-.28-9.676-.28-3.69 0-8.556-.79-13.22-.564-1.555.077-3.087.3-4.556.62-6.06 1.327-17.3.845-17.3.845-.98.1-1.99.16-3.01.17-1.646.08-1.995.05-2.844-.088-3.475-.164-4.906-.416-7.76-.533-1.526-.1-3.057-.17-4.614-.17-2.89 0-6.61.146-9.473.224-.11-2.424-.31-5.72-.48-9.28-.28-5.81-.535-11.927-.535-13.08 0-3.572-.815-21.962-.815-24.805v-8.35c0-3.38-.256-6.76-.256-9.96v-9.675c0-3.594-.282-6.92-.282-10.24 0-3.44.286-6.83.286-10.49 0-3.465.04-6.985-.565-10.603-.383-2.297-.096-5.277 0-8.27 1.113-.304 1.134-.807 2.137-1.52.973-.69 2.03-1.807 2.052-3.43.03-1.62-1.02-2.967-2.39-3.966-.585-.427-.05-.687-.646-.955.025-.13.056-.236.084-.367.025-.115.06-.25.085-.366.082-.416.14-.8.223-1.21.99-.11.88-.256 1.744-.48.613-.157 1.18-.333 1.8-.73.09-.06.185-.15.28-.226.1-.08.212-.177.31-.28.453-.477.844-1.15.844-1.97 0-1.61-.768-3.02-1.69-3.936-.744-.74-.965-1.2-1.267-1.66.293-.905.675-1.81 1.152-2.7 1.69-.12 3.69-.03 5.71-.03 2.224 0 4.665.34 7.03-.11 1.18-.227 2.435-.716 3.403-1.747.97-1.03 1.46-2.51 1.46-4.077 0-.946.18-1.405.2-1.434.02-.03-.055-.14.875-.14 3.14 0 6.93-.698 9.87-1.774.42-.15 2.364-.503 4.163-1.123.495-.17.97-.335 1.463-.59zm-43.458 9.51c.625-.01 1.396.01 2.22.026-.706.88-1.18 1.975-1.18 3.32 0 .85.4 1.647.816 2.136.42.49.84.81 1.264 1.07-.195.964-.39 1.905-.59 2.87-.72.05-1.44.105-2.11.166-1.276.117-2.23.127-3.43.674-.375.173-.784.42-1.15.873-.154.19-.264.397-.368.65h-2.868c-.14-.295-.298-.58-.45-.87-.54-.98-.62-1.434-.65-1.406.083-.084.24-.24.67-.48-.042.023.65.012 1.857-.027.6-.02 1.65-.06 2.53-1.1.88-1.036.735-2.26.48-3.207-.477-1.73-.66-3.047-.566-3.43.05-.19.05-.22.31-.42.26-.2.846-.495 1.884-.73.22-.05.697-.1 1.32-.11zm87.13 0c.63.01 1.1.06 1.323.11 1.044.238 1.647.53 1.91.73.26.2.29.235.334.423.1.38-.11 1.672-.59 3.403-.26.944-.374 2.2.51 3.232.88 1.033 1.924 1.076 2.53 1.096 1.21.04 1.89.05 1.855.03.433.236.587.393.674.48-.027-.035-.108.425-.647 1.404-.16.29-.31.58-.45.878h-2.894c-.1-.25-.24-.46-.397-.645-.37-.45-.773-.7-1.15-.87-1.2-.544-2.147-.56-3.43-.675-.42-.04-.876-.05-1.32-.086-.136-.45-.276-.923-.396-1.404-.15-.6-.352-1.225-.59-1.856.288-.2.59-.434.87-.76.42-.49.817-1.28.817-2.135 0-1.346-.47-2.44-1.18-3.32.83-.013 1.59-.036 2.22-.026zm-57.46 14.315c-.315-.003-.59.055-.814.11-.886.227-1.448.603-1.49.62-.35.142-.657.365-.873.676-.526.738-1.197 1.638-1.1 3.178.05.77.528 1.756 1.294 2.28.764.523 1.6.674 2.502.674.75 0 1.54-.195 2.194-.73.657-.536 1-1.3 1.098-1.914.193-1.22-.132-2.1-.31-2.81-.164-.66-.692-1.48-1.46-1.83-.385-.17-.725-.25-1.042-.25zm26.045 0c-.26.023-.5.122-.79.252-.77.34-1.33 1.16-1.49 1.822-.18.71-.48 1.59-.28 2.812.09.61.41 1.376 1.07 1.91.65.536 1.47.73 2.22.73.9 0 1.73-.15 2.5-.674.762-.52 1.24-1.504 1.29-2.274.1-1.54-.574-2.44-1.098-3.178-.218-.31-.52-.536-.87-.68-.047-.013-.61-.39-1.494-.615-.22-.057-.5-.114-.815-.112-.08 0-.17-.008-.256 0zm-117.54.76h5.43c-1.89 2.25-3.698 4.544-5.43 6.92v-6.92zm9.812 0h1.912c.096.093.22.18.336.252.49.33.403.25.506.42.102.17.356.77.9 1.74.31.56.735 1.09 1.124 1.63-1.262-.18-2.64-.3-3.91-.39-.55-.04-1.04-.08-1.49-.086-.444 0-.68-.06-1.43.17-.19.06-.46.105-.848.42-.387.32-.9 1.22-.788 2.03.11.807.507 1.176.73 1.377.22.206.396.29.534.37.55.304.93.38 1.574.564.26.076.706.178 1.013.255-1.353.144-2.433.214-3.516.56-.27.09-.57.17-.984.48-.416.314-1.1 1.23-.957 2.22.144 1 .716 1.42 1.04 1.66.324.25.6.38.9.51 1.04.484 2.265.08 2.81-.93.457-.06.567-.1 1.155-.166 1.33-.14 2.93-.32 4.44-.564 1.51-.24 2.92-.51 4.218-1.235.108-.06.218-.11.34-.197.2.133.4.246.646.31.07.02.516.29 1.21.954.694.67 1.64 1.606 3.094 2.25 11.996 5.34 25.24 15.338 38.08 18.76-.076 2.036-.14 4.097-.14 6.247 0 .52-.01 1.01 0 1.52-.1.01-.206.057-.31.084-11.72 2.457-28.344-.813-42.58-.45-.7.02-1.4-.205-2.306-.506-.68-.227-1.526-.55-2.534-.59-.334-.016-.687.02-1.067.083-.26.03-.51.11-.732.22-.103-.635-.44-1.13-.7-1.43-.37-.438-.722-.7-1.1-.96-1.49-1.04-3.522-1.99-4.05-2.364-.742-.53-1.07-.83-1.683-1.236-.618-.41-1.49-.73-2.39-.874-.148-.02-.28-.032-.427-.026-1.112.05-2.02.967-2.08 2.08-.06 1.117.755 2.08 1.858 2.25.59.094.453.06.62.17.168.11.695.565 1.604 1.21.52.37 1.1.664 1.685.985-1.22.38-2.504.836-3.686 1.295-.51.2-.97.4-1.38.59-.36.17-.61.232-1.07.62v-29.53c3.004-4.46 6.286-8.71 9.815-12.747zm7.284 0h29.17c-.32.65-.31 1.392.057 2.024.394.68 1.127 1.08 1.91 1.07.27 0 1.4.026 2.56-.084.57-.054 1.17-.14 1.8-.337.31-.098.65-.218 1.04-.478.384-.26.88-.714 1.094-1.49.06-.232.13-.462.17-.704h3.18l.056.05c.908.9 2.01 1.466 3.208 2.11.426.23.864.46 1.295.674-.2 1.12-.37 2.267-.477 3.432-1.51 0-2.914.004-3.967-.17-1.307-.22-1.84-.537-2.166-1.127-.58-1.05-1.9-1.42-2.955-.84-1.054.58-1.45 1.9-.87 2.952 1.135 2.077 3.33 2.994 5.286 3.32 1.505.25 3.013.24 4.47.226-.014.34-.007.712-.025 1.065-.17.133-.35.27-.48.45.05-.065-.674.58-1.542.79-.87.21-1.79.19-2.62-.31-1.03-.62-2.365-.27-2.98.76-.62 1.03-.3 2.36.73 2.98 1.962 1.18 4.14 1.236 5.88.816.32-.074.6-.18.9-.28.04.775.12 1.566.25 2.336.51 3.06.506 6.227.505 9.62-11.22-3.365-24.095-12.74-36.42-18.225-.64-.283-1.17-.772-1.86-1.433-.687-.66-1.526-1.575-3.01-1.997-.21-.067-.426-.117-.646-.114-.048 0-.098.028-.14.03.18-.63.102-1.212 0-1.602-.147-.55-.367-.95-.59-1.35-.906-1.58-2.33-3.29-2.646-3.85-.065-.113-.115-.204-.17-.307zm135.59 0h3.236c.038.24.077.47.14.702.215.78.738 1.23 1.125 1.49.39.26.728.38 1.045.48.63.19 1.22.28 1.8.33 1.16.11 2.285.086 2.56.086.784.01 1.52-.394 1.913-1.07.37-.63.407-1.374.086-2.026h29.135c-.055.107-.107.198-.17.31-.313.56-1.74 2.27-2.644 3.857-.227.397-.42.8-.563 1.35-.1.39-.205.978-.026 1.606-.06 0-.11-.03-.17-.03-.195.01-.4.058-.59.116-1.48.423-2.32 1.336-3.01 2-.685.66-1.242 1.15-1.88 1.432-12.16 5.41-24.84 14.604-35.947 18.084.314-2.79.31-5.48.31-8.214 0-1.2-.01-2.39-.06-3.57.28.09.54.18.84.25 1.74.42 3.915.336 5.88-.843.694-.385 1.13-1.117 1.125-1.91-.007-.796-.455-1.51-1.155-1.886-.7-.378-1.557-.35-2.22.082-.83.494-1.72.52-2.59.31-.87-.21-1.65-.856-1.605-.79-.134-.196-.29-.368-.476-.507-.006-.29 0-.556 0-.844v-.17c1.477.01 3.002 0 4.526-.25 1.964-.327 4.147-1.216 5.29-3.29.58-1.056.186-2.378-.87-2.956-1.05-.58-2.374-.21-2.95.84-.324.59-.85.91-2.165 1.127-1.055.177-2.46.17-3.97.17-.05-1.242-.085-2.44-.11-3.63.3-.152.605-.32.9-.48 1.205-.643 2.297-1.212 3.207-2.11l.052-.06zm46.41 0h1.91c3.53 4.032 6.814 8.282 9.817 12.74v29.503c-.45-.373-.71-.426-1.07-.59-.407-.19-.865-.393-1.38-.59-1.18-.46-2.464-.917-3.68-1.296.58-.32 1.19-.61 1.71-.987.91-.644 1.41-1.096 1.577-1.21.168-.11.06-.075.648-.166 1.16-.13 1.994-1.144 1.914-2.307-.08-1.16-1.06-2.057-2.225-2.025-.124.003-.246.004-.366.03-.9.14-1.75.463-2.36.87-.615.41-.94.708-1.687 1.24-.523.372-2.58 1.32-4.08 2.362-.37.26-.73.523-1.094.957-.26.304-.598.797-.707 1.432-.23-.117-.46-.197-.73-.224-.38-.066-.73-.1-1.07-.086-1.003.04-1.82.364-2.5.59-.904.3-1.606.524-2.305.505-14.236-.364-30.89 2.906-42.61.45-.01-.634-.03-1.25-.03-1.857 0-2.123-.29-4.2-.39-6.02 12.83-3.435 26.07-13.396 38.054-18.73 1.457-.65 2.43-1.584 3.123-2.25.692-.67 1.11-.94 1.18-.96.242-.06.447-.175.646-.306.125.09.26.14.368.198 1.3.72 2.71.994 4.22 1.237 1.517.244 3.086.423 4.418.563.59.06.7.102 1.156.17.546 1.01 1.8 1.41 2.84.925.3-.13.576-.26.9-.5.324-.25.867-.67 1.01-1.66.147-1-.54-1.91-.954-2.22-.42-.32-.718-.39-.99-.48-1.08-.35-2.13-.42-3.484-.56.306-.08.75-.18 1.01-.26.645-.183.995-.26 1.546-.56.14-.077.31-.164.536-.367.22-.2.616-.57.73-1.374.113-.81-.4-1.71-.787-2.028-.386-.32-.654-.368-.843-.42-.754-.236-.96-.178-1.404-.17-.45 0-.97.04-1.52.08-1.26.09-2.612.21-3.88.39.39-.54.81-1.07 1.128-1.63.54-.972.797-1.57.9-1.742.1-.17-.013-.09.478-.42.115-.08.24-.16.337-.26zm6.3 0h5.43v6.946c-1.738-2.374-3.54-4.696-5.43-6.946zm-101.335 7.762c-.52.042-1.02.3-1.35.7-.33.4-.47.913-.424 1.43.06.74.17 4.19.254 7.31l.11 4.19c.026 1.145.03 2.135.03 1.997-.01.704.37 1.36.98 1.715.61.352 1.33.352 1.94 0 .61-.36.996-1.01.986-1.72 0-.324 0-.93-.03-2.08-.025-1.15-.07-2.655-.11-4.22-.085-3.13-.19-6.34-.28-7.51-.03-.526-.3-1.007-.7-1.35-.35-.3-.785-.47-1.24-.477-.064 0-.102-.005-.167 0zm191.812 8.44c.14-.01.285.03.45.14 1.65 1.14 4.14.69 5.48 1.97 1.52 7.29 8.783 12.692 8.13 20.59-.674 1.84-.493 3.97-1.69 5.593-2.226 2.437-5.795 2.45-8.66 3.684-2.236-.85-.89-4.12-1.55-6.02-.714-8.42-1.726-16.78-3.176-25.11.243-.366.582-.825 1.01-.846zm-379.63.28c.282.14.552.282.84.42.137 2.846-1.194 5.857-1.548 8.805-1.412 7.164-2.312 14.38-2.896 21.654-1.48 1.39-3.19-.87-4.864-1.04-1.928-.655-4.41-.72-4.92-3.15-2.766-5.988.764-12.306 3.683-17.466 1.544-2.47 2.41-5.3 3.486-7.91 2.12-.17 4.317-.28 6.217-1.322zm80.52 1.35v131.68c-11.66-19.204-18.397-41.75-18.397-65.868 0-24.11 6.74-46.61 18.395-65.815zm217.29 0c11.655 19.2 18.394 41.703 18.394 65.812 0 24.11-6.74 46.664-18.398 65.87V171.24zm-129.49 6.47c-.76.006-1.455.46-1.77 1.152-.305.67-.202 1.45.253 2.024.013.037.22.32.393.59.236.37.545.867.9 1.38.72 1.03 1.546 2.21 2.84 3.04 5.237 3.356 11.79 6.073 18.62 6.073 5.74 0 11.88-2.455 16.567-5.707 2.245-1.556 3.89-3.95 5.036-5.286.47-.53.626-1.278.395-1.94-.23-.67-.82-1.17-1.52-1.3-.086-.017-.165-.026-.25-.03-.077-.003-.15-.005-.227 0-.524.04-1.007.285-1.35.703-1.355 1.58-2.974 3.69-4.303 4.612-4.1 2.844-9.777 5.032-14.344 5.032-5.76 0-11.72-2.383-16.51-5.454-.34-.22-1.13-1.128-1.74-2-.3-.44-.59-.85-.81-1.21-.225-.36-.27-.54-.62-.96-.37-.46-.95-.733-1.544-.73zm-70.31 19.714c.07-.01.58.06 1.49.36.916.305 2.206.717 3.8.677 13.3-.34 29.77 3.085 42.92.48.06 1.435.115 2.87.115 4.3v9.677c0 3.43.28 6.815.28 9.954v8.357c0 3.57.79 21.963.79 24.806 0 1.72.287 7.467.567 13.278.2 4.09.35 7.576.45 9.9-.08.097-.13.2-.195.31-.4.678-.4 1.517 0 2.195.1.175.22.34.362.478.12.608.495 1.12 1.04 1.438.676.4 1.49.4 2.165 0 .362-.21.654-.505.84-.87 2.99-.074 6.79-.25 9.62-.25.67 0 1.347.03 2.027.054-3.327 6.765-8.765 16.765-13.976 26.83-6.083 11.75-11.863 23.453-13.67 30.995-.41 1.71-.935 3.362-1.603 4.892-.228.03-.558.08-1.153.03-1.47-.138-3.635-.66-5.82-1.3-2.18-.637-4.4-1.403-6.1-1.995-.85-.297-1.583-.545-2.14-.73-.273-.095-.49-.16-.7-.227-.11-.03-.23-.057-.364-.087-.137-.026-.093-.164-.9-.025-.43.06-.817.236-1.124.506-12.94-9.005-24.147-20.36-32.965-33.44V199.34c.266.19.507.26.676.31.29.086.49.102.65.112.63.037.998-.057 1.66-.168.268-.045.7-.163 1.01-.225-1.16.71-2.092 1.24-2.92 2.02-.21.19-.437.41-.677.87-.244.46-.45 1.58.11 2.42s1.205.98 1.6 1.07c.4.08.716.06 1.04.06 1.146-.02 2.08-.91 2.14-2.06.384-.26.48-.37.984-.68 1.144-.7 2.508-1.52 3.77-2.39 1.262-.87 2.43-1.69 3.29-2.9.068-.1.128-.218.197-.34.24.025.49.023.73-.03zm182.308 0c.24.05.49.05.73.03.07.12.13.24.198.33.86 1.21 2.03 2.028 3.29 2.898 1.266.87 2.63 1.69 3.77 2.39.51.312.63.42 1.01.676.06 1.14.97 2.03 2.11 2.05.33.01.648.026 1.04-.056.4-.08 1.077-.23 1.636-1.063.558-.84.325-1.96.085-2.42-.244-.46-.47-.674-.677-.87-.83-.782-1.734-1.314-2.895-2.025.31.06.74.18 1.01.223.66.11 1.03.204 1.66.167.155-.006.33-.024.62-.11.164-.05.414-.122.672-.31v108.68c-8.823 13.09-20.02 24.46-32.963 33.47-.3-.272-.67-.467-1.097-.534-.806-.14-.79 0-.927.03-.134.03-.23.052-.334.083-.216.06-.456.13-.73.22-.556.184-1.26.432-2.11.73-1.7.59-3.92 1.355-6.104 1.993-2.187.64-4.38 1.16-5.85 1.294-.603.05-.93 0-1.154-.03-.67-1.53-1.197-3.187-1.606-4.895-1.802-7.543-7.56-19.246-13.64-30.995-5.293-10.23-10.83-20.4-14.142-27.164.552.016 1.094.026 1.63.026 3.195 0 6.272.26 9.674.26h1.887c.565.16 1.196.106 1.716-.198.676-.39 1.08-1.13 1.07-1.91 0-.144.106-2.295.25-5.005.146-2.71.34-6.185.536-9.647.193-3.46.387-6.914.533-9.62.143-2.7.222-19.83.222-20.584 0-1.754.56-3.74.56-6.186 0-2.617.253-4.717.253-7.54v-9.42c0-3.85-.56-7.23-.03-10.41.166-.994.26-2 .31-2.98 13.08 2.46 29.367-.87 42.525-.533 1.59.04 2.85-.37 3.763-.677.91-.305 1.42-.38 1.49-.368zm-185.626.7c.01 0 0 .03 0 .03-.015.01-.07.02-.14 0 .02 0 .13-.03.14-.03zm188.976 0c.01 0 .095.03.11.03-.07.02-.12.01-.14 0 .003 0 .02-.03.028-.03zM455.7 227.4c-.17.013-.326.04-.45.085-.496.17-.784.42-.787.42-.14.066-.266.17-.366.282-.068.08-.13.154-.17.25-.21.465-.458 1.085-.14 1.912.154.413.534.842.982 1.04.445.2.914.215 1.432.17.426-.04.9-.14 1.267-.536s.44-.96.39-1.32c-.1-.73-.43-1.15-.65-1.52-.2-.33-.55-.62-.957-.73-.204-.06-.39-.07-.563-.06zm-32.427.06c-.175.01-.355.07-.48.11-.496.17-.756.39-.76.39-.1.05-.2.12-.28.2-.107.1-.197.2-.256.333-.21.462-.43 1.11-.116 1.94.16.412.51.812.958 1.01.45.197.918.242 1.437.196.424-.04.9-.17 1.265-.56.37-.395.47-.93.424-1.296-.097-.725-.455-1.15-.676-1.52-.196-.328-.55-.644-.955-.76-.206-.055-.39-.068-.564-.054zm34.45 54.28c1.385.03 2.84.1 4.303.19 3.23 6.94 9.38 18.13 15.243 29.448 6.05 11.682 11.704 23.57 13.25 30.01.48 2 1.123 4.026 2.02 5.99.45 1.106 1.536 1.844 2.42 2.08.99.267 1.94.262 2.954.17 1.63-.148 3.436-.565 5.29-1.07-11.33 6.22-23.697 10.75-36.79 13.276.225-.31.36-.67.396-1.068.065-.8-.313-1.596-.985-2.03-.547-.39-1.403-.89-2.614-1.63-1.21-.74-2.68-1.63-4.105-2.507-1.43-.878-2.83-1.735-3.827-2.39-.345-.23-.558-.4-.788-.565-.38-6.22 1.403-11.76.7-19.376-.07-.79.04-4.9.31-9.96s.655-11.34 1.04-17.464c.384-6.12.765-12.115.984-16.62.11-2.25.183-4.106.197-5.484.006-.38.008-.708 0-1.01zm-4.36.17c.004.24.004.43 0 .78-.01 1.27-.09 3.12-.197 5.345-.216 4.45-.57 10.414-.957 16.537-.38 6.125-.796 12.43-1.07 17.524-.27 5.09-.424 8.702-.25 10.573.644 6.98-1.407 12.62-.705 20.224.076.82.342 1.03.48 1.207.133.178.242.25.336.34.187.177.35.31.535.45.375.28.84.6 1.38.96 1.08.71 2.464 1.56 3.91 2.446 1.445.888 2.935 1.8 4.135 2.533 1.196.73 2.19 1.36 2.33 1.46.047.035.096.053.14.084-6.9 1.165-13.973 1.8-21.203 1.8s-14.31-.61-21.21-1.77c.05-.033.095-.074.14-.113.14-.1 1.166-.73 2.365-1.46 1.2-.733 2.66-1.646 4.106-2.533 1.444-.885 2.86-1.735 3.937-2.445.54-.356.977-.677 1.35-.957.187-.14.377-.275.562-.45.09-.087.2-.16.335-.337.138-.18.376-.39.45-1.21.706-7.606-1.32-13.244-.672-20.224.174-1.87-.01-5.48-.28-10.57s-.682-11.4-1.067-17.52c-.38-6.128-.74-12.09-.954-16.54-.098-1.94-.15-3.497-.17-4.728 1.18-.03 2.374-.13 3.57-.28 1.353-.17 2.752-.188 4.22-.17 2.59.36 5.262.014 6.943.084 1.97-.058 4.006-.25 6.05-.76.458-.114.95-.21 1.46-.28zm-31.36.95c1.57.13 3.144.25 4.754.337.02 1.33.094 3 .192 5.035.22 4.507.572 10.5.96 16.625s.8 12.41 1.07 17.466c.27 5.06.352 9.167.28 9.957-.705 7.62 1.08 13.18.702 19.41-.226.16-.45.31-.785.533-1 .66-2.395 1.513-3.824 2.39-1.43.877-2.895 1.764-4.105 2.504-1.214.74-2.07 1.24-2.62 1.63-.67.432-1.05 1.225-.983 2.024.03.4.166.76.392 1.07-13.09-2.524-25.457-7.055-36.787-13.273 1.85.505 3.656.923 5.286 1.07 1.02.093 1.97.1 2.956-.17.885-.235 1.97-.973 2.42-2.08h.03c.894-1.963 1.515-3.99 1.994-5.99 1.543-6.44 7.228-18.327 13.276-30.01 5.605-10.825 11.46-21.53 14.793-28.517zM254.12 300c.455.014.87.135 1.265.45 1.205 10.78 2.13 21.635 2.615 32.485-1.507 1.745-3.026-1.25-4.696-1.576-1.702-.96-.764-3.54-1.913-5.1-2.6-6.14-8.34-11.97-6.91-19.18.65-2.76 2.34-5.49 5.35-5.99 1.36-.17 2.94-1.14 4.3-1.1zm377.943.225c.137.002.27.057.422.196 2.102 1.22 5.034 1.03 6.722 2.76 3.348 4.96 1.353 11.24-1.434 15.92-2.155 3.9-4.614 7.84-4.923 12.35-1 .76-2.753 2.9-3.908 1.35.346-10.64 1.14-21.28 1.996-31.89.364-.21.715-.68 1.125-.67zM336.835 313.78c18.298 25.055 45.313 43.367 76.584 50.43h-76.59v-50.43zm210.825 0v50.43h-76.585c31.27-7.063 58.29-25.375 76.585-50.43zm-305.887 50.514c.19-.01.366.01.533.168 2.29 1.088 4.863 1.066 7.23 1.715.238 4.04-1.552 8.025-2.25 12.01-1.728 2.853-6.306 3.606-8.298.563-3.338-4.214-2.977-11.834 2.193-14.43.2.016.4-.02.6-.027zm402.58.393h.253c1.804 3.313 5.657 6.93 4.08 11.11-.842 1.476-1.98 2.69-2.87 4.134-1.76 1.53-5.162.83-6.187-1.09-.72-4.22-2.66-8.45-2.37-12.71 2.33-.46 4.77-.79 7.08-1.43zm-6.497 54.14c-.192-.01-.365-.014-.562.03-5.21.38-11.006 1.905-14.428 6.1-1.825 3.292.345 7.073 3.207 8.805 2.166 1.474 5.317 4.628 2.952 7.228-3.135 3.556-8.02 4.73-12.375 5.99-1.102.338-2.592-.648-3.346.366-1.07.29-1.26-1.165-2.448-.42-2.52 1.013-1.193 4.65.9 5.343 2.508 1.85 6.13.25 9 1.23 4.01.45 8.677 2.83 8.888 7.37.795 3.74-2.24 7.35-6.02 7.48-4.935.8-10.538-.19-14.4-3.46-2.573-2.24-3.264-6.29-6.41-7.82-2.336-.48-3.9 2.83-1.914 4.27 2.823 4.37 5.636 9.3 5.43 14.68-1.14 2.16-3.892.01-5.064-1.13-3.16-2.446-5.706-5.548-8.69-8.21-2.25-.825-4.338 2.5-2.25 4.02 3.717 4.41 8.07 8.634 13.33 11.082 3.007 1.49 6.388-.806 7.004-3.91.93-1.85-.38-4.286.928-5.767 4.45 1.015 9.44 1.87 14.035.533 4.526-.84 8.288-4.646 8.633-9.364.684-5.607-2.98-11.117-8.212-13.16-.85-2.21 2.567-2.136 3.685-3.406 3.91-2.25 6.36-7.48 3.88-11.583-1.4-2.945-4.58-4.46-6.33-6.95.32-3.142 4.43-3.274 6.75-4.02 1.94-.677 5.36-.057 6.05-2.558.27-1.4-.88-2.71-2.23-2.79zm-389.22.03c-2.757.146-2.32 4.22-.03 4.808 3.723.218 8.012.882 11.054 3.488.53 2.018-2.484 2.978-3.544 4.415-3.648 2.742-5.327 8.172-2.475 12.038 1.68 2.615 5.01 3.683 7.15 5.485.3 1.81-2.56 1.76-3.48 3.04-5.99 4.26-6.81 14.89-.17 18.85 5.21 3.17 11.97 2.84 17.67 1.1 2.023.9.284 3.6 1.21 5.32.33 3.41 4.29 6.25 7.454 4.22 5.234-2.434 9.284-6.694 13.134-10.88 1.37-1.6.334-4.47-1.91-4.08-2.55.83-3.65 3.885-5.85 5.347-2.126 2.046-4.39 4.024-7.06 5.34-2.28-.686-1.164-3.81-.926-5.595 1.13-4.117 3.324-7.79 5.6-11.333 1.36-2.12-1.837-4.555-3.487-2.67-2.676 2.1-3.346 5.877-6.216 7.877-3.625 2.6-8.42 3.306-12.797 2.924-3.42-.33-7.236-2.68-6.89-6.552-.16-3.642 2.45-6.75 5.875-7.73 3.475-1.33 7.295-.976 10.885-1.154 1.13-.897 2.56-1.703 3.344-3.01.97-1.837-1.56-4.567-3.093-2.812-1.52-.673-3.57.31-5.23-.73-4.292-1.25-9.45-2.58-11.81-6.72-.7-4.25 4.348-5.69 6.356-8.55 2.103-2.637 1.345-6.795-1.66-8.44-3.745-2.647-8.545-3.855-13.077-3.963zm70.593 23.708c5.81.65 11.64.007 17.49.225 28.78-.186 57.5 3.15 86.28 2.28 39.65.067 79.3.126 118.94-1.07 11.4-.033 22.83-.33 34.2-.76 3.09 1.967 1.4 6.12 2.36 9.056.15 3.036-3.63 3.036-5.77 2.73-25.097 1.39-50.306 1.236-75.43 1.995-32.07.23-64.13.42-96.19-.14-22.047-1.2-44.12-2.4-66.21-1.88-6.502-.13-13.106.28-19.547-.19-2.985-2.7-.158-6.83-.085-10.07.57-1.61 2.365-2.2 3.94-2.16zm-46.05 3.235c-.03-.036-.15.124-.31.562.28-.292.34-.526.31-.562zm241.12 31.47c.34-.063.77.02 1.12.086 3.29.622 6.8 1.225 9.78 2.644 1.16 3.306 5.503 6 4.163 9.9-2.93 3.94-8.79 5.978-13.39 3.712-2.24-.975-4.065-2.74-5.682-4.472 1.73-3.437 3.296-7.183 3.264-11.138.097-.465.382-.666.73-.73zm-143.66.93c1.75-.11 3.06.765 2.81 2.783.3 2.974 1.91 5.603 2.95 8.27-3.1 1.968-5.89 5.26-9.76 5.624-2.21-.065-4.06-1.354-6.19-1.8-3.43-1.18-3.81-5.495-2.17-8.267 1.25-2.253 2.203-5.562 5.26-5.654 2.094-.59 4.09-1.17 6.3-.844.262-.055.533-.096.784-.112zm45.62.533c1.29.064 2.79.395 3.74.113h14.14c1.55 1.486-.46 3.64-1.04 5.287-1.49 3.395-5.63 4.968-8.97 3.292-4.23-1.005-7.4-4.204-10.38-7.173.11-1.362 1.21-1.58 2.5-1.52zm45.81.085c3.36.03 6.74.104 10.07.028 1.7 1.55-1.31 2.83-2.14 4.05-3.67 3.35-9.2 6.68-14.15 3.994-2.72-1.437-4.55-4.824-3.8-7.82 3.29-.265 6.65-.28 10.01-.252" fill="#fff"/></g></svg>