<svg xmlns="http://www.w3.org/2000/svg" width="656.719" height="556.227"><g fill-rule="evenodd"><path d="M53.085 297.035c-1.006.035-1.892.67-2.25 1.61-.91 2.31-1.67 4.302-2.156 6-.49 1.696-1.095 3.014-.128 5 .06.124.134.24.22.36-1.49.224-2.98.6-4.33 1.186-2.05.894-4.397 1.606-6.594 1.97-2.95.49-5.77 1.58-7.547 1.877-1.666.277-2.75 1.135-3.655 1.812-.91.677-1.67 1.25-2.063 1.422-2.852 1.24-4.825 3.433-6.078 4.345-2.156 1.567-3.326 3.42-4.61 4.765-1.163 1.217-1.492 2.465-1.89 3.56-.398 1.097-.842 2.09-.89 2.157-.954 1.333-1.213 2.684-1.454 3.672-.24.986-.44 1.62-.735 2.03-1.918 2.686-2.965 6.295-3.202 9.25-.26 3.232-1.02 5.727-.344 9.782.56 3.37.86 6.993 1.484 10.734.595 3.574.89 7.288 1.516 11.048.63 3.772 1.243 7.488 2.547 11.296.9 2.624.705 6.3 1.33 10.047.466 2.803.768 5.912 1.64 9.014-1.9 2.1-4.275 4.262-6.563 6.61-2.878 2.953-5.67 6.26-6.828 10.484-1.158 4.225-.41 9.186 3.046 14.548 2.725 4.226 7.08 8.817 13.61 14.093-.69.316-1.368.686-2.062 1.077-1.535.866-3.074 1.874-4.374 2.704-.57.36-.7.42-1.156.686-1.22-.53-2.64-.016-3.235 1.17-.174.336-.322.66-.438 1.11-.115.453-.318 1.205.266 2.204.584 1 1.856 1.345 2.453 1.33.598-.02.928-.15 1.235-.27 1.22-.46 2.224-1.177 3.534-2.014-.22.288-.54.687-.72.938-.448.627-.72.987-1 1.656-.068.167-.147.362-.202.704-.054.34-.15.942.33 1.75.477.807 1.596 1.24 2.17 1.25.576.008.837-.12 1.048-.203.844-.332 1.007-.563 1.406-.89.4-.322.832-.71 1.297-1.14 1.07-.99 2.183-2.083 3.19-3.154.036.763.065 1.552.186 2.28.21 1.265.406 1.99.437 2.22.03.228.06.096-.14.75-.406 1.32.335 2.718 1.655 3.125 1.32.405 2.72-.337 3.124-1.657.06-.2.095-.408.14-.61.474 2.1.995 4.382 1.376 6.094.675 3.048 1.19 5.475 1.218 5.64.097.925.697 1.72 1.562 2.064.768.305 1.637.216 2.313-.234.603-.1 1.207-.213 1.812-.313 3.86-.642 7.31-1.52 10.938-2.125.402-.066.807-.14 1.218-.218.043.93.103 1.955.19 3.185.25 3.535.666 8.2 1.11 13.03.44 4.83.91 9.827 1.22 13.97.307 4.144.435 7.627.34 8.64-.81 8.766 1.23 15.145.8 22.298-.263.184-.504.338-.893.593-1.15.756-2.746 1.758-4.39 2.766-1.644 1.01-3.342 2.04-4.734 2.89-1.393.85-2.368 1.438-3 1.89-.75.52-1.162 1.406-1.078 2.314.083.908.65 1.69 1.484 2.062.83.372 1.796.277 2.53-.266.16-.113 1.324-.846 2.704-1.688 1.378-.842 3.072-1.887 4.733-2.906 1.662-1.02 3.29-2.01 4.53-2.828.62-.408 1.15-.77 1.58-1.094.213-.162.393-.314.607-.516.108-.1.22-.202.375-.406.16-.204.475-.434.564-1.39.81-8.754-1.523-15.227-.78-23.25.188-2.05-.03-5.274-.345-9.485-.315-4.21-.776-9.23-1.22-14.06-.44-4.83-.863-9.48-1.11-12.925-.115-1.638-.196-2.982-.216-3.922 4.62-1.078 9.253-2.2 12.733-1.92 7.31.584 13.79-2.044 19.688-2.283 3.667-.15 7.202-.84 10.64-1.655.01 17.026.005 41.987-2.89 56.78-.455 2.325-.78 4.748-.78 7.235h.03c-.1 1.336.425 2.41 1.016 3.267.66.963 1.504 1.804 2.484 2.672 1.96 1.732 4.494 3.492 7.047 5.122 2.555 1.63 5.124 3.122 7.095 4.234.985.556 1.82 1.013 2.42 1.344.302.166.552.3.72.39.084.048.188.11.235.14 1.135.69 2.627.38 3.39-.732.79-1.153.494-2.727-.658-3.517-.393-.266-.346-.21-.53-.31-.186-.103-.42-.227-.72-.39-.596-.33-1.414-.787-2.375-1.33-1.923-1.084-4.424-2.54-6.86-4.093-2.435-1.555-4.81-3.23-6.405-4.64-.798-.707-1.406-1.357-1.688-1.766-.132-.192-.137-.29-.14-.296v-.094c0-2.04.273-4.148.687-6.266 3.174-16.21 3-42.033 2.986-59.015 2.096-.52 4.177-.99 6.203-1.33 3.223-.537 7.552-1.08 10.967-1.56.547.703 1.434 1.093 2.375.935 1.166-.196 2-1.167 2.08-2.297.407-.515.623-1.175.53-1.876-.087-.66-.43-1.22-.905-1.61-.222-1.776-.49-3.933-.844-6.92.053.08.1.17.157.25.784 1.137 2.344 1.425 3.483.64 1.14-.786 1.426-2.346.64-3.485-.39-.564-.32-.445-.36-.67-.04-.23-.083-1-.264-2.27-.107-.732-.32-1.49-.518-2.232 1.285.717 2.676 1.437 4 2.06.573.27 1.1.5 1.58.69.476.187.7.37 1.606.436.226.016.518.06 1.063-.124.546-.18 1.476-.946 1.687-1.86.213-.914-.062-1.456-.22-1.765-.154-.31-.287-.47-.405-.61-.466-.55-.834-.8-1.45-1.264-.25-.186-.685-.475-.986-.686 1.512.403 2.693.787 4 .858.328.018.676.04 1.25-.125.575-.163 1.683-.886 1.937-2.015.256-1.128-.16-1.777-.405-2.172-.247-.395-.485-.656-.75-.92-.925-.945-2.424-1.006-3.422-.143-.52-.117-.665-.135-1.33-.312-1.49-.397-3.258-.89-4.983-1.25-.787-.164-1.554-.312-2.312-.405 4.627-7 7.4-12.7 8.72-17.55 1.673-6.154.897-11.12-1.485-14.796-2.38-3.677-6.05-5.98-9.687-7.92-3.576-1.915-7.204-3.51-9.907-5.346-.552-3.55-.877-7.105-1.5-10.845-.69-4.153-1.63-7.958-2.28-11.86-.658-3.956-1.297-7.658-1.296-11.313 0-1.424-.15-2.835-.374-4.22 1.36-.403 2.77-.818 4.25-1.264 1.915-.58 3.768-1.15 5.17-1.58 1.406-.43 2.125-.635 2.518-.765 1.228-.362 1.983-1.6 1.75-2.86-.234-1.26-1.38-2.134-2.657-2.03-.23.015-.454.06-.67.14.167-.056-1.006.306-2.406.734-1.4.43-3.248 1-5.157 1.58-1.307.393-2.558.765-3.812 1.14-.225-1.016-.425-1.984-.577-2.89-.653-3.927-2.207-7.666-3.437-10.91-1.314-3.464-2.584-6.666-3.86-10.03-1.52-4.01-4.364-7.255-7.125-9.89-3.285-3.137-6.836-4.097-9.39-5.92-2.338-1.67-5.39-2.51-8.188-2.877.625-.375 1.29-.74 1.97-1.08 2.648-1.315 5.618-2.33 7.577-2.655 1.287-.21 2.2-1.37 2.092-2.673-.106-1.3-1.193-2.302-2.5-2.297-.14 0-.282.01-.42.03-2.738.456-5.957 1.62-8.986 3.126-2.88 1.433-5.525 3.095-7.327 5.204-1.23-.073-2.336-.19-3.018-.39.965-1.83 2.564-4.088 3.58-5.454.36-.49.605-.57.983-1.625.094-.264.316-.645.093-1.546-.11-.452-.44-1.025-.906-1.39-.465-.367-.96-.495-1.31-.532-1.4-.145-1.447.22-1.75.376-1.21.62-2.624 1.692-5.735 3.953-1.468 1.067-2.596 1.787-3.53 2.344.405-1.324 1-2.973 1.81-5.032.32-.784.22-1.68-.266-2.374-.486-.693-1.294-1.092-2.14-1.062zm12.14 6.625c.023-.01.015.054-.156.11l.153-.11zm-5.468 10.47c.6-.005 1.006.02.985.015 2.807.864 6.107.717 8.375.72 2.407 0 7.593 1.16 9.03 2.186 3.437 2.458 6.597 3.34 8.844 5.487 2.5 2.385 4.82 5.165 5.91 8.03 1.295 3.42 2.565 6.62 3.86 10.032 1.26 3.327 2.665 6.834 3.186 9.97.193 1.153.443 2.302.688 3.452-.088.023-.268.078-.328.095-.915.167-1.663.83-1.938 1.718-.276.888-.034 1.86.626 2.515.658.657 1.628.89 2.514.61.02-.005.06-.01.08-.016.15.995.25 1.94.25 2.814 0 2.378.233 4.678.546 6.937-4.847 5.142-6.198 5.486-12.953 6.61-7.683 1.28-16.26-.913-23.47-4.39-.48-.233-1.82-1.384-2.86-2.546-.517-.584-.994-1.175-1.39-1.658-.395-.483-.53-.717-1.092-1.25-.543-.528-1.275-.816-2.032-.797-1.143.03-2.16.74-2.562 1.812-.403 1.072-.108 2.288.733 3.063-.268-.254.204.24.61.735s.938 1.145 1.547 1.827c1.22 1.367 2.612 2.897 4.61 3.86 7.92 3.82 17.488 6.445 26.827 4.89 5.636-.937 9.194-2.107 13.11-5.42.656 3.562 1.464 6.897 2.033 10.312.626 3.765.946 7.594 1.624 11.67l1.828 11c.3 1.807.527 3.68.766 5.58-6.135-.21-13.772 1.532-21.686 3.53-8.443 2.13-17.15 4.632-23.86 5.75-9.664 1.61-19.565 1.767-29.22 3.375-3.208.533-7.005-.9-12.218-.157-.14-.073-.35-.214-.875-.375-.002-.003-.01 0-.014 0-.207-1.247-.417-2.492-.625-3.735-.572-3.445-.61-7.28-1.75-11.314.398-.72.418-1.61.033-2.36-.233-.45-.59-.797-1.017-1.03-.542-2.32-.84-4.91-1.28-7.548-.48-2.885-.172-6.864-1.532-10.83-1.134-3.31-1.715-6.73-2.343-10.5-.58-3.48-.89-7.204-1.53-11.047-.577-3.463-.86-7.095-1.47-10.75-.523-3.142.093-4.83.39-8.547.15-1.853 1.257-5.315 2.28-6.75.977-1.363 1.287-2.752 1.533-3.766.247-1.013.46-1.64.673-1.936.863-1.21 1.145-2.342 1.515-3.36.37-1.018.854-1.87.798-1.812 1.685-1.763 2.716-3.3 3.937-4.187 1.948-1.416 3.67-3.165 5.125-3.798 1.346-.586 2.273-1.398 3.06-1.984.788-.588 1.41-.875 1.5-.892 2.678-.446 5.367-1.53 7.53-1.89 2.648-.44 5.334-1.255 7.768-2.312 1.46-.635 4.5-1.063 6.64-1.063 1.4 0 2.954-.277 4.515-.454.78-.09 1.573-.122 2.172-.125zm14.03 31.936c-.472.01-1.05.114-1.656.516-.804.537-1.245 1.573-1.31 2.36-.065.837-.26 1.882.19 3.234.223.676.732 1.5 1.577 1.984.844.485 1.82.547 2.672.406 1.022-.17 1.947-.48 2.717-1.22.77-.737 1.122-1.944 1.032-2.826-.18-1.766-1.127-2.668-1.86-3.406-.304-.307-.69-.518-1.11-.61-.053-.012-.765-.333-1.813-.422-.13-.01-.278-.018-.437-.016zm39.188 56.14c2.182 1.164 4.418 2.208 6.485 3.314 3.385 1.81 6.242 3.76 7.844 6.234 1.6 2.473 2.27 5.572.86 10.766-1.265 4.647-4.33 10.836-9.97 18.92-.124-.953-.218-1.713-.296-2.186-.538-3.227-.2-6.79-.875-10.844l-1.58-9.47c-.592-3.56-.913-7.466-1.562-11.358-.294-1.792-.602-3.583-.903-5.375zM15.32 415.74c.336 2.33.513 4.826.952 7.467l1.782 10.688c.532 3.202 1.24 5.532 1.734 8.5.462 2.775 1.45 4.946 1.78 6.937.112.672.447 2.2.892 4.203-7.52-5.83-12.15-10.68-14.703-14.64-2.916-4.524-3.2-7.675-2.422-10.516.778-2.845 2.9-5.567 5.578-8.316 1.393-1.43 2.916-2.847 4.406-4.327zm93.186 3.25c.674-.01 1.314.016 1.907.06.037.235.07.47.11.704l1.577 9.468c.538 3.225.185 6.79.86 10.844.218 1.308 1.063 8.293 1.844 14.938.477 4.07.9 7.822 1.234 10.593-3.267.455-7.512 1-10.797 1.548-7.55 1.257-14.595 3.915-21.28 4.187-7.07.288-13.33 2.76-19.092 2.297-6.916-.557-14.575 2.35-20.156 3.28-3.894.65-7.36 1.54-10.953 2.14l-.453.08c-.205-.94-.443-2.027-.75-3.41-.68-3.057-1.548-6.95-2.423-10.843-.874-3.894-1.746-7.783-2.42-10.814-.675-3.03-1.2-5.457-1.22-5.562-.47-2.824-1.46-5.002-1.78-6.92-.547-3.29-1.24-5.628-1.72-8.5-.086-.527-.177-1.053-.265-1.58.113-.007.24-.026.36-.046 3.943-.657 7.664.962 12.687.125 1.987-.33 4.02-.597 6.077-.83 0 .317.03.987.423 1.89 1.008 2.323 2.988 6.728 4.983 10.39.998 1.834 1.965 3.466 2.985 4.706.51.617.963 1.174 1.908 1.64.473.23 1.167.444 1.984.296.82-.15 1.56-.722 1.94-1.25 1.01-1.414 3.89-5.997 6.75-10.266 1.255-1.876 2.47-3.614 3.42-4.89.34.82.863 1.54 1.5 2.015 1.133.84 2.37 1.285 3.69 1.47-.856.843-1.205 1.82-1.47 2.92-.28 1.16-.43 2.523-.485 4.236-.206 6.324.545 10.142 2.453 14.53.77 1.78 1.408 3.975 2.686 5.782.32.452.7.92 1.313 1.33.61.406 1.58.71 2.514.544 1.87-.332 2.632-1.645 3.344-3.015.333-.64.634-1.39 1.094-2.563.46-1.173 1.006-2.616 1.518-4.048.51-1.43.988-2.847 1.328-4.016.17-.585.298-1.098.39-1.593.048-.25.098-.482.11-.797.014-.314.175-.682-.406-1.64-.485-.797-2.562-4.492-4.5-7.812-.97-1.66-1.92-3.246-2.672-4.437-.094-.146-.18-.27-.267-.405.336-.264.63-.568.814-.875.426-.72.515-1.343.56-1.89.093-1.1-.063-2.036-.17-2.86-.05-.385-.055-.46-.08-.735.514.277 1.12.372 1.704.25.234.1.375.14.78.36 1.32.714 3.253 1.946 5.235 3.296 1.982 1.35 4.027 2.82 5.687 4.064 1.66 1.24 3.045 2.365 3.25 2.56.406.39 1.037.836 1.937.924.9.086 1.826-.35 2.313-.798.973-.895 1.096-1.64 1.312-2.437.433-1.594.607-3.53.72-5.64.11-2.115.12-4.35.077-6.268-.044-1.916-.122-3.378-.298-4.437-.09-.55-.177-1.104-.266-1.656 2.42-.383 4.638-.615 6.546-.64zm-11.468 1.56c.087.516.18 1.03.266 1.547.056.343.177 1.932.22 3.735.04 1.803.022 3.943-.08 5.89-.058 1.114-.196 1.76-.313 2.625-.46-.352-.65-.546-1.215-.968-1.72-1.288-3.82-2.807-5.875-4.206-2.058-1.4-4.055-2.67-5.673-3.547-.81-.44-1.478-.79-2.28-1.016-.248-.07-.518-.153-.876-.172 2.68-.7 5.375-1.406 8.03-2.077 2.67-.673 5.288-1.29 7.8-1.812zm-17.64 4.376c-.158.104-.31.223-.454.375l-.125.14c-.124-.06-.246-.112-.378-.153-.083-.025-.196-.03-.313-.03l1.267-.33zm-15.72 3.484c-.332.375-.643.795-1.015 1.28-1.132 1.476-2.545 3.516-4 5.69-2.304 3.44-4.07 6.185-5.282 8.03-.535-.794-1.074-1.56-1.73-2.765-1.855-3.406-3.827-7.75-4.8-9.985.09.2.067-.01 0-.42 5.47-.51 11.107-.946 16.83-1.83zm8.485 1.08c.49-.005 1.26.062 2.016.155.133.016.24.044.372.062.04.345.035.765.077 1.094.052.396.04.56.063.878-1.913.095-3.43-.204-3.78-.36.097-.28.484-.93 1.25-1.827zm2.53 12.467c1.026 1.433 2.177 3.677 3.205 5.938-.717-.7-1.448-1.43-1.782-1.89-.477-.658-.605-.966-1.39-1.564l-.25-.17c.002-.074-.003-.124 0-.202.03-.98.13-1.49.218-2.11zm49.032 1.11c.01-.015.08.015.14.124-.014-.012-.115-.08-.124-.09-.01-.01-.02-.027-.013-.03zm-44.53 12.093c.098.046.194.1.296.14-.043.13-.09.232-.14.36-.052-.163-.093-.334-.154-.5zm-61.016 1.985c.014-.015.023.005.012.03-.005.01-.07.095-.078.11.018-.078.044-.126.063-.14" fill="#fff"/><path d="M508.427 166.75c-6.153-1.204-11.568.347-15.685-1.743-.084-.038-.168-.072-.253-.098-12-4.078-27.007 2.18-39.21 10.25-17.35 11.464-30.405 26.75-36.405 56.333-5.034 24.82-3.277 36.18 3.103 59.35 4.712 17.11 15.517 27.49 23.19 37.16 7.07 8.91 15.14 11.78 23.002 12.82 7.86 1.04 15.652.385 22.604 1.745 16.14 3.156 33.875-7.996 48.078-10.627 9.08-1.682 16.824-12.337 22.772-24.954 5.946-12.62 10.09-27.345 11.337-38.975 2.637-24.59-.263-49.933-11.392-70.2-12.58-22.915-34.8-27.87-51.144-31.064m39.606-90.45c-48.773 1.47-97.586 3.05-146.376 4.094-23.878.774-58.81.436-79.47-1.344-15.1-2.122-10.718 22.264-10.25 36.094 1.575 19.056 2.195 38.176-.593 57.156-1.51 30.866-2.796 62.11 3.566 92.563 4.16 20.783-2.845 41.444-1.53 62.34.37 21.265-3.976 42.297-2.283 63.594.674 14.6-4.996 39.098 17.783 34.47 8.397-.62 16.73-1.98 25.062-3.25l15.216 1.73c29.884-1.297 58.627.27 89.192.894 21.562-.17 47.157 1.96 64.75-.157 14.688-3.85 31.442-.03 44.615-3.66 13.174-3.63 1.973-17.922 3.01-35.56 1.038-17.634 4.673-46.28 2.126-72.53-4.01-13.772-.225-27.504 2.156-41.562.403-22.42 3.24-55.354-.03-75.5-.677-21.04.792-27.978.994-44.874.205-16.897-.472-60.45-4.306-72.125-6.19-2.093-17.154-2.27-23.625-2.374zm-183.75 5.47c2.344-.02 1.717 1.936 1.78 2.874 1.32.84 9.856-2.165 13.97 0 5.133 2.235-2.346 2.42-4.876 1.406-5.952-1.58-7.214 3.225-11.28 3.406-.644-5.87-8.283.09-13.19-2.812-4.685 4.075-9.645-2.266-14.343-.094-3.57-3.522 7.53-3.074 9.504-.562 3.537-2.992 8.527.787 12.218-1.344 4.587.61 3.87-1.24 6.22-2.875zm140.874.218c3.51.28.833 3.22 1 4.593-3.69 2.964-1.81-3.09-6.438-1.468-7.597 1.193-15.157.46-22.843.403-4.486-3.344 7.497-2.17 10.437-1.625 5.77-.966 13.288.26 17.844-1.907zm6.47.906c4.007 1.172 9.827.525 14.592.875 7.43-1.11 14.498-.2 21.5-.25 6.023.12 2.474 4.35-1.687 1.844-6.728-.07-13.738-.15-20.878.56-4.074-.78-17.995 1.28-13.53-3.03zm-47.783.78c2.495.46 7.205-.08 8.41 1.47-2.563 2.707-10.256-.644-14.625 1.344-7.27-.56-14.243.512-21.53.437-4.704-1.6-14.053.776-16.22-2.28 6.65-2.192 15 1.1 22.375.19 7.1-1.38 14.534.543 21.593-1.157zm-67.59.314c.65-.014 1.214-.008 1.594 0 3.49-.058 6.818.83 10.343.437 3.644-1.643 11.594 2 4.563 2.097-8.165.32-16.235-.87-24.376.094-6.378-1.86 3.317-2.53 7.875-2.625zm103.78 6.375c2.228.102 1.508 1.945 1.626 2.872 1.335.827 9.856-2.18 13.97-.032 5.044 2.15-2.428 2.55-4.908 1.408-5.963-1.595-7.203 3.266-11.28 3.436-.634-5.875-8.29.063-13.188-2.844-4.7 4.068-9.644-2.23-14.345-.062-3.57-3.523 7.553-3.12 9.53-.625 3.53-2.88 8.527.87 12.22-1.28 4.696.677 3.777-1.41 6.375-2.876zm-118.843.184c1.075-.067 1.57.61 2 1.125 7.446-.844 14.426 1.93 21.844.22 5.714-1.744 8.465 3.43 1.438 1.97-7.862 1.81-15.27-.65-23.157-.065.52 5.684-7.29-2.026-2.124-3.25zm-6.437.875c6.695 3.536-6.8 2.53-9.28 2.94-6.7 1.13-13.56-1.914-19.91-.19-3.03-1.09-9.934 2.136-10.155-1.125 5.996-1.146 12.658-1.68 19.344-1 6.52.428 14.21.55 20-.625zm46.22.72c.576-.01 1.074-.027 1.53.06 5.484 1.216 11.073.605 16.655.564 8.264 1.704 16.634-.413 24.97-.25 6.93 1.185-2.394 3.064-5.5 2.187-7.49 1.37-15.206.598-22.69.19-6.228 1.23-12.27-1.5-18.374-.095-6.7-.39-.643-2.58 3.408-2.656zm110.84.405c.653-.014 1.215-.01 1.595 0 3.493-.064 6.82.86 10.344.47 3.635-1.642 11.59 1.928 4.56 2.03-8.166.33-16.198-.834-24.343.125-6.378-1.86 3.287-2.53 7.843-2.623zM364.28 98.36c2.344-.02 1.717 1.936 1.78 2.874 1.32.84 9.856-2.165 13.97 0 5.133 2.235-2.346 2.418-4.876 1.406-5.952-1.58-7.214 3.194-11.28 3.375-.644-5.87-8.284.12-13.19-2.78-4.685 4.074-9.645-2.266-14.343-.095-3.57-3.523 7.52-3.095 9.504-.594 3.533-2.984 8.526.81 12.218-1.312 4.587.608 3.87-1.24 6.22-2.875zm57 .217c1.092-.072 1.57.62 2.03 1.125 7.446-.838 14.458 1.902 21.875.188 5.624-1.65 8.5 3.386 1.406 1.97-7.86 1.81-15.296-.65-23.184-.064.522 5.68-7.29-1.985-2.125-3.22zm90.343.875c4.01 1.173 9.83.557 14.594.907 7.428-1.11 14.497-.2 21.5-.25 6.022.12 2.473 4.315-1.688 1.81-6.728-.068-13.738-.148-20.878.562-4.07-.78-17.992 1.27-13.53-3.032zm-50.563.625c.57-.005 1.116.057 1.563.157 5.02.973 10.264.923 15.406.468 7.756 1.424 15.643.38 23.435-.156 5.017-1.6 7.69 3.02 1.406 2.03-8.02.18-16.124 1.893-24.093.283-7.1 1.07-14.176-1.015-21.126-.035-6.633-.367-.595-2.712 3.407-2.75zm-64.812.47c.65-.015 1.214-.008 1.594 0 3.49-.058 6.818.86 10.343.468 3.644-1.533 11.766 1.962 4.563 2.062-8.163.327-16.234-.87-24.375.094-6.378-1.854 3.32-2.523 7.875-2.622zm24.75 4.812h42.062c2.16.382 4.28.92 6.313 1.653h-54.22c1.887-.71 3.86-1.25 5.845-1.656zm-8.438 2.75h59.47c1.024.483 2.008 1.035 2.968 1.653H409.56c.97-.605 1.96-1.163 3-1.656zm-5.094 3.122h69.563c.64.51 1.276 1.037 1.872 1.625H405.53c.62-.583 1.263-1.11 1.937-1.626zm-3.593 3.312h76.72c.352.5.592 1.044.78 1.625H402.56c.416-.57.85-1.1 1.313-1.625zm-2.063 2.75h79.875c.144.558.273 1.114.47 1.656-27.108 0-54.237.003-81.345 0 .09-.162.178-.317.28-.467.23-.408.473-.8.72-1.188zm-1.625 3.094h82.72c.452.62.975 1.15 1.53 1.624H399.59c.223-.513.392-1.063.595-1.625zm-3.562 3.31h90.375c1.29.65 2.66 1.16 4.062 1.658h-98.5c1.315-.65 2.67-1.214 4.063-1.658zm-6.125 2.783H494.06c1.113.46 2.176.99 3.156 1.657H387.998c.802-.59 1.642-1.147 2.5-1.657zm-4.313 3.094h54c-1.662.53-3.335.83-3.72.97-.665.243-1.387.488-2.123.687h-49.907c.563-.572 1.143-1.13 1.75-1.656zm57.875 0h54.906c.14.147.274.28.407.438.326.386.617.81.906 1.22H449.9c-.725-.198-1.466-.42-2.125-.658-.39-.14-2.05-.47-3.72-1zm-61.156 3.344h42.688c-.045.24-.063.53-.063.97 0 .217-.015.442-.034.656H381.62c.406-.564.836-1.092 1.28-1.625zm75.78 0h42.69c.32.54.607 1.07.905 1.626h-43.44c-.02-.214-.064-.44-.064-.656 0-.44-.047-.73-.095-.97zm-24.718 1.5c2.598-.016 5.114 1.067 7.563 1.876 3.74 2.206 10.12-.8 11.903 4.53-.48 2.57 1.156 4.655 3.75 4.314 4.42-.156 10.54-1.543 12.75 3.844 1.85 2.77-.39 5.102-1.187 7.53 3.156-.39 6.57 2.71 5.406 6.25.244 2.39-3.85 2.85-3 4.845 4.764 2.96 4.045 9.35 3.844 14.373-.474 15.013-.435 30.047-.438 45.093-1.057 17.365-.33 34.9-1.876 52.22h20.094c-.08.555-.213 1.107-.345 1.655h-19.936c-.036.368-.056.73-.094 1.095h19.75c-.174.564-.364 1.114-.594 1.656h-19.344c-.053.48-.097.96-.156 1.44h18.78c-.31.57-.62 1.13-.998 1.654h-17.97c-.026.198-.067.396-.093.594-1.14.5-2.34.87-3.532 1.093h20.187c-.6.608-1.26 1.18-1.97 1.657h-89.655c-.51-.555-1.042-1.106-1.562-1.657h4.22c-.772-.367-1.478-.918-2.127-1.688h-3.56c-.432-.522-.826-1.082-1.188-1.656h4.5c-.034-.48-.062-.96-.094-1.44h-5.063c-.023-.55-.04-1.102-.06-1.655h4.97c-.025-.365-.01-.726-.033-1.093h-5c-.022-.55-.04-1.102-.062-1.655h4.937c-.034-.55-.06-1.105-.094-1.656h-4.906c-.022-.55-.07-1.11-.094-1.657h4.94c-.028-.488-.068-.984-.095-1.47h-4.875c-.02-.553-.072-1.073-.094-1.625h4.875c-.018-.376-.04-.75-.06-1.126h-4.845c-.02-.554-.01-1.105-.03-1.657h4.812c-.028-.554-.068-1.105-.094-1.658h-4.813l-.06-1.625h4.78c-.023-.487-.04-.98-.063-1.468h-4.78c-.02-.554.018-1.106 0-1.658h4.718c-.015-.367-.048-.728-.063-1.094h-4.717c-.02-.554-.044-1.136-.063-1.69h4.72c-.016-.393-.017-.76-.032-1.155h-4.72c-.017-.547-.075-1.11-.093-1.655h4.75c-.017-.49-.015-.95-.03-1.44h-4.75c-.018-.55-.015-1.103-.032-1.655h4.72c-.013-.366-.022-.76-.033-1.125h-4.72c-.016-.548-.045-1.11-.06-1.656h4.718c-.016-.555-.046-1.104-.063-1.658h-4.72c-.015-.547-.045-1.108-.06-1.656h4.75c-.013-.486-.02-.98-.032-1.468h-4.75c-.016-.552-.016-1.103-.03-1.656h4.748c-.007-.366-.02-.727-.03-1.094h-4.75c-.015-.547-.016-1.077-.03-1.625h4.75c-.013-.562-.052-1.125-.063-1.687h-4.75c-.014-.548-.018-1.078-.032-1.625h4.75c-.01-.487-.022-.98-.03-1.47h-4.75c-.015-.55-.05-1.102-.063-1.654h4.78c-.006-.365.007-.727 0-1.093h-4.78c-.014-.552-.018-1.104-.032-1.656h4.813c-.01-.553-.024-1.102-.03-1.655h-4.845l-.03-1.688h4.844c-.006-.487-.025-.95-.03-1.437h-4.845c-.013-.554-.05-1.105-.063-1.658H395c-.004-.356.005-.737 0-1.093h-4.905c-.012-.555-.02-1.106-.032-1.66h4.906c-.008-.55.003-1.102 0-1.655h-4.908l-.03-1.656h4.905c-.005-.487.005-.984 0-1.47H390c-.01-.55-.05-1.104-.062-1.656h4.97c-.003-.366.002-.73 0-1.095h-4.97l-.03-1.656h4.968c-.004-.554.004-1.104 0-1.656h-4.938c.06-.6.064-1.164-.062-1.658h4.97c-.005-.488 0-.98-.002-1.468h-5.998c-.33-.212-.713-.36-1.22-.438-1.784-.557-3.613-.92-5.437-1.187h12.654c0-.368.004-.73.002-1.095H356.28c-.443-.06-.873-.175-1.313-.25-.14.062-.3.182-.438.25H328.65c-.217-.54-.393-1.094-.563-1.656 22.244-.003 44.507 0 66.75 0-.003-.565-.027-1.126-.03-1.69H327.62c-.125-.543-.18-1.106-.28-1.655h67.467c-.003-.487.002-.95 0-1.437h-67.75c-.088-.55-.17-1.11-.25-1.657 22.652 0 45.315.002 67.97 0-.004-.374 0-.75 0-1.124h-68.127c-.055-.548-.1-1.097-.125-1.657h68.25c-.004-.554-.03-1.103-.033-1.656h-68.25c.005-.548.026-1.11.062-1.658h68.187c-.003-.478-.03-.96-.03-1.437H326.68c.065-.55.154-1.11.25-1.656 22.595-.003 45.19 0 67.78 0 .003-.02.003-.045.003-.064.062-.346.088-.708.125-1.06-22.562 0-45.124.03-67.687.03.126-.558.276-1.11.44-1.656 22.46-.003 44.916.003 67.375 0 .005-.543 0-1.105-.032-1.657h-66.78c.215-.56.454-1.12.718-1.655h31.313c1.605.42 3.22.684 4.906.75 3.002-.11 5.897-.36 8.876.157-.458-.33-.953-.618-1.438-.906h22.25c-.05-.486-.13-.98-.19-1.47h-24.78c-1.087-.536-2.205-1.032-3.25-1.624h27.875c-.046-.376-.114-.75-.156-1.125h-29.47c-.678-.484-1.296-1.032-1.876-1.655h31.22c-.045-.557-.08-1.137-.094-1.687H360.43c-5.045-2.31-11.204-.064-16.625-.283-1.988.05-3.923-.432-5.626-1.343 18.627-.003 37.247-.03 55.874-.033.025-.48.085-.97.155-1.438h-58.15c-.58-.498-1.12-1.023-1.594-1.625h60.094c.114-.386.248-.75.406-1.125h-61.25c-.317-.52-.613-1.085-.843-1.656 20.995-.003 42.005 0 63 0 .215-.32.424-.63.687-.94.484-.218.84-.46 1.094-.718h-65.28c-.12-.545-.225-1.085-.283-1.625 21.926 0 43.83.003 65.754 0-.182-.29-.46-.594-.844-.905-.2-.19-.374-.39-.53-.593H332c-.01-.548.046-1.082.093-1.625 21.19-.002 42.37 0 63.562 0-.098-.367-.182-.75-.188-1.125h-63.28c.082-.55.182-1.082.312-1.625h63.25c.185-.596.473-1.165.842-1.687h-22.657c.01-.543.016-1.074.03-1.625h24.252c.648-.44 1.38-.765 2.156-.906-.088-.19-.176-.38-.28-.564H374.03c.023-.546.057-1.073.093-1.624h24.906c-.25-.37-.514-.737-.72-1.125h-24.096c.048-.547.06-1.14.125-1.687h23.376c-.038-.25-.075-.51-.063-.78.05-.304.14-.603.22-.876H374.59c.094-.55.225-1.082.345-1.625h23.625c.373-.61.846-1.097 1.375-1.5H375.31c.158-.558.334-1.084.53-1.626h29.877c.75-.025 1.5-.033 2.25 0h.625c.012.017.018.047.03.063 1.266.074 2.497.18 3.563.25 3.436.665 3.018-2.805 3.906-5.22-.83-.03-1.644-.094-2.434-.094-2.018 0-4.03-.087-5.72.032-.096.18-.19.347-.28.53h-29.5c.215-.3.417-.588.656-.875.11-.257.226-.495.345-.75h37.563c.036-.044.055-.113.093-.155 1.68-.588 3.48-.936 5.28-1.283h-42.185c.31-.566.618-1.113.97-1.656h44.436c-.1.403-.225.766-.405 1.125 2.73-.51 5.427-1.115 7.937-2.28.375-.052.753-.092 1.125-.095zm25.032 1.25h43.844c.29.556.61 1.106.906 1.657h-44.03c-.322-.498-.57-1.052-.72-1.656zm2.187 3.095h43.375c.33.56.69 1.09 1.063 1.625H475.28c-.11-.2-.193-.403-.282-.594-1.34-.016-2.78.03-4.25.03-2.24 0-4.724.324-7.094-.124-.833-.157-1.686-.432-2.47-.937zM350.03 140.17c.762-.015 1.524.054 2.28.22h-4.156c.616-.126 1.246-.205 1.875-.22zm184.03.095c.472-.004.96.046 1.438.125h-2.72c.432-.07.843-.12 1.282-.125zm-189.968 1.812h11.812c.752.498 1.424 1.028 2.094 1.625H342.06c.61-.618 1.3-1.148 2.03-1.625zm33 0h29.843c-.06.163-.102.307-.156.47.225.347.413.687.81 1.155h-31.31c.24-.556.516-1.093.81-1.625zm99.437 0h30.153c.32.534.63 1.068.938 1.625h-30.84c.148-.222.217-.42.374-.875-.212-.295-.427-.548-.625-.75zm51.966 0h11.03c.843.492 1.636 1.032 2.407 1.625H526.28c.693-.6 1.448-1.146 2.218-1.625zm-187.375 2.75h18.03c.52.53 1.046 1.058 1.533 1.625h-20.687c.105-.142.177-.266.28-.406.245-.42.546-.83.845-1.22zm134.72 0h32.374c.278.542.564 1.068.813 1.625h-34.095c.21-.612.545-1.15.906-1.625zm49.25 0h18.22c.582.52 1.123 1.052 1.656 1.625h-21.313c.456-.557.91-1.092 1.438-1.625zm-50.406 3.094h34.906c.21.55.4 1.1.565 1.66H475.09c-.252-.407-.436-.89-.436-1.438 0-.073.03-.145.03-.22zm47.813 0h23.718c.427.537.833 1.094 1.22 1.66h-26.188c.408-.56.837-1.118 1.25-1.657zm-183.594.034h23c.436.545.882 1.072 1.313 1.625h-25.47c.377-.557.773-1.087 1.157-1.626zm-2.25 3.282h27.813c.437.556.922 1.147 1.375 1.687h-30.156c.32-.556.625-1.143.97-1.686zm140.875 0c11.022-.002 22.037 0 33.06 0 .114.552.226 1.132.28 1.687h-30.03c-.05-.34-.113-.71-.187-1.03-1.35-.12-1.586-.235-2.75-.53-.132-.035-.244-.09-.374-.126zm42.467 0h28.5c.313.536.597 1.13.875 1.687-10.197.002-20.367 0-30.563 0 .422-.544.78-1.13 1.187-1.686zm-184.97 2.812h31.75c.51.566 1.077 1.104 1.626 1.625h-34.187c.26-.55.523-1.083.813-1.624zm145.032 0h30.874c.015.55-.005 1.076-.06 1.625h-32.5c.313-.326.65-.66 1.03-.936.254-.22.436-.45.656-.688zm37.843 0h32c.24.536.512 1.045.72 1.594-11.388 0-22.803.03-34.19.03.51-.524 1-1.054 1.47-1.623zm-40.563 3.063c11.1-.002 22.215 0 33.314 0-.125.556-.285 1.107-.5 1.656h-33.155v-.063c-.01-.562.13-1.103.344-1.593zm37.564 0h36.22c.17.54.3 1.108.437 1.656h-39.03c.845-.474 1.635-1.035 2.374-1.656zm-181.312.03h36.503c.35.268.723.508 1.094.75.356.166.92.577 1.47.876h-39.688c.178-.55.406-1.084.625-1.625zm143.91 3.28h74.436c.103.548.182 1.11.25 1.658-24.405.002-48.813-.002-73.218 0-.557-.405-1.085-.958-1.47-1.656zm2.843 2.783h71.97c.045.545.055 1.083.032 1.625-23.694.003-47.4-.002-71.094 0-.004-.206 0-.417 0-.625v-.562c-.43-.115-.677-.263-.907-.437zm.938 3.094h70.905c-.086.556-.19 1.116-.343 1.656-23.494.003-46.975-.002-70.47 0-.02-.547-.078-1.1-.093-1.656zm.155 3.313c23.284-.004 46.53 0 69.813 0-.242.564-.53 1.095-.844 1.623-22.98.002-45.958-.003-68.938 0-.018-.542-.008-1.074-.03-1.625zm.063 2.78h68.156c-.426.58-.892 1.12-1.406 1.624-22.238.002-44.482-.003-66.72 0v-.094c0-.5-.018-1.02-.03-1.53zm.03 3.06h64.938c-1.105.746-2.352 1.315-3.687 1.658h-.314c-4.544-1.42-9.612-2.075-14.313-.626-.73.173-1.46.377-2.156.625h-44.5c.01-.546.03-1.098.03-1.658zm-147.874 3.345h11.344c1.437.48 2.87 1.058 4.28 1.656H331.81c.57-.595 1.17-1.15 1.844-1.654zm147.813 0h40.78c-.984.52-1.917 1.076-2.874 1.656h-38.03c.047-.546.102-1.1.127-1.654zm57.375 0h12.656c.76.446 1.446 1.016 2.062 1.656h-18.906c1.364-.63 2.768-1.2 4.188-1.654zm-57.594 2.75h36.312c-.895.556-1.785 1.12-2.687 1.656h-33.84c.09-.55.157-1.1.218-1.654zm51.156 0h22.094c.38.518.706 1.08 1 1.656h-26c.963-.57 1.906-1.126 2.906-1.654zm-201.563.03h21.002c1.303.57 2.588 1.11 3.906 1.626h-26.095c.35-.57.775-1.1 1.188-1.623zm150.033 3.095h31.375c-.39.202-.76.41-1.158.595 2.878-.01 5.755-.35 8.627-.594h36.405c.19.54.353 1.1.468 1.66-25.256.002-50.522-.003-75.78 0-.007-.54.023-1.097.063-1.657zm.03 3.314h75.938c.21.54.424 1.068.596 1.625-25.463 0-50.942-.006-76.406 0-.055-.54-.082-1.055-.125-1.628zm.25 2.75c25.54-.002 51.055 0 76.595 0 .14.542.27 1.073.374 1.625-25.628 0-51.248-.006-76.875 0-.016-.518-.04-1.056-.095-1.628zm.126 3.093h77.092c.067.547.096 1.108.125 1.657-25.738.002-51.482 0-77.22 0-.005-.544.007-1.102 0-1.657zm0 3.313h77.25c-.016.547-.07 1.11-.127 1.656-25.718.003-51.44-.002-77.156 0 .024-.537.03-1.096.03-1.656zm-.096 2.75h77.063c-.09.55-.145 1.145-.282 1.687-25.652.003-51.346-.002-77 0 .015-.096.047-.216.063-.312.072-.44.113-.91.154-1.375zm-.375 3.125h76.75c-.157.546-.36 1.11-.563 1.656-25.425.006-50.857 0-76.282 0 .012-.54.048-1.1.094-1.653zm-.095 3.344h75.594c-.26.554-.568 1.084-.876 1.622-9.485 0-18.952.03-28.437.03-3.183-.437-6.374-.325-9.594 0H480.81c-.03-.547-.08-1.09-.094-1.655zm-151.562 2.75h23.375c-.857.52-1.714 1.062-2.564 1.622H330.15c-.36-.525-.717-1.057-1-1.625zm151.72 0h28.124c-4.725.65-9.484 1.113-14.188.403-.003.407.002.81 0 1.22h-13.876c-.025-.543-.03-1.07-.062-1.626zm50.874 0h23.062c-.38.573-.813 1.1-1.25 1.622h-18.75c-.973-.662-1.968-1.222-3.063-1.625zM331.31 212.2h16.344c-.618.367-1.232.725-1.875 1.032-.38.226-.79.432-1.19.625h-11.31c-.69-.425-1.327-.96-1.908-1.595-.018-.02-.045-.044-.063-.063zm149.688 0h13.78c-.004.553.006 1.104 0 1.657H481V212.2zm55.844 0h15.343c-.672.627-1.383 1.19-2.156 1.657h-10.784c-.828-.5-1.613-1.07-2.407-1.658zm-55.844 3.313h13.75c-.006.552-.025 1.104-.03 1.656h-13.72v-1.657zm0 2.75h13.72c-.01.552-.025 1.104-.033 1.656h-13.687v-1.657zm0 3.125h13.687c-.01.552.01 1.104 0 1.656h-13.72c.014-.4.033-.8.033-1.22v-.436zm-.094 3.312h13.72c-.01.553-.02 1.104-.033 1.657h-13.78c.03-.564.067-1.116.096-1.658zm-.125 2.75h13.81l-.03 1.657h-13.846c.004-.58.043-1.13.063-1.658zm-.128 3.094h13.844c-.013.553-.018 1.135-.03 1.688h-14.033c.078-.584.165-1.165.22-1.688zm-.406 3.344h14.156c-.014.552.015 1.104 0 1.656h-14.25c0-.58.048-1.125.094-1.656zm-.094 2.75h14.22c-.016.552-.048 1.104-.064 1.656H480.15c.004-.414 0-1.47 0-1.656zm0 3.125h14.094c-.016.547-.014 1.077-.03 1.625H480.12c.005-.71.027-1.054.03-1.625zm-.03 3.312h14.03c-.018.548-.014 1.078-.03 1.625h-14c.005-.84-.008-.828 0-1.625zm-.033 2.72h14l-.062 1.655h-13.94c.006-.568-.005-1.08 0-1.656zm-.03 3.124h13.905l-.062 1.655H480.06c.006-.513-.006-1.108 0-1.656zm-.03 3.312h13.81c-.017.462-.013.912-.03 1.375-.016.085-.05.194-.063.28h-13.72c.01-.484-.008-1.065 0-1.656zm-.064 2.78h13.625c-.073.553-.134 1.103-.187 1.657h-13.5c.013-.225.02-.565.03-.78.01-.18.024-.57.032-.876zm-.157 3.095h13.47c-.038.55-.043 1.104-.064 1.655h-13.47c.03-.545.036-1.14.063-1.656zm-.157 2.81h13.53c-.01.552-.06 1.137-.06 1.69H479.56l.094-1.69zm-.156 2.782h13.656c.003.55.024 1.103.03 1.656h-13.75c.035-.598.03-1.066.064-1.658zm-.156 3.124h13.844c.01.548.023 1.078.03 1.625H479.25c.032-.574.06-1.04.094-1.626zm-.187 3.282h14.063c.005.554.035 1.1.03 1.655H479.06c.03-.54.06-1.09.094-1.655zm-.156 2.78h14.22c-.012.55-.01 1.074-.033 1.625h-14.28c.025-.483.064-1.104.093-1.624zm-.156 3.094h14.25c-.036.55-.07 1.108-.124 1.657h-14.22c.026-.48.062-1.063.094-1.656zm-28.124 12.03c-1.548.153-3.105.328-4.657.47h11.75c-2.39-.23-4.778-.484-7.095-.47zm-52.938 3.22h86.56c-.493.203-.967.396-1.5.53.186.38.376.747.563 1.127h-84.37c-.367-.58-.81-1.128-1.25-1.656zm2 3.126h84.31c.276.547.566 1.106.844 1.655h-84.97c.038-.41.034-.866-.03-1.31-.05-.126-.102-.22-.156-.344zm-.19 3.31h86.22c.282.55.56 1.11.843 1.657h-87.97c.355-.53.68-1.082.908-1.656zm-1.687 2.75h89.345c.287.552.554 1.105.844 1.657-30.507 0-61.024.002-91.53 0 .434-.552.913-1.105 1.342-1.656zm-2.405 3.095h93.344c.29.55.586 1.108.875 1.658-31.694 0-63.4.002-95.094 0 .228-.575.53-1.126.876-1.655zm-1.656 3.314h96.75c.286.547.56 1.11.843 1.657h-98.47c.285-.55.59-1.11.877-1.656zm-1.438 2.75h99.593c.286.552.59 1.134.875 1.688h-26.34c-.193-.35-.37-.712-.563-1.062-.058.354-.138.708-.188 1.063h-46.75c.002-.55.01-1.135 0-1.687-.375.537-.77 1.124-1.097 1.688H391.56c.275-.552.565-1.14.844-1.687zm-1.53 3.125h26.28c-.282.544-.547 1.1-.813 1.656h-26.28c.265-.555.542-1.106.812-1.658zm28.124 0h46.625c-.062.55-.14 1.104-.187 1.656h-46.47c.02-.554.02-1.106.033-1.658zm48.312 0h26.28c.282.553.567 1.1.844 1.656h-26.25c-.29-.553-.58-1.11-.875-1.658zm-78.063 3.343h26.312c-.26.55-.516 1.11-.78 1.656h-26.25c.25-.547.46-1.11.717-1.657zm29.656 0h46.407c-.035.548-.07 1.108-.095 1.656H418.84c.013-.548.048-1.11.064-1.657zm50.19 0h26.156c.27.548.58 1.108.844 1.656h-26.187c-.278-.55-.53-1.11-.813-1.657zm-81.094 2.75h26.22c-.137.26-.268.525-.408.78-.21.29-.456.583-.657.876h-25.905c.246-.55.5-1.108.75-1.657zm30.844 0h46.344c-.016.548-.022 1.11-.03 1.656H418.84c-.012-.55-.004-1.108 0-1.657zm51.626 0h26.156c.26.548.496 1.108.75 1.656H471.28c-.268-.55-.54-1.11-.813-1.657zm-83.844 3.094h25.625c-.338.545-.658 1.096-.97 1.656H385.84c.24-.554.54-1.102.783-1.656zm32.28 0h46.25c-.004.552.002 1.104 0 1.656H419.03c-.055-.55-.097-1.105-.126-1.656zm53.063 0h26.063c.247.55.477 1.102.718 1.656h-26c-.26-.554-.516-1.105-.78-1.656zm-86.78 3.312h25.187c-.273.546-.53 1.1-.78 1.656h-25.127c.228-.546.487-1.11.72-1.658zm34.062 0h45.875v1.656h-45.72c-.035-.374-.063-.76-.093-1.126-.03-.178-.038-.356-.064-.533zm54.312 0h25.904c.232.55.464 1.102.688 1.656H474.31c-.25-.555-.495-1.105-.75-1.658zm-89.564 2.75h25.125c-.23.542-.473 1.106-.687 1.656H383.34c.222-.548.433-1.11.658-1.658zm35.53 0h45.595c-.003.547-.022 1.11-.03 1.656h-45.376c-.062-.55-.13-1.116-.187-1.658zm55.282 0h25.78c.216.546.42 1.107.626 1.656H475.56c-.24-.55-.505-1.11-.75-1.658zm-92.063 3.124h25.125c-.2.55-.378 1.103-.563 1.657H382.12c.215-.55.405-1.1.625-1.656zm37.125 0h45.22c-.017.554-.04 1.103-.064 1.657h-45c-.055-.556-.096-1.103-.157-1.656zm56.28 0h25.626c.197.55.373 1.104.562 1.657h-25.47c-.234-.553-.48-1.104-.718-1.656zm34.5.157c.296-.01.61-.004.907 0 2.192.04 4.365.566 6.343 1.5h-13.22c1.862-.904 3.9-1.42 5.97-1.5zm-137.687.094c.293-.01.583-.005.875 0 2.12.032 4.213.507 6.095 1.407h-12.937c1.86-.823 3.917-1.323 5.97-1.406zm-8.78 3.063h42.593c-.172.55-.34 1.074-.5 1.625H362.37c.55-.604 1.157-1.13 1.813-1.624zm55.968 0h44.907c.002.564-.08 1.084-.188 1.625h-44.59c-.026-.545-.085-1.08-.126-1.624zm57.407 0h43.155c.617.494 1.16 1.017 1.657 1.625h-44.126c-.228-.553-.456-1.072-.688-1.624zm-116.095 2.75h44.532c-.008.027-.024.035-.03.062-.153.516-.312 1.07-.47 1.593h-45c.28-.577.604-1.14.97-1.656zm58.844 0h44.28c-.154.554-.306 1.105-.468 1.656H420.31c.018-.55.01-1.1 0-1.656zm58.405 0h44.47c.336.524.625 1.087.875 1.656H479.37c-.22-.55-.433-1.106-.656-1.656zM359.9 340.23h45.124c-.177.553-.373 1.133-.563 1.688h-44.93c.042-.334.078-.7.155-1.03.058-.22.15-.443.22-.656zm60.312 0h43.53c-.107.54-.192 1.128-.187 1.688h-43.53c.084-.544.14-1.13.186-1.686zm59.718 0h44.656c.16.543.3 1.13.376 1.688-14.786.002-29.557 0-44.343 0-.214-.55-.47-1.135-.69-1.686zm-120.5 3.344h44.438c-.205.553-.4 1.11-.625 1.657H359.68c-.106-.54-.23-1.104-.25-1.656zm60.25 0h44.22c.2.597.453 1.143.78 1.657h-45.5c.196-.537.36-1.102.5-1.656zm61.53 0h43.845c-.007.554-.034 1.107-.126 1.657h-43.09c-.206-.55-.416-1.104-.624-1.656zm-121.28 2.75h42.813c-.245.557-.48 1.115-.75 1.657H360.56c-.26-.53-.452-1.092-.625-1.656zm58.813 0h46.78c.506.587 1.078 1.14 1.688 1.657h-49.37c.337-.534.652-1.096.908-1.656zm63.53 0h42.376c-.127.444-.25.882-.44 1.313-.09.11-.186.235-.28.344H482.87c-.2-.55-.39-1.107-.594-1.656zM361.43 349.45h39.78c-.315.563-.647 1.12-.998 1.656H362.81c-.524-.504-.962-1.06-1.375-1.658zm55.344 0h52.28c.725.546 1.428 1.09 2.125 1.656h-56.09c.644-.466 1.214-.994 1.69-1.658zm66.624 0h39.125c-.592.58-1.2 1.132-1.845 1.656H483.99c-.194-.554-.395-1.105-.593-1.658zm-10.375 3.28c.217.23.398.474.593.72.292.3.57.61.812.937H410.12c.647-.648 1.436-1.145 2.25-1.625 20.216 0 40.44-.03 60.656-.03zm11.53 0H518.4c-.88.587-1.754 1.148-2.687 1.657H486.06c-.525-.5-1.036-1.038-1.5-1.625-.004-.01.004-.022 0-.03zm-119.406.03h33.876c-.45.578-.903 1.1-1.407 1.627h-29.25c-.83-.408-1.67-.795-2.47-1.25-.26-.11-.5-.245-.75-.375zm5.657 2.75h25.656c-.68.6-1.407 1.13-2.187 1.627H375.43c-1.575-.463-3.11-.99-4.624-1.625zm38.438 0h65.875c.284.534.542 1.053.72 1.627h-67.345c.102-.273.244-.544.375-.813.114-.3.222-.553.375-.812zm78.125 0h26.156c-1.296.613-2.612 1.133-3.938 1.627H490.03c-.938-.464-1.817-.984-2.657-1.625zm-104.56 3.1h7.813c-2.596.278-5.22.27-7.813 0zm25.25 0h68.094c.086.545.123 1.1.126 1.656H443.93c-.444-.645-.916-1.244-1.562-1.438-.774.418-1.516.913-2.22 1.438h-32.25c.008-.554.046-1.1.157-1.656zm86.063 0h10.594c-3.48.72-7.163.795-10.594 0zm-86.063 3.31h30.094c-.6.538-1.134 1.098-1.72 1.658h-28c-.18-.54-.283-1.098-.373-1.656zm37.22 0h30.874c-.074.56-.162 1.113-.312 1.658h-28.685c-.58-.505-1.14-1.01-1.688-1.53-.056-.037-.133-.085-.187-.126zm-36.407 2.783h26.375c-.588.56-1.175 1.125-1.78 1.657h-23.69c-.344-.53-.647-1.09-.905-1.66zm39.594 0h27c-.214.57-.458 1.127-.75 1.657H450.65c-.75-.53-1.477-1.086-2.187-1.66zm-37.594 3.094h20.812c-.86.633-1.81 1.194-2.78 1.656H412.56c-.61-.502-1.172-1.06-1.687-1.656zm41.937 0h20.97c-.463.61-.99 1.163-1.563 1.656h-16.282c-1.057-.493-2.12-1.045-3.125-1.656zm-37.72 3.313h10.47c-2.165 1.075-4.596 1.706-7.03 1.123-1.178-.192-2.35-.578-3.438-1.125zm45.44 0h8.968c-.71.275-1.456.473-2.25.56-2.295.21-4.543-.015-6.72-.56zm-109.126.25c1.52-.026.694 1.615.907 3.06h9.625c-.172-2.745 2.75-4.43 2.094 0h10.092c-1.174-3.81 2.77-3.706 1.687 0h10.062c-1.174-3.81 2.77-3.706 1.687 0h107.72c-1.176-3.81 2.77-3.706 1.686 0h10.093c-1.175-3.81 2.77-3.706 1.687 0h10.062c-1.174-3.81 2.77-3.706 1.687 0h10.06c-1.173-3.81 2.77-3.706 1.688 0h9.343c2.12.45 6.58-1.445 5.47 2.25H342.124c-2.12-.45-6.61 1.445-5.5-2.25h8.937c2.608-.054 6.275.953 5.063-2.937.324-.077.564-.122.78-.125zm118.47 11.81c3.528-.07 13.68 1.9 4.56 2.625-6.95-.972-13.993 1.083-21.092 0-7.94 1.616-16.03-.045-24.03-.22-6.23 1.3-13.2-.66-19.78.5-2.772-.35-15.156 1.443-11.125-1.967 8.598.07 17.14-1.07 25.72-.033 7.385-1.687 15.674.96 23.53.313 7.1-1.39 14.535.545 21.594-1.156.17-.024.39-.058.624-.063zm22.625.313c6.165 3.136-9.375 2.116-11.688 2.312-3.754-3.457 8.686-1.63 11.688-2.312zm-128.063 4.656c2.228.103 1.508 1.98 1.625 2.904 1.338.83 9.856-2.15 13.97 0 5.06 2.148-2.393 2.55-4.876 1.406-5.95-1.587-7.21 3.234-11.28 3.408-.652-5.875-8.315.092-13.22-2.814-4.69 4.065-9.62-2.26-14.312-.094-3.567-3.525 7.52-3.117 9.503-.625 3.5-2.836 8.563.767 12.22-1.28 4.7.677 3.78-1.44 6.375-2.907zm140.938.22c3.162.53.607 3.21.78 4.59-3.284 3.032-2.05-2.44-5.155-1.406-7.84.558-15.403 1.026-23.313.25-6.662-1.836 5.68-3.034 8.5-1.625 6.235-.696 14.134.284 19.188-1.81zm6.25.903c4.007 1.174 9.83.56 14.594.906 7.43-1.117 14.497-.165 21.5-.22 6.026.12 2.466 4.303-1.688 1.783-6.73-.07-13.736-.14-20.877.562-4.07-.784-18.007 1.268-13.53-3.03zm-47.813.75c2.66.2 5.734.33 8.156.97-.056 3.804-9.665-.405-13.406 1.842-7.162-.28-14.036.23-21.187.5-5.158-1.386-14.91.698-17.5-2.28 6.65-2.195 15 1.07 22.375.155 7.095-1.387 14.506.515 21.562-1.186zm-67.562.344c.65-.015 1.215-.01 1.594 0 3.49-.064 6.82.857 10.342.467 3.648-1.646 11.606 1.972 4.563 2.063-8.163.33-16.234-.866-24.375.094-6.36-1.863 3.324-2.532 7.875-2.624zm103.594 6.374c2.366-.026 1.724 1.936 1.81 2.876 1.336.83 9.86-2.16 13.97 0 5.195 2.225-2.355 2.4-4.907 1.374-5.963-1.583-7.2 3.237-11.28 3.407-.646-5.864-8.284.076-13.188-2.813-4.695 4.062-9.645-2.2-14.344-.03-3.573-3.52 7.56-3.13 9.53-.626 3.5-2.83 8.56.727 12.22-1.31 4.583.597 3.843-1.236 6.19-2.876zm-118.658.188c.795-.054 1.433.406 1.72.844 6.97-.078 14.747 1.9 22.124.5 5.622-1.65 8.53 3.386 1.436 1.97-7.86 1.804-15.27-.673-23.157-.095.525 5.68-7.29-1.98-2.126-3.22zm-6.28.906c2.327.127 1.845 2.373-.032 2.657-7.314-.16-14.863 1.1-22.125-.25-5.895-1.153-13.238 2.217-17.53-.25 4.902-2.283 13.012-1.867 19.53-1.562 6.59.434 14.29.566 20.156-.593zm46.062.625c.57-.005 1.085.057 1.53.157 2.18.31 4.386.702 6.657.75 7.535-.67 14.79.722 22.345.374 3.76-.124 16.436-2.807 14.53 1.188-9.134-.217-18.282 2.125-27.343.313-7.1 1.078-14.174-1.006-21.125-.03-6.634-.367-.597-2.71 3.406-2.75zm110.843.5c.652-.013 1.214-.008 1.594 0 3.494-.063 6.82.83 10.345.44 3.637-1.64 11.593 1.99 4.562 2.092-8.166.318-16.198-.902-24.343.062-6.378-1.86 3.287-2.5 7.843-2.594zm-167.375 5.782c2.206.11 1.533 1.95 1.625 2.875 1.304.857 9.853-2.163 13.97 0 5.044 2.147-2.398 2.55-4.876 1.405-5.955-1.59-7.21 3.26-11.28 3.437-.64-5.87-8.28.05-13.19-2.844-4.69 4.06-9.65-2.23-14.342-.064-3.57-3.522 7.524-3.12 9.503-.625 3.497-2.83 8.56.76 12.22-1.28 4.694.677 3.78-1.438 6.375-2.906zm56.844.218c.79-.052 1.447.368 1.717.814 6.97-.07 14.806 1.917 22.187.53 5.624-1.654 8.5 3.385 1.406 1.97-7.858 1.81-15.298-.646-23.186-.063.52 5.686-7.29-2.024-2.125-3.25zm90.342.876c4.01 1.17 9.827.554 14.594.907 7.425-1.112 14.497-.164 21.5-.22 6.023.123 2.468 4.3-1.688 1.782-6.726-.07-13.736-.137-20.876.563-4.07-.79-17.99 1.274-13.53-3.033zm-50.563.72c.58-.012 1.107-.027 1.562.062 5.452 1.21 11.07.615 16.625.56 8.26 1.714 16.665-.41 25-.25 6.93 1.186-2.423 3.07-5.53 2.19-7.49 1.36-15.175.6-22.658.186-6.23 1.23-12.3-1.5-18.407-.094-6.7-.39-.645-2.58 3.406-2.656zm-64.813.405c.65-.01 1.214-.006 1.594 0 3.49-.06 6.82.86 10.344.47 3.644-1.645 11.594 1.937 4.563 2.03-8.163.33-16.234-.833-24.375.127-6.378-1.858 3.32-2.532 7.875-2.625zm47.28 7.19c2.21.11 1.516 1.95 1.626 2.875 1.335.83 9.86-2.16 13.97 0 5.132 2.235-2.376 2.42-4.908 1.406-5.956-1.58-7.208 3.2-11.28 3.377-.648-5.86-8.28.078-13.188-2.812-4.694 4.06-9.648-2.198-14.344-.032-3.57-3.522 7.553-3.12 9.53-.625 3.497-2.83 8.562.727 12.22-1.312 4.694.677 3.78-1.406 6.375-2.875zm-62.343.22c.794-.055 1.432.374 1.72.81 6.97-.073 14.743 1.89 22.123.5 5.623-1.654 8.532 3.385 1.437 1.97-7.86 1.805-15.27-.64-23.157-.063.06.648-.026 1.08-.156 1.407l-2.406-.22c-1.38-1.315-2.302-3.75.438-4.405zm-6.28.874c2.326.126 1.844 2.372-.033 2.656-7.314-.16-14.863 1.1-22.125-.25-5.895-1.155-13.238 2.215-17.53-.25 4.902-2.285 13.012-1.87 19.53-1.564 6.59.433 14.29.565 20.156-.593zm168 .78c1.19-.008 2.36.146 3.53.282 4.947-.93 6.652 3.565.593 2.188-6.588-.695-13.305 1.2-20.032.156-8.364 1.734-16.846-.29-25.28-.22-6.226 1.41-13.596-.914-20.22.563-3.02.517-15.77-.157-7.874-2.22 8.476.232 16.83-.904 25.28.157 6.963-1.868 14.99 1.07 22.44.25 7.095-1.396 14.507.552 21.563-1.155" opacity=".5" fill="#6adf5f"/><path d="M481.256 163.79c-3.123.3-6.313 1.054-9.506 2.11-.537.485-.895 1-.59 1.715 4.764 2.96 4.026 9.35 3.825 14.372-.474 15.014-.42 30.038-.422 45.084-1.057 17.368-.338 34.91-1.884 52.23h20.106c-.08.558-.205 1.11-.338 1.66h-19.94l-.113 1.098h19.77c-.173.564-.388 1.118-.618 1.66h-19.32l-.17 1.434h18.787c-.312.57-.637 1.136-1.013 1.66h-17.97c-.028.197-.06.393-.085.59-1.14.5-2.325.845-3.517 1.07h20.167c-.6.607-1.26 1.18-1.97 1.658-22.225.002-44.456.002-66.685 0 .066.242.13.46.198.704.036.134.075.262.112.395h64.265c-.494.2-.986.396-1.52.533.186.38.376.746.564 1.125h-62.8c.153.488.315.985.48 1.462h63.027c.275.55.563 1.11.843 1.66h-63.28c.21.56.426 1.114.647 1.66h63.507c.282.548.558 1.11.843 1.66H423.01c.164.37.336.73.506 1.095h63.732c.287.554.553 1.11.843 1.66h-63.784c.244.49.506.96.76 1.435h63.786l.874 1.66h-63.76c.32.565.653 1.11.985 1.66h63.646c.286.546.56 1.11.844 1.66h-63.48c.233.364.466.737.703 1.096H492c.286.552.59 1.106.873 1.66H466.52c-.192-.35-.37-.69-.564-1.04-.057.354-.118.685-.168 1.04h-36c.345.495.69.98 1.04 1.462h34.79c-.062.55-.12 1.108-.168 1.66h-33.412c.426.564.863 1.11 1.293 1.66h31.98c-.032.548-.06 1.11-.083 1.658h-30.57c.298.37.6.732.9 1.097H465.2c-.018.547-.02 1.112-.03 1.66h-28.265c.407.49.806.953 1.21 1.434h27.027c-.004.554.003 1.11 0 1.66h-25.65c.468.557.925 1.112 1.38 1.66h24.243v1.66H442.25c.29.357.588.74.87 1.096h21.995c-.004.548-.02 1.113-.028 1.66H444.5c.448.51.92.995 1.377 1.46h19.21c-.015.556-.032 1.108-.056 1.66h-17.38c.668.596 1.345 1.146 2.025 1.66h15.383c.004.564-.087 1.09-.196 1.633H452.01c.642.397 1.29.782 1.94 1.124 3.55 0 7.107-.002 10.658 0-.155.552-.316 1.08-.477 1.63h-6.5c1.726.638 3.474 1.102 5.206 1.463h.9l-.03.168c.828.155 1.654.315 2.476.423 4.876.645 9.71.618 14.346.844-.19-.478-.402-.956-.59-1.433h31.05c1.5-.46 2.988-.95 4.47-1.462h-36.082c-.22-.55-.424-1.082-.648-1.63 13.773 0 27.544-.002 41.316 0 5.908-2.133 11.61-4.24 16.82-5.204 9.078-1.68 16.807-12.358 22.753-24.975 5.946-12.62 10.115-27.326 11.362-38.955 2.637-24.59-.263-49.933-11.39-70.2-.438-.795-.89-1.58-1.35-2.333-25.654.003-51.298 0-76.95 0-.007-.543.004-1.103 0-1.66 25.302.002 50.606 0 75.91 0-.334-.505-.7-.976-1.04-1.462-24.973.002-49.928 0-74.9 0-.015-.514-.06-1.06-.113-1.63 24.613-.003 49.218 0 73.83 0-.29-.38-.577-.76-.874-1.126-24.35 0-48.718-.003-73.068 0-.054-.54-.098-1.06-.14-1.633h71.83c-.5-.57-1.004-1.12-1.518-1.657-23.46 0-46.94-.004-70.397 0-.01-.543.015-1.1.055-1.66h31.387c-.388.2-.756.404-1.152.59 2.876-.01 5.735-.35 8.606-.59h29.84c-.522-.5-1.067-.99-1.602-1.464h-18.45c.962-.573 1.925-1.13 2.925-1.66h13.554c-.475-.378-.954-.738-1.435-1.097h-9.87c1.36-.63 2.77-1.205 4.19-1.66h3.345c-1.546-1.03-3.13-1.954-4.725-2.81-3.106-.468-6.3-.43-9.337.505-.73.175-1.442.4-2.138.648H481.51c.01-.545.025-1.1.028-1.66h54.956c-1-.515-2-1.006-3.01-1.462H481.54v-.085c0-.5-.015-1.01-.028-1.52h48.178c-1.094-.42-2.196-.783-3.29-1.15-14.97-.002-29.944-.002-44.916 0-.02-.542-.033-1.08-.057-1.632h39.657c-2.32-.633-4.587-1.175-6.807-1.66H481.37c-.022-.546-.07-1.102-.085-1.658h23.12c-4.495-.225-8.478.326-11.673-1.294-.084-.04-.168-.06-.253-.085-.088-.03-.17-.055-.257-.083h-10.968c-.003-.205 0-.41 0-.618v-.423zm.198 14.99h40.81c-.986.52-1.94 1.08-2.898 1.66H481.34c.046-.548.09-1.103.115-1.66zm-.198 2.757h36.31c-.895.557-1.798 1.123-2.7 1.66H481.03c.093-.552.165-1.105.226-1.66zm.03 15.61h77.23c-.013.547-.056 1.114-.112 1.66-25.718 0-51.43-.003-77.147 0 .025-.538.025-1.1.028-1.66zm-.113 2.757c25.692-.003 51.397 0 77.09 0-.09.548-.174 1.116-.31 1.658-25.653.003-51.324-.002-76.978 0 .015-.096.04-.214.056-.31.077-.44.1-.885.145-1.35zm-.367 3.12h76.754c-.156.547-.36 1.085-.562 1.632-25.425.003-50.85 0-76.275 0 .01-.54.037-1.075.084-1.63zm-.083 3.32h75.6c-.26.557-.565 1.093-.873 1.63-9.485 0-18.977.028-28.462.028-3.183-.436-6.37-.325-9.59 0h-36.592c-.03-.547-.068-1.095-.083-1.66zm.14 2.756h28.125c-4.725.652-9.472 1.13-14.175.42-.003.408.002.803 0 1.21h-13.865c-.025-.54-.052-1.073-.085-1.63zm50.878 0h23.066c-.38.576-.8 1.106-1.238 1.63h-18.76c-.97-.66-1.97-1.226-3.065-1.63zm-50.734 3.094h13.78c-.004.552.006 1.107 0 1.658h-13.78v-1.658zm55.827 0h15.358c-.672.626-1.392 1.193-2.164 1.658H539.25c-.826-.5-1.625-1.072-2.418-1.66zm-55.826 3.318h13.752c-.007.553-.02 1.108-.028 1.66h-13.725v-1.66zm0 2.756h13.725c-.007.553-.02 1.108-.03 1.66h-13.695v-1.66zm0 3.122H494.7l-.027 1.66h-13.698c.013-.4.03-.82.03-1.238v-.422zm-.113 3.32c4.58-.002 9.148-.002 13.727-.002-.01.553-.017 1.108-.03 1.66h-13.78c.03-.56.056-1.117.086-1.66zm-.11 2.727h13.808c-.01.553-.016 1.108-.027 1.66h-13.837c.002-.577.036-1.134.056-1.66zm-.113 3.123h13.838c-.013.55-.015 1.106-.03 1.658h-14.033c.078-.583.17-1.136.226-1.658zm-.422 3.317h14.175c-.015.553-.015 1.108-.03 1.66h-14.23c0-.58.04-1.13.084-1.66zm-.084 2.756h14.203c-.015.553-.04 1.108-.057 1.66h-14.15c.003-.413 0-1.475 0-1.66zm0 3.123h14.09c-.016.547-.01 1.084-.027 1.63H480.13c.006-.71.026-1.06.03-1.63zm-.03 3.32h14.036c-.018.546-.04 1.082-.057 1.63h-13.98c.01-.84-.005-.835.002-1.63zm-.026 2.726h13.977c-.017.553-.035 1.108-.055 1.66h-13.92c.003-.57-.008-1.084 0-1.66zm-.03 3.123h13.895c-.02.548-.037 1.11-.057 1.658H480.05c.006-.513.02-1.11.027-1.658zm-.055 3.318h13.81c-.02.463-.01.915-.03 1.38-.015.084-.04.193-.056.28H480.02c.01-.485-.01-1.067 0-1.66zm-.057 2.757h13.64c-.074.552-.144 1.105-.196 1.658-4.498.002-9.004 0-13.5 0 .01-.225.015-.542.027-.758.01-.182.02-.594.028-.9zm-.14 3.122h13.47c-.035.55-.063 1.08-.083 1.63H479.74c.03-.545.056-1.116.085-1.63zm-.17 2.813h13.53c-.013.55-.055 1.106-.058 1.658H479.57c.032-.585.053-1.092.084-1.658zm-.14 2.755h13.64c.004.552.02 1.107.03 1.66H479.43c.033-.597.05-1.068.084-1.66zm-.17 3.122h13.84c.01.548.02 1.084.027 1.63h-13.95c.033-.574.052-1.046.084-1.63zm-.195 3.29h14.063c.004.555.032 1.105.028 1.66h-14.174c.03-.54.052-1.094.085-1.66zm-.14 2.785h14.203c-.01.55-.006 1.08-.028 1.63-4.754.002-9.533.002-14.288.002.026-.487.084-1.115.113-1.635zm-.17 3.094h14.26c-.035.55-.087 1.114-.14 1.66h-14.203c.025-.48.05-1.063.084-1.66zm-28.124 12.04c-1.546.15-3.09.307-4.64.45H457.8c-2.39-.23-4.77-.465-7.087-.45zm16.594 24.694h26.296c.28.554.566 1.104.844 1.66h-26.27c-.29-.552-.576-1.11-.87-1.66zm1.77 3.32h26.184c.27.547.552 1.11.816 1.658h-26.186c-.278-.55-.534-1.112-.815-1.66zm1.378 2.755h26.156c.26.546.506 1.11.76 1.66h-26.1c-.27-.55-.544-1.114-.817-1.66zm1.518 3.093h26.044c.247.552.49 1.106.73 1.66h-25.987c-.26-.553-.523-1.108-.788-1.66zm1.575 3.32h25.93c.236.55.455 1.106.678 1.66H474.31c-.252-.555-.505-1.11-.76-1.66zm1.268 2.756h25.79c.216.545.413 1.11.62 1.66H475.55c-.244-.55-.487-1.113-.73-1.66zm1.35 3.12h25.622c.2.55.373 1.11.56 1.66h-25.48c-.235-.55-.464-1.107-.702-1.66zm34.482.17c.294-.01.603-.006.9 0 2.19.04 4.38.555 6.355 1.49h-13.22c1.86-.905 3.895-1.41 5.964-1.49zm-33.076 3.15h43.144c.616.493 1.16 1.024 1.658 1.632H478.25l-.676-1.633zm6.13 7.51c1.732.144 3.416.352 5.064.674 5.233 1.025 10.636.534 16.03-.674h-21.093" fill="#6adf5f"/><path d="M286.52.02c-1.877-.004-3.73.452-5.372 1.405-3.843 1.655-6.794 4.795-9.704 7.594-4.05-3.01-8.94-6.136-14.315-5.178-6.638 1.025-10.208 8.163-9.48 14.372.185 1.47.7 3.88-1.577 3.486-6.163.744-9.155 7.226-10.125 12.63-1.39 6.663.33 14.57 6.02 18.788.367 2.062-2.508 2.12-3.573 3.486-4.41 4.3-6.494 10.48-7.735 16.37-2.303 12.278 1.872 25.46 10.744 34.226 2.436 3.07 3.636 6.865 4.612 10.604-1.11 2.02-3.076-.662-4.782-.45-5.87-.402-9.93 5.598-10.04 10.996-.258 4.21 1.25 8.782 4.865 11.223.51 1.922-1.926 2.877-2.475 4.612-5 8.67-1.515 21.65 8.016 25.707.81 1.936-1.51 3.445-2.053 5.26-2.452 5.383-5.107 11.01-5.343 16.986-.06 6.434 4.703 13.832 11.812 13.22 1.355-.336 3.748-.854 3.065 1.49-1.524 29.674 2.565 59.196 5.795 88.62-1.043 1.552-2.818-.283-4.388.282-7.543.57-11.774 9.31-10.267 16.117 1.178 5.97 3.508 11.81 6.78 17.014-.207 2.084-2.847 1.107-4.22 1.97-11.507 3.743-15.166 20.287-7.17 28.97.91.94 2.975 2.437 1.153 3.57-6.035 5.907-4.683 18.385 3.852 21.12 1.473.785 3.29.07 4.555.9-.365 3.548-2.37 7.098-4.808 9.79-12.348 12.69-13.863 34.46-3.01 48.46 1.183 1.566 3.352 2.18 4.528 3.46.312 1.75-2.31 2.39-2.925 3.993-5.106 7.177-4.288 17.592.703 24.637 1.857 2.67 5.124 3.653 8.072 4.162-.036 3.945-.567 8.24 1.603 11.785 2.69 5.47 9.75 7.196 15.047 4.752 2.737-.83 4.74-2.99 7.2-4.22 3.777 4.06 8.505 8.25 14.232 8.972 5.665.713 10.585-3.8 11.952-9.056.27-1.923 2.192-1.084 3.093-.113 13.08 8.75 31.9 6.88 43.116-4.08 2.25-2.49 5.128-4.51 8.35-5.624 2.13.824-.277 3.037-.11 4.64-1.017 4.8 3.025 8.56 6.946 10.463 4.583 2.408 10.545 2.75 14.792-.534 2.13-1.11 3.714-2.81 5.456-4.333 3.806 2.603 8.354 4.317 13.05 3.6 7.303-.705 13.97-6.417 15.02-13.864 1.722-1.367 3.216 1.28 4.5 2.25 4.813 5.412 12.78 9.342 19.967 6.806 4.548-1.486 7.035-6.773 6.244-11.28.606-2.398 4.085-.745 5.962-1.237 1.413.17 4.746-.778 4.303 1.52-.72 3.747.927 8.186 4.106 10.32 5.997 3.046 13.167 1.08 18.225-2.81 2.7-1.75 4.697-4.25 7.144-6.274 2.12.02 1.324 2.79 2.28 4.105 3.706 9.99 17.71 13.922 26.154 7.313 1.667.004 2.01 2.335 3.77 2.42 2.236 1.447 4.43 3.39 7.282 3.656 5.3.74 10.96-1.316 14.794-5.006 2.444-2.944 2.8-7.383.93-10.715.625-2.32 3.24-.048 4.61.477 4.286 2.516 7.126 6.863 11.7 9.03 11.61 6.82 27.186 6.18 37.998-1.97 2.093.098 1.672 2.86 2.785 4.22 2.528 5.54 9.73 7.735 14.962 4.865 3.89-1.674 7.07-4.676 9.87-7.68 2.253.63 4.066 3.04 6.5 3.798 5.196 2.67 12.44 1.578 15.495-3.797 2.445-3.587 2.153-8.078 1.94-12.206 1.42-1.01 3.798-.606 5.344-1.885 5.218-3.47 6.72-10.306 6.89-16.17-.033-5.287-2.045-10.755-6.412-13.95-.37-2.06 2.493-2.114 3.543-3.49 4.247-4.09 6.273-10.016 7.567-15.58 2.618-12.505-1.49-26.1-10.604-35.07-1.895-2.422-3.088-5.316-3.938-8.242.817-1.8 3.365-.884 4.782-2.165 5.768-3.032 8.838-11.457 4.36-16.792-.573-1.542-2.658-2.932-2.054-4.556 8.736-6.022 9.09-19.855 1.885-27.28-2.814-2.997-6.91-4.83-11.054-4.867-1.547-1.555.913-3.464 1.15-5.23 1.18-3.533 2.963-6.854 4.276-10.295 1.452-6.155.32-14.194-5.71-17.55-2.28-1.386-5.025-.65-7.425-1.32.01-6.564 1.106-13.25 1.52-19.858 2.075-23.357 3.603-46.834 2.392-70.284 1.268-1.334 3.276.467 5.006-.113 7.547-.634 11.924-9.346 10.32-16.228-.978-6.375-4.14-12.116-7.313-17.69.407-1.975 3.01-1.73 4.275-3.066 9.065-6.1 10.372-20.93 2.193-28.21-.498-1.644 1.877-2.546 2.392-4.105 1.886-3.23 3.522-7.778 1.04-11.08-1.13-4.016-4.36-7.88-8.803-7.904-1.234-.267-3.645 1.19-3.46-.983 1.123-4.807 3.77-9.044 7.256-12.46 10.474-12.865 11.18-32.906.958-46.124-1.187-1.58-3.364-2.178-4.528-3.487-.24-1.746 2.36-2.378 2.98-3.994 5.105-7.17 4.23-17.53-.702-24.61-1.885-2.645-5.117-3.65-8.1-4.133.013-3.838.607-8.017-1.407-11.504-2.52-5.493-9.487-7.544-14.85-5.232-2.885.838-5.077 3.04-7.59 4.388-3.735-3.995-8.217-8.114-13.81-8.915-.624-.07-1.26-.096-1.886-.056-5.363.02-9.398 4.508-10.603 9.45-1.2 2.02-3.08-.79-4.583-1.267-13.033-7.66-30.78-5.432-41.568 5.063-2.108 2.324-4.688 4.21-7.623 5.344-2.093-.69-.158-3.15-.843-4.753-.44-4.477-4.225-7.49-8.27-8.69-3.415-1.312-7.494-2.624-10.772-.34-2.657 1.06-5.1 2.71-7.367 4.36-4.374-3.602-10.364-5.275-15.92-3.684-7.64 1.685-13.487 9.16-12.908 16.988-1.577 1.75-3.13-1.336-4.67-1.91-5.174-3.95-12.06-6.148-18.42-4.416-4.806 1.71-8.114 7.094-7.06 12.122-1.444 2.07-4.69.483-6.89.985-1.512-.12-5.15.75-4.416-1.772 1.097-5.982-4.38-12.12-10.463-11.785-6.803-.76-13.005 3.013-18.028 7.144-2.273-.12-.91-3.067-1.66-4.556-1.768-9.937-13.478-15.89-22.725-12.43-2.334.658-4.166 2.356-6.16 3.543-1.568-1.426-3.07-3.405-5.37-3.712-2.683-1.837-5.995-2.94-9.143-1.687-5.21 1.212-11.57 4.26-11.95 10.294-.436 1.45 1.34 3.67-.62 4.246-5.412-1.887-8.434-7.222-13.387-9.815-11.693-7.247-27.78-6.767-38.757 1.575-2.098-.097-1.638-2.842-2.757-4.19-1.75-3.9-5.91-6.097-10.04-6.103zm.028 4.3c4.362-.236 7.004 3.967 7.734 7.764.942 1.972-.044 5.463 2.53 6.243 2.732.483 2.808-3.216 4.698-4.33 11.12-8.702 28.24-7.837 38.67 1.603 4.095 4.706 9.81 7.6 15.808 8.944 6.662 1.4 13.218 4.188 20.08 3.908 2.43-.945.938-3.922 1.35-5.82.262-6.538 5.19-13.263 12.123-13.445 6.826-.528 13.76 4.85 13.925 11.897.21 2.96-.932 5.906-3.01 7.96-1.222 1.153-1.554 3.55.31 4.246 9.5.546 19.093.104 28.63.254 18.856-.06 37.75.123 56.588-.085 2.145-.645 1.713-3.528.03-4.5-5.144-5.617-2.49-15.588 4.444-18.397 5.69-3.05 13.476-1.04 16.594 4.725 2.194 3.47 2.56 7.693 2.25 11.67.81 2.63 4.234 1.28 6.16 1.24 6.69-1.27 13.384-3.06 19.83-5.007 4.722-1.454 8.51-4.73 11.95-8.184 10.634-9.04 27.734-9.583 38.504-.564 1.46 1.306 1.896 4.75 4.5 3.825 2.244-1.126 1.285-4.247 2.25-6.187.746-3.65 3.145-7.835 7.426-7.763 4.35.167 8.043 3.255 10.883 6.33 1.316 1.555 2.856 5.532 5.485 3.43 3.626-3.5 8.795-7.53 14.12-5.596 4.733 2.346 5.113 8.414 4.16 12.994-.53 1.663-1.237 4.624 1.21 5.063 1.85-.12 3.804-1.196 5.68-.196 4.045 2.038 4.94 7.147 5.486 11.22.688 6.16-2.85 12.534-8.717 14.74-2.17.814-1.358 4.207.9 4.247 3.717 1.187 7.558 3.107 9.112 6.947 7.216 12.875 4.75 30.358-5.908 40.612-6.032 7.455-6.502 17.47-9.03 26.38-.307 2.64-1.19 5.48-.562 8.1 1.36 2.246 4.328.345 6.357 1.096 6.595.586 12.27 6.475 12.094 13.19.235 6.53-4.43 13.676-11.42 13.95-4.356.315-8.17-2.62-10.262-6.215-1.556-1.65-4.36.336-3.488 2.364 7.13 34.09 6.564 69.225 3.487 103.753-2.103 25.607-5.15 51.264-5.175 76.95.426 2.204 3.896 2.02 4.19-.112 1.244-6.12 7.947-10.964 14.09-8.66 9.575 3.2 11.665 18.097 3.375 23.848-3.345 2.65-7.77 3.167-11.87 2.814-2.697.844-1.214 4.29-1.265 6.272.326 3.915 2.1 7.64 1.913 11.588.352 1.79 1.752 3.178 1.8 5.146 1.273 5.7 3.873 11.095 8.1 15.132 9.606 11.39 10.465 29.638 1.21 41.456-2.28 2.444-5.973 2.608-8.494 4.5-1.23 1.575.304 3.522 1.997 3.798 6.428 2.905 8.87 10.79 7.088 17.27-.778 3.78-2.863 8.79-7.48 8.576-1.496-.237-3.53-1.45-4.614.31-.95 2.058.69 4.346.506 6.525.614 4.304-1.015 9.933-5.765 10.996-5.355.806-9.702-3.23-13.442-6.41-2.567-1.01-3.422 2.526-4.867 3.826-2.797 3.02-6.44 6.07-10.714 6.3-3.904.156-6.562-3.293-7.34-6.778-1.007-2.103-.402-4.83-1.828-6.694-1.512-1.378-3.567.037-3.967 1.743-2.58 4.012-7.547 5.66-11.867 7.114-11.14 3.14-23.67-.736-31.332-9.336-7.052-6.214-16.914-6.83-25.592-9.45-2.59-.355-5.748-1.345-8.157.085-1.576 1.634-.035 4.157-.757 6.13-.653 6.56-6.177 12.84-13.135 12.404-6.58-.04-12.808-5.448-12.825-12.207.037-1.795 1.133-4.798-1.49-5.315-25.678.03-51.4-.115-77.063.084-2.003.49-1.598 2.853-1.268 4.36.486 6.663-5.2 12.517-11.7 13.02-6.27.92-12.16-3.79-13.67-9.758-.966-2.23-.334-4.77-.983-7.003-1.45-2.145-4.65-.713-6.78-1.21-4.74-.67-9.153 1.612-13.725 2.445-6.054 1.373-11.948 4.048-16.088 8.832-10.19 9.496-26.927 10.695-38.25 2.503-2.1-.986-2.308-3.69-4.163-4.81-2.112-.852-3.355 1.637-3.207 3.432-.78 3.976-2.037 9.437-6.777 10.237-4.283.873-8.087-2.256-11.053-4.95-1.892-1.37-2.43-4.21-4.585-5.147-2.352-.352-3.41 2.536-5.316 3.403-3.318 2.51-8.607 4.924-12.263 1.773-4.373-3.8-3.055-10.254-2.194-15.19-.186-2.11-2.857-2.295-4.305-1.32-4.196.763-6.895-3.44-7.706-7.004-2.265-6.54-.485-14.957 5.99-18.394 1.52-.537 3.863-1.758 2.924-3.77-1.16-2.013-4.136-1.747-5.907-3.037-4.84-2.2-6.503-7.843-8.07-12.488-3.33-11.8.232-25.194 9.055-33.724 5.822-7.413 6.3-17.317 8.802-26.1.322-2.636 1.162-5.458.535-8.07-1.36-2.24-4.308-.358-6.33-1.126-6.572-.646-12.303-6.46-12.12-13.19-.26-6.7 4.68-14.034 11.87-13.98 5.723-.15 10.09 5.01 11.136 10.24 1.096 2.103 4.495.77 3.993-1.492-.458-47.968-12.576-95.39-8.72-143.465 1-12.752 3.46-25.425 7.088-37.66.1-2.274-3.348-2.944-4.136-.815-2.706 5.127-9.71 7.382-14.71 4.19-8.15-4.713-8.922-18.442-.618-23.428 3.245-2.257 7.333-2.605 11.137-2.28 2.746-.796 1.29-4.26 1.32-6.242-1.06-6.574-2.844-13.105-4.526-19.574-1.305-5.113-4.386-9.448-7.988-13.19-8.965-11.433-9.557-29.04-.535-40.585 2.303-2.343 5.813-2.674 8.44-4.36 1.39-1.523-.128-3.7-1.913-3.937-6.397-2.95-8.927-10.796-7.143-17.297.796-3.685 2.713-8.593 7.228-8.55 1.62.018 3.725 1.537 4.894-.337 1.03-2.136-.81-4.607-.535-6.92-.592-4.32 1.41-9.994 6.273-10.66 5.24-.53 9.31 3.474 12.993 6.527 2.593.897 3.337-2.562 4.81-3.88 2.724-2.978 6.45-5.978 10.603-6.33zm233.015 3.855c3.554.486 7.91 1.486 9.366 5.315 1.696 4.054-2.024 8.552-6.19 8.664-2.924.538-5.878 1.99-8.86 1.63-.63-3.294-.86-6.838-2.67-9.844.15-1.783 2.632-2.41 3.71-3.77 1.34-1.048 2.863-2.038 4.64-1.995zM365.888 8.4c3.787.066 7.54 2.24 9.76 5.175-1.628 3.117-2.296 6.59-2.7 10.012-2.245.887-5.03-.723-7.425-1.068-2.446-.81-5.685-.58-6.694-3.49-1.858-2.095-3.094-6.05-.115-7.76 2.256-1.256 4.43-2.95 7.17-2.87zm-85.36 10.546c-4.17.606-5.39 5.81-4.64 9.338-1.125 1.83-3.17-.205-4.838-.057-6.152-.967-13.955-.275-17.38 5.654-3.33 6.338.403 14.796 6.974 17.16 1.025 2.16-2.455 2.243-3.544 3.487-4.485 2.212-6.572 8.47-3.32 12.544 1.538 2.485 4.442 3.815 5.993 6.187-1.505 3.16-5.684 3.39-8.69 4.106-1.815.034-5.056.83-4.333 3.292.955 2.753 4.65 1.517 6.75 1.152 4.07-1.08 9.212-2.505 10.913-6.806 1.035-3.702-2.15-6.655-4.92-8.522-2.21-1.422-3.83-4.99-1.183-6.834 3.61-3.357 8.68-4.798 13.444-5.4 1.163.522 2.003-.972 2.84.225-.354.546.66-.26 1.52-.253 2.106-.945 1.274-4.668-1.07-4.84-.94-1.19-2.505-1.997-3.994-1.264-4.616-.15-10.575-.54-13.106-5.035-1.77-3.3-1.035-8.387 3.01-9.562 4.944-1.934 10.714-.784 15.244 1.66 2.794 1.894 4.032 5.22 6.02 7.734 1.07 1.954 4.256 1.426 4.582-.79-.402-2.562-2.785-4.385-3.683-6.834-1.358-3.386-3.705-7.27-2.223-10.968 1.693-.95 3.41 1.346 4.894 2.192 3.15 2.335 5.5 5.648 8.522 8.044 2.208.67 4.158-2.564 2.138-4.05-3.58-4.29-7.833-8.29-12.854-10.913-.952-.383-1.996-.72-3.065-.645zm325.097 0c-5.852 1.15-9.957 6.136-14.118 10.04-1.37 1.22-3.17 3.874-.928 5.204 2.49 1.61 3.93-1.835 5.51-3.12 2.635-2.764 5.497-5.363 8.887-7.174 2.318.66 1.204 3.87.927 5.654-1.044 4.16-3.59 7.617-5.57 11.306-1.155 2.01 1.27 4.09 3.15 2.954 2.807-1.944 3.5-5.84 6.273-7.96 3.4-2.68 8.047-3.384 12.29-3.263 3.508.218 7.798 2.238 7.65 6.328.233 3.552-2.072 6.822-5.456 7.875-3.623 1.53-7.654 1.067-11.42 1.435-1.226 1.252-3.65 1.975-3.373 4.133.097 1.3 1.334 2.414 2.673 2.14.16-.604 1.75-.344 2.813-.34 3.058-.006 5.933 1.464 8.803 2.392 2.425 1.24 5.86 2.76 6.104 5.822-.58 4.768-7.382 5.587-7.623 10.603-.535 4.425 4.484 6.74 7.93 7.987 2.93.57 6.367 2.47 9.198.73 1.735-1.36.322-4.138-1.744-4.02-3.35-.507-7.113-1-9.9-3.095-1.593-2.025 1.417-3.468 2.617-4.556 3.493-2.773 5.874-8.036 2.953-12.09-1.63-2.84-5.03-4.024-7.34-5.794-.264-1.706 2.34-1.722 3.29-2.87 5.94-4.033 7.16-14.277.955-18.702-5.293-3.486-12.38-3.267-18.198-1.406-2.067-.844-.283-3.583-1.182-5.287-.502-2.48-2.35-5.177-5.175-4.923zm-178.2.9c3.993.12 4.847 4.828 6.244 7.706.853 2.77-3.3 1.394-4.868 1.717h-17.747c-1.75-1.845 1.996-3.067 3.01-4.36 3.237-2.785 7.293-4.58 11.558-4.81.585-.17 1.19-.255 1.8-.256zm31.332.225c4.058.054 8.248.776 11.587 3.294 1.95 1.478 4.378 2.915 5.654 4.865-.845 2.157-4.565.524-6.58 1.04H453.13c-1.59-1.342.55-3.154.787-4.725.818-2.088 2.31-4.463 4.837-4.473zM305.082 39.73c-2.152.355-2.124 3.206-1.265 4.726.04 3.98-1.97 7.923-4.698 10.66-2.71.606-5.47-.387-7.99-.985-2.167.83-4.415-2.91-6.103-.42-1.552 3.247 1.258 7.41-1.126 10.407-2.463 1.89-5.896.69-8.72 1.38-2.076-.36-5.724.632-4.89 3.4 1.392 8.884.412 17.915.955 26.86 1.567 111.876 1.764 223.77 3.177 335.645-.707 2.14 1.812 4.618 3.77 3.12 2.922-.16 5.918.277 8.774.51 3.3 2.147.782 6.55 2.11 9.533.844 1.413 2.958 1.02 3.57-.45.99-1.612 2.897-1.787 4.5-1.294 4.103.268 8.512-.904 12.375.73 2.164 2.847-.28 6.33-.392 9.42-.478 1.998-1.245 5.774 1.517 6.36 28.407.06 56.87-.516 85.22 1.687 30.113 1.144 60.24.222 90.365.48 23.46-.238 46.918-.938 70.37-1.408 8.505-.566 17.15-.383 25.593-1.238 1.997-.52 2.022-2.753 1.406-4.33-.524-3.64-2.04-7.796-.31-11.25 3.11-.567 7.63-1.614 9.423 1.8 1.526 1.18 3.917-.644 3.177-2.504-.15-2.522-.495-6.913 2.955-7.228 3.335-.685 7.07-1.567 10.21.196 3.18-.406 4.23-4.44 3.796-7.143 1.78-120.772 1.745-241.583 3.658-362.333-1.077-1.963-3.55-2.655-5.456-3.488-3.376-.608-6.73 1.852-9.984.674-3.002-2.615.412-7.046-1.716-9.9-1.39-1.49-3.255.334-3.91 1.688-2.082.67-4.624-.214-6.92.17-2.3-.16-5.26.483-7.03-1.125-1.02-4.39 2.78-9.1.085-13.164-1.848-2.464-4.863.013-7.117.056-27.74-.037-55.54-.432-83.22 1.688-30.404 1.07-60.828.236-91.24.45-22.93-.31-45.84-.948-68.765-1.435-7.485-.553-15.135-.204-22.528-1.235-.972-.87-2.43-.608-3.628-.704zm235.406 5.43c11.828.33 23.737-.148 35.522.28 2.783 1.975.433 5.34.507 7.96-2.314 3.262-6.975 1.382-10.294 1.63-16.538.08-33.13.05-49.67.874-16.597.973-33.205 1.68-49.837 1.602-24.603-.062-49.196-.082-73.8-.112-24.695-.323-49.396-.992-74.08-1.463-3.917-.36-8.22.54-11.786-1.32-1.57-2.803 1.325-5.403 1.49-8.183 1.56-2.23 4.696-.656 6.92-1.013 15.46.627 30.934 1.163 46.406 1.265 40.563 1.214 81.153.874 121.725.647 18.965-.756 37.91-2.304 56.9-2.166zM291.104 58.32c6.777 1.59 13.883.376 20.784 1.24 24.224 1.03 48.472.86 72.704 1.602 35.552.235 71.128.395 106.677-.112 24.032-1.175 48.065-2.558 72.14-2.053 10.22.098 20.526-.025 30.71.028 3.274 1.836 2.036 6.28.31 8.775-.057 2.187 2.497 3.96 1.35 6.27-1.906 120.854-1.87 241.71-3.627 362.56-1.333 3.336-5.69 2.287-8.494 2.222-27.208 1.653-54.516 1.272-81.76 2.167-36.017.342-72.04.374-108.057-.03-24.642-1.138-49.29-2.725-73.97-2.055-2.29.283-4.46-.897-6.607-1.012-2.032.886-4.213 1.537-6.413.927-4.55-.274-9.366.865-13.725-.617-.933-3.874-.55-8.293-.846-12.375-1.63-121.845-1.587-243.7-3.656-365.54.48-.888 1.358-1.976 2.474-2zm7.846 4.474c-2.976.482-2.235 4.396-2.11 6.525 2.155 121.495 1.683 243.06 3.827 364.553.767 2.02 3.842 1.857 4.696 0 6.592-1.974 13.656-.304 20.447-.9 23.285-.354 46.564.537 69.806 1.827 32.09.69 64.208.207 96.3.2 23.788-.555 47.604-.71 71.382-1.576 5.25-.19 10.802-1.06 15.89.252.792 1.73 3.366 2.33 4.612.62 1.01-2.5.046-5.577.45-8.24 1.645-120.57 1.72-241.16 3.516-361.716-.692-2.046-3.808-1.95-4.668-.084-5.05 1.81-10.563.093-15.807.675-25.16-.17-50.344-.044-75.46 1.69-31.07 1.024-62.18.214-93.26.42-24.33-.31-48.64-.89-72.955-1.52-6.857-.52-13.895-.02-20.644-1.066-1.824-.898-4.065-.762-5.88-1.658-.045.016-.1-.038-.14 0zm310.754 4.302c3.243.62 2.893 4.916 2.475 7.425-.89 57.447-1.39 115.024-1.8 172.52-.46 60.277-.86 120.548-1.775 180.818-1.418 3.336-5.67 1.48-8.325 2.644-2.262.998-4.487-1.105-4.22-3.403 1.014-61.43 1.32-122.886 1.83-184.33.44-57.286.88-114.567 1.828-171.846 1.814-3.42 6.715-3.11 9.984-3.824zM304.014 68.7c15.432.742 30.87 1.156 46.32 1.434 43.77 1.077 87.566 1.146 131.345.73 20.783-.54 41.542-2.154 62.35-2.08 12.494.348 25.004-.218 37.49.422 2.67 1.466 2.39 5.06 2.25 7.678-2.003 116.38-1.757 232.787-3.516 349.172-.95 3.653-5.59 3.335-8.52 2.953-26.11 1.485-52.277 1.233-78.413 1.994-34.26 0-68.546.683-102.797-.422-26.146-1.637-52.37-1.788-78.552-1.547-2.332-.207-5.506.322-7.116-1.602-.792-10.578-.895-21.18-.9-31.78-1.228-107.046-1.297-214.123-3.037-321.16-.594-2.382.488-5.293 3.093-5.795zm-23.795.844c1.76.098 4.872-.498 4.47 2.193.943 12.17.373 24.398.814 36.59 1.343 106.437 1.51 212.87 2.982 319.304-1.164 3.51-5.888 2.96-8.607 1.83-2.003-1.26-.583-4.47-1.125-6.523-.86-36.136-.857-72.31-1.293-108.45-.653-80.82-.992-161.627-2.39-242.44.58-2.134 3.297-2.45 5.146-2.502zm160.34 37.152c-37.916.48-71.92 17.168-95.458 43.426h-9.873c-.43 0-.847.2-1.15.505-.308.307-.48.693-.48 1.125V165c-13.748 20.656-21.77 45.426-21.77 72.056 0 26.63 8.023 51.405 21.77 72.056v56.73c0 .432.172.845.48 1.152.303.306.72.45 1.15.45h214.06c.433 0 .848-.144 1.153-.45.306-.307.45-.72.45-1.153v-56.726c13.743-20.65 21.77-45.427 21.77-72.056 0-26.63-8.026-51.402-21.77-72.056v-13.247c0-.43-.144-.818-.45-1.125-.305-.305-.72-.506-1.152-.505h-9.9c-23.88-26.642-58.556-43.426-97.143-43.426-.563 0-1.128-.007-1.688 0zm.054 3.263c.547-.01 1.083 0 1.632 0 36.292 0 69.062 15.23 92.22 39.682-.05-.002-.09-.003-.14 0-.414.018-.813.155-1.153.393-.04.028-.072.057-.112.085h-34.9c.383-.775.668-1.612.59-2.7-.058-.835-.462-1.697-1.012-2.334-.55-.636-1.215-1.12-1.996-1.547-.938-.51-1.783-.637-2.475-.648.37-1.354.716-2.748.308-4.36-.266-1.053-.98-2.114-1.94-2.84-.96-.727-2.112-1.165-3.543-1.492-3.625-.635-7.194.244-10.773-.28-.207-.32-.49-.766-.818-1.35-.216-.382-.44-.77-.704-1.18.004-.355.02-.754.056-1.18.186-2.1.15-4.97-1.434-7.85-2.9-5.267-9.735-7.22-14.99-7.817-.814-.093-1.594-.158-2.335-.254-.995-.13-2.193-.228-3.488-.255-7.2.2-14.294.067-21.488 0h-.03c-.48 0-.94-.008-1.406 0-1.29.027-2.496.097-3.488.225-.738.098-1.527.19-2.334.283-5.234.597-12.023 2.55-14.907 7.818-1.577 2.88-2.21 5.834-2.026 7.934.022.257.044.498.056.73-.822.718-1.63 1.517-2.39 2.532-.42.81-1.134.57-1.94.535-2.558-.094-5.123-.38-7.286.113-1.425.327-2.587.793-3.543 1.52s-1.65 1.762-1.912 2.812c-.405 1.608-.088 3.007.28 4.36-.687.013-1.518.138-2.446.646-.78.428-1.45.91-2 1.548-.545.637-.923 1.502-.982 2.334-.077 1.09.188 1.923.563 2.703h-34.87c-.04-.028-.072-.057-.112-.085-.36-.25-.77-.388-1.21-.393-.034-.002-.08.027-.113.027 22.814-24.084 54.95-39.26 90.592-39.71zm-10.012 8.463c2.826-.038 6.31.09 9.056.14 0 .006.76-.005.76 0 .425 2.26-.26 4.5-.058 6.75-1.425.452-3.975.7-5.4 1.154-2.305.84-5.89 1.49-8.353 1.49-1.747 0-3.486.65-4.417 1.94-.93 1.29-1.012 2.684-1.012 3.994 0 .807-.14.978-.252 1.097-.113.12-.416.326-1.07.45-1.31.25-4.564.056-7.087.057-.298 0-2.13.18-2.448.168 1.91-1.72 2.53-3.28 2.335-5.765-.21-2.368.454-4.203 1.125-5.43 1.546-2.823 7.19-5.12 11.588-5.624.76-.086 1.56-.144 2.39-.252.7-.09 1.69-.153 2.84-.17zm20.84 0c.77-.008 1.54-.01 2.25 0 1.16.015 2.137.077 2.84.17.834.107 1.654.165 2.42.25 4.422.504 10.09 2.805 11.644 5.626.672 1.225 1.025 3.06.815 5.43-.287 1.97.736 3.92 1.688 5.65-.32.013-1.5-.054-1.8-.054-2.536 0-5.516.193-6.835-.057-.66-.125-.955-.33-1.068-.45-.114-.12-.254-.294-.254-1.097 0-1.31-.104-2.705-1.04-3.994-.934-1.29-2.637-1.94-4.387-1.94-2.478 0-6.118-.65-8.437-1.49-1.384-.505-3.854-.71-5.15-1.156-.447-2.12-.192-4.518-.307-6.75 2.067-.038 5.312-.12 7.62-.14zM239.27 121.32c.12-.01.26 0 .393 0 2.998.174 5.725 1.994 8.072 3.6.566 3.362 2.18 6.757 1.77 10.155-3.252.606-6.707.99-9.617 2.87-1.942-.286-1.97-2.845-3.29-4.024-2.03-2.6-3.464-6.76-.648-9.362.98-1.22 1.523-3.05 3.32-3.235zm405.28.086c4.515.21 6.023 5.765 5.71 9.506-.268 2.538-1.118 5.708-3.6 6.835-2.84-1.545-6.078-2.185-9.197-2.588-.876-2.19.52-5.027.872-7.4.15-3.306 2.94-6.057 6.215-6.356zm-202.443 7.425c.49.25.997.424 1.49.59 1.806.62 3.766 1 4.19 1.157 2.957 1.074 6.777 1.744 9.93 1.744.937 0 .85.11.87.14.022.028.198.488.198 1.435 0 1.566.49 3.047 1.463 4.077.97 1.03 2.217 1.52 3.402 1.747 2.37.447 4.85.11 7.088.11 1.47 0 2.935-.043 4.275-.027.325.703.75 1.51 1.49 2.25.205.205.426.48.647.788-.252.73-.2.8-.787 1.38-.927.915-1.715 2.32-1.715 3.938 0 .818.418 1.488.87 1.968.1.104.183.198.282.282.095.078.19.166.28.223.62.4 1.215.576 1.83.733 1.163.296 1.405.414 2.756.534.055.238.102.507.14.76.04.248.085.5.113.758-.68.255-.996.87-1.52 1.322-1.37.997-2.42 2.338-2.39 3.966.024 1.627 1.073 2.74 2.05 3.43 1.007.71 1.074 1.215 2.194 1.52.003.19 0 .374 0 .562 0 3.388.282 6.634.282 9.703 0 3.325-.007 6.31-.507 9.31-.598 3.596.225 6.994.225 9.534 0 3.05.197 5.965-.225 8.49-.68 4.093-.025 7.78-.025 11.14v9.42c0 2.53-.28 4.64-.28 7.54 0 1.69-.564 3.696-.564 6.186 0 .093-.08 17.668-.223 20.363-.146 2.695-.34 6.156-.535 9.62-.193 3.46-.39 6.926-.533 9.645-.067 1.222-.1 2.18-.14 3.01h-.423c-3.165 0-6.244-.28-9.675-.28-3.69 0-8.556-.788-13.22-.564-1.555.077-3.087.3-4.556.62-6.06 1.327-17.298.845-17.298.845-.982.098-1.992.16-3.008.168-1.644.084-1.993.054-2.842-.085-3.476-.165-4.907-.417-7.762-.534-1.525-.097-3.056-.168-4.613-.168-2.893 0-6.61.147-9.475.225-.11-2.424-.308-5.72-.48-9.28-.278-5.81-.533-11.927-.533-13.08 0-3.572-.815-21.962-.815-24.805v-8.353c0-3.377-.252-6.76-.252-9.954v-9.675c0-3.592-.282-6.917-.282-10.237 0-3.44.283-6.832.283-10.49 0-3.466.04-6.986-.564-10.604-.382-2.297-.095-5.277 0-8.27 1.114-.304 1.135-.807 2.138-1.52.974-.69 2.027-1.807 2.053-3.43.026-1.622-1.024-2.967-2.39-3.966-.586-.427-.05-.687-.647-.955.026-.13.057-.235.085-.366.024-.115.06-.252.084-.366.084-.415.142-.8.225-1.21.988-.11.878-.255 1.744-.478.613-.157 1.18-.333 1.8-.73.09-.06.185-.148.28-.226.1-.082.212-.178.31-.28.453-.478.844-1.153.844-1.97 0-1.613-.766-3.022-1.688-3.937-.744-.74-.965-1.2-1.267-1.66.295-.903.677-1.808 1.154-2.7 1.69-.12 3.69-.03 5.71-.03 2.225 0 4.666.34 7.03-.11 1.18-.225 2.436-.714 3.404-1.745.966-1.03 1.46-2.512 1.46-4.077 0-.947.178-1.406.198-1.435.02-.028-.058-.14.872-.14 3.14 0 6.928-.696 9.87-1.772.42-.153 2.365-.505 4.164-1.125.494-.17.97-.335 1.462-.59zm-43.453 9.51c.625-.01 1.396.012 2.22.027-.706.88-1.18 1.975-1.18 3.32 0 .85.398 1.647.816 2.136.42.49.84.81 1.265 1.07-.197.965-.39 1.906-.59 2.87-.72.05-1.44.106-2.11.167-1.278.117-2.232.127-3.43.674-.377.173-.786.42-1.153.873-.153.187-.263.395-.367.647h-2.868c-.138-.295-.292-.582-.45-.872-.537-.98-.62-1.434-.647-1.406.087-.084.244-.242.675-.48-.042.023.65.012 1.857-.027.603-.02 1.652-.06 2.53-1.1.878-1.034.737-2.26.478-3.205-.473-1.732-.658-3.048-.562-3.432.05-.19.05-.222.31-.42.26-.2.846-.496 1.884-.732.218-.05.697-.102 1.322-.112zm87.13 0c.63.01 1.1.062 1.323.112 1.045.238 1.648.53 1.912.73.262.2.29.235.335.423.096.38-.114 1.673-.59 3.404-.26.945-.377 2.2.506 3.233.88 1.035 1.927 1.078 2.53 1.098 1.21.04 1.893.05 1.858.03.433.236.587.393.674.48-.027-.035-.108.425-.647 1.404-.16.29-.313.578-.45.873h-2.896c-.1-.25-.24-.46-.394-.647-.37-.45-.776-.7-1.154-.873-1.2-.544-2.146-.557-3.43-.675-.422-.037-.875-.05-1.322-.084-.133-.45-.273-.925-.393-1.406-.15-.6-.353-1.225-.59-1.856.287-.2.59-.434.87-.76.42-.488.816-1.28.816-2.135 0-1.347-.47-2.442-1.18-3.32.83-.014 1.59-.037 2.22-.027zm-57.46 14.316c-.315-.003-.592.055-.814.11-.885.227-1.447.603-1.49.62-.35.142-.656.365-.872.676-.525.738-1.196 1.638-1.098 3.178.05.77.528 1.755 1.294 2.278.766.524 1.6.675 2.504.675.75 0 1.54-.194 2.194-.73.655-.535 1-1.3 1.096-1.913.192-1.224-.133-2.104-.31-2.812-.165-.665-.693-1.483-1.46-1.828-.386-.172-.726-.252-1.043-.252zm26.045 0c-.255.023-.5.122-.79.252-.77.345-1.324 1.163-1.49 1.828-.178.708-.474 1.588-.28 2.812.093.613.412 1.378 1.07 1.913.652.536 1.47.73 2.22.73.9 0 1.736-.15 2.502-.674.766-.523 1.244-1.508 1.294-2.278.1-1.54-.574-2.44-1.098-3.177-.217-.31-.52-.533-.87-.676-.046-.016-.608-.392-1.493-.618-.22-.057-.5-.114-.815-.112-.08 0-.17-.008-.254 0zm-117.537.758h5.428c-1.885 2.25-3.693 4.545-5.427 6.92v-6.92zm9.815 0h1.912c.097.094.22.178.337.253.49.335.403.25.506.422.103.172.357.77.9 1.743.312.562.736 1.092 1.125 1.632-1.264-.182-2.643-.3-3.91-.393-.55-.04-1.042-.08-1.49-.085-.446-.004-.68-.062-1.433.17-.19.056-.458.102-.844.42-.385.318-.9 1.218-.786 2.026.112.808.508 1.177.73 1.378.222.204.397.29.535.367.552.303.93.38 1.575.563.26.074.705.176 1.012.253-1.353.142-2.433.212-3.516.56-.27.09-.57.167-.984.48-.416.312-1.1 1.226-.957 2.22.144.997.716 1.416 1.04 1.66.324.245.6.375.9.507 1.04.483 2.265.08 2.812-.93.455-.064.565-.105 1.153-.167 1.333-.14 2.93-.32 4.443-.563 1.512-.244 2.922-.515 4.217-1.237.108-.06.218-.11.34-.197.2.134.4.247.646.31.07.02.516.29 1.21.955.694.67 1.638 1.604 3.094 2.25 11.995 5.34 25.24 15.336 38.08 18.76-.077 2.034-.14 4.095-.14 6.245 0 .52-.01 1.01 0 1.52-.102.01-.207.056-.31.083-11.72 2.457-28.345-.813-42.58-.45-.7.02-1.402-.205-2.307-.506-.68-.227-1.525-.55-2.533-.59-.334-.016-.687.02-1.067.083-.258.03-.508.11-.732.223-.106-.636-.442-1.128-.7-1.433-.37-.434-.725-.697-1.1-.957-1.494-1.04-3.525-1.99-4.05-2.362-.745-.53-1.07-.83-1.686-1.238-.615-.41-1.49-.73-2.39-.872-.145-.023-.28-.034-.424-.028-1.115.05-2.02.966-2.08 2.08-.06 1.116.752 2.08 1.855 2.25.59.093.453.06.62.17.168.11.695.564 1.604 1.21.523.37 1.1.663 1.686.984-1.22.38-2.503.836-3.685 1.295-.51.2-.97.4-1.377.59-.36.17-.61.236-1.07.62v-29.53c3.005-4.46 6.287-8.71 9.816-12.743zm7.284 0H383.1c-.32.652-.312 1.393.057 2.025.395.677 1.128 1.08 1.912 1.07.27 0 1.402.023 2.56-.087.573-.053 1.17-.14 1.8-.336.31-.098.65-.218 1.04-.478.385-.26.88-.715 1.095-1.49.062-.233.128-.463.168-.705h3.178l.057.057c.905.897 2.008 1.465 3.205 2.108.425.23.863.46 1.294.675-.2 1.12-.372 2.268-.478 3.433-1.51.002-2.915.006-3.968-.17-1.306-.218-1.842-.535-2.165-1.125-.578-1.053-1.9-1.42-2.953-.843-1.054.578-1.45 1.9-.872 2.954 1.137 2.076 3.332 2.993 5.288 3.32 1.504.25 3.012.237 4.47.225-.015.34-.008.714-.026 1.067-.17.133-.354.27-.48.45.048-.065-.677.578-1.545.788-.87.21-1.79.188-2.618-.31-1.03-.62-2.363-.27-2.98.76-.62 1.03-.3 2.363.73 2.98 1.964 1.18 4.14 1.237 5.88.817.32-.076.6-.18.9-.28.04.773.123 1.564.25 2.334.51 3.06.508 6.227.507 9.62-11.218-3.365-24.094-12.74-36.42-18.225-.64-.284-1.17-.773-1.858-1.434-.688-.66-1.527-1.576-3.01-1.998-.21-.065-.427-.115-.647-.112-.047 0-.097.025-.142.03.183-.63.105-1.215 0-1.605-.144-.55-.364-.954-.59-1.35-.903-1.582-2.33-3.292-2.643-3.853-.065-.113-.115-.204-.17-.307zm135.59 0h3.235c.037.242.076.472.14.703.214.78.737 1.23 1.124 1.49.39.26.726.382 1.043.48.63.194 1.22.282 1.8.336 1.158.11 2.286.086 2.558.086.785.01 1.52-.393 1.914-1.07.37-.63.406-1.373.085-2.025h29.136c-.054.103-.106.194-.17.31-.312.56-1.74 2.27-2.643 3.853-.227.395-.418.8-.563 1.35-.103.39-.207.976-.028 1.604-.06-.004-.11-.032-.17-.03-.197.006-.4.055-.59.113-1.483.422-2.322 1.335-3.01 1.997-.687.66-1.244 1.15-1.883 1.434-12.16 5.41-24.837 14.603-35.945 18.083.317-2.79.31-5.48.31-8.213 0-1.2-.01-2.39-.058-3.57.28.09.542.18.844.25 1.74.42 3.914.336 5.88-.843.693-.385 1.13-1.117 1.124-1.91-.007-.796-.455-1.51-1.155-1.886-.7-.376-1.555-.35-2.22.084-.83.497-1.72.52-2.59.31-.87-.21-1.65-.853-1.603-.788-.135-.195-.292-.367-.477-.506-.005-.29 0-.556 0-.844v-.168c1.478.008 3.003 0 4.527-.254 1.962-.325 4.145-1.214 5.287-3.29.58-1.054.184-2.376-.87-2.954-1.053-.577-2.376-.21-2.953.844-.323.59-.85.907-2.164 1.125-1.055.176-2.458.172-3.967.17-.053-1.243-.087-2.44-.113-3.63.3-.153.604-.32.9-.478 1.204-.644 2.296-1.213 3.206-2.11l.054-.06zm46.407 0h1.912c3.53 4.033 6.813 8.283 9.816 12.742v29.502c-.45-.372-.71-.425-1.07-.59-.406-.19-.864-.392-1.38-.59-1.18-.46-2.463-.916-3.682-1.295.583-.32 1.19-.61 1.714-.984.91-.646 1.407-1.098 1.575-1.21.167-.11.06-.077.647-.168 1.157-.13 1.992-1.144 1.912-2.307-.08-1.162-1.058-2.057-2.223-2.025-.122.003-.244.004-.364.028-.904.14-1.75.464-2.363.872-.616.41-.942.707-1.688 1.238-.524.372-2.583 1.32-4.08 2.362-.373.26-.73.523-1.095.957-.26.305-.595.798-.704 1.433-.23-.116-.464-.196-.73-.223-.38-.065-.734-.1-1.07-.085-1.006.04-1.824.364-2.503.59-.905.3-1.607.524-2.306.505-14.237-.363-30.89 2.907-42.61.45-.01-.633-.03-1.25-.03-1.856 0-2.123-.292-4.2-.392-6.02 12.826-3.435 26.07-13.396 38.052-18.73 1.457-.65 2.43-1.584 3.123-2.25.693-.67 1.112-.94 1.18-.96.243-.06.448-.175.647-.306.123.087.26.137.366.196 1.296.72 2.706.993 4.22 1.236 1.514.244 3.083.423 4.415.563.59.06.7.102 1.155.17.545 1.01 1.798 1.41 2.84.925.298-.132.575-.262.9-.506.323-.245.866-.664 1.01-1.66.146-.995-.54-1.91-.955-2.22-.415-.314-.712-.39-.983-.48-1.084-.35-2.135-.42-3.488-.56.307-.08.752-.18 1.012-.255.644-.184.994-.26 1.545-.562.14-.077.312-.164.535-.367.222-.2.617-.57.73-1.377.114-.81-.4-1.71-.786-2.026-.387-.32-.655-.365-.844-.42-.756-.233-.96-.175-1.406-.17-.448.004-.97.044-1.52.084-1.264.09-2.615.21-3.88.39.388-.54.812-1.07 1.125-1.63.54-.974.795-1.57.9-1.744.1-.172-.015-.087.476-.422.115-.074.24-.16.337-.253zm6.3 0h5.43v6.947c-1.737-2.375-3.54-4.697-5.43-6.947zm-101.334 7.763c-.518.047-1.02.302-1.35.702-.332.4-.472.917-.423 1.434.06.743.17 4.194.254 7.313.04 1.56.084 3.046.11 4.19.028 1.145.03 2.135.03 1.997-.01.705.374 1.36.984 1.716.61.355 1.33.355 1.94 0 .61-.357.996-1.01.986-1.717 0-.324-.002-.932-.03-2.08-.027-1.15-.07-2.655-.112-4.22-.085-3.13-.19-6.342-.282-7.51-.033-.526-.3-1.007-.702-1.35-.35-.3-.783-.472-1.237-.477-.065 0-.103-.006-.168 0zm191.812 8.437c.142-.007.287.027.45.14 1.653 1.136 4.14.688 5.483 1.97 1.52 7.29 8.784 12.694 8.13 20.588-.673 1.843-.492 3.973-1.69 5.597-2.225 2.437-5.794 2.452-8.66 3.684-2.235-.85-.89-4.118-1.55-6.02-.713-8.423-1.725-16.78-3.175-25.114.247-.364.586-.823 1.012-.844zm-379.63.282c.284.138.554.282.842.42.137 2.846-1.194 5.857-1.548 8.805-1.412 7.166-2.312 14.38-2.896 21.656-1.484 1.39-3.19-.87-4.867-1.04-1.928-.655-4.41-.72-4.92-3.15-2.766-5.988.764-12.306 3.683-17.466 1.546-2.467 2.413-5.296 3.488-7.905 2.118-.17 4.317-.28 6.217-1.323zm80.52 1.35v131.68c-11.66-19.204-18.395-41.752-18.395-65.868 0-24.11 6.74-46.61 18.394-65.813zm217.293 0c11.656 19.2 18.395 41.703 18.395 65.812 0 24.11-6.74 46.666-18.394 65.87V171.243zm-129.487 6.468c-.76.007-1.456.46-1.77 1.153-.306.67-.203 1.452.252 2.025.014.035.22.316.394.59.233.37.542.865.9 1.38.717 1.03 1.543 2.206 2.84 3.037 5.234 3.357 11.787 6.074 18.62 6.074 5.74 0 11.88-2.456 16.564-5.708 2.244-1.557 3.888-3.95 5.035-5.287.47-.53.625-1.274.394-1.94-.232-.67-.822-1.17-1.52-1.296-.086-.015-.165-.024-.252-.028-.075-.003-.15-.005-.225 0-.524.038-1.007.285-1.35.703-1.355 1.58-2.974 3.69-4.303 4.613-4.1 2.845-9.777 5.033-14.344 5.033-5.766 0-11.72-2.385-16.51-5.456-.344-.22-1.136-1.127-1.74-1.998-.304-.436-.59-.85-.816-1.21-.228-.36-.27-.536-.62-.956-.375-.46-.952-.736-1.547-.73zM351.09 197.43c.07-.01.58.062 1.49.366.915.303 2.205.715 3.798.675 13.296-.34 29.77 3.085 42.92.477.056 1.438.113 2.87.113 4.304v9.676c0 3.43.28 6.817.28 9.956v8.355c0 3.572.79 21.963.79 24.806 0 1.718.284 7.465.564 13.276.198 4.09.35 7.574.45 9.9-.08.095-.133.2-.196.31-.398.676-.398 1.515 0 2.193.1.173.222.34.364.476.12.604.496 1.116 1.04 1.434.677.397 1.488.397 2.166 0 .364-.212.656-.505.843-.87 2.99-.074 6.79-.253 9.62-.253.67 0 1.346.03 2.026.057-3.328 6.765-8.766 16.765-13.977 26.83-6.085 11.75-11.865 23.453-13.67 30.995-.41 1.708-.937 3.364-1.605 4.894-.227.03-.557.084-1.152.03-1.47-.134-3.638-.656-5.823-1.295-2.183-.637-4.4-1.403-6.1-1.995-.85-.297-1.585-.545-2.14-.732-.275-.093-.49-.162-.7-.225-.11-.03-.23-.055-.366-.085-.138-.028-.094-.166-.9-.027-.432.06-.818.237-1.125.507-12.94-9.007-24.147-20.36-32.965-33.44V199.34c.265.19.506.26.675.31.29.086.49.102.647.112.63.037.998-.057 1.66-.168.268-.045.7-.163 1.013-.225-1.162.71-2.098 1.24-2.926 2.022-.207.196-.435.41-.675.87-.244.462-.45 1.583.11 2.42s1.205.987 1.602 1.068c.398.083.714.066 1.04.06 1.144-.02 2.08-.91 2.14-2.055.382-.256.476-.364.982-.675 1.144-.7 2.508-1.52 3.77-2.39 1.262-.87 2.43-1.688 3.29-2.896.068-.095.128-.214.197-.338.24.028.49.026.73-.03zm182.307 0c.242.056.492.053.73.03.07.123.13.24.198.336.858 1.208 2.028 2.026 3.29 2.896 1.262.87 2.625 1.69 3.768 2.39.507.313.628.42 1.012.677.058 1.142.967 2.032 2.11 2.053.327.008.644.025 1.04-.057.398-.08 1.073-.23 1.632-1.067.558-.84.325-1.96.085-2.42-.242-.46-.468-.676-.675-.87-.83-.784-1.737-1.316-2.898-2.027.313.06.744.18 1.012.224.662.11 1.03.205 1.66.168.156-.008.33-.026.618-.112.167-.05.417-.124.675-.31v108.675c-8.822 13.09-20.018 24.46-32.962 33.47-.303-.273-.67-.468-1.098-.535-.806-.14-.79 0-.927.027-.137.03-.23.054-.337.085-.214.063-.454.13-.73.225-.554.187-1.26.435-2.11.732-1.7.59-3.917 1.356-6.102 1.994-2.187.64-4.38 1.16-5.85 1.295-.603.054-.93 0-1.154-.03-.668-1.53-1.194-3.185-1.603-4.893-1.806-7.542-7.56-19.245-13.64-30.994-5.297-10.233-10.835-20.403-14.146-27.168.554.017 1.096.027 1.63.027 3.197 0 6.274.255 9.676.255h1.884c.565.163 1.196.108 1.716-.196.676-.395 1.08-1.13 1.07-1.914 0-.145.106-2.296.25-5.006.146-2.71.34-6.185.536-9.647.194-3.463.388-6.917.534-9.62.146-2.703.225-19.83.225-20.587 0-1.755.562-3.74.562-6.187 0-2.617.252-4.717.252-7.54v-9.42c0-3.848-.56-7.23-.03-10.408.167-.996.26-2.002.31-2.982 13.08 2.46 29.368-.87 42.526-.533 1.592.04 2.854-.37 3.767-.674.913-.304 1.42-.378 1.49-.367zm-185.626.703c.01 0-.002.027 0 .03-.017.006-.07.016-.14 0 .018 0 .13-.03.14-.03zm188.974 0c.01 0 .096.03.112.03-.07.016-.12.006-.14 0 .002-.003.02-.03.027-.03zm-81.03 29.28c-.17.012-.325.04-.45.084-.495.17-.783.42-.786.42-.137.066-.264.168-.364.282-.065.08-.13.157-.17.253-.207.465-.455 1.085-.14 1.912.157.414.537.843.985 1.04.446.2.915.216 1.433.17.425-.04.9-.142 1.266-.535s.442-.96.394-1.32c-.096-.728-.426-1.15-.647-1.52-.198-.33-.548-.618-.956-.73-.203-.06-.39-.07-.562-.06zm-32.426.056c-.173.012-.353.07-.48.11-.494.172-.754.393-.757.394-.1.05-.2.124-.28.2-.105.1-.195.204-.254.336-.208.464-.428 1.112-.113 1.94.158.414.51.814.956 1.012.447.197.916.242 1.435.196.424-.04.9-.17 1.265-.563.367-.392.47-.93.423-1.293-.096-.725-.454-1.15-.675-1.52-.197-.328-.55-.644-.956-.76-.205-.055-.39-.068-.563-.054zm34.453 54.28c1.387.03 2.84.104 4.305.197 3.232 6.94 9.382 18.127 15.244 29.446 6.047 11.682 11.703 23.57 13.246 30.01.48 2 1.127 4.026 2.025 5.99.45 1.106 1.536 1.844 2.42 2.08.99.267 1.94.262 2.954.17 1.63-.148 3.435-.565 5.288-1.07-11.33 6.22-23.697 10.75-36.788 13.276.223-.31.36-.67.394-1.068.063-.8-.315-1.592-.987-2.027-.547-.39-1.403-.89-2.614-1.63-1.212-.74-2.68-1.627-4.107-2.504-1.43-.876-2.827-1.733-3.825-2.39-.345-.227-.558-.4-.788-.563-.374-6.223 1.408-11.763.703-19.378-.072-.79.04-4.9.31-9.957s.657-11.34 1.04-17.465c.386-6.125.767-12.118.986-16.622.108-2.25.182-4.107.196-5.485.004-.38.006-.705 0-1.01zm-4.36.17c.006.247.006.43 0 .785-.01 1.267-.09 3.12-.195 5.344-.215 4.45-.57 10.414-.956 16.537-.384 6.123-.797 12.428-1.07 17.522-.27 5.092-.425 8.703-.25 10.574.643 6.98-1.408 12.62-.706 20.224.077.822.343 1.032.48 1.208.134.175.243.25.337.338.186.174.348.31.534.45.374.28.84.6 1.38.956 1.078.71 2.463 1.56 3.908 2.445 1.445.887 2.935 1.8 4.135 2.532 1.198.732 2.194 1.362 2.333 1.462.046.034.095.052.14.083-6.9 1.164-13.974 1.8-21.204 1.8-7.226 0-14.31-.61-21.206-1.77.05-.034.092-.075.14-.114.14-.1 1.163-.73 2.362-1.463 1.2-.732 2.66-1.645 4.106-2.532 1.445-.886 2.86-1.736 3.938-2.446.54-.356.977-.677 1.35-.957.187-.14.377-.276.562-.45.094-.088.203-.163.338-.338.135-.176.373-.386.45-1.208.703-7.605-1.32-13.243-.675-20.223.174-1.87-.01-5.48-.28-10.574-.27-5.093-.682-11.4-1.067-17.52-.384-6.124-.74-12.088-.957-16.54-.093-1.936-.145-3.493-.168-4.724 1.183-.03 2.377-.13 3.572-.28 1.354-.17 2.753-.186 4.22-.168 2.59.36 5.263.014 6.944.084 1.97-.058 4.003-.25 6.048-.76.457-.114.952-.212 1.462-.28zm-31.36.955c1.57.128 3.146.25 4.756.336.02 1.333.097 3 .195 5.036.22 4.504.573 10.497.958 16.622s.798 12.41 1.068 17.466c.27 5.06.355 9.167.282 9.957-.704 7.62 1.08 13.18.703 19.408-.227.16-.45.312-.786.533-1 .66-2.396 1.516-3.825 2.393-1.43.875-2.896 1.762-4.106 2.502-1.212.74-2.068 1.24-2.617 1.63-.672.435-1.05 1.228-.983 2.027.032.398.167.756.393 1.067-13.092-2.527-25.457-7.058-36.787-13.276 1.85.504 3.658.922 5.288 1.07 1.015.092 1.967.097 2.953-.17.887-.236 1.97-.974 2.42-2.08h.03c.896-1.964 1.517-3.99 1.996-5.99 1.542-6.44 7.227-18.328 13.275-30.01 5.606-10.826 11.46-21.53 14.794-28.518zM254.12 300c.455.014.87.135 1.265.45 1.205 10.78 2.13 21.635 2.615 32.485-1.507 1.745-3.026-1.25-4.696-1.576-1.702-.96-.764-3.54-1.913-5.094-2.6-6.133-8.345-11.968-6.915-19.18.647-2.758 2.335-5.486 5.344-5.992 1.352-.17 2.935-1.14 4.3-1.096zm377.943.225c.137.002.27.057.422.196 2.102 1.217 5.034 1.03 6.722 2.76 3.348 4.952 1.353 11.232-1.434 15.92-2.155 3.892-4.614 7.836-4.923 12.346-1 .758-2.753 2.895-3.908 1.35.346-10.644 1.14-21.28 1.996-31.894.364-.21.715-.683 1.125-.674zM336.835 313.78c18.298 25.055 45.313 43.367 76.584 50.43h-76.587v-50.43zm210.825 0v50.43h-76.585c31.27-7.063 58.29-25.375 76.585-50.43zm-305.887 50.514c.19-.01.366.01.533.168 2.29 1.088 4.863 1.066 7.23 1.715.238 4.04-1.552 8.025-2.25 12.01-1.728 2.853-6.306 3.606-8.298.563-3.338-4.214-2.977-11.834 2.193-14.43.197.016.4-.02.595-.027zm402.58.393h.253c1.804 3.313 5.657 6.93 4.08 11.11-.842 1.476-1.98 2.69-2.87 4.134-1.76 1.524-5.162.825-6.187-1.095-.714-4.22-2.66-8.453-2.365-12.71 2.332-.46 4.768-.795 7.087-1.436zm-6.497 54.14c-.192-.01-.365-.014-.562.03-5.21.38-11.006 1.905-14.428 6.1-1.825 3.292.345 7.073 3.207 8.805 2.166 1.474 5.317 4.628 2.952 7.228-3.135 3.556-8.02 4.73-12.375 5.99-1.102.338-2.592-.648-3.346.366-1.07.29-1.26-1.165-2.448-.42-2.52 1.013-1.193 4.65.9 5.343 2.508 1.855 6.13.25 9 1.234 4.01.456 8.677 2.834 8.888 7.37.795 3.738-2.24 7.35-6.02 7.48-4.935.804-10.538-.184-14.4-3.46-2.573-2.24-3.264-6.285-6.41-7.82-2.336-.473-3.9 2.832-1.914 4.276 2.823 4.37 5.636 9.305 5.43 14.68-1.14 2.167-3.892.01-5.064-1.123-3.16-2.445-5.706-5.547-8.69-8.212-2.25-.823-4.338 2.5-2.25 4.022 3.717 4.41 8.07 8.634 13.33 11.082 3.007 1.49 6.388-.806 7.004-3.91.93-1.85-.38-4.286.928-5.767 4.45 1.015 9.44 1.868 14.035.533 4.526-.842 8.288-4.647 8.633-9.365.684-5.605-2.98-11.115-8.212-13.16-.85-2.21 2.567-2.134 3.685-3.404 3.91-2.252 6.366-7.482 3.88-11.587-1.4-2.944-4.58-4.46-6.33-6.948.32-3.143 4.434-3.275 6.75-4.022 1.946-.676 5.364-.056 6.05-2.557.276-1.396-.877-2.705-2.226-2.785zm-389.22.03c-2.757.146-2.32 4.22-.03 4.808 3.723.218 8.012.882 11.054 3.488.53 2.018-2.484 2.978-3.544 4.415-3.648 2.742-5.327 8.172-2.475 12.038 1.68 2.615 5.005 3.683 7.147 5.485.293 1.804-2.566 1.758-3.487 3.04-5.998 4.26-6.816 14.882-.17 18.843 5.207 3.172 11.964 2.84 17.662 1.098 2.023.897.284 3.6 1.21 5.317.33 3.407 4.29 6.252 7.454 4.218 5.234-2.438 9.284-6.698 13.134-10.883 1.37-1.603.332-4.473-1.913-4.08-2.55.83-3.65 3.883-5.85 5.345-2.127 2.048-4.39 4.026-7.06 5.343-2.28-.687-1.165-3.81-.927-5.596 1.13-4.118 3.322-7.79 5.597-11.334 1.36-2.12-1.837-4.558-3.487-2.67-2.676 2.095-3.346 5.874-6.216 7.874-3.625 2.602-8.42 3.307-12.797 2.925-3.417-.33-7.233-2.68-6.89-6.555-.155-3.644 2.454-6.753 5.878-7.733 3.474-1.33 7.294-.975 10.884-1.153 1.13-.898 2.56-1.704 3.345-3.01.97-1.838-1.56-4.568-3.094-2.813-1.524-.675-3.57.31-5.23-.73-4.295-1.252-9.45-2.58-11.812-6.722-.7-4.25 4.347-5.69 6.355-8.55 2.102-2.638 1.344-6.796-1.66-8.44-3.746-2.648-8.546-3.856-13.078-3.964zm70.593 23.708c5.812.65 11.64.007 17.49.225 28.78-.186 57.5 3.15 86.288 2.28 39.65.067 79.304.126 118.94-1.07 11.407-.033 22.83-.33 34.2-.76 3.095 1.967 1.4 6.12 2.362 9.056.15 3.036-3.63 3.036-5.765 2.73-25.094 1.39-50.303 1.236-75.432 1.995-32.068.23-64.125.415-96.187-.14-22.045-1.202-44.122-2.4-66.207-1.88-6.503-.136-13.107.273-19.548-.198-2.984-2.702-.157-6.83-.084-10.07.57-1.61 2.367-2.207 3.94-2.164zm-46.044 3.235c-.03-.036-.148.124-.31.562.28-.292.34-.526.31-.562zm241.116 31.47c.347-.063.77.02 1.125.086 3.294.622 6.805 1.225 9.787 2.644 1.16 3.306 5.502 6 4.162 9.9-2.928 3.94-8.788 5.978-13.388 3.712-2.24-.975-4.066-2.74-5.683-4.472 1.73-3.437 3.295-7.183 3.263-11.138.097-.465.382-.666.73-.73zm-143.662.93c1.755-.11 3.063.765 2.813 2.783.305 2.974 1.912 5.603 2.952 8.27-3.098 1.968-5.885 5.26-9.758 5.624-2.205-.065-4.054-1.354-6.188-1.8-3.427-1.18-3.81-5.495-2.168-8.267 1.252-2.253 2.206-5.562 5.26-5.654 2.097-.59 4.094-1.17 6.3-.844.265-.055.536-.096.787-.112zm45.62.533c1.294.064 2.79.395 3.74.113h14.147c1.557 1.486-.457 3.64-1.042 5.287-1.485 3.395-5.628 4.968-8.97 3.292-4.227-1.005-7.402-4.204-10.38-7.173.11-1.362 1.208-1.58 2.504-1.52zm45.814.085c3.363.03 6.738.104 10.07.028 1.7 1.55-1.304 2.83-2.14 4.05-3.665 3.35-9.2 6.68-14.145 3.994-2.716-1.437-4.546-4.824-3.8-7.82 3.294-.265 6.65-.28 10.013-.252" fill="#fff"/></g></svg>