<?xml version="1.0" encoding="UTF-8" standalone="no"?>
<!-- Created with Inkscape (http://www.inkscape.org/) -->

<svg
   xmlns:dc="http://purl.org/dc/elements/1.1/"
   xmlns:cc="http://creativecommons.org/ns#"
   xmlns:rdf="http://www.w3.org/1999/02/22-rdf-syntax-ns#"
   xmlns:svg="http://www.w3.org/2000/svg"
   xmlns="http://www.w3.org/2000/svg"
   xmlns:sodipodi="http://sodipodi.sourceforge.net/DTD/sodipodi-0.dtd"
   xmlns:inkscape="http://www.inkscape.org/namespaces/inkscape"
   version="1.1"
   width="1443.5198"
   height="972.3382"
   id="svg2"
   xml:space="preserve"
   inkscape:version="0.48.4 r9939"
   sodipodi:docname="improve.svg"><sodipodi:namedview
     pagecolor="#ffffff"
     bordercolor="#666666"
     borderopacity="1"
     objecttolerance="10"
     gridtolerance="10"
     guidetolerance="10"
     inkscape:pageopacity="0"
     inkscape:pageshadow="2"
     inkscape:window-width="708"
     inkscape:window-height="480"
     id="namedview12"
     showgrid="false"
     inkscape:zoom="0.072766595"
     inkscape:cx="1543.5344"
     inkscape:cy="167.92339"
     inkscape:window-x="0"
     inkscape:window-y="0"
     inkscape:window-maximized="0"
     inkscape:current-layer="g3761"
     fit-margin-top="0"
     fit-margin-left="0"
     fit-margin-right="0"
     fit-margin-bottom="0" /><metadata
     id="metadata8"><rdf:RDF><cc:Work
         rdf:about=""><dc:format>image/svg+xml</dc:format><dc:type
           rdf:resource="http://purl.org/dc/dcmitype/StillImage" /></cc:Work></rdf:RDF></metadata><defs
     id="defs6" /><g
     transform="matrix(1.25,0,0,-1.25,-357.60457,1069.7308)"
     id="g10"><g
       transform="scale(0.107226,0.107226)"
       id="g12"><g
         id="g3761"><path
           sodipodi:nodetypes="cccssssccccsssscccssccsssssssssccccsssssscssscccsccccccsc"
           style="fill:#ffffff;fill-opacity:1;fill-rule:evenodd;stroke:none"
           id="path16"
           inkscape:connector-curvature="0"
           d="m 7549.27,1470.96 c -27.71,-0.23 -58.33,-4.01 -98.86,-12.12 -86.72,-17.34 -190.24,6.26 -299.13,-11.89 -111.21,-18.54 -249.35,-23.55 -366.29,-23.55 -143.3,0 -289.47,-11.89 -432.5,-11.89 -164.2,0 -328.45,0 -492.65,0 -132.16,0 -264.43,0 -396.59,0 -141.78,0 -318.65,-30.33 -435.3,-1.17 -127.96,31.99 -274,13.06 -393.56,13.06 -2426.9922,119.801 -2809.6268,-94.6569 0,-74.61 126.59,0 268,16.12 375.37,-10.72 143.6,-35.9 323.63,-1.17 453.49,-1.17 132.16,0 264.43,0 396.59,0 164.2,0 328.45,0 492.65,0 147.15,0 293.43,11.89 432.5,11.89 118.98,0 259.8,4.91 378.64,24.71 88.97,14.84 193.22,-9.52 301.47,12.13 102.33,20.47 111.88,13.35 211.94,-11.66 76.91,-19.22 164.72,-0.93 225.22,-0.93 12.02,0 24.13,0 36.14,0 0.24,0 0.46,0 0.7,0 1.82,-0.45 3.67,-0.75 5.6,-0.93 48.27,-4.6 145.63,-23.32 220.09,-23.32 64.08,0 128.04,0 192.12,0 64.08,0 128.27,0 192.35,0 71.17,0 140.43,2.96 195.15,-10.72 100.76,-25.19 202.26,10.72 273.49,10.72 112.14,0 224.07,0 336.21,0 125.43,0 243,24.25 360.45,24.25 100.7,0 203.58,11.89 300.54,11.89 107.4,0 221,-36.14 348.3,-36.14 115.9,0 228.4,12.12 336.5,12.12 91.2,0.01 198.2,-11.41 299.3,2.11 l 110.3,96.52 c -24,-3.23 -47.5,-7.38 -70.2,-13.06 -97.1,-24.29 -224,-10.96 -339.4,-10.96 -113.5,0 -225.9,-12.12 -336.5,-12.12 -112.4,0 -225.4,36.14 -348.3,36.14 -102.94,0 -205.96,-11.89 -300.54,-11.89 -127.22,0 -244.95,-24.25 -360.45,-24.25 -112.14,0 -224.07,0 -336.21,0 -91.61,0 -185.25,-30.57 -255.3,-13.06 -70.39,17.6 -144.75,13.06 -213.34,13.06 -64.08,0 -128.27,0 -192.35,0 -64.08,0 -128.04,0 -192.12,0 -61.22,0 -156.51,17.69 -213.1,23.08 -1.44,0.14 -3.01,0.26 -4.43,0.23 -2.89,0.67 -5.82,0.98 -8.86,0.94 -12.01,0 -24.12,0 -36.14,0 -72.39,0 -156.9,-13.7 -207.04,-1.17 -49.51,12.38 -83.63,20.84 -118.9,23.55 -8.83,0.68 -17.82,1.01 -27.05,0.93 z m 4479.83,-11.42 40.1,-24.02 29.4,-50.59 c 679.901,-5.2876 1178.513,-76.1827 1006.892,-0.7584 -126.594,55.6358 -458.981,86.6967 -1076.392,75.3684" /><path
           style="fill:#ffffff;fill-opacity:1;fill-rule:evenodd;stroke:none"
           id="path18"
           inkscape:connector-curvature="0"
           d="m 11675.6,5151.75 c -18.9,-0.37 -34.8,-15 -36.4,-34.27 -1.6,-20.55 13.8,-38.43 34.3,-40.1 31.2,-4.03 84.5,-10.01 137.6,-20.05 53,-10.05 106.3,-26.15 128.4,-41.04 40.4,-27.18 79.2,-56.05 117.6,-85.57 -69.3,41.85 -136.6,81.66 -186.6,101.66 -39.4,15.76 -79.1,20.89 -116.5,19.82 -37.5,-1.07 -72.7,-8.27 -103.1,-17.72 -13.2,-3.54 -23.4,-14.22 -26.6,-27.52 -3.2,-13.29 1.3,-27.21 11.4,-36.37 10.2,-9.15 24.5,-12.02 37.4,-7.46 50.3,15.67 112.8,22.77 169.7,0 29.2,-11.69 74.9,-37.49 125.4,-67.15 -2.7,0.32 -5.8,0.63 -8.4,0.94 -16.1,1.91 -35,2.97 -54.8,2.79 -24.1,9.01 -47.6,17.51 -70.1,24.25 -54,16.15 -102.5,27.14 -147.6,9.09 -19.2,-7.6 -28.6,-29.1 -21,-48.26 7.6,-19.15 29.3,-28.59 48.5,-20.98 7.2,2.89 23.9,3.4 46.4,0.23 -38.6,-17.18 -86,-28.08 -133.4,-63.65 -45.5,-34.21 -93.3,-77.33 -122.9,-134.06 -24.8,-47.62 -49.5,-92.72 -75,-141.76 -23.9,-45.9 -53.4,-98.74 -70,-155.75 -3.8,-13.11 -8.9,-26.97 -14,-41.5 -17.8,7.66 -35.5,15.23 -54.1,23.32 -27.2,11.89 -53.7,23.61 -73.6,32.41 -20,8.79 -36.7,16.26 -34.3,15.15 -4.6,2.2 -9.6,3.51 -14.7,3.73 -18,0.97 -34,-10.93 -38.2,-28.44 -4.2,-17.51 4.7,-35.61 21.2,-42.9 5.6,-2.62 15.8,-7.03 35.9,-15.86 20,-8.82 46.5,-20.48 73.9,-32.41 21.1,-9.2 41.2,-17.95 60.6,-26.34 -5.7,-20.07 -10.5,-40.74 -13,-61.78 -6.4,-54.16 -22,-107.62 -38.7,-165.08 -16.5,-56.68 -37.5,-111.76 -55.1,-172.07 -17,-58.46 -28.1,-114.22 -44.3,-169.73 -2.3,-8.08 -4.6,-16.18 -7,-24.25 -90.5,177.61 -131.9,441.55 -212.1,654.23 -4.3,11.23 -4.7,23.73 -4.9,40.1 -0.2,16.37 1.1,37.89 -11.7,61.09 -2.1,4.01 -4.9,7.57 -8.1,10.49 9.7,5.33 15.8,13.39 19.3,19.35 5,8.4 7.2,15.79 9.3,23.31 8.5,30.13 12.1,68.46 15.2,79.04 4.4,15.1 7.8,22.25 10.9,34.51 3.2,12.27 3.3,27.93 0.5,43.37 -3,17.88 -18.7,30.97 -36.8,31.01 -11.2,0.02 -21.6,-4.94 -28.7,-13.53 -7.1,-8.58 -10,-19.83 -7.9,-30.77 1.8,-10.04 1.5,-8.31 0.7,-11.66 -0.9,-3.34 -4.9,-13.81 -10.3,-32.18 -3.1,-10.61 -5.1,-22.27 -7,-33.57 -13,17.66 -27.4,35.9 -41.5,52.46 -6.1,7.19 -11.9,13.84 -17.2,19.35 -5.4,5.51 -7.2,9.17 -19.2,15.62 -2.9,1.62 -6.8,4.02 -15.3,4.9 -8.6,0.88 -26,-3.57 -34.5,-14.69 -8.6,-11.12 -8,-20.26 -7.7,-25.41 0.2,-5.16 1.1,-8.13 1.8,-10.73 3,-10.39 6.4,-16.24 11.9,-26.34 2.2,-4.01 6.2,-10.31 8.9,-14.93 -18,14.71 -31.5,26.94 -48.8,35.91 -4.3,2.26 -8.9,4.52 -17.7,5.83 -8.8,1.3 -28.3,-1.61 -38.7,-15.39 -10.4,-13.78 -8.6,-25.05 -7.7,-31.94 0.9,-6.9 2.5,-11.77 4.5,-17.02 6.6,-18.39 26.4,-28.62 45.2,-23.32 0,-0.04 0.2,0.05 0.2,0 6.3,-4.76 8.2,-5.92 16.1,-12.36 17.8,-14.57 38.9,-31.79 60.2,-47.32 21.2,-15.54 41.5,-29.73 65.9,-36.84 2.1,-0.6 4.5,-1 7,-1.4 0.8,-4.01 1.9,-8.01 4,-11.66 0.6,-1.06 2.3,-9.6 2.6,-26.11 0.2,-16.52 0.1,-39.91 9.8,-65.52 81.4,-215.93 119.4,-506.43 238.9,-705.05 4,-6.53 9.7,-11.42 16.1,-14.46 -4.2,-14.61 -8.5,-29.21 -12.8,-43.83 -16.4,-56.54 -28.3,-113.8 -43.4,-165.54 -13.3,-45.86 -26.5,-91.7 -39.8,-137.56 -17.1,-58.89 -18.1,-112.38 -31.7,-159.24 -8.3,-28.31 -31.1,-124.36 -54.4,-221.5 -16.3,-68.31 -30.5,-126.32 -40.1,-165.07 -8.6,-5.79 -14.6,-15.13 -16.1,-26.11 -1,-8.26 0.7,-16.27 4.5,-23.09 0,-0.07 0,-0.16 0,-0.23 -1.4,-17.3 9.5,-33.66 26.8,-38.7 13.6,-3.96 27.5,0.38 36.8,9.79 49.8,-13.15 113.1,-28.82 160,-42.43 30.6,-8.9 61.7,-20.11 93,-31.95 -0.2,-1.62 -0.5,-3.22 -0.5,-4.89 -3,-252.28 -10.6,-553.64 35,-802.52 5.8,-31.66 9.5,-63.03 9.1,-93.49 0,-0.47 0.2,-0.93 0.2,-1.4 0,0.11 -0.4,-1.4 -2.5,-4.43 -4.3,-6.05 -13.2,-15.72 -25.2,-26.11 -24.1,-20.79 -59.9,-45.32 -96.5,-68.09 -36.7,-22.76 -74.4,-43.84 -103.3,-59.68 -14.5,-7.92 -26.7,-14.8 -35.7,-19.58 -4.5,-2.4 -7.9,-4.11 -10.7,-5.6 -2.8,-1.5 -2,-0.51 -8,-4.43 -17.3,-11.55 -22,-35.11 -10.4,-52.46 11.1,-16.72 33.2,-21.64 50.3,-11.66 -0.7,-0.46 -0.6,-0.46 1.9,1.16 0.6,0.4 1.2,0.61 1.9,0.94 2.5,1.35 6.2,3.18 10.7,5.6 9,4.82 21.5,11.7 36.3,19.81 29.7,16.24 68.2,37.92 106.6,61.79 38.4,23.86 76.5,49.53 106.1,75.07 14.8,12.78 27.4,25.39 37.5,39.64 9,12.67 17.1,28.61 15.9,48.49 l 0.2,0 c 0.5,37.12 -3.9,73.43 -10.3,108.19 -42.1,229.79 -37.1,517.53 -34,765.67 47.8,-17.3 97.1,-32.93 149.2,-41.27 87,-13.89 178.9,-64.17 288.2,-68.31 53.9,-2.04 123.4,-28.8 192.4,-53.62 -3.2,-32.4 -6.3,-64.75 -10.1,-101.19 -7.4,-71.99 -15.3,-146.6 -20.7,-209.37 -5.5,-62.78 -9,-110.7 -6.5,-141.29 9.6,-119.85 -26.7,-216.42 -16.1,-347.17 1.1,-14.28 5.8,-17.45 8.1,-20.52 2.3,-3.06 4,-5 5.6,-6.53 3.2,-3.05 5.9,-5.24 9.1,-7.69 6.4,-4.91 14.1,-10.12 23.3,-16.32 18.4,-12.41 42.3,-27.86 66.9,-43.37 24.7,-15.5 49.8,-31.02 70.2,-43.83 20.4,-12.81 37.6,-23.93 39.9,-25.64 10.7,-9.02 25.7,-11.42 38.7,-6.07 13,5.35 21.8,17.5 23.1,31.48 1.2,13.98 -5.2,27.61 -17,35.2 -9.4,6.87 -23.9,15.98 -44.6,28.92 -20.6,12.93 -45.6,28.49 -69.9,43.83 -24.4,15.34 -48.1,30.48 -65.1,41.96 -5.7,3.87 -9.2,6.3 -13,9.1 -5.1,106.75 26.4,201.6 15.8,332.47 -1.2,15.15 1.4,67.17 6.8,128.94 5.3,61.77 13,136.22 20.5,208.2 3.2,30.36 5.7,56.51 8.4,84.17 3.1,-0.94 6.2,-1.9 9.3,-2.79 52.7,-15.32 102.3,-34.77 158.3,-51.07 10.4,-3.01 20.7,-6.08 31,-9.09 0.7,-0.18 1.3,-0.32 1.9,-0.47 2.4,-1.34 4.9,-2.46 7.7,-3.26 19.8,-5.76 40.6,5.62 46.4,25.41 0.7,2.4 12.6,37.64 28,81.61 15.4,43.97 35,100.07 54.8,156.21 19.8,56.14 39.6,112.36 55,156.21 15.4,43.86 25.3,71.71 28.9,84.17 8.4,28.92 27,59.24 38.7,99.56 12.5,43.1 26.8,76.34 40.3,122.87 15.1,51.77 30.2,103.51 45.3,155.28 6.3,21.6 11.1,42.41 15.8,62.72 197.9,108.35 378.5,321.38 555.9,454.65 21.8,16.44 34.5,36.07 43.6,49.89 9,13.82 14.8,20.17 15.8,20.75 3.7,1.97 7.1,4.52 9.8,7.46 2.4,-0.98 4.5,-1.74 6.5,-2.33 24.5,-7.11 49.3,-6.16 75.6,-4.43 26.2,1.73 53.4,5.17 76.2,7.93 10.1,1.21 12.2,0.98 20.1,1.63 13,-14.8 35.2,-16.77 50.8,-4.66 4.5,3.37 8.6,6.56 13.1,11.89 4.4,5.33 12.1,14.03 10.7,31.24 -1.4,17.21 -16.3,30.18 -24.5,33.81 -8.1,3.62 -13.3,3.77 -18.2,4.19 -19.4,1.68 -37.4,-1.16 -60.6,-3.96 4.8,2.46 11.6,5.71 15.6,7.93 10.1,5.55 16.2,8.67 24.3,15.85 2,1.8 4.3,3.93 7.2,8.17 2.9,4.23 8.2,11.69 7,25.64 -1.2,13.95 -13.5,26.94 -21.2,30.78 -7.7,3.83 -12,3.96 -15.4,4.19 -13.5,0.95 -17.3,-1.47 -24.7,-3.26 -7.5,-1.78 -15.7,-3.98 -24.7,-6.76 -20.9,-6.42 -43,-14.23 -63.5,-22.15 4.5,10.62 9.5,21.49 12.6,32.17 5.4,18.37 7.4,29.36 8.4,32.64 1.1,3.29 -0.4,1.84 6.6,9.33 10.1,10.67 13,26.27 7.4,39.87 -5.6,13.6 -18.6,22.65 -33.3,23.08 -11,0.32 -21.4,-4.25 -28.7,-12.36 -10.7,-11.51 -18.9,-24.79 -22.9,-36.83 -3.9,-12.05 -4.9,-19.88 -9.3,-34.98 -3.1,-10.58 -20.6,-44.9 -29.6,-74.84 -2.2,-7.49 -4.3,-14.96 -4.7,-24.71 -0.2,-6.99 0.8,-16.99 6.3,-26.81 -4.5,-0.71 -8.8,-2.14 -12.8,-4.43 -23.2,-12.75 -33.5,-31.31 -42.4,-45 -9,-13.7 -16.3,-24.03 -25.9,-31.25 -163.5,-122.83 -322.5,-297.72 -477.7,-405.45 24.3,50.57 35.8,104.22 49.4,151.08 15.8,54.42 19.1,109.13 37.1,146.42 26,54.14 41.6,108.17 57.6,162.98 15.8,54.61 26.8,109.2 41.9,161.11 15.8,54.35 26.6,107.5 40.8,156.44 17.1,58.9 10.3,97.13 12.2,145.49 1.6,44.21 -7.8,99.52 -31.5,142.69 -3.7,6.61 -5.4,16.43 -7.2,31.47 -1.9,15.05 -3.2,35.23 -15,56.66 -0.6,1.11 -5.6,16.87 -9.5,33.81 -4,16.94 -6.4,36.1 -21.5,56.19 -16.6,22.18 -30.9,51.56 -60.1,78.57 -17,15.7 -42.3,51.71 -82.3,75.08 -5.6,3.23 -16,12.85 -28.2,24.48 -12.3,11.63 -27.1,26.54 -51.3,33.57 -25.8,7.5 -65.6,28.58 -108.5,41.04 -31.9,9.27 -65.1,23.76 -93.9,40.56 -13.7,7.95 -28.7,14.39 -44.1,19.59 -97.7,72.72 -190.7,152.5 -297.7,224.53 -42,28.26 -99.7,41.94 -156.5,52.69 -56.7,10.75 -112.3,16.71 -141.7,20.52 -1.3,0.19 -2.5,0.39 -3.8,0.46 -1.2,0.11 -2.4,0.03 -3.7,0 z m 221.7,-328.98 c 26.8,-10.29 54.8,-21.53 83.3,-32.87 60.4,-24.03 123,-48.19 182.1,-63.42 59,-15.23 115.4,-22.96 166,-5.36 7.7,2.65 13.8,7.49 18.2,13.76 0.7,0.28 1.4,0.59 2.1,0.93 0.9,0.45 1.6,1.11 2.5,1.63 14.8,-5.94 30,-11.24 45,-15.62 31.5,-9.14 69.5,-29.73 108.4,-41.03 1.4,-0.39 9.9,-5.77 20.6,-15.86 10.6,-10.09 23,-23.93 41.9,-34.97 20.5,-11.92 42.9,-41.12 69.3,-65.52 16.5,-15.31 29.2,-39.69 51,-68.78 -0.7,0.96 5,-12.47 8.7,-28.21 3.7,-15.74 5.8,-33.02 16.5,-52.46 2.6,-4.75 4.4,-14.4 6.3,-29.85 1.9,-15.44 4,-36.59 16.1,-58.52 12.7,-23.06 23.2,-76.27 22.1,-103.98 -2.1,-55.61 4,-81.67 -9.3,-127.3 -15.4,-53.1 -25.9,-106.38 -40.5,-156.68 -16.3,-55.84 -27.5,-110.53 -42.2,-161.11 -16,-54.8 -30.4,-104.25 -53,-151.32 -27.1,-56.39 -29.5,-116.21 -41.7,-158.08 -14.6,-50.26 -25.7,-99.78 -44.8,-139.42 -15.1,-31.52 -24.4,-62.92 -31.9,-93.26 -11.2,-10.24 -15.3,-26.29 -9.6,-40.81 -3.8,-16.85 -7.5,-33.49 -12.1,-49.19 -5.2,-18.04 -10.6,-36.04 -15.9,-54.09 0,-0.02 -0.1,0.01 -0.2,0 -8.1,-1.49 -11.3,-3.15 -13.5,-3.97 -75.9,20.15 -135,5.58 -181.6,19.13 -140.3,40.75 -286.6,60.62 -426.9,101.42 -97.5,28.33 -222.1,80.68 -343.5,127.06 -113.8,43.52 -224.1,82.41 -315.4,90 6.9,27.89 13.7,55.21 21.4,81.6 15.5,53.26 30.9,106.46 46.4,159.72 12.1,41.69 21.5,81.77 31.5,121 64,-52.68 159.8,-101.17 243.2,-106.32 73.1,-4.51 111.7,8.21 170.6,22.85 40.9,10.15 71.1,31.24 94.9,51.76 23.8,20.53 42.5,40.28 66.5,56.89 19.9,13.82 49.7,37.31 78.3,62.72 28.6,25.41 54.3,46.68 70,78.34 0.1,0.22 0.1,0.48 0.2,0.7 1.1,0.93 2.2,1.88 3.3,2.8 10.2,9.05 19.4,17.62 26.3,24.24 6.9,6.63 14.7,13.1 10.3,9.8 12.3,8.85 18.9,23.61 17.2,38.7 -1.7,15.09 -11.4,28.17 -25.4,34.04 -14,5.87 -30.2,3.77 -42.2,-5.59 -9.3,-6.91 -11.5,-10.09 -18.2,-16.56 -6.7,-6.46 -14.6,-14.44 -23.3,-22.15 -17.4,-15.41 -39.3,-30.04 -46.9,-32.64 -112.9,-38.88 -243.9,-56.68 -355.5,-24.25 -98.2,28.54 -117.4,36.44 -180.2,121.24 8.6,32.83 16.1,66.26 20.2,101.42 1.6,12.98 4.7,26.97 8.7,41.51 0.2,-0.1 0.7,-0.38 0.9,-0.47 12.5,-4.82 26.7,-2.63 37.1,5.83 10.4,8.45 15.5,21.76 13.3,34.97 -2.2,13.21 -11.5,24.26 -24.1,28.91 -0.8,0.31 -3.2,1.4 -4.4,1.87 5.7,16.61 11.2,33.35 16.1,50.12 13.2,45.54 40.1,94.91 64.6,142 25.1,48.31 49.9,93.39 75.1,141.75 21.1,40.57 60.4,77.93 101.6,108.88 37.1,27.85 85.1,35.16 140.4,65.52 14.3,7.9 50.4,14.06 84.1,16.55 z m -1058,-388.2 c 0.1,-0.25 0.9,-1.68 0.9,-1.86 0.3,-0.83 -0.7,-0.6 -0.9,1.86 z m 981.1,-65.51 c -15.7,0.52 -26.7,-2.72 -27.5,-2.8 -6.4,-0.65 -12.4,-2.96 -17.5,-6.99 -12.2,-9.67 -27.8,-21.47 -33.6,-47.33 -2.8,-12.94 0.4,-31.3 10.5,-43.6 10.1,-12.3 23.2,-18.76 38,-23.09 12.4,-3.59 26.8,-4.29 40.1,1.4 13.4,5.7 22.3,16.96 26.8,26.58 9.1,19.25 8.2,35.27 8.7,47.8 0.4,11.76 -4.4,27.93 -15.4,37.3 -11,9.37 -22.3,10.47 -30.1,10.73 z m -485,-382.84 c 52.4,-56.28 102.9,-80.14 184.9,-103.99 88.1,-25.59 180.8,-25.1 268.9,-10.02 -25.4,-19.3 -44.2,-38.71 -60.9,-53.16 -19.4,-16.77 -35.1,-27.57 -60.1,-33.81 -62,-15.4 -82.7,-24.38 -145.3,-20.51 -54.4,3.36 -169.6,61.58 -212.4,102.58 -3.2,3.35 -7,5.85 -11,7.93 11.7,36.35 24.2,72.78 35.9,110.98 z m 1893.9,-246.68 c -1.4,-1.76 -2.2,-1.24 -1.6,-0.7 0.1,0.12 1.5,0.56 1.6,0.7 z m -2073.2,-387.96 c 34,-1.47 76.6,-10.38 124.3,-23.78 -2.3,-7.92 -4.7,-15.89 -7,-23.78 -4.4,-15.37 -8.1,-36.96 -12.1,-65.29 -4,-28.32 -7.5,-61.52 -9.6,-93.03 -2,-31.51 -2.9,-60.5 0.7,-84.86 1.8,-12.18 2.4,-23.51 15.2,-38.47 6.4,-7.49 19.4,-15.57 32.9,-15.86 13.5,-0.3 23.3,5.22 30,10.26 3.4,2.55 25.9,16.93 52.7,32.41 26.8,15.48 59.9,33.84 91.7,50.36 31.7,16.52 62.4,31.14 83.2,39.4 6.4,2.56 8.5,3.11 12.1,4.2 8.5,-2.81 17.6,-2.5 25.7,0.7 -0.9,-4.05 -0.9,-5.07 -2.4,-10.73 -3,-12.02 -6.9,-25.77 -7.4,-42.2 -0.3,-8.21 -0.2,-17.5 4.9,-28.91 2.2,-4.95 5.9,-10.14 10.5,-14.69 -1.6,-1.83 -3.1,-3.37 -4.7,-5.36 -13.2,-16.34 -30,-38.18 -47.3,-61.09 -34.6,-45.81 -72.1,-96.76 -80.7,-107.71 -10.3,-13.17 -8.3,-19.1 -8.6,-23.78 -0.4,-4.68 0,-8.38 0.2,-12.13 0.5,-7.5 1.5,-15.06 3,-24.01 3,-17.92 7.8,-39.91 12.9,-62.02 5,-22.11 10.4,-44.3 15.1,-62.49 4.8,-18.18 7.9,-29.79 11.7,-39.86 8.1,-21.56 17.2,-42.39 44.3,-50.6 13.5,-4.1 28.5,-1.24 38.2,3.73 9.8,4.97 16.2,11.12 21.7,17.25 22.1,24.55 35.6,55.91 50.1,80.91 36,61.69 53.8,116.94 61.8,211 2.2,25.47 2.4,45.97 0.2,63.65 -2,16.76 -5.6,31.95 -16.7,45.93 19.9,0.41 39.1,4.69 57.3,15.16 10.3,5.9 19.5,15.7 25.9,27.28 11.8,-20.6 26.7,-48.64 42,-78.58 34.8,-68.27 69.5,-141.18 82,-163.9 4.7,-8.49 14.8,-18.05 26.6,-21.69 11.9,-3.63 22.5,-1.68 29.9,0.94 14.8,5.23 22.6,12.69 31.2,20.98 17.3,16.58 34.2,38.96 52.2,64.35 36,50.79 73.3,112.62 92.4,145.26 7.4,12.7 9,22.33 9.5,27.04 30.1,-7.06 59.8,-14.46 88.6,-22.85 73,-21.2 130.9,-3.63 188.2,-20.28 1.8,-0.53 3.6,-0.85 5.3,-1.17 -2.2,-7.7 -4.5,-15.38 -6.7,-23.08 -12.2,-41.73 -26.7,-75.1 -40.6,-122.87 -8.1,-27.88 -26.8,-58.52 -38.7,-99.56 -0.4,-1.53 -12.2,-36.48 -27.5,-80.2 -15.3,-43.73 -35,-99.84 -54.8,-155.98 -19.8,-56.14 -39.8,-112.57 -55.3,-156.68 -6.9,-19.88 -12.3,-35.43 -17,-48.96 -2.2,0.63 -4.3,1.23 -6.5,1.86 -52.2,15.16 -102,34.62 -158.6,51.06 -81,23.57 -189.3,80.02 -292.8,83.94 -86.2,3.26 -174.8,50.94 -279.1,67.61 -98.5,15.75 -198,67.44 -307.7,99.32 -47.7,13.87 -109.8,29.28 -157.4,41.74 9.8,40.53 22.8,95.53 37,155.05 23.3,97.09 47.9,199 53.4,218 17.2,58.88 18.4,112.38 32,159.24 13.3,45.85 26.5,91.7 39.9,137.56 0.9,3.4 1.8,6.84 2.7,10.26 z m 195.7,-45.93 c 36.2,-12.13 74,-25.93 112.3,-40.57 38.3,-14.61 76.8,-29.69 115.2,-44.77 -5.3,0.36 -9.2,-0.32 -13,-0.93 -12.3,-1.98 -23.2,-5.89 -35.9,-10.96 -25.6,-10.14 -57.1,-25.76 -90,-42.9 -33,-17.14 -66.7,-35.72 -94.5,-51.76 -9.1,-5.28 -12.3,-7.69 -19.8,-12.12 -0.2,13.02 -1.1,22.82 0,39.4 1.9,29.04 5.3,60.55 9.1,87.2 3.8,26.65 8.6,50.05 10,55.03 2.2,7.46 4.4,14.89 6.6,22.38 z m 253.2,-95.36 c 6.4,-2.51 12.9,-4.99 19.3,-7.47 -1.9,0.32 -3.9,0.5 -5.3,0.24 -2.1,-0.39 -4.2,-0.92 -6.1,-1.63 -0.5,0.74 -0.9,1.62 -1.4,2.33 -2,2.64 -4.3,4.64 -6.5,6.53 z m 69.7,-79.27 c 11.4,0.04 22.6,-0.49 29.8,-1.4 9.9,-14.81 14.5,-25.19 15.4,-29.38 -5.7,-1.69 -28.6,-3.13 -56.6,1.63 0.9,4.61 0.8,7.1 2.3,12.83 1.2,4.76 1.8,11.05 3,16.08 2.1,0.04 4,0.23 6.1,0.24 z m 156.9,0 c 83.4,-23.22 166.4,-39.68 246.7,-56.9 -1.1,-3.89 -1.9,-7.35 -1.7,-7.46 -18.5,-31.74 -54.6,-91.65 -87.6,-138.25 -11.9,-16.69 -21.2,-27.2 -30.6,-38.01 -14.7,29.52 -36,73.28 -64.1,128.24 -17.7,34.74 -35,67.78 -49.2,91.63 -4.8,8.05 -9,14.56 -13.5,20.75 z m -186.5,-181.63 c 0.2,-9.34 1,-17.11 -0.3,-31.71 -0.1,-1.07 -0.3,-1.75 -0.4,-2.8 -1.4,-0.73 -2.7,-1.49 -3.8,-2.09 -12.7,-7.48 -15.3,-12.11 -23.5,-20.99 -5.8,-6.28 -18.1,-15.78 -30.1,-24.95 19.3,31.87 40.3,63.03 58.1,82.54 z m -89.6,-187.69 c -1.2,-2.42 -2.1,-4.84 -3.2,-7.23 -0.5,1.99 -1,3.6 -1.4,5.6 1.6,0.44 3.1,1.11 4.6,1.63" /><path
           style="fill:#6adf5f;fill-opacity:1;fill-rule:evenodd;stroke:none"
           id="path20"
           inkscape:connector-curvature="0"
           d="m 3669.1352,7395.86 c -14.98,-0.06 -28.48,-9.05 -34.28,-22.86 -16.38,-37.5 -13.35,-78.66 -10.72,-126.36 2.63,-47.71 7.69,-100.68 7.69,-150.39 -0.19,-13.45 6.8,-25.86 18.42,-32.64 11.62,-6.78 26.15,-6.78 37.77,0 11.62,6.78 18.61,19.19 18.42,32.64 0,54.61 -5.19,109.19 -7.69,154.58 -2.5,45.4 0.52,82.86 4.66,92.33 5.25,11.59 4.14,25.01 -2.8,35.67 -6.94,10.67 -18.75,17.12 -31.47,17.03 z m 253.9,-17.26 c -4.26,0.07 -8.6,-0.08 -12.82,-0.47 -25.35,-2.3 -49.26,-12.53 -70.42,-26.58 -28.2,-18.72 -52.44,-45.05 -67.61,-76.7 -15.17,-31.66 -20.84,-70.64 -6.06,-107.49 14.77,-36.84 48.39,-67.49 98.16,-88.13 39.12,-16.23 81.3,-6 111.21,15.62 24.58,17.77 43.47,42.39 56.19,70.18 15.26,-35.76 48.31,-65.61 96.99,-85.8 39.13,-16.23 81.31,-6 111.21,15.62 29.91,21.62 51.5,53.28 63.66,88.6 12.16,35.32 14.83,75.43 -0.24,112.61 -15.06,37.19 -50.06,68.27 -98.85,80.67 -1.39,0.39 -2.78,0.71 -4.2,0.94 -8.74,1.17 -17.43,1.23 -25.88,0.46 -25.34,-2.3 -49.02,-12.53 -70.18,-26.58 -24.68,-16.38 -46.36,-38.54 -61.55,-65.05 -1.03,3.23 -2.21,6.38 -3.5,9.56 -15.07,37.19 -50.29,68.27 -99.09,80.67 -1.38,0.39 -2.78,0.71 -4.2,0.94 -4.36,0.58 -8.56,0.87 -12.82,0.93 z m 619.02,0 c -4.32,0.07 -8.6,-0.08 -12.82,-0.47 -25.35,-2.3 -49.02,-12.53 -70.18,-26.58 -28.2,-18.72 -52.44,-45.05 -67.61,-76.7 -15.18,-31.66 -20.84,-70.64 -6.07,-107.49 14.78,-36.84 48.39,-67.49 98.16,-88.13 39.13,-16.23 81.31,-6 111.21,15.62 24.57,17.76 43.29,42.41 55.96,70.18 15.24,-35.8 48.51,-65.6 97.23,-85.8 39.13,-16.23 81.3,-6 111.21,15.62 24.57,17.76 43.29,42.41 55.96,70.18 15.24,-35.8 48.5,-65.6 97.22,-85.8 39.13,-16.23 81.07,-6 110.98,15.62 29.91,21.62 51.49,53.28 63.66,88.6 12.16,35.32 15.06,75.43 0,112.61 -15.08,37.19 -50.07,68.27 -98.86,80.67 -1.38,0.39 -2.79,0.71 -4.2,0.94 -8.73,1.17 -17.43,1.23 -25.88,0.46 -25.35,-2.3 -49.26,-12.53 -70.41,-26.58 -24.82,-16.47 -46.4,-38.81 -61.55,-65.51 -1.07,3.36 -2.16,6.7 -3.5,10.02 -15.07,37.19 -50.07,68.27 -98.86,80.67 -1.38,0.39 -2.78,0.71 -4.19,0.94 -8.74,1.17 -17.44,1.23 -25.89,0.46 -25.34,-2.3 -49.25,-12.53 -70.41,-26.58 -24.82,-16.47 -46.39,-38.81 -61.55,-65.51 -1.07,3.36 -2.15,6.7 -3.5,10.02 -15.07,37.19 -50.06,68.27 -98.85,80.67 -1.39,0.39 -2.78,0.71 -4.2,0.94 -4.37,0.58 -8.74,0.87 -13.06,0.93 z m 868.5,0 c -4.33,0.07 -8.6,-0.08 -12.83,-0.47 -25.34,-2.3 -49.25,-12.53 -70.41,-26.58 -28.2,-18.72 -52.21,-45.05 -67.38,-76.7 -15.17,-31.66 -20.84,-70.64 -6.06,-107.49 14.77,-36.84 48.39,-67.49 98.16,-88.13 39.12,-16.23 81.3,-6 111.21,15.62 29.91,21.62 51.26,53.28 63.42,88.6 12.16,35.32 15.06,75.43 0,112.61 -15.07,37.19 -50.06,68.27 -98.86,80.67 -1.38,0.39 -2.78,0.71 -4.2,0.94 -4.36,0.58 -8.73,0.87 -13.05,0.93 z m -1490.32,-75.08 c 1.47,0.06 2.92,0.11 4.2,0 28.18,-7.79 39.2,-19.98 45.46,-35.43 6.48,-15.99 6.13,-38.54 -1.4,-60.39 -7.52,-21.86 -22.03,-41.93 -36.6,-52.46 -14.57,-10.53 -25.22,-12.68 -38.93,-6.99 -37.18,15.41 -51.84,32.51 -57.59,46.86 -5.76,14.35 -4.23,29.99 4.19,47.56 8.42,17.57 24.29,35.21 41.5,46.63 14.44,9.59 28.93,13.85 39.17,14.22 z m 264.17,0 c 1.46,0.07 2.91,0.1 4.19,0 28.21,-7.79 39.44,-19.98 45.7,-35.43 6.48,-15.99 6.13,-38.54 -1.4,-60.39 -7.52,-21.86 -22.27,-41.93 -36.84,-52.46 -14.57,-10.53 -24.99,-12.68 -38.7,-6.99 -37.18,15.41 -51.84,32.51 -57.59,46.86 -5.75,14.35 -4.22,29.99 4.2,47.56 8.42,17.57 24.28,35.21 41.5,46.63 14.35,9.53 28.71,13.81 38.94,14.22 z m 354.86,0 c 1.45,0.06 2.92,0.11 4.19,0 28.21,-7.79 39.43,-19.98 45.7,-35.43 6.48,-15.99 6.13,-38.54 -1.4,-60.39 -7.53,-21.86 -22.27,-41.93 -36.84,-52.46 -14.57,-10.53 -25.22,-12.68 -38.94,-6.99 -37.17,15.41 -51.6,32.51 -57.35,46.86 -5.75,14.35 -4.46,29.99 3.96,47.56 8.42,17.57 24.52,35.21 41.74,46.63 14.43,9.58 28.73,13.85 38.94,14.22 z m 264.39,0 c 1.46,0.06 2.92,0.11 4.2,0 28.2,-7.79 39.43,-19.98 45.7,-35.43 6.47,-15.99 6.12,-38.54 -1.4,-60.39 -7.53,-21.86 -22.27,-41.93 -36.84,-52.46 -14.57,-10.53 -25.23,-12.68 -38.94,-6.99 -37.18,15.41 -51.6,32.51 -57.36,46.86 -5.75,14.35 -4.45,29.99 3.97,47.56 8.42,17.57 24.29,35.21 41.5,46.63 14.44,9.59 28.92,13.85 39.17,14.22 z m 264.4,0 c 1.46,0.06 2.92,0.11 4.19,0 28.18,-7.79 39.21,-19.98 45.47,-35.43 6.47,-15.99 6.35,-38.54 -1.17,-60.39 -7.52,-21.86 -22.26,-41.93 -36.84,-52.46 -14.57,-10.53 -25.22,-12.68 -38.93,-6.99 -37.18,15.41 -51.6,32.51 -57.36,46.86 -5.76,14.35 -4.45,29.99 3.96,47.56 8.42,17.57 24.29,35.21 41.51,46.63 14.43,9.59 28.92,13.85 39.17,14.22 z m 339.7,0 c 1.46,0.06 2.92,0.11 4.2,0 28.2,-7.79 39.43,-19.98 45.69,-35.43 6.48,-15.99 6.13,-38.54 -1.4,-60.39 -7.52,-21.86 -22.26,-41.93 -36.83,-52.46 -14.57,-10.53 -25.23,-12.68 -38.94,-6.99 -37.18,15.41 -51.6,32.51 -57.35,46.86 -5.76,14.35 -4.46,29.99 3.96,47.56 8.42,17.57 24.29,35.21 41.5,46.63 14.43,9.58 28.92,13.85 39.17,14.22 z M 2793.638,7220.29 c -20.6021,-0.45 -36.8201,-17.4 -36.3711,-38 0.449,-20.61 17.402,-37.06 38.0041,-36.61 l 575.8879,-17.48 c 20.6061,-0.65 37.8282,15.53 38.4732,36.13 0.645,20.6 -15.5351,37.83 -36.1411,38.47 l -576.123,17.49 c -1.242,0.06 -2.488,0.06 -3.73,0 z m 875.4972,-881.79 c -14.98,-0.04 -28.48,-9.04 -34.28,-22.84 -16.38,-37.51 -13.35,-78.67 -10.72,-126.37 2.63,-47.71 7.69,-100.67 7.69,-150.39 -0.19,-13.45 6.8,-25.86 18.42,-32.64 11.62,-6.78 26.15,-6.78 37.77,0 11.62,6.78 18.61,19.19 18.42,32.64 0,54.61 -5.19,108.95 -7.69,154.35 -2.5,45.39 0.52,83.09 4.66,92.56 5.25,11.59 4.14,25.01 -2.8,35.67 -6.94,10.67 -18.75,17.12 -31.47,17.02 z m 247.37,-17.25 c -2.12,-0.06 -4.18,-0.27 -6.29,-0.46 -25.35,-2.31 -49.26,-12.77 -70.42,-26.82 -28.2,-18.72 -52.44,-44.82 -67.61,-76.47 -15.17,-31.66 -20.84,-70.64 -6.06,-107.49 14.77,-36.84 48.39,-67.49 98.16,-88.13 39.12,-16.22 81.3,-6.23 111.21,15.39 24.58,17.77 43.47,42.57 56.19,70.41 15.26,-35.77 48.31,-65.61 96.99,-85.8 39.13,-16.22 81.31,-6.23 111.21,15.39 29.91,21.62 51.5,53.51 63.66,88.83 12.16,35.33 14.83,75.42 -0.24,112.61 -15.06,37.19 -50.06,68.27 -98.85,80.68 -1.39,0.31 -2.79,0.54 -4.2,0.7 -8.74,1.16 -17.43,1.46 -25.88,0.7 -25.35,-2.31 -49.02,-12.77 -70.18,-26.82 -24.68,-16.38 -46.36,-38.36 -61.55,-64.81 -1.03,3.22 -2.21,6.37 -3.5,9.55 -15.07,37.19 -50.29,68.27 -99.09,80.68 -1.38,0.31 -2.79,0.54 -4.2,0.7 -6.55,0.87 -12.99,1.35 -19.35,1.16 z m 619.03,0 c -2.15,-0.06 -4.19,-0.27 -6.3,-0.46 -25.35,-2.31 -49.02,-12.77 -70.18,-26.82 -28.2,-18.72 -52.44,-44.82 -67.61,-76.47 -15.18,-31.66 -20.84,-70.64 -6.07,-107.49 14.78,-36.84 48.39,-67.49 98.16,-88.13 39.13,-16.22 81.31,-6.23 111.21,15.39 24.57,17.76 43.29,42.58 55.96,70.41 15.24,-35.8 48.51,-65.59 97.23,-85.8 39.13,-16.22 81.3,-6.23 111.21,15.39 24.57,17.76 43.29,42.58 55.96,70.41 15.24,-35.8 48.5,-65.59 97.22,-85.8 39.13,-16.22 81.07,-6.23 110.98,15.39 29.91,21.62 51.49,53.51 63.66,88.83 12.16,35.33 15.06,75.42 0,112.61 -15.08,37.19 -50.07,68.27 -98.86,80.68 -1.39,0.31 -2.79,0.54 -4.2,0.7 -8.73,1.16 -17.43,1.46 -25.88,0.7 -25.35,-2.31 -49.26,-12.77 -70.41,-26.82 -24.82,-16.48 -46.4,-38.62 -61.55,-65.28 -1.07,3.36 -2.16,6.7 -3.5,10.02 -15.07,37.19 -50.07,68.27 -98.86,80.68 -1.38,0.31 -2.78,0.54 -4.19,0.7 -8.74,1.16 -17.44,1.46 -25.89,0.7 -25.34,-2.31 -49.25,-12.77 -70.41,-26.82 -24.82,-16.48 -46.39,-38.62 -61.55,-65.28 -1.07,3.36 -2.15,6.7 -3.5,10.02 -15.07,37.19 -50.06,68.27 -98.85,80.68 -1.39,0.31 -2.79,0.54 -4.2,0.7 -6.55,0.87 -13.17,1.35 -19.58,1.16 z m -614.83,-75.07 c 1.47,0.03 2.93,-0.12 4.2,-0.24 27.77,-7.8 38.77,-20.08 44.99,-35.44 6.48,-15.98 6.13,-38.3 -1.4,-60.15 -7.52,-21.86 -22.03,-41.93 -36.6,-52.46 -14.57,-10.53 -25.22,-12.91 -38.93,-7.23 -37.18,15.42 -51.84,32.75 -57.59,47.1 -5.76,14.35 -4.23,29.76 4.19,47.33 8.42,17.57 24.29,35.43 41.5,46.86 14.62,9.71 29.36,13.99 39.64,14.23 z m 264.16,0 c 1.47,0.03 2.93,-0.13 4.2,-0.24 27.8,-7.8 39.01,-20.08 45.23,-35.44 6.48,-15.98 6.13,-38.3 -1.4,-60.15 -7.52,-21.86 -22.27,-41.93 -36.84,-52.46 -14.57,-10.53 -24.99,-12.91 -38.7,-7.23 -37.18,15.42 -51.84,32.75 -57.59,47.1 -5.75,14.35 -4.22,29.76 4.2,47.33 8.42,17.57 24.28,35.43 41.5,46.86 14.53,9.65 29.14,13.94 39.4,14.23 z m 354.86,0 c 1.46,0.03 2.93,-0.12 4.2,-0.24 27.8,-7.8 39.01,-20.08 45.23,-35.44 6.48,-15.98 6.13,-38.3 -1.4,-60.15 -7.53,-21.86 -22.27,-41.93 -36.84,-52.46 -14.57,-10.53 -25.22,-12.91 -38.94,-7.23 -37.17,15.42 -51.6,32.75 -57.35,47.1 -5.75,14.35 -4.46,29.76 3.96,47.33 8.42,17.57 24.52,35.43 41.74,46.86 14.61,9.7 29.17,13.98 39.4,14.23 z m 264.4,0 c 1.46,0.03 2.93,-0.12 4.19,-0.24 27.81,-7.8 39.01,-20.08 45.24,-35.44 6.47,-15.98 6.12,-38.3 -1.4,-60.15 -7.53,-21.86 -22.27,-41.93 -36.84,-52.46 -14.57,-10.53 -25.23,-12.91 -38.94,-7.23 -37.18,15.42 -51.6,32.75 -57.36,47.1 -5.75,14.35 -4.45,29.76 3.97,47.33 8.42,17.57 24.29,35.43 41.5,46.86 14.62,9.71 29.36,13.99 39.64,14.23 z m 264.39,0 c 1.47,0.03 2.93,-0.12 4.2,-0.24 27.77,-7.8 38.78,-20.08 45,-35.44 6.47,-15.98 6.35,-38.3 -1.17,-60.15 -7.52,-21.86 -22.26,-41.93 -36.84,-52.46 -14.57,-10.53 -25.22,-12.91 -38.93,-7.23 -37.18,15.42 -51.6,32.75 -57.36,47.1 -5.76,14.35 -4.45,29.76 3.96,47.33 8.42,17.57 24.29,35.43 41.51,46.86 14.61,9.71 29.35,13.99 39.63,14.23 z M 2793.638,6162.94 c -20.6021,-0.45 -36.8201,-17.4 -36.3711,-38.01 0.449,-20.6 17.402,-37.05 38.0041,-36.6 l 575.8879,-17.49 c 20.6061,-0.64 37.8282,15.54 38.4732,36.14 0.645,20.61 -15.5351,37.83 -36.1411,38.47 l -576.123,17.49 c -1.242,0.06 -2.488,0.06 -3.73,0 z m 876.8972,-881.79 c -1.66,0.04 -3.46,-0.04 -5.13,-0.23 -13.61,-1.44 -25.32,-10.21 -30.55,-22.85 -16.38,-37.5 -13.35,-78.66 -10.72,-126.37 2.63,-47.7 7.69,-100.67 7.69,-150.38 -0.19,-13.46 6.8,-25.86 18.42,-32.64 11.62,-6.79 26.15,-6.79 37.77,0 11.62,6.78 18.61,19.19 18.42,32.64 0,54.61 -5.19,109.18 -7.69,154.58 -2.5,45.4 0.52,82.86 4.66,92.33 5.63,12.22 4.37,26.63 -3.5,37.54 -6.88,9.54 -17.8,15.11 -29.37,15.38 z m 252.5,-17.48 c -4.26,0.06 -8.6,-0.08 -12.82,-0.47 -25.35,-2.3 -49.26,-12.54 -70.42,-26.58 -28.2,-18.72 -52.44,-45.05 -67.61,-76.71 -15.17,-31.65 -20.84,-70.64 -6.06,-107.48 14.77,-36.84 48.39,-67.49 98.16,-88.13 39.12,-16.23 81.3,-6 111.21,15.62 24.58,17.77 43.47,42.39 56.19,70.18 15.26,-35.77 48.31,-65.62 96.99,-85.8 39.13,-16.23 81.31,-6 111.21,15.62 29.91,21.62 51.5,53.28 63.66,88.6 12.16,35.32 14.83,75.42 -0.24,112.61 -15.06,37.19 -50.06,68.5 -98.85,80.91 -1.39,0.31 -2.79,0.54 -4.2,0.69 -8.74,1.18 -17.43,1.24 -25.88,0.47 -25.34,-2.3 -49.02,-12.54 -70.18,-26.58 -24.68,-16.38 -46.36,-38.55 -61.55,-65.05 -1.03,3.22 -2.21,6.38 -3.5,9.56 -15.07,37.19 -50.29,68.5 -99.09,80.91 -1.38,0.31 -2.79,0.54 -4.2,0.69 -4.36,0.59 -8.56,0.87 -12.82,0.94 z m 619.02,0 c -4.32,0.06 -8.6,-0.08 -12.82,-0.47 -25.35,-2.3 -49.02,-12.54 -70.18,-26.58 -28.2,-18.72 -52.44,-45.05 -67.61,-76.71 -15.18,-31.65 -20.84,-70.64 -6.07,-107.48 14.78,-36.84 48.39,-67.49 98.16,-88.13 39.13,-16.23 81.31,-6 111.21,15.62 24.57,17.76 43.29,42.4 55.96,70.18 15.24,-35.81 48.51,-65.6 97.23,-85.8 39.13,-16.23 81.3,-6 111.21,15.62 29.91,21.62 51.26,53.28 63.42,88.6 12.16,35.32 15.07,75.42 0,112.61 -15.07,37.19 -50.07,68.5 -98.86,80.91 -1.38,0.31 -2.78,0.54 -4.19,0.69 -8.74,1.18 -17.44,1.24 -25.89,0.47 -25.34,-2.3 -49.25,-12.54 -70.41,-26.58 -24.82,-16.48 -46.39,-38.82 -61.55,-65.51 -1.07,3.36 -2.15,6.7 -3.5,10.02 -15.07,37.19 -50.06,68.5 -98.85,80.91 -1.39,0.31 -2.79,0.54 -4.2,0.69 -4.37,0.59 -8.74,0.87 -13.06,0.94 z m -621.82,-75.08 c 1.47,0.05 2.92,0.11 4.2,0 28.17,-7.79 39.2,-19.99 45.46,-35.44 6.48,-15.98 6.13,-38.29 -1.4,-60.15 -7.52,-21.86 -22.03,-42.16 -36.6,-52.7 -14.57,-10.53 -25.22,-12.68 -38.93,-6.99 -37.18,15.42 -51.84,32.75 -57.59,47.1 -5.76,14.35 -4.23,29.76 4.19,47.33 8.42,17.57 24.29,35.2 41.5,46.63 14.44,9.59 28.93,13.85 39.17,14.22 z m 264.4,0 c 1.46,0.05 2.92,0.11 4.2,0 28.02,-7.8 39.22,-20.02 45.46,-35.44 6.48,-15.98 6.13,-38.29 -1.4,-60.15 -7.52,-21.86 -22.27,-42.16 -36.84,-52.7 -14.57,-10.53 -24.99,-12.68 -38.7,-6.99 -37.18,15.42 -51.84,32.75 -57.59,47.1 -5.75,14.35 -4.22,29.76 4.2,47.33 8.42,17.57 24.28,35.2 41.5,46.63 14.44,9.59 28.92,13.85 39.17,14.22 z m 354.63,0 c 1.45,0.05 2.92,0.11 4.19,0 28.2,-7.79 39.43,-19.98 45.7,-35.44 6.48,-15.98 6.13,-38.29 -1.4,-60.15 -7.53,-21.86 -22.27,-42.16 -36.84,-52.7 -14.57,-10.53 -25.22,-12.68 -38.94,-6.99 -37.17,15.42 -51.6,32.75 -57.35,47.1 -5.75,14.35 -4.46,29.76 3.96,47.33 8.42,17.57 24.52,35.2 41.74,46.63 14.43,9.58 28.73,13.84 38.94,14.22 z m 264.39,0 c 1.46,0.05 2.92,0.11 4.2,0 28.2,-7.79 39.43,-19.98 45.7,-35.44 6.47,-15.98 6.12,-38.29 -1.4,-60.15 -7.53,-21.86 -22.27,-42.16 -36.84,-52.7 -14.57,-10.53 -25.23,-12.68 -38.94,-6.99 -37.18,15.42 -51.6,32.75 -57.36,47.1 -5.75,14.35 -4.45,29.76 3.97,47.33 8.42,17.57 24.29,35.2 41.5,46.63 14.44,9.59 28.92,13.85 39.17,14.22 z M 2793.638,5105.36 c -20.6021,-0.45 -36.8201,-17.41 -36.3711,-38.01 0.449,-20.6 17.402,-37.05 38.0041,-36.6 l 575.8879,-17.26 c 13.9141,-1.47 27.5471,5.09 35.2072,16.79 7.664,11.7 8.079,26.54 1.168,38.7 -6.9141,12.16 -20.0661,19.48 -34.0431,18.89 l -576.123,17.49 c -1.242,0.06 -2.488,0.06 -3.73,0 z m 875.4972,-881.79 c -14.98,-0.05 -28.48,-9.04 -34.28,-22.85 -16.38,-37.5 -13.35,-78.66 -10.72,-126.37 2.63,-47.7 7.69,-100.67 7.69,-150.38 -0.19,-13.45 6.8,-25.86 18.42,-32.64 11.62,-6.78 26.15,-6.78 37.77,0 11.62,6.78 18.61,19.19 18.42,32.64 0,54.6 -5.19,108.95 -7.69,154.35 -2.5,45.39 0.52,83.09 4.66,92.56 5.25,11.59 4.14,25 -2.8,35.67 -6.94,10.67 -18.75,17.12 -31.47,17.02 z m 253.9,-17.25 c -4.26,0.06 -8.6,-0.09 -12.82,-0.47 -25.35,-2.3 -49.26,-12.53 -70.42,-26.58 -28.2,-18.72 -52.44,-45.05 -67.61,-76.71 -15.17,-31.65 -20.84,-70.63 -6.06,-107.48 14.77,-36.84 48.39,-67.49 98.16,-88.13 39.12,-16.23 81.3,-6 111.21,15.62 24.58,17.77 43.47,42.39 56.19,70.18 15.26,-35.77 48.31,-65.62 96.99,-85.8 39.13,-16.23 81.31,-6 111.21,15.62 29.91,21.62 51.5,53.27 63.66,88.6 12.16,35.32 14.83,75.42 -0.24,112.61 -15.06,37.19 -50.06,68.27 -98.85,80.67 -1.39,0.39 -2.78,0.71 -4.2,0.94 -8.74,1.16 -17.43,1.23 -25.88,0.46 -25.34,-2.3 -49.02,-12.53 -70.18,-26.58 -24.68,-16.38 -46.36,-38.55 -61.55,-65.05 -1.03,3.23 -2.21,6.38 -3.5,9.56 -15.07,37.19 -50.29,68.27 -99.09,80.67 -1.38,0.39 -2.78,0.71 -4.2,0.94 -4.36,0.58 -8.56,0.86 -12.82,0.93 z m 619.02,0 c -4.32,0.06 -8.6,-0.09 -12.82,-0.47 -25.35,-2.3 -49.02,-12.53 -70.18,-26.58 -28.2,-18.72 -52.44,-45.05 -67.61,-76.71 -15.18,-31.65 -20.84,-70.63 -6.07,-107.48 14.78,-36.84 48.39,-67.49 98.16,-88.13 39.13,-16.23 81.31,-6 111.21,15.62 29.91,21.62 51.26,53.27 63.42,88.6 12.16,35.32 15.07,75.42 0,112.61 -15.07,37.19 -50.06,68.27 -98.85,80.67 -1.39,0.39 -2.78,0.71 -4.2,0.94 -4.37,0.58 -8.74,0.86 -13.06,0.93 z m -621.35,-75.08 c 1.47,0.04 2.93,-0.11 4.2,-0.23 27.77,-7.8 38.77,-19.86 44.99,-35.21 6.48,-15.98 6.13,-38.53 -1.4,-60.38 -7.52,-21.86 -22.03,-41.93 -36.6,-52.46 -14.57,-10.53 -25.22,-12.68 -38.93,-7 -37.18,15.42 -51.84,32.52 -57.59,46.86 -5.76,14.36 -4.23,30 4.19,47.57 8.42,17.57 24.29,35.2 41.5,46.63 14.62,9.7 29.36,13.98 39.64,14.22 z m 264.16,0 c 1.47,0.04 2.93,-0.12 4.2,-0.23 27.8,-7.8 39.01,-19.85 45.23,-35.21 6.48,-15.98 6.13,-38.53 -1.4,-60.38 -7.52,-21.86 -22.27,-41.93 -36.84,-52.46 -14.57,-10.53 -24.99,-12.68 -38.7,-7 -37.18,15.42 -51.84,32.52 -57.59,46.86 -5.75,14.36 -4.22,30 4.2,47.57 8.42,17.57 24.28,35.2 41.5,46.63 14.53,9.64 29.14,13.94 39.4,14.22 z m 354.86,0 c 1.46,0.04 2.93,-0.11 4.2,-0.23 27.8,-7.8 39.01,-19.85 45.23,-35.21 6.48,-15.98 6.13,-38.53 -1.4,-60.38 -7.53,-21.86 -22.27,-41.93 -36.84,-52.46 -14.57,-10.53 -25.22,-12.68 -38.94,-7 -37.17,15.42 -51.6,32.52 -57.35,46.86 -5.75,14.36 -4.46,30 3.96,47.57 8.42,17.57 24.52,35.2 41.74,46.63 14.61,9.7 29.17,13.98 39.4,14.22 z M 2793.638,4048.01 c -20.6021,-0.46 -36.8201,-17.4 -36.3711,-38.01 0.449,-20.6 17.402,-37.05 38.0041,-36.6 l 575.8879,-17.49 c 20.6061,-0.64 37.8282,15.54 38.4732,36.14 0.645,20.6 -15.5351,37.83 -36.1411,38.47 l -576.123,17.49 c -1.242,0.06 -2.488,0.06 -3.73,0 z m 875.4972,-881.79 c -14.98,-0.05 -28.48,-9.04 -34.28,-22.85 -16.38,-37.5 -13.35,-78.9 -10.72,-126.6 2.63,-47.7 7.69,-100.67 7.69,-150.38 -0.19,-13.46 6.8,-25.86 18.42,-32.64 11.62,-6.79 26.15,-6.79 37.77,0 11.62,6.78 18.61,19.18 18.42,32.64 0,54.6 -5.19,109.18 -7.69,154.57 -2.5,45.4 0.52,82.86 4.66,92.34 5.36,11.61 4.39,25.16 -2.57,35.9 -6.95,10.74 -18.91,17.16 -31.7,17.02 z m 253.9,-17.49 c -4.26,0.07 -8.6,-0.08 -12.82,-0.46 -25.35,-2.31 -49.26,-12.54 -70.42,-26.58 -28.2,-18.73 -52.44,-45.05 -67.61,-76.71 -15.17,-31.66 -20.84,-70.41 -6.06,-107.25 14.77,-36.84 48.39,-67.49 98.16,-88.13 39.12,-16.23 81.3,-6.23 111.21,15.39 24.58,17.76 43.47,42.56 56.19,70.41 15.26,-35.77 48.31,-65.61 96.99,-85.8 39.13,-16.23 81.31,-6.23 111.21,15.39 29.91,21.62 51.5,53.51 63.66,88.83 12.16,35.32 14.83,75.19 -0.24,112.38 -15.06,37.19 -50.06,68.5 -98.85,80.9 -1.39,0.31 -2.79,0.55 -4.2,0.7 -8.74,1.17 -17.43,1.24 -25.88,0.47 -25.34,-2.31 -49.02,-12.54 -70.18,-26.58 -24.68,-16.39 -46.36,-38.55 -61.55,-65.05 -1.03,3.22 -2.21,6.38 -3.5,9.56 -15.07,37.19 -50.29,68.5 -99.09,80.9 -1.38,0.31 -2.79,0.55 -4.2,0.7 -4.36,0.59 -8.56,0.87 -12.82,0.93 z m -2.33,-74.84 c 1.47,0.04 2.93,-0.11 4.2,-0.23 27.77,-7.8 38.77,-20.09 44.99,-35.44 6.48,-15.99 6.13,-38.3 -1.4,-60.15 -7.52,-21.86 -22.03,-42.16 -36.6,-52.69 -14.57,-10.54 -25.22,-12.69 -38.93,-7 -37.18,15.42 -51.84,32.74 -57.59,47.1 -5.76,14.34 -4.23,29.75 4.19,47.32 8.42,17.58 24.29,35.44 41.5,46.87 14.62,9.7 29.36,13.98 39.64,14.22 z m 264.16,0 c 1.47,0.04 2.93,-0.12 4.2,-0.23 27.8,-7.8 39.01,-20.08 45.23,-35.44 6.48,-15.99 6.13,-38.3 -1.4,-60.15 -7.52,-21.86 -22.27,-42.16 -36.84,-52.69 -14.57,-10.54 -24.99,-12.69 -38.7,-7 -37.18,15.42 -51.84,32.74 -57.59,47.1 -5.75,14.34 -4.22,29.75 4.2,47.32 8.42,17.58 24.28,35.44 41.5,46.87 14.53,9.64 29.14,13.94 39.4,14.22 z M 2793.638,2990.42 c -19.3911,-1.93 -34.0001,-18.52 -33.5741,-38 0.429,-19.48 15.7501,-35.3 35.2071,-36.37 l 575.8879,-17.49 c 20.6061,-0.64 37.8282,15.54 38.4732,36.14 0.645,20.6 -15.5351,37.83 -36.1411,38.47 l -576.123,17.25 c -1.242,0.06 -2.488,0.06 -3.73,0 z m 875.4972,-881.78 c -14.98,-0.05 -28.48,-9.05 -34.28,-22.85 -16.38,-37.5 -13.35,-78.67 -10.72,-126.37 2.63,-47.71 7.69,-100.67 7.69,-150.38 -0.19,-13.46 6.8,-25.86 18.42,-32.65 11.62,-6.78 26.15,-6.78 37.77,0 11.62,6.79 18.61,19.19 18.42,32.65 0,54.6 -5.19,109.18 -7.69,154.58 -2.5,45.39 0.52,82.85 4.66,92.33 5.25,11.59 4.14,25 -2.8,35.67 -6.94,10.67 -18.75,17.11 -31.47,17.02 z m 253.9,-17.26 c -4.26,0.07 -8.6,-0.08 -12.82,-0.46 -25.35,-2.3 -49.26,-12.54 -70.42,-26.58 -28.2,-18.73 -52.44,-45.05 -67.61,-76.71 -15.17,-31.65 -20.84,-70.64 -6.06,-107.48 14.77,-36.85 48.39,-67.49 98.16,-88.13 39.12,-16.23 81.3,-6 111.21,15.62 29.91,21.61 51.49,53.27 63.65,88.59 12.16,35.33 15.07,75.43 0,112.62 -15.07,37.19 -50.29,68.27 -99.09,80.67 -1.38,0.39 -2.78,0.7 -4.2,0.93 -4.36,0.59 -8.56,0.87 -12.82,0.93 z m -2.8,-75.07 c 1.47,0.05 2.92,0.1 4.2,0 28.18,-7.79 39.2,-19.99 45.46,-35.44 6.48,-15.98 6.13,-38.53 -1.4,-60.39 -7.52,-21.85 -22.03,-41.93 -36.6,-52.46 -14.57,-10.53 -25.22,-12.68 -38.93,-6.99 -37.18,15.42 -51.84,32.51 -57.59,46.86 -5.76,14.35 -4.23,30 4.19,47.57 8.42,17.57 24.29,35.2 41.5,46.63 14.44,9.59 28.93,13.85 39.17,14.22 z M 2793.638,1933.07 c -20.6021,-0.45 -36.8201,-17.4 -36.3711,-38 0.449,-20.61 17.402,-37.06 38.0041,-36.61 l 575.8879,-17.48 c 20.6061,-0.64 37.8282,15.54 38.4732,36.14 0.645,20.6 -15.5351,37.82 -36.1411,38.47 l -576.123,17.48 c -1.242,0.07 -2.488,0.07 -3.73,0 z m 1122.8672,-899.03 c -2.12,-0.07 -4.18,-0.28 -6.29,-0.47 -25.35,-2.3 -49.26,-12.77 -70.42,-26.82 -28.2,-18.719 -52.44,-44.812 -67.61,-76.469 -15.17,-31.656 -20.84,-70.64 -6.06,-107.484 14.77,-36.844 48.39,-67.492 98.16,-88.133 39.12,-16.226 81.3,-6.226 111.21,15.391 29.91,21.617 51.49,53.507 63.65,88.832 12.16,35.324 15.07,75.187 0,112.379 -15.07,37.187 -50.29,68.504 -99.09,80.904 -1.38,0.31 -2.79,0.54 -4.2,0.7 -6.55,0.88 -12.99,1.35 -19.35,1.17 z m 4.2,-75.079 c 1.47,0.031 2.93,-0.113 4.2,-0.234 27.77,-7.805 38.77,-20.09 44.99,-35.442 6.48,-15.984 6.13,-38.297 -1.4,-60.152 -7.52,-21.856 -22.03,-41.926 -36.6,-52.457 -14.57,-10.535 -25.22,-12.914 -38.93,-7.231 -37.18,15.418 -51.84,32.746 -57.59,47.098 -5.76,14.352 -4.23,29.762 4.19,47.332 8.42,17.57 24.29,35.434 41.5,46.863 14.62,9.7 29.36,13.981 39.64,14.223 z M 2793.638,875.723 c -18.8631,-1.379 -33.9611,-16.821 -34.5041,-36.137 -0.582,-20.606 15.535,-37.891 36.1371,-38.473 l 575.8879,-17.484 c 20.6061,-0.645 37.8282,15.535 38.4732,36.137 0.645,20.601 -15.5351,37.828 -36.1411,38.472 l -576.123,17.485 c -1.285,0.039 -2.472,0.093 -3.73,0" /><path
           style="fill:#6adf5f;fill-opacity:1;fill-rule:evenodd;stroke:none"
           id="path22"
           inkscape:connector-curvature="0"
           d="m 12372.824,7981.07 c -3.137,-0.25 -6.274,-1.03 -9.324,-2.33 l -456.319,-192.12 c -11.502,-4.03 -20.041,-15.1 -22.307,-28.68 -2.265,-13.58 2.004,-27.48 11.415,-36.14 9.323,-8.66 22.219,-10.6 33.285,-5.13 l 354.896,149.45 -1963.708,-2793.87 -539.986,523.2 c -8.8005,8.51 -20.2325,12.55 -31.6906,11.19 -11.4581,-1.37 -21.9577,-8.01 -29.0504,-18.43 L 8083.819,3187.2 7466.2321,3976.89 c -8.269,10.67 -20.2761,16.64 -32.7101,16.32 -12.4339,-0.31 -24.0489,-6.87 -31.8996,-17.95 L 5893.3972,1846.81 4884.5272,2938.66 c -10.8743,12.67 -26.9331,17.47 -41.8417,12.59 -14.9086,-4.87 -26.2272,-18.55 -29.669,-35.9 -3.4244,-17.35 1.6032,-35.55 13.2095,-47.33 l 1042.19,-1128 c 8.5652,-9.27 20.1453,-13.94 31.8909,-13.06 11.7544,0.89 22.6287,7.25 30.0699,17.73 l 1505.7854,2124.95 618.2056,-790.62 c 8.3823,-10.72 20.5636,-16.58 33.1109,-16.09 12.5472,0.5 24.1709,7.3 31.8909,18.66 l 1640.2852,2406.84 539.5762,-522.73 c 8.731,-8.42 20.136,-12.47 31.49,-11.19 11.354,1.27 21.697,7.75 28.851,17.95 l 1986.502,2826.28 11.327,-449.75 c 0.61,-20.6 15.597,-36.78 33.547,-36.14 17.949,0.65 32.065,17.87 31.455,38.47 l -15.249,593.38 c -0.174,10.1 -3.833,19.72 -10.369,26.58 -6.447,6.85 -15.161,10.36 -23.961,9.79" /></g></g></g></svg>