<svg xmlns="http://www.w3.org/2000/svg" width="1443.52" height="972.338"><g fill-rule="evenodd"><path d="M653.997 872.622c-3.713.03-7.816.538-13.247 1.624-11.62 2.324-25.492-.838-40.083 1.594-14.903 2.484-33.413 3.155-49.083 3.155-19.203 0-38.79 1.594-57.955 1.594H374.47c-18.998 0-42.7 4.062-58.33.154-17.146-4.286-36.716-1.75-52.737-1.75-325.217-16.053-376.49 12.684 0 9.998 16.963 0 35.912-2.16 50.3 1.437 19.242 4.81 43.366.155 60.768.155h119.16c19.717 0 39.318-1.593 57.954-1.593 15.943 0 34.813-.658 50.737-3.31 11.924-1.99 25.894 1.275 40.4-1.626 13.712-2.743 14.99-1.79 28.4 1.562 10.305 2.575 22.072.124 30.18.124h4.936c.244.06.492.1.75.124 6.47.617 19.515 3.125 29.493 3.125h51.517c9.537 0 18.817-.395 26.15 1.438 13.502 3.375 27.103-1.437 36.648-1.437h45.052c16.807 0 32.562-3.25 48.3-3.25 13.494 0 27.28-1.592 40.272-1.592 14.39 0 29.613 4.843 46.672 4.843 15.53 0 30.606-1.623 45.092-1.623 12.22-.002 26.558 1.528 40.106-.284l14.78-12.933c-3.216.432-6.365.99-9.407 1.75-13.01 3.255-30.015 1.468-45.478 1.468-15.21 0-30.27 1.625-45.09 1.625-15.063 0-30.205-4.842-46.674-4.842-13.793 0-27.597 1.594-40.27 1.594-17.048 0-32.824 3.25-48.3 3.25h-45.053c-12.276 0-24.824 4.096-34.21 1.75-9.433-2.36-19.397-1.75-28.588-1.75h-51.52c-8.203 0-20.97-2.37-28.555-3.093-.192-.02-.402-.034-.592-.03-.387-.09-.78-.13-1.187-.126H701.3c-9.7 0-21.025 1.836-27.744.157-6.634-1.66-11.206-2.792-15.932-3.155-1.183-.09-2.388-.135-3.625-.125zm600.297 1.53l5.374 3.22 3.94 6.778c91.106.71 157.92 10.21 134.923.102-16.962-7.455-61.502-11.617-144.235-10.1M1206.925 379.396c-2.532.05-4.663 2.01-4.877 4.593-.215 2.75 1.85 5.147 4.596 5.37 4.18.54 11.323 1.34 18.438 2.688 7.102 1.345 14.245 3.503 17.206 5.498 5.414 3.642 10.613 7.51 15.758 11.467-9.286-5.608-18.304-10.943-25.004-13.623-5.28-2.112-10.6-2.8-15.61-2.656-5.026.144-9.743 1.108-13.816 2.375-1.77.474-3.136 1.905-3.565 3.687-.427 1.78.176 3.646 1.53 4.874 1.367 1.227 3.283 1.61 5.01 1 6.74-2.1 15.117-3.05 22.74 0 3.914 1.567 10.038 5.024 16.805 9-.362-.044-.777-.086-1.126-.127-2.158-.256-4.69-.398-7.344-.374-3.23-1.208-6.378-2.347-9.393-3.25-7.236-2.165-13.735-3.637-19.78-1.22-2.572 1.02-3.83 3.9-2.813 6.468 1.018 2.565 3.925 3.83 6.498 2.81.965-.387 3.203-.455 6.218-.03-5.173 2.302-11.524 3.762-17.876 8.53-6.097 4.583-12.502 10.36-16.468 17.963-3.324 6.38-6.633 12.425-10.05 18.997-3.203 6.15-7.156 13.23-9.38 20.87-.51 1.756-1.193 3.613-1.876 5.56-2.386-1.026-4.757-2.04-7.25-3.125-3.645-1.593-7.196-3.164-9.862-4.343-2.68-1.18-4.918-2.18-4.596-2.03-.617-.296-1.287-.47-1.97-.5-2.412-.13-4.556 1.464-5.12 3.81-.562 2.347.63 4.772 2.842 5.75.75.35 2.117.94 4.81 2.124 2.68 1.182 6.23 2.745 9.903 4.343 2.827 1.233 5.52 2.405 8.12 3.53-.763 2.69-1.407 5.46-1.742 8.278-.855 7.258-2.946 14.42-5.183 22.12-2.21 7.596-5.025 14.977-7.384 23.058-2.278 7.834-3.765 15.306-5.936 22.744-.308 1.083-.616 2.168-.938 3.25-12.128-23.8-17.676-59.168-28.42-87.667-.58-1.505-.63-3.18-.66-5.374-.026-2.194.148-5.078-1.567-8.187-.28-.538-.656-1.015-1.085-1.406 1.3-.715 2.117-1.795 2.586-2.593.67-1.125.965-2.115 1.246-3.123 1.138-4.036 1.62-9.172 2.036-10.59.59-2.024 1.045-2.982 1.46-4.624.43-1.645.443-3.743.068-5.812-.402-2.395-2.506-4.15-4.932-4.154-1.5-.004-2.894.66-3.845 1.812-.952 1.15-1.34 2.657-1.06 4.123.242 1.346.202 1.114.095 1.563-.12.448-.657 1.85-1.38 4.312-.416 1.42-.684 2.984-.938 4.498-1.742-2.367-3.672-4.81-5.56-7.03-.82-.963-1.596-1.854-2.306-2.593-.724-.738-.965-1.23-2.573-2.093-.39-.217-.91-.54-2.05-.656-1.153-.117-3.484.48-4.623 1.97-1.153 1.49-1.072 2.714-1.032 3.404.027.69.147 1.088.24 1.437.403 1.393.86 2.177 1.596 3.53.295.538.83 1.38 1.192 2-2.412-1.97-4.22-3.61-6.54-4.81-.575-.304-1.19-.607-2.37-.78-1.18-.176-3.793.214-5.186 2.06-1.394 1.847-1.153 3.357-1.032 4.28.12.925.335 1.577.603 2.28.884 2.465 3.537 3.836 6.057 3.126 0 .005.026-.007.026 0 .845.637 1.1.793 2.158 1.656 2.385 1.952 5.212 4.26 8.067 6.34 2.84 2.083 5.563 3.985 8.83 4.937.284.08.605.133.94.187.107.537.255 1.073.536 1.562.08.14.308 1.286.35 3.5.025 2.212.012 5.346 1.312 8.78 10.907 28.932 16 67.86 32.012 94.474.535.875 1.3 1.53 2.157 1.938-.563 1.958-1.14 3.914-1.715 5.873-2.198 7.578-3.793 15.25-5.816 22.184-1.782 6.144-3.55 12.286-5.333 18.432-2.292 7.89-2.426 15.06-4.248 21.338-1.112 3.793-4.167 16.664-7.29 29.68-2.184 9.154-4.087 16.928-5.373 22.12-1.152.776-1.956 2.028-2.157 3.5-.134 1.106.093 2.18.603 3.093v.03c-.188 2.32 1.273 4.51 3.59 5.187 1.823.53 3.686-.05 4.932-1.312 6.673 1.762 15.155 3.862 21.44 5.685 4.1 1.193 8.268 2.695 12.462 4.282-.027.217-.067.43-.067.655-.402 33.805-1.42 74.188 4.69 107.538.777 4.242 1.273 8.446 1.22 12.527 0 .063.026.125.026.188 0-.015-.05.187-.333.593-.576.812-1.77 2.108-3.377 3.5-3.23 2.786-8.027 6.073-12.932 9.124-4.917 3.05-9.97 5.875-13.842 7.997-1.943 1.063-3.578 1.985-4.784 2.625-.603.322-1.058.55-1.433.75-.378.202-.27.07-1.074.594-2.32 1.547-2.948 4.704-1.394 7.03 1.487 2.24 4.45 2.9 6.74 1.56-.094.063-.08.063.255-.154.08-.054.16-.082.254-.126.336-.18.83-.426 1.435-.75 1.206-.646 2.88-1.568 4.864-2.655 3.98-2.175 9.14-5.08 14.284-8.28 5.145-3.196 10.25-6.636 14.217-10.06 1.984-1.71 3.673-3.4 5.026-5.31 1.206-1.7 2.292-3.834 2.13-6.5h.028c.067-4.972-.523-9.837-1.38-14.495-5.642-30.793-4.972-69.35-4.557-102.6 6.406 2.317 13.012 4.412 19.993 5.53 11.66 1.86 23.974 8.598 38.62 9.153 7.223.273 16.536 3.86 25.782 7.185-.43 4.34-.845 8.676-1.354 13.56-.99 9.646-2.05 19.644-2.774 28.055-.737 8.412-1.206 14.834-.87 18.933 1.286 16.06-3.578 29-2.158 46.52.147 1.915.777 2.34 1.085 2.75.31.41.538.67.753.876.43.41.79.703 1.22 1.032.857.658 1.89 1.356 3.12 2.187 2.467 1.66 5.67 3.732 8.966 5.81 3.31 2.077 6.672 4.157 9.406 5.873 2.733 1.717 5.038 3.207 5.346 3.436 1.435 1.208 3.445 1.53 5.187.812 1.74-.716 2.92-2.345 3.095-4.218.16-1.873-.697-3.7-2.278-4.717-1.26-.92-3.203-2.14-5.977-3.874-2.76-1.733-6.11-3.818-9.366-5.873-3.27-2.057-6.446-4.085-8.724-5.624-.764-.52-1.233-.845-1.742-1.22-.683-14.305 3.538-27.015 2.117-44.55-.16-2.03.188-9 .912-17.28.71-8.276 1.742-18.253 2.747-27.9.428-4.066.763-7.57 1.125-11.277.415.126.83.255 1.245.374 7.062 2.053 13.71 4.66 21.213 6.844 1.393.404 2.773.815 4.154 1.22.093.023.174.04.254.062.322.178.657.328 1.032.435 2.653.772 5.44-.753 6.218-3.405.093-.32 1.688-5.043 3.752-10.935 2.063-5.892 4.69-13.41 7.343-20.932 2.653-7.523 5.306-15.057 7.37-20.933 2.063-5.877 3.39-9.61 3.87-11.278 1.128-3.876 3.62-7.94 5.188-13.34 1.675-5.777 3.59-10.23 5.4-16.466l6.07-20.807c.845-2.895 1.488-5.683 2.118-8.405 26.518-14.52 50.72-43.065 74.49-60.923 2.922-2.202 4.623-4.832 5.843-6.684 1.205-1.852 1.982-2.703 2.116-2.78.496-.265.95-.607 1.313-1 .32.13.602.233.87.312 3.283.952 6.606.825 10.13.593 3.51-.23 7.156-.69 10.21-1.06 1.355-.163 1.636-.133 2.695-.22 1.742 1.984 4.717 2.248 6.807.625.604-.452 1.153-.88 1.756-1.593.59-.715 1.622-1.88 1.434-4.187-.187-2.306-2.184-4.044-3.283-4.53-1.086-.485-1.783-.505-2.44-.562-2.6-.225-5.01.156-8.12.53.643-.33 1.554-.764 2.09-1.062 1.354-.742 2.17-1.16 3.257-2.123.268-.24.576-.525.964-1.093.39-.567 1.1-1.567.938-3.436-.16-1.87-1.81-3.61-2.84-4.124-1.032-.513-1.608-.53-2.064-.56-1.81-.128-2.318.196-3.31.436-1.005.238-2.104.533-3.31.906-2.8.86-5.762 1.906-8.51 2.968.604-1.423 1.274-2.88 1.69-4.31.723-2.463.99-3.935 1.125-4.375.147-.44-.054-.245.884-1.25 1.353-1.43 1.742-3.52.99-5.342-.75-1.822-2.49-3.035-4.46-3.092-1.475-.043-2.868.57-3.847 1.656-1.433 1.542-2.532 3.322-3.068 4.935-.524 1.615-.658 2.664-1.247 4.687-.416 1.418-2.76 6.017-3.967 10.03-.295 1.003-.576 2.004-.63 3.31-.026.937.108 2.277.845 3.593-.602.095-1.18.286-1.715.593-3.108 1.71-4.49 4.196-5.68 6.03-1.207 1.836-2.185 3.22-3.472 4.188-21.91 16.46-43.215 39.894-64.012 54.33 3.258-6.776 4.8-13.965 6.62-20.245 2.118-7.293 2.56-14.624 4.97-19.62 3.486-7.256 5.577-14.496 7.72-21.84 2.118-7.318 3.59-14.633 5.615-21.59 2.118-7.282 3.565-14.404 5.468-20.962 2.29-7.892 1.38-13.014 1.634-19.495.215-5.924-1.045-13.335-4.22-19.12-.496-.886-.724-2.202-.965-4.217-.254-2.017-.428-4.72-2.01-7.592-.08-.15-.75-2.26-1.272-4.53-.536-2.27-.858-4.838-2.88-7.53-2.226-2.973-4.142-6.91-8.055-10.53-2.278-2.103-5.668-6.928-11.028-10.06-.75-.432-2.144-1.72-3.78-3.28-1.647-1.558-3.63-3.556-6.873-4.498-3.457-1.005-8.79-3.83-14.54-5.5-4.274-1.242-8.722-3.183-12.582-5.435-1.835-1.065-3.845-1.928-5.91-2.625-13.09-9.744-25.553-20.435-39.89-30.087-5.63-3.786-13.36-5.62-20.972-7.06-7.598-1.44-15.048-2.24-18.988-2.75-.174-.024-.335-.05-.51-.06-.16-.015-.32-.005-.495 0zm29.708 44.084c3.59 1.38 7.343 2.885 11.162 4.404 8.094 3.22 16.482 6.458 24.402 8.5 7.906 2.04 15.463 3.075 22.244.717 1.034-.353 1.85-1.002 2.44-1.842.094-.037.188-.08.28-.125.123-.06.216-.148.337-.218 1.983.796 4.02 1.506 6.03 2.093 4.22 1.225 9.313 3.984 14.526 5.498.187.052 1.326.773 2.76 2.125 1.42 1.353 3.082 3.208 5.615 4.687 2.747 1.598 5.748 5.51 9.286 8.78 2.21 2.052 3.913 5.318 6.834 9.217-.094-.13.67 1.67 1.166 3.78.495 2.11.777 4.424 2.21 7.03.35.636.59 1.93.845 4 .253 2.068.535 4.902 2.156 7.84 1.702 3.09 3.11 10.22 2.962 13.934-.282 7.452.536 10.944-1.247 17.058-2.062 7.116-3.47 14.255-5.426 20.996-2.184 7.483-3.685 14.812-5.654 21.59-2.145 7.343-4.075 13.97-7.103 20.276-3.632 7.556-3.953 15.572-5.588 21.183-1.96 6.735-3.446 13.37-6.005 18.68-2.024 4.226-3.27 8.433-4.275 12.5-1.5 1.37-2.05 3.522-1.285 5.47-.51 2.255-1.005 4.485-1.622 6.59-.697 2.416-1.42 4.83-2.13 7.247 0 .003-.014 0-.027 0-1.086.2-1.514.422-1.81.532-10.17-2.7-18.09-.75-24.334-2.564-18.8-5.46-38.404-8.123-57.204-13.59-13.065-3.797-29.762-10.812-46.03-17.027-15.248-5.83-30.03-11.044-42.263-12.06.925-3.738 1.836-7.4 2.868-10.935 2.077-7.137 4.14-14.266 6.217-21.403 1.622-5.585 2.88-10.956 4.22-16.213 8.577 7.06 21.415 13.556 32.59 14.246 9.796.605 14.968-1.1 22.86-3.062 5.48-1.36 9.528-4.186 12.717-6.935 3.19-2.75 5.695-5.4 8.91-7.625 2.668-1.852 6.66-5 10.493-8.404 3.833-3.405 7.277-6.255 9.38-10.5.014-.027.014-.062.027-.092.148-.124.295-.25.442-.375 1.365-1.212 2.6-2.36 3.523-3.248.924-.888 1.97-1.755 1.38-1.313 1.648-1.185 2.532-3.163 2.305-5.185-.23-2.022-1.53-3.775-3.405-4.56-1.876-.788-4.047-.506-5.655.748-1.246.926-1.54 1.352-2.44 2.22-.896.865-1.955 1.934-3.12 2.967-2.332 2.065-5.267 4.025-6.285 4.374-15.13 5.21-32.683 7.595-47.637 3.25-13.16-3.825-15.732-4.884-24.147-16.247 1.152-4.4 2.157-8.88 2.707-13.59.214-1.74.63-3.615 1.165-5.564l.12.063c1.676.645 3.58.352 4.972-.78 1.394-1.134 2.077-2.918 1.783-4.688-.295-1.77-1.54-3.25-3.23-3.874-.107-.04-.43-.187-.59-.25.764-2.226 1.5-4.47 2.158-6.716 1.77-6.103 5.373-12.718 8.656-19.028 3.365-6.474 6.688-12.515 10.065-18.995 2.827-5.437 8.093-10.444 13.614-14.59 4.97-3.733 11.403-4.71 18.813-8.78 1.916-1.06 6.753-1.885 11.27-2.218zM1094.86 475.5c.015.032.122.224.122.248.04.11-.094.08-.12-.25zm131.47 8.777c-2.105-.07-3.58.364-3.686.375-.858.087-1.662.397-2.345.937-1.637 1.294-3.728 2.875-4.505 6.34-.375 1.734.054 4.194 1.407 5.842 1.354 1.65 3.11 2.514 5.092 3.094 1.662.482 3.59.575 5.374-.187 1.794-.765 2.987-2.274 3.59-3.563 1.22-2.58 1.1-4.726 1.166-6.405.053-1.576-.59-3.743-2.064-4.998-1.474-1.256-2.988-1.403-4.033-1.438zm-64.99 51.3c7.02 7.542 13.787 10.74 24.775 13.935 11.806 3.43 24.227 3.364 36.033 1.343-3.404 2.586-5.923 5.187-8.16 7.123-2.6 2.247-4.704 3.695-8.054 4.53-8.308 2.064-11.082 3.268-19.47 2.75-7.29-.45-22.727-8.253-28.462-13.747-.43-.446-.938-.78-1.474-1.06 1.568-4.87 3.243-9.753 4.81-14.87zm253.78 33.056c-.186.235-.294.166-.213.093.013-.016.2-.075.214-.093zm-277.808 51.986c4.556.195 10.265 1.39 16.657 3.185-.31 1.06-.63 2.13-.94 3.186-.59 2.06-1.086 4.954-1.62 8.75-.538 3.795-1.007 8.244-1.288 12.466-.268 4.223-.39 8.107.094 11.37.24 1.634.32 3.152 2.036 5.156.858 1.004 2.6 2.087 4.41 2.126 1.808.04 3.12-.7 4.02-1.376.455-.342 3.47-2.27 7.06-4.343 3.592-2.074 8.027-4.535 12.29-6.748 4.246-2.214 8.36-4.173 11.147-5.28.857-.343 1.14-.417 1.62-.563 1.14.376 2.36.334 3.445-.095-.12.543-.12.68-.322 1.438-.402 1.61-.925 3.453-.992 5.655-.04 1.1-.025 2.344.658 3.873.294.664.79 1.36 1.406 1.97-.214.246-.415.452-.63.72-1.77 2.19-4.02 5.115-6.338 8.185-4.636 6.138-9.66 12.966-10.814 14.433-1.38 1.764-1.112 2.558-1.152 3.185-.054.628 0 1.123.027 1.626.066 1.005.2 2.02.4 3.217.403 2.4 1.046 5.348 1.73 8.31.67 2.964 1.393 5.937 2.023 8.375.643 2.436 1.058 3.99 1.567 5.34 1.086 2.89 2.305 5.68 5.937 6.78 1.81.55 3.82.167 5.118-.5 1.314-.665 2.17-1.49 2.908-2.31 2.962-3.29 4.77-7.492 6.714-10.842 4.824-8.266 7.21-15.67 8.28-28.273.296-3.413.322-6.16.028-8.53-.268-2.245-.75-4.28-2.238-6.154 2.666-.055 5.24-.628 7.678-2.03 1.38-.792 2.613-2.105 3.47-3.657 1.582 2.76 3.578 6.518 5.63 10.53 4.662 9.148 9.312 18.918 10.987 21.963.63 1.135 1.982 2.416 3.563 2.904 1.595.486 3.015.225 4.007-.126 1.983-.702 3.028-1.7 4.18-2.812 2.32-2.222 4.583-5.22 6.995-8.623 4.824-6.806 9.822-15.09 12.382-19.465.99-1.702 1.206-2.992 1.273-3.623 4.033.946 8.013 1.937 11.872 3.062 9.782 2.84 17.54.485 25.22 2.716.24.07.48.114.71.157-.296 1.032-.604 2.06-.9 3.093-1.633 5.59-3.576 10.063-5.44 16.464-1.084 3.736-3.59 7.842-5.185 13.34-.053.206-1.635 4.89-3.685 10.748-2.05 5.86-4.69 13.38-7.343 20.9-2.654 7.524-5.334 15.086-7.41 20.996l-2.28 6.56c-.294-.082-.575-.163-.87-.247-6.995-2.032-13.67-4.64-21.253-6.842-10.854-3.16-25.366-10.722-39.235-11.247-11.55-.437-23.423-6.826-37.4-9.06-13.198-2.11-26.53-9.037-41.23-13.31-6.393-1.857-14.714-3.922-21.093-5.592 1.313-5.43 3.055-12.8 4.957-20.776 3.123-13.01 6.42-26.666 7.156-29.212 2.305-7.89 2.466-15.06 4.288-21.338 1.783-6.144 3.55-12.288 5.348-18.433l.362-1.374zm26.224 6.153c4.85 1.625 9.916 3.475 15.048 5.436 5.133 1.957 10.292 3.98 15.437 6-.71-.05-1.23.04-1.74.123-1.65.265-3.11.79-4.81 1.47-3.43 1.357-7.652 3.45-12.06 5.747-4.422 2.298-8.94 4.788-12.663 6.937-1.22.708-1.65 1.03-2.654 1.624-.026-1.742-.147-3.056 0-5.277.255-3.892.71-8.114 1.22-11.685.51-3.57 1.152-6.707 1.34-7.374.295-1 .59-1.995.884-3zm33.93 12.778c.857.337 1.728.67 2.585 1-.252-.04-.52-.065-.71-.03-.28.05-.56.123-.815.218-.067-.1-.12-.218-.188-.313-.268-.354-.576-.622-.87-.875zm9.34 10.623c1.526-.005 3.027.066 3.992.188 1.327 1.985 1.943 3.376 2.064 3.938-.764.225-3.833.418-7.585-.22.12-.617.107-.95.308-1.72.16-.637.242-1.48.402-2.154.282-.005.536-.03.818-.032zm21.023 0c11.174 3.112 22.296 5.317 33.056 7.625-.147.52-.254.984-.228 1-2.48 4.252-7.317 12.28-11.74 18.524-1.594 2.237-2.84 3.645-4.1 5.093-1.97-3.955-4.823-9.82-8.59-17.184-2.37-4.654-4.69-9.08-6.592-12.277-.643-1.08-1.206-1.95-1.81-2.78zm-24.993 24.34c.027 1.25.134 2.29-.04 4.248-.013.144-.04.235-.053.376-.188.098-.362.2-.51.28-1.7 1.002-2.05 1.623-3.15 2.813-.776.84-2.424 2.113-4.032 3.342 2.586-4.27 5.4-8.446 7.785-11.06zm-12.006 25.15c-.16.323-.28.648-.43.968-.065-.266-.132-.48-.185-.75.214-.06.415-.15.616-.22" fill="#fff"/><path d="M134.06 78.686c-2.008.008-3.817 1.212-4.594 3.063-2.195 5.023-1.79 10.54-1.437 16.93.35 6.393 1.03 13.49 1.03 20.152-.027 1.803.91 3.466 2.467 4.374 1.557.91 3.504.91 5.06 0 1.558-.908 2.495-2.57 2.47-4.374 0-7.317-.696-14.63-1.03-20.713-.336-6.085.07-11.104.623-12.373.705-1.554.556-3.352-.374-4.78-.93-1.43-2.512-2.294-4.217-2.282zM168.08 81c-.57-.01-1.153.01-1.718.062-3.397.308-6.6 1.68-9.436 3.56-3.78 2.51-7.027 6.038-9.06 10.28-2.033 4.242-2.793 9.465-.812 14.403 1.98 4.936 6.484 9.043 13.153 11.81 5.24 2.174 10.893.803 14.9-2.094 3.295-2.38 5.826-5.68 7.53-9.402 2.046 4.792 6.474 8.792 12.997 11.497 5.244 2.175 10.896.804 14.903-2.093 4.008-2.896 6.9-7.138 8.53-11.87 1.63-4.734 1.987-10.11-.032-15.09-2.018-4.985-6.708-9.15-13.246-10.81-.187-.053-.374-.096-.564-.127-1.172-.157-2.336-.165-3.47-.06-3.394.307-6.567 1.678-9.403 3.56-3.307 2.195-6.212 5.165-8.248 8.717-.14-.433-.297-.855-.47-1.28-2.02-4.985-6.738-9.15-13.278-10.81-.185-.053-.372-.096-.562-.127-.585-.078-1.147-.116-1.718-.124zm82.948 0c-.578-.01-1.152.01-1.717.062-3.396.308-6.57 1.68-9.404 3.56-3.778 2.51-7.027 6.038-9.06 10.28-2.033 4.242-2.792 9.465-.813 14.403 1.98 4.936 6.485 9.043 13.154 11.81 5.242 2.174 10.894.803 14.9-2.094 3.293-2.38 5.802-5.68 7.5-9.402 2.042 4.797 6.5 8.79 13.028 11.497 5.244 2.175 10.895.804 14.902-2.093 3.293-2.38 5.8-5.682 7.5-9.403 2.04 4.796 6.498 8.79 13.027 11.496 5.243 2.175 10.863.804 14.87-2.093 4.01-2.896 6.9-7.138 8.53-11.87 1.63-4.734 2.02-10.11 0-15.09-2.02-4.985-6.708-9.15-13.246-10.81-.184-.053-.373-.096-.562-.127-1.17-.157-2.335-.165-3.468-.06-3.397.307-6.6 1.678-9.435 3.56-3.325 2.207-6.217 5.2-8.247 8.78-.144-.452-.29-.9-.47-1.344-2.02-4.985-6.71-9.15-13.247-10.81-.184-.053-.37-.096-.56-.127-1.17-.157-2.338-.165-3.47-.06-3.396.307-6.6 1.678-9.435 3.56-3.326 2.207-6.216 5.2-8.248 8.78-.143-.452-.288-.9-.47-1.344-2.018-4.984-6.707-9.15-13.245-10.81-.186-.052-.372-.095-.563-.126-.586-.078-1.17-.116-1.75-.124zm116.38 0c-.58-.01-1.153.01-1.72.062-3.395.308-6.6 1.68-9.435 3.56-3.78 2.51-6.996 6.038-9.03 10.28-2.03 4.242-2.79 9.465-.81 14.403 1.978 4.936 6.484 9.043 13.153 11.81 5.242 2.174 10.894.803 14.902-2.094 4.008-2.895 6.87-7.137 8.498-11.87 1.63-4.733 2.018-10.11 0-15.09-2.02-4.984-6.708-9.15-13.247-10.81-.185-.052-.373-.095-.563-.126-.584-.078-1.17-.116-1.75-.124zM167.706 91.06c.196-.01.39-.015.562 0 3.775 1.043 5.252 2.677 6.09 4.747.87 2.143.822 5.164-.187 8.092-1.006 2.927-2.95 5.617-4.903 7.03-1.953 1.41-3.38 1.697-5.218.934-4.983-2.064-6.947-4.356-7.718-6.28-.772-1.922-.567-4.017.562-6.372 1.128-2.354 3.255-4.718 5.56-6.248 1.936-1.285 3.877-1.856 5.25-1.906zm35.398 0c.196-.01.39-.014.562 0 3.78 1.043 5.285 2.677 6.124 4.747.87 2.143.822 5.164-.187 8.092-1.008 2.927-2.984 5.617-4.937 7.03-1.952 1.41-3.348 1.697-5.185.934-4.98-2.064-6.945-4.356-7.715-6.28-.77-1.922-.566-4.017.562-6.372 1.13-2.354 3.254-4.718 5.56-6.248 1.924-1.277 3.848-1.85 5.22-1.906zm47.552 0c.194-.01.39-.015.56 0 3.78 1.043 5.285 2.677 6.125 4.747.87 2.143.82 5.164-.187 8.092-1.01 2.927-2.984 5.617-4.936 7.03-1.953 1.41-3.38 1.697-5.218.934-4.98-2.064-6.916-4.356-7.686-6.28-.77-1.922-.598-4.017.53-6.372 1.13-2.354 3.286-4.718 5.594-6.248 1.932-1.284 3.848-1.856 5.217-1.906zm35.428 0c.195-.01.39-.015.563 0 3.778 1.043 5.283 2.677 6.123 4.747.868 2.143.82 5.164-.186 8.092-1.01 2.927-2.984 5.617-4.937 7.03-1.952 1.41-3.38 1.697-5.218.934-4.984-2.064-6.916-4.356-7.688-6.28-.77-1.922-.596-4.017.532-6.372 1.128-2.354 3.255-4.718 5.56-6.248 1.936-1.285 3.876-1.856 5.25-1.906zm35.43 0c.195-.01.39-.015.56 0 3.777 1.043 5.255 2.677 6.094 4.747.866 2.143.85 5.164-.158 8.092-1.008 2.927-2.983 5.617-4.937 7.03-1.952 1.41-3.38 1.697-5.216.934-4.983-2.064-6.916-4.356-7.687-6.28-.772-1.922-.597-4.017.53-6.372 1.13-2.354 3.255-4.718 5.563-6.248 1.933-1.285 3.875-1.856 5.248-1.906zm45.52 0c.195-.01.39-.015.562 0 3.78 1.043 5.284 2.677 6.122 4.747.868 2.143.82 5.164-.188 8.092-1.008 2.927-2.983 5.617-4.935 7.03-1.953 1.41-3.38 1.697-5.218.934-4.983-2.064-6.916-4.356-7.686-6.28-.77-1.922-.597-4.017.53-6.372 1.13-2.354 3.256-4.718 5.56-6.248 1.936-1.284 3.878-1.856 5.25-1.906zM16.74 102.21c-2.76.06-4.933 2.332-4.873 5.092.06 2.762 2.33 4.966 5.09 4.906l77.17 2.342c2.762.087 5.07-2.08 5.156-4.84.086-2.762-2.082-5.07-4.843-5.156l-77.2-2.344c-.167-.008-.334-.008-.5 0zm117.317 118.16c-2.008.005-3.817 1.21-4.594 3.06-2.195 5.027-1.79 10.542-1.437 16.934.352 6.393 1.03 13.49 1.03 20.152-.026 1.803.91 3.466 2.468 4.374 1.557.91 3.504.91 5.06 0 1.558-.908 2.495-2.57 2.47-4.374 0-7.317-.696-14.6-1.03-20.683-.336-6.082.07-11.134.623-12.403.705-1.553.556-3.35-.374-4.78-.93-1.43-2.512-2.293-4.217-2.28zm33.147 2.31c-.284.01-.56.038-.843.063-3.396.31-6.6 1.71-9.435 3.594-3.78 2.507-7.027 6.005-9.06 10.246-2.033 4.242-2.793 9.466-.812 14.404 1.98 4.936 6.484 9.043 13.153 11.81 5.24 2.173 10.893.834 14.9-2.063 3.295-2.38 5.826-5.705 7.53-9.435 2.046 4.792 6.474 8.79 12.997 11.496 5.244 2.173 10.896.834 14.903-2.063 4.008-2.897 6.9-7.17 8.53-11.903 1.63-4.735 1.987-10.107-.032-15.09-2.018-4.984-6.708-9.148-13.246-10.81-.186-.043-.374-.074-.563-.095-1.172-.157-2.336-.197-3.47-.095-3.396.31-6.567 1.71-9.403 3.594-3.307 2.194-6.212 5.14-8.248 8.684-.14-.432-.297-.854-.47-1.28-2.02-4.984-6.738-9.148-13.278-10.81-.185-.043-.373-.074-.562-.095-.878-.118-1.74-.182-2.593-.156zm82.95 0c-.288.01-.562.038-.844.063-3.397.31-6.57 1.71-9.405 3.594-3.778 2.507-7.027 6.005-9.06 10.246-2.033 4.242-2.792 9.466-.813 14.404 1.98 4.936 6.485 9.043 13.154 11.81 5.242 2.173 10.894.834 14.9-2.063 3.293-2.38 5.802-5.706 7.5-9.435 2.042 4.796 6.5 8.79 13.028 11.496 5.244 2.173 10.895.834 14.902-2.063 3.293-2.38 5.8-5.706 7.5-9.435 2.04 4.797 6.498 8.79 13.027 11.497 5.243 2.173 10.863.834 14.87-2.063 4.01-2.897 6.9-7.17 8.53-11.903 1.63-4.736 2.02-10.108 0-15.09-2.02-4.985-6.708-9.15-13.246-10.81-.185-.044-.373-.075-.562-.096-1.17-.157-2.335-.197-3.468-.095-3.397.31-6.6 1.71-9.435 3.593-3.325 2.207-6.217 5.174-8.247 8.747-.144-.45-.29-.898-.47-1.343-2.02-4.984-6.71-9.148-13.247-10.81-.183-.043-.37-.074-.56-.095-1.17-.156-2.337-.197-3.47-.095-3.395.31-6.6 1.71-9.434 3.594-3.326 2.208-6.216 5.175-8.248 8.748-.143-.45-.288-.898-.47-1.343-2.018-4.984-6.707-9.148-13.245-10.81-.185-.043-.373-.074-.562-.095-.877-.118-1.764-.182-2.623-.156zm-82.388 10.06c.196-.003.392.017.562.033 3.72 1.045 5.195 2.69 6.03 4.75.867 2.14.82 5.13-.19 8.06-1.006 2.928-2.95 5.618-4.903 7.03-1.953 1.41-3.38 1.73-5.218.968-4.982-2.066-6.946-4.39-7.717-6.31-.772-1.923-.567-3.988.562-6.34 1.128-2.356 3.255-4.75 5.56-6.28 1.96-1.3 3.935-1.876 5.312-1.908zm35.397 0c.197-.003.393.018.563.033 3.725 1.045 5.227 2.69 6.06 4.75.87 2.14.822 5.13-.187 8.06-1.01 2.928-2.985 5.618-4.938 7.03-1.952 1.41-3.348 1.73-5.185.968-4.982-2.066-6.946-4.39-7.716-6.31-.77-1.923-.565-3.988.563-6.34 1.13-2.356 3.254-4.75 5.56-6.28 1.948-1.294 3.906-1.87 5.28-1.908zm47.55 0c.197-.003.394.017.564.033 3.726 1.045 5.228 2.69 6.062 4.75.867 2.14.82 5.13-.19 8.06-1.01 2.928-2.983 5.618-4.935 7.03-1.953 1.41-3.38 1.73-5.218.968-4.98-2.066-6.915-4.39-7.685-6.31-.77-1.923-.598-3.988.53-6.34 1.13-2.356 3.286-4.75 5.594-6.28 1.956-1.3 3.907-1.875 5.278-1.908zm35.43 0c.196-.003.393.017.562.033 3.726 1.045 5.227 2.69 6.06 4.75.868 2.14.82 5.13-.186 8.06-1.01 2.928-2.985 5.618-4.938 7.03-1.952 1.41-3.38 1.73-5.218.968-4.983-2.066-6.915-4.39-7.687-6.31-.77-1.923-.596-3.988.532-6.34 1.127-2.356 3.254-4.75 5.56-6.28 1.96-1.3 3.934-1.876 5.312-1.908zm35.43 0c.196-.003.392.017.562.033 3.72 1.045 5.195 2.69 6.03 4.75.866 2.14.85 5.13-.158 8.06-1.008 2.928-2.983 5.618-4.937 7.03-1.952 1.41-3.38 1.73-5.216.968-4.983-2.066-6.916-4.39-7.687-6.31-.772-1.923-.597-3.988.53-6.34 1.13-2.356 3.255-4.75 5.563-6.28 1.957-1.3 3.933-1.876 5.31-1.908zM16.74 243.898c-2.76.06-4.933 2.332-4.873 5.093.06 2.76 2.33 4.966 5.09 4.906l77.17 2.343c2.762.085 5.07-2.083 5.156-4.843.086-2.762-2.082-5.07-4.843-5.155l-77.2-2.343c-.167-.01-.334-.01-.5 0zm117.505 118.16c-.223-.005-.464.005-.688.03-1.824.194-3.394 1.37-4.094 3.063-2.195 5.026-1.79 10.54-1.437 16.934.352 6.392 1.03 13.49 1.03 20.15-.026 1.805.91 3.466 2.468 4.375 1.557.91 3.504.91 5.06 0 1.558-.91 2.495-2.573 2.47-4.375 0-7.318-.696-14.63-1.03-20.714-.336-6.082.07-11.102.623-12.37.756-1.638.587-3.57-.468-5.03-.923-1.28-2.386-2.026-3.936-2.06zm33.835 2.342c-.57-.01-1.153.01-1.718.062-3.397.308-6.6 1.68-9.436 3.562-3.78 2.508-7.027 6.037-9.06 10.28-2.033 4.24-2.793 9.465-.812 14.4 1.98 4.938 6.484 9.045 13.153 11.81 5.24 2.176 10.893.805 14.9-2.092 3.295-2.38 5.826-5.68 7.53-9.404 2.046 4.793 6.474 8.793 12.997 11.497 5.244 2.175 10.896.804 14.903-2.093 4.008-2.897 6.9-7.14 8.53-11.873 1.63-4.735 1.987-10.108-.032-15.09-2.018-4.985-6.708-9.18-13.246-10.843-.187-.042-.375-.073-.564-.093-1.172-.158-2.336-.166-3.47-.063-3.394.31-6.567 1.68-9.403 3.563-3.307 2.195-6.212 5.166-8.248 8.717-.14-.43-.297-.854-.47-1.28-2.02-4.984-6.738-9.18-13.278-10.842-.185-.042-.373-.073-.562-.093-.585-.08-1.147-.116-1.718-.126zm82.948 0c-.578-.01-1.152.01-1.717.062-3.396.308-6.57 1.68-9.404 3.562-3.778 2.508-7.027 6.037-9.06 10.28-2.033 4.24-2.792 9.465-.813 14.4 1.98 4.938 6.485 9.045 13.154 11.81 5.242 2.176 10.894.805 14.9-2.092 3.293-2.38 5.802-5.682 7.5-9.404 2.042 4.798 6.5 8.79 13.028 11.497 5.244 2.175 10.895.804 14.902-2.093 4.008-2.897 6.87-7.14 8.5-11.873 1.628-4.735 2.018-10.108 0-15.09-2.02-4.985-6.71-9.18-13.25-10.843-.183-.042-.37-.073-.56-.093-1.17-.158-2.337-.166-3.47-.063-3.395.31-6.6 1.68-9.434 3.563-3.326 2.208-6.216 5.202-8.248 8.778-.143-.45-.288-.897-.47-1.34-2.018-4.985-6.707-9.18-13.245-10.843-.186-.042-.374-.073-.563-.093-.585-.08-1.17-.116-1.75-.126zm-83.323 10.06c.196-.007.39-.015.562 0 3.774 1.044 5.252 2.68 6.09 4.75.87 2.14.822 5.13-.187 8.06-1.007 2.928-2.952 5.648-4.904 7.06-1.953 1.412-3.38 1.7-5.218.937-4.982-2.066-6.946-4.388-7.717-6.31-.77-1.924-.566-3.99.563-6.343 1.128-2.355 3.255-4.717 5.56-6.25 1.936-1.284 3.877-1.854 5.25-1.904zm35.43 0c.195-.007.39-.015.562 0 3.754 1.045 5.254 2.683 6.09 4.75.87 2.14.822 5.13-.187 8.06-1.008 2.928-2.984 5.648-4.937 7.06-1.952 1.412-3.348 1.7-5.185.937-4.982-2.066-6.946-4.388-7.716-6.31-.77-1.924-.566-3.99.562-6.343 1.13-2.355 3.254-4.717 5.56-6.25 1.936-1.284 3.877-1.854 5.25-1.904zm47.52 0c.194-.007.39-.015.56 0 3.78 1.044 5.285 2.677 6.125 4.75.868 2.14.82 5.13-.188 8.06-1.01 2.928-2.984 5.648-4.936 7.06-1.953 1.412-3.38 1.7-5.218.937-4.98-2.066-6.915-4.388-7.685-6.31-.77-1.924-.598-3.99.53-6.343 1.13-2.355 3.286-4.717 5.594-6.25 1.932-1.282 3.848-1.853 5.217-1.904zm35.428 0c.195-.007.39-.015.563 0 3.778 1.044 5.283 2.677 6.123 4.75.867 2.14.82 5.13-.187 8.06-1.01 2.928-2.984 5.648-4.937 7.06-1.952 1.412-3.38 1.7-5.218.937-4.983-2.066-6.915-4.388-7.687-6.31-.77-1.924-.595-3.99.533-6.343 1.128-2.355 3.255-4.717 5.56-6.25 1.936-1.284 3.876-1.854 5.25-1.904zm-269.34 11.153c-2.76.06-4.934 2.333-4.874 5.093.06 2.76 2.33 4.965 5.09 4.905l77.17 2.314c1.864.197 3.69-.682 4.717-2.25 1.027-1.567 1.083-3.556.157-5.185-.927-1.63-2.69-2.61-4.562-2.533l-77.2-2.343c-.167-.008-.334-.008-.5 0zm117.316 118.16c-2.01.006-3.818 1.21-4.595 3.062-2.195 5.025-1.79 10.54-1.437 16.933.352 6.392 1.03 13.49 1.03 20.15-.026 1.803.91 3.466 2.468 4.375 1.557.908 3.504.908 5.06 0 1.558-.91 2.495-2.572 2.47-4.374 0-7.318-.696-14.6-1.03-20.685-.336-6.082.07-11.134.623-12.403.704-1.553.555-3.35-.375-4.78-.93-1.43-2.512-2.294-4.217-2.28zm34.02 2.31c-.57-.007-1.152.013-1.717.064-3.397.308-6.6 1.68-9.436 3.562-3.78 2.506-7.027 6.035-9.06 10.277-2.033 4.24-2.793 9.464-.812 14.402 1.98 4.936 6.484 9.043 13.153 11.81 5.24 2.174 10.893.803 14.9-2.094 3.295-2.382 5.826-5.68 7.53-9.404 2.046 4.793 6.474 8.793 12.997 11.497 5.244 2.174 10.896.803 14.903-2.094 4.008-2.897 6.9-7.14 8.53-11.873 1.63-4.733 1.987-10.106-.032-15.09-2.018-4.983-6.708-9.148-13.246-10.81-.186-.052-.373-.094-.563-.125-1.172-.157-2.336-.166-3.47-.063-3.394.308-6.567 1.68-9.403 3.562-3.307 2.194-6.212 5.165-8.248 8.716-.14-.433-.297-.855-.47-1.282-2.02-4.982-6.738-9.147-13.278-10.81-.185-.05-.372-.093-.562-.124-.585-.08-1.147-.116-1.718-.126zm82.95 0c-.58-.007-1.153.013-1.718.064-3.397.308-6.57 1.68-9.405 3.562-3.778 2.506-7.027 6.035-9.06 10.277-2.033 4.24-2.792 9.464-.813 14.402 1.98 4.936 6.485 9.043 13.154 11.81 5.242 2.174 10.894.803 14.9-2.094 4.01-2.897 6.87-7.14 8.5-11.873s2.02-10.106 0-15.09c-2.02-4.983-6.71-9.148-13.247-10.81-.185-.052-.37-.094-.562-.125-.585-.08-1.17-.116-1.75-.126zm-83.26 10.062c.195-.006.39.015.56.03 3.72 1.046 5.196 2.662 6.03 4.72.868 2.14.82 5.162-.19 8.09-1.005 2.93-2.95 5.618-4.902 7.03-1.953 1.41-3.38 1.698-5.218.937-4.982-2.066-6.946-4.357-7.717-6.28-.772-1.923-.567-4.02.562-6.373 1.128-2.357 3.255-4.72 5.56-6.25 1.96-1.3 3.935-1.874 5.312-1.906zm35.396 0c.197-.006.393.016.563.03 3.724 1.046 5.226 2.66 6.06 4.72.87 2.14.82 5.162-.188 8.09-1.008 2.93-2.984 5.618-4.937 7.03-1.952 1.41-3.348 1.698-5.185.937-4.982-2.066-6.946-4.357-7.716-6.28-.77-1.923-.566-4.02.562-6.373 1.13-2.357 3.254-4.72 5.56-6.25 1.948-1.29 3.906-1.87 5.28-1.906zm47.55 0c.197-.006.394.015.564.03 3.726 1.046 5.228 2.66 6.062 4.72.868 2.14.82 5.162-.188 8.09-1.01 2.93-2.984 5.618-4.936 7.03-1.953 1.41-3.38 1.698-5.218.937-4.98-2.066-6.915-4.357-7.685-6.28-.77-1.923-.598-4.02.53-6.373 1.13-2.357 3.286-4.72 5.594-6.25 1.955-1.3 3.906-1.874 5.277-1.906zM16.743 527.298c-2.76.06-4.933 2.33-4.873 5.093.06 2.76 2.33 4.967 5.09 4.906l77.17 2.344c2.762.085 5.07-2.083 5.156-4.844.086-2.76-2.082-5.07-4.843-5.155l-77.2-2.34c-.167-.01-.334-.01-.5 0zm117.317 118.16c-2.008.006-3.817 1.21-4.594 3.06-2.195 5.026-1.79 10.574-1.437 16.966.35 6.392 1.03 13.49 1.03 20.15-.027 1.804.91 3.466 2.467 4.374 1.557.91 3.504.91 5.06 0 1.558-.908 2.495-2.57 2.47-4.373 0-7.317-.696-14.63-1.03-20.713-.336-6.083.07-11.103.623-12.373.72-1.558.59-3.374-.343-4.813-.93-1.44-2.534-2.3-4.248-2.28zm34.022 2.343c-.57-.007-1.153.013-1.718.064-3.397.31-6.6 1.68-9.436 3.562-3.78 2.51-7.027 6.036-9.06 10.28-2.033 4.24-2.793 9.434-.812 14.37 1.98 4.937 6.484 9.044 13.153 11.81 5.24 2.174 10.892.834 14.9-2.063 3.294-2.38 5.825-5.703 7.53-9.435 2.045 4.794 6.473 8.792 12.996 11.498 5.244 2.174 10.896.834 14.903-2.063 4.007-2.897 6.9-7.17 8.53-11.903 1.63-4.734 1.986-10.076-.033-15.06-2.018-4.983-6.708-9.18-13.246-10.84-.185-.042-.373-.074-.562-.094-1.172-.157-2.336-.166-3.47-.063-3.394.31-6.567 1.68-9.403 3.562-3.307 2.196-6.212 5.165-8.248 8.716-.14-.43-.297-.853-.47-1.28-2.02-4.982-6.738-9.18-13.278-10.84-.186-.04-.374-.073-.563-.093-.585-.08-1.147-.117-1.718-.125zm-.313 10.03c.195-.005.39.015.56.03 3.72 1.047 5.196 2.694 6.03 4.75.868 2.143.82 5.133-.19 8.06-1.005 2.93-2.95 5.65-4.902 7.06-1.953 1.413-3.38 1.7-5.218.94-4.982-2.067-6.946-4.388-7.717-6.31-.772-1.924-.567-3.99.562-6.343 1.128-2.356 3.255-4.75 5.56-6.28 1.96-1.3 3.935-1.874 5.312-1.906zm35.396 0c.197-.005.393.017.563.03 3.724 1.047 5.226 2.69 6.06 4.75.87 2.143.82 5.133-.188 8.06-1.008 2.93-2.984 5.65-4.937 7.06-1.952 1.413-3.348 1.7-5.185.94-4.982-2.067-6.946-4.388-7.716-6.31-.77-1.924-.566-3.99.562-6.343 1.13-2.356 3.254-4.75 5.56-6.28 1.948-1.293 3.906-1.87 5.28-1.906zM16.742 669.016c-2.598.258-4.556 2.48-4.498 5.092.057 2.61 2.11 4.73 4.717 4.873l77.17 2.344c2.763.086 5.07-2.082 5.157-4.843.086-2.76-2.082-5.067-4.843-5.153l-77.2-2.31c-.167-.01-.334-.01-.5 0zM134.06 787.173c-2.008.007-3.817 1.213-4.594 3.062-2.195 5.025-1.79 10.542-1.437 16.934.35 6.39 1.03 13.487 1.03 20.15-.027 1.802.91 3.464 2.467 4.374 1.557.908 3.504.908 5.06 0 1.558-.91 2.495-2.572 2.47-4.375 0-7.318-.696-14.63-1.03-20.715-.336-6.082.07-11.102.623-12.372.705-1.553.556-3.35-.374-4.78-.93-1.43-2.512-2.293-4.217-2.28zm34.022 2.313c-.57-.01-1.153.01-1.718.062-3.397.308-6.6 1.68-9.436 3.56-3.78 2.51-7.027 6.038-9.06 10.28-2.033 4.242-2.793 9.466-.812 14.403 1.98 4.94 6.484 9.046 13.153 11.81 5.24 2.176 10.892.805 14.9-2.092 4.01-2.895 6.9-7.138 8.53-11.87 1.63-4.735 2.02-10.108 0-15.092-2.02-4.983-6.74-9.148-13.28-10.81-.184-.052-.37-.093-.56-.124-.586-.078-1.148-.116-1.72-.124zm-.375 10.06c.196-.007.39-.014.562 0 3.774 1.043 5.25 2.678 6.09 4.748.87 2.142.82 5.163-.188 8.093-1.007 2.928-2.952 5.618-4.904 7.03-1.953 1.41-3.38 1.698-5.218.936-4.982-2.066-6.946-4.356-7.717-6.28-.772-1.922-.567-4.02.562-6.374 1.128-2.356 3.255-4.718 5.56-6.25 1.936-1.285 3.877-1.856 5.25-1.906zM16.742 810.7c-2.76.06-4.933 2.33-4.873 5.092.06 2.76 2.33 4.966 5.09 4.905l77.17 2.343c2.76.085 5.07-2.083 5.155-4.843.086-2.76-2.082-5.068-4.843-5.155l-77.2-2.342c-.167-.01-.334-.01-.5 0zm150.465 120.47c-.284.01-.56.037-.843.063-3.397.308-6.6 1.71-9.436 3.594-3.78 2.508-7.027 6.004-9.06 10.246-2.033 4.242-2.793 9.466-.812 14.403 1.98 4.937 6.484 9.044 13.153 11.81 5.24 2.174 10.892.834 14.9-2.062 4.01-2.897 6.9-7.17 8.53-11.904 1.63-4.733 2.02-10.075 0-15.06-2.02-4.982-6.74-9.178-13.28-10.84-.184-.04-.372-.072-.56-.094-.88-.118-1.74-.18-2.594-.156zm.562 10.06c.195-.004.39.015.56.032 3.72 1.045 5.196 2.692 6.03 4.75.868 2.14.82 5.13-.19 8.06-1.005 2.928-2.95 5.617-4.902 7.028-1.953 1.412-3.38 1.73-5.218.97-4.982-2.067-6.946-4.39-7.717-6.312-.772-1.923-.567-3.988.562-6.342 1.128-2.355 3.255-4.748 5.56-6.28 1.96-1.3 3.935-1.873 5.312-1.906zM16.74 952.384c-2.527.185-4.55 2.254-4.623 4.842-.08 2.762 2.08 5.078 4.84 5.156l77.17 2.343c2.762.086 5.07-2.082 5.156-4.843.086-2.76-2.082-5.07-4.843-5.155l-77.2-2.343c-.173-.005-.332-.012-.5 0M1300.353.268c-.42.033-.84.138-1.25.312l-61.146 25.744c-1.54.54-2.685 2.023-2.99 3.843-.302 1.82.27 3.682 1.53 4.843 1.25 1.16 2.978 1.42 4.46.687l47.557-20.026-263.137 374.38-72.358-70.11c-1.18-1.14-2.713-1.68-4.25-1.5-1.534.186-2.94 1.076-3.89 2.47L725.626 642.648l-82.757-105.82c-1.108-1.43-2.717-2.23-4.383-2.186-1.666.043-3.223.92-4.275 2.407L432.11 822.257 296.922 675.95c-1.458-1.697-3.61-2.34-5.607-1.687-1.998.653-3.515 2.486-3.976 4.81-.46 2.326.213 4.765 1.77 6.343L428.76 836.568c1.147 1.243 2.7 1.868 4.273 1.75 1.575-.12 3.032-.97 4.03-2.375L638.84 551.2l82.84 105.942c1.124 1.437 2.756 2.222 4.437 2.156 1.68-.067 3.24-.978 4.274-2.5l219.8-322.517 72.303 70.048c1.17 1.128 2.698 1.67 4.22 1.5 1.52-.17 2.907-1.04 3.866-2.406l266.19-378.72 1.52 60.266c.08 2.76 2.09 4.93 4.493 4.843 2.405-.087 4.297-2.394 4.215-5.155l-2.043-79.513c-.024-1.352-.514-2.64-1.39-3.56-.864-.918-2.03-1.39-3.21-1.312" fill="#6adf5f"/></g></svg>