<svg xmlns="http://www.w3.org/2000/svg" viewBox="0 0 1443 972"><g fill-rule="evenodd"><path d="M653.997 872.622c-3.713.03-7.816.538-13.247 1.624-11.62 2.324-25.492-.838-40.083 1.594-14.903 2.484-33.413 3.155-49.083 3.155-19.203 0-38.79 1.594-57.955 1.594H374.47c-18.998 0-42.7 4.06-58.33.15-17.146-4.29-36.716-1.75-52.737-1.75-325.217-16.06-376.49 12.68 0 10 16.963 0 35.912-2.16 50.3 1.43 19.242 4.81 43.366.15 60.768.15h119.16c19.72 0 39.32-1.593 57.96-1.593 15.95 0 34.82-.66 50.74-3.31 11.93-1.99 25.9 1.274 40.4-1.627 13.71-2.74 14.99-1.79 28.4 1.565 10.31 2.575 22.07.124 30.18.124h4.94c.246.06.49.1.75.122 6.47.62 19.517 3.126 29.495 3.126H788c9.537 0 18.817-.396 26.15 1.437 13.502 3.375 27.103-1.437 36.648-1.437h45.052c16.807 0 32.562-3.25 48.3-3.25 13.494 0 27.28-1.59 40.272-1.59 14.39 0 29.613 4.845 46.672 4.845 15.53 0 30.606-1.622 45.092-1.622 12.22 0 26.558 1.53 40.106-.282l14.78-12.93c-3.216.432-6.365.99-9.407 1.75-13.01 3.255-30.015 1.47-45.478 1.47-15.21 0-30.27 1.623-45.09 1.623-15.063 0-30.205-4.84-46.674-4.84-13.792 0-27.596 1.596-40.27 1.596-17.047 0-32.823 3.25-48.3 3.25H850.8c-12.276 0-24.824 4.095-34.21 1.75-9.433-2.36-19.397-1.75-28.588-1.75h-51.52c-8.203 0-20.97-2.37-28.555-3.094-.192-.02-.402-.032-.592-.03-.387-.09-.78-.13-1.187-.124H701.3c-9.7 0-21.025 1.834-27.744.155-6.634-1.66-11.206-2.792-15.932-3.155-1.183-.09-2.388-.136-3.625-.126zm600.297 1.53l5.374 3.22 3.94 6.778c91.106.71 157.92 10.21 134.923.102-16.96-7.455-61.5-11.617-144.23-10.1m-47.37-494.756c-2.53.05-4.66 2.01-4.88 4.593-.21 2.75 1.85 5.14 4.6 5.37 4.18.54 11.33 1.34 18.44 2.68 7.1 1.34 14.25 3.5 17.21 5.5 5.414 3.64 10.61 7.51 15.758 11.46-9.286-5.61-18.304-10.944-25.004-13.624-5.28-2.113-10.6-2.8-15.61-2.657-5.026.146-9.743 1.11-13.816 2.377-1.77.476-3.138 1.907-3.567 3.69-.424 1.78.18 3.645 1.53 4.873 1.37 1.228 3.286 1.61 5.01 1 6.74-2.1 15.12-3.05 22.74 0 3.917 1.568 10.04 5.025 16.808 9-.36-.043-.775-.085-1.124-.126-2.157-.257-4.69-.4-7.343-.375-3.23-1.21-6.38-2.35-9.392-3.25-7.237-2.167-13.736-3.64-19.78-1.22-2.573 1.02-3.83 3.9-2.814 6.47 1.02 2.563 3.923 3.83 6.5 2.81.96-.39 3.2-.457 6.214-.03-5.172 2.3-11.523 3.76-17.875 8.53-6.098 4.58-12.5 10.36-16.47 17.96-3.323 6.38-6.632 12.426-10.05 18.998-3.202 6.15-7.155 13.23-9.38 20.87-.51 1.76-1.192 3.612-1.875 5.56-2.385-1.027-4.756-2.04-7.25-3.126-3.644-1.592-7.195-3.163-9.86-4.342-2.68-1.18-4.92-2.18-4.597-2.03-.62-.296-1.29-.47-1.97-.5-2.414-.13-4.56 1.464-5.12 3.81-.564 2.347.63 4.772 2.84 5.75.75.35 2.117.94 4.81 2.124 2.68 1.18 6.23 2.74 9.903 4.34 2.826 1.23 5.52 2.403 8.12 3.53-.764 2.69-1.408 5.46-1.743 8.28-.857 7.254-2.948 14.42-5.185 22.12-2.21 7.592-5.024 14.973-7.383 23.054-2.277 7.836-3.764 15.308-5.935 22.746-.31 1.082-.617 2.17-.94 3.25-12.13-23.8-17.677-59.17-28.42-87.668-.58-1.506-.63-3.18-.66-5.375-.027-2.195.147-5.08-1.57-8.19-.28-.536-.653-1.013-1.082-1.404 1.3-.716 2.116-1.796 2.585-2.594.67-1.124.966-2.114 1.247-3.122 1.14-4.036 1.62-9.17 2.036-10.59.59-2.024 1.045-2.98 1.46-4.624.43-1.645.443-3.743.068-5.81-.4-2.397-2.503-4.15-4.93-4.156-1.5-.003-2.893.66-3.844 1.813-.95 1.15-1.34 2.66-1.06 4.125.245 1.347.205 1.115.098 1.564-.12.45-.656 1.85-1.38 4.314-.415 1.42-.683 2.985-.937 4.5-1.74-2.366-3.67-4.81-5.56-7.03-.82-.96-1.595-1.853-2.305-2.59-.72-.74-.962-1.23-2.57-2.095-.39-.22-.91-.54-2.05-.66-1.153-.113-3.484.48-4.623 1.97-1.153 1.49-1.07 2.718-1.03 3.408.026.69.146 1.088.24 1.437.402 1.392.86 2.176 1.595 3.53.297.537.83 1.38 1.19 2-2.41-1.97-4.22-3.61-6.54-4.81-.57-.305-1.19-.608-2.37-.78-1.18-.177-3.79.213-5.182 2.06-1.393 1.846-1.152 3.356-1.03 4.28.12.924.334 1.576.602 2.28.884 2.464 3.537 3.835 6.057 3.125 0 .002.026-.01.026 0 .844.634 1.1.79 2.157 1.653 2.384 1.95 5.21 4.26 8.066 6.34 2.84 2.082 5.563 3.984 8.83 4.936.284.08.605.135.94.19.107.536.255 1.072.536 1.56.08.14.31 1.29.35 3.5.028 2.213.015 5.35 1.315 8.78 10.908 28.933 16 67.86 32.01 94.475.538.874 1.3 1.53 2.16 1.937-.562 1.957-1.14 3.913-1.714 5.872-2.197 7.578-3.792 15.25-5.815 22.184-1.782 6.144-3.55 12.286-5.333 18.43-2.29 7.89-2.425 15.06-4.25 21.34-1.11 3.793-4.165 16.664-7.29 29.68-2.182 9.154-4.085 16.93-5.37 22.12-1.153.776-1.957 2.03-2.158 3.5-.135 1.106.092 2.18.602 3.093v.03c-.19 2.32 1.275 4.51 3.59 5.188 1.825.53 3.688-.05 4.93-1.314 6.677 1.762 15.16 3.862 21.44 5.685 4.1 1.194 8.27 2.696 12.466 4.28-.026.22-.066.43-.066.66-.404 33.8-1.42 74.182 4.69 107.532.775 4.243 1.27 8.447 1.22 12.528 0 .065.024.127.024.19 0-.014-.05.188-.333.594-.574.814-1.77 2.11-3.375 3.5-3.23 2.788-8.025 6.075-12.93 9.126-4.916 3.05-9.97 5.873-13.84 7.995-1.944 1.064-3.58 1.986-4.785 2.626-.603.32-1.058.55-1.433.75-.377.2-.27.07-1.07.595-2.32 1.547-2.95 4.704-1.397 7.03 1.488 2.24 4.45 2.9 6.74 1.56-.093.063-.08.063.256-.154.08-.053.16-.08.253-.125.336-.18.83-.426 1.435-.75 1.2-.646 2.88-1.568 4.86-2.655 3.98-2.178 9.14-5.08 14.284-8.28 5.144-3.2 10.25-6.64 14.216-10.06 1.984-1.71 3.673-3.4 5.026-5.31 1.205-1.7 2.29-3.837 2.13-6.5h.03c.064-4.975-.526-9.84-1.38-14.498-5.645-30.793-4.975-69.35-4.56-102.6 6.404 2.317 13.01 4.412 19.99 5.53 11.66 1.86 23.974 8.6 38.62 9.153 7.223.273 16.536 3.86 25.78 7.185-.43 4.34-.843 8.676-1.35 13.56-.99 9.646-2.05 19.644-2.776 28.055-.74 8.41-1.207 14.832-.87 18.93 1.285 16.06-3.58 29-2.16 46.52.148 1.918.778 2.34 1.086 2.75.31.41.538.67.753.88.43.41.79.702 1.22 1.03.856.657 1.89 1.355 3.12 2.186 2.466 1.66 5.67 3.735 8.965 5.81 3.31 2.08 6.67 4.16 9.404 5.876 2.732 1.715 5.04 3.205 5.345 3.434 1.435 1.205 3.445 1.53 5.187.81 1.74-.717 2.92-2.346 3.096-4.22.16-1.874-.7-3.7-2.28-4.72-1.26-.92-3.203-2.14-5.977-3.872-2.76-1.735-6.11-3.82-9.363-5.875-3.27-2.056-6.448-4.084-8.726-5.623-.762-.52-1.23-.846-1.74-1.22-.683-14.306 3.538-27.016 2.117-44.55-.16-2.03.19-9 .913-17.28.71-8.277 1.743-18.254 2.75-27.9.43-4.067.763-7.57 1.125-11.278.414.126.83.255 1.244.374 7.064 2.05 13.71 4.66 21.215 6.842 1.394.404 2.774.815 4.155 1.22l.253.06c.325.18.66.33 1.035.438 2.65.77 5.44-.752 6.216-3.404.095-.32 1.69-5.043 3.754-10.935s4.69-13.41 7.344-20.93c2.656-7.524 5.31-15.058 7.37-20.934 2.066-5.877 3.39-9.61 3.87-11.278 1.13-3.876 3.62-7.94 5.19-13.34 1.676-5.777 3.59-10.23 5.4-16.466l6.075-20.8c.847-2.9 1.49-5.688 2.12-8.41 26.518-14.52 50.72-43.064 74.49-60.92 2.92-2.2 4.623-4.83 5.843-6.68 1.206-1.85 1.983-2.7 2.117-2.78.495-.26.95-.604 1.312-1 .32.13.6.236.87.315 3.282.954 6.605.827 10.13.595 3.51-.23 7.155-.69 10.21-1.06 1.354-.162 1.635-.132 2.694-.22 1.74 1.985 4.716 2.25 6.806.626.606-.45 1.155-.88 1.758-1.594.59-.715 1.622-1.88 1.434-4.187-.187-2.308-2.184-4.046-3.283-4.53-1.086-.487-1.783-.507-2.44-.56-2.6-.23-5.01.152-8.12.53.643-.33 1.554-.768 2.09-1.066 1.354-.74 2.17-1.16 3.257-2.124.263-.24.57-.525.96-1.093.39-.565 1.1-1.565.94-3.434-.16-1.87-1.81-3.61-2.84-4.125-1.03-.51-1.61-.53-2.066-.56-1.81-.123-2.32.2-3.31.44-1.005.237-2.104.53-3.31.905-2.8.86-5.762 1.908-8.51 2.97.604-1.42 1.274-2.88 1.69-4.31.723-2.46.99-3.932 1.125-4.372.147-.44-.054-.245.884-1.25 1.352-1.43 1.74-3.52.99-5.342s-2.49-3.036-4.46-3.093c-1.476-.043-2.87.57-3.848 1.656-1.43 1.54-2.53 3.32-3.065 4.933-.523 1.615-.657 2.664-1.246 4.687-.416 1.42-2.76 6.02-3.967 10.03-.298 1.005-.58 2.006-.63 3.31-.03.94.105 2.28.842 3.595-.6.095-1.18.286-1.714.59-3.11 1.71-4.49 4.198-5.68 6.03-1.21 1.838-2.19 3.22-3.476 4.19-21.91 16.46-43.215 39.893-64.01 54.33 3.256-6.777 4.8-13.966 6.62-20.246 2.116-7.297 2.56-14.628 4.97-19.62 3.484-7.26 5.575-14.5 7.72-21.84 2.116-7.32 3.59-14.637 5.613-21.59 2.12-7.286 3.565-14.408 5.47-20.966 2.29-7.894 1.38-13.016 1.632-19.497.212-5.925-1.048-13.336-4.22-19.12-.5-.887-.727-2.2-.968-4.218-.252-2.02-.426-4.72-2.01-7.594-.08-.15-.75-2.26-1.27-4.53-.536-2.27-.86-4.836-2.88-7.53-2.226-2.97-4.142-6.91-8.055-10.53-2.277-2.1-5.667-6.926-11.027-10.06-.75-.43-2.143-1.72-3.78-3.28-1.646-1.556-3.63-3.554-6.872-4.496-3.453-1.004-8.79-3.83-14.54-5.5-4.27-1.24-8.72-3.182-12.58-5.434-1.832-1.066-3.842-1.93-5.91-2.626-13.09-9.744-25.55-20.435-39.89-30.087-5.63-3.786-13.36-5.62-20.97-7.06-7.6-1.44-15.05-2.24-18.99-2.75-.17-.024-.332-.05-.51-.06-.16-.015-.32-.005-.492 0zm29.71 44.084c3.59 1.38 7.35 2.885 11.16 4.404 8.1 3.22 16.48 6.458 24.4 8.5 7.91 2.04 15.47 3.075 22.25.717 1.038-.35 1.85-1 2.44-1.84.098-.03.19-.08.28-.12.127-.06.22-.15.34-.22 1.986.8 4.02 1.51 6.03 2.1 4.22 1.227 9.316 3.986 14.53 5.5.187.053 1.326.774 2.76 2.126 1.42 1.353 3.082 3.208 5.615 4.687 2.747 1.596 5.748 5.51 9.286 8.78 2.21 2.05 3.914 5.316 6.835 9.215-.095-.13.67 1.67 1.165 3.78s.774 4.426 2.21 7.03c.35.638.59 1.93.842 4 .252 2.07.534 4.904 2.155 7.84 1.7 3.09 3.11 10.22 2.96 13.936-.28 7.45.537 10.945-1.246 17.06-2.06 7.115-3.47 14.254-5.422 20.995-2.185 7.48-3.686 14.81-5.655 21.59-2.146 7.34-4.076 13.97-7.104 20.274-3.634 7.552-3.955 15.57-5.59 21.18-1.96 6.734-3.447 13.37-6.006 18.68-2.022 4.225-3.27 8.432-4.273 12.5-1.5 1.37-2.05 3.52-1.286 5.47-.51 2.254-1.003 4.484-1.62 6.59-.697 2.415-1.42 4.83-2.13 7.246h-.027c-1.082.2-1.51.42-1.81.53-10.17-2.7-18.09-.75-24.33-2.564-18.8-5.46-38.404-8.124-57.204-13.59-13.066-3.798-29.763-10.813-46.03-17.028-15.25-5.83-30.03-11.043-42.264-12.06.925-3.737 1.836-7.4 2.87-10.934 2.075-7.135 4.14-14.264 6.215-21.4 1.62-5.585 2.88-10.956 4.22-16.21 8.578 7.06 21.416 13.553 32.59 14.243 9.797.605 14.97-1.1 22.86-3.062 5.48-1.36 9.53-4.184 12.718-6.933 3.19-2.75 5.693-5.4 8.91-7.628 2.666-1.853 6.66-5 10.49-8.405 3.834-3.408 7.278-6.258 9.38-10.5.015-.03.015-.065.028-.095l.44-.376c1.367-1.213 2.6-2.36 3.525-3.25.923-.89 1.97-1.755 1.38-1.313 1.647-1.182 2.53-3.16 2.304-5.182-.23-2.022-1.53-3.775-3.406-4.56-1.88-.788-4.05-.506-5.657.748-1.247.926-1.54 1.352-2.44 2.22-.897.865-1.956 1.934-3.12 2.967-2.333 2.067-5.268 4.027-6.286 4.376-15.13 5.21-32.682 7.595-47.636 3.25-13.16-3.825-15.73-4.884-24.146-16.247 1.15-4.4 2.155-8.88 2.705-13.59.215-1.74.63-3.616 1.166-5.565l.12.063c1.68.64 3.58.35 4.973-.78 1.392-1.138 2.075-2.92 1.78-4.69-.294-1.77-1.54-3.25-3.23-3.876-.106-.04-.43-.185-.59-.25.765-2.224 1.5-4.47 2.16-6.714 1.77-6.102 5.372-12.72 8.655-19.03 3.363-6.47 6.686-12.512 10.063-18.992 2.826-5.438 8.09-10.445 13.613-14.59 4.97-3.734 11.402-4.71 18.812-8.78 1.918-1.06 6.755-1.886 11.27-2.22zm-141.78 52.02c.02.032.13.224.13.248.04.11-.094.08-.12-.25zm131.47 8.777c-2.1-.07-3.58.364-3.68.375-.86.087-1.66.397-2.343.937-1.64 1.29-3.73 2.87-4.51 6.34-.376 1.73.053 4.19 1.406 5.84 1.354 1.65 3.11 2.51 5.09 3.09 1.66.48 3.59.57 5.375-.19 1.796-.77 2.99-2.28 3.59-3.57 1.22-2.58 1.1-4.725 1.168-6.404.053-1.577-.59-3.744-2.064-5-1.476-1.255-2.99-1.4-4.035-1.437zm-64.99 51.3c7.02 7.542 13.79 10.74 24.78 13.935 11.81 3.43 24.23 3.364 36.036 1.343-3.404 2.586-5.923 5.187-8.16 7.123-2.6 2.247-4.704 3.695-8.054 4.53-8.31 2.064-11.082 3.268-19.47 2.75-7.29-.45-22.727-8.253-28.462-13.747-.43-.44-.938-.78-1.474-1.06 1.566-4.87 3.24-9.75 4.81-14.87zm253.78 33.056c-.18.235-.29.166-.21.093.018-.016.2-.075.22-.093zm-277.8 51.987c4.557.19 10.266 1.39 16.658 3.18-.31 1.06-.63 2.13-.94 3.18-.59 2.06-1.09 4.95-1.62 8.75-.54 3.792-1.01 8.24-1.29 12.463-.27 4.223-.39 8.107.09 11.37.24 1.634.32 3.152 2.036 5.156.86 1.002 2.6 2.085 4.41 2.124 1.81.04 3.12-.7 4.02-1.377.455-.34 3.47-2.27 7.06-4.34 3.59-2.076 8.027-4.537 12.29-6.75 4.246-2.214 8.36-4.17 11.147-5.28.858-.34 1.14-.417 1.62-.56 1.14.373 2.36.33 3.446-.098-.12.543-.12.68-.32 1.44-.4 1.61-.924 3.452-.99 5.654-.04 1.1-.026 2.343.657 3.872.293.66.79 1.36 1.405 1.97-.214.243-.415.45-.63.72-1.77 2.19-4.02 5.112-6.34 8.182-4.634 6.14-9.66 12.964-10.812 14.43-1.38 1.765-1.11 2.56-1.15 3.186-.055.63 0 1.122.026 1.625.068 1.005.2 2.02.4 3.217.405 2.4 1.048 5.35 1.73 8.31.67 2.965 1.395 5.938 2.025 8.376.644 2.433 1.06 3.99 1.568 5.34 1.087 2.89 2.306 5.68 5.938 6.78 1.81.55 3.82.164 5.12-.5 1.315-.668 2.17-1.49 2.91-2.31 2.96-3.29 4.77-7.495 6.713-10.845 4.825-8.266 7.21-15.67 8.28-28.273.297-3.412.323-6.16.03-8.53-.267-2.244-.75-4.28-2.237-6.153 2.666-.055 5.24-.628 7.68-2.03 1.38-.79 2.614-2.105 3.47-3.657 1.583 2.76 3.58 6.52 5.63 10.53 4.663 9.15 9.313 18.92 10.99 21.962.63 1.132 1.98 2.413 3.56 2.9 1.598.487 3.018.226 4.01-.125 1.985-.7 3.03-1.7 4.18-2.81 2.32-2.22 4.585-5.22 6.997-8.622 4.823-6.807 9.82-15.09 12.38-19.466.99-1.703 1.207-2.993 1.274-3.624 4.035.946 8.015 1.937 11.874 3.06 9.78 2.84 17.54.487 25.22 2.718.24.07.48.114.71.157-.296 1.033-.604 2.06-.9 3.094-1.633 5.59-3.576 10.063-5.44 16.464-1.084 3.737-3.59 7.843-5.185 13.34-.055.207-1.637 4.89-3.687 10.75s-4.69 13.38-7.346 20.9c-2.658 7.523-5.338 15.085-7.41 20.995l-2.28 6.56c-.298-.084-.58-.165-.87-.25-7-2.03-13.67-4.64-21.257-6.84-10.856-3.16-25.37-10.72-39.237-11.25-11.55-.436-23.426-6.825-37.4-9.06-13.2-2.11-26.53-9.036-41.23-13.31-6.396-1.856-14.717-3.92-21.096-5.59 1.313-5.43 3.055-12.8 4.957-20.775 3.125-13.01 6.42-26.666 7.158-29.21 2.303-7.89 2.464-15.06 4.286-21.34 1.783-6.144 3.55-12.288 5.35-18.433l.36-1.373zm26.225 6.15c4.85 1.62 9.916 3.47 15.048 5.43 5.133 1.953 10.292 3.98 15.437 6-.71-.05-1.23.04-1.74.12-1.65.264-3.11.79-4.81 1.47-3.43 1.356-7.65 3.45-12.06 5.746-4.42 2.3-8.94 4.79-12.66 6.937-1.22.71-1.65 1.03-2.65 1.624-.027-1.744-.148-3.058 0-5.28.254-3.89.71-8.113 1.22-11.684.51-3.57 1.15-6.705 1.34-7.372.294-1 .59-1.992.883-3zm33.93 12.78c.857.33 1.728.67 2.585 1-.25-.04-.52-.07-.71-.03-.28.05-.56.12-.81.21-.066-.1-.12-.22-.19-.317-.27-.354-.574-.62-.87-.875zm9.34 10.62c1.526-.01 3.027.06 3.99.19 1.328 1.98 1.944 3.37 2.065 3.94-.765.22-3.834.41-7.586-.22.12-.62.105-.95.306-1.72.16-.64.242-1.48.402-2.16.28-.01.535-.03.817-.03zm21.023 0c11.17 3.11 22.29 5.31 33.05 7.62-.147.52-.254.98-.23 1-2.48 4.25-7.315 12.28-11.74 18.52-1.592 2.237-2.84 3.645-4.1 5.093-1.97-3.955-4.82-9.82-8.59-17.184-2.37-4.656-4.69-9.08-6.59-12.28-.642-1.08-1.205-1.95-1.81-2.78zm-25 24.34c.028 1.25.135 2.29-.04 4.25-.012.14-.04.23-.052.37-.187.1-.36.2-.51.28-1.7 1-2.05 1.62-3.15 2.81-.775.84-2.423 2.11-4.03 3.34 2.586-4.27 5.4-8.446 7.785-11.06zm-12.005 25.15c-.16.32-.28.65-.43.97-.066-.27-.133-.48-.186-.75.215-.06.416-.15.617-.22" fill="#fff"/><path d="M134.06 78.686c-2.008.008-3.817 1.212-4.594 3.063-2.195 5.02-1.79 10.54-1.437 16.93.35 6.39 1.03 13.49 1.03 20.15-.03 1.8.91 3.46 2.46 4.37 1.55.91 3.5.91 5.06 0 1.56-.91 2.49-2.57 2.47-4.38 0-7.32-.7-14.63-1.03-20.716-.34-6.085.07-11.104.62-12.373.7-1.553.55-3.35-.38-4.78-.93-1.43-2.51-2.293-4.217-2.28zM168.08 81c-.57-.01-1.153.01-1.718.062-3.397.308-6.6 1.68-9.436 3.56-3.78 2.51-7.027 6.038-9.06 10.28-2.033 4.242-2.793 9.465-.812 14.403 1.98 4.936 6.484 9.043 13.153 11.81 5.24 2.174 10.893.803 14.9-2.094 3.295-2.38 5.826-5.68 7.53-9.4 2.046 4.79 6.474 8.79 12.997 11.5 5.244 2.18 10.896.81 14.903-2.09 4.008-2.89 6.9-7.14 8.53-11.87 1.63-4.73 1.987-10.11-.032-15.09-2.018-4.98-6.708-9.15-13.246-10.81-.19-.05-.38-.09-.57-.12-1.17-.157-2.34-.165-3.47-.06-3.4.307-6.57 1.678-9.41 3.56-3.31 2.195-6.21 5.165-8.25 8.717-.14-.433-.298-.855-.47-1.28-2.02-4.985-6.74-9.15-13.28-10.81-.184-.053-.37-.096-.56-.127-.586-.08-1.148-.12-1.72-.127zm82.948 0c-.578-.01-1.152.01-1.717.062-3.39.308-6.57 1.68-9.4 3.56-3.78 2.51-7.02 6.038-9.06 10.28-2.03 4.242-2.79 9.465-.81 14.403 1.98 4.936 6.49 9.043 13.16 11.81 5.24 2.174 10.896.803 14.9-2.094 3.295-2.38 5.8-5.68 7.5-9.4 2.04 4.8 6.5 8.79 13.03 11.5 5.245 2.18 10.896.81 14.903-2.09 3.29-2.38 5.8-5.68 7.5-9.4 2.04 4.8 6.496 8.79 13.025 11.5 5.244 2.176 10.864.805 14.87-2.092 4.01-2.896 6.9-7.14 8.53-11.87 1.63-4.734 2.02-10.11 0-15.09-2.02-4.985-6.707-9.15-13.245-10.81-.188-.053-.377-.096-.566-.127-1.17-.16-2.334-.167-3.467-.06-3.4.305-6.6 1.676-9.438 3.56-3.323 2.205-6.215 5.2-8.245 8.78-.143-.454-.29-.9-.47-1.346-2.02-4.985-6.71-9.15-13.246-10.81-.185-.053-.37-.096-.56-.127-1.17-.16-2.34-.167-3.47-.06-3.4.305-6.6 1.676-9.436 3.56-3.325 2.205-6.215 5.2-8.247 8.78-.144-.454-.29-.9-.47-1.346-2.02-4.983-6.708-9.15-13.246-10.81-.184-.05-.37-.094-.56-.125-.59-.08-1.17-.12-1.75-.125zm116.38 0c-.58-.01-1.153.01-1.72.062-3.395.308-6.6 1.68-9.435 3.56-3.78 2.51-6.996 6.038-9.03 10.28-2.03 4.242-2.79 9.465-.81 14.403 1.978 4.936 6.484 9.043 13.153 11.81 5.242 2.174 10.894.803 14.902-2.094 4.008-2.89 6.87-7.13 8.498-11.87 1.63-4.73 2.018-10.11 0-15.09-2.02-4.98-6.708-9.15-13.247-10.81-.19-.05-.38-.09-.57-.12-.59-.08-1.17-.11-1.75-.12zM167.706 91.06c.196-.01.39-.015.562 0 3.775 1.043 5.252 2.677 6.09 4.747.87 2.143.822 5.164-.187 8.092-1 2.92-2.95 5.61-4.9 7.03-1.95 1.41-3.38 1.69-5.22.93-4.98-2.07-6.94-4.36-7.71-6.28-.77-1.92-.56-4.02.56-6.37 1.13-2.36 3.26-4.72 5.56-6.25 1.94-1.29 3.88-1.86 5.25-1.91zm35.398 0c.196-.01.39-.014.562 0 3.78 1.043 5.285 2.677 6.124 4.747.87 2.143.822 5.164-.187 8.092-1.008 2.92-2.984 5.61-4.937 7.03-1.952 1.41-3.348 1.69-5.185.93-4.98-2.07-6.94-4.36-7.71-6.28-.77-1.92-.56-4.02.56-6.37 1.13-2.36 3.26-4.72 5.56-6.25 1.93-1.28 3.85-1.85 5.22-1.91zm47.552 0c.194-.01.39-.015.56 0 3.78 1.043 5.285 2.677 6.125 4.747.87 2.143.82 5.164-.18 8.092-1.01 2.92-2.98 5.61-4.93 7.03-1.95 1.41-3.38 1.69-5.22.93-4.98-2.07-6.912-4.36-7.682-6.28-.77-1.92-.6-4.02.53-6.37 1.13-2.36 3.286-4.72 5.594-6.25 1.93-1.29 3.846-1.86 5.215-1.91zm35.428 0c.195-.01.39-.015.563 0 3.778 1.043 5.283 2.677 6.123 4.747.868 2.143.82 5.164-.186 8.092-1.01 2.92-2.984 5.61-4.937 7.03-1.952 1.41-3.38 1.69-5.218.93-4.99-2.07-6.92-4.36-7.69-6.28-.77-1.92-.6-4.02.53-6.37 1.13-2.36 3.25-4.72 5.56-6.25 1.93-1.29 3.87-1.86 5.25-1.91zm35.43 0c.195-.01.39-.015.56 0 3.777 1.043 5.255 2.677 6.094 4.747.866 2.143.85 5.164-.158 8.092-1.008 2.92-2.983 5.61-4.937 7.03-1.952 1.41-3.38 1.69-5.216.93-4.983-2.07-6.916-4.36-7.687-6.28-.772-1.92-.597-4.02.53-6.37 1.13-2.36 3.255-4.72 5.563-6.25 1.933-1.29 3.875-1.86 5.248-1.91zm45.52 0c.195-.01.39-.015.562 0 3.78 1.043 5.284 2.677 6.122 4.747.868 2.143.82 5.164-.188 8.092-1.008 2.92-2.983 5.61-4.935 7.03-1.953 1.41-3.38 1.69-5.218.93-4.983-2.07-6.916-4.36-7.686-6.28-.77-1.92-.59-4.02.53-6.37 1.13-2.36 3.26-4.72 5.56-6.25 1.94-1.29 3.88-1.86 5.25-1.91zM16.74 102.21c-2.76.06-4.933 2.332-4.873 5.092.06 2.762 2.33 4.966 5.09 4.906l77.17 2.342c2.762.087 5.07-2.08 5.156-4.84.086-2.762-2.082-5.07-4.843-5.156l-77.2-2.344c-.167-.008-.334-.008-.5 0zm117.317 118.16c-2.008.005-3.817 1.21-4.594 3.06-2.195 5.027-1.79 10.542-1.437 16.934.352 6.393 1.03 13.49 1.03 20.152-.026 1.803.91 3.466 2.468 4.374 1.557.91 3.504.91 5.06 0 1.558-.908 2.495-2.57 2.47-4.374 0-7.317-.696-14.6-1.03-20.683-.336-6.082.07-11.134.623-12.403.705-1.553.556-3.35-.374-4.78-.93-1.43-2.512-2.293-4.217-2.28zm33.147 2.31c-.284.01-.56.038-.843.063-3.39.31-6.6 1.71-9.43 3.594-3.78 2.507-7.02 6.005-9.06 10.246-2.03 4.242-2.79 9.466-.81 14.404 1.98 4.936 6.49 9.043 13.16 11.81 5.24 2.173 10.894.834 14.9-2.063 3.296-2.38 5.827-5.705 7.53-9.435 2.047 4.79 6.475 8.79 12.998 11.49 5.244 2.17 10.896.83 14.903-2.07 4.006-2.9 6.9-7.17 8.53-11.905 1.63-4.736 1.985-10.108-.034-15.09-2.02-4.985-6.71-9.15-13.246-10.81-.188-.044-.376-.075-.565-.096-1.173-.157-2.337-.197-3.47-.095-3.397.31-6.57 1.71-9.404 3.593-3.305 2.19-6.21 5.14-8.25 8.68-.14-.43-.293-.853-.47-1.28-2.02-4.983-6.734-9.147-13.274-10.81-.187-.042-.375-.073-.564-.094-.88-.12-1.74-.183-2.594-.157zm82.95 0c-.288.01-.562.038-.844.063-3.397.31-6.57 1.71-9.405 3.594-3.778 2.507-7.027 6.005-9.06 10.246-2.033 4.242-2.792 9.466-.813 14.404 1.98 4.936 6.485 9.043 13.154 11.81 5.242 2.173 10.894.834 14.9-2.063 3.293-2.38 5.802-5.706 7.5-9.435 2.042 4.79 6.5 8.79 13.028 11.49 5.244 2.17 10.895.83 14.902-2.07 3.293-2.38 5.8-5.708 7.5-9.437 2.04 4.797 6.498 8.79 13.027 11.497 5.243 2.173 10.863.834 14.87-2.063 4.01-2.897 6.9-7.17 8.53-11.903 1.63-4.734 2.02-10.106 0-15.09-2.02-4.983-6.708-9.15-13.246-10.81-.185-.042-.373-.073-.562-.094-1.17-.155-2.335-.195-3.468-.093-3.397.31-6.6 1.71-9.435 3.593-3.325 2.206-6.217 5.173-8.247 8.746-.144-.45-.29-.9-.47-1.344-2.02-4.987-6.71-9.15-13.247-10.81-.183-.046-.37-.077-.56-.098-1.17-.16-2.337-.2-3.47-.1-3.395.31-6.6 1.71-9.434 3.595-3.326 2.21-6.216 5.172-8.248 8.75-.143-.45-.288-.9-.47-1.348-2.018-4.983-6.707-9.147-13.245-10.81-.18-.042-.37-.073-.56-.094-.87-.116-1.76-.18-2.62-.154zm-82.388 10.06c.196-.003.392.017.562.033 3.72 1.045 5.195 2.69 6.03 4.75.867 2.14.82 5.13-.19 8.06-1.006 2.928-2.95 5.618-4.903 7.03-1.953 1.41-3.38 1.73-5.218.968-4.982-2.06-6.946-4.39-7.717-6.31-.772-1.92-.567-3.98.562-6.34 1.128-2.35 3.255-4.75 5.56-6.28 1.96-1.3 3.935-1.87 5.312-1.9zm35.397 0c.197-.003.393.018.563.033 3.725 1.045 5.227 2.69 6.06 4.75.87 2.14.822 5.13-.187 8.06-1.01 2.928-2.99 5.618-4.94 7.03-1.95 1.41-3.35 1.73-5.19.968-4.98-2.06-6.95-4.39-7.72-6.31-.77-1.92-.57-3.98.56-6.34 1.13-2.35 3.25-4.75 5.56-6.28 1.945-1.29 3.903-1.87 5.28-1.9zm47.55 0c.197-.003.394.017.564.033 3.726 1.045 5.228 2.69 6.062 4.75.86 2.14.82 5.13-.19 8.06-1.01 2.928-2.99 5.618-4.94 7.03-1.96 1.41-3.38 1.73-5.22.968-4.98-2.06-6.92-4.39-7.69-6.31-.77-1.92-.6-3.98.53-6.34 1.13-2.35 3.283-4.75 5.59-6.28 1.957-1.3 3.908-1.87 5.28-1.9zm35.43 0c.196-.003.393.017.562.033 3.726 1.045 5.227 2.69 6.06 4.75.868 2.14.82 5.13-.186 8.06-1.01 2.928-2.99 5.618-4.94 7.03-1.95 1.41-3.38 1.73-5.22.968-4.99-2.06-6.92-4.39-7.69-6.31-.77-1.92-.6-3.98.53-6.34 1.12-2.35 3.25-4.75 5.56-6.28 1.96-1.3 3.93-1.87 5.31-1.9zm35.43 0c.196-.003.392.017.562.033 3.72 1.045 5.195 2.69 6.03 4.75.866 2.14.85 5.13-.158 8.06-1.008 2.928-2.983 5.618-4.937 7.03-1.952 1.41-3.38 1.73-5.216.968-4.983-2.06-6.916-4.39-7.687-6.31-.772-1.92-.597-3.98.53-6.34 1.13-2.35 3.255-4.75 5.563-6.28 1.957-1.3 3.933-1.87 5.31-1.9zM16.74 243.898c-2.76.06-4.933 2.332-4.873 5.093.06 2.76 2.33 4.97 5.09 4.91l77.17 2.35c2.762.09 5.07-2.08 5.156-4.84.086-2.76-2.082-5.07-4.843-5.152l-77.2-2.343c-.167-.01-.334-.01-.5 0zm117.505 118.16c-.223-.005-.464.005-.688.03-1.824.194-3.394 1.37-4.094 3.063-2.195 5.03-1.79 10.54-1.437 16.94.352 6.39 1.03 13.49 1.03 20.15-.026 1.81.91 3.47 2.468 4.38 1.557.91 3.504.91 5.06 0 1.558-.91 2.495-2.57 2.47-4.37 0-7.32-.696-14.63-1.03-20.714-.336-6.08.07-11.1.623-12.37.756-1.637.587-3.57-.468-5.03-.93-1.28-2.39-2.025-3.94-2.06zm33.835 2.342c-.57-.01-1.153.01-1.718.062-3.397.308-6.6 1.68-9.436 3.562-3.78 2.508-7.027 6.037-9.06 10.28-2.033 4.24-2.793 9.465-.812 14.4 1.98 4.938 6.484 9.045 13.153 11.81 5.24 2.176 10.893.805 14.9-2.092 3.295-2.38 5.826-5.68 7.53-9.404 2.046 4.793 6.474 8.793 12.997 11.497 5.244 2.175 10.896.804 14.903-2.093 4.008-2.897 6.9-7.14 8.53-11.873 1.63-4.74 1.987-10.11-.032-15.09-2.018-4.99-6.708-9.18-13.246-10.85-.19-.04-.38-.08-.57-.1-1.17-.16-2.34-.167-3.47-.064-3.4.31-6.57 1.68-9.41 3.562-3.31 2.193-6.21 5.164-8.25 8.715-.14-.43-.298-.856-.47-1.28-2.02-4.986-6.74-9.18-13.28-10.844-.184-.043-.37-.074-.56-.094-.586-.08-1.148-.114-1.72-.124zm82.948 0c-.578-.01-1.152.01-1.717.062-3.39.308-6.57 1.68-9.4 3.562-3.78 2.508-7.02 6.037-9.06 10.28-2.03 4.24-2.79 9.465-.81 14.4 1.98 4.938 6.49 9.045 13.16 11.81 5.24 2.176 10.896.805 14.9-2.092 3.295-2.38 5.8-5.682 7.5-9.404 2.04 4.798 6.5 8.79 13.03 11.497 5.245 2.175 10.896.804 14.903-2.093 4.006-2.897 6.87-7.14 8.5-11.873 1.626-4.74 2.016-10.11 0-15.09-2.02-4.99-6.71-9.18-13.25-10.85-.185-.04-.37-.08-.56-.1-1.17-.16-2.34-.167-3.47-.064-3.397.31-6.6 1.68-9.436 3.562-3.326 2.206-6.216 5.2-8.25 8.776-.142-.45-.29-.896-.47-1.34-2.02-4.984-6.706-9.18-13.244-10.84-.185-.04-.37-.074-.56-.094-.587-.08-1.17-.117-1.75-.127zm-83.323 10.06c.196-.007.39-.015.562 0 3.774 1.044 5.252 2.68 6.09 4.75.87 2.14.822 5.13-.187 8.06-1.007 2.928-2.952 5.648-4.904 7.06-1.953 1.412-3.38 1.7-5.218.937-4.982-2.066-6.946-4.388-7.717-6.31-.77-1.924-.56-3.99.57-6.343 1.13-2.355 3.26-4.717 5.56-6.25 1.94-1.284 3.88-1.854 5.25-1.904zm35.43 0c.195-.007.39-.015.562 0 3.754 1.045 5.254 2.683 6.09 4.75.87 2.14.822 5.13-.187 8.06-1.008 2.928-2.984 5.648-4.937 7.06-1.952 1.412-3.348 1.7-5.185.937-4.982-2.066-6.946-4.388-7.716-6.31-.77-1.924-.566-3.99.562-6.343 1.13-2.355 3.254-4.717 5.56-6.25 1.936-1.284 3.877-1.854 5.25-1.904zm47.52 0c.194-.007.39-.015.56 0 3.78 1.044 5.285 2.677 6.125 4.75.868 2.14.82 5.13-.188 8.06-1.01 2.928-2.984 5.648-4.936 7.06-1.953 1.412-3.38 1.7-5.218.937-4.98-2.066-6.915-4.388-7.685-6.31-.77-1.924-.598-3.99.53-6.343 1.13-2.355 3.286-4.717 5.594-6.25 1.932-1.282 3.848-1.853 5.217-1.904zm35.428 0c.195-.007.39-.015.563 0 3.778 1.044 5.283 2.677 6.123 4.75.86 2.14.82 5.13-.19 8.06-1.01 2.928-2.99 5.648-4.94 7.06-1.95 1.412-3.38 1.7-5.22.937-4.99-2.066-6.92-4.388-7.69-6.31-.77-1.924-.6-3.99.53-6.343 1.125-2.355 3.252-4.717 5.56-6.25 1.933-1.284 3.873-1.854 5.25-1.904zm-269.34 11.153c-2.76.06-4.934 2.333-4.874 5.093.06 2.76 2.33 4.965 5.09 4.905l77.17 2.32c1.86.2 3.69-.68 4.71-2.25 1.02-1.56 1.08-3.55.15-5.18s-2.69-2.61-4.56-2.53l-77.2-2.34c-.17-.007-.336-.007-.5 0zm117.316 118.16c-2.01.006-3.82 1.21-4.6 3.062-2.2 5.025-1.79 10.54-1.44 16.933.35 6.392 1.03 13.49 1.03 20.15-.03 1.803.91 3.466 2.47 4.375 1.55.908 3.5.908 5.06 0 1.56-.91 2.49-2.572 2.47-4.374 0-7.32-.7-14.6-1.03-20.69-.34-6.08.07-11.14.62-12.41.7-1.556.55-3.35-.38-4.78-.93-1.43-2.51-2.297-4.218-2.28zm34.02 2.31c-.57-.007-1.16.013-1.72.064-3.4.308-6.6 1.68-9.44 3.562-3.78 2.5-7.03 6.03-9.06 10.27-2.04 4.24-2.8 9.46-.81 14.4 1.98 4.93 6.48 9.04 13.15 11.81 5.24 2.17 10.89.8 14.9-2.1 3.29-2.38 5.82-5.68 7.53-9.404 2.04 4.792 6.47 8.792 12.99 11.496 5.246 2.173 10.898.802 14.905-2.095 4.01-2.9 6.9-7.14 8.53-11.875 1.63-4.733 1.987-10.106-.03-15.09-2.02-4.983-6.71-9.15-13.248-10.81-.188-.052-.375-.094-.565-.125-1.174-.156-2.338-.165-3.47-.062-3.396.31-6.57 1.68-9.405 3.56-3.307 2.197-6.21 5.168-8.25 8.72-.14-.434-.295-.856-.47-1.283-2.02-4.982-6.736-9.147-13.276-10.81-.185-.05-.372-.093-.562-.124-.583-.08-1.145-.113-1.716-.123zm82.95 0c-.58-.007-1.16.013-1.72.064-3.4.308-6.57 1.68-9.41 3.562-3.78 2.5-7.03 6.03-9.06 10.27-2.04 4.24-2.79 9.46-.82 14.4 1.98 4.93 6.484 9.04 13.153 11.81 5.242 2.17 10.894.8 14.9-2.1 4.01-2.897 6.87-7.14 8.5-11.873s2.02-10.106 0-15.09c-2.02-4.983-6.71-9.148-13.247-10.81-.186-.05-.37-.094-.563-.125-.583-.08-1.17-.117-1.75-.127zm-83.26 10.062c.19-.006.39.015.56.03 3.72 1.046 5.19 2.662 6.03 4.72.86 2.14.82 5.162-.19 8.09-1.01 2.93-2.95 5.618-4.91 7.03-1.96 1.41-3.38 1.698-5.22.937-4.988-2.066-6.95-4.357-7.72-6.28-.776-1.923-.57-4.02.56-6.373 1.13-2.36 3.253-4.72 5.56-6.25 1.96-1.3 3.933-1.88 5.31-1.91zm35.39 0c.19-.006.39.016.56.03 3.72 1.046 5.22 2.66 6.06 4.72.87 2.14.82 5.162-.19 8.09-1.01 2.93-2.99 5.618-4.94 7.03-1.955 1.41-3.35 1.698-5.188.937-4.98-2.066-6.946-4.357-7.716-6.28-.77-1.923-.566-4.02.562-6.373 1.13-2.36 3.253-4.72 5.56-6.25 1.947-1.29 3.905-1.87 5.28-1.91zm47.55 0c.19-.006.39.015.56.03 3.72 1.046 5.222 2.66 6.06 4.72.87 2.14.82 5.162-.19 8.09-1.01 2.93-2.986 5.618-4.938 7.03-1.953 1.41-3.38 1.698-5.218.937-4.98-2.066-6.917-4.357-7.687-6.28-.77-1.923-.596-4.02.53-6.373 1.13-2.36 3.29-4.72 5.596-6.25 1.954-1.3 3.905-1.88 5.276-1.91zM16.74 527.298c-2.76.06-4.933 2.33-4.873 5.093.06 2.76 2.33 4.97 5.09 4.91l77.17 2.35c2.76.09 5.07-2.08 5.155-4.84.086-2.76-2.082-5.07-4.843-5.153l-77.2-2.34c-.17-.01-.34-.01-.5 0zm117.317 118.16c-2.01.006-3.818 1.21-4.595 3.06-2.195 5.026-1.79 10.574-1.437 16.966.35 6.392 1.03 13.49 1.03 20.15-.03 1.804.91 3.466 2.465 4.374 1.558.91 3.505.91 5.06 0 1.56-.908 2.496-2.57 2.47-4.373 0-7.317-.695-14.63-1.03-20.713-.335-6.083.07-11.103.624-12.373.72-1.56.59-3.38-.344-4.82-.93-1.44-2.534-2.3-4.248-2.28zm34.02 2.343c-.57 0-1.152.02-1.717.07-3.396.31-6.6 1.68-9.435 3.56-3.78 2.51-7.027 6.04-9.06 10.28-2.033 4.24-2.793 9.44-.812 14.37 1.98 4.94 6.484 9.05 13.153 11.81 5.24 2.18 10.89.84 14.9-2.06 3.292-2.38 5.823-5.7 7.53-9.43 2.043 4.797 6.47 8.79 12.994 11.5 5.244 2.175 10.896.835 14.903-2.062s6.9-7.17 8.53-11.903c1.63-4.732 1.986-10.074-.033-15.06-2.018-4.98-6.708-9.18-13.246-10.84-.186-.04-.374-.072-.563-.092-1.17-.155-2.33-.164-3.47-.06-3.39.31-6.56 1.68-9.4 3.562-3.3 2.195-6.21 5.164-8.25 8.715-.14-.43-.29-.853-.47-1.28-2.02-4.98-6.73-9.18-13.27-10.84-.183-.04-.37-.073-.56-.093-.584-.08-1.146-.116-1.717-.124zm-.312 10.03c.193 0 .39.02.56.03 3.72 1.05 5.194 2.7 6.03 4.75.866 2.15.82 5.14-.19 8.06-1.007 2.93-2.95 5.65-4.904 7.06-1.95 1.42-3.38 1.7-5.21.94-4.98-2.06-6.944-4.38-7.72-6.31-.77-1.92-.563-3.99.56-6.34 1.13-2.35 3.26-4.75 5.56-6.28 1.96-1.3 3.94-1.87 5.31-1.9zm35.394 0c.19 0 .39.02.56.03 3.72 1.05 5.22 2.69 6.06 4.75.87 2.15.82 5.14-.19 8.06-1.01 2.93-2.99 5.65-4.94 7.06-1.957 1.42-3.35 1.7-5.19.94-4.98-2.06-6.946-4.38-7.716-6.31-.77-1.92-.565-3.99.563-6.34 1.13-2.35 3.255-4.75 5.56-6.28 1.95-1.29 3.907-1.87 5.28-1.9zM16.74 669.02c-2.598.258-4.556 2.48-4.498 5.092.057 2.61 2.11 4.73 4.717 4.872l77.17 2.345c2.76.08 5.07-2.09 5.16-4.85.08-2.76-2.08-5.07-4.84-5.158l-77.2-2.31c-.17-.01-.34-.01-.5 0zm117.32 118.153c-2.008.007-3.817 1.213-4.594 3.062-2.195 5.025-1.79 10.542-1.437 16.934.35 6.39 1.03 13.48 1.03 20.15-.03 1.8.91 3.46 2.46 4.37 1.55.91 3.5.91 5.06 0 1.56-.91 2.49-2.57 2.47-4.38 0-7.32-.7-14.63-1.03-20.72-.34-6.08.07-11.1.62-12.37.7-1.555.55-3.35-.38-4.78-.93-1.43-2.51-2.295-4.217-2.28zm34.022 2.313c-.57-.01-1.153.01-1.718.062-3.397.308-6.6 1.68-9.436 3.56-3.78 2.51-7.027 6.038-9.06 10.28-2.033 4.242-2.793 9.466-.812 14.403 1.98 4.94 6.484 9.05 13.153 11.81 5.24 2.18 10.89.81 14.9-2.09s6.9-7.14 8.53-11.87c1.63-4.73 2.02-10.11 0-15.09s-6.74-9.15-13.28-10.81c-.19-.05-.37-.09-.56-.12-.59-.08-1.15-.11-1.72-.12zm-.375 10.06c.196-.007.39-.014.562 0 3.77 1.043 5.25 2.678 6.09 4.748.87 2.142.82 5.163-.19 8.093-1.01 2.928-2.95 5.618-4.91 7.03-1.96 1.41-3.38 1.698-5.22.936-4.988-2.066-6.95-4.356-7.72-6.28-.776-1.922-.57-4.02.56-6.374 1.13-2.36 3.253-4.72 5.56-6.25 1.934-1.29 3.88-1.86 5.25-1.91zM16.742 810.7c-2.76.06-4.933 2.33-4.873 5.092.06 2.76 2.33 4.966 5.09 4.905l77.17 2.343c2.76.085 5.07-2.083 5.15-4.843.08-2.76-2.08-5.068-4.85-5.155l-77.2-2.342c-.17-.01-.337-.01-.5 0zm150.465 120.47c-.284.01-.56.037-.843.063-3.397.308-6.6 1.71-9.436 3.594-3.78 2.508-7.027 6.004-9.06 10.246-2.033 4.242-2.793 9.466-.812 14.403 1.98 4.937 6.484 9.044 13.153 11.81 5.24 2.174 10.89.834 14.9-2.062 4.01-2.897 6.9-7.17 8.53-11.904 1.63-4.733 2.02-10.075 0-15.06-2.02-4.982-6.74-9.178-13.28-10.84-.19-.04-.38-.072-.56-.094-.88-.118-1.74-.18-2.6-.156zm.562 10.06c.19-.004.39.015.56.032 3.72 1.045 5.19 2.692 6.03 4.75.86 2.14.82 5.13-.19 8.06-1.01 2.928-2.95 5.617-4.91 7.028-1.96 1.412-3.38 1.73-5.22.97-4.988-2.067-6.95-4.39-7.72-6.312-.776-1.923-.57-3.988.56-6.342 1.13-2.355 3.253-4.748 5.56-6.28 1.96-1.3 3.933-1.873 5.31-1.906zM16.74 952.384c-2.527.185-4.55 2.254-4.623 4.842-.08 2.762 2.08 5.078 4.84 5.156l77.17 2.343c2.762.086 5.07-2.082 5.156-4.843.086-2.76-2.082-5.07-4.843-5.155l-77.2-2.343c-.173-.005-.332-.012-.5 0M1300.353.268c-.42.033-.84.138-1.25.312l-61.146 25.744c-1.54.54-2.685 2.023-2.99 3.843-.302 1.82.27 3.682 1.53 4.843 1.25 1.16 2.978 1.42 4.46.687l47.557-20.026-263.137 374.38-72.358-70.11c-1.18-1.14-2.72-1.68-4.25-1.5-1.54.19-2.94 1.08-3.89 2.47L725.62 642.65l-82.757-105.82c-1.11-1.43-2.718-2.23-4.384-2.186-1.67.043-3.23.92-4.28 2.407L432.11 822.26 296.92 675.95c-1.458-1.697-3.61-2.34-5.607-1.687-1.998.653-3.515 2.486-3.976 4.81-.46 2.326.21 4.765 1.77 6.343l139.65 151.152c1.146 1.243 2.7 1.868 4.272 1.75 1.57-.12 3.03-.97 4.03-2.375L638.84 551.2l82.84 105.942c1.124 1.437 2.756 2.222 4.437 2.156 1.68-.067 3.24-.978 4.274-2.5l219.8-322.517 72.31 70.05c1.17 1.13 2.7 1.67 4.22 1.5 1.52-.17 2.91-1.04 3.87-2.4l266.19-378.72 1.52 60.27c.08 2.76 2.09 4.93 4.498 4.846 2.405-.087 4.297-2.394 4.215-5.155l-2.05-79.517c-.024-1.35-.514-2.64-1.39-3.56-.864-.917-2.03-1.39-3.21-1.31" fill="#6adf5f"/></g></svg>