<svg xmlns="http://www.w3.org/2000/svg" viewBox="0 0 1443 972"><g fill-rule="evenodd"><path d="M653.997 872.622c-3.713.03-7.816.538-13.247 1.624-11.62 2.324-25.492-.838-40.083 1.594-14.903 2.484-33.413 3.155-49.083 3.155-19.203 0-38.79 1.594-57.955 1.594H374.47c-18.998 0-42.7 4.06-58.33.15-17.146-4.29-36.716-1.75-52.737-1.75-325.217-16.057-376.49 12.68 0 10 16.963 0 35.912-2.16 50.3 1.432 19.242 4.81 43.366.155 60.768.155h119.16c19.72 0 39.32-1.593 57.96-1.593 15.945 0 34.815-.66 50.74-3.31 11.923-1.99 25.893 1.274 40.4-1.627 13.71-2.74 14.99-1.79 28.4 1.564 10.304 2.576 22.07.125 30.18.125h4.935c.244.06.49.1.75.123 6.47.62 19.515 3.126 29.493 3.126H788c9.537 0 18.817-.397 26.15 1.436 13.502 3.376 27.103-1.436 36.648-1.436h45.052c16.807 0 32.562-3.25 48.3-3.25 13.494 0 27.28-1.593 40.272-1.593 14.39 0 29.613 4.845 46.672 4.845 15.53 0 30.606-1.622 45.092-1.622 12.22-.002 26.558 1.528 40.106-.284l14.78-12.93c-3.216.433-6.365.99-9.407 1.75-13.01 3.256-30.015 1.47-45.478 1.47-15.21 0-30.27 1.624-45.09 1.624-15.063 0-30.205-4.84-46.674-4.84-13.792 0-27.596 1.594-40.27 1.594-17.047 0-32.823 3.25-48.3 3.25H850.8c-12.276 0-24.824 4.095-34.21 1.75-9.433-2.36-19.397-1.75-28.588-1.75h-51.52c-8.203 0-20.97-2.37-28.555-3.094-.192-.02-.402-.033-.592-.03-.387-.09-.78-.13-1.187-.125H701.3c-9.7 0-21.025 1.836-27.744.157-6.634-1.66-11.206-2.793-15.932-3.156-1.183-.09-2.388-.135-3.625-.125zm600.297 1.53l5.374 3.22 3.94 6.778c91.106.71 157.92 10.21 134.923.102-16.96-7.455-61.5-11.617-144.23-10.1m-47.37-494.756c-2.53.05-4.66 2.01-4.88 4.593-.21 2.75 1.85 5.14 4.6 5.37 4.18.54 11.323 1.34 18.438 2.68 7.102 1.345 14.245 3.503 17.206 5.5 5.413 3.64 10.61 7.51 15.757 11.466-9.286-5.608-18.304-10.943-25.004-13.623-5.28-2.113-10.6-2.8-15.61-2.657-5.026.146-9.743 1.11-13.816 2.377-1.77.474-3.138 1.905-3.567 3.687-.424 1.78.18 3.647 1.53 4.875 1.37 1.226 3.286 1.61 5.01 1 6.74-2.1 15.12-3.05 22.74 0 3.917 1.566 10.04 5.023 16.808 9-.36-.045-.775-.087-1.124-.128-2.157-.257-4.69-.4-7.343-.375-3.23-1.208-6.38-2.347-9.393-3.25-7.237-2.165-13.736-3.637-19.78-1.22-2.573 1.02-3.83 3.9-2.814 6.468 1.02 2.567 3.926 3.83 6.5 2.81.964-.385 3.202-.453 6.217-.03-5.172 2.304-11.523 3.764-17.875 8.53-6.097 4.585-12.5 10.36-16.468 17.965-3.324 6.38-6.633 12.424-10.05 18.996-3.203 6.15-7.156 13.23-9.38 20.87-.51 1.76-1.193 3.616-1.876 5.56-2.385-1.023-4.756-2.04-7.25-3.122-3.644-1.592-7.195-3.163-9.86-4.342-2.68-1.18-4.92-2.18-4.597-2.03-.62-.296-1.29-.47-1.97-.5-2.414-.13-4.558 1.464-5.12 3.81-.564 2.347.63 4.772 2.84 5.75.75.35 2.117.94 4.81 2.124 2.68 1.18 6.23 2.74 9.903 4.34 2.826 1.232 5.52 2.404 8.12 3.53-.764 2.69-1.408 5.46-1.743 8.28-.854 7.255-2.945 14.42-5.182 22.12-2.21 7.593-5.024 14.974-7.383 23.055-2.278 7.835-3.765 15.307-5.936 22.745-.307 1.083-.615 2.17-.937 3.25-12.13-23.8-17.678-59.168-28.42-87.667-.58-1.505-.63-3.18-.66-5.374-.028-2.196.146-5.08-1.57-8.19-.28-.537-.654-1.014-1.083-1.405 1.3-.715 2.117-1.795 2.586-2.593.67-1.125.964-2.115 1.245-3.123 1.14-4.036 1.62-9.17 2.036-10.59.59-2.024 1.045-2.98 1.46-4.624.43-1.644.443-3.742.068-5.81-.402-2.396-2.506-4.15-4.932-4.155-1.5-.002-2.894.66-3.845 1.814-.95 1.15-1.34 2.657-1.06 4.123.244 1.346.204 1.114.097 1.563-.12.45-.656 1.85-1.38 4.315-.415 1.42-.683 2.984-.937 4.498-1.742-2.365-3.672-4.81-5.56-7.03-.82-.96-1.596-1.852-2.306-2.59-.72-.74-.963-1.23-2.57-2.094-.39-.22-.91-.54-2.05-.658-1.154-.115-3.485.48-4.624 1.97-1.153 1.49-1.072 2.716-1.032 3.406.027.69.147 1.087.24 1.436.403 1.393.86 2.177 1.596 3.53.296.538.83 1.38 1.19 2-2.41-1.97-4.22-3.61-6.54-4.81-.572-.304-1.19-.607-2.37-.78-1.18-.176-3.79.214-5.183 2.06-1.394 1.847-1.153 3.357-1.032 4.28.12.925.335 1.577.603 2.28.885 2.465 3.538 3.836 6.058 3.126 0 .003.026-.01.026 0 .844.635 1.1.79 2.157 1.654 2.384 1.952 5.21 4.26 8.066 6.34 2.84 2.083 5.564 3.985 8.83 4.937.285.08.606.137.94.19.108.538.256 1.074.537 1.56.08.14.31 1.29.35 3.5.028 2.215.015 5.35 1.315 8.78 10.906 28.935 16 67.86 32.01 94.477.536.874 1.3 1.53 2.16 1.937-.564 1.958-1.14 3.914-1.716 5.873-2.198 7.578-3.793 15.25-5.816 22.184-1.784 6.145-3.55 12.287-5.335 18.43-2.292 7.89-2.426 15.06-4.25 21.34-1.11 3.794-4.166 16.665-7.29 29.68-2.183 9.155-4.086 16.93-5.372 22.12-1.152.777-1.956 2.03-2.157 3.5-.134 1.107.093 2.18.603 3.094v.03c-.19 2.32 1.272 4.51 3.59 5.187 1.822.53 3.685-.05 4.93-1.315 6.674 1.762 15.156 3.862 21.44 5.685 4.1 1.192 8.27 2.694 12.463 4.28-.026.218-.066.43-.066.656-.403 33.802-1.42 74.185 4.69 107.535.776 4.243 1.272 8.447 1.22 12.528 0 .064.025.126.025.19 0-.015-.05.187-.334.593-.574.813-1.77 2.11-3.375 3.5-3.23 2.787-8.026 6.074-12.93 9.125-4.917 3.05-9.97 5.873-13.84 7.995-1.945 1.063-3.58 1.985-4.786 2.625-.603.32-1.058.55-1.433.75-.375.2-.27.07-1.07.592-2.32 1.547-2.95 4.704-1.395 7.03 1.488 2.24 4.45 2.9 6.74 1.56-.093.063-.08.063.256-.154.08-.054.16-.08.254-.126.336-.18.83-.426 1.435-.75 1.203-.646 2.88-1.568 4.86-2.655 3.98-2.176 9.14-5.08 14.286-8.28 5.145-3.197 10.25-6.637 14.217-10.06 1.983-1.71 3.672-3.4 5.025-5.31 1.207-1.7 2.293-3.835 2.13-6.5h.03c.066-4.973-.524-9.838-1.38-14.496-5.643-30.792-4.973-69.35-4.558-102.6 6.405 2.318 13.01 4.413 19.992 5.53 11.66 1.86 23.973 8.6 38.62 9.154 7.222.273 16.535 3.86 25.78 7.185-.43 4.34-.844 8.675-1.353 13.56-.99 9.645-2.05 19.643-2.774 28.054-.74 8.41-1.208 14.833-.87 18.932 1.284 16.06-3.58 29-2.16 46.52.147 1.917.777 2.34 1.085 2.75.31.41.538.67.753.878.43.41.79.703 1.22 1.032.857.656 1.89 1.354 3.12 2.185 2.467 1.66 5.67 3.733 8.966 5.81 3.31 2.078 6.672 4.158 9.406 5.874 2.733 1.716 5.04 3.206 5.346 3.435 1.434 1.208 3.444 1.53 5.186.812 1.74-.716 2.92-2.345 3.096-4.218.16-1.875-.7-3.7-2.28-4.72-1.26-.92-3.203-2.14-5.977-3.873-2.76-1.733-6.11-3.818-9.365-5.873-3.27-2.057-6.448-4.085-8.726-5.624-.763-.52-1.232-.845-1.74-1.22-.684-14.305 3.537-27.015 2.116-44.55-.16-2.03.19-9 .913-17.28.71-8.276 1.744-18.253 2.75-27.9.43-4.066.764-7.57 1.126-11.277.414.126.83.255 1.244.374 7.064 2.053 13.71 4.66 21.215 6.844 1.394.404 2.774.815 4.155 1.22l.253.06c.323.18.66.33 1.033.438 2.652.77 5.44-.754 6.217-3.406.095-.32 1.69-5.043 3.754-10.935 2.064-5.893 4.69-13.41 7.344-20.933 2.657-7.523 5.31-15.057 7.37-20.933 2.067-5.876 3.39-9.61 3.87-11.277 1.13-3.876 3.62-7.94 5.19-13.34 1.677-5.777 3.59-10.23 5.4-16.466L1323.3 651c.847-2.897 1.49-5.685 2.12-8.407 26.518-14.52 50.72-43.064 74.49-60.922 2.92-2.2 4.623-4.83 5.843-6.68 1.206-1.85 1.983-2.7 2.117-2.78.495-.263.95-.605 1.312-1 .32.13.6.235.87.314 3.282.954 6.605.827 10.13.595 3.51-.23 7.155-.69 10.21-1.06 1.354-.164 1.635-.134 2.694-.22 1.74 1.983 4.716 2.247 6.806.624.606-.45 1.155-.88 1.758-1.594.59-.716 1.622-1.88 1.434-4.188-.186-2.307-2.183-4.045-3.282-4.53-1.086-.486-1.783-.506-2.44-.56-2.6-.228-5.01.153-8.12.53.643-.33 1.554-.767 2.09-1.065 1.354-.742 2.17-1.16 3.257-2.123.266-.24.574-.525.962-1.093.39-.565 1.1-1.565.938-3.434-.16-1.87-1.81-3.61-2.84-4.124-1.03-.51-1.607-.53-2.063-.56-1.81-.124-2.32.2-3.31.44-1.005.236-2.104.53-3.31.904-2.8.86-5.762 1.906-8.51 2.968.604-1.42 1.274-2.88 1.69-4.31.723-2.46.99-3.932 1.125-4.372.147-.44-.054-.246.884-1.25 1.352-1.43 1.74-3.52.99-5.343s-2.49-3.036-4.46-3.093c-1.476-.042-2.87.57-3.848 1.657-1.43 1.54-2.53 3.32-3.065 4.934-.524 1.615-.658 2.664-1.247 4.687-.416 1.42-2.76 6.018-3.967 10.03-.297 1.004-.578 2.005-.63 3.31-.028.938.106 2.278.843 3.594-.6.094-1.18.285-1.714.592-3.11 1.71-4.49 4.195-5.68 6.03-1.21 1.835-2.188 3.22-3.475 4.187-21.91 16.46-43.214 39.893-64.01 54.33 3.257-6.777 4.8-13.966 6.62-20.246 2.117-7.295 2.56-14.626 4.97-19.62 3.485-7.258 5.576-14.498 7.72-21.84 2.117-7.32 3.59-14.635 5.614-21.59 2.12-7.284 3.565-14.406 5.47-20.964 2.29-7.893 1.38-13.015 1.632-19.496.214-5.924-1.046-13.335-4.22-19.12-.497-.886-.725-2.2-.966-4.217-.252-2.017-.426-4.72-2.01-7.592-.08-.15-.75-2.26-1.27-4.53-.536-2.27-.86-4.836-2.88-7.53-2.226-2.97-4.142-6.91-8.055-10.53-2.277-2.1-5.667-6.926-11.027-10.06-.75-.43-2.144-1.72-3.78-3.28-1.647-1.556-3.63-3.554-6.873-4.496-3.453-1.006-8.79-3.83-14.54-5.5-4.27-1.243-8.72-3.184-12.58-5.436-1.832-1.067-3.842-1.93-5.91-2.627-13.09-9.743-25.55-20.434-39.89-30.086-5.63-3.786-13.36-5.62-20.97-7.06-7.6-1.44-15.05-2.24-18.99-2.75-.17-.024-.332-.05-.51-.06-.16-.015-.32-.005-.492 0zm29.71 44.084c3.59 1.38 7.343 2.885 11.16 4.404 8.095 3.22 16.48 6.458 24.4 8.5 7.908 2.04 15.465 3.075 22.246.717 1.035-.35 1.85-1 2.44-1.84.095-.03.19-.08.28-.12.124-.06.217-.15.338-.22 1.985.798 4.02 1.508 6.03 2.095 4.22 1.225 9.315 3.984 14.528 5.498.188.053 1.327.774 2.76 2.126 1.42 1.352 3.083 3.207 5.616 4.686 2.747 1.596 5.748 5.51 9.286 8.78 2.21 2.05 3.914 5.316 6.835 9.215-.096-.13.67 1.67 1.164 3.78s.776 4.425 2.21 7.03c.35.637.59 1.93.844 4 .253 2.07.535 4.903 2.156 7.84 1.7 3.09 3.11 10.22 2.96 13.935-.28 7.45.537 10.944-1.246 17.058-2.06 7.116-3.47 14.255-5.424 20.996-2.185 7.482-3.686 14.81-5.655 21.59-2.145 7.342-4.075 13.97-7.103 20.275-3.632 7.554-3.953 15.57-5.588 21.18-1.96 6.736-3.447 13.37-6.006 18.68-2.024 4.227-3.27 8.434-4.275 12.5-1.5 1.37-2.05 3.523-1.286 5.47-.51 2.256-1.005 4.486-1.622 6.59-.697 2.417-1.42 4.83-2.13 7.248 0 .002-.014 0-.027 0-1.082.2-1.51.42-1.81.53-10.17-2.7-18.09-.75-24.33-2.563-18.8-5.46-38.404-8.124-57.204-13.59-13.065-3.798-29.762-10.813-46.03-17.028-15.25-5.83-30.03-11.043-42.263-12.06.926-3.737 1.837-7.4 2.87-10.934 2.076-7.137 4.14-14.266 6.216-21.403 1.62-5.583 2.88-10.954 4.22-16.21 8.576 7.06 21.414 13.555 32.59 14.245 9.795.605 14.967-1.1 22.86-3.062 5.48-1.36 9.527-4.185 12.716-6.934 3.19-2.75 5.693-5.4 8.91-7.628 2.666-1.852 6.66-5 10.49-8.404 3.834-3.406 7.278-6.256 9.38-10.5.015-.028.015-.063.028-.093l.44-.377c1.366-1.212 2.6-2.36 3.524-3.248.924-.89 1.97-1.756 1.38-1.314 1.648-1.183 2.53-3.16 2.305-5.183-.23-2.022-1.53-3.775-3.405-4.56-1.877-.788-4.048-.506-5.656.748-1.247.926-1.54 1.352-2.44 2.22-.897.865-1.956 1.934-3.12 2.967-2.333 2.066-5.268 4.026-6.286 4.375-15.13 5.21-32.683 7.595-47.637 3.25-13.16-3.825-15.73-4.884-24.145-16.247 1.15-4.4 2.156-8.88 2.706-13.59.214-1.74.63-3.615 1.165-5.564l.12.063c1.68.643 3.58.35 4.974-.78 1.392-1.136 2.075-2.92 1.78-4.69-.294-1.77-1.54-3.25-3.23-3.874-.106-.04-.43-.185-.59-.25.765-2.224 1.5-4.47 2.16-6.714 1.77-6.104 5.372-12.72 8.655-19.03 3.364-6.473 6.687-12.514 10.064-18.994 2.828-5.438 8.094-10.445 13.615-14.59 4.97-3.734 11.402-4.71 18.812-8.78 1.918-1.06 6.755-1.886 11.27-2.22zm-141.78 52.02c.016.032.123.224.123.248.04.11-.094.08-.12-.25zm131.47 8.777c-2.104-.07-3.58.364-3.685.375-.858.087-1.662.397-2.345.937-1.64 1.29-3.73 2.87-4.51 6.34-.377 1.73.052 4.19 1.405 5.84 1.354 1.65 3.11 2.51 5.092 3.09 1.66.48 3.59.573 5.373-.19 1.795-.764 2.988-2.273 3.59-3.562 1.22-2.58 1.1-4.726 1.167-6.405.052-1.577-.59-3.744-2.065-5-1.476-1.255-2.99-1.402-4.035-1.437zm-64.99 51.3c7.02 7.542 13.788 10.74 24.776 13.935 11.806 3.43 24.227 3.364 36.033 1.343-3.405 2.586-5.924 5.187-8.16 7.123-2.6 2.247-4.705 3.695-8.055 4.53-8.308 2.064-11.082 3.268-19.47 2.75-7.29-.45-22.727-8.253-28.462-13.747-.43-.44-.938-.78-1.474-1.06 1.567-4.87 3.242-9.75 4.81-14.87zm253.78 33.056c-.185.235-.293.166-.212.093.013-.016.2-.075.214-.093zm-277.807 51.986c4.556.19 10.265 1.39 16.657 3.18-.31 1.06-.63 2.13-.94 3.183-.59 2.06-1.09 4.953-1.62 8.75-.54 3.794-1.01 8.243-1.29 12.465-.27 4.223-.39 8.107.09 11.37.24 1.634.32 3.152 2.035 5.156.86 1.004 2.6 2.087 4.41 2.126 1.81.04 3.12-.7 4.02-1.376.455-.34 3.47-2.27 7.06-4.342 3.592-2.075 8.027-4.536 12.29-6.75 4.246-2.213 8.36-4.172 11.147-5.28.857-.342 1.14-.416 1.62-.562 1.14.376 2.36.334 3.445-.095-.12.544-.12.68-.323 1.44-.4 1.61-.923 3.453-.99 5.655-.04 1.1-.025 2.344.658 3.873.294.662.79 1.36 1.406 1.97-.214.244-.415.45-.63.72-1.77 2.19-4.02 5.113-6.338 8.183-4.636 6.14-9.66 12.965-10.814 14.432-1.38 1.764-1.11 2.558-1.15 3.185-.056.63 0 1.123.025 1.626.068 1.005.2 2.02.4 3.217.405 2.4 1.048 5.35 1.73 8.31.67 2.965 1.395 5.938 2.025 8.376.643 2.435 1.06 3.99 1.567 5.34 1.087 2.89 2.306 5.68 5.938 6.78 1.81.55 3.82.166 5.118-.5 1.315-.666 2.17-1.49 2.91-2.31 2.96-3.29 4.77-7.493 6.713-10.843 4.825-8.265 7.21-15.67 8.28-28.272.297-3.413.323-6.16.03-8.53-.267-2.245-.75-4.28-2.237-6.154 2.666-.055 5.24-.628 7.678-2.03 1.38-.79 2.616-2.105 3.47-3.657 1.585 2.76 3.58 6.52 5.63 10.53 4.665 9.15 9.315 18.92 10.99 21.962.63 1.133 1.98 2.414 3.563 2.902 1.596.487 3.016.226 4.008-.125 1.985-.7 3.03-1.7 4.18-2.81 2.32-2.22 4.585-5.22 6.997-8.623 4.823-6.806 9.82-15.09 12.38-19.465.99-1.703 1.207-2.993 1.274-3.624 4.034.945 8.014 1.936 11.873 3.06 9.782 2.84 17.54.486 25.22 2.717.24.07.48.114.71.157-.296 1.033-.604 2.06-.9 3.094-1.633 5.59-3.576 10.063-5.44 16.464-1.084 3.737-3.59 7.843-5.185 13.34-.053.207-1.635 4.89-3.685 10.75s-4.69 13.38-7.343 20.9c-2.657 7.523-5.337 15.085-7.41 20.995l-2.28 6.56c-.297-.082-.578-.163-.87-.247-6.998-2.03-13.67-4.64-21.256-6.84-10.856-3.16-25.368-10.72-39.237-11.248-11.55-.437-23.425-6.826-37.4-9.06-13.2-2.11-26.53-9.037-41.23-13.31-6.395-1.857-14.716-3.922-21.095-5.592 1.312-5.43 3.054-12.8 4.956-20.774 3.123-13.01 6.42-26.666 7.156-29.212 2.304-7.89 2.465-15.06 4.287-21.338 1.784-6.144 3.55-12.288 5.35-18.433l.362-1.374zm26.224 6.15c4.85 1.62 9.916 3.47 15.048 5.43 5.133 1.958 10.292 3.98 15.437 6-.71-.05-1.23.04-1.74.124-1.65.265-3.11.79-4.81 1.47-3.43 1.357-7.65 3.45-12.06 5.747-4.42 2.3-8.94 4.79-12.66 6.938-1.22.71-1.65 1.03-2.65 1.624-.026-1.744-.147-3.058 0-5.28.255-3.89.71-8.113 1.22-11.684.51-3.57 1.15-6.705 1.34-7.372.295-1 .59-1.995.884-3zm33.93 12.78c.857.33 1.728.67 2.585 1-.25-.04-.52-.07-.71-.03-.28.05-.56.12-.81.21-.065-.1-.12-.217-.19-.312-.27-.354-.573-.62-.87-.875zm9.34 10.62c1.526-.01 3.027.062 3.992.19 1.326 1.98 1.942 3.37 2.063 3.94-.764.22-3.833.41-7.585-.22.12-.62.107-.95.308-1.72.16-.64.242-1.48.402-2.16.282-.006.536-.03.818-.03zm21.023 0c11.17 3.11 22.29 5.313 33.05 7.62-.148.52-.255.985-.23 1-2.48 4.253-7.316 12.28-11.74 18.525-1.593 2.237-2.84 3.645-4.1 5.093-1.97-3.955-4.822-9.82-8.59-17.184-2.37-4.654-4.69-9.08-6.59-12.277-.643-1.08-1.206-1.95-1.81-2.78zm-25 24.34c.027 1.25.134 2.29-.04 4.25-.013.14-.04.23-.053.37-.188.1-.36.2-.51.28-1.7 1.003-2.05 1.624-3.15 2.814-.776.84-2.424 2.112-4.03 3.34 2.585-4.27 5.4-8.445 7.784-11.06zm-12.006 25.15c-.16.32-.28.65-.43.97-.066-.27-.133-.48-.186-.75.214-.06.415-.15.616-.22" fill="#fff"/><path d="M134.06 78.686c-2.008.008-3.817 1.212-4.594 3.063-2.195 5.02-1.79 10.54-1.437 16.93.35 6.39 1.03 13.49 1.03 20.15-.03 1.8.91 3.46 2.46 4.37 1.556.91 3.503.91 5.06 0 1.56-.91 2.494-2.57 2.47-4.376 0-7.317-.697-14.63-1.03-20.713-.337-6.084.07-11.103.622-12.372.704-1.554.555-3.35-.375-4.78-.93-1.43-2.51-2.294-4.217-2.28zM168.08 81c-.57-.01-1.153.01-1.718.062-3.397.308-6.6 1.68-9.436 3.56-3.78 2.51-7.027 6.038-9.06 10.28-2.033 4.242-2.793 9.465-.812 14.403 1.98 4.936 6.484 9.043 13.153 11.81 5.24 2.174 10.893.803 14.9-2.094 3.295-2.38 5.826-5.68 7.53-9.4 2.046 4.79 6.474 8.79 12.997 11.5 5.244 2.178 10.896.807 14.903-2.09 4.008-2.896 6.9-7.14 8.53-11.87 1.63-4.734 1.987-10.11-.032-15.09-2.018-4.985-6.708-9.15-13.246-10.81-.19-.053-.38-.096-.57-.127-1.17-.157-2.338-.165-3.47-.06-3.396.307-6.57 1.678-9.405 3.56-3.307 2.195-6.21 5.165-8.248 8.717-.14-.434-.298-.856-.47-1.28-2.02-4.986-6.74-9.15-13.28-10.81-.184-.054-.37-.097-.56-.128-.586-.08-1.148-.118-1.72-.126zm82.948 0c-.578-.01-1.152.01-1.717.062-3.39.308-6.57 1.68-9.4 3.56-3.78 2.51-7.023 6.038-9.06 10.28-2.03 4.242-2.79 9.465-.81 14.403 1.98 4.936 6.486 9.043 13.155 11.81 5.24 2.174 10.894.803 14.9-2.094 3.293-2.38 5.8-5.68 7.5-9.4 2.04 4.8 6.5 8.79 13.028 11.5 5.245 2.178 10.896.807 14.903-2.09 3.29-2.38 5.8-5.682 7.5-9.403 2.04 4.797 6.496 8.79 13.025 11.497 5.244 2.175 10.864.804 14.87-2.093 4.01-2.896 6.9-7.14 8.53-11.87 1.63-4.734 2.02-10.11 0-15.09-2.02-4.985-6.707-9.15-13.245-10.81-.186-.053-.375-.096-.564-.127-1.17-.16-2.334-.167-3.467-.06-3.4.305-6.6 1.676-9.437 3.56-3.323 2.205-6.215 5.2-8.245 8.78-.143-.454-.29-.9-.47-1.346-2.02-4.985-6.71-9.15-13.246-10.81-.184-.053-.37-.096-.56-.127-1.17-.16-2.34-.167-3.47-.06-3.396.305-6.6 1.676-9.435 3.56-3.325 2.205-6.215 5.2-8.247 8.78-.144-.454-.29-.9-.47-1.346-2.02-4.983-6.708-9.15-13.246-10.81-.185-.05-.37-.094-.562-.125-.587-.08-1.17-.12-1.75-.127zm116.38 0c-.58-.01-1.153.01-1.72.062-3.395.308-6.6 1.68-9.435 3.56-3.78 2.51-6.996 6.038-9.03 10.28-2.03 4.242-2.79 9.465-.81 14.403 1.978 4.936 6.484 9.043 13.153 11.81 5.242 2.174 10.894.803 14.902-2.094 4.008-2.89 6.87-7.13 8.498-11.87 1.63-4.73 2.018-10.11 0-15.09-2.02-4.98-6.708-9.15-13.247-10.81-.19-.05-.38-.09-.57-.12-.585-.08-1.17-.114-1.75-.122zM167.706 91.06c.196-.01.39-.015.562 0 3.775 1.043 5.252 2.677 6.09 4.747.87 2.143.822 5.164-.187 8.092-1 2.92-2.95 5.61-4.9 7.03-1.95 1.41-3.38 1.69-5.22.93-4.98-2.068-6.94-4.36-7.71-6.28-.773-1.92-.568-4.02.56-6.37 1.128-2.36 3.255-4.72 5.56-6.25 1.936-1.288 3.877-1.86 5.25-1.91zm35.398 0c.196-.01.39-.014.562 0 3.78 1.043 5.285 2.677 6.124 4.747.87 2.143.822 5.164-.187 8.092-1.008 2.92-2.984 5.61-4.937 7.03-1.952 1.41-3.348 1.69-5.185.93-4.98-2.068-6.94-4.36-7.71-6.28-.77-1.92-.563-4.02.56-6.37 1.13-2.36 3.258-4.72 5.56-6.25 1.928-1.28 3.85-1.85 5.22-1.91zm47.552 0c.194-.01.39-.015.56 0 3.78 1.043 5.285 2.677 6.125 4.747.87 2.143.82 5.164-.18 8.092-1.01 2.92-2.983 5.61-4.935 7.03-1.953 1.41-3.38 1.69-5.22.93-4.98-2.068-6.914-4.36-7.684-6.28-.77-1.92-.6-4.02.53-6.37 1.13-2.36 3.286-4.72 5.594-6.25 1.93-1.287 3.846-1.86 5.215-1.91zm35.428 0c.195-.01.39-.015.563 0 3.778 1.043 5.283 2.677 6.123 4.747.868 2.143.82 5.164-.186 8.092-1.01 2.92-2.984 5.61-4.937 7.03-1.952 1.41-3.38 1.69-5.218.93-4.99-2.068-6.92-4.36-7.69-6.28-.77-1.92-.6-4.02.53-6.37 1.13-2.36 3.25-4.72 5.56-6.25 1.932-1.288 3.872-1.86 5.25-1.91zm35.43 0c.195-.01.39-.015.56 0 3.777 1.043 5.255 2.677 6.094 4.747.866 2.143.85 5.164-.158 8.092-1.008 2.92-2.983 5.61-4.937 7.03-1.952 1.41-3.38 1.69-5.216.93-4.983-2.068-6.916-4.36-7.687-6.28-.772-1.92-.597-4.02.53-6.37 1.13-2.36 3.255-4.72 5.563-6.25 1.933-1.288 3.875-1.86 5.248-1.91zm45.52 0c.195-.01.39-.015.562 0 3.78 1.043 5.284 2.677 6.122 4.747.868 2.143.82 5.164-.188 8.092-1.008 2.92-2.983 5.61-4.935 7.03-1.953 1.41-3.38 1.69-5.218.93-4.983-2.068-6.916-4.36-7.686-6.28-.77-1.92-.59-4.02.53-6.37 1.13-2.36 3.26-4.72 5.56-6.25 1.94-1.287 3.88-1.86 5.25-1.91zM16.74 102.21c-2.76.06-4.933 2.332-4.873 5.092.06 2.762 2.33 4.966 5.09 4.906l77.17 2.342c2.762.087 5.07-2.08 5.156-4.84.086-2.762-2.082-5.07-4.843-5.156l-77.2-2.344c-.167-.008-.334-.008-.5 0zm117.317 118.16c-2.008.005-3.817 1.21-4.594 3.06-2.195 5.027-1.79 10.542-1.437 16.934.352 6.393 1.03 13.49 1.03 20.152-.026 1.803.91 3.466 2.468 4.374 1.557.91 3.504.91 5.06 0 1.558-.908 2.495-2.57 2.47-4.374 0-7.317-.696-14.6-1.03-20.683-.336-6.082.07-11.134.623-12.403.705-1.553.556-3.35-.374-4.78-.93-1.43-2.512-2.293-4.217-2.28zm33.147 2.31c-.284.01-.56.038-.843.063-3.39.31-6.6 1.71-9.43 3.594-3.78 2.507-7.024 6.005-9.06 10.246-2.03 4.242-2.79 9.466-.81 14.404 1.98 4.936 6.485 9.043 13.154 11.81 5.24 2.173 10.893.834 14.9-2.063 3.295-2.38 5.826-5.705 7.53-9.435 2.046 4.79 6.474 8.79 12.997 11.49 5.244 2.17 10.896.832 14.903-2.065 4.006-2.897 6.9-7.17 8.53-11.903 1.63-4.736 1.985-10.108-.034-15.09-2.02-4.985-6.71-9.15-13.247-10.81-.186-.044-.374-.075-.563-.096-1.174-.157-2.338-.197-3.47-.095-3.398.31-6.57 1.71-9.405 3.594-3.307 2.193-6.212 5.14-8.248 8.683-.14-.43-.297-.854-.47-1.28-2.02-4.984-6.738-9.148-13.278-10.81-.187-.043-.375-.074-.564-.095-.878-.12-1.74-.184-2.593-.158zm82.95 0c-.288.01-.562.038-.844.063-3.397.31-6.57 1.71-9.405 3.594-3.778 2.507-7.027 6.005-9.06 10.246-2.033 4.242-2.792 9.466-.813 14.404 1.98 4.936 6.485 9.043 13.154 11.81 5.242 2.173 10.894.834 14.9-2.063 3.293-2.38 5.802-5.706 7.5-9.435 2.042 4.79 6.5 8.79 13.028 11.49 5.244 2.17 10.895.832 14.902-2.065 3.293-2.38 5.8-5.706 7.5-9.435 2.04 4.798 6.498 8.79 13.027 11.498 5.243 2.172 10.863.833 14.87-2.064 4.01-2.897 6.9-7.17 8.53-11.903 1.63-4.734 2.02-10.106 0-15.09-2.02-4.983-6.708-9.15-13.246-10.81-.185-.042-.373-.073-.562-.094-1.17-.156-2.335-.196-3.468-.094-3.397.31-6.6 1.71-9.435 3.594-3.325 2.206-6.217 5.173-8.247 8.746-.144-.45-.29-.898-.47-1.343-2.02-4.986-6.71-9.15-13.247-10.81-.183-.045-.37-.076-.56-.097-1.17-.16-2.337-.2-3.47-.097-3.395.31-6.6 1.71-9.434 3.594-3.326 2.21-6.216 5.176-8.248 8.75-.143-.45-.288-.9-.47-1.344-2.018-4.984-6.707-9.148-13.245-10.81-.18-.043-.37-.074-.56-.095-.87-.115-1.76-.18-2.62-.153zm-82.388 10.06c.196-.003.392.017.562.033 3.72 1.045 5.195 2.69 6.03 4.75.867 2.14.82 5.13-.19 8.06-1.006 2.928-2.95 5.618-4.903 7.03-1.953 1.41-3.38 1.73-5.218.968-4.982-2.06-6.946-4.39-7.717-6.31-.772-1.92-.567-3.98.562-6.34 1.128-2.35 3.255-4.75 5.56-6.28 1.96-1.3 3.935-1.87 5.312-1.9zm35.397 0c.197-.003.393.018.563.033 3.725 1.045 5.227 2.69 6.06 4.75.87 2.14.822 5.13-.187 8.06-1.01 2.928-2.99 5.618-4.94 7.03-1.95 1.41-3.35 1.73-5.19.968-4.98-2.06-6.947-4.39-7.717-6.31-.77-1.92-.566-3.98.562-6.34 1.13-2.35 3.253-4.75 5.56-6.28 1.947-1.29 3.905-1.87 5.28-1.9zm47.55 0c.197-.003.394.017.564.033 3.726 1.045 5.228 2.69 6.062 4.75.86 2.14.82 5.13-.19 8.06-1.01 2.928-2.99 5.618-4.94 7.03-1.956 1.41-3.38 1.73-5.22.968-4.98-2.06-6.916-4.39-7.686-6.31-.77-1.92-.598-3.98.53-6.34 1.13-2.35 3.286-4.75 5.594-6.28 1.956-1.3 3.907-1.87 5.28-1.9zm35.43 0c.196-.003.393.017.562.033 3.726 1.045 5.227 2.69 6.06 4.75.868 2.14.82 5.13-.186 8.06-1.01 2.928-2.99 5.618-4.94 7.03-1.95 1.41-3.38 1.73-5.22.968-4.987-2.06-6.92-4.39-7.69-6.31-.77-1.92-.597-3.98.53-6.34 1.128-2.35 3.255-4.75 5.56-6.28 1.96-1.3 3.935-1.87 5.313-1.9zm35.43 0c.196-.003.392.017.562.033 3.72 1.045 5.195 2.69 6.03 4.75.866 2.14.85 5.13-.158 8.06-1.008 2.928-2.983 5.618-4.937 7.03-1.952 1.41-3.38 1.73-5.216.968-4.983-2.06-6.916-4.39-7.687-6.31-.772-1.92-.597-3.98.53-6.34 1.13-2.35 3.255-4.75 5.563-6.28 1.957-1.3 3.933-1.87 5.31-1.9zM16.74 243.898c-2.76.06-4.933 2.332-4.873 5.093.06 2.76 2.33 4.97 5.09 4.91l77.17 2.347c2.762.086 5.07-2.082 5.156-4.842.086-2.76-2.082-5.07-4.843-5.154l-77.2-2.343c-.167-.01-.334-.01-.5 0zm117.505 118.16c-.223-.005-.464.005-.688.03-1.824.194-3.394 1.37-4.094 3.063-2.195 5.03-1.79 10.54-1.437 16.94.352 6.39 1.03 13.49 1.03 20.15-.026 1.807.91 3.468 2.468 4.377 1.557.91 3.504.91 5.06 0 1.558-.91 2.495-2.572 2.47-4.374 0-7.32-.696-14.63-1.03-20.714-.336-6.08.07-11.1.623-12.37.756-1.638.587-3.57-.468-5.03-.93-1.28-2.39-2.026-3.94-2.06zm33.835 2.342c-.57-.01-1.153.01-1.718.062-3.397.308-6.6 1.68-9.436 3.562-3.78 2.508-7.027 6.037-9.06 10.28-2.033 4.24-2.793 9.465-.812 14.4 1.98 4.938 6.484 9.045 13.153 11.81 5.24 2.176 10.893.805 14.9-2.092 3.295-2.38 5.826-5.68 7.53-9.404 2.046 4.793 6.474 8.793 12.997 11.497 5.244 2.175 10.896.804 14.903-2.093 4.008-2.897 6.9-7.14 8.53-11.873 1.63-4.74 1.987-10.11-.032-15.09-2.018-4.99-6.708-9.18-13.246-10.85-.19-.04-.38-.074-.57-.094-1.17-.158-2.338-.166-3.47-.063-3.396.31-6.57 1.68-9.405 3.562-3.307 2.194-6.21 5.165-8.248 8.716-.14-.43-.298-.854-.47-1.28-2.02-4.984-6.74-9.18-13.28-10.842-.184-.043-.372-.074-.56-.094-.586-.08-1.148-.114-1.72-.124zm82.948 0c-.578-.01-1.152.01-1.717.062-3.39.308-6.57 1.68-9.4 3.562-3.78 2.508-7.023 6.037-9.06 10.28-2.03 4.24-2.79 9.465-.81 14.4 1.98 4.938 6.486 9.045 13.155 11.81 5.24 2.176 10.894.805 14.9-2.092 3.293-2.38 5.8-5.682 7.5-9.404 2.04 4.798 6.5 8.79 13.028 11.497 5.245 2.175 10.896.804 14.903-2.093 4.006-2.897 6.87-7.14 8.5-11.873 1.626-4.74 2.016-10.11 0-15.09-2.02-4.99-6.71-9.18-13.25-10.85-.185-.04-.37-.074-.56-.094-1.17-.158-2.34-.166-3.47-.063-3.397.31-6.6 1.68-9.436 3.562-3.327 2.207-6.217 5.2-8.25 8.777-.143-.45-.29-.896-.47-1.34-2.02-4.984-6.707-9.18-13.245-10.842-.183-.04-.37-.072-.56-.092-.585-.08-1.17-.117-1.75-.127zm-83.323 10.06c.196-.007.39-.015.562 0 3.774 1.044 5.252 2.68 6.09 4.75.87 2.14.822 5.13-.187 8.06-1.007 2.928-2.952 5.648-4.904 7.06-1.953 1.412-3.38 1.7-5.218.937-4.982-2.066-6.946-4.388-7.717-6.31-.77-1.924-.56-3.99.57-6.343 1.13-2.355 3.256-4.717 5.56-6.25 1.937-1.284 3.878-1.854 5.25-1.904zm35.43 0c.195-.007.39-.015.562 0 3.754 1.045 5.254 2.683 6.09 4.75.87 2.14.822 5.13-.187 8.06-1.008 2.928-2.984 5.648-4.937 7.06-1.952 1.412-3.348 1.7-5.185.937-4.982-2.066-6.946-4.388-7.716-6.31-.77-1.924-.566-3.99.562-6.343 1.13-2.355 3.254-4.717 5.56-6.25 1.936-1.284 3.877-1.854 5.25-1.904zm47.52 0c.194-.007.39-.015.56 0 3.78 1.044 5.285 2.677 6.125 4.75.868 2.14.82 5.13-.188 8.06-1.01 2.928-2.984 5.648-4.936 7.06-1.953 1.412-3.38 1.7-5.218.937-4.98-2.066-6.915-4.388-7.685-6.31-.77-1.924-.598-3.99.53-6.343 1.13-2.355 3.286-4.717 5.594-6.25 1.932-1.282 3.848-1.853 5.217-1.904zm35.428 0c.195-.007.39-.015.563 0 3.778 1.044 5.283 2.677 6.123 4.75.86 2.14.82 5.13-.19 8.06-1.01 2.928-2.99 5.648-4.94 7.06-1.95 1.412-3.38 1.7-5.22.937-4.983-2.066-6.915-4.388-7.687-6.31-.77-1.924-.596-3.99.532-6.343 1.127-2.355 3.254-4.717 5.56-6.25 1.935-1.284 3.875-1.854 5.25-1.904zm-269.34 11.153c-2.76.06-4.934 2.333-4.874 5.093.06 2.76 2.33 4.965 5.09 4.905l77.17 2.32c1.86.2 3.69-.68 4.71-2.25 1.026-1.565 1.082-3.554.156-5.183-.927-1.63-2.69-2.61-4.56-2.532l-77.2-2.342c-.168-.007-.335-.007-.5 0zm117.316 118.16c-2.01.006-3.82 1.21-4.6 3.062-2.198 5.025-1.79 10.54-1.44 16.933.352 6.392 1.03 13.49 1.03 20.15-.026 1.803.91 3.466 2.47 4.375 1.556.908 3.503.908 5.06 0 1.56-.91 2.494-2.572 2.47-4.374 0-7.32-.697-14.6-1.03-20.69-.337-6.08.07-11.137.622-12.406.704-1.553.555-3.35-.375-4.78-.93-1.43-2.51-2.294-4.218-2.28zm34.02 2.31c-.57-.007-1.16.013-1.72.064-3.4.308-6.6 1.68-9.44 3.562-3.78 2.5-7.028 6.03-9.06 10.27-2.034 4.24-2.794 9.463-.81 14.4 1.98 4.937 6.482 9.044 13.15 11.81 5.24 2.175 10.894.804 14.9-2.093 3.296-2.38 5.827-5.68 7.53-9.404 2.047 4.792 6.475 8.792 12.998 11.496 5.245 2.173 10.897.802 14.904-2.095 4.008-2.9 6.9-7.14 8.53-11.875 1.63-4.733 1.987-10.106-.032-15.09-2.018-4.983-6.708-9.15-13.246-10.81-.187-.052-.374-.094-.564-.125-1.172-.157-2.336-.166-3.47-.063-3.394.31-6.567 1.68-9.403 3.563-3.308 2.196-6.21 5.167-8.25 8.718-.14-.434-.296-.856-.47-1.283-2.02-4.982-6.737-9.147-13.277-10.81-.185-.05-.372-.093-.562-.124-.584-.08-1.146-.114-1.717-.124zm82.95 0c-.58-.007-1.16.013-1.72.064-3.4.308-6.57 1.68-9.41 3.562-3.78 2.5-7.028 6.03-9.06 10.27-2.034 4.24-2.79 9.463-.814 14.4 1.98 4.937 6.485 9.044 13.154 11.81 5.243 2.175 10.895.804 14.9-2.093 4.01-2.897 6.87-7.14 8.5-11.873s2.02-10.106 0-15.09c-2.02-4.983-6.71-9.148-13.246-10.81-.186-.05-.37-.094-.563-.125-.583-.08-1.17-.117-1.75-.127zm-83.26 10.062c.19-.006.39.015.56.03 3.72 1.046 5.19 2.662 6.03 4.72.86 2.14.82 5.162-.19 8.09-1.01 2.93-2.95 5.618-4.91 7.03-1.953 1.41-3.38 1.698-5.218.937-4.983-2.066-6.947-4.357-7.718-6.28-.773-1.923-.568-4.02.56-6.373 1.13-2.36 3.256-4.72 5.56-6.25 1.96-1.3 3.936-1.88 5.313-1.91zm35.39 0c.195-.006.39.016.56.03 3.725 1.046 5.227 2.66 6.06 4.72.87 2.14.82 5.162-.187 8.09-1.01 2.93-2.985 5.618-4.938 7.03-1.953 1.41-3.35 1.698-5.186.937-4.98-2.066-6.946-4.357-7.716-6.28-.77-1.923-.566-4.02.562-6.373 1.13-2.36 3.254-4.72 5.56-6.25 1.948-1.29 3.906-1.87 5.28-1.91zm47.55 0c.195-.006.392.015.562.03 3.725 1.046 5.227 2.66 6.06 4.72.87 2.14.82 5.162-.187 8.09-1.01 2.93-2.984 5.618-4.936 7.03-1.953 1.41-3.38 1.698-5.218.937-4.98-2.066-6.916-4.357-7.686-6.28-.77-1.923-.596-4.02.53-6.373 1.13-2.36 3.288-4.72 5.596-6.25 1.955-1.3 3.906-1.88 5.277-1.91zM16.74 527.298c-2.76.06-4.933 2.33-4.873 5.093.06 2.76 2.33 4.97 5.09 4.91l77.17 2.348c2.76.086 5.07-2.082 5.155-4.843.086-2.76-2.082-5.07-4.843-5.155l-77.2-2.34c-.17-.01-.338-.01-.5 0zm117.317 118.16c-2.01.006-3.818 1.21-4.595 3.06-2.195 5.026-1.79 10.574-1.437 16.966.35 6.392 1.03 13.49 1.03 20.15-.03 1.804.91 3.466 2.465 4.374 1.558.91 3.505.91 5.06 0 1.56-.908 2.496-2.57 2.47-4.373 0-7.317-.695-14.63-1.03-20.713-.335-6.083.07-11.103.624-12.373.72-1.56.59-3.38-.344-4.82-.93-1.44-2.534-2.3-4.248-2.28zm34.02 2.343c-.57 0-1.152.02-1.717.07-3.396.31-6.6 1.68-9.435 3.56-3.78 2.51-7.027 6.04-9.06 10.28-2.033 4.24-2.793 9.437-.812 14.37 1.98 4.94 6.484 9.047 13.153 11.81 5.24 2.177 10.89.837 14.9-2.06 3.292-2.38 5.823-5.703 7.53-9.435 2.043 4.795 6.47 8.79 12.994 11.5 5.244 2.173 10.896.833 14.903-2.064 4.007-2.897 6.9-7.17 8.53-11.903 1.63-4.732 1.986-10.074-.033-15.06-2.018-4.98-6.708-9.18-13.246-10.84-.186-.04-.374-.072-.563-.092-1.17-.156-2.33-.165-3.47-.062-3.39.31-6.562 1.68-9.4 3.563-3.305 2.195-6.21 5.164-8.25 8.715-.14-.43-.293-.852-.47-1.28-2.02-4.98-6.734-9.18-13.274-10.84-.186-.04-.374-.072-.563-.092-.584-.08-1.146-.118-1.717-.126zm-.312 10.03c.193 0 .39.02.56.03 3.72 1.05 5.194 2.7 6.03 4.75.866 2.15.82 5.14-.19 8.06-1.007 2.93-2.95 5.65-4.904 7.06-1.95 1.42-3.38 1.7-5.214.94-4.983-2.06-6.947-4.38-7.718-6.31-.772-1.92-.567-3.99.562-6.34 1.127-2.35 3.254-4.75 5.56-6.28 1.96-1.3 3.934-1.87 5.31-1.9zm35.394 0c.193 0 .39.02.56.03 3.723 1.05 5.225 2.69 6.06 4.75.87 2.15.82 5.14-.19 8.06-1.01 2.93-2.984 5.65-4.937 7.06-1.953 1.42-3.35 1.7-5.186.94-4.98-2.06-6.946-4.38-7.716-6.31-.77-1.92-.564-3.99.564-6.34 1.13-2.35 3.255-4.75 5.56-6.28 1.95-1.29 3.907-1.87 5.28-1.9zM16.74 669.02c-2.598.258-4.556 2.48-4.498 5.092.057 2.61 2.11 4.73 4.717 4.872l77.17 2.345c2.765.08 5.07-2.087 5.16-4.848.085-2.76-2.08-5.067-4.84-5.153l-77.2-2.31c-.17-.01-.338-.01-.5 0zm117.32 118.153c-2.008.007-3.817 1.213-4.594 3.062-2.195 5.025-1.79 10.542-1.437 16.934.35 6.39 1.03 13.48 1.03 20.15-.03 1.8.91 3.46 2.46 4.37 1.556.91 3.503.91 5.06 0 1.56-.91 2.494-2.57 2.47-4.38 0-7.317-.697-14.63-1.03-20.714-.337-6.08.07-11.1.622-12.37.704-1.554.555-3.35-.375-4.78-.93-1.43-2.51-2.294-4.217-2.28zm34.022 2.313c-.57-.01-1.153.01-1.718.062-3.397.308-6.6 1.68-9.436 3.56-3.78 2.51-7.027 6.038-9.06 10.28-2.033 4.242-2.793 9.466-.812 14.403 1.98 4.94 6.484 9.05 13.153 11.81 5.24 2.18 10.89.81 14.9-2.09s6.9-7.14 8.53-11.87c1.63-4.73 2.02-10.11 0-15.09s-6.74-9.15-13.28-10.81c-.19-.05-.37-.09-.56-.12-.59-.08-1.15-.116-1.72-.124zm-.375 10.06c.196-.007.39-.014.562 0 3.77 1.043 5.25 2.678 6.09 4.748.87 2.142.82 5.163-.19 8.093-1.01 2.928-2.95 5.618-4.91 7.03-1.953 1.41-3.38 1.698-5.218.936-4.983-2.066-6.947-4.356-7.718-6.28-.773-1.922-.568-4.02.56-6.374 1.13-2.36 3.256-4.72 5.56-6.25 1.937-1.29 3.878-1.86 5.25-1.91zM16.742 810.7c-2.76.06-4.933 2.33-4.873 5.092.06 2.76 2.33 4.966 5.09 4.905l77.17 2.343c2.76.085 5.07-2.083 5.15-4.843.083-2.76-2.08-5.068-4.846-5.155l-77.2-2.342c-.167-.01-.334-.01-.5 0zm150.465 120.47c-.284.01-.56.037-.843.063-3.397.308-6.6 1.71-9.436 3.594-3.78 2.508-7.027 6.004-9.06 10.246-2.033 4.242-2.793 9.466-.812 14.403 1.98 4.937 6.484 9.044 13.153 11.81 5.24 2.174 10.89.834 14.9-2.062 4.01-2.897 6.9-7.17 8.53-11.904 1.63-4.733 2.02-10.075 0-15.06-2.02-4.982-6.74-9.178-13.28-10.84-.19-.04-.38-.072-.56-.094-.88-.118-1.74-.18-2.6-.156zm.562 10.06c.19-.004.39.015.56.032 3.72 1.045 5.19 2.692 6.03 4.75.86 2.14.82 5.13-.19 8.06-1.01 2.928-2.95 5.617-4.91 7.028-1.953 1.412-3.38 1.73-5.218.97-4.983-2.067-6.947-4.39-7.718-6.312-.773-1.923-.568-3.988.56-6.342 1.13-2.355 3.256-4.748 5.56-6.28 1.96-1.3 3.936-1.873 5.313-1.906zM16.74 952.384c-2.527.185-4.55 2.254-4.623 4.842-.08 2.762 2.08 5.078 4.84 5.156l77.17 2.343c2.762.086 5.07-2.082 5.156-4.843.086-2.76-2.082-5.07-4.843-5.155l-77.2-2.343c-.173-.005-.332-.012-.5 0M1300.353.268c-.42.033-.84.138-1.25.312l-61.146 25.744c-1.54.54-2.685 2.023-2.99 3.843-.302 1.82.27 3.682 1.53 4.843 1.25 1.16 2.978 1.42 4.46.687l47.557-20.026-263.137 374.38-72.358-70.11c-1.18-1.14-2.72-1.68-4.25-1.5-1.54.19-2.94 1.08-3.89 2.47L725.62 642.65l-82.757-105.82c-1.11-1.43-2.718-2.23-4.384-2.186-1.668.043-3.225.92-4.277 2.407L432.11 822.26 296.92 675.95c-1.458-1.697-3.61-2.34-5.607-1.687-1.998.653-3.515 2.486-3.976 4.81-.46 2.326.21 4.765 1.77 6.343l139.65 151.152c1.146 1.243 2.7 1.868 4.272 1.75 1.57-.12 3.03-.97 4.03-2.375L638.84 551.2l82.84 105.942c1.124 1.437 2.756 2.222 4.437 2.156 1.68-.067 3.24-.978 4.274-2.5l219.8-322.517 72.31 70.05c1.17 1.13 2.7 1.67 4.22 1.5 1.52-.17 2.908-1.04 3.867-2.4l266.19-378.72 1.52 60.266c.08 2.76 2.09 4.93 4.494 4.843 2.405-.088 4.297-2.395 4.215-5.156L1304.96 5.15c-.025-1.352-.515-2.64-1.39-3.56-.865-.918-2.03-1.39-3.21-1.312" fill="#6adf5f"/></g></svg>