<svg xmlns="http://www.w3.org/2000/svg" width="431.102" height="318.994"><g fill-rule="evenodd"><path d="M293.95 7.108c-20.252-.05-39.84 5.775-53.657 20.47-16.183 17.21-27.416 49.913-28.906 83.405-.745 16.747 1.156 33.635 7.406 48.72 6.25 15.083 14.982 35.513 31.813 43.28C356.252 265.317 437.373 176.27 404.23 75.577c-3.043-7.94-7.23-15.794-12.812-23.312-14.32-19.288-41.157-34.855-69.938-41.75-8.993-2.155-18.326-3.384-27.53-3.407zm24.187 32.157c16.12-.047 32.534 4.358 44.125 15.125 12.986 12.062 25.045 33.05 28 59.562 1.477 13.255-.9 30.796-4.72 43.438-3.816 12.64-11.314 24.52-23.405 32.406-50.956 38.745-123.52-3.12-119.188-80.594 3.595-36.646 31.492-62.437 56.717-67.97 5.915-1.266 12.16-1.95 18.47-1.967" opacity=".25" fill="#6adf5f"/><path d="M315.382 54.695c-30.406.462-56.91 28.077-58.993 57.587-3.74 31.648 19.26 70.243 51.766 75.057 27.846 4.483 56.307-19.51 64.32-46.05 11.1-31.45-4.194-71.464-36.47-83.16-6.508-2.39-13.614-3.717-20.625-3.436zm.625 16c25.774-.884 47.08 24.104 45.875 49.125.336 25.137-21.933 49.884-48.03 47.594-24.756-1.772-41.79-26.403-39.773-50.75.953-23.348 17.517-45.9 41.926-45.97" opacity=".5" fill="#6adf5f"/><path d="M320.674 91.9c20.58-11.136 40.69 6.15 30.457 46.63-2.21 5.737-5.885 9.735-9.933 12.184-4.048 2.448-8.533 3.507-12.955 3.698-8.844.38-17.392-2.46-21.793-7.336-5.466-6.054-5.84-16.62-3.75-26.266 2.093-9.647 6.46-18.877 11.694-24.09 2.04-2.03 4.155-3.614 6.282-4.822" fill="#6adf5f"/><path d="M321.657.004c-.854.006-1.708.03-2.563.062-28.263.59-55.1 14.366-73.437 34.688-26.985 29.495-37.37 70.732-31.063 109.25-1.012.5-1.6 1.61-1.343 2.75-.343.4-.41.533-.873 1.03-1.05 1.13-2.31 2.458-3.438 3.813-1.13 1.355-2.17 2.645-2.75 4.25-.107.294-.238.685-.22 1.188-1.408.44-3.14 1.64-5.125 2.906-13.612 8.697-26.218 13.62-38.125 11.815-.063-.013-.126-.024-.188-.032.02-1.023.086-2.016.25-3 .62-3.708.344-7.355.344-10.625 0-3.797-.8-7.39-.344-10.125.66-3.97.656-7.737.656-11.562 0-3.81-.312-7.533-.312-11.155 0-3.793-.313-7.43-.313-10.844 0-4.11-1.15-6.447-1.937-9.593-.72-2.876-2.353-6.26-4.688-8.594-.357-.357-.662-.94-1.062-1.875-.4-.933-.873-2.216-2.032-3.375-.06-.06-.646-.983-1.218-2-.573-1.016-1.122-2.177-2.47-3.187-1.487-1.116-2.928-2.776-5.312-3.97-1.386-.69-3.702-2.526-6.718-3.28-.418-.104-1.274-.544-2.282-1.063-1.007-.518-2.216-1.187-3.906-1.187-1.8 0-4.76-.594-7.75-.594-2.226 0-4.642-.33-6.812-.874-1.43-.357-2.964-.462-4.47-.437-1.505.025-2.973.188-4.28.406-.495.082-2.26.13-3.97.22-1.71.087-3.354.05-5.124.936-1.278.64-4.44 1.246-6.72 1.626-3.386.565-8.243 2.025-11.25 5.03-2.22 2.22-5.555 3.774-8.28 7.408-2.29 3.053-4.565 6.702-5.406 10.906-.705 3.53-1.462 6.897-2.188 10.53-.68 3.402-1.594 7.366-1.594 11.345 0 3.47-.68 7.89.032 12.156.6 3.606.593 7.366.593 11.376 0 3.954-.314 7.853-.314 12.062 0 2.357.1 4.626.187 6.874-.435.098-.858.312-1.187.625-11.407 10.546-19.283 28.533-28.563 40.906-.942 1.257-1.373 2.522-1.687 3.53-.21.01-.42.04-.625.064l-17-102.408 7.813 6.563c1.062.886 2.645.717 3.532-.344.886-1.06.717-2.612-.344-3.5L13.126 100.1l-.032-.03c-.16-.186-.356-.34-.562-.47l-.72-.593c-.512-.433-1.172-.628-1.842-.563-.89.095-1.67.654-2.032 1.47L.25 117.222c-.403.824-.31 1.815.22 2.563.53.747 1.402 1.14 2.312 1.03.91-.11 1.693-.71 2.03-1.56l4.94-11.095 17.186 103.594c-1.374.53-2.728 1.122-3.906 1.625-.63.266-.785.31-1.28.5-1.115-.707-2.6-.444-3.376.623-.226.3-.406.605-.594 1.03-.19.427-.506 1.138-.094 2.22.412 1.08 1.595 1.606 2.188 1.687.592.082.927.034 1.25-.03 1.278-.255 2.382-.796 3.812-1.406-.26.246-.627.596-.844.812-.546.546-.865.855-1.25 1.47-.096.153-.233.328-.343.655-.11.33-.275.908.064 1.783.34.875 1.34 1.492 1.906 1.594.566.103.87.016 1.093-.03.888-.194 1.084-.402 1.53-.657.45-.256.94-.56 1.47-.908l.188-.125 4.44 26.72c.225 1.364 1.51 2.288 2.874 2.062 1.365-.23 2.29-1.51 2.063-2.877l-3.25-19.563c.63-.225 1.155-.684 1.437-1.31.47-.94.755-1.965.78-2.814.028-.85-.06-1.352-.06-2.406 0-.74.478-3.28.5-5.375.004-.524-.027-1.054-.19-1.688-.11-.432-.324-1.016-.81-1.53.215-.55.36-1.075.5-1.532.32-1.05.58-1.856 1.06-2.5 9.144-12.19 16.724-28.42 25.876-38.156v9.685c0 3.946.312 7.826.312 11.438v9.625c0 4.11.937 7.572.937 10.842 0 1.975.302 8.564.623 15.25.227 4.704.418 8.705.532 11.375-.093.11-.177.218-.25.344-.455.78-.455 1.753 0 2.53.117.203.243.375.406.533.138.695.56 1.29 1.188 1.656.778.454 1.752.454 2.53 0 .42-.246.756-.58.97-1 3.44-.084 7.778-.25 11.03-.25.952 0 1.933.014 2.907.06-.016 16.42-.14 35.545 2.97 51.44.414 2.116.686 4.207.686 6.25v.093c-.003.006-.023.12-.155.312-.283.41-.86 1.044-1.656 1.75-1.595 1.412-3.97 3.102-6.407 4.656-2.436 1.556-4.952 3.01-6.875 4.095-.962.542-1.78.984-2.376 1.313-.298.163-.533.302-.718.405-.185.102-.14.045-.532.312-.78.493-1.213 1.36-1.156 2.282.058.92.6 1.732 1.438 2.124.79.37 1.71.31 2.437-.156-.05.032-.036.018.126-.093.043-.026.085-.04.125-.062.17-.092.42-.208.72-.374.6-.33 1.45-.788 2.437-1.344 1.97-1.112 4.54-2.62 7.093-4.25 2.554-1.63 5.07-3.39 7.03-5.125.98-.867 1.838-1.724 2.5-2.687.593-.858 1.1-1.916 1-3.25h.033c0-2.487-.327-4.895-.782-7.22-2.934-15-2.916-33.735-2.905-50.093 4.65.377 9.48.768 14.375.157 5.856-.733 12.7.777 19.813-1 2.432-.61 5.548-.574 8.875-.407.002.094.003.127 0 .25-.013.942-.064 2.372-.187 4.094-.245 3.444-.68 8.076-1.124 12.906-.442 4.83-.904 9.852-1.22 14.063-.314 4.21-.532 7.42-.342 9.47.74 8.02-1.592 14.526-.782 23.28.09.955.405 1.17.563 1.374.156.203.267.305.375.406.215.203.41.37.625.532.43.324.94.655 1.562 1.063 1.242.816 2.868 1.824 4.53 2.844l4.75 2.904c1.38.842 2.53 1.575 2.688 1.687.734.544 1.7.656 2.53.283.834-.373 1.418-1.154 1.5-2.063.085-.908-.34-1.793-1.092-2.31-.633-.455-1.608-1.057-3-1.908-1.393-.85-3.107-1.866-4.75-2.875-1.644-1.008-3.225-2.025-4.375-2.78-.388-.256-.613-.41-.874-.595-.43-7.153 1.59-13.516.78-22.28-.093-1.015.035-4.514.345-8.657.31-4.144.776-9.14 1.22-13.97.44-4.83.87-9.496 1.123-13.03.127-1.768.202-3.245.22-4.375v-.03c1.798.11 3.593.217 5.28.217 3.677 0 7.212.313 11.125.313h2.156c.648.187 1.37.1 1.968-.25.78-.455 1.263-1.286 1.25-2.188 0-.167.114-2.663.282-5.78.167-3.118.37-7.112.593-11.095.223-3.982.457-7.953.624-11.062.17-3.11.283-5.1.283-5.97 0-2.016.625-4.31.625-7.124 0-3.007.313-5.407.313-8.654V180.69c0-1.348-.06-2.648-.124-3.905 14.088 1.84 26.433-3.42 40.844-12.625 1.487-.95 3.172-1.924 5.187-2.75.22.23.43.4.624.53.543.37 1.038.547 1.533.72 1.978.69 4.523 1.094 5.218 1.344.993.357 1.444.643 2.25.906.44.142.96.226 1.5.25 4.403 12.987 10.876 25.32 19.408 36.344 16.938 22.3 43.047 38.763 71.907 41.78 26.352 3.065 53.43-5.407 73.687-21.687 28.47-22.506 44.414-57.595 46.063-92.687 1.986-36.47-11.21-74.164-38.438-100C373.85 11.042 348.123-.216 321.657.004zm-.125 4.187c23.61-.182 46.63 9.077 64.062 24.25 27.215 23.446 41.363 58.935 41.157 93.783.06 34.81-14.202 70.26-41.5 93.563-19.425 16.862-46.05 26.19-72.25 23.5-27.713-2.484-52.947-18.01-69.467-39.188-8.99-11.37-15.694-24.222-20.094-37.78v-.032c-.04-.306-.145-.586-.28-.844-.013-.02-.02-.04-.033-.06-.713-2.256-1.352-4.524-1.938-6.814.16-.16.353-.354.562-.687.12-.193.28-.464.376-1.032.095-.567-.137-1.727-.844-2.343-.458-.4-.86-.542-1.188-.594-8.41-38.78.952-81.387 28.063-111.593C265.753 18.41 291.8 4.83 319.25 4.222c.763-.026 1.52-.025 2.282-.03zm.406 11.283c-52.41 0-94.937 47.693-94.937 106.47 0 58.775 42.528 106.5 94.94 106.5 52.41 0 94.937-47.725 94.937-106.5 0-58.777-42.527-106.47-94.938-106.47zm.406 4c3.165.01 6.33.207 9.47.625 37.558 4.204 67.332 35.64 76.968 71.157 12.2 42.64-2.666 92.903-39.72 118.375-27.19 19.607-66.203 19.43-93.593.53-39.784-26.884-54.077-81.916-38.064-126.125 11.622-34.776 44.176-63.585 81.78-64.5 1.056-.033 2.102-.065 3.157-.063zm-.375 13.938c-18.777-.12-37.19 7.72-50.845 20.5-36.253 32.968-38.018 95.715-4.75 131.345 20.87 24.22 58.276 32.528 87.03 18.093 38.387-18.523 56.003-66.75 44.626-106.812-8.377-34.21-39.79-63.528-76.062-63.125zm-.033 4c41.62 0 75.406 37.856 75.406 84.53 0 46.678-33.786 84.565-75.406 84.565-41.62 0-75.406-37.887-75.406-84.563 0-46.675 33.787-84.53 75.407-84.53zm0 18.157c-32.68 0-59.22 29.726-59.22 66.375 0 36.65 26.54 66.407 59.22 66.407s59.188-29.758 59.188-66.407c0-36.648-26.508-66.374-59.188-66.374zm.03 4c.465-.006.915-.012 1.376 0 6.458.17 12.772 1.684 18.625 4.25 32.074 14.103 43.48 56.68 28.937 87.063-9.824 23.1-36.25 38.597-61.125 32.03-30.168-7.864-47.358-41.713-42.313-71.28 3.172-26.39 25.33-51.486 53.093-52.033.464-.015.943-.025 1.406-.03zm-.874 12.03c-2.512.05-5.01.345-7.468.845-24.88 4.986-39.974 32.07-36.72 56.19 2.1 23.582 23.233 45.507 47.75 43.655 26.053-1.635 44.52-28.15 42.563-53.156-.38-24.28-20.853-48.373-46.126-47.532zm.844 4c22.814 0 41.313 20.76 41.313 46.345 0 25.586-18.498 46.376-41.312 46.376-22.814 0-41.344-20.79-41.344-46.375 0-25.584 18.53-46.343 41.344-46.343zM113.25 79.41c.84.026 1.6.11 2.157.25.41.102.832.224 1.25.312 1.646 2.152 4.09 3.94 6.78 5.532 2.914 1.72 6.055 3.097 8.75 3.75.88.236 1.806-.003 2.44-.657.63-.653.857-1.598.592-2.468-.267-.87-.988-1.53-1.877-1.72-1.93-.47-4.797-1.715-7.343-3.22-.223-.13-.438-.27-.656-.406 1.82.175 3.858.5 5.844.5.093 0 .75.206 1.625.656.874.45 1.92 1.082 3.344 1.44 1.537.384 3.534 1.83 5.687 2.905 1.352.676 2.612 2.036 4.563 3.5-.065-.05.56.712 1.094 1.656.534.946 1.013 2.013 2.064 3.065.256.256.56.853.97 1.812.41.96.94 2.253 2.124 3.438 1.247 1.247 2.924 4.477 3.375 6.28.904 3.62 1.78 5.19 1.78 8.376 0 3.706.314 7.333.314 10.845 0 3.897.312 7.626.312 11.156 0 3.825-.02 7.268-.595 10.72-.69 4.136.282 8.047.282 10.968 0 3.51.203 6.874-.282 9.782-.783 4.705-.03 8.946-.03 12.81v3.782c-.006.003-.028-.002-.032 0-.503.252-.69.44-.813.532-5.247.13-8.754 2.156-12 2.156-9.787 0-19.61 1.47-29.407 1.47-6.804 0-15.79-1.036-24.47-1.75-8.14-.673-15.947-1.126-21.967.092-.08-1.923-.157-3.813-.157-5.656V170.16c0-4.13-.314-7.963-.314-11.78 0-3.956.312-7.855.312-12.064 0-3.987.037-8.026-.657-12.187-.516-3.11.03-7.33.03-11.346 0-3.178.805-6.855 1.5-10.344.72-3.58 1.44-6.946 2.16-10.53.6-3.006 2.46-6.144 4.53-8.906 1.865-2.485 4.826-3.89 7.813-6.875 1.25-1.25 6.187-3.23 8.563-3.627 1.724-.288 4.064-.59 6.25-1.313.026.824.25 1.61.437 2.5.363 1.73.978 3.756 1.72 6.126.222.903.94 1.62 1.843 1.844.902.222 1.852-.086 2.47-.78.615-.696.796-1.664.467-2.533-.66-2.11-1.158-3.806-1.468-5.156.893.625 1.99 1.427 3.375 2.596 2.94 2.48 4.274 3.636 5.438 4.344.29.175.283.575 1.688.53.35-.01.882-.108 1.375-.438s.858-.902 1-1.343c.29-.885.108-1.264.033-1.534-.3-1.08-.55-1.206-.875-1.718-1-1.573-2.64-4.263-3.406-6.22zm208.69 12.312c-14.88 0-26.97 13.53-26.97 30.22 0 16.69 12.09 30.25 26.97 30.25 14.883 0 26.938-13.56 26.938-30.25 0-16.69-12.055-30.22-26.938-30.22zm0 6.188c11.835 0 21.438 10.757 21.438 24.03 0 13.275-9.603 24.064-21.438 24.064-11.836 0-21.47-10.79-21.47-24.063s9.634-24.03 21.47-24.03zM97.22 111.972c-.362 0-.68.06-.936.125-1.018.26-1.67.7-1.72.72-.4.158-.748.43-1 .78-.6.85-1.363 1.884-1.25 3.657.06.886.59 2.022 1.47 2.625.88.6 1.837.75 2.875.75.86 0 1.81-.2 2.56-.815.754-.616 1.14-1.515 1.25-2.22.22-1.406-.14-2.434-.343-3.25-.192-.764-.803-1.696-1.688-2.092-.443-.2-.856-.28-1.22-.282zm30.25 0c-.362.002-.775.083-1.217.282-.884.397-1.496 1.328-1.687 2.093-.204.815-.532 1.843-.312 3.25.11.704.466 1.603 1.22 2.22.753.615 1.698.812 2.562.812 1.037 0 1.994-.15 2.875-.75.88-.605 1.443-1.74 1.5-2.627.115-1.773-.68-2.807-1.28-3.657-.252-.35-.6-.622-1-.78-.05-.02-.702-.46-1.72-.72-.254-.065-.573-.126-.937-.125zm-15.56 9.813c-.64-.008-1.256.247-1.69.72-.43.47-.655 1.112-.592 1.75.067.852.215 4.787.312 8.374.05 1.79.094 3.525.125 4.84.03 1.318.03 2.44.03 2.283-.01.81.425 1.56 1.126 1.968.7.41 1.55.41 2.25 0 .7-.407 1.137-1.156 1.125-1.967 0-.373 0-1.054-.03-2.375-.032-1.323-.077-3.076-.126-4.876-.098-3.6-.208-7.283-.313-8.625-.074-1.176-1.042-2.08-2.22-2.095zm-22.595 19c-.094-.003-.186.02-.28.03-.832.09-1.537.63-1.845 1.407-.307.777-.17 1.648.375 2.282.074.112.243.366.406.625.268.42.62.966 1.03 1.56.827 1.19 1.79 2.544 3.283 3.5 6.022 3.863 13.547 7.03 21.406 7.03 6.604 0 13.672-2.85 19.062-6.592 2.582-1.793 4.462-4.556 5.782-6.095.81-.945.695-2.376-.25-3.188-.945-.81-2.345-.695-3.156.25-1.56 1.818-3.41 4.283-4.938 5.344-4.717 3.275-11.247 5.78-16.5 5.78-6.636 0-13.46-2.777-18.97-6.31-.396-.256-1.334-1.28-2.03-2.28-.347-.5-.676-.996-.937-1.41-.26-.41-.317-.61-.718-1.092-.42-.52-1.06-.83-1.72-.845zM217.5 157.44c.18.657.343 1.316.532 1.97-.128-.048-.11-.043-.25-.094-.696-.25-1.47-.42-2.22-.594.64-.41 1.3-.835 1.94-1.28zm-60.062 32.5c.128 0 .258.014.375 0v1.595c0 2.912-.312 5.322-.312 8.656 0 1.948-.623 4.263-.623 7.127 0 .106-.114 2.588-.282 5.688-.167 3.1-.37 7.08-.593 11.062-.223 3.983-.457 7.966-.624 11.094-.077 1.41-.14 2.538-.188 3.5h-.47c-3.64 0-7.176-.312-11.124-.312-4.243 0-9.82-.913-15.187-.656-1.79.087-3.57.3-5.25.72-5.61 1.4-12.197-.003-19.22.875-4.977.622-10.38-.03-16-.406-.105-.012-.205-.033-.31-.032-.044 0-.087-.002-.127 0-1.732-.11-3.483-.187-5.25-.187-3.33 0-7.608.166-10.906.25-.122-2.79-.302-6.59-.5-10.687-.32-6.682-.625-13.673-.625-15 0-4.11-.938-7.573-.938-10.843v-9.626c0-.235-.03-.453-.03-.688 2.212-.54 5.116-.786 8.436-.812v1.656c0 1.072.196 2.54.47 4.437.27 1.898.636 4.09 1.093 6.157.457 2.066.937 3.937 1.626 5.437.342.75.61 1.498 1.717 2.22.554.36 1.533.64 2.407.407.874-.234 1.413-.8 1.75-1.25.172-.227 1.347-1.565 2.782-3.062 1.435-1.498 3.204-3.282 4.937-4.938 1.733-1.656 3.442-3.205 4.624-4.125.36-.28.504-.33.72-.468.594.024 1.164-.173 1.624-.53.024.29.05.354.064.75.03.83.01 1.775.282 2.843.136.534.335 1.14.875 1.78.233.277.563.515.938.72-.062.147-.12.277-.187.437-.547 1.3-1.223 3.017-1.905 4.813-1.366 3.594-2.81 7.604-3.156 8.47-.417 1.04-.19 1.38-.126 1.686.063.31.162.515.25.75.173.475.36.984.624 1.532.528 1.097 1.26 2.392 2 3.72.74 1.327 1.51 2.668 2.157 3.75.647 1.08 1.037 1.765 1.47 2.343.926 1.235 1.914 2.416 3.812 2.437.95.012 1.87-.466 2.406-.968.535-.503.82-1.002 1.063-1.5.964-1.994 1.218-4.275 1.688-6.157 1.16-4.642 1.273-8.546.03-14.75-.335-1.68-.687-2.995-1.155-4.093-.44-1.037-.966-1.935-1.938-2.625 1.265-.398 2.432-1.054 3.406-2.064.557-.577.962-1.372 1.156-2.25 1.145 1.105 2.61 2.636 4.156 4.28 3.52 3.743 7.115 7.773 8.344 9 .46.46 1.294.926 2.125.94.83.01 1.48-.32 1.905-.626.854-.614 1.223-1.243 1.624-1.938.802-1.39 1.472-3.153 2.156-5.125 1.368-3.943 2.606-8.608 3.22-11.063.238-.956.146-1.625.093-1.938 2.07-.11 4.14-.188 6.155-.188 5.09 0 8.47-2.22 12.468-2.22zm-74.75 1.407c2.565.104 5.256.274 8 .5 2.72.224 5.475.5 8.22.75-.332.077-.557.174-.782.282-.754.355-1.368.81-2.094 1.373-1.453 1.13-3.2 2.718-5 4.437-1.8 1.72-3.608 3.575-5.094 5.126-.49.514-.665.73-1.062 1.156-.255-.833-.51-1.446-.75-2.53-.422-1.905-.775-4.027-1.032-5.813-.256-1.79-.406-3.375-.406-3.72v-1.564zm51.125 1.313c.004.31.008.512.03.5-.596 2.384-1.804 6.904-3.06 10.53-.45 1.295-.85 2.16-1.25 3.032-1.5-1.622-3.696-4.048-6.532-7.062-1.79-1.904-3.515-3.7-4.873-4.97-.457-.425-.852-.778-1.25-1.093 5.8-.067 11.448-.54 16.937-.937zm-33.03.094c.448.04.896.086 1.343.125-.114.013-.235.02-.313.06-.126.064-.232.136-.344.22-.044-.04-.08-.06-.127-.095-.18-.136-.373-.232-.562-.312zm7.936 3.312c.893.755 1.353 1.334 1.5 1.594-.344.216-1.774.75-3.658.97-.026-.316-.05-.48-.062-.876-.01-.333-.108-.744-.124-1.094.13-.04.243-.055.375-.094.73-.215 1.485-.422 1.97-.5zm-.47 12.72c.19.596.37 1.095.562 2.06.014.073.018.12.03.19-.076.073-.16.128-.217.186-.678.72-.732 1.057-1.094 1.782-.255.513-.87 1.372-1.47 2.187.646-2.41 1.41-4.815 2.19-6.404zm-2.25 13.75c-.034.178-.068.356-.094.53-.07-.126-.116-.217-.188-.344.096-.057.19-.125.28-.187" fill="#fff"/></g></svg>