<svg xmlns="http://www.w3.org/2000/svg" viewBox="0 0 431 318"><g fill-rule="evenodd"><path d="M293.95 7.108c-20.252-.05-39.84 5.775-53.657 20.47-16.183 17.21-27.416 49.913-28.906 83.405-.745 16.747 1.156 33.635 7.406 48.72 6.25 15.083 14.982 35.513 31.813 43.28C356.252 265.317 437.373 176.27 404.23 75.577c-3.043-7.94-7.23-15.794-12.812-23.312-14.32-19.288-41.157-34.855-69.938-41.75-8.993-2.155-18.326-3.384-27.53-3.407zm24.187 32.157c16.12-.047 32.534 4.358 44.125 15.125 12.986 12.062 25.045 33.05 28 59.562 1.477 13.255-.9 30.796-4.72 43.438-3.816 12.64-11.314 24.52-23.405 32.406-50.956 38.745-123.52-3.12-119.188-80.594 3.59-36.646 31.49-62.437 56.71-67.97 5.91-1.266 12.16-1.95 18.47-1.967" opacity=".25" fill="#6adf5f"/><path d="M315.382 54.695c-30.406.462-56.91 28.077-58.993 57.587-3.74 31.648 19.26 70.243 51.76 75.057 27.84 4.48 56.3-19.51 64.32-46.05 11.1-31.45-4.2-71.47-36.47-83.16-6.51-2.39-13.62-3.72-20.63-3.44zm.625 16c25.774-.884 47.08 24.104 45.875 49.125.336 25.137-21.933 49.884-48.03 47.594-24.756-1.772-41.79-26.403-39.773-50.75.95-23.348 17.51-45.9 41.92-45.97" opacity=".5" fill="#6adf5f"/><path d="M320.674 91.9c20.58-11.136 40.69 6.15 30.457 46.63-2.21 5.737-5.88 9.735-9.93 12.184-4.05 2.448-8.53 3.507-12.95 3.698-8.84.38-17.39-2.46-21.79-7.336-5.463-6.054-5.84-16.62-3.75-26.266 2.096-9.647 6.46-18.877 11.697-24.09 2.04-2.03 4.155-3.614 6.28-4.822" fill="#6adf5f"/><path d="M321.657.004c-.854.006-1.708.03-2.563.062-28.263.59-55.1 14.366-73.437 34.688-26.985 29.495-37.37 70.732-31.063 109.25-1.012.5-1.6 1.61-1.343 2.75-.34.4-.41.533-.87 1.03-1.05 1.13-2.31 2.458-3.44 3.813s-2.17 2.645-2.75 4.25c-.1.294-.23.685-.22 1.188-1.4.44-3.14 1.64-5.12 2.906-13.61 8.7-26.22 13.62-38.12 11.82l-.185-.03c.02-1.02.086-2.01.25-3 .62-3.71.344-7.35.344-10.62 0-3.796-.8-7.39-.345-10.124.66-3.97.654-7.737.654-11.562 0-3.81-.31-7.532-.31-11.154 0-3.793-.315-7.43-.315-10.844 0-4.11-1.15-6.45-1.936-9.595-.72-2.873-2.354-6.26-4.69-8.59-.357-.357-.66-.94-1.06-1.875-.4-.93-.875-2.214-2.034-3.373-.06-.06-.643-.983-1.215-2-.574-1.016-1.123-2.177-2.47-3.187-1.49-1.118-2.93-2.778-5.313-3.97-1.386-.69-3.702-2.528-6.72-3.28-.42-.106-1.273-.546-2.28-1.065-1.008-.517-2.217-1.186-3.907-1.186-1.8 0-4.76-.595-7.75-.595-2.23 0-4.645-.33-6.815-.874-1.43-.354-2.966-.46-4.47-.434-1.507.025-2.975.188-4.28.406-.497.084-2.26.13-3.97.22-1.71.09-3.356.05-5.126.938-1.28.64-4.44 1.246-6.72 1.626-3.39.566-8.246 2.026-11.25 5.03-2.22 2.22-5.558 3.775-8.28 7.41-2.29 3.053-4.568 6.7-5.41 10.906-.705 3.53-1.462 6.897-2.19 10.53-.68 3.402-1.594 7.366-1.594 11.345 0 3.47-.68 7.89.032 12.16.6 3.606.592 7.366.592 11.376 0 3.954-.316 7.853-.316 12.062 0 2.356.1 4.625.187 6.873-.433.1-.856.31-1.185.626-11.41 10.544-19.288 28.53-28.568 40.904-.94 1.257-1.37 2.522-1.685 3.53-.21.01-.42.04-.625.064l-17-102.41 7.816 6.563c1.064.885 2.647.716 3.534-.345.885-1.06.716-2.612-.345-3.5L13.127 100.1l-.032-.03c-.16-.186-.356-.34-.562-.47l-.72-.593c-.512-.433-1.172-.628-1.842-.563-.89.095-1.67.654-2.03 1.47L.25 117.222c-.403.824-.31 1.815.22 2.563.53.747 1.402 1.14 2.312 1.03.91-.11 1.693-.71 2.03-1.56l4.94-11.095 17.186 103.594c-1.374.53-2.728 1.122-3.906 1.625-.63.26-.785.31-1.28.5-1.115-.71-2.6-.45-3.376.62-.226.3-.406.6-.594 1.03-.19.42-.506 1.14-.094 2.22.412 1.08 1.595 1.6 2.188 1.68.592.08.927.03 1.25-.03 1.278-.26 2.382-.8 3.812-1.41-.26.246-.627.596-.844.812-.546.545-.865.854-1.25 1.47-.096.152-.233.327-.343.654-.11.33-.27.91.07 1.783.34.877 1.34 1.494 1.91 1.596.57.103.87.016 1.097-.03.888-.194 1.084-.4 1.53-.657.45-.26.94-.56 1.47-.91l.188-.126 4.44 26.72c.226 1.362 1.51 2.29 2.875 2.06 1.365-.23 2.29-1.51 2.063-2.878l-3.25-19.565c.63-.225 1.155-.684 1.437-1.31.47-.94.753-1.965.78-2.814.026-.85-.06-1.35-.06-2.404 0-.74.476-3.28.5-5.376.002-.525-.03-1.055-.19-1.69-.11-.43-.326-1.015-.81-1.53.213-.55.36-1.074.5-1.53.32-1.05.58-1.857 1.06-2.5 9.142-12.19 16.722-28.42 25.874-38.157v9.682c0 3.947.313 7.827.313 11.44v9.626c0 4.11.937 7.57.937 10.84 0 1.974.302 8.563.623 15.25.228 4.703.42 8.704.533 11.374-.095.11-.18.215-.25.34-.457.78-.457 1.754 0 2.53.115.204.24.376.404.534.138.693.56 1.29 1.188 1.654.778.456 1.752.456 2.53 0 .42-.244.756-.58.97-1 3.44-.08 7.778-.25 11.03-.25.952 0 1.933.016 2.907.06-.02 16.42-.14 35.547 2.97 51.44.41 2.12.68 4.21.68 6.25v.095c-.003.003-.023.12-.155.31-.28.41-.86 1.043-1.654 1.75-1.595 1.41-3.97 3.1-6.407 4.655-2.44 1.56-4.955 3.01-6.878 4.1-.96.54-1.78.983-2.375 1.312-.3.163-.534.3-.72.405-.187.1-.14.044-.534.31-.78.49-1.213 1.36-1.156 2.28.06.92.6 1.73 1.44 2.124.79.37 1.71.31 2.437-.152-.05.034-.036.02.126-.09.043-.028.085-.04.125-.064.17-.09.42-.208.72-.374.6-.33 1.45-.79 2.437-1.345 1.97-1.113 4.54-2.62 7.094-4.25 2.55-1.63 5.07-3.39 7.03-5.126.98-.866 1.83-1.723 2.5-2.686.59-.86 1.1-1.918 1-3.25h.03c0-2.49-.33-4.897-.78-7.22-2.94-15-2.92-33.737-2.91-50.095 4.65.376 9.48.77 14.374.156 5.855-.73 12.7.78 19.812-1 2.43-.61 5.55-.572 8.874-.405 0 .094.004.127 0 .25-.012.94-.063 2.37-.186 4.094-.246 3.445-.68 8.077-1.125 12.907-.44 4.83-.905 9.854-1.22 14.065-.315 4.21-.53 7.42-.34 9.47.74 8.02-1.595 14.526-.785 23.28.09.955.407 1.17.565 1.374.16.202.27.304.378.405.213.203.41.37.623.532.43.323.94.654 1.566 1.062 1.242.815 2.868 1.823 4.53 2.843l4.75 2.903c1.38.84 2.53 1.576 2.688 1.688.735.547 1.7.66 2.53.286.835-.37 1.42-1.152 1.5-2.06.086-.907-.34-1.79-1.09-2.31-.634-.454-1.61-1.056-3-1.907-1.394-.85-3.108-1.866-4.75-2.875-1.645-1.01-3.226-2.026-4.376-2.78-.39-.257-.617-.41-.878-.596-.43-7.154 1.59-13.517.78-22.28-.094-1.016.034-4.515.344-8.658.31-4.144.774-9.14 1.22-13.97.44-4.83.87-9.496 1.12-13.03.128-1.768.203-3.245.22-4.375v-.03c1.8.11 3.594.216 5.28.216 3.678 0 7.213.314 11.126.314h2.157c.646.19 1.37.1 1.966-.25.78-.453 1.263-1.284 1.25-2.19 0-.164.114-2.66.282-5.78.166-3.12.37-7.11.592-11.092.223-3.984.457-7.955.624-11.064.17-3.11.28-5.1.28-5.97 0-2.015.627-4.31.627-7.123 0-3.01.313-5.41.313-8.655v-10.83c0-1.348-.06-2.648-.127-3.905 14.087 1.84 26.432-3.42 40.843-12.626 1.486-.95 3.17-1.924 5.186-2.75.22.23.43.4.622.53.543.37 1.038.547 1.533.72 1.98.69 4.525 1.094 5.22 1.344.993.357 1.444.643 2.25.906.44.142.96.226 1.5.25 4.403 12.987 10.876 25.32 19.408 36.344 16.938 22.3 43.047 38.763 71.907 41.78 26.35 3.065 53.43-5.407 73.686-21.687 28.47-22.504 44.418-57.593 46.067-92.685 1.986-36.47-11.21-74.164-38.438-100-18.62-17.863-44.35-29.12-70.816-28.9zm-.125 4.187c23.61-.18 46.63 9.08 64.062 24.25 27.215 23.45 41.363 58.94 41.157 93.79.06 34.81-14.2 70.26-41.5 93.57-19.42 16.86-46.05 26.19-72.25 23.5-27.71-2.485-52.94-18.01-69.46-39.19-8.99-11.37-15.69-24.22-20.09-37.78v-.03c-.04-.308-.142-.588-.28-.846l-.03-.06c-.712-2.256-1.35-4.524-1.937-6.814.16-.16.35-.356.56-.69.12-.19.28-.463.377-1.03.093-.568-.14-1.728-.846-2.344-.46-.4-.86-.54-1.19-.593-8.41-38.78.95-81.39 28.065-111.595 17.59-19.91 43.64-33.49 71.09-34.1.76-.027 1.52-.026 2.28-.03zm.406 11.29C269.528 15.48 227 63.17 227 121.95c0 58.774 42.53 106.5 94.94 106.5s94.94-47.726 94.94-106.5c0-58.778-42.524-106.47-94.94-106.47zm.406 4c3.165.01 6.33.21 9.47.63 37.558 4.205 67.332 35.64 76.968 71.158 12.2 42.64-2.666 92.903-39.72 118.375-27.19 19.61-66.203 19.43-93.593.53-39.79-26.882-54.08-81.914-38.07-126.124 11.62-34.776 44.17-63.585 81.78-64.5 1.05-.033 2.1-.065 3.15-.063zm-.375 13.94c-18.78-.12-37.19 7.72-50.85 20.5-36.26 32.97-38.02 95.72-4.75 131.35 20.87 24.22 58.27 32.527 87.03 18.092 38.38-18.522 56-66.75 44.62-106.81-8.38-34.21-39.79-63.53-76.065-63.126zm-.04 4c41.62 0 75.4 37.86 75.4 84.53 0 46.68-33.786 84.57-75.406 84.57-41.62 0-75.406-37.888-75.406-84.564s33.785-84.53 75.405-84.53zm0 18.16c-32.68 0-59.22 29.727-59.22 66.376 0 36.65 26.54 66.407 59.22 66.407s59.19-29.756 59.19-66.406c0-36.65-26.51-66.374-59.19-66.374zm.03 4c.46-.005.91-.01 1.37 0 6.46.17 12.772 1.685 18.625 4.25 32.074 14.104 43.48 56.68 28.937 87.064-9.825 23.1-36.25 38.597-61.126 32.03-30.17-7.864-47.36-41.713-42.314-71.28 3.173-26.39 25.33-51.486 53.094-52.033.464-.017.943-.027 1.406-.03zm-.88 12.03c-2.51.05-5.01.346-7.468.846-24.88 4.986-39.975 32.07-36.72 56.19 2.1 23.58 23.232 45.507 47.75 43.655 26.052-1.637 44.52-28.15 42.562-53.16-.38-24.28-20.854-48.372-46.127-47.53zm.844 4c22.814 0 41.313 20.76 41.313 46.346 0 25.586-18.5 46.376-41.313 46.376-22.812 0-41.342-20.79-41.342-46.374 0-25.583 18.53-46.342 41.346-46.342zm-208.676 3.8c.84.028 1.6.11 2.156.25.41.104.832.226 1.25.314 1.646 2.152 4.09 3.94 6.78 5.532 2.914 1.72 6.055 3.097 8.75 3.75.88.236 1.806-.003 2.44-.657.63-.654.857-1.6.592-2.47-.27-.87-.99-1.53-1.88-1.72-1.93-.47-4.8-1.72-7.35-3.22-.225-.13-.44-.27-.658-.41 1.82.17 3.86.5 5.844.5.093 0 .75.2 1.625.65.873.45 1.92 1.08 3.343 1.44 1.535.383 3.532 1.83 5.685 2.904 1.354.676 2.614 2.036 4.565 3.5-.064-.05.56.712 1.095 1.656.534.945 1.01 2.012 2.064 3.064.255.256.56.853.97 1.812.41.96.94 2.252 2.123 3.437 1.25 1.248 2.925 4.478 3.376 6.28.905 3.62 1.78 5.19 1.78 8.377 0 3.707.315 7.334.315 10.846 0 3.896.31 7.625.31 11.155 0 3.827-.02 7.27-.596 10.72-.69 4.138.283 8.05.283 10.97 0 3.51.205 6.87-.28 9.78-.782 4.707-.03 8.948-.03 12.81v3.78c-.005.007-.027 0-.03 0-.504.256-.69.44-.814.536-5.25.13-8.756 2.157-12 2.157-9.79 0-19.61 1.47-29.41 1.47-6.804 0-15.79-1.035-24.47-1.75-8.14-.672-15.947-1.125-21.967.093-.08-1.925-.155-3.815-.155-5.658v-11.15c0-4.13-.314-7.963-.314-11.78 0-3.956.312-7.855.312-12.064 0-3.986.037-8.025-.657-12.186-.517-3.11.03-7.33.03-11.35 0-3.18.804-6.86 1.5-10.348.72-3.58 1.44-6.948 2.16-10.53.6-3.008 2.46-6.146 4.53-8.908 1.864-2.486 4.825-3.89 7.812-6.876 1.25-1.25 6.185-3.23 8.56-3.626 1.723-.29 4.063-.59 6.25-1.316.025.825.25 1.61.436 2.5.364 1.73.98 3.757 1.72 6.127.22.905.94 1.62 1.844 1.846.902.225 1.852-.083 2.47-.78.615-.693.796-1.66.467-2.53-.66-2.11-1.16-3.806-1.47-5.156.894.622 1.99 1.424 3.376 2.593 2.94 2.48 4.272 3.634 5.436 4.342.29.175.285.575 1.69.53.35-.01.88-.11 1.375-.44s.857-.9 1-1.34c.29-.885.107-1.264.032-1.534-.3-1.08-.55-1.203-.876-1.715-1-1.572-2.64-4.262-3.406-6.22zm208.69 12.314c-14.88 0-26.97 13.53-26.97 30.22 0 16.69 12.09 30.25 26.97 30.25 14.882 0 26.937-13.56 26.937-30.25 0-16.69-12.055-30.22-26.938-30.22zm0 6.188c11.834 0 21.437 10.758 21.437 24.03 0 13.276-9.603 24.065-21.438 24.065-11.837 0-21.47-10.79-21.47-24.063s9.633-24.03 21.47-24.03zM97.22 111.972c-.362 0-.68.06-.936.126-1.018.26-1.67.7-1.72.72-.4.158-.748.43-1 .78-.6.85-1.363 1.884-1.25 3.657.06.886.59 2.022 1.47 2.625.88.6 1.837.75 2.875.75.86 0 1.81-.2 2.56-.82.75-.62 1.14-1.52 1.25-2.22.22-1.41-.14-2.44-.35-3.25-.19-.77-.81-1.7-1.69-2.09-.447-.2-.86-.28-1.22-.28zm30.25 0c-.362.003-.775.084-1.217.283-.884.397-1.496 1.328-1.687 2.093-.204.815-.532 1.843-.312 3.25.11.704.466 1.603 1.22 2.22.753.615 1.698.812 2.562.812 1.037 0 1.994-.15 2.875-.75.88-.61 1.45-1.74 1.5-2.63.12-1.78-.68-2.81-1.28-3.66-.25-.35-.6-.62-1-.78-.05-.02-.7-.46-1.72-.72-.25-.07-.57-.13-.93-.13zm-15.56 9.814c-.64-.008-1.256.247-1.69.72-.43.47-.655 1.112-.592 1.75.067.852.215 4.787.312 8.374.05 1.79.094 3.52.125 4.84.03 1.31.03 2.44.03 2.28-.01.81.425 1.56 1.126 1.97.7.41 1.55.41 2.25 0s1.14-1.16 1.13-1.97c0-.38 0-1.06-.03-2.38-.03-1.326-.07-3.08-.12-4.88-.095-3.6-.205-7.282-.31-8.624-.073-1.176-1.04-2.08-2.22-2.095zm-22.595 19c-.094-.003-.186.02-.28.03-.832.09-1.537.63-1.845 1.407-.307.777-.17 1.648.375 2.282.074.112.243.366.406.625.27.42.62.96 1.03 1.56.83 1.19 1.79 2.54 3.29 3.5 6.02 3.86 13.55 7.03 21.41 7.03 6.607 0 13.675-2.85 19.065-6.6 2.58-1.797 4.46-4.56 5.78-6.1.81-.944.696-2.375-.25-3.187-.944-.81-2.344-.696-3.155.25-1.56 1.817-3.41 4.282-4.94 5.343-4.716 3.275-11.246 5.78-16.5 5.78-6.635 0-13.46-2.777-18.97-6.31-.395-.256-1.333-1.28-2.03-2.28-.346-.5-.675-.996-.936-1.41-.26-.41-.32-.61-.72-1.09-.42-.52-1.06-.83-1.72-.846zM217.5 157.44c.18.657.343 1.316.532 1.97-.128-.048-.11-.043-.25-.094-.696-.25-1.47-.42-2.22-.594.64-.41 1.3-.835 1.94-1.28zm-60.062 32.5c.128 0 .258.014.375 0v1.595c0 2.912-.312 5.322-.312 8.656 0 1.95-.62 4.27-.62 7.13 0 .11-.11 2.59-.28 5.69-.16 3.1-.37 7.08-.59 11.06-.22 3.99-.452 7.97-.62 11.1-.076 1.41-.14 2.54-.19 3.5h-.47c-3.64 0-7.173-.31-11.12-.31-4.243 0-9.82-.91-15.187-.653-1.79.087-3.57.3-5.25.72-5.61 1.4-12.196-.003-19.22.875-4.976.62-10.38-.03-16-.406-.104-.012-.204-.033-.31-.032h-.126c-1.73-.11-3.482-.183-5.25-.183-3.33 0-7.607.168-10.905.25-.12-2.79-.3-6.59-.5-10.685-.32-6.68-.624-13.672-.624-15 0-4.11-.937-7.572-.937-10.842v-9.625c0-.236-.03-.454-.03-.69 2.21-.54 5.116-.785 8.436-.81v1.655c0 1.073.196 2.54.47 4.438.27 1.9.636 4.09 1.093 6.16.456 2.067.936 3.938 1.625 5.438.34.75.61 1.498 1.715 2.22.553.36 1.532.64 2.406.407.875-.234 1.414-.8 1.75-1.25.173-.227 1.348-1.565 2.783-3.06 1.432-1.5 3.2-3.284 4.934-4.94 1.735-1.656 3.444-3.205 4.626-4.125.36-.28.504-.33.72-.47.594.023 1.164-.174 1.624-.53.023.29.05.353.063.75.03.83.01 1.774.282 2.842.133.533.332 1.14.872 1.78.232.276.562.514.94.72l-.19.436c-.548 1.3-1.224 3.015-1.906 4.81-1.366 3.595-2.81 7.605-3.156 8.47-.414 1.04-.19 1.38-.123 1.687.063.31.162.515.25.75.173.475.36.984.624 1.53.53 1.098 1.26 2.39 2 3.72.74 1.328 1.51 2.67 2.158 3.75s1.037 1.766 1.47 2.344c.926 1.232 1.914 2.413 3.812 2.434.95.01 1.87-.468 2.404-.97.538-.503.82-1 1.066-1.5.963-1.994 1.22-4.275 1.69-6.157 1.16-4.64 1.27-8.545.03-14.75-.338-1.68-.69-2.994-1.158-4.092-.44-1.034-.966-1.932-1.938-2.622 1.266-.398 2.433-1.054 3.407-2.064.556-.58.96-1.374 1.155-2.25 1.146 1.103 2.61 2.634 4.157 4.28 3.52 3.74 7.118 7.77 8.347 9 .46.46 1.293.924 2.124.94.83.01 1.48-.32 1.907-.628.854-.613 1.223-1.242 1.624-1.937.8-1.39 1.47-3.158 2.156-5.13 1.367-3.944 2.605-8.61 3.22-11.064.237-.956.145-1.625.092-1.94 2.07-.11 4.14-.19 6.154-.19 5.09 0 8.47-2.22 12.47-2.22zm-74.75 1.407c2.565.104 5.256.274 8 .5 2.72.224 5.475.5 8.22.75-.332.077-.557.174-.782.282-.754.35-1.368.81-2.094 1.37-1.453 1.13-3.2 2.72-5 4.43-1.8 1.72-3.608 3.57-5.094 5.122-.49.514-.665.73-1.062 1.156-.255-.833-.51-1.446-.75-2.53-.422-1.905-.775-4.027-1.032-5.813-.256-1.79-.406-3.375-.406-3.72v-1.564zm51.125 1.313c.004.31.008.512.03.5-.596 2.384-1.804 6.904-3.06 10.53-.45 1.295-.85 2.16-1.25 3.032-1.5-1.622-3.696-4.048-6.532-7.062-1.79-1.904-3.51-3.7-4.87-4.97-.45-.425-.85-.778-1.25-1.093 5.8-.067 11.45-.54 16.94-.937zm-33.03.094c.448.04.896.086 1.343.125-.114.01-.235.02-.313.06-.126.06-.232.13-.344.22-.05-.04-.08-.06-.13-.1-.18-.14-.38-.23-.56-.31zm7.936 3.312c.89.755 1.35 1.334 1.5 1.594-.35.216-1.78.75-3.66.97-.03-.316-.05-.48-.06-.876-.01-.333-.11-.744-.13-1.094.13-.04.24-.055.37-.094.73-.215 1.482-.422 1.97-.5zm-.47 12.72c.19.596.37 1.095.56 2.06.01.073.02.12.03.19-.08.073-.16.128-.22.186-.68.72-.73 1.057-1.1 1.782-.258.513-.87 1.372-1.47 2.187.643-2.41 1.41-4.81 2.19-6.4zm-2.25 13.75c-.04.178-.07.356-.1.53l-.19-.344c.09-.057.19-.125.28-.187" fill="#fff"/></g></svg>