<?xml version="1.0" encoding="UTF-8" standalone="no"?>
<!-- Created with Inkscape (http://www.inkscape.org/) -->

<svg
   xmlns:dc="http://purl.org/dc/elements/1.1/"
   xmlns:cc="http://creativecommons.org/ns#"
   xmlns:rdf="http://www.w3.org/1999/02/22-rdf-syntax-ns#"
   xmlns:svg="http://www.w3.org/2000/svg"
   xmlns="http://www.w3.org/2000/svg"
   xmlns:sodipodi="http://sodipodi.sourceforge.net/DTD/sodipodi-0.dtd"
   xmlns:inkscape="http://www.inkscape.org/namespaces/inkscape"
   version="1.1"
   width="431.10199"
   height="318.99384"
   id="svg2"
   xml:space="preserve"
   inkscape:version="0.48.4 r9939"
   sodipodi:docname="play.svg"><sodipodi:namedview
     pagecolor="#ffffff"
     bordercolor="#666666"
     borderopacity="1"
     objecttolerance="10"
     gridtolerance="10"
     guidetolerance="10"
     inkscape:pageopacity="0"
     inkscape:pageshadow="2"
     inkscape:window-width="2560"
     inkscape:window-height="1057"
     id="namedview13"
     showgrid="false"
     fit-margin-top="0"
     fit-margin-left="0"
     fit-margin-right="0"
     fit-margin-bottom="0"
     inkscape:zoom="1.0368189"
     inkscape:cx="37.285187"
     inkscape:cy="149.1234"
     inkscape:window-x="-8"
     inkscape:window-y="-8"
     inkscape:window-maximized="1"
     inkscape:current-layer="g3758" /><metadata
     id="metadata8"><rdf:RDF><cc:Work
         rdf:about=""><dc:format>image/svg+xml</dc:format><dc:type
           rdf:resource="http://purl.org/dc/dcmitype/StillImage" /></cc:Work></rdf:RDF></metadata><defs
     id="defs6" /><g
     transform="matrix(1.25,0,0,-1.25,-69.832201,376.7956)"
     id="g10"><g
       transform="scale(0.1,0.1)"
       id="g12"><g
         id="g3758"><g
           id="g3757"><path
             d="m 2910.25,2957.5 c -162.01,0.4 -318.72,-46.2 -429.25,-163.75 -129.46,-137.68 -219.33,-399.31 -231.25,-667.25 -5.96,-133.97 9.25,-269.08 59.25,-389.75 50.01,-120.67 119.86,-284.11 254.5,-346.25 845.17,-498.672 1494.14,213.71 1229,1019.25 -24.35,63.52 -57.84,126.35 -102.5,186.5 -114.57,154.3 -329.26,278.84 -559.5,334 -71.95,17.24 -146.61,27.07 -220.25,27.25 z m 193.5,-257.25 c 128.95,0.37 260.27,-34.87 353,-121 103.89,-96.5 200.36,-264.41 224,-476.5 11.82,-106.04 -7.2,-246.37 -37.75,-347.5 -30.54,-101.12 -90.52,-196.15 -187.25,-259.25 -407.65,-309.96 -988.16,24.95 -953.5,644.75 28.77,293.17 251.95,499.5 453.75,543.75 47.32,10.14 97.29,15.6 147.75,15.75"
             inkscape:connector-curvature="0"
             id="path18"
             style="opacity:0.25;fill:#6adf5f;fill-opacity:1;fill-rule:evenodd;stroke:none" /><path
             d="m 3081.71,2576.81 c -243.25,-3.7 -455.28,-224.62 -471.94,-460.7 -29.92,-253.18 154.1,-561.94 414.14,-600.45 222.77,-35.88 450.46,156.06 514.55,368.4 88.81,251.59 -33.54,571.69 -291.75,665.25 -52.06,19.13 -108.91,29.75 -165,27.5 z m 5,-128 c 206.19,7.07 376.65,-192.83 367,-393 2.69,-201.1 -175.46,-399.07 -384.25,-380.75 -198.04,14.17 -334.32,211.22 -318.17,406 7.64,186.78 140.15,367.2 335.42,367.75"
             inkscape:connector-curvature="0"
             id="path20"
             style="opacity:0.5;fill:#6adf5f;fill-opacity:1;fill-rule:evenodd;stroke:none" /><path
             d="m 3124.05,2279.18 c 164.63,89.08 325.52,-49.2 243.65,-373.05 -17.7,-45.9 -47.09,-77.88 -79.48,-97.47 -32.38,-19.59 -68.26,-28.06 -103.64,-29.59 -70.76,-3.05 -139.14,19.69 -174.35,58.69 -43.72,48.43 -46.72,132.97 -29.99,210.13 16.74,77.17 51.67,151.01 93.55,192.71 16.32,16.25 33.24,28.92 50.26,38.58"
             inkscape:connector-curvature="0"
             id="path22"
             style="fill:#6adf5f;fill-opacity:1;fill-rule:evenodd;stroke:none" /><path
             d="m 3131.9119,3014.3395 c -6.83,-0.05 -13.66,-0.25 -20.5,-0.5 -226.11,-4.71 -440.81,-114.93 -587.5,-277.5 -215.88,-235.96 -298.96,-565.86 -248.5,-874 -8.1,-4.01 -12.81,-12.88 -10.75,-22 -2.76,-3.21 -3.3,-4.27 -7,-8.25 -8.4,-9.04 -18.47,-19.66 -27.5,-30.5 -9.03,-10.84 -17.37,-21.16 -22,-34 -0.85,-2.35 -1.9,-5.48 -1.75,-9.5 -11.27,-3.51 -25.13,-13.11 -41,-23.25 -108.9,-69.56 -209.75,-108.95 -305,-94.5 -0.5,0.1 -1,0.19 -1.5,0.25 0.16,8.19 0.69,16.13 2,24 4.95,29.67 2.75,58.84 2.75,85 0,30.38 -6.4,59.12 -2.75,81 5.29,31.76 5.25,61.9 5.25,92.5 0,30.49 -2.5,60.27 -2.5,89.25 0,30.34 -2.5,59.43 -2.5,86.75 0,32.88 -9.21,51.58 -15.5,76.75 -5.75,23.01 -18.82,50.07 -37.5,68.75 -2.86,2.86 -5.3,7.53 -8.5,15 -3.2,7.47 -6.98,17.73 -16.25,27 -0.48,0.48 -5.17,7.87 -9.75,16 -4.58,8.13 -8.97,17.42 -19.75,25.5 -11.9,8.93 -23.43,22.21 -42.5,31.75 -11.09,5.54 -29.62,20.22 -53.75,26.25 -3.34,0.83 -10.19,4.35 -18.25,8.5 -8.06,4.15 -17.73,9.5 -31.25,9.5 -14.4,0 -38.07,4.75 -62,4.75 -17.81,0 -37.14,2.66 -54.5,7 -11.44,2.86 -23.71,3.7 -35.75,3.5 -12.05,-0.2 -23.79,-1.51 -34.25,-3.25 -3.96,-0.66 -18.07,-1.04 -31.75,-1.75 -13.68,-0.71 -26.84,-0.42 -41,-7.5 -10.22,-5.11 -35.51,-9.96 -53.75,-13 -27.1,-4.52 -65.95,-16.2 -90,-40.25 -17.76,-17.76 -44.45,-30.18 -66.25,-59.25 -18.32,-24.43 -36.52,-53.62 -43.25,-87.25 -5.64,-28.23 -11.69,-55.18 -17.5,-84.25 -5.44,-27.21 -12.75,-58.92 -12.75,-90.75 0,-27.75 -5.44,-63.11 0.25,-97.25 4.8,-28.84 4.75,-58.92 4.75,-91 0,-31.64 -2.5,-62.83 -2.5,-96.5 0,-18.87 0.79,-37.02 1.5,-55 -3.48,-0.79 -6.87,-2.5 -9.5,-5 -91.25795,-84.37 -154.26195,-228.27 -228.49995,-327.25 -7.543,-10.06 -10.984,-20.18 -13.5,-28.25 -1.676,-0.06 -3.355,-0.32 -5,-0.5 l -136,819.25 62.5,-52.5 c 8.492,-7.09 21.16,-5.74 28.25,2.75 7.09,8.49 5.742,20.91 -2.75,28 l -101.25,84.75 -0.25,0.25 c -1.281,1.48 -2.852,2.71 -4.5,3.75 l -5.75,4.75 c -4.117,3.46 -9.395,5.02 -14.75,4.5 -7.109,-0.75 -13.344,-5.22 -16.25,-11.75 l -61.5,-138.5 c -3.227,-6.59 -2.496,-14.52 1.75,-20.5 4.246,-5.98 11.223,-9.13 18.5,-8.25 7.277,0.88 13.547,5.68 16.25,12.5 l 39.5,88.75 137.5,-828.75 c -10.996,-4.24 -21.824,-8.98 -31.25,-13 -5.043,-2.15 -6.277,-2.48 -10.25,-4 -8.91,5.64 -20.793,3.53 -27,-5 -1.809,-2.41 -3.242,-4.84 -4.75,-8.25 -1.508,-3.41 -4.047,-9.1 -0.75,-17.75 3.297,-8.65 12.762,-12.85 17.5,-13.5 4.738,-0.65 7.422,-0.26 10,0.25 10.223,2.04 19.062,6.37 30.5,11.25 -2.09,-1.97 -5.02,-4.77 -6.75,-6.5 -4.371,-4.37 -6.926,-6.84 -10,-11.75 -0.77,-1.23 -1.867,-2.63 -2.75,-5.25 -0.883,-2.62 -2.211,-7.25 0.5,-14.25 2.711,-7 10.719,-11.93 15.25,-12.75 4.531,-0.82 6.973,-0.13 8.75,0.25 7.102,1.54 8.672,3.21 12.25,5.25 3.578,2.04 7.516,4.46 11.75,7.25 0.488,0.32 1.008,0.67 1.5,1 l 35.5,-213.75 c 1.809,-10.92 12.078,-18.31 23,-16.5 10.922,1.81 18.309,12.08 16.5,23 l -26,156.5 c 5.035,1.81 9.242,5.48 11.5,10.5 3.762,7.52 6.035,15.71 6.25,22.5 0.215,6.79 -0.5,10.82 -0.5,19.25 0,5.91 3.832,26.23 4,43 0.043,4.19 -0.207,8.43 -1.5,13.5 -0.883,3.46 -2.605,8.13 -6.5,12.25 1.727,4.39 2.883,8.59 4,12.25 2.562,8.39 4.637,14.85 8.5,20 73.137,97.52 133.781,227.36 206.99995,305.25 0,-25.84 0,-51.64 0,-77.5 0,-31.57 2.5,-62.61 2.5,-91.5 0,-25.6 0,-51.4 0,-77 0,-32.88 7.5,-60.59 7.5,-86.75 0,-15.8 2.43,-68.51 5,-122 1.81,-37.63 3.34,-69.64 4.25,-91 -0.74,-0.88 -1.41,-1.74 -2,-2.75 -3.64,-6.23 -3.64,-14.02 0,-20.25 0.94,-1.61 1.95,-2.99 3.25,-4.25 1.1,-5.56 4.49,-10.33 9.5,-13.25 6.23,-3.64 14.02,-3.64 20.25,0 3.36,1.96 6.04,4.65 7.75,8 27.53,0.66 62.23,2 88.25,2 7.61,0 15.46,-0.12 23.25,-0.5 -0.13,-131.34399 -1.13,-284.34799 23.75,-411.49999 3.32,-16.938 5.5,-33.664 5.5,-50 0,-0.25 0,-0.5 0,-0.75 -0.03,-0.051 -0.19,-0.961 -1.25,-2.5 -2.26,-3.273 -6.87,-8.352 -13.25,-14 -12.76,-11.297 -31.76,-24.812 -51.25,-37.25 -19.49,-12.438 -39.62,-24.074 -55,-32.75 -7.69,-4.336 -14.23,-7.875 -19,-10.5 -2.39,-1.312 -4.27,-2.43 -5.75,-3.25 -1.48,-0.82 -1.11,-0.359 -4.25,-2.5 -6.25,-3.945 -9.71,-10.875 -9.25,-18.25 0.46,-7.375 4.8,-13.871 11.5,-17 6.32,-2.953 13.69,-2.488 19.5,1.25 -0.41,-0.254 -0.3,-0.141 1,0.75 0.34,0.211 0.68,0.324 1,0.5 1.34,0.742 3.34,1.676 5.75,3 4.81,2.645 11.62,6.305 19.5,10.75 15.77,8.895 36.32,20.961 56.75,34 20.43,13.039 40.56,27.117 56.25,41 7.84,6.941 14.69,13.797 20,21.5 4.73,6.863 8.8,15.324 8,26 l 0.25,0 c 0,19.898 -2.61,39.16 -6.25,57.75 -23.48,120.02 -23.34,269.887 -23.25,400.74999 37.19,-3.01 75.84,-6.14 115,-1.25 46.85,5.86 101.6,-6.22 158.5,8 19.46,4.87 44.39,4.59 71,3.25 0.01,-0.75 0.02,-1.01 0,-2 -0.11,-7.53 -0.52,-18.97 -1.5,-32.75 -1.97,-27.55 -5.46,-64.609 -9,-103.24999 -3.54,-38.641 -7.23,-78.812 -9.75,-112.5 -2.52,-33.688 -4.27,-59.363 -2.75,-75.75 5.93,-64.188 -12.73,-116.227 -6.25,-186.25 0.71,-7.648 3.24,-9.371 4.5,-11 1.25,-1.629 2.14,-2.441 3,-3.25 1.72,-1.617 3.28,-2.953 5,-4.25 3.44,-2.59 7.53,-5.234 12.5,-8.5 9.94,-6.531 22.95,-14.594 36.25,-22.75 13.3,-8.156 26.97,-16.516 38,-23.25 11.03,-6.734 20.24,-12.598 21.5,-13.5 5.87,-4.34 13.59,-5.234 20.25,-2.25 6.66,2.984 11.33,9.23 12,16.5 0.67,7.27 -2.74,14.355 -8.75,18.5 -5.06,3.625 -12.86,8.445 -24,15.25 -11.14,6.805 -24.85,14.934 -38,23 -13.15,8.066 -25.8,16.203 -35,22.25 -3.11,2.039 -4.91,3.273 -7,4.75 -3.44,57.227 12.73,108.129 6.25,178.25 -0.75,8.113 0.27,36.102 2.75,69.25 2.48,33.148 6.21,73.109 9.75,111.75 3.54,38.64099 6.98,75.97999 9,104.24999 1.01,14.14 1.61,25.96 1.75,35 0,0.09 0,0.16 0,0.25 14.39,-0.88 28.75,-1.75 42.25,-1.75 29.41,0 57.69,-2.5 89,-2.5 5.74,0 11.51,0 17.25,0 5.19,-1.5 10.96,-0.79 15.75,2 6.23,3.64 10.1,10.29 10,17.5 0,1.34 0.91,21.31 2.25,46.25 1.34,24.94 2.96,56.89 4.75,88.75 1.79,31.86 3.66,63.63 5,88.5 1.34,24.87 2.25,40.79 2.25,47.75 0,16.14 5,34.49 5,57 0,24.07 2.5,43.27 2.5,69.25 0,28.91 0,57.84 0,86.75 0,10.79 -0.48,21.19 -1,31.25 112.7,-14.71 211.46,27.36 326.75,101 11.9,7.6 25.38,15.39 41.5,22 1.76,-1.84 3.45,-3.2 5,-4.25 4.33,-2.94 8.29,-4.37 12.25,-5.75 15.83,-5.53 36.19,-8.75 41.75,-10.75 7.93,-2.86 11.54,-5.15 18,-7.25 3.5,-1.14 7.67,-1.81 12,-2 35.21,-103.9 87,-202.55 155.25,-290.75 135.5,-178.41 344.37,-310.11 575.25,-334.25 210.82,-24.51 427.43,43.26 589.5,173.5 227.76,180.05 355.31,460.76 368.5,741.5 15.89,291.75 -89.68,593.31 -307.5,800 -148.96,142.94 -354.76,233.01 -566.5,231.25 z m -1,-33.5 c 188.89,1.47 373.03,-72.6 512.5,-194 217.72,-187.55 330.9,-471.46 329.25,-750.25 0.47,-278.48 -113.63,-562.07 -332,-748.5 -155.41,-134.9 -368.41,-209.53 -578,-188 -221.72,19.87 -423.59,144.07 -555.75,313.5 -71.93,90.96 -125.55,193.78 -160.75,302.25 -0.01,0.08 0.01,0.17 0,0.25 -0.32,2.45 -1.15,4.69 -2.25,6.75 -0.09,0.16 -0.16,0.34 -0.25,0.5 -5.7,18.04 -10.81,36.18 -15.5,54.5 1.27,1.27 2.83,2.83 4.5,5.5 0.96,1.54 2.24,3.71 3,8.25 0.76,4.54 -1.09,13.82 -6.75,18.75 -3.66,3.19 -6.87,4.33 -9.5,4.75 -67.29,310.23 7.61,651.1 224.5,892.75 140.78,159.26 349.14,267.88 568.75,272.75 6.1,0.21 12.16,0.2 18.25,0.25 z m 3.25,-90.25 c -419.29,0 -759.5,-381.54 -759.5,-851.75 0,-470.21 340.21,-852 759.5,-852 419.29,0 759.5,381.79 759.5,852 0,470.21 -340.21,851.75 -759.5,851.75 z m 3.25,-32 c 25.32,-0.07 50.63,-1.65 75.75,-5 300.47,-33.63 538.66,-285.12 615.75,-569.25 97.59,-341.12 -21.33,-743.23 -317.75,-947 -217.52,-156.87 -529.63,-155.45 -748.75,-4.25 -318.26,215.07 -432.6,655.33 -304.5,1009 92.98,278.21 353.41,508.68 654.25,516 8.44,0.26 16.81,0.52 25.25,0.5 z m -3,-111.5 c -150.2,0.97 -297.52,-61.77 -406.75,-164 -290.02,-263.74 -304.14,-765.71 -38,-1050.75 166.96,-193.76 466.21,-260.23 696.25,-144.75 307.09,148.19 448.02,534 357,854.5 -67.02,273.69 -318.32,508.22 -608.5,505 z m -0.25,-32 c 332.96,0 603.25,-302.84 603.25,-676.25 0,-373.41 -270.29,-676.5 -603.25,-676.5 -332.96,0 -603.25,303.09 -603.25,676.5 0,373.41 270.29,676.25 603.25,676.25 z m 0,-145.25 c -261.44,0 -473.75,-237.81 -473.75,-531 0,-293.19 212.31,-531.25 473.75,-531.25 261.44,0 473.5,238.06 473.5,531.25 0,293.19 -212.06,531 -473.5,531 z m 0.25,-32 c 3.71,0.05 7.31,0.1 11,0 51.66,-1.35 102.17,-13.47 149,-34 256.6,-112.82 347.84,-453.43 231.5,-696.5 -78.59,-184.82 -289.99,-308.79 -489,-256.25 -241.34,62.91 -378.86,333.7 -338.5,570.25 25.38,211.12 202.64,411.88 424.75,416.25 3.71,0.12 7.54,0.2 11.25,0.25 z m -7,-96.25 c -20.1,-0.4 -40.09,-2.75 -59.75,-6.75 -199.04,-39.88 -319.79,-256.55 -293.75,-449.5 16.79,-188.67 185.86,-364.07 382,-349.25 208.42,13.08 356.15,225.21 340.5,425.25 -3.04,194.22 -166.82,386.98 -369,380.25 z m 6.75,-32 c 182.51,0 330.5,-166.07 330.5,-370.75 0,-204.68 -147.99,-371 -330.5,-371 -182.51,0 -330.75,166.32 -330.75,371 0,204.68 148.24,370.75 330.75,370.75 z m -1669.5,-30.5 c 6.72,-0.21 12.79,-0.88 17.25,-2 3.27,-0.82 6.66,-1.79 10,-2.5 13.17,-17.21 32.71,-31.52 54.25,-44.25 23.3,-13.77 48.43,-24.78 70,-30 7.02,-1.89 14.44,0.02 19.5,5.25 5.06,5.23 6.87,12.79 4.75,19.75 -2.12,6.96 -7.89,12.23 -15,13.75 -15.45,3.74 -38.38,13.71 -58.75,25.75 -1.79,1.05 -3.51,2.16 -5.25,3.25 14.55,-1.4 30.86,-4 46.75,-4 0.74,0 6.01,-1.65 13,-5.25 6.99,-3.6 15.35,-8.65 26.75,-11.5 12.3,-3.08 28.27,-14.64 45.5,-23.25 10.81,-5.41 20.89,-16.29 36.5,-28 -0.52,0.39 4.49,-5.7 8.75,-13.25 4.26,-7.55 8.09,-16.09 16.5,-24.5 2.05,-2.05 4.47,-6.83 7.75,-14.5 3.28,-7.67 7.52,-18.02 17,-27.5 9.98,-9.98 23.39,-35.82 27,-50.25 7.23,-28.95 14.25,-41.52 14.25,-67 0,-29.64 2.5,-58.66 2.5,-86.75 0,-31.18 2.5,-61.01 2.5,-89.25 0,-30.59 -0.15,-58.14 -4.75,-85.75 -5.52,-33.09 2.25,-64.38 2.25,-87.75 0,-28.07 1.63,-54.99 -2.25,-78.25 -6.27,-37.65 -0.25,-71.58 -0.25,-102.5 0,-10.12 0,-20.12 0,-30.25 -0.04,-0.02 -0.22,0.02 -0.25,0 -4.02,-2.01 -5.51,-3.52 -6.5,-4.25 -41.97,-1.05 -70.03,-17.25 -96,-17.25 -78.29,0 -156.88,-11.75 -235.25,-11.75 -54.43,0 -126.33,8.28 -195.75,14 -65.13,5.37 -127.59,9 -175.75,-0.75 -0.63,15.39 -1.25,30.51 -1.25,45.25 0,29.73 0,59.52 0,89.25 0,33.05 -2.5,63.7 -2.5,94.25 0,31.64 2.5,62.83 2.5,96.5 0,31.9 0.3,64.21 -5.25,97.5 -4.14,24.85 0.25,58.62 0.25,90.75 0,25.42 6.42,54.84 12,82.75 5.73,28.64 11.52,55.58 17.25,84.25 4.81,24.05 19.67,49.15 36.25,71.25 14.91,19.88 38.6,31.11 62.5,55 9.99,9.99 49.49,25.83 68.5,29 13.79,2.3 32.51,4.71 50,10.5 0.21,-6.58 2,-12.86 3.5,-20 2.9,-13.82 7.82,-30.04 13.75,-49 1.78,-7.22 7.53,-12.97 14.75,-14.75 7.22,-1.78 14.82,0.69 19.75,6.25 4.93,5.56 6.38,13.3 3.75,20.25 -5.28,16.89 -9.27,30.45 -11.75,41.25 7.15,-4.98 15.93,-11.4 27,-20.75 23.52,-19.85 34.19,-29.09 43.5,-34.75 2.33,-1.41 2.26,-4.61 13.5,-4.25 2.81,0.09 7.06,0.86 11,3.5 3.94,2.64 6.85,7.22 8,10.75 2.31,7.06 0.85,10.09 0.25,12.25 -2.4,8.65 -4.39,9.65 -7,13.75 -7.99,12.57 -21.11,34.09 -27.25,49.75 z m 1669.5,-98.5 c -119.05,0 -215.75,-108.23 -215.75,-241.75 0,-133.52 96.7,-242 215.75,-242 119.06,0 215.5,108.48 215.5,242 0,133.52 -96.44,241.75 -215.5,241.75 z m 0,-49.5 c 94.68,0 171.5,-86.06 171.5,-192.25 0,-106.19 -76.82,-192.5 -171.5,-192.5 -94.69,0 -171.75,86.31 -171.75,192.5 0,106.19 77.06,192.25 171.75,192.25 z m -1797.75,-112.5 c -2.91,0.01 -5.46,-0.48 -7.5,-1 -8.14,-2.08 -13.35,-5.59 -13.75,-5.75 -3.21,-1.27 -5.99,-3.44 -8,-6.25 -4.82,-6.8 -10.91,-15.07 -10,-29.25 0.46,-7.09 4.7,-16.18 11.75,-21 7.05,-4.82 14.7,-6 23,-6 6.9,0 14.47,1.57 20.5,6.5 6.03,4.93 9.12,12.12 10,17.75 1.76,11.26 -1.12,19.48 -2.75,26 -1.53,6.12 -6.42,13.58 -13.5,16.75 -3.54,1.59 -6.84,2.24 -9.75,2.25 z m 242,0 c -2.91,-0.01 -6.21,-0.66 -9.75,-2.25 -7.08,-3.18 -11.97,-10.63 -13.5,-16.75 -1.63,-6.52 -4.26,-14.74 -2.5,-26 0.88,-5.63 3.72,-12.82 9.75,-17.75 6.03,-4.93 13.59,-6.5 20.5,-6.5 8.3,0 15.95,1.18 23,6 7.05,4.82 11.54,13.91 12,21 0.91,14.18 -5.43,22.45 -10.25,29.25 -2.01,2.81 -4.79,4.98 -8,6.25 -0.4,0.16 -5.61,3.67 -13.75,5.75 -2.04,0.52 -4.59,1.01 -7.5,1 z m -124.5,-78.5 c -5.11,0.06 -10.04,-1.98 -13.5,-5.75 -3.46,-3.77 -5.25,-8.91 -4.75,-14 0.54,-6.83 1.72,-38.31 2.5,-67 0.39,-14.35 0.75,-28.22 1,-38.75 0.25,-10.53 0.25,-19.52 0.25,-18.25 -0.09,-6.49 3.39,-12.48 9,-15.75 5.61,-3.27 12.39,-3.27 18,0 5.61,3.27 9.09,9.26 9,15.75 0,2.98 0,8.43 -0.25,19 -0.25,10.57 -0.61,24.6 -1,39 -0.78,28.8 -1.66,58.26 -2.5,69 -0.59,9.4 -8.33,16.64 -17.75,16.75 z m -180.75,-152 c -0.75,0.02 -1.49,-0.17 -2.25,-0.25 -6.65,-0.71 -12.29,-5.04 -14.75,-11.25 -2.46,-6.21 -1.36,-13.18 3,-18.25 0.59,-0.9 1.94,-2.93 3.25,-5 2.14,-3.39 4.95,-7.75 8.25,-12.5 6.6,-9.5 14.32,-20.35 26.25,-28 48.18,-30.9 108.38,-56.25 171.25,-56.25 52.84,0 109.38,22.82 152.5,52.75 20.65,14.33 35.69,36.44 46.25,48.75 6.49,7.56 5.56,19.01 -2,25.5 -7.56,6.49 -18.76,5.56 -25.25,-2 -12.47,-14.54 -27.27,-34.26 -39.5,-42.75 -37.74,-26.2 -89.98,-46.25 -132,-46.25 -53.09,0 -107.68,22.23 -151.75,50.5 -3.18,2.04 -10.68,10.24 -16.25,18.25 -2.78,4 -5.41,7.95 -7.5,11.25 -2.09,3.3 -2.54,4.88 -5.75,8.75 -3.35,4.16 -8.48,6.63 -13.75,6.75 z m 1025.5,-133.25 c 1.43,-5.25 2.74,-10.52 4.25,-15.75 -1.02,0.38 -0.87,0.34 -2,0.75 -5.57,2.01 -11.77,3.35 -17.75,4.75 5.1,3.29 10.38,6.68 15.5,10.25 z m -480.5,-260 c 1.02,0 2.06,-0.1 3,0 0,-4.25 0,-8.5 0,-12.75 0,-23.3 -2.5,-42.58 -2.5,-69.25 0,-15.57 -5,-34.09 -5,-57 0,-0.85 -0.91,-20.7 -2.25,-45.5 -1.34,-24.8 -2.96,-56.64 -4.75,-88.5 -1.79,-31.86 -3.66,-63.73 -5,-88.75 -0.61,-11.29 -1.11,-20.3 -1.5,-28 -1.21,0 -2.54,0 -3.75,0 -29.12,0 -57.42,2.5 -89,2.5 -33.95,0 -78.57,7.31 -121.5,5.25 -14.31,-0.69 -28.54,-2.38 -42,-5.75 -44.86,-11.21 -97.57,0.02 -153.75,-7 -39.82,-4.98 -83.03,0.25 -128,3.25 -0.84,0.09 -1.64,0.26 -2.5,0.25 -0.33,0 -0.68,0.02 -1,0 -13.86,0.88 -27.87,1.5 -42,1.5 -26.64,0 -60.87,-1.32 -87.25,-2 -0.98,22.32 -2.42,52.71 -4,85.5 -2.57,53.46 -5,109.39 -5,120 0,32.88 -7.5,60.59 -7.5,86.75 0,25.6 0,51.4 0,77 0,1.88 -0.23,3.62 -0.25,5.5 17.71,4.32 40.94,6.29 67.5,6.5 0,-4.37 0,-8.86 0,-13.25 0,-8.58 1.57,-20.32 3.75,-35.5 2.18,-15.18 5.1,-32.72 8.75,-49.25 3.65,-16.53 7.49,-31.5 13,-43.5 2.75,-6 4.9,-11.97 13.75,-17.75 4.43,-2.89 12.26,-5.12 19.25,-3.25 6.99,1.87 11.3,6.4 14,10 1.37,1.82 10.77,12.52 22.25,24.5 11.48,11.98 25.63,26.25 39.5,39.5 13.87,13.25 27.54,25.64 37,33 2.88,2.24 4.03,2.64 5.75,3.75 4.76,-0.19 9.32,1.39 13,4.25 0.18,-2.32 0.39,-2.84 0.5,-6 0.23,-6.64 0.08,-14.21 2.25,-22.75 1.09,-4.27 2.68,-9.13 7,-14.25 1.86,-2.21 4.5,-4.11 7.5,-5.75 -0.5,-1.18 -0.96,-2.22 -1.5,-3.5 -4.38,-10.39 -9.79,-24.13 -15.25,-38.5 -10.93,-28.75 -22.48,-60.83 -25.25,-67.75 -3.33,-8.32 -1.52,-11.04 -1,-13.5 0.51,-2.46 1.3,-4.11 2,-6 1.39,-3.79 2.89,-7.86 5,-12.25 4.22,-8.77 10.08,-19.13 16,-29.75 5.92,-10.62 12.07,-21.35 17.25,-30 5.17,-8.65 8.29,-14.13 11.75,-18.75 7.41,-9.88 15.32,-19.33 30.5,-19.5 7.59,-0.09 14.97,3.73 19.25,7.75 4.28,4.02 6.57,8.01 8.5,12 7.71,15.95 9.74,34.2 13.5,49.25 9.29,37.14 10.18,68.37 0.25,118 -2.69,13.44 -5.51,23.96 -9.25,32.75 -3.53,8.29 -7.72,15.48 -15.5,21 10.12,3.17 19.46,8.42 27.25,16.5 4.46,4.62 7.7,10.98 9.25,18 9.16,-8.84 20.87,-21.09 33.25,-34.25 28.16,-29.93 56.92,-62.17 66.75,-72 3.67,-3.67 10.35,-7.4 17,-7.5 6.65,-0.09 11.83,2.55 15.25,5 6.84,4.91 9.79,9.94 13,15.5 6.42,11.12 11.78,25.23 17.25,41 10.94,31.54 20.84,68.86 25.75,88.5 1.91,7.65 1.17,13 0.75,15.5 16.56,0.87 33.11,1.5 49.25,1.5 40.73,0 67.77,17.75 99.75,17.75 z m -598,-11.25 c 20.52,-0.83 42.05,-2.19 64,-4 21.77,-1.79 43.8,-4 65.75,-6 -2.65,-0.61 -4.45,-1.39 -6.25,-2.25 -6.03,-2.86 -10.94,-6.48 -16.75,-11 -11.62,-9.04 -25.61,-21.75 -40,-35.5 -14.39,-13.75 -28.86,-28.59 -40.75,-41 -3.93,-4.11 -5.32,-5.84 -8.5,-9.25 -2.04,6.67 -4.08,11.57 -6,20.25 -3.37,15.23 -6.2,32.21 -8.25,46.5 -2.05,14.29 -3.25,26.98 -3.25,29.75 0,4.18 0,8.34 0,12.5 z m 409,-10.5 c 0.03,-2.48 0.06,-4.1 0.25,-4 -4.78,-19.07 -14.44,-55.23 -24.5,-84.25 -3.59,-10.35 -6.79,-17.28 -10,-24.25 -11.99,12.98 -29.56,32.39 -52.25,56.5 -14.33,15.23 -28.13,29.59 -39,39.75 -3.65,3.41 -6.81,6.23 -10,8.75 46.41,0.54 91.59,4.33 135.5,7.5 z m -264.25,-0.75 c 3.59,-0.32 7.18,-0.69 10.75,-1 -0.91,-0.12 -1.88,-0.19 -2.5,-0.5 -1.01,-0.51 -1.86,-1.09 -2.75,-1.75 -0.34,0.3 -0.63,0.47 -1,0.75 -1.45,1.09 -2.99,1.86 -4.5,2.5 z m 63.5,-26.5 c 7.16,-6.04 10.84,-10.67 12,-12.75 -2.74,-1.73 -14.18,-6.01 -29.25,-7.75 -0.21,2.52 -0.39,3.83 -0.5,7 -0.09,2.66 -0.87,5.95 -1,8.75 1.04,0.32 1.95,0.44 3,0.75 5.84,1.72 11.87,3.38 15.75,4 z m -3.75,-101.75 c 1.53,-4.78 2.95,-8.77 4.5,-16.5 0.11,-0.57 0.14,-0.94 0.25,-1.5 -0.62,-0.59 -1.3,-1.03 -1.75,-1.5 -5.42,-5.75 -5.85,-8.45 -8.75,-14.25 -2.05,-4.11 -6.96,-10.98 -11.75,-17.5 5.15,19.3 11.27,38.54 17.5,51.25 z m -18,-110 c -0.27,-1.43 -0.54,-2.86 -0.75,-4.25 -0.57,1.01 -0.93,1.74 -1.5,2.75 0.77,0.46 1.53,1 2.25,1.5"
             inkscape:connector-curvature="0"
             id="path24"
             style="fill:#ffffff;fill-opacity:1;fill-rule:evenodd;stroke:none" /></g></g></g></g></svg>