<svg xmlns="http://www.w3.org/2000/svg" viewBox="0 0 431 318"><g fill-rule="evenodd"><path d="M293.95 7.108c-20.252-.05-39.84 5.775-53.657 20.47-16.183 17.21-27.416 49.913-28.906 83.405-.745 16.747 1.156 33.635 7.406 48.72 6.25 15.083 14.982 35.513 31.813 43.28C356.252 265.317 437.373 176.27 404.23 75.577c-3.043-7.94-7.23-15.794-12.812-23.312-14.32-19.288-41.157-34.855-69.938-41.75-8.993-2.155-18.326-3.384-27.53-3.407zm24.187 32.157c16.12-.047 32.534 4.358 44.125 15.125 12.986 12.062 25.045 33.05 28 59.562 1.477 13.255-.9 30.796-4.72 43.438-3.816 12.64-11.314 24.52-23.405 32.406-50.956 38.745-123.52-3.12-119.188-80.594 3.59-36.646 31.49-62.437 56.71-67.97 5.91-1.266 12.16-1.95 18.47-1.967" opacity=".25" fill="#6adf5f"/><path d="M315.382 54.695c-30.406.462-56.91 28.077-58.993 57.587-3.74 31.648 19.26 70.243 51.76 75.057 27.84 4.48 56.3-19.51 64.32-46.05 11.1-31.45-4.2-71.47-36.47-83.16-6.51-2.39-13.62-3.72-20.63-3.44zm.625 16c25.774-.884 47.08 24.104 45.875 49.125.336 25.137-21.933 49.884-48.03 47.594-24.756-1.772-41.79-26.403-39.773-50.75.95-23.348 17.51-45.9 41.92-45.97" opacity=".5" fill="#6adf5f"/><path d="M320.674 91.9c20.58-11.136 40.69 6.15 30.457 46.63-2.21 5.737-5.88 9.735-9.93 12.184-4.05 2.448-8.53 3.507-12.95 3.698-8.84.38-17.39-2.46-21.79-7.336-5.46-6.054-5.84-16.62-3.75-26.266 2.1-9.647 6.46-18.877 11.7-24.09 2.04-2.03 4.157-3.614 6.28-4.822" fill="#6adf5f"/><path d="M321.657.004c-.854.006-1.708.03-2.563.062-28.263.59-55.1 14.366-73.437 34.688-26.985 29.495-37.37 70.732-31.063 109.25-1.012.5-1.6 1.61-1.343 2.75-.34.4-.41.533-.87 1.03-1.05 1.13-2.31 2.458-3.44 3.813s-2.17 2.645-2.75 4.25c-.1.294-.23.685-.22 1.188-1.4.44-3.14 1.64-5.12 2.906-13.61 8.7-26.22 13.62-38.12 11.82l-.18-.03c.02-1.02.086-2.01.25-3 .62-3.71.344-7.35.344-10.62 0-3.79-.8-7.39-.344-10.12.66-3.97.653-7.736.653-11.56 0-3.81-.31-7.533-.31-11.155 0-3.792-.316-7.43-.316-10.843 0-4.11-1.15-6.45-1.936-9.595-.72-2.873-2.352-6.26-4.69-8.59-.355-.357-.66-.94-1.06-1.875-.4-.93-.873-2.216-2.032-3.375-.06-.06-.643-.983-1.215-2-.575-1.016-1.124-2.177-2.47-3.187-1.49-1.12-2.93-2.78-5.314-3.97-1.387-.69-3.703-2.53-6.72-3.28-.42-.107-1.274-.547-2.28-1.066-1.01-.517-2.218-1.186-3.908-1.186-1.8 0-4.76-.595-7.75-.595-2.23 0-4.646-.33-6.816-.87-1.43-.355-2.966-.46-4.47-.435-1.507.025-2.975.188-4.28.406-.497.084-2.26.13-3.97.22-1.71.09-3.356.05-5.126.938-1.28.64-4.44 1.245-6.72 1.625-3.39.566-8.246 2.026-11.25 5.03-2.22 2.22-5.558 3.775-8.28 7.41-2.29 3.053-4.568 6.7-5.41 10.906-.705 3.53-1.462 6.896-2.19 10.53-.68 3.4-1.594 7.365-1.594 11.344 0 3.47-.68 7.89.032 12.16.6 3.606.592 7.366.592 11.376 0 3.954-.316 7.853-.316 12.062 0 2.356.1 4.625.188 6.873-.434.1-.857.31-1.186.626-11.41 10.547-19.287 28.53-28.567 40.907-.94 1.258-1.37 2.523-1.686 3.53-.21.01-.42.04-.624.065l-17-102.41 7.816 6.564c1.064.884 2.647.715 3.534-.346.885-1.06.716-2.613-.345-3.5L13.128 100.1l-.032-.03c-.16-.186-.356-.34-.562-.47l-.72-.593c-.512-.433-1.172-.628-1.842-.563-.89.095-1.67.654-2.03 1.47L.25 117.222c-.403.824-.31 1.815.22 2.563.53.747 1.402 1.14 2.312 1.03.91-.11 1.693-.71 2.03-1.56l4.94-11.095 17.186 103.594c-1.374.53-2.728 1.122-3.906 1.625-.63.26-.785.31-1.28.5-1.115-.71-2.6-.45-3.376.62-.226.3-.406.6-.594 1.03-.19.42-.506 1.14-.094 2.22.412 1.08 1.595 1.6 2.188 1.68.592.08.927.03 1.25-.03 1.278-.26 2.382-.8 3.812-1.41-.26.24-.627.59-.844.81-.546.542-.865.85-1.25 1.47-.096.15-.233.324-.343.65-.11.33-.27.91.07 1.784.34.877 1.34 1.494 1.91 1.596.57.104.87.017 1.1-.03.89-.193 1.086-.4 1.53-.656.45-.26.94-.56 1.47-.91l.19-.126 4.44 26.72c.226 1.362 1.51 2.29 2.875 2.06 1.366-.23 2.29-1.51 2.064-2.878l-3.25-19.565c.63-.225 1.154-.684 1.436-1.31.47-.94.754-1.965.78-2.814.027-.85-.06-1.35-.06-2.402 0-.74.477-3.28.5-5.377.003-.524-.03-1.054-.19-1.69-.11-.43-.325-1.014-.81-1.53.214-.55.36-1.073.5-1.53.32-1.05.58-1.856 1.06-2.5 9.143-12.19 16.723-28.42 25.875-38.156v9.682c0 3.945.313 7.825.313 11.44v9.624c0 4.11.938 7.57.938 10.84 0 1.973.303 8.562.624 15.25.23 4.702.42 8.703.534 11.373-.094.11-.18.214-.25.34-.456.78-.456 1.753 0 2.53.116.203.24.375.405.533.137.693.56 1.29 1.187 1.654.776.456 1.75.456 2.53 0 .42-.244.754-.58.97-1 3.44-.08 7.776-.25 11.03-.25.95 0 1.93.016 2.905.06-.02 16.42-.14 35.547 2.97 51.44.41 2.12.68 4.21.68 6.25v.095c-.003.002-.023.12-.155.31-.28.41-.86 1.042-1.654 1.75-1.594 1.41-3.97 3.1-6.406 4.654-2.44 1.56-4.956 3.01-6.88 4.1-.96.54-1.78.98-2.374 1.31-.3.162-.533.3-.72.404-.186.1-.14.045-.533.31-.78.49-1.213 1.36-1.156 2.28.06.92.6 1.73 1.44 2.125.79.37 1.71.31 2.438-.153-.05.034-.036.02.126-.09.047-.028.09-.04.13-.064.17-.09.42-.21.72-.376.6-.33 1.45-.79 2.435-1.345 1.97-1.114 4.54-2.62 7.094-4.25 2.55-1.63 5.07-3.39 7.03-5.127.98-.866 1.83-1.723 2.5-2.686.59-.86 1.1-1.918 1-3.25h.03c0-2.49-.33-4.897-.78-7.22-2.94-15-2.92-33.737-2.91-50.095 4.65.376 9.48.77 14.373.156 5.856-.73 12.7.78 19.813-1 2.43-.61 5.55-.572 8.874-.405 0 .094.003.127 0 .25-.013.94-.064 2.37-.187 4.094-.245 3.444-.68 8.076-1.124 12.906-.44 4.83-.908 9.854-1.22 14.065-.318 4.21-.53 7.42-.34 9.47.74 8.02-1.598 14.527-.788 23.28.09.956.406 1.17.564 1.375.16.202.27.304.377.405.215.204.41.37.625.533.43.323.94.654 1.565 1.062 1.243.815 2.87 1.823 4.53 2.843l4.75 2.902c1.38.84 2.53 1.575 2.69 1.687.734.547 1.7.66 2.53.286.834-.37 1.42-1.152 1.5-2.06.085-.907-.34-1.79-1.09-2.31-.635-.454-1.61-1.056-3-1.907-1.395-.85-3.11-1.867-4.75-2.876-1.646-1.01-3.227-2.025-4.377-2.78-.39-.256-.617-.41-.878-.595-.43-7.154 1.59-13.517.78-22.28-.094-1.016.034-4.515.344-8.658.31-4.144.773-9.14 1.22-13.97.44-4.83.87-9.496 1.12-13.03.127-1.768.202-3.245.22-4.375v-.03c1.8.11 3.593.216 5.28.216 3.677 0 7.212.315 11.125.315h2.156c.647.19 1.37.1 1.967-.25.78-.453 1.262-1.284 1.25-2.19 0-.164.113-2.66.28-5.78.166-3.12.37-7.11.59-11.092.225-3.98.46-7.95.626-11.06.17-3.11.28-5.1.28-5.97 0-2.016.627-4.31.627-7.124 0-3.01.313-5.41.313-8.655v-10.83c0-1.347-.06-2.647-.126-3.904 14.088 1.84 26.433-3.42 40.844-12.626 1.486-.95 3.17-1.926 5.186-2.75.22.23.43.4.62.53.544.37 1.04.545 1.534.72 1.98.69 4.525 1.092 5.22 1.342.993.357 1.444.643 2.25.906.44.14.96.225 1.5.25 4.403 12.986 10.876 25.32 19.408 36.343 16.938 22.3 43.047 38.765 71.907 41.78 26.35 3.067 53.43-5.405 73.683-21.685 28.47-22.504 44.417-57.593 46.066-92.685 1.986-36.47-11.21-74.164-38.438-100C373.852 11.04 348.122-.22 321.656 0zm-.125 4.187c23.61-.18 46.63 9.08 64.062 24.25 27.215 23.45 41.363 58.94 41.157 93.79.06 34.81-14.2 70.26-41.5 93.57-19.42 16.86-46.05 26.19-72.25 23.5-27.71-2.48-52.94-18.01-69.46-39.19-8.99-11.37-15.69-24.22-20.09-37.78v-.03c-.04-.303-.14-.583-.28-.84l-.03-.06c-.71-2.257-1.35-4.525-1.932-6.815.16-.16.35-.355.56-.69.12-.19.28-.462.377-1.03.094-.567-.14-1.727-.845-2.343-.46-.4-.86-.54-1.19-.593-8.41-38.78.95-81.39 28.064-111.596 17.59-19.91 43.64-33.49 71.09-34.1.76-.026 1.52-.025 2.28-.03zm.406 11.29C269.528 15.48 227 63.17 227 121.95c0 58.774 42.53 106.5 94.94 106.5s94.94-47.726 94.94-106.5c0-58.778-42.524-106.47-94.94-106.47zm.406 4c3.165.01 6.33.21 9.47.63 37.558 4.21 67.332 35.64 76.968 71.16 12.2 42.64-2.666 92.906-39.72 118.378-27.19 19.61-66.203 19.43-93.593.53-39.79-26.882-54.08-81.914-38.07-126.124 11.62-34.775 44.17-63.584 81.78-64.5 1.05-.032 2.1-.064 3.15-.062zm-.375 13.94c-18.78-.12-37.19 7.72-50.85 20.5-36.26 32.97-38.02 95.72-4.75 131.35 20.87 24.22 58.27 32.53 87.03 18.097 38.38-18.522 56-66.75 44.62-106.81-8.38-34.21-39.79-63.53-76.07-63.126zm-.04 4c41.62 0 75.4 37.86 75.4 84.53 0 46.68-33.79 84.57-75.41 84.57s-75.407-37.883-75.407-84.56S280.3 37.43 321.92 37.43zm0 18.16c-32.68 0-59.22 29.73-59.22 66.38 0 36.65 26.54 66.408 59.22 66.408s59.19-29.756 59.19-66.406c0-36.65-26.51-66.374-59.19-66.374zm.03 4c.46 0 .91-.01 1.37 0 6.46.17 12.77 1.69 18.62 4.25 32.074 14.11 43.48 56.68 28.937 87.07-9.825 23.1-36.25 38.596-61.126 32.03-30.17-7.865-47.36-41.714-42.313-71.28 3.175-26.39 25.33-51.487 53.096-52.034.464-.017.943-.027 1.406-.03zm-.88 12.03c-2.51.05-5.01.35-7.47.85-24.88 4.987-39.978 32.07-36.72 56.19 2.1 23.58 23.23 45.508 47.75 43.656 26.05-1.637 44.52-28.15 42.56-53.16-.38-24.28-20.855-48.372-46.128-47.53zm.84 4c22.813 0 41.312 20.76 41.312 46.35 0 25.587-18.5 46.377-41.313 46.377-22.81 0-41.34-20.79-41.34-46.374 0-25.583 18.53-46.342 41.345-46.342zm-208.677 3.8c.84.03 1.6.11 2.156.25.41.11.832.23 1.25.32 1.646 2.15 4.09 3.94 6.78 5.53 2.914 1.72 6.055 3.097 8.75 3.75.88.236 1.806-.003 2.44-.657.63-.653.857-1.6.592-2.47-.27-.87-.99-1.53-1.88-1.72-1.93-.47-4.8-1.72-7.35-3.22-.225-.13-.44-.27-.658-.41 1.82.17 3.86.5 5.844.5.092 0 .75.2 1.624.65.873.45 1.92 1.08 3.343 1.44 1.533.384 3.53 1.83 5.683 2.905 1.355.676 2.615 2.036 4.566 3.5-.065-.05.56.712 1.094 1.656.534.946 1.01 2.013 2.064 3.065.255.255.56.852.97 1.81.41.96.94 2.253 2.123 3.438 1.25 1.248 2.925 4.478 3.376 6.28.906 3.62 1.78 5.19 1.78 8.377 0 3.708.316 7.335.316 10.847 0 3.898.31 7.627.31 11.157 0 3.827-.02 7.27-.595 10.72-.69 4.14.284 8.05.284 10.97 0 3.51.204 6.87-.28 9.78-.783 4.707-.03 8.95-.03 12.81v3.78c-.006.007-.028 0-.03 0-.505.256-.69.44-.815.536-5.25.13-8.755 2.156-12 2.156-9.79 0-19.61 1.47-29.41 1.47-6.803 0-15.79-1.036-24.47-1.75-8.14-.673-15.946-1.126-21.966.092-.08-1.926-.155-3.816-.155-5.66v-11.15c0-4.13-.315-7.963-.315-11.78 0-3.956.31-7.855.31-12.064 0-3.986.038-8.025-.656-12.186-.517-3.11.03-7.33.03-11.35 0-3.18.804-6.86 1.5-10.35.72-3.58 1.44-6.947 2.16-10.53.6-3.007 2.46-6.145 4.53-8.907 1.864-2.486 4.825-3.89 7.812-6.876 1.25-1.25 6.185-3.23 8.56-3.627 1.723-.29 4.063-.59 6.25-1.314.025.823.25 1.61.436 2.5.36 1.73.98 3.755 1.72 6.125.22.905.94 1.62 1.84 1.846.903.225 1.853-.083 2.47-.78.616-.693.797-1.66.468-2.53-.66-2.11-1.16-3.806-1.47-5.156.893.622 1.99 1.424 3.375 2.593 2.94 2.48 4.27 3.634 5.436 4.342.29.174.286.574 1.69.53.35-.01.88-.11 1.376-.44s.857-.9 1-1.34c.29-.886.107-1.265.032-1.535-.3-1.08-.55-1.203-.876-1.715-1-1.573-2.64-4.263-3.406-6.22zm208.69 12.32c-14.88 0-26.97 13.53-26.97 30.22 0 16.69 12.09 30.25 26.97 30.25 14.882 0 26.937-13.56 26.937-30.25 0-16.69-12.054-30.22-26.937-30.22zm0 6.187c11.834 0 21.437 10.758 21.437 24.03 0 13.276-9.602 24.065-21.437 24.065-11.837 0-21.47-10.79-21.47-24.063s9.633-24.03 21.47-24.03zM97.22 111.977c-.362 0-.68.06-.936.12-1.018.26-1.67.7-1.72.72-.4.16-.748.43-1 .78-.6.85-1.363 1.885-1.25 3.658.06.886.59 2.022 1.47 2.625.88.6 1.837.75 2.875.75.86 0 1.81-.2 2.56-.82.75-.62 1.14-1.52 1.25-2.22.22-1.41-.14-2.44-.35-3.25-.19-.77-.81-1.7-1.69-2.09-.45-.2-.86-.28-1.22-.28zm30.25 0c-.362 0-.775.08-1.217.28-.884.395-1.496 1.33-1.687 2.09-.204.816-.532 1.844-.312 3.25.11.705.466 1.604 1.22 2.22.753.616 1.698.813 2.562.813 1.037 0 1.994-.15 2.875-.75.88-.61 1.45-1.74 1.5-2.63.12-1.78-.68-2.81-1.28-3.66-.25-.35-.6-.62-1-.78-.05-.02-.7-.46-1.72-.72-.25-.07-.57-.13-.93-.13zm-15.56 9.81c-.64-.01-1.256.246-1.69.72-.43.47-.655 1.11-.592 1.75.067.85.215 4.786.312 8.373.05 1.79.094 3.52.125 4.84.03 1.31.03 2.44.03 2.28-.01.81.425 1.56 1.126 1.97.7.41 1.55.41 2.25 0s1.14-1.16 1.13-1.97c0-.38 0-1.06-.03-2.38-.03-1.326-.07-3.08-.12-4.88-.09-3.6-.2-7.282-.31-8.624-.07-1.176-1.04-2.08-2.22-2.095zm-22.595 19c-.094-.004-.186.02-.28.03-.832.09-1.537.63-1.845 1.406-.307.777-.17 1.648.375 2.282.074.112.243.366.406.625.27.42.62.96 1.03 1.56.83 1.19 1.79 2.54 3.29 3.5 6.02 3.86 13.55 7.03 21.41 7.03 6.61 0 13.68-2.85 19.07-6.6 2.58-1.797 4.46-4.56 5.78-6.1.81-.944.696-2.375-.25-3.187-.944-.81-2.344-.696-3.155.25-1.56 1.817-3.41 4.282-4.94 5.343-4.715 3.275-11.245 5.78-16.5 5.78-6.634 0-13.46-2.777-18.97-6.31-.394-.256-1.332-1.28-2.03-2.28-.345-.5-.674-.996-.935-1.41-.26-.41-.32-.61-.72-1.09-.42-.52-1.06-.83-1.72-.846zM217.5 157.44c.18.657.343 1.316.532 1.97-.128-.048-.11-.043-.25-.094-.696-.25-1.47-.42-2.22-.594.64-.41 1.3-.835 1.94-1.28zm-60.062 32.5c.128 0 .258.014.375 0v1.595c0 2.912-.312 5.322-.312 8.656 0 1.95-.62 4.27-.62 7.13 0 .11-.11 2.59-.28 5.69-.16 3.1-.37 7.08-.59 11.06-.22 3.99-.45 7.97-.62 11.1-.07 1.41-.14 2.54-.19 3.5h-.47c-3.64 0-7.17-.31-11.12-.31-4.24 0-9.82-.91-15.182-.65-1.79.09-3.57.3-5.25.72-5.61 1.4-12.196 0-19.22.877-4.976.62-10.38-.03-16-.406-.104-.012-.204-.033-.31-.032h-.126c-1.73-.11-3.482-.183-5.25-.183-3.33 0-7.607.168-10.905.25-.12-2.79-.3-6.59-.5-10.685-.32-6.68-.624-13.674-.624-15 0-4.11-.937-7.574-.937-10.844v-9.625c0-.233-.03-.45-.03-.69 2.21-.54 5.116-.782 8.436-.81v1.658c0 1.073.195 2.54.47 4.438.27 1.9.635 4.09 1.092 6.16.46 2.067.94 3.938 1.628 5.438.34.75.61 1.5 1.715 2.22.554.36 1.533.64 2.407.408.874-.233 1.413-.8 1.75-1.25.172-.226 1.347-1.564 2.782-3.06 1.432-1.5 3.2-3.283 4.934-4.94 1.735-1.655 3.444-3.204 4.626-4.124.36-.28.504-.33.72-.47.594.023 1.164-.174 1.624-.53.023.29.05.353.063.75.03.83.01 1.774.28 2.842.133.532.33 1.14.87 1.78.234.275.564.513.94.72l-.19.435c-.546 1.3-1.222 3.016-1.904 4.81-1.367 3.596-2.81 7.606-3.157 8.47-.416 1.04-.19 1.38-.125 1.688.063.31.162.517.25.75.173.477.36.986.624 1.53.53 1.1 1.26 2.39 2 3.72s1.51 2.67 2.156 3.75 1.037 1.768 1.47 2.346c.926 1.23 1.914 2.412 3.812 2.433.95.01 1.87-.47 2.403-.97.54-.504.82-1 1.067-1.5.962-1.995 1.22-4.276 1.69-6.158 1.16-4.64 1.27-8.546.03-14.75-.34-1.68-.69-2.995-1.16-4.093-.44-1.035-.965-1.933-1.937-2.623 1.266-.4 2.433-1.055 3.407-2.065.558-.58.96-1.373 1.157-2.25 1.146 1.104 2.61 2.635 4.157 4.28 3.52 3.74 7.12 7.77 8.348 9 .46.46 1.295.925 2.126.94.83.01 1.48-.32 1.907-.627.856-.613 1.225-1.242 1.626-1.937.8-1.39 1.47-3.16 2.157-5.13 1.368-3.945 2.606-8.61 3.22-11.065.238-.956.146-1.625.093-1.94 2.07-.11 4.14-.19 6.154-.19 5.09 0 8.47-2.22 12.47-2.22zm-74.75 1.407c2.565.104 5.256.274 8 .5 2.72.224 5.475.5 8.22.75-.332.077-.557.174-.782.282-.754.35-1.368.81-2.094 1.37-1.453 1.13-3.2 2.72-5 4.43-1.8 1.72-3.608 3.57-5.094 5.12-.49.51-.665.73-1.062 1.153-.255-.833-.51-1.446-.75-2.53-.422-1.905-.775-4.027-1.032-5.813-.256-1.79-.406-3.374-.406-3.72v-1.563zm51.125 1.313c.004.31.008.512.03.5-.596 2.384-1.804 6.904-3.06 10.53-.45 1.295-.85 2.16-1.25 3.032-1.5-1.622-3.696-4.048-6.532-7.062-1.79-1.904-3.51-3.7-4.87-4.97-.45-.425-.85-.778-1.25-1.093 5.8-.067 11.45-.54 16.94-.937zm-33.03.094c.448.04.896.086 1.343.125-.114.01-.235.02-.313.06-.126.06-.232.13-.344.22-.05-.04-.08-.06-.13-.1-.18-.14-.38-.23-.56-.31zm7.936 3.312c.89.755 1.35 1.334 1.5 1.594-.35.216-1.78.75-3.66.97-.03-.316-.05-.48-.06-.876-.01-.333-.11-.744-.13-1.094.13-.04.24-.055.37-.094.73-.215 1.48-.422 1.97-.5zm-.47 12.72c.19.596.37 1.095.56 2.06.01.073.02.12.03.19-.08.073-.16.128-.22.186-.68.72-.73 1.057-1.1 1.782-.26.513-.87 1.372-1.47 2.187.64-2.41 1.41-4.81 2.19-6.4zm-2.25 13.75c-.04.178-.07.356-.1.53l-.19-.344c.09-.057.19-.125.28-.187" fill="#fff"/></g></svg>