<svg xmlns="http://www.w3.org/2000/svg" viewBox="0 0 431 318"><g fill-rule="evenodd"><path d="M293.95 7.108c-20.252-.05-39.84 5.775-53.657 20.47-16.183 17.21-27.416 49.913-28.906 83.405-.745 16.747 1.156 33.635 7.406 48.72 6.25 15.083 14.982 35.513 31.813 43.28C356.252 265.317 437.373 176.27 404.23 75.577c-3.043-7.94-7.23-15.794-12.812-23.312-14.32-19.288-41.157-34.855-69.938-41.75-8.993-2.155-18.326-3.384-27.53-3.407zm24.187 32.157c16.12-.047 32.534 4.358 44.125 15.125 12.986 12.062 25.045 33.05 28 59.562 1.477 13.255-.9 30.796-4.72 43.438-3.816 12.64-11.314 24.52-23.405 32.406-50.956 38.745-123.52-3.12-119.188-80.594 3.59-36.646 31.49-62.437 56.713-67.97 5.915-1.266 12.16-1.95 18.47-1.967" opacity=".25" fill="#6adf5f"/><path d="M315.382 54.695c-30.406.462-56.91 28.077-58.993 57.587-3.74 31.648 19.26 70.243 51.762 75.057 27.846 4.48 56.307-19.51 64.32-46.05 11.1-31.45-4.194-71.468-36.47-83.16-6.508-2.39-13.614-3.72-20.625-3.44zm.625 16c25.774-.884 47.08 24.104 45.875 49.125.336 25.137-21.933 49.884-48.03 47.594-24.756-1.772-41.79-26.403-39.773-50.75.95-23.348 17.513-45.9 41.922-45.97" opacity=".5" fill="#6adf5f"/><path d="M320.674 91.9c20.58-11.136 40.69 6.15 30.457 46.63-2.21 5.737-5.88 9.735-9.93 12.184-4.05 2.448-8.532 3.507-12.954 3.698-8.844.38-17.392-2.46-21.793-7.336-5.465-6.054-5.84-16.62-3.75-26.266 2.094-9.647 6.46-18.877 11.695-24.09 2.04-2.03 4.155-3.614 6.282-4.822" fill="#6adf5f"/><path d="M321.657.004c-.854.006-1.708.03-2.563.062-28.263.59-55.1 14.366-73.437 34.688-26.985 29.495-37.37 70.732-31.063 109.25-1.012.5-1.6 1.61-1.343 2.75-.34.4-.41.533-.87 1.03-1.05 1.13-2.31 2.458-3.44 3.813s-2.17 2.645-2.75 4.25c-.104.294-.235.685-.22 1.188-1.405.44-3.14 1.64-5.122 2.906-13.612 8.7-26.218 13.62-38.125 11.82-.062-.014-.125-.025-.187-.033.02-1.023.086-2.016.25-3 .62-3.708.344-7.355.344-10.625 0-3.797-.8-7.39-.345-10.125.66-3.97.656-7.737.656-11.562 0-3.81-.31-7.533-.31-11.155 0-3.793-.314-7.43-.314-10.844 0-4.11-1.15-6.447-1.937-9.593-.72-2.875-2.354-6.26-4.69-8.593-.357-.357-.662-.94-1.062-1.875-.4-.93-.873-2.214-2.032-3.373-.06-.06-.646-.984-1.218-2-.573-1.017-1.122-2.178-2.47-3.188-1.487-1.117-2.928-2.777-5.312-3.97-1.386-.69-3.702-2.527-6.718-3.28-.418-.105-1.274-.545-2.282-1.064-1.007-.518-2.216-1.187-3.906-1.187-1.8 0-4.76-.595-7.75-.595-2.228 0-4.644-.33-6.814-.874-1.43-.355-2.964-.46-4.47-.435-1.505.024-2.973.187-4.28.405-.495.083-2.26.13-3.97.22-1.71.088-3.354.05-5.124.937-1.278.64-4.44 1.246-6.72 1.626-3.386.565-8.243 2.025-11.25 5.03-2.22 2.22-5.555 3.774-8.28 7.408-2.29 3.054-4.565 6.703-5.406 10.907-.705 3.53-1.462 6.897-2.188 10.53-.68 3.402-1.595 7.366-1.595 11.345 0 3.47-.68 7.89.032 12.158.6 3.606.593 7.366.593 11.376 0 3.954-.315 7.853-.315 12.062 0 2.357.1 4.626.187 6.874-.435.097-.858.31-1.187.624-11.407 10.546-19.283 28.533-28.563 40.906-.942 1.257-1.373 2.522-1.687 3.53-.21.01-.42.04-.625.064l-17-102.408 7.813 6.563c1.064.885 2.647.716 3.534-.345.886-1.06.717-2.612-.344-3.5L13.127 100.1l-.032-.03c-.16-.186-.356-.34-.562-.47l-.72-.593c-.512-.433-1.172-.628-1.842-.563-.89.095-1.67.654-2.03 1.47L.25 117.222c-.403.824-.31 1.815.22 2.563.53.747 1.402 1.14 2.312 1.03.91-.11 1.693-.71 2.03-1.56l4.94-11.095 17.186 103.594c-1.374.53-2.728 1.122-3.906 1.625-.63.262-.785.31-1.28.5-1.115-.71-2.6-.448-3.376.62-.226.3-.406.604-.594 1.03-.19.426-.506 1.14-.094 2.22.412 1.08 1.595 1.605 2.188 1.686.592.08.927.033 1.25-.03 1.278-.256 2.382-.797 3.812-1.407-.26.246-.627.596-.844.812-.546.546-.865.855-1.25 1.47-.096.153-.233.328-.343.655-.11.33-.27.908.068 1.783.34.877 1.34 1.494 1.906 1.596.567.103.87.016 1.094-.03.888-.194 1.084-.402 1.53-.657.45-.258.94-.56 1.47-.91l.188-.125 4.44 26.72c.225 1.364 1.51 2.288 2.874 2.062 1.364-.23 2.29-1.51 2.062-2.878l-3.25-19.565c.63-.226 1.155-.685 1.437-1.31.47-.94.753-1.966.78-2.815.026-.85-.06-1.35-.06-2.404 0-.74.476-3.28.5-5.376.002-.525-.03-1.055-.19-1.69-.11-.43-.326-1.015-.81-1.53.213-.55.36-1.074.5-1.53.32-1.05.58-1.857 1.06-2.5 9.142-12.19 16.722-28.42 25.874-38.157v9.685c0 3.946.312 7.826.312 11.438v9.626c0 4.11.937 7.572.937 10.842 0 1.975.303 8.564.624 15.25.227 4.704.418 8.705.532 11.375-.094.11-.178.215-.25.34-.456.78-.456 1.754 0 2.53.116.204.242.376.405.534.138.695.56 1.29 1.188 1.656.778.455 1.752.455 2.53 0 .42-.245.756-.58.97-1 3.44-.083 7.778-.25 11.03-.25.952 0 1.933.015 2.907.06-.016 16.42-.14 35.546 2.97 51.44.414 2.117.686 4.208.686 6.25v.094c-.003.005-.023.12-.155.31-.28.41-.86 1.045-1.654 1.75-1.595 1.413-3.97 3.103-6.407 4.657-2.437 1.558-4.953 3.01-6.876 4.097-.962.542-1.78.984-2.376 1.313-.298.162-.533.3-.718.404-.186.102-.14.045-.533.312-.78.493-1.213 1.36-1.156 2.282.06.92.6 1.73 1.44 2.123.79.37 1.71.31 2.437-.154-.05.032-.036.018.126-.093.043-.027.085-.04.125-.063.17-.09.42-.208.72-.374.6-.33 1.45-.788 2.437-1.344 1.97-1.113 4.54-2.62 7.094-4.25 2.553-1.63 5.07-3.39 7.03-5.126.98-.867 1.837-1.724 2.5-2.687.592-.86 1.1-1.918 1-3.25h.032c0-2.49-.327-4.897-.782-7.22-2.934-15-2.916-33.737-2.905-50.095 4.65.377 9.48.768 14.375.157 5.856-.732 12.7.778 19.813-1 2.433-.61 5.55-.573 8.876-.406 0 .094.002.127 0 .25-.014.942-.065 2.372-.188 4.094-.246 3.445-.68 8.077-1.125 12.907-.442 4.83-.904 9.852-1.22 14.063-.314 4.21-.532 7.42-.342 9.47.74 8.02-1.592 14.527-.782 23.28.09.956.406 1.17.564 1.375.157.204.268.306.376.407.214.203.41.37.624.532.43.323.94.654 1.563 1.062 1.242.816 2.868 1.824 4.53 2.844l4.75 2.904c1.38.842 2.53 1.575 2.688 1.687.735.547 1.7.66 2.53.286.835-.373 1.42-1.154 1.5-2.063.086-.907-.34-1.792-1.09-2.31-.634-.454-1.61-1.056-3-1.907-1.394-.85-3.108-1.867-4.75-2.876-1.645-1.01-3.226-2.026-4.376-2.78-.39-.257-.615-.41-.876-.596-.43-7.154 1.59-13.517.78-22.28-.093-1.016.035-4.515.345-8.658.31-4.144.776-9.14 1.22-13.97.44-4.83.87-9.496 1.123-13.03.127-1.768.202-3.245.22-4.375v-.03c1.798.11 3.593.218 5.28.218 3.677 0 7.212.313 11.125.313h2.156c.647.187 1.37.1 1.967-.25.78-.455 1.265-1.286 1.25-2.19 0-.166.116-2.662.284-5.78.166-3.12.37-7.11.592-11.094.223-3.982.457-7.953.624-11.062.17-3.11.28-5.1.28-5.97 0-2.016.625-4.31.625-7.124 0-3.01.313-5.41.313-8.656V180.69c0-1.348-.06-2.648-.125-3.905 14.088 1.84 26.433-3.42 40.844-12.625 1.486-.95 3.17-1.924 5.186-2.75.22.23.43.4.624.53.543.37 1.038.547 1.533.72 1.98.69 4.524 1.094 5.22 1.344.992.357 1.443.643 2.25.906.44.142.96.226 1.5.25 4.402 12.987 10.875 25.32 19.407 36.344 16.938 22.3 43.047 38.763 71.907 41.78 26.352 3.065 53.43-5.407 73.687-21.687 28.47-22.506 44.417-57.595 46.066-92.687 1.986-36.47-11.21-74.164-38.438-100C373.85 11.042 348.123-.216 321.658.004zm-.125 4.187c23.61-.18 46.63 9.08 64.062 24.25 27.215 23.45 41.363 58.94 41.157 93.787.06 34.81-14.2 70.26-41.5 93.563-19.42 16.86-46.05 26.19-72.25 23.5-27.71-2.485-52.943-18.01-69.463-39.19-8.99-11.37-15.694-24.222-20.094-37.78v-.032c-.04-.306-.144-.586-.28-.844-.012-.02-.02-.04-.032-.06-.712-2.256-1.35-4.524-1.937-6.814.16-.16.352-.356.56-.69.12-.192.28-.463.377-1.03.094-.568-.138-1.728-.845-2.344-.458-.4-.86-.542-1.188-.594-8.41-38.78.952-81.387 28.063-111.593 17.593-19.91 43.64-33.49 71.09-34.1.763-.027 1.52-.026 2.282-.03zm.406 11.287c-52.41 0-94.937 47.693-94.937 106.47 0 58.775 42.53 106.5 94.94 106.5s94.94-47.725 94.94-106.5c0-58.777-42.526-106.47-94.94-106.47zm.406 4c3.165.01 6.33.207 9.47.625 37.558 4.204 67.332 35.64 76.968 71.157 12.2 42.64-2.666 92.902-39.72 118.374-27.19 19.61-66.203 19.43-93.593.53C235.68 183.282 221.39 128.25 237.4 84.04c11.622-34.776 44.176-63.585 81.78-64.5 1.056-.033 2.102-.065 3.157-.063zm-.375 13.938c-18.78-.12-37.19 7.72-50.85 20.5-36.252 32.968-38.017 95.715-4.75 131.345 20.87 24.22 58.277 32.527 87.03 18.092 38.388-18.522 56.004-66.75 44.627-106.81-8.378-34.21-39.79-63.53-76.063-63.126zm-.037 4c41.62 0 75.406 37.856 75.406 84.53 0 46.678-33.786 84.565-75.406 84.565-41.62 0-75.406-37.888-75.406-84.564 0-46.675 33.785-84.53 75.405-84.53zm0 18.157c-32.68 0-59.22 29.726-59.22 66.375 0 36.65 26.54 66.407 59.22 66.407s59.188-29.756 59.188-66.405c0-36.65-26.507-66.375-59.187-66.375zm.03 4c.465-.006.915-.012 1.376 0 6.46.17 12.772 1.684 18.625 4.25 32.074 14.103 43.48 56.68 28.937 87.063-9.824 23.1-36.25 38.597-61.125 32.03-30.17-7.864-47.36-41.713-42.314-71.28 3.172-26.39 25.33-51.486 53.093-52.033.463-.017.942-.027 1.405-.03zm-.874 12.03c-2.51.05-5.01.345-7.468.845-24.88 4.986-39.974 32.07-36.72 56.19 2.1 23.582 23.233 45.507 47.75 43.655 26.053-1.637 44.52-28.15 42.563-53.158-.38-24.28-20.853-48.373-46.126-47.532zm.844 4c22.814 0 41.313 20.76 41.313 46.345 0 25.586-18.5 46.376-41.313 46.376-22.814 0-41.344-20.79-41.344-46.374 0-25.585 18.53-46.344 41.346-46.344zM113.25 79.41c.84.026 1.6.11 2.157.25.41.102.832.224 1.25.312 1.646 2.152 4.09 3.94 6.78 5.532 2.914 1.72 6.055 3.097 8.75 3.75.88.236 1.806-.003 2.44-.657.63-.653.857-1.598.592-2.468-.27-.87-.99-1.53-1.88-1.72-1.93-.47-4.798-1.72-7.344-3.22-.224-.13-.44-.27-.657-.41 1.82.175 3.86.5 5.844.5.093 0 .75.206 1.625.656.873.45 1.92 1.08 3.343 1.44 1.537.383 3.534 1.83 5.687 2.904 1.354.677 2.614 2.037 4.565 3.5-.065-.05.56.713 1.094 1.657.532.946 1.01 2.013 2.062 3.065.256.256.56.853.97 1.812.41.96.94 2.253 2.124 3.438 1.247 1.247 2.924 4.477 3.375 6.28.906 3.62 1.78 5.19 1.78 8.376 0 3.706.316 7.333.316 10.845 0 3.897.312 7.626.312 11.156 0 3.824-.02 7.27-.597 10.72-.69 4.135.284 8.046.284 10.97 0 3.51.203 6.87-.282 9.78-.782 4.704-.03 8.945-.03 12.81v3.78c-.005.004-.027 0-.03 0-.504.253-.69.44-.814.533-5.248.13-8.755 2.156-12 2.156-9.788 0-19.61 1.47-29.408 1.47-6.804 0-15.79-1.036-24.47-1.75-8.14-.673-15.947-1.126-21.967.092-.08-1.923-.156-3.813-.156-5.656V170.16c0-4.13-.315-7.963-.315-11.78 0-3.956.312-7.855.312-12.064 0-3.987.037-8.026-.657-12.187-.517-3.11.03-7.33.03-11.35 0-3.178.804-6.855 1.5-10.344.72-3.58 1.44-6.947 2.16-10.53.6-3.007 2.46-6.145 4.53-8.907 1.864-2.485 4.825-3.89 7.812-6.875 1.25-1.25 6.186-3.23 8.562-3.627 1.724-.29 4.064-.59 6.25-1.314.026.824.25 1.61.437 2.5.362 1.73.977 3.756 1.72 6.126.22.903.94 1.62 1.842 1.844.902.222 1.852-.086 2.47-.78.615-.696.796-1.664.467-2.533-.66-2.11-1.16-3.805-1.47-5.155.893.624 1.99 1.426 3.375 2.595 2.94 2.48 4.273 3.636 5.437 4.344.29.174.284.574 1.69.53.35-.01.88-.11 1.374-.44s.857-.9 1-1.342c.29-.885.107-1.264.032-1.534-.3-1.08-.55-1.205-.875-1.717-1-1.572-2.64-4.262-3.406-6.22zm208.69 12.312c-14.88 0-26.97 13.53-26.97 30.22 0 16.69 12.09 30.25 26.97 30.25 14.883 0 26.938-13.56 26.938-30.25 0-16.69-12.055-30.22-26.938-30.22zm0 6.188c11.835 0 21.438 10.757 21.438 24.03 0 13.275-9.603 24.064-21.438 24.064-11.836 0-21.47-10.79-21.47-24.063s9.634-24.03 21.47-24.03zM97.22 111.972c-.362 0-.68.06-.936.125-1.018.26-1.67.7-1.72.72-.4.158-.748.43-1 .78-.6.85-1.363 1.884-1.25 3.657.06.886.59 2.022 1.47 2.625.88.6 1.837.75 2.875.75.86 0 1.81-.2 2.56-.82.75-.615 1.14-1.514 1.25-2.22.22-1.405-.14-2.433-.347-3.25-.192-.763-.803-1.695-1.688-2.09-.443-.2-.856-.28-1.22-.28zm30.25 0c-.362.002-.775.083-1.217.282-.884.397-1.496 1.328-1.687 2.093-.204.815-.532 1.843-.312 3.25.11.704.466 1.603 1.22 2.22.753.615 1.698.812 2.562.812 1.037 0 1.994-.15 2.875-.75.88-.61 1.447-1.74 1.5-2.63.12-1.774-.68-2.808-1.28-3.658-.25-.35-.6-.622-1-.78-.05-.02-.7-.46-1.72-.72-.25-.065-.57-.126-.933-.125zm-15.56 9.813c-.64-.008-1.256.247-1.69.72-.43.47-.655 1.112-.592 1.75.067.852.215 4.787.312 8.374.05 1.79.094 3.52.125 4.84.03 1.314.03 2.44.03 2.28-.01.81.425 1.56 1.126 1.97.7.41 1.55.41 2.25 0s1.14-1.16 1.13-1.97c0-.373 0-1.054-.03-2.375-.033-1.323-.078-3.076-.127-4.876-.097-3.6-.207-7.283-.312-8.625-.073-1.176-1.04-2.08-2.22-2.095zm-22.595 19c-.094-.003-.186.02-.28.03-.832.09-1.537.63-1.845 1.407-.307.777-.17 1.648.375 2.282.074.112.243.366.406.625.27.42.62.962 1.03 1.56.83 1.19 1.79 2.54 3.287 3.5 6.022 3.86 13.547 7.03 21.406 7.03 6.605 0 13.673-2.85 19.063-6.596 2.582-1.793 4.462-4.556 5.782-6.095.81-.945.695-2.376-.25-3.188-.945-.81-2.345-.695-3.156.25-1.56 1.818-3.41 4.283-4.94 5.344-4.715 3.275-11.245 5.78-16.5 5.78-6.634 0-13.46-2.777-18.97-6.31-.394-.256-1.332-1.28-2.03-2.28-.345-.5-.674-.996-.935-1.41-.26-.41-.317-.61-.718-1.092-.42-.52-1.06-.83-1.72-.845zM217.5 157.44c.18.657.343 1.316.532 1.97-.128-.048-.11-.043-.25-.094-.696-.25-1.47-.42-2.22-.594.64-.41 1.3-.835 1.94-1.28zm-60.062 32.5c.128 0 .258.014.375 0v1.595c0 2.912-.312 5.322-.312 8.656 0 1.95-.62 4.267-.62 7.13 0 .107-.113 2.59-.28 5.69-.168 3.1-.37 7.08-.594 11.06-.223 3.983-.457 7.966-.624 11.094-.077 1.41-.14 2.538-.19 3.5h-.47c-3.64 0-7.174-.312-11.122-.312-4.243 0-9.82-.91-15.187-.654-1.79.087-3.57.3-5.25.72-5.61 1.4-12.196-.003-19.22.875-4.976.62-10.38-.03-16-.406-.104-.012-.204-.033-.31-.032h-.126c-1.732-.11-3.483-.185-5.25-.185-3.33 0-7.608.166-10.906.25-.12-2.79-.3-6.59-.5-10.687-.32-6.682-.624-13.673-.624-15 0-4.11-.938-7.573-.938-10.843v-9.626c0-.235-.03-.453-.03-.69 2.212-.54 5.116-.784 8.436-.81v1.656c0 1.072.197 2.54.47 4.437.27 1.9.637 4.09 1.094 6.158.457 2.067.937 3.938 1.626 5.438.34.75.61 1.498 1.715 2.22.553.36 1.532.64 2.406.407.874-.234 1.413-.8 1.75-1.25.172-.227 1.347-1.565 2.782-3.062 1.435-1.498 3.204-3.282 4.937-4.938 1.735-1.656 3.444-3.205 4.626-4.125.36-.28.505-.33.72-.47.595.024 1.165-.173 1.625-.53.023.29.05.354.063.75.03.83.01 1.775.282 2.843.136.534.335 1.14.875 1.78.234.277.564.515.94.72l-.188.437c-.547 1.3-1.223 3.016-1.905 4.812-1.366 3.594-2.81 7.604-3.156 8.47-.414 1.04-.19 1.38-.123 1.686.063.31.162.515.25.75.173.475.36.984.624 1.532.528 1.097 1.26 2.392 2 3.72.74 1.327 1.51 2.668 2.157 3.75.647 1.08 1.037 1.765 1.47 2.343.926 1.235 1.914 2.416 3.812 2.437.95.012 1.87-.466 2.405-.968.536-.503.82-1.002 1.064-1.5.964-1.994 1.218-4.275 1.688-6.157 1.16-4.642 1.273-8.546.03-14.75-.335-1.68-.687-2.995-1.155-4.093-.44-1.037-.965-1.935-1.937-2.625 1.265-.398 2.432-1.054 3.406-2.064.556-.577.96-1.372 1.155-2.25 1.146 1.105 2.61 2.636 4.157 4.28 3.52 3.743 7.116 7.773 8.345 9 .46.46 1.294.926 2.125.94.83.01 1.48-.32 1.903-.626.854-.614 1.223-1.243 1.624-1.938.802-1.39 1.472-3.156 2.156-5.128 1.368-3.943 2.606-8.608 3.22-11.063.238-.956.146-1.625.093-1.938 2.07-.11 4.14-.188 6.155-.188 5.09 0 8.47-2.22 12.47-2.22zm-74.75 1.407c2.565.104 5.256.274 8 .5 2.72.224 5.475.5 8.22.75-.332.077-.557.174-.782.282-.754.35-1.368.81-2.094 1.37-1.453 1.13-3.2 2.72-5 4.436-1.8 1.72-3.608 3.574-5.094 5.125-.49.515-.665.73-1.062 1.157-.255-.833-.51-1.446-.75-2.53-.422-1.905-.775-4.027-1.032-5.813-.256-1.79-.406-3.375-.406-3.72v-1.564zm51.125 1.313c.004.31.008.512.03.5-.596 2.384-1.804 6.904-3.06 10.53-.45 1.295-.85 2.16-1.25 3.032-1.5-1.622-3.696-4.048-6.532-7.062-1.79-1.904-3.51-3.7-4.87-4.97-.456-.425-.85-.778-1.25-1.093 5.8-.067 11.45-.54 16.938-.937zm-33.03.094c.448.04.896.086 1.343.125-.114.01-.235.02-.313.06-.126.06-.232.132-.344.22-.048-.04-.08-.06-.13-.1-.18-.135-.374-.23-.56-.31zm7.936 3.312c.89.755 1.35 1.334 1.5 1.594-.348.216-1.778.75-3.66.97-.028-.316-.05-.48-.06-.876-.01-.333-.11-.744-.128-1.094.13-.04.243-.055.375-.094.73-.215 1.484-.422 1.97-.5zm-.47 12.72c.19.596.37 1.095.56 2.06.012.073.02.12.03.19-.078.073-.16.128-.22.186-.677.72-.73 1.057-1.093 1.782-.256.513-.87 1.372-1.47 2.187.645-2.41 1.41-4.81 2.19-6.4zm-2.25 13.75c-.038.178-.07.356-.098.53-.07-.126-.116-.217-.188-.344.096-.057.19-.125.28-.187" fill="#fff"/></g></svg>