<svg xmlns="http://www.w3.org/2000/svg" viewBox="0 0 431 318"><g fill-rule="evenodd"><path d="M293.95 7.108c-20.252-.05-39.84 5.775-53.657 20.47-16.183 17.21-27.416 49.913-28.906 83.405-.745 16.747 1.156 33.635 7.406 48.72 6.25 15.083 14.982 35.513 31.813 43.28C356.252 265.317 437.373 176.27 404.23 75.577c-3.043-7.94-7.23-15.794-12.812-23.312-14.32-19.288-41.157-34.855-69.938-41.75-8.993-2.155-18.326-3.384-27.53-3.407zm24.187 32.157c16.12-.047 32.534 4.358 44.125 15.125 12.986 12.062 25.045 33.05 28 59.562 1.477 13.255-.9 30.796-4.72 43.438-3.816 12.64-11.314 24.52-23.405 32.406-50.956 38.745-123.52-3.12-119.188-80.594 3.59-36.646 31.49-62.437 56.71-67.97 5.91-1.266 12.16-1.95 18.47-1.967" opacity=".25" fill="#6adf5f"/><path d="M315.382 54.695c-30.406.462-56.91 28.077-58.993 57.587-3.74 31.648 19.26 70.243 51.76 75.057 27.84 4.48 56.3-19.51 64.32-46.05 11.1-31.45-4.2-71.47-36.47-83.16-6.51-2.39-13.62-3.72-20.63-3.44zm.625 16c25.774-.884 47.08 24.104 45.875 49.125.336 25.137-21.933 49.884-48.03 47.594-24.756-1.772-41.79-26.403-39.773-50.75.95-23.348 17.51-45.9 41.92-45.97" opacity=".5" fill="#6adf5f"/><path d="M320.674 91.9c20.58-11.136 40.69 6.15 30.457 46.63-2.21 5.737-5.88 9.735-9.93 12.184-4.05 2.448-8.53 3.507-12.95 3.698-8.84.38-17.39-2.46-21.79-7.336-5.46-6.054-5.84-16.62-3.75-26.266 2.1-9.647 6.46-18.877 11.7-24.09 2.04-2.03 4.16-3.614 6.28-4.822" fill="#6adf5f"/><path d="M321.657.004c-.854.006-1.708.03-2.563.062-28.263.59-55.1 14.366-73.437 34.688-26.985 29.495-37.37 70.732-31.063 109.25-1.012.5-1.6 1.61-1.343 2.75-.34.4-.41.533-.87 1.03-1.05 1.13-2.31 2.458-3.44 3.813s-2.17 2.645-2.75 4.25c-.1.294-.23.685-.22 1.188-1.4.44-3.14 1.64-5.12 2.906-13.61 8.7-26.22 13.62-38.12 11.82l-.18-.03c.02-1.02.09-2.01.25-3 .62-3.71.35-7.35.35-10.62 0-3.79-.8-7.39-.343-10.12.66-3.97.654-7.73.654-11.56 0-3.81-.31-7.53-.31-11.15 0-3.79-.316-7.43-.316-10.84 0-4.11-1.15-6.45-1.935-9.596-.72-2.873-2.353-6.26-4.69-8.59-.356-.357-.66-.94-1.06-1.875-.4-.93-.874-2.217-2.033-3.376-.06-.06-.643-.985-1.215-2-.573-1.018-1.122-2.18-2.47-3.19-1.49-1.12-2.93-2.78-5.312-3.97-1.386-.69-3.702-2.53-6.72-3.28-.42-.105-1.273-.545-2.28-1.064-1.01-.518-2.217-1.187-3.907-1.187-1.8 0-4.76-.595-7.75-.595-2.23 0-4.646-.33-6.816-.87-1.43-.355-2.965-.46-4.47-.435-1.506.024-2.974.187-4.28.405-.496.084-2.26.13-3.97.22-1.71.09-3.355.05-5.125.938-1.28.64-4.44 1.245-6.72 1.625-3.39.568-8.246 2.028-11.25 5.03-2.22 2.22-5.558 3.777-8.28 7.41-2.29 3.055-4.568 6.7-5.41 10.908-.705 3.53-1.46 6.896-2.19 10.53-.68 3.4-1.594 7.365-1.594 11.344 0 3.47-.68 7.89.033 12.16.6 3.607.59 7.367.59 11.377 0 3.953-.315 7.852-.315 12.06 0 2.356.1 4.625.188 6.873-.432.1-.855.31-1.184.623-11.41 10.547-19.288 28.53-28.568 40.907-.94 1.26-1.37 2.523-1.686 3.53-.21.01-.42.04-.625.065l-17-102.41 7.816 6.564c1.064.884 2.647.715 3.534-.346.884-1.06.715-2.613-.346-3.5L13.127 100.1l-.032-.03c-.16-.186-.356-.34-.562-.47l-.72-.593c-.512-.433-1.172-.628-1.842-.563-.89.095-1.67.654-2.03 1.47L.25 117.222c-.403.824-.31 1.815.22 2.563.53.747 1.402 1.14 2.312 1.03.91-.11 1.693-.71 2.03-1.56l4.94-11.095 17.186 103.594c-1.374.53-2.728 1.122-3.906 1.625-.63.26-.785.31-1.28.5-1.115-.71-2.6-.45-3.376.62-.226.3-.406.6-.594 1.03-.19.42-.506 1.14-.094 2.22.412 1.08 1.595 1.6 2.188 1.68.592.08.927.03 1.25-.03 1.278-.26 2.382-.8 3.812-1.41-.26.24-.627.59-.844.81-.546.54-.865.85-1.25 1.47-.096.15-.233.32-.343.65-.11.33-.27.91.07 1.78.34.874 1.34 1.49 1.91 1.593.57.103.87.016 1.1-.03.89-.194 1.09-.4 1.53-.657.45-.26.94-.56 1.47-.91l.19-.126 4.44 26.72c.23 1.363 1.51 2.29 2.88 2.06 1.368-.23 2.29-1.51 2.066-2.877L34.9 228.91c.63-.224 1.155-.683 1.437-1.31.47-.94.754-1.964.78-2.813.027-.85-.06-1.35-.06-2.402 0-.74.477-3.28.5-5.377.003-.523-.03-1.053-.19-1.69-.11-.43-.325-1.013-.81-1.53.214-.55.36-1.072.5-1.53.32-1.05.58-1.855 1.06-2.5 9.143-12.19 16.723-28.42 25.875-38.155v9.682c0 3.945.314 7.825.314 11.44v9.624c0 4.11.938 7.57.938 10.84 0 1.97.303 8.56.624 15.25.23 4.7.42 8.7.534 11.37-.094.11-.18.212-.25.34-.456.78-.456 1.75 0 2.53.116.2.24.373.405.53.137.694.56 1.29 1.187 1.655.776.456 1.75.456 2.53 0 .42-.244.754-.58.97-1 3.44-.08 7.776-.25 11.03-.25.95 0 1.93.016 2.905.06-.02 16.42-.14 35.547 2.97 51.44.41 2.12.68 4.21.68 6.25v.095c-.01.003-.03.12-.16.31-.28.41-.86 1.043-1.655 1.75-1.595 1.41-3.97 3.1-6.407 4.655-2.44 1.56-4.956 3.01-6.88 4.1-.96.54-1.78.98-2.374 1.31-.3.16-.534.3-.72.403-.187.1-.14.044-.534.31-.78.49-1.213 1.36-1.156 2.28.06.92.6 1.73 1.44 2.124.79.37 1.71.31 2.438-.155-.05.033-.036.02.126-.09.05-.03.09-.04.13-.065.17-.09.42-.21.72-.376.6-.33 1.45-.79 2.437-1.346 1.97-1.114 4.54-2.62 7.092-4.25 2.55-1.63 5.07-3.39 7.03-5.127.98-.866 1.83-1.723 2.5-2.686.59-.86 1.1-1.917 1-3.25h.03c0-2.49-.33-4.896-.78-7.22-2.94-15-2.92-33.736-2.91-50.094 4.65.376 9.48.77 14.37.156 5.858-.73 12.7.78 19.815-1 2.43-.61 5.55-.576 8.873-.41 0 .096.003.13 0 .25-.013.94-.064 2.37-.187 4.096-.243 3.445-.68 8.077-1.122 12.907-.44 4.83-.907 9.855-1.22 14.066-.317 4.21-.53 7.42-.34 9.47.74 8.02-1.597 14.525-.787 23.28.09.954.406 1.17.564 1.373.16.202.27.304.376.405.216.202.41.37.626.53.43.323.94.654 1.565 1.06 1.245.817 2.87 1.825 4.53 2.845l4.75 2.903c1.38.84 2.53 1.576 2.69 1.688.736.546 1.7.66 2.53.285.836-.37 1.42-1.15 1.5-2.06.087-.907-.34-1.79-1.09-2.31-.633-.454-1.61-1.056-3-1.907-1.393-.85-3.11-1.866-4.75-2.875-1.644-1.01-3.225-2.026-4.375-2.78-.39-.257-.617-.41-.878-.596-.43-7.155 1.59-13.518.78-22.28-.095-1.017.033-4.516.343-8.66.31-4.143.774-9.14 1.22-13.97.44-4.83.87-9.495 1.12-13.03.13-1.767.203-3.244.22-4.374v-.03c1.8.11 3.594.218 5.28.218 3.68 0 7.213.315 11.126.315h2.156c.647.19 1.37.1 1.967-.25.78-.452 1.26-1.283 1.25-2.19 0-.163.112-2.66.28-5.78.165-3.12.37-7.11.59-11.09.224-3.98.46-7.95.625-11.06.17-3.11.28-5.1.28-5.97 0-2.015.627-4.31.627-7.123 0-3.01.314-5.41.314-8.656v-10.83c0-1.344-.06-2.644-.126-3.9 14.09 1.84 26.436-3.42 40.847-12.626 1.486-.95 3.17-1.925 5.186-2.75.22.23.43.4.62.53.545.37 1.04.546 1.535.72 1.98.69 4.524 1.093 5.22 1.343.992.358 1.443.644 2.25.907.44.14.96.224 1.5.25 4.402 12.985 10.875 25.32 19.407 36.342 16.938 22.3 43.047 38.764 71.907 41.78 26.35 3.066 53.43-5.406 73.683-21.686 28.47-22.503 44.417-57.592 46.066-92.684 1.987-36.47-11.21-74.165-38.44-100C373.855 11.04 348.125-.22 321.66 0zm-.125 4.187c23.61-.18 46.63 9.08 64.062 24.25 27.215 23.45 41.363 58.94 41.157 93.79.06 34.81-14.2 70.26-41.5 93.57-19.42 16.86-46.05 26.19-72.25 23.5-27.71-2.48-52.94-18.01-69.46-39.19-8.99-11.37-15.69-24.22-20.09-37.78v-.03c-.04-.3-.14-.58-.28-.84l-.03-.06c-.71-2.25-1.35-4.52-1.93-6.81.16-.16.35-.353.56-.69.12-.19.28-.46.38-1.03.096-.565-.14-1.725-.843-2.34-.46-.4-.86-.54-1.19-.594-8.41-38.78.95-81.39 28.065-111.595 17.59-19.91 43.64-33.49 71.09-34.1.76-.026 1.52-.025 2.28-.03zm.406 11.29C269.528 15.48 227 63.17 227 121.95c0 58.774 42.53 106.5 94.94 106.5s94.94-47.726 94.94-106.5c0-58.778-42.524-106.47-94.94-106.47zm.406 4c3.165.01 6.33.21 9.47.63 37.558 4.21 67.332 35.64 76.968 71.16 12.2 42.64-2.666 92.91-39.72 118.38-27.19 19.61-66.203 19.43-93.593.53-39.79-26.88-54.08-81.91-38.07-126.12 11.62-34.774 44.17-63.583 81.78-64.5 1.05-.03 2.1-.063 3.15-.06zm-.375 13.94c-18.78-.12-37.19 7.72-50.85 20.5-36.26 32.97-38.02 95.72-4.75 131.35 20.87 24.22 58.27 32.53 87.03 18.1 38.38-18.52 56-66.75 44.62-106.81-8.38-34.21-39.79-63.53-76.07-63.122zm-.04 4c41.62 0 75.4 37.86 75.4 84.53 0 46.68-33.79 84.57-75.41 84.57s-75.41-37.88-75.41-84.56 33.79-84.53 75.41-84.53zm0 18.16c-32.68 0-59.22 29.73-59.22 66.38 0 36.65 26.54 66.41 59.22 66.41s59.19-29.75 59.19-66.4c0-36.65-26.51-66.375-59.19-66.375zm.03 4c.46 0 .91-.01 1.37 0 6.46.17 12.77 1.69 18.62 4.25 32.07 14.11 43.48 56.68 28.93 87.07-9.825 23.1-36.25 38.6-61.126 32.03-30.17-7.86-47.36-41.71-42.314-71.28 3.176-26.39 25.33-51.48 53.097-52.03.463-.014.942-.024 1.405-.03zm-.88 12.03c-2.51.05-5.01.35-7.47.85-24.88 4.99-39.98 32.07-36.72 56.19 2.1 23.58 23.23 45.51 47.75 43.66 26.05-1.634 44.52-28.15 42.56-53.16-.38-24.28-20.86-48.37-46.13-47.53zm.84 4c22.81 0 41.31 20.76 41.31 46.35s-18.5 46.38-41.318 46.38c-22.81 0-41.34-20.79-41.34-46.37s18.53-46.342 41.345-46.342zm-208.68 3.8c.84.03 1.6.11 2.152.25.41.11.832.23 1.25.32 1.646 2.15 4.09 3.94 6.78 5.53 2.914 1.72 6.055 3.1 8.75 3.75.88.24 1.806 0 2.44-.65.63-.653.857-1.6.592-2.47-.27-.87-.99-1.53-1.88-1.72-1.93-.47-4.8-1.72-7.35-3.22-.226-.13-.44-.27-.66-.41 1.82.17 3.86.5 5.845.5.092 0 .75.2 1.624.65.872.45 1.92 1.08 3.342 1.44 1.532.384 3.53 1.83 5.682 2.905 1.353.676 2.613 2.036 4.564 3.5-.064-.05.56.71 1.095 1.656.534.946 1.01 2.013 2.064 3.065.255.256.56.853.97 1.81.41.96.94 2.254 2.123 3.44 1.25 1.247 2.924 4.477 3.375 6.28.906 3.62 1.78 5.19 1.78 8.376 0 3.708.316 7.335.316 10.847 0 3.898.31 7.627.31 11.157 0 3.825-.02 7.27-.595 10.72-.69 4.14.284 8.05.284 10.97 0 3.51.203 6.87-.28 9.78-.784 4.705-.03 8.95-.03 12.81v3.78c-.007.005-.03 0-.03 0-.506.254-.69.44-.816.534-5.25.13-8.757 2.156-12 2.156-9.79 0-19.61 1.47-29.41 1.47-6.805 0-15.79-1.035-24.47-1.75-8.14-.672-15.948-1.125-21.968.093-.08-1.926-.155-3.816-.155-5.66v-11.15c0-4.13-.315-7.963-.315-11.78 0-3.956.31-7.855.31-12.064 0-3.99.038-8.028-.656-12.19-.516-3.11.03-7.33.03-11.35 0-3.18.805-6.86 1.5-10.35.72-3.58 1.44-6.946 2.16-10.53.6-3.006 2.46-6.144 4.53-8.906 1.865-2.486 4.826-3.89 7.813-6.876 1.25-1.25 6.183-3.23 8.56-3.627 1.72-.29 4.06-.59 6.25-1.314.023.82.25 1.61.434 2.5.36 1.73.98 3.753 1.72 6.123.22.905.94 1.62 1.84 1.846.905.224 1.855-.084 2.47-.78.618-.694.8-1.66.47-2.53-.66-2.11-1.16-3.807-1.47-5.157.893.622 1.99 1.424 3.375 2.593 2.94 2.48 4.27 3.634 5.434 4.342.29.173.285.573 1.69.53.35-.01.88-.11 1.375-.44s.858-.9 1-1.34c.29-.887.108-1.266.033-1.536-.3-1.08-.55-1.2-.875-1.712-1-1.574-2.64-4.264-3.406-6.22zm208.69 12.32c-14.88 0-26.97 13.53-26.97 30.22 0 16.69 12.09 30.25 26.97 30.25 14.88 0 26.933-13.56 26.933-30.25 0-16.69-12.055-30.22-26.938-30.22zm0 6.19c11.83 0 21.433 10.76 21.433 24.03 0 13.28-9.603 24.07-21.438 24.07-11.838 0-21.47-10.79-21.47-24.064s9.632-24.03 21.47-24.03zM97.22 111.98c-.362 0-.68.06-.936.12-1.018.26-1.67.7-1.72.72-.4.16-.748.43-1 .78-.6.85-1.363 1.884-1.25 3.657.06.886.59 2.022 1.47 2.625.88.6 1.837.75 2.875.75.86 0 1.81-.2 2.56-.82.75-.62 1.14-1.52 1.25-2.22.22-1.41-.14-2.44-.35-3.25-.19-.77-.81-1.7-1.69-2.09-.45-.2-.86-.28-1.22-.28zm30.25 0c-.362 0-.775.08-1.217.28-.884.394-1.496 1.33-1.687 2.09-.204.815-.532 1.843-.312 3.25.11.704.466 1.603 1.22 2.22.753.615 1.698.812 2.562.812 1.037 0 1.994-.15 2.875-.75.88-.61 1.45-1.74 1.5-2.63.12-1.78-.68-2.81-1.28-3.66-.25-.35-.6-.62-1-.78-.05-.02-.7-.46-1.72-.72-.25-.07-.57-.13-.93-.13zm-15.56 9.81c-.64-.01-1.256.245-1.69.72-.43.47-.655 1.11-.592 1.75.067.85.215 4.785.312 8.372.05 1.79.094 3.52.125 4.84.03 1.31.03 2.44.03 2.28-.01.81.425 1.56 1.126 1.97.7.41 1.55.41 2.25 0s1.14-1.16 1.13-1.97c0-.38 0-1.06-.03-2.38-.03-1.327-.07-3.08-.12-4.88-.09-3.6-.2-7.283-.31-8.625-.07-1.176-1.04-2.08-2.22-2.095zm-22.595 19c-.094-.005-.186.02-.28.03-.832.09-1.537.63-1.845 1.405-.307.777-.17 1.648.375 2.282.074.112.243.366.406.625.27.42.62.96 1.03 1.56.83 1.19 1.79 2.54 3.29 3.5 6.02 3.86 13.55 7.03 21.41 7.03 6.61 0 13.68-2.85 19.07-6.6 2.58-1.798 4.46-4.56 5.78-6.1.81-.945.7-2.376-.25-3.188-.94-.81-2.34-.696-3.15.25-1.56 1.817-3.41 4.282-4.94 5.343-4.713 3.275-11.243 5.78-16.5 5.78-6.632 0-13.46-2.777-18.97-6.31-.392-.256-1.33-1.28-2.03-2.28-.343-.5-.672-.996-.933-1.41-.26-.41-.32-.61-.72-1.09-.42-.52-1.06-.83-1.72-.846zM217.5 157.44c.18.657.343 1.316.532 1.97-.128-.048-.11-.043-.25-.094-.696-.25-1.47-.42-2.22-.594.64-.41 1.3-.835 1.94-1.28zm-60.062 32.5c.128 0 .258.014.375 0v1.595c0 2.912-.312 5.322-.312 8.656 0 1.95-.62 4.27-.62 7.13 0 .11-.11 2.59-.28 5.69-.16 3.1-.37 7.08-.59 11.06-.22 3.99-.45 7.97-.62 11.1-.07 1.41-.14 2.54-.19 3.5h-.47c-3.64 0-7.17-.31-11.12-.31-4.24 0-9.82-.91-15.18-.65-1.79.09-3.57.3-5.25.72-5.61 1.4-12.19 0-19.22.88-4.97.62-10.38-.03-16-.402-.1-.012-.2-.033-.31-.032h-.12c-1.73-.11-3.483-.182-5.25-.182-3.33 0-7.608.17-10.906.25-.12-2.79-.3-6.59-.5-10.684-.32-6.68-.624-13.675-.624-15 0-4.11-.938-7.575-.938-10.845v-9.625c0-.234-.03-.45-.03-.69 2.21-.54 5.116-.783 8.436-.81v1.657c0 1.074.195 2.54.47 4.44.27 1.9.635 4.09 1.092 6.16.46 2.066.94 3.937 1.628 5.437.34.75.61 1.5 1.715 2.22.553.36 1.53.64 2.406.407.872-.23 1.41-.8 1.75-1.25.17-.224 1.345-1.562 2.78-3.06 1.432-1.5 3.2-3.28 4.934-4.94 1.738-1.653 3.447-3.202 4.63-4.122.36-.28.502-.33.72-.47.592.024 1.162-.173 1.622-.53.025.29.05.354.065.75.03.83.01 1.775.28 2.843.133.53.33 1.14.87 1.78.234.275.564.513.94.72l-.19.435c-.546 1.3-1.222 3.018-1.904 4.81-1.366 3.598-2.81 7.608-3.156 8.47-.416 1.04-.19 1.38-.125 1.69.063.31.162.517.25.75.173.477.36.986.624 1.53.53 1.1 1.26 2.39 2 3.72s1.51 2.67 2.154 3.75 1.038 1.768 1.47 2.346c.927 1.23 1.915 2.41 3.813 2.433.95.01 1.87-.47 2.403-.97.54-.505.82-1 1.068-1.5.962-1.996 1.22-4.277 1.69-6.16 1.16-4.64 1.27-8.545.03-14.75-.34-1.68-.69-2.994-1.16-4.092-.44-1.034-.965-1.932-1.937-2.622 1.268-.4 2.435-1.054 3.41-2.064.557-.58.96-1.372 1.156-2.25 1.146 1.105 2.61 2.636 4.157 4.28 3.52 3.74 7.12 7.77 8.348 9 .46.46 1.296.926 2.127.94.83.01 1.48-.32 1.91-.626.855-.614 1.224-1.243 1.625-1.938.8-1.39 1.47-3.16 2.158-5.13 1.368-3.948 2.606-8.61 3.22-11.068.238-.955.146-1.624.093-1.94 2.07-.11 4.14-.19 6.155-.19 5.09 0 8.47-2.22 12.47-2.22zm-74.75 1.407c2.565.104 5.256.274 8 .5 2.72.224 5.475.5 8.22.75-.332.077-.557.174-.782.282-.754.35-1.368.81-2.094 1.37-1.453 1.13-3.2 2.72-5 4.43-1.8 1.72-3.608 3.57-5.094 5.12-.49.51-.665.73-1.062 1.15-.255-.837-.51-1.45-.75-2.53-.422-1.91-.775-4.03-1.032-5.817-.256-1.79-.406-3.375-.406-3.72v-1.564zm51.125 1.313c.004.31.008.512.03.5-.596 2.384-1.804 6.904-3.06 10.53-.45 1.295-.85 2.16-1.25 3.032-1.5-1.622-3.696-4.048-6.532-7.062-1.79-1.904-3.51-3.7-4.87-4.97-.45-.425-.85-.778-1.25-1.093 5.8-.067 11.45-.54 16.94-.937zm-33.03.094c.448.04.896.086 1.343.125-.114.01-.235.02-.313.06-.126.06-.232.13-.344.22-.05-.04-.08-.06-.13-.1-.18-.14-.38-.23-.56-.31zm7.936 3.312c.89.755 1.35 1.334 1.5 1.594-.35.216-1.78.75-3.66.97-.03-.316-.05-.48-.06-.876-.01-.333-.11-.744-.13-1.094.13-.04.24-.055.37-.094.73-.215 1.48-.422 1.97-.5zm-.47 12.72c.19.596.37 1.095.56 2.06.01.073.02.12.03.19-.08.073-.16.128-.22.186-.68.72-.73 1.057-1.1 1.782-.26.513-.87 1.372-1.47 2.187.64-2.41 1.41-4.81 2.19-6.4zm-2.25 13.75c-.04.178-.07.356-.1.53l-.19-.344c.09-.057.19-.125.28-.187" fill="#fff"/></g></svg>