<svg xmlns="http://www.w3.org/2000/svg" viewBox="0 0 431 318"><g fill-rule="evenodd"><path d="M293.95 7.108c-20.252-.05-39.84 5.775-53.657 20.47-16.183 17.21-27.416 49.913-28.906 83.405-.745 16.747 1.156 33.635 7.406 48.72 6.25 15.083 14.982 35.513 31.813 43.28C356.252 265.317 437.373 176.27 404.23 75.577c-3.043-7.94-7.23-15.794-12.812-23.312-14.32-19.288-41.157-34.855-69.938-41.75-8.993-2.155-18.326-3.384-27.53-3.407zm24.187 32.157c16.12-.047 32.534 4.358 44.125 15.125 12.986 12.062 25.045 33.05 28 59.562 1.477 13.255-.9 30.796-4.72 43.438-3.816 12.64-11.314 24.52-23.405 32.406-50.956 38.745-123.52-3.12-119.188-80.594 3.59-36.646 31.49-62.437 56.71-67.97 5.916-1.266 12.16-1.95 18.47-1.967" opacity=".25" fill="#6adf5f"/><path d="M315.382 54.695c-30.406.462-56.91 28.077-58.993 57.587-3.74 31.648 19.26 70.243 51.76 75.057 27.846 4.48 56.307-19.51 64.32-46.05 11.1-31.45-4.194-71.47-36.47-83.16-6.508-2.39-13.614-3.72-20.625-3.44zm.625 16c25.774-.884 47.08 24.104 45.875 49.125.336 25.137-21.933 49.884-48.03 47.594-24.756-1.772-41.79-26.403-39.773-50.75.95-23.348 17.51-45.9 41.92-45.97" opacity=".5" fill="#6adf5f"/><path d="M320.674 91.9c20.58-11.136 40.69 6.15 30.457 46.63-2.21 5.737-5.88 9.735-9.93 12.184-4.05 2.448-8.53 3.507-12.952 3.698-8.844.38-17.392-2.46-21.793-7.336-5.465-6.054-5.84-16.62-3.75-26.266 2.094-9.647 6.46-18.877 11.695-24.09 2.04-2.03 4.154-3.614 6.28-4.822" fill="#6adf5f"/><path d="M321.657.004c-.854.006-1.708.03-2.563.062-28.263.59-55.1 14.366-73.437 34.688-26.985 29.495-37.37 70.732-31.063 109.25-1.012.5-1.6 1.61-1.343 2.75-.34.4-.41.533-.87 1.03-1.05 1.13-2.31 2.458-3.44 3.813s-2.17 2.645-2.75 4.25c-.102.294-.233.685-.22 1.188-1.403.44-3.14 1.64-5.12 2.906-13.612 8.7-26.22 13.62-38.125 11.82-.062-.012-.125-.023-.187-.03.02-1.024.086-2.017.25-3 .62-3.71.344-7.356.344-10.626 0-3.797-.8-7.39-.344-10.125.66-3.97.656-7.738.656-11.563 0-3.81-.31-7.533-.31-11.155 0-3.792-.314-7.43-.314-10.843 0-4.11-1.15-6.448-1.937-9.594-.72-2.875-2.353-6.26-4.69-8.593-.356-.356-.66-.94-1.06-1.874-.4-.93-.874-2.215-2.033-3.374-.06-.06-.646-.984-1.218-2-.574-1.017-1.123-2.178-2.47-3.188-1.488-1.117-2.93-2.777-5.313-3.97-1.387-.69-3.703-2.527-6.72-3.28-.42-.105-1.274-.545-2.282-1.064-1.007-.517-2.216-1.186-3.906-1.186-1.8 0-4.76-.595-7.75-.595-2.227 0-4.643-.33-6.813-.875-1.43-.355-2.965-.46-4.47-.435-1.506.024-2.974.187-4.28.405-.496.083-2.26.13-3.97.22-1.71.088-3.355.05-5.125.937-1.278.64-4.44 1.246-6.72 1.626-3.386.566-8.243 2.026-11.25 5.03-2.22 2.22-5.555 3.775-8.28 7.41-2.29 3.053-4.565 6.702-5.406 10.906-.706 3.53-1.463 6.897-2.19 10.53-.68 3.402-1.595 7.366-1.595 11.345 0 3.47-.68 7.89.032 12.16.6 3.605.593 7.365.593 11.375 0 3.954-.316 7.853-.316 12.062 0 2.357.1 4.626.187 6.874-.433.098-.856.31-1.185.625-11.407 10.546-19.283 28.533-28.563 40.906-.94 1.258-1.372 2.523-1.686 3.53-.21.01-.42.04-.625.065l-17-102.408 7.813 6.563c1.064.885 2.647.716 3.534-.345.886-1.06.717-2.612-.344-3.5L13.127 100.1l-.032-.03c-.16-.186-.356-.34-.562-.47l-.72-.593c-.512-.433-1.172-.628-1.842-.563-.89.095-1.67.654-2.03 1.47L.25 117.222c-.403.824-.31 1.815.22 2.563.53.747 1.402 1.14 2.312 1.03.91-.11 1.693-.71 2.03-1.56l4.94-11.095 17.186 103.594c-1.374.53-2.728 1.122-3.906 1.625-.63.26-.785.31-1.28.5-1.115-.71-2.6-.45-3.376.62-.226.3-.406.602-.594 1.03-.19.424-.506 1.14-.094 2.22.412 1.08 1.595 1.603 2.188 1.684.592.08.927.033 1.25-.03 1.278-.256 2.382-.797 3.812-1.407-.26.246-.627.596-.844.812-.546.545-.865.854-1.25 1.47-.096.152-.233.327-.343.654-.11.33-.27.908.07 1.783.34.877 1.34 1.494 1.906 1.596.567.103.87.016 1.094-.03.887-.194 1.083-.402 1.53-.657.45-.258.94-.56 1.47-.91l.187-.125 4.44 26.72c.225 1.365 1.51 2.29 2.874 2.063 1.366-.23 2.29-1.51 2.064-2.878l-3.25-19.565c.63-.225 1.155-.684 1.437-1.31.47-.94.754-1.965.78-2.814.027-.85-.06-1.35-.06-2.404 0-.74.477-3.28.5-5.376.003-.525-.03-1.055-.19-1.69-.11-.43-.325-1.015-.81-1.53.214-.55.36-1.074.5-1.53.32-1.05.58-1.857 1.06-2.5 9.143-12.19 16.723-28.42 25.875-38.157v9.683c0 3.946.312 7.826.312 11.438v9.627c0 4.11.937 7.572.937 10.842 0 1.974.303 8.563.624 15.25.227 4.703.418 8.704.532 11.374-.095.11-.18.215-.25.34-.457.78-.457 1.754 0 2.53.115.204.24.376.404.534.138.694.56 1.29 1.188 1.655.778.455 1.752.455 2.53 0 .42-.245.756-.58.97-1 3.44-.083 7.778-.25 11.03-.25.952 0 1.933.015 2.907.06-.018 16.42-.14 35.546 2.97 51.44.412 2.117.684 4.208.684 6.25v.094c-.003.004-.023.12-.155.31-.28.41-.86 1.044-1.655 1.75-1.595 1.412-3.97 3.102-6.407 4.656-2.438 1.558-4.954 3.01-6.877 4.097-.96.542-1.78.984-2.375 1.313-.298.162-.533.3-.718.404-.187.102-.14.045-.534.312-.78.492-1.213 1.36-1.156 2.28.06.92.6 1.73 1.44 2.124.79.37 1.71.31 2.437-.154-.05.032-.036.018.126-.093.043-.027.085-.04.125-.063.17-.09.42-.208.72-.374.6-.33 1.45-.788 2.437-1.344 1.97-1.114 4.54-2.62 7.094-4.25 2.552-1.63 5.07-3.39 7.03-5.127.98-.868 1.836-1.725 2.5-2.688.59-.86 1.1-1.918 1-3.25h.03c0-2.49-.326-4.897-.78-7.22-2.935-15-2.917-33.737-2.906-50.095 4.65.378 9.48.77 14.375.158 5.855-.732 12.7.778 19.812-1 2.433-.61 5.55-.573 8.876-.406 0 .093.002.126 0 .25-.014.94-.065 2.37-.188 4.093-.246 3.445-.68 8.077-1.125 12.907-.442 4.83-.904 9.852-1.22 14.063-.314 4.21-.532 7.42-.342 9.47.74 8.02-1.592 14.527-.782 23.28.09.956.407 1.17.565 1.375.158.205.27.307.377.408.215.203.41.37.625.532.43.323.94.654 1.563 1.062 1.242.816 2.868 1.824 4.53 2.844l4.75 2.904c1.38.842 2.53 1.575 2.688 1.687.735.547 1.7.66 2.53.286.835-.372 1.42-1.153 1.5-2.062.086-.907-.34-1.792-1.09-2.31-.634-.454-1.61-1.056-3-1.907-1.394-.85-3.108-1.866-4.75-2.875-1.645-1.01-3.226-2.026-4.376-2.78-.39-.257-.615-.41-.876-.596-.43-7.154 1.59-13.517.78-22.28-.092-1.016.036-4.515.346-8.658.31-4.144.775-9.14 1.22-13.97.44-4.83.87-9.496 1.122-13.03.127-1.768.202-3.245.22-4.375v-.03c1.798.11 3.593.218 5.28.218 3.677 0 7.212.313 11.125.313h2.156c.646.186 1.37.1 1.966-.25.78-.456 1.265-1.287 1.25-2.19 0-.167.116-2.663.284-5.78.166-3.12.37-7.11.592-11.095.223-3.982.457-7.953.624-11.062.17-3.11.28-5.1.28-5.97 0-2.015.625-4.31.625-7.123 0-3.01.314-5.41.314-8.657v-10.83c0-1.348-.06-2.648-.125-3.905 14.087 1.84 26.432-3.42 40.843-12.625 1.486-.95 3.17-1.924 5.186-2.75.22.23.43.4.623.53.543.37 1.038.547 1.533.72 1.98.69 4.524 1.094 5.22 1.344.992.357 1.443.643 2.25.906.44.142.96.226 1.5.25 4.402 12.987 10.875 25.32 19.407 36.344 16.938 22.3 43.047 38.763 71.907 41.78 26.352 3.065 53.43-5.407 73.687-21.687 28.47-22.506 44.418-57.595 46.067-92.687 1.986-36.47-11.21-74.164-38.438-100C373.85 11.042 348.122-.216 321.656.004zm-.125 4.187c23.61-.18 46.63 9.08 64.062 24.25 27.215 23.45 41.363 58.94 41.157 93.79.06 34.81-14.2 70.26-41.5 93.562-19.42 16.86-46.05 26.19-72.25 23.5-27.71-2.484-52.94-18.01-69.46-39.19-8.99-11.37-15.695-24.22-20.095-37.78v-.03c-.04-.307-.144-.587-.28-.845-.012-.02-.02-.04-.032-.06-.712-2.256-1.35-4.524-1.937-6.814.16-.16.352-.355.56-.69.12-.19.28-.462.377-1.03.094-.567-.138-1.727-.845-2.343-.458-.4-.86-.542-1.188-.594-8.41-38.78.95-81.387 28.062-111.593 17.593-19.91 43.64-33.49 71.09-34.1.763-.027 1.52-.026 2.282-.03zm.406 11.29C269.528 15.48 227 63.17 227 121.95c0 58.774 42.53 106.5 94.94 106.5s94.94-47.726 94.94-106.5c0-58.778-42.524-106.47-94.94-106.47zm.406 4c3.165.01 6.33.206 9.47.624 37.558 4.204 67.332 35.64 76.968 71.157 12.2 42.64-2.666 92.903-39.72 118.375-27.19 19.61-66.203 19.43-93.593.53-39.79-26.882-54.08-81.914-38.07-126.124 11.62-34.775 44.175-63.584 81.78-64.5 1.055-.032 2.1-.064 3.156-.062zm-.375 13.937c-18.78-.12-37.19 7.72-50.85 20.5-36.254 32.968-38.02 95.715-4.75 131.345 20.87 24.22 58.275 32.528 87.03 18.093 38.386-18.522 56.002-66.75 44.625-106.81-8.378-34.21-39.79-63.53-76.063-63.126zm-.04 4c41.62 0 75.407 37.856 75.407 84.53 0 46.678-33.786 84.565-75.406 84.565-41.62 0-75.405-37.887-75.405-84.563s33.785-84.53 75.405-84.53zm0 18.157c-32.68 0-59.22 29.726-59.22 66.375 0 36.65 26.54 66.406 59.22 66.406s59.19-29.756 59.19-66.406c0-36.65-26.507-66.375-59.187-66.375zm.03 4c.466-.006.916-.012 1.377 0 6.46.17 12.772 1.684 18.625 4.25 32.074 14.103 43.48 56.68 28.937 87.063-9.825 23.1-36.25 38.597-61.126 32.03-30.17-7.864-47.36-41.713-42.314-71.28 3.173-26.39 25.33-51.486 53.094-52.033.463-.017.942-.027 1.405-.03zm-.873 12.03c-2.51.05-5.01.345-7.468.845-24.88 4.985-39.975 32.07-36.72 56.19 2.1 23.58 23.232 45.506 47.75 43.654 26.052-1.637 44.52-28.15 42.562-53.158-.38-24.28-20.853-48.373-46.126-47.532zm.844 4c22.815 0 41.314 20.76 41.314 46.345 0 25.585-18.5 46.375-41.313 46.375-22.813 0-41.343-20.79-41.343-46.374 0-25.584 18.53-46.343 41.346-46.343zM113.25 79.41c.84.026 1.6.11 2.157.25.41.102.832.224 1.25.312 1.646 2.152 4.09 3.94 6.78 5.532 2.914 1.72 6.055 3.097 8.75 3.75.88.236 1.806-.003 2.44-.657.63-.653.857-1.598.592-2.468-.27-.87-.99-1.53-1.88-1.72-1.93-.47-4.8-1.72-7.346-3.22-.224-.13-.44-.27-.657-.41 1.82.173 3.86.5 5.844.5.094 0 .75.204 1.626.654.873.45 1.92 1.08 3.343 1.44 1.536.383 3.533 1.83 5.686 2.904 1.354.676 2.614 2.036 4.565 3.5-.064-.05.56.712 1.095 1.656.532.946 1.01 2.013 2.062 3.065.256.256.56.853.97 1.812.41.96.94 2.253 2.124 3.438 1.248 1.248 2.925 4.478 3.376 6.28.906 3.62 1.78 5.19 1.78 8.377 0 3.706.316 7.333.316 10.845 0 3.897.312 7.626.312 11.156 0 3.824-.02 7.27-.597 10.72-.69 4.135.284 8.046.284 10.97 0 3.51.204 6.87-.28 9.78-.783 4.704-.03 8.945-.03 12.81v3.78c-.006.004-.028 0-.03 0-.505.253-.69.44-.815.533-5.248.13-8.755 2.158-12 2.158-9.788 0-19.61 1.47-29.408 1.47-6.804 0-15.79-1.036-24.47-1.75-8.14-.673-15.947-1.126-21.967.092-.08-1.924-.155-3.814-.155-5.657V170.16c0-4.13-.315-7.963-.315-11.78 0-3.956.312-7.855.312-12.064 0-3.987.037-8.026-.657-12.187-.517-3.11.03-7.33.03-11.35 0-3.18.804-6.857 1.5-10.346.72-3.58 1.44-6.947 2.16-10.53.6-3.007 2.46-6.145 4.53-8.907 1.864-2.485 4.825-3.89 7.812-6.875 1.25-1.25 6.186-3.23 8.562-3.627 1.722-.29 4.062-.59 6.25-1.314.024.825.25 1.61.435 2.5.362 1.73.977 3.757 1.72 6.127.22.903.94 1.62 1.842 1.844.902.223 1.852-.085 2.47-.78.615-.695.796-1.663.467-2.532-.66-2.11-1.16-3.806-1.47-5.156.893.624 1.99 1.426 3.375 2.595 2.94 2.48 4.272 3.635 5.436 4.343.29.174.284.574 1.69.53.35-.01.88-.11 1.374-.44s.858-.9 1-1.342c.29-.884.108-1.263.033-1.533-.3-1.08-.55-1.205-.875-1.717-1-1.572-2.64-4.262-3.406-6.22zm208.69 12.312c-14.88 0-26.97 13.53-26.97 30.22 0 16.69 12.09 30.25 26.97 30.25 14.883 0 26.938-13.56 26.938-30.25 0-16.69-12.055-30.22-26.938-30.22zm0 6.188c11.835 0 21.438 10.757 21.438 24.03 0 13.275-9.603 24.064-21.438 24.064-11.836 0-21.47-10.79-21.47-24.063s9.634-24.03 21.47-24.03zM97.22 111.972c-.362 0-.68.06-.936.125-1.018.26-1.67.7-1.72.72-.4.158-.748.43-1 .78-.6.85-1.363 1.884-1.25 3.657.06.886.59 2.022 1.47 2.625.88.6 1.837.75 2.875.75.86 0 1.81-.2 2.56-.82.75-.617 1.14-1.516 1.25-2.22.22-1.407-.14-2.435-.35-3.25-.19-.765-.802-1.697-1.687-2.09-.443-.2-.856-.28-1.22-.28zm30.25 0c-.362.002-.775.083-1.217.282-.884.397-1.496 1.328-1.687 2.093-.204.815-.532 1.843-.312 3.25.11.704.466 1.603 1.22 2.22.753.615 1.698.812 2.562.812 1.037 0 1.994-.15 2.875-.75.88-.61 1.45-1.74 1.5-2.63.12-1.776-.68-2.81-1.28-3.66-.25-.35-.6-.62-1-.78-.05-.02-.7-.46-1.72-.72-.25-.065-.57-.126-.93-.125zm-15.56 9.813c-.64-.008-1.256.247-1.69.72-.43.47-.655 1.112-.592 1.75.067.852.215 4.787.312 8.374.05 1.79.094 3.52.125 4.84.03 1.312.03 2.44.03 2.28-.01.81.425 1.56 1.126 1.97.7.41 1.55.41 2.25 0s1.14-1.16 1.13-1.97c0-.375 0-1.056-.03-2.377-.03-1.323-.076-3.076-.125-4.876-.097-3.6-.207-7.283-.312-8.625-.073-1.176-1.04-2.08-2.22-2.095zm-22.595 19c-.094-.003-.186.02-.28.03-.832.09-1.537.63-1.845 1.407-.307.777-.17 1.648.375 2.282.074.112.243.366.406.625.27.42.62.96 1.03 1.56.83 1.19 1.79 2.54 3.29 3.5 6.02 3.86 13.546 7.03 21.405 7.03 6.605 0 13.673-2.85 19.063-6.598 2.582-1.793 4.462-4.556 5.782-6.095.81-.945.694-2.376-.25-3.188-.946-.81-2.346-.696-3.157.25-1.56 1.817-3.41 4.282-4.94 5.343-4.715 3.275-11.245 5.78-16.5 5.78-6.634 0-13.46-2.777-18.97-6.31-.394-.256-1.332-1.28-2.03-2.28-.345-.5-.674-.996-.935-1.41-.26-.41-.317-.61-.718-1.092-.42-.52-1.06-.83-1.72-.844zM217.5 157.44c.18.657.343 1.316.532 1.97-.128-.048-.11-.043-.25-.094-.696-.25-1.47-.42-2.22-.594.64-.41 1.3-.835 1.94-1.28zm-60.062 32.5c.128 0 .258.014.375 0v1.595c0 2.912-.312 5.322-.312 8.656 0 1.95-.62 4.27-.62 7.13 0 .11-.11 2.59-.28 5.69-.166 3.1-.37 7.08-.592 11.06-.223 3.985-.457 7.968-.624 11.096-.077 1.41-.14 2.538-.19 3.5h-.47c-3.64 0-7.174-.312-11.122-.312-4.242 0-9.82-.91-15.186-.654-1.79.086-3.57.3-5.25.72-5.61 1.4-12.196-.004-19.22.874-4.976.62-10.38-.03-16-.406-.104-.012-.204-.033-.31-.032h-.126c-1.732-.11-3.483-.185-5.25-.185-3.33 0-7.608.168-10.906.25-.12-2.79-.3-6.59-.5-10.685-.32-6.682-.624-13.673-.624-15 0-4.11-.938-7.573-.938-10.843v-9.625c0-.235-.03-.453-.03-.69 2.212-.54 5.116-.784 8.436-.81v1.656c0 1.073.197 2.54.47 4.438.27 1.9.637 4.09 1.094 6.16.457 2.066.937 3.937 1.626 5.437.34.75.61 1.498 1.715 2.22.554.36 1.533.64 2.407.407.874-.233 1.413-.8 1.75-1.25.172-.226 1.347-1.564 2.782-3.06 1.434-1.5 3.203-3.283 4.936-4.94 1.735-1.655 3.444-3.204 4.626-4.124.36-.28.505-.33.72-.47.595.024 1.165-.173 1.625-.53.022.29.05.354.062.75.03.83.01 1.775.282 2.843.136.533.335 1.14.875 1.78.233.276.563.514.94.72l-.19.436c-.547 1.3-1.223 3.015-1.905 4.81-1.366 3.595-2.81 7.605-3.156 8.47-.415 1.04-.19 1.38-.124 1.687.063.31.162.515.25.75.173.475.36.984.624 1.532.527 1.096 1.26 2.39 2 3.72.74 1.326 1.51 2.667 2.156 3.75.647 1.08 1.037 1.764 1.47 2.342.926 1.234 1.914 2.415 3.812 2.436.95.012 1.87-.466 2.405-.968.536-.503.82-1.002 1.064-1.5.964-1.994 1.218-4.275 1.688-6.157 1.16-4.64 1.273-8.545.03-14.75-.335-1.68-.687-2.994-1.155-4.092-.44-1.036-.965-1.934-1.937-2.624 1.265-.398 2.432-1.054 3.406-2.064.554-.578.96-1.373 1.153-2.25 1.146 1.104 2.61 2.635 4.157 4.28 3.52 3.742 7.117 7.772 8.346 9 .46.46 1.294.925 2.125.94.83.01 1.48-.32 1.905-.627.854-.614 1.223-1.243 1.624-1.938.8-1.39 1.47-3.156 2.155-5.128 1.368-3.944 2.606-8.61 3.22-11.064.238-.956.146-1.625.093-1.938 2.07-.11 4.14-.188 6.155-.188 5.09 0 8.47-2.22 12.47-2.22zm-74.75 1.407c2.565.104 5.256.274 8 .5 2.72.224 5.475.5 8.22.75-.332.077-.557.174-.782.282-.754.35-1.368.81-2.094 1.37-1.453 1.13-3.2 2.72-5 4.434-1.8 1.72-3.608 3.574-5.094 5.125-.49.514-.665.73-1.062 1.156-.255-.833-.51-1.446-.75-2.53-.422-1.905-.775-4.027-1.032-5.813-.256-1.79-.406-3.375-.406-3.72v-1.564zm51.125 1.313c.004.31.008.512.03.5-.596 2.384-1.804 6.904-3.06 10.53-.45 1.295-.85 2.16-1.25 3.032-1.5-1.622-3.696-4.048-6.532-7.062-1.79-1.904-3.51-3.7-4.87-4.97-.454-.425-.85-.778-1.25-1.093 5.8-.067 11.45-.54 16.94-.937zm-33.03.094c.448.04.896.086 1.343.125-.114.01-.235.02-.313.06-.126.06-.232.13-.344.22-.05-.04-.08-.06-.13-.1-.18-.137-.376-.23-.56-.31zm7.936 3.312c.89.755 1.35 1.334 1.5 1.594-.35.216-1.78.75-3.66.97-.03-.316-.05-.48-.06-.876-.01-.333-.11-.744-.13-1.094.13-.04.243-.055.375-.094.73-.215 1.484-.422 1.97-.5zm-.47 12.72c.19.596.37 1.095.56 2.06.01.073.02.12.03.19-.08.073-.16.128-.22.186-.68.72-.73 1.057-1.095 1.782-.256.513-.87 1.372-1.47 2.187.645-2.41 1.41-4.81 2.19-6.4zm-2.25 13.75c-.04.178-.07.356-.1.53-.07-.126-.116-.217-.188-.344.096-.057.19-.125.28-.187" fill="#fff"/></g></svg>