<svg xmlns="http://www.w3.org/2000/svg" width="1680.897" height="626.956"><g fill-rule="evenodd" opacity=".5"><path d="M257.25 606.962c-3.714.033-7.817.54-13.25 1.625-11.623 2.325-25.5-.84-40.094 1.595-14.906 2.484-33.42 3.155-49.094 3.155-19.207 0-38.798 1.595-57.968 1.595H0v10h96.843c19.722 0 39.33-1.595 57.97-1.595 15.947 0 34.82-.657 50.75-3.313 11.923-1.986 25.897 1.278 40.406-1.625 13.712-2.746 14.99-1.79 28.402 1.56 10.31 2.58 22.08.124 30.188.124h4.938c.243.06.49.1.75.125 6.47.62 19.52 3.125 29.5 3.125h12.343l.25-4.218 7.564-5.783H339.75c-8.206 0-20.977-2.37-28.563-3.092-.193-.02-.403-.037-.593-.033-.388-.09-.78-.13-1.188-.126h-4.844c-9.702 0-21.03 1.837-27.75.158-6.635-1.66-11.21-2.794-15.937-3.158-1.183-.09-2.388-.135-3.625-.125zm603.78.375c-10.235-.03-20.456.59-29.717 2.908-13.025 3.256-100.87 1.467-116.344 1.467-15.217 0-30.28 1.625-45.098 1.625-15.065 0-30.21-4.843-46.688-4.843-13.797 0-27.605 1.593-40.28 1.593-17.052 0-68.27 3.25-83.75 3.25H487.59l13.78 8.938.69 1.032c15.723-.335 66.017-3.22 80.844-3.22 13.498 0 27.287-1.593 40.282-1.593 14.392 0 29.618 4.843 46.687 4.843 15.527 0 30.605-1.625 45.094-1.625 14.596 0 103.05 2.175 118.75-1.75 18.13-4.532 43.9-1.468 64.81-1.468h161.063c14.05 0 33.29 1.914 47.315 4.718 20.03 4.008 43.717.125 62.188.125 16.966 0 106.793-2.16 121.18 1.438 19.25 4.812 43.414.157 60.826.157 4.436 0 307.26-.613 329.795-.613l-2.147-7.55c-22.538 0-323.213-1.84-327.65-1.84-19.013 0-42.75 4.063-58.376.154-17.163-4.287-107.606-1.75-123.63-1.75-19.77 0-43.033 3.533-60.22.095-14.864-2.974-34.34-4.938-49.28-4.938H898.53c-11.155 0-24.338-1.117-37.5-1.157m-427.81-470.99c-3.013.05-5.98.377-8.595.813-.99.162-4.485.29-7.906.466-3.426.178-6.68.074-10.22 1.844-2.557 1.277-8.91 2.52-13.47 3.28-6.777 1.13-16.52 4.05-22.53 10.065-4.44 4.44-11.11 7.512-16.566 14.78-4.58 6.107-9.13 13.437-10.812 21.845-1.41 7.058-2.89 13.796-4.344 21.063-1.36 6.804-3.187 14.7-3.187 22.657 0 6.936-1.36 15.81.063 24.34 1.2 7.21 1.188 14.7 1.188 22.72 0 7.91-.624 15.74-.624 24.156 0 4.716.196 9.265.373 13.75-.864.2-1.69.598-2.344 1.22-22.816 21.09-38.597 57.096-57.157 81.843-2.2 2.935-3.07 5.945-3.72 8.062-.648 2.118-1.166 3.135-1.28 3.25-.426.384-.767.856-1.03 1.344-.325-.035-.64-.063-.91-.063-3.413 0-6.53 1.043-9.843 2.25-3.314 1.204-6.66 2.664-9.5 3.874-1.26.536-1.57.59-2.56.967-2.23-1.41-5.17-.85-6.72 1.28-.45.605-.84 1.18-1.22 2.034-.375.853-1.01 2.244-.186 4.407.825 2.164 3.224 3.276 4.407 3.44 1.185.16 1.857 0 2.5-.127 2.556-.51 4.766-1.563 7.626-2.783-.522.49-1.286 1.16-1.72 1.594-1.09 1.094-1.76 1.71-2.53 2.94-.192.305-.404.655-.625 1.31-.22.656-.615 1.814.064 3.564.68 1.748 2.742 2.98 3.875 3.187 1.13.206 1.71.064 2.154-.03 1.777-.385 2.168-.805 3.064-1.314.895-.51 1.88-1.146 2.937-1.843 2.443-1.607 4.97-3.43 7.314-5.218-.18 1.536-.375 3.1-.375 4.593 0 2.562.14 4.067.124 4.53-.015.462.08.213-.532 1.437-1.234 2.476-.226 5.484 2.25 6.72 2.476 1.233 5.485.225 6.72-2.25.94-1.882 1.508-3.9 1.562-5.595.053-1.697-.125-2.737-.125-4.844 0-1.477.956-6.527 1-10.72.01-1.047-.02-2.076-.345-3.342-.23-.896-.67-2.134-1.72-3.188.52-.272 1-.644 1.405-1.094 2.51-2.51 3.14-5.31 3.78-7.405.643-2.1 1.192-3.68 2.158-4.97 18.273-24.362 33.457-56.805 51.75-76.28v19.313c0 7.89.626 15.683.626 22.905v19.22c0 8.218 1.842 15.145 1.842 21.686 0 3.95.638 17.16 1.282 30.533.454 9.438.836 17.45 1.062 22.78-.17.207-.332.424-.47.658-.907 1.558-.907 3.474.002 5.03.227.39.498.756.812 1.064.27 1.4 1.115 2.64 2.375 3.374 1.56.91 3.474.91 5.03 0 .83-.486 1.48-1.21 1.91-2.03 6.89-.166 15.6-.534 22.124-.534 1.902 0 3.835.09 5.78.187-.032 32.83-.25 71.034 5.97 102.813.828 4.233 1.343 8.447 1.343 12.53v.188c-.007.014-.016.21-.28.595-.565.818-1.75 2.12-3.345 3.53-3.19 2.825-7.97 6.173-12.844 9.283-4.87 3.11-9.873 6.02-13.718 8.188-1.923 1.084-3.558 1.97-4.75 2.625-.596.33-1.068.606-1.438.813-.37.205-.245.057-1.03.593-2.313 1.57-2.915 4.72-1.345 7.03 1.572 2.313 4.72 2.914 7.032 1.344-.654.445-.086.06.25-.124.334-.187.804-.45 1.405-.78 1.2-.663 2.87-1.61 4.84-2.72 3.944-2.225 9.08-5.21 14.19-8.47 5.106-3.26 10.17-6.748 14.093-10.218 1.96-1.737 3.643-3.45 4.97-5.375 1.18-1.716 2.263-3.83 2.06-6.5h.033c0-4.974-.65-9.82-1.56-14.468-5.873-30.01-5.804-67.47-5.78-100.19 9.306.754 18.917 1.54 28.717.314 11.715-1.467 25.37 1.584 39.595-1.97 4.866-1.218 11.158-1.178 17.813-.845.002.185.003.254 0 .5-.03 1.883-.192 4.744-.438 8.19-.492 6.887-1.334 16.182-2.22 25.843-.884 9.66-1.806 19.67-2.436 28.093-.63 8.42-1.034 14.873-.655 18.97 1.483 16.046-3.213 29.025-1.594 46.53.177 1.914.81 2.375 1.126 2.783.31.408.533.61.75.813.43.405.82.71 1.25 1.03.86.65 1.88 1.34 3.123 2.16 2.484 1.632 5.74 3.65 9.06 5.687 3.325 2.04 6.71 4.098 9.47 5.78 2.76 1.685 5.09 3.15 5.406 3.376 1.455 1.21 3.476 1.52 5.22.78 1.744-.74 2.92-2.393 3.063-4.28.14-1.888-.794-3.7-2.408-4.688-1.266-.906-3.214-2.112-6-3.813-2.786-1.7-6.18-3.734-9.47-5.75-3.286-2.018-6.48-4.02-8.78-5.53-.777-.513-1.257-.85-1.78-1.22-.852-14.294 3.244-27.077 1.624-44.594-.188-2.028.037-8.962.656-17.25.62-8.287 1.553-18.277 2.438-27.937.886-9.66 1.746-18.995 2.25-26.063.253-3.533.405-6.487.438-8.75v-.03c3.6.22 7.156.375 10.534.375 7.353 0 14.486.625 22.312.625h4.344c1.296.374 2.707.23 3.905-.47 1.558-.908 2.494-2.603 2.47-4.406 0-.334.195-5.327.53-11.56.335-6.236.804-14.19 1.25-22.157.446-7.966.884-15.938 1.22-22.156.334-6.22.56-10.168.56-11.907 0-4.035 1.25-8.623 1.25-14.25 0-6.015.626-10.85.626-17.343v-21.69c0-8.568-1.21-16.114-.187-23.22.127-.068.246-.15.375-.218.08-.014.165-.018.25-.03v-.097c23.61-12.488 62.09-20.4 89.59-31.876 1.486-.62 3.154-.767 5.345-.874 2.192-.107 5.078-.03 8.125-1.844.534-.32.98-.7 1.346-1.157.764 1.297 1.9 2.053 2.72 2.5 1.147.624 2.136.908 3.155 1.156 4.075.99 9.225 1.323 10.657 1.686 2.043.517 3 .915 4.657 1.28s3.758.324 5.812-.125c2.7-.59 4.435-3.27 3.844-5.97-.592-2.7-3.3-4.402-6-3.81-1.337.292-1.05.254-1.5.155-.453-.1-1.89-.62-4.375-1.25-1.43-.363-2.983-.55-4.5-.75 2.303-1.83 4.69-3.876 6.843-5.844.935-.853 1.755-1.632 2.47-2.373.713-.743 1.19-1.03 2-2.656.202-.407.515-.915.593-2.062.08-1.15-.594-3.446-2.123-4.53-1.53-1.09-2.748-.994-3.438-.94-.69.053-1.093.2-1.438.313-1.376.445-2.14.93-3.47 1.72-.54.32-1.405.883-2.03 1.28 1.907-2.5 3.527-4.377 4.657-6.75.282-.592.584-1.217.72-2.405.132-1.186-.358-3.762-2.25-5.092-1.896-1.33-3.426-1.062-4.346-.906-.46.077-.85.162-1.216.28-.367.12-.684.26-1.032.407-2.45.982-3.735 3.71-2.905 6.22-.61.864-.74 1.137-1.563 2.217-1.87 2.453-4.11 5.333-6.093 8.25-1.983 2.918-3.787 5.69-4.625 9-.073.28-.114.644-.158 1-.525.11-1.04.27-1.53.563-.14.082-1.257.33-3.47.437-2.21.106-5.332.21-8.717 1.624-17.843 7.446-39.684 12.745-59.908 19.814-8.327 2.91-18.062 6.76-25.843 10.69v-15.25c-.37-5.997-1.274-11.56-.534-16 1.324-7.94 1.313-15.477 1.313-23.127 0-7.623-.625-15.067-.625-22.312 0-7.586-.594-14.826-.594-21.656 0-8.22-2.3-12.894-3.873-19.187-1.436-5.752-4.705-12.52-9.374-17.187-.71-.715-1.324-1.914-2.123-3.782-.8-1.867-1.744-4.43-4.063-6.75-.12-.12-1.324-1.967-2.47-4-1.144-2.03-2.18-4.354-4.874-6.374-2.974-2.232-5.92-5.523-10.687-7.907-2.773-1.387-7.373-5.056-13.407-6.563-.834-.208-2.516-1.087-4.53-2.124-2.016-1.04-4.466-2.375-7.845-2.375-3.597 0-9.485-1.218-15.467-1.218-4.45 0-9.317-.635-13.656-1.72-2.86-.714-5.925-.955-8.936-.905zm.217 10.095c1.62-.02 3.154.066 4.47.22-2.12.98-4.55 1.92-7.063 2.69-5.66 1.726-11.84 2.75-15.813 2.75-1.8-.027-3.462.94-4.37 2.5-.91 1.556-.91 3.473 0 5.03.91 1.56 2.57 2.494 4.374 2.47 5.55 0 12.25-1.21 18.72-3.19 6.47-1.976 12.576-4.525 16.875-8.406.54-.47.96-1.035 1.25-1.656 1.325.085 2.626.125 3.937.125.69 0 1.44.042 2.187.094-.003.008.003.02 0 .03-1.09 3.335-7.596 9.908-11.094 13.282-.876.842-1.378.913-2.47 2.873-.27.49-.83 1.18-.687 3.03.072.928.51 2.19 1.313 3.064.8.874 1.76 1.28 2.437 1.47 2.71.746 2.914.017 3.563-.19 2.593-.826 5.745-2.465 12.625-5.905 3.224-1.61 5.66-2.648 7.69-3.438-1.24 2.474-2.92 5.504-5.19 9.282-.995 1.53-1.053 3.515-.187 5.125.866 1.61 2.516 2.614 4.344 2.628 1.827.01 3.517-1 4.406-2.595 2.556-4.26 4.7-7.938 6.22-11.125 1.516-3.188 3.192-5.578 1.936-9.813-.24-.806-.717-1.575-1.345-2.28 3.03.883 6.878 3.61 11.032 5.687 2.702 1.352 5.255 4.043 9.156 6.97-.13-.097 1.09 1.424 2.156 3.312 1.064 1.887 2.022 4.022 4.124 6.125.515.513 1.12 1.675 1.94 3.593.817 1.918 1.88 4.567 4.25 6.938 2.492 2.496 5.816 8.958 6.717 12.565 1.81 7.237 3.595 10.382 3.595 16.75 0 7.41.595 14.636.595 21.657 0 7.795.623 15.25.623 22.313 0 7.648-.006 14.564-1.156 21.468-1.38 8.274.53 16.03.53 21.876 0 5.02.228 9.922 0 14.437-.338 11.594-.88 20.916-.593 30.782v7.593c-.007.004-.02-.005-.03 0-.99.495-1.373.844-1.625 1.03-10.528.247-17.56 4.313-24.065 4.313-19.57 0-39.156 2.937-58.75 2.937-13.607 0-31.613-2.07-48.968-3.5-16.285-1.343-31.9-2.25-43.94.188-.155-3.836-.31-7.64-.31-11.312v-22.32c0-8.264-.626-15.894-.626-23.532 0-7.91.625-15.74.625-24.156 0-7.974.075-16.02-1.313-24.344-1.034-6.212.064-14.686.064-22.72 0-6.354 1.604-13.74 3-20.717 1.43-7.157 2.91-13.895 4.343-21.06 1.2-6.01 4.854-12.257 9-17.78 3.726-4.973 9.68-7.747 15.655-13.72 2.496-2.5 12.34-6.49 17.093-7.28 4.47-.748 11.025-1.53 16.28-4.158-.08.04 3.143-.68 6.28-.843 3.14-.166 6.267-.105 9.03-.565 2.11-.352 4.71-.562 7.16-.593zm34.313 3.596c1.185.09 2.35.157 3.53.157.188 0 1.504.382 3.25 1.282.254.13.545.294.814.437-.954.047-1.87.215-2.813.438-1.803.426-3.84 1.106-6.12 2.062.34-.747.835-1.402 1.093-2.188.25-.716.33-1.458.25-2.188zm-19.625 12.844c.033-.01.236.037.28.03l-.374.19c-.04.01-.14-.15.098-.22zm-44.813 48.687c-.726-.003-1.335.12-1.843.25-2.04.518-3.34 1.366-3.44 1.406-.8.317-1.5.86-2 1.562-1.207 1.7-2.76 3.8-2.53 7.344.11 1.77 1.203 4.01 2.97 5.22 1.76 1.2 3.7 1.53 5.78 1.53 1.722 0 3.584-.427 5.09-1.66 1.507-1.233 2.25-3.03 2.47-4.437.44-2.815-.28-4.838-.69-6.468-.38-1.532-1.603-3.425-3.373-4.22-.886-.397-1.71-.53-2.44-.53zm60.563 0c-.726 0-1.552.133-2.438.53-1.77.795-2.992 2.688-3.375 4.22-.407 1.63-1.128 3.653-.687 6.468.22 1.408.963 3.204 2.47 4.438 1.505 1.232 3.367 1.656 5.092 1.656 2.077 0 4.02-.33 5.782-1.53 1.76-1.21 2.85-3.45 2.964-5.22.228-3.547-1.326-5.648-2.53-7.347-.503-.702-1.198-1.245-2-1.562-.1-.04-1.402-.887-3.438-1.405-.51-.13-1.12-.253-1.845-.25zm-31.188 19.593c-1.273-.007-2.486.527-3.343 1.468-.858.94-1.28 2.2-1.156 3.47.133 1.706.4 9.606.593 16.78.1 3.586.19 7.055.25 9.688.067 2.632.098 4.847.098 4.53-.022 1.623.85 3.15 2.25 3.97 1.4.817 3.13.817 4.53 0 1.403-.82 2.243-2.346 2.22-3.97 0-.744-.03-2.107-.094-4.75-.06-2.643-.15-6.12-.25-9.718-.194-7.2-.412-14.565-.624-17.25-.148-2.362-2.1-4.207-4.47-4.22zm49.563 38c-1.194.11-2.32.696-3.094 1.656-3.117 3.635-6.817 8.534-9.875 10.656-9.43 6.55-22.49 11.563-33 11.563-13.27 0-26.95-5.56-37.964-12.626-.795-.51-2.64-2.53-4.032-4.535-.695-1-1.32-1.986-1.842-2.812-.522-.826-.664-1.22-1.47-2.188-.856-1.07-2.157-1.694-3.53-1.687-1.76 0-3.33 1.056-4.062 2.656-.714 1.558-.51 3.362.563 4.688.04.086.474.707.876 1.343.535.848 1.267 1.938 2.092 3.125.07.1.15.21.22.313.746 3.79 2.86 6.497 5.154 9.812 2.303 3.324 4.808 6.505 6.533 8.438 2.06 2.307 3.437 4.76 5.374 7.47 1.937 2.708 4.556 5.646 8.594 7.78 5.923 3.13 9.62 5.432 17.595 7.062 10.338 2.113 18.59-3.735 25.406-6.97 10.465-4.965 16.75-17.026 21.22-23.342 1.15-1.624 1.48-2.896 1.97-4.28.486-1.387.94-2.77 1.154-3.314.046-.114.06-.23.095-.344 2.326-2.56 4.223-5.16 5.75-6.937 1.11-1.208 1.49-2.91.966-4.468-.522-1.56-1.85-2.71-3.467-3-.406-.072-.824-.1-1.22-.063zm-18.813 26.093c-3.687 5.01-7.71 9.7-11.5 11.5-7.71 3.658-13.806 7.528-19.75 6.313-6.963-1.424-8.985-2.943-15.187-6.22-2.575-1.36-3.904-2.84-5.47-5.03-1.27-1.78-2.612-4.036-4.56-6.5 9.056 4.03 19.027 6.72 29.31 6.72 9.07-.002 18.6-2.677 27.158-6.783zm61.094 72.22v3.186c0 5.82-.62 10.673-.62 17.34 0 3.89-1.25 8.52-1.25 14.25 0 .213-.228 5.174-.563 11.375-.335 6.2-.773 14.16-1.22 22.125-.445 7.967-.883 15.934-1.218 22.19-.15 2.812-.28 5.05-.376 6.97h-.905c-7.28 0-14.42-.627-22.314-.627-8.486 0-19.643-1.828-30.375-1.312-3.577.17-7.102.597-10.47 1.44-11.214 2.803-24.392-.007-38.44 1.75-9.84 1.23-20.494-.037-31.59-.782-.322-.06-.67-.1-1-.094-.055 0-.102.03-.157.032-3.49-.22-7.03-.406-10.592-.406-6.66 0-15.217.36-21.812.53-.245-5.583-.636-13.163-1.03-21.375-.645-13.366-1.283-27.38-1.283-30.03 0-8.222-1.843-15.15-1.843-21.69V373.13c0-.47-.026-.936-.03-1.406 4.43-1.083 10.24-1.534 16.874-1.594v3.28c0 2.146.33 5.08.875 8.876.545 3.795 1.307 8.212 2.22 12.344.91 4.133 1.903 7.875 3.28 10.875.69 1.5 1.194 2.96 3.407 4.406 1.106.725 3.065 1.25 4.812.78 1.747-.464 2.825-1.535 3.5-2.434.34-.456 2.693-3.13 5.562-6.125 2.868-2.995 6.438-6.592 9.906-9.906 3.467-3.314 6.884-6.38 9.25-8.22.72-.56.976-.69 1.406-.968 1.177.047 2.337-.302 3.25-1 .044.52.07.688.096 1.438.058 1.66.083 3.553.625 5.688.27 1.07.64 2.284 1.72 3.564.46.546 1.126 1.09 1.875 1.5-.124.284-.245.535-.375.844-1.096 2.6-2.416 6.03-3.783 9.625-2.732 7.188-5.65 15.177-6.343 16.907-.834 2.08-.38 2.76-.25 3.374.13.615.294 1.058.47 1.53.344.947.782 1.904 1.31 3 1.055 2.195 2.46 4.845 3.937 7.5 1.48 2.657 3.02 5.307 4.313 7.47 1.294 2.163 2.134 3.564 3 4.72 1.853 2.47 3.8 4.8 7.594 4.842 1.895.022 3.71-.933 4.78-1.937 1.07-1.006 1.673-2.005 2.155-3 1.927-3.99 2.464-8.55 3.405-12.314 2.323-9.286 2.545-17.06.064-29.468-.673-3.36-1.44-6.023-2.376-8.22-.885-2.074-1.865-3.87-3.814-5.25 2.532-.8 4.834-2.103 6.782-4.124 1.105-1.147 1.92-2.737 2.31-4.47 2.295 2.21 5.258 5.25 8.345 8.532 7.04 7.483 14.23 15.574 16.688 18.032.918.917 2.557 1.79 4.22 1.812 1.663.023 2.96-.606 3.813-1.22 1.71-1.227 2.416-2.485 3.22-3.875 1.603-2.78 2.975-6.308 4.342-10.25 2.734-7.883 5.21-17.213 6.438-22.125.49-1.96.324-3.27.22-3.875 4.133-.217 8.215-.375 12.248-.375 10.185 0 16.974-4.407 24.97-4.407.255 0 .515-.007.75-.03zm-150.214 2.843c5.12.202 10.486.516 15.968.97 5.506.45 11.104.987 16.658 1.498-.756.147-1.293.363-1.78.594-1.51.714-2.736 1.62-4.188 2.75-2.905 2.26-6.404 5.438-10 8.875-3.597 3.438-7.25 7.116-10.22 10.22-.98 1.02-1.3 1.463-2.093 2.31-.512-1.67-.987-2.884-1.47-5.06-.84-3.81-1.58-8.055-2.092-11.626-.513-3.57-.78-6.744-.78-7.438-.002-1.037-.002-2.067-.002-3.097zm102.218 2.594c.003.54-.002 1.062.033 1.062-1.2 4.785-3.59 13.81-6.094 21.03-.9 2.592-1.73 4.29-2.532 6.032-2.997-3.246-7.36-8.067-13.03-14.093-3.583-3.805-7.063-7.4-9.78-9.934-.913-.852-1.674-1.56-2.47-2.187 11.602-.136 22.905-1.115 33.875-1.907zm-66.124.187c.98.087 1.963.165 2.937.25-.296.036-.584.058-.78.156-.263.13-.49.3-.72.47-.09-.08-.185-.18-.28-.25-.382-.287-.768-.465-1.158-.626zm15.905 6.656c.007.005.025-.006.032 0 1.802 1.52 2.75 2.674 3.03 3.188-.665.43-3.543 1.506-7.343 1.94-.052-.63-.127-.96-.155-1.75-.024-.66-.19-1.49-.22-2.186.27-.083.48-.17.75-.25 1.46-.43 2.936-.783 3.906-.937zm-.906 25.406c.38 1.19.77 2.19 1.154 4.12.027.13.038.215.063.345-.158.15-.325.318-.438.438-1.357 1.436-1.495 2.112-2.22 3.562-.513 1.02-1.75 2.723-2.94 4.344 1.286-4.813 2.82-9.64 4.376-12.813zm-4.564 27.53c-.064.34-.073.693-.125 1.03-.134-.24-.24-.45-.374-.69.176-.106.334-.23.5-.342" fill="#fff"/><path d="M750.944 67.735c-19.626 4.245-76.19 15.628-96.254 20.32-9.943 2.325-14.764 3.6-18.275 4.992-3.51 1.393-5.29 2.876-8.114 4.74-4.58 3.943-6.314 10.33-7.01 16.1-.313 4.93.44 9.565.91 14.585 1.188 7.122 2.036 14.294 3.22 21.418 8.66 37.49 15.374 75.383 23.28 113.033 8.096 37.864 15.854 75.798 23.618 113.73 1.665 6.91 3.728 13.71 5.442 20.606 1.393 4.834 2.96 9.6 5.07 14.17 2.246 4.403 5.83 8.51 11.31 11.48 3.416 1.254 7.213 1.62 10.84 1.65 3.773-.114 8.705-.857 18.753-2.666 20.28-3.65 76.72-15.64 96.42-19.526 27.825-4.963 55.494-10.743 83.17-16.467 18.526-3.83 35.513-7.737 54.196-11.206 27.75-5.276 55.21-11.91 82.816-17.86 32.107-6.775 64.277-13.237 96.316-20.336 9.94-2.322 14.73-3.59 18.242-4.983 3.512-1.393 5.32-2.883 8.146-4.748 4.584-3.94 6.296-10.33 6.98-16.09.317-4.935-.44-9.57-.91-14.59-1.184-7.122-2.03-14.293-3.217-21.416-8.65-37.5-15.35-75.41-23.256-113.07-8.086-37.854-15.876-75.77-23.64-113.693-1.666-6.91-3.73-13.71-5.443-20.606-1.394-4.836-2.957-9.6-5.07-14.173-2.246-4.403-5.8-8.516-11.277-11.486C1093.78.387 1089.97.03 1086.337 0c-3.778.113-8.678.85-18.726 2.66-20.28 3.65-76.72 15.636-96.42 19.523-27.82 4.965-55.49 10.744-83.17 16.467-18.524 4.228-35.67 7.378-54.192 11.21-27.753 5.362-55.277 11.81-82.88 17.874" fill="#6adf5f"/><path d="M1099 15.418c-35.176 75.364-71.73 132.023-109.865 183.163 45.417 32.656 115.726 77.06 170.438 116.5.716-1.675 1.036-3.34 1.156-5.205.082-4.352-.4-8.666-.887-12.986-1.257-6.996-1.985-14.49-3.097-20.54-7.92-37.89-15.826-75.787-23.405-113.746-8.26-37.457-15.895-75.068-23.415-112.69-1.706-6.864-3.765-13.645-5.453-20.515-1.578-4.898-2.683-8.893-4.19-11.846-.392-.765-.826-1.472-1.288-2.132zm-466.063 94.278c-.57 1.503-.863 3.007-.972 4.688.015 4.35.323 8.703.89 13.017 1.255 6.995 1.966 14.4 3.077 20.45 7.932 37.93 15.878 75.86 23.46 113.86 8.263 37.48 15.884 75.117 23.398 112.76 1.674 6.735 3.674 13.355 5.304 20.1 1.304 4.096 2.49 8.275 4.35 12.164.077.152.166.283.246.43 35.19-57.128 82.304-124.342 111.34-171.508-54.65-32.348-109.92-70.376-171.092-125.956" fill="#ececec"/><path d="M930.13 40.15c-1.846.382-3.696.76-5.54 1.143-11.573 2.393-22.258 4.61-33.846 7.007-13.88 2.87-27.07 5.3-40.563 8.162-4.493.954-9.03 1.974-13.63 3.053-11.59 2.396-22.306 4.62-33.88 7.012-1.84.38-3.692.76-5.54 1.143-14.58 3.016-28.47 6.598-43.38 9.682-19.88 4.303-76.6 15.755-96.1 20.315-9.84 2.3-14.415 3.56-16.843 4.524-.32.13-.567.268-.845.396 79.206 71.918 148.138 113.93 219.4 152.958 12.443 6.818 19.9 10.29 26.01 11.776 14.15 2.74 28.988-.28 40.997-8.22 5.064-3.724 10.577-9.796 19.43-20.883 50.97-63.792 98.627-129.458 144.203-227.145.16-.357.37-.675.6-.98-1.037-.17-2.025-.275-3.265-.237-2.612.08-7.305.71-17.252 2.5-19.71 3.55-76.277 15.544-96.235 19.482-14.91 3.084-29.135 5.3-43.717 8.317zM812.66 240.71c-29.592 48.1-77.29 116.106-112.344 173.176 1.908.372 3.19.6 5.08.543 2.613-.08 7.3-.745 17.246-2.536 19.71-3.55 76.308-15.55 96.267-19.488 27.69-5.488 55.52-10.263 83.074-16.43 18.604-3.34 35.693-7.386 54.197-11.213 11.59-2.396 22.276-4.614 33.847-7.008 1.843-.382 3.694-.76 5.54-1.142 14.58-3.016 28.523-6.642 43.434-9.727 19.885-4.3 76.576-15.716 96.077-20.276 9.84-2.3 14.388-3.554 16.816-4.516.064-.026.115-.043.178-.068-54.13-38.894-123.5-82.76-168.953-115.454-9.735 12.86-19.56 25.43-29.506 37.88-8.99 11.26-14.93 17.992-21.33 22.698-14.433 9.615-32.29 13.095-49.3 9.883-7.72-1.877-15.762-5.805-28.4-12.73-13.995-7.665-27.964-15.47-41.922-23.595" fill="#fff"/></g></svg>