<svg xmlns="http://www.w3.org/2000/svg" width="1680.897" height="626.956"><g fill-rule="evenodd" opacity=".5"><path d="M257.25 606.962c-3.714.033-7.817.54-13.25 1.625-11.623 2.325-25.5-.84-40.094 1.595-14.906 2.484-33.42 3.155-49.094 3.155-19.207 0-38.798 1.595-57.968 1.595H0v10h96.843c19.722 0 39.33-1.595 57.97-1.595 15.947 0 34.82-.657 50.75-3.313 11.923-1.986 25.897 1.278 40.406-1.625 13.71-2.75 14.99-1.79 28.4 1.56 10.31 2.58 22.08.12 30.19.12h4.93c.242.06.49.1.75.12 6.47.62 19.52 3.125 29.5 3.125h12.342l.25-4.218 7.563-5.784h-20.15c-8.207 0-20.978-2.37-28.564-3.09-.192-.02-.402-.04-.592-.035-.388-.09-.78-.13-1.188-.126h-4.844c-9.7 0-21.03 1.837-27.75.16-6.636-1.66-11.21-2.796-15.938-3.16-1.183-.09-2.388-.135-3.625-.125zm603.78.375c-10.235-.03-20.456.59-29.717 2.908-13.025 3.256-100.87 1.467-116.344 1.467-15.22 0-30.28 1.625-45.1 1.625-15.07 0-30.21-4.843-46.69-4.843-13.8 0-27.61 1.593-40.28 1.593-17.05 0-68.27 3.25-83.75 3.25h-11.56l13.78 8.938.69 1.032c15.72-.335 66.01-3.22 80.84-3.22 13.5 0 27.285-1.593 40.28-1.593 14.392 0 29.62 4.843 46.687 4.843 15.527 0 30.605-1.625 45.094-1.625 14.597 0 103.05 2.175 118.75-1.75 18.13-4.532 43.9-1.468 64.81-1.468h161.064c14.05 0 33.29 1.914 47.314 4.718 20.03 4.008 43.717.125 62.19.125 16.964 0 106.79-2.16 121.18 1.438 19.25 4.812 43.412.157 60.824.157 4.433 0 307.26-.613 329.792-.613l-2.147-7.55c-22.537 0-323.21-1.84-327.65-1.84-19.01 0-42.75 4.06-58.375.15-17.163-4.29-107.606-1.75-123.63-1.75-19.77 0-43.033 3.53-60.22.09-14.864-2.974-34.34-4.938-49.28-4.938H898.53c-11.155 0-24.338-1.118-37.5-1.158M433.22 136.34c-3.013.05-5.98.377-8.595.813-.99.162-4.485.29-7.906.466-3.43.18-6.68.07-10.22 1.84-2.56 1.275-8.91 2.52-13.47 3.28-6.78 1.13-16.52 4.05-22.53 10.063-4.44 4.44-11.11 7.512-16.57 14.78-4.58 6.107-9.13 13.437-10.81 21.845-1.41 7.06-2.89 13.796-4.35 21.063-1.36 6.803-3.187 14.7-3.187 22.656 0 6.935-1.36 15.81.062 24.34 1.2 7.21 1.187 14.7 1.187 22.72 0 7.91-.622 15.74-.622 24.155 0 4.717.197 9.266.374 13.75-.863.2-1.69.6-2.343 1.22-22.814 21.09-38.595 57.097-57.155 81.844-2.2 2.934-3.07 5.944-3.72 8.06-.65 2.12-1.166 3.136-1.28 3.25-.426.385-.767.857-1.03 1.345-.325-.035-.64-.063-.91-.063-3.413 0-6.53 1.043-9.843 2.25-3.313 1.204-6.66 2.664-9.5 3.874-1.26.538-1.57.59-2.56.97-2.23-1.41-5.17-.85-6.72 1.28-.45.602-.84 1.18-1.22 2.03-.374.854-1.01 2.245-.185 4.408.826 2.163 3.225 3.275 4.41 3.44 1.183.16 1.855 0 2.5-.128 2.554-.51 4.764-1.564 7.624-2.784-.52.49-1.285 1.16-1.72 1.593-1.09 1.093-1.76 1.71-2.53 2.94-.19.304-.403.654-.624 1.31-.22.655-.617 1.813.062 3.563.68 1.748 2.742 2.98 3.875 3.187 1.13.207 1.71.065 2.154-.03 1.78-.384 2.17-.804 3.067-1.313.895-.51 1.88-1.144 2.937-1.84 2.446-1.608 4.97-3.43 7.317-5.22-.18 1.537-.377 3.1-.377 4.594 0 2.56.14 4.068.124 4.53-.016.46.08.214-.533 1.438-1.23 2.478-.223 5.486 2.25 6.72 2.48 1.235 5.488.227 6.72-2.25.94-1.88 1.51-3.9 1.565-5.593.052-1.696-.126-2.736-.126-4.843 0-1.474.954-6.524 1-10.72.01-1.044-.02-2.073-.347-3.34-.23-.895-.67-2.133-1.72-3.19.52-.27 1-.64 1.404-1.09 2.51-2.51 3.14-5.31 3.78-7.405.642-2.1 1.19-3.68 2.157-4.97 18.273-24.362 33.457-56.805 51.75-76.28v19.313c0 7.89.626 15.684.626 22.906v19.22c0 8.22 1.84 15.146 1.84 21.687 0 3.95.64 17.16 1.283 30.535.454 9.437.836 17.45 1.062 22.78-.17.206-.333.423-.47.657-.908 1.56-.908 3.475 0 5.03.228.39.5.757.813 1.065.27 1.4 1.114 2.64 2.374 3.374 1.56.91 3.473.91 5.03 0 .83-.486 1.48-1.21 1.91-2.03 6.89-.166 15.6-.534 22.123-.534 1.903 0 3.836.09 5.78.19-.03 32.83-.25 71.032 5.97 102.81.83 4.235 1.344 8.45 1.344 12.53v.19c-.008.014-.017.21-.28.595-.566.82-1.75 2.12-3.346 3.53-3.19 2.828-7.97 6.176-12.843 9.286-4.87 3.11-9.873 6.02-13.72 8.187-1.922 1.085-3.56 1.97-4.75 2.626-.595.33-1.07.606-1.44.813-.37.206-.242.058-1.03.594-2.31 1.57-2.912 4.72-1.342 7.03 1.57 2.312 4.72 2.913 7.03 1.343-.656.448-.088.06.25-.12.332-.19.802-.45 1.403-.78 1.2-.665 2.87-1.61 4.84-2.72 3.944-2.227 9.08-5.21 14.19-8.47 5.106-3.26 10.17-6.75 14.093-10.22 1.96-1.737 3.643-3.45 4.97-5.375 1.18-1.717 2.263-3.83 2.06-6.5h.033c0-4.975-.65-9.82-1.56-14.47-5.875-30.01-5.806-67.47-5.78-100.19 9.304.755 18.915 1.54 28.715.315 11.716-1.47 25.37 1.58 39.596-1.97 4.87-1.22 11.16-1.18 17.816-.848.002.184.003.253 0 .5-.03 1.882-.192 4.743-.438 8.19-.493 6.886-1.335 16.18-2.22 25.842-.885 9.66-1.807 19.67-2.437 28.093-.63 8.42-1.03 14.873-.653 18.97 1.482 16.046-3.214 29.025-1.595 46.53.176 1.914.81 2.375 1.125 2.783.31.41.53.61.75.816.43.403.82.71 1.25 1.03.86.65 1.88 1.34 3.12 2.16 2.485 1.63 5.74 3.65 9.06 5.685 3.326 2.04 6.71 4.1 9.47 5.78 2.76 1.687 5.09 3.15 5.407 3.378 1.455 1.21 3.476 1.52 5.22.78 1.744-.74 2.92-2.393 3.063-4.28.14-1.89-.795-3.7-2.41-4.69-1.265-.904-3.213-2.11-6-3.81-2.785-1.7-6.18-3.735-9.47-5.75-3.285-2.02-6.48-4.02-8.78-5.53-.776-.514-1.256-.85-1.78-1.22-.85-14.295 3.245-27.078 1.625-44.595-.19-2.028.037-8.962.656-17.25.62-8.287 1.555-18.277 2.44-27.937.886-9.66 1.746-18.992 2.25-26.06.253-3.533.405-6.487.44-8.75v-.03c3.6.22 7.153.375 10.53.375 7.356 0 14.49.624 22.315.624h4.345c1.295.374 2.706.23 3.904-.47 1.556-.908 2.492-2.603 2.47-4.406 0-.335.193-5.328.53-11.56.333-6.237.802-14.19 1.25-22.158.444-7.964.882-15.936 1.22-22.154.332-6.22.56-10.168.56-11.907 0-4.035 1.25-8.623 1.25-14.25 0-6.015.624-10.85.624-17.343v-21.69c0-8.57-1.21-16.115-.187-23.22.127-.07.246-.15.375-.22.08-.013.164-.017.25-.03v-.096c23.61-12.486 62.09-20.4 89.59-31.874 1.485-.62 3.153-.768 5.344-.875 2.194-.106 5.08-.03 8.127-1.843.534-.32.98-.7 1.346-1.156.764 1.296 1.9 2.05 2.72 2.5 1.147.623 2.136.907 3.155 1.155 4.075.99 9.225 1.323 10.657 1.686 2.04.52 3 .917 4.654 1.28s3.76.326 5.812-.123c2.7-.59 4.434-3.27 3.843-5.97-.592-2.7-3.3-4.4-6-3.81-1.337.293-1.05.255-1.5.156-.453-.1-1.89-.62-4.375-1.25-1.43-.362-2.983-.55-4.5-.75 2.303-1.83 4.69-3.875 6.843-5.843.936-.854 1.756-1.633 2.47-2.374.714-.744 1.19-1.03 2-2.657.203-.41.516-.917.594-2.064.08-1.15-.593-3.446-2.122-4.53-1.53-1.09-2.75-.994-3.44-.94-.69.053-1.092.2-1.437.313-1.377.445-2.14.93-3.47 1.72-.54.32-1.406.883-2.03 1.28 1.906-2.5 3.526-4.377 4.656-6.75.28-.59.583-1.217.72-2.405.13-1.186-.36-3.762-2.25-5.092-1.897-1.33-3.427-1.062-4.347-.906-.46.077-.85.162-1.216.28-.368.12-.685.26-1.033.407-2.45.982-3.733 3.71-2.903 6.22-.61.864-.74 1.137-1.564 2.217-1.87 2.457-4.11 5.337-6.094 8.25-1.98 2.92-3.785 5.69-4.623 9-.074.28-.115.648-.16 1-.526.11-1.04.27-1.53.567-.14.08-1.26.33-3.47.435-2.21.108-5.333.21-8.72 1.626-17.84 7.445-39.68 12.744-59.905 19.813-8.326 2.91-18.06 6.76-25.842 10.69v-15.25c-.37-5.995-1.273-11.56-.533-16 1.324-7.94 1.313-15.475 1.313-23.125 0-7.622-.626-15.066-.626-22.31 0-7.587-.594-14.827-.594-21.657 0-8.22-2.3-12.89-3.875-19.184-1.436-5.753-4.705-12.52-9.374-17.188-.71-.715-1.323-1.914-2.12-3.782-.8-1.867-1.746-4.43-4.065-6.75-.12-.12-1.325-1.967-2.47-4-1.145-2.03-2.18-4.354-4.875-6.374-2.97-2.23-5.92-5.522-10.684-7.906-2.772-1.388-7.372-5.057-13.406-6.564-.836-.21-2.518-1.088-4.53-2.125-2.018-1.04-4.468-2.376-7.847-2.376-3.596 0-9.484-1.22-15.466-1.22-4.45 0-9.316-.634-13.655-1.72-2.86-.713-5.923-.954-8.934-.904zm.217 10.095c1.62-.02 3.154.066 4.47.22-2.12.98-4.55 1.92-7.063 2.69-5.66 1.726-11.84 2.75-15.813 2.75-1.8-.027-3.46.94-4.37 2.5-.91 1.556-.91 3.473 0 5.03.91 1.56 2.57 2.494 4.38 2.47 5.55 0 12.25-1.21 18.72-3.19 6.47-1.976 12.58-4.525 16.878-8.406.54-.47.96-1.04 1.25-1.66 1.326.083 2.627.123 3.938.123.69 0 1.44.042 2.188.094-.002.01.004.02 0 .03-1.09 3.335-7.595 9.91-11.093 13.282-.875.84-1.377.912-2.47 2.872-.27.49-.83 1.18-.686 3.03.073.927.51 2.19 1.314 3.063.8.872 1.76 1.28 2.438 1.47 2.71.744 2.915.015 3.564-.19 2.592-.828 5.744-2.467 12.624-5.907 3.225-1.61 5.66-2.65 7.69-3.44-1.24 2.474-2.92 5.504-5.19 9.282-.994 1.53-1.052 3.515-.186 5.125.864 1.61 2.514 2.615 4.342 2.63 1.826.01 3.516-1 4.405-2.596 2.554-4.26 4.7-7.937 6.22-11.124 1.514-3.187 3.19-5.577 1.934-9.812-.24-.805-.72-1.574-1.347-2.28 3.03.884 6.877 3.61 11.03 5.688 2.7 1.352 5.255 4.043 9.156 6.97-.13-.097 1.09 1.424 2.156 3.312 1.064 1.887 2.02 4.022 4.124 6.125.517.513 1.12 1.675 1.94 3.593.82 1.918 1.88 4.567 4.25 6.938 2.494 2.497 5.818 8.96 6.72 12.566 1.81 7.235 3.595 10.38 3.595 16.75 0 7.41.595 14.634.595 21.655 0 7.796.623 15.25.623 22.314 0 7.65-.008 14.564-1.158 21.47-1.38 8.274.53 16.03.53 21.876 0 5.02.23 9.924 0 14.44-.337 11.594-.88 20.916-.592 30.782v7.594c-.007 0-.02-.008-.03 0-.99.492-1.373.84-1.625 1.03-10.53.244-17.56 4.31-24.066 4.31-19.57 0-39.157 2.937-58.75 2.937-13.61 0-31.614-2.07-48.97-3.5-16.284-1.344-31.9-2.25-43.94.187-.154-3.836-.31-7.64-.31-11.31V327.9c0-8.263-.625-15.893-.625-23.53 0-7.91.625-15.74.625-24.157 0-7.974.074-16.02-1.314-24.344-1.034-6.218.064-14.69.064-22.72 0-6.36 1.605-13.74 3-20.72 1.43-7.16 2.91-13.898 4.344-21.06 1.2-6.01 4.852-12.26 9-17.78 3.724-4.976 9.68-7.75 15.653-13.72 2.493-2.5 12.34-6.49 17.09-7.28 4.47-.75 11.025-1.53 16.28-4.16-.08.04 3.143-.68 6.28-.844 3.14-.166 6.267-.105 9.03-.565 2.11-.352 4.71-.562 7.16-.593zm34.313 3.596c1.185.09 2.35.16 3.53.16.188 0 1.504.387 3.25 1.287.254.13.545.295.814.438-.954.048-1.87.216-2.813.44-1.8.425-3.84 1.105-6.12 2.06.34-.746.84-1.4 1.1-2.187.25-.716.33-1.458.25-2.188zm-19.625 12.85c.033-.01.236.038.28.03l-.374.19c-.04.01-.14-.15.1-.22zm-44.813 48.688c-.726-.003-1.335.12-1.843.25-2.04.518-3.34 1.366-3.44 1.406-.8.318-1.5.86-2 1.563-1.21 1.7-2.76 3.8-2.53 7.345.11 1.77 1.2 4.01 2.97 5.22 1.76 1.2 3.7 1.53 5.78 1.53 1.72 0 3.58-.426 5.09-1.66 1.5-1.232 2.25-3.03 2.47-4.436.44-2.814-.28-4.837-.69-6.467-.38-1.533-1.61-3.426-3.38-4.22-.888-.398-1.71-.53-2.44-.53zm60.563 0c-.726 0-1.552.133-2.438.53-1.77.795-2.992 2.688-3.375 4.22-.407 1.63-1.128 3.653-.687 6.468.22 1.41.963 3.205 2.47 4.44 1.505 1.232 3.367 1.656 5.092 1.656 2.077 0 4.02-.33 5.782-1.53 1.76-1.21 2.85-3.45 2.96-5.22.23-3.547-1.33-5.65-2.53-7.347-.508-.702-1.2-1.245-2-1.562-.1-.04-1.4-.886-3.44-1.404-.51-.13-1.12-.253-1.848-.25zm-31.188 19.593c-1.273-.007-2.486.527-3.343 1.468-.858.94-1.28 2.2-1.156 3.47.133 1.706.4 9.606.593 16.78.1 3.586.19 7.055.25 9.688.07 2.633.1 4.848.1 4.53-.02 1.624.85 3.15 2.25 3.97 1.4.818 3.13.818 4.53 0 1.41-.82 2.25-2.345 2.22-3.97 0-.743-.03-2.106-.09-4.75-.06-2.642-.15-6.12-.25-9.717-.19-7.2-.41-14.566-.62-17.25-.148-2.363-2.1-4.208-4.47-4.22zm49.563 38c-1.194.11-2.32.696-3.094 1.656-3.117 3.636-6.817 8.535-9.875 10.657-9.43 6.55-22.49 11.56-33 11.56-13.27 0-26.95-5.56-37.96-12.625-.79-.51-2.64-2.53-4.03-4.535-.692-1-1.32-1.987-1.84-2.81-.52-.83-.663-1.22-1.47-2.19-.855-1.07-2.156-1.695-3.53-1.688-1.76 0-3.33 1.056-4.06 2.656-.714 1.56-.51 3.363.563 4.69.04.085.474.706.876 1.34.534.85 1.266 1.94 2.09 3.127.07.1.15.21.22.313.747 3.79 2.86 6.494 5.155 9.81 2.304 3.323 4.81 6.504 6.534 8.44 2.06 2.304 3.436 4.76 5.373 7.47 1.937 2.705 4.556 5.643 8.594 7.78 5.924 3.13 9.62 5.43 17.596 7.06 10.338 2.112 18.59-3.736 25.406-6.97 10.465-4.966 16.75-17.027 21.22-23.34 1.15-1.627 1.48-2.9 1.97-4.28.486-1.39.94-2.77 1.154-3.317.046-.114.06-.23.095-.344 2.324-2.56 4.22-5.16 5.75-6.938 1.11-1.208 1.49-2.91.964-4.468-.523-1.56-1.85-2.71-3.468-3-.406-.072-.824-.1-1.22-.063zm-18.813 26.093c-3.687 5.01-7.71 9.7-11.5 11.5-7.71 3.66-13.806 7.53-19.75 6.314-6.963-1.424-8.985-2.943-15.187-6.22-2.575-1.36-3.904-2.84-5.47-5.03-1.27-1.78-2.612-4.036-4.56-6.5 9.056 4.03 19.027 6.72 29.31 6.72 9.07-.002 18.6-2.677 27.158-6.783zm61.094 72.22v3.187c0 5.82-.62 10.67-.62 17.34 0 3.89-1.25 8.52-1.25 14.25 0 .21-.22 5.172-.56 11.373-.33 6.2-.77 14.16-1.22 22.127-.44 7.967-.88 15.934-1.22 22.19-.15 2.81-.28 5.05-.37 6.97h-.903c-7.28 0-14.42-.627-22.314-.627-8.486 0-19.643-1.83-30.375-1.313-3.576.17-7.1.596-10.47 1.44-11.213 2.802-24.39-.008-38.44 1.75-9.84 1.23-20.493-.038-31.59-.783-.32-.06-.67-.1-1-.094-.054 0-.1.03-.156.034-3.49-.22-7.03-.406-10.592-.406-6.66 0-15.215.36-21.81.53-.245-5.58-.636-13.16-1.03-21.37-.645-13.366-1.283-27.38-1.283-30.03 0-8.22-1.844-15.15-1.844-21.69v-19.21c0-.47-.027-.937-.03-1.407 4.43-1.082 10.24-1.533 16.873-1.593v3.28c0 2.145.33 5.08.875 8.875.546 3.794 1.308 8.21 2.22 12.343.91 4.133 1.904 7.875 3.28 10.875.69 1.5 1.195 2.96 3.408 4.407 1.105.728 3.064 1.25 4.81.78 1.748-.46 2.826-1.532 3.5-2.43.34-.457 2.694-3.13 5.563-6.126 2.87-2.994 6.44-6.59 9.907-9.905 3.466-3.315 6.883-6.38 9.25-8.22.72-.56.975-.69 1.405-.97 1.175.047 2.335-.302 3.25-1 .042.52.07.688.094 1.438.06 1.66.085 3.552.627 5.687.27 1.07.64 2.284 1.72 3.564.46.544 1.128 1.09 1.877 1.5-.122.282-.243.533-.373.842-1.097 2.6-2.417 6.03-3.784 9.624-2.734 7.188-5.65 15.177-6.345 16.907-.833 2.08-.38 2.76-.25 3.375.13.614.295 1.057.47 1.53.345.946.783 1.903 1.31 3 1.056 2.194 2.46 4.844 3.938 7.5 1.48 2.656 3.02 5.306 4.314 7.47 1.294 2.162 2.134 3.563 3 4.72 1.853 2.47 3.8 4.8 7.594 4.84 1.896.023 3.71-.93 4.78-1.936 1.07-1.007 1.674-2.006 2.156-3 1.926-3.99 2.463-8.55 3.404-12.315 2.323-9.287 2.545-17.06.064-29.47-.673-3.36-1.44-6.02-2.376-8.22-.886-2.073-1.866-3.87-3.815-5.25 2.532-.8 4.834-2.1 6.782-4.123 1.104-1.147 1.92-2.737 2.31-4.47 2.294 2.21 5.257 5.25 8.344 8.532 7.04 7.48 14.23 15.57 16.687 18.03.917.915 2.556 1.79 4.22 1.81 1.66.022 2.96-.607 3.81-1.22 1.71-1.228 2.418-2.486 3.22-3.876 1.605-2.78 2.977-6.308 4.344-10.25 2.734-7.883 5.21-17.213 6.438-22.125.49-1.96.325-3.27.22-3.877 4.134-.22 8.216-.377 12.25-.377 10.184 0 16.973-4.41 24.97-4.41.254 0 .514-.006.75-.03zm-150.21 2.844c5.12.202 10.49.516 15.97.97 5.51.45 11.107.987 16.66 1.498-.755.15-1.292.365-1.78.596-1.51.715-2.735 1.62-4.19 2.75-2.903 2.26-6.402 5.44-10 8.876-3.595 3.44-7.25 7.118-10.22 10.22-.98 1.02-1.3 1.465-2.09 2.31-.513-1.67-.988-2.882-1.47-5.06-.84-3.81-1.58-8.053-2.093-11.624-.512-3.57-.78-6.743-.78-7.44v-3.094zm102.22 2.594c.006.54 0 1.063.036 1.063-1.2 4.783-3.59 13.81-6.094 21.03-.9 2.59-1.73 4.29-2.532 6.03-2.997-3.246-7.36-8.067-13.03-14.093-3.583-3.81-7.063-7.4-9.78-9.938-.913-.85-1.674-1.56-2.47-2.184 11.602-.137 22.905-1.116 33.875-1.908zm-66.12.188c.98.087 1.963.165 2.937.25-.295.036-.583.058-.78.156-.262.13-.49.3-.72.47-.09-.08-.184-.18-.28-.25-.38-.285-.767-.463-1.157-.624zm15.905 6.656c.007.007.025-.004.03 0 1.804 1.52 2.75 2.676 3.03 3.19-.663.43-3.54 1.506-7.34 1.94-.053-.63-.128-.96-.156-1.75-.025-.66-.19-1.49-.22-2.186.27-.083.48-.17.75-.25 1.46-.43 2.935-.783 3.905-.937zm-.906 25.408c.38 1.19.77 2.19 1.153 4.12.028.13.04.217.064.347-.16.15-.325.317-.44.437-1.356 1.438-1.494 2.114-2.22 3.564-.512 1.02-1.75 2.723-2.94 4.344 1.287-4.813 2.82-9.64 4.377-12.813zm-4.565 27.53c-.066.34-.075.695-.127 1.03-.133-.24-.24-.45-.373-.69.177-.104.335-.23.5-.34" fill="#fff"/><path d="M750.944 67.735c-19.626 4.245-76.19 15.628-96.254 20.32-9.943 2.325-14.764 3.6-18.275 4.992-3.51 1.393-5.29 2.876-8.114 4.74-4.58 3.943-6.31 10.33-7.01 16.1-.31 4.93.44 9.565.91 14.585 1.19 7.122 2.04 14.294 3.22 21.418 8.66 37.49 15.38 75.383 23.28 113.033 8.1 37.864 15.86 75.798 23.62 113.73 1.67 6.91 3.73 13.71 5.44 20.606 1.4 4.83 2.96 9.6 5.07 14.17 2.25 4.4 5.83 8.51 11.31 11.48 3.42 1.25 7.22 1.62 10.84 1.65 3.78-.12 8.71-.86 18.76-2.67 20.28-3.65 76.72-15.64 96.42-19.53 27.827-4.964 55.496-10.744 83.17-16.468 18.528-3.83 35.515-7.738 54.198-11.207 27.75-5.276 55.21-11.91 82.817-17.86 32.107-6.775 64.277-13.237 96.316-20.336 9.94-2.32 14.73-3.59 18.24-4.983 3.514-1.393 5.32-2.883 8.148-4.748 4.585-3.94 6.297-10.33 6.98-16.09.318-4.936-.44-9.57-.91-14.59-1.183-7.123-2.03-14.294-3.216-21.417-8.65-37.5-15.35-75.41-23.254-113.07-8.084-37.853-15.874-75.77-23.64-113.692-1.664-6.91-3.73-13.71-5.44-20.605-1.395-4.837-2.958-9.6-5.07-14.174-2.247-4.404-5.8-8.517-11.278-11.487-3.43-1.254-7.24-1.61-10.872-1.64-3.78.112-8.68.85-18.727 2.66-20.28 3.65-76.72 15.635-96.42 19.522-27.82 4.965-55.49 10.744-83.17 16.467-18.52 4.227-35.67 7.377-54.19 11.21-27.752 5.36-55.276 11.81-82.88 17.873" fill="#6adf5f"/><path d="M1099 15.418c-35.176 75.364-71.73 132.023-109.865 183.163 45.417 32.66 115.726 77.06 170.438 116.5.716-1.67 1.036-3.34 1.156-5.2.08-4.35-.4-8.662-.89-12.982-1.26-6.995-1.99-14.49-3.1-20.54-7.92-37.89-15.83-75.786-23.408-113.745-8.26-37.457-15.896-75.07-23.416-112.69-1.706-6.864-3.765-13.645-5.453-20.515-1.578-4.9-2.683-8.894-4.19-11.847-.39-.764-.826-1.47-1.288-2.13zm-466.063 94.278c-.57 1.503-.863 3.007-.972 4.688.015 4.35.323 8.703.89 13.017 1.255 7 1.966 14.4 3.077 20.45 7.932 37.93 15.878 75.86 23.46 113.86 8.263 37.48 15.884 75.12 23.398 112.76 1.674 6.74 3.674 13.36 5.304 20.1 1.304 4.1 2.49 8.28 4.35 12.17.077.15.166.286.246.43 35.19-57.13 82.304-124.34 111.34-171.51-54.65-32.35-109.92-70.38-171.092-125.96" fill="#ececec"/><path d="M930.13 40.15c-1.846.382-3.696.76-5.54 1.143-11.573 2.393-22.258 4.61-33.846 7.007-13.88 2.87-27.07 5.3-40.563 8.162-4.49.954-9.03 1.974-13.63 3.053-11.59 2.396-22.3 4.62-33.88 7.012-1.84.38-3.69.76-5.54 1.143-14.58 3.016-28.47 6.598-43.38 9.682-19.88 4.303-76.6 15.755-96.1 20.315-9.84 2.3-14.41 3.56-16.84 4.524-.32.13-.56.27-.84.4 79.207 71.92 148.14 113.93 219.4 152.96 12.444 6.82 19.9 10.29 26.01 11.78 14.15 2.74 28.99-.28 40.998-8.22 5.065-3.724 10.578-9.796 19.43-20.883 50.97-63.79 98.628-129.457 144.204-227.144.16-.357.37-.675.6-.98-1.037-.17-2.025-.275-3.265-.237-2.612.08-7.305.71-17.252 2.5-19.71 3.55-76.276 15.544-96.234 19.48-14.91 3.086-29.134 5.3-43.716 8.32zM812.66 240.71c-29.592 48.1-77.29 116.106-112.344 173.176 1.908.372 3.19.6 5.08.543 2.613-.08 7.3-.75 17.246-2.54 19.71-3.55 76.308-15.55 96.267-19.49 27.69-5.49 55.52-10.266 83.07-16.43 18.6-3.34 35.69-7.39 54.192-11.216 11.59-2.396 22.275-4.614 33.846-7.008 1.843-.383 3.694-.76 5.54-1.143 14.58-3.014 28.523-6.64 43.434-9.725 19.886-4.3 76.577-15.717 96.078-20.277 9.84-2.3 14.388-3.556 16.816-4.52.063-.023.114-.04.18-.065-54.13-38.893-123.5-82.76-168.956-115.453-9.737 12.86-19.56 25.43-29.508 37.88-8.99 11.26-14.93 17.993-21.33 22.7-14.434 9.614-32.29 13.094-49.3 9.88-7.72-1.875-15.763-5.803-28.4-12.73-13.996-7.663-27.965-15.47-41.923-23.593" fill="#fff"/></g></svg>