<svg xmlns="http://www.w3.org/2000/svg" width="1680.897" height="626.956"><g fill-rule="evenodd" opacity=".5"><path d="M257.25 606.962c-3.714.033-7.817.54-13.25 1.625-11.623 2.325-25.5-.84-40.094 1.595-14.906 2.484-33.42 3.155-49.094 3.155-19.207 0-38.798 1.595-57.968 1.595H0v10h96.843c19.722 0 39.33-1.595 57.97-1.595 15.947 0 34.82-.657 50.75-3.313 11.923-1.986 25.897 1.278 40.406-1.625 13.71-2.75 14.99-1.79 28.4 1.56 10.31 2.58 22.08.12 30.19.12h4.93c.24.06.49.1.75.12 6.47.62 19.52 3.12 29.5 3.12h12.34l.25-4.218 7.56-5.784h-20.15c-8.207 0-20.978-2.37-28.564-3.09-.193-.02-.403-.04-.593-.035-.388-.09-.78-.13-1.188-.126h-4.845c-9.7 0-21.03 1.837-27.75.16-6.635-1.66-11.21-2.796-15.937-3.16-1.183-.09-2.388-.135-3.625-.125zm603.78.375c-10.235-.03-20.456.59-29.717 2.908-13.025 3.256-100.87 1.467-116.344 1.467-15.22 0-30.28 1.625-45.1 1.625-15.07 0-30.21-4.843-46.69-4.843-13.8 0-27.61 1.593-40.28 1.593-17.05 0-68.27 3.25-83.75 3.25h-11.56l13.78 8.938.69 1.032c15.72-.335 66.01-3.22 80.84-3.22 13.5 0 27.28-1.593 40.28-1.593 14.39 0 29.62 4.843 46.682 4.843 15.527 0 30.605-1.625 45.094-1.625 14.596 0 103.05 2.175 118.75-1.75 18.13-4.532 43.9-1.468 64.81-1.468h161.063c14.05 0 33.29 1.914 47.314 4.718 20.03 4.008 43.717.125 62.19.125 16.964 0 106.79-2.16 121.18 1.438 19.25 4.812 43.412.157 60.824.157 4.432 0 307.26-.613 329.79-.613l-2.146-7.55c-22.537 0-323.21-1.84-327.65-1.84-19.01 0-42.75 4.06-58.375.15-17.163-4.29-107.606-1.75-123.63-1.75-19.77 0-43.033 3.53-60.22.09-14.864-2.98-34.34-4.94-49.28-4.94H898.53c-11.155 0-24.338-1.12-37.5-1.16M433.22 136.34c-3.013.05-5.98.377-8.595.813-.99.162-4.485.29-7.906.466-3.43.18-6.68.07-10.22 1.84-2.56 1.27-8.91 2.52-13.47 3.28-6.78 1.13-16.52 4.05-22.53 10.06-4.44 4.44-11.11 7.51-16.57 14.78-4.58 6.105-9.13 13.435-10.81 21.843-1.41 7.06-2.89 13.796-4.35 21.063-1.36 6.802-3.19 14.7-3.19 22.655 0 6.936-1.36 15.81.06 24.34 1.2 7.21 1.187 14.7 1.187 22.72 0 7.91-.62 15.74-.62 24.156 0 4.718.195 9.267.372 13.75-.864.2-1.69.6-2.344 1.22-22.815 21.09-38.596 57.098-57.156 81.845-2.2 2.935-3.07 5.945-3.72 8.06-.65 2.12-1.165 3.137-1.28 3.25-.425.386-.766.858-1.03 1.346-.324-.035-.64-.063-.91-.063-3.412 0-6.53 1.043-9.842 2.25-3.312 1.204-6.66 2.664-9.5 3.874-1.26.54-1.57.59-2.56.97-2.23-1.41-5.17-.85-6.72 1.28-.45.603-.84 1.18-1.22 2.03-.373.855-1.01 2.246-.184 4.41.826 2.162 3.225 3.274 4.41 3.44 1.183.16 1.855 0 2.5-.13 2.554-.51 4.764-1.563 7.624-2.783-.52.49-1.283 1.16-1.72 1.593-1.09 1.094-1.76 1.71-2.53 2.94-.19.305-.4.655-.622 1.31-.22.656-.617 1.814.062 3.564.68 1.75 2.74 2.98 3.874 3.188 1.13.21 1.71.066 2.154-.03 1.78-.383 2.17-.803 3.067-1.31.895-.51 1.88-1.146 2.937-1.84 2.446-1.61 4.97-3.43 7.317-5.22-.18 1.535-.38 3.1-.38 4.592 0 2.56.14 4.07.124 4.53-.014.46.08.215-.53 1.44-1.23 2.477-.223 5.485 2.25 6.72 2.48 1.234 5.49.226 6.72-2.25.94-1.88 1.51-3.9 1.565-5.594.052-1.697-.126-2.737-.126-4.844 0-1.474.954-6.524 1-10.72.01-1.044-.02-2.073-.347-3.34-.23-.895-.67-2.133-1.72-3.19.52-.27 1-.64 1.404-1.09 2.51-2.51 3.14-5.31 3.78-7.405.64-2.1 1.19-3.68 2.156-4.97 18.273-24.36 33.457-56.805 51.75-76.28v19.313c0 7.89.626 15.685.626 22.907v19.22c0 8.22 1.84 15.147 1.84 21.688 0 3.95.64 17.16 1.282 30.535.455 9.436.837 17.45 1.063 22.78-.17.205-.333.422-.47.656-.908 1.56-.908 3.473 0 5.03.228.39.5.755.813 1.063.27 1.4 1.114 2.64 2.374 3.374 1.56.91 3.473.91 5.03 0 .83-.487 1.48-1.21 1.91-2.03 6.89-.167 15.6-.535 22.123-.535 1.903 0 3.836.09 5.78.19-.03 32.83-.25 71.032 5.97 102.81.83 4.235 1.344 8.45 1.344 12.53v.19c-.01.014-.02.21-.28.595-.568.82-1.75 2.12-3.348 3.53-3.19 2.83-7.97 6.176-12.843 9.286-4.87 3.11-9.873 6.02-13.72 8.188-1.92 1.084-3.56 1.97-4.75 2.625-.595.33-1.07.605-1.44.812-.37.207-.24.06-1.03.595-2.31 1.57-2.91 4.72-1.34 7.03 1.57 2.312 4.72 2.913 7.03 1.343-.658.448-.09.06.25-.12.33-.19.8-.45 1.4-.78 1.2-.665 2.87-1.61 4.84-2.72 3.944-2.227 9.08-5.21 14.19-8.47 5.106-3.26 10.17-6.75 14.093-10.22 1.96-1.737 3.643-3.45 4.97-5.375 1.18-1.717 2.263-3.83 2.06-6.5h.033c0-4.975-.65-9.82-1.56-14.47-5.876-30.01-5.807-67.47-5.78-100.19 9.303.755 18.914 1.54 28.714.315 11.715-1.47 25.37 1.58 39.595-1.97 4.87-1.22 11.16-1.18 17.816-.848.004.184.005.253 0 .5-.03 1.882-.19 4.743-.436 8.19-.493 6.886-1.335 16.18-2.22 25.842-.885 9.66-1.807 19.67-2.437 28.092-.63 8.42-1.03 14.872-.654 18.97 1.482 16.045-3.214 29.024-1.595 46.53.177 1.913.81 2.374 1.126 2.782.31.41.53.61.75.815.43.404.82.71 1.25 1.03.86.65 1.88 1.34 3.12 2.16 2.485 1.63 5.74 3.65 9.06 5.686 3.326 2.04 6.71 4.1 9.47 5.78 2.76 1.687 5.09 3.15 5.407 3.378 1.456 1.21 3.477 1.52 5.22.78 1.745-.74 2.92-2.392 3.064-4.28.14-1.89-.795-3.7-2.41-4.69-1.265-.903-3.213-2.11-6-3.81-2.785-1.7-6.18-3.734-9.47-5.75-3.285-2.02-6.48-4.02-8.78-5.53-.776-.513-1.256-.85-1.78-1.22-.85-14.294 3.245-27.077 1.625-44.594-.19-2.03.037-8.962.656-17.25.62-8.287 1.554-18.277 2.44-27.937.885-9.66 1.745-18.993 2.25-26.06.252-3.534.404-6.488.44-8.75v-.03c3.6.22 7.152.374 10.53.374 7.355 0 14.49.623 22.314.623h4.345c1.294.376 2.705.23 3.903-.47 1.555-.906 2.49-2.6 2.47-4.404 0-.335.192-5.328.53-11.56.332-6.237.8-14.19 1.25-22.158.443-7.964.88-15.936 1.22-22.154.33-6.22.56-10.167.56-11.906 0-4.037 1.25-8.625 1.25-14.25 0-6.017.623-10.85.623-17.345v-21.69c0-8.57-1.21-16.116-.185-23.22.127-.07.246-.15.375-.22.08-.014.164-.018.25-.03v-.097c23.61-12.487 62.09-20.4 89.59-31.875 1.485-.62 3.153-.767 5.344-.874 2.193-.105 5.08-.03 8.126-1.842.535-.32.98-.7 1.347-1.156.764 1.295 1.9 2.05 2.72 2.5 1.147.622 2.136.906 3.155 1.154 4.075.99 9.225 1.323 10.657 1.686 2.04.52 3 .917 4.65 1.28s3.76.326 5.813-.123c2.7-.59 4.434-3.27 3.843-5.97-.593-2.7-3.3-4.4-6-3.81-1.338.29-1.05.253-1.5.154-.454-.1-1.89-.62-4.376-1.25-1.43-.363-2.982-.55-4.5-.75 2.304-1.83 4.69-3.876 6.844-5.844.937-.853 1.757-1.632 2.47-2.373.715-.744 1.19-1.03 2-2.657.204-.41.517-.917.595-2.064.08-1.15-.595-3.447-2.124-4.53-1.53-1.09-2.75-.995-3.44-.94-.69.052-1.092.2-1.437.312-1.377.443-2.14.93-3.47 1.72-.54.32-1.406.88-2.03 1.28 1.906-2.5 3.526-4.38 4.656-6.75.28-.59.582-1.22.72-2.407.13-1.186-.36-3.762-2.25-5.092-1.898-1.33-3.428-1.06-4.348-.904-.46.076-.85.16-1.218.28-.37.12-.686.26-1.034.406-2.45.98-3.734 3.71-2.904 6.22-.61.863-.74 1.136-1.565 2.216-1.87 2.457-4.11 5.337-6.095 8.25-1.98 2.92-3.785 5.69-4.623 9-.075.28-.116.648-.16 1-.527.11-1.04.27-1.53.567-.14.08-1.26.33-3.47.434-2.21.11-5.334.21-8.72 1.627-17.84 7.444-39.68 12.743-59.906 19.81-8.326 2.91-18.06 6.76-25.842 10.69v-15.25c-.37-5.993-1.273-11.56-.533-16 1.323-7.94 1.312-15.473 1.312-23.123 0-7.62-.626-15.065-.626-22.31 0-7.586-.596-14.826-.596-21.656 0-8.22-2.3-12.89-3.876-19.184-1.437-5.754-4.706-12.52-9.375-17.19-.71-.714-1.324-1.913-2.12-3.78-.8-1.868-1.747-4.43-4.066-6.75-.12-.12-1.324-1.968-2.47-4-1.144-2.03-2.18-4.355-4.874-6.375-2.97-2.23-5.92-5.52-10.683-7.904-2.77-1.388-7.37-5.057-13.405-6.564-.835-.21-2.517-1.087-4.53-2.124-2.017-1.04-4.467-2.376-7.846-2.376-3.597 0-9.485-1.22-15.467-1.22-4.45 0-9.317-.634-13.656-1.72-2.86-.713-5.924-.954-8.935-.904zm.217 10.095c1.62-.02 3.154.066 4.47.22-2.12.98-4.55 1.92-7.063 2.69-5.66 1.726-11.84 2.75-15.813 2.75-1.8-.027-3.46.94-4.37 2.5-.91 1.556-.91 3.473 0 5.03.91 1.56 2.57 2.494 4.38 2.47 5.55 0 12.25-1.21 18.72-3.19 6.47-1.976 12.58-4.525 16.88-8.406.54-.47.96-1.04 1.25-1.66 1.33.08 2.63.12 3.94.12.69 0 1.44.04 2.19.092-.003.01.003.02 0 .03-1.09 3.335-7.596 9.91-11.094 13.282-.875.84-1.377.912-2.47 2.872-.27.49-.83 1.18-.686 3.03.072.926.51 2.19 1.313 3.062.8.87 1.76 1.28 2.44 1.47 2.71.743 2.914.014 3.563-.19 2.592-.83 5.744-2.468 12.624-5.908 3.224-1.61 5.66-2.65 7.69-3.44-1.24 2.474-2.92 5.504-5.19 9.282-.995 1.53-1.053 3.515-.187 5.125.865 1.61 2.515 2.614 4.343 2.63 1.826.01 3.516-1 4.405-2.597 2.557-4.26 4.7-7.937 6.22-11.124 1.517-3.188 3.19-5.578 1.937-9.813-.24-.804-.72-1.573-1.346-2.28 3.03.885 6.877 3.61 11.03 5.69 2.7 1.35 5.255 4.042 9.156 6.97-.13-.098 1.09 1.423 2.156 3.31 1.066 1.888 2.02 4.023 4.126 6.126.517.512 1.12 1.674 1.94 3.592.82 1.916 1.88 4.565 4.25 6.936 2.494 2.497 5.818 8.96 6.72 12.566 1.81 7.234 3.595 10.38 3.595 16.75 0 7.41.596 14.633.596 21.654 0 7.796.622 15.25.622 22.314 0 7.65-.01 14.565-1.16 21.47-1.38 8.275.53 16.03.53 21.877 0 5.02.23 9.923 0 14.44-.336 11.593-.88 20.915-.59 30.78v7.594c-.008 0-.02-.008-.03 0-.99.492-1.374.84-1.626 1.03-10.53.244-17.56 4.31-24.066 4.31-19.57 0-39.157 2.937-58.75 2.937-13.61 0-31.614-2.07-48.97-3.5-16.284-1.342-31.9-2.25-43.94.19-.154-3.837-.31-7.64-.31-11.31V327.9c0-8.263-.625-15.893-.625-23.53 0-7.91.624-15.74.624-24.157 0-7.974.073-16.02-1.315-24.344-1.034-6.22.064-14.69.064-22.72 0-6.36 1.604-13.74 3-20.72 1.43-7.16 2.91-13.9 4.343-21.06 1.2-6.01 4.853-12.26 9-17.78 3.725-4.98 9.68-7.75 15.654-13.72 2.493-2.5 12.34-6.49 17.09-7.28 4.47-.75 11.025-1.53 16.28-4.16-.08.04 3.143-.68 6.28-.85 3.14-.165 6.267-.104 9.03-.564 2.11-.353 4.71-.563 7.16-.594zm34.313 3.596c1.185.09 2.35.16 3.53.16.188 0 1.504.39 3.25 1.29.254.13.545.297.814.44-.954.048-1.87.216-2.813.44-1.8.425-3.84 1.105-6.12 2.06.34-.746.84-1.4 1.1-2.187.25-.716.33-1.46.25-2.19zm-19.625 12.85c.033-.01.236.04.28.03l-.374.19c-.04.01-.14-.15.1-.22zm-44.813 48.69c-.726 0-1.335.12-1.843.25-2.04.52-3.34 1.37-3.44 1.41-.8.317-1.5.86-2 1.562-1.21 1.7-2.76 3.8-2.53 7.345.11 1.77 1.2 4.01 2.97 5.22 1.76 1.2 3.7 1.53 5.78 1.53 1.72 0 3.58-.426 5.09-1.66 1.5-1.232 2.25-3.03 2.47-4.436.44-2.814-.28-4.837-.69-6.467-.38-1.53-1.61-3.424-3.38-4.22-.89-.396-1.71-.53-2.44-.53zm60.563 0c-.726 0-1.552.136-2.438.53-1.77.798-2.992 2.69-3.375 4.22-.407 1.63-1.128 3.656-.687 6.47.22 1.41.963 3.206 2.47 4.44 1.505 1.23 3.367 1.657 5.092 1.657 2.077 0 4.02-.33 5.782-1.53 1.76-1.21 2.85-3.45 2.96-5.22.23-3.547-1.33-5.65-2.53-7.347-.51-.703-1.2-1.246-2-1.563-.1-.04-1.4-.886-3.44-1.404-.51-.13-1.12-.252-1.85-.25zm-31.188 19.596c-1.273-.007-2.486.527-3.343 1.468-.858.94-1.28 2.2-1.156 3.47.133 1.707.4 9.607.593 16.78.1 3.587.19 7.056.25 9.69.07 2.632.1 4.847.1 4.53-.02 1.623.85 3.15 2.25 3.97 1.4.817 3.13.817 4.53 0 1.41-.82 2.25-2.346 2.22-3.97 0-.744-.03-2.107-.09-4.75s-.15-6.12-.25-9.718c-.19-7.2-.41-14.565-.62-17.25-.143-2.362-2.1-4.207-4.47-4.22zm49.563 38c-1.194.11-2.32.696-3.094 1.656-3.117 3.636-6.817 8.535-9.875 10.657-9.43 6.55-22.49 11.56-33 11.56-13.27 0-26.95-5.56-37.96-12.626-.79-.51-2.64-2.53-4.03-4.533-.69-1-1.32-1.987-1.84-2.81-.52-.83-.66-1.22-1.47-2.19-.85-1.07-2.15-1.695-3.53-1.69-1.76 0-3.33 1.057-4.06 2.657-.71 1.56-.51 3.363.568 4.69.04.085.474.706.876 1.34.535.85 1.267 1.94 2.09 3.127.07.1.15.21.22.314.748 3.79 2.86 6.494 5.156 9.81 2.303 3.323 4.81 6.504 6.533 8.44 2.06 2.304 3.435 4.76 5.372 7.47 1.937 2.705 4.556 5.643 8.594 7.78 5.922 3.13 9.62 5.43 17.594 7.06 10.338 2.112 18.59-3.736 25.406-6.97 10.466-4.966 16.75-17.027 21.22-23.34 1.15-1.627 1.48-2.9 1.97-4.28.487-1.39.94-2.77 1.155-3.317.046-.114.06-.23.095-.344 2.323-2.56 4.22-5.16 5.75-6.938 1.11-1.208 1.49-2.91.963-4.468-.52-1.56-1.85-2.71-3.466-3-.406-.074-.824-.1-1.22-.065zm-18.813 26.093c-3.687 5.01-7.71 9.7-11.5 11.5-7.71 3.66-13.806 7.53-19.75 6.313-6.963-1.424-8.985-2.943-15.187-6.22-2.575-1.36-3.904-2.84-5.47-5.03-1.27-1.78-2.612-4.036-4.56-6.5 9.056 4.03 19.027 6.72 29.31 6.72 9.07-.002 18.6-2.677 27.158-6.783zm61.094 72.22v3.186c0 5.82-.62 10.67-.62 17.34 0 3.89-1.25 8.52-1.25 14.25 0 .21-.22 5.172-.56 11.373-.33 6.2-.77 14.16-1.22 22.126-.44 7.967-.88 15.934-1.22 22.19-.15 2.81-.28 5.05-.37 6.97h-.9c-7.28 0-14.42-.627-22.312-.627-8.486 0-19.643-1.83-30.375-1.314-3.576.17-7.1.596-10.47 1.44-11.213 2.802-24.39-.008-38.44 1.75-9.84 1.23-20.493-.038-31.59-.783-.32-.06-.67-.1-1-.094-.054 0-.1.03-.156.033-3.49-.22-7.03-.408-10.592-.408-6.66 0-15.213.36-21.81.53-.243-5.58-.634-13.16-1.03-21.37-.643-13.366-1.28-27.38-1.28-30.03 0-8.22-1.845-15.15-1.845-21.69v-19.21c0-.47-.028-.937-.03-1.407 4.43-1.082 10.24-1.533 16.872-1.593v3.28c0 2.145.33 5.08.875 8.875.546 3.793 1.308 8.21 2.22 12.342.91 4.134 1.904 7.876 3.28 10.876.69 1.5 1.195 2.96 3.408 4.407 1.106.728 3.065 1.25 4.81.78 1.75-.46 2.827-1.532 3.5-2.43.34-.457 2.695-3.13 5.564-6.126 2.87-2.996 6.44-6.59 9.905-9.907 3.467-3.315 6.884-6.38 9.25-8.22.72-.56.976-.69 1.406-.97 1.176.047 2.336-.302 3.25-1 .043.52.07.688.095 1.438.06 1.66.084 3.553.626 5.688.27 1.07.64 2.283 1.72 3.563.46.548 1.13 1.09 1.878 1.5-.123.286-.244.537-.374.846-1.097 2.6-2.417 6.03-3.784 9.624-2.734 7.187-5.65 15.176-6.345 16.906-.83 2.08-.38 2.76-.25 3.375.13.615.297 1.058.47 1.53.347.947.785 1.904 1.31 3 1.058 2.195 2.46 4.845 3.94 7.5 1.48 2.657 3.02 5.307 4.314 7.47 1.293 2.16 2.133 3.564 3 4.72 1.852 2.47 3.8 4.8 7.593 4.84 1.896.024 3.71-.93 4.78-1.935 1.07-1.007 1.674-2.006 2.156-3 1.924-3.99 2.46-8.55 3.402-12.315 2.323-9.288 2.545-17.06.064-29.47-.672-3.36-1.44-6.02-2.375-8.22-.885-2.074-1.865-3.87-3.814-5.25 2.532-.8 4.834-2.1 6.782-4.124 1.102-1.147 1.92-2.737 2.31-4.47 2.292 2.21 5.255 5.25 8.342 8.532 7.04 7.48 14.23 15.57 16.687 18.03.916.915 2.555 1.79 4.22 1.81 1.66.022 2.96-.607 3.81-1.22 1.71-1.228 2.417-2.486 3.22-3.876 1.604-2.78 2.976-6.306 4.343-10.25 2.733-7.88 5.21-17.21 6.437-22.123.49-1.96.326-3.27.22-3.878 4.135-.22 8.217-.378 12.25-.378 10.185 0 16.974-4.41 24.97-4.41.255 0 .515-.006.75-.03zm-150.21 2.843c5.12.2 10.49.516 15.97.97 5.51.45 11.11.987 16.66 1.498-.75.15-1.29.366-1.78.597-1.51.715-2.73 1.62-4.19 2.75-2.9 2.26-6.4 5.44-10 8.876-3.59 3.44-7.25 7.116-10.22 10.22-.98 1.02-1.3 1.463-2.09 2.31-.51-1.67-.983-2.884-1.47-5.06-.84-3.81-1.58-8.055-2.09-11.626-.51-3.57-.78-6.743-.78-7.44v-3.094zm102.22 2.594c.01.54 0 1.063.04 1.063-1.2 4.782-3.59 13.81-6.093 21.03-.9 2.59-1.73 4.29-2.532 6.03-2.996-3.247-7.36-8.068-13.03-14.094-3.582-3.81-7.062-7.4-9.78-9.938-.912-.85-1.673-1.56-2.47-2.184 11.603-.135 22.906-1.114 33.876-1.906zm-66.12.188c.98.09 1.968.167 2.94.25-.293.038-.58.06-.78.158-.26.13-.49.3-.72.47-.09-.08-.182-.18-.28-.25-.38-.285-.765-.463-1.155-.624zm15.91 6.658c.007.007.025-.004.03 0 1.804 1.52 2.75 2.676 3.03 3.19-.663.43-3.54 1.506-7.34 1.94-.053-.63-.13-.96-.156-1.75-.024-.66-.19-1.49-.22-2.186.27-.082.48-.17.75-.25 1.46-.43 2.936-.782 3.906-.936zm-.906 25.408c.38 1.19.77 2.19 1.154 4.12.028.13.04.218.064.348-.16.15-.324.317-.44.437-1.355 1.437-1.493 2.113-2.22 3.563-.51 1.02-1.75 2.723-2.94 4.344 1.288-4.813 2.82-9.64 4.378-12.813zm-4.564 27.53c-.067.34-.076.696-.128 1.03-.133-.24-.24-.45-.373-.69.175-.103.333-.23.5-.34" fill="#fff"/><path d="M750.944 67.735c-19.626 4.245-76.19 15.628-96.254 20.32-9.943 2.325-14.764 3.6-18.275 4.992-3.51 1.393-5.29 2.876-8.114 4.74-4.58 3.943-6.31 10.33-7.01 16.1-.31 4.93.44 9.565.91 14.585 1.19 7.122 2.04 14.294 3.22 21.418 8.66 37.49 15.38 75.383 23.28 113.033 8.1 37.864 15.86 75.798 23.62 113.73 1.67 6.91 3.73 13.71 5.44 20.606 1.4 4.83 2.96 9.6 5.07 14.17 2.25 4.4 5.83 8.51 11.31 11.48 3.42 1.25 7.22 1.62 10.84 1.65 3.78-.12 8.71-.86 18.76-2.67 20.28-3.65 76.72-15.64 96.42-19.53 27.83-4.97 55.5-10.75 83.17-16.47 18.53-3.83 35.52-7.74 54.2-11.21 27.75-5.276 55.21-11.91 82.82-17.86 32.107-6.775 64.277-13.237 96.316-20.336 9.94-2.32 14.73-3.59 18.24-4.983 3.514-1.392 5.32-2.882 8.148-4.747 4.586-3.94 6.298-10.33 6.98-16.09.32-4.936-.44-9.57-.91-14.59-1.182-7.123-2.03-14.294-3.215-21.417-8.65-37.5-15.35-75.41-23.255-113.07-8.083-37.854-15.873-75.77-23.64-113.693-1.663-6.91-3.73-13.71-5.44-20.605-1.394-4.838-2.957-9.6-5.07-14.175-2.246-4.405-5.8-8.518-11.277-11.488-3.43-1.254-7.24-1.61-10.872-1.64-3.78.112-8.68.85-18.726 2.66-20.28 3.65-76.72 15.635-96.42 19.522-27.82 4.964-55.49 10.743-83.17 16.466-18.52 4.227-35.67 7.377-54.19 11.21-27.753 5.36-55.277 11.81-82.88 17.873" fill="#6adf5f"/><path d="M1099 15.418c-35.176 75.364-71.73 132.023-109.865 183.163 45.417 32.66 115.726 77.06 170.438 116.5.716-1.67 1.036-3.34 1.156-5.2.08-4.35-.4-8.66-.89-12.98-1.26-6.992-1.99-14.49-3.1-20.54-7.92-37.89-15.83-75.783-23.41-113.742-8.26-37.457-15.9-75.07-23.42-112.69-1.705-6.864-3.764-13.645-5.452-20.515-1.578-4.9-2.683-8.894-4.19-11.847-.39-.764-.826-1.47-1.288-2.13zm-466.063 94.278c-.57 1.503-.863 3.007-.972 4.688.015 4.35.323 8.703.89 13.017 1.255 7 1.966 14.4 3.077 20.45 7.932 37.93 15.878 75.86 23.46 113.86 8.263 37.48 15.884 75.12 23.398 112.76 1.674 6.74 3.674 13.36 5.304 20.1 1.304 4.1 2.49 8.28 4.35 12.17.077.15.166.29.246.43 35.19-57.13 82.304-124.34 111.34-171.51-54.65-32.35-109.92-70.38-171.092-125.96" fill="#ececec"/><path d="M930.13 40.15c-1.846.382-3.696.76-5.54 1.143-11.573 2.393-22.258 4.61-33.846 7.007-13.88 2.87-27.07 5.3-40.563 8.162-4.49.954-9.03 1.974-13.63 3.053-11.59 2.396-22.3 4.62-33.88 7.012-1.84.38-3.69.76-5.54 1.143-14.58 3.016-28.47 6.598-43.38 9.682-19.88 4.303-76.6 15.755-96.1 20.315-9.84 2.3-14.41 3.56-16.84 4.524-.32.13-.56.27-.84.4 79.21 71.92 148.14 113.93 219.4 152.96 12.45 6.82 19.9 10.29 26.01 11.78 14.15 2.74 28.99-.28 41-8.22 5.068-3.72 10.58-9.79 19.43-20.88 50.97-63.79 98.63-129.455 144.207-227.142.16-.357.37-.675.6-.98-1.037-.17-2.025-.275-3.265-.237-2.612.08-7.305.71-17.252 2.5-19.71 3.55-76.276 15.544-96.234 19.48-14.91 3.086-29.134 5.3-43.716 8.32zM812.66 240.71c-29.592 48.1-77.29 116.106-112.344 173.176 1.908.372 3.19.6 5.08.543 2.613-.08 7.3-.75 17.246-2.54 19.71-3.55 76.308-15.55 96.267-19.49 27.69-5.49 55.52-10.27 83.07-16.43 18.6-3.34 35.69-7.39 54.19-11.22 11.59-2.397 22.272-4.615 33.843-7.01 1.843-.382 3.694-.76 5.54-1.142 14.58-3.014 28.523-6.64 43.434-9.725 19.886-4.3 76.577-15.717 96.08-20.277 9.84-2.3 14.386-3.558 16.814-4.52.064-.025.115-.04.18-.067-54.13-38.893-123.5-82.76-168.955-115.453-9.74 12.86-19.56 25.43-29.51 37.88-8.99 11.26-14.93 17.994-21.33 22.7-14.434 9.615-32.29 13.095-49.3 9.88-7.72-1.874-15.763-5.802-28.4-12.73-13.996-7.662-27.965-15.47-41.923-23.592" fill="#fff"/></g></svg>