<svg viewBox="0 0 948 342" xmlns="http://www.w3.org/2000/svg"><g fill-rule="evenodd"><path d="M110.457 66.238c-23.36.117-46.685 1.68-70.05 1.212-5.353-.027-15.382-1.626-14.21 6.58-.508 27.217-1.793 54.418-1.99 81.64-.744 11.202-.553 43.02 6.464 52.663 9.83 14.492 25.29 6.41 43.73 6.345 20.63.09 40-7.826 59.75-12.514 7.7-2.612 7.17-12.252 8.16-18.726 1.55-20.13-.55-40.288-.66-60.415.77-16.89 5.2-33.986 1.38-50.8-3.69-6.385-12.68-4.943-19.064-5.768-4.493-.183-8.992-.226-13.49-.217" fill="#c7e660"/><path d="M503.83 18.185c-15.516 24.17-2.51 42.83 31.21 42.06 4.92-.88 8.73-3.666 11.39-7.2 2.66-3.53 4.304-7.837 5.254-12.287 1.9-8.902 1.206-18.268-1.837-23.902-3.78-6.998-12.032-9.895-20.004-10.063-7.973-.17-16.03 2.072-21.08 6.153-1.97 1.59-3.598 3.363-4.933 5.24" fill="#faeb7d"/><path d="M658.055 290.715c-30.045 17.994-4.863 31.885 60.437 31.313 9.522-.657 16.903-2.73 22.052-5.36 5.15-2.63 8.335-5.835 10.174-9.15 3.677-6.625 2.336-13.598-3.556-17.793-7.318-5.21-23.298-7.365-38.737-7.49-15.438-.127-31.038 1.54-40.818 4.58-3.813 1.184-6.967 2.503-9.552 3.9" fill="#ffbfa7"/><path d="M670.57 8.904c-23.237 18.876-3.762 33.447 46.744 32.85 7.365-.69 13.074-2.865 17.056-5.624 3.983-2.76 6.446-6.122 7.87-9.597 2.843-6.952 1.805-14.267-2.752-18.667-5.66-5.465-18.02-7.727-29.96-7.86-11.94-.13-24.007 1.62-31.57 4.807-2.95 1.242-5.388 2.626-7.388 4.09" fill="#be9f81"/><path d="M898.295 94.985c34.812 21.522 5.635 38.135-70.027 37.452-11.033-.787-19.584-3.265-25.552-6.41-5.966-3.145-9.657-6.982-11.787-10.943-4.26-7.926-2.71-16.266 4.12-21.282 8.48-6.232 26.99-8.81 44.88-8.962 17.88-.15 35.96 1.847 47.29 5.48 4.41 1.417 8.07 2.994 11.06 4.665M508.76 251.22c-18.347 25.935-2.97 45.955 36.904 45.13 5.815-.945 10.322-3.934 13.466-7.722 3.145-3.79 5.09-8.413 6.213-13.186 2.245-9.55 1.426-19.6-2.173-25.647-4.467-7.507-14.226-10.615-23.654-10.796-9.427-.19-18.953 2.22-24.925 6.6-2.32 1.7-4.25 3.6-5.83 5.62" fill="#c0cae0"/><path d="M696.577 1.045c-1.717.002-3.3.803-4.882 2.12-1.36 1.135-2.33 2.474-3.066 3.83-.74-1.016-1.54-1.936-2.49-2.595-1.46-1-3.41-1.603-5.28-.838-1.48.605-2.46 1.93-3.04 3.555-2.37-1.357-5.06-1.414-6.96-.2-2.13 1.363-3.28 3.622-3.74 5.996-.46 2.374-.21 5.02 1.31 7.2.99 1.42 2.563 2.484 4.5 2.974-.147.138-.266.257-.41.397-1.486 1.414-3.05 2.885-3.89 4.943-1.435 3.513-3.22 7.267-4.06 11.393-.664 3.252-1.056 6.345-1.056 9.84 0 .657-.03 1.408-.06 2.197-.206-.014-.398-.034-.61-.047-1.875-.113-3.933-.168-5.416-.213-.075-.004-.14-.004-.213 0-1.28.025-2.315 1.068-2.29 2.348.025 1.282 1.1 2.314 2.38 2.29 1.502.045 3.51.09 5.262.198.342.02.66.052.975.076.077.71.202 1.43.38 2.13.48 1.87.596 4.5.596 6.86 0 3.56.654 6.53.654 9.36v8.08c0 2.9.32 5.67.32 8.084v3.753c-2.57-.87-4.737-1.096-6.804-1.283-2.136-.19-4.216-.35-7.152-1.14-3.164-.855-5.91-.985-7.706-1.47-.23-.065-.466-.096-.7-.09-.24.008-.47.05-.69.123-.756-.87-1.672-1.555-2.67-2.27-1.24-.89-2.592-1.75-3.72-2.47-.51-.327-.61-.42-.992-.688-.04-1.12-.935-2.025-2.06-2.075-.32-.02-.61-.026-1.002.043-.393.07-1.063.18-1.647 1.01-.585.823-.37 1.95-.14 2.41.23.46.44.654.64.852.78.76 1.67 1.305 2.76 2-.27-.06-.65-.17-.88-.213-.655-.13-1.04-.2-1.66-.188-.158.005-.326-.015-.61.062-.29.076-.798.212-1.27.884-.47.675-.4 1.73-.2 2.184.208.45.41.615.55.747.568.534.81.583 1.21.78.4.196.85.384 1.353.594 1.175.49 2.448.98 3.66 1.39-.635.32-1.114.52-1.69.9-.92.61-1.42 1.01-1.59 1.11-.164.11-.064.1-.654.17-.8.05-1.507.54-1.83 1.27-.327.73-.22 1.59.273 2.21.495.63 1.3.948 2.09.8.9-.112 1.77-.394 2.393-.78.622-.384.94-.69 1.693-1.19.522-.346 2.575-1.197 4.086-2.18.38-.245.738-.51 1.116-.93.35-.39.824-1.08.76-2.044.07.022.14.04.21.06 2.577.692 5.138.772 7.7 1.462 3.32.89 5.84 1.104 7.95 1.296 2.11.19 3.78.366 5.95 1.13.42.165.856.19 1.28.11.045 1.95.257 3.902.06 4.663-.56 2.196-.4 4.218-.393 5.965-1.396.946-2.83 1.84-4.15 2.96-.07.053-.14.12-.2.18-.365-.94-1.11-1.354-1.6-1.556-.52-.21-.956-.278-1.404-.337-1.795-.235-4.035-.135-4.683-.23-.91-.13-1.35-.27-2.074-.35-.727-.08-1.61.04-2.47.32-1.134.37-1.756 1.585-1.39 2.72.2.62.65 1.074 1.205 1.31-10.07.184-19.75 1.39-29.542 1.39-4.662 0-9.353-.095-14.05-.186l-1.707.075-.883-.125c-5.914-.118-11.847-.244-17.816-.244-7.564 0-17.973-.89-24.574-.473-1.29.08-2.27 1.17-2.18 2.44.08 1.265 1.18 2.23 2.47 2.15 5.822-.37 16.362.47 24.282.47 8.78 0 17.56.286 26.372.413-.02 4.57-.458 12.7-.458 18.915v12.476c-.187.195-.45.44-.825.765-.887.765-2.157 1.744-3.46 2.718-1.307.975-3.044 2.837-4.12 3.618-.34.248-.606.436-.886.64-.96-.122-1.905.353-2.365 1.19-.46.838-.34 1.873.29 2.595.03.037.04.06.094.138.104.155.203.403.84.79.313.196.862.426 1.51.37.613-.057 1.142-.36 1.445-.64-.01.005.004-.007.046-.047.076-.06.26-.22.47-.38.337-.25.794-.59 1.327-.972 1.064-.775 2.834-2.613 4.18-3.616 1.023-.764 2.025-1.53 2.91-2.256.68.657 1.453 1.122 2.24 1.616 2.244 1.4 4.27 2.554 4.82 3.233.44.54.898 1.167 1.405 1.83.496.67 1.33 1.028 2.164.93.84-.092 1.55-.622 1.88-1.386.326-.763.21-1.633-.306-2.288-.45-.59-.92-1.25-1.48-1.94-1.845-2.26-4.06-3.08-5.966-4.27-.72-.45-1.04-.73-1.294-.96.36-.725.29-1.584-.155-2.26-.035-.055-.064-.1-.105-.15v-11.73c0-5.98.45-14.014.475-18.87 1.136.006 2.263.014 3.4.014 10.907 0 21.28-1.39 31.743-1.42-.153.194-.305.427-.485.9-.07.186-.155.412-.136.916.02.504.43 1.46 1.13 1.846.7.387 1.206.296 1.495.243.29-.05.454-.12.595-.18.57-.25.867-.478 1.405-.87.227-.17.576-.468.84-.675-.7 1.134-1.28 1.996-1.664 3.054-.093.267-.21.53-.21 1.053-.006.52.34 1.63 1.203 2.106.87.472 1.51.29 1.89.18.39-.106.65-.23.936-.383 1.01-.528 1.44-1.75.977-2.79.22-.39.263-.508.565-.994.7-1.124 1.535-2.455 2.26-3.783.575-1.052 1.09-2.06 1.39-3.158.445-.06.885-.24 1.234-.55.318-.27.7-.55 1.113-.84-.033.64-.087 1.59-.182 2.85-.14 1.785-.32 3.96-.506 6.01-.18 2.048-.353 3.987-.488 5.247-.046.4-.06.557-.09.795v.017l-.02.03c-.004.025 0 .03 0 .05-.086.244-.134.5-.137.76 0 .1 0 .17.018.35.01.096-.01.2.12.58.033.1.058.21.153.38.095.175.593.675.594.675l1.56.504s1.067-.294 1.327-.502c.3-.24.48-.422.6-.564.52.3 1.093.473 1.63.593.1.026.186.045.29.06-.575.68-1.19 1.426-1.864 2.337-2.03 2.75-4.16 6.647-4.16 11.624 0 2.22.004 5.62.074 8.62.034 1.5.084 2.895.152 4.01.03.56.07 1.058.12 1.48.05.428.01.657.29 1.345.44 1.2 1.758 1.8 2.96 1.355 1.204-.44 1.83-1.76 1.39-2.96.007.013-.026-.107-.05-.29-.03-.285-.06-.697-.09-1.206-.06-1.02-.12-2.375-.15-3.843-.07-2.94-.06-6.32-.06-8.514 0-3.66 1.537-6.535 3.264-8.878.866-1.17 1.75-2.18 2.52-3.097.63-.753 1.27-1.264 1.63-2.38 1.506-.344 2.97-.824 4.226-1.33.75-.3 1.432-.61 2.03-.943l.133-.076c.184.087.423.207.64.305-1.65 1.11-2.96 2.734-3.95 4.47-1.708 3-2.696 6.53-3.158 9.704-.16 1.094-.313 2.195-.472 3.293-.55 3.784-.876 8.56.046 12.188.17.84.785 1.508 1.604 1.754.82.245 1.7.024 2.303-.58.602-.607.83-1.487.58-2.305-.574-2.25-.434-6.996.06-10.39.16-1.1.33-2.2.49-3.295.392-2.71 1.29-5.82 2.576-8.08 1.29-2.26 2.73-3.466 4.364-3.57.76-.02 1.433-.426 1.846-1.05 1.49.28 3.087.366 4.7.06 1.06-.2 1.802-.56 2.302-.72 1.25-.39 2.082-.722 2.76-1.033.992.71 2.512 1.51 5.14 2.58 2.124.865 4.17.886 5.765.307 1.6-.58 2.674-1.574 3.495-2.273.82-.7 1.38-1.053 1.615-1.113.232-.06.433-.173 1.493.58 2.857 2.027 6.86 2.59 10.83 2.534 3.36-.05 6.647-.476 9.14-2.077.06.343.13.673.2.943.184.82.79 1.47 1.6 1.705.81.233 1.69.015 2.29-.58.596-.598.825-1.48.59-2.29.017.056-.214-1.01-.41-2.228-.194-1.216-.426-2.77-.64-4.3-.213-1.53-.4-3.04-.52-4.226-.06-.59-.104-1.114-.12-1.464-.01-.172.006-.354.015-.424.81-3.508.015-7.24.015-9.706 0-3.34-.178-6.494.3-9.32.52-3.05.35-6.02.35-8.77 0-2.89.995-6.25.995-10.02 0-4.01.324-8.013.324-12.294-.006-3.45 0-6.893 0-10.342-.006-3.28-.326-6.49-.326-9.38 0-3.588-.548-6.636-1.39-9.947-.48-1.89-.706-3.754-1.315-6.145-.71-2.793-2.38-4.478-3.14-5.98-1.26-2.477-2.918-4.185-4.18-5.843-.85-1.108-1.937-2.065-3.05-2.898.19-.36.36-.705.58-1.1.77-1.37 1.62-2.9 2.192-4.53.573-1.622 1.015-3.65-.184-5.52-1.2-1.865-3.48-2.514-6.194-2.514-3.244 0-5.732 1.393-7.61 3.094-.076-.31-.12-.63-.213-.917-.8-2.39-2.49-4.084-4.35-4.806-1.857-.72-3.757-.59-5.34 0-1.58.59-3.075 1.63-3.57 3.6-.216.87-.33 1.114-.52 1.815-.48-1.574-1.096-3.18-2.285-4.575-.916-1.08-2.415-2.03-4.13-2.03zm.015 4.774c.145 0 .162-.04.488.35.65.76 1.475 3.09 2.028 5.18.122.46.25.89.366 1.32-2.314-.09-4.92-.16-7.505.47-.18.04-.38.066-.57.106.04-.22.1-.44.17-.685.47-1.92 1.48-4.34 3.17-5.75 1.08-.9 1.7-1.007 1.84-1.01zm13.133.71c.34-.01.685.02.976.13.59.22 1.12.62 1.54 1.89.33.96.51 2.46.29 4.61-.92-.03-1.66-.11-2.04-.26-.89-.35-1.75-.518-2.58-.58-.43-.038-.85-.04-1.25-.03.42-1.3.9-2.97 1.45-5.17.03.022.22-.27.66-.43.29-.11.62-.16.96-.17zM682.68 7.97c.06.005.29.052.748.367 1.156.796 2.75 3.23 2.912 6.01-.82.237-1.635.52-2.41.9-.397.195-.912.41-1.495.656.398-1.138.225-2.173-.167-3.463-.092-.3-.322-.622-.458-.93.084-.667.128-1.23.305-2.12.266-1.332.62-1.442.565-1.42zm41.918 1.663c1.625 0 2.077.292 2.15.336.002-.05-.002-.05.016-.02.01.02 0 .02-.015.01-.01.12 0 .55-.28 1.34-.37 1.04-1.1 2.43-1.86 3.78-.17.29-.33.57-.49.85-1.77-.99-3.61-1.85-5.75-2.41l.12-.2c1.33-1.96 3.18-3.708 6.1-3.708zm-50.506.976c.077-.02.157-.01.243 0 .346.03.794.25 1.495.77.47.35.733.69 1.008 1.02-.09 1.11-.066 2.02.045 2.79.11.76.047 1.49 1.206 2.41.1.08.23.15.36.21-.47.28-.92.603-1.35.99-.36-.168-.75-.268-1.18-.23-2.227.184-3.02-.4-3.585-1.207-.565-.81-.796-2.2-.535-3.557.26-1.354 1.015-2.51 1.617-2.898.227-.148.424-.28.655-.32zM507 12.3c-.387.01-.745.04-1.098.076-1.418.144-2.628.365-3.875.365-2.788 0-6.288-.45-9.763.4-2.006.49-5.295.76-8.04 2.11-.852.42-2.255.95-3.675 1.62-1.42.68-2.93 1.45-4.06 2.93-.72.93-2.18 2.28-3.66 3.69-1.49 1.42-3.06 2.87-3.89 4.93-1.43 3.52-3.22 7.288-4.06 11.41-.66 3.256-1.06 6.35-1.06 9.84 0 .66-.04 1.41-.06 2.2-.21-.012-.4-.032-.61-.045-1.88-.112-3.94-.182-5.42-.227-.08-.006-.14-.006-.22 0-1.28.023-2.312 1.08-2.29 2.36.027 1.283 1.1 2.3 2.38 2.275 1.505.046 3.51.107 5.264.215.35.02.66.05.975.077.076.714.2 1.433.38 2.134.48 1.872.58 4.48.58 6.85 0 3.56.67 6.542.67 9.38v8.082c0 1.67.092 3.285.184 4.82-.26-.07-.515-.09-.79-.06-2.85.134-5.026.767-7.08 1.39-2.055.625-4.045 1.235-7.06 1.604-3.25.4-5.858 1.33-7.706 1.558-.49.03-.947.206-1.31.504-1.018-.51-2.11-.8-3.28-1.084-1.488-.36-3.06-.636-4.38-.883-.587-.11-.708-.144-1.16-.247-.366-.836-1.225-1.364-2.136-1.296-.196.01-.38.054-.567.12-.31.104-.59.23-.93.442-.34.21-.916.54-1.148 1.524-.23.985.375 1.966.763 2.305.383.34.666.447.93.55.994.41 2.033.58 3.29.81-.26.046-.655.097-.882.14-.66.127-1.05.194-1.62.44-.143.06-.3.13-.535.307-.236.18-.67.498-.853 1.298-.04.18-.043.357-.03.54-5.137-5.95-10.893-12.096-13.453-16.857-.41-.8-1.237-1.3-2.136-1.3-.844.005-1.62.447-2.044 1.177-.425.73-.44 1.64-.03 2.38 3.87 7.194 12.08 15.05 17.48 21.8 2.97 3.71 5.546 6.96 9.03 10.45.04.04.08.083.124.12-6.378.403-12.656.914-18.993.914-8.212 0-16.48-.248-24.8-.38 1.756-.215 3.63-.428 4.347-.428h17.235c.86.01 1.656-.43 2.09-1.173.433-.745.433-1.68 0-2.427-.434-.743-1.23-1.186-2.09-1.175H398.7c-1.1 0-2.46.15-3.813.32-.447-.513-1.09-.8-1.77-.81-.66 0-1.284.27-1.74.75-.36.04-.813.116-1.48.38-.204.085-.372.16-.61.29-.116.068-.26.147-.456.307-.193.16-.507.36-.762 1.114-.252.75.15 2.11.67 2.577.097.083.167.14.248.2-1.43-.013-2.856-.016-4.29-.016-7.565 0-17.99-.894-24.59-.476-1.292.085-2.265 1.174-2.182 2.44.085 1.27 1.197 2.236 2.487 2.15 5.83-.37 16.37.476 24.29.476 8.78 0 17.565.286 26.375.41-.02 4.575-.46 12.705-.46 18.92v12.475c-.186.196-.45.44-.824.765-.882.76-2.152 1.74-3.46 2.71-1.303.973-3.36 4.466-4.44 5.247-.34.246-.602.434-.882.64-.96-.12-1.89.353-2.35 1.19-.46.84-.357 1.857.275 2.58.024.034.023.075.074.15.105.16.204.405.84.794.315.196.862.427 1.51.368.613-.055 1.142-.374 1.45-.655-.015.007 0-.005.042-.045.08-.065.273-.21.49-.366.332-.252.79-.574 1.322-.96 1.067-.774 3.156-4.275 4.5-5.28 1.026-.763 2.03-1.516 2.915-2.24.68.66 1.45 1.11 2.244 1.6 2.24 1.404 5.2 4.28 5.75 4.96.44.537.898 1.15 1.405 1.814.495.67 1.343 1.04 2.18.95.84-.095 1.55-.625 1.877-1.388.33-.766.197-1.65-.32-2.306-.45-.59-.92-1.25-1.48-1.94-1.84-2.266-5-4.775-6.91-5.967-.72-.45-1.025-.73-1.28-.96.36-.724.293-1.58-.15-2.258-.037-.056-.08-.117-.12-.17v-11.71c0-5.978.462-14.01.485-18.87 1.137.008 2.265.016 3.4.016 9.72 0 19.007-1.1 28.314-1.36.18.44.495.88.96 1.146.866.49 1.507.31 1.89.21.387-.1.66-.232.948-.38.467-.233.8-.61.996-1.05 2.835-.057 5.516-.345 8.16-.995 1.16-.26 1.948-1.34 1.817-2.5-.132-1.16-1.13-2.027-2.32-2.03-.21-.005-.42.023-.625.075-1.65.405-3.354.654-5.153.776.363-.58.74-1.182 1.08-1.78.59-1.027 1.122-2 1.45-3.067.47-.07.925-.27 1.282-.61 1.43-1.17 3.91-2.42 6.434-4.487.462-.38.972-.755 1.51-1.13-.01.076-.017.155-.03.215-.57 2.24-.4 4.3-.4 6.07v4.852c0 1.175.08 5.59.18 9.593.05 2 .1 3.86.14 5.11.02.626.048 1.096.06 1.373.005.07-.003.12 0 .182.003.03.01.077.016.137.004.03.004.06.015.137.005.04.01.077.03.17.02.095.26.626.26.626l1.555.217c.66.495 1.416.773 2.12.93.147.035.28.053.43.078-.574.673-1.195 1.414-1.863 2.32-2.027 2.75-4.162 6.645-4.162 11.622 0 2.22.007 5.62.077 8.618.038 1.5.088 2.898.15 4.017.04.56.078 1.04.127 1.464.047.425.024.653.305 1.34.44 1.205 1.753 1.816 2.96 1.375 1.2-.44 1.83-1.758 1.39-2.96.01.014-.028-.106-.05-.29-.03-.284-.06-.696-.09-1.205-.06-1.02-.12-2.375-.15-3.843-.066-2.936-.074-6.32-.074-8.512 0-3.66 1.536-6.535 3.264-8.878.86-1.17 1.76-2.18 2.53-3.098.64-.764 1.28-1.294 1.63-2.44 1.45-.34 2.864-.78 4.07-1.268.756-.3 1.42-.61 2.016-.945l.138-.076c.21.1.492.204.747.32-1.622 1.107-2.91 2.735-3.89 4.453-1.71 3-2.69 6.527-3.152 9.703-.16 1.097-.314 2.2-.474 3.295-.55 3.786-.875 8.565.047 12.19.17.84.786 1.507 1.6 1.754.82.246 1.7.025 2.308-.58.603-.606.83-1.5.58-2.32-.573-2.25-.45-6.98.044-10.37.16-1.1.314-2.2.474-3.296.39-2.715 1.32-5.824 2.603-8.086 1.29-2.266 2.712-3.47 4.35-3.57.76-.02 1.442-.416 1.86-1.04 1.45.26 2.984.34 4.544.046 1.06-.2 1.804-.554 2.304-.713 1.26-.396 2.095-.74 2.774-1.05.994.71 2.48 1.524 5.11 2.59 2.126.864 4.17.87 5.767.29 1.6-.58 2.69-1.56 3.51-2.256.822-.7 1.382-1.07 1.615-1.13.24-.06.44-.157 1.5.597 2.855 2.025 6.86 2.59 10.83 2.53 2.984-.043 5.893-.38 8.253-1.572.285.58.8 1.02 1.436 1.208.81.237 1.69.017 2.29-.58.58-.574.81-1.405.61-2.195.032.04-.11-.963-.17-1.937-.066-1.117-.13-2.54-.17-3.95-.04-1.42-.064-2.83-.06-3.94.004-.555.016-1.03.03-1.375.014-.253.057-.492.047-.47.865-3.542.03-7.33.03-9.823 0-3.34-.17-6.494.31-9.32.516-3.05.364-6.04.365-8.783 0-2.89.99-6.254.99-10.02 0-4.015.32-8 .32-12.28V58.72c0-3.28-.32-6.492-.32-9.38 0-3.587-.542-6.635-1.385-9.946-.488-1.89-.72-3.756-1.33-6.148-.71-2.792-2.36-4.477-3.13-5.98-1.26-2.476-2.916-4.185-4.18-5.842-1.59-2.08-4.01-3.673-5.935-4.805-2.223-1.31-4.475-2.49-7.216-3.16-1.67-.41-3.23-.31-4.59-.29-1.37.02-2.518-.06-3.026-.26-.884-.35-1.75-.52-2.575-.58-.41-.04-.82-.04-1.205-.03zm362.19.686c-.3-.002-.61.01-.915.03-.693.043-1.397.132-2.105.29-1.288.288-2.103 1.578-1.815 2.868.288 1.287 1.58 2.087 2.868 1.8 3.45-.768 7.527.93 11.61 3.187-3.13-.24-6.29-.46-9.124-.45-1.14 0-2.22.04-3.22.12-4.01.35-5.97.43-7.81 1.15-.93.36-1.75.94-2.38 1.56-.63.625-1.13 1.27-1.8 2.076-.85 1.013-.7 2.526.32 3.37 1.01.845 2.49.694 3.34-.32.7-.84 1.18-1.41 1.49-1.72.31-.315.41-.38.73-.506.64-.25 2.49-.49 6.51-.84 2.41-.21 5.94-.05 9.62.2-5.215 1.965-10.114 4.696-13.76 8.342-.93.935-.92 2.44.015 3.37.935.93 2.426.934 3.356 0 1.88-1.883 4.353-3.566 7.124-5.004-1.33 1.633-2.214 3.213-3.446 5.23-1.67 2.738-2.21 5.51-3.126 7.764-.17.42-.32.84-.445 1.25-2.12-1.708-4.09-2.657-5.98-3.54-1.94-.91-3.827-1.77-6.3-3.508-2.667-1.872-5.217-2.937-6.726-3.997-.376-.275-.83-.43-1.294-.443-.4-1.07-1.02-2.024-1.695-3.02-.843-1.26-1.793-2.515-2.59-3.57-.347-.46-.4-.56-.655-.93.35-1.08-.19-2.247-1.24-2.67-.3-.13-.57-.25-.96-.32-.197-.037-.45-.09-.76-.06-.316.025-.676.15-1.087.423-.826.55-1.08 1.66-1.025 2.18.05.52.2.796.32 1.05.472 1.013 1.14 1.816 1.934 2.87-.276-.18-.66-.435-.9-.58-.57-.343-.908-.55-1.496-.747-.147-.05-.303-.097-.595-.12-.294-.028-.818-.087-1.48.363-.667.45-.975 1.45-.948 1.95.028.5.142.738.23.916.345.71.562.82.868 1.142.308.32.685.65 1.085 1.02.914.842 1.92 1.73 2.9 2.515-.726.08-1.27.1-1.954.26-1.08.254-1.7.447-1.903.488-.204.04-.106.09-.688-.042-.77-.225-1.61-.01-2.166.568-.56.58-.74 1.408-.49 2.17.254.76.902 1.32 1.695 1.447.884.204 1.783.238 2.5.093.714-.144 1.15-.31 2.043-.52.634-.15 2.87-.26 4.635-.654.44-.1.873-.2 1.37-.456.47-.243 1.155-.733 1.435-1.693.067.058.15.116.23.167 2.175 1.53 4.57 2.482 6.725 3.995 2.8 1.964 5.09 3.01 7 3.904 1.92.9 3.43 1.628 5.19 3.07.565.51 1.34.69 2.072.52-.037.826-.03 1.66-.03 2.504v5.447c-1.486-.09-2.968-.17-4.453-.26-.08-.01-.16-.013-.24-.014-1.28-.01-2.326 1.01-2.338 2.29-.013 1.28 1.022 2.337 2.304 2.35l4.682.29c-.088 2.48-.276 4.987-.276 7.687 0 3.057.654 5.58.654 8.086v8.07c0 2.35-.34 4.74-.34 7.43v3.14c-2.81.42-5.68.93-8.298 1.805-2.494.837-5.06 1.05-7.583 1.89-.085.03-.16.07-.24.11.005-1.01-.55-1.673-.93-2.042-.407-.39-.78-.62-1.177-.84-1.58-.885-3.687-1.626-4.256-1.95-.8-.46-1.16-.74-1.8-1.086s-1.508-.565-2.41-.624c-.078-.005-.16-.005-.23 0-1.13.065-2.016.975-2.03 2.104-.017 1.13.84 2.084 1.97 2.18.59.04.483.04.67.14.18.096.73.47 1.69 1.02.61.35 1.117.54 1.784.825-1.154.474-2.37 1.028-3.474 1.57-.49.24-.94.468-1.327.688-.38.223-.61.274-1.14.856-.135.145-.32.32-.49.793-.17.474-.14 1.515.367 2.135.508.62 1.01.72 1.3.776.287.06.454.066.61.06.62-.017 1.002-.138 1.647-.304.27-.07.71-.214 1.02-.306-1.07.79-1.93 1.37-2.68 2.21-.19.213-.38.433-.58.916-.195.483-.28 1.634.35 2.395.63.76 1.27.825 1.666.87.394.045.683.02 1.005-.015 1.138-.114 2.003-1.103 1.953-2.244.35-.28.423-.345.884-.685 1.064-.786 2.344-1.706 3.51-2.67.934-.772 1.796-1.532 2.485-2.455.422.113.88.12 1.327-.03 1.742-.58 4.51-.87 7.596-1.906 1.947-.655 4.326-1.098 6.818-1.48v.242c0 2.87.337 5.68.337 8.084 0 .892-.24 5.674-.52 10.08-.14 2.203-.3 4.354-.43 6.024-.063.835-.115 1.54-.166 2.06-.017.16-.04.3-.06.44-.176.328-.29.688-.29 1.085 0 1.28 1.054 2.334 2.335 2.334 1.54 0 3.435-.047 5.446-.09-.65.73-1.403 1.59-2.225 2.67-2.045 2.67-4.225 6.46-4.225 11.33 0 2.152.02 5.46.09 8.372.034 1.456.083 2.8.152 3.89.036.545.07 1.034.12 1.45.05.415 0 .636.29 1.326.456 1.18 1.78 1.765 2.96 1.313 1.184-.453 1.78-1.777 1.33-2.96.02.04-.01-.044-.03-.23-.033-.27-.06-.695-.09-1.19-.063-.983-.12-2.295-.155-3.72-.07-2.85-.09-6.124-.09-8.252 0-3.517 1.54-6.29 3.28-8.56.867-1.133 1.77-2.112 2.546-3.003.68-.785 1.395-1.28 1.74-2.58 1.72-.04 3.414-.077 5.005-.09-.78.843-1.45 1.8-2.015 2.79-1.71 3-2.68 6.53-3.14 9.703l-.48 3.298c-.55 3.786-.873 8.56.05 12.19.315 1.24 1.566 1.99 2.81 1.677 1.24-.312 2.006-1.562 1.69-2.806-.57-2.25-.445-6.996.05-10.39.157-1.097.31-2.2.47-3.294.395-2.716 1.29-5.825 2.58-8.087 1.286-2.265 2.74-3.47 4.376-3.57.85-.02 1.61-.497 2-1.25.044-.087.075-.188.107-.277h19.145c5.82 0 11.933.976 18.105.976 1.22 0 2.22-.162 3.114-.32.38.27.842.41 1.342.41.724 0 1.374-.317 1.8-.837.962-.285 1.663-1.175 1.663-2.23 0-.825-.438-1.542-1.087-1.954.022-1.664.042-3.177.09-5.737.07-3.77.12-7.336.12-8.114 0-2.23.005-4.47-.334-6.8-.42-2.865-.32-5.873-.32-9.045 0-2.934.33-5.92.33-9.044 0-3.44-.53-7.17-.045-9.56.862-4.234-.222-8.015.32-10.68.583-2.864 1.006-7.644.336-10.935-.54-2.643-1.263-6.396-1.263-8.59 0-1.916-.407-3.44-.858-4.666-.45-1.226-.886-2.147-1.19-3.34-.24-.935-.644-2.29-1.22-3.646-.58-1.357-1.16-2.73-2.61-3.8-1.44-1.06-3.5-2.867-3.92-3.695-.71-1.397-1.77-2.5-2.93-3.17-1.16-.677-2.356-.99-3.54-1.285-2.83-.698-5.07-1.47-8.22-2.245-2.51-.614-5.15-.715-7.46-.715-1.73 0-4.35-.69-7.2-.63-.15.008-.306.01-.46.02l-.105-.72s-.406-.11-.473-.12c-.136-.02-.155-.014-.185-.015-.32-.016-.32-.004-.35 0-.516-.426-1.194-.652-1.907-.532l-.09.016c-.277-.056-.55-.076-.838-.03-.585.05-1.954-.307-3.663-1.16-1.707-.85-3.74-2.085-5.948-3.325-3.625-2.036-7.825-4.2-12.343-4.21zM507.137 16.92c.715-.03 1.296.033 1.952.29 1.69.668 3.33.615 4.77.595 1.44-.02 2.71-.02 3.41.152 2.09.514 3.86 1.417 5.96 2.654 1.64.97 3.85 2.64 4.603 3.63 1.46 1.91 2.842 3.37 3.737 5.13 1.168 2.29 2.443 3.71 2.776 5.02.53 2.08.76 3.92 1.325 6.15.795 3.13 1.236 5.68 1.236 8.8 0 3.23.32 6.43.32 9.39v10.34c0 4.037-.32 8.023-.32 12.28 0 2.847-.99 6.22-.99 10.02 0 2.893.112 5.63-.29 8.01-.304 1.78-.415 3.52-.43 5.217-1.95.505-3.918 1.143-4.39 1.143-6.926 0-13.25 2.03-19.924 2.03-5.314 0-13.795-1.14-21.92-1.88-7.08-.65-13.773-1.19-18.745.01.037-.25.08-.49.138-.718.39-1.53.333-2.99.23-4.24.785-.446 1.584-.89 2.38-1.33 3.136-1.735 6.224-3.402 8.45-5.52.7-.65.916-1.66.564-2.547-.354-.89-1.214-1.47-2.167-1.465-.602 0-1.185.236-1.62.656-1.484 1.414-4.35 3.09-7.472 4.82-.092.05-.197.1-.29.15v-4.66c0-2.807-.335-5.56-.335-8.09v-8.09c0-.15-.013-.29-.015-.44.662-.02 1.42-.11 2.67-.21 2.82-.23 7.08-.55 8.434-.55h1.405c.86.01 1.653-.43 2.09-1.174.43-.747.43-1.685 0-2.43-.437-.746-1.23-1.19-2.09-1.18h-1.4c-1.954 0-5.805.32-8.605.55-.324-.1-.673-.11-1.01-.064-.9.11-1.484.174-1.86.23-.15-1.408-.273-2.77-.273-4.12 0-2.47-.06-5.364-.732-8.008-.08-.315-.138-.675-.183-1.055.25-.212.47-.48.61-.793.46-1.017.13-2.17-.73-2.81.014-1.06.047-2.148.047-3.174 0-3.173.33-5.883.943-8.91.688-3.366 2.334-6.91 3.83-10.586.28-.686 1.396-2.01 2.777-3.323 1.38-1.32 2.95-2.66 4.15-4.23.273-.36 1.194-1 2.363-1.55 1.17-.555 2.52-1.05 3.736-1.647 1.134-.556 3.29-.96 5.4-1.402.51.487 1.22.756 1.97.657 2.873-.385 4.98-.226 7.78 2.577.19.19.56 1.1.46 2.808-.108 1.71-.59 3.96-1.22 6.3-.64 2.34-1.407 4.786-2.03 7-.63 2.22-1.178 4.146-1.178 5.98 0 8.41 4.685 14.936 10.97 17.667 6.282 2.73 14.182 1.62 20.135-4.33 2.24-2.24 3.386-4.93 3.46-7.537.075-2.61-.82-5.047-2.196-7.14-2.75-4.187-7.32-7.25-11.882-8.01-2.685-.45-5.2.51-6.924 2.09-1.72 1.58-2.774 3.73-3.05 6.01-.276 2.28.28 4.8 2.03 6.697 1.75 1.9 4.53 2.99 8.023 2.99 1.13 0 2.51-1.1 2.835-2 .326-.9.255-1.53.183-2.12-.145-1.17-.51-2.17-.794-2.88-.31-.81-1.02-1.394-1.88-1.523-.86-.13-1.717.215-2.247.9-.53.683-.643 1.6-.303 2.394.024.06.036.16.063.23-1.16-.26-1.91-.72-2.364-1.22-.695-.75-.965-1.74-.826-2.88.137-1.144.746-2.325 1.556-3.07.81-.743 1.7-1.104 2.93-.9 2.844.475 6.71 2.97 8.647 5.918.97 1.474 1.46 2.98 1.42 4.38-.04 1.4-.525 2.784-2.043 4.3-4.706 4.71-10.32 5.312-14.886 3.325-4.56-1.984-8.08-6.604-8.08-13.285 0-.727.38-2.577.975-4.684.594-2.11 1.39-4.56 2.06-7.033.67-2.47 1.23-4.947 1.37-7.26.14-2.315-.082-4.72-1.845-6.484-.224-.22-.45-.423-.674-.624.856-.09 1.62-.19 2.26-.26.28-.023.525-.05.76-.06zm199.705 0c.72-.03 1.312.033 1.968.29 1.62.636 3.17.63 4.56.61l1.008.58 1.54-.472s.066-.053.092-.077c.38.03.724.05.977.11 1.963.48 3.655 1.33 5.582 2.44.18.78.75 1.45 1.57 1.73.38.13.77.14 1.14.08.97.737 1.86 1.49 2.29 2.05 1.46 1.91 2.82 3.37 3.72 5.124 1.17 2.29 2.44 3.72 2.77 5.03.53 2.085.76 3.906 1.32 6.135.794 3.12 1.234 5.67 1.234 8.8 0 3.22.32 6.423.32 9.38v10.34c0 4.036-.32 8.04-.32 12.295 0 2.847-.99 6.22-.99 10.02 0 2.89.11 5.616-.29 7.995-.304 1.78-.415 3.54-.43 5.23-1.95.51-3.92 1.13-4.39 1.13-6.925 0-13.25 2.03-19.92 2.03-5.32 0-13.8-1.12-21.92-1.86-2.7-.24-5.34-.48-7.86-.61 2.375-1.38 4.625-2.78 6.33-4.47.7-.66.906-1.69.536-2.57-.37-.887-1.25-1.45-2.21-1.42-.604.02-1.183.27-1.603.7-1.45 1.434-4.267 3.14-7.353 4.914-1.79 1.022-3.67 2.085-5.46 3.245-.39.07-.76.14-1.13.23.038-.25.08-.49.14-.72.65-2.554.078-5.03.078-6.41v-7.75c0-2.8-.32-5.556-.32-8.082v-4.28c1.624.4 3.63.795 5.737 1.1 3.083.444 5.924.89 8.555 0 3.09-1.046 5.375-2.084 7.824-4.41 1.02-.97 1.58-2.05 2.214-3.28s1.24-2.6 1.845-3.874c.55-1.16 1.094-2.23 1.57-3.02 1.54-.96 2.913-2.21 3.69-4.054.343-.777.27-1.676-.198-2.38-.47-.71-1.26-1.13-2.106-1.116-1 .015-1.9.63-2.275 1.557-.027.06-.075.12-.11.18-1.46.457-2.15 1.297-2.73 2.2-.18.09-.354.19-.55.28-1.933.9-4.47 1.74-6.97 2.91-1.514.72-4.75.88-8.146.55-3.14-.3-6.384-.89-9.03-1.19-.03-2.13-.162-4.46-.716-6.63-.08-.29-.14-.63-.19-.98.623-.493.96-1.28.87-2.074-.077-.676-.445-1.257-.99-1.632.01-1.054.03-2.137.03-3.16 0-3.17.33-5.88.944-8.906.685-3.365 2.33-6.91 3.83-10.585.28-.687 1.393-2.01 2.774-3.324 1.38-1.32 2.963-2.66 4.16-4.23.273-.36 1.193-1 2.363-1.56 1.17-.55 2.51-1.05 3.726-1.644 1.44-.71 4.56-1.146 7.104-1.77 2.29-.564 5.496-.26 8.68-.26 1.78 0 3.2-.28 4.317-.398.278-.027.523-.05.762-.06zm188.205 10.86c2.072-.046 4.903.55 7.703.55 2.155 0 4.507.11 6.36.565 2.924.717 5.157 1.504 8.223 2.257 1.074.263 1.842.516 2.32.793.474.277.75.537 1.112 1.25 1.322 2.595 3.787 4.23 5.293 5.34-.02-.016.657.84 1.1 1.875.44 1.037.817 2.242 1.005 2.975.42 1.643.97 2.81 1.327 3.783.358.974.564 1.762.564 3.08 0 3.104.838 6.875 1.374 9.505.344 1.692.08 7.067-.336 9.106-.86 4.22.226 7.98-.32 10.66-.76 3.72-.047 7.66-.047 10.49 0 2.77-.35 5.78-.35 9.04 0 1.39-.03 2.812-.016 4.283-.16.063-.3.147-.45.244-.59.39-.93.807-1.03.96.07-.013.042 0-.02.064-.026.03-.02-.003.016-.06-.043.01-.083.017-.32.075-5.243 1.29-10.05 1.97-15.94 1.97-13.515 0-30.776-1.3-42.407-1.36-.045-.79-.078-1.567-.078-2.307V102c2.97-.43 5.836-.894 8.236-1.91 1.06-.41 1.66-1.54 1.416-2.652-.24-1.114-1.258-1.88-2.395-1.816-.29.012-.56.082-.825.2-1.47.617-3.814 1.08-6.437 1.493v-2.47c0-2.28.35-4.68.35-7.43v-5.96c1.195.155 2.587.29 4.196.38 2.88.164 6.112.17 8.843-.29 2.362-.39 4.29-1.623 5.98-2.834 1.69-1.21 3.2-2.48 4.18-3.06 1.053-.632.99-.64 1.493-.98.91-.58 1.31-1.7.99-2.73-.32-1.024-1.29-1.72-2.366-1.673-.45.017-.89.17-1.264.428-.705.475-.345.3-1.294.87-1.566.94-3.04 2.207-4.518 3.267-1.48 1.06-2.93 1.84-3.98 2.014-2.077.345-5.126.377-7.797.23-1.83-.104-3.544-.3-4.62-.46-.2-1.995-.52-3.736-.52-5.34 0-2.48.19-4.964.275-7.61.835-.31 1.465-1.08 1.523-2.03.063-1.03-.57-1.93-1.48-2.286v-5.86c0-2.645.054-4.346.824-6.236 1.13-2.772 1.683-5.266 2.81-7.11 1.78-2.915 2.43-4.24 4.575-6.344 1.66-1.632 3.67-2.477 6.3-3.767 2.18-1.07 5.685-1.27 9.09-2.106.388-.097.818-.128 1.297-.14zm-51.025 7.064c.132.02.155.08.107.06-.02-.003-.1-.054-.11-.06zM484.088 44.06c-.315-.002-.6.05-.824.106-.89.222-1.46.59-1.51.61-.354.14-.664.38-.885.687-.54.74-1.22 1.64-1.12 3.203.05.782.54 1.754 1.31 2.274.77.518 1.6.655 2.51.655.75 0 1.58-.184 2.24-.717.662-.533 1-1.318 1.1-1.937.2-1.24-.11-2.11-.29-2.82-.17-.67-.74-1.5-1.51-1.84-.388-.17-.72-.21-1.04-.21zm199.705 0c-.315-.002-.6.05-.824.106-.89.222-1.46.59-1.51.61-.36.14-.67.38-.89.687-.54.74-1.22 1.64-1.12 3.203.05.782.53 1.77 1.31 2.29.77.517 1.62.655 2.53.655.752 0 1.58-.18 2.24-.71.662-.53.984-1.32 1.082-1.93.195-1.24-.11-2.13-.29-2.84-.17-.67-.726-1.49-1.496-1.83-.385-.17-.74-.223-1.05-.23zm198.99 10.04c-.27-.002-.498.043-.686.09-.762.19-1.255.502-1.298.52-.3.118-.56.318-.75.58-.46.63-1.05 1.408-.96 2.744.04.668.46 1.51 1.13 1.953.66.443 1.38.563 2.16.563.64 0 1.34-.153 1.91-.608.56-.457.86-1.134.94-1.664.17-1.058-.12-1.805-.28-2.41-.15-.575-.61-1.282-1.27-1.572-.33-.144-.645-.197-.915-.197zm-334.46 5.383c-1.11.062-2.024.87-2.183 1.922-2.557 15.53-2.41 35.57-2.41 52.55 0 7.377-.153 14.793-.288 22.21-.062.053-.128.094-.184.153-.12.03-.104.046-.305.076-.84.126-2.236.216-3.723.244-2.97.055-6.352-.076-8.038-.076-6.933 0-14.313-1.45-21.965-1.45-4.9 0-9.83-.473-14.813-.473-2.036 0-3.975.96-4.972 2.36-.998 1.39-1.268 2.95-1.42 4.47-.3 3.03.026 6.3-.273 8.11-.51 3.03-.54 6.12-.52 9.07-.01.06-.03.103-.03.17-.06.72-.02 1.42.03 2.04v.72h.04c.01.16.01.336.01.47 0 .515.02.337-.02.503-.27.844-.05 1.764.58 2.392.623.63 1.55.86 2.39.592s1.487-.976 1.648-1.85c.144-.582.166-1.157.166-1.647 0-.46-.013-.94-.03-1.39 0-.034.002-.07 0-.106-.01-3.554-.073-7.12.443-10.25.474-2.88.075-6.13.304-8.437.11-1.153.4-1.975.625-2.288.222-.314.19-.38 1.004-.38 4.65 0 9.59.472 14.81.472 6.99 0 14.366 1.465 21.965 1.465 1.41 0 4.966.12 8.147.06 1.456-.023 2.81-.082 4.01-.24-.06 3.97-.12 7.933-.12 11.913 0 2.94-.46 5.44-.46 8.71 0 1.363.42 2.254.517 2.73.113.83.704 1.53 1.525 1.815.82.286 1.738.11 2.38-.456.64-.57.9-1.44.67-2.246-.22-1.05-.41-1.65-.41-1.845 0-2.82.456-5.336.456-8.71 0-12.92.476-25.906.476-38.93 0-16.997-.08-36.93 2.38-51.847.12-.674-.074-1.368-.55-1.878-.474-.508-1.18-.787-1.89-.747zm199.72.016c-1.11.06-2.023.85-2.18 1.9-2.56 15.53-2.426 35.57-2.426 52.55 0 7.37-.155 14.79-.29 22.21-.062.05-.128.11-.183.17-.12.03-.105.04-.305.07-.84.12-2.24.2-3.73.23-2.98.05-6.36-.08-8.04-.08-6.93 0-14.31-1.45-21.97-1.45-4.9 0-9.83-.48-14.81-.48-2.04 0-3.95.985-4.95 2.38-.998 1.398-1.284 2.937-1.434 4.456-.3 3.035.01 6.32-.29 8.13-.6 3.637-.447 5.682-.428 9.15-.005.053-.005.09 0 .14v1.036h.013c-.01.12 0 .2-.016.336-.068.62-.196 1.42-.046 2.41 0 .024-.002.08-.03.184-.255.84-.026 1.773.595 2.395.62.62 1.54.85 2.38.592.84-.256 1.472-.954 1.65-1.817.11-.435.29-1.134.133-2.06-.013-.07-.006-.574.06-1.19.06-.575.206-1.21.046-2.18-.013-3.454-.12-5.244.383-8.284.474-2.88.06-6.128.29-8.436.115-1.153.42-1.96.64-2.272.225-.314.175-.398.992-.398 4.646 0 9.59.49 14.81.49 6.99 0 14.365 1.448 21.964 1.448 1.41 0 4.966.12 8.147.06 1.46-.02 2.81-.07 4.01-.224-.06 3.976-.103 7.936-.103 11.916 0 2.94-.078 3.425-.078 6.695 0 1.362.414 2.252.514 2.73.117.83.707 1.53 1.53 1.814.82.284 1.737.11 2.378-.458.643-.57.903-1.44.672-2.246-.22-1.05-.41-1.65-.41-1.844 0-2.82.062-3.32.062-6.693 0-12.92.488-25.92.488-38.943 0-17-.09-36.933 2.368-51.85.12-.67-.074-1.35-.55-1.86-.475-.51-1.164-.785-1.876-.745zm197.906 0c-1.11.06-2.03.85-2.19 1.9-2.56 15.53-2.43 35.57-2.43 52.55 0 7.37-.14 14.79-.28 22.21-.06.05-.113.11-.168.17-.12.03-.137.04-.338.07-.84.12-2.22.2-3.705.23-2.973.05-6.354-.08-8.04-.08-6.93 0-14.328-1.45-21.98-1.45-4.9 0-9.83-.48-14.81-.48-2.04 0-3.948.985-4.944 2.38-.997 1.398-1.284 2.937-1.435 4.456-.3 3.035.01 6.32-.29 8.13-.597 3.63-.522 8.54-.502 12.004v.014c-.027.22-.05.442-.065.67-.026.584-.03 1.193-.03 1.68 0 .892.234 1.2.17.943.16.87.8 1.58 1.65 1.844.85.264 1.77.035 2.393-.594.63-.63.85-1.564.58-2.41-.014-.057-.006-.035-.014-.076.004-.3.02-.595.03-.887h.094v-.928c.1-.39.093-.79 0-1.176-.004-.005 0-.01 0-.016-.015-3.184-.024-7.55.44-10.356.475-2.88.093-6.13.32-8.44.115-1.152.403-1.96.626-2.27.22-.313.16-.397.974-.397 4.648 0 9.59.49 14.81.49 6.993 0 14.384 1.45 21.983 1.45 1.41 0 4.95.12 8.13.06 1.456-.023 2.824-.07 4.026-.226-.06 3.974-.11 7.934-.11 11.914 0 2.94-.473 5.422-.473 8.693 0 1.364.434 2.255.534 2.73.116.83.69 1.546 1.51 1.83.824.286 1.755.096 2.397-.472.64-.564.9-1.42.67-2.23-.22-1.05-.443-1.67-.443-1.86 0-2.82.49-5.32.49-8.692 0-12.92.47-25.92.47-38.943 0-17-.09-36.934 2.364-51.85.122-.673-.09-1.352-.565-1.86-.47-.51-1.16-.79-1.875-.75zM690.3 68.45c-.22.45-.437.914-.64 1.31-.548 1.06-1.132 1.88-1.19 1.94-1.947 1.844-3.04 2.29-5.965 3.28-.32.104-3.407.19-6.224-.218-2.57-.37-5.19-.95-6.49-1.328-.07-1.504-.24-2.92-.38-4.287 2.26.297 5.26.802 8.31 1.1 3.71.357 7.51.53 10.74-.993.59-.28 1.208-.55 1.85-.81zm-565.83 5.46c-.92.004-1.753.52-2.165 1.34-.413.823-.333 1.81.214 2.55.16.88.28 2.126.29 3.45 0 .675-.02 1.32-.03 1.92-1.13.21-2.34.433-3.68.776-10.16 2.607-24.41 3.86-34.92 3.86-22.18 0-44.46 1.697-66.49 1.16-.05-.864-.22-1.684-.35-2.534-.22-1.404-.4-2.693-.45-3.677l.03-.06c.403-.778.363-1.72-.11-2.457-.47-.738-1.305-1.16-2.18-1.115-.845.042-1.606.516-2.014 1.25-.016.02-.07.1-.15.23-.168.256-.52.834-.52 1.692 0 1.707.332 3.396.563 4.88.09.6.135 1.157.166 1.634l-.41-.02c-.92-.08-1.827.36-2.334 1.13-.51.77-.545 1.75-.108 2.56.432.81 1.29 1.32 2.21 1.32l1.45.06c.07 42.185 1.874 84.975 1.92 127.005-4.617-.117-8.857-.383-12.496-.917-.9-.148-1.817.207-2.38.916-.57.706-.71 1.657-.37 2.5.34.84 1.11 1.44 2.012 1.556 3.966.58 8.47.88 13.285 1.005.32 10.03 1.86 36.71 1.86 46.34 0 1.71-.34 17.58-.75 33.04-.2 7.73-.416 15.4-.623 21.294-.104 2.945-.198 6.72-.29 8.54-.046.91-.097 1.637-.137 2.166-.03.4-.085.79-.076.81-.26 1.307.55 2.595 1.86 2.91 1.342.33 2.72-.5 3.05-1.842.16-.66.12-.878.17-1.48.04-.6.09-1.383.13-2.317.1-1.87.2-5.646.31-8.606.21-5.92.44-13.603.64-21.34.404-15.475.73-30.91.73-33.18 0-10.066-1.54-36.723-1.875-46.263 14.274.05 30.506-1.065 43.55-1.065 20.553 0 40.915-2.81 60.893-2.948.245 10.406 1.89 37.375 1.89 47.32 0 1.46.28 5.57.69 11.67.403 6.1.943 13.886 1.46 21.616.52 7.73 1.01 15.397 1.343 21.28.166 2.947.563 9.31.626 11.12.03.91.042 1.65.04 2.17 0 .258-.015.527-.03.658.01-.04.02-.07.048-.17-.33 1.347.5 2.706 1.847 3.036 1.35.33 2.71-.5 3.04-1.844.22-.883.12-1.06.12-1.676.006-.618-.01-1.41-.04-2.35-.065-1.88-.458-8.25-.625-11.21-.333-5.926-.84-13.606-1.357-21.34-.52-7.74-1.06-15.526-1.466-21.617-.405-6.097-.67-10.81-.67-11.34 0-10.43-1.634-37.4-1.89-47.3 4.18.03 8.335-.015 12.49-1.08 1.238-.297 2.04-1.47 1.894-2.73-.15-1.263-1.2-2.225-2.47-2.227-.23 0-.455.034-.673.094-3.404.87-7.162.93-11.29.915-.07-42.727-1.904-86.098-1.904-128.657.005-.675-.27-1.32-.75-1.8-.02-.02-.04-.03-.06-.044.285-.41.45-.9.44-1.42 0-.65.07-2.19.06-3.855-.01-1.664-.063-3.46-.473-5.096-.215-.86-.756-1.295-.992-1.48-.46-.47-1.093-.737-1.753-.73zm-1.48 14.324v.106c0 42.7 1.82 86.074 1.89 128.654-20.414.14-40.76 2.943-60.846 2.943-13.31 0-29.672 1.054-43.61 1.022-.042-42.15-1.833-84.91-1.908-126.93 22.05.48 44.07-1.21 65.668-1.21 10.896 0 25.31-1.24 36.167-4.03.88-.23 1.75-.4 2.64-.57zm517.6 2.944c.116-.018.126.045.077.045-.01 0-.107-.014-.123-.015.01 0 .04-.03.046-.03zm-174.78 1.036v6.147c-1.53.93-3 1.92-4.33 3.01-2.048 1.68-4.377 2.8-6.438 4.49-.075.06-.13.11-.2.17-.35-.93-1.084-1.35-1.57-1.55-.516-.223-.955-.303-1.404-.368-1.79-.262-4.027-.187-4.67-.29-.903-.142-1.35-.29-2.073-.38-.363-.047-.753-.05-1.176 0-.42.047-.86.14-1.3.273-1.14.35-1.79 1.55-1.44 2.686.35 1.135 1.56 1.768 2.7 1.418.57-.176.46-.133.67-.106.2.026.84.178 1.94.35.68.108 1.22.11 1.93.138-.918.854-1.87 1.797-2.716 2.7-.374.4-.694.77-.976 1.113-.284.34-.5.475-.795 1.204-.07.18-.19.41-.18.915.004.27.12.66.337 1.037-.88.04-1.763.09-2.64.137.864-.94.836-2.402-.076-3.31-1.64-1.64-3.06-3.22-4.452-4.865.695-.426 1.302-.95 1.692-1.48.43-.59.6-1.01 1.11-1.758.354-.52 1.942-2.077 2.974-3.555.26-.37.51-.736.704-1.267.176-.49.35-1.33-.063-2.195.07-.008.15-.005.216-.018 2.65-.323 5.065-1.217 7.702-1.54 3.41-.417 5.81-1.17 7.84-1.785 2.03-.617 3.64-1.084 5.934-1.19.253 0 .494-.05.73-.124zm-25.64 1.48c.05-.01.063.032.03.046-.01.004-.107.025-.12.03.005-.005.022-.04.03-.045.023-.016.042-.03.06-.032zm-9.107 6.194c.417.117.647.097.99.12.445.034.947.058 1.497.063 1.277.02 2.654-.03 3.937-.1-.475.54-.857.92-1.252 1.5-.62.91-.936 1.48-1.052 1.638-.116.158-.015.09-.534.38-.16.087-.31.2-.43.32-.49-.606-.97-1.22-1.48-1.86-.54-.676-1.1-1.357-1.68-2.045zm386.674 5.507c-3.936.036-8.15 1.282-11.9 2.486-2.498.81-4.75 1.64-6.376 2.22-.6.22-1 .35-1.38.48-4.43-3.702-10.1-4.2-15.24-3.782-5.53.45-10.86 1.8-14.03 1.8-.88-.013-1.69.443-2.13 1.204-.443.76-.443 1.71 0 2.47.44.76 1.256 1.217 2.136 1.206 4.37 0 9.49-1.415 14.43-1.82 4.946-.4 9.27.104 12.42 3.25.67.673 1.277.717 1.616.75.34.03.53-.01.715-.033.368-.05.64-.11.945-.2.613-.176 1.33-.42 2.166-.72 1.68-.6 3.866-1.405 6.24-2.17 4.75-1.52 10.397-2.655 13.042-1.994 2.364.59 4.42 1.577 6.633 2.68 1.21.604 2.678.11 3.28-1.096.6-1.21.11-2.68-1.1-3.28-2.263-1.136-4.7-2.3-7.64-3.04-1.222-.303-2.502-.42-3.813-.41zm30.172.55c-.02.014-.05.045-.14.03.02-.003.12-.03.14-.03zm-255.63.822c-.38.01-.77.03-1.15.06-1.01.077-1.99.232-2.95.397-3.82.66-7.464 1.706-9.215 1.706-.86-.01-1.655.432-2.09 1.175-.433.743-.433 1.683 0 2.425.435.744 1.23 1.188 2.09 1.175 3.2 0 6.64-1.2 10.02-1.784 3.385-.58 6.28-.53 8.12.84.68.53 1.6.66 2.393.32.793-.33 1.35-1.06 1.45-1.92.1-.85-.28-1.7-.977-2.21-2.336-1.75-5.04-2.24-7.704-2.18zm338.45 2c.28 1.92.3 3.943.3 6.144 0 .43-.07 4.26-.14 8.03-.048 2.57-.068 4.14-.093 5.83-.813.15-1.53.31-2.197.31-5.663 0-11.79-.974-18.103-.974h-25.99c-4.724 0-10.63.214-15.06.29.026-.31.05-.547.08-.9.13-1.707.285-3.88.425-6.1.28-4.44.533-8.843.533-10.36 0-.38-.008-.75-.018-1.13 11.3.08 28.454 1.328 42.146 1.328 6.25 0 11.52-.734 17.04-2.09.38-.094.74-.226 1.07-.366zM606 108.93c-.86-.01-1.655.44-2.09 1.18-.432.746-.432 1.686 0 2.428.435.745 1.23 1.19 2.09 1.176h29.32c.01.03.458.166 1.33.384.845.266 1.764.046 2.394-.58.63-.627.86-1.548.594-2.395-.263-.85-.973-1.49-1.845-1.65-.25-.06-1.03-.534-2.443-.534h-29.34zm-70.73.51v.03c0 3.26.54 6.93.06 8.8-.15.596-.13.85-.15 1.3-.02.445-.03.96-.03 1.554-.01 1.187.02 2.636.06 4.09.02.696.034 1.393.06 2.06-.174.1-.327.233-.47.38-.72.68-3.95 1.72-7.277 1.77-3.327.05-6.82-.787-8.055-1.662-1.76-1.247-3.72-1.73-5.356-1.312-1.64.42-2.66 1.382-3.495 2.09-.83.708-1.47 1.226-2.04 1.433-.574.21-1.15.3-2.44-.226-2.46-.997-3.68-1.71-4.18-2.073-.25-.184-.32-.282-.29-.245-.036-.08-.02-.1-.184-.31-.27-.34-1.295-.96-2.135-.857-.84.11-1.08.39-1.205.49-.126.1-.136.137-.15.15-.064.06.036-.015-.063.047-.194.128-.964.54-2.836 1.13-.853.27-1.416.5-1.754.565-1.64.31-4.2-.246-6.27-1.036-1.037-.395-1.95-.834-2.64-1.16-.346-.16-.627-.295-.886-.41-.13-.054-.238-.11-.443-.18-.1-.034-.21-.08-.5-.12-.14-.02-.33-.04-.68.014-.322.05-.892.21-1.37.734.03-.053-.14.127-.4.273-.345.196-.87.44-1.48.688-1.22.49-2.81.97-4.283 1.25-1.48.285-2.873.32-3.495.185-.18-.04-.135-.03-.17-.047-.03-.35-.16-.676-.32-.96-.03-1.075-.06-2.09-.094-3.434-.1-3.992-.197-8.6-.197-9.472v-4.176c3.195-1.093 10.69-1 18.456-.29 7.987.73 16.39 1.89 22.33 1.89 7.556 0 13.97-2.014 19.926-2.014 1.67 0 3.16-.498 4.455-.93zm199.706 0v.03c0 3.26.552 6.93.076 8.8-.215.84-.115 1.068-.093 1.558.02.49.07 1.05.13 1.693.13 1.29.33 2.85.55 4.41.053.38.113.76.17 1.13-.425.08-.825.28-1.16.6-.72.68-3.935 1.72-7.26 1.77-3.33.05-6.84-.77-8.07-1.646-1.76-1.246-3.72-1.73-5.355-1.31-1.637.42-2.66 1.366-3.493 2.074-.83.707-1.484 1.225-2.06 1.43-.57.21-1.13.31-2.423-.21-2.46-1-3.69-1.73-4.196-2.09-.25-.185-.304-.28-.27-.246-.038-.073-.02-.085-.188-.29-.268-.34-1.31-.976-2.15-.87-.84.11-1.05.39-1.176.49-.125.1-.15.137-.166.15-.063.06.037-.015-.06.047-.2.13-.968.54-2.84 1.13-.85.27-1.43.5-1.768.562-1.64.31-4.17-.248-6.24-1.038-1.036-.4-1.967-.82-2.654-1.148-.343-.163-.626-.31-.884-.427-.13-.058-.238-.114-.443-.183-.102-.032-.2-.07-.487-.105-.145-.02-.337-.038-.687.016-.33.05-.91.19-1.39.718.03-.05-.152.13-.41.275-.346.193-.855.44-1.465.685-1.217.49-2.795.97-4.27 1.25-1.476.284-2.886.323-3.508.184-.175-.04-.117-.03-.156-.05-.086-.984-.794-1.765-1.694-2.03.065-.67.12-1.134.186-1.86.185-2.065.365-4.26.5-6.07.14-1.814.246-3.12.246-3.907v-2.605c.18-.146.365-.29.55-.444.68-.576 1.45-1.14 2.285-1.706 3.82-.436 9.64-.24 15.607.307 7.988.73 16.394 1.88 22.334 1.88 7.55 0 13.967-2.013 19.92-2.013 1.67 0 3.16-.496 4.455-.93zm-686.35 1.028c-1.1.016-2.07.743-2.38 1.8-.31 1.016-.74 2.237-1.114 3.355-1.188 1.048-1.913 2.46-2.653 4.36-4.38 11.23-6.66 17.447-7.6 20.364-.24.73-.39 1.218-.49 1.708-.05.248-.21.296-.05 1.22.04.235.112.576.44 1.04.322.466 1.1 1 1.83 1.07 1.464.136 1.793-.51 2.01-.72.437-.414.474-.562.594-.76.12-.2.232-.395.35-.624.24-.46.507-1.02.825-1.71.784-1.7 1.843-4.16 3.002-6.98.096-.002.16 0 .274 0 1.302.01 3.22.22 5.202.52 1.76.26 3.6.603 5.23.945.34 1.197.68 2.407 1.02 3.57 1.27 4.364 2.43 8.28 3.735 10.97.61 1.246 2.11 1.763 3.36 1.16 1.25-.61 1.78-2.11 1.176-3.36-.945-1.94-2.19-5.85-3.45-10.17l-.304-1.057c.865-.155 1.63-.75 1.936-1.645.45-1.314-.245-2.74-1.558-3.19-.51-.173-1.173-.354-1.935-.55-.69-2.326-1.404-4.635-2.137-6.755-1.415-4.092-2.543-7.43-5.05-9.52-.11-.09-.245-.16-.364-.244.153-.486.36-1.04.5-1.51.25-.77.117-1.62-.365-2.27-.48-.652-1.25-1.02-2.06-1.007zm406.307 0c.047-.023.03.03-.108.06.014-.007.095-.057.107-.06zm402.613 3.583c-.21 0-.413.03-.62.08-2.513.62-5.12.87-8.052.87-10.994 0-21.452 1.42-32.065 1.42-11.39 0-22.87-.47-34.46-.47-7.57 0-17.99-.89-24.59-.47-1.29.085-2.27 1.174-2.18 2.44.08 1.27 1.21 2.236 2.5 2.15 5.82-.366 16.35.476 24.27.476 8.78 0 17.56.29 26.37.41-.02 4.578-.477 12.708-.477 18.92v12.48c-.186.19-.43.44-.807.76-.89.765-2.174 1.744-3.48 2.718-1.305.973-1.685 2.087-2.76 2.868-.34.248-.606.45-.885.656-.96-.125-1.89.35-2.35 1.19-.46.835-.356 1.855.275 2.576.026.037.04.063.09.138.106.16.205.42.84.81.316.196.865.41 1.51.35.615-.054 1.145-.36 1.45-.64l.045-.044c.08-.065.26-.21.476-.366.34-.253.796-.59 1.33-.977 1.067-.773 2.44-2.993 3.785-3.996 1.027-.76 1.08-.42 1.97-1.14.68.66 1.44 1.123 2.23 1.617 3.07 1.52 5.234 4.14 7.23 6.67.492.67 1.324 1.04 2.162.947.838-.096 1.55-.64 1.877-1.405.33-.76.225-1.65-.29-2.3-.45-.59-.936-1.25-1.496-1.94-1.84-2.26-5.066-4.666-6.97-5.858-.72-.453-1.028-.73-1.28-.963.354-.72.304-1.58-.14-2.256-.037-.056-.08-.1-.12-.154v-11.73c0-5.98.432-14.01.454-18.87 1.137.01 2.28.017 3.417.017 11.028 0 21.487-1.42 32.066-1.42 3.21 0 6.25-.28 9.21-1.01 1.16-.26 1.917-1.34 1.786-2.5-.13-1.16-1.13-2.022-2.32-2.03zm-408.3.57c-.09.14-.16.27-.242.4-.09 0-.184.016-.274.018.18-.14.36-.29.52-.413zm201.157.34c.07-.01.11.006.215.017l.15.033h-.52c.037-.01.13-.04.154-.047zm-409.8.277c-2.66-.054-5.058.643-6.62.643-3.58 0-5.69.545-8.527 1.127-2.563.527-5.283.72-8.13 1.45-1.578.406-2.527 1.207-3.616 1.984-1.085.778-2.16 1.604-2.652 1.907-2.238 1.38-4.36 3.65-5.706 5.036-1.8 1.848-2.846 3.97-3.155 4.287-1.926 1.98-2.52 4.56-2.883 5.31-1.35 2.77-1.967 4.98-2.622 7.67-.077.32-.15.64-.213.96-.86.983-1.45 2.198-1.45 3.72 0 2.22.11 5.065.82 7.857-.1 2.57-.29 5.356-.29 8.115 0 3.35-.34 6.59-.34 10.37 0 3.29.02 6.078-.63 8.726-.847 3.48-.076 7.258-.076 9.535 0 1.13.036 2.23.08 3.327-8.17-9.26-15.014-24.154-23.234-35.406-.447-.612-.727-1.39-1.02-2.38-.297-.99-.57-2.292-1.726-3.48-.21-.22-.465-.392-.735-.52.535-.503.76-1.12.87-1.552.145-.583.172-1.08.17-1.57-.02-1.96-.475-4.342-.475-5.062 0-1 .07-1.51.046-2.302-.02-.79-.27-1.725-.7-2.61-.41-.874-1.31-1.4-2.27-1.33-.78.056-1.49.5-1.877 1.177s-.394 1.5-.046 2.2c.286.58.24.485.246.715.01.23-.06.943-.06 2.15 0 .685.087 1.423.17 2.135-1.054-.82-2.21-1.66-3.296-2.4-.488-.33-.93-.61-1.343-.85-.412-.24-.592-.44-1.434-.627-.21-.045-.482-.13-1.022-.03s-1.497.694-1.8 1.496c-.305.804-.115 1.33-.016 1.633.1.3.19.47.277.61.35.574.64.874 1.14 1.39.23.23.626.59.9.855-1.33-.588-2.35-1.1-3.55-1.346-.303-.062-.63-.14-1.19-.062-.563.08-1.675.626-2.044 1.62-.37.994-.08 1.63.09 2.03.17.395.343.676.55.96.72 1.006 2.113 1.27 3.16.61.45.176.566.195 1.13.44 1.304.574 2.85 1.26 4.38 1.83 1.526.574 2.963 1.086 4.56 1.086.12 0 .263-.016.41-.03.11.22.25.43.43.61.05.053.31.554.61 1.554.294 1 .694 2.417 1.704 3.8 8.54 11.696 15.78 28.685 26.28 38.654.29.27.605.46.96.56.006.29.016.57.016.856 0 2.71.3 10.4.307 12.95v.066c-.76 10.51.01 15.68-.304 25.95v.076c0 2.47.37 4.156.37 6.088l-.02.152c-.012.187-.04.477-.06.823-.04.69-.12 1.64-.194 2.81-.16 2.33-.357 5.44-.566 8.524l-.58 8.51c-.072 1.17-.13 2.13-.18 2.824-.02.345-.05.625-.06.82l-.013.246c0 .017-.015.02-.016.017-.004.01 0 .04 0 .21-.02 1.39 1.1 2.53 2.486 2.55.437.006.844-.114 1.205-.304.266.207.57.352.916.442 1.85.472 3.567.44 5.17.44h13.166c0 .016.01.03.016.046v.012c.035.11.09.204.12.32-.008-.02-.04-.076-.045-.09.037.31.088.913.15 1.692.14 1.557.328 3.896.51 6.635.36 5.476.713 12.546.713 18.15 0 3.9.276 8.834.797 13.745-.66 1.15-1.64 2.646-2.777 4.164-1.793 2.393-3.895 4.97-5.54 7.26-1.624 2.27-2.86 3.232-4.696 5.156-.7.64-.99 1.602-.748 2.517.242.915.963 1.613 1.89 1.815.924.2 1.895-.126 2.5-.856 1.93-2.016 3.31-3.092 5.17-5.69 1.43-1.992 3.39-4.44 5.2-6.85.35 2.138.74 4.166 1.173 5.968.245 1.028.49 2.04.733 3.05.175.917.834 1.66 1.72 1.94.89.278 1.868.04 2.534-.61.664-.65.91-1.62.654-2.516-.243-1.013-.473-2.01-.72-3.037-.746-3.13-1.392-7.2-1.876-11.38.135-.326.28-.636.38-.96.256-.78.1-1.647-.38-2.307-.116-.157-.235-.285-.38-.41-.37-4.01-.58-7.926-.58-11 0-5.82-.367-12.945-.73-18.486-.185-2.77-.368-5.14-.506-6.744-.06-.68-.1-1.142-.14-1.54h10.266c5.824 0 12.035-1.343 16.58-.41 3.15.647 6.294.92 9.396 1.038-.48 13.39-4.3 28.546-4.3 45.18 0 3.61.066 7.036-.655 10.05-.256.9-.01 1.87.655 2.52.666.65 1.63.89 2.516.61.89-.28 1.56-1.022 1.74-1.935.81-3.39.82-6.75.81-9.883.87 1.29 1.814 2.634 2.76 3.966 3.194 4.503 7.34 10.91 7.992 11.822.82 1.133 2.39 1.39 3.528.58 1.135-.82 1.41-2.407.593-3.54-.86-1.2-4.84-7.37-7.98-11.79-1.57-2.216-3.113-4.47-4.285-6.32-1.175-1.85-1.98-3.64-1.955-3.525-.07-.295-.185-.568-.34-.81.924-12.845 3.6-25.102 3.996-36.838h1.72c1.59 0 4.815-.2 7.796-.385 1.49-.09 2.908-.16 3.937-.226.514-.037.93-.06 1.22-.08.045-.003.067-.01.107-.015.864.07 1.694-.322 2.21-1.02.154-.21.267-.434.35-.67.264.064.554.1.87.06 1.084-.14 1.56-.79 1.77-1.1.2-.305.26-.48.3-.61.09-.26.09-.37.105-.47.08-.446.037-.905-.12-1.33-.05-.574-.108-1.535-.17-2.79-.127-2.563-.267-6.226-.397-10.006-.26-7.56-.473-15.923-.473-16.58v-20.06c0-2.35.35-4.79.35-7.52v-7.016c7.855 9.3 14.54 23.66 22.517 34.58.45.612.7 1.372.99 2.363.3.99.59 2.31 1.74 3.49.214.22.453.39.72.506-.54.51-.747 1.135-.856 1.57-.146.59-.157 1.08-.152 1.57.02 1.97.47 4.35.47 5.07 0 1-.085 1.48-.06 2.27.024.79.285 1.723.716 2.61.33.8 1.074 1.35 1.94 1.432.862.08 1.68-.31 2.15-1.038s.515-1.655.09-2.41c-.283-.583-.22-.488-.228-.718-.01-.23.06-.945.06-2.15 0-.69-.1-1.435-.186-2.15 1.056.82 2.2 1.654 3.295 2.392.49.33.946.625 1.36.87.41.24.59.435 1.43.622.215.047.47.117 1.01.015.54-.1 1.497-.69 1.8-1.494.3-.8.13-1.313.03-1.615-.1-.3-.19-.467-.274-.61-.35-.574-.67-.87-1.173-1.39-.224-.23-.61-.587-.884-.854 1.33.587 2.35 1.1 3.552 1.346.3.065.627.128 1.19.05.56-.08 1.675-.607 2.044-1.6.37-.995.096-1.634-.076-2.03-.17-.396-.36-.677-.563-.96-.72-1.007-2.11-1.275-3.156-.61-.45-.177-.57-.197-1.13-.444-1.31-.57-2.837-1.29-4.364-1.86-1.53-.57-2.967-1.052-4.56-1.052-.13 0-.3-.002-.46.016-.107-.217-.217-.426-.396-.61-.06-.054-.3-.554-.6-1.556-.298-1-.715-2.4-1.724-3.78-8.46-11.585-15.64-28.36-25.976-38.365v-.016c.03-.72.047-1.46.047-2.198v-7.87c0-2.33.35-4.79.35-7.52v-18.28c.077 0 .15-.007.23 0 2.065.08 4.265.294 5.52.38 1.385.09 2.58-.967 2.67-2.35.09-1.385-.95-2.58-2.333-2.67-1.078-.07-3.42-.276-5.677-.367l-.41-.016v-6.77c0-1.663-.523-3.037-1.01-4.394-.48-1.36-.99-2.66-1.156-3.355-.692-2.857-1.402-5.93-2.96-9.125-.23-.476-.47-.94-.7-1.42-.67-1.37-1.452-2.63-2.27-3.795.04-.26.074-.52.047-.856-.04-.5-.19-1.318-.96-1.98-.53-.46-1.2-.63-1.74-.65-.55-.698-1.073-1.37-1.57-2.046-1.31-1.793-3.083-2.786-4.605-3.57-1.52-.78-2.86-1.405-3.57-1.95-2.66-2.05-6.36-3.127-9.05-3.68-.58-.12-1.17-.245-1.752-.365-2.94-.603-5.998-1.104-8.59-1.77-.925-.237-1.844-.347-2.73-.366zm.062 5.143c.564-.025 1.05-.02 1.42.076 2.92.75 6.06 1.26 8.844 1.83.58.12 1.16.23 1.74.35 2.09.43 5.68 1.75 7 2.76 1.47 1.136 3.02 1.75 4.33 2.43 1.31.672 2.31 1.35 2.83 2.072.403.55.8 1.09 1.204 1.62-.1.09-.2.165-.306.257-1.03.904-2.15 1.88-3.126 2.56-.98.68-1.85.915-1.74.915-5.297 0-12.72-4.995-20.24-8.237-2.824-1.217-5.754-2.18-8.744-2.29-.996-.035-1.996.02-3.004.2-4.04.71-7.802 3.47-10.74 8.496-3.297 5.64-3.174 11.58-4.042 16.23-.867 4.65-2.048 7.914-8.25 10.463-2.097.86-3.33.8-4.135.5-.806-.293-1.465-.94-2.06-2.084-.298-.574-.555-1.267-.76-2.014-.005-.003 0-.01 0-.014.015-.65.03-1.294.03-1.937 0-2.06.04-4.41.26-6.437.05-.04.094-.087.15-.125 1.03-.736 2.542-1.36 3.795-1.514 1.253-.15 2 .11 2.365.503.36.39.844 1.42.35 4.054v.013c-.03.03-.124.124-.336.29-.423.334-1.202.77-2.03 1.618-.692.628-.996 1.595-.76 2.5.24.908.98 1.608 1.894 1.816.913.21 1.866-.11 2.47-.82.18-.185.786-.567 1.543-1.16s1.807-1.588 2.12-3.19c.7-3.6.242-6.596-1.557-8.54-1.8-1.95-4.405-2.33-6.65-2.06-.625.073-1.246.2-1.846.364.305-.854.65-1.71 1.13-2.7.775-1.59 1.575-3.606 1.97-4.01 1.59-1.637 2.25-3.37 3.14-4.29 1.334-1.366 3.578-3.55 4.745-4.27.96-.592 1.97-1.394 2.94-2.09.978-.695 2.086-1.237 1.956-1.204 2.27-.58 4.94-.794 7.9-1.4 2.96-.61 4.403-1.008 7.504-1.008 2.504 0 4.98-.46 6.68-.532zm-192.005.563c.744 1.304 1.678 3.155 2.566 5.72.424 1.233.83 2.57 1.25 3.935-.937-.16-1.89-.313-2.854-.455-1.474-.22-2.903-.38-4.224-.475 1.108-2.827 2.23-5.82 3.265-8.724zm39.725 4.867c-.107-.003-.22.002-.32.014-.115.014-.205.03-.306.06-1.64.494-1.71 1.257-2.05 1.848-.34.59-.64 1.256-.98 2.12-.277.677-.24 1.44.09 2.09.33.65.94 1.125 1.65 1.298-.08 2.17-.248 4.81-.52 8.04-.86 10.174-2.35 23.64-2.35 30.904-.058.932.39 1.805 1.19 2.29.8.482 1.81.482 2.61 0 .32-.194.58-.45.78-.75.794.065 2.392.57 4.5-.15 3.482-1.194 8.372-2.165 12.4-4.516 2.01-1.174 3.865-2.78 4.972-5.05 1.107-2.27 1.34-5.07.58-8.19-.928-3.805-3.08-6.54-5.676-8.114-.643-.39-1.31-.708-1.985-.976.087-.057.175-.11.26-.167 2.295-1.593 4.273-3.42 5.46-5.673 1.19-2.255 1.32-5.33-.38-7.655-1.452-1.99-3.69-2.6-5.75-2.926-2.06-.33-4.19-.333-6.04-.365-1.47-.024-2.4-.14-3.097-.243-.034-1.317-1.078-2.397-2.396-2.454h-.078c-.12-.22-.288-.455-.565-.716-.43-.4-1.277-.692-2.017-.7zm609.03 3.796c-.027-.06.18.246.305.46-.006-.005-.027-.01-.03-.015-.26-.324-.264-.414-.276-.44zm-464.226.124c2.18-.01 4.7.725 7.44 1.904 6.74 2.91 14.24 8.64 22.24 8.64 1.95 0 3.29-.902 4.61-1.815 1.31-.915 2.53-1.99 3.57-2.9.02-.02.02-.015.04-.03.68.97 1.31 1.94 1.8 2.943.23.477.44.957.67 1.435 1.27 2.6 1.924 5.22 2.62 8.08.324 1.323.874 2.63 1.314 3.86.44 1.23.7 2.422.7 2.714v7.093c-.28.102-.556.253-.885.455-.835.436-1.364 1.29-1.36 2.23.005.94.537 1.8 1.373 2.226.28.142.564.212.87.243v8.16c-.13-.058-.26-.106-.4-.138-.11-.06-.296-.15-.52-.29-.444-.274-1.038-.67-1.6-1.05l-1.54-1.04c-.225-.15-.425-.28-.628-.398-.1-.06-.196-.117-.38-.2-.093-.04-.186-.092-.442-.152-.255-.055-.86-.424-1.935.416-.784.61-.83.86-1.22 1.34-.39.48-.85 1.04-1.266 1.495-.015.018 0 .018-.015.03-.26-.37-.404-.604-.78-1.02-.43-.472-1.077-1.16-2.334-1.25-1.257-.09-2.313.765-2.838 1.51-.49.697-1.126 1.49-1.695 1.968-.57.48-.856.55-1.1.51-2.728-.51-4.78-.02-6.36-.62-1.87-.715-4.36-3.04-6.917-4.365-.335-.178-.718-.277-1.097-.273-1.057 0-1.96.73-2.2 1.755-.24 1.024.26 2.082 1.203 2.55.372.19.87.53 1.433.942.252.8.943 1.427 1.815 1.54-.44-.045-.265-.084.11.37.43.53 1.02 1.41 1.66 2.38 1.283 1.942 2.64 4.303 4.97 5.69 4.234 2.516 6.778 4.542 12.387 4.926 4.553.31 8.19-1.638 11.593-4.79-.104 1.66-.274 3.425-.274 5.354v7.87c0 2.53-.338 5.37-.338 8.24v6.425c-14.98-.552-35.267 1.12-51.836.246-3.848-.2-8.33-.272-12.45-.59-4.118-.318-7.89-.953-9.918-1.89-.646-.3-1.097-.42-1.466-.443-.37-.024-.667.03-.99.03-.387 0-.544.01-.81.016-.08-2.96-.17-6.035-.17-7.37 0-3.705-.365-7.283-.365-10.737 0-3.06-.46-6.71-.06-8.36.835-3.43.76-6.656.76-9.9 0-3.46.37-6.69.37-10.374 0-.22.01-.45.014-.67.424.26.88.508 1.372.69 2.24.83 4.89.63 7.764-.55 7.616-3.126 10.306-8.834 11.304-14.185 1-5.35.98-10.433 3.432-14.63 2.44-4.176 4.78-5.645 7.275-6.084.47-.08.93-.135 1.44-.137zm-141.7 4.77c1.6.43 3.22.41 4.96.44 1.882.034 3.84.066 5.34.306 1.492.24 2.31.73 2.47.943.62.853.582 1.22 0 2.333s-2 2.582-3.88 3.89c-1.92 1.332-4.32 2.492-6.606 3.31-1.167.113-2.28.273-3.22.455.14-1.508.293-3.075.41-4.485.23-2.69.414-5.12.52-7.2zm5.23 16.076c2.06.042 4.08.462 5.62 1.4 1.55.94 2.76 2.31 3.417 5 .553 2.275.33 3.69-.213 4.808-.546 1.11-1.555 2.07-3.02 2.93-2.935 1.71-7.516 2.74-11.47 4.1-.168.05-.985-.08-2.35-.13.215-4.56.76-10.693 1.325-16.823 1.61-.203 3.302-.63 4.99-1.202.56-.038 1.11-.104 1.69-.09zm162.86 2.896c-.25.025-.52.095-.81.226-.76.353-1.26 1.168-1.417 1.818-.17.71-.47 1.57-.29 2.76.09.6.4 1.36 1.037 1.89.64.54 1.46.74 2.197.74.884 0 1.71-.144 2.457-.67.75-.525 1.19-1.462 1.24-2.21.094-1.5-.546-2.41-1.053-3.144-.21-.305-.51-.544-.85-.685-.033-.012-.575-.38-1.45-.61-.22-.055-.492-.11-.81-.105-.076 0-.156-.01-.24 0zm-209 18.142c-4.76 0-8.386 2.94-10.054 6.744-1.667 3.8-1.847 8.426-1.006 12.995.84 4.57 2.728 9.104 5.675 12.66 2.95 3.56 7.14 6.164 12.11 6.164 1.536 0 2.618-.086 3.678-.474 1.06-.39 2.03-1.374 2.393-2.106.726-1.46.153-1.15 1.1-1.8 1.143-.78 1.44-2.35.655-3.49-.78-1.14-2.35-1.43-3.492-.65-1.826 1.25-2.43 2.88-2.592 3.36-.173.043-.62.153-1.74.153-3.27 0-5.99-1.62-8.25-4.35-2.26-2.726-3.905-6.544-4.607-10.356-.7-3.813-.42-7.584.67-10.07 1.09-2.482 2.53-3.736 5.46-3.736.3 0 .75.17 1.46.81.713.64 1.543 1.66 2.44 2.76.9 1.1 1.83 2.286 3.142 3.236 1.314.95 3.356 1.605 5.28.948.894-.257 1.575-.986 1.77-1.895.195-.908-.13-1.843-.84-2.44-.71-.598-1.685-.76-2.546-.413-.268.09-.18.13-.72-.26-.538-.387-1.336-1.274-2.197-2.332-.86-1.056-1.794-2.282-2.99-3.355-1.19-1.07-2.8-2.09-4.804-2.09zm442.14 2.945c-.93.03-1.755.6-2.09 1.47-1.04 2.56-1.76 5.09-2.03 7.45-.2 1.74-.21 3.414.274 4.94-1.468.294-3.037.703-4.487 1.39-1.07-2.12-1.84-4.57-2.7-7.126-.32-.992-1.25-1.642-2.29-1.602-.74.03-1.44.4-1.85 1.008-.416.61-.49 1.38-.25 2.078.81 2.385 1.59 4.99 2.84 7.52-1.102.54-2.244 1.18-3.187 2.183.08-.53-.005-1.09-.304-1.57-.72-1.174-1.477-1.19-1.97-1.296-.5-.106-.946-.14-1.42-.14-.95 0-2.01.12-3.14.306-2.27.376-4.627.873-6.486 2.244-1.03.76-1.25 2.207-.49 3.237.76 1.03 2.22 1.268 3.25.5.38-.28 2.614-1.09 4.484-1.4.932-.154 1.82-.244 2.38-.242.14 0 .16.008.24.016.543.32 1.16.39 1.74.246-.714.71-1.55 1.51-2.426 2.344-1.485 1.41-3.054 2.885-3.89 4.94-1.25 3.065-2.765 6.317-3.69 9.84-1.85-1.37-3.578-2.21-5.25-2.99-1.94-.91-3.844-1.76-6.315-3.495-2.67-1.876-5.204-2.94-6.713-3.998-.374-.276-.82-.43-1.28-.448-.4-1.064-1.02-2.02-1.693-3.02-.846-1.253-1.81-2.51-2.61-3.57-.347-.46-.4-.56-.656-.93.37-1.074-.162-2.25-1.22-2.68-.293-.13-.58-.238-.97-.31-.2-.035-.44-.09-.75-.06-.312.028-.69.15-1.1.426-.822.555-1.06 1.666-1.005 2.185.054.52.17.795.29 1.05.477 1.01 1.155 1.814 1.954 2.87-.278-.18-.648-.436-.887-.58-.57-.345-.905-.57-1.49-.763-.15-.043-.32-.08-.61-.102-.295-.024-.8-.083-1.467.367s-.99 1.44-.96 1.94c.028.506.158.74.244.918.345.71.563.824.87 1.144.304.32.65.665 1.05 1.035.91.836 1.923 1.716 2.9 2.5-.72.08-1.26.1-1.94.26-1.08.25-1.69.475-1.89.516-.207.04-.107.058-.69-.074-1.16-.27-2.327.44-2.595 1.6-.27 1.16.454 2.325 1.616 2.593.888.2 1.788.236 2.5.09.72-.144 1.14-.323 2.03-.533.64-.15 2.874-.24 4.64-.64.44-.1.87-.2 1.37-.46.472-.24 1.187-.75 1.464-1.72.07.063.15.13.23.183 2.176 1.53 4.553 2.487 6.71 4 2.8 1.968 5.1 3.025 7.017 3.92 1.918.9 3.416 1.61 5.17 3.05.317.285.687.488 1.086.568-.303 2.122-.47 4.26-.47 6.572 0 .653-.03 1.383-.06 2.167-.204-.012-.4-.03-.61-.043-1.873-.113-3.93-.152-5.414-.197-.074-.004-.14-.004-.213 0-1.28.024-2.31 1.068-2.29 2.35.024 1.28 1.1 2.31 2.38 2.286 1.503.047 3.51.093 5.262.2.35.02.66.05.976.075.08.715.204 1.434.38 2.137.48 1.87.58 4.494.58 6.86 0 3.563.674 6.546.674 9.38v8.07c0 2.9.32 5.67.32 8.083v4.76c-1.774.57-3.503 1.23-5.11 2.014-2.376 1.16-4.884 1.74-7.278 2.91-.076.03-.17.064-.24.105-.133-.98-.75-1.566-1.175-1.878-.453-.337-.86-.52-1.28-.69-1.68-.663-3.87-1.11-4.47-1.36-.847-.34-1.237-.565-1.92-.82-.68-.252-1.58-.365-2.484-.303-.78.036-1.48.49-1.83 1.19-.35.7-.29 1.537.15 2.18.445.647 1.206.99 1.985.917.598-.04.495-.023.687.05.193.07.76.374 1.784.79.646.265 1.18.375 1.876.566-1.096.626-2.24 1.324-3.28 2.015-.455.3-.85.584-1.205.853-.35.27-.582.364-1.035 1.01-.117.16-.29.35-.4.84-.106.49.054 1.533.64 2.09.59.55 1.114.57 1.407.59.29.02.457-.005.61-.03.61-.1.98-.25 1.6-.502.246-.1.63-.29.916-.41-.94.894-1.714 1.59-2.334 2.5-.16.23-.34.47-.475.975-.138.5-.077 1.658.652 2.33.73.68 1.373.65 1.77.64.398-.01.708-.07 1.023-.15 1.092-.26 1.792-1.313 1.615-2.423v-.016c.316-.327.395-.426.81-.825.96-.922 2.09-2.005 3.13-3.113.816-.875 1.57-1.716 2.134-2.7.465.05.95-.04 1.37-.272 1.66-.816 4.36-1.45 7.29-2.886.94-.46 1.98-.885 3.11-1.282.075 1.45.18 2.74.03 3.33-.57 2.235-.39 4.3-.39 6.07v4.85c0 1.174.08 5.59.18 9.594.05 2 .1 3.87.138 5.122.02.623.05 1.093.06 1.37.002.07-.006.107 0 .17 0 .03.01.06.013.12 0 .03 0 .076.013.153.004.04.01.09.03.185.022.093.26.61.26.61l.883.12c.056.16.125.31.215.46.454.74 1.287 1.16 2.15 1.096h.46c-.46.558-.96 1.18-1.464 1.865-2.03 2.75-4.165 6.644-4.165 11.62 0 2.22.007 5.62.077 8.618.035 1.5.177 2.62.244 3.74.033.56.073 1.052.122 1.48.05.422.01.65.29 1.34.44 1.202 1.77 1.813 2.974 1.373 1.2-.44 1.83-1.77 1.39-2.97.004.01-.027-.093-.05-.274-.03-.282-.06-.694-.09-1.203-.06-1.017-.21-2.116-.242-3.584-.07-2.934-.08-6.32-.08-8.51 0-3.66 1.536-6.534 3.264-8.88.864-1.17 1.764-2.175 2.532-3.094.46-.554.93-.997 1.292-1.63 1.51-.037 3.02-.057 4.58-.09-.43.565-.81 1.16-1.16 1.77-1.71 3-2.696 6.525-3.157 9.7-.16 1.1-.313 2.2-.473 3.295-.55 3.78-.874 8.56.048 12.186.17.838.78 1.507 1.6 1.754.82.247 1.7.026 2.303-.58.604-.605.83-1.485.58-2.303-.572-2.25-.45-6.993.045-10.39.16-1.096.313-2.2.473-3.294.39-2.716 1.32-5.824 2.607-8.087 1.29-2.26 2.715-3.47 4.35-3.57.55-.01 1.06-.23 1.465-.58h23.978c5.823 0 11.934.96 18.107.96 2.47 0 4.08-.658 5.6-.658.32.024.63-.03.93-.14.623.016 1.25-.2 1.705-.66.58-.58.81-1.422.61-2.21.032.04-.11-.963-.17-1.937-.066-1.112-.13-2.52-.17-3.933-.04-1.414-.064-2.83-.06-3.936.004-.555.016-1.03.03-1.375.014-.257.057-.51.047-.49.864-3.542.03-7.33.03-9.822 0-3.34-.17-6.497.31-9.32.516-3.053.364-6.04.365-8.787 0-2.89.99-6.25.99-10.02 0-4.01.32-8.014.32-12.295v-10.33c0-3.28-.32-6.49-.32-9.38 0-3.584-.547-6.63-1.39-9.943-.48-1.89-.718-3.754-1.328-6.146-.71-2.794-2.363-4.48-3.128-5.98-1.263-2.477-2.916-4.186-4.18-5.844-1.59-2.08-4.013-3.67-5.935-4.805-2.225-1.31-4.476-2.49-7.217-3.16-.693-.17-1.376-.24-2.03-.28 1.018-.475 2.258-1.056 3.36-2.14.69-.66.896-1.68.533-2.56-.36-.88-1.224-1.45-2.18-1.43-.6.014-1.163.26-1.586.687-.225.22-1.83 1.03-3.326 1.86-.75.416-1.536.83-2.242 1.74-.274.355-.49.864-.594 1.42-.73-.24-1.437-.374-2.12-.43-.824-.064-1.594-.025-2.3.047-.426.048-.817.107-1.21.157-.05-.274-.135-.54-.29-.794.034-.06-.064-.926.23-2.06.326-1.247.877-2.586 1.22-3.766.22-.715.07-1.497-.38-2.09-.453-.595-1.16-.937-1.91-.916-1.013.03-1.893.727-2.163 1.707-.2.68-.833 2.228-1.264 3.89-.323 1.257-.693 2.678-.32 4.178-1.95-.074-4.112-.153-6.3.2-.27-.493-.52-1.764-.32-3.493.208-1.773.81-3.972 1.727-6.22.31-.73.236-1.572-.21-2.224-.445-.65-1.19-1.014-1.98-.99zm-220.13 2.29c.2.14.35.25.563.4.582.4 1.182.8 1.74 1.15.278.17.553.32.823.46.27.14.454.293 1.065.41.505.113.98.04 1.42-.157v2.335c-.656-.017-1.275.26-1.71.775-3.526 3.685-5.894 5.213-9.655 4.957-4.73-.324-5.97-1.656-10.45-4.317-.416-.25-1.06-.97-1.766-1.878 1.76.17 3.21-.008 4.06.152 1.97.37 3.69-.525 4.84-1.48.58-.48 1.067-.994 1.48-1.494.28.4.394.617.81 1.097.545.63 1.615 1.02 2.364.96.746-.057 1.205-.316 1.6-.563.79-.492 1.324-1.07 1.86-1.66.36-.4.66-.773.96-1.14zm462.52 7.1c-.15 0-.308.01-.46.02-1.23.08-2.53.45-3.84 1.094-5.74 2.817-8.74 7.42-10.16 11.213-.717 1.893-1.05 3.6-1.19 4.88-.008.027-.017.033-.02.06-2.73-.683-4.955-1.443-8.024-2.197-2.508-.613-5.136-.7-7.446-.7-1.73 0-4.363-.69-7.214-.625-.95.02-1.916.11-2.896.35-2.68.66-6.52.74-10.02 2.456-2.46 1.21-5.12 2.265-7.52 4.62-2.52 2.48-3.57 4.41-5.29 7.23-1.67 2.74-2.21 5.51-3.123 7.767-1.124 2.755-1.145 5.295-1.145 7.99v5.46c-1.485-.086-2.983-.18-4.47-.27-.08-.01-.15-.015-.23-.016-1.28-.014-2.336 1.02-2.35 2.3-.014 1.28 1.02 2.324 2.3 2.335 1.567.094 3.13.194 4.7.29-.09 2.477-.29 4.97-.29 7.67 0 3.057.656 5.58.656 8.085v8.085c0 .225-.01.448-.014.673-1.7-1.2-3.27-1.974-4.82-2.7-1.94-.91-3.86-1.79-6.33-3.524-2.67-1.875-5.22-2.925-6.73-3.983-.374-.27-.82-.41-1.28-.42-.4-1.07-1.005-2.045-1.68-3.05-.842-1.254-1.81-2.495-2.61-3.553-.345-.46-.394-.574-.652-.944.356-1.073-.176-2.24-1.22-2.67-.3-.126-.585-.234-.978-.304-.198-.04-.45-.08-.76-.05-.315.03-.675.12-1.087.4-.82.55-1.074 1.69-1.02 2.21.05.52.184.78.304 1.035.475 1.01 1.155 1.812 1.95 2.867-.273-.174-.66-.433-.9-.58-.57-.34-.89-.55-1.48-.744-.143-.05-.33-.11-.622-.14-.293-.03-.786-.087-1.45.364-.664.45-.99 1.45-.96 1.955.027.502.157.737.243.915.346.71.55.823.855 1.144.307.32.668.666 1.07 1.036.917.842 1.92 1.715 2.9 2.5-.72.082-1.27.116-1.95.276-1.08.254-1.69.463-1.893.504-.2.04-.1.057-.684-.075-.765-.22-1.585-.01-2.137.568-.55.575-.747 1.41-.502 2.17.247.755.898 1.322 1.68 1.462.887.204 1.787.237 2.5.092.718-.15 1.138-.328 2.03-.537.638-.15 2.87-.245 4.638-.64.442-.1.875-.216 1.374-.474.474-.246 1.19-.72 1.464-1.694.07.06.135.115.214.167 2.177 1.53 4.57 2.48 6.726 3.993 2.8 1.964 5.1 3.01 7.017 3.906 1.917.893 3.41 1.632 5.17 3.08.38.34.85.533 1.34.58-.02.53-.03 1.06-.03 1.613v1.45c-1.71.556-3.38 1.19-4.94 1.95-2.373 1.164-4.9 1.746-7.29 2.916-.08.04-.153.09-.23.137-.123-.99-.75-1.593-1.173-1.907-.454-.33-.863-.504-1.283-.67-1.68-.666-3.866-1.11-4.47-1.357-.846-.346-1.236-.584-1.92-.84-.684-.253-1.564-.37-2.47-.304-.786.02-1.506.482-1.86 1.19-.356.7-.31 1.53.136 2.18.44.65 1.21 1.002 1.993.93.597-.04.493-.03.687.04.195.073.775.375 1.8.794.64.26 1.185.373 1.88.563-1.09.62-2.23 1.326-3.27 2.01-.45.31-.88.57-1.23.84-.355.27-.57.37-1.02 1.01-.118.16-.277.36-.385.857-.11.493.055 1.524.64 2.076.59.553 1.1.59 1.39.61.295.02.475-.005.627-.03.61-.1.955-.267 1.574-.52.243-.1.647-.286.93-.41-.94.898-1.73 1.59-2.35 2.5-.16.234-.322.49-.457.993-.14.5-.077 1.64.653 2.317.726.676 1.37.65 1.766.64.4-.01.692-.075 1.01-.154 1.102-.253 1.812-1.32 1.63-2.44v-.014c.31-.324.38-.43.792-.824.96-.92 2.108-1.984 3.144-3.093.833-.895 1.597-1.756 2.166-2.763.444.06.91.016 1.344-.195 1.662-.816 4.357-1.467 7.29-2.9.874-.428 1.857-.817 2.9-1.19v1.693c0 2.87.32 5.68.32 8.084 0 .744-.355 5.71-.748 10.236-.2 2.26-.41 4.492-.58 6.21-.09.855-.15 1.597-.216 2.133-.064.534-.18 1.07-.106.775-.23.81-.02 1.675.58 2.27.6.596 1.463.815 2.273.58.324-.094.62-.26.87-.473.525.32 1.103.53 1.645.655.666.153 1.326.225 2 .228-.513.588-1.063 1.24-1.634 1.988-2.044 2.674-4.222 6.467-4.222 11.334 0 2.155.02 5.463.09 8.376.036 1.455.086 2.8.153 3.89.036.542.075 1.016.125 1.432.05.416-.004.65.29 1.343.45 1.18 1.775 1.767 2.96 1.31 1.18-.45 1.78-1.773 1.325-2.96.015.04-.01-.04-.03-.224-.037-.273-.065-.683-.095-1.176-.06-.984-.114-2.31-.15-3.736-.07-2.843-.075-6.12-.075-8.25 0-3.512 1.54-6.27 3.28-8.54.866-1.134 1.77-2.13 2.544-3.02.74-.85 1.514-1.364 1.812-2.942.684-.222 1.35-.464 1.953-.715.737-.305 1.4-.62 1.983-.96.03-.02.06-.043.09-.06.54.264 1.25.595 2.043.93-1.286 1.057-2.33 2.427-3.156 3.875-1.71 3-2.694 6.525-3.155 9.7-.16 1.096-.313 2.2-.473 3.294-.55 3.783-.876 8.56.046 12.187.314 1.24 1.58 1.99 2.82 1.675 1.246-.313 1.994-1.563 1.68-2.807-.57-2.25-.45-6.992.047-10.39.16-1.1.31-2.2.47-3.294.395-2.712 1.306-5.82 2.59-8.083 1.29-2.26 2.73-3.47 4.367-3.57.67-.016 1.27-.328 1.69-.825.77.02 1.57-.043 2.36-.2 1.05-.205 1.764-.56 2.243-.715 1.2-.393 2.01-.71 2.67-1.023.97.71 2.43 1.52 4.94 2.576 2.083.876 4.114.895 5.69.304 1.575-.59 2.617-1.6 3.417-2.308.8-.705 1.367-1.06 1.56-1.11.196-.055.348-.18 1.37.575 2.797 2.06 6.71 2.624 10.59 2.565 2.73-.04 5.41-.357 7.64-1.39.41.66 1.14 1.1 1.97 1.1 1.28 0 2.334-1.04 2.334-2.32 0-.89-.152-1.9-.35-3.46-.192-1.564-.442-3.47-.7-5.356-.255-1.888-.51-3.76-.7-5.218-.094-.73-.174-1.35-.23-1.817-.052-.466-.074-.91-.074-.73 0-2.23-.014-4.474-.353-6.804-.41-2.865-.3-5.857-.3-9.03 0-2.936.32-5.923.32-9.045 0-3.442-.536-7.173-.05-9.565.86-4.233-.21-8.015.334-10.677.583-2.866.99-7.646.32-10.94-.54-2.64-1.266-6.394-1.266-8.585 0-1.92-.39-3.445-.84-4.67-.34-.93-.688-1.687-.96-2.517.48.165.984.307 1.524.413 2.22.432 4.214 1.3 6.56 1.995 2.35.694 5.1 1.12 8.3.335 1.34-.33 1.807-.84 2.67-1.51.86-.68 1.78-1.536 2.654-2.446.87-.91 1.7-1.853 2.316-2.882.31-.514.57-1.05.735-1.707.162-.66.227-1.557-.23-2.457-.84-1.65-1.878-3.666-3.617-5.37-1.74-1.71-4.29-2.99-7.49-2.99-5.3 0-9.074 2.31-11.7 4.74-1.946 1.802-3.467 3.602-4.65 4.73-.32-.4-.675-.78-1.146-1.13-.88-.647-1.994-1.578-2.822-2.395 4.264-.548 7.92-2.008 11.517-5.538 3.113-3.06 4.004-7.84 3.003-11.87-.5-2.01-1.62-3.99-3.66-5.018-.895-.45-1.9-.668-2.96-.658zm169.56 2.98c-.387.01-.744.04-1.098.07-1.417.15-2.596.37-3.845.37-1.27 0-2.71-.08-4.21-.105-.51-.04-.99-.073-1.39-.073-6.08 0-9.44.006-11.15.076-.43.02-.75.02-1.07.06-.16.023-.31.043-.61.14-.15.05-.35.1-.706.35-.35.253-1.044 1.03-.973 2.06 0 .02.01.025.013.045-.237.066-.46.09-.78.307-.39.267-.84.84-1.02 1.464-.657.32-1.32.67-1.95 1.115-.8.13-1.587.35-2.35.703-.81.303-1.38 1.03-1.48 1.89-.045.376.01.756.14 1.1l-1.696 1.614c-1.484 1.413-3.038 2.886-3.875 4.942-1.43 3.513-3.23 7.266-4.07 11.394-.668 3.25-1.04 6.36-1.04 9.856 0 .654-.037 1.384-.06 2.168-.21-.012-.4-.03-.61-.043-1.878-.112-3.937-.15-5.42-.196-.073-.008-.152-.008-.23 0-1.28.02-2.295 1.064-2.27 2.35.025 1.28 1.084 2.31 2.364 2.282 1.503.05 3.51.095 5.263.2.343.02.67.054.99.077.075.714.19 1.433.365 2.14.477 1.87.594 4.493.594 6.86 0 3.563.65 6.546.65 9.38v8.07c0 1.743.12 3.43.216 5.033-1.66.27-3.088.693-4.47 1.112-2.056.626-4.06 1.25-7.08 1.62-3.25.397-5.857 1.3-7.703 1.525-.48.06-.917.26-1.25.55-1.03-.53-2.148-.82-3.34-1.11-1.488-.36-3.065-.64-4.38-.883-.587-.11-.708-.142-1.16-.244-.367-.84-1.225-1.35-2.136-1.28-.197.014-.386.057-.567.12-.306.107-.575.218-.915.43-.34.21-.928.557-1.16 1.54-.23.985.375 1.95.762 2.29.385.34.67.44.93.55 1 .41 2.034.574 3.293.81-.263.04-.658.09-.884.134-.66.127-1.038.195-1.606.44-.14.065-.31.13-.55.31-.237.18-.655.497-.84 1.297-.183.8.283 1.748.64 2.09.36.34.598.418.78.488.72.285.943.23 1.387.26.44.035.945.04 1.494.047 1.27.01 2.642-.017 3.92-.09-.47.533-.845.905-1.236 1.48-.626.91-.92 1.47-1.04 1.63-.12.155-.018.09-.537.38-1.04.575-1.43 1.885-.853 2.93.577 1.04 1.887 1.43 2.93.85.793-.44 1.49-1.025 1.922-1.615.43-.59.62-.992 1.13-1.74.35-.52 1.922-2.09 2.96-3.57.253-.37.505-.745.7-1.28.175-.49.35-1.314-.06-2.18.065-.002.14-.01.21-.015 2.65-.322 5.067-1.2 7.703-1.523 3.41-.415 5.824-1.183 7.852-1.8 1.15-.35 2.164-.636 3.25-.852v6.115c0 2.14.29 4.41.074 5.25-.56 2.193-.42 4.214-.41 5.963-1.396.946-2.83 1.84-4.15 2.957-.067.056-.12.123-.183.185-.362-.94-1.12-1.356-1.614-1.557-.52-.21-.956-.275-1.404-.335-1.794-.234-4.033-.136-4.68-.23-.91-.13-1.35-.27-2.074-.35-.725-.08-1.606.04-2.47.32-.78.197-1.386.82-1.57 1.6-.187.786.074 1.58.684 2.107.61.53 1.462.686 2.21.386.57-.184.462-.144.67-.122.206.024.852.18 1.952.336.68.095 1.22.062 1.92.075-1.13.1-2.285.154-3.51.154-10.994 0-21.48 1.4-32.095 1.4-4.217 0-8.45-.06-12.69-.14.854-.2 1.57-.893 1.752-1.813.245-1.257-.576-2.47-1.83-2.716-4.07-.8-9.26-1.122-14.1-1.342-4.83-.22-9.35-.333-11.47-.564-.15-.02-.3-.026-.454-.016-1.21.08-2.172 1.09-2.18 2.304-.007 1.216.94 2.224 2.152 2.32 2.616.285 6.98.363 11.747.58 4.665.213 9.64.55 13.18 1.22-6.82-.13-13.67-.275-20.562-.275-7.566 0-17.975-.91-24.575-.49-1.29.08-2.265 1.17-2.18 2.44.084 1.265 1.195 2.23 2.486 2.15 5.823-.37 16.35.47 24.27.47 8.78 0 17.56.276 26.372.4-.023 4.574-.46 12.734-.46 18.948v12.47c-.186.193-.448.44-.823.763-.888.76-2.158 1.726-3.46 2.7-1.308.973-2.65 1.948-3.72 2.73-.34.246-.61.434-.89.64-.96-.123-1.89.368-2.35 1.205-.46.838-.34 1.858.29 2.58.027.036.025.062.076.137.104.16.2.42.84.81.31.195.88.426 1.52.367.617-.058 1.146-.36 1.45-.64-.01.005.005-.008.046-.048.08-.07.26-.227.47-.386.34-.25.8-.59 1.33-.975 1.065-.774 2.42-1.758 3.768-2.76 1.023-.765 2.04-1.534 2.926-2.26.68.66 1.44 1.14 2.23 1.634 2.24 1.4 5.32 4.72 5.87 5.4.44.537.88 1.15 1.39 1.815.494.67 1.33 1.04 2.163.947.84-.092 1.55-.64 1.875-1.4.33-.762.23-1.647-.29-2.302-.447-.59-.934-1.25-1.49-1.937-1.846-2.262-5.08-5.2-6.99-6.39-.72-.45-1.04-.743-1.294-.975.36-.722.3-1.565-.15-2.24-.032-.055-.062-.116-.102-.167v-11.72c0-5.977.433-14.04.456-18.9 1.136.01 2.263.016 3.4.016 10.795 0 21.075-1.347 31.425-1.404-.05.104-.1.224-.156.366-.07.184-.172.41-.152.916.02.5.427 1.454 1.13 1.842.7.385 1.206.294 1.494.24.29-.05.452-.12.594-.18.57-.247.865-.476 1.4-.87.23-.167.59-.466.857-.67-.71 1.13-1.3 1.976-1.68 3.034-.1.265-.2.56-.2 1.08-.005.524.336 1.618 1.204 2.09.868.475 1.494.29 1.878.184.383-.105.66-.23.944-.38 1.01-.528 1.423-1.753.96-2.793.22-.39.26-.5.563-.99.7-1.127 1.55-2.458 2.274-3.785.576-1.052 1.09-2.06 1.388-3.16.45-.06.886-.237 1.236-.547.33-.286.72-.58 1.16-.886.01 1.563.09 5.29.18 8.94.05 2 .113 3.872.15 5.123.02.625.034 1.095.05 1.373 0 .07-.007.104 0 .166 0 .032.006.063.013.122.005.03-.01.072 0 .15l.048.182c.02.094.244.61.244.61s.576.09.92.137c.05.16.11.3.196.444.45.74 1.282 1.16 2.15 1.1h.44c-.46.56-.93 1.18-1.437 1.866-2.03 2.75-4.18 6.644-4.18 11.62 0 2.22.02 5.62.09 8.62.033 1.5.085 2.894.15 4.01.035.56.06 1.057.108 1.48.05.426.01.655.29 1.344.44 1.203 1.76 1.814 2.96 1.373 1.204-.44 1.83-1.77 1.39-2.975.006.01-.025-.11-.046-.29-.03-.283-.045-.695-.075-1.204-.06-1.02-.12-2.376-.15-3.844-.07-2.937-.08-6.32-.08-8.51 0-3.66 1.54-6.535 3.266-8.878.867-1.173 1.75-2.18 2.52-3.098.466-.555.93-.998 1.297-1.63 1.51-.038 3.02-.058 4.577-.093-.428.568-.81 1.16-1.158 1.77-1.71 3-2.685 6.528-3.146 9.7-.16 1.1-.313 2.2-.47 3.298-.553 3.783-.894 8.563.03 12.19.167.836.78 1.505 1.6 1.752.82.25 1.715.028 2.32-.58.602-.603.827-1.483.58-2.3-.574-2.25-.434-6.995.06-10.39.16-1.097.312-2.198.472-3.295.397-2.717 1.29-5.825 2.58-8.088 1.29-2.26 2.727-3.465 4.36-3.57.55-.014 1.07-.224 1.467-.58h23.963c5.823 0 11.95.965 18.123.965 2.47 0 4.062-.66 5.58-.66.324.026.65-.03.945-.135.63.018 1.24-.2 1.695-.654.58-.575.807-1.42.61-2.21.034.038-.095-.963-.153-1.937-.064-1.117-.125-2.526-.166-3.938-.04-1.41-.066-2.83-.06-3.933 0-.55.014-1.03.03-1.37.01-.257.055-.51.045-.49.86-3.542.045-7.33.045-9.822 0-3.34-.19-6.5.29-9.32.515-3.055.363-6.04.363-8.79 0-2.887.978-6.25.978-10.02 0-4.01.338-8.014.338-12.295v-10.34c0-3.282-.334-6.493-.334-9.382 0-3.584-.55-6.63-1.39-9.943-.48-1.89-.7-3.755-1.31-6.147-.71-2.795-2.38-4.48-3.145-5.98-1.26-2.478-2.92-4.187-4.18-5.845-1.59-2.08-4.016-3.67-5.938-4.803-2.222-1.31-4.457-2.49-7.2-3.16-1.667-.41-3.24-.295-4.605-.28-1.364.02-2.496-.07-3.004-.27-.887-.35-1.754-.516-2.58-.58-.41-.03-.83-.04-1.22-.03zm-169.427 1.613c.315.016.55.09.733.183.484.24.964.87 1.25 2.01.565 2.28-.3 6.016-1.756 7.443-3.66 3.593-6.516 4.3-11.41 4.44-.01-.06-.03-.116-.045-.18 0-.18.003-.4.044-.76.102-.918.37-2.29.93-3.785 1.12-2.982 3.322-6.44 7.854-8.663.9-.44 1.567-.63 2.06-.67.128-.013.23-.023.34-.016zm-228.106 3c.71-.03 1.29.05 1.95.307 1.69.667 3.33.616 4.77.596 1.44-.02 2.71-.034 3.412.14 2.1.514 3.87 1.42 5.964 2.654 1.64.968 3.85 2.62 4.607 3.617 1.458 1.91 2.84 3.385 3.737 5.14 1.17 2.294 2.44 3.72 2.78 5.035.53 2.08.76 3.89 1.326 6.116.795 3.123 1.236 5.69 1.236 8.815 0 3.223.32 6.43.32 9.383v10.322c0 4.038-.32 8.04-.32 12.297 0 2.85-.99 6.22-.99 10.02 0 2.894.11 5.65-.29 8.026-.306 1.78-.417 3.52-.43 5.22-1.95.506-3.92 1.128-4.39 1.128-6.928 0-13.25 2.014-19.926 2.014-5.32 0-13.8-1.102-21.92-1.844-7.08-.646-13.778-1.183-18.75.015.036-.253.08-.49.137-.72.58-2.282.18-4.49.09-5.92.614-.173 1.23-.36 1.847-.53 3.452-.97 6.82-1.88 9.472-3.434.94-.54 1.364-1.65 1.05-2.687-.313-1.035-1.284-1.724-2.363-1.65-.364.03-.71.15-1.022.34-1.77 1.04-4.95 1.992-8.39 2.96-.2.054-.41.11-.61.17v-3.406c0-2.8-.332-5.556-.332-8.08V253.3c1.63.397 3.64.794 5.75 1.1 3.086.443 5.93.903 8.56.013 3.09-1.047 5.373-2.08 7.822-4.41 1.02-.97 1.575-2.05 2.21-3.28.634-1.23 1.242-2.586 1.844-3.86.552-1.166 1.11-2.26 1.586-3.05 1.533-.96 2.9-2.217 3.68-4.057.332-.772.25-1.66-.218-2.363-.468-.7-1.247-1.11-2.09-1.1-1 .016-1.898.617-2.27 1.54-.02.054-.067.104-.09.155-1.48.456-2.178 1.33-2.765 2.24-.173.09-.345.174-.533.26-1.936.9-4.47 1.736-6.97 2.915-1.518.712-4.75.874-8.15.55-3.15-.308-6.4-.91-9.05-1.21-.03-2.13-.164-4.45-.716-6.62-.08-.31-.14-.686-.184-1.066.25-.21.47-.46.61-.78.46-1.01.13-2.18-.73-2.82.014-1.06.047-2.13.047-3.156 0-3.17.33-5.9.943-8.92.685-3.37 2.33-6.91 3.83-10.59.28-.69 1.393-2.01 2.774-3.32 1.38-1.318 2.95-2.66 4.15-4.228.273-.357 1.194-1 2.363-1.554 1.17-.558 2.522-1.05 3.736-1.65 1.44-.71 4.56-1.147 7.105-1.77 2.29-.565 5.466-.26 8.65-.26 1.78 0 3.23-.28 4.348-.398.28-.03.525-.05.764-.063zm392.18.993c1.45.21 2.08.23 3.69.502 3.85.65 7.6 1.336 8.94 1.554 1.26.21 2.45-.66 2.65-1.92.002-.05.01-.083.01-.135.11.013.255.02.35.043 2.096.514 3.866 1.42 5.964 2.654 1.64.966 3.85 2.62 4.607 3.615 1.46 1.91 2.83 3.384 3.72 5.14 1.17 2.293 2.44 3.72 2.78 5.034.53 2.08.76 3.89 1.33 6.116.796 3.123 1.236 5.69 1.236 8.815 0 3.22.337 6.427.337 9.38v10.327c0 4.035-.336 8.037-.336 12.294 0 2.846-.98 6.22-.98 10.02 0 2.89.1 5.646-.304 8.023-.303 1.78-.4 3.52-.413 5.216-1.95.505-3.935 1.13-4.41 1.13-6.924 0-13.23 2.01-19.906 2.01-5.32 0-13.8-1.105-21.92-1.847-2.7-.25-5.36-.474-7.87-.596 2.37-1.39 4.62-2.8 6.33-4.49.697-.66.9-1.69.53-2.58-.37-.886-1.25-1.447-2.21-1.417-.6.016-1.16.26-1.583.69-1.45 1.43-4.28 3.153-7.366 4.925-1.79 1.03-3.672 2.09-5.46 3.25-.388.07-.76.14-1.13.23.037-.254.096-.49.155-.72.65-2.55.074-5.024.074-6.407v-7.58c.21-.36.335-.76.33-1.21-.006-.48-.16-.93-.41-1.297-.1-1.984-.26-3.933-.26-5.75v-8.07c0-1.373-.12-2.66-.246-3.904 2.56-.31 5.63-.856 8.6-1.14 3.394-.33 6.63-.167 8.144.55 2.5 1.175 5.054 2.01 6.988 2.91 1.934.9 3.03 1.79 3.386 2.64.33.84 1.074 1.45 1.97 1.57.894.12 1.78-.268 2.32-.99.54-.727.66-1.68.29-2.504-1.134-2.69-3.535-4.12-5.875-5.213-2.34-1.09-4.843-1.917-6.955-2.91-2.42-1.14-5.164-1.335-7.948-1.207-.927.044-1.865.125-2.79.215-3.17.308-6.255.835-8.543 1.13-.007-.174 0-.345 0-.52 0-2.47-.06-5.362-.735-8.01-.077-.29-.14-.63-.187-.98.624-.49.96-1.275.87-2.07-.075-.68-.43-1.26-.975-1.634.01-1.055.03-2.12.03-3.142 0-3.17.312-5.895.93-8.92.685-3.367 2.33-6.91 3.83-10.587.28-.69 1.392-2.01 2.773-3.325 1.376-1.31 2.95-2.65 4.15-4.21 1.41-.02 3.12.26 4.94.84 2.717.86 5.54 2.285 7.994 3.69 1.232.764 2.41 1.532 3.415 2.27 1.41 1.04 2.27 1.62 2.837 1.97.143.086.254.167.443.26.097.044.2.105.49.18.145.04.315.094.764.06.45-.03 1.52-.4 1.95-1.34.43-.94.16-1.56.043-1.845-.117-.29-.207-.41-.275-.504-.14-.194-.207-.27-.274-.337-.136-.14-.235-.21-.35-.31-.94-.79-2.97-2.25-5.78-3.92-.27-.16-.61-.313-.887-.473-.9-.56-1.798-1.076-2.7-1.6 1.102.256 1.813.393 3.125.714 3.034.747 9.33 3.286 11.85 4.18.314.114.57.186.84.26.134.04.244.075.563.11.16.02.336.11.947-.073.305-.09.82-.29 1.235-.87.413-.577.472-1.426.365-1.89-.214-.926-.514-1.02-.657-1.16-.144-.14-.228-.2-.307-.26-.157-.114-.28-.18-.41-.257-.267-.16-.58-.337-1.01-.565-1.167-.62-4.62-2.327-7.687-3.844zm-455.52 9c.11.02.09.09.04.074-.01-.003-.08-.054-.09-.06.01 0 .04-.02.048-.015zm252.45.87c2.07-.05 4.917.53 7.716.53 2.155 0 4.49.125 6.346.58 2.922.72 5.17 1.522 8.24 2.273.44.11.803.2 1.14.307.026.05.06.106.09.156.415.648 1.126 1.047 1.89 1.068.095.14.19.29.29.49 1.32 2.598 3.79 4.247 5.295 5.357-.02-.016.67.854 1.112 1.89.44 1.036.803 2.225.99 2.96.42 1.64.97 2.81 1.327 3.782.357.98.564 1.766.564 3.086 0 3.1.835 6.87 1.372 9.5.34 1.69.09 7.07-.32 9.11-.86 4.22.21 7.97-.34 10.66-.76 3.72-.048 7.662-.048 10.492 0 2.775-.336 5.78-.336 9.044v.564c-.164.062-.313.143-.46.243-.59.384-.937.787-1.036.943.07-.015.043-.003-.018.06-.03.03-.025-.003.012-.06-.043.01-.066.02-.304.076-5.24 1.285-10.05 1.97-15.94 1.97-13.54 0-30.85-1.3-42.48-1.36v-1.72c.677-.2 1.363-.39 2.043-.58 3.454-.97 6.824-1.897 9.474-3.45.94-.54 1.383-1.65 1.07-2.688-.314-1.035-1.3-1.71-2.38-1.63-.364.025-.71.13-1.023.32-1.77 1.04-4.95 2.01-8.39 2.973-.26.073-.53.14-.79.215v-.09c0-2.284.34-4.68.34-7.43v-6.26c.782.604 1.713 1.12 2.82 1.464 2.53.785 6.543 1.94 10.04.808 2.55-.83 4.41-1.66 6.433-3.51.844-.77 1.305-1.625 1.83-2.605s1.04-2.07 1.54-3.08c.46-.935.907-1.79 1.3-2.41 1.263-.757 2.4-1.736 3.05-3.22.303-.66.24-1.44-.185-2.03-.426-.59-1.127-.9-1.847-.825-.73.08-1.367.545-1.65 1.22-.02.047-.064.09-.092.137-1.175.35-1.755 1.034-2.243 1.754-.155.077-.32.14-.49.216-1.605.717-3.705 1.38-5.766 2.317-1.167.523-4.388.67-7.646.38-2.784-.25-5.6-.69-7.78-.95.026-2.326.21-4.66.29-7.14.49-.153.91-.463 1.21-.898.48-.706.527-1.627.137-2.38-.276-.54-.745-.92-1.297-1.117V228.1c0-2.65.05-4.35.82-6.24 1.13-2.774 1.67-5.27 2.794-7.11 1.784-2.918 2.43-4.225 4.578-6.33 1.66-1.633 3.69-2.495 6.317-3.785 2.18-1.07 5.67-1.268 9.075-2.105.39-.1.82-.13 1.3-.14zm51.266 3.31c2.07 0 3.2.625 4.256 1.66.942.924 1.72 2.265 2.456 3.68-.03.07-.03.062-.09.164-.31.527-.96 1.316-1.68 2.06-.71.745-1.5 1.464-2.16 1.984-.5.39-1.115.657-1.13.7-2.17.49-3.78.26-5.674-.3-1.96-.58-4.17-1.553-6.987-2.105-.5-.1-.866-.276-1.255-.43 1.285-1.295 2.435-2.697 3.74-3.904 2.16-2 4.494-3.504 8.525-3.504zm-630.67 1.41c-.14.003-.29.02-.43.046-8.322 1.423-17.335.792-26.51.93-1.39.02-2.492 1.16-2.47 2.547.02 1.39 1.16 2.51 2.545 2.49 8.89-.136 18.156.524 27.29-1.04 1.28-.23 2.17-1.39 2.06-2.684-.11-1.3-1.19-2.29-2.487-2.29zm84.37 9.84c.615.284 1.26.542 1.936.762.032.09.084.177.152.303.047.09.086.196.166.306.08.11.32.34.32.34l.016.02c2.504 5.05 4.63 8.023 8.237 12.963 2.17 2.97 5.03 5.31 8.41 6.12 3.38.81 7.21-.26 10.19-3.326 3.19-3.27 6.61-6.58 9-8.694.76-.67 1.1-.91 1.57-1.28h.02c.486.02.94-.1 1.34-.332.36.25.767.536 1.24.9 1.54 1.2 3.58 2.91 5.737 4.7s4.437 3.67 6.59 5.22c2.15 1.544 4.042 2.792 6.115 3.323 1.47.38 2.61.64 3.906.49 1.296-.15 2.64-1.08 3.28-2.042 1.28-1.93 1.445-3.68 2.9-6.67 2.253-4.63 2.606-6.46 4.5-10.388l.487.012c-.075 1.14-.15 2.33-.15 3.6v20.06c0 1.375.214 9.175.474 16.763.13 3.79.265 7.433.395 10.05.053 1.12.11 1.995.165 2.683-.12-.01-.175-.013-.212-.013-.08-.004-.1 0-.124 0h-.09c-.04 0-.08-.004-.125 0-.09.003-.19.02-.34.03-.3.02-.722.042-1.236.075-1.03.067-2.422.154-3.902.244-2.96.18-6.362.365-7.506.365-5.26 0-10.353-.03-15.18-1.02-1.54-.317-3.11-.457-4.664-.488-.584-.017-1.16-.02-1.74 0-4.05.11-7.97.79-11.196.79h-28.59c-1.626 0-2.885-.015-3.906-.278-.23-.057-.46-.08-.69-.075.034-.51.05-.92.094-1.56.156-2.33.385-5.41.594-8.495.207-3.09.406-6.18.564-8.513.077-1.166.136-2.143.182-2.837.02-.35.046-.63.06-.825l.013-.23c.003-.06 0 .13 0-.24 0-2.46-.336-4.145-.336-6.085.32-10.585-.47-15.53.277-25.716v-.2c0-.174-.013-.5-.016-.716.24 0 .48-.012.7-.012.488.007 1.097.268.367-.07zm2.332 1.234c.042.085.083.135.123.216-.108-.15-.123-.22-.123-.22zm280.54.475c-.317 0-.6.05-.826.104-.89.222-1.46.59-1.51.61-.35.134-.663.37-.886.67-.536.738-1.218 1.655-1.116 3.217.052.783.54 1.77 1.312 2.29s1.605.655 2.516.655c.754 0 1.58-.184 2.242-.717.662-.53 1-1.317 1.097-1.937.197-1.237-.11-2.13-.29-2.837-.17-.68-.74-1.49-1.51-1.83-.387-.17-.723-.23-1.038-.23zm397.67 0c-.315 0-.6.05-.823.104-.89.222-1.44.59-1.49.61-.35.134-.66.37-.88.67-.532.738-1.213 1.655-1.112 3.217.05.783.54 1.77 1.31 2.29.776.52 1.62.655 2.535.655.752 0 1.56-.184 2.224-.717.663-.53 1-1.317 1.1-1.937.195-1.237-.127-2.13-.307-2.837-.17-.68-.725-1.49-1.495-1.83-.386-.17-.74-.23-1.054-.23zm-672.138.333c1.052.12 2.125.205 3.218.29 4.335.335 8.874.415 12.57.61 4.204.22 8.6.29 13.06.274-.645.49-1.323 1.083-2.15 1.814-2.557 2.26-6.008 5.63-9.26 8.97-2.013 2.067-3.647 2.35-5.445 1.92-1.8-.43-3.85-1.925-5.506-4.193-2.916-3.99-4.676-6.405-6.484-9.686zm58.743.564c1.01-.01 2 0 2.97 0-1.25 2.866-1.8 4.724-3.53 8.266-1.575 3.236-2.26 5.414-2.49 5.89-.204-.003-.732-.02-1.845-.304-.62-.16-2.46-1.136-4.425-2.547-1.962-1.41-4.18-3.234-6.314-5.004-2.13-1.77-4.17-3.494-5.856-4.804-.46-.36-.9-.684-1.314-.98 7.887-.154 15.73-.46 22.79-.52zM684 228.708c-.27 0-.5.046-.69.094-.76.19-1.25.5-1.3.517-.3.12-.56.32-.75.58-.456.633-1.063 1.41-.976 2.746.044.67.483 1.51 1.144 1.952.66.442 1.373.562 2.15.562.646 0 1.34-.16 1.91-.61.565-.46.86-1.14.944-1.67.17-1.06-.12-1.82-.276-2.428-.148-.577-.61-1.267-1.268-1.558-.33-.146-.63-.197-.9-.2zm-443.68 2.67c-.59-.04-1.39.124-2 .596-.61.474-.94 1.14-1.08 1.694-.44 1.74-.19 3.31.9 4.743.54.72 1.58 1.505 2.9 1.45 1.31-.055 2.28-.853 2.91-1.71.203-.28.36-.613.423-.96.42-2.096-.563-3.672-1.694-4.712-.566-.52-1.185-1.02-2.366-1.1zm307.99 3.266c-1.11.063-2.026.854-2.185 1.906-2.557 15.533-2.41 35.588-2.41 52.568 0 7.375-.15 14.776-.288 22.193-.06.057-.13.11-.185.17-.12.03-.105.047-.306.078-.84.13-2.235.202-3.72.23-2.97.054-6.35-.06-8.038-.06-6.932 0-14.312-1.45-21.964-1.45-4.9 0-9.83-.49-14.812-.49-2.036 0-3.975.983-4.972 2.38-.997 1.4-1.267 2.935-1.42 4.454-.3 3.037.027 6.32-.272 8.13-.5 3.03-.532 6.11-.52 9.06-.007.06-.026.123-.03.185-.05.717-.01 1.42.03 2.042v.713h.046c.01.16.014.323.014.458 0 .518.03.34-.01.506-.268.85-.048 1.78.58 2.41.625.63 1.546.86 2.393.6.85-.26 1.49-.97 1.65-1.84.147-.582.17-1.17.17-1.662 0-.456-.02-.936-.03-1.387v-.11c-.016-3.554-.08-7.11.44-10.236.474-2.88.075-6.13.304-8.435.113-1.152.4-1.973.624-2.287.225-.317.19-.384 1.007-.384 4.65 0 9.593.472 14.813.472 6.99 0 14.365 1.462 21.964 1.462 1.41 0 4.967.12 8.148.06 1.46-.028 2.81-.086 4.01-.244-.06 3.97-.12 7.93-.12 11.91 0 2.94-.46 5.44-.46 8.71 0 1.362.42 2.252.52 2.73.118.83.71 1.53 1.53 1.814.82.286 1.738.11 2.38-.456.64-.57.9-1.44.67-2.245-.22-1.05-.41-1.65-.41-1.844 0-2.82.456-5.335.456-8.71 0-12.92.474-25.91.474-38.93 0-17-.08-36.95 2.38-51.86.12-.675-.075-1.355-.55-1.86-.475-.51-1.18-.79-1.89-.75zm198.834 0c-1.11.063-2.01.854-2.167 1.906-2.56 15.533-2.44 35.588-2.44 52.568 0 7.375-.125 14.776-.26 22.193-.06.057-.128.11-.184.17-.12.03-.137.047-.338.078-.84.13-2.22.202-3.71.23-2.973.054-6.353-.06-8.04-.06-6.936 0-14.33-1.45-21.984-1.45-4.9 0-9.814-.49-14.8-.49-2.036 0-3.96.983-4.956 2.38-.995 1.4-1.283 2.935-1.433 4.454-.3 3.037.02 6.32-.277 8.13-.6 3.633-.52 7.35-.502 10.816v.016c-.02.224-.05.445-.06.672-.03.584-.03 1.192-.03 1.676 0 .67.13 1.004.168 1.023.18.836.81 1.514 1.63 1.77.847.262 1.767.033 2.394-.596.63-.63.85-1.564.58-2.41-.013-.057-.005-.035-.014-.076 0-.29.02-.59.03-.88h.09v-.93c.1-.39.096-.79 0-1.17v-.015c-.01-3.188-.004-6.346.46-9.153.473-2.88.074-6.13.303-8.433.115-1.154.4-1.975.626-2.29.224-.314.175-.38.99-.38 4.65 0 9.58.474 14.8.474 6.99 0 14.38 1.46 21.98 1.46 1.41 0 4.964.12 8.145.064 1.458-.03 2.826-.086 4.028-.245-.062 3.97-.122 7.932-.122 11.91 0 2.94-.456 5.44-.456 8.71 0 1.363.42 2.253.52 2.73.114.83.705 1.53 1.526 1.815.82.285 1.74.11 2.38-.457.645-.57.9-1.44.67-2.245-.22-1.05-.43-1.656-.43-1.85 0-2.823.477-5.337.477-8.71 0-12.92.474-25.91.474-38.93 0-17-.077-36.95 2.38-51.863.123-.673-.104-1.353-.58-1.86-.475-.51-1.162-.79-1.875-.75zm198.85 0c-1.11.063-2.023.854-2.18 1.906-2.56 15.533-2.426 35.588-2.426 52.568 0 7.375-.156 14.776-.29 22.193-.06.057-.11.11-.167.17-.12.03-.12.047-.32.078-.835.13-2.22.202-3.703.23-2.975.054-6.357-.06-8.04-.06-6.935 0-14.33-1.45-21.98-1.45-4.904 0-9.83-.49-14.815-.49-2.036 0-3.943.983-4.94 2.38-.996 1.4-1.28 2.935-1.434 4.454-.3 3.037.025 6.32-.273 8.13-.6 3.638-.535 7.36-.52 10.83v1.178h.02c-.006.12 0 .197-.015.335-.067.62-.196 1.42-.047 2.41 0 .024-.004.08-.03.184-.255.842-.027 1.773.595 2.395.62.623 1.538.85 2.38.595.843-.253 1.474-.95 1.648-1.814.108-.44.29-1.14.136-2.06-.01-.08-.005-.58.06-1.19.064-.58.207-1.22.05-2.18-.016-3.46-.046-6.91.455-9.95.474-2.88.08-6.13.304-8.44.115-1.156.4-1.977.626-2.29.225-.316.176-.38.993-.38 4.646 0 9.59.472 14.81.472 6.99 0 14.38 1.46 21.98 1.46 1.41 0 4.964.12 8.144.06 1.46-.028 2.81-.086 4.012-.244-.063 3.97-.108 7.933-.108 11.91 0 2.94-.49 6.066-.49 9.337 0 1.364.433 2.254.533 2.73.11.828.688 1.53 1.51 1.815.82.288 1.75.11 2.395-.46.642-.563.902-1.432.67-2.24-.22-1.05-.427-1.65-.427-1.842 0-2.82.473-5.96.473-9.336 0-12.918.476-25.907.476-38.928 0-17-.09-36.95 2.366-51.866.12-.675-.073-1.356-.55-1.86-.475-.51-1.162-.79-1.875-.75zm-705.178.46c.3-.015.555.08.746.18-.1.17-.12.3-.32.46-.1.08-.213.1-.323.15l-.795-.58c-.06.04-.07.06-.016-.01l.014.02c.09-.062.307-.196.687-.212zm249.752 7.975c-.216.45-.424.906-.626 1.3-.545 1.06-1.13 1.88-1.19 1.936-1.944 1.85-3.036 2.29-5.96 3.28-.324.11-3.41.193-6.226-.213-2.59-.372-5.216-.964-6.514-1.342-.073-1.496-.24-2.906-.382-4.27 2.264.298 5.265.818 8.33 1.114 3.704.36 7.51.516 10.736-1.006.587-.27 1.195-.53 1.83-.79zm-249.236 2.41c-.134-.004-.26.01-.395.015-.177.01-.347.02-.52.047-.684.106-1.334.353-1.936.704-.6.35-1.252.833-1.63 1.846-.377 1.01.036 2.52.75 3.233l.823.82c.606.61 1.13 1.06 1.845 1.41.713.35 2.004.598 3.05-.102 1.043-.7 1.243-1.685 1.31-2.306.02-.16-.03-.266-.03-.413.602-.455.954-1.165.945-1.92-.005-.75-.37-1.48-.973-1.922.05-.022-.43-.834-1.967-1.22-.438-.11-.86-.17-1.268-.183zm448.38 3.524c-.17.34-.33.69-.49.99-.45.84-.94 1.46-.99 1.51-1.61 1.47-2.52 1.83-4.94 2.62-1.39.45-5.387-.14-7.55-.81-1.998-.62-2.788-1.79-3.74-3.71 1.86.25 4.14.582 6.45.79 3.47.313 6.9.52 9.66-.732.51-.23 1.05-.456 1.604-.67zm-43.703 2.62c.11.02.092.08.045.06l-.09-.05c.006 0 .04-.02.045-.017zm195.235 16.67c.05-.01.066.03.033.04-.01.003-.108.023-.124.03.008-.005.024-.04.03-.047.026-.014.045-.026.06-.03zM221.41 277.9h.076c.004.04.006.072-.03.212-.016-.077-.033-.14-.048-.216zm405.224.52c-4.165 0-7.53 2.21-9.9 4.086-.92.727-1.543 1.308-2.138 1.83-1.438-1.367-2.96-2.237-4.53-2.623-2.084-.515-4.056-.146-5.75.425-3.39 1.142-6.098 2.852-8.314 2.852-1.285 0-2.337 1.02-2.337 2.3 0 1.28 1.05 2.335 2.333 2.335 4.142 0 7.29-2.254 9.79-3.096 1.25-.43 2.233-.56 3.173-.32.94.23 2.04.84 3.43 2.56.57.69 1.72.97 2.31.88.58-.09.87-.27 1.11-.41.49-.29.79-.557 1.16-.87.75-.64 1.62-1.44 2.64-2.247 2.04-1.61 4.577-3.08 7.02-3.08 2.845 0 6.468 3.63 9.597 6.09.647.555 1.538.713 2.335.41.8-.306 1.358-1.03 1.465-1.877.108-.848-.236-1.686-.93-2.183-2.372-1.86-6.513-7.075-12.463-7.075zm166.725.882c-1.23.124-2.16 1.192-2.09 2.423.06 1.232 1.08 2.212 2.32 2.212 4.14 0 11.91 1.56 19.87 3.187 7.96 1.63 16.18 3.33 22.24 3.404 1.28.017 2.32-1.023 2.336-2.303.015-1.28-.994-2.316-2.274-2.332-5.215-.068-13.41-1.67-21.355-3.298-7.95-1.63-15.61-3.296-20.82-3.296-.08-.01-.15-.01-.23 0zm-341.1.487c-.01.01-.03.04-.12.04.016-.007.11-.047.12-.048zm279.363 0c.05 1.17.143 2.36.32 3.58.28 1.92.32 3.93.32 6.13 0 .48.05.734.11 1.25.06.51.115 1.15.213 1.89.193 1.482.46 3.363.716 5.25.22 1.58.407 3.082.58 4.45-.78.683-3.79 1.676-6.94 1.723-3.22.05-6.59-.79-7.78-1.66-1.713-1.263-3.665-1.76-5.29-1.33-1.627.436-2.62 1.39-3.433 2.11-.81.713-1.447 1.23-1.983 1.432-.54.2-1.046.31-2.29-.215-2.39-1.004-3.585-1.737-4.07-2.104-.243-.18-.29-.275-.26-.24-.03-.072-.024-.083-.18-.29-.26-.337-1.31-1.015-2.17-.9-.86.116-1.064.416-1.19.518-.124.107-.15.14-.17.156-.06.06.035-.03-.06.03-.185.125-.91.55-2.73 1.146-.836.272-1.396.502-1.71.563-1.554.3-4.015-.25-6.02-1.04-1.01-.4-1.9-.83-2.57-1.16-.332-.166-.6-.31-.852-.43-.13-.06-.238-.097-.444-.17-.104-.035-.21-.096-.504-.137-.15-.02-.344-.043-.7.014-.337.054-.924.22-1.39.747.03-.046-.13.116-.38.26-.336.196-.83.444-1.42.69-1.18.49-2.72.982-4.15 1.266-1.428.284-2.79.317-3.37.18-.154-.034-.106-.012-.14-.03-.08-.805-.574-1.48-1.25-1.83.16-1.61.32-3.416.49-5.37.397-4.555.78-8.98.78-10.646 0-1.645-.11-3.294-.21-4.88 11.297.067 28.583 1.34 42.36 1.34 6.25 0 11.514-.733 17.04-2.09.254-.06.495-.126.73-.21zm-78.268.44c-.01.01-.035.05-.124.04.02-.007.11-.047.12-.048zM424.46 284c-10.986 0-21.814.96-32.553.943-1.28 0-2.334 1.025-2.334 2.305s1.05 2.336 2.33 2.336c11.015.01 21.84-.95 32.553-.95 2.036 0 3.67.04 5.184.414 1.244.31 2.5-.463 2.81-1.706.31-1.244-.45-2.483-1.696-2.792-2.19-.533-4.24-.545-6.3-.545zm110.82.03v.044c0 3.26.54 6.926.06 8.8-.15.595-.13.835-.152 1.282-.02.445-.03.99-.03 1.584-.005 1.19.02 2.637.06 4.09.045 1.45.1 2.89.17 4.07 0 .058-.003.088 0 .14-1.673.174-2.912.55-4.043.55-5.666 0-11.79-.96-18.106-.96h-26.01c-5.38 0-12.29.266-16.78.304-.04-1.235-.09-2.967-.14-4.88-.1-3.995-.2-8.617-.2-9.49v-4.18c3.2-1.09 10.69-.984 18.46-.275 7.98.73 16.39 1.87 22.33 1.87 7.55 0 13.97-2.03 19.92-2.03 1.67 0 3.162-.5 4.453-.93zm397.687 0v.044c0 3.26.554 6.926.076 8.8-.15.595-.13.835-.156 1.282-.02.445-.04.99-.04 1.584-.007 1.19.02 2.637.06 4.09.04 1.45.113 2.89.183 4.07.003.058-.003.088 0 .14-1.68.173-2.925.55-4.057.55-5.668 0-11.806-.96-18.123-.96H884.9c-5.38 0-12.275.266-16.764.304-.04-1.235-.09-2.967-.14-4.88-.1-3.995-.2-8.617-.2-9.49v-2.61c.18-.144.37-.272.55-.426.683-.58 1.468-1.16 2.304-1.728 3.82-.436 9.623-.24 15.59.305 7.985.73 16.408 1.875 22.347 1.875 7.552 0 13.953-2.028 19.906-2.028 1.674 0 3.18-.504 4.47-.93zm-473.028 5.154c-.21-.005-.42.01-.63.06-2.516.617-5.138.885-8.07.885-10.99 0-21.45 1.4-32.064 1.4-11.387 0-22.87-.447-34.46-.447-7.564 0-17.988-.907-24.588-.488-1.297.08-2.27 1.17-2.187 2.44.09 1.266 1.2 2.232 2.49 2.15 5.83-.37 16.37.472 24.29.472 8.78 0 17.563.27 26.373.395-.02 4.574-.456 12.734-.456 18.95v12.48c-.187.194-.45.44-.825.764-.888.76-2.158 1.725-3.464 2.7-1.304.972-3.36 4.464-4.44 5.245-.34.25-.603.45-.883.658-.96-.124-1.89.336-2.35 1.173-.46.836-.357 1.87.275 2.59.026.036.024.06.076.137.106.155.205.403.84.79.32.193.864.424 1.51.365.616-.06 1.144-.36 1.45-.64-.01.004.003-.01.044-.05.08-.064.276-.207.487-.366.34-.255.797-.59 1.33-.978 1.07-.773 3.16-4.274 4.5-5.277 1.03-.763 2.03-1.532 2.917-2.257.68.66 1.452 1.14 2.242 1.63 2.24 1.4 5.194 4.26 5.75 4.94.434.536.893 1.164 1.4 1.83.5.67 1.346 1.025 2.184.93.837-.095 1.548-.64 1.876-1.404.328-.764.196-1.634-.32-2.29-.45-.588-.92-1.25-1.48-1.937-1.843-2.264-5.003-4.758-6.91-5.95-.722-.45-1.025-.744-1.28-.976.358-.722.29-1.565-.153-2.24-.04-.054-.08-.115-.125-.166V315c0-5.975.465-14.04.488-18.9 1.14.01 2.266.018 3.404.018 11.027 0 21.486-1.405 32.063-1.405 3.21 0 6.24-.266 9.2-.99 1.16-.26 1.95-1.36 1.82-2.52-.13-1.16-1.13-2.023-2.32-2.03zm198.83 0c-.212-.005-.42.01-.625.06-2.516.617-5.124.885-8.055.885-10.99 0-21.46 1.4-32.08 1.4-11.38 0-22.87-.447-34.46-.447-7.56 0-17.98-.907-24.59-.488-1.29.08-2.25 1.17-2.16 2.44.088 1.266 1.198 2.232 2.49 2.15 5.824-.37 16.35.472 24.27.472 8.78 0 17.58.27 26.39.395-.023 4.574-.49 12.734-.49 18.95v12.48c-.186.194-.433.44-.808.764-.89.76-2.16 1.725-3.464 2.7-1.308.972-2.664 3.2-3.74 3.98-.34.246-.59.45-.87.655-.96-.12-1.888.355-2.348 1.19-.46.84-.36 1.87.27 2.595.028.033.04.06.09.134.108.155.19.403.826.792.317.194.88.425 1.526.366.616-.056 1.145-.36 1.45-.64l.045-.045c.08-.064.26-.22.472-.38.33-.253.79-.59 1.32-.977 1.066-.775 2.423-3.01 3.77-4.013 1.024-.76 2.042-1.53 2.93-2.255.68.66 1.45 1.14 2.24 1.63 2.24 1.404 5.74 3.35 4.867 3.34-.1 0 .896 1.15 1.404 1.817.5.67 1.33 1.026 2.17.93.837-.094 1.55-.624 1.876-1.387.33-.765.227-1.65-.29-2.305-.45-.59-.934-1.25-1.493-1.94-1.843-2.264-4.103-3.14-6.01-4.333-.72-.45-1.026-.743-1.28-.975.36-.72.292-1.564-.155-2.24-.04-.054-.08-.115-.125-.166v-11.71c0-5.977.434-14.04.456-18.9 1.14.01 2.28.015 3.42.015 11.03 0 21.503-1.4 32.08-1.4 3.21.002 6.24-.263 9.2-.99 1.156-.26 1.913-1.358 1.783-2.517-.13-1.16-1.118-2.027-2.305-2.03" fill="#fff"/></g></svg>