<svg viewBox="0 0 948 342" xmlns="http://www.w3.org/2000/svg"><g fill-rule="evenodd"><path d="M110.457 66.238c-23.36.117-46.685 1.68-70.05 1.212-5.353-.027-15.382-1.626-14.21 6.58-.508 27.217-1.793 54.418-1.99 81.64-.744 11.202-.553 43.02 6.464 52.663 9.83 14.492 25.29 6.41 43.73 6.345 20.63.09 40-7.826 59.75-12.514 7.7-2.612 7.17-12.252 8.16-18.726 1.55-20.13-.55-40.288-.66-60.415.77-16.89 5.2-33.986 1.38-50.8-3.69-6.385-12.68-4.943-19.06-5.768-4.492-.183-8.99-.226-13.49-.217" fill="#c7e660"/><path d="M503.83 18.185c-15.516 24.17-2.51 42.83 31.21 42.06 4.92-.88 8.73-3.666 11.39-7.2 2.66-3.53 4.304-7.837 5.254-12.287 1.9-8.902 1.206-18.268-1.837-23.902-3.78-6.998-12.032-9.895-20.004-10.063-7.973-.17-16.03 2.072-21.08 6.153-1.97 1.59-3.598 3.363-4.933 5.24" fill="#faeb7d"/><path d="M658.055 290.715c-30.045 17.994-4.863 31.885 60.437 31.313 9.522-.657 16.903-2.73 22.052-5.36 5.15-2.63 8.335-5.835 10.174-9.15 3.677-6.625 2.336-13.598-3.556-17.793-7.318-5.21-23.298-7.365-38.737-7.49-15.438-.127-31.038 1.54-40.818 4.58-3.813 1.184-6.967 2.503-9.552 3.9" fill="#ffbfa7"/><path d="M670.57 8.904c-23.237 18.876-3.762 33.447 46.744 32.85 7.365-.69 13.074-2.865 17.056-5.624 3.983-2.76 6.446-6.122 7.87-9.597 2.843-6.952 1.805-14.267-2.752-18.667-5.66-5.465-18.02-7.727-29.96-7.86-11.94-.13-24.007 1.62-31.57 4.807-2.95 1.242-5.388 2.626-7.388 4.09" fill="#be9f81"/><path d="M898.295 94.985c34.812 21.522 5.635 38.135-70.027 37.452-11.033-.787-19.584-3.265-25.552-6.41-5.966-3.145-9.657-6.982-11.787-10.943-4.26-7.926-2.71-16.266 4.12-21.282 8.48-6.232 26.99-8.81 44.88-8.962 17.88-.15 35.96 1.847 47.29 5.48 4.41 1.417 8.07 2.994 11.06 4.665M508.76 251.22c-18.347 25.935-2.97 45.955 36.904 45.13 5.815-.945 10.322-3.934 13.466-7.722 3.145-3.79 5.09-8.413 6.213-13.186 2.245-9.55 1.426-19.6-2.173-25.647-4.467-7.507-14.226-10.615-23.654-10.796-9.427-.19-18.953 2.22-24.925 6.6-2.32 1.7-4.25 3.6-5.83 5.62" fill="#c0cae0"/><path d="M696.577 1.045c-1.717.002-3.3.803-4.882 2.12-1.36 1.135-2.33 2.474-3.066 3.83-.74-1.016-1.54-1.936-2.49-2.595-1.46-1-3.41-1.603-5.28-.838-1.48.605-2.46 1.93-3.04 3.555-2.37-1.357-5.06-1.414-6.96-.2-2.13 1.363-3.28 3.622-3.74 5.996-.46 2.374-.21 5.02 1.31 7.2.99 1.42 2.56 2.484 4.5 2.974-.15.138-.27.257-.41.397-1.49 1.414-3.05 2.885-3.89 4.943-1.44 3.513-3.22 7.267-4.06 11.393-.67 3.252-1.06 6.345-1.06 9.84 0 .657-.03 1.408-.06 2.197-.207-.014-.4-.034-.61-.047-1.876-.113-3.934-.168-5.417-.213-.075-.004-.14-.004-.213 0-1.28.025-2.314 1.068-2.29 2.348.026 1.282 1.1 2.314 2.38 2.29 1.503.045 3.51.09 5.263.198.342.02.66.052.975.076.077.71.202 1.43.38 2.13.48 1.87.596 4.5.596 6.86 0 3.56.654 6.53.654 9.36v8.08c0 2.9.32 5.67.32 8.08v3.752c-2.57-.87-4.735-1.096-6.802-1.283-2.136-.19-4.216-.35-7.152-1.14-3.164-.855-5.91-.985-7.706-1.47-.23-.065-.467-.096-.7-.09-.24.01-.47.05-.69.123-.757-.87-1.673-1.555-2.67-2.27-1.24-.89-2.593-1.75-3.72-2.47-.51-.327-.61-.42-.993-.688-.04-1.12-.935-2.025-2.06-2.075-.32-.02-.61-.024-1.002.045-.393.07-1.063.18-1.647 1.01-.585.823-.37 1.95-.14 2.41.23.46.44.654.64.852.78.76 1.67 1.305 2.76 2-.27-.06-.65-.17-.88-.213-.655-.13-1.04-.2-1.66-.188-.158.005-.326-.015-.61.062-.29.075-.798.21-1.27.883-.47.678-.4 1.73-.2 2.187.208.45.41.615.55.747.568.534.81.583 1.21.78.4.196.85.384 1.353.594 1.176.49 2.45.98 3.66 1.39-.634.32-1.11.52-1.69.9-.92.61-1.42 1.01-1.59 1.11-.16.11-.06.1-.65.17-.8.05-1.51.54-1.83 1.27-.33.73-.22 1.59.27 2.21.496.63 1.3.948 2.09.8.9-.112 1.77-.394 2.394-.78.622-.384.94-.69 1.693-1.19.52-.346 2.574-1.197 4.085-2.18.38-.245.738-.51 1.116-.93.35-.39.823-1.08.76-2.044.07.022.14.04.21.06 2.576.692 5.137.772 7.7 1.462 3.32.89 5.84 1.104 7.95 1.296 2.11.19 3.78.367 5.95 1.13.42.166.855.19 1.28.11.044 1.95.256 3.903.06 4.664-.56 2.196-.4 4.218-.394 5.965-1.396.946-2.83 1.84-4.15 2.96-.07.053-.14.12-.2.18-.365-.94-1.11-1.354-1.6-1.556-.52-.21-.956-.278-1.404-.337-1.794-.235-4.034-.135-4.682-.23-.91-.13-1.35-.27-2.073-.35-.727-.08-1.61.04-2.47.32-1.134.37-1.756 1.585-1.39 2.72.2.62.65 1.074 1.205 1.31-10.07.184-19.75 1.39-29.542 1.39-4.662 0-9.353-.095-14.05-.186l-1.707.075-.88-.125c-5.913-.12-11.846-.245-17.815-.245-7.563 0-17.972-.89-24.573-.473-1.29.08-2.27 1.17-2.18 2.44.08 1.265 1.18 2.23 2.47 2.15 5.82-.37 16.36.47 24.28.47 8.78 0 17.56.286 26.37.413-.02 4.57-.456 12.7-.456 18.915v12.477c-.187.195-.45.44-.825.765-.886.765-2.156 1.744-3.46 2.718-1.306.977-3.043 2.84-4.12 3.62-.34.248-.605.436-.885.64-.96-.122-1.905.353-2.365 1.19-.46.838-.34 1.873.29 2.595.03.037.04.06.094.138.105.155.204.403.84.79.314.196.863.426 1.51.37.614-.057 1.143-.36 1.446-.64-.01.005.003-.007.045-.047.076-.06.26-.22.47-.38.337-.25.794-.59 1.327-.972 1.064-.775 2.834-2.613 4.18-3.616 1.023-.764 2.025-1.53 2.91-2.256.68.658 1.453 1.123 2.24 1.617 2.244 1.4 4.27 2.55 4.82 3.23.44.54.898 1.166 1.405 1.83.496.67 1.33 1.03 2.164.93.84-.09 1.55-.62 1.88-1.387.328-.763.21-1.633-.304-2.288-.45-.59-.92-1.25-1.48-1.94-1.845-2.26-4.06-3.08-5.966-4.27-.72-.45-1.04-.73-1.295-.96.36-.725.29-1.584-.155-2.26-.036-.055-.065-.1-.106-.15v-11.73c0-5.98.45-14.014.475-18.87 1.133.006 2.26.014 3.4.014 10.904 0 21.28-1.39 31.74-1.42-.15.194-.304.427-.484.9-.07.186-.155.412-.136.916.02.504.43 1.46 1.13 1.846.7.387 1.206.296 1.495.243.29-.05.454-.12.595-.18.57-.25.866-.478 1.404-.87.227-.17.576-.468.84-.675-.7 1.136-1.28 1.998-1.664 3.056-.094.267-.21.53-.21 1.053-.007.52.34 1.63 1.202 2.103.87.472 1.51.29 1.89.18.39-.106.65-.23.936-.383 1.01-.527 1.44-1.75.976-2.79.22-.39.263-.507.565-.993.7-1.124 1.532-2.455 2.26-3.783.572-1.052 1.09-2.06 1.39-3.158.442-.06.882-.24 1.23-.55.32-.27.7-.55 1.114-.84-.033.64-.087 1.59-.182 2.85-.14 1.785-.32 3.96-.506 6.01-.18 2.048-.354 3.987-.49 5.247-.045.4-.06.557-.09.795v.016l-.02.03c-.003.025 0 .03 0 .05-.085.244-.133.5-.136.76 0 .1 0 .17.02.35.01.096-.01.2.12.58.032.1.057.21.152.38.095.175.593.675.594.675l1.56.502s1.066-.294 1.326-.502c.3-.24.48-.42.6-.562.52.3 1.093.472 1.63.592.1.025.186.044.29.06-.575.68-1.19 1.425-1.864 2.336-2.03 2.75-4.16 6.646-4.16 11.623 0 2.22.003 5.62.073 8.62.036 1.5.086 2.893.154 4.01.03.56.07 1.06.12 1.48.05.43.01.655.29 1.343.44 1.2 1.757 1.8 2.96 1.354 1.203-.44 1.83-1.76 1.39-2.96.006.013-.027-.107-.05-.29-.03-.285-.06-.697-.09-1.206-.06-1.02-.12-2.375-.15-3.843-.07-2.94-.06-6.32-.06-8.514 0-3.66 1.536-6.535 3.263-8.878.867-1.17 1.75-2.18 2.52-3.097.63-.753 1.27-1.264 1.63-2.38 1.507-.344 2.97-.824 4.227-1.33.75-.3 1.43-.61 2.03-.943l.132-.076c.183.087.422.207.64.305-1.65 1.11-2.96 2.733-3.95 4.47-1.71 3-2.697 6.53-3.16 9.703-.16 1.093-.312 2.194-.47 3.292-.55 3.783-.877 8.56.045 12.187.17.84.786 1.507 1.605 1.753.82.246 1.7.025 2.302-.58.602-.606.83-1.486.58-2.304-.574-2.25-.434-6.997.06-10.39.16-1.1.33-2.2.49-3.296.392-2.71 1.29-5.82 2.576-8.08 1.29-2.26 2.73-3.465 4.365-3.57.76-.02 1.432-.425 1.845-1.05 1.49.28 3.087.367 4.7.06 1.06-.2 1.802-.56 2.302-.72 1.25-.39 2.082-.72 2.76-1.032.992.71 2.512 1.51 5.14 2.58 2.124.865 4.17.886 5.765.307 1.6-.58 2.673-1.575 3.494-2.274.82-.7 1.38-1.053 1.615-1.113.23-.06.43-.173 1.49.58 2.86 2.027 6.86 2.59 10.83 2.534 3.36-.05 6.65-.475 9.14-2.076.06.342.13.672.2.942.186.82.79 1.47 1.6 1.705.81.235 1.69.017 2.29-.58.598-.596.827-1.48.59-2.29.02.058-.212-1.01-.41-2.226-.192-1.215-.424-2.77-.64-4.3-.21-1.53-.4-3.04-.52-4.225-.06-.59-.102-1.115-.12-1.465-.01-.17.008-.352.017-.422.81-3.51.016-7.24.016-9.707 0-3.34-.176-6.493.3-9.32.52-3.05.35-6.02.35-8.77 0-2.89.997-6.25.997-10.02 0-4.01.325-8.012.325-12.293-.005-3.45 0-6.893 0-10.342-.005-3.28-.325-6.49-.325-9.38 0-3.587-.548-6.635-1.39-9.946-.48-1.89-.706-3.753-1.315-6.144-.71-2.793-2.38-4.478-3.14-5.98-1.26-2.477-2.92-4.185-4.18-5.843-.85-1.107-1.938-2.064-3.05-2.897.19-.36.36-.705.58-1.1.77-1.37 1.62-2.9 2.19-4.53.574-1.622 1.016-3.65-.183-5.52-1.2-1.865-3.48-2.514-6.194-2.514-3.244 0-5.732 1.393-7.61 3.094-.076-.31-.12-.63-.213-.917-.8-2.39-2.49-4.084-4.35-4.806-1.857-.72-3.757-.59-5.34 0-1.58.59-3.075 1.63-3.57 3.6-.216.87-.33 1.116-.52 1.817-.48-1.574-1.096-3.18-2.285-4.575-.916-1.08-2.415-2.03-4.13-2.03zm.015 4.774c.145 0 .162-.04.488.35.65.76 1.475 3.09 2.028 5.18.122.46.25.89.366 1.32-2.314-.09-4.92-.16-7.505.47-.18.04-.38.06-.57.1.04-.22.1-.44.17-.684.47-1.92 1.48-4.34 3.17-5.75 1.08-.9 1.7-1.008 1.84-1.01zm13.133.71c.34-.01.685.02.976.13.59.22 1.12.62 1.54 1.89.33.96.51 2.46.29 4.61-.92-.03-1.66-.11-2.04-.26-.89-.35-1.75-.52-2.58-.58-.43-.04-.85-.04-1.25-.03.42-1.3.9-2.97 1.45-5.17.03.02.22-.27.66-.43.29-.11.62-.16.96-.17zM682.68 7.97c.06.005.29.052.748.367 1.156.796 2.75 3.23 2.912 6.01-.82.237-1.635.52-2.41.9-.397.195-.912.41-1.495.656.398-1.138.225-2.173-.167-3.463-.092-.3-.322-.622-.458-.93.084-.667.128-1.23.305-2.12.266-1.332.62-1.442.565-1.42zm41.918 1.663c1.625 0 2.077.292 2.15.336.002-.05-.002-.05.016-.02.01.02 0 .02-.015.01-.01.12 0 .55-.28 1.34-.37 1.04-1.1 2.43-1.86 3.78-.17.29-.33.57-.49.85-1.77-.99-3.61-1.85-5.75-2.41l.12-.2c1.33-1.96 3.18-3.71 6.1-3.71zm-50.506.976c.077-.02.157-.01.243 0 .346.03.794.25 1.495.77.47.35.733.69 1.008 1.02-.09 1.11-.066 2.02.045 2.79.11.76.047 1.49 1.206 2.41.1.08.23.15.36.21-.47.28-.92.6-1.35.99-.36-.17-.75-.27-1.18-.23-2.23.18-3.02-.4-3.59-1.21-.565-.81-.796-2.2-.535-3.56.26-1.353 1.014-2.51 1.616-2.897.228-.148.425-.28.656-.32zM507 12.3c-.387.01-.745.04-1.098.076-1.418.144-2.628.365-3.875.365-2.788 0-6.288-.45-9.763.4-2.006.49-5.295.76-8.04 2.11-.852.42-2.255.95-3.675 1.62-1.42.68-2.93 1.45-4.06 2.93-.72.93-2.18 2.28-3.66 3.69-1.49 1.42-3.06 2.87-3.89 4.93-1.43 3.52-3.22 7.29-4.06 11.41-.66 3.26-1.06 6.35-1.06 9.84 0 .66-.04 1.41-.06 2.2-.21-.01-.4-.03-.61-.04-1.88-.112-3.94-.182-5.42-.227-.08-.006-.14-.006-.22 0-1.28.023-2.317 1.08-2.29 2.36.022 1.283 1.1 2.3 2.38 2.275 1.5.046 3.51.107 5.26.215.35.02.66.05.974.075.076.714.2 1.433.38 2.134.48 1.87.58 4.48.58 6.85 0 3.56.67 6.54.67 9.38v8.08c0 1.67.092 3.286.184 4.82-.26-.07-.515-.09-.79-.06-2.85.135-5.026.768-7.08 1.39-2.055.626-4.045 1.236-7.06 1.605-3.25.4-5.858 1.33-7.706 1.558-.49.03-.947.206-1.31.504-1.018-.51-2.11-.8-3.28-1.085-1.488-.36-3.06-.636-4.38-.883-.587-.11-.708-.144-1.16-.247-.366-.836-1.225-1.364-2.136-1.296-.198.01-.38.053-.57.12-.31.103-.59.23-.93.44-.34.21-.915.54-1.147 1.523-.23.985.375 1.966.763 2.305.383.34.666.445.93.55.994.41 2.033.58 3.29.81-.26.044-.655.095-.882.14-.66.125-1.05.192-1.62.44-.142.06-.3.13-.534.305-.236.18-.67.498-.853 1.298-.04.18-.043.36-.03.54-5.137-5.95-10.893-12.094-13.453-16.855-.41-.8-1.236-1.3-2.135-1.3-.846.005-1.62.447-2.046 1.177-.427.73-.44 1.64-.03 2.38 3.87 7.196 12.08 15.05 17.48 21.8 2.97 3.71 5.544 6.96 9.03 10.45.04.04.08.085.122.12-6.38.405-12.657.916-18.994.916-8.213 0-16.48-.248-24.8-.38 1.755-.215 3.63-.428 4.346-.428h17.235c.86.01 1.656-.43 2.09-1.174.433-.745.433-1.68 0-2.427-.434-.745-1.23-1.188-2.09-1.177H398.7c-1.1 0-2.46.15-3.813.32-.447-.512-1.09-.8-1.77-.81-.66 0-1.284.27-1.74.75-.36.04-.813.117-1.48.38-.204.086-.372.16-.61.29-.116.07-.26.148-.456.308-.19.16-.502.36-.76 1.116-.25.75.15 2.11.67 2.577.1.082.17.14.25.2-1.43-.014-2.855-.017-4.29-.017-7.564 0-17.99-.894-24.59-.476-1.29.086-2.264 1.175-2.18 2.44.084 1.27 1.196 2.237 2.486 2.15 5.83-.37 16.37.477 24.29.477 8.78 0 17.565.286 26.375.41-.02 4.575-.46 12.705-.46 18.92v12.475c-.186.194-.45.44-.824.763-.882.76-2.152 1.74-3.46 2.71-1.303.973-3.36 4.466-4.44 5.247-.34.247-.602.435-.882.64-.96-.12-1.89.354-2.35 1.19-.46.84-.356 1.858.276 2.58.022.035.02.076.072.15.105.16.204.406.84.795.315.196.862.427 1.51.368.613-.055 1.142-.374 1.45-.655-.015.01 0-.003.042-.043.08-.065.273-.21.49-.366.332-.25.79-.574 1.322-.96 1.067-.774 3.156-4.275 4.5-5.28 1.026-.763 2.03-1.516 2.915-2.24.68.66 1.45 1.11 2.246 1.6 2.24 1.404 5.2 4.28 5.75 4.96.44.537.898 1.15 1.405 1.814.496.67 1.344 1.04 2.18.95.84-.095 1.55-.625 1.878-1.388.33-.766.197-1.65-.32-2.306-.45-.59-.92-1.25-1.48-1.94-1.84-2.266-5-4.775-6.91-5.967-.72-.45-1.025-.73-1.28-.96.36-.724.293-1.58-.15-2.258-.037-.056-.08-.117-.12-.17v-11.71c0-5.978.462-14.01.485-18.87 1.138.008 2.266.016 3.4.016 9.72 0 19.008-1.1 28.315-1.36.18.44.495.88.96 1.15.866.49 1.507.31 1.89.21.387-.1.66-.235.948-.38.467-.236.8-.61.996-1.05 2.836-.06 5.517-.348 8.16-.998 1.16-.26 1.95-1.34 1.818-2.5-.132-1.16-1.13-2.026-2.32-2.03-.21-.004-.42.024-.625.076-1.65.404-3.353.653-5.152.775.364-.58.74-1.18 1.08-1.78.59-1.026 1.123-2 1.45-3.066.47-.07.926-.27 1.283-.61 1.43-1.17 3.91-2.42 6.433-4.487.46-.38.97-.756 1.51-1.13-.01.075-.018.154-.03.214-.57 2.24-.4 4.3-.4 6.07v4.853c0 1.175.08 5.59.18 9.593.05 2 .1 3.86.14 5.11.02.624.047 1.094.06 1.37.004.07-.004.12 0 .183.002.03.01.076.015.136.003.03.003.06.014.14.004.04.01.075.03.17.02.093.26.624.26.624l1.554.218c.66.496 1.415.774 2.12.93.146.036.28.054.43.08-.575.672-1.196 1.413-1.864 2.32-2.027 2.75-4.162 6.644-4.162 11.62 0 2.22.007 5.62.077 8.62.04 1.5.09 2.897.15 4.016.04.56.08 1.04.128 1.464.047.425.024.653.305 1.34.44 1.205 1.753 1.816 2.96 1.375 1.2-.44 1.83-1.758 1.39-2.96.01.014-.028-.106-.05-.29-.03-.284-.06-.696-.09-1.205-.06-1.02-.12-2.375-.15-3.843-.066-2.94-.074-6.32-.074-8.515 0-3.66 1.534-6.534 3.262-8.877.86-1.17 1.76-2.18 2.53-3.1.64-.764 1.28-1.294 1.63-2.44 1.45-.34 2.866-.78 4.07-1.27.758-.3 1.42-.61 2.018-.943l.137-.076c.21.1.493.203.748.32-1.62 1.106-2.91 2.734-3.89 4.452-1.71 3-2.69 6.527-3.15 9.703-.16 1.097-.315 2.2-.475 3.295-.55 3.788-.876 8.567.046 12.19.17.84.785 1.51 1.6 1.756.82.247 1.7.026 2.307-.58.603-.605.83-1.5.58-2.32-.573-2.25-.45-6.98.044-10.37.16-1.1.315-2.2.475-3.295.39-2.714 1.32-5.823 2.604-8.085 1.29-2.267 2.71-3.47 4.35-3.57.76-.02 1.44-.417 1.86-1.04 1.45.26 2.983.34 4.543.045 1.06-.2 1.804-.555 2.304-.714 1.26-.395 2.095-.74 2.774-1.05.995.71 2.48 1.525 5.11 2.59 2.127.865 4.17.87 5.768.29 1.6-.58 2.69-1.56 3.51-2.255.823-.7 1.383-1.07 1.616-1.13.24-.06.44-.156 1.5.598 2.855 2.025 6.86 2.59 10.83 2.53 2.984-.043 5.893-.38 8.253-1.572.285.58.8 1.02 1.436 1.208.81.237 1.69.017 2.29-.58.58-.574.81-1.405.61-2.195.03.04-.11-.964-.17-1.938-.067-1.114-.13-2.54-.17-3.95-.04-1.42-.065-2.83-.06-3.94.003-.552.015-1.03.03-1.372.013-.253.056-.492.046-.47.864-3.542.03-7.33.03-9.823 0-3.34-.17-6.493.31-9.32.515-3.05.363-6.04.364-8.782 0-2.89.99-6.253.99-10.02 0-4.014.32-8 .32-12.28V58.72c0-3.28-.32-6.492-.32-9.38 0-3.587-.542-6.635-1.385-9.946-.49-1.89-.72-3.756-1.33-6.148-.71-2.792-2.36-4.477-3.13-5.98-1.26-2.476-2.917-4.185-4.18-5.842-1.59-2.08-4.01-3.673-5.936-4.805-2.225-1.31-4.477-2.49-7.218-3.16-1.67-.41-3.23-.31-4.59-.29-1.37.02-2.518-.06-3.026-.26-.884-.35-1.75-.52-2.575-.58-.41-.04-.82-.04-1.204-.03zm362.19.686c-.3-.002-.61.01-.915.03-.693.043-1.397.132-2.105.29-1.288.288-2.103 1.578-1.815 2.868.288 1.287 1.58 2.087 2.868 1.8 3.45-.768 7.527.93 11.61 3.187-3.13-.24-6.29-.46-9.124-.45-1.14 0-2.22.04-3.22.12-4.01.35-5.97.43-7.81 1.15-.93.36-1.75.94-2.38 1.56-.63.63-1.13 1.27-1.8 2.08-.85 1.014-.7 2.527.32 3.37 1.01.846 2.49.695 3.34-.32.7-.84 1.18-1.41 1.49-1.72.31-.314.41-.38.73-.505.64-.25 2.49-.49 6.51-.84 2.41-.21 5.94-.05 9.62.2-5.22 1.966-10.12 4.697-13.76 8.343-.93.935-.92 2.44.01 3.37.935.93 2.426.934 3.356 0 1.88-1.883 4.352-3.566 7.123-5.004-1.33 1.633-2.214 3.213-3.446 5.23-1.67 2.738-2.21 5.51-3.126 7.764-.17.42-.32.84-.446 1.25-2.12-1.708-4.09-2.657-5.98-3.54-1.94-.91-3.827-1.77-6.3-3.508-2.667-1.873-5.217-2.938-6.726-3.998-.376-.275-.83-.43-1.294-.443-.4-1.07-1.02-2.026-1.695-3.02-.843-1.26-1.793-2.517-2.59-3.57-.347-.46-.4-.56-.655-.93.35-1.08-.19-2.25-1.24-2.67-.3-.13-.57-.25-.96-.32-.197-.04-.45-.09-.76-.06-.316.023-.676.15-1.087.42-.827.55-1.08 1.66-1.026 2.18.05.52.2.796.32 1.05.47 1.013 1.14 1.816 1.933 2.87-.278-.18-.66-.435-.9-.58-.57-.343-.91-.55-1.498-.747-.147-.05-.303-.096-.595-.12-.294-.027-.818-.086-1.48.364-.667.45-.975 1.45-.948 1.95.027.5.14.738.23.916.344.71.56.82.867 1.142.307.32.684.65 1.084 1.02.913.842 1.92 1.73 2.9 2.515-.727.08-1.27.1-1.955.26-1.08.253-1.7.446-1.905.487-.203.04-.105.09-.687-.042-.77-.225-1.61-.01-2.165.568-.56.58-.74 1.41-.49 2.17.254.76.902 1.32 1.695 1.448.884.207 1.783.24 2.5.096.714-.143 1.15-.31 2.043-.52.635-.15 2.87-.26 4.636-.653.44-.1.873-.2 1.37-.454.47-.243 1.155-.733 1.435-1.693.068.058.15.116.23.167 2.176 1.53 4.57 2.483 6.726 3.996 2.8 1.963 5.09 3.01 7 3.903 1.92.9 3.43 1.627 5.19 3.07.565.51 1.34.69 2.072.52-.037.825-.03 1.66-.03 2.503v5.447c-1.486-.09-2.968-.17-4.453-.26-.08-.01-.16-.013-.24-.014-1.28-.01-2.327 1.01-2.34 2.29-.012 1.28 1.023 2.336 2.305 2.35l4.682.29c-.088 2.48-.276 4.986-.276 7.686 0 3.057.655 5.58.655 8.086v8.07c0 2.35-.34 4.74-.34 7.43v3.14c-2.81.42-5.68.93-8.297 1.805-2.494.836-5.06 1.05-7.583 1.89-.086.03-.16.07-.24.11.004-1.01-.55-1.674-.93-2.043-.408-.39-.78-.62-1.178-.84-1.58-.885-3.688-1.626-4.257-1.95-.8-.46-1.16-.74-1.8-1.086s-1.51-.565-2.41-.624c-.08-.005-.16-.005-.23 0-1.13.065-2.017.975-2.03 2.104-.018 1.13.84 2.085 1.97 2.18.59.04.482.04.67.14.18.097.73.47 1.69 1.02.61.35 1.116.54 1.783.826-1.154.474-2.37 1.028-3.474 1.57-.49.24-.94.468-1.328.688-.38.225-.61.276-1.14.858-.136.145-.32.32-.49.793-.17.475-.14 1.516.366 2.136.508.62 1.01.72 1.3.776.287.06.454.067.61.06.62-.016 1.002-.137 1.647-.303.27-.07.71-.215 1.02-.307-1.07.79-1.93 1.37-2.68 2.21-.19.214-.38.434-.58.917-.196.483-.28 1.634.35 2.395.63.76 1.27.824 1.665.87.393.044.682.02 1.004-.016 1.136-.114 2-1.103 1.95-2.244.35-.28.424-.345.885-.685 1.065-.784 2.345-1.704 3.51-2.67.935-.77 1.797-1.53 2.486-2.453.423.113.88.12 1.328-.03 1.74-.58 4.51-.87 7.594-1.906 1.946-.654 4.325-1.097 6.817-1.48v.243c0 2.87.337 5.68.337 8.083 0 .892-.24 5.674-.52 10.08-.14 2.203-.3 4.354-.43 6.024-.064.836-.116 1.54-.167 2.06-.016.16-.04.3-.06.44-.175.33-.29.69-.29 1.086 0 1.28 1.055 2.334 2.336 2.334 1.54 0 3.435-.048 5.446-.09-.65.73-1.404 1.59-2.226 2.67-2.045 2.67-4.225 6.46-4.225 11.33 0 2.15.02 5.46.09 8.37.035 1.457.084 2.8.15 3.89.04.546.07 1.035.12 1.45.05.416 0 .637.29 1.327.46 1.18 1.78 1.766 2.96 1.314 1.187-.453 1.78-1.777 1.33-2.96.02.04-.01-.044-.03-.23-.03-.27-.06-.695-.09-1.19-.06-.983-.12-2.295-.152-3.72-.07-2.85-.09-6.124-.09-8.252 0-3.517 1.54-6.29 3.28-8.56.867-1.133 1.77-2.112 2.546-3.003.68-.786 1.395-1.28 1.74-2.58 1.72-.04 3.414-.078 5.005-.09-.78.842-1.45 1.8-2.015 2.79-1.71 3-2.68 6.53-3.14 9.702l-.48 3.298c-.55 3.786-.873 8.56.05 12.19.315 1.24 1.566 1.99 2.81 1.677 1.24-.312 2.006-1.562 1.69-2.806-.57-2.25-.445-6.995.05-10.39.157-1.096.31-2.2.47-3.293.395-2.716 1.29-5.825 2.58-8.087 1.286-2.265 2.74-3.47 4.376-3.57.85-.02 1.61-.497 2-1.25.046-.087.077-.188.11-.277h19.144c5.82 0 11.933.974 18.105.974 1.22 0 2.22-.16 3.113-.32.38.27.84.41 1.34.41.725 0 1.375-.316 1.8-.836.963-.284 1.664-1.174 1.664-2.23 0-.824-.438-1.54-1.087-1.953.02-1.664.04-3.177.09-5.737.07-3.77.12-7.336.12-8.114 0-2.23.004-4.47-.335-6.8-.42-2.867-.32-5.875-.32-9.047 0-2.935.33-5.92.33-9.045 0-3.44-.53-7.17-.045-9.56.863-4.235-.22-8.016.32-10.68.584-2.865 1.007-7.645.337-10.936-.54-2.645-1.263-6.398-1.263-8.59 0-1.918-.406-3.44-.857-4.668-.45-1.225-.886-2.146-1.19-3.34-.24-.934-.644-2.29-1.22-3.645-.58-1.357-1.16-2.73-2.61-3.8-1.44-1.06-3.5-2.867-3.92-3.695-.71-1.397-1.77-2.5-2.93-3.17-1.16-.677-2.356-.99-3.54-1.285-2.83-.698-5.07-1.47-8.22-2.245-2.51-.614-5.15-.715-7.46-.715-1.73 0-4.35-.69-7.2-.63-.15.008-.306.01-.46.02l-.105-.72s-.405-.11-.472-.12c-.136-.02-.155-.014-.185-.015-.32-.016-.32-.004-.35 0-.516-.426-1.194-.652-1.907-.532l-.09.016c-.277-.054-.55-.074-.838-.03-.585.05-1.954-.305-3.663-1.16-1.707-.85-3.74-2.083-5.948-3.323-3.628-2.035-7.828-4.2-12.346-4.21zM507.137 16.92c.715-.03 1.296.033 1.952.29 1.69.668 3.33.615 4.77.595 1.44-.02 2.71-.02 3.41.152 2.09.514 3.86 1.417 5.96 2.654 1.64.97 3.85 2.64 4.6 3.63 1.46 1.91 2.84 3.37 3.735 5.13 1.167 2.29 2.442 3.71 2.775 5.02.53 2.08.76 3.92 1.326 6.15.795 3.13 1.236 5.68 1.236 8.8 0 3.23.32 6.43.32 9.39v10.34c0 4.04-.32 8.028-.32 12.28 0 2.85-.99 6.22-.99 10.02 0 2.898.112 5.63-.29 8.01-.304 1.78-.415 3.52-.43 5.22-1.95.507-3.918 1.145-4.39 1.145-6.926 0-13.25 2.03-19.924 2.03-5.315 0-13.796-1.14-21.92-1.88-7.08-.65-13.774-1.19-18.746.01.037-.25.08-.49.138-.717.39-1.53.333-2.99.23-4.24.785-.446 1.584-.89 2.38-1.33 3.136-1.735 6.224-3.402 8.45-5.52.7-.65.916-1.66.564-2.547-.355-.89-1.215-1.47-2.168-1.465-.603 0-1.186.237-1.62.657-1.485 1.416-4.35 3.09-7.473 4.82-.092.05-.197.1-.29.15v-4.66c0-2.805-.335-5.56-.335-8.09v-8.09c0-.15-.013-.29-.015-.44.662-.02 1.42-.11 2.67-.21 2.82-.23 7.08-.55 8.434-.55h1.405c.86.01 1.652-.43 2.09-1.172.43-.747.43-1.685 0-2.43-.438-.746-1.23-1.19-2.09-1.18h-1.4c-1.955 0-5.806.32-8.606.55-.325-.1-.674-.11-1.01-.064-.9.11-1.485.173-1.86.23-.15-1.41-.274-2.77-.274-4.12 0-2.47-.06-5.365-.73-8.01-.08-.314-.14-.674-.184-1.054.25-.213.47-.48.61-.794.46-1.017.13-2.17-.73-2.81.014-1.06.047-2.148.047-3.174 0-3.173.33-5.883.942-8.91.688-3.366 2.334-6.91 3.83-10.586.28-.686 1.396-2.01 2.777-3.323 1.38-1.32 2.95-2.66 4.15-4.23.272-.36 1.193-1 2.362-1.55 1.17-.554 2.52-1.05 3.736-1.646 1.133-.557 3.29-.96 5.4-1.403.51.488 1.22.757 1.97.658 2.872-.385 4.98-.226 7.78 2.577.19.19.56 1.1.46 2.808-.11 1.71-.59 3.96-1.22 6.3-.64 2.34-1.408 4.786-2.03 7-.63 2.22-1.18 4.146-1.18 5.98 0 8.41 4.686 14.936 10.97 17.667 6.283 2.73 14.183 1.62 20.136-4.33 2.24-2.24 3.385-4.93 3.46-7.537.074-2.61-.82-5.047-2.197-7.14-2.75-4.187-7.32-7.25-11.88-8.01-2.685-.45-5.2.51-6.924 2.09-1.72 1.58-2.773 3.73-3.05 6.01-.275 2.28.28 4.8 2.03 6.697 1.75 1.9 4.53 2.99 8.024 2.99 1.13 0 2.51-1.1 2.834-2 .325-.9.254-1.53.182-2.12-.145-1.17-.51-2.17-.794-2.88-.31-.81-1.02-1.394-1.88-1.523-.86-.13-1.716.214-2.246.9-.53.682-.643 1.6-.303 2.393.024.06.036.16.063.23-1.16-.26-1.91-.72-2.364-1.22-.696-.75-.966-1.74-.827-2.88.137-1.143.746-2.324 1.556-3.07.81-.742 1.7-1.103 2.93-.9 2.845.476 6.71 2.97 8.648 5.92.97 1.473 1.46 2.98 1.42 4.38-.04 1.4-.525 2.783-2.043 4.3-4.706 4.71-10.32 5.31-14.886 3.324-4.56-1.985-8.08-6.605-8.08-13.286 0-.728.38-2.578.975-4.685.594-2.11 1.39-4.56 2.06-7.035.67-2.47 1.23-4.947 1.37-7.26.14-2.315-.082-4.72-1.845-6.484-.225-.22-.45-.422-.675-.623.856-.09 1.62-.19 2.26-.26.28-.023.525-.05.76-.06zm199.705 0c.72-.03 1.312.033 1.968.29 1.62.636 3.17.63 4.56.61l1.008.58 1.54-.472s.066-.053.092-.077c.38.03.724.05.977.11 1.963.48 3.655 1.33 5.582 2.44.18.78.75 1.45 1.57 1.73.38.13.77.14 1.14.08.97.74 1.86 1.49 2.29 2.05 1.46 1.91 2.82 3.37 3.72 5.13 1.17 2.29 2.44 3.72 2.77 5.03.53 2.084.76 3.905 1.32 6.134.79 3.12 1.23 5.67 1.23 8.8 0 3.22.32 6.424.32 9.38v10.34c0 4.037-.32 8.04-.32 12.296 0 2.846-.99 6.22-.99 10.02 0 2.89.11 5.615-.29 7.994-.305 1.78-.416 3.54-.43 5.23-1.95.51-3.92 1.13-4.39 1.13-6.926 0-13.25 2.03-19.92 2.03-5.32 0-13.8-1.12-21.92-1.86-2.7-.24-5.34-.48-7.86-.61 2.374-1.38 4.624-2.78 6.33-4.47.7-.66.905-1.69.535-2.57-.37-.886-1.25-1.45-2.21-1.42-.605.02-1.184.27-1.604.7-1.45 1.435-4.266 3.14-7.352 4.915-1.79 1.02-3.67 2.083-5.46 3.243-.39.07-.76.14-1.13.23.04-.25.08-.49.14-.72.65-2.555.08-5.03.08-6.41v-7.75c0-2.8-.32-5.557-.32-8.083v-4.28c1.623.4 3.63.796 5.736 1.1 3.083.445 5.924.89 8.555 0 3.09-1.045 5.375-2.083 7.824-4.41 1.02-.97 1.58-2.05 2.214-3.28s1.24-2.6 1.845-3.873c.55-1.16 1.094-2.23 1.57-3.02 1.54-.96 2.913-2.21 3.69-4.054.343-.78.27-1.678-.198-2.38-.47-.71-1.26-1.13-2.106-1.118-1 .015-1.9.63-2.275 1.557-.027.06-.075.12-.11.18-1.46.457-2.15 1.297-2.73 2.2-.18.09-.354.19-.55.28-1.933.9-4.47 1.74-6.97 2.91-1.514.72-4.75.88-8.146.55-3.14-.3-6.38-.89-9.03-1.19-.03-2.13-.16-4.46-.714-6.63-.08-.29-.14-.63-.19-.98.623-.493.96-1.28.87-2.074-.077-.676-.445-1.257-.99-1.632.01-1.054.03-2.137.03-3.16 0-3.17.33-5.88.944-8.906.686-3.365 2.33-6.91 3.83-10.585.28-.687 1.394-2.01 2.775-3.324 1.38-1.32 2.963-2.66 4.16-4.23.273-.36 1.193-1 2.363-1.56 1.17-.55 2.51-1.05 3.726-1.644 1.44-.71 4.56-1.146 7.104-1.77 2.29-.564 5.496-.26 8.68-.26 1.78 0 3.2-.28 4.317-.398.278-.027.523-.05.762-.06zm188.205 10.86c2.072-.046 4.903.55 7.703.55 2.155 0 4.507.11 6.36.565 2.924.717 5.157 1.504 8.223 2.257 1.074.263 1.842.516 2.32.793.474.277.75.537 1.112 1.25 1.322 2.595 3.787 4.23 5.293 5.34-.02-.016.657.84 1.1 1.875.44 1.037.817 2.242 1.005 2.975.42 1.643.97 2.81 1.327 3.783.358.974.564 1.762.564 3.08 0 3.104.838 6.875 1.374 9.505.344 1.692.08 7.067-.336 9.106-.86 4.22.226 7.98-.32 10.66-.76 3.72-.047 7.66-.047 10.49 0 2.77-.35 5.78-.35 9.04 0 1.39-.03 2.81-.016 4.28-.16.06-.3.145-.45.242-.59.39-.93.807-1.03.96.07-.013.04 0-.02.064-.03.03-.02-.004.01-.06-.042.01-.082.016-.32.074-5.242 1.29-10.05 1.97-15.94 1.97-13.514 0-30.775-1.3-42.406-1.36-.045-.79-.078-1.566-.078-2.306V102c2.97-.43 5.835-.894 8.235-1.91 1.06-.41 1.66-1.54 1.417-2.652-.24-1.114-1.258-1.88-2.395-1.816-.29.012-.56.082-.825.2-1.47.617-3.813 1.08-6.436 1.493v-2.47c0-2.28.35-4.68.35-7.43v-5.96c1.196.155 2.588.29 4.197.38 2.88.164 6.113.17 8.844-.29 2.363-.39 4.29-1.623 5.98-2.834 1.69-1.21 3.2-2.48 4.18-3.06 1.054-.63.99-.64 1.494-.98.91-.58 1.31-1.7.99-2.73-.32-1.02-1.29-1.72-2.366-1.67-.45.02-.89.17-1.26.43-.707.475-.347.3-1.296.87-1.566.94-3.04 2.207-4.518 3.267-1.48 1.06-2.93 1.84-3.98 2.014-2.077.345-5.126.377-7.797.23-1.83-.104-3.546-.3-4.62-.46-.2-1.995-.52-3.736-.52-5.34 0-2.48.19-4.964.273-7.61.835-.31 1.465-1.08 1.523-2.03.063-1.03-.57-1.93-1.48-2.286v-5.86c0-2.644.054-4.345.824-6.235 1.13-2.773 1.685-5.267 2.81-7.11 1.78-2.916 2.43-4.24 4.577-6.345 1.66-1.63 3.67-2.476 6.3-3.766 2.18-1.07 5.685-1.27 9.09-2.107.388-.096.818-.127 1.297-.14zm-51.025 7.064c.132.02.155.08.107.06-.02-.003-.1-.054-.11-.06zM484.088 44.06c-.315-.002-.6.05-.824.106-.89.222-1.46.59-1.51.61-.354.14-.664.38-.885.687-.54.74-1.22 1.64-1.12 3.203.05.782.54 1.754 1.31 2.274.77.518 1.6.655 2.51.655.75 0 1.58-.184 2.24-.717.66-.533 1-1.318 1.1-1.937.2-1.24-.11-2.11-.29-2.82-.17-.67-.74-1.5-1.51-1.84-.39-.17-.72-.21-1.04-.21zm199.705 0c-.315-.002-.6.05-.824.106-.89.222-1.46.59-1.51.61-.36.14-.67.38-.89.687-.54.74-1.22 1.64-1.12 3.203.05.782.53 1.77 1.31 2.29.77.517 1.62.655 2.53.655.75 0 1.58-.18 2.24-.71.66-.53.98-1.32 1.08-1.93.192-1.24-.11-2.13-.29-2.84-.17-.67-.73-1.49-1.5-1.83-.384-.17-.74-.22-1.05-.23zm198.99 10.04c-.27-.002-.498.043-.686.09-.762.19-1.255.502-1.298.52-.3.118-.56.318-.75.58-.46.63-1.05 1.408-.96 2.744.04.668.46 1.51 1.13 1.953.66.443 1.38.563 2.16.563.64 0 1.34-.153 1.91-.608.56-.457.86-1.134.94-1.664.17-1.058-.12-1.805-.28-2.41-.15-.575-.61-1.282-1.27-1.572-.33-.144-.65-.197-.92-.197zm-334.46 5.383c-1.11.062-2.024.87-2.183 1.922-2.557 15.53-2.41 35.57-2.41 52.55 0 7.377-.153 14.793-.288 22.21-.062.053-.128.094-.184.153-.12.03-.104.046-.305.076-.84.126-2.236.216-3.723.244-2.97.055-6.352-.076-8.038-.076-6.933 0-14.313-1.45-21.965-1.45-4.9 0-9.83-.473-14.813-.473-2.036 0-3.975.96-4.972 2.36-.998 1.39-1.268 2.95-1.42 4.47-.3 3.03.026 6.3-.273 8.11-.51 3.03-.54 6.12-.52 9.07-.01.06-.03.1-.03.17-.06.72-.02 1.42.03 2.04v.72h.04c.01.16.01.33.01.47 0 .51.02.332-.02.5-.27.842-.05 1.762.58 2.39.62.63 1.55.86 2.39.592s1.482-.976 1.643-1.85c.144-.582.166-1.157.166-1.647 0-.46-.013-.94-.03-1.39 0-.035.002-.07 0-.107-.01-3.554-.073-7.12.443-10.25.474-2.88.075-6.13.304-8.437.11-1.152.4-1.974.624-2.287.223-.314.19-.38 1.005-.38 4.65 0 9.59.472 14.81.472 6.99 0 14.365 1.465 21.964 1.465 1.41 0 4.965.12 8.146.06 1.456-.023 2.81-.082 4.01-.24-.06 3.97-.12 7.933-.12 11.913 0 2.94-.46 5.44-.46 8.71 0 1.363.42 2.254.517 2.73.113.83.704 1.53 1.525 1.815.82.288 1.736.11 2.38-.454.64-.57.9-1.44.67-2.246-.22-1.05-.41-1.65-.41-1.845 0-2.82.454-5.336.454-8.71 0-12.92.475-25.906.475-38.93 0-16.997-.08-36.93 2.38-51.847.12-.675-.075-1.37-.55-1.88-.475-.507-1.18-.786-1.89-.746zm199.72.016c-1.11.06-2.023.85-2.18 1.9-2.56 15.53-2.426 35.57-2.426 52.55 0 7.37-.155 14.79-.29 22.21-.062.05-.128.11-.183.17-.12.03-.105.04-.305.07-.84.12-2.24.2-3.73.23-2.98.05-6.36-.08-8.04-.08-6.93 0-14.31-1.45-21.97-1.45-4.9 0-9.83-.48-14.81-.48-2.04 0-3.95.98-4.95 2.38-1 1.393-1.29 2.932-1.44 4.45-.3 3.036.01 6.32-.29 8.13-.6 3.638-.446 5.683-.427 9.15-.005.054-.005.09 0 .14v1.037h.013c-.01.12 0 .2-.017.336-.068.62-.196 1.42-.046 2.41 0 .024-.002.08-.03.184-.255.84-.026 1.775.595 2.397.62.62 1.54.85 2.38.592.84-.258 1.47-.956 1.65-1.82.11-.433.29-1.132.132-2.06-.013-.07-.006-.572.06-1.19.06-.573.206-1.21.046-2.18-.014-3.452-.12-5.242.382-8.282.474-2.88.06-6.13.29-8.437.115-1.15.42-1.96.64-2.27.225-.314.175-.4.992-.4 4.646 0 9.59.49 14.81.49 6.99 0 14.365 1.45 21.964 1.45 1.41 0 4.966.12 8.147.06 1.46-.02 2.81-.07 4.01-.224-.06 3.976-.103 7.936-.103 11.916 0 2.94-.078 3.425-.078 6.695 0 1.362.414 2.252.514 2.73.12.83.71 1.53 1.53 1.814.82.283 1.74.11 2.38-.46.643-.57.903-1.44.67-2.245-.22-1.05-.41-1.65-.41-1.844 0-2.82.064-3.32.064-6.692 0-12.92.488-25.92.488-38.944 0-17-.09-36.934 2.37-51.85.12-.67-.075-1.35-.55-1.86-.476-.51-1.165-.786-1.877-.746zm197.906 0c-1.11.06-2.03.85-2.19 1.9-2.56 15.53-2.43 35.57-2.43 52.55 0 7.37-.14 14.79-.28 22.21-.06.05-.118.11-.17.17-.12.03-.14.04-.34.07-.84.12-2.22.2-3.706.23-2.973.05-6.354-.08-8.04-.08-6.93 0-14.328-1.45-21.98-1.45-4.9 0-9.83-.48-14.81-.48-2.04 0-3.948.98-4.944 2.38-.996 1.393-1.283 2.932-1.434 4.45-.3 3.036.01 6.32-.29 8.13-.598 3.63-.523 8.54-.503 12.005v.013c-.027.22-.05.442-.065.67-.027.584-.03 1.193-.03 1.68 0 .892.233 1.2.17.943.16.87.8 1.58 1.65 1.845.85.264 1.77.035 2.392-.594.63-.63.85-1.563.58-2.41-.014-.056-.006-.034-.014-.075.004-.3.02-.595.03-.887h.094v-.926c.1-.39.093-.79 0-1.176-.004-.006 0-.01 0-.017-.015-3.183-.024-7.55.44-10.355.475-2.88.093-6.13.32-8.44.115-1.152.403-1.96.626-2.27.22-.313.16-.397.975-.397 4.65 0 9.59.49 14.81.49 6.995 0 14.386 1.45 21.985 1.45 1.41 0 4.95.12 8.13.06 1.456-.024 2.824-.07 4.026-.227-.06 3.976-.11 7.936-.11 11.916 0 2.94-.472 5.422-.472 8.693 0 1.365.435 2.256.535 2.73.116.83.69 1.547 1.51 1.83.824.287 1.755.097 2.397-.47.64-.565.9-1.42.67-2.23-.22-1.05-.444-1.67-.444-1.86 0-2.82.49-5.32.49-8.693 0-12.92.47-25.92.47-38.943 0-17-.09-36.934 2.362-51.85.122-.673-.09-1.352-.565-1.86-.47-.51-1.16-.79-1.875-.75zM690.3 68.45c-.22.45-.437.914-.64 1.31-.548 1.06-1.132 1.88-1.19 1.94-1.947 1.844-3.04 2.29-5.965 3.28-.32.104-3.407.19-6.224-.218-2.57-.37-5.19-.95-6.49-1.328-.07-1.504-.24-2.92-.38-4.287 2.26.297 5.26.802 8.31 1.1 3.71.357 7.51.53 10.74-.993.59-.28 1.21-.55 1.85-.81zm-565.83 5.46c-.92.004-1.753.52-2.165 1.34-.413.823-.333 1.81.214 2.55.16.88.28 2.126.29 3.45 0 .675-.02 1.32-.03 1.92-1.13.21-2.34.433-3.68.776-10.16 2.607-24.41 3.86-34.92 3.86-22.18 0-44.46 1.697-66.49 1.16-.05-.864-.22-1.684-.35-2.534-.22-1.404-.4-2.693-.45-3.677l.03-.06c.4-.778.36-1.72-.11-2.457-.47-.738-1.31-1.16-2.18-1.115-.85.042-1.61.516-2.02 1.25-.015.02-.07.1-.15.23-.167.256-.52.834-.52 1.692 0 1.707.333 3.396.564 4.88.09.6.135 1.157.166 1.634l-.41-.02c-.92-.08-1.826.36-2.333 1.13-.51.77-.546 1.75-.11 2.56.433.81 1.29 1.32 2.21 1.32l1.45.06c.07 42.18 1.875 84.97 1.92 127-4.616-.117-8.856-.383-12.495-.917-.9-.148-1.817.207-2.38.916-.57.706-.71 1.657-.37 2.5.34.84 1.11 1.44 2.012 1.556 3.966.58 8.47.88 13.285 1.004.32 10.03 1.86 36.71 1.86 46.34 0 1.71-.34 17.58-.75 33.04-.2 7.73-.418 15.4-.625 21.296-.105 2.945-.2 6.72-.29 8.54-.047.91-.098 1.637-.138 2.166-.03.4-.086.79-.077.81-.26 1.308.55 2.596 1.86 2.91 1.343.33 2.72-.5 3.05-1.84.16-.66.12-.88.17-1.48.04-.6.09-1.384.13-2.318.1-1.87.2-5.646.31-8.606.21-5.92.44-13.604.64-21.34.405-15.476.73-30.91.73-33.18 0-10.067-1.54-36.724-1.874-46.264 14.275.05 30.507-1.065 43.55-1.065 20.554 0 40.916-2.81 60.894-2.95.245 10.408 1.89 37.377 1.89 47.32 0 1.46.28 5.57.69 11.67.403 6.1.943 13.888 1.46 21.618.52 7.73 1.01 15.395 1.343 21.28.166 2.945.563 9.31.626 11.12.03.91.04 1.65.04 2.17 0 .256-.016.525-.03.656.01-.04.02-.07.05-.17-.33 1.347.5 2.706 1.845 3.036 1.35.33 2.71-.5 3.04-1.844.22-.884.12-1.06.12-1.677.005-.62-.01-1.41-.04-2.35-.066-1.88-.46-8.25-.626-11.21-.333-5.928-.84-13.608-1.357-21.34-.52-7.74-1.06-15.528-1.466-21.62-.405-6.096-.67-10.81-.67-11.34 0-10.43-1.634-37.4-1.89-47.3 4.18.03 8.335-.014 12.49-1.08 1.24-.296 2.04-1.47 1.894-2.73-.15-1.26-1.2-2.224-2.47-2.226-.23 0-.454.033-.672.093-3.405.87-7.16.93-11.29.915-.07-42.727-1.905-86.098-1.905-128.657.005-.674-.27-1.32-.75-1.8-.02-.02-.04-.03-.06-.043.285-.41.45-.9.44-1.42 0-.65.07-2.19.06-3.855-.01-1.664-.063-3.46-.473-5.096-.215-.86-.756-1.293-.992-1.48-.46-.47-1.092-.735-1.752-.73zm-1.48 14.324v.106c0 42.7 1.82 86.074 1.89 128.654-20.414.14-40.76 2.943-60.846 2.943-13.31 0-29.672 1.054-43.61 1.022-.042-42.15-1.833-84.91-1.908-126.93 22.05.48 44.07-1.21 65.668-1.21 10.896 0 25.31-1.24 36.167-4.03.88-.23 1.75-.4 2.64-.57zm517.6 2.944c.116-.018.126.045.077.045-.01 0-.107-.014-.123-.015.01 0 .04-.03.046-.03zm-174.78 1.036v6.147c-1.53.93-3 1.92-4.33 3.01-2.048 1.68-4.377 2.8-6.438 4.49-.075.06-.13.11-.2.17-.35-.93-1.084-1.35-1.57-1.55-.516-.22-.955-.3-1.404-.363-1.79-.262-4.027-.187-4.67-.29-.903-.142-1.35-.29-2.073-.38-.363-.047-.753-.05-1.176 0-.42.047-.86.14-1.3.273-1.14.35-1.79 1.55-1.44 2.685.35 1.135 1.56 1.768 2.7 1.418.57-.175.46-.132.67-.105.2.026.84.178 1.94.35.68.108 1.22.11 1.93.138-.92.854-1.87 1.797-2.72 2.7-.375.4-.695.77-.977 1.113-.284.34-.5.473-.795 1.202-.07.18-.19.41-.18.914.004.27.12.66.337 1.037-.88.04-1.764.09-2.64.14.863-.94.835-2.403-.077-3.31-1.64-1.64-3.06-3.22-4.45-4.866.696-.426 1.303-.95 1.693-1.48.43-.59.6-1.01 1.11-1.758.355-.52 1.943-2.08 2.975-3.557.26-.37.51-.735.704-1.266.18-.49.35-1.33-.06-2.195.07-.01.15-.006.215-.02 2.65-.322 5.065-1.216 7.702-1.54 3.41-.416 5.81-1.17 7.84-1.784 2.03-.62 3.64-1.086 5.934-1.19.255 0 .496-.05.73-.126zm-25.64 1.48c.05-.01.063.032.03.046-.01.004-.107.025-.12.03.005-.005.022-.04.03-.045.023-.016.042-.03.06-.032zm-9.107 6.194c.417.117.647.097.99.12.445.034.947.058 1.497.063 1.277.02 2.654-.03 3.937-.1-.475.54-.857.92-1.252 1.5-.62.91-.936 1.48-1.052 1.64-.116.16-.015.09-.534.38-.16.09-.31.2-.43.32-.49-.603-.97-1.22-1.48-1.86-.54-.673-1.1-1.354-1.68-2.042zm386.674 5.507c-3.936.036-8.15 1.282-11.9 2.486-2.498.81-4.75 1.64-6.376 2.22-.6.22-1 .35-1.38.48-4.43-3.7-10.1-4.2-15.24-3.78-5.53.45-10.86 1.8-14.03 1.8-.88-.01-1.69.446-2.13 1.207-.44.76-.44 1.71 0 2.47.44.76 1.26 1.217 2.14 1.206 4.37 0 9.49-1.415 14.43-1.82 4.947-.4 9.27.104 12.42 3.25.67.673 1.278.717 1.617.75.34.03.53-.01.715-.033.368-.05.64-.11.945-.2.613-.177 1.33-.42 2.166-.72 1.68-.6 3.866-1.406 6.24-2.17 4.75-1.52 10.397-2.656 13.04-1.995 2.366.59 4.42 1.577 6.635 2.68 1.21.604 2.678.11 3.28-1.096.6-1.21.11-2.68-1.1-3.28-2.263-1.138-4.7-2.3-7.64-3.04-1.222-.305-2.502-.42-3.813-.41zm30.172.55c-.02.014-.05.045-.14.03.02-.003.12-.03.14-.03zm-255.63.822c-.38.01-.77.03-1.15.06-1.01.077-1.99.232-2.95.397-3.82.66-7.47 1.706-9.22 1.706-.86-.01-1.655.432-2.09 1.175-.433.743-.433 1.683 0 2.425.435.744 1.23 1.188 2.09 1.175 3.2 0 6.64-1.2 10.02-1.784 3.385-.58 6.28-.53 8.12.84.68.53 1.6.66 2.393.32.793-.33 1.35-1.06 1.45-1.92.1-.85-.28-1.7-.977-2.21-2.337-1.75-5.04-2.24-7.705-2.18zm338.45 2c.28 1.92.3 3.943.3 6.144 0 .43-.07 4.26-.14 8.03-.05 2.57-.07 4.14-.098 5.83-.813.15-1.53.31-2.197.31-5.664 0-11.79-.97-18.104-.97H884.5c-4.723 0-10.63.215-15.06.29.027-.31.05-.546.08-.9.13-1.706.286-3.88.426-6.1.28-4.44.533-8.842.533-10.36 0-.38-.008-.75-.018-1.13 11.3.08 28.454 1.33 42.146 1.33 6.25 0 11.52-.735 17.04-2.09.38-.095.74-.227 1.07-.367zM606 108.93c-.86-.01-1.655.44-2.09 1.18-.432.746-.432 1.686 0 2.428.435.745 1.23 1.19 2.09 1.176h29.32c.01.03.458.166 1.33.384.845.266 1.764.046 2.394-.58.63-.627.86-1.548.594-2.395-.263-.85-.973-1.49-1.845-1.65-.25-.06-1.03-.534-2.443-.534h-29.34zm-70.73.51v.03c0 3.26.54 6.93.06 8.8-.15.596-.13.85-.15 1.3-.02.445-.03.96-.03 1.554-.01 1.187.02 2.636.06 4.09.02.696.034 1.393.06 2.06-.174.1-.327.233-.47.38-.72.68-3.95 1.72-7.277 1.77-3.327.05-6.82-.787-8.055-1.662-1.76-1.247-3.72-1.73-5.356-1.312-1.64.42-2.66 1.382-3.495 2.09-.83.708-1.47 1.226-2.04 1.433-.574.21-1.15.3-2.44-.226-2.46-.997-3.68-1.71-4.18-2.073-.25-.184-.32-.282-.29-.245-.036-.08-.02-.1-.184-.31-.27-.34-1.295-.96-2.135-.86-.84.11-1.08.39-1.205.49-.126.1-.136.135-.15.15-.064.06.036-.017-.063.045-.194.127-.964.54-2.836 1.13-.853.27-1.416.5-1.754.564-1.64.31-4.2-.246-6.27-1.036-1.037-.395-1.95-.834-2.64-1.16-.346-.16-.627-.295-.886-.41-.13-.054-.238-.11-.443-.18-.1-.034-.21-.08-.5-.12-.14-.02-.33-.04-.68.014-.32.05-.89.21-1.37.732.03-.053-.14.127-.4.273-.34.195-.87.44-1.48.687-1.22.49-2.81.97-4.28 1.25-1.48.285-2.87.32-3.493.185-.18-.04-.135-.03-.17-.048-.03-.35-.16-.677-.32-.96-.03-1.076-.06-2.09-.094-3.435-.1-3.99-.197-8.6-.197-9.47v-4.177c3.195-1.093 10.69-1 18.456-.29 7.987.73 16.39 1.89 22.33 1.89 7.556 0 13.97-2.014 19.926-2.014 1.67 0 3.16-.5 4.455-.93zm199.706 0v.03c0 3.26.552 6.93.076 8.8-.215.84-.115 1.068-.093 1.558.02.49.07 1.05.13 1.693.13 1.29.33 2.85.55 4.41.05.38.11.76.17 1.13-.43.08-.83.28-1.16.6-.72.68-3.94 1.72-7.26 1.77-3.33.05-6.84-.77-8.07-1.64-1.76-1.247-3.72-1.73-5.36-1.31-1.637.42-2.66 1.365-3.493 2.073-.83.707-1.484 1.225-2.06 1.43-.57.21-1.13.31-2.423-.21-2.46-1-3.69-1.73-4.196-2.09-.25-.185-.304-.28-.27-.246-.038-.073-.02-.085-.188-.29-.268-.34-1.31-.976-2.15-.87-.84.11-1.05.39-1.176.49-.125.1-.15.137-.166.15-.062.06.038-.015-.06.047-.2.13-.967.54-2.84 1.13-.85.27-1.43.5-1.767.563-1.64.31-4.17-.248-6.24-1.038-1.035-.4-1.966-.82-2.653-1.15-.345-.162-.628-.31-.886-.426-.13-.06-.237-.116-.442-.185-.1-.033-.2-.07-.486-.106-.145-.02-.337-.037-.687.017-.33.05-.91.19-1.39.72.03-.05-.154.13-.41.274-.348.193-.857.44-1.467.685-1.216.49-2.794.97-4.27 1.25-1.475.283-2.885.322-3.507.183-.174-.04-.116-.03-.155-.05-.087-.987-.795-1.768-1.695-2.03.065-.67.12-1.137.186-1.86.186-2.068.366-4.26.5-6.07.14-1.817.247-3.12.247-3.91v-2.605c.18-.146.365-.29.55-.444.68-.575 1.45-1.14 2.285-1.705 3.82-.437 9.64-.24 15.607.306 7.987.73 16.393 1.88 22.333 1.88 7.55 0 13.967-2.013 19.92-2.013 1.67 0 3.16-.496 4.455-.93zm-686.35 1.028c-1.1.016-2.07.743-2.38 1.8-.31 1.016-.74 2.237-1.114 3.355-1.188 1.048-1.913 2.46-2.653 4.36-4.38 11.23-6.66 17.447-7.6 20.364-.24.73-.39 1.218-.49 1.708-.05.248-.21.296-.05 1.22.04.235.11.576.44 1.04.32.466 1.1 1 1.83 1.07 1.46.136 1.79-.51 2.01-.72.432-.414.47-.562.59-.76.12-.2.23-.395.35-.624.24-.46.506-1.02.824-1.71.784-1.7 1.843-4.16 3.002-6.98h.273c1.302.01 3.22.22 5.202.52 1.76.26 3.6.608 5.23.95.34 1.197.68 2.407 1.02 3.57 1.27 4.364 2.43 8.28 3.735 10.97.61 1.246 2.11 1.763 3.36 1.16 1.25-.61 1.78-2.11 1.177-3.36-.945-1.94-2.19-5.85-3.45-10.17l-.304-1.057c.867-.155 1.63-.75 1.938-1.645.45-1.314-.247-2.74-1.56-3.19-.51-.173-1.173-.354-1.935-.55-.69-2.326-1.404-4.635-2.137-6.755-1.416-4.094-2.544-7.43-5.05-9.52-.11-.09-.246-.16-.365-.246.155-.486.36-1.04.5-1.51.25-.77.12-1.62-.363-2.27-.48-.652-1.25-1.02-2.06-1.007zm406.307 0c.047-.023.03.03-.108.06.014-.007.095-.057.107-.06zm402.613 3.583c-.21 0-.413.03-.62.08-2.513.62-5.12.87-8.052.87-10.994 0-21.452 1.42-32.065 1.42-11.39 0-22.87-.47-34.46-.47-7.57 0-17.99-.89-24.59-.47-1.29.09-2.27 1.18-2.18 2.44.08 1.27 1.21 2.24 2.5 2.15 5.82-.36 16.35.48 24.27.48 8.78 0 17.56.29 26.37.41-.02 4.58-.48 12.71-.48 18.92v12.48c-.188.19-.43.44-.81.76-.89.766-2.173 1.745-3.48 2.72-1.304.972-1.684 2.086-2.76 2.867-.34.248-.605.45-.884.656-.96-.125-1.89.35-2.35 1.19-.46.835-.357 1.855.274 2.576.027.036.04.062.09.137.107.16.206.42.84.81.317.196.866.41 1.51.35.616-.054 1.146-.36 1.45-.64l.046-.044c.08-.067.26-.21.475-.368.34-.253.798-.59 1.33-.977 1.07-.773 2.44-2.993 3.787-3.996 1.028-.76 1.08-.42 1.97-1.14.68.66 1.44 1.12 2.23 1.616 3.07 1.52 5.235 4.14 7.23 6.67.493.67 1.325 1.04 2.163.947.837-.096 1.55-.64 1.876-1.405.33-.76.225-1.65-.29-2.3-.45-.59-.936-1.25-1.496-1.94-1.84-2.26-5.065-4.667-6.97-5.86-.72-.452-1.027-.73-1.28-.962.355-.72.305-1.58-.14-2.256-.036-.057-.08-.1-.12-.155v-11.73c0-5.98.433-14.01.455-18.87 1.137.01 2.28.017 3.417.017 11.028 0 21.487-1.42 32.066-1.42 3.21 0 6.25-.28 9.21-1.01 1.16-.26 1.92-1.34 1.788-2.5-.13-1.16-1.13-2.022-2.32-2.03zm-408.3.57c-.09.14-.16.27-.242.4-.09 0-.184.02-.274.02.18-.14.36-.29.52-.41zm201.157.34c.07-.01.11.01.215.02l.15.035h-.52c.037-.01.13-.04.154-.046zm-409.8.28c-2.66-.052-5.058.645-6.62.645-3.58 0-5.69.546-8.527 1.128-2.563.528-5.283.72-8.13 1.45-1.578.407-2.527 1.208-3.616 1.985-1.085.778-2.16 1.604-2.652 1.907-2.238 1.38-4.36 3.65-5.706 5.036-1.8 1.85-2.846 3.97-3.155 4.288-1.926 1.98-2.52 4.56-2.883 5.31-1.35 2.77-1.967 4.98-2.622 7.67-.077.32-.15.64-.213.96-.86.983-1.45 2.198-1.45 3.72 0 2.22.11 5.065.82 7.857-.1 2.57-.29 5.355-.29 8.114 0 3.35-.34 6.59-.34 10.37 0 3.29.02 6.077-.63 8.725-.85 3.48-.08 7.258-.08 9.535 0 1.13.035 2.23.08 3.326-8.17-9.26-15.015-24.154-23.235-35.406-.448-.612-.728-1.39-1.02-2.38-.298-.99-.57-2.292-1.727-3.48-.21-.22-.465-.392-.735-.52.535-.503.76-1.12.87-1.552.145-.583.172-1.08.17-1.57-.02-1.96-.475-4.342-.475-5.062 0-1 .07-1.51.048-2.302-.02-.79-.27-1.725-.7-2.61-.41-.874-1.31-1.4-2.27-1.33-.78.056-1.49.5-1.878 1.177s-.395 1.5-.047 2.2c.287.58.24.486.247.716.01.23-.06.943-.06 2.15 0 .685.084 1.423.17 2.135-1.057-.82-2.21-1.66-3.3-2.4-.487-.33-.93-.61-1.342-.85-.413-.24-.593-.44-1.435-.627-.21-.045-.483-.13-1.023-.03s-1.497.694-1.8 1.496c-.305.803-.115 1.33-.016 1.632.1.3.19.47.28.61.35.574.64.874 1.14 1.39.23.23.625.59.9.855-1.33-.588-2.35-1.1-3.55-1.346-.304-.062-.63-.14-1.19-.062-.564.08-1.676.626-2.045 1.62-.37.994-.08 1.63.09 2.03.17.395.344.676.55.96.72 1.006 2.114 1.27 3.16.61.45.176.567.195 1.13.44 1.305.574 2.85 1.26 4.38 1.83 1.527.574 2.964 1.086 4.56 1.086.12 0 .264-.015.41-.03.11.22.25.43.43.61.05.054.31.555.61 1.555.295 1 .695 2.416 1.705 3.8 8.54 11.695 15.78 28.684 26.28 38.653.29.27.605.46.96.56.006.29.016.57.016.856 0 2.71.3 10.4.31 12.95v.065c-.76 10.51.01 15.68-.305 25.95v.077c0 2.47.37 4.156.37 6.088l-.02.152c-.01.186-.04.476-.06.822-.04.69-.12 1.64-.193 2.81-.16 2.33-.355 5.44-.564 8.525l-.58 8.51c-.072 1.17-.13 2.13-.18 2.823-.02.345-.05.625-.06.82l-.013.246c0 .016-.015.02-.016.016-.004.01 0 .04 0 .21-.02 1.39 1.1 2.53 2.486 2.55.437.007.844-.113 1.205-.303.264.206.57.35.914.44 1.85.47 3.566.44 5.17.44h13.165c0 .016.01.03.017.046v.01c.035.11.09.205.12.32-.008-.02-.04-.075-.045-.09.037.31.088.914.15 1.693.14 1.556.328 3.895.51 6.634.36 5.476.713 12.546.713 18.15 0 3.9.276 8.834.797 13.745-.66 1.15-1.64 2.643-2.777 4.16-1.793 2.394-3.895 4.97-5.54 7.26-1.624 2.27-2.86 3.233-4.696 5.157-.7.64-.99 1.6-.75 2.515.242.915.963 1.613 1.89 1.815.924.2 1.895-.126 2.5-.856 1.93-2.016 3.31-3.092 5.17-5.69 1.43-1.992 3.39-4.44 5.2-6.85.35 2.138.74 4.166 1.173 5.968.246 1.028.49 2.04.734 3.05.176.917.835 1.66 1.72 1.94.89.278 1.87.04 2.535-.61.666-.65.91-1.62.656-2.516-.242-1.013-.472-2.01-.72-3.037-.745-3.13-1.39-7.2-1.875-11.38.134-.327.28-.637.38-.96.255-.78.1-1.648-.38-2.308-.117-.157-.236-.285-.38-.41-.37-4.01-.58-7.926-.58-11 0-5.82-.368-12.945-.73-18.486-.186-2.77-.37-5.14-.507-6.744-.06-.68-.1-1.142-.14-1.54h10.267c5.822 0 12.033-1.343 16.58-.41 3.15.647 6.292.92 9.394 1.038-.48 13.39-4.3 28.547-4.3 45.18 0 3.61.067 7.037-.654 10.05-.256.9-.01 1.87.655 2.52.668.65 1.63.89 2.518.61.89-.28 1.56-1.02 1.74-1.934.81-3.39.82-6.75.81-9.883.87 1.29 1.814 2.635 2.76 3.967 3.194 4.502 7.34 10.91 7.992 11.82.82 1.134 2.39 1.39 3.528.58 1.136-.82 1.41-2.406.594-3.54-.86-1.2-4.84-7.37-7.98-11.79-1.57-2.215-3.113-4.47-4.285-6.32-1.177-1.85-1.98-3.64-1.957-3.524-.07-.295-.184-.568-.34-.81.925-12.845 3.6-25.102 3.997-36.838h1.72c1.59 0 4.815-.2 7.796-.387 1.49-.09 2.907-.16 3.936-.224.513-.037.93-.06 1.22-.08.044-.003.066-.01.106-.015.863.07 1.693-.32 2.21-1.02.153-.21.266-.433.35-.67.263.065.553.1.87.06 1.083-.14 1.56-.79 1.77-1.1.2-.304.26-.48.3-.61.09-.26.09-.37.104-.47.08-.445.037-.904-.12-1.33-.05-.573-.108-1.534-.17-2.79-.127-2.562-.267-6.225-.397-10.005-.26-7.56-.472-15.923-.472-16.58v-20.06c0-2.35.35-4.79.35-7.52v-7.016c7.856 9.3 14.54 23.66 22.518 34.58.45.612.7 1.372.99 2.363.3.99.59 2.31 1.74 3.49.213.22.452.39.72.506-.54.51-.748 1.134-.857 1.57-.145.59-.156 1.08-.15 1.57.02 1.97.47 4.35.47 5.07 0 1-.085 1.48-.06 2.27.024.79.285 1.722.716 2.61.33.8 1.074 1.35 1.94 1.43.862.08 1.68-.31 2.15-1.037s.515-1.655.09-2.41c-.283-.583-.22-.488-.228-.718-.01-.23.06-.945.06-2.15 0-.69-.1-1.435-.187-2.15 1.057.82 2.2 1.654 3.296 2.392.49.33.947.625 1.36.87.41.24.59.435 1.43.622.216.046.47.116 1.01.014.54-.1 1.498-.69 1.8-1.493.3-.8.13-1.31.03-1.613-.1-.3-.19-.467-.273-.61-.35-.574-.67-.87-1.173-1.39-.224-.23-.61-.587-.884-.854 1.33.586 2.35 1.1 3.552 1.345.3.064.627.127 1.19.05.56-.08 1.675-.608 2.044-1.6.37-.996.095-1.635-.077-2.03-.17-.397-.36-.678-.564-.96-.72-1.008-2.11-1.276-3.155-.61-.45-.178-.57-.198-1.13-.445-1.31-.57-2.837-1.29-4.364-1.86-1.53-.57-2.966-1.052-4.56-1.052-.13 0-.3 0-.46.018-.106-.218-.216-.427-.395-.61-.06-.055-.3-.555-.6-1.557-.297-1-.714-2.4-1.723-3.78-8.46-11.584-15.64-28.36-25.975-38.364v-.016c.03-.72.05-1.46.05-2.198v-7.87c0-2.33.35-4.79.35-7.52v-18.28c.076 0 .15-.008.23 0 2.064.08 4.264.293 5.52.38 1.384.09 2.58-.968 2.67-2.35.09-1.386-.95-2.58-2.334-2.67-1.077-.07-3.42-.277-5.676-.368l-.41-.016v-6.77c0-1.664-.524-3.038-1.01-4.395-.48-1.36-.99-2.66-1.157-3.354-.692-2.857-1.402-5.93-2.96-9.125-.23-.477-.47-.94-.7-1.42-.67-1.37-1.452-2.63-2.27-3.796.04-.26.074-.52.047-.856-.04-.5-.19-1.32-.96-1.98-.53-.46-1.2-.63-1.74-.65-.55-.7-1.074-1.37-1.57-2.046-1.31-1.794-3.084-2.787-4.606-3.57-1.52-.78-2.86-1.406-3.57-1.95-2.66-2.05-6.36-3.128-9.05-3.68-.58-.12-1.17-.246-1.75-.366-2.94-.603-6-1.104-8.59-1.77-.926-.237-1.845-.347-2.73-.366zm.062 5.145c.564-.024 1.05-.02 1.42.077 2.92.75 6.06 1.26 8.844 1.83.58.12 1.16.23 1.74.35 2.09.43 5.68 1.75 7 2.76 1.47 1.136 3.02 1.75 4.33 2.43 1.31.67 2.31 1.35 2.83 2.07.4.55.8 1.09 1.2 1.62-.1.09-.2.166-.307.258-1.03.904-2.15 1.88-3.126 2.56-.98.68-1.85.915-1.74.915-5.297 0-12.72-4.994-20.24-8.236-2.824-1.218-5.754-2.18-8.744-2.29-.996-.036-1.996.02-3.004.2-4.04.71-7.803 3.47-10.74 8.495-3.298 5.64-3.175 11.58-4.043 16.23-.865 4.65-2.046 7.914-8.25 10.463-2.095.86-3.33.8-4.133.5-.806-.293-1.465-.94-2.06-2.084-.298-.573-.555-1.266-.76-2.013-.005-.003 0-.01 0-.014.015-.65.03-1.293.03-1.936 0-2.06.04-4.41.26-6.438.05-.04.094-.088.15-.126 1.03-.736 2.542-1.36 3.795-1.514 1.253-.15 2 .11 2.365.503.36.39.844 1.42.35 4.055v.013c-.03.03-.124.126-.336.29-.424.336-1.203.77-2.03 1.62-.693.628-.997 1.595-.76 2.5.24.908.98 1.608 1.893 1.816.913.21 1.866-.11 2.47-.82.18-.187.786-.57 1.543-1.16s1.805-1.59 2.12-3.19c.7-3.6.24-6.598-1.56-8.54-1.8-1.95-4.404-2.33-6.65-2.06-.624.07-1.245.2-1.845.362.306-.855.65-1.71 1.13-2.7.776-1.59 1.576-3.607 1.97-4.01 1.59-1.638 2.25-3.37 3.14-4.29 1.335-1.367 3.58-3.55 4.746-4.27.96-.593 1.97-1.395 2.94-2.09.978-.696 2.086-1.238 1.956-1.205 2.27-.58 4.94-.794 7.9-1.4 2.96-.61 4.403-1.008 7.504-1.008 2.503 0 4.98-.46 6.68-.533zm-192.005.564c.744 1.303 1.678 3.154 2.566 5.72.424 1.232.83 2.57 1.25 3.934-.937-.16-1.89-.313-2.854-.455-1.474-.22-2.903-.38-4.224-.476 1.108-2.828 2.23-5.82 3.265-8.725zm39.725 4.866c-.107-.002-.22.003-.32.015-.115.014-.205.03-.306.06-1.64.494-1.71 1.257-2.05 1.848-.34.59-.64 1.256-.98 2.12-.28.677-.24 1.44.09 2.09.33.65.94 1.125 1.65 1.298-.08 2.17-.25 4.81-.52 8.04-.86 10.175-2.35 23.64-2.35 30.905-.06.93.39 1.805 1.19 2.29.8.48 1.81.48 2.61 0 .32-.194.58-.45.78-.75.79.065 2.39.57 4.5-.15 3.48-1.194 8.37-2.165 12.4-4.516 2.01-1.175 3.86-2.78 4.97-5.05 1.104-2.27 1.34-5.07.58-8.19-.93-3.806-3.08-6.54-5.68-8.115-.642-.39-1.31-.71-1.984-.977.086-.058.174-.11.26-.168 2.294-1.593 4.272-3.42 5.46-5.673 1.19-2.253 1.32-5.33-.38-7.653-1.453-1.99-3.69-2.6-5.75-2.927-2.06-.33-4.19-.333-6.04-.365-1.47-.024-2.4-.14-3.098-.243-.035-1.315-1.08-2.395-2.397-2.452h-.077c-.12-.22-.29-.455-.566-.716-.43-.4-1.278-.69-2.018-.7zm609.03 3.797c-.027-.06.18.247.305.46-.006-.004-.027-.01-.03-.014-.26-.325-.264-.415-.276-.44zm-464.226.125c2.18-.01 4.7.726 7.44 1.905 6.74 2.91 14.24 8.64 22.24 8.64 1.95 0 3.29-.903 4.61-1.816 1.31-.915 2.53-1.99 3.57-2.9.02-.02.02-.015.04-.03.68.97 1.31 1.94 1.8 2.943.23.476.44.956.67 1.434 1.27 2.6 1.92 5.22 2.62 8.08.32 1.323.87 2.63 1.31 3.86.44 1.23.7 2.422.7 2.714v7.093c-.28.1-.557.25-.886.455-.835.436-1.364 1.29-1.36 2.23.005.94.537 1.8 1.373 2.226.28.14.564.21.87.243v8.16c-.13-.06-.26-.107-.4-.14-.11-.06-.296-.15-.52-.29-.444-.273-1.038-.67-1.6-1.05l-1.54-1.04c-.225-.15-.425-.28-.628-.397-.1-.06-.197-.117-.38-.2-.094-.04-.187-.092-.443-.152-.253-.054-.86-.423-1.933.417-.784.61-.83.86-1.22 1.34-.39.48-.85 1.04-1.266 1.497-.014.018 0 .018-.014.03-.26-.37-.404-.604-.78-1.02-.43-.472-1.077-1.16-2.334-1.25-1.256-.09-2.312.765-2.837 1.51-.49.697-1.126 1.49-1.695 1.968-.57.48-.855.55-1.1.51-2.727-.51-4.78-.02-6.36-.62-1.87-.715-4.36-3.04-6.916-4.365-.334-.18-.717-.28-1.096-.276-1.057 0-1.96.73-2.2 1.755-.24 1.023.26 2.08 1.203 2.55.373.19.87.53 1.434.94.252.8.943 1.427 1.815 1.54-.44-.045-.267-.084.11.37.43.53 1.02 1.41 1.66 2.38 1.28 1.94 2.64 4.303 4.97 5.69 4.232 2.516 6.776 4.54 12.385 4.926 4.553.31 8.19-1.638 11.593-4.79-.106 1.66-.276 3.425-.276 5.354v7.87c0 2.53-.337 5.37-.337 8.24v6.425c-14.98-.552-35.267 1.12-51.836.246-3.847-.2-8.33-.27-12.45-.59-4.117-.316-7.89-.95-9.917-1.89-.647-.3-1.098-.42-1.467-.44-.37-.027-.667.03-.99.03-.387 0-.544.01-.81.013-.08-2.96-.17-6.035-.17-7.37 0-3.705-.365-7.283-.365-10.737 0-3.06-.46-6.71-.06-8.36.837-3.43.76-6.656.76-9.9 0-3.46.37-6.69.37-10.374 0-.22.01-.45.016-.67.424.26.88.51 1.372.69 2.24.83 4.89.63 7.763-.55 7.618-3.125 10.308-8.833 11.306-14.184 1-5.35.98-10.434 3.43-14.63 2.44-4.177 4.78-5.646 7.276-6.085.47-.08.93-.134 1.44-.136zm-141.7 4.77c1.6.43 3.22.41 4.96.44 1.88.035 3.84.067 5.34.307 1.49.24 2.31.73 2.47.944.62.852.58 1.22 0 2.332s-2 2.58-3.88 3.89c-1.92 1.33-4.32 2.49-6.61 3.31-1.168.113-2.28.273-3.22.455.14-1.508.292-3.075.41-4.485.23-2.69.413-5.12.52-7.2zm5.23 16.077c2.06.043 4.08.463 5.62 1.4 1.55.94 2.76 2.31 3.412 5 .553 2.276.33 3.69-.213 4.81-.546 1.11-1.555 2.07-3.02 2.93-2.935 1.71-7.516 2.74-11.47 4.1-.168.05-.985-.08-2.35-.13.215-4.56.76-10.694 1.325-16.824 1.61-.202 3.302-.63 4.99-1.2.56-.04 1.11-.105 1.69-.09zm162.86 2.897c-.25.025-.52.095-.81.226-.76.352-1.26 1.167-1.42 1.817-.17.71-.47 1.57-.29 2.76.09.6.4 1.36 1.035 1.89.64.54 1.46.74 2.196.74.885 0 1.71-.144 2.458-.67.75-.525 1.19-1.462 1.24-2.21.094-1.5-.546-2.41-1.053-3.144-.21-.305-.51-.544-.85-.685-.033-.01-.575-.38-1.45-.61-.22-.054-.492-.11-.81-.104-.076 0-.156-.01-.24 0zm-209 18.14c-4.76 0-8.39 2.94-10.06 6.745-1.666 3.8-1.846 8.425-1.005 12.994.84 4.57 2.727 9.104 5.674 12.66 2.95 3.56 7.14 6.164 12.11 6.164 1.536 0 2.62-.085 3.68-.473 1.06-.39 2.03-1.374 2.39-2.106.727-1.46.154-1.15 1.1-1.8 1.144-.78 1.44-2.35.656-3.49-.78-1.14-2.35-1.43-3.492-.65-1.826 1.25-2.43 2.88-2.592 3.36-.173.044-.62.154-1.74.154-3.27 0-5.99-1.62-8.25-4.35-2.26-2.725-3.905-6.543-4.607-10.355-.7-3.814-.42-7.585.67-10.07 1.09-2.483 2.53-3.737 5.46-3.737.3 0 .75.17 1.46.81.712.64 1.542 1.66 2.44 2.76.9 1.1 1.83 2.285 3.14 3.235 1.315.95 3.357 1.606 5.28.95.895-.258 1.576-.987 1.77-1.896.196-.907-.13-1.842-.84-2.44-.71-.597-1.684-.76-2.545-.412-.266.09-.18.13-.72-.26-.536-.385-1.334-1.272-2.195-2.33-.86-1.056-1.794-2.282-2.99-3.355-1.19-1.07-2.8-2.09-4.804-2.09zm442.14 2.946c-.93.03-1.76.6-2.09 1.47-1.04 2.56-1.76 5.09-2.03 7.45-.2 1.74-.21 3.414.27 4.94-1.47.294-3.038.703-4.488 1.39-1.07-2.12-1.84-4.57-2.7-7.126-.32-.993-1.25-1.643-2.29-1.603-.74.03-1.44.4-1.85 1.007-.416.61-.49 1.38-.25 2.078.81 2.385 1.59 4.99 2.84 7.52-1.102.54-2.244 1.18-3.187 2.183.08-.53-.006-1.09-.305-1.57-.72-1.173-1.476-1.19-1.97-1.295-.5-.104-.945-.14-1.42-.14-.95 0-2.01.12-3.14.308-2.27.378-4.626.875-6.485 2.246-1.03.76-1.25 2.208-.49 3.238.76 1.03 2.22 1.27 3.25.5.38-.28 2.613-1.09 4.483-1.4.93-.153 1.82-.243 2.38-.24.14 0 .16.007.24.015.542.32 1.16.39 1.74.245-.715.71-1.55 1.51-2.427 2.345-1.483 1.41-3.052 2.885-3.89 4.94-1.25 3.065-2.763 6.317-3.69 9.84-1.85-1.37-3.576-2.21-5.25-2.99-1.94-.91-3.842-1.76-6.313-3.495-2.67-1.876-5.205-2.94-6.714-3.998-.375-.276-.82-.43-1.28-.448-.4-1.065-1.02-2.02-1.694-3.02-.847-1.254-1.81-2.51-2.61-3.57-.348-.46-.4-.56-.657-.93.37-1.075-.162-2.25-1.22-2.68-.293-.13-.58-.24-.97-.31-.2-.036-.44-.09-.75-.06-.312.027-.69.15-1.1.425-.822.556-1.06 1.667-1.005 2.186.054.52.17.796.29 1.05.477 1.01 1.155 1.815 1.954 2.87-.28-.18-.65-.435-.887-.58-.57-.344-.905-.57-1.49-.762-.15-.042-.32-.08-.61-.1-.295-.024-.8-.083-1.467.367s-.99 1.44-.96 1.94c.027.506.157.74.243.918.344.71.56.824.87 1.144.303.32.65.664 1.05 1.034.91.837 1.92 1.717 2.9 2.5-.72.08-1.26.1-1.94.26-1.08.25-1.69.476-1.89.517-.21.04-.11.06-.69-.073-1.16-.27-2.33.44-2.596 1.6-.27 1.16.454 2.323 1.616 2.59.887.2 1.787.237 2.5.09.72-.143 1.14-.322 2.03-.532.64-.15 2.873-.24 4.64-.64.44-.1.87-.2 1.37-.46.47-.24 1.186-.75 1.463-1.72.07.062.15.13.23.182 2.176 1.53 4.553 2.487 6.71 4 2.8 1.968 5.1 3.025 7.017 3.92 1.92.9 3.417 1.61 5.17 3.05.318.285.688.488 1.087.568-.302 2.122-.47 4.26-.47 6.572 0 .653-.03 1.383-.06 2.167-.203-.012-.4-.03-.61-.043-1.872-.113-3.93-.152-5.413-.197-.074-.005-.14-.005-.213 0-1.28.023-2.31 1.067-2.29 2.35.026 1.28 1.1 2.31 2.38 2.285 1.505.048 3.51.094 5.264.2.35.02.66.05.976.076.08.716.203 1.435.38 2.138.48 1.87.58 4.494.58 6.86 0 3.563.673 6.546.673 9.38v8.07c0 2.9.32 5.67.32 8.083v4.76c-1.774.57-3.503 1.23-5.11 2.015-2.376 1.16-4.884 1.74-7.278 2.91-.077.03-.17.064-.24.105-.134-.98-.75-1.567-1.176-1.88-.456-.34-.86-.52-1.28-.69-1.68-.664-3.87-1.11-4.47-1.36-.85-.34-1.24-.566-1.92-.82-.68-.253-1.58-.366-2.487-.304-.78.037-1.48.49-1.83 1.19-.35.7-.29 1.538.15 2.18.444.648 1.205.99 1.984.918.6-.04.496-.023.688.05.194.07.76.374 1.785.79.648.265 1.18.375 1.878.566-1.096.624-2.24 1.322-3.28 2.013-.455.3-.85.584-1.205.853-.35.27-.582.364-1.035 1.01-.117.16-.29.35-.4.84-.106.49.054 1.533.64 2.09.59.55 1.114.57 1.407.59.29.02.456-.005.61-.03.61-.1.98-.25 1.6-.502.245-.1.63-.29.915-.41-.94.894-1.714 1.59-2.334 2.5-.16.23-.34.47-.474.975-.137.5-.076 1.656.653 2.33.73.68 1.372.65 1.77.64.397-.01.707-.07 1.022-.15 1.09-.26 1.79-1.315 1.614-2.425v-.017c.32-.327.398-.426.81-.825.96-.922 2.09-2.005 3.13-3.113.82-.875 1.57-1.716 2.137-2.7.464.05.95-.04 1.37-.272 1.66-.815 4.36-1.45 7.29-2.885.94-.46 1.98-.885 3.11-1.282.074 1.45.18 2.74.03 3.33-.57 2.236-.39 4.3-.39 6.07v4.85c0 1.175.08 5.59.18 9.595.05 2 .1 3.87.137 5.122.02.62.05 1.09.06 1.37.002.07-.006.104 0 .17 0 .03.01.06.013.12 0 .03 0 .073.013.15.002.04.01.09.03.185.02.093.26.61.26.61l.88.12c.057.16.126.31.216.46.454.74 1.287 1.16 2.15 1.096h.46c-.46.56-.96 1.18-1.464 1.866-2.03 2.75-4.166 6.643-4.166 11.62 0 2.22.007 5.62.077 8.617.036 1.5.178 2.62.245 3.74.032.56.072 1.053.12 1.48.05.423.01.65.29 1.34.44 1.203 1.77 1.814 2.975 1.374 1.2-.44 1.83-1.77 1.39-2.97.004.01-.027-.094-.05-.275-.03-.283-.06-.695-.09-1.204-.06-1.018-.21-2.117-.242-3.585-.07-2.933-.08-6.32-.08-8.51 0-3.66 1.538-6.533 3.266-8.88.863-1.17 1.763-2.174 2.53-3.093.46-.553.93-.996 1.29-1.63 1.51-.036 3.02-.056 4.58-.09-.43.566-.81 1.16-1.16 1.77-1.71 3-2.694 6.526-3.155 9.7-.16 1.1-.312 2.2-.472 3.296-.55 3.78-.873 8.56.05 12.184.17.84.78 1.508 1.6 1.755.82.245 1.7.024 2.302-.58.603-.607.83-1.487.58-2.305-.573-2.25-.45-6.992.044-10.39.16-1.095.312-2.2.472-3.293.39-2.716 1.32-5.824 2.607-8.087 1.29-2.26 2.714-3.47 4.35-3.57.55-.01 1.06-.23 1.464-.58h23.978c5.823 0 11.934.96 18.107.96 2.47 0 4.08-.657 5.6-.657.32.024.63-.03.93-.14.622.016 1.25-.2 1.704-.66.58-.58.81-1.422.61-2.21.032.04-.11-.963-.17-1.937-.066-1.11-.13-2.52-.17-3.932-.04-1.413-.064-2.83-.06-3.935.004-.554.016-1.03.03-1.374.014-.256.057-.51.047-.49.864-3.54.03-7.33.03-9.82 0-3.34-.17-6.496.31-9.32.516-3.05.364-6.04.365-8.786 0-2.89.99-6.25.99-10.02 0-4.01.32-8.013.32-12.294v-10.33c0-3.28-.32-6.49-.32-9.38 0-3.585-.547-6.63-1.39-9.944-.48-1.89-.718-3.755-1.328-6.147-.71-2.797-2.363-4.48-3.128-5.98-1.264-2.48-2.917-4.19-4.18-5.847-1.59-2.08-4.014-3.67-5.936-4.807-2.225-1.31-4.476-2.49-7.217-3.16-.695-.17-1.378-.24-2.03-.28 1.016-.476 2.256-1.057 3.36-2.14.69-.66.894-1.68.53-2.56-.36-.88-1.224-1.45-2.18-1.43-.6.013-1.163.26-1.586.686-.225.22-1.83 1.03-3.326 1.86-.75.416-1.537.83-2.243 1.74-.274.355-.49.864-.594 1.42-.73-.24-1.434-.374-2.12-.43-.82-.064-1.59-.025-2.3.047-.423.047-.814.106-1.21.156-.05-.274-.132-.54-.29-.794.037-.06-.06-.925.23-2.06.33-1.246.88-2.585 1.22-3.765.22-.714.07-1.496-.38-2.09-.45-.594-1.16-.936-1.91-.915-1.01.03-1.89.726-2.16 1.706-.2.68-.833 2.23-1.264 3.89-.323 1.258-.693 2.68-.32 4.18-1.95-.075-4.112-.154-6.3.2-.27-.494-.52-1.765-.32-3.494.208-1.772.81-3.97 1.727-6.22.31-.73.237-1.57-.21-2.223-.444-.65-1.19-1.014-1.98-.99zm-220.13 2.29c.2.14.35.25.56.4.58.4 1.18.8 1.74 1.15.28.17.55.32.82.46.27.14.455.293 1.066.41.504.113.98.04 1.42-.157v2.335c-.657-.017-1.276.26-1.71.775-3.527 3.684-5.895 5.212-9.656 4.956-4.73-.324-5.97-1.656-10.45-4.317-.415-.25-1.06-.97-1.765-1.88 1.76.17 3.21-.01 4.06.15 1.97.37 3.69-.524 4.84-1.48.58-.48 1.066-.993 1.48-1.493.28.4.393.617.81 1.097.544.63 1.614 1.02 2.363.96.746-.057 1.205-.316 1.6-.563.79-.49 1.324-1.07 1.86-1.66.36-.4.66-.77.96-1.14zm462.52 7.1c-.15 0-.31.01-.46.02-1.23.08-2.53.45-3.84 1.094-5.74 2.816-8.74 7.42-10.16 11.212-.72 1.894-1.05 3.6-1.19 4.88-.01.028-.02.034-.02.06-2.73-.682-4.96-1.442-8.03-2.196-2.507-.613-5.135-.7-7.445-.7-1.73 0-4.364-.69-7.215-.625-.95.02-1.915.11-2.895.35-2.68.66-6.52.74-10.02 2.457-2.46 1.21-5.12 2.266-7.52 4.62-2.52 2.48-3.57 4.41-5.29 7.23-1.67 2.74-2.21 5.51-3.124 7.768-1.122 2.755-1.143 5.295-1.143 7.99v5.46c-1.484-.086-2.982-.18-4.47-.27-.08-.01-.15-.015-.23-.016-1.28-.015-2.335 1.02-2.35 2.3-.013 1.28 1.02 2.323 2.3 2.334 1.568.094 3.13.194 4.7.29-.09 2.477-.29 4.97-.29 7.67 0 3.057.657 5.58.657 8.085v8.085c0 .225-.01.448-.014.673-1.7-1.2-3.27-1.974-4.82-2.7-1.94-.91-3.86-1.79-6.33-3.524-2.67-1.874-5.22-2.924-6.73-3.982-.374-.27-.82-.41-1.28-.42-.4-1.07-1.005-2.044-1.68-3.05-.84-1.253-1.81-2.494-2.61-3.552-.345-.46-.394-.574-.65-.944.355-1.072-.177-2.24-1.22-2.67-.3-.125-.586-.233-.98-.303-.197-.04-.45-.08-.76-.05-.314.03-.674.12-1.086.4-.82.55-1.074 1.69-1.02 2.21.05.52.184.78.304 1.036.473 1.01 1.153 1.81 1.95 2.866-.275-.175-.66-.434-.9-.58-.57-.34-.89-.55-1.48-.745-.145-.05-.33-.11-.624-.14-.293-.03-.786-.086-1.45.365-.664.45-.99 1.45-.96 1.955.027.5.157.736.243.914.346.71.55.823.855 1.144.307.32.668.666 1.07 1.036.917.84 1.92 1.714 2.9 2.5-.72.08-1.27.115-1.95.275-1.08.253-1.69.462-1.893.503-.2.04-.1.055-.686-.077-.767-.22-1.587-.01-2.14.567-.55.576-.746 1.41-.5 2.17.246.756.897 1.323 1.68 1.463.886.203 1.786.236 2.5.09.717-.15 1.137-.327 2.03-.536.637-.15 2.87-.245 4.637-.64.443-.1.876-.216 1.375-.474.474-.246 1.19-.72 1.464-1.694.07.06.134.113.213.165 2.176 1.53 4.57 2.48 6.725 3.993 2.8 1.963 5.1 3.01 7.016 3.905 1.917.893 3.41 1.632 5.17 3.08.38.34.85.533 1.34.58-.02.53-.03 1.06-.03 1.613v1.45c-1.71.556-3.38 1.19-4.94 1.95-2.373 1.164-4.9 1.746-7.29 2.916-.08.04-.153.09-.23.138-.123-.99-.75-1.592-1.173-1.906-.454-.33-.863-.503-1.283-.67-1.68-.665-3.867-1.11-4.47-1.356-.847-.346-1.237-.584-1.92-.84-.685-.253-1.565-.37-2.47-.304-.787.02-1.507.482-1.86 1.19-.357.7-.31 1.53.135 2.18.44.65 1.21 1.002 1.992.93.597-.04.493-.03.687.04.195.073.775.375 1.8.794.64.26 1.185.373 1.88.563-1.09.62-2.23 1.328-3.27 2.01-.45.31-.88.57-1.23.84-.355.27-.57.37-1.02 1.01-.12.16-.277.36-.385.86-.11.493.055 1.524.64 2.076.59.552 1.1.59 1.39.61.295.02.475-.006.627-.03.61-.1.956-.268 1.575-.52.242-.1.646-.287.93-.41-.94.897-1.73 1.59-2.35 2.5-.16.233-.323.49-.458.992-.14.5-.078 1.64.652 2.316.726.676 1.37.65 1.766.64.4-.01.693-.075 1.01-.154 1.103-.253 1.813-1.32 1.63-2.44v-.014c.31-.325.38-.43.793-.825.96-.92 2.11-1.984 3.145-3.093.833-.896 1.597-1.757 2.166-2.764.445.06.91.016 1.345-.195 1.662-.814 4.357-1.465 7.29-2.9.874-.426 1.857-.815 2.9-1.19v1.695c0 2.87.32 5.68.32 8.084 0 .744-.355 5.71-.748 10.236-.2 2.26-.41 4.492-.58 6.21-.09.855-.15 1.597-.218 2.133-.064.534-.18 1.07-.106.775-.23.81-.02 1.675.58 2.27.6.596 1.463.815 2.273.58.324-.094.62-.26.87-.473.525.32 1.103.53 1.645.655.666.153 1.326.225 2 .228-.513.588-1.063 1.24-1.634 1.988-2.043 2.675-4.22 6.468-4.22 11.335 0 2.155.02 5.463.09 8.376.035 1.456.085 2.8.15 3.89.038.543.077 1.017.127 1.433.05.416-.004.65.29 1.343.45 1.18 1.775 1.768 2.96 1.31 1.18-.45 1.78-1.772 1.325-2.96.016.04-.01-.04-.03-.223-.036-.273-.064-.683-.094-1.176-.06-.982-.114-2.31-.15-3.734-.07-2.842-.075-6.12-.075-8.25 0-3.51 1.54-6.27 3.28-8.54.868-1.133 1.77-2.13 2.546-3.02.74-.85 1.514-1.363 1.812-2.94.684-.223 1.35-.465 1.953-.716.74-.305 1.4-.62 1.985-.96.03-.02.06-.043.09-.06.54.264 1.25.595 2.043.93-1.286 1.057-2.33 2.427-3.156 3.875-1.71 3-2.693 6.525-3.154 9.7-.16 1.096-.313 2.2-.473 3.294-.55 3.782-.876 8.56.046 12.186.313 1.24 1.58 1.99 2.82 1.676 1.245-.314 1.993-1.564 1.68-2.808-.57-2.25-.45-6.993.046-10.39.16-1.1.31-2.2.47-3.295.395-2.713 1.306-5.82 2.59-8.084 1.29-2.26 2.73-3.47 4.367-3.57.67-.016 1.27-.328 1.69-.825.77.02 1.57-.042 2.36-.2 1.05-.204 1.764-.56 2.243-.714 1.2-.393 2.01-.71 2.67-1.023.97.71 2.43 1.52 4.94 2.575 2.083.876 4.114.895 5.69.304 1.575-.59 2.617-1.6 3.417-2.31.8-.705 1.367-1.06 1.56-1.11.196-.055.348-.18 1.37.575 2.797 2.06 6.71 2.624 10.59 2.565 2.73-.04 5.41-.358 7.64-1.39.41.66 1.14 1.1 1.97 1.1 1.28 0 2.334-1.04 2.334-2.32 0-.89-.153-1.9-.35-3.46-.193-1.565-.443-3.47-.7-5.357-.256-1.888-.51-3.76-.7-5.218-.095-.73-.175-1.35-.23-1.817-.053-.466-.075-.91-.075-.73 0-2.23-.014-4.474-.353-6.804-.41-2.867-.3-5.86-.3-9.03 0-2.938.32-5.925.32-9.047 0-3.443-.538-7.174-.05-9.566.86-4.234-.21-8.016.332-10.678.583-2.866.99-7.646.32-10.94-.54-2.64-1.266-6.394-1.266-8.585 0-1.92-.39-3.445-.84-4.67-.34-.93-.69-1.687-.96-2.517.48.165.983.307 1.523.413 2.22.432 4.214 1.3 6.56 1.995 2.35.695 5.1 1.12 8.3.336 1.34-.33 1.807-.84 2.67-1.51.86-.68 1.78-1.536 2.654-2.446.87-.91 1.7-1.855 2.316-2.884.31-.514.57-1.05.736-1.707.162-.66.227-1.56-.23-2.46-.84-1.65-1.878-3.664-3.617-5.37-1.74-1.71-4.29-2.99-7.49-2.99-5.3 0-9.076 2.31-11.7 4.74-1.948 1.804-3.47 3.604-4.65 4.73-.32-.4-.677-.78-1.148-1.13-.88-.645-1.994-1.576-2.822-2.393 4.265-.55 7.92-2.01 11.518-5.54 3.11-3.06 4.002-7.84 3-11.87-.5-2.01-1.62-3.99-3.66-5.016-.894-.45-1.9-.666-2.96-.656zm169.56 2.98c-.39.01-.75.04-1.1.07-1.42.15-2.6.37-3.848.37-1.27 0-2.71-.08-4.21-.105-.51-.04-.99-.073-1.39-.073-6.08 0-9.44.006-11.15.076-.43.02-.75.02-1.07.06-.16.023-.31.043-.61.14-.15.05-.35.1-.706.35-.35.253-1.045 1.03-.974 2.06 0 .02.01.025.013.045-.238.067-.46.09-.78.308-.39.267-.84.84-1.02 1.464-.658.32-1.32.67-1.95 1.114-.8.13-1.588.35-2.35.702-.81.303-1.38 1.03-1.48 1.89-.046.376.01.756.14 1.1l-1.697 1.614c-1.485 1.41-3.04 2.884-3.876 4.94-1.43 3.513-3.23 7.266-4.07 11.394-.67 3.25-1.04 6.36-1.04 9.856 0 .655-.038 1.385-.06 2.17-.21-.013-.4-.03-.61-.044-1.88-.112-3.938-.15-5.42-.196-.074-.008-.153-.008-.23 0-1.28.02-2.296 1.064-2.27 2.35.024 1.28 1.083 2.31 2.363 2.282 1.504.05 3.51.094 5.264.2.343.02.67.053.99.076.075.714.19 1.433.365 2.14.477 1.87.594 4.493.594 6.86 0 3.563.65 6.546.65 9.38v8.07c0 1.743.12 3.43.216 5.033-1.66.27-3.087.695-4.47 1.11-2.055.63-4.06 1.25-7.08 1.62-3.25.4-5.856 1.3-7.702 1.53-.48.06-.917.26-1.25.55-1.03-.53-2.148-.82-3.34-1.11-1.488-.36-3.065-.64-4.38-.884-.587-.11-.708-.143-1.16-.245-.367-.84-1.225-1.35-2.136-1.28-.2.014-.388.057-.57.12-.305.107-.574.218-.914.43-.34.21-.928.557-1.16 1.54-.23.985.375 1.95.762 2.29.384.34.67.44.93.55 1 .41 2.033.574 3.292.81-.263.04-.658.09-.884.134-.66.126-1.036.194-1.604.44-.14.064-.31.13-.55.31-.237.18-.655.496-.84 1.296-.183.8.283 1.75.64 2.09.36.34.598.42.78.49.72.284.943.23 1.387.26.44.034.945.04 1.494.046 1.27.01 2.643-.018 3.92-.09-.47.532-.844.904-1.235 1.48-.626.91-.92 1.47-1.04 1.63-.12.154-.018.09-.537.38-1.04.574-1.43 1.884-.852 2.93.578 1.04 1.888 1.43 2.93.85.794-.44 1.49-1.026 1.923-1.616.43-.59.62-.99 1.13-1.74.35-.52 1.922-2.09 2.96-3.57.253-.37.505-.744.7-1.28.175-.49.35-1.313-.06-2.18.065 0 .14-.01.21-.014 2.65-.322 5.067-1.2 7.703-1.523 3.41-.416 5.824-1.184 7.852-1.8 1.15-.35 2.164-.637 3.25-.853v6.116c0 2.14.29 4.41.074 5.25-.56 2.194-.42 4.215-.41 5.964-1.396.945-2.83 1.84-4.15 2.956-.067.056-.12.123-.183.185-.362-.94-1.12-1.355-1.614-1.556-.52-.21-.956-.276-1.404-.336-1.795-.235-4.034-.137-4.68-.23-.91-.13-1.35-.27-2.075-.35-.725-.08-1.606.04-2.47.32-.78.196-1.386.82-1.57 1.6-.187.785.074 1.58.684 2.106.61.53 1.46.686 2.21.386.57-.182.46-.142.67-.12.205.024.85.18 1.95.336.68.095 1.22.062 1.92.075-1.13.1-2.284.154-3.51.154-10.993 0-21.48 1.4-32.094 1.4-4.22 0-8.45-.06-12.69-.14.852-.2 1.57-.893 1.75-1.813.244-1.256-.577-2.47-1.83-2.715-4.07-.8-9.26-1.122-14.1-1.342-4.83-.22-9.35-.333-11.47-.564-.15-.02-.3-.027-.455-.017-1.21.08-2.17 1.09-2.18 2.304-.006 1.216.94 2.224 2.153 2.32 2.616.285 6.98.363 11.747.58 4.666.213 9.64.55 13.18 1.22-6.82-.13-13.67-.275-20.56-.275-7.567 0-17.976-.91-24.576-.49-1.29.08-2.265 1.17-2.18 2.44.084 1.266 1.195 2.23 2.486 2.15 5.823-.37 16.35.47 24.27.47 8.78 0 17.56.277 26.372.4-.023 4.575-.46 12.735-.46 18.95v12.47c-.186.193-.448.44-.823.763-.89.76-2.16 1.725-3.46 2.7-1.31.972-2.65 1.947-3.72 2.73-.34.245-.61.433-.89.64-.96-.124-1.89.367-2.35 1.204-.46.836-.34 1.856.29 2.58.025.034.023.06.074.135.103.16.2.42.84.81.31.195.88.426 1.52.367.616-.058 1.145-.36 1.45-.64-.01.005.004-.008.045-.048.08-.07.26-.228.47-.387.34-.25.8-.59 1.33-.976 1.064-.774 2.42-1.76 3.767-2.76 1.024-.765 2.04-1.534 2.927-2.26.68.66 1.44 1.14 2.23 1.634 2.24 1.4 5.32 4.72 5.87 5.4.44.538.88 1.15 1.39 1.816.493.67 1.33 1.04 2.162.946.84-.093 1.55-.64 1.875-1.4.33-.763.23-1.648-.29-2.303-.446-.59-.933-1.25-1.49-1.937-1.845-2.262-5.08-5.2-6.99-6.39-.72-.45-1.04-.743-1.293-.975.36-.72.3-1.563-.15-2.24-.03-.053-.06-.114-.1-.165v-11.72c0-5.976.432-14.04.455-18.9 1.136.01 2.263.017 3.4.017 10.795 0 21.075-1.346 31.425-1.403-.05.103-.1.223-.155.365-.07.183-.172.41-.152.915.02.5.428 1.454 1.13 1.842.7.385 1.207.294 1.495.24.29-.05.452-.12.594-.18.57-.247.865-.476 1.4-.87.23-.167.59-.466.86-.67-.71 1.13-1.3 1.976-1.68 3.034-.1.266-.2.56-.2 1.08-.008.525.333 1.62 1.2 2.09.87.476 1.495.29 1.88.185.383-.105.66-.23.944-.38 1.01-.53 1.423-1.753.96-2.793.22-.39.26-.5.563-.99.7-1.13 1.55-2.46 2.275-3.787.577-1.053 1.09-2.06 1.39-3.16.45-.06.885-.238 1.235-.548.33-.286.72-.58 1.16-.886.01 1.564.09 5.29.18 8.94.05 2 .113 3.873.15 5.124.02.625.034 1.095.05 1.373 0 .07-.007.103 0 .165 0 .032.006.063.013.122.007.03-.01.072 0 .15l.05.182c.02.093.245.61.245.61s.576.09.92.136c.05.16.11.3.196.444.45.74 1.285 1.16 2.15 1.1h.44c-.46.56-.93 1.18-1.434 1.866-2.03 2.75-4.18 6.644-4.18 11.62 0 2.22.02 5.62.09 8.62.032 1.5.084 2.894.15 4.01.034.56.06 1.057.107 1.48.05.426.01.655.29 1.344.44 1.203 1.76 1.814 2.96 1.373 1.206-.44 1.83-1.77 1.39-2.973.008.01-.023-.11-.044-.29-.03-.283-.045-.695-.075-1.204-.06-1.02-.12-2.376-.15-3.844-.07-2.938-.08-6.32-.08-8.51 0-3.66 1.54-6.536 3.267-8.88.867-1.172 1.75-2.18 2.52-3.097.466-.555.93-.998 1.297-1.63 1.51-.038 3.02-.058 4.575-.093-.428.567-.81 1.16-1.158 1.77-1.71 3-2.685 6.527-3.146 9.7-.16 1.1-.313 2.2-.47 3.297-.553 3.784-.894 8.564.03 12.19.167.837.78 1.506 1.6 1.75.82.25 1.715.03 2.32-.58.6-.602.827-1.482.58-2.3-.574-2.25-.434-6.994.06-10.39.16-1.1.31-2.2.47-3.294.4-2.717 1.29-5.825 2.58-8.088 1.29-2.26 2.73-3.465 4.36-3.57.55-.014 1.07-.224 1.47-.58h23.963c5.823 0 11.95.965 18.123.965 2.47 0 4.062-.66 5.58-.66.324.028.65-.03.945-.133.63.017 1.24-.2 1.696-.655.58-.575.807-1.42.61-2.21.034.038-.095-.963-.153-1.937-.065-1.117-.126-2.526-.167-3.938-.04-1.41-.066-2.83-.06-3.933 0-.55.014-1.03.03-1.37.01-.257.055-.51.045-.49.86-3.542.046-7.33.046-9.822 0-3.34-.19-6.5.29-9.32.515-3.055.363-6.04.363-8.79 0-2.887.98-6.25.98-10.02 0-4.01.336-8.014.336-12.295v-10.34c0-3.282-.334-6.493-.334-9.382 0-3.584-.55-6.63-1.39-9.943-.48-1.89-.7-3.755-1.31-6.147-.71-2.795-2.38-4.48-3.146-5.98-1.26-2.478-2.92-4.187-4.18-5.845-1.59-2.08-4.016-3.67-5.938-4.802-2.222-1.31-4.457-2.49-7.2-3.16-1.667-.41-3.24-.293-4.605-.28-1.362.02-2.494-.07-3.002-.27-.885-.35-1.752-.514-2.58-.58-.41-.03-.83-.04-1.22-.03zm-169.43 1.613c.313.016.55.09.73.183.485.24.965.87 1.25 2.01.566 2.28-.3 6.017-1.755 7.444-3.66 3.592-6.517 4.3-11.41 4.44-.01-.06-.03-.117-.046-.18 0-.18.003-.4.044-.76.102-.92.37-2.29.93-3.786 1.12-2.98 3.322-6.44 7.854-8.662.9-.44 1.565-.63 2.06-.67.126-.012.23-.022.34-.015zm-228.108 3c.71-.03 1.29.05 1.95.307 1.69.667 3.33.616 4.77.596 1.44-.02 2.71-.033 3.412.14 2.1.515 3.87 1.42 5.964 2.655 1.64.968 3.85 2.62 4.607 3.617 1.457 1.91 2.84 3.386 3.736 5.14 1.17 2.295 2.44 3.72 2.78 5.036.53 2.08.76 3.89 1.327 6.117.794 3.123 1.235 5.69 1.235 8.815 0 3.223.32 6.43.32 9.383v10.322c0 4.038-.32 8.04-.32 12.297 0 2.85-.99 6.22-.99 10.02 0 2.894.11 5.65-.29 8.026-.306 1.78-.417 3.52-.43 5.22-1.95.507-3.92 1.13-4.39 1.13-6.928 0-13.25 2.013-19.926 2.013-5.32 0-13.8-1.102-21.92-1.844-7.08-.648-13.78-1.185-18.75.013.035-.254.08-.49.136-.72.58-2.283.18-4.49.09-5.92.613-.174 1.23-.36 1.846-.53 3.452-.97 6.82-1.88 9.472-3.435.94-.54 1.364-1.65 1.05-2.687-.313-1.034-1.284-1.723-2.363-1.65-.363.03-.71.15-1.02.34-1.77 1.04-4.95 1.993-8.39 2.96-.2.055-.41.11-.61.17v-3.405c0-2.8-.333-5.555-.333-8.08v-4.29c1.63.397 3.64.794 5.75 1.1 3.087.443 5.93.903 8.56.013 3.09-1.047 5.374-2.08 7.823-4.41 1.02-.97 1.577-2.05 2.21-3.28.636-1.23 1.244-2.586 1.846-3.86.552-1.166 1.11-2.26 1.586-3.05 1.533-.96 2.9-2.217 3.68-4.057.332-.77.25-1.66-.218-2.362-.468-.7-1.247-1.11-2.09-1.1-1 .016-1.898.617-2.27 1.54-.02.054-.067.104-.09.155-1.48.456-2.178 1.33-2.765 2.24-.173.09-.345.174-.533.26-1.936.9-4.47 1.736-6.97 2.915-1.518.712-4.75.874-8.15.55-3.15-.308-6.4-.91-9.05-1.21-.03-2.13-.164-4.45-.716-6.62-.08-.31-.14-.686-.182-1.066.25-.21.47-.46.61-.78.46-1.01.13-2.18-.73-2.82.014-1.06.047-2.13.047-3.158 0-3.17.33-5.9.943-8.92.685-3.37 2.33-6.91 3.83-10.59.28-.69 1.393-2.01 2.774-3.32 1.38-1.316 2.95-2.66 4.15-4.226.275-.357 1.196-1 2.365-1.554 1.17-.56 2.522-1.05 3.736-1.65 1.44-.71 4.56-1.148 7.107-1.77 2.29-.566 5.465-.26 8.65-.26 1.78 0 3.23-.28 4.347-.4.28-.03.525-.05.764-.062zm392.18.993c1.45.21 2.08.23 3.69.503 3.85.65 7.6 1.336 8.94 1.554 1.26.21 2.45-.66 2.65-1.92.002-.05.01-.084.01-.136.11.014.255.02.35.044 2.096.514 3.866 1.42 5.964 2.654 1.64.966 3.85 2.62 4.606 3.615 1.46 1.91 2.83 3.383 3.72 5.14 1.17 2.292 2.44 3.72 2.78 5.033.53 2.08.76 3.89 1.33 6.116.796 3.122 1.236 5.69 1.236 8.814 0 3.22.336 6.427.336 9.38v10.327c0 4.036-.337 8.038-.337 12.295 0 2.846-.98 6.22-.98 10.02 0 2.89.1 5.646-.305 8.023-.304 1.78-.4 3.52-.414 5.217-1.95.505-3.934 1.13-4.41 1.13-6.923 0-13.23 2.01-19.905 2.01-5.32 0-13.8-1.105-21.92-1.847-2.7-.25-5.36-.474-7.87-.596 2.37-1.39 4.62-2.8 6.33-4.49.698-.66.9-1.69.53-2.58-.37-.887-1.25-1.448-2.21-1.418-.6.017-1.16.26-1.582.69-1.45 1.43-4.28 3.154-7.365 4.926-1.79 1.03-3.672 2.09-5.46 3.25-.388.07-.76.14-1.13.23.037-.256.096-.49.155-.72.65-2.55.074-5.026.074-6.41v-7.58c.21-.36.337-.76.33-1.21-.004-.48-.16-.93-.41-1.296-.1-1.983-.26-3.932-.26-5.75v-8.07c0-1.372-.12-2.66-.244-3.903 2.56-.31 5.63-.855 8.6-1.14 3.394-.33 6.63-.166 8.144.55 2.5 1.176 5.053 2.01 6.987 2.91 1.935.9 3.03 1.79 3.387 2.64.33.84 1.073 1.45 1.97 1.57.893.12 1.78-.267 2.32-.99.54-.726.66-1.68.29-2.503-1.135-2.69-3.536-4.12-5.876-5.212-2.34-1.09-4.842-1.917-6.954-2.91-2.42-1.14-5.165-1.335-7.95-1.207-.926.044-1.864.125-2.79.215-3.17.31-6.254.836-8.542 1.13-.008-.173 0-.344 0-.52 0-2.47-.06-5.36-.736-8.01-.077-.29-.14-.63-.187-.98.625-.49.96-1.274.87-2.07-.074-.68-.43-1.26-.974-1.633.01-1.055.03-2.12.03-3.142 0-3.17.312-5.895.93-8.92.685-3.367 2.33-6.91 3.83-10.587.28-.69 1.392-2.01 2.773-3.325 1.375-1.31 2.95-2.65 4.15-4.21 1.41-.02 3.12.26 4.94.84 2.716.86 5.54 2.285 7.993 3.69 1.23.764 2.41 1.532 3.414 2.27 1.41 1.04 2.27 1.62 2.838 1.97.144.086.255.167.444.26.096.044.2.105.49.18.144.04.314.094.763.06.45-.03 1.52-.4 1.95-1.34.43-.94.16-1.56.045-1.845-.116-.29-.206-.41-.274-.505-.14-.194-.208-.27-.275-.337-.136-.14-.235-.21-.35-.31-.94-.79-2.97-2.25-5.78-3.92-.27-.16-.61-.313-.887-.473-.9-.56-1.798-1.076-2.7-1.6 1.102.256 1.813.393 3.125.714 3.034.747 9.33 3.286 11.85 4.18.314.114.57.186.84.26.134.04.244.075.563.11.16.02.337.11.948-.073.306-.09.82-.29 1.236-.87.413-.577.472-1.426.365-1.89-.213-.926-.513-1.02-.656-1.16-.144-.14-.228-.2-.307-.26-.16-.114-.28-.18-.41-.257-.27-.16-.58-.337-1.01-.565-1.17-.62-4.62-2.327-7.69-3.844zm-455.52 9c.11.02.09.09.04.075-.01-.003-.08-.054-.09-.06.01 0 .04-.02.048-.015zm252.45.87c2.07-.05 4.917.53 7.716.53 2.155 0 4.49.126 6.346.58 2.922.72 5.17 1.523 8.24 2.274.44.11.803.2 1.14.306.026.05.06.105.09.155.415.648 1.126 1.047 1.89 1.068.095.14.19.29.29.49 1.32 2.598 3.79 4.247 5.295 5.357-.02-.016.67.854 1.112 1.89.44 1.036.803 2.225.99 2.96.42 1.64.97 2.81 1.327 3.782.36.98.565 1.765.565 3.085 0 3.1.835 6.87 1.372 9.5.34 1.69.09 7.07-.32 9.11-.86 4.22.21 7.97-.34 10.66-.76 3.72-.048 7.66-.048 10.49 0 2.774-.338 5.78-.338 9.043v.565c-.164.062-.313.143-.46.243-.59.387-.937.79-1.036.946.07-.014.043-.002-.018.06-.03.03-.028-.002.01-.06-.044.01-.067.02-.305.077-5.24 1.287-10.05 1.97-15.94 1.97-13.54 0-30.85-1.3-42.48-1.36v-1.72c.677-.2 1.363-.39 2.043-.58 3.454-.97 6.824-1.895 9.474-3.45.94-.54 1.383-1.65 1.07-2.686-.314-1.036-1.3-1.71-2.38-1.63-.364.024-.71.13-1.023.32-1.77 1.04-4.95 2.01-8.39 2.972-.26.072-.53.14-.79.214v-.09c0-2.283.34-4.68.34-7.43v-6.26c.782.605 1.713 1.12 2.82 1.465 2.53.785 6.543 1.94 10.04.81 2.55-.83 4.41-1.66 6.433-3.51.844-.77 1.305-1.627 1.83-2.607s1.04-2.07 1.54-3.08c.46-.936.907-1.79 1.3-2.41 1.263-.758 2.4-1.737 3.05-3.22.303-.66.24-1.44-.185-2.03-.427-.59-1.128-.9-1.848-.826-.73.08-1.367.544-1.65 1.22-.02.046-.064.09-.092.136-1.173.35-1.753 1.033-2.24 1.753-.156.077-.32.14-.49.216-1.606.716-3.706 1.38-5.767 2.316-1.166.523-4.387.67-7.645.38-2.784-.25-5.6-.69-7.78-.95.026-2.326.21-4.66.29-7.14.49-.153.91-.463 1.21-.898.48-.706.527-1.627.137-2.38-.276-.54-.745-.92-1.297-1.117v-5.82c0-2.65.05-4.35.82-6.24 1.13-2.773 1.67-5.27 2.794-7.11 1.785-2.917 2.43-4.224 4.58-6.33 1.66-1.632 3.69-2.494 6.316-3.784 2.18-1.07 5.67-1.27 9.075-2.106.39-.1.82-.13 1.3-.14zm51.266 3.31c2.07 0 3.2.626 4.256 1.66.942.925 1.72 2.266 2.456 3.68-.03.07-.03.063-.09.165-.31.527-.96 1.316-1.68 2.06-.71.745-1.5 1.464-2.16 1.984-.5.39-1.115.657-1.13.7-2.17.49-3.78.26-5.674-.3-1.96-.58-4.17-1.553-6.99-2.105-.5-.1-.865-.277-1.254-.43 1.285-1.296 2.435-2.698 3.74-3.905 2.16-2 4.494-3.505 8.525-3.505zm-630.67 1.41c-.14.004-.29.02-.43.047-8.32 1.422-17.335.79-26.51.93-1.39.02-2.49 1.16-2.47 2.546.02 1.39 1.16 2.51 2.545 2.49 8.89-.137 18.156.523 27.29-1.04 1.28-.23 2.17-1.39 2.06-2.685-.11-1.3-1.19-2.29-2.487-2.29zm84.37 9.84c.615.285 1.26.543 1.936.763.032.09.084.177.152.303.045.09.084.196.164.306.08.11.32.34.32.34l.016.02c2.505 5.05 4.63 8.023 8.238 12.963 2.17 2.97 5.03 5.31 8.41 6.12 3.38.81 7.21-.26 10.19-3.327 3.19-3.27 6.61-6.58 9-8.695.76-.67 1.1-.91 1.57-1.28h.02c.485.02.94-.1 1.34-.332.36.25.766.536 1.24.9 1.54 1.2 3.58 2.91 5.736 4.7s4.437 3.67 6.59 5.22c2.15 1.544 4.042 2.792 6.115 3.323 1.47.38 2.61.64 3.905.49 1.296-.15 2.64-1.08 3.28-2.04 1.28-1.93 1.445-3.68 2.9-6.67 2.253-4.63 2.606-6.46 4.5-10.39l.487.012c-.076 1.14-.15 2.33-.15 3.6v20.06c0 1.374.213 9.174.473 16.76.13 3.79.265 7.435.395 10.05.054 1.12.11 1.997.166 2.685-.12-.01-.174-.014-.21-.014-.08-.002-.1 0-.125 0h-.09c-.04 0-.08-.002-.124 0-.09.005-.19.02-.34.03-.3.02-.72.044-1.235.077-1.03.068-2.42.155-3.9.245-2.96.18-6.363.367-7.507.367-5.26 0-10.352-.03-15.18-1.02-1.54-.318-3.11-.458-4.663-.49-.587-.017-1.16-.02-1.74 0-4.05.11-7.97.79-11.2.79H203.3c-1.625 0-2.884-.015-3.905-.28-.23-.055-.46-.08-.69-.073.034-.51.05-.92.094-1.56.154-2.33.383-5.41.592-8.497.207-3.09.406-6.18.564-8.513.075-1.165.134-2.142.18-2.836.02-.35.046-.63.06-.824l.013-.23c.003-.06 0 .13 0-.24 0-2.46-.336-4.146-.336-6.086.32-10.587-.47-15.53.277-25.718v-.2c0-.174-.012-.5-.015-.716.24 0 .48-.012.7-.012.487.007 1.096.268.366-.07zm2.332 1.235c.042.085.083.135.123.216-.108-.15-.123-.22-.123-.22zm280.54.475c-.317 0-.6.05-.826.103-.89.22-1.46.59-1.51.61-.35.133-.663.37-.886.67-.534.737-1.216 1.654-1.114 3.216.052.78.54 1.77 1.312 2.29s1.605.654 2.516.654c.754 0 1.58-.183 2.242-.716.662-.53 1-1.317 1.097-1.937.198-1.235-.11-2.13-.29-2.835-.17-.68-.74-1.49-1.51-1.83-.386-.17-.722-.23-1.037-.23zm397.67 0c-.315 0-.6.05-.823.103-.89.22-1.44.59-1.49.61-.35.133-.66.37-.88.67-.53.737-1.213 1.654-1.11 3.216.05.78.54 1.77 1.31 2.29.774.52 1.62.654 2.533.654.752 0 1.56-.183 2.224-.716.663-.53 1-1.317 1.1-1.937.195-1.235-.127-2.13-.307-2.835-.17-.68-.722-1.49-1.492-1.83-.386-.17-.74-.23-1.054-.23zm-672.138.332c1.052.12 2.125.205 3.218.29 4.335.335 8.874.415 12.57.61 4.204.22 8.6.29 13.06.274-.645.49-1.323 1.082-2.15 1.813-2.557 2.26-6.008 5.63-9.26 8.97-2.013 2.067-3.647 2.35-5.445 1.92-1.8-.43-3.85-1.925-5.507-4.193-2.914-3.99-4.674-6.406-6.482-9.687zm58.743.564c1.01-.01 2 0 2.97 0-1.25 2.865-1.8 4.723-3.53 8.265-1.576 3.236-2.26 5.414-2.49 5.89-.205-.003-.733-.02-1.846-.304-.62-.16-2.46-1.135-4.425-2.546-1.963-1.41-4.18-3.232-6.315-5.002-2.13-1.77-4.17-3.493-5.855-4.803-.46-.36-.9-.686-1.315-.98 7.89-.156 15.73-.46 22.79-.52zM684 228.707c-.27 0-.5.046-.69.094-.76.19-1.25.5-1.3.517-.3.12-.56.32-.75.58-.456.63-1.063 1.41-.976 2.74.044.67.483 1.51 1.144 1.953.66.442 1.373.562 2.15.562.646 0 1.34-.16 1.91-.61.565-.46.86-1.14.944-1.67.17-1.06-.12-1.82-.276-2.43-.148-.576-.61-1.266-1.268-1.557-.33-.146-.63-.197-.9-.2zm-443.68 2.67c-.59-.04-1.39.124-2 .596-.61.474-.94 1.14-1.08 1.694-.44 1.74-.19 3.31.9 4.743.54.72 1.58 1.51 2.9 1.45 1.31-.05 2.28-.85 2.91-1.71.203-.28.36-.61.423-.96.42-2.09-.563-3.67-1.694-4.71-.57-.52-1.19-1.02-2.37-1.1zm307.99 3.266c-1.11.063-2.026.854-2.185 1.906-2.557 15.533-2.41 35.588-2.41 52.568 0 7.375-.15 14.776-.288 22.193-.06.06-.13.11-.185.17-.12.03-.105.05-.306.08-.84.13-2.235.2-3.72.23-2.97.057-6.35-.06-8.038-.06-6.932 0-14.312-1.45-21.964-1.45-4.9 0-9.83-.49-14.812-.49-2.036 0-3.975.986-4.972 2.38-.997 1.4-1.267 2.938-1.42 4.457-.3 3.037.027 6.32-.272 8.13-.5 3.03-.532 6.11-.52 9.06-.007.06-.026.123-.03.185-.05.717-.01 1.42.03 2.04v.715h.046c.01.16.014.323.014.458 0 .52.03.34-.01.507-.268.85-.048 1.78.58 2.41.625.63 1.546.86 2.393.6.85-.26 1.49-.97 1.65-1.84.15-.584.17-1.17.17-1.664 0-.456-.02-.936-.03-1.387v-.11c-.01-3.555-.08-7.11.44-10.237.48-2.88.08-6.13.31-8.435.112-1.153.4-1.974.623-2.288.225-.318.19-.385 1.007-.385 4.65 0 9.592.472 14.812.472 6.99 0 14.363 1.462 21.962 1.462 1.41 0 4.967.12 8.148.06 1.46-.03 2.81-.088 4.01-.246-.06 3.97-.12 7.93-.12 11.91 0 2.94-.46 5.44-.46 8.71 0 1.362.42 2.252.52 2.73.12.83.71 1.53 1.53 1.814.82.285 1.74.11 2.38-.457.64-.57.9-1.44.67-2.244-.22-1.05-.41-1.65-.41-1.845 0-2.82.457-5.334.457-8.71 0-12.92.472-25.91.472-38.93 0-17-.08-36.95 2.38-51.86.12-.674-.072-1.354-.55-1.86-.472-.51-1.18-.79-1.89-.75zm198.834 0c-1.11.063-2.01.854-2.167 1.906-2.56 15.533-2.44 35.588-2.44 52.568 0 7.375-.125 14.776-.26 22.193-.06.06-.128.11-.184.17-.12.03-.137.05-.338.08-.84.13-2.22.2-3.71.23-2.973.057-6.353-.06-8.04-.06-6.936 0-14.33-1.45-21.984-1.45-4.9 0-9.81-.49-14.8-.49-2.03 0-3.96.986-4.95 2.38-.996 1.4-1.284 2.938-1.434 4.457-.3 3.037.02 6.32-.277 8.13-.6 3.633-.52 7.35-.503 10.816v.016c-.02.223-.05.444-.06.67-.03.585-.03 1.193-.03 1.677 0 .67.13 1.004.168 1.023.18.835.81 1.513 1.63 1.77.848.26 1.768.032 2.395-.597.63-.63.85-1.563.58-2.41-.014-.056-.006-.034-.015-.075 0-.29.02-.59.03-.88h.09v-.93c.1-.39.097-.79 0-1.17v-.015c-.01-3.19-.003-6.348.46-9.155.474-2.88.075-6.13.304-8.433.113-1.154.4-1.975.624-2.29.224-.314.175-.38.99-.38 4.65 0 9.58.474 14.8.474 6.99 0 14.38 1.46 21.98 1.46 1.41 0 4.964.12 8.145.062 1.456-.03 2.824-.085 4.026-.244-.062 3.97-.122 7.93-.122 11.91 0 2.94-.455 5.44-.455 8.71 0 1.362.42 2.252.52 2.73.112.83.703 1.53 1.524 1.814.82.288 1.74.11 2.38-.454.646-.57.9-1.44.67-2.245-.22-1.05-.43-1.656-.43-1.85 0-2.823.478-5.337.478-8.71 0-12.92.474-25.91.474-38.93 0-17-.077-36.95 2.38-51.863.123-.673-.104-1.353-.58-1.86-.475-.51-1.162-.79-1.875-.75zm198.85 0c-1.11.063-2.023.854-2.18 1.906-2.56 15.533-2.426 35.588-2.426 52.568 0 7.375-.156 14.776-.29 22.193-.06.06-.11.11-.167.17-.12.03-.12.05-.32.08-.83.13-2.22.2-3.7.23-2.973.057-6.355-.06-8.04-.06-6.933 0-14.33-1.45-21.98-1.45-4.902 0-9.83-.49-14.813-.49-2.036 0-3.943.986-4.94 2.38-.996 1.4-1.28 2.938-1.434 4.457-.3 3.037.025 6.32-.273 8.13-.6 3.638-.536 7.36-.52 10.83v1.178h.02c-.007.12 0 .198-.016.336-.065.62-.194 1.42-.045 2.41 0 .024-.006.08-.03.184-.257.842-.03 1.773.593 2.395.62.622 1.537.85 2.38.594.842-.253 1.473-.95 1.647-1.814.108-.44.29-1.14.136-2.06-.01-.08-.005-.58.06-1.19.064-.58.207-1.22.05-2.18-.016-3.46-.046-6.91.455-9.95.476-2.88.08-6.13.306-8.44.115-1.158.4-1.98.626-2.29.226-.318.177-.38.994-.38 4.648 0 9.59.47 14.81.47 6.99 0 14.38 1.46 21.98 1.46 1.41 0 4.966.12 8.146.06 1.46-.028 2.81-.086 4.01-.244-.062 3.97-.107 7.933-.107 11.91 0 2.94-.49 6.066-.49 9.337 0 1.365.432 2.255.532 2.73.11.83.688 1.53 1.51 1.816.82.285 1.75.11 2.395-.46.642-.566.902-1.435.67-2.24-.22-1.05-.427-1.65-.427-1.845 0-2.82.473-5.96.473-9.336 0-12.917.476-25.906.476-38.927 0-17-.09-36.95 2.364-51.866.12-.675-.073-1.356-.55-1.86-.475-.51-1.162-.79-1.875-.75zm-705.178.46c.3-.015.555.08.746.18-.1.17-.12.3-.32.46-.1.08-.213.1-.323.15l-.8-.58c-.06.04-.07.06-.016-.01l.014.02c.09-.062.307-.196.687-.212zm249.752 7.975c-.216.45-.424.9-.626 1.3-.545 1.06-1.13 1.88-1.19 1.93-1.944 1.85-3.036 2.29-5.96 3.28-.324.11-3.41.194-6.226-.212-2.59-.37-5.216-.964-6.514-1.34-.073-1.498-.24-2.908-.382-4.27 2.264.296 5.265.816 8.33 1.112 3.704.36 7.51.516 10.736-1.006.587-.27 1.195-.53 1.83-.79zm-249.236 2.41c-.134-.01-.26.01-.395.01-.177.01-.347.02-.52.047-.684.106-1.334.353-1.936.704-.6.35-1.25.834-1.63 1.847-.372 1.01.04 2.52.75 3.235l.828.82c.606.61 1.13 1.06 1.845 1.41.713.35 2.004.598 3.05-.102 1.043-.7 1.243-1.684 1.31-2.305.02-.16-.03-.266-.03-.413.6-.455.954-1.165.945-1.92-.005-.75-.37-1.48-.973-1.922.05-.02-.43-.833-1.965-1.22-.44-.11-.86-.17-1.27-.182zm448.38 3.52c-.17.34-.33.69-.49.99-.45.84-.94 1.46-.99 1.51-1.61 1.47-2.52 1.83-4.94 2.62-1.39.45-5.387-.14-7.55-.81-1.998-.62-2.788-1.79-3.74-3.71 1.86.25 4.14.58 6.45.79 3.47.312 6.9.52 9.66-.73.51-.23 1.05-.458 1.604-.67zm-43.703 2.62c.11.02.09.08.04.06l-.09-.05c.006 0 .04-.02.045-.018zm195.23 16.67c.05-.01.065.03.032.04-.01.003-.108.023-.124.03.01-.005.024-.04.03-.047.026-.014.045-.026.06-.03zm-619.833 9.6h.076c.004.04.006.07-.03.21-.016-.076-.033-.14-.048-.215zm405.224.52c-4.164 0-7.53 2.21-9.9 4.085-.92.727-1.542 1.308-2.137 1.83-1.438-1.367-2.96-2.237-4.53-2.623-2.084-.515-4.056-.146-5.75.425-3.39 1.142-6.098 2.852-8.314 2.852-1.286 0-2.338 1.02-2.338 2.3 0 1.28 1.05 2.334 2.333 2.334 4.142 0 7.29-2.254 9.79-3.096 1.25-.43 2.233-.56 3.173-.32.94.23 2.04.84 3.43 2.56.57.69 1.72.97 2.31.88.58-.09.87-.27 1.11-.41.49-.29.79-.56 1.16-.87.75-.64 1.62-1.44 2.64-2.25 2.04-1.61 4.58-3.08 7.02-3.08 2.847 0 6.47 3.63 9.6 6.09.646.554 1.537.712 2.334.41.8-.307 1.358-1.03 1.465-1.878.106-.848-.238-1.686-.93-2.183-2.374-1.86-6.515-7.075-12.465-7.075zm166.726.88c-1.23.125-2.16 1.193-2.09 2.424.06 1.232 1.08 2.212 2.32 2.212 4.14 0 11.91 1.56 19.87 3.187 7.96 1.63 16.18 3.33 22.24 3.404 1.28.017 2.32-1.023 2.333-2.303.014-1.28-.995-2.316-2.275-2.332-5.215-.068-13.41-1.67-21.355-3.298-7.95-1.63-15.61-3.296-20.82-3.296-.08-.01-.15-.01-.23 0zm-341.1.488c-.01.01-.03.04-.12.04.013-.01.11-.05.12-.05zm279.36 0c.05 1.17.143 2.36.32 3.58.28 1.92.32 3.93.32 6.13 0 .48.05.73.11 1.25.06.51.115 1.15.213 1.89.192 1.48.46 3.36.715 5.25.22 1.58.407 3.08.58 4.45-.78.68-3.79 1.672-6.94 1.72-3.22.05-6.59-.79-7.78-1.66-1.713-1.264-3.665-1.76-5.29-1.33-1.627.435-2.62 1.39-3.433 2.11-.81.712-1.447 1.23-1.983 1.43-.54.2-1.047.31-2.29-.214-2.39-1.005-3.586-1.738-4.07-2.105-.244-.18-.29-.275-.26-.24-.03-.07-.025-.083-.18-.29-.26-.337-1.31-1.015-2.17-.9-.86.116-1.065.416-1.19.52-.125.106-.15.14-.17.155-.06.06.034-.03-.06.03-.186.124-.91.55-2.73 1.145-.837.273-1.397.503-1.71.564-1.555.3-4.016-.25-6.02-1.04-1.01-.4-1.9-.83-2.57-1.16-.333-.166-.6-.31-.853-.43-.13-.06-.238-.097-.444-.17-.106-.035-.21-.096-.506-.137-.15-.02-.344-.042-.7.015-.337.054-.924.22-1.39.747.03-.048-.13.114-.38.26-.336.194-.83.442-1.42.69-1.18.49-2.72.98-4.15 1.264-1.428.284-2.79.317-3.37.18-.154-.034-.106-.012-.14-.03-.08-.805-.574-1.48-1.25-1.83.16-1.61.32-3.416.49-5.37.397-4.555.78-8.98.78-10.646 0-1.646-.11-3.295-.21-4.88 11.297.066 28.583 1.34 42.36 1.34 6.25 0 11.514-.734 17.04-2.09.254-.06.495-.127.73-.21zm-78.268.44c-.01.01-.036.05-.125.04.02-.01.11-.05.12-.05zM424.46 284c-10.986 0-21.814.96-32.553.943-1.28 0-2.334 1.025-2.334 2.305s1.05 2.336 2.33 2.336c11.015.01 21.84-.95 32.553-.95 2.036 0 3.67.04 5.184.414 1.244.31 2.5-.463 2.81-1.706.31-1.244-.45-2.483-1.696-2.792-2.19-.533-4.24-.545-6.3-.545zm110.82.03v.044c0 3.26.54 6.926.06 8.8-.15.595-.13.835-.152 1.282-.02.445-.03.99-.03 1.584-.005 1.19.02 2.637.06 4.09.045 1.45.1 2.89.17 4.07 0 .058-.003.088 0 .14-1.673.174-2.912.55-4.043.55-5.666 0-11.79-.96-18.106-.96h-26.01c-5.38 0-12.29.266-16.78.304-.04-1.235-.09-2.967-.14-4.88-.1-3.995-.2-8.617-.2-9.49v-4.18c3.2-1.09 10.69-.984 18.46-.275 7.98.73 16.39 1.87 22.33 1.87 7.55 0 13.97-2.03 19.92-2.03 1.67 0 3.16-.5 4.45-.93zm397.687 0v.044c0 3.26.554 6.926.076 8.8-.15.595-.13.835-.156 1.282-.02.445-.04.99-.04 1.584-.007 1.19.02 2.637.06 4.09.04 1.45.113 2.89.183 4.07.003.058-.003.088 0 .14-1.68.173-2.925.55-4.057.55-5.668 0-11.806-.96-18.123-.96H884.9c-5.38 0-12.275.266-16.764.304-.04-1.235-.09-2.967-.14-4.88-.1-3.995-.2-8.617-.2-9.49v-2.61c.18-.144.37-.272.55-.426.683-.58 1.468-1.16 2.304-1.728 3.82-.436 9.623-.24 15.59.305 7.985.73 16.408 1.875 22.347 1.875 7.552 0 13.953-2.028 19.906-2.028 1.674 0 3.18-.504 4.47-.93zm-473.028 5.154c-.21-.005-.42.01-.63.06-2.52.617-5.14.885-8.07.885-10.99 0-21.45 1.4-32.07 1.4-11.386 0-22.87-.45-34.46-.45-7.563 0-17.987-.91-24.587-.49-1.297.08-2.27 1.17-2.187 2.44.09 1.266 1.2 2.232 2.49 2.15 5.83-.37 16.37.472 24.29.472 8.78 0 17.562.27 26.372.395-.02 4.574-.457 12.734-.457 18.95v12.48c-.186.194-.45.44-.824.764-.888.76-2.158 1.726-3.464 2.7-1.304.973-3.36 4.465-4.44 5.246-.34.25-.603.45-.883.657-.96-.124-1.89.336-2.35 1.173-.46.838-.357 1.87.275 2.59.025.038.023.06.075.14.107.154.206.402.84.79.32.192.865.423 1.51.364.617-.06 1.145-.36 1.45-.64-.01.005.004-.01.045-.05.08-.063.275-.206.486-.365.34-.255.8-.59 1.33-.978 1.07-.774 3.16-4.275 4.5-5.278 1.03-.765 2.03-1.534 2.92-2.26.68.66 1.45 1.14 2.24 1.63 2.24 1.4 5.195 4.26 5.75 4.94.435.537.894 1.165 1.4 1.83.5.67 1.347 1.026 2.185.93.836-.094 1.547-.64 1.875-1.403.33-.76.196-1.63-.32-2.29-.45-.585-.92-1.25-1.48-1.934-1.843-2.264-5.003-4.758-6.91-5.95-.72-.45-1.025-.744-1.28-.976.36-.723.29-1.566-.153-2.24-.04-.055-.08-.116-.125-.167V315c0-5.975.465-14.04.488-18.9 1.14.01 2.267.018 3.405.018 11.026 0 21.485-1.405 32.062-1.405 3.21 0 6.24-.266 9.2-.99 1.16-.26 1.95-1.36 1.82-2.52-.13-1.16-1.13-2.023-2.32-2.03zm198.83 0c-.217-.005-.42.01-.63.06-2.516.617-5.124.885-8.055.885-10.99 0-21.46 1.4-32.08 1.4-11.38 0-22.87-.45-34.46-.45-7.56 0-17.98-.91-24.59-.49-1.29.08-2.25 1.17-2.16 2.44.087 1.266 1.197 2.232 2.49 2.15 5.823-.37 16.35.472 24.27.472 8.78 0 17.58.27 26.39.395-.024 4.574-.49 12.734-.49 18.95v12.48c-.187.194-.434.44-.81.764-.89.76-2.16 1.726-3.463 2.7-1.308.973-2.664 3.2-3.74 3.98-.34.247-.59.45-.87.656-.96-.12-1.888.354-2.348 1.19-.46.84-.36 1.87.27 2.594.027.034.04.06.09.135.107.153.19.4.825.79.317.194.88.425 1.526.366.617-.054 1.146-.36 1.45-.64l.046-.043c.08-.064.26-.22.472-.38.33-.253.79-.59 1.32-.977 1.066-.776 2.423-3.01 3.77-4.014 1.024-.76 2.042-1.53 2.93-2.254.68.66 1.45 1.14 2.24 1.63 2.24 1.404 5.74 3.35 4.867 3.34-.1 0 .897 1.15 1.405 1.817.5.67 1.33 1.024 2.17.93.836-.096 1.55-.626 1.875-1.39.33-.764.23-1.65-.29-2.304-.45-.59-.932-1.25-1.49-1.94-1.845-2.262-4.105-3.14-6.01-4.33-.72-.45-1.028-.745-1.28-.977.36-.72.29-1.565-.157-2.24-.04-.055-.08-.116-.125-.167v-11.71c0-5.977.433-14.04.455-18.9 1.14.01 2.28.015 3.42.015 11.03 0 21.503-1.4 32.08-1.4 3.21.002 6.24-.263 9.2-.99 1.156-.26 1.913-1.358 1.783-2.517-.13-1.16-1.117-2.026-2.304-2.03" fill="#fff"/></g></svg>