<svg viewBox="0 0 948 342" xmlns="http://www.w3.org/2000/svg"><g fill-rule="evenodd"><path d="M110.457 66.238c-23.36.117-46.685 1.68-70.05 1.212-5.353-.027-15.382-1.626-14.21 6.58-.508 27.217-1.793 54.418-1.99 81.64-.744 11.202-.553 43.02 6.464 52.663 9.83 14.492 25.29 6.41 43.73 6.345 20.63.09 39.996-7.826 59.75-12.514 7.697-2.612 7.168-12.252 8.158-18.726 1.546-20.13-.55-40.288-.66-60.415.77-16.89 5.2-33.986 1.375-50.8-3.69-6.385-12.68-4.943-19.067-5.768-4.493-.183-8.992-.226-13.49-.217" fill="#c7e660"/><path d="M503.83 18.185c-15.516 24.17-2.51 42.83 31.21 42.06 4.92-.88 8.73-3.666 11.39-7.2 2.66-3.53 4.304-7.837 5.254-12.287 1.9-8.902 1.206-18.268-1.837-23.902-3.78-6.998-12.032-9.895-20.004-10.063-7.973-.17-16.03 2.072-21.08 6.153-1.97 1.59-3.598 3.363-4.933 5.24" fill="#faeb7d"/><path d="M658.055 290.715c-30.045 17.994-4.863 31.885 60.437 31.313 9.522-.657 16.903-2.73 22.052-5.36 5.15-2.63 8.335-5.835 10.174-9.15 3.677-6.625 2.336-13.598-3.556-17.793-7.318-5.21-23.298-7.365-38.737-7.49-15.438-.127-31.038 1.54-40.818 4.58-3.813 1.184-6.967 2.503-9.552 3.9" fill="#ffbfa7"/><path d="M670.57 8.904c-23.237 18.876-3.762 33.447 46.744 32.85 7.365-.69 13.074-2.865 17.056-5.624 3.983-2.76 6.446-6.122 7.87-9.597 2.843-6.952 1.805-14.267-2.752-18.667-5.66-5.465-18.02-7.727-29.96-7.86-11.94-.13-24.007 1.62-31.57 4.807-2.95 1.242-5.388 2.626-7.388 4.09" fill="#be9f81"/><path d="M898.295 94.985c34.812 21.522 5.635 38.135-70.027 37.452-11.033-.787-19.584-3.265-25.552-6.41-5.966-3.145-9.657-6.982-11.787-10.943-4.26-7.926-2.71-16.266 4.12-21.282 8.48-6.232 26.99-8.81 44.88-8.962 17.882-.15 35.96 1.847 47.29 5.48 4.416 1.417 8.07 2.994 11.067 4.665M508.76 251.22c-18.347 25.935-2.97 45.955 36.904 45.13 5.815-.945 10.322-3.934 13.466-7.722 3.145-3.79 5.09-8.413 6.213-13.186 2.245-9.55 1.426-19.6-2.173-25.647-4.467-7.507-14.226-10.615-23.654-10.796-9.427-.19-18.953 2.22-24.925 6.6-2.32 1.7-4.25 3.6-5.83 5.62" fill="#c0cae0"/><path d="M696.577 1.045c-1.717.002-3.3.803-4.882 2.12-1.36 1.135-2.33 2.474-3.066 3.83-.74-1.016-1.54-1.936-2.49-2.595-1.458-1-3.41-1.603-5.28-.838-1.48.605-2.46 1.93-3.04 3.555-2.362-1.357-5.06-1.414-6.956-.2-2.123 1.363-3.28 3.622-3.736 5.996-.46 2.374-.21 5.02 1.31 7.2.992 1.42 2.565 2.484 4.5 2.974-.145.138-.264.257-.41.397-1.484 1.414-3.05 2.885-3.89 4.943-1.433 3.513-3.218 7.267-4.058 11.393-.663 3.252-1.055 6.345-1.055 9.84 0 .657-.03 1.408-.06 2.197-.206-.014-.398-.034-.61-.047-1.875-.113-3.933-.168-5.416-.213-.075-.004-.14-.004-.213 0-1.28.025-2.315 1.068-2.29 2.348.025 1.282 1.1 2.314 2.38 2.29 1.502.045 3.51.09 5.262.198.343.02.66.052.976.076.077.71.202 1.43.38 2.13.48 1.87.596 4.5.596 6.86 0 3.56.654 6.53.654 9.365v8.085c0 2.9.32 5.67.32 8.085v3.753c-2.57-.87-4.736-1.096-6.803-1.283-2.138-.192-4.218-.352-7.154-1.142-3.163-.855-5.908-.985-7.705-1.468-.23-.067-.468-.098-.7-.092-.24.008-.47.05-.69.123-.758-.87-1.674-1.557-2.67-2.273-1.24-.89-2.594-1.75-3.72-2.47-.51-.325-.61-.42-.994-.686-.04-1.12-.936-2.025-2.06-2.075-.32-.02-.61-.026-1.003.043-.394.066-1.064.18-1.648 1.005-.586.826-.37 1.953-.14 2.41.23.46.44.657.64.855.778.76 1.67 1.303 2.76 1.998-.27-.06-.65-.168-.883-.213-.656-.13-1.043-.2-1.663-.185-.156.005-.324-.015-.61.062-.287.076-.796.212-1.267.884-.47.676-.4 1.73-.2 2.185.204.45.41.613.55.745.564.534.805.583 1.205.78.4.196.85.384 1.356.594 1.173.49 2.446.98 3.66 1.39-.637.32-1.116.516-1.69.9-.92.608-1.42 1.01-1.59 1.11-.166.106-.066.097-.656.17-.798.05-1.505.536-1.83 1.267-.325.73-.22 1.588.275 2.21.495.63 1.3.947 2.09.8.9-.113 1.77-.395 2.393-.78.622-.385.94-.69 1.693-1.19.524-.347 2.577-1.198 4.088-2.18.38-.246.738-.51 1.116-.93.35-.39.825-1.08.76-2.045.07.024.14.042.213.06 2.575.694 5.136.774 7.7 1.464 3.32.892 5.84 1.104 7.95 1.296 2.11.19 3.78.368 5.95 1.13.417.167.854.19 1.28.11.043 1.952.255 3.904.06 4.665-.56 2.195-.4 4.217-.395 5.964-1.398.946-2.834 1.84-4.15 2.96-.07.053-.14.12-.2.18-.367-.94-1.11-1.354-1.6-1.556-.52-.21-.958-.277-1.406-.336-1.795-.236-4.035-.136-4.683-.23-.91-.13-1.35-.27-2.076-.35-.725-.08-1.61.04-2.47.32-1.132.368-1.754 1.584-1.39 2.717.203.62.65 1.075 1.207 1.31-10.074.185-19.752 1.39-29.545 1.39-4.662 0-9.353-.094-14.05-.185l-1.707.076-.884-.123c-5.913-.118-11.846-.244-17.815-.244-7.566 0-17.975-.893-24.576-.475-1.29.08-2.267 1.17-2.18 2.44.083 1.267 1.18 2.233 2.47 2.15 5.824-.37 16.364.473 24.284.473 8.78 0 17.562.286 26.373.413-.02 4.57-.457 12.7-.457 18.914v12.476c-.186.194-.45.44-.824.764-.888.765-2.158 1.744-3.46 2.718-1.308.973-3.045 2.835-4.12 3.616-.34.248-.607.436-.887.64-.96-.122-1.904.353-2.364 1.19-.46.838-.34 1.873.29 2.595.028.036.04.06.093.137.105.155.204.403.84.79.314.196.863.426 1.51.368.614-.055 1.143-.36 1.446-.64-.01.007.004-.005.046-.045.076-.065.26-.223.47-.382.337-.25.794-.59 1.327-.975 1.064-.776 2.834-2.614 4.18-3.617 1.023-.765 2.025-1.532 2.91-2.257.68.657 1.453 1.122 2.24 1.616 2.244 1.402 4.27 2.555 4.82 3.234.44.538.898 1.166 1.405 1.83.496.67 1.33 1.027 2.164.93.84-.093 1.55-.623 1.88-1.387.326-.762.21-1.632-.306-2.287-.45-.59-.92-1.25-1.48-1.94-1.845-2.26-4.06-3.08-5.966-4.27-.722-.45-1.04-.73-1.295-.96.36-.723.292-1.582-.153-2.26-.036-.053-.065-.1-.106-.15v-11.73c0-5.98.45-14.012.474-18.87 1.136.008 2.263.016 3.4.016 10.907 0 21.28-1.39 31.743-1.42-.153.195-.305.428-.485.9-.07.187-.156.413-.137.917.02.503.43 1.46 1.13 1.845.7.387 1.204.296 1.493.243.29-.053.454-.122.595-.183.57-.25.867-.476 1.405-.87.228-.17.577-.466.84-.673-.7 1.134-1.28 1.996-1.663 3.054-.096.266-.21.53-.214 1.052-.005.52.34 1.63 1.204 2.104.868.473 1.508.29 1.89.182.386-.106.646-.23.933-.383 1.01-.528 1.44-1.75.977-2.79.22-.39.262-.508.564-.994.698-1.124 1.534-2.455 2.26-3.783.574-1.052 1.09-2.06 1.39-3.158.444-.06.884-.24 1.233-.55.317-.27.7-.55 1.112-.84-.034.64-.088 1.59-.183 2.853-.14 1.785-.32 3.96-.507 6.01-.182 2.048-.353 3.987-.488 5.247-.044.4-.06.557-.09.795v.016l-.017.03c-.004.023 0 .028 0 .047-.086.242-.134.5-.137.76 0 .098-.002.166.017.35.01.094-.01.197.12.58.032.097.057.21.152.38.095.173.593.673.594.673l1.558.504s1.068-.294 1.328-.502c.3-.24.48-.422.597-.564.522.3 1.095.473 1.63.593.1.025.188.044.29.06-.573.68-1.19 1.425-1.862 2.336-2.03 2.75-4.163 6.648-4.163 11.625 0 2.22.006 5.62.076 8.62.035 1.5.085 2.893.153 4.01.03.56.07 1.056.12 1.48.05.426.01.655.29 1.343.44 1.202 1.757 1.8 2.96 1.357 1.203-.44 1.83-1.757 1.39-2.96.006.015-.027-.105-.05-.29-.03-.283-.06-.695-.09-1.204-.06-1.02-.12-2.377-.152-3.845-.07-2.937-.06-6.32-.06-8.513 0-3.66 1.538-6.534 3.265-8.877.864-1.17 1.748-2.18 2.517-3.097.63-.753 1.27-1.264 1.63-2.38 1.507-.344 2.97-.824 4.227-1.33.753-.3 1.434-.61 2.03-.943l.135-.077c.185.087.424.207.642.305-1.653 1.11-2.962 2.734-3.952 4.47-1.707 3-2.695 6.53-3.157 9.704-.16 1.095-.314 2.196-.473 3.294-.55 3.782-.877 8.56.045 12.186.17.837.785 1.506 1.604 1.752.82.246 1.7.025 2.304-.58.603-.606.83-1.486.58-2.304-.573-2.25-.433-6.995.06-10.388.16-1.098.33-2.2.49-3.295.393-2.71 1.29-5.82 2.577-8.082 1.29-2.263 2.728-3.468 4.364-3.57.76-.023 1.433-.428 1.846-1.05 1.488.28 3.085.364 4.697.06 1.06-.203 1.803-.56 2.303-.72 1.25-.393 2.082-.724 2.76-1.035.992.71 2.512 1.51 5.14 2.578 2.124.864 4.17.885 5.765.306 1.6-.578 2.674-1.574 3.495-2.273.82-.7 1.38-1.054 1.614-1.114.232-.06.433-.174 1.493.58 2.857 2.026 6.86 2.59 10.83 2.533 3.36-.05 6.647-.476 9.14-2.077.06.345.13.675.2.945.184.82.79 1.47 1.6 1.706.81.234 1.69.016 2.29-.58.596-.597.825-1.48.59-2.29.017.057-.214-1.01-.41-2.227-.194-1.216-.426-2.77-.64-4.3-.213-1.532-.4-3.042-.52-4.226-.06-.59-.104-1.114-.12-1.464-.01-.174.006-.356.015-.426.81-3.507.014-7.24.014-9.705 0-3.34-.175-6.495.304-9.32.52-3.05.35-6.02.35-8.77 0-2.89.994-6.25.994-10.02 0-4.01.323-8.014.323-12.295-.004-3.45 0-6.894 0-10.343-.004-3.28-.324-6.49-.324-9.38 0-3.588-.547-6.636-1.39-9.947-.48-1.89-.705-3.756-1.314-6.147-.71-2.793-2.376-4.478-3.14-5.98-1.26-2.477-2.915-4.185-4.18-5.843-.847-1.107-1.934-2.064-3.05-2.897.194-.36.36-.708.58-1.1.77-1.373 1.623-2.903 2.195-4.53.573-1.625 1.015-3.653-.184-5.522-1.198-1.866-3.478-2.515-6.192-2.515-3.246 0-5.734 1.393-7.61 3.094-.078-.307-.12-.63-.215-.916-.8-2.39-2.49-4.084-4.35-4.806-1.858-.72-3.758-.59-5.34 0-1.58.59-3.076 1.628-3.57 3.6-.217.872-.33 1.114-.52 1.815-.48-1.575-1.097-3.18-2.286-4.576-.917-1.08-2.416-2.03-4.132-2.03zm.015 4.774c.145 0 .162-.04.488.35.65.76 1.475 3.09 2.028 5.18.122.46.25.895.366 1.326-2.314-.086-4.92-.16-7.505.473-.18.042-.38.067-.57.107.044-.222.104-.44.17-.685.473-1.92 1.48-4.338 3.17-5.75 1.08-.9 1.7-1.007 1.845-1.008zm13.133.71c.34-.01.685.024.976.136.59.225 1.12.62 1.54 1.89.33.96.51 2.464.29 4.61-.92-.026-1.66-.11-2.04-.26-.89-.35-1.75-.514-2.58-.58-.43-.034-.85-.04-1.25-.03.42-1.298.9-2.965 1.45-5.17.03.026.22-.265.66-.43.29-.11.62-.16.96-.166zM682.68 7.97c.06.005.29.052.748.367 1.156.796 2.75 3.23 2.912 6.01-.82.237-1.635.52-2.41.9-.397.195-.912.41-1.495.656.398-1.138.225-2.173-.167-3.463-.092-.3-.322-.622-.458-.93.084-.667.128-1.23.305-2.12.266-1.332.62-1.442.565-1.42zm41.918 1.663c1.625 0 2.077.292 2.15.336.002-.05-.002-.05.016-.02.01.02 0 .02-.015.01-.01.12 0 .558-.28 1.343-.37 1.044-1.1 2.43-1.86 3.78-.17.294-.33.57-.49.855-1.77-.988-3.61-1.85-5.75-2.41.04-.064.08-.134.12-.198 1.33-1.96 3.18-3.707 6.1-3.707zm-50.506.976c.077-.02.157-.01.243 0 .346.03.794.25 1.495.77.47.352.733.69 1.008 1.02-.09 1.11-.066 2.025.045 2.792.11.76.047 1.49 1.206 2.41.1.08.23.15.36.214-.47.285-.92.607-1.347.992-.36-.166-.75-.266-1.173-.23-2.226.186-3.02-.4-3.584-1.205-.565-.81-.796-2.2-.535-3.557.26-1.354 1.014-2.51 1.616-2.898.227-.147.424-.28.655-.32zM507 12.3c-.387.01-.745.04-1.098.076-1.418.144-2.628.365-3.875.365-2.788 0-6.288-.45-9.763.4-2.006.49-5.295.76-8.04 2.11-.852.417-2.255.944-3.675 1.615-1.42.675-2.93 1.45-4.06 2.93-.72.93-2.18 2.278-3.66 3.69-1.49 1.416-3.06 2.87-3.89 4.928-1.43 3.516-3.22 7.285-4.06 11.41-.66 3.253-1.058 6.346-1.058 9.84 0 .658-.034 1.41-.06 2.198-.207-.013-.4-.033-.61-.046-1.876-.112-3.934-.182-5.417-.227-.075-.006-.14-.006-.214 0-1.28.023-2.312 1.08-2.29 2.36.027 1.283 1.1 2.3 2.38 2.275 1.505.045 3.51.106 5.264.214.35.02.66.05.975.076.077.714.202 1.433.38 2.134.48 1.873.58 4.482.58 6.85 0 3.56.67 6.543.67 9.38v8.083c0 1.67.093 3.283.185 4.82-.26-.07-.514-.09-.79-.06-2.85.132-5.025.765-7.08 1.387-2.054.626-4.044 1.236-7.06 1.605-3.25.398-5.857 1.33-7.705 1.557-.49.03-.945.204-1.31.502-1.016-.51-2.11-.8-3.28-1.085-1.486-.36-3.06-.638-4.38-.885-.585-.11-.706-.143-1.16-.246-.364-.837-1.223-1.365-2.134-1.297-.195.013-.38.056-.566.12-.307.106-.59.233-.93.444-.34.21-.913.54-1.145 1.525-.23.983.376 1.964.764 2.303.382.34.665.445.93.55.993.41 2.032.58 3.29.81-.262.044-.656.095-.883.137-.66.128-1.05.195-1.618.443-.145.06-.3.126-.537.304-.235.18-.67.497-.852 1.297-.04.18-.043.355-.03.537-5.137-5.95-10.893-12.095-13.453-16.856-.41-.8-1.236-1.3-2.135-1.298-.844.004-1.62.446-2.044 1.176-.425.73-.44 1.64-.03 2.38 3.87 7.194 12.08 15.05 17.48 21.8 2.97 3.71 5.546 6.96 9.03 10.448.04.04.08.085.124.122-6.378.403-12.656.914-18.993.914-8.213 0-16.48-.246-24.8-.38 1.755-.213 3.63-.426 4.346-.426h17.237c.86.012 1.656-.43 2.09-1.175.433-.744.433-1.68 0-2.426-.434-.744-1.23-1.187-2.09-1.176H398.72c-1.1 0-2.46.15-3.813.32-.448-.515-1.09-.8-1.77-.81-.66 0-1.285.27-1.74.75-.36.04-.814.114-1.48.38-.205.083-.373.16-.61.29-.117.066-.262.145-.457.305-.194.16-.508.36-.763 1.114-.254.75.15 2.11.67 2.576.095.083.165.14.246.2-1.43-.013-2.854-.016-4.287-.016-7.566 0-17.99-.895-24.59-.477-1.293.083-2.266 1.172-2.183 2.44.086 1.268 1.198 2.234 2.488 2.15 5.83-.37 16.37.474 24.29.474 8.78 0 17.564.286 26.374.41-.02 4.575-.457 12.705-.457 18.918v12.477c-.186.194-.45.44-.824.763-.885.76-2.155 1.74-3.46 2.714-1.306.973-3.364 4.466-4.44 5.247-.34.246-.605.434-.885.64-.96-.12-1.89.353-2.35 1.19-.46.84-.356 1.857.276 2.58.025.034.024.075.075.15.107.16.206.405.84.794.317.194.864.425 1.51.366.615-.057 1.144-.376 1.45-.657-.013.006.003-.006.044-.046.08-.065.275-.21.49-.366.334-.253.792-.575 1.324-.96 1.066-.775 3.155-4.276 4.5-5.28 1.025-.764 2.028-1.517 2.914-2.242.68.66 1.45 1.11 2.243 1.602 2.24 1.403 5.197 4.28 5.75 4.958.437.538.896 1.15 1.403 1.815.496.67 1.344 1.04 2.18.947.84-.095 1.55-.625 1.878-1.388.33-.766.198-1.65-.32-2.306-.45-.59-.92-1.25-1.48-1.94-1.84-2.264-5-4.773-6.91-5.965-.72-.45-1.024-.73-1.28-.96.36-.723.294-1.58-.15-2.257-.036-.056-.08-.117-.12-.17v-11.71c0-5.978.463-14.01.486-18.87 1.136.008 2.264.016 3.4.016 9.718 0 19.006-1.098 28.313-1.358.18.44.493.88.96 1.145.864.49 1.505.31 1.89.214.385-.1.66-.232.946-.38.464-.233.8-.61.993-1.05 2.833-.057 5.514-.345 8.16-.995 1.16-.26 1.946-1.34 1.815-2.5-.132-1.16-1.13-2.028-2.32-2.03-.21-.006-.42.022-.625.074-1.65.405-3.355.654-5.154.776.363-.58.74-1.184 1.08-1.783.59-1.027 1.122-2 1.45-3.067.47-.067.925-.27 1.282-.61 1.43-1.17 3.91-2.417 6.435-4.485.464-.38.974-.754 1.51-1.13-.01.077-.015.156-.03.216-.57 2.24-.397 4.3-.397 6.07v4.853c0 1.175.08 5.59.18 9.593.05 2.002.1 3.86.14 5.11.02.626.047 1.096.06 1.373.004.07-.004.12 0 .183.002.03.01.076.015.136.003.03.003.06.014.138.004.04.01.075.03.168.022.095.26.626.26.626l1.554.217c.66.494 1.416.772 2.12.93.147.034.28.052.43.077-.574.674-1.195 1.415-1.863 2.32-2.027 2.75-4.162 6.646-4.162 11.623 0 2.22.005 5.62.075 8.618.036 1.5.086 2.898.15 4.017.037.56.076 1.04.125 1.464.047.425.024.653.305 1.34.44 1.205 1.755 1.816 2.958 1.375 1.203-.44 1.83-1.758 1.39-2.96.01.014-.025-.106-.046-.29-.03-.284-.06-.696-.09-1.205-.06-1.02-.12-2.376-.152-3.844-.067-2.937-.075-6.32-.075-8.513 0-3.66 1.537-6.535 3.265-8.878.863-1.17 1.763-2.18 2.53-3.098.64-.763 1.28-1.293 1.634-2.44 1.45-.34 2.863-.78 4.07-1.267.755-.3 1.42-.61 2.015-.946l.137-.077c.21.1.493.205.748.32-1.625 1.108-2.91 2.736-3.89 4.454-1.71 3-2.694 6.528-3.155 9.704-.16 1.098-.315 2.2-.475 3.296-.55 3.786-.876 8.565.046 12.19.17.84.784 1.507 1.6 1.754.82.247 1.7.026 2.306-.58.603-.605.83-1.5.58-2.318-.573-2.25-.45-6.98.044-10.372.16-1.098.312-2.2.472-3.295.39-2.715 1.32-5.824 2.604-8.086 1.29-2.264 2.715-3.47 4.35-3.57.76-.018 1.445-.414 1.86-1.038 1.45.26 2.987.34 4.547.046 1.06-.2 1.803-.556 2.303-.715 1.26-.397 2.096-.74 2.775-1.05.995.71 2.48 1.523 5.11 2.59 2.127.863 4.17.87 5.768.29 1.6-.58 2.69-1.56 3.51-2.257.824-.7 1.384-1.07 1.617-1.13.237-.06.438-.157 1.498.597 2.855 2.025 6.86 2.59 10.83 2.53 2.984-.043 5.893-.38 8.253-1.572.284.58.8 1.02 1.435 1.207.81.237 1.69.017 2.29-.58.58-.574.81-1.405.61-2.195.034.04-.11-.964-.167-1.938-.066-1.115-.128-2.54-.168-3.95-.04-1.417-.066-2.83-.06-3.938.002-.555.014-1.03.03-1.375.012-.256.055-.495.045-.472.866-3.543.03-7.33.03-9.824 0-3.34-.17-6.496.31-9.32.517-3.05.365-6.04.366-8.785 0-2.89.99-6.254.99-10.02 0-4.015.32-8 .32-12.28V58.72c0-3.28-.32-6.492-.32-9.38 0-3.587-.544-6.635-1.387-9.946-.486-1.89-.72-3.756-1.33-6.148-.71-2.792-2.36-4.477-3.13-5.98-1.26-2.476-2.914-4.185-4.18-5.842-1.59-2.08-4.01-3.673-5.933-4.805-2.225-1.31-4.477-2.49-7.218-3.16-1.67-.41-3.23-.31-4.59-.29-1.367.02-2.515-.06-3.023-.26-.884-.35-1.75-.52-2.575-.58-.41-.038-.82-.04-1.205-.03zm362.19.686c-.3-.002-.61.01-.915.03-.693.043-1.397.132-2.105.29-1.288.288-2.103 1.578-1.815 2.868.288 1.287 1.58 2.087 2.868 1.8 3.45-.768 7.527.93 11.61 3.187-3.13-.24-6.29-.46-9.124-.45-1.14 0-2.22.035-3.22.12-4.01.35-5.97.43-7.81 1.146-.93.357-1.75.934-2.38 1.556-.63.623-1.13 1.268-1.8 2.074-.85 1.013-.7 2.526.32 3.37 1.01.845 2.49.694 3.34-.32.7-.84 1.18-1.41 1.49-1.72.315-.315.41-.38.73-.506.643-.25 2.496-.49 6.514-.84 2.41-.21 5.945-.05 9.625.2-5.214 1.965-10.113 4.696-13.76 8.342-.93.935-.92 2.44.016 3.37.935.93 2.426.934 3.356 0 1.882-1.883 4.353-3.566 7.124-5.004-1.33 1.633-2.214 3.213-3.446 5.232-1.672 2.736-2.21 5.51-3.126 7.762-.172.42-.32.84-.443 1.25-2.12-1.706-4.09-2.655-5.98-3.54-1.94-.91-3.825-1.77-6.3-3.506-2.665-1.873-5.215-2.938-6.724-3.998-.378-.274-.833-.43-1.296-.442-.4-1.068-1.02-2.022-1.693-3.02-.845-1.257-1.795-2.513-2.592-3.57-.348-.46-.4-.56-.656-.93.35-1.077-.188-2.245-1.24-2.67-.298-.127-.568-.25-.96-.32-.196-.035-.45-.09-.76-.06-.315.027-.675.15-1.086.425-.823.55-1.076 1.66-1.022 2.18.05.52.2.796.32 1.05.474 1.013 1.14 1.816 1.936 2.87-.276-.18-.66-.435-.9-.58-.57-.343-.908-.55-1.496-.747-.147-.048-.303-.096-.595-.12-.293-.027-.817-.086-1.48.364-.666.45-.974 1.45-.947 1.952.028.5.142.735.23.913.345.71.562.822.868 1.144.306.32.683.65 1.083 1.02.916.842 1.92 1.73 2.9 2.515-.724.08-1.27.1-1.952.26-1.08.254-1.7.447-1.905.488-.203.04-.105.087-.687-.046-.77-.227-1.61-.01-2.167.566-.56.576-.74 1.405-.49 2.166.255.76.903 1.32 1.696 1.447.884.204 1.783.238 2.5.093.714-.146 1.15-.31 2.043-.52.635-.15 2.87-.26 4.636-.656.44-.1.875-.2 1.373-.458.47-.244 1.154-.734 1.434-1.694.068.057.152.115.23.166 2.176 1.53 4.57 2.483 6.726 3.996 2.8 1.965 5.088 3.008 7 3.905 1.92.9 3.43 1.626 5.19 3.07.566.51 1.34.69 2.073.518-.036.826-.03 1.66-.03 2.504v5.447c-1.485-.09-2.967-.17-4.452-.26-.08-.01-.162-.014-.242-.015-1.28-.01-2.322 1.01-2.334 2.29-.013 1.28 1.022 2.335 2.304 2.35l4.682.29c-.087 2.48-.275 4.985-.275 7.685 0 3.057.655 5.58.655 8.086v8.07c0 2.35-.34 4.74-.34 7.43v3.14c-2.81.418-5.68.928-8.298 1.804-2.493.834-5.06 1.046-7.582 1.89-.085.03-.162.07-.242.11.007-1.01-.548-1.676-.93-2.045-.405-.39-.78-.62-1.175-.84-1.58-.885-3.687-1.626-4.256-1.95-.797-.46-1.157-.74-1.8-1.086s-1.505-.566-2.41-.625c-.075-.003-.157-.003-.23 0-1.127.067-2.013.977-2.03 2.106-.014 1.13.843 2.084 1.97 2.18.593.04.486.04.67.14.183.096.73.47 1.693 1.02.61.35 1.117.54 1.784.825-1.156.474-2.37 1.028-3.476 1.57-.49.24-.942.468-1.327.688-.38.222-.61.273-1.14.855-.134.145-.32.32-.488.793-.17.473-.14 1.514.366 2.134.507.62 1.01.72 1.298.777.288.06.455.067.61.06.62-.016 1.003-.137 1.648-.303.27-.07.707-.214 1.02-.306-1.07.79-1.933 1.37-2.68 2.21-.19.214-.382.434-.58.917-.197.485-.28 1.636.35 2.397.63.76 1.268.823 1.664.87.393.043.682.02 1.004-.017 1.137-.113 2.002-1.102 1.952-2.243.35-.28.424-.347.885-.687 1.064-.786 2.344-1.706 3.51-2.67.934-.772 1.796-1.532 2.485-2.455.423.114.88.12 1.328-.03 1.743-.58 4.51-.87 7.597-1.905 1.946-.652 4.325-1.095 6.817-1.48v.245c0 2.87.338 5.68.338 8.084 0 .892-.24 5.674-.52 10.08-.14 2.203-.3 4.354-.43 6.024-.063.833-.115 1.54-.166 2.06-.017.16-.04.3-.06.44-.176.326-.29.686-.29 1.083 0 1.28 1.054 2.333 2.335 2.333 1.54 0 3.434-.044 5.445-.09-.65.73-1.405 1.593-2.227 2.67-2.045 2.67-4.225 6.464-4.225 11.33 0 2.155.02 5.464.09 8.375.036 1.457.085 2.8.154 3.89.034.546.07 1.035.12 1.45.05.416 0 .637.29 1.327.454 1.18 1.78 1.766 2.96 1.314 1.182-.454 1.78-1.778 1.327-2.96.02.04-.01-.045-.03-.23-.034-.27-.06-.696-.09-1.19-.064-.984-.12-2.296-.156-3.72-.07-2.85-.09-6.125-.09-8.253 0-3.515 1.54-6.287 3.28-8.557.867-1.133 1.77-2.112 2.546-3.003.68-.784 1.394-1.28 1.74-2.58 1.717-.04 3.413-.076 5.004-.09-.78.844-1.45 1.8-2.015 2.79-1.71 3-2.68 6.53-3.14 9.704l-.477 3.297c-.55 3.782-.875 8.56.047 12.19.316 1.24 1.567 1.99 2.81 1.673 1.24-.314 2.007-1.564 1.69-2.808-.57-2.25-.444-6.996.05-10.39.158-1.097.31-2.2.47-3.294.396-2.715 1.29-5.824 2.58-8.086 1.287-2.263 2.74-3.468 4.377-3.57.85-.02 1.61-.495 2-1.25.042-.085.073-.186.105-.275h19.143c5.822 0 11.933.975 18.105.975 1.217 0 2.22-.163 3.112-.32.38.27.843.41 1.343.41.725 0 1.375-.318 1.8-.838.963-.283 1.664-1.173 1.664-2.227 0-.826-.435-1.543-1.084-1.955.024-1.662.044-3.175.09-5.735.07-3.77.123-7.336.123-8.114 0-2.23.004-4.472-.335-6.802-.42-2.864-.32-5.872-.32-9.044 0-2.936.332-5.923.332-9.046 0-3.44-.532-7.17-.045-9.56.862-4.234-.222-8.015.32-10.68.583-2.864 1.006-7.644.336-10.935-.54-2.644-1.265-6.397-1.265-8.59 0-1.917-.403-3.44-.854-4.667-.45-1.226-.887-2.147-1.19-3.34-.24-.935-.645-2.29-1.22-3.646-.58-1.356-1.16-2.73-2.61-3.798-1.44-1.06-3.5-2.866-3.92-3.694-.713-1.395-1.77-2.5-2.93-3.17-1.16-.675-2.357-.99-3.54-1.283-2.833-.696-5.073-1.47-8.22-2.243-2.51-.615-5.15-.716-7.46-.716-1.73 0-4.35-.69-7.2-.63-.15.008-.307.01-.46.02l-.106-.72s-.405-.11-.472-.12c-.135-.02-.154-.014-.184-.015-.322-.017-.32-.005-.35 0-.516-.427-1.194-.653-1.907-.533l-.09.015c-.277-.056-.55-.076-.838-.03-.584.05-1.953-.307-3.662-1.16-1.706-.85-3.74-2.085-5.947-3.325-3.625-2.037-7.825-4.2-12.343-4.21zM507.137 16.92c.715-.03 1.296.033 1.952.29 1.69.668 3.33.615 4.77.595 1.44-.02 2.71-.02 3.412.152 2.097.514 3.867 1.417 5.964 2.654 1.64.97 3.85 2.64 4.607 3.63 1.46 1.91 2.842 3.37 3.737 5.13 1.168 2.29 2.443 3.707 2.776 5.02.53 2.08.76 3.92 1.326 6.147.794 3.125 1.235 5.675 1.235 8.8 0 3.225.32 6.428.32 9.383v10.34c0 4.036-.32 8.022-.32 12.28 0 2.846-.99 6.22-.99 10.02 0 2.892.113 5.63-.29 8.01-.303 1.778-.414 3.518-.43 5.216-1.95.505-3.917 1.143-4.39 1.143-6.925 0-13.25 2.03-19.923 2.03-5.315 0-13.796-1.14-21.92-1.88-7.08-.65-13.774-1.188-18.746.01.036-.25.08-.49.137-.717.39-1.53.332-2.99.23-4.24.784-.446 1.583-.89 2.38-1.328 3.135-1.737 6.223-3.404 8.45-5.523.7-.65.915-1.66.563-2.546-.352-.888-1.212-1.47-2.165-1.465-.603 0-1.186.235-1.62.655-1.485 1.415-4.35 3.092-7.473 4.82-.092.05-.197.1-.29.15v-4.66c0-2.806-.335-5.56-.335-8.087V74.86c0-.15-.014-.29-.016-.442.663-.02 1.42-.11 2.67-.21 2.82-.23 7.08-.55 8.435-.55h1.402c.86.01 1.655-.43 2.09-1.174.433-.745.433-1.683 0-2.427-.435-.745-1.23-1.19-2.09-1.177h-1.4c-1.952 0-5.803.32-8.603.55-.325-.1-.674-.11-1.01-.066-.903.11-1.485.174-1.86.23-.15-1.408-.274-2.77-.274-4.12 0-2.47-.06-5.364-.732-8.008-.08-.314-.138-.674-.183-1.054.247-.212.467-.48.61-.793.46-1.015.127-2.17-.73-2.808.012-1.06.045-2.148.045-3.174 0-3.173.33-5.883.945-8.91.686-3.366 2.332-6.91 3.83-10.586.28-.688 1.394-2.01 2.775-3.325 1.38-1.316 2.952-2.66 4.15-4.226.274-.36 1.195-1 2.364-1.555 1.17-.555 2.52-1.05 3.735-1.647 1.135-.556 3.29-.96 5.4-1.402.51.486 1.22.755 1.97.656 2.874-.385 4.98-.226 7.78 2.577.19.19.56 1.1.46 2.807-.107 1.707-.59 3.96-1.22 6.3-.638 2.34-1.406 4.784-2.03 7-.63 2.22-1.177 4.144-1.177 5.98 0 8.407 4.685 14.934 10.968 17.665 6.284 2.73 14.184 1.62 20.137-4.33 2.24-2.24 3.386-4.93 3.46-7.537.075-2.61-.82-5.048-2.196-7.14-2.75-4.188-7.32-7.25-11.882-8.01-2.686-.45-5.2.508-6.925 2.09-1.72 1.58-2.773 3.73-3.05 6.01-.275 2.28.28 4.8 2.03 6.696 1.75 1.898 4.53 2.99 8.024 2.99 1.13 0 2.51-1.1 2.834-2 .327-.9.256-1.532.184-2.12-.146-1.172-.51-2.17-.795-2.882-.306-.81-1.02-1.394-1.877-1.523-.857-.13-1.715.215-2.245.9-.53.683-.643 1.6-.303 2.394.024.06.036.16.063.23-1.16-.264-1.91-.724-2.364-1.22-.693-.75-.963-1.74-.824-2.883.138-1.145.747-2.326 1.557-3.068.81-.745 1.7-1.106 2.93-.9 2.842.473 6.71 2.97 8.645 5.916.968 1.474 1.46 2.98 1.42 4.38-.04 1.4-.526 2.784-2.044 4.3-4.706 4.71-10.32 5.312-14.886 3.325-4.565-1.983-8.085-6.603-8.085-13.284 0-.726.38-2.576.976-4.683.596-2.11 1.39-4.56 2.06-7.033.67-2.47 1.23-4.945 1.373-7.26.14-2.313-.083-4.72-1.846-6.482-.222-.22-.448-.424-.672-.625.856-.09 1.62-.192 2.26-.26.28-.025.525-.05.76-.06zm199.705 0c.72-.03 1.312.033 1.968.29 1.62.636 3.17.63 4.56.61l1.008.58 1.54-.472s.066-.053.092-.077c.38.03.724.05.977.11 1.963.48 3.655 1.327 5.582 2.44.18.78.75 1.45 1.57 1.73.38.126.77.14 1.14.074.97.733 1.862 1.49 2.29 2.045 1.46 1.91 2.822 3.37 3.72 5.124 1.17 2.29 2.44 3.72 2.772 5.03.53 2.085.76 3.906 1.327 6.135.795 3.123 1.235 5.673 1.235 8.8 0 3.222.32 6.425.32 9.38v10.34c0 4.038-.32 8.04-.32 12.297 0 2.847-.99 6.22-.99 10.02 0 2.892.11 5.616-.29 7.995-.304 1.78-.415 3.54-.43 5.23-1.95.51-3.92 1.13-4.392 1.13-6.924 0-13.25 2.03-19.92 2.03-5.318 0-13.8-1.12-21.92-1.86-2.7-.24-5.34-.48-7.858-.61 2.374-1.38 4.624-2.78 6.33-4.47.698-.66.905-1.69.535-2.57-.37-.888-1.25-1.45-2.21-1.42-.605.02-1.184.27-1.604.7-1.45 1.433-4.266 3.14-7.352 4.913-1.79 1.025-3.672 2.088-5.46 3.248-.39.07-.76.14-1.13.23.036-.25.08-.49.138-.717.65-2.554.078-5.027.078-6.41v-7.75c0-2.8-.32-5.556-.32-8.082V78.69c1.624.4 3.63.795 5.737 1.1 3.085.444 5.926.89 8.557 0 3.09-1.046 5.375-2.084 7.824-4.41 1.02-.97 1.58-2.05 2.214-3.28s1.24-2.6 1.845-3.874c.55-1.16 1.095-2.23 1.57-3.02 1.54-.96 2.914-2.21 3.69-4.054.344-.777.27-1.676-.197-2.38-.47-.71-1.26-1.13-2.105-1.116-1 .015-1.9.63-2.275 1.557-.027.06-.075.12-.108.18-1.46.456-2.152 1.296-2.73 2.198-.18.09-.355.184-.55.276-1.934.9-4.47 1.734-6.972 2.91-1.513.716-4.748.88-8.145.55-3.14-.302-6.384-.89-9.03-1.19-.03-2.135-.162-4.46-.716-6.634-.078-.29-.14-.63-.187-.978.624-.494.96-1.28.87-2.075-.076-.677-.444-1.258-.99-1.633.01-1.055.03-2.138.03-3.16 0-3.17.33-5.88.945-8.907.685-3.365 2.33-6.91 3.83-10.585.28-.686 1.393-2.01 2.774-3.323 1.38-1.318 2.966-2.66 4.163-4.228.273-.36 1.193-1 2.363-1.56 1.17-.553 2.51-1.05 3.724-1.645 1.44-.71 4.56-1.145 7.106-1.77 2.29-.563 5.494-.26 8.68-.26 1.78 0 3.2-.28 4.315-.397.278-.026.523-.05.762-.06zm188.205 10.86c2.072-.046 4.903.55 7.703.55 2.155 0 4.507.11 6.36.565 2.924.717 5.157 1.504 8.223 2.257 1.074.263 1.842.516 2.32.793.474.277.75.537 1.112 1.25 1.322 2.595 3.787 4.23 5.293 5.34-.02-.016.657.84 1.1 1.875.44 1.037.817 2.242 1.005 2.975.42 1.643.97 2.81 1.327 3.783.358.974.564 1.762.564 3.08 0 3.104.838 6.875 1.374 9.505.344 1.692.08 7.067-.336 9.106-.86 4.22.226 7.98-.32 10.66-.76 3.722-.047 7.663-.047 10.492 0 2.776-.35 5.78-.35 9.045 0 1.39-.03 2.815-.016 4.286-.16.063-.3.147-.45.244-.59.39-.923.807-1.023.96.07-.013.045 0-.016.064-.026.03-.02-.002.016-.06-.043.01-.083.018-.32.076-5.243 1.29-10.05 1.97-15.94 1.97-13.515 0-30.776-1.298-42.407-1.36-.044-.787-.077-1.565-.077-2.305V102c2.97-.43 5.836-.894 8.236-1.91 1.06-.41 1.66-1.54 1.417-2.652-.24-1.114-1.257-1.88-2.394-1.816-.29.012-.56.082-.825.2-1.47.617-3.815 1.08-6.438 1.493v-2.47c0-2.28.35-4.68.35-7.43v-5.96c1.195.155 2.587.29 4.196.38 2.88.164 6.114.17 8.845-.29 2.364-.39 4.29-1.623 5.98-2.834 1.693-1.212 3.2-2.48 4.18-3.066 1.055-.636.99-.64 1.495-.978.91-.58 1.31-1.702.99-2.732-.32-1.027-1.287-1.72-2.364-1.676-.452.016-.89.17-1.265.427-.704.474-.344.3-1.293.87-1.565.94-3.038 2.206-4.517 3.266-1.48 1.06-2.93 1.84-3.98 2.014-2.076.344-5.125.376-7.796.23-1.83-.105-3.543-.3-4.62-.46-.198-1.996-.52-3.737-.52-5.34 0-2.48.19-4.965.276-7.61.837-.31 1.467-1.08 1.525-2.03.063-1.03-.57-1.93-1.48-2.287v-5.86c0-2.644.054-4.345.824-6.235 1.13-2.774 1.682-5.268 2.808-7.11 1.782-2.917 2.43-4.24 4.576-6.346 1.66-1.633 3.67-2.478 6.3-3.768 2.18-1.07 5.684-1.27 9.09-2.104.387-.096.817-.127 1.296-.14zm-51.025 7.064c.132.02.155.08.107.06-.02-.003-.1-.054-.11-.06zM484.088 44.06c-.315-.002-.6.05-.824.106-.89.222-1.46.59-1.51.61-.354.14-.664.38-.885.687-.54.74-1.22 1.64-1.12 3.203.05.782.54 1.754 1.31 2.274.774.518 1.605.655 2.516.655.755 0 1.58-.184 2.243-.717.663-.533 1-1.318 1.1-1.937.2-1.24-.11-2.11-.29-2.82-.17-.67-.74-1.5-1.51-1.84-.387-.17-.72-.212-1.038-.213zm199.705 0c-.315-.002-.6.05-.824.106-.89.222-1.46.59-1.51.61-.36.14-.67.38-.89.687-.538.74-1.22 1.64-1.116 3.203.05.782.537 1.77 1.31 2.29.775.517 1.622.655 2.533.655.755 0 1.58-.18 2.243-.71.663-.532.985-1.32 1.083-1.937.196-1.24-.11-2.13-.29-2.84-.17-.67-.725-1.49-1.495-1.83-.385-.17-.74-.226-1.052-.23zm198.99 10.04c-.27-.002-.498.043-.686.09-.762.19-1.255.502-1.298.52-.3.118-.56.318-.75.58-.46.63-1.05 1.408-.96 2.744.04.668.46 1.51 1.13 1.953.66.443 1.38.563 2.16.563.642 0 1.34-.153 1.91-.608.562-.457.86-1.134.94-1.664.17-1.058-.12-1.805-.273-2.41-.147-.575-.607-1.282-1.266-1.572-.33-.144-.645-.197-.915-.197zm-334.46 5.383c-1.11.062-2.024.87-2.183 1.922-2.557 15.53-2.41 35.57-2.41 52.55 0 7.377-.153 14.793-.288 22.21-.062.053-.128.094-.184.153-.12.03-.104.046-.305.076-.84.126-2.236.216-3.723.244-2.97.055-6.352-.076-8.038-.076-6.933 0-14.313-1.45-21.965-1.45-4.9 0-9.83-.473-14.813-.473-2.036 0-3.975.96-4.972 2.36-.998 1.392-1.268 2.95-1.42 4.47-.3 3.032.026 6.3-.273 8.11-.51 3.03-.54 6.124-.52 9.076-.01.06-.03.107-.03.17-.06.72-.02 1.42.03 2.043v.72h.04c.01.16.012.337.012.472 0 .515.026.337-.016.503-.266.845-.046 1.765.58 2.393.627.63 1.55.86 2.395.593s1.487-.974 1.648-1.847c.144-.583.166-1.158.166-1.648 0-.458-.013-.94-.03-1.39 0-.034.002-.07 0-.106-.01-3.553-.073-7.12.443-10.25.474-2.88.075-6.128.304-8.436.11-1.152.4-1.974.623-2.287.224-.313.19-.38 1.006-.38 4.65 0 9.59.473 14.81.473 6.99 0 14.367 1.464 21.966 1.464 1.41 0 4.965.12 8.146.06 1.457-.024 2.81-.083 4.01-.24-.06 3.97-.12 7.932-.12 11.912 0 2.94-.458 5.44-.458 8.71 0 1.362.42 2.253.516 2.73.114.83.705 1.53 1.526 1.814.82.284 1.737.11 2.38-.458.64-.57.9-1.44.67-2.245-.22-1.05-.41-1.653-.41-1.846 0-2.82.455-5.335.455-8.71 0-12.92.475-25.905.475-38.93 0-16.996-.08-36.93 2.38-51.846.12-.673-.076-1.367-.55-1.877-.476-.508-1.18-.787-1.89-.747zm199.72.016c-1.11.06-2.023.85-2.18 1.9-2.56 15.53-2.426 35.57-2.426 52.55 0 7.374-.155 14.79-.29 22.21-.062.05-.128.11-.183.17-.12.03-.105.042-.305.072-.84.126-2.24.2-3.73.228-2.974.056-6.354-.076-8.04-.076-6.93 0-14.31-1.448-21.966-1.448-4.9 0-9.83-.475-14.81-.475-2.04 0-3.948.985-4.944 2.38-.997 1.398-1.283 2.937-1.433 4.456-.3 3.035.01 6.32-.29 8.13-.6 3.637-.447 5.682-.428 9.15-.004.053-.004.088 0 .14v1.036h.014c-.008.12 0 .2-.016.336-.068.62-.196 1.42-.046 2.41 0 .025-.003.08-.03.185-.256.84-.027 1.773.594 2.395.623.62 1.54.85 2.38.593.843-.255 1.474-.953 1.65-1.816.11-.434.29-1.133.135-2.06-.013-.07-.006-.573.06-1.19.06-.574.206-1.21.046-2.18-.013-3.453-.12-5.243.383-8.283.474-2.88.06-6.127.29-8.435.115-1.154.42-1.96.64-2.273.225-.312.175-.396.992-.396 4.648 0 9.593.49 14.812.49 6.99 0 14.366 1.448 21.965 1.448 1.41 0 4.965.12 8.146.06 1.46-.022 2.81-.07 4.01-.225-.06 3.974-.104 7.934-.104 11.914 0 2.94-.077 3.424-.077 6.694 0 1.364.416 2.254.516 2.73.116.83.706 1.53 1.53 1.816.82.286 1.736.11 2.377-.456.644-.568.904-1.436.673-2.243-.22-1.05-.41-1.65-.41-1.845 0-2.82.062-3.32.062-6.694 0-12.92.488-25.92.488-38.943 0-17-.09-36.934 2.368-51.85.12-.67-.075-1.35-.55-1.86-.476-.51-1.165-.786-1.877-.746zm197.906 0c-1.11.06-2.03.85-2.19 1.9-2.56 15.53-2.425 35.57-2.425 52.55 0 7.374-.14 14.79-.275 22.21-.06.05-.112.11-.167.17-.12.03-.136.042-.337.072-.84.126-2.22.2-3.704.228-2.973.056-6.354-.076-8.04-.076-6.93 0-14.328-1.448-21.98-1.448-4.9 0-9.83-.475-14.81-.475-2.04 0-3.948.985-4.944 2.38-.997 1.398-1.284 2.937-1.435 4.456-.3 3.035.01 6.32-.29 8.13-.598 3.63-.523 8.54-.503 12.004v.014c-.024.222-.05.443-.062.67-.026.585-.03 1.194-.03 1.68 0 .893.234 1.2.17.944.16.87.8 1.58 1.648 1.842.85.263 1.77.034 2.395-.595.63-.63.85-1.563.58-2.41-.013-.056-.005-.034-.013-.075.002-.298.02-.594.03-.886h.092v-.928c.1-.39.093-.79 0-1.175-.004-.004 0-.01 0-.015-.015-3.185-.024-7.55.44-10.357.475-2.88.093-6.128.32-8.436.115-1.153.403-1.96.626-2.272.222-.313.16-.397.975-.397 4.648 0 9.59.49 14.81.49 6.993 0 14.384 1.448 21.983 1.448 1.41 0 4.95.12 8.13.06 1.457-.023 2.825-.07 4.027-.226-.06 3.974-.107 7.934-.107 11.914 0 2.94-.473 5.423-.473 8.694 0 1.363.434 2.254.534 2.73.114.83.69 1.545 1.51 1.83.822.285 1.753.095 2.395-.473.642-.568.902-1.42.67-2.23-.22-1.05-.442-1.67-.442-1.86 0-2.823.49-5.32.49-8.696 0-12.92.47-25.922.47-38.945 0-17-.09-36.935 2.365-51.85.122-.674-.09-1.353-.565-1.86-.47-.51-1.16-.79-1.872-.75zM690.3 68.45c-.22.45-.437.914-.64 1.31-.548 1.06-1.132 1.88-1.19 1.94-1.947 1.844-3.04 2.29-5.965 3.28-.32.104-3.407.19-6.224-.218-2.575-.37-5.19-.95-6.495-1.328-.07-1.504-.24-2.92-.38-4.287 2.26.297 5.255.802 8.31 1.1 3.707.357 7.51.53 10.74-.993.59-.28 1.203-.55 1.845-.81zm-565.83 5.46c-.92.004-1.753.52-2.165 1.34-.413.823-.333 1.81.214 2.55.16.88.28 2.126.29 3.45 0 .675-.02 1.32-.03 1.92-1.13.21-2.34.433-3.68.776-10.158 2.607-24.41 3.86-34.92 3.86-22.174 0-44.46 1.697-66.49 1.16-.05-.864-.22-1.684-.35-2.534-.22-1.404-.395-2.693-.443-3.677l.03-.06c.406-.778.366-1.72-.107-2.457-.47-.738-1.304-1.16-2.18-1.115-.844.042-1.605.516-2.013 1.25-.016.02-.07.1-.15.23-.168.256-.52.834-.52 1.692 0 1.707.332 3.396.563 4.88.092.6.136 1.157.167 1.634l-.41-.02c-.92-.08-1.827.36-2.334 1.13-.508.77-.544 1.75-.107 2.562.435.812 1.29 1.325 2.21 1.327.482.02.966.042 1.45.06.07 42.186 1.877 84.976 1.92 127.006-4.614-.117-8.854-.383-12.493-.917-.898-.148-1.814.207-2.38.916-.57.706-.708 1.657-.368 2.5.34.84 1.112 1.44 2.013 1.556 3.966.58 8.47.88 13.285 1.006.32 10.03 1.86 36.71 1.86 46.34 0 1.71-.34 17.58-.748 33.04-.202 7.73-.418 15.4-.625 21.293-.103 2.945-.197 6.72-.29 8.54-.045.91-.096 1.637-.136 2.166-.03.396-.084.79-.075.81-.257 1.304.55 2.592 1.86 2.91 1.344.33 2.72-.5 3.05-1.845.16-.66.12-.877.17-1.48.042-.6.09-1.382.133-2.316.096-1.87.2-5.645.306-8.605.21-5.92.44-13.604.64-21.34.407-15.476.734-30.91.734-33.18 0-10.067-1.54-36.724-1.877-46.264 14.275.05 30.507-1.068 43.55-1.068 20.554 0 40.916-2.81 60.894-2.948.246 10.406 1.89 37.375 1.89 47.32 0 1.46.28 5.57.688 11.67.406 6.1.946 13.886 1.463 21.616.52 7.73 1.01 15.393 1.344 21.28.165 2.943.562 9.307.625 11.12.03.906.044 1.65.043 2.166 0 .258-.016.527-.03.658.01-.04.02-.07.047-.17-.33 1.347.5 2.706 1.845 3.036 1.347.33 2.707-.5 3.037-1.845.217-.882.12-1.06.12-1.675.005-.618-.01-1.41-.042-2.35-.064-1.88-.457-8.25-.624-11.21-.333-5.926-.84-13.606-1.357-21.34-.52-7.74-1.06-15.526-1.468-21.617-.404-6.094-.67-10.81-.67-11.336 0-10.433-1.633-37.4-1.89-47.3 4.18.03 8.336-.017 12.492-1.083 1.237-.297 2.04-1.47 1.893-2.73-.15-1.263-1.2-2.225-2.47-2.227-.23 0-.456.032-.674.092-3.405.87-7.163.93-11.29.914-.07-42.724-1.905-86.095-1.905-128.654.006-.676-.268-1.32-.748-1.8-.02-.02-.043-.03-.06-.045.284-.41.45-.9.44-1.42 0-.65.07-2.19.06-3.855-.01-1.664-.064-3.46-.474-5.096-.216-.86-.757-1.295-.993-1.48-.46-.47-1.093-.737-1.753-.73zm-1.48 14.324v.106c0 42.7 1.82 86.074 1.89 128.654-20.414.14-40.76 2.943-60.846 2.943-13.31 0-29.672 1.054-43.61 1.022-.042-42.15-1.833-84.91-1.908-126.93 22.05.48 44.07-1.21 65.668-1.21 10.896 0 25.31-1.24 36.167-4.03.88-.226 1.75-.397 2.64-.563zm517.6 2.944c.116-.018.126.045.077.045-.01 0-.107-.014-.123-.015.01 0 .04-.03.046-.03zm-174.78 1.036v6.147c-1.53.93-3 1.92-4.33 3.01-2.048 1.675-4.377 2.8-6.438 4.485-.075.054-.13.11-.2.17-.35-.93-1.084-1.35-1.57-1.556-.516-.223-.955-.303-1.404-.368-1.79-.262-4.027-.187-4.67-.29-.903-.142-1.35-.29-2.073-.38-.363-.047-.753-.048-1.176 0-.42.047-.86.14-1.3.273-1.137.35-1.785 1.55-1.435 2.686.35 1.134 1.564 1.767 2.7 1.417.57-.176.466-.133.67-.106.205.025.843.177 1.94.35.68.107 1.22.11 1.935.137-.917.854-1.87 1.797-2.715 2.7-.374.4-.694.77-.976 1.113-.284.34-.5.474-.795 1.203-.07.182-.19.412-.18.915.004.27.12.66.337 1.037-.88.04-1.763.09-2.64.138.864-.94.836-2.403-.076-3.31-1.64-1.64-3.06-3.22-4.453-4.866.697-.423 1.304-.948 1.694-1.48.43-.59.6-1.01 1.11-1.755.354-.52 1.942-2.076 2.974-3.554.26-.37.51-.735.703-1.266.177-.49.352-1.33-.062-2.196.068-.008.148-.005.214-.018 2.65-.323 5.065-1.217 7.702-1.54 3.41-.417 5.81-1.17 7.84-1.785 2.03-.615 3.64-1.082 5.936-1.19.254.003.495-.046.73-.122zm-25.64 1.48c.05-.01.063.032.03.046-.01.004-.107.025-.12.03.005-.005.022-.04.03-.045.023-.016.042-.03.06-.032zm-9.107 6.194c.417.117.647.097.99.12.445.034.947.058 1.497.063 1.277.02 2.654-.03 3.937-.1-.475.54-.857.917-1.252 1.495-.62.91-.936 1.475-1.052 1.633-.116.158-.015.092-.534.382-.16.085-.31.2-.43.32-.49-.608-.97-1.223-1.48-1.863-.54-.675-1.1-1.356-1.68-2.044zm386.674 5.507c-3.936.036-8.15 1.282-11.9 2.486-2.498.808-4.75 1.64-6.376 2.218-.6.216-1 .35-1.38.473-4.435-3.703-10.106-4.202-15.24-3.783-5.536.45-10.863 1.8-14.034 1.8-.88-.013-1.69.443-2.134 1.204-.445.76-.445 1.71 0 2.47.44.76 1.254 1.217 2.134 1.206 4.37 0 9.49-1.413 14.43-1.817 4.946-.4 9.27.103 12.42 3.25.67.672 1.277.716 1.616.75.34.03.532-.01.715-.034.368-.05.64-.11.945-.198.615-.176 1.33-.42 2.168-.718 1.678-.6 3.865-1.407 6.238-2.17 4.75-1.52 10.398-2.657 13.043-1.996 2.365.59 4.42 1.577 6.634 2.682 1.21.602 2.677.11 3.28-1.098.6-1.21.11-2.678-1.1-3.28-2.264-1.133-4.7-2.3-7.64-3.037-1.223-.303-2.503-.422-3.814-.41zm30.172.55c-.02.014-.05.045-.14.03.02-.003.12-.03.14-.03zm-255.63.822c-.38.01-.77.03-1.148.06-1.006.077-1.99.232-2.943.397-3.818.66-7.463 1.706-9.214 1.706-.86-.01-1.655.432-2.09 1.175-.433.743-.433 1.683 0 2.425.435.744 1.23 1.188 2.09 1.175 3.2 0 6.64-1.2 10.02-1.784 3.385-.58 6.28-.532 8.12.84.68.53 1.6.66 2.393.32.793-.33 1.35-1.06 1.45-1.92.1-.85-.28-1.7-.977-2.21-2.336-1.75-5.04-2.24-7.704-2.18zm338.453 2c.28 1.92.303 3.943.303 6.144 0 .43-.067 4.26-.136 8.03-.047 2.57-.067 4.133-.092 5.825-.813.15-1.53.308-2.197.308-5.664 0-11.79-.977-18.104-.977h-25.99c-4.724 0-10.63.214-15.06.29.026-.31.05-.547.078-.9.13-1.707.286-3.88.426-6.1.28-4.44.533-8.843.533-10.36 0-.378-.006-.75-.016-1.128 11.3.08 28.454 1.327 42.146 1.327 6.25 0 11.517-.735 17.04-2.09.38-.095.738-.227 1.07-.367zm-324.73.164c-.86-.01-1.656.438-2.09 1.18-.433.744-.433 1.684 0 2.426.434.745 1.23 1.19 2.09 1.176h29.32c.01.03.457.166 1.33.384.844.266 1.763.046 2.393-.58.63-.627.86-1.548.594-2.395-.262-.85-.972-1.49-1.844-1.65-.25-.06-1.03-.534-2.443-.534H606.01zm-70.732.51v.03c0 3.26.54 6.927.06 8.8-.15.594-.13.85-.15 1.297-.02.446-.03.96-.03 1.555-.008 1.187.02 2.636.06 4.09.02.696.035 1.393.06 2.06-.173.1-.326.233-.47.38-.72.68-3.95 1.72-7.276 1.77-3.327.05-6.82-.787-8.055-1.662-1.758-1.248-3.72-1.73-5.355-1.313-1.64.42-2.66 1.382-3.495 2.09-.83.708-1.47 1.226-2.04 1.433-.573.21-1.148.298-2.44-.227-2.46-.997-3.678-1.71-4.18-2.073-.25-.185-.32-.283-.29-.246-.035-.072-.02-.1-.183-.304-.27-.34-1.295-.962-2.135-.855-.84.11-1.08.39-1.206.49-.126.1-.136.137-.15.15-.064.06.036-.015-.063.047-.194.127-.964.54-2.836 1.13-.853.27-1.416.5-1.754.564-1.64.31-4.2-.246-6.27-1.036-1.037-.395-1.95-.834-2.64-1.16-.346-.163-.627-.295-.886-.412-.13-.052-.238-.11-.443-.18-.1-.032-.21-.08-.5-.12-.147-.02-.337-.037-.688.016-.323.05-.893.208-1.37.733.03-.053-.138.127-.398.273-.347.194-.87.44-1.48.686-1.218.486-2.81.966-4.285 1.25-1.48.282-2.874.32-3.496.182-.18-.04-.134-.03-.168-.046-.03-.35-.158-.674-.32-.96-.03-1.073-.06-2.09-.094-3.432-.1-3.993-.197-8.6-.197-9.473v-4.177c3.196-1.094 10.69-1 18.457-.29 7.987.73 16.39 1.89 22.33 1.89 7.556 0 13.97-2.015 19.926-2.015 1.67 0 3.16-.497 4.453-.93zm199.707 0v.03c0 3.26.552 6.927.076 8.8-.215.84-.115 1.066-.093 1.556.023.49.073 1.05.138 1.693.13 1.284.33 2.842.55 4.41.054.38.114.753.17 1.13-.424.08-.824.274-1.16.592-.718.68-3.934 1.72-7.26 1.77-3.328.05-6.838-.772-8.07-1.647-1.758-1.246-3.718-1.73-5.354-1.31-1.637.42-2.66 1.366-3.493 2.074-.83.707-1.484 1.225-2.06 1.432-.57.21-1.13.31-2.423-.21-2.46-1-3.69-1.73-4.196-2.09-.25-.187-.303-.28-.272-.248-.035-.074-.02-.086-.185-.29-.268-.34-1.31-.977-2.15-.87-.84.11-1.05.388-1.176.49-.125.1-.15.136-.166.15-.062.06.038-.016-.06.046-.2.13-.967.54-2.84 1.13-.85.27-1.43.5-1.767.565-1.64.31-4.17-.247-6.24-1.037-1.036-.397-1.967-.82-2.654-1.146-.344-.164-.627-.31-.885-.428-.13-.057-.238-.113-.443-.182-.102-.035-.2-.07-.487-.108-.146-.02-.338-.037-.688.017-.327.05-.907.19-1.39.717.03-.05-.152.13-.41.275-.346.195-.855.44-1.465.687-1.217.49-2.795.97-4.27 1.25-1.476.285-2.886.324-3.508.185-.173-.04-.115-.028-.154-.046-.085-.985-.793-1.766-1.693-2.03.065-.67.12-1.135.186-1.86.183-2.066.363-4.26.5-6.07.14-1.815.244-3.12.244-3.908v-2.605c.18-.145.366-.29.55-.443.68-.576 1.45-1.14 2.286-1.706 3.82-.438 9.637-.24 15.605.305 7.988.73 16.394 1.88 22.334 1.88 7.55 0 13.967-2.015 19.92-2.015 1.67 0 3.16-.497 4.455-.93zm-686.35 1.026c-1.1.016-2.07.743-2.38 1.8-.31 1.016-.74 2.237-1.114 3.355-1.188 1.048-1.913 2.46-2.653 4.36-4.375 11.23-6.66 17.447-7.596 20.364-.234.73-.388 1.218-.488 1.708-.05.248-.21.296-.05 1.22.04.235.115.576.44 1.04.325.466 1.1 1 1.83 1.07 1.467.136 1.796-.51 2.014-.72.437-.414.474-.562.594-.76.12-.2.232-.395.35-.624.24-.46.507-1.02.825-1.71.785-1.706 1.844-4.164 3.003-6.985.096-.006.16-.004.274 0 1.302.01 3.22.22 5.202.516 1.76.26 3.603.602 5.23.944.343 1.197.68 2.407 1.02 3.57 1.27 4.364 2.43 8.28 3.737 10.97.607 1.246 2.11 1.763 3.358 1.16 1.25-.608 1.78-2.11 1.176-3.358-.944-1.94-2.19-5.85-3.45-10.172l-.303-1.056c.866-.156 1.632-.752 1.937-1.646.45-1.315-.243-2.74-1.556-3.19-.51-.174-1.173-.355-1.935-.55-.688-2.327-1.403-4.636-2.136-6.756-1.418-4.093-2.546-7.43-5.05-9.518-.11-.09-.248-.16-.367-.246.155-.487.36-1.04.503-1.51.25-.77.116-1.62-.366-2.27-.48-.653-1.25-1.02-2.06-1.008zm406.307 0c.047-.023.03.03-.108.06.014-.007.095-.057.107-.06zm402.613 3.583c-.21-.004-.413.024-.62.076-2.513.617-5.12.87-8.052.87-10.994 0-21.452 1.418-32.065 1.418-11.386 0-22.87-.47-34.46-.47-7.562 0-17.99-.892-24.59-.473-1.29.084-2.263 1.173-2.18 2.44.087 1.27 1.21 2.235 2.5 2.15 5.828-.367 16.35.475 24.27.475 8.78 0 17.566.29 26.377.41-.02 4.578-.475 12.708-.475 18.92v12.48c-.186.19-.432.44-.807.76-.89.765-2.174 1.744-3.48 2.718-1.305.972-1.685 2.086-2.76 2.867-.34.246-.606.45-.885.654-.96-.123-1.89.353-2.35 1.19-.46.837-.355 1.857.276 2.578.027.037.04.063.09.138.107.16.206.42.84.81.317.195.866.41 1.51.35.616-.055 1.146-.36 1.45-.64l.046-.045c.08-.066.26-.21.474-.367.338-.252.794-.59 1.328-.976 1.066-.773 2.44-2.993 3.784-3.996 1.025-.764 1.08-.42 1.967-1.143.68.66 1.44 1.124 2.23 1.618 3.07 1.52 5.235 4.14 7.23 6.67.493.67 1.325 1.04 2.163.945.837-.096 1.55-.64 1.876-1.405.33-.76.226-1.647-.29-2.3-.45-.59-.935-1.25-1.495-1.94-1.84-2.26-5.065-4.664-6.97-5.856-.72-.452-1.027-.73-1.28-.962.355-.72.305-1.58-.14-2.254-.036-.056-.08-.1-.12-.154v-11.73c0-5.977.433-14.01.455-18.868 1.138.007 2.28.015 3.418.015 11.028 0 21.487-1.42 32.066-1.42 3.21 0 6.25-.28 9.21-1.01 1.16-.26 1.917-1.34 1.786-2.5-.13-1.16-1.13-2.023-2.32-2.03zm-408.3.564c-.09.14-.16.266-.242.4-.09 0-.184.013-.274.015.18-.14.36-.29.52-.413zm201.157.338c.07-.01.11.005.215.016l.15.033c-.174 0-.344-.002-.518 0 .036-.012.13-.042.153-.047zm-409.8.276c-2.66-.054-5.058.643-6.62.643-3.58 0-5.69.545-8.527 1.127-2.563.526-5.283.72-8.13 1.45-1.578.405-2.527 1.206-3.616 1.983-1.086.776-2.16 1.602-2.653 1.905-2.238 1.38-4.36 3.65-5.706 5.038-1.8 1.847-2.846 3.97-3.155 4.286-1.926 1.98-2.52 4.562-2.883 5.31-1.35 2.77-1.967 4.98-2.622 7.67-.077.32-.15.64-.213.962-.86.983-1.45 2.198-1.45 3.72 0 2.222.11 5.065.82 7.857-.1 2.57-.29 5.355-.29 8.114 0 3.353-.336 6.593-.336 10.373 0 3.287.02 6.076-.623 8.724-.847 3.48-.076 7.257-.076 9.534 0 1.13.036 2.23.08 3.325-8.17-9.26-15.014-24.154-23.234-35.406-.447-.613-.727-1.39-1.02-2.38-.297-.992-.57-2.293-1.726-3.48-.21-.22-.464-.393-.734-.52.537-.504.76-1.12.87-1.553.147-.585.174-1.08.17-1.57-.02-1.963-.473-4.344-.473-5.064 0-1 .07-1.51.045-2.303-.023-.79-.27-1.725-.7-2.61-.413-.874-1.31-1.4-2.273-1.33-.78.056-1.49.5-1.877 1.177s-.394 1.5-.046 2.197c.284.58.238.486.244.716.01.23-.06.944-.06 2.15 0 .686.087 1.424.17 2.136-1.054-.82-2.21-1.66-3.296-2.397-.487-.33-.93-.61-1.342-.85-.412-.24-.592-.44-1.434-.626-.21-.046-.485-.13-1.025-.03s-1.498.693-1.8 1.495c-.306.803-.116 1.33-.017 1.632.1.3.188.47.276.61.35.574.64.874 1.143 1.39.226.23.624.59.9.855-1.332-.586-2.35-1.097-3.553-1.344-.302-.062-.627-.14-1.19-.062-.562.08-1.674.626-2.043 1.62-.37.994-.08 1.63.09 2.03.17.395.344.676.55.96.72 1.006 2.114 1.27 3.16.61.45.176.567.195 1.13.44 1.305.574 2.85 1.26 4.38 1.83 1.527.574 2.964 1.086 4.56 1.086.12 0 .264-.014.41-.03.11.22.25.43.43.61.05.055.31.556.61 1.556.295 1 .695 2.417 1.705 3.8 8.542 11.696 15.78 28.685 26.28 38.654.288.27.605.462.96.562.006.29.016.57.016.856 0 2.708.3 10.4.307 12.95v.065c-.76 10.51.01 15.68-.304 25.95v.075c0 2.47.37 4.156.37 6.088-.002.043-.01.085-.014.152-.013.187-.038.477-.062.823-.044.69-.12 1.64-.196 2.81-.16 2.33-.358 5.44-.567 8.525l-.58 8.51c-.074 1.167-.132 2.128-.18 2.822-.02.347-.05.627-.06.823l-.015.245c0 .015-.014.02-.015.015-.005.01 0 .04 0 .214-.017 1.388 1.1 2.53 2.485 2.548.438.005.845-.115 1.206-.305.268.208.57.353.918.443 1.85.475 3.567.444 5.17.444h13.166c0 .015.01.03.013.045v.012c.035.11.09.205.12.32-.008-.02-.04-.075-.045-.09.034.31.085.914.15 1.693.136 1.557.325 3.896.506 6.635.36 5.478.714 12.548.714 18.153 0 3.9.274 8.833.795 13.744-.66 1.15-1.64 2.646-2.775 4.164-1.795 2.395-3.897 4.97-5.54 7.26-1.626 2.27-2.86 3.234-4.698 5.158-.7.64-.99 1.603-.747 2.518.244.914.965 1.612 1.892 1.814.924.2 1.895-.126 2.5-.856 1.93-2.017 3.31-3.093 5.17-5.69 1.43-1.993 3.39-4.442 5.2-6.85.35 2.137.74 4.165 1.173 5.967.244 1.028.49 2.04.732 3.05.176.917.835 1.66 1.722 1.94.89.278 1.867.04 2.533-.61.665-.65.91-1.62.655-2.516-.243-1.013-.473-2.01-.718-3.037-.748-3.128-1.394-7.2-1.878-11.38.136-.325.28-.635.38-.96.257-.778.1-1.646-.38-2.306-.115-.156-.234-.284-.38-.41-.37-4.01-.58-7.925-.58-11 0-5.82-.366-12.944-.73-18.485-.184-2.77-.367-5.14-.505-6.744-.06-.68-.098-1.143-.138-1.54h10.266c5.825 0 12.036-1.344 16.58-.41 3.15.646 6.295.92 9.397 1.037-.48 13.39-4.3 28.544-4.3 45.182 0 3.605.066 7.032-.655 10.05-.255.896-.01 1.868.656 2.518.666.65 1.63.887 2.516.61.89-.28 1.56-1.024 1.74-1.937.81-3.39.82-6.75.806-9.884.87 1.29 1.817 2.635 2.76 3.967 3.197 4.503 7.34 10.91 7.995 11.822.817 1.135 2.388 1.393 3.524.58 1.137-.817 1.41-2.405.595-3.54-.86-1.198-4.84-7.37-7.98-11.79-1.57-2.214-3.113-4.468-4.285-6.318-1.174-1.85-1.98-3.638-1.954-3.524-.068-.295-.183-.568-.338-.81.925-12.845 3.6-25.102 3.997-36.838h1.723c1.59 0 4.814-.2 7.795-.383 1.49-.09 2.906-.16 3.935-.226.514-.036.93-.06 1.22-.08.045-.002.067-.01.107-.014.865.07 1.695-.324 2.21-1.023.155-.21.268-.435.352-.67.264.063.554.1.87.06 1.084-.14 1.562-.79 1.77-1.1.202-.306.26-.48.302-.61.09-.26.09-.37.103-.47.08-.447.037-.906-.12-1.33-.05-.575-.108-1.536-.17-2.79-.127-2.564-.267-6.227-.397-10.007-.26-7.56-.473-15.923-.473-16.58v-20.06c0-2.35.35-4.79.35-7.52v-7.016c7.855 9.3 14.54 23.66 22.517 34.58.448.613.697 1.373.99 2.364.297.99.587 2.308 1.74 3.49.214.22.453.39.717.505-.54.51-.745 1.136-.854 1.57-.147.59-.158 1.08-.153 1.57.02 1.968.47 4.35.47 5.07 0 1-.085 1.48-.06 2.27.024.79.285 1.724.716 2.61.33.8 1.075 1.35 1.94 1.433.863.08 1.68-.31 2.15-1.038s.516-1.655.09-2.41c-.282-.583-.22-.488-.227-.718-.01-.23.06-.945.06-2.15 0-.69-.1-1.435-.186-2.15 1.056.82 2.2 1.654 3.295 2.392.49.33.945.626 1.36.87.41.24.59.436 1.43.623.214.048.47.118 1.01.016.54-.1 1.496-.693 1.8-1.496.3-.8.13-1.313.03-1.615-.1-.3-.19-.468-.275-.61-.35-.575-.67-.87-1.174-1.39-.224-.23-.61-.588-.884-.855 1.33.587 2.348 1.1 3.553 1.346.3.064.626.127 1.19.048.56-.08 1.674-.606 2.043-1.6.37-.994.095-1.633-.077-2.03-.17-.395-.36-.676-.565-.96-.72-1.006-2.112-1.274-3.157-.61-.45-.176-.567-.196-1.13-.443-1.307-.57-2.836-1.29-4.363-1.86-1.53-.573-2.965-1.054-4.56-1.054-.13 0-.3-.004-.46.014-.105-.217-.215-.426-.394-.61-.056-.054-.3-.554-.598-1.556-.297-1-.714-2.4-1.723-3.78-8.46-11.584-15.64-28.36-25.977-38.364-.003-.003 0-.015 0-.016.03-.72.045-1.46.045-2.196v-7.87c0-2.33.35-4.79.35-7.52v-18.28c.077 0 .15-.006.23 0 2.065.08 4.265.295 5.52.38 1.385.09 2.58-.966 2.67-2.35.09-1.384-.95-2.58-2.333-2.67-1.078-.07-3.42-.275-5.677-.366l-.41-.016v-6.772c0-1.662-.522-3.036-1.01-4.393-.48-1.36-.99-2.66-1.155-3.357-.695-2.856-1.405-5.93-2.96-9.124-.233-.477-.47-.94-.702-1.42-.67-1.372-1.453-2.63-2.272-3.796.038-.26.074-.52.047-.856-.04-.503-.19-1.318-.96-1.983-.53-.46-1.2-.63-1.74-.65-.55-.697-1.073-1.368-1.57-2.045-1.31-1.793-3.083-2.786-4.605-3.57-1.52-.78-2.86-1.405-3.57-1.95-2.66-2.05-6.36-3.127-9.046-3.68-.58-.12-1.17-.245-1.753-.365-2.94-.603-5.997-1.104-8.59-1.77-.924-.237-1.843-.347-2.73-.366zm.062 5.143c.564-.025 1.05-.02 1.42.076 2.92.75 6.06 1.26 8.844 1.83.584.12 1.16.23 1.74.35 2.09.43 5.687 1.75 7 2.76 1.474 1.138 3.024 1.75 4.335 2.43 1.31.674 2.31 1.35 2.835 2.074.403.55.8 1.09 1.204 1.62-.1.09-.2.164-.306.256-1.03.905-2.15 1.883-3.126 2.563-.978.68-1.848.913-1.74.913-5.296 0-12.718-4.994-20.24-8.236-2.823-1.216-5.753-2.18-8.743-2.29-.997-.034-1.997.023-3.005.2-4.04.71-7.803 3.47-10.74 8.497-3.298 5.64-3.175 11.583-4.043 16.23-.867 4.65-2.048 7.917-8.252 10.466-2.095.86-3.33.8-4.133.5-.804-.294-1.463-.94-2.06-2.085-.296-.574-.553-1.267-.76-2.014-.003-.005 0-.01 0-.016.017-.65.03-1.293.03-1.936 0-2.058.04-4.408.26-6.437.05-.04.096-.085.15-.123 1.03-.734 2.544-1.36 3.797-1.512 1.253-.15 2 .11 2.365.504.36.39.843 1.42.35 4.055v.015c-.03.03-.125.122-.337.29-.425.332-1.204.77-2.03 1.616-.694.627-.998 1.594-.762 2.5.24.907.98 1.607 1.894 1.815.912.21 1.865-.11 2.47-.82.178-.185.785-.567 1.542-1.16s1.807-1.588 2.12-3.19c.7-3.6.242-6.596-1.557-8.54-1.8-1.95-4.405-2.33-6.65-2.06-.625.073-1.246.2-1.846.364.304-.854.648-1.71 1.13-2.7.774-1.59 1.574-3.606 1.97-4.01 1.59-1.637 2.25-3.37 3.14-4.29 1.333-1.366 3.577-3.55 4.744-4.27.962-.592 1.97-1.394 2.942-2.09.977-.695 2.085-1.237 1.955-1.204 2.27-.58 4.943-.794 7.9-1.4 2.96-.61 4.405-1.008 7.506-1.008 2.508 0 4.98-.46 6.68-.532zm-192.005.563c.743 1.304 1.677 3.155 2.565 5.72.424 1.233.83 2.57 1.25 3.935-.937-.162-1.89-.314-2.854-.456-1.474-.22-2.903-.38-4.224-.473 1.108-2.828 2.23-5.82 3.265-8.725zm39.724 4.867c-.107-.003-.22.002-.32.014-.115.013-.205.03-.306.06-1.638.493-1.708 1.256-2.045 1.847-.337.59-.64 1.256-.977 2.12-.275.677-.24 1.44.09 2.09.33.65.94 1.125 1.65 1.298-.08 2.17-.246 4.81-.52 8.04-.86 10.174-2.35 23.64-2.35 30.904-.056.933.393 1.806 1.19 2.29.8.483 1.81.483 2.61 0 .32-.193.58-.45.78-.75.796.066 2.394.57 4.5-.15 3.484-1.193 8.374-2.164 12.4-4.515 2.01-1.173 3.867-2.78 4.974-5.05 1.107-2.27 1.338-5.07.58-8.19-.928-3.804-3.08-6.54-5.676-8.113-.643-.39-1.31-.707-1.985-.975.087-.058.175-.11.26-.168 2.295-1.595 4.273-3.418 5.462-5.675 1.187-2.257 1.318-5.33-.382-7.657-1.452-1.99-3.69-2.6-5.75-2.927-2.06-.33-4.19-.335-6.04-.367-1.47-.025-2.4-.14-3.097-.244-.033-1.317-1.077-2.397-2.395-2.454h-.078c-.12-.218-.286-.456-.563-.717-.43-.4-1.276-.692-2.016-.7zm609.03 3.796c-.027-.06.18.245.305.458-.006-.004-.027-.01-.03-.014-.26-.327-.264-.417-.276-.443zm-464.226.123c2.183-.01 4.707.725 7.443 1.904 6.738 2.907 14.24 8.638 22.24 8.638 1.957 0 3.296-.902 4.608-1.815 1.314-.913 2.533-1.99 3.57-2.9.02-.02.028-.013.046-.03.684.97 1.31 1.94 1.8 2.945.232.476.44.956.67 1.434 1.27 2.603 1.927 5.22 2.624 8.08.324 1.326.874 2.63 1.314 3.86.44 1.23.7 2.425.7 2.717v7.094c-.28.104-.556.255-.885.457-.834.435-1.363 1.29-1.36 2.228.006.94.538 1.8 1.374 2.227.28.143.565.213.87.244v8.16c-.13-.058-.26-.106-.4-.138-.11-.06-.295-.15-.52-.29-.443-.272-1.037-.67-1.6-1.05-.563-.38-1.093-.74-1.54-1.038-.224-.15-.424-.28-.627-.397-.1-.06-.196-.117-.38-.2-.093-.04-.186-.092-.442-.152-.256-.056-.86-.425-1.936.415-.783.61-.83.86-1.22 1.34-.39.48-.85 1.038-1.265 1.495-.016.016 0 .016-.016.03-.26-.37-.405-.606-.78-1.02-.43-.474-1.078-1.162-2.335-1.25-1.257-.09-2.313.763-2.838 1.51-.49.695-1.124 1.49-1.693 1.966-.57.478-.854.55-1.1.507-2.726-.513-4.78-.02-6.36-.624-1.87-.714-4.357-3.04-6.915-4.364-.334-.177-.717-.276-1.096-.272-1.056 0-1.96.73-2.2 1.754-.238 1.026.26 2.084 1.204 2.55.372.19.87.53 1.433.944.252.8.943 1.428 1.815 1.54-.44-.044-.264-.083.108.37.434.53 1.02 1.41 1.66 2.38 1.286 1.943 2.64 4.304 4.974 5.69 4.233 2.517 6.777 4.543 12.386 4.927 4.555.31 8.19-1.636 11.595-4.79-.105 1.663-.275 3.427-.275 5.356v7.87c0 2.527-.336 5.37-.336 8.24v6.423c-14.98-.554-35.266 1.118-51.835.244-3.845-.2-8.33-.273-12.448-.592-4.117-.317-7.89-.952-9.917-1.89-.644-.3-1.095-.42-1.464-.442-.37-.023-.666.03-.99.03-.386 0-.543.01-.81.017-.08-2.96-.17-6.035-.17-7.37 0-3.705-.364-7.283-.364-10.737 0-3.06-.46-6.71-.06-8.36.835-3.43.76-6.654.76-9.9 0-3.457.37-6.69.37-10.372 0-.22.01-.45.014-.67.425.26.88.507 1.373.688 2.24.83 4.89.63 7.764-.55 7.617-3.126 10.307-8.834 11.305-14.185 1-5.35.98-10.433 3.433-14.63 2.44-4.176 4.78-5.645 7.275-6.084.47-.08.93-.135 1.436-.137zm-141.693 4.77c1.602.43 3.224.41 4.958.44 1.886.034 3.84.066 5.34.306 1.496.24 2.312.73 2.47.945.624.855.586 1.22 0 2.335s-1.995 2.584-3.875 3.89c-1.92 1.334-4.32 2.494-6.606 3.31-1.166.115-2.28.275-3.22.457.14-1.507.294-3.074.412-4.484.228-2.69.413-5.12.52-7.2zm5.232 16.076c2.06.044 4.08.464 5.622 1.403 1.55.94 2.76 2.31 3.417 5.002.553 2.273.33 3.69-.213 4.806-.546 1.11-1.555 2.07-3.02 2.93-2.935 1.71-7.516 2.74-11.47 4.1-.168.05-.985-.08-2.35-.128.215-4.56.76-10.695 1.325-16.825 1.61-.205 3.304-.63 4.99-1.204.563-.037 1.112-.103 1.69-.09zm162.86 2.898c-.25.027-.52.097-.81.228-.76.353-1.26 1.168-1.416 1.818-.172.71-.472 1.57-.29 2.76.09.6.4 1.36 1.037 1.89.64.54 1.46.74 2.197.74.884 0 1.71-.144 2.457-.67.75-.525 1.19-1.462 1.237-2.21.095-1.5-.545-2.41-1.052-3.144-.21-.305-.51-.544-.85-.685-.035-.013-.577-.38-1.45-.61-.22-.056-.494-.11-.81-.106-.078 0-.158-.01-.243 0zM50.58 171.617c-4.757 0-8.384 2.94-10.052 6.743-1.667 3.802-1.847 8.427-1.006 12.996.84 4.57 2.727 9.104 5.674 12.66 2.95 3.56 7.14 6.164 12.11 6.164 1.536 0 2.618-.085 3.678-.473 1.06-.39 2.03-1.374 2.393-2.106.726-1.46.153-1.15 1.1-1.8 1.143-.78 1.44-2.35.655-3.49-.783-1.14-2.35-1.433-3.494-.652-1.826 1.25-2.43 2.88-2.592 3.357-.173.043-.62.153-1.74.153-3.27 0-5.99-1.62-8.25-4.35-2.26-2.726-3.905-6.544-4.607-10.356-.7-3.813-.418-7.584.67-10.07 1.09-2.482 2.53-3.736 5.46-3.736.306 0 .75.167 1.467.81.715.64 1.545 1.657 2.44 2.76.9 1.1 1.83 2.284 3.144 3.234 1.314.95 3.356 1.603 5.28.946.894-.257 1.575-.986 1.77-1.895.195-.907-.128-1.842-.84-2.44-.71-.597-1.685-.76-2.546-.412-.268.09-.18.13-.72-.26-.538-.388-1.336-1.275-2.197-2.333-.86-1.057-1.793-2.283-2.99-3.356-1.192-1.07-2.8-2.09-4.803-2.09zm442.14 2.944c-.93.03-1.753.6-2.09 1.47-1.04 2.557-1.76 5.09-2.03 7.446-.2 1.74-.21 3.417.276 4.94-1.468.297-3.037.706-4.487 1.39-1.064-2.122-1.835-4.572-2.7-7.123-.32-.992-1.25-1.642-2.29-1.602-.734.03-1.434.4-1.845 1.008-.413.61-.49 1.38-.246 2.076.81 2.385 1.59 4.99 2.84 7.52-1.103.54-2.245 1.18-3.188 2.183.08-.53-.005-1.09-.304-1.572-.72-1.173-1.477-1.19-1.97-1.295-.5-.106-.946-.14-1.42-.14-.95 0-2.01.12-3.14.306-2.27.377-4.627.874-6.486 2.245-1.03.76-1.25 2.207-.49 3.237.762 1.027 2.22 1.264 3.25.5.38-.28 2.615-1.09 4.485-1.4.933-.158 1.82-.248 2.38-.246.142 0 .16.008.242.016.542.32 1.16.39 1.74.243-.715.71-1.55 1.512-2.427 2.345-1.484 1.412-3.053 2.885-3.89 4.94-1.25 3.065-2.764 6.317-3.69 9.84-1.85-1.368-3.577-2.21-5.25-2.99-1.94-.91-3.843-1.76-6.314-3.495-2.67-1.874-5.205-2.94-6.714-3.996-.375-.274-.82-.43-1.28-.446-.4-1.068-1.02-2.022-1.694-3.02-.846-1.257-1.81-2.513-2.61-3.57-.347-.46-.4-.56-.656-.93.37-1.078-.163-2.255-1.22-2.685-.294-.13-.58-.237-.972-.308-.197-.035-.437-.09-.748-.06-.313.028-.688.15-1.1.426-.823.554-1.06 1.665-1.006 2.184.053.52.17.796.29 1.052.476 1.01 1.154 1.813 1.953 2.87-.277-.18-.647-.437-.886-.58-.57-.346-.904-.57-1.492-.764-.147-.043-.318-.08-.61-.102-.293-.025-.8-.084-1.465.366s-.99 1.436-.96 1.94c.028.503.158.737.244.915.346.708.564.823.87 1.143.305.32.65.667 1.052 1.037.907.836 1.922 1.716 2.897 2.5-.716.08-1.26.1-1.938.26-1.08.25-1.688.475-1.89.516-.206.04-.106.056-.688-.076-1.16-.27-2.327.44-2.595 1.6-.268 1.16.455 2.326 1.617 2.594.886.202 1.786.236 2.5.09.717-.144 1.137-.323 2.03-.533.637-.15 2.872-.24 4.637-.64.44-.1.874-.2 1.373-.46.473-.24 1.188-.75 1.465-1.72.07.065.15.13.23.185 2.177 1.53 4.554 2.484 6.71 3.998 2.8 1.967 5.1 3.024 7.018 3.92 1.917.9 3.415 1.608 5.17 3.05.316.284.686.487 1.085.567-.304 2.124-.472 4.26-.472 6.574 0 .654-.032 1.384-.06 2.168-.204-.013-.4-.032-.61-.044-1.873-.113-3.932-.152-5.414-.197-.075-.004-.14-.004-.214 0-1.28.024-2.31 1.068-2.29 2.35.027 1.28 1.1 2.31 2.38 2.286 1.506.048 3.514.094 5.265.2.35.02.66.05.976.076.08.715.204 1.434.38 2.137.48 1.872.58 4.496.58 6.862 0 3.564.674 6.547.674 9.382v8.07c0 2.9.32 5.67.32 8.082v4.76c-1.773.57-3.502 1.23-5.11 2.014-2.375 1.16-4.883 1.742-7.277 2.912-.077.033-.17.066-.242.107-.132-.98-.75-1.566-1.174-1.878-.453-.334-.86-.52-1.282-.686-1.68-.666-3.87-1.113-4.47-1.36-.847-.344-1.237-.568-1.922-.823-.683-.252-1.58-.365-2.485-.303-.78.037-1.48.49-1.83 1.19-.35.7-.29 1.538.15 2.18.445.648 1.206.99 1.985.918.597-.04.494-.023.686.05.196.07.76.374 1.787.79.645.265 1.18.375 1.875.566-1.096.626-2.24 1.324-3.28 2.015-.455.3-.85.584-1.205.853-.353.27-.584.366-1.037 1.01-.113.16-.29.35-.396.84-.107.49.053 1.535.64 2.09.59.55 1.113.573 1.406.593.29.018.458-.007.61-.032.61-.1.983-.25 1.6-.502.247-.1.633-.288.917-.41-.94.895-1.714 1.59-2.334 2.5-.16.232-.34.472-.474.976-.136.5-.075 1.655.654 2.33.73.68 1.372.65 1.77.64.397-.01.707-.073 1.022-.15 1.092-.262 1.792-1.316 1.615-2.426v-.015c.317-.327.396-.426.81-.825.96-.922 2.09-2.005 3.13-3.113.817-.877 1.57-1.718 2.135-2.7.464.05.947-.04 1.37-.274 1.66-.815 4.36-1.45 7.29-2.885.94-.46 1.98-.886 3.11-1.283.074 1.45.18 2.74.03 3.327-.57 2.237-.393 4.3-.393 6.07v4.852c0 1.174.082 5.59.183 9.594.05 2 .1 3.872.136 5.123.02.624.05 1.094.06 1.372.006.07-.002.107 0 .17.004.03.01.06.017.12 0 .03 0 .076.012.153.005.04.01.09.03.184.023.093.26.61.26.61l.884.12c.054.16.123.31.213.46.453.74 1.286 1.16 2.15 1.096h.46c-.46.557-.96 1.18-1.465 1.864-2.03 2.75-4.166 6.646-4.166 11.623 0 2.22.007 5.62.077 8.618.033 1.5.175 2.62.242 3.74.033.56.073 1.053.122 1.48.05.423.01.652.29 1.34.44 1.203 1.77 1.814 2.974 1.374 1.2-.44 1.83-1.772 1.39-2.974.007.01-.024-.093-.046-.274-.03-.286-.06-.698-.09-1.207-.06-1.017-.21-2.116-.243-3.584-.07-2.936-.077-6.32-.077-8.51 0-3.66 1.536-6.536 3.264-8.88.864-1.17 1.764-2.177 2.532-3.096.46-.553.93-.996 1.293-1.63 1.51-.036 3.02-.056 4.577-.09-.43.566-.81 1.16-1.16 1.77-1.71 3-2.695 6.526-3.156 9.7-.16 1.1-.312 2.2-.472 3.296-.55 3.78-.876 8.56.046 12.186.17.838.782 1.507 1.6 1.754.82.248 1.7.027 2.304-.58.603-.604.83-1.484.58-2.302-.573-2.25-.45-6.994.044-10.39.16-1.097.313-2.2.473-3.295.39-2.715 1.32-5.823 2.604-8.086 1.29-2.26 2.714-3.468 4.35-3.57.55-.01 1.06-.227 1.464-.58h23.977c5.823 0 11.934.962 18.107.962 2.47 0 4.08-.658 5.6-.658.322.024.63-.03.93-.137.623.014 1.25-.2 1.705-.66.58-.58.81-1.424.61-2.213.034.04-.11-.962-.167-1.936-.067-1.113-.13-2.522-.17-3.934-.04-1.413-.065-2.83-.06-3.935.003-.554.015-1.03.03-1.374.013-.257.056-.51.046-.49.865-3.542.03-7.33.03-9.822 0-3.34-.17-6.497.31-9.32.517-3.053.365-6.04.366-8.787 0-2.89.99-6.254.99-10.02 0-4.014.32-8.017.32-12.298V233.34c0-3.282-.32-6.493-.32-9.382 0-3.586-.545-6.633-1.39-9.945-.48-1.89-.716-3.754-1.326-6.146-.71-2.795-2.363-4.48-3.128-5.98-1.262-2.478-2.915-4.187-4.18-5.845-1.59-2.08-4.012-3.67-5.934-4.803-2.225-1.31-4.476-2.49-7.217-3.16-.693-.17-1.376-.24-2.03-.28 1.018-.474 2.258-1.055 3.36-2.136.69-.66.896-1.68.533-2.562-.363-.882-1.226-1.45-2.18-1.432-.602.014-1.165.26-1.588.687-.226.22-1.83 1.03-3.327 1.86-.75.414-1.536.83-2.242 1.74-.275.353-.49.862-.595 1.42-.73-.24-1.437-.376-2.12-.43-.824-.066-1.594-.027-2.302.045-.424.045-.815.104-1.207.154-.05-.274-.136-.54-.29-.794.033-.06-.065-.927.23-2.06.325-1.248.876-2.587 1.22-3.767.22-.715.07-1.497-.38-2.09-.454-.595-1.16-.937-1.91-.916-1.014.03-1.894.726-2.164 1.706-.2.682-.834 2.228-1.265 3.89-.326 1.257-.696 2.678-.32 4.178-1.95-.074-4.115-.153-6.3.2-.273-.493-.52-1.764-.32-3.493.205-1.776.81-3.975 1.724-6.22.31-.728.233-1.575-.214-2.227-.445-.65-1.192-1.015-1.982-.99zm-220.13 2.29c.203.14.35.25.565.4.582.396 1.182.8 1.74 1.146.278.17.553.318.823.458.27.14.454.298 1.065.413.504.115.98.043 1.42-.155v2.335c-.657-.015-1.276.263-1.71.777-3.527 3.685-5.895 5.213-9.656 4.957-4.73-.324-5.97-1.656-10.45-4.317-.416-.25-1.06-.97-1.766-1.878 1.757.17 3.21-.006 4.06.154 1.967.37 3.69-.527 4.834-1.48.58-.484 1.066-.996 1.48-1.496.28.4.393.618.81 1.098.544.63 1.614 1.02 2.363.96.746-.057 1.205-.316 1.6-.563.79-.495 1.324-1.07 1.86-1.664.362-.4.66-.772.96-1.14zm462.52 7.1c-.15 0-.306.004-.46.015-1.23.084-2.53.455-3.84 1.098-5.738 2.817-8.738 7.42-10.16 11.213-.715 1.893-1.047 3.6-1.19 4.88-.006.027-.015.033-.018.06-2.732-.683-4.955-1.443-8.024-2.197-2.508-.615-5.136-.7-7.446-.7-1.73 0-4.364-.69-7.215-.627-.95.02-1.916.11-2.896.35-2.68.66-6.52.74-10.02 2.456-2.46 1.21-5.12 2.264-7.52 4.622-2.527 2.48-3.57 4.41-5.295 7.23-1.672 2.737-2.21 5.51-3.126 7.764-1.125 2.757-1.146 5.297-1.146 7.993v5.46c-1.485-.088-2.983-.18-4.47-.273-.08-.01-.148-.014-.228-.015-1.28-.015-2.337 1.02-2.348 2.3-.016 1.28 1.02 2.323 2.3 2.334 1.565.095 3.132.195 4.7.29-.088 2.478-.29 4.97-.29 7.67 0 3.058.654 5.58.654 8.086v8.085c0 .225-.01.448-.014.673-1.7-1.2-3.27-1.975-4.82-2.7-1.94-.91-3.86-1.79-6.33-3.525-2.67-1.874-5.22-2.924-6.73-3.982-.375-.27-.82-.41-1.28-.424-.4-1.073-1.006-2.048-1.68-3.05-.843-1.257-1.81-2.498-2.61-3.556-.346-.46-.395-.576-.653-.946.356-1.074-.176-2.24-1.22-2.67-.3-.127-.585-.235-.978-.305-.197-.038-.45-.077-.76-.048-.314.03-.674.12-1.086.398-.822.55-1.075 1.692-1.022 2.21.052.52.185.78.305 1.038.473 1.01 1.153 1.813 1.95 2.868-.275-.176-.66-.435-.9-.58-.57-.342-.89-.55-1.48-.746-.145-.05-.33-.11-.624-.138-.293-.028-.786-.087-1.45.364-.664.45-.99 1.45-.96 1.954.027.503.157.738.243.916.346.708.55.822.855 1.143.305.32.666.667 1.068 1.037.917.842 1.92 1.715 2.9 2.5-.72.082-1.27.116-1.95.276-1.08.254-1.69.463-1.893.504-.203.04-.103.056-.686-.076-.763-.22-1.583-.01-2.135.565-.55.574-.747 1.41-.502 2.168.245.756.896 1.323 1.68 1.463.885.205 1.785.238 2.5.093.716-.146 1.136-.325 2.03-.534.636-.15 2.87-.246 4.636-.64.442-.1.875-.217 1.374-.475.472-.244 1.186-.72 1.462-1.692.07.06.135.115.214.167 2.177 1.53 4.57 2.482 6.726 3.994 2.8 1.965 5.1 3.01 7.017 3.907 1.915.897 3.412 1.636 5.17 3.08.38.343.85.537 1.342.58-.022.53-.03 1.063-.03 1.617v1.45c-1.71.556-3.385 1.19-4.942 1.95-2.375 1.164-4.9 1.746-7.29 2.916-.08.04-.155.09-.23.137-.125-.99-.75-1.593-1.175-1.907-.453-.33-.862-.503-1.282-.67-1.68-.665-3.866-1.11-4.47-1.356-.846-.347-1.236-.585-1.92-.84-.684-.254-1.564-.37-2.47-.305-.786.023-1.506.485-1.86 1.19-.356.7-.31 1.53.136 2.18.442.65 1.214 1.005 1.996.93.597-.04.493-.027.687.044.194.075.774.377 1.8.796.64.26 1.184.374 1.876.564-1.09.622-2.23 1.325-3.266 2.012-.454.307-.88.57-1.234.84-.353.27-.568.368-1.02 1.01-.116.16-.275.36-.383.854-.11.493.054 1.524.64 2.076.59.552 1.098.59 1.39.61.294.02.474-.006.626-.03.61-.1.954-.268 1.573-.52.242-.1.646-.287.93-.41-.94.897-1.73 1.59-2.35 2.5-.16.233-.323.49-.458.992-.135.5-.073 1.64.657 2.317.727.677 1.37.65 1.767.64.4-.01.693-.074 1.01-.153 1.103-.253 1.813-1.32 1.63-2.44v-.014c.312-.325.38-.43.793-.825.96-.92 2.108-1.986 3.144-3.095.833-.894 1.597-1.755 2.166-2.762.444.06.91.015 1.344-.196 1.663-.814 4.358-1.465 7.29-2.9.875-.426 1.858-.815 2.9-1.19v1.695c0 2.87.32 5.68.32 8.082 0 .745-.354 5.71-.747 10.237-.197 2.26-.407 4.492-.58 6.21-.086.855-.15 1.597-.213 2.133-.064.535-.18 1.07-.106.776-.232.81-.02 1.677.58 2.272.6.596 1.463.815 2.273.58.324-.094.62-.26.87-.473.525.32 1.103.53 1.645.656.667.153 1.327.225 2 .228-.512.586-1.062 1.238-1.633 1.986-2.045 2.674-4.223 6.467-4.223 11.334 0 2.154.02 5.462.09 8.375.036 1.457.086 2.8.153 3.89.035.544.074 1.018.124 1.434.05.415-.003.65.29 1.342.452 1.18 1.776 1.764 2.96 1.31 1.18-.452 1.78-1.776 1.326-2.96.016.04-.01-.043-.03-.227-.036-.273-.064-.683-.094-1.176-.06-.985-.117-2.313-.15-3.737-.07-2.845-.078-6.122-.078-8.25 0-3.514 1.54-6.27 3.28-8.542.866-1.135 1.77-2.13 2.544-3.02.74-.852 1.516-1.365 1.814-2.943.684-.224 1.35-.466 1.953-.717.736-.307 1.4-.62 1.982-.96.032-.02.06-.045.092-.06.54.262 1.248.593 2.043.93-1.286 1.055-2.332 2.425-3.156 3.873-1.71 3-2.694 6.525-3.155 9.7-.16 1.096-.313 2.2-.473 3.294-.55 3.783-.876 8.562.046 12.187.313 1.242 1.58 1.99 2.82 1.677 1.245-.312 1.993-1.562 1.68-2.806-.572-2.25-.45-6.994.046-10.39.16-1.1.312-2.2.472-3.296.394-2.713 1.305-5.82 2.59-8.084 1.29-2.26 2.73-3.47 4.366-3.57.67-.015 1.27-.327 1.693-.824.77.02 1.57-.043 2.36-.2 1.05-.205 1.765-.56 2.244-.715 1.2-.394 2.01-.71 2.67-1.024.97.71 2.43 1.52 4.94 2.577 2.083.878 4.114.897 5.69.306 1.575-.59 2.617-1.6 3.417-2.307.8-.706 1.364-1.062 1.558-1.113.195-.053.347-.178 1.37.577 2.796 2.06 6.708 2.623 10.59 2.564 2.73-.04 5.41-.355 7.64-1.39.41.66 1.138 1.1 1.97 1.1 1.28 0 2.333-1.04 2.333-2.32 0-.89-.152-1.9-.35-3.46-.192-1.562-.442-3.47-.7-5.354-.255-1.887-.51-3.76-.7-5.217-.094-.73-.174-1.35-.23-1.817-.052-.468-.074-.913-.074-.733 0-2.23-.014-4.473-.353-6.803-.413-2.865-.302-5.857-.302-9.03 0-2.936.32-5.923.32-9.045 0-3.443-.534-7.174-.047-9.566.864-4.233-.206-8.015.336-10.677.583-2.867.99-7.647.32-10.94-.54-2.642-1.266-6.395-1.266-8.586 0-1.92-.39-3.445-.838-4.67-.342-.93-.688-1.687-.962-2.517.48.164.986.306 1.526.412 2.22.433 4.212 1.302 6.56 1.996 2.35.694 5.1 1.12 8.3.335 1.34-.33 1.805-.836 2.67-1.51.86-.677 1.78-1.532 2.652-2.442.873-.91 1.703-1.854 2.318-2.883.308-.515.57-1.052.734-1.708.163-.66.228-1.558-.23-2.458-.84-1.65-1.877-3.664-3.616-5.37-1.74-1.71-4.29-2.99-7.49-2.99-5.3 0-9.075 2.31-11.7 4.74-1.947 1.804-3.468 3.604-4.65 4.73-.32-.4-.676-.78-1.147-1.13-.88-.645-1.995-1.576-2.823-2.393 4.263-.547 7.92-2.007 11.516-5.537 3.116-3.06 4.007-7.84 3.006-11.87-.5-2.01-1.62-3.99-3.66-5.016-.895-.45-1.9-.665-2.96-.655zm169.562 2.974c-.387.01-.744.04-1.098.076-1.417.147-2.596.367-3.845.367-1.27 0-2.71-.082-4.21-.106-.51-.04-.985-.073-1.388-.073-6.074 0-9.438.006-11.152.076-.426.02-.744.02-1.065.06-.16.023-.308.043-.61.14-.15.048-.35.098-.703.35-.35.253-1.045 1.03-.974 2.06 0 .02.01.025.012.045-.236.065-.46.09-.777.306-.393.267-.843.84-1.023 1.464-.657.32-1.32.67-1.952 1.114-.802.13-1.585.35-2.35.703-.81.303-1.377 1.03-1.48 1.89-.043.376.01.756.14 1.1l-1.694 1.614c-1.484 1.414-3.038 2.887-3.875 4.943-1.43 3.513-3.23 7.266-4.07 11.394-.666 3.25-1.04 6.36-1.04 9.856 0 .652-.035 1.382-.06 2.166-.21-.015-.4-.034-.61-.046-1.876-.113-3.935-.152-5.417-.197-.074-.006-.153-.006-.23 0-1.28.022-2.296 1.066-2.27 2.35.024 1.28 1.083 2.31 2.363 2.284 1.502.048 3.51.094 5.262.2.343.02.67.053.99.076.075.716.187 1.435.365 2.14.476 1.87.593 4.495.593 6.86 0 3.565.65 6.548.65 9.383v8.07c0 1.742.12 3.43.215 5.032-1.66.272-3.086.694-4.47 1.113-2.054.625-4.06 1.25-7.077 1.618-3.25.398-5.858 1.3-7.704 1.526-.478.06-.916.257-1.25.55-1.03-.528-2.147-.823-3.34-1.113-1.487-.36-3.064-.64-4.38-.883-.586-.11-.707-.143-1.16-.245-.366-.84-1.224-1.35-2.135-1.283-.194.014-.383.057-.564.12-.306.107-.575.218-.915.43-.34.212-.927.557-1.16 1.54-.23.985.376 1.95.763 2.29.387.34.67.442.93.55 1 .41 2.036.574 3.295.81-.263.04-.658.09-.884.134-.66.127-1.036.195-1.604.44-.14.065-.31.13-.548.31-.238.18-.656.497-.84 1.297-.184.8.282 1.747.64 2.09.36.34.597.417.78.487.72.284.942.23 1.386.26.44.034.944.04 1.493.046 1.27.014 2.642-.014 3.92-.09-.47.536-.845.908-1.236 1.48-.622.91-.92 1.474-1.037 1.633-.118.156-.016.09-.535.38-1.042.576-1.43 1.886-.854 2.93.577 1.04 1.887 1.43 2.93.852.793-.44 1.49-1.026 1.922-1.616.43-.59.62-.994 1.13-1.74.352-.52 1.923-2.09 2.96-3.57.254-.37.506-.747.7-1.28.176-.49.35-1.316-.06-2.18.066-.004.14-.01.21-.017 2.65-.324 5.068-1.203 7.704-1.525 3.41-.416 5.826-1.184 7.854-1.8 1.152-.35 2.167-.637 3.25-.853v6.115c0 2.14.29 4.41.077 5.25-.56 2.194-.42 4.215-.412 5.964-1.396.947-2.83 1.84-4.15 2.958-.067.055-.12.122-.183.184-.365-.94-1.123-1.355-1.617-1.556-.518-.21-.955-.275-1.403-.335-1.794-.235-4.033-.137-4.682-.23-.91-.13-1.35-.27-2.072-.35-.725-.08-1.606.04-2.47.32-.78.196-1.386.82-1.572 1.6-.185.785.076 1.58.686 2.106.61.53 1.463.687 2.21.387.57-.185.463-.145.67-.123.207.023.853.18 1.953.335.68.095 1.22.062 1.922.075-1.13.098-2.284.153-3.51.153-10.993 0-21.48 1.403-32.094 1.403-4.216 0-8.45-.06-12.69-.14.855-.2 1.57-.893 1.753-1.813.245-1.257-.576-2.47-1.83-2.716-4.07-.8-9.26-1.122-14.098-1.342-4.83-.22-9.35-.332-11.47-.563-.15-.02-.3-.025-.456-.015-1.212.08-2.173 1.09-2.182 2.304-.006 1.216.94 2.224 2.153 2.32 2.616.285 6.98.363 11.747.58 4.665.213 9.64.55 13.18 1.22-6.82-.13-13.67-.275-20.562-.275-7.566 0-17.975-.907-24.575-.488-1.29.08-2.265 1.17-2.18 2.44.084 1.267 1.195 2.233 2.486 2.15 5.824-.37 16.35.473 24.27.473 8.78 0 17.562.274 26.373.4-.023 4.572-.46 12.732-.46 18.946v12.47c-.186.194-.448.44-.823.764-.885.76-2.155 1.725-3.46 2.7-1.305.972-2.646 1.947-3.72 2.73-.34.245-.606.433-.886.64-.96-.124-1.89.367-2.35 1.204-.46.837-.34 1.857.29 2.578.027.037.025.063.076.138.106.157.203.42.84.81.314.193.88.424 1.523.365.616-.056 1.145-.36 1.45-.64-.01.007.004-.006.045-.046.08-.068.26-.226.47-.385.34-.25.797-.59 1.33-.976 1.062-.772 2.42-1.756 3.765-2.76 1.024-.763 2.04-1.532 2.927-2.257.68.66 1.44 1.14 2.23 1.633 2.24 1.4 5.32 4.72 5.87 5.4.44.537.88 1.15 1.39 1.815.497.67 1.33 1.04 2.166.948.84-.094 1.55-.64 1.875-1.402.33-.762.23-1.647-.29-2.302-.445-.59-.932-1.25-1.49-1.937-1.844-2.264-5.08-5.2-6.987-6.392-.72-.452-1.04-.744-1.295-.976.36-.723.296-1.566-.15-2.242-.036-.054-.066-.115-.106-.166v-11.72c0-5.977.434-14.04.457-18.9 1.137.01 2.264.016 3.4.016 10.796 0 21.076-1.346 31.426-1.403-.05.105-.1.225-.153.367-.07.184-.173.41-.153.916.02.5.427 1.455 1.13 1.843.7.384 1.206.293 1.494.24.29-.05.453-.12.595-.18.57-.248.866-.477 1.402-.87.228-.168.59-.467.856-.67-.708 1.13-1.3 1.975-1.68 3.033-.1.265-.198.56-.2 1.08-.006.524.335 1.618 1.203 2.09.867.475 1.493.29 1.877.184.385-.104.66-.23.946-.38 1.01-.527 1.425-1.752.96-2.792.223-.39.26-.5.565-.99.7-1.125 1.55-2.456 2.276-3.783.575-1.053 1.09-2.06 1.387-3.16.45-.06.887-.238 1.237-.548.332-.285.72-.58 1.16-.885.012 1.563.09 5.29.18 8.94.05 2 .114 3.872.15 5.123.02.626.035 1.096.05 1.374 0 .07-.006.105 0 .167 0 .032.007.063.014.122.004.03-.01.074 0 .15.008.04.024.09.047.184.02.094.242.61.242.61s.574.09.92.137c.05.16.11.3.194.446.45.74 1.283 1.16 2.15 1.1h.442c-.46.556-.93 1.18-1.437 1.863-2.03 2.75-4.18 6.646-4.18 11.623 0 2.22.02 5.62.09 8.62.034 1.5.086 2.893.152 4.01.034.56.06 1.056.107 1.48.05.425.01.654.29 1.343.44 1.203 1.757 1.814 2.96 1.373 1.202-.44 1.83-1.77 1.39-2.974.004.01-.027-.108-.048-.29-.033-.283-.047-.695-.077-1.204-.06-1.02-.118-2.376-.15-3.844-.07-2.938-.078-6.32-.078-8.513 0-3.66 1.537-6.534 3.264-8.877.866-1.173 1.75-2.18 2.52-3.098.465-.554.93-.997 1.296-1.63 1.51-.037 3.02-.057 4.577-.092-.428.566-.81 1.158-1.158 1.77-1.71 3-2.683 6.526-3.144 9.7-.16 1.098-.313 2.2-.47 3.296-.553 3.784-.894 8.564.03 12.19.167.837.78 1.506 1.6 1.753.82.247 1.715.026 2.32-.58.602-.605.827-1.485.58-2.303-.574-2.25-.434-6.995.06-10.39.16-1.097.312-2.198.472-3.295.397-2.716 1.29-5.824 2.58-8.087 1.29-2.26 2.727-3.465 4.36-3.57.55-.014 1.07-.224 1.467-.58h23.962c5.822 0 11.95.965 18.122.965 2.47 0 4.064-.66 5.58-.66.326.026.65-.03.947-.135.627.017 1.24-.2 1.695-.655.58-.576.808-1.422.61-2.21.035.037-.094-.964-.152-1.938-.064-1.115-.125-2.524-.166-3.936-.04-1.41-.067-2.83-.06-3.933 0-.55.013-1.03.03-1.37.01-.257.054-.51.044-.488.86-3.542.045-7.33.045-9.822 0-3.34-.19-6.5.29-9.32.517-3.055.365-6.04.365-8.79 0-2.887.977-6.25.977-10.02-.002-4.01.335-8.014.335-12.295v-10.34c0-3.282-.335-6.493-.335-9.382-.002-3.585-.547-6.632-1.39-9.944-.48-1.89-.702-3.756-1.31-6.148-.712-2.795-2.378-4.48-3.143-5.98-1.26-2.478-2.916-4.187-4.18-5.845-1.59-2.08-4.013-3.67-5.935-4.803-2.223-1.31-4.458-2.49-7.2-3.16-1.668-.41-3.24-.298-4.606-.28-1.363.02-2.495-.074-3.003-.274-.886-.348-1.753-.515-2.58-.58-.41-.03-.83-.04-1.22-.03zm-169.427 1.618c.315.016.55.09.733.183.484.243.964.87 1.25 2.012.565 2.28-.3 6.017-1.756 7.444-3.66 3.593-6.517 4.3-11.41 4.438-.012-.064-.03-.117-.046-.18 0-.18.003-.4.044-.764.104-.915.37-2.29.93-3.782 1.12-2.982 3.324-6.44 7.856-8.663.9-.44 1.567-.63 2.06-.67.128-.014.23-.024.34-.017zm-228.106 3c.713-.03 1.294.05 1.95.307 1.697.665 3.332.614 4.774.594 1.44-.02 2.713-.032 3.416.14 2.1.516 3.87 1.42 5.966 2.656 1.64.966 3.848 2.62 4.607 3.615 1.458 1.91 2.842 3.385 3.737 5.14 1.17 2.294 2.44 3.72 2.78 5.035.53 2.08.76 3.888 1.326 6.115.796 3.122 1.237 5.69 1.237 8.814 0 3.224.32 6.43.32 9.384v10.323c0 4.037-.32 8.04-.32 12.296 0 2.85-.99 6.22-.99 10.02 0 2.895.11 5.65-.29 8.027-.304 1.78-.415 3.52-.43 5.22-1.95.505-3.92 1.127-4.39 1.127-6.926 0-13.25 2.014-19.924 2.014-5.32 0-13.8-1.102-21.92-1.844-7.08-.645-13.778-1.182-18.75.016.036-.255.08-.49.137-.72.58-2.284.182-4.49.09-5.92.614-.175 1.232-.36 1.847-.533 3.453-.97 6.82-1.88 9.473-3.434.94-.537 1.366-1.65 1.053-2.685-.314-1.036-1.285-1.725-2.364-1.65-.365.03-.71.15-1.023.337-1.77 1.04-4.95 1.994-8.39 2.96-.2.056-.41.11-.61.17v-3.404c0-2.8-.334-5.557-.334-8.082v-4.285c1.63.398 3.64.795 5.75 1.1 3.086.444 5.93.904 8.56.014 3.09-1.046 5.373-2.08 7.822-4.41 1.02-.97 1.576-2.05 2.21-3.28.635-1.23 1.243-2.585 1.845-3.86.553-1.165 1.11-2.26 1.587-3.05 1.533-.96 2.9-2.216 3.677-4.056.334-.772.25-1.66-.216-2.363-.466-.702-1.245-1.11-2.09-1.1-.997.015-1.896.616-2.27 1.54-.02.053-.065.103-.09.154-1.48.456-2.176 1.33-2.763 2.24-.172.09-.344.174-.532.26-1.935.9-4.47 1.736-6.97 2.915-1.517.712-4.75.874-8.148.55-3.15-.308-6.4-.91-9.05-1.21-.03-2.13-.164-4.45-.716-6.62-.08-.31-.138-.686-.183-1.066.25-.21.47-.46.61-.78.46-1.01.13-2.18-.73-2.82.014-1.06.047-2.13.047-3.156 0-3.174.33-5.9.943-8.925.686-3.368 2.33-6.91 3.83-10.588.28-.69 1.394-2.01 2.775-3.325 1.38-1.317 2.95-2.66 4.15-4.227.272-.357 1.193-1 2.362-1.554 1.17-.556 2.522-1.05 3.736-1.65 1.44-.71 4.562-1.145 7.107-1.77 2.29-.563 5.466-.26 8.65-.26 1.78 0 3.23-.28 4.348-.396.28-.03.525-.05.764-.063zm392.18.993c1.456.21 2.084.23 3.69.504 3.853.65 7.605 1.336 8.94 1.554 1.262.21 2.45-.66 2.653-1.92.007-.05.01-.083.015-.135.11.015.255.02.35.045 2.096.514 3.866 1.42 5.964 2.654 1.64.963 3.85 2.62 4.606 3.612 1.46 1.91 2.83 3.385 3.72 5.14 1.17 2.294 2.44 3.722 2.78 5.035.53 2.08.76 3.89 1.328 6.117.796 3.123 1.236 5.69 1.236 8.815 0 3.222.335 6.426.335 9.382v10.326c0 4.035-.337 8.037-.337 12.294 0 2.848-.978 6.22-.978 10.02 0 2.893.1 5.648-.305 8.025-.303 1.78-.4 3.52-.413 5.217-1.952.506-3.934 1.128-4.41 1.128-6.923 0-13.232 2.014-19.905 2.014-5.32 0-13.8-1.106-21.92-1.848-2.7-.25-5.36-.473-7.87-.595 2.37-1.386 4.62-2.8 6.33-4.486.695-.66.9-1.69.53-2.58-.37-.885-1.25-1.446-2.21-1.416-.6.014-1.16.26-1.585.687-1.45 1.43-4.282 3.154-7.368 4.926-1.79 1.03-3.673 2.09-5.462 3.25-.388.07-.76.14-1.13.23.037-.254.096-.49.155-.72.65-2.552.076-5.024.076-6.407v-7.58c.21-.357.336-.76.332-1.208-.007-.48-.16-.93-.41-1.297-.1-1.983-.26-3.932-.26-5.75v-8.07c0-1.372-.12-2.66-.247-3.903 2.56-.31 5.636-.855 8.603-1.14 3.396-.33 6.63-.166 8.146.55 2.5 1.176 5.053 2.01 6.987 2.91 1.933.9 3.03 1.79 3.385 2.64.33.84 1.074 1.45 1.97 1.57.894.12 1.78-.267 2.32-.99.54-.726.66-1.68.29-2.503-1.134-2.69-3.535-4.122-5.875-5.214-2.34-1.09-4.844-1.915-6.956-2.91-2.42-1.14-5.163-1.333-7.947-1.205-.927.043-1.865.124-2.79.214-3.17.306-6.255.833-8.543 1.13-.006-.176 0-.347 0-.52 0-2.47-.06-5.364-.734-8.01-.075-.29-.14-.63-.185-.98.624-.492.96-1.277.87-2.072-.075-.678-.43-1.258-.975-1.634.01-1.057.03-2.12.03-3.144 0-3.172.313-5.897.93-8.923.686-3.367 2.332-6.91 3.83-10.587.28-.69 1.393-2.01 2.774-3.325 1.375-1.312 2.952-2.65 4.15-4.21 1.41-.02 3.122.263 4.94.84 2.716.86 5.54 2.287 7.993 3.692 1.233.765 2.412 1.533 3.416 2.27 1.41 1.04 2.27 1.62 2.837 1.97.144.087.255.168.444.26.097.045.2.106.49.18.145.04.315.095.764.06.45-.03 1.52-.4 1.952-1.34.43-.94.16-1.56.045-1.844-.115-.29-.205-.41-.273-.503-.14-.193-.206-.268-.273-.336-.134-.14-.233-.208-.35-.308-.937-.79-2.97-2.25-5.78-3.92-.267-.158-.607-.313-.885-.473-.9-.56-1.797-1.077-2.7-1.6 1.103.255 1.814.392 3.126.713 3.036.746 9.333 3.285 11.852 4.18.314.113.57.185.84.26.134.038.244.074.563.108.16.02.335.11.946-.074.305-.092.82-.29 1.235-.87.414-.578.473-1.427.366-1.89-.213-.927-.513-1.02-.656-1.16-.144-.14-.228-.202-.307-.26-.158-.115-.28-.18-.41-.258-.268-.16-.58-.337-1.01-.565-1.168-.62-4.62-2.326-7.688-3.843zm-455.517 9c.11.02.092.09.046.076-.01-.004-.08-.055-.09-.06.01 0 .04-.02.047-.016zm252.455.87c2.07-.05 4.917.53 7.716.53 2.155 0 4.49.127 6.346.58 2.924.72 5.173 1.524 8.24 2.275.44.11.805.2 1.143.306.027.05.06.104.09.154.416.647 1.127 1.046 1.892 1.067.094.137.19.29.29.49 1.32 2.595 3.788 4.244 5.294 5.354-.02-.015.67.855 1.113 1.89.44 1.037.803 2.226.99 2.96.418 1.64.97 2.81 1.327 3.783.358.98.565 1.767.565 3.087 0 3.1.836 6.87 1.373 9.5.34 1.693.09 7.07-.32 9.11-.86 4.22.21 7.974-.34 10.66-.76 3.724-.047 7.665-.047 10.495 0 2.776-.334 5.78-.334 9.045v.565c-.164.062-.313.143-.46.243-.59.385-.937.788-1.036.944.07-.016.045-.004-.016.06-.03.03-.024-.004.013-.06-.045.01-.068.02-.306.075-5.24 1.288-10.05 1.97-15.94 1.97-13.54 0-30.85-1.3-42.48-1.36v-1.72c.676-.197 1.362-.39 2.042-.58 3.454-.97 6.824-1.894 9.474-3.448.94-.538 1.383-1.65 1.07-2.687-.314-1.034-1.302-1.71-2.38-1.63-.364.026-.71.13-1.023.32-1.77 1.04-4.952 2.01-8.39 2.974-.26.072-.53.14-.792.214v-.09c0-2.283.337-4.68.337-7.43v-6.254c.784.604 1.715 1.12 2.82 1.464 2.53.784 6.545 1.94 10.04.807 2.55-.83 4.41-1.66 6.435-3.51.843-.77 1.304-1.627 1.83-2.607.526-.98 1.04-2.07 1.54-3.08.46-.934.906-1.79 1.3-2.41 1.262-.756 2.4-1.735 3.05-3.22.302-.66.24-1.44-.186-2.03-.426-.59-1.127-.9-1.847-.824-.73.08-1.368.545-1.65 1.222-.02.045-.065.09-.093.135-1.175.35-1.755 1.035-2.243 1.755-.155.075-.32.137-.49.214-1.605.717-3.705 1.382-5.766 2.317-1.165.523-4.386.67-7.644.38-2.787-.25-5.6-.69-7.78-.95.023-2.326.21-4.66.29-7.14.486-.153.91-.463 1.206-.898.48-.703.527-1.624.137-2.38-.275-.537-.744-.92-1.296-1.114v-5.825c0-2.65.05-4.35.82-6.24 1.13-2.772 1.67-5.267 2.794-7.108 1.783-2.917 2.43-4.224 4.577-6.33 1.66-1.632 3.688-2.494 6.316-3.784 2.183-1.07 5.67-1.267 9.077-2.104.39-.098.82-.128 1.3-.14zm51.266 3.31c2.07 0 3.2.627 4.256 1.66.944.926 1.72 2.267 2.458 3.68-.03.072-.03.064-.09.166-.312.526-.96 1.315-1.68 2.06-.71.744-1.5 1.463-2.16 1.983-.5.39-1.115.657-1.13.7-2.17.49-3.78.26-5.674-.3-1.96-.58-4.17-1.553-6.987-2.105-.5-.1-.865-.275-1.254-.43 1.285-1.294 2.435-2.696 3.74-3.903 2.16-2.002 4.494-3.507 8.525-3.507zM116.85 207.13c-.14.003-.29.02-.428.046-8.323 1.423-17.336.792-26.51.93-1.39.02-2.493 1.16-2.472 2.547.02 1.39 1.16 2.51 2.546 2.49 8.888-.136 18.156.524 27.29-1.04 1.278-.23 2.17-1.39 2.06-2.684-.112-1.3-1.19-2.29-2.487-2.29zm84.37 9.84c.616.284 1.262.542 1.937.762.033.09.085.178.153.304.048.09.087.195.167.305.08.11.32.34.32.34l.016.015c2.505 5.05 4.63 8.025 8.238 12.965 2.17 2.97 5.03 5.31 8.41 6.117 3.38.807 7.21-.262 10.19-3.326 3.187-3.27 6.61-6.58 9-8.694.76-.67 1.1-.913 1.57-1.28h.018c.483.017.94-.1 1.34-.334.358.25.764.534 1.236.9 1.54 1.196 3.58 2.91 5.737 4.7s4.438 3.67 6.59 5.216c2.15 1.546 4.043 2.794 6.116 3.325 1.47.38 2.61.64 3.905.49 1.296-.153 2.64-1.08 3.28-2.044 1.28-1.93 1.445-3.68 2.9-6.67 2.253-4.63 2.606-6.46 4.5-10.387l.487.013c-.077 1.14-.152 2.33-.152 3.6v20.06c0 1.374.214 9.174.474 16.762.13 3.794.265 7.437.395 10.052.054 1.12.112 1.997.166 2.685-.12-.01-.176-.013-.213-.013-.08-.004-.1 0-.124 0h-.09c-.04 0-.08-.004-.123 0-.09.003-.19.02-.338.03-.3.02-.723.042-1.237.075-1.03.066-2.424.153-3.904.243-2.96.18-6.362.366-7.506.366-5.26 0-10.353-.032-15.18-1.022-1.54-.315-3.11-.455-4.664-.486-.584-.013-1.16-.018-1.74 0-4.05.11-7.97.792-11.196.792H203.31c-1.625 0-2.884-.013-3.905-.276-.23-.057-.46-.08-.69-.075.033-.51.05-.92.093-1.558.157-2.33.386-5.41.595-8.496.208-3.088.407-6.18.565-8.512.077-1.165.136-2.142.182-2.836.022-.35.048-.63.06-.826l.015-.23c.004-.06 0 .13 0-.242 0-2.46-.335-4.145-.335-6.085.322-10.586-.468-15.53.274-25.717v-.2c0-.173-.013-.5-.016-.715.242 0 .48-.012.7-.012.488.005 1.097.266.367-.073zm2.333 1.234c.043.084.084.134.124.215-.108-.15-.123-.22-.123-.22zm280.54.474c-.316 0-.6.05-.825.107-.89.224-1.46.59-1.51.61-.35.136-.662.37-.885.673-.535.738-1.217 1.655-1.115 3.217.052.783.538 1.77 1.312 2.29.775.518 1.606.655 2.517.655.755 0 1.58-.184 2.243-.717.663-.532 1-1.317 1.098-1.937.198-1.237-.11-2.13-.29-2.837-.17-.68-.74-1.49-1.51-1.83-.386-.17-.722-.23-1.037-.23zm397.67 0c-.314 0-.6.05-.822.107-.89.224-1.44.59-1.49.61-.35.136-.66.37-.883.673-.533.738-1.214 1.655-1.113 3.217.05.783.54 1.77 1.31 2.29.775.518 1.62.655 2.534.655.753 0 1.56-.184 2.225-.717.664-.532 1-1.317 1.1-1.937.196-1.237-.126-2.13-.306-2.837-.17-.68-.725-1.49-1.495-1.83-.385-.17-.74-.23-1.053-.23zm-672.137.336c1.052.12 2.125.205 3.218.29 4.334.335 8.873.415 12.57.61 4.203.22 8.598.29 13.058.274-.645.492-1.323 1.084-2.15 1.815-2.557 2.26-6.008 5.63-9.26 8.97-2.013 2.067-3.647 2.35-5.445 1.92-1.8-.43-3.85-1.925-5.507-4.193-2.915-3.99-4.675-6.405-6.483-9.686zm58.743.564c1.01-.01 2 0 2.97 0-1.25 2.867-1.8 4.725-3.526 8.267-1.576 3.235-2.26 5.413-2.49 5.89-.205-.004-.733-.02-1.846-.305-.62-.16-2.46-1.136-4.424-2.547-1.963-1.41-4.182-3.233-6.315-5.003-2.13-1.77-4.17-3.495-5.857-4.805-.46-.36-.9-.682-1.313-.977 7.886-.153 15.728-.457 22.79-.52zm415.64 9.137c-.27 0-.5.045-.69.093-.76.19-1.25.502-1.297.518-.3.12-.56.32-.748.58-.458.633-1.065 1.41-.978 2.746.044.67.483 1.51 1.144 1.953.66.444 1.374.564 2.15.564.647 0 1.34-.16 1.91-.61.566-.46.86-1.14.945-1.67.17-1.057-.12-1.82-.276-2.425-.147-.576-.61-1.266-1.267-1.557-.33-.146-.63-.197-.9-.2zm-443.68 2.67c-.59-.04-1.39.123-2 .595-.61.474-.94 1.14-1.08 1.694-.438 1.74-.186 3.31.9 4.743.54.717 1.583 1.503 2.9 1.45 1.31-.057 2.28-.855 2.91-1.71.206-.283.36-.615.426-.96.42-2.098-.563-3.674-1.694-4.714-.565-.52-1.184-1.02-2.365-1.1zm307.99 3.265c-1.11.063-2.023.854-2.182 1.906-2.556 15.533-2.41 35.588-2.41 52.568 0 7.375-.15 14.776-.287 22.193-.06.055-.127.11-.183.17-.12.03-.105.045-.306.076-.84.128-2.235.203-3.722.23-2.97.055-6.35-.06-8.036-.06-6.933 0-14.313-1.45-21.965-1.45-4.9 0-9.83-.49-14.813-.49-2.037 0-3.976.984-4.973 2.38-.997 1.398-1.267 2.936-1.42 4.455-.3 3.037.027 6.32-.272 8.13-.5 3.032-.532 6.11-.52 9.06-.007.06-.026.123-.03.185-.05.718-.01 1.422.03 2.043v.714h.046c.01.16.014.322.014.457 0 .516.03.337-.01.504-.268.85-.048 1.78.58 2.41.625.63 1.546.86 2.393.6.85-.26 1.49-.97 1.65-1.844.145-.582.167-1.17.167-1.662 0-.456-.016-.936-.03-1.387v-.108c-.015-3.555-.076-7.11.44-10.237.475-2.882.076-6.13.305-8.436.114-1.153.4-1.974.625-2.288.225-.316.19-.383 1.007-.383 4.65 0 9.593.473 14.813.473 6.99 0 14.366 1.465 21.965 1.465 1.41 0 4.965.12 8.146.06 1.46-.027 2.81-.085 4.01-.243-.06 3.97-.12 7.932-.12 11.91 0 2.94-.46 5.44-.46 8.71 0 1.363.42 2.253.52 2.73.116.83.707 1.53 1.528 1.815.82.286 1.738.11 2.38-.456.64-.57.9-1.44.67-2.244-.22-1.05-.41-1.65-.41-1.844 0-2.823.456-5.336.456-8.71 0-12.92.475-25.91.475-38.93 0-17-.08-36.95 2.38-51.862.12-.674-.076-1.354-.55-1.86-.476-.51-1.18-.79-1.89-.75zm198.837 0c-1.11.063-2.01.854-2.167 1.906-2.56 15.533-2.44 35.588-2.44 52.568 0 7.375-.124 14.776-.26 22.193-.06.055-.127.11-.183.17-.12.03-.136.045-.337.076-.84.128-2.22.203-3.707.23-2.973.055-6.353-.06-8.038-.06-6.938 0-14.33-1.45-21.986-1.45-4.9 0-9.815-.49-14.8-.49-2.037 0-3.96.984-4.957 2.38-.996 1.398-1.284 2.936-1.434 4.455-.3 3.037.022 6.32-.277 8.13-.6 3.633-.52 7.35-.502 10.816v.016c-.023.224-.05.445-.06.672-.03.586-.03 1.194-.03 1.678 0 .67.13 1.003.166 1.022.182.837.81 1.515 1.632 1.77.846.263 1.766.034 2.393-.595.627-.63.847-1.564.58-2.41-.015-.057-.007-.035-.016-.076 0-.29.02-.59.03-.88h.09v-.93c.1-.39.096-.79 0-1.172v-.015c-.012-3.187-.004-6.345.458-9.152.474-2.88.075-6.13.304-8.434.114-1.152.4-1.973.625-2.287.225-.316.176-.383.99-.383 4.65 0 9.58.475 14.8.475 6.992 0 14.382 1.46 21.982 1.46 1.41 0 4.963.12 8.144.064 1.458-.03 2.826-.086 4.028-.245-.062 3.97-.122 7.933-.122 11.91 0 2.94-.457 5.44-.457 8.71 0 1.364.42 2.254.52 2.73.113.83.704 1.53 1.525 1.816.82.286 1.738.11 2.38-.456.643-.57.9-1.438.67-2.244-.22-1.05-.43-1.653-.43-1.846 0-2.824.475-5.338.475-8.71 0-12.92.473-25.91.473-38.93 0-17-.078-36.95 2.38-51.864.122-.672-.105-1.352-.58-1.86-.476-.51-1.163-.79-1.876-.75zm198.85 0c-1.11.063-2.023.854-2.18 1.906-2.56 15.533-2.426 35.588-2.426 52.568 0 7.375-.155 14.776-.29 22.193-.06.055-.11.11-.166.17-.12.03-.12.045-.323.076-.837.128-2.22.203-3.705.23-2.975.055-6.357-.06-8.04-.06-6.935 0-14.33-1.45-21.98-1.45-4.904 0-9.83-.49-14.815-.49-2.037 0-3.944.984-4.94 2.38-.997 1.398-1.283 2.936-1.435 4.455-.3 3.037.024 6.32-.274 8.13-.6 3.638-.536 7.36-.52 10.83v1.178h.018c-.006.12 0 .196-.015.334-.066.62-.195 1.42-.046 2.41 0 .024-.003.08-.03.184-.254.843-.026 1.774.596 2.396.62.622 1.537.85 2.38.594.842-.254 1.473-.952 1.647-1.815.107-.44.29-1.14.135-2.06-.01-.08-.005-.58.06-1.19.064-.58.207-1.22.05-2.18-.016-3.46-.046-6.91.455-9.95.476-2.88.078-6.13.306-8.44.115-1.153.4-1.974.626-2.288.224-.315.175-.382.992-.382 4.648 0 9.592.475 14.812.475 6.99 0 14.38 1.462 21.98 1.462 1.41 0 4.964.12 8.144.06 1.458-.028 2.812-.086 4.013-.244-.063 3.97-.108 7.932-.108 11.91 0 2.94-.49 6.065-.49 9.336 0 1.363.434 2.253.534 2.73.11.827.685 1.53 1.51 1.814.82.284 1.75.11 2.392-.46.642-.567.902-1.436.67-2.242-.22-1.05-.427-1.65-.427-1.844 0-2.82.473-5.96.473-9.336 0-12.917.473-25.906.473-38.927 0-17-.09-36.95 2.366-51.864.12-.673-.074-1.354-.55-1.86-.476-.51-1.163-.79-1.876-.75zm-705.178.458c.3-.013.555.083.746.183-.1.17-.12.3-.32.46-.1.08-.213.1-.323.15l-.794-.58c-.06.04-.07.06-.016-.01l.012.016c.09-.062.307-.196.687-.212zm249.752 7.977c-.215.448-.423.906-.625 1.298-.545 1.06-1.13 1.88-1.19 1.937-1.944 1.85-3.036 2.29-5.96 3.28-.324.11-3.41.192-6.226-.214-2.59-.372-5.215-.964-6.513-1.342-.074-1.497-.24-2.907-.383-4.27 2.264.297 5.265.817 8.33 1.113 3.704.36 7.51.516 10.736-1.006.588-.27 1.196-.53 1.83-.79zm-249.235 2.41c-.134-.004-.26.01-.395.015-.176.01-.346.02-.518.046-.685.106-1.335.353-1.937.704-.603.35-1.254.832-1.633 1.845-.378 1.01.035 2.52.748 3.233l.824.823c.604.61 1.13 1.06 1.843 1.41.714.346 2.005.594 3.05-.106 1.044-.7 1.244-1.683 1.31-2.304.02-.16-.03-.266-.03-.413.603-.456.955-1.166.946-1.92-.007-.75-.37-1.48-.975-1.923.05-.023-.43-.835-1.966-1.22-.438-.11-.86-.17-1.268-.184zm448.38 3.524c-.17.34-.33.69-.49.99-.45.84-.94 1.46-.99 1.51-1.61 1.47-2.52 1.83-4.942 2.62-1.388.45-5.385-.14-7.55-.81-1.996-.62-2.786-1.787-3.737-3.71 1.86.25 4.14.586 6.45.795 3.47.312 6.9.52 9.66-.733.51-.23 1.05-.455 1.603-.67zm-43.703 2.62c.11.02.093.08.046.06l-.09-.047c.006 0 .04-.018.045-.016zm195.236 16.67c.05-.01.066.03.033.043-.012.004-.107.024-.123.03.007-.004.023-.042.03-.046.025-.013.044-.025.06-.03zM221.414 277.9h.076c.005.04.007.074-.03.214-.015-.077-.032-.14-.047-.216zm405.224.52c-4.165 0-7.53 2.213-9.9 4.088-.92.727-1.543 1.308-2.138 1.83-1.437-1.367-2.96-2.237-4.53-2.623-2.083-.515-4.055-.146-5.75.425-3.39 1.143-6.097 2.853-8.313 2.853-1.285 0-2.337 1.02-2.337 2.3 0 1.28 1.052 2.335 2.334 2.335 4.142 0 7.29-2.254 9.79-3.096 1.25-.423 2.233-.553 3.173-.32.94.23 2.035.844 3.43 2.56.57.695 1.72.973 2.306.885.583-.09.87-.27 1.112-.41.486-.288.787-.555 1.16-.87.746-.64 1.62-1.44 2.64-2.245 2.04-1.612 4.573-3.082 7.016-3.082 2.844 0 6.467 3.63 9.596 6.09.646.557 1.537.715 2.334.41.797-.304 1.356-1.03 1.463-1.875.108-.848-.236-1.686-.93-2.183-2.372-1.86-6.513-7.077-12.463-7.077zm166.725.884c-1.226.124-2.153 1.192-2.09 2.423.064 1.232 1.085 2.212 2.32 2.212 4.146 0 11.915 1.56 19.875 3.188 7.96 1.63 16.18 3.33 22.24 3.404 1.28.017 2.32-1.023 2.337-2.303.015-1.28-.994-2.316-2.274-2.332-5.215-.068-13.41-1.67-21.355-3.298-7.95-1.63-15.612-3.296-20.822-3.296-.08-.006-.15-.006-.23 0zm-341.095.487c-.01.012-.032.046-.12.044.017-.004.11-.044.122-.045zm279.364 0c.05 1.172.143 2.362.32 3.582.28 1.923.32 3.932.32 6.133 0 .48.05.736.108 1.25.06.513.117 1.15.215 1.89.193 1.484.46 3.365.716 5.25.218 1.58.407 3.084.58 4.453-.78.684-3.79 1.677-6.94 1.724-3.22.05-6.592-.79-7.78-1.66-1.713-1.262-3.665-1.76-5.29-1.33-1.627.437-2.62 1.39-3.433 2.11-.81.714-1.447 1.232-1.983 1.433-.54.2-1.048.31-2.29-.214-2.39-1.005-3.587-1.738-4.073-2.105-.243-.18-.29-.276-.26-.24-.03-.073-.024-.084-.18-.29-.26-.338-1.31-1.016-2.17-.9-.86.115-1.064.415-1.19.517-.124.107-.15.14-.17.156-.06.06.035-.03-.06.03-.185.125-.912.55-2.73 1.146-.836.273-1.396.503-1.71.564-1.554.304-4.015-.245-6.022-1.04-1.008-.396-1.898-.83-2.567-1.16-.333-.162-.6-.307-.853-.426-.128-.06-.237-.097-.443-.17-.105-.035-.21-.096-.505-.137-.148-.02-.343-.043-.7.014-.336.054-.923.22-1.39.747.03-.046-.13.116-.38.26-.335.196-.83.444-1.42.69-1.18.49-2.72.982-4.15 1.266-1.427.284-2.79.317-3.37.182-.153-.036-.105-.014-.138-.03-.08-.807-.576-1.48-1.25-1.83.158-1.61.318-3.418.488-5.37.396-4.557.778-8.98.778-10.648 0-1.646-.11-3.295-.21-4.88 11.298.066 28.584 1.34 42.36 1.34 6.25 0 11.515-.734 17.04-2.09.255-.062.496-.127.73-.212zm-78.268.44c-.01.014-.034.048-.123.045.018-.005.11-.045.12-.046zM424.462 284c-10.985 0-21.813.96-32.552.946-1.28 0-2.333 1.025-2.333 2.305s1.05 2.335 2.33 2.335c11.015.01 21.84-.95 32.553-.95 2.037 0 3.672.04 5.185.414 1.244.31 2.5-.465 2.81-1.708.31-1.244-.45-2.483-1.696-2.792-2.186-.534-4.24-.546-6.3-.546zm110.82.03v.047c0 3.26.54 6.926.062 8.8-.152.595-.132.835-.153 1.282-.02.447-.03.992-.03 1.586-.008 1.19.02 2.636.06 4.09.042 1.45.1 2.89.17 4.07 0 .057-.006.087 0 .14-1.676.173-2.915.55-4.046.55-5.666 0-11.79-.96-18.106-.96h-26.01c-5.377 0-12.29.265-16.78.303-.04-1.235-.09-2.967-.14-4.88-.1-3.995-.2-8.617-.2-9.49v-4.18c3.198-1.09 10.69-.984 18.46-.275 7.985.73 16.39 1.875 22.33 1.875 7.554 0 13.97-2.027 19.924-2.027 1.67 0 3.163-.503 4.454-.93zm397.688 0v.047c0 3.26.555 6.926.077 8.8-.15.595-.13.835-.156 1.282-.02.447-.04.992-.043 1.586-.007 1.19.02 2.636.06 4.09.042 1.45.113 2.89.183 4.07.002.057-.004.087 0 .14-1.68.172-2.926.55-4.058.55-5.668 0-11.806-.96-18.123-.96H884.9c-5.38 0-12.275.265-16.764.303-.04-1.235-.09-2.967-.14-4.88-.1-3.995-.2-8.617-.2-9.49v-2.61c.18-.144.37-.272.55-.426.683-.58 1.468-1.16 2.304-1.728 3.82-.436 9.623-.24 15.59.305 7.985.73 16.408 1.876 22.347 1.876 7.552 0 13.953-2.028 19.906-2.028 1.674 0 3.18-.504 4.47-.93zm-473.027 5.157c-.21-.005-.42.01-.625.06-2.515.617-5.137.885-8.07.885-10.992 0-21.45 1.402-32.063 1.402-11.387 0-22.87-.444-34.46-.444-7.564 0-17.988-.905-24.588-.486-1.296.082-2.27 1.17-2.186 2.44.087 1.267 1.198 2.233 2.488 2.15 5.828-.37 16.368.473 24.287.473 8.78 0 17.563.27 26.373.396-.02 4.574-.457 12.734-.457 18.948v12.48c-.187.194-.45.44-.825.764-.887.762-2.157 1.726-3.463 2.7-1.304.973-3.362 4.465-4.44 5.246-.34.247-.603.45-.883.655-.96-.123-1.89.337-2.35 1.174-.46.834-.358 1.87.274 2.59.027.034.025.06.077.135.106.156.205.404.838.792.318.195.865.426 1.51.367.617-.06 1.145-.36 1.45-.64-.012.005.004-.008.045-.05.08-.063.277-.206.488-.365.34-.253.797-.59 1.33-.976 1.07-.773 3.16-4.274 4.5-5.277 1.03-.764 2.03-1.533 2.917-2.258.68.66 1.452 1.14 2.242 1.63 2.24 1.402 5.195 4.263 5.75 4.942.435.536.894 1.164 1.4 1.83.5.67 1.347 1.025 2.185.93.837-.095 1.548-.64 1.876-1.404.327-.764.195-1.634-.32-2.29-.45-.588-.92-1.25-1.48-1.937-1.844-2.262-5.004-4.756-6.91-5.95-.723-.45-1.026-.742-1.28-.974.357-.724.29-1.567-.154-2.243-.037-.054-.08-.115-.123-.166v-11.71c0-5.976.465-14.04.488-18.9 1.14.01 2.266.017 3.404.017 11.027 0 21.486-1.404 32.063-1.404 3.21 0 6.24-.264 9.2-.99 1.158-.26 1.946-1.36 1.815-2.517-.13-1.16-1.13-2.024-2.32-2.03zm198.837 0c-.212-.005-.42.01-.625.06-2.515.617-5.123.885-8.054.885-10.99 0-21.463 1.402-32.08 1.402-11.383 0-22.87-.444-34.46-.444-7.56 0-17.985-.905-24.59-.486-1.29.082-2.25 1.17-2.16 2.44.084 1.267 1.194 2.233 2.485 2.15 5.824-.37 16.35.473 24.27.473 8.778 0 17.578.27 26.39.396-.023 4.574-.49 12.734-.49 18.948v12.48c-.186.194-.433.44-.808.764-.888.762-2.158 1.726-3.463 2.7-1.307.973-2.663 3.2-3.74 3.98-.34.247-.59.45-.87.656-.96-.123-1.887.352-2.347 1.19-.46.836-.357 1.87.274 2.592.027.034.04.06.09.135.107.158.19.406.825.795.317.194.88.425 1.526.366.616-.055 1.145-.36 1.45-.64l.045-.044c.08-.063.26-.22.473-.38.333-.252.79-.59 1.322-.976 1.066-.776 2.423-3.01 3.77-4.014 1.024-.762 2.042-1.53 2.93-2.256.68.66 1.45 1.14 2.24 1.632 2.24 1.402 5.74 3.348 4.867 3.34-.1 0 .896 1.15 1.404 1.815.498.67 1.33 1.026 2.168.93.837-.094 1.548-.624 1.876-1.387.328-.763.226-1.648-.29-2.303-.45-.59-.935-1.25-1.494-1.94-1.843-2.264-4.103-3.14-6.01-4.333-.72-.452-1.026-.744-1.28-.976.36-.72.292-1.564-.155-2.24-.037-.054-.08-.115-.123-.166v-11.71c0-5.976.436-14.04.458-18.9 1.138.01 2.28.016 3.418.016 11.03 0 21.505-1.403 32.08-1.403 3.21.003 6.24-.262 9.2-.99 1.158-.26 1.915-1.357 1.785-2.516-.13-1.16-1.116-2.024-2.303-2.03" fill="#fff"/></g></svg>