<svg viewBox="0 0 948 342" xmlns="http://www.w3.org/2000/svg"><g fill-rule="evenodd"><path d="M110.457 66.238c-23.36.117-46.685 1.68-70.05 1.212-5.353-.027-15.382-1.626-14.21 6.58-.508 27.217-1.793 54.418-1.99 81.64-.744 11.202-.553 43.02 6.464 52.663 9.83 14.492 25.29 6.41 43.73 6.345 20.63.09 40-7.826 59.75-12.514 7.7-2.612 7.17-12.252 8.16-18.726 1.55-20.13-.55-40.288-.66-60.415.77-16.89 5.2-33.986 1.38-50.8-3.69-6.385-12.68-4.943-19.06-5.768-4.49-.183-8.99-.226-13.49-.217" fill="#c7e660"/><path d="M503.83 18.185c-15.516 24.17-2.51 42.83 31.21 42.06 4.92-.88 8.73-3.666 11.39-7.2 2.66-3.53 4.304-7.837 5.254-12.287 1.9-8.902 1.206-18.268-1.837-23.902-3.78-6.998-12.032-9.895-20.004-10.063-7.973-.17-16.03 2.072-21.08 6.153-1.97 1.59-3.598 3.363-4.933 5.24" fill="#faeb7d"/><path d="M658.055 290.715c-30.045 17.994-4.863 31.885 60.437 31.313 9.522-.657 16.903-2.73 22.052-5.36 5.15-2.63 8.335-5.835 10.174-9.15 3.677-6.625 2.336-13.598-3.556-17.793-7.318-5.21-23.298-7.365-38.737-7.49-15.438-.127-31.038 1.54-40.818 4.58-3.813 1.184-6.967 2.503-9.552 3.9" fill="#ffbfa7"/><path d="M670.57 8.904c-23.237 18.876-3.762 33.447 46.744 32.85 7.365-.69 13.074-2.865 17.056-5.624 3.983-2.76 6.446-6.122 7.87-9.597 2.843-6.952 1.805-14.267-2.752-18.667-5.66-5.465-18.02-7.727-29.96-7.86-11.94-.13-24.007 1.62-31.57 4.807-2.95 1.242-5.388 2.626-7.388 4.09" fill="#be9f81"/><path d="M898.295 94.985c34.812 21.522 5.635 38.135-70.027 37.452-11.033-.787-19.584-3.265-25.552-6.41-5.966-3.145-9.657-6.982-11.787-10.943-4.26-7.926-2.71-16.266 4.12-21.282 8.48-6.232 26.99-8.81 44.88-8.962 17.88-.15 35.96 1.847 47.29 5.48 4.41 1.417 8.07 2.994 11.06 4.665M508.76 251.22c-18.347 25.935-2.97 45.955 36.904 45.13 5.815-.945 10.322-3.934 13.466-7.722 3.145-3.79 5.09-8.413 6.213-13.186 2.245-9.55 1.426-19.6-2.173-25.647-4.467-7.507-14.226-10.615-23.654-10.796-9.427-.19-18.953 2.22-24.925 6.6-2.32 1.7-4.25 3.6-5.83 5.62" fill="#c0cae0"/><path d="M696.577 1.045c-1.717.002-3.3.803-4.882 2.12-1.36 1.135-2.33 2.474-3.066 3.83-.74-1.016-1.54-1.936-2.49-2.595-1.46-1-3.41-1.603-5.28-.838-1.48.605-2.46 1.93-3.04 3.555-2.37-1.357-5.06-1.414-6.96-.2-2.13 1.363-3.28 3.622-3.74 5.996-.46 2.374-.21 5.02 1.31 7.2.99 1.42 2.56 2.484 4.5 2.974-.15.138-.27.257-.41.397-1.49 1.414-3.05 2.885-3.89 4.943-1.44 3.513-3.22 7.267-4.06 11.393-.67 3.252-1.06 6.345-1.06 9.84 0 .657-.03 1.408-.06 2.197-.21-.014-.4-.034-.61-.047-1.88-.113-3.94-.168-5.42-.213-.078-.004-.14-.004-.216 0-1.28.025-2.315 1.068-2.29 2.348.025 1.282 1.1 2.314 2.38 2.29 1.502.045 3.51.09 5.262.198.34.02.66.052.974.076.078.71.203 1.43.38 2.13.48 1.87.597 4.5.597 6.86 0 3.56.655 6.53.655 9.36v8.08c0 2.9.32 5.67.32 8.08v3.75c-2.57-.87-4.735-1.1-6.802-1.287-2.135-.19-4.215-.35-7.15-1.14-3.163-.855-5.91-.985-7.705-1.47-.23-.065-.467-.096-.7-.09-.24.01-.47.05-.69.123-.757-.87-1.673-1.555-2.67-2.27-1.24-.89-2.593-1.75-3.72-2.47-.51-.327-.61-.42-.993-.688-.04-1.12-.935-2.026-2.06-2.076-.32-.02-.61-.024-1.002.045-.392.07-1.062.18-1.646 1.01-.585.822-.37 1.95-.14 2.41.23.46.44.653.64.85.78.76 1.67 1.306 2.76 2-.27-.06-.65-.17-.88-.212-.655-.13-1.04-.2-1.66-.188-.158.005-.326-.015-.61.062-.29.074-.798.21-1.27.882-.47.676-.4 1.73-.2 2.185.208.45.41.615.55.747.568.533.81.582 1.21.78.4.195.85.383 1.353.593 1.176.49 2.45.98 3.66 1.39-.634.32-1.11.52-1.69.9-.92.61-1.42 1.01-1.59 1.11-.16.11-.06.1-.65.17-.8.05-1.51.54-1.83 1.27-.33.73-.22 1.59.27 2.21.496.63 1.3.948 2.09.8.9-.112 1.77-.394 2.394-.78.626-.384.94-.69 1.697-1.19.52-.346 2.574-1.197 4.085-2.18.38-.245.738-.51 1.116-.93.35-.39.823-1.08.76-2.044l.21.06c2.576.69 5.137.77 7.7 1.46 3.32.89 5.84 1.105 7.95 1.297 2.11.19 3.78.368 5.95 1.13.42.167.855.19 1.28.11.044 1.95.256 3.904.06 4.665-.56 2.196-.4 4.218-.394 5.965-1.394.946-2.83 1.84-4.15 2.96-.07.053-.14.12-.2.18-.363-.94-1.11-1.354-1.6-1.556-.52-.21-.954-.277-1.402-.336-1.794-.234-4.034-.134-4.682-.23-.91-.13-1.35-.27-2.073-.35-.726-.08-1.61.04-2.47.32-1.133.37-1.755 1.586-1.39 2.72.2.62.65 1.075 1.206 1.31-10.07.185-19.75 1.39-29.542 1.39-4.66 0-9.352-.094-14.05-.185l-1.706.076-.88-.125c-5.914-.12-11.847-.244-17.816-.244-7.562 0-17.97-.89-24.572-.472-1.29.08-2.27 1.17-2.18 2.44.08 1.264 1.18 2.23 2.47 2.15 5.82-.37 16.36.47 24.28.47 8.78 0 17.56.285 26.37.412-.02 4.57-.453 12.7-.453 18.915v12.48c-.188.195-.45.44-.826.765-.885.765-2.155 1.744-3.46 2.718-1.305.978-3.042 2.84-4.12 3.62-.34.25-.604.437-.884.64-.96-.12-1.905.354-2.365 1.19-.46.84-.34 1.874.29 2.596.03.036.04.06.095.137.105.156.204.404.84.79.314.197.863.427 1.51.37.614-.056 1.143-.36 1.446-.64-.01.006.003-.006.045-.046.076-.06.26-.22.47-.38.337-.25.794-.59 1.327-.97 1.063-.775 2.833-2.613 4.18-3.616 1.022-.765 2.024-1.53 2.91-2.257.68.66 1.452 1.124 2.24 1.618 2.243 1.4 4.27 2.55 4.82 3.23.44.54.897 1.166 1.404 1.83.496.67 1.33 1.03 2.164.93.84-.09 1.55-.62 1.88-1.387.33-.762.21-1.632-.304-2.287-.45-.59-.92-1.25-1.48-1.94-1.845-2.26-4.06-3.08-5.966-4.27-.72-.45-1.04-.73-1.294-.96.36-.727.29-1.586-.155-2.26-.034-.057-.063-.1-.104-.15v-11.73c0-5.98.45-14.016.474-18.87 1.133.004 2.26.012 3.4.012 10.904 0 21.28-1.39 31.74-1.42-.15.193-.304.426-.484.9-.07.185-.154.41-.135.915.02.504.43 1.46 1.13 1.846.7.388 1.208.297 1.497.244.29-.05.455-.12.596-.18.57-.25.868-.478 1.406-.87.227-.17.576-.468.84-.675-.7 1.135-1.28 1.997-1.664 3.055-.093.267-.21.53-.21 1.053-.006.52.34 1.63 1.203 2.104.87.472 1.51.29 1.89.18.39-.106.65-.23.935-.383 1.01-.526 1.44-1.75.975-2.79.22-.39.263-.506.565-.992.7-1.124 1.53-2.455 2.26-3.783.57-1.053 1.09-2.06 1.39-3.16.44-.06.88-.24 1.23-.55.32-.27.7-.55 1.113-.84-.034.64-.088 1.59-.183 2.85-.14 1.784-.32 3.96-.504 6.01-.18 2.047-.353 3.986-.49 5.246-.044.4-.06.557-.09.795v.018l-.02.03c-.002.025 0 .03 0 .05-.084.244-.132.5-.135.76 0 .1 0 .17.02.35.01.096-.01.2.12.58.03.1.056.21.15.38.096.175.594.675.595.675l1.56.503s1.065-.295 1.325-.503c.3-.24.48-.42.6-.562.52.3 1.095.474 1.63.594.1.025.188.044.29.06-.573.68-1.19 1.425-1.862 2.336-2.03 2.75-4.16 6.644-4.16 11.62 0 2.22.003 5.62.073 8.62.036 1.5.086 2.893.154 4.01.03.56.07 1.06.12 1.48.05.43.01.655.29 1.343.44 1.2 1.756 1.8 2.96 1.353 1.202-.44 1.83-1.76 1.39-2.96.005.013-.028-.107-.05-.29-.03-.285-.06-.697-.09-1.206-.06-1.02-.12-2.375-.15-3.843-.07-2.94-.06-6.32-.06-8.513 0-3.66 1.535-6.535 3.262-8.878.867-1.17 1.75-2.18 2.52-3.098.63-.753 1.27-1.264 1.63-2.38 1.507-.344 2.97-.824 4.227-1.33.75-.3 1.43-.61 2.03-.943l.13-.077c.182.085.42.205.64.303-1.65 1.11-2.96 2.735-3.95 4.47-1.71 3-2.698 6.53-3.16 9.705-.16 1.093-.31 2.194-.47 3.292-.55 3.78-.878 8.56.044 12.185.17.84.788 1.507 1.607 1.753.82.244 1.7.023 2.303-.58.6-.608.83-1.488.58-2.306-.575-2.25-.435-6.998.06-10.39.16-1.1.33-2.2.49-3.297.39-2.71 1.29-5.82 2.575-8.08 1.29-2.26 2.73-3.466 4.364-3.57.76-.02 1.43-.426 1.845-1.05 1.49.28 3.086.366 4.7.06 1.06-.2 1.8-.56 2.3-.72 1.25-.39 2.083-.72 2.76-1.033.993.71 2.513 1.51 5.14 2.58 2.125.865 4.17.886 5.766.307 1.6-.58 2.674-1.574 3.495-2.273.82-.7 1.38-1.054 1.616-1.114.23-.06.43-.173 1.49.58 2.86 2.027 6.86 2.59 10.83 2.534 3.36-.05 6.65-.474 9.14-2.075.06.34.13.67.2.94.186.82.79 1.47 1.6 1.706.81.234 1.69.016 2.29-.58.598-.597.827-1.48.59-2.29.02.057-.212-1.01-.41-2.227-.192-1.216-.424-2.77-.64-4.3-.21-1.53-.4-3.04-.52-4.226-.06-.59-.102-1.114-.12-1.464-.01-.17.008-.352.017-.422.81-3.51.015-7.24.015-9.706 0-3.34-.176-6.493.3-9.32.52-3.05.35-6.02.35-8.77 0-2.89.997-6.25.997-10.02 0-4.01.326-8.012.326-12.293-.004-3.45 0-6.893 0-10.34-.004-3.28-.324-6.49-.324-9.38 0-3.59-.547-6.637-1.39-9.948-.48-1.89-.705-3.753-1.314-6.144-.71-2.794-2.38-4.48-3.14-5.98-1.26-2.478-2.92-4.186-4.18-5.844-.85-1.107-1.938-2.064-3.05-2.897.19-.36.36-.705.58-1.1.77-1.37 1.62-2.9 2.19-4.53.574-1.622 1.016-3.65-.183-5.52-1.2-1.865-3.48-2.514-6.196-2.514-3.244 0-5.732 1.392-7.61 3.093-.076-.31-.12-.63-.213-.918-.8-2.39-2.49-4.084-4.35-4.806-1.856-.72-3.756-.59-5.34 0-1.58.59-3.074 1.63-3.57 3.6-.215.87-.33 1.115-.52 1.816-.48-1.574-1.095-3.18-2.284-4.575-.915-1.08-2.414-2.03-4.13-2.03zm.015 4.774c.145 0 .162-.04.488.35.65.76 1.475 3.09 2.028 5.18.122.46.25.89.366 1.32-2.314-.09-4.92-.16-7.505.47-.18.04-.38.06-.57.1.04-.22.1-.44.17-.69.47-1.92 1.48-4.34 3.17-5.75 1.08-.9 1.7-1.008 1.84-1.01zm13.133.71c.34-.01.685.02.976.13.59.22 1.12.62 1.54 1.89.33.96.51 2.46.29 4.61-.92-.03-1.66-.11-2.04-.26-.89-.35-1.75-.52-2.58-.58-.43-.04-.85-.04-1.25-.03.42-1.3.9-2.97 1.45-5.17.03.02.22-.27.66-.43.29-.11.62-.16.96-.17zM682.68 7.97c.06.005.29.052.748.367 1.156.796 2.75 3.23 2.912 6.01-.82.237-1.635.52-2.41.9-.397.195-.912.41-1.495.656.398-1.138.225-2.173-.167-3.463-.092-.3-.322-.622-.458-.93.084-.667.128-1.23.305-2.12.266-1.332.62-1.442.565-1.42zm41.918 1.663c1.625 0 2.077.292 2.15.336.002-.05-.002-.05.016-.02.01.02 0 .02-.015.01-.01.12 0 .55-.28 1.34-.37 1.04-1.1 2.43-1.86 3.78-.17.29-.33.57-.49.85-1.77-.99-3.61-1.85-5.75-2.41l.12-.2c1.33-1.96 3.18-3.71 6.1-3.71zm-50.506.976c.077-.02.157-.01.243 0 .346.03.794.25 1.495.77.47.35.733.69 1.008 1.02-.09 1.11-.066 2.02.045 2.79.11.76.047 1.49 1.206 2.41.1.08.23.15.36.21-.47.28-.92.6-1.35.99-.36-.17-.75-.27-1.18-.23-2.23.18-3.02-.4-3.59-1.21-.57-.81-.8-2.2-.54-3.56.26-1.36 1.013-2.51 1.615-2.9.227-.15.424-.28.655-.32zM507 12.3c-.387.01-.745.04-1.098.076-1.418.144-2.628.365-3.875.365-2.788 0-6.288-.45-9.763.4-2.006.49-5.295.76-8.04 2.11-.852.42-2.255.95-3.675 1.62-1.42.68-2.93 1.45-4.06 2.93-.72.93-2.18 2.28-3.66 3.69-1.49 1.42-3.06 2.87-3.89 4.93-1.43 3.52-3.22 7.29-4.06 11.41-.66 3.26-1.06 6.35-1.06 9.84 0 .66-.04 1.41-.06 2.2-.21-.01-.4-.03-.61-.04-1.88-.11-3.94-.18-5.42-.22-.08-.007-.14-.007-.22 0-1.28.022-2.32 1.08-2.29 2.36.02 1.282 1.1 2.3 2.38 2.274 1.5.046 3.51.107 5.26.215.35.02.66.05.97.074.074.712.2 1.43.38 2.132.48 1.87.58 4.48.58 6.85 0 3.56.67 6.54.67 9.38v8.08c0 1.67.09 3.286.182 4.82-.26-.07-.515-.09-.79-.06-2.85.135-5.026.768-7.08 1.39-2.055.626-4.045 1.236-7.06 1.605-3.25.4-5.858 1.33-7.706 1.558-.49.03-.947.206-1.31.504-1.018-.51-2.11-.8-3.28-1.085-1.488-.36-3.06-.636-4.38-.883-.587-.11-.708-.142-1.16-.245-.366-.837-1.225-1.365-2.136-1.297-.197.01-.38.05-.57.12-.31.1-.59.23-.93.44-.34.21-.914.54-1.146 1.52-.23.987.375 1.968.763 2.307.385.34.668.445.93.55.996.41 2.035.58 3.29.81-.26.044-.653.095-.88.14-.66.125-1.05.192-1.62.44-.142.06-.3.13-.534.305-.236.18-.67.5-.853 1.3-.04.18-.042.36-.03.54-5.136-5.95-10.892-12.095-13.452-16.856-.41-.8-1.237-1.3-2.136-1.3-.846.004-1.62.446-2.046 1.176-.427.73-.44 1.64-.03 2.38 3.87 7.197 12.08 15.05 17.48 21.8 2.97 3.71 5.544 6.96 9.03 10.45.04.04.08.086.122.12-6.38.406-12.657.917-18.994.917-8.213 0-16.48-.248-24.8-.38 1.755-.215 3.63-.428 4.346-.428h17.235c.86.01 1.656-.43 2.09-1.175.433-.745.433-1.68 0-2.427-.434-.746-1.23-1.19-2.09-1.178H398.7c-1.1 0-2.46.15-3.813.32-.447-.514-1.09-.8-1.77-.81-.66 0-1.284.27-1.74.75-.36.04-.813.115-1.48.38-.204.084-.372.16-.61.29-.116.07-.26.146-.456.306-.19.16-.5.36-.76 1.117-.25.75.15 2.11.67 2.577.1.08.17.14.25.2-1.43-.015-2.85-.02-4.29-.02-7.56 0-17.99-.892-24.59-.474-1.29.086-2.26 1.175-2.18 2.44.09 1.27 1.2 2.237 2.49 2.15 5.83-.37 16.37.477 24.29.477 8.78 0 17.567.286 26.377.41-.02 4.575-.46 12.705-.46 18.92v12.475c-.186.193-.45.44-.824.762-.882.76-2.152 1.74-3.46 2.71-1.303.972-3.36 4.465-4.44 5.246-.34.246-.602.434-.882.64-.96-.12-1.89.353-2.35 1.19-.46.84-.355 1.857.277 2.58.022.034.02.075.072.15.104.16.203.405.84.794.314.197.86.428 1.51.37.612-.056 1.14-.375 1.45-.656-.016.01 0-.003.04-.043.08-.062.274-.21.49-.363.333-.25.79-.573 1.323-.96 1.065-.773 3.154-4.274 4.5-5.28 1.024-.762 2.03-1.515 2.913-2.24.68.66 1.45 1.11 2.246 1.6 2.24 1.405 5.2 4.28 5.75 4.96.44.538.896 1.15 1.403 1.815.496.67 1.344 1.04 2.18.95.84-.094 1.55-.624 1.878-1.387.33-.766.2-1.65-.32-2.306-.45-.59-.92-1.25-1.48-1.94-1.84-2.267-5-4.776-6.91-5.968-.72-.45-1.023-.73-1.28-.96.36-.725.295-1.58-.15-2.26-.035-.055-.08-.116-.12-.17v-11.71c0-5.977.464-14.01.487-18.87 1.138.01 2.266.017 3.4.017 9.72 0 19.008-1.1 28.315-1.36.18.44.497.88.96 1.15.868.49 1.51.31 1.89.21.39-.1.66-.235.95-.38.467-.236.8-.61.996-1.05 2.837-.06 5.518-.348 8.16-.998 1.16-.26 1.95-1.34 1.82-2.5-.133-1.16-1.13-2.026-2.32-2.03-.21-.004-.42.024-.626.076-1.65.404-3.355.653-5.154.775.364-.58.74-1.18 1.08-1.78.59-1.026 1.123-2 1.45-3.066.47-.07.926-.27 1.283-.61 1.43-1.17 3.91-2.42 6.43-4.49.46-.38.97-.755 1.51-1.13-.01.076-.02.155-.03.215-.57 2.24-.4 4.3-.4 6.07v4.853c0 1.174.08 5.59.18 9.592.05 2 .1 3.86.14 5.11.02.623.047 1.093.06 1.37.004.07-.004.12 0 .182 0 .03.01.075.015.135.003.03.003.06.014.14.004.04.01.076.03.17.02.094.26.625.26.625l1.554.218c.66.497 1.415.775 2.12.93.146.037.28.055.43.08-.575.673-1.196 1.414-1.864 2.32-2.028 2.75-4.16 6.645-4.16 11.62 0 2.22.004 5.62.074 8.62.04 1.5.09 2.898.15 4.017.04.56.08 1.04.128 1.463.047.425.024.653.305 1.34.44 1.205 1.75 1.816 2.96 1.375 1.2-.44 1.83-1.756 1.39-2.96.01.016-.03-.104-.05-.29-.03-.282-.06-.694-.09-1.203-.06-1.02-.12-2.375-.15-3.843-.068-2.94-.076-6.32-.076-8.516 0-3.66 1.534-6.535 3.262-8.878.86-1.17 1.76-2.18 2.53-3.1.64-.763 1.28-1.293 1.63-2.44 1.45-.34 2.866-.78 4.07-1.27.758-.3 1.42-.61 2.018-.942l.137-.076c.21.1.49.202.747.32-1.62 1.105-2.91 2.733-3.89 4.45-1.71 3-2.69 6.528-3.15 9.704-.16 1.097-.314 2.2-.474 3.295-.55 3.788-.876 8.567.046 12.19.17.84.783 1.51 1.6 1.756.82.247 1.7.026 2.305-.58.6-.605.83-1.5.58-2.32-.575-2.25-.45-6.98.042-10.37.16-1.1.314-2.2.474-3.295.39-2.713 1.32-5.822 2.605-8.084 1.29-2.266 2.71-3.47 4.35-3.57.76-.02 1.44-.416 1.86-1.04 1.45.26 2.984.34 4.544.046 1.06-.2 1.803-.554 2.303-.713 1.26-.394 2.094-.74 2.773-1.05.995.71 2.48 1.526 5.11 2.59 2.127.866 4.17.87 5.77.29 1.6-.58 2.69-1.56 3.51-2.254.822-.7 1.382-1.07 1.615-1.13.24-.06.44-.156 1.5.6 2.856 2.023 6.86 2.59 10.83 2.53 2.985-.045 5.894-.38 8.254-1.574.284.58.8 1.02 1.435 1.207.81.238 1.69.018 2.29-.58.58-.573.81-1.404.61-2.194.03.04-.11-.965-.17-1.94-.068-1.113-.13-2.54-.17-3.95-.04-1.42-.066-2.83-.06-3.94.002-.55.014-1.03.03-1.37.012-.254.055-.493.045-.47.864-3.543.03-7.33.03-9.824 0-3.34-.17-6.493.31-9.32.515-3.05.363-6.04.364-8.78 0-2.89.99-6.254.99-10.02 0-4.015.32-8 .32-12.28V58.72c0-3.28-.32-6.492-.32-9.38 0-3.587-.543-6.635-1.386-9.946-.49-1.89-.72-3.756-1.33-6.148-.71-2.792-2.36-4.477-3.13-5.98-1.26-2.476-2.917-4.185-4.18-5.842-1.59-2.08-4.01-3.673-5.936-4.805-2.226-1.31-4.478-2.49-7.22-3.16-1.67-.41-3.23-.31-4.59-.29-1.37.02-2.517-.06-3.025-.26-.882-.35-1.75-.52-2.573-.58-.41-.04-.82-.04-1.205-.03zm362.19.686c-.3-.002-.61.01-.915.03-.693.043-1.397.132-2.105.29-1.288.288-2.103 1.578-1.815 2.868.288 1.287 1.58 2.087 2.868 1.8 3.45-.768 7.527.93 11.61 3.187-3.13-.24-6.29-.46-9.124-.45-1.14 0-2.22.04-3.22.12-4.01.35-5.97.43-7.81 1.15-.93.36-1.75.94-2.38 1.56-.63.63-1.13 1.27-1.8 2.08-.85 1.02-.7 2.53.32 3.37 1.01.85 2.49.7 3.34-.32.7-.84 1.18-1.41 1.49-1.72.31-.31.41-.38.73-.5.64-.25 2.49-.49 6.51-.84 2.41-.21 5.94-.05 9.62.2-5.22 1.967-10.12 4.698-13.76 8.344-.93.935-.92 2.44.01 3.37.93.93 2.42.934 3.35 0 1.88-1.883 4.352-3.566 7.123-5.004-1.33 1.632-2.214 3.212-3.446 5.23-1.67 2.737-2.21 5.51-3.126 7.763-.17.42-.32.84-.445 1.25-2.12-1.71-4.09-2.66-5.98-3.54-1.94-.91-3.83-1.77-6.3-3.51-2.67-1.873-5.22-2.938-6.728-3.998-.376-.275-.83-.43-1.294-.443-.4-1.07-1.02-2.027-1.696-3.02-.843-1.26-1.793-2.52-2.59-3.57-.347-.46-.4-.56-.655-.93.35-1.08-.19-2.25-1.24-2.67-.3-.13-.57-.25-.96-.32-.198-.04-.45-.09-.76-.06-.317.02-.677.15-1.088.42-.828.55-1.08 1.66-1.027 2.18.05.52.2.795.32 1.05.47 1.01 1.14 1.815 1.933 2.87-.28-.18-.66-.436-.9-.58-.57-.344-.91-.55-1.5-.75-.145-.05-.3-.094-.593-.12-.295-.025-.82-.084-1.48.366-.668.45-.976 1.45-.95 1.95.027.5.14.738.23.916.344.71.56.82.867 1.143.307.32.684.65 1.084 1.02.914.842 1.92 1.73 2.9 2.515-.726.08-1.27.1-1.954.26-1.08.252-1.7.445-1.906.486-.203.04-.105.09-.687-.042-.77-.225-1.61-.01-2.162.568-.56.58-.74 1.41-.49 2.17.253.76.9 1.32 1.694 1.448.886.208 1.785.24 2.5.097.716-.145 1.15-.31 2.045-.52.635-.15 2.87-.26 4.636-.655.44-.1.874-.2 1.37-.454.47-.242 1.156-.732 1.436-1.692.066.057.15.115.23.166 2.174 1.53 4.57 2.483 6.724 3.996 2.8 1.963 5.09 3.01 7 3.903 1.92.9 3.43 1.628 5.19 3.07.566.51 1.34.69 2.073.52-.037.826-.03 1.66-.03 2.504v5.446c-1.486-.09-2.968-.17-4.453-.26-.08-.01-.16-.012-.24-.013-1.28-.01-2.328 1.01-2.34 2.29-.013 1.28 1.022 2.335 2.304 2.35l4.682.29c-.09 2.48-.277 4.985-.277 7.685 0 3.058.653 5.58.653 8.087v8.07c0 2.35-.34 4.74-.34 7.43v3.14c-2.81.42-5.68.93-8.297 1.806-2.494.837-5.06 1.05-7.583 1.89-.086.03-.16.07-.24.11.004-1.01-.55-1.673-.93-2.042-.408-.39-.78-.62-1.178-.84-1.58-.885-3.69-1.626-4.258-1.95-.8-.46-1.16-.74-1.8-1.086s-1.51-.566-2.41-.625c-.08-.005-.16-.005-.23 0-1.13.065-2.017.975-2.03 2.104-.018 1.13.84 2.084 1.97 2.18.59.04.482.04.67.14.18.096.73.47 1.69 1.02.61.35 1.116.54 1.783.825-1.154.474-2.37 1.028-3.474 1.57-.49.24-.94.468-1.33.688-.38.227-.61.278-1.14.86-.134.145-.32.32-.49.793-.17.476-.14 1.517.368 2.137.51.62 1.01.72 1.3.775.288.06.455.066.61.06.62-.017 1.003-.138 1.648-.304.27-.07.71-.215 1.02-.307-1.07.79-1.93 1.37-2.68 2.21-.19.213-.38.433-.58.916-.196.484-.28 1.635.35 2.396.63.76 1.27.823 1.665.87.394.043.683.02 1.005-.017 1.136-.115 2-1.104 1.95-2.245.35-.28.424-.346.885-.686 1.063-.784 2.343-1.704 3.51-2.67.933-.77 1.795-1.53 2.484-2.453.423.113.88.12 1.328-.03 1.74-.58 4.51-.87 7.594-1.906 1.944-.653 4.323-1.096 6.815-1.48v.244c0 2.87.34 5.68.34 8.08 0 .893-.24 5.675-.52 10.08-.14 2.204-.3 4.355-.43 6.025-.064.836-.116 1.54-.167 2.06-.016.16-.04.3-.06.44-.175.33-.29.69-.29 1.086 0 1.28 1.055 2.334 2.336 2.334 1.54 0 3.434-.048 5.445-.09-.65.73-1.404 1.59-2.226 2.67-2.046 2.67-4.226 6.46-4.226 11.33 0 2.15.02 5.46.09 8.37.035 1.457.084 2.8.15 3.89.04.546.07 1.035.12 1.45.05.416 0 .637.29 1.327.46 1.18 1.78 1.767 2.96 1.315 1.187-.453 1.78-1.777 1.33-2.96.02.04-.01-.044-.03-.23-.03-.27-.06-.695-.09-1.19-.06-.983-.12-2.295-.152-3.72-.07-2.85-.09-6.124-.09-8.252 0-3.516 1.54-6.29 3.28-8.56.868-1.132 1.77-2.11 2.547-3.002.68-.785 1.394-1.28 1.74-2.58 1.72-.04 3.413-.077 5.004-.09-.78.843-1.45 1.8-2.015 2.79-1.71 3-2.68 6.53-3.14 9.703l-.48 3.298c-.55 3.787-.874 8.56.05 12.19.314 1.24 1.565 1.99 2.81 1.678 1.24-.314 2.005-1.564 1.69-2.808-.57-2.25-.446-6.996.05-10.39.156-1.097.31-2.2.47-3.294.394-2.717 1.29-5.826 2.58-8.088 1.285-2.266 2.74-3.47 4.375-3.57.85-.02 1.61-.498 2-1.25.046-.088.077-.19.11-.278h19.144c5.82 0 11.934.974 18.106.974 1.22 0 2.22-.16 3.113-.32.38.27.84.41 1.34.41.723 0 1.373-.316 1.8-.836.96-.284 1.662-1.174 1.662-2.23 0-.824-.438-1.54-1.087-1.953.02-1.664.04-3.177.09-5.737.07-3.77.12-7.336.12-8.114 0-2.23.004-4.47-.335-6.8-.42-2.868-.32-5.876-.32-9.048 0-2.935.33-5.92.33-9.045 0-3.44-.53-7.17-.04-9.56.862-4.233-.22-8.014.32-10.68.583-2.863 1.006-7.643.336-10.934-.54-2.645-1.263-6.4-1.263-8.59 0-1.92-.404-3.44-.855-4.67-.45-1.223-.886-2.144-1.19-3.34-.24-.932-.644-2.29-1.22-3.643-.58-1.357-1.16-2.73-2.61-3.8-1.44-1.06-3.5-2.867-3.92-3.695-.71-1.396-1.77-2.5-2.93-3.17-1.16-.676-2.356-.99-3.54-1.284-2.83-.698-5.07-1.47-8.22-2.245-2.51-.613-5.15-.714-7.46-.714-1.73 0-4.35-.69-7.2-.63-.15.007-.306.01-.46.02l-.105-.72s-.405-.11-.472-.12c-.135-.02-.154-.015-.184-.016-.32-.014-.32-.002-.35 0-.515-.424-1.193-.65-1.906-.53l-.09.016c-.278-.055-.55-.075-.84-.03-.585.05-1.954-.306-3.663-1.16-1.707-.85-3.74-2.084-5.948-3.324-3.63-2.035-7.83-4.2-12.348-4.21zM507.137 16.92c.715-.03 1.296.033 1.952.29 1.69.668 3.33.615 4.77.595 1.44-.02 2.71-.02 3.41.152 2.09.514 3.86 1.417 5.96 2.654 1.64.97 3.85 2.64 4.6 3.63 1.46 1.91 2.84 3.37 3.73 5.13 1.166 2.29 2.44 3.71 2.774 5.02.53 2.08.76 3.92 1.325 6.15.795 3.13 1.236 5.68 1.236 8.8 0 3.23.32 6.43.32 9.39v10.34c0 4.04-.32 8.03-.32 12.28 0 2.85-.99 6.22-.99 10.02 0 2.9.112 5.63-.29 8.01-.304 1.78-.415 3.52-.43 5.22-1.95.51-3.918 1.15-4.39 1.15-6.926 0-13.25 2.03-19.924 2.03-5.315 0-13.796-1.14-21.92-1.88-7.08-.65-13.774-1.19-18.746.01.038-.25.08-.49.14-.716.39-1.53.332-2.99.23-4.24.784-.446 1.583-.89 2.38-1.33 3.135-1.735 6.223-3.402 8.45-5.52.7-.65.915-1.66.563-2.547-.355-.89-1.215-1.47-2.168-1.465-.603 0-1.186.238-1.62.658-1.485 1.416-4.35 3.09-7.473 4.82-.093.05-.198.1-.29.15v-4.66c0-2.805-.336-5.56-.336-8.09v-8.09c0-.15-.013-.29-.015-.44.66-.02 1.42-.11 2.67-.21 2.82-.23 7.08-.55 8.433-.55h1.405c.86.01 1.65-.43 2.09-1.172.43-.747.43-1.685 0-2.43-.44-.746-1.23-1.19-2.09-1.18h-1.4c-1.956 0-5.807.32-8.607.55-.324-.1-.673-.11-1.01-.064-.9.11-1.484.173-1.86.23-.15-1.41-.273-2.77-.273-4.12 0-2.47-.06-5.365-.73-8.01-.08-.314-.14-.674-.183-1.054.25-.213.47-.48.61-.794.46-1.016.13-2.17-.73-2.81.013-1.06.046-2.147.046-3.173 0-3.173.33-5.883.942-8.91.688-3.366 2.334-6.91 3.83-10.586.28-.685 1.396-2.01 2.777-3.322 1.38-1.32 2.95-2.66 4.15-4.23.27-.36 1.192-1 2.36-1.55 1.17-.553 2.52-1.05 3.737-1.645 1.136-.555 3.29-.96 5.4-1.4.51.487 1.22.756 1.97.657 2.875-.386 4.98-.227 7.78 2.576.19.19.56 1.1.46 2.808-.11 1.71-.59 3.96-1.22 6.3-.64 2.34-1.405 4.788-2.03 7-.63 2.22-1.18 4.148-1.18 5.98 0 8.41 4.69 14.938 10.97 17.67 6.286 2.73 14.186 1.62 20.14-4.33 2.24-2.24 3.384-4.93 3.46-7.538.073-2.61-.82-5.047-2.198-7.14-2.75-4.187-7.32-7.25-11.88-8.01-2.685-.45-5.2.51-6.924 2.09-1.72 1.58-2.776 3.73-3.05 6.01-.278 2.28.28 4.8 2.03 6.697 1.75 1.9 4.53 2.99 8.02 2.99 1.13 0 2.51-1.1 2.835-2 .326-.9.255-1.53.183-2.12-.146-1.17-.51-2.17-.795-2.88-.31-.81-1.02-1.394-1.88-1.523-.86-.13-1.715.215-2.245.9-.53.683-.644 1.6-.304 2.394.024.06.036.16.063.23-1.16-.26-1.91-.72-2.365-1.22-.697-.75-.967-1.74-.828-2.88.137-1.142.746-2.323 1.556-3.07.81-.74 1.7-1.102 2.93-.9 2.847.477 6.71 2.97 8.65 5.92.97 1.474 1.46 2.98 1.42 4.38-.04 1.4-.525 2.784-2.043 4.3-4.706 4.71-10.32 5.31-14.886 3.325-4.56-1.986-8.08-6.606-8.08-13.287 0-.73.38-2.58.977-4.686.593-2.11 1.39-4.56 2.06-7.034.67-2.47 1.23-4.947 1.37-7.26.14-2.315-.083-4.72-1.846-6.484-.224-.22-.45-.422-.674-.623.855-.09 1.62-.19 2.26-.26.28-.024.524-.05.76-.06zm199.705 0c.72-.03 1.312.033 1.968.29 1.62.636 3.17.63 4.56.61l1.008.58 1.54-.472s.066-.053.092-.077c.38.03.724.05.977.11 1.963.48 3.655 1.33 5.582 2.44.18.78.75 1.45 1.57 1.73.38.13.77.14 1.14.08.97.74 1.86 1.49 2.29 2.05 1.46 1.91 2.82 3.37 3.72 5.13 1.17 2.29 2.44 3.72 2.77 5.03.53 2.09.76 3.91 1.32 6.14.79 3.12 1.23 5.67 1.23 8.8 0 3.22.32 6.424.32 9.38v10.34c0 4.037-.32 8.04-.32 12.296 0 2.847-.99 6.22-.99 10.02 0 2.89.11 5.616-.29 7.995-.31 1.78-.42 3.54-.43 5.23-1.95.51-3.92 1.13-4.39 1.13-6.93 0-13.25 2.03-19.92 2.03-5.32 0-13.8-1.12-21.92-1.86-2.7-.24-5.34-.48-7.86-.61 2.37-1.38 4.62-2.78 6.33-4.47.7-.66.9-1.69.53-2.57-.37-.886-1.25-1.45-2.21-1.42-.606.02-1.185.27-1.605.7-1.45 1.435-4.267 3.14-7.353 4.915-1.79 1.02-3.67 2.083-5.46 3.243-.39.07-.76.14-1.13.23.04-.25.08-.49.14-.72.65-2.555.08-5.03.08-6.41v-7.75c0-2.8-.32-5.557-.32-8.083v-4.28c1.623.4 3.63.796 5.736 1.1 3.083.445 5.924.89 8.555 0 3.09-1.045 5.374-2.083 7.823-4.41 1.02-.97 1.58-2.05 2.213-3.28s1.24-2.6 1.845-3.873c.55-1.16 1.093-2.23 1.57-3.02 1.54-.96 2.912-2.21 3.69-4.053.342-.78.27-1.68-.2-2.38-.47-.71-1.26-1.13-2.105-1.12-1 .015-1.9.63-2.274 1.557-.026.06-.074.12-.11.18-1.46.457-2.15 1.297-2.73 2.2-.18.09-.353.19-.55.28-1.932.9-4.47 1.74-6.97 2.91-1.513.72-4.75.88-8.145.55-3.14-.3-6.38-.89-9.03-1.19-.03-2.13-.16-4.46-.712-6.63-.08-.29-.14-.63-.19-.98.624-.493.96-1.28.87-2.074-.076-.675-.444-1.256-.99-1.63.01-1.055.03-2.138.03-3.16 0-3.17.33-5.88.945-8.907.686-3.365 2.33-6.91 3.83-10.585.28-.686 1.394-2.01 2.775-3.323 1.38-1.32 2.964-2.66 4.16-4.23.274-.36 1.194-1 2.364-1.56 1.17-.55 2.51-1.05 3.727-1.643 1.44-.71 4.56-1.145 7.103-1.77 2.29-.563 5.497-.26 8.68-.26 1.78 0 3.2-.28 4.318-.397.28-.028.527-.05.766-.06zm188.205 10.86c2.072-.046 4.903.55 7.703.55 2.155 0 4.507.11 6.36.565 2.924.717 5.157 1.504 8.223 2.257 1.074.263 1.842.516 2.32.793.474.277.75.537 1.112 1.25 1.322 2.595 3.787 4.23 5.293 5.34-.02-.016.657.84 1.1 1.875.44 1.037.817 2.242 1.005 2.975.42 1.643.97 2.81 1.327 3.783.358.974.564 1.762.564 3.08 0 3.104.838 6.875 1.374 9.505.344 1.692.08 7.067-.336 9.106-.86 4.22.226 7.98-.32 10.66-.76 3.72-.047 7.66-.047 10.49 0 2.77-.35 5.78-.35 9.04 0 1.39-.03 2.81-.016 4.28-.16.06-.3.14-.45.24-.59.39-.93.803-1.03.96.07-.017.04 0-.02.06-.03.03-.02-.004.01-.06-.048.01-.088.016-.32.074-5.248 1.29-10.05 1.97-15.94 1.97-13.52 0-30.78-1.3-42.41-1.36-.047-.79-.08-1.567-.08-2.307V102c2.97-.43 5.835-.894 8.235-1.91 1.06-.41 1.66-1.54 1.416-2.652-.24-1.114-1.257-1.88-2.394-1.816-.29.012-.56.082-.825.2-1.47.617-3.812 1.08-6.435 1.493v-2.47c0-2.28.35-4.68.35-7.43v-5.96c1.196.155 2.59.29 4.197.38 2.88.164 6.113.17 8.844-.29 2.364-.39 4.29-1.623 5.98-2.834 1.69-1.21 3.2-2.48 4.18-3.06 1.055-.63.99-.64 1.495-.98.91-.58 1.31-1.7.99-2.73-.32-1.02-1.29-1.72-2.365-1.67-.45.02-.89.17-1.26.43-.708.48-.348.3-1.297.87-1.567.94-3.04 2.21-4.52 3.27-1.48 1.06-2.93 1.84-3.98 2.017-2.076.345-5.125.377-7.796.23-1.83-.104-3.548-.3-4.62-.46-.2-1.995-.52-3.736-.52-5.34 0-2.48.19-4.964.27-7.61.836-.31 1.466-1.08 1.524-2.03.062-1.03-.57-1.93-1.48-2.286V53.5c0-2.645.053-4.346.823-6.236 1.13-2.772 1.684-5.266 2.81-7.11 1.78-2.915 2.43-4.24 4.576-6.344 1.66-1.63 3.67-2.477 6.3-3.767 2.18-1.07 5.684-1.27 9.09-2.107.387-.096.817-.127 1.296-.14zm-51.025 7.064c.132.02.155.08.107.06-.02-.003-.1-.054-.11-.06zM484.088 44.06c-.315-.002-.6.05-.824.106-.89.222-1.46.59-1.51.61-.354.14-.664.38-.885.687-.54.74-1.22 1.64-1.12 3.203.05.782.54 1.754 1.31 2.274.77.518 1.6.655 2.51.655.75 0 1.58-.184 2.24-.717.66-.533 1-1.318 1.1-1.937.2-1.24-.11-2.11-.29-2.82-.17-.67-.74-1.5-1.51-1.84-.39-.17-.72-.21-1.04-.21zm199.705 0c-.315-.002-.6.05-.824.106-.89.222-1.46.59-1.51.61-.36.14-.67.38-.89.687-.54.74-1.22 1.64-1.12 3.203.05.782.53 1.77 1.31 2.29.77.517 1.62.655 2.53.655.75 0 1.58-.18 2.24-.71.66-.53.98-1.32 1.08-1.93.19-1.24-.11-2.13-.29-2.84-.17-.67-.73-1.49-1.5-1.83-.39-.17-.74-.22-1.05-.23zm198.99 10.04c-.27-.002-.498.043-.686.09-.762.19-1.255.502-1.298.52-.3.118-.56.318-.75.58-.46.63-1.05 1.408-.96 2.744.04.668.46 1.51 1.13 1.953.66.443 1.38.563 2.16.563.64 0 1.34-.153 1.91-.608.56-.457.86-1.134.94-1.664.17-1.058-.12-1.805-.28-2.41-.15-.575-.61-1.282-1.27-1.572-.33-.144-.65-.197-.92-.197zm-334.46 5.383c-1.11.062-2.024.87-2.183 1.922-2.557 15.53-2.41 35.57-2.41 52.55 0 7.377-.153 14.793-.288 22.21-.062.053-.128.094-.184.153-.12.03-.104.046-.305.076-.84.126-2.236.216-3.723.244-2.97.055-6.352-.076-8.038-.076-6.933 0-14.313-1.45-21.965-1.45-4.9 0-9.83-.473-14.813-.473-2.036 0-3.975.96-4.972 2.36-.998 1.39-1.268 2.95-1.42 4.47-.3 3.03.026 6.3-.273 8.11-.51 3.03-.54 6.12-.52 9.07-.01.06-.03.1-.03.17-.06.72-.02 1.42.03 2.04v.72h.04c.01.16.01.33.01.47 0 .51.02.33-.02.5-.27.84-.05 1.76.58 2.39.62.63 1.55.86 2.39.59s1.48-.98 1.64-1.85c.14-.58.163-1.16.163-1.65 0-.46-.013-.94-.03-1.39 0-.036.002-.07 0-.108-.01-3.554-.073-7.12.443-10.25.474-2.88.075-6.13.304-8.437.11-1.153.4-1.975.625-2.288.22-.315.19-.38 1.003-.38 4.65 0 9.59.47 14.81.47 6.99 0 14.365 1.466 21.964 1.466 1.41 0 4.965.12 8.146.06 1.457-.024 2.81-.083 4.01-.24-.06 3.97-.12 7.932-.12 11.912 0 2.94-.46 5.44-.46 8.71 0 1.362.42 2.253.518 2.73.114.83.705 1.53 1.526 1.814.82.287 1.736.11 2.38-.455.64-.57.9-1.44.67-2.246-.22-1.05-.41-1.65-.41-1.846 0-2.82.454-5.337.454-8.71 0-12.92.475-25.907.475-38.93 0-16.998-.08-36.93 2.38-51.848.12-.676-.073-1.37-.55-1.88-.473-.508-1.18-.787-1.89-.747zm199.72.016c-1.11.06-2.023.85-2.18 1.9-2.56 15.53-2.426 35.57-2.426 52.55 0 7.37-.155 14.79-.29 22.21-.062.05-.128.11-.183.17-.12.03-.105.04-.305.07-.84.12-2.24.2-3.73.23-2.98.05-6.36-.08-8.04-.08-6.93 0-14.31-1.45-21.97-1.45-4.9 0-9.83-.48-14.81-.48-2.04 0-3.95.98-4.95 2.38-1 1.39-1.29 2.93-1.44 4.45-.3 3.03.01 6.32-.29 8.13-.6 3.632-.45 5.68-.43 9.15-.008.05-.008.09 0 .14v1.03h.01c-.01.12 0 .2-.017.337-.068.62-.196 1.42-.046 2.41 0 .024 0 .08-.03.184-.255.84-.026 1.776.595 2.398.62.62 1.54.85 2.38.592.84-.258 1.47-.956 1.65-1.82.11-.433.29-1.132.132-2.06-.014-.07-.007-.572.06-1.19.06-.573.205-1.21.045-2.18-.015-3.452-.12-5.242.38-8.282.475-2.88.06-6.13.29-8.436.116-1.15.42-1.96.64-2.27.226-.314.176-.4.993-.4 4.645 0 9.59.49 14.81.49 6.99 0 14.364 1.45 21.963 1.45 1.41 0 4.965.12 8.146.06 1.46-.02 2.81-.07 4.01-.224-.06 3.978-.103 7.938-.103 11.918 0 2.94-.08 3.425-.08 6.695 0 1.363.414 2.253.514 2.73.12.83.71 1.53 1.53 1.815.82.283 1.74.11 2.38-.46.64-.57.9-1.44.67-2.245-.22-1.05-.41-1.65-.41-1.843 0-2.82.062-3.32.062-6.695 0-12.92.488-25.92.488-38.944 0-17-.09-36.932 2.37-51.85.12-.67-.074-1.35-.55-1.86-.475-.51-1.164-.784-1.876-.744zm197.906 0c-1.11.06-2.03.85-2.19 1.9-2.56 15.53-2.43 35.57-2.43 52.55 0 7.37-.14 14.79-.28 22.21-.06.05-.12.11-.17.17-.12.03-.14.04-.34.07-.84.12-2.22.2-3.71.23-2.975.05-6.356-.08-8.04-.08-6.93 0-14.33-1.45-21.98-1.45-4.9 0-9.83-.48-14.81-.48-2.04 0-3.95.98-4.946 2.38-.997 1.39-1.284 2.93-1.435 4.45-.3 3.03.01 6.32-.29 8.13-.598 3.63-.523 8.54-.503 12v.012c-.028.22-.05.442-.066.67-.026.584-.03 1.193-.03 1.68 0 .892.234 1.2.17.943.16.87.8 1.58 1.65 1.844.85.264 1.77.035 2.393-.594.63-.63.85-1.562.58-2.41-.015-.055-.007-.033-.015-.074.003-.3.02-.595.03-.887h.093v-.928c.1-.39.093-.79 0-1.177-.004-.004 0-.01 0-.015-.015-3.184-.024-7.55.44-10.356.475-2.88.093-6.13.32-8.44.115-1.154.403-1.96.626-2.27.22-.315.16-.4.975-.4 4.65 0 9.59.49 14.81.49 6.996 0 14.387 1.45 21.986 1.45 1.41 0 4.95.12 8.13.06 1.458-.022 2.826-.07 4.028-.225-.06 3.977-.11 7.937-.11 11.917 0 2.94-.47 5.423-.47 8.694 0 1.365.434 2.256.534 2.73.117.83.69 1.547 1.51 1.83.825.287 1.756.097 2.398-.47.64-.565.9-1.42.67-2.23-.22-1.05-.443-1.67-.443-1.86 0-2.82.49-5.32.49-8.693 0-12.92.47-25.92.47-38.942 0-17-.09-36.933 2.362-51.85.12-.672-.09-1.35-.568-1.86-.47-.51-1.16-.79-1.875-.75zM690.3 68.45c-.22.45-.437.914-.64 1.31-.548 1.06-1.132 1.88-1.19 1.94-1.947 1.844-3.04 2.29-5.965 3.28-.32.104-3.407.19-6.224-.218-2.57-.37-5.19-.95-6.49-1.328-.07-1.504-.24-2.92-.38-4.287 2.26.297 5.26.802 8.31 1.1 3.71.357 7.51.53 10.74-.993.59-.28 1.21-.55 1.85-.81zm-565.83 5.46c-.92.004-1.753.52-2.165 1.34-.413.823-.333 1.81.214 2.55.16.88.28 2.126.29 3.45 0 .675-.02 1.32-.03 1.92-1.13.21-2.34.433-3.68.776-10.16 2.607-24.41 3.86-34.92 3.86-22.18 0-44.46 1.697-66.49 1.16-.05-.864-.22-1.684-.35-2.534-.22-1.404-.4-2.693-.45-3.677l.03-.06c.4-.778.36-1.72-.11-2.457-.47-.738-1.31-1.16-2.18-1.115-.85.042-1.61.516-2.02 1.25-.02.02-.07.1-.15.23-.17.256-.52.834-.52 1.692 0 1.707.33 3.396.56 4.88.09.6.133 1.157.164 1.634l-.41-.02c-.92-.08-1.827.36-2.334 1.13-.51.77-.545 1.75-.11 2.56.434.81 1.29 1.32 2.21 1.32l1.45.06c.07 42.18 1.876 84.97 1.92 127-4.615-.12-8.855-.39-12.494-.92-.9-.15-1.817.204-2.38.913-.57.706-.71 1.657-.37 2.5.34.84 1.11 1.44 2.012 1.556 3.965.58 8.47.88 13.284 1.004.32 10.03 1.86 36.71 1.86 46.34 0 1.71-.34 17.58-.75 33.04-.2 7.73-.418 15.4-.625 21.296-.106 2.947-.2 6.72-.29 8.54-.048.91-.1 1.64-.14 2.168-.03.4-.085.79-.076.81-.26 1.307.55 2.595 1.86 2.91 1.345.33 2.72-.5 3.05-1.84.16-.66.12-.88.17-1.48.04-.6.09-1.385.13-2.32.1-1.87.2-5.645.31-8.605.21-5.92.44-13.604.64-21.34.407-15.476.73-30.91.73-33.18 0-10.067-1.54-36.724-1.872-46.264 14.276.05 30.508-1.067 43.55-1.067 20.555 0 40.917-2.81 60.895-2.95.245 10.408 1.89 37.377 1.89 47.32 0 1.46.28 5.57.69 11.67.403 6.1.943 13.888 1.46 21.618.52 7.73 1.01 15.397 1.343 21.28.167 2.947.564 9.31.627 11.12.03.91.04 1.65.04 2.17 0 .258-.016.527-.03.658.01-.04.02-.07.05-.17-.33 1.346.5 2.705 1.845 3.035 1.35.33 2.71-.5 3.04-1.844.22-.885.12-1.06.12-1.678.005-.62-.01-1.41-.04-2.35-.066-1.88-.46-8.25-.626-11.21-.332-5.928-.84-13.608-1.356-21.34-.52-7.74-1.06-15.528-1.468-21.62-.407-6.096-.67-10.81-.67-11.34 0-10.43-1.636-37.4-1.89-47.3 4.18.03 8.333-.014 12.49-1.08 1.24-.296 2.04-1.47 1.892-2.73-.15-1.26-1.2-2.224-2.47-2.226-.23 0-.454.032-.672.092-3.404.87-7.16.93-11.29.914-.07-42.727-1.904-86.098-1.904-128.657.004-.672-.27-1.32-.75-1.8-.02-.02-.04-.03-.06-.04.284-.41.45-.9.44-1.42 0-.65.07-2.19.06-3.856-.01-1.664-.064-3.46-.474-5.096-.215-.86-.756-1.293-.992-1.48-.46-.47-1.092-.735-1.752-.73zm-1.48 14.324v.106c0 42.7 1.82 86.074 1.89 128.654-20.414.14-40.76 2.943-60.846 2.943-13.31 0-29.672 1.054-43.61 1.022-.042-42.15-1.833-84.91-1.908-126.93 22.05.48 44.07-1.21 65.668-1.21 10.896 0 25.31-1.24 36.167-4.03.88-.23 1.75-.4 2.64-.57zm517.6 2.944c.116-.018.126.045.077.045-.01 0-.107-.014-.123-.015.01 0 .04-.03.046-.03zm-174.78 1.036v6.147c-1.53.93-3 1.92-4.33 3.01-2.048 1.68-4.377 2.8-6.438 4.49-.075.06-.13.11-.2.17-.35-.93-1.084-1.35-1.57-1.55-.516-.22-.955-.3-1.404-.36-1.79-.26-4.027-.184-4.67-.29-.903-.14-1.35-.29-2.073-.38-.363-.044-.753-.05-1.176 0-.42.05-.86.14-1.3.276-1.14.35-1.79 1.55-1.44 2.686.35 1.135 1.56 1.768 2.7 1.418.57-.175.46-.132.67-.105.2.026.84.178 1.94.35.68.108 1.22.11 1.93.138-.92.855-1.87 1.798-2.72 2.7-.38.4-.7.77-.98 1.114-.287.34-.5.474-.798 1.203-.07.18-.19.41-.18.914.004.27.12.66.337 1.038-.88.04-1.764.09-2.64.14.863-.94.835-2.403-.077-3.31-1.64-1.64-3.06-3.22-4.45-4.866.696-.424 1.303-.95 1.693-1.48.43-.59.6-1.01 1.11-1.756.354-.52 1.942-2.08 2.974-3.558.26-.37.51-.735.706-1.266.18-.49.35-1.33-.06-2.196.07-.01.15-.004.214-.02 2.65-.32 5.064-1.214 7.7-1.54 3.41-.414 5.81-1.17 7.84-1.782 2.03-.62 3.64-1.086 5.935-1.19.255 0 .496-.05.73-.126zm-25.64 1.48c.05-.01.063.032.03.046-.01.004-.107.025-.12.03.005-.005.022-.04.03-.045.023-.016.042-.03.06-.032zm-9.107 6.194c.417.117.647.097.99.12.445.034.947.058 1.497.063 1.277.02 2.654-.03 3.937-.1-.475.54-.857.92-1.252 1.5-.62.91-.936 1.48-1.052 1.64-.116.16-.015.09-.534.38-.16.09-.31.2-.43.32-.49-.6-.97-1.22-1.48-1.86-.54-.67-1.1-1.35-1.68-2.04zm386.674 5.507c-3.936.036-8.15 1.282-11.9 2.486-2.498.81-4.75 1.64-6.376 2.22-.6.22-1 .35-1.38.48-4.43-3.7-10.1-4.2-15.24-3.78-5.53.45-10.86 1.8-14.03 1.8-.88-.01-1.69.45-2.13 1.21-.44.76-.44 1.71 0 2.47.44.76 1.26 1.22 2.14 1.21 4.37 0 9.49-1.416 14.43-1.82 4.95-.4 9.27.103 12.42 3.25.67.672 1.28.716 1.62.75.34.03.53-.01.718-.034.368-.05.64-.11.945-.2.613-.176 1.33-.42 2.166-.72 1.68-.6 3.865-1.405 6.24-2.17 4.75-1.52 10.396-2.655 13.04-1.994 2.365.59 4.42 1.577 6.634 2.68 1.21.604 2.678.11 3.28-1.096.6-1.21.11-2.68-1.1-3.28-2.263-1.138-4.7-2.3-7.64-3.04-1.222-.305-2.502-.42-3.813-.41zm30.172.55c-.02.014-.05.045-.14.03.02-.003.12-.03.14-.03zm-255.63.822c-.38.01-.77.03-1.15.06-1.01.077-1.99.232-2.95.397-3.82.66-7.47 1.706-9.22 1.706-.86-.01-1.66.432-2.09 1.175-.44.743-.44 1.683 0 2.425.43.744 1.23 1.188 2.09 1.175 3.2 0 6.64-1.2 10.02-1.784 3.38-.58 6.28-.53 8.12.84.68.53 1.6.66 2.39.32.79-.33 1.35-1.06 1.45-1.92.1-.85-.28-1.7-.98-2.21-2.337-1.75-5.04-2.24-7.705-2.18zm338.45 2c.28 1.92.3 3.943.3 6.144 0 .43-.07 4.26-.14 8.03-.05 2.57-.07 4.14-.1 5.83-.817.15-1.53.31-2.2.31-5.665 0-11.79-.97-18.105-.97H884.5c-4.723 0-10.63.22-15.06.29.027-.31.05-.54.08-.9.13-1.7.286-3.88.426-6.1.28-4.44.533-8.84.533-10.36 0-.38-.01-.75-.02-1.13 11.3.08 28.45 1.33 42.142 1.33 6.25 0 11.52-.73 17.04-2.09.38-.09.74-.22 1.07-.36zM606 108.93c-.86-.01-1.655.44-2.09 1.18-.432.746-.432 1.686 0 2.428.435.745 1.23 1.19 2.09 1.176h29.32c.01.03.458.166 1.33.384.845.266 1.764.046 2.394-.58.63-.627.86-1.548.594-2.395-.263-.85-.973-1.49-1.845-1.65-.25-.06-1.03-.534-2.443-.534h-29.34zm-70.73.51v.03c0 3.26.54 6.93.06 8.8-.15.596-.13.85-.15 1.3-.02.445-.03.96-.03 1.554-.01 1.187.02 2.636.06 4.09.02.696.034 1.393.06 2.06-.174.1-.327.233-.47.38-.72.68-3.95 1.72-7.277 1.77-3.327.05-6.82-.787-8.055-1.662-1.76-1.247-3.72-1.73-5.356-1.312-1.64.42-2.66 1.382-3.495 2.09-.83.708-1.47 1.226-2.04 1.433-.574.21-1.15.3-2.44-.226-2.46-.997-3.68-1.71-4.18-2.073-.25-.184-.32-.282-.29-.245-.036-.08-.02-.1-.184-.31-.27-.34-1.295-.96-2.135-.86-.84.11-1.08.39-1.205.49-.126.1-.136.13-.15.15-.064.06.036-.02-.063.04-.194.126-.964.54-2.836 1.13-.853.27-1.416.5-1.754.563-1.64.31-4.2-.246-6.27-1.036-1.037-.395-1.95-.834-2.64-1.16-.346-.16-.627-.295-.886-.41-.13-.054-.238-.11-.443-.18-.1-.034-.21-.08-.5-.12-.14-.02-.33-.04-.68.014-.32.05-.89.21-1.37.733.03-.053-.14.127-.4.273-.34.195-.87.44-1.48.687-1.22.49-2.81.97-4.28 1.25-1.48.285-2.87.32-3.49.185-.18-.04-.132-.03-.17-.05-.03-.35-.16-.676-.32-.96-.03-1.075-.06-2.09-.09-3.434-.1-3.99-.198-8.6-.198-9.47v-4.178c3.195-1.093 10.69-1 18.456-.29 7.987.73 16.39 1.89 22.33 1.89 7.556 0 13.97-2.014 19.926-2.014 1.67 0 3.16-.5 4.456-.93zm199.706 0v.03c0 3.26.552 6.93.076 8.8-.215.84-.115 1.068-.093 1.558.02.49.07 1.05.13 1.693.13 1.29.33 2.85.55 4.41.05.38.11.76.17 1.13-.43.08-.83.28-1.16.6-.72.68-3.94 1.72-7.26 1.77-3.33.05-6.84-.77-8.07-1.64-1.76-1.24-3.72-1.73-5.36-1.31-1.64.42-2.66 1.37-3.5 2.08-.83.706-1.483 1.224-2.06 1.43-.57.21-1.13.31-2.422-.21-2.46-1-3.69-1.73-4.196-2.09-.25-.186-.304-.28-.27-.247-.038-.073-.02-.085-.188-.29-.27-.34-1.31-.976-2.15-.87-.84.11-1.05.39-1.177.49-.125.1-.15.137-.166.15-.06.06.04-.015-.06.047-.2.13-.966.54-2.84 1.13-.85.27-1.43.5-1.766.562-1.64.31-4.17-.25-6.24-1.04-1.035-.4-1.966-.82-2.653-1.15-.344-.16-.627-.31-.885-.426-.13-.06-.24-.116-.44-.185-.1-.034-.2-.07-.49-.11-.145-.02-.337-.034-.687.02-.33.05-.91.19-1.39.72.03-.05-.153.13-.41.273-.347.194-.856.44-1.466.686-1.217.49-2.795.97-4.27 1.25-1.476.28-2.886.32-3.508.18-.175-.04-.117-.03-.156-.05-.087-.987-.795-1.768-1.695-2.03.064-.67.12-1.137.185-1.86.186-2.068.366-4.26.5-6.07.14-1.817.247-3.12.247-3.91v-2.605c.18-.146.364-.29.55-.444.68-.574 1.45-1.14 2.284-1.704 3.82-.437 9.64-.24 15.607.306 7.988.73 16.394 1.88 22.334 1.88 7.55 0 13.968-2.012 19.92-2.012 1.67 0 3.16-.495 4.456-.93zm-686.35 1.028c-1.1.016-2.07.743-2.38 1.8-.31 1.016-.74 2.237-1.114 3.355-1.188 1.048-1.913 2.46-2.653 4.36-4.38 11.23-6.66 17.447-7.6 20.364-.24.73-.39 1.218-.49 1.708-.05.248-.21.296-.05 1.22.04.235.11.576.44 1.04.32.466 1.1 1 1.83 1.07 1.46.136 1.79-.51 2.01-.72.43-.414.47-.562.59-.76.12-.2.23-.395.35-.624.24-.46.5-1.02.82-1.71.782-1.7 1.84-4.16 3-6.98h.273c1.302.01 3.22.22 5.202.52 1.76.26 3.6.61 5.23.95.34 1.2.68 2.41 1.02 3.57 1.27 4.37 2.43 8.28 3.734 10.97.61 1.25 2.11 1.77 3.36 1.16 1.25-.61 1.78-2.11 1.177-3.36-.945-1.94-2.19-5.85-3.45-10.17l-.304-1.05c.867-.156 1.63-.75 1.938-1.646.45-1.314-.246-2.74-1.56-3.19-.51-.173-1.172-.354-1.934-.55-.69-2.326-1.404-4.635-2.137-6.755-1.417-4.095-2.545-7.43-5.05-9.52-.11-.09-.247-.16-.366-.247.153-.486.36-1.04.5-1.51.25-.77.12-1.62-.365-2.27-.48-.652-1.25-1.02-2.06-1.007zm406.307 0c.047-.023.03.03-.108.06.014-.007.095-.057.107-.06zm402.613 3.583c-.21 0-.413.03-.62.08-2.513.62-5.12.87-8.052.87-10.994 0-21.452 1.42-32.065 1.42-11.39 0-22.87-.47-34.46-.47-7.57 0-17.99-.89-24.59-.47-1.29.09-2.27 1.18-2.18 2.44.08 1.27 1.21 2.24 2.5 2.15 5.82-.36 16.35.48 24.27.48 8.78 0 17.56.29 26.37.41-.02 4.58-.48 12.71-.48 18.92v12.48c-.19.19-.43.44-.81.76-.89.77-2.18 1.75-3.48 2.72-1.31.978-1.69 2.09-2.76 2.87-.34.25-.61.45-.89.66-.96-.126-1.89.35-2.35 1.19-.46.834-.357 1.854.274 2.575.026.037.04.063.09.138.106.16.205.42.84.81.316.197.865.41 1.51.35.615-.053 1.145-.36 1.45-.64l.045-.043c.08-.068.26-.21.475-.37.34-.253.798-.59 1.33-.977 1.07-.773 2.44-2.993 3.787-3.996 1.028-.76 1.08-.42 1.97-1.14.68.66 1.44 1.12 2.23 1.616 3.07 1.52 5.235 4.14 7.23 6.67.493.67 1.325 1.04 2.163.946.837-.098 1.55-.64 1.876-1.407.33-.76.226-1.65-.29-2.3-.45-.59-.935-1.25-1.495-1.94-1.84-2.26-5.065-4.665-6.97-5.86-.72-.45-1.027-.73-1.28-.96.355-.72.305-1.58-.14-2.256-.036-.057-.08-.1-.12-.155v-11.73c0-5.98.433-14.01.455-18.87 1.14.01 2.28.016 3.42.016 11.026 0 21.485-1.42 32.064-1.42 3.21 0 6.25-.28 9.21-1.01 1.16-.26 1.92-1.34 1.788-2.5-.13-1.16-1.13-2.023-2.32-2.03zm-408.3.57c-.09.14-.16.27-.242.4-.09 0-.184.02-.274.02.18-.14.36-.29.52-.41zm201.157.34c.07-.01.11.01.215.02l.15.04h-.52c.037-.01.13-.04.154-.045zm-409.8.28c-2.66-.05-5.058.65-6.62.65-3.58 0-5.69.547-8.527 1.13-2.563.527-5.283.72-8.13 1.45-1.578.406-2.527 1.207-3.616 1.984-1.085.778-2.16 1.604-2.652 1.907-2.238 1.38-4.36 3.65-5.706 5.036-1.8 1.85-2.846 3.97-3.155 4.288-1.926 1.98-2.52 4.56-2.883 5.31-1.35 2.77-1.967 4.98-2.622 7.67-.077.32-.15.64-.213.96-.86.984-1.45 2.2-1.45 3.72 0 2.22.11 5.066.82 7.858-.1 2.57-.29 5.357-.29 8.116 0 3.35-.34 6.59-.34 10.37 0 3.29.02 6.08-.63 8.727-.85 3.48-.08 7.257-.08 9.534 0 1.13.03 2.23.08 3.326-8.17-9.26-15.02-24.154-23.24-35.406-.45-.61-.73-1.39-1.02-2.38-.3-.99-.57-2.29-1.728-3.48-.21-.22-.465-.39-.735-.52.535-.502.76-1.12.87-1.55.145-.584.172-1.08.17-1.57-.02-1.96-.475-4.343-.475-5.063 0-1 .07-1.51.048-2.3-.02-.79-.27-1.726-.7-2.61-.41-.875-1.31-1.4-2.27-1.33-.78.055-1.49.5-1.877 1.176s-.395 1.5-.047 2.2c.285.58.24.487.245.717.01.23-.06.944-.06 2.15 0 .686.086 1.424.17 2.136-1.055-.82-2.21-1.66-3.3-2.4-.485-.33-.93-.61-1.34-.85-.412-.24-.592-.44-1.434-.627-.21-.046-.484-.13-1.024-.03s-1.496.693-1.8 1.495c-.304.804-.114 1.33-.015 1.633.1.3.19.47.28.61.35.574.64.874 1.14 1.39.23.23.626.59.9.855-1.33-.59-2.35-1.1-3.55-1.347-.303-.06-.63-.14-1.19-.06-.563.08-1.675.626-2.044 1.62-.37.994-.08 1.63.09 2.03.17.395.345.676.55.96.72 1.006 2.115 1.27 3.16.61.45.176.568.195 1.13.44 1.306.574 2.85 1.26 4.38 1.83 1.528.574 2.965 1.086 4.56 1.086.12 0 .265-.015.41-.03.11.22.25.43.43.61.05.054.31.555.61 1.555.296 1 .696 2.416 1.706 3.8 8.54 11.695 15.78 28.684 26.28 38.653.29.27.605.46.96.56.006.29.016.57.016.855 0 2.71.3 10.4.31 12.95v.066c-.76 10.51.01 15.68-.305 25.95v.078c0 2.47.37 4.156.37 6.088l-.02.153c-.01.184-.04.474-.06.82-.04.69-.12 1.64-.193 2.81-.16 2.33-.357 5.44-.566 8.525l-.58 8.51c-.07 1.17-.13 2.13-.18 2.824-.02.343-.05.623-.06.82l-.012.244c0 .014-.014.02-.015.014-.004.01 0 .04 0 .21-.02 1.39 1.1 2.53 2.486 2.55.437.006.844-.114 1.205-.304.264.206.57.35.914.44 1.85.47 3.567.44 5.17.44h13.166c0 .016.01.03.017.046v.01c.035.11.09.204.12.32-.008-.02-.04-.076-.045-.09.035.31.086.913.15 1.692.14 1.556.326 3.895.51 6.634.36 5.476.71 12.546.71 18.15 0 3.9.278 8.834.8 13.745-.66 1.15-1.64 2.644-2.778 4.16-1.793 2.395-3.895 4.97-5.54 7.26-1.624 2.27-2.86 3.234-4.696 5.158-.7.64-.99 1.6-.75 2.515.243.916.964 1.614 1.89 1.816.925.2 1.896-.127 2.5-.857 1.93-2.015 3.31-3.09 5.17-5.69 1.43-1.99 3.39-4.44 5.2-6.85.35 2.14.74 4.167 1.174 5.97.247 1.027.49 2.04.735 3.05.175.916.834 1.66 1.72 1.94.89.277 1.87.04 2.534-.61.666-.65.91-1.62.656-2.517-.242-1.015-.472-2.01-.72-3.04-.745-3.13-1.39-7.2-1.875-11.38.136-.326.28-.636.38-.96.257-.78.1-1.647-.38-2.307-.115-.158-.234-.286-.38-.41-.37-4.01-.58-7.927-.58-11 0-5.82-.366-12.946-.73-18.487-.184-2.77-.37-5.14-.505-6.744-.06-.68-.1-1.143-.14-1.54h10.268c5.824 0 12.035-1.344 16.58-.41 3.15.646 6.294.92 9.396 1.037-.48 13.39-4.3 28.548-4.3 45.18 0 3.61.067 7.038-.654 10.05-.256.9-.01 1.87.655 2.52.668.65 1.63.89 2.518.61.89-.28 1.56-1.02 1.74-1.933.81-3.39.82-6.75.81-9.882.87 1.29 1.815 2.635 2.76 3.967 3.195 4.502 7.34 10.91 7.993 11.82.82 1.134 2.39 1.39 3.527.58 1.137-.82 1.41-2.406.595-3.54-.86-1.2-4.84-7.37-7.98-11.79-1.57-2.215-3.113-4.47-4.285-6.32-1.177-1.85-1.98-3.64-1.957-3.524-.07-.294-.184-.567-.34-.81.925-12.844 3.6-25.1 3.997-36.837h1.72c1.59 0 4.815-.2 7.796-.39 1.49-.09 2.908-.16 3.937-.224.512-.037.93-.06 1.22-.08.043-.003.065-.01.105-.015.864.07 1.694-.32 2.21-1.02.154-.21.267-.433.35-.67.264.065.554.1.87.06 1.084-.14 1.56-.79 1.77-1.1.2-.304.26-.48.3-.61.09-.26.09-.37.105-.47.08-.445.036-.904-.12-1.33-.05-.573-.11-1.534-.17-2.79-.128-2.562-.268-6.225-.398-10.005-.26-7.56-.47-15.923-.47-16.58V223.3c0-2.35.35-4.79.35-7.52v-7.016c7.854 9.3 14.54 23.66 22.516 34.58.45.613.7 1.373.99 2.364.3.99.59 2.31 1.74 3.49.213.22.452.39.72.506-.54.51-.748 1.135-.857 1.57-.145.59-.156 1.08-.15 1.57.02 1.97.47 4.35.47 5.07 0 1-.085 1.48-.06 2.27.024.79.285 1.723.716 2.61.33.8 1.074 1.35 1.94 1.43.862.08 1.68-.31 2.15-1.036s.515-1.656.09-2.41c-.283-.584-.22-.49-.228-.72-.01-.23.06-.944.06-2.15 0-.69-.1-1.434-.188-2.15 1.056.82 2.2 1.655 3.295 2.393.49.33.948.628 1.36.87.41.24.59.438 1.43.625.217.044.47.114 1.01.012.54-.1 1.5-.69 1.8-1.494.3-.8.13-1.31.03-1.613-.1-.3-.19-.468-.272-.61-.35-.575-.67-.87-1.172-1.39-.223-.23-.61-.588-.883-.855 1.33.585 2.35 1.1 3.553 1.344.3.062.626.125 1.19.05.56-.08 1.674-.61 2.043-1.6.37-.998.095-1.637-.077-2.03-.17-.4-.36-.68-.565-.96-.72-1.01-2.11-1.278-3.153-.61-.45-.18-.57-.2-1.13-.447-1.31-.57-2.836-1.29-4.363-1.86-1.53-.57-2.965-1.053-4.56-1.053-.13 0-.3 0-.46.018-.105-.218-.215-.427-.394-.61-.06-.055-.3-.555-.6-1.557-.297-1-.714-2.4-1.723-3.78-8.46-11.583-15.64-28.36-25.978-38.363v-.016c.03-.72.05-1.46.05-2.2v-7.87c0-2.33.35-4.79.35-7.52v-18.28c.075 0 .15-.007.23 0 2.063.08 4.263.294 5.52.38 1.383.09 2.58-.967 2.67-2.35.09-1.385-.95-2.58-2.335-2.67-1.077-.07-3.42-.276-5.676-.367l-.41-.016v-6.77c0-1.664-.524-3.038-1.01-4.395-.48-1.36-.99-2.66-1.157-3.352-.692-2.858-1.402-5.93-2.96-9.126-.23-.476-.47-.94-.7-1.42-.67-1.37-1.452-2.63-2.27-3.795.04-.26.074-.52.047-.857-.04-.5-.19-1.32-.96-1.98-.53-.46-1.2-.63-1.74-.65-.55-.7-1.073-1.37-1.57-2.046-1.31-1.794-3.083-2.787-4.605-3.57-1.52-.78-2.86-1.406-3.57-1.95-2.66-2.05-6.36-3.128-9.05-3.68-.58-.12-1.17-.246-1.75-.366-2.94-.602-6-1.103-8.59-1.77-.926-.236-1.845-.346-2.73-.365zm.062 5.15c.564-.023 1.05-.02 1.42.078 2.92.75 6.06 1.26 8.844 1.83.58.12 1.16.23 1.74.35 2.09.43 5.68 1.75 7 2.76 1.47 1.136 3.02 1.75 4.33 2.43 1.31.67 2.31 1.35 2.83 2.07.4.55.8 1.09 1.2 1.62-.1.09-.2.166-.31.258-1.03.905-2.15 1.88-3.13 2.56-.98.68-1.85.916-1.74.916-5.296 0-12.72-4.994-20.24-8.236-2.823-1.218-5.753-2.18-8.743-2.29-.996-.036-1.996.02-3.004.2-4.04.71-7.803 3.47-10.74 8.495-3.298 5.64-3.175 11.58-4.043 16.23-.864 4.65-2.045 7.914-8.25 10.463-2.094.86-3.33.8-4.132.5-.804-.29-1.463-.94-2.06-2.082-.296-.572-.553-1.265-.76-2.012-.003-.002 0-.01 0-.013.017-.65.03-1.292.03-1.935 0-2.06.04-4.41.26-6.438.05-.04.096-.088.15-.126 1.03-.735 2.544-1.36 3.797-1.513 1.253-.15 2 .11 2.365.503.36.39.845 1.42.35 4.055v.016c-.03.03-.123.126-.335.29-.424.336-1.203.77-2.03 1.62-.693.628-.997 1.595-.76 2.5.24.908.98 1.608 1.893 1.816.912.21 1.865-.11 2.47-.82.18-.186.785-.57 1.542-1.16s1.805-1.59 2.12-3.19c.7-3.6.24-6.597-1.56-8.54-1.8-1.95-4.404-2.33-6.65-2.06-.624.07-1.245.2-1.845.363.306-.855.65-1.71 1.13-2.7.776-1.59 1.576-3.607 1.97-4.01 1.59-1.638 2.25-3.37 3.14-4.29 1.335-1.367 3.58-3.55 4.746-4.27.96-.593 1.97-1.395 2.94-2.09.98-.696 2.09-1.238 1.96-1.205 2.27-.58 4.94-.794 7.9-1.4 2.96-.61 4.4-1.008 7.502-1.008 2.504 0 4.98-.46 6.68-.534zm-192.005.565c.744 1.304 1.678 3.155 2.566 5.72.424 1.233.83 2.57 1.25 3.935-.937-.16-1.89-.314-2.854-.456-1.474-.22-2.903-.38-4.224-.477 1.108-2.828 2.23-5.82 3.265-8.725zm39.725 4.867c-.107-.002-.22.003-.32.015-.115.015-.205.03-.306.06-1.64.495-1.71 1.258-2.05 1.85-.34.59-.64 1.255-.98 2.12-.28.676-.24 1.44.09 2.09.33.65.94 1.124 1.65 1.297-.08 2.17-.25 4.81-.52 8.04-.86 10.176-2.35 23.64-2.35 30.906-.06.93.39 1.805 1.19 2.29.8.48 1.81.48 2.61 0 .32-.194.58-.45.78-.75.79.065 2.39.57 4.5-.15 3.48-1.194 8.37-2.165 12.4-4.516 2.01-1.176 3.86-2.78 4.97-5.05 1.1-2.27 1.34-5.07.58-8.19-.93-3.807-3.08-6.54-5.68-8.116-.648-.39-1.31-.71-1.99-.976.086-.058.174-.11.26-.168 2.294-1.594 4.272-3.42 5.46-5.674 1.19-2.253 1.32-5.33-.38-7.653-1.453-1.99-3.69-2.6-5.75-2.927-2.06-.33-4.19-.333-6.04-.365-1.47-.02-2.4-.14-3.098-.24-.035-1.315-1.08-2.395-2.397-2.452h-.078c-.12-.22-.29-.454-.567-.715-.43-.4-1.277-.69-2.017-.7zm609.03 3.797c-.027-.06.18.246.305.46-.006-.005-.027-.01-.03-.015-.26-.326-.264-.416-.276-.44zm-464.226.124c2.18-.01 4.7.727 7.44 1.906 6.74 2.91 14.24 8.64 22.24 8.64 1.95 0 3.29-.903 4.61-1.816 1.31-.916 2.53-1.99 3.57-2.9.02-.02.02-.016.04-.03.68.97 1.31 1.94 1.8 2.942.23.477.44.957.67 1.435 1.27 2.6 1.92 5.22 2.62 8.08.32 1.323.87 2.63 1.31 3.86.44 1.23.7 2.42.7 2.714v7.094c-.28.1-.56.25-.89.456-.837.435-1.366 1.29-1.36 2.23.003.94.535 1.8 1.37 2.225.28.14.565.21.87.242v8.16c-.13-.06-.26-.106-.4-.14-.11-.06-.295-.15-.52-.29-.443-.272-1.037-.67-1.6-1.05l-1.54-1.04c-.224-.15-.424-.28-.627-.396-.1-.06-.197-.115-.38-.2-.094-.04-.187-.09-.443-.15-.252-.054-.86-.423-1.932.417-.784.61-.83.86-1.22 1.34-.39.48-.85 1.04-1.266 1.498-.014.02 0 .02-.014.03-.26-.37-.402-.603-.78-1.02-.43-.47-1.075-1.16-2.332-1.25-1.256-.09-2.312.766-2.837 1.51-.49.698-1.125 1.49-1.694 1.97-.57.48-.855.55-1.1.51-2.727-.51-4.78-.02-6.36-.62-1.87-.715-4.36-3.04-6.916-4.365-.332-.18-.715-.28-1.094-.276-1.057 0-1.96.73-2.2 1.753-.24 1.023.26 2.08 1.203 2.55.37.19.87.53 1.432.94.254.8.945 1.427 1.817 1.54-.44-.045-.268-.084.11.37.43.53 1.02 1.41 1.66 2.38 1.28 1.94 2.64 4.303 4.97 5.69 4.23 2.516 6.775 4.54 12.384 4.926 4.554.31 8.19-1.64 11.594-4.79-.108 1.66-.278 3.424-.278 5.353v7.87c0 2.53-.337 5.37-.337 8.24v6.425c-14.98-.553-35.266 1.12-51.835.245-3.846-.2-8.33-.27-12.45-.59-4.116-.316-7.89-.95-9.916-1.89-.646-.3-1.097-.42-1.466-.44-.37-.027-.666.03-.99.03-.386 0-.543.01-.81.013-.08-2.96-.17-6.035-.17-7.37 0-3.705-.364-7.283-.364-10.737 0-3.06-.46-6.71-.06-8.36.837-3.43.76-6.656.76-9.9 0-3.46.37-6.69.37-10.374 0-.22.01-.45.016-.67.423.26.88.51 1.37.69 2.24.83 4.89.63 7.764-.55 7.62-3.125 10.31-8.833 11.307-14.184 1-5.35.98-10.434 3.43-14.63 2.44-4.177 4.78-5.646 7.28-6.085.47-.08.93-.135 1.44-.137zm-141.7 4.77c1.6.43 3.22.41 4.96.44 1.88.036 3.84.068 5.34.308 1.49.24 2.31.73 2.47.944.62.85.58 1.22 0 2.33s-2 2.58-3.88 3.89c-1.92 1.33-4.32 2.49-6.61 3.31-1.17.115-2.28.275-3.22.457.14-1.51.29-3.075.41-4.485.23-2.69.41-5.12.52-7.2zm5.23 16.078c2.06.043 4.08.463 5.62 1.4 1.55.94 2.76 2.31 3.41 5 .55 2.276.33 3.69-.217 4.81-.546 1.11-1.555 2.07-3.02 2.93-2.935 1.71-7.516 2.74-11.47 4.1-.168.05-.985-.08-2.35-.13.215-4.56.76-10.694 1.325-16.824 1.61-.2 3.302-.63 4.99-1.2.56-.04 1.11-.104 1.69-.09zm162.86 2.897c-.25.024-.52.094-.81.225-.76.35-1.26 1.167-1.42 1.817-.17.71-.47 1.57-.29 2.76.09.6.4 1.36 1.03 1.89.64.54 1.46.74 2.195.74.884 0 1.71-.144 2.457-.67.75-.525 1.19-1.462 1.24-2.21.094-1.5-.546-2.41-1.053-3.144-.21-.304-.51-.543-.85-.684-.033-.01-.575-.38-1.45-.61-.22-.055-.49-.11-.81-.105-.076 0-.156-.01-.24 0zm-209 18.14c-4.76 0-8.39 2.94-10.06 6.744-1.67 3.8-1.85 8.424-1.01 12.993.84 4.57 2.726 9.105 5.673 12.66 2.95 3.56 7.14 6.165 12.11 6.165 1.536 0 2.62-.085 3.68-.473 1.06-.39 2.03-1.375 2.39-2.107.727-1.46.154-1.15 1.1-1.8 1.144-.78 1.44-2.35.656-3.49-.78-1.14-2.35-1.43-3.49-.65-1.827 1.25-2.43 2.88-2.59 3.36-.176.043-.62.153-1.74.153-3.27 0-5.99-1.62-8.25-4.35-2.26-2.725-3.908-6.543-4.61-10.355-.7-3.813-.42-7.584.67-10.07 1.09-2.482 2.53-3.736 5.46-3.736.3 0 .75.17 1.46.81.712.64 1.542 1.66 2.44 2.76.9 1.1 1.83 2.287 3.14 3.237 1.315.95 3.357 1.607 5.28.95.895-.257 1.576-.986 1.77-1.895.196-.907-.13-1.842-.84-2.44-.71-.597-1.684-.76-2.545-.412-.266.09-.18.13-.72-.26-.536-.385-1.334-1.272-2.195-2.33-.86-1.056-1.792-2.282-2.99-3.355-1.19-1.07-2.8-2.09-4.802-2.09zm442.14 2.945c-.93.03-1.76.6-2.09 1.47-1.04 2.56-1.76 5.09-2.03 7.45-.2 1.74-.21 3.414.27 4.94-1.47.294-3.04.703-4.49 1.39-1.07-2.12-1.84-4.57-2.7-7.126-.32-.994-1.25-1.644-2.29-1.604-.74.03-1.44.4-1.85 1.007-.42.61-.49 1.38-.25 2.08.81 2.384 1.59 4.99 2.84 7.52-1.1.54-2.248 1.18-3.19 2.182.08-.53-.007-1.09-.306-1.57-.72-1.173-1.477-1.19-1.97-1.295-.5-.104-.946-.14-1.42-.14-.95 0-2.01.12-3.14.308-2.27.38-4.627.876-6.486 2.247-1.03.76-1.25 2.208-.49 3.238.76 1.03 2.22 1.27 3.25.5.38-.28 2.613-1.09 4.483-1.4.93-.153 1.82-.243 2.38-.24.14 0 .16.007.24.015.543.32 1.16.39 1.74.242-.714.71-1.55 1.51-2.426 2.345-1.483 1.41-3.052 2.884-3.89 4.94-1.25 3.064-2.763 6.316-3.69 9.84-1.85-1.37-3.576-2.21-5.25-2.99-1.94-.91-3.842-1.76-6.313-3.496-2.67-1.875-5.204-2.94-6.713-3.997-.375-.276-.82-.43-1.28-.448-.4-1.065-1.02-2.02-1.694-3.02-.848-1.254-1.81-2.51-2.61-3.57-.35-.46-.4-.56-.658-.93.37-1.075-.165-2.25-1.22-2.68-.296-.13-.58-.24-.97-.31-.2-.036-.44-.09-.75-.06-.315.027-.69.15-1.1.425-.825.558-1.06 1.67-1.008 2.188.054.52.17.795.29 1.05.477 1.01 1.155 1.814 1.954 2.87-.28-.18-.65-.436-.885-.58-.57-.345-.904-.57-1.49-.763-.15-.042-.32-.08-.61-.1-.294-.024-.8-.083-1.466.367s-.99 1.44-.96 1.94c.026.507.156.74.242.92.344.71.56.823.87 1.143.303.32.65.664 1.05 1.034.91.836 1.92 1.716 2.9 2.5-.72.08-1.26.1-1.94.26-1.08.25-1.69.475-1.89.516-.21.04-.11.06-.69-.073-1.16-.27-2.33.44-2.596 1.6-.27 1.16.455 2.325 1.617 2.59.887.2 1.787.24 2.5.09.72-.14 1.14-.32 2.03-.53.64-.15 2.873-.24 4.64-.64.44-.1.87-.2 1.37-.46.47-.24 1.186-.75 1.463-1.72.07.06.15.13.23.18 2.178 1.53 4.555 2.49 6.71 4 2.8 1.97 5.1 3.027 7.02 3.92 1.92.9 3.416 1.61 5.17 3.05.317.287.687.49 1.086.57-.302 2.12-.47 4.26-.47 6.57 0 .655-.03 1.385-.06 2.17-.203-.01-.4-.03-.61-.043-1.872-.113-3.93-.152-5.413-.197-.075-.004-.14-.004-.214 0-1.28.024-2.31 1.068-2.29 2.35.025 1.28 1.1 2.31 2.38 2.286 1.504.046 3.51.092 5.263.2.35.02.66.05.975.074.08.718.2 1.437.38 2.14.48 1.87.58 4.494.58 6.86 0 3.563.67 6.546.67 9.38v8.07c0 2.9.32 5.67.32 8.083v4.76c-1.773.57-3.502 1.23-5.11 2.015-2.375 1.16-4.883 1.74-7.277 2.91-.077.03-.17.063-.24.104-.134-.98-.75-1.567-1.176-1.88-.457-.34-.86-.52-1.28-.69-1.68-.664-3.87-1.11-4.47-1.36-.85-.34-1.24-.566-1.92-.82-.68-.253-1.58-.366-2.488-.304-.78.036-1.48.49-1.83 1.19-.35.7-.29 1.537.15 2.18.443.647 1.204.99 1.983.917.6-.04.496-.025.688.05.195.07.76.372 1.786.79.648.263 1.18.373 1.878.564-1.096.625-2.24 1.323-3.28 2.014-.455.3-.85.583-1.205.852-.35.27-.583.363-1.036 1.01-.117.16-.29.35-.4.84-.106.49.054 1.532.64 2.09.59.55 1.114.57 1.407.59.29.02.456-.006.61-.03.61-.1.98-.25 1.6-.503.245-.1.63-.29.915-.41-.94.893-1.716 1.59-2.336 2.5-.16.23-.34.47-.473.974-.135.5-.074 1.656.655 2.33.73.68 1.374.65 1.77.64.4-.01.71-.07 1.024-.15 1.09-.26 1.79-1.315 1.613-2.425v-.016c.32-.328.4-.427.81-.826.96-.923 2.09-2.006 3.13-3.114.82-.875 1.57-1.716 2.14-2.7.463.05.95-.04 1.37-.272 1.66-.815 4.36-1.45 7.29-2.885.94-.46 1.98-.886 3.11-1.283.073 1.45.18 2.74.03 3.33-.57 2.237-.39 4.3-.39 6.07v4.85c0 1.176.08 5.59.18 9.596.05 2 .1 3.87.136 5.12.02.62.05 1.09.06 1.37 0 .07-.007.105 0 .17 0 .03.01.06.012.12 0 .03 0 .074.01.15.004.04.01.09.03.186.02.092.26.61.26.61l.88.12c.06.16.128.31.218.46.453.74 1.286 1.16 2.15 1.095h.46c-.46.56-.96 1.18-1.465 1.866-2.03 2.75-4.167 6.644-4.167 11.62 0 2.22.006 5.62.076 8.618.034 1.5.176 2.62.243 3.74.03.56.07 1.054.12 1.48.05.424.01.65.29 1.34.44 1.204 1.77 1.815 2.975 1.375 1.2-.44 1.83-1.77 1.39-2.97.003.01-.028-.095-.05-.276-.03-.283-.06-.695-.09-1.204-.06-1.02-.21-2.12-.243-3.586-.07-2.932-.08-6.32-.08-8.51 0-3.66 1.54-6.532 3.266-8.88.862-1.17 1.762-2.173 2.53-3.092.46-.55.93-.994 1.29-1.63 1.51-.034 3.02-.054 4.58-.09-.43.568-.81 1.16-1.16 1.77-1.71 3-2.695 6.528-3.156 9.7-.16 1.1-.31 2.2-.47 3.298-.55 3.78-.873 8.56.05 12.184.17.84.78 1.51 1.6 1.755.82.244 1.7.023 2.302-.58.603-.608.83-1.488.58-2.306-.573-2.25-.45-6.99.044-10.39.16-1.095.31-2.2.47-3.293.39-2.716 1.32-5.824 2.607-8.087 1.29-2.26 2.714-3.47 4.35-3.57.55-.01 1.06-.23 1.464-.58h23.98c5.822 0 11.933.96 18.106.96 2.47 0 4.08-.655 5.6-.655.32.024.63-.03.93-.14.623.016 1.25-.2 1.705-.66.58-.58.81-1.422.61-2.21.03.04-.11-.963-.17-1.937-.067-1.11-.13-2.52-.17-3.93-.04-1.414-.065-2.83-.06-3.936.003-.554.015-1.03.03-1.374.013-.255.056-.51.046-.49.866-3.54.03-7.33.03-9.82 0-3.34-.17-6.495.31-9.32.518-3.05.366-6.04.367-8.785 0-2.89.99-6.25.99-10.02 0-4.01.32-8.012.32-12.293v-10.33c0-3.28-.32-6.49-.32-9.38 0-3.585-.544-6.63-1.39-9.944-.48-1.89-.715-3.755-1.325-6.147-.71-2.797-2.362-4.48-3.127-5.98-1.264-2.48-2.917-4.19-4.18-5.847-1.59-2.08-4.014-3.67-5.936-4.81-2.226-1.31-4.477-2.49-7.218-3.16-.696-.17-1.38-.24-2.03-.28 1.015-.474 2.255-1.055 3.36-2.14.69-.66.893-1.68.53-2.56-.36-.88-1.225-1.45-2.18-1.43-.6.015-1.164.26-1.587.688-.225.22-1.83 1.03-3.326 1.86-.75.416-1.536.83-2.242 1.74-.274.355-.49.864-.594 1.42-.73-.24-1.434-.374-2.12-.43-.82-.064-1.59-.025-2.3.047-.423.046-.814.105-1.21.155-.05-.276-.13-.54-.29-.796.037-.06-.06-.924.23-2.06.33-1.245.88-2.584 1.22-3.764.22-.712.07-1.494-.38-2.09-.45-.592-1.16-.934-1.91-.913-1.01.03-1.89.724-2.16 1.704-.2.68-.833 2.23-1.264 3.89-.325 1.258-.695 2.68-.32 4.18-1.95-.075-4.114-.154-6.3.2-.27-.494-.52-1.765-.32-3.494.206-1.77.81-3.97 1.725-6.22.31-.73.24-1.57-.21-2.222-.442-.65-1.19-1.013-1.98-.99zm-220.13 2.29c.2.14.35.25.56.4.58.4 1.18.8 1.74 1.15.28.17.55.32.82.46.27.14.45.293 1.06.41.504.113.98.04 1.42-.157v2.336c-.657-.018-1.276.26-1.71.774-3.527 3.685-5.895 5.213-9.656 4.957-4.73-.323-5.97-1.655-10.45-4.316-.416-.25-1.06-.97-1.766-1.88 1.76.17 3.21-.01 4.06.15 1.97.37 3.69-.525 4.84-1.48.58-.48 1.066-.994 1.48-1.494.28.4.393.618.81 1.098.544.63 1.614 1.02 2.363.96.747-.057 1.206-.316 1.6-.563.79-.49 1.325-1.07 1.86-1.66.36-.4.66-.77.96-1.14zm462.52 7.1c-.15 0-.31.01-.46.02-1.23.08-2.53.45-3.84 1.094-5.74 2.815-8.74 7.42-10.16 11.21-.72 1.894-1.05 3.6-1.19 4.88-.01.028-.02.034-.02.06-2.73-.682-4.96-1.442-8.03-2.196-2.51-.615-5.14-.7-7.45-.7-1.73 0-4.365-.69-7.216-.627-.95.02-1.916.11-2.896.35-2.68.66-6.52.74-10.02 2.457-2.46 1.21-5.12 2.267-7.52 4.62-2.52 2.48-3.57 4.41-5.29 7.23-1.67 2.74-2.21 5.51-3.124 7.77-1.122 2.754-1.143 5.294-1.143 7.99v5.46c-1.483-.087-2.98-.18-4.47-.27-.08-.01-.15-.016-.23-.017-1.28-.015-2.334 1.02-2.35 2.3-.012 1.28 1.02 2.323 2.3 2.334 1.57.095 3.13.195 4.7.29-.09 2.478-.29 4.97-.29 7.67 0 3.058.658 5.58.658 8.086v8.086c0 .226-.01.45-.012.674-1.7-1.2-3.27-1.972-4.82-2.7-1.94-.91-3.86-1.79-6.33-3.522-2.67-1.874-5.22-2.924-6.73-3.982-.374-.27-.82-.41-1.28-.42-.4-1.07-1.005-2.044-1.68-3.05-.84-1.253-1.81-2.494-2.61-3.552-.345-.46-.394-.573-.65-.943.355-1.072-.177-2.24-1.22-2.67-.3-.125-.586-.233-.98-.303-.197-.04-.45-.08-.76-.05-.314.03-.674.12-1.086.4-.82.55-1.073 1.69-1.02 2.21.05.52.185.78.305 1.036.473 1.01 1.153 1.81 1.95 2.866-.275-.176-.66-.435-.9-.58-.57-.34-.89-.55-1.48-.746-.145-.05-.33-.11-.624-.14-.29-.03-.784-.085-1.45.366-.662.45-.99 1.45-.96 1.953.03.5.16.736.245.914.346.71.55.822.855 1.143.306.32.667.667 1.07 1.037.916.84 1.92 1.714 2.9 2.5-.72.08-1.27.115-1.95.275-1.08.253-1.69.462-1.894.503-.2.04-.1.056-.687-.076-.767-.22-1.587-.01-2.14.565-.55.575-.746 1.41-.5 2.17.246.755.897 1.322 1.68 1.462.886.202 1.786.235 2.5.09.717-.15 1.137-.328 2.03-.537.637-.15 2.87-.245 4.637-.64.443-.1.876-.216 1.375-.474.475-.246 1.19-.72 1.465-1.694.07.06.133.113.212.165 2.174 1.53 4.57 2.48 6.723 3.993 2.8 1.962 5.1 3.01 7.016 3.904 1.915.892 3.41 1.63 5.17 3.08.38.34.85.532 1.34.58-.02.53-.03 1.06-.03 1.612v1.45c-1.71.557-3.38 1.19-4.94 1.95-2.375 1.165-4.9 1.747-7.29 2.917-.08.04-.155.09-.23.138-.125-.99-.75-1.59-1.175-1.905-.454-.33-.863-.504-1.283-.67-1.68-.666-3.866-1.11-4.47-1.357-.846-.346-1.236-.584-1.92-.84-.684-.253-1.564-.37-2.47-.304-.786.02-1.506.48-1.86 1.19-.356.7-.31 1.53.136 2.18.44.65 1.21 1 1.99.93.597-.04.493-.03.687.04.196.073.776.375 1.8.794.64.26 1.186.372 1.88.562-1.09.62-2.23 1.328-3.27 2.01-.45.31-.88.57-1.23.84-.354.27-.57.37-1.02 1.01-.12.16-.276.36-.384.86-.11.493.057 1.524.64 2.076.59.55 1.1.59 1.39.61.297.02.477-.007.63-.03.61-.1.956-.27 1.575-.52.242-.1.646-.288.93-.41-.94.896-1.73 1.59-2.35 2.5-.16.232-.323.49-.458.99-.14.5-.08 1.64.65 2.317.726.675 1.37.65 1.766.64.4-.01.693-.076 1.01-.155 1.103-.253 1.813-1.32 1.63-2.44v-.014c.31-.324.38-.43.793-.824.96-.92 2.11-1.984 3.145-3.093.835-.895 1.6-1.756 2.168-2.763.444.06.91.014 1.344-.197 1.662-.814 4.357-1.465 7.29-2.9.874-.426 1.857-.815 2.9-1.19v1.695c0 2.87.32 5.68.32 8.083 0 .747-.355 5.71-.748 10.24-.2 2.26-.41 4.49-.58 6.21-.09.854-.15 1.596-.22 2.132-.064.535-.18 1.07-.106.776-.23.81-.02 1.676.58 2.27.6.597 1.462.816 2.272.58.324-.093.62-.26.87-.472.525.32 1.103.53 1.645.655.667.153 1.327.225 2 .228-.512.59-1.062 1.24-1.633 1.99-2.044 2.674-4.22 6.467-4.22 11.334 0 2.157.02 5.465.09 8.378.034 1.457.084 2.8.15 3.89.037.544.076 1.018.126 1.434.05.416-.005.65.29 1.343.45 1.18 1.774 1.768 2.96 1.31 1.18-.45 1.78-1.772 1.324-2.96.017.04-.01-.04-.03-.223-.035-.273-.063-.683-.093-1.176-.06-.98-.113-2.31-.15-3.733-.07-2.84-.074-6.12-.074-8.25 0-3.51 1.54-6.27 3.28-8.54.867-1.132 1.77-2.13 2.545-3.02.74-.85 1.516-1.362 1.814-2.94.684-.222 1.35-.464 1.953-.715.74-.305 1.4-.62 1.986-.96.03-.02.06-.043.09-.06.54.264 1.25.595 2.044.93-1.285 1.057-2.33 2.427-3.155 3.875-1.71 3-2.694 6.526-3.155 9.7-.16 1.097-.313 2.2-.473 3.295-.55 3.782-.876 8.56.046 12.186.314 1.24 1.58 1.99 2.82 1.677 1.246-.313 1.994-1.563 1.68-2.807-.57-2.25-.45-6.994.047-10.39.16-1.1.31-2.2.47-3.296.393-2.716 1.304-5.82 2.59-8.087 1.29-2.26 2.73-3.47 4.365-3.57.67-.017 1.27-.33 1.69-.826.77.02 1.57-.042 2.36-.2 1.05-.204 1.764-.56 2.243-.714 1.2-.393 2.01-.71 2.67-1.023.97.71 2.43 1.52 4.94 2.576 2.082.876 4.113.895 5.69.304 1.574-.59 2.616-1.6 3.416-2.31.8-.705 1.368-1.06 1.56-1.11.197-.055.35-.18 1.37.575 2.798 2.06 6.71 2.625 10.59 2.566 2.73-.04 5.41-.355 7.64-1.39.41.66 1.14 1.1 1.97 1.1 1.28 0 2.335-1.04 2.335-2.32 0-.89-.152-1.9-.35-3.46-.192-1.562-.442-3.47-.7-5.354-.255-1.89-.51-3.76-.7-5.22-.094-.73-.174-1.35-.23-1.816-.052-.467-.074-.91-.074-.73 0-2.23-.014-4.475-.353-6.805-.41-2.867-.3-5.86-.3-9.03 0-2.938.32-5.925.32-9.047 0-3.444-.54-7.175-.05-9.567.86-4.232-.21-8.014.33-10.676.584-2.865.99-7.645.32-10.94-.54-2.64-1.265-6.393-1.265-8.584 0-1.92-.39-3.445-.84-4.67-.34-.93-.69-1.687-.96-2.517.48.165.98.307 1.52.413 2.22.43 4.216 1.3 6.56 1.994 2.35.696 5.1 1.12 8.3.337 1.34-.33 1.81-.84 2.67-1.51.86-.68 1.78-1.535 2.656-2.445.87-.91 1.7-1.856 2.316-2.885.31-.514.57-1.05.737-1.707.16-.66.227-1.56-.23-2.46-.84-1.65-1.88-3.666-3.617-5.37-1.74-1.71-4.29-2.99-7.49-2.99-5.3 0-9.075 2.31-11.7 4.74-1.947 1.802-3.47 3.602-4.65 4.73-.32-.4-.676-.78-1.147-1.13-.88-.647-1.995-1.578-2.823-2.395 4.267-.55 7.92-2.01 11.52-5.54 3.11-3.06 4-7.84 3-11.87-.5-2.01-1.62-3.99-3.66-5.016-.894-.45-1.9-.667-2.96-.657zm169.56 2.98c-.39.01-.75.04-1.1.07-1.42.15-2.6.37-3.85.37-1.27 0-2.71-.08-4.21-.105-.51-.04-.99-.073-1.39-.073-6.08 0-9.44.008-11.15.078-.43.02-.75.02-1.07.06-.16.023-.31.043-.61.14-.15.05-.35.1-.71.35-.35.253-1.045 1.03-.974 2.06 0 .02.01.025.013.045-.238.068-.46.09-.78.31-.39.266-.84.84-1.02 1.463-.658.32-1.32.67-1.95 1.115-.8.13-1.588.35-2.35.7-.81.303-1.38 1.03-1.48 1.89-.046.376.01.756.14 1.1l-1.697 1.614c-1.485 1.41-3.04 2.883-3.876 4.94-1.43 3.512-3.23 7.265-4.07 11.393-.67 3.25-1.04 6.36-1.04 9.856 0 .655-.036 1.385-.06 2.17-.21-.013-.4-.03-.61-.044-1.88-.113-3.936-.15-5.42-.197-.072-.01-.15-.01-.23 0-1.28.02-2.294 1.063-2.27 2.35.026 1.28 1.085 2.31 2.365 2.28 1.504.05 3.51.095 5.264.2.34.02.67.054.99.077.073.717.19 1.436.363 2.14.476 1.87.593 4.496.593 6.86 0 3.566.65 6.55.65 9.38v8.07c0 1.746.12 3.43.216 5.036-1.66.27-3.088.694-4.47 1.11-2.056.63-4.06 1.25-7.08 1.62-3.25.4-5.857 1.3-7.703 1.53-.48.06-.915.26-1.25.55-1.03-.53-2.146-.82-3.34-1.11-1.486-.36-3.063-.64-4.38-.885-.585-.11-.706-.142-1.16-.244-.365-.84-1.223-1.35-2.134-1.28-.2.015-.388.058-.57.12-.305.108-.574.22-.914.43-.34.21-.928.558-1.16 1.54-.23.986.375 1.95.762 2.29.384.34.67.44.93.55 1 .41 2.033.575 3.292.81-.263.04-.658.09-.884.135-.66.124-1.033.192-1.6.44-.14.062-.31.13-.55.31-.237.18-.655.494-.84 1.294-.183.8.283 1.75.64 2.09.36.34.6.42.78.49.72.284.943.23 1.387.26.44.034.945.04 1.494.046 1.27.01 2.645-.017 3.92-.09-.47.533-.842.905-1.233 1.48-.626.91-.92 1.47-1.04 1.63-.12.155-.018.09-.537.38-1.04.575-1.43 1.885-.853 2.93.578 1.04 1.888 1.43 2.93.85.794-.44 1.49-1.025 1.923-1.615.43-.59.62-.99 1.13-1.74.35-.52 1.923-2.09 2.96-3.57.254-.37.506-.745.7-1.28.176-.49.35-1.314-.06-2.18.066 0 .14-.01.21-.015 2.65-.32 5.07-1.2 7.704-1.522 3.41-.416 5.824-1.184 7.852-1.8 1.15-.35 2.164-.637 3.25-.853v6.116c0 2.14.29 4.41.074 5.25-.56 2.197-.42 4.218-.41 5.967-1.395.946-2.83 1.84-4.15 2.957-.066.057-.12.124-.182.186-.362-.94-1.12-1.356-1.614-1.557-.52-.21-.957-.276-1.405-.336-1.8-.234-4.038-.136-4.68-.23-.91-.13-1.35-.27-2.08-.35-.724-.08-1.605.04-2.47.32-.78.197-1.385.82-1.57 1.6-.186.786.075 1.58.685 2.107.61.53 1.46.687 2.21.387.57-.18.46-.14.67-.12.205.026.85.18 1.95.338.68.094 1.22.06 1.92.074-1.13.1-2.284.156-3.51.156-10.993 0-21.48 1.4-32.094 1.4-4.22 0-8.45-.06-12.69-.14.853-.2 1.57-.893 1.75-1.813.245-1.257-.576-2.47-1.83-2.716-4.07-.8-9.26-1.123-14.1-1.343-4.83-.22-9.35-.332-11.47-.563-.15-.02-.3-.028-.454-.018-1.21.08-2.17 1.09-2.18 2.304-.007 1.216.94 2.224 2.152 2.32 2.616.285 6.98.363 11.747.58 4.666.213 9.64.55 13.18 1.22-6.82-.13-13.67-.275-20.56-.275-7.567 0-17.976-.91-24.576-.49-1.29.08-2.266 1.17-2.18 2.44.083 1.265 1.194 2.23 2.485 2.15 5.822-.37 16.35.47 24.27.47 8.78 0 17.56.276 26.37.4-.023 4.574-.46 12.734-.46 18.95v12.47c-.186.19-.45.44-.823.76-.89.76-2.16 1.727-3.46 2.7-1.31.974-2.65 1.95-3.72 2.73-.34.247-.61.435-.89.64-.96-.122-1.89.37-2.35 1.206-.46.837-.34 1.857.29 2.58.025.035.023.06.074.136.104.16.2.42.84.81.31.197.88.428 1.52.37.617-.06 1.146-.36 1.45-.64-.01.004.005-.01.046-.05.08-.07.26-.227.47-.386.34-.25.8-.59 1.33-.978 1.064-.775 2.42-1.76 3.767-2.76 1.024-.766 2.04-1.535 2.927-2.26.68.66 1.44 1.14 2.23 1.633 2.24 1.4 5.32 4.72 5.87 5.4.44.54.88 1.15 1.39 1.818.492.67 1.33 1.04 2.16.947.84-.093 1.55-.64 1.875-1.4.33-.763.23-1.648-.29-2.303-.446-.59-.933-1.25-1.49-1.936-1.845-2.26-5.08-5.2-6.99-6.39-.72-.45-1.04-.74-1.293-.973.36-.72.3-1.564-.15-2.24-.03-.054-.06-.115-.1-.166v-11.72c0-5.975.432-14.04.455-18.9 1.136.01 2.263.018 3.4.018 10.795 0 21.075-1.345 31.425-1.402-.05.103-.1.223-.152.365-.07.183-.174.41-.154.915.02.5.428 1.455 1.13 1.843.7.383 1.207.292 1.495.24.29-.05.45-.12.592-.18.57-.25.865-.478 1.4-.87.23-.17.59-.468.86-.67-.71 1.13-1.3 1.974-1.68 3.032-.1.264-.2.56-.2 1.08-.008.523.333 1.62 1.2 2.09.87.474 1.495.29 1.88.183.383-.106.66-.23.944-.38 1.01-.53 1.422-1.754.96-2.794.22-.39.26-.5.562-.99.7-1.13 1.55-2.46 2.274-3.788.577-1.053 1.09-2.06 1.39-3.16.45-.06.885-.238 1.235-.548.33-.287.72-.58 1.16-.887.01 1.564.09 5.29.18 8.94.05 2 .112 3.873.15 5.124.02.625.033 1.095.05 1.373 0 .07-.008.104 0 .166 0 .03.005.062.012.12.007.03-.01.073 0 .15l.05.183c.02.093.245.61.245.61s.576.09.92.136c.05.16.11.3.196.443.45.74 1.286 1.16 2.15 1.1h.44c-.46.56-.93 1.18-1.433 1.866-2.03 2.75-4.18 6.643-4.18 11.62 0 2.22.02 5.62.09 8.62.032 1.5.084 2.893.15 4.01.034.56.06 1.056.107 1.48.05.425.01.654.29 1.343.44 1.203 1.76 1.814 2.96 1.373 1.205-.44 1.83-1.77 1.39-2.973.007.01-.024-.11-.045-.29-.03-.283-.046-.695-.076-1.204-.06-1.02-.12-2.377-.15-3.845-.07-2.94-.08-6.32-.08-8.51 0-3.66 1.54-6.537 3.267-8.88.868-1.173 1.75-2.18 2.52-3.098.467-.555.93-.998 1.298-1.63 1.51-.038 3.02-.058 4.576-.093-.43.567-.81 1.16-1.16 1.77-1.71 3-2.685 6.527-3.146 9.7-.16 1.1-.314 2.2-.47 3.297-.554 3.784-.895 8.564.03 12.19.166.837.78 1.506 1.6 1.75.82.25 1.714.03 2.32-.58.6-.602.826-1.482.58-2.3-.575-2.25-.435-6.994.06-10.39.16-1.1.31-2.2.47-3.294.4-2.716 1.29-5.824 2.58-8.087 1.29-2.26 2.73-3.466 4.36-3.57.55-.015 1.07-.225 1.47-.58h23.962c5.823 0 11.95.964 18.123.964 2.47 0 4.06-.66 5.58-.66.323.028.65-.03.944-.133.63.017 1.24-.2 1.694-.655.58-.575.808-1.42.61-2.21.035.038-.094-.963-.152-1.937-.064-1.118-.125-2.527-.166-3.94-.04-1.41-.066-2.83-.06-3.934 0-.55.014-1.03.03-1.37.01-.256.055-.51.045-.49.86-3.54.046-7.33.046-9.82 0-3.34-.19-6.5.29-9.32.517-3.056.365-6.04.365-8.79 0-2.888.98-6.25.98-10.02 0-4.01.337-8.015.337-12.296v-10.34c0-3.284-.333-6.495-.333-9.384 0-3.583-.55-6.63-1.39-9.942-.48-1.89-.7-3.755-1.31-6.147-.71-2.794-2.38-4.48-3.146-5.98-1.26-2.477-2.92-4.186-4.18-5.844-1.59-2.08-4.017-3.67-5.94-4.8-2.22-1.31-4.456-2.49-7.2-3.16-1.666-.41-3.24-.29-4.604-.28-1.362.02-2.494-.07-3.002-.27-.885-.35-1.752-.513-2.58-.58-.41-.03-.83-.04-1.22-.03zm-169.43 1.613c.31.017.55.09.73.184.48.24.96.87 1.25 2.01.56 2.28-.3 6.017-1.76 7.444-3.66 3.593-6.518 4.3-11.41 4.44-.01-.06-.03-.116-.047-.18 0-.18.003-.4.044-.76.102-.92.37-2.29.93-3.785 1.12-2.98 3.322-6.44 7.854-8.662.9-.44 1.566-.63 2.06-.67.127-.012.23-.022.34-.015zm-228.11 3c.71-.03 1.29.05 1.95.308 1.69.668 3.33.617 4.77.597 1.44-.02 2.71-.032 3.41.14 2.1.516 3.87 1.42 5.962 2.656 1.64.97 3.85 2.62 4.607 3.617 1.457 1.91 2.84 3.386 3.736 5.14 1.17 2.295 2.44 3.72 2.78 5.036.53 2.08.76 3.89 1.326 6.117.794 3.123 1.235 5.69 1.235 8.815 0 3.223.32 6.43.32 9.383v10.323c0 4.037-.32 8.04-.32 12.296 0 2.85-.99 6.22-.99 10.02 0 2.894.11 5.65-.29 8.026-.306 1.78-.417 3.52-.43 5.22-1.95.51-3.92 1.13-4.39 1.13-6.928 0-13.25 2.014-19.926 2.014-5.32 0-13.8-1.103-21.92-1.845-7.08-.646-13.78-1.183-18.75.015.036-.254.08-.49.137-.72.58-2.283.18-4.49.09-5.92.614-.174 1.23-.36 1.847-.53 3.452-.97 6.82-1.88 9.472-3.435.94-.54 1.362-1.65 1.05-2.69-.315-1.034-1.286-1.723-2.365-1.65-.362.03-.71.15-1.02.34-1.77 1.04-4.95 1.993-8.39 2.96-.2.055-.41.11-.61.17v-3.405c0-2.8-.332-5.554-.332-8.08v-4.29c1.63.398 3.64.795 5.75 1.1 3.085.444 5.93.904 8.56.014 3.09-1.05 5.372-2.08 7.82-4.41 1.02-.97 1.578-2.05 2.21-3.28.637-1.23 1.245-2.59 1.847-3.86.553-1.17 1.11-2.26 1.587-3.05 1.532-.96 2.9-2.22 3.68-4.06.33-.77.25-1.66-.22-2.36-.467-.7-1.246-1.11-2.09-1.1-1 .014-1.897.615-2.27 1.54-.02.052-.066.102-.09.153-1.48.455-2.177 1.33-2.764 2.24-.172.09-.344.173-.532.26-1.935.9-4.47 1.735-6.97 2.914-1.517.714-4.75.876-8.15.55-3.15-.306-6.4-.91-9.05-1.21-.03-2.13-.163-4.45-.715-6.62-.08-.31-.14-.684-.18-1.064.25-.21.47-.46.61-.78.46-1.01.13-2.18-.73-2.82.015-1.06.05-2.13.05-3.158 0-3.17.33-5.9.94-8.92.687-3.37 2.33-6.91 3.83-10.59.28-.69 1.395-2.01 2.776-3.32 1.38-1.316 2.95-2.66 4.15-4.226.274-.357 1.195-1 2.364-1.554 1.17-.56 2.524-1.05 3.738-1.65 1.44-.71 4.56-1.15 7.107-1.77 2.29-.568 5.465-.26 8.65-.26 1.78 0 3.23-.28 4.347-.4.28-.03.527-.05.766-.064zm392.18.994c1.45.21 2.08.23 3.69.503 3.85.65 7.6 1.334 8.94 1.552 1.26.21 2.45-.66 2.65-1.92 0-.05.01-.083.01-.135.11.014.25.02.35.044 2.092.515 3.862 1.42 5.96 2.655 1.64.966 3.85 2.62 4.606 3.615 1.46 1.91 2.83 3.382 3.72 5.14 1.17 2.29 2.44 3.72 2.78 5.032.53 2.08.76 3.89 1.33 6.117.796 3.12 1.236 5.69 1.236 8.812 0 3.22.336 6.428.336 9.38v10.328c0 4.037-.338 8.04-.338 12.296 0 2.845-.98 6.22-.98 10.02 0 2.89.1 5.645-.305 8.022-.302 1.78-.4 3.52-.412 5.215-1.95.505-3.934 1.13-4.41 1.13-6.923 0-13.23 2.01-19.905 2.01-5.32 0-13.8-1.105-21.92-1.847-2.7-.25-5.36-.475-7.87-.597 2.37-1.39 4.62-2.8 6.33-4.49.7-.66.9-1.69.53-2.58-.37-.886-1.25-1.447-2.21-1.417-.6.017-1.16.26-1.58.69-1.45 1.43-4.28 3.154-7.364 4.926-1.79 1.03-3.672 2.09-5.46 3.25-.388.07-.76.14-1.13.23.037-.256.096-.49.155-.72.65-2.55.076-5.026.076-6.41v-7.58c.21-.36.337-.76.33-1.21-.004-.48-.16-.93-.41-1.296-.1-1.983-.26-3.932-.26-5.75v-8.07c0-1.372-.12-2.66-.244-3.903 2.56-.31 5.63-.855 8.6-1.14 3.395-.33 6.63-.166 8.145.55 2.5 1.176 5.053 2.01 6.987 2.91 1.936.9 3.03 1.79 3.388 2.64.33.84 1.073 1.45 1.97 1.57.893.12 1.78-.267 2.32-.99.54-.726.66-1.68.29-2.503-1.135-2.69-3.536-4.12-5.876-5.213-2.34-1.09-4.842-1.917-6.954-2.91-2.42-1.14-5.165-1.335-7.95-1.207-.926.044-1.864.125-2.79.215-3.17.31-6.254.836-8.542 1.13-.006-.173 0-.344 0-.52 0-2.47-.06-5.36-.734-8.01-.077-.29-.14-.63-.187-.98.623-.49.96-1.274.87-2.07-.076-.68-.43-1.26-.976-1.633.01-1.057.03-2.12.03-3.144 0-3.17.31-5.896.93-8.92.685-3.368 2.33-6.91 3.83-10.588.28-.69 1.39-2.01 2.773-3.326 1.375-1.31 2.95-2.65 4.15-4.21 1.41-.02 3.12.26 4.94.84 2.716.86 5.54 2.285 7.993 3.69 1.23.764 2.41 1.532 3.415 2.27 1.41 1.04 2.27 1.62 2.837 1.97.146.086.257.167.446.26.098.044.2.105.49.18.146.04.316.094.765.06.45-.03 1.52-.4 1.95-1.34.43-.94.16-1.56.046-1.845-.12-.29-.21-.41-.277-.508-.14-.193-.207-.27-.274-.336-.137-.14-.236-.21-.35-.31-.94-.79-2.97-2.25-5.78-3.92-.27-.16-.61-.313-.888-.473-.9-.56-1.8-1.075-2.7-1.6 1.1.257 1.812.394 3.124.715 3.034.746 9.33 3.285 11.85 4.18.314.113.57.185.84.26.134.04.244.074.563.11.16.02.34.11.95-.074.305-.09.82-.29 1.235-.87.413-.577.472-1.426.365-1.89-.21-.926-.51-1.02-.654-1.16-.144-.14-.228-.2-.307-.26-.16-.114-.28-.18-.41-.257-.27-.16-.58-.34-1.01-.567-1.17-.62-4.62-2.328-7.69-3.845zm-455.52 9c.11.02.09.09.04.075-.01-.002-.08-.053-.09-.06.01 0 .04-.02.05-.014zm252.45.87c2.07-.05 4.913.53 7.712.53 2.155 0 4.49.126 6.346.58 2.922.72 5.17 1.523 8.24 2.274.44.11.803.2 1.14.307.026.05.06.106.09.156.415.65 1.126 1.047 1.89 1.07.095.14.19.29.29.49 1.32 2.596 3.79 4.245 5.295 5.355-.02-.016.67.854 1.112 1.89.44 1.036.802 2.225.99 2.96.42 1.64.97 2.81 1.326 3.782.36.98.566 1.765.566 3.085 0 3.1.834 6.87 1.37 9.5.34 1.69.09 7.07-.32 9.11-.86 4.22.21 7.97-.34 10.66-.76 3.72-.047 7.66-.047 10.49 0 2.774-.338 5.78-.338 9.043v.564c-.164.06-.313.142-.46.242-.59.387-.937.79-1.036.946.07-.014.043-.002-.018.06-.03.03-.03-.002.01-.06-.045.01-.068.02-.306.077-5.24 1.287-10.05 1.97-15.94 1.97-13.54 0-30.85-1.3-42.48-1.36v-1.72c.676-.2 1.362-.39 2.042-.58 3.453-.97 6.823-1.895 9.473-3.45.94-.54 1.382-1.65 1.07-2.686-.315-1.037-1.3-1.71-2.38-1.63-.365.023-.71.13-1.024.32-1.77 1.04-4.95 2.01-8.39 2.97-.26.073-.53.14-.79.215v-.09c0-2.283.34-4.68.34-7.43v-6.26c.784.605 1.715 1.12 2.82 1.465 2.53.786 6.545 1.94 10.04.81 2.55-.83 4.41-1.66 6.435-3.51.845-.77 1.306-1.626 1.83-2.606s1.04-2.07 1.54-3.08c.46-.937.908-1.79 1.3-2.41 1.264-.76 2.4-1.738 3.05-3.22.304-.66.24-1.44-.184-2.03-.427-.59-1.128-.9-1.848-.827-.73.08-1.367.544-1.65 1.22-.02.046-.064.09-.092.136-1.172.35-1.752 1.033-2.24 1.753-.155.077-.32.14-.49.216-1.605.715-3.705 1.38-5.766 2.315-1.166.522-4.387.67-7.645.38-2.788-.25-5.6-.69-7.78-.95.022-2.327.21-4.66.29-7.14.49-.154.91-.464 1.21-.9.48-.705.523-1.626.133-2.38-.276-.54-.745-.92-1.297-1.116v-5.82c0-2.65.05-4.35.82-6.24 1.13-2.773 1.67-5.27 2.793-7.11 1.785-2.917 2.43-4.224 4.58-6.33 1.66-1.632 3.69-2.494 6.316-3.784 2.18-1.07 5.67-1.27 9.073-2.108.39-.1.82-.13 1.3-.14zm51.262 3.31c2.07 0 3.2.626 4.256 1.66.942.925 1.72 2.266 2.456 3.68-.03.07-.03.063-.09.165-.31.528-.96 1.317-1.68 2.06-.71.746-1.5 1.465-2.16 1.985-.5.39-1.116.657-1.13.7-2.17.49-3.78.26-5.675-.3-1.96-.58-4.17-1.553-6.99-2.105-.5-.1-.865-.278-1.254-.43 1.285-1.297 2.435-2.7 3.74-3.906 2.16-2 4.494-3.505 8.525-3.505zm-630.67 1.41c-.14.004-.29.02-.43.047-8.32 1.422-17.335.79-26.51.93-1.39.02-2.49 1.16-2.47 2.546.02 1.39 1.16 2.51 2.545 2.49 8.89-.136 18.156.524 27.29-1.04 1.28-.23 2.17-1.39 2.06-2.684-.11-1.3-1.19-2.29-2.487-2.29zm84.37 9.84c.615.285 1.26.543 1.936.763.032.09.084.175.152.3.045.09.084.197.164.307.08.11.32.34.32.34l.015.02c2.505 5.05 4.63 8.023 8.24 12.963 2.17 2.97 5.03 5.31 8.41 6.12 3.38.81 7.21-.26 10.19-3.327 3.19-3.27 6.61-6.58 9-8.695.76-.67 1.1-.91 1.57-1.28h.02c.484.02.94-.1 1.34-.33.36.25.765.535 1.24.9 1.54 1.2 3.58 2.91 5.735 4.7s4.436 3.67 6.59 5.22c2.15 1.543 4.04 2.79 6.114 3.322 1.47.38 2.61.64 3.907.49 1.295-.15 2.64-1.08 3.28-2.04 1.28-1.93 1.444-3.68 2.9-6.67 2.252-4.63 2.605-6.46 4.5-10.39l.486.01c-.076 1.14-.15 2.33-.15 3.6v20.06c0 1.373.213 9.173.473 16.76.13 3.79.264 7.434.394 10.05.055 1.12.11 1.996.167 2.684-.12-.01-.174-.015-.21-.015h-.335c-.09.007-.19.02-.34.03l-1.233.08c-1.03.067-2.42.154-3.9.244-2.96.18-6.365.366-7.51.366-5.26 0-10.354-.03-15.18-1.02-1.54-.316-3.11-.456-4.665-.49-.587-.015-1.16-.02-1.74 0-4.05.11-7.97.79-11.2.79H203.3c-1.625 0-2.884-.013-3.905-.28-.23-.053-.46-.08-.69-.07.034-.51.05-.92.094-1.56.15-2.33.38-5.41.59-8.5.203-3.09.402-6.18.56-8.512.075-1.165.134-2.142.18-2.836.02-.35.046-.63.06-.822l.013-.23c.003-.06 0 .13 0-.24 0-2.46-.336-4.146-.336-6.086.32-10.585-.47-15.53.277-25.716v-.2c0-.174-.013-.5-.016-.716.24 0 .48-.01.7-.01.487.006 1.096.267.366-.07zm2.332 1.235c.04.086.082.136.122.217-.11-.15-.124-.22-.124-.22zm280.54.476c-.318 0-.6.05-.827.104-.89.22-1.46.59-1.51.61-.35.133-.663.37-.886.67-.533.737-1.215 1.654-1.113 3.216.054.78.54 1.77 1.314 2.29s1.606.654 2.517.654c.754 0 1.58-.184 2.242-.717.66-.53 1-1.316 1.096-1.936.195-1.234-.11-2.13-.29-2.834-.17-.68-.74-1.49-1.51-1.83-.39-.17-.725-.23-1.04-.23zm397.67 0c-.316 0-.6.05-.824.104-.89.22-1.44.59-1.49.61-.35.133-.66.37-.88.67-.53.737-1.212 1.654-1.11 3.216.05.78.54 1.77 1.31 2.29.775.52 1.62.654 2.534.654.75 0 1.56-.184 2.223-.717.662-.53 1-1.316 1.1-1.936.194-1.234-.128-2.13-.308-2.834-.17-.68-.724-1.49-1.494-1.83-.385-.17-.74-.23-1.053-.23zm-672.14.333c1.053.12 2.126.205 3.22.29 4.334.335 8.873.415 12.57.61 4.203.22 8.6.29 13.06.274-.646.49-1.324 1.083-2.15 1.814-2.558 2.26-6.01 5.63-9.26 8.97-2.014 2.068-3.648 2.35-5.446 1.92-1.8-.43-3.85-1.924-5.507-4.192-2.913-3.99-4.673-6.405-6.48-9.686zm58.744.564c1.01-.01 2 0 2.97 0-1.25 2.866-1.8 4.724-3.53 8.266-1.576 3.236-2.26 5.414-2.49 5.89-.205-.003-.733-.02-1.846-.304-.62-.16-2.46-1.135-4.425-2.546-1.963-1.41-4.18-3.232-6.315-5.002-2.13-1.77-4.17-3.493-5.855-4.803-.46-.36-.9-.686-1.312-.98 7.89-.156 15.73-.46 22.79-.52zm415.65 9.12c-.27 0-.5.047-.69.095-.76.19-1.25.5-1.3.52-.3.12-.56.32-.75.58-.456.63-1.063 1.41-.976 2.74.044.67.483 1.51 1.144 1.952.66.443 1.373.563 2.15.563.646 0 1.34-.16 1.91-.61.565-.46.86-1.14.944-1.67.17-1.06-.12-1.82-.276-2.43-.148-.576-.61-1.266-1.268-1.557-.33-.146-.63-.197-.9-.2zm-443.68 2.67c-.59-.04-1.39.125-2 .597-.61.474-.94 1.14-1.08 1.694-.44 1.74-.19 3.31.9 4.744.54.72 1.58 1.51 2.9 1.45 1.31-.05 2.28-.85 2.91-1.71.203-.28.36-.61.423-.96.42-2.09-.562-3.67-1.693-4.71-.57-.52-1.19-1.02-2.37-1.1zm307.99 3.267c-1.11.063-2.026.854-2.185 1.906-2.557 15.53-2.41 35.586-2.41 52.566 0 7.374-.15 14.775-.288 22.192-.06.06-.13.11-.185.17-.12.03-.105.05-.306.08-.84.13-2.235.2-3.72.23-2.97.053-6.35-.06-8.038-.06-6.932 0-14.312-1.45-21.964-1.45-4.9 0-9.83-.49-14.812-.49-2.036 0-3.975.982-4.972 2.38-.997 1.4-1.267 2.934-1.42 4.453-.3 3.037.027 6.32-.272 8.13-.5 3.03-.532 6.11-.52 9.06-.007.06-.026.123-.03.185-.05.717-.01 1.42.03 2.04v.715h.046c.01.16.014.323.014.458 0 .52.03.34-.01.508-.268.85-.048 1.78.58 2.41.625.63 1.546.86 2.393.6.85-.26 1.49-.97 1.65-1.84.15-.58.17-1.17.17-1.66 0-.457-.02-.937-.03-1.388v-.11c-.01-3.553-.08-7.11.44-10.235.48-2.88.08-6.13.31-8.435.116-1.154.4-1.975.627-2.29.225-.317.19-.384 1.007-.384 4.65 0 9.593.472 14.813.472 6.99 0 14.363 1.462 21.962 1.462 1.41 0 4.965.12 8.146.06 1.46-.03 2.81-.09 4.01-.248-.06 3.97-.12 7.93-.12 11.91 0 2.94-.46 5.44-.46 8.71 0 1.362.42 2.252.52 2.73.12.83.71 1.53 1.53 1.814.82.285 1.74.11 2.38-.457.64-.57.9-1.44.67-2.245-.22-1.05-.41-1.65-.41-1.845 0-2.82.457-5.334.457-8.71 0-12.92.472-25.91.472-38.93 0-17-.08-36.95 2.38-51.86.12-.674-.072-1.354-.55-1.86-.472-.51-1.18-.79-1.89-.75zm198.834 0c-1.11.063-2.01.854-2.167 1.906-2.56 15.53-2.44 35.586-2.44 52.566 0 7.374-.125 14.775-.26 22.192-.06.06-.128.11-.184.17-.12.03-.136.05-.337.08-.84.13-2.22.2-3.71.23-2.973.053-6.353-.06-8.04-.06-6.936 0-14.33-1.45-21.984-1.45-4.9 0-9.81-.49-14.8-.49-2.03 0-3.96.982-4.95 2.38-.99 1.4-1.28 2.934-1.43 4.453-.3 3.037.02 6.32-.277 8.13-.6 3.633-.52 7.35-.502 10.816v.017c-.02.222-.05.443-.06.67-.03.584-.03 1.192-.03 1.676 0 .67.13 1.004.17 1.023.18.834.81 1.512 1.63 1.77.848.26 1.768.03 2.395-.598.63-.63.85-1.564.58-2.41-.013-.057-.005-.035-.014-.076 0-.29.02-.59.03-.88h.09v-.93c.1-.39.097-.79 0-1.17v-.014c-.01-3.19-.003-6.35.46-9.156.474-2.88.075-6.13.304-8.43.112-1.154.4-1.975.623-2.29.224-.314.175-.38.99-.38 4.65 0 9.58.474 14.8.474 6.99 0 14.38 1.46 21.98 1.46 1.41 0 4.964.12 8.145.062 1.458-.03 2.826-.085 4.028-.244-.06 3.97-.12 7.93-.12 11.91 0 2.94-.456 5.44-.456 8.71 0 1.363.42 2.253.52 2.73.113.83.704 1.53 1.525 1.815.82.287 1.74.11 2.38-.455.646-.57.9-1.44.67-2.244-.22-1.05-.43-1.656-.43-1.85 0-2.823.48-5.337.48-8.71 0-12.92.472-25.91.472-38.93 0-17-.078-36.95 2.38-51.863.122-.673-.105-1.353-.58-1.86-.476-.51-1.163-.79-1.876-.75zm198.85 0c-1.11.063-2.023.854-2.18 1.906-2.56 15.53-2.426 35.586-2.426 52.566 0 7.374-.156 14.775-.29 22.192-.06.06-.11.11-.167.17-.12.03-.12.05-.32.08-.83.13-2.22.2-3.7.23-2.97.053-6.35-.06-8.04-.06-6.93 0-14.33-1.45-21.98-1.45-4.9 0-9.83-.49-14.81-.49-2.035 0-3.94.982-4.94 2.38-.995 1.4-1.28 2.934-1.433 4.453-.3 3.037.025 6.32-.273 8.13-.6 3.638-.535 7.36-.52 10.83v1.178h.02c-.006.12 0 .2-.015.337-.067.62-.196 1.42-.047 2.41 0 .024-.006.08-.03.184-.257.843-.03 1.774.593 2.396.62.62 1.537.85 2.38.593.842-.254 1.473-.95 1.647-1.815.108-.44.29-1.14.136-2.06-.01-.08-.007-.58.06-1.19.062-.58.205-1.22.05-2.18-.018-3.46-.048-6.91.453-9.95.477-2.88.08-6.13.307-8.44.118-1.16.4-1.98.63-2.29.225-.32.176-.38.993-.38 4.65 0 9.59.47 14.81.47 6.99 0 14.38 1.46 21.98 1.46 1.41 0 4.967.12 8.147.06 1.46-.03 2.81-.087 4.01-.245-.063 3.97-.108 7.934-.108 11.91 0 2.94-.49 6.067-.49 9.338 0 1.366.43 2.256.53 2.73.11.83.69 1.53 1.51 1.817.82.283 1.75.11 2.396-.46.642-.568.902-1.437.67-2.24-.22-1.05-.427-1.65-.427-1.847 0-2.82.47-5.96.47-9.335 0-12.917.48-25.906.48-38.927 0-17-.09-36.95 2.363-51.865.12-.675-.072-1.356-.55-1.86-.474-.51-1.16-.79-1.874-.75zm-705.178.46c.3-.015.555.08.746.18-.1.17-.12.3-.32.46-.1.08-.213.1-.323.15l-.8-.58c-.06.04-.07.06-.02-.01l.013.02c.09-.062.307-.196.687-.212zm249.752 7.975c-.216.45-.424.9-.626 1.3-.545 1.06-1.13 1.88-1.19 1.93-1.944 1.85-3.036 2.29-5.96 3.28-.324.11-3.41.19-6.226-.215-2.59-.37-5.216-.964-6.514-1.34-.073-1.498-.24-2.908-.382-4.27 2.264.296 5.265.816 8.33 1.112 3.704.36 7.51.514 10.736-1.008.587-.27 1.195-.53 1.83-.79zm-249.236 2.41c-.134-.01-.26.01-.395.01-.177.01-.347.02-.52.044-.684.106-1.334.353-1.936.704-.6.35-1.25.83-1.63 1.844-.37 1.01.04 2.52.75 3.235l.83.82c.61.61 1.13 1.06 1.847 1.41.713.35 2.004.6 3.05-.1 1.043-.7 1.243-1.687 1.31-2.308.02-.16-.03-.266-.03-.413.6-.453.954-1.163.945-1.92-.005-.75-.37-1.48-.973-1.92.05-.02-.43-.833-1.967-1.22-.44-.11-.86-.17-1.27-.18zm448.38 3.52c-.17.34-.33.69-.49.99-.45.84-.94 1.46-.99 1.51-1.61 1.47-2.52 1.83-4.94 2.62-1.39.45-5.387-.14-7.55-.81-1.998-.62-2.788-1.79-3.74-3.71 1.86.25 4.14.58 6.45.79 3.47.31 6.9.52 9.66-.73.51-.23 1.05-.46 1.604-.67zm-43.703 2.62c.11.02.09.08.04.06l-.09-.05.04-.02zm195.23 16.67c.05-.01.06.03.03.04-.01 0-.11.02-.127.03.01-.008.024-.04.03-.05.026-.01.045-.024.06-.03zM221.4 277.9h.076c.004.04.006.07-.03.21-.016-.08-.033-.14-.048-.218zm405.224.52c-4.165 0-7.53 2.21-9.9 4.082-.92.727-1.543 1.308-2.138 1.83-1.44-1.367-2.96-2.237-4.53-2.623-2.085-.516-4.057-.147-5.75.424-3.39 1.142-6.1 2.852-8.315 2.852-1.286 0-2.34 1.02-2.34 2.3 0 1.28 1.05 2.334 2.335 2.334 4.14 0 7.29-2.25 9.79-3.093 1.25-.43 2.232-.56 3.172-.32.94.23 2.04.84 3.43 2.56.57.69 1.72.97 2.31.88.58-.09.87-.27 1.11-.41.49-.29.79-.56 1.16-.87.75-.64 1.62-1.44 2.64-2.25 2.04-1.61 4.58-3.08 7.02-3.08 2.846 0 6.47 3.63 9.6 6.09.645.554 1.536.712 2.333.41.8-.307 1.36-1.03 1.465-1.878.107-.85-.237-1.688-.93-2.185-2.373-1.86-6.514-7.075-12.464-7.075zm166.725.88c-1.23.122-2.16 1.19-2.09 2.42.06 1.233 1.08 2.213 2.32 2.213 4.14 0 11.91 1.56 19.87 3.187 7.96 1.63 16.18 3.33 22.24 3.407 1.28.017 2.32-1.023 2.333-2.303.013-1.28-.996-2.316-2.276-2.332-5.216-.067-13.41-1.67-21.356-3.297-7.95-1.63-15.61-3.296-20.82-3.296-.08-.01-.15-.01-.23 0zm-341.1.485c-.01.01-.03.04-.12.04.013-.01.11-.05.12-.05zm279.36 0c.05 1.17.143 2.36.32 3.58.28 1.92.32 3.93.32 6.13 0 .48.05.73.11 1.25.06.51.115 1.15.213 1.89.19 1.48.46 3.36.714 5.25.22 1.58.406 3.08.58 4.45-.78.68-3.79 1.672-6.94 1.72-3.22.05-6.59-.79-7.78-1.66-1.714-1.264-3.666-1.76-5.29-1.33-1.628.435-2.62 1.39-3.434 2.11-.81.712-1.447 1.23-1.983 1.43-.54.2-1.046.31-2.29-.214-2.39-1.003-3.585-1.736-4.07-2.103-.243-.18-.29-.275-.26-.24-.03-.07-.024-.083-.18-.29-.26-.337-1.31-1.015-2.17-.9-.86.116-1.064.416-1.19.52-.124.106-.15.14-.17.155-.06.06.035-.03-.06.03-.185.125-.91.55-2.73 1.146-.836.273-1.396.503-1.71.564-1.554.3-4.015-.25-6.02-1.04-1.01-.4-1.9-.83-2.57-1.16-.332-.163-.6-.31-.852-.43-.13-.06-.237-.094-.443-.17-.105-.032-.21-.093-.505-.134-.15-.02-.344-.042-.7.015-.337.055-.924.22-1.39.748.03-.047-.13.115-.38.26-.336.195-.83.443-1.42.69-1.18.49-2.72.98-4.15 1.265-1.428.285-2.79.318-3.37.18-.154-.033-.106-.01-.14-.03-.08-.804-.574-1.48-1.25-1.83.16-1.61.32-3.415.49-5.37.397-4.554.78-8.98.78-10.645 0-1.646-.11-3.295-.21-4.88 11.297.066 28.583 1.34 42.36 1.34 6.25 0 11.514-.734 17.04-2.09.254-.06.495-.127.73-.21zm-78.268.44c-.01.01-.036.05-.125.04.02-.01.11-.05.12-.05zM424.46 284c-10.986 0-21.814.96-32.553.943-1.28 0-2.334 1.025-2.334 2.305s1.05 2.336 2.33 2.336c11.015.01 21.84-.95 32.553-.95 2.036 0 3.67.04 5.184.414 1.244.31 2.5-.463 2.81-1.706.31-1.244-.45-2.483-1.696-2.792-2.19-.533-4.24-.545-6.3-.545zm110.82.03v.044c0 3.26.54 6.926.06 8.8-.15.595-.13.835-.152 1.282-.02.445-.03.99-.03 1.584-.005 1.19.02 2.637.06 4.09.045 1.45.1 2.89.17 4.07 0 .058-.003.088 0 .14-1.673.174-2.912.55-4.043.55-5.666 0-11.79-.96-18.106-.96h-26.01c-5.38 0-12.29.266-16.78.304-.04-1.235-.09-2.967-.14-4.88-.1-3.995-.2-8.617-.2-9.49v-4.18c3.2-1.09 10.69-.984 18.46-.275 7.98.73 16.39 1.87 22.33 1.87 7.55 0 13.97-2.03 19.92-2.03 1.67 0 3.16-.5 4.45-.93zm397.687 0v.044c0 3.26.554 6.926.076 8.8-.15.595-.13.835-.156 1.282-.02.445-.04.99-.04 1.584-.007 1.19.02 2.637.06 4.09.04 1.45.113 2.89.183 4.07.003.058-.003.088 0 .14-1.68.173-2.925.55-4.057.55-5.668 0-11.806-.96-18.123-.96H884.9c-5.38 0-12.275.266-16.764.304-.04-1.235-.09-2.967-.14-4.88-.1-3.995-.2-8.617-.2-9.49v-2.61c.18-.144.37-.272.55-.426.683-.58 1.468-1.16 2.304-1.728 3.82-.436 9.623-.24 15.59.305 7.985.73 16.408 1.875 22.347 1.875 7.552 0 13.953-2.028 19.906-2.028 1.674 0 3.18-.504 4.47-.93zm-473.028 5.154c-.21-.005-.42.01-.63.06-2.52.617-5.14.885-8.07.885-10.99 0-21.45 1.4-32.07 1.4-11.39 0-22.87-.45-34.46-.45-7.57 0-17.99-.91-24.59-.49-1.3.08-2.27 1.17-2.19 2.44.09 1.26 1.2 2.23 2.49 2.15 5.83-.37 16.37.47 24.29.47 8.78 0 17.562.27 26.372.39-.02 4.575-.457 12.735-.457 18.95v12.48c-.187.195-.45.44-.825.765-.887.76-2.157 1.725-3.463 2.7-1.304.972-3.36 4.464-4.44 5.245-.34.25-.603.45-.883.658-.96-.125-1.89.335-2.35 1.172-.46.838-.358 1.87.274 2.59.025.038.023.06.075.14.106.154.205.402.84.79.32.192.864.423 1.51.364.616-.06 1.144-.36 1.45-.64-.01.004.003-.01.044-.05.08-.064.275-.207.486-.366.34-.254.8-.59 1.33-.977 1.07-.772 3.16-4.273 4.5-5.276 1.03-.766 2.03-1.535 2.92-2.26.68.66 1.45 1.14 2.24 1.63 2.24 1.4 5.195 4.26 5.75 4.94.435.536.894 1.164 1.4 1.83.5.67 1.347 1.025 2.185.93.837-.095 1.548-.64 1.876-1.404.33-.76.196-1.63-.32-2.29-.45-.584-.92-1.25-1.48-1.933-1.843-2.264-5.003-4.758-6.91-5.95-.72-.45-1.025-.744-1.28-.976.36-.72.29-1.563-.153-2.24-.04-.052-.08-.113-.123-.164V315c0-5.975.463-14.04.486-18.9 1.14.01 2.267.018 3.405.018 11.026 0 21.485-1.405 32.062-1.405 3.21 0 6.24-.266 9.2-.99 1.16-.26 1.95-1.36 1.82-2.52-.13-1.16-1.13-2.023-2.32-2.03zm198.83 0c-.22-.005-.42.01-.63.06-2.52.617-5.13.885-8.06.885-10.99 0-21.46 1.4-32.08 1.4-11.38 0-22.87-.45-34.46-.45-7.56 0-17.98-.91-24.59-.49-1.29.08-2.25 1.17-2.16 2.44.086 1.26 1.196 2.23 2.49 2.15 5.822-.37 16.35.47 24.27.47 8.78 0 17.58.27 26.39.39-.025 4.575-.49 12.735-.49 18.95v12.48c-.188.195-.435.44-.81.765-.89.76-2.16 1.725-3.464 2.7-1.308.972-2.664 3.2-3.74 3.98-.34.246-.59.45-.87.655-.96-.12-1.888.355-2.348 1.19-.46.84-.36 1.87.27 2.595.026.033.04.06.09.134.106.152.19.4.824.79.317.193.88.424 1.526.365.618-.053 1.147-.36 1.45-.64l.047-.042c.08-.064.26-.22.47-.38.33-.253.79-.59 1.32-.977 1.067-.774 2.424-3.01 3.77-4.012 1.025-.76 2.043-1.53 2.93-2.254.68.66 1.45 1.14 2.24 1.63 2.24 1.405 5.74 3.35 4.868 3.34-.1 0 .895 1.15 1.403 1.818.5.67 1.33 1.023 2.17.93.837-.097 1.55-.627 1.876-1.39.33-.765.23-1.65-.29-2.305-.45-.59-.933-1.25-1.49-1.94-1.846-2.262-4.106-3.14-6.01-4.33-.72-.45-1.03-.745-1.28-.977.36-.72.29-1.567-.158-2.24-.04-.057-.08-.118-.125-.17V315c0-5.976.434-14.04.456-18.9 1.14.01 2.28.016 3.42.016 11.03 0 21.503-1.4 32.08-1.4 3.21.002 6.24-.263 9.2-.99 1.156-.26 1.913-1.358 1.783-2.517-.13-1.16-1.118-2.03-2.305-2.03" fill="#fff"/></g></svg>