<svg viewBox="0 0 948 342" xmlns="http://www.w3.org/2000/svg"><g fill-rule="evenodd"><path d="M110.457 66.238c-23.36.117-46.685 1.68-70.05 1.212-5.353-.027-15.382-1.626-14.21 6.58-.508 27.217-1.793 54.418-1.99 81.64-.744 11.202-.553 43.02 6.464 52.663 9.83 14.492 25.29 6.41 43.73 6.345 20.63.09 40-7.826 59.75-12.514 7.7-2.612 7.17-12.252 8.16-18.726 1.548-20.13-.55-40.288-.66-60.415.77-16.89 5.2-33.986 1.377-50.8-3.69-6.385-12.68-4.943-19.067-5.768-4.494-.183-8.993-.226-13.49-.217" fill="#c7e660"/><path d="M503.83 18.185c-15.516 24.17-2.51 42.83 31.21 42.06 4.92-.88 8.73-3.666 11.39-7.2 2.66-3.53 4.304-7.837 5.254-12.287 1.9-8.902 1.206-18.268-1.837-23.902-3.78-6.998-12.032-9.895-20.004-10.063-7.973-.17-16.03 2.072-21.08 6.153-1.97 1.59-3.598 3.363-4.933 5.24" fill="#faeb7d"/><path d="M658.055 290.715c-30.045 17.994-4.863 31.885 60.437 31.313 9.522-.657 16.903-2.73 22.052-5.36 5.15-2.63 8.335-5.835 10.174-9.15 3.677-6.625 2.336-13.598-3.556-17.793-7.318-5.21-23.298-7.365-38.737-7.49-15.438-.127-31.038 1.54-40.818 4.58-3.813 1.184-6.967 2.503-9.552 3.9" fill="#ffbfa7"/><path d="M670.57 8.904c-23.237 18.876-3.762 33.447 46.744 32.85 7.365-.69 13.074-2.865 17.056-5.624 3.983-2.76 6.446-6.122 7.87-9.597 2.843-6.952 1.805-14.267-2.752-18.667-5.66-5.465-18.02-7.727-29.96-7.86-11.94-.13-24.007 1.62-31.57 4.807-2.95 1.242-5.388 2.626-7.388 4.09" fill="#be9f81"/><path d="M898.295 94.985c34.812 21.522 5.635 38.135-70.027 37.452-11.033-.787-19.584-3.265-25.552-6.41-5.966-3.145-9.657-6.982-11.787-10.943-4.26-7.926-2.71-16.266 4.12-21.282 8.48-6.232 26.99-8.81 44.88-8.962 17.88-.15 35.96 1.847 47.29 5.48 4.412 1.417 8.07 2.994 11.063 4.665M508.76 251.22c-18.347 25.935-2.97 45.955 36.904 45.13 5.815-.945 10.322-3.934 13.466-7.722 3.145-3.79 5.09-8.413 6.213-13.186 2.245-9.55 1.426-19.6-2.173-25.647-4.467-7.507-14.226-10.615-23.654-10.796-9.427-.19-18.953 2.22-24.925 6.6-2.32 1.7-4.25 3.6-5.83 5.62" fill="#c0cae0"/><path d="M696.577 1.045c-1.717.002-3.3.803-4.882 2.12-1.36 1.135-2.33 2.474-3.066 3.83-.74-1.016-1.54-1.936-2.49-2.595-1.46-1-3.41-1.603-5.28-.838-1.48.605-2.46 1.93-3.04 3.555-2.366-1.357-5.06-1.414-6.96-.2-2.123 1.363-3.28 3.622-3.736 5.996-.46 2.374-.21 5.02 1.31 7.2.992 1.42 2.565 2.484 4.5 2.974-.145.138-.264.257-.41.397-1.484 1.414-3.05 2.885-3.89 4.943-1.433 3.513-3.218 7.267-4.058 11.393-.664 3.252-1.056 6.345-1.056 9.84 0 .657-.03 1.408-.06 2.197-.205-.014-.397-.034-.61-.047-1.874-.113-3.932-.168-5.415-.213-.075-.004-.14-.004-.213 0-1.28.025-2.315 1.068-2.29 2.348.025 1.282 1.1 2.314 2.38 2.29 1.502.045 3.51.09 5.262.198.343.02.66.052.976.076.078.71.203 1.43.38 2.13.48 1.87.597 4.5.597 6.86 0 3.56.653 6.53.653 9.36v8.086c0 2.9.32 5.67.32 8.084v3.754c-2.57-.87-4.736-1.096-6.803-1.283-2.138-.19-4.218-.35-7.154-1.14-3.163-.855-5.908-.985-7.705-1.47-.23-.065-.467-.096-.7-.09-.24.008-.47.05-.69.123-.757-.87-1.673-1.557-2.67-2.273-1.24-.89-2.593-1.75-3.72-2.47-.51-.326-.61-.42-.993-.687-.04-1.12-.936-2.025-2.06-2.075-.32-.02-.61-.026-1.003.043-.394.068-1.064.18-1.648 1.007-.586.825-.37 1.952-.14 2.41.23.46.44.656.64.854.778.76 1.67 1.304 2.76 2-.27-.06-.65-.17-.883-.214-.653-.13-1.04-.2-1.66-.186-.156.005-.324-.015-.61.062-.287.076-.796.212-1.267.884-.47.676-.4 1.73-.2 2.185.205.45.41.615.55.747.565.534.806.583 1.206.78.4.196.85.384 1.355.594 1.173.49 2.446.98 3.66 1.39-.637.32-1.116.518-1.69.9-.92.61-1.42 1.01-1.59 1.11-.166.108-.066.1-.656.17-.8.05-1.506.538-1.83 1.27-.326.73-.22 1.59.274 2.21.496.63 1.3.947 2.09.8.9-.113 1.77-.395 2.394-.78.622-.385.94-.69 1.693-1.19.524-.347 2.577-1.198 4.088-2.18.38-.246.738-.51 1.116-.93.35-.39.825-1.08.76-2.045.07.024.14.042.213.06 2.575.694 5.136.774 7.7 1.464 3.32.89 5.84 1.103 7.95 1.295 2.11.19 3.78.368 5.95 1.13.417.167.854.19 1.28.11.043 1.952.255 3.904.06 4.665-.56 2.194-.4 4.216-.395 5.963-1.396.946-2.832 1.84-4.15 2.96-.07.053-.14.12-.2.18-.365-.94-1.11-1.354-1.6-1.556-.52-.21-.956-.278-1.404-.337-1.795-.235-4.035-.135-4.683-.23-.91-.13-1.35-.27-2.076-.35-.726-.08-1.61.04-2.47.32-1.133.37-1.755 1.585-1.39 2.718.202.62.65 1.075 1.206 1.31-10.073.185-19.75 1.39-29.544 1.39-4.662 0-9.353-.094-14.05-.185l-1.707.076-.884-.125c-5.913-.118-11.846-.244-17.815-.244-7.565 0-17.974-.892-24.575-.474-1.29.08-2.268 1.17-2.18 2.44.082 1.266 1.18 2.232 2.47 2.15 5.823-.37 16.363.472 24.283.472 8.78 0 17.56.285 26.372.412-.02 4.57-.457 12.7-.457 18.914v12.475c-.186.194-.45.44-.824.764-.887.764-2.157 1.743-3.46 2.717-1.307.974-3.044 2.836-4.12 3.617-.34.247-.606.435-.886.64-.96-.123-1.904.352-2.364 1.19-.46.837-.34 1.872.29 2.594.03.037.04.06.094.138.105.155.204.403.84.79.314.196.863.426 1.51.37.614-.057 1.143-.36 1.446-.64-.01.005.004-.007.046-.047.076-.064.26-.222.47-.38.337-.25.794-.59 1.327-.975 1.064-.775 2.834-2.613 4.18-3.616 1.023-.765 2.025-1.53 2.91-2.257.68.657 1.453 1.122 2.24 1.616 2.244 1.4 4.27 2.554 4.82 3.233.44.538.898 1.166 1.405 1.83.496.67 1.33 1.027 2.164.93.84-.093 1.55-.623 1.88-1.387.326-.762.21-1.632-.306-2.287-.45-.59-.92-1.25-1.48-1.94-1.845-2.26-4.06-3.08-5.966-4.27-.722-.45-1.04-.73-1.295-.96.36-.724.29-1.583-.155-2.26-.036-.054-.065-.1-.106-.15v-11.73c0-5.98.45-14.013.473-18.87 1.136.007 2.263.015 3.4.015 10.907 0 21.28-1.39 31.743-1.42-.153.194-.305.427-.485.9-.07.186-.155.412-.136.916.02.504.43 1.46 1.13 1.846.7.388 1.206.297 1.495.244.29-.05.453-.12.594-.18.57-.25.866-.476 1.404-.87.227-.17.576-.466.84-.673-.7 1.134-1.28 1.996-1.664 3.054-.094.268-.21.53-.212 1.054-.005.52.34 1.63 1.204 2.104.87.473 1.51.29 1.89.182.387-.107.647-.23.934-.384 1.01-.528 1.44-1.75.977-2.79.22-.39.262-.508.564-.994.7-1.123 1.535-2.454 2.26-3.782.575-1.052 1.09-2.06 1.39-3.158.445-.06.885-.24 1.234-.55.318-.27.7-.55 1.113-.84-.034.64-.088 1.59-.183 2.853-.14 1.785-.32 3.96-.507 6.01-.182 2.048-.353 3.987-.488 5.247-.045.4-.06.557-.09.795v.016l-.018.03c-.004.024 0 .03 0 .048-.086.244-.134.5-.137.76 0 .1 0 .168.018.35.01.096-.01.2.12.58.032.1.057.21.152.38.095.175.593.675.594.675l1.56.505s1.066-.295 1.326-.503c.3-.24.48-.422.597-.564.522.3 1.095.473 1.63.593.1.025.188.044.29.06-.573.68-1.19 1.425-1.862 2.336-2.03 2.75-4.162 6.647-4.162 11.624 0 2.22.005 5.62.075 8.62.035 1.5.085 2.893.153 4.01.03.56.07 1.056.12 1.48.05.426.01.655.29 1.343.44 1.2 1.758 1.8 2.96 1.355 1.204-.44 1.83-1.757 1.39-2.96.007.015-.026-.105-.05-.29-.03-.283-.06-.695-.09-1.204-.06-1.02-.12-2.375-.15-3.843-.07-2.937-.06-6.32-.06-8.513 0-3.66 1.537-6.534 3.264-8.877.865-1.17 1.75-2.18 2.518-3.097.63-.754 1.27-1.265 1.63-2.38 1.507-.345 2.97-.825 4.227-1.33.75-.3 1.432-.61 2.03-.944l.133-.077c.185.084.424.204.642.302-1.653 1.11-2.962 2.734-3.952 4.47-1.707 3-2.695 6.53-3.157 9.704-.16 1.095-.313 2.196-.472 3.294-.55 3.783-.877 8.56.045 12.187.17.837.784 1.506 1.603 1.752.82.244 1.7.023 2.304-.58.603-.608.83-1.488.58-2.306-.573-2.25-.433-6.995.06-10.388.16-1.098.33-2.2.49-3.295.393-2.71 1.29-5.82 2.577-8.08 1.29-2.262 2.73-3.467 4.365-3.57.76-.022 1.433-.427 1.846-1.05 1.49.28 3.086.365 4.698.06 1.06-.202 1.803-.56 2.303-.72 1.25-.392 2.082-.723 2.76-1.034.992.71 2.512 1.51 5.14 2.578 2.124.864 4.17.885 5.765.306 1.6-.58 2.674-1.574 3.495-2.273.82-.7 1.38-1.054 1.615-1.114.232-.06.433-.174 1.493.58 2.857 2.026 6.86 2.59 10.83 2.533 3.36-.05 6.647-.476 9.14-2.077.06.342.13.672.2.942.184.82.79 1.47 1.6 1.706.81.233 1.69.015 2.29-.58.596-.598.825-1.48.59-2.29.017.056-.214-1.01-.41-2.228-.194-1.215-.426-2.77-.64-4.3-.213-1.53-.4-3.04-.52-4.225-.06-.59-.104-1.114-.12-1.464-.01-.172.006-.354.015-.424.81-3.507.014-7.24.014-9.705 0-3.34-.176-6.494.303-9.32.52-3.05.35-6.02.35-8.77 0-2.89.994-6.25.994-10.02 0-4.01.323-8.013.323-12.294-.004-3.45 0-6.894 0-10.343-.004-3.28-.324-6.49-.324-9.38 0-3.588-.547-6.636-1.39-9.947-.48-1.89-.705-3.756-1.314-6.147-.71-2.793-2.38-4.478-3.14-5.98-1.26-2.477-2.918-4.185-4.18-5.843-.85-1.107-1.937-2.064-3.05-2.897.19-.36.36-.707.58-1.1.77-1.372 1.62-2.902 2.192-4.53.573-1.624 1.015-3.652-.184-5.52-1.2-1.867-3.48-2.516-6.193-2.516-3.246 0-5.734 1.394-7.61 3.095-.078-.31-.12-.63-.215-.918-.8-2.39-2.49-4.084-4.35-4.806-1.858-.72-3.758-.59-5.34 0-1.58.59-3.076 1.628-3.57 3.6-.217.872-.33 1.114-.52 1.815-.48-1.575-1.097-3.18-2.286-4.576-.918-1.08-2.417-2.03-4.133-2.03zm.015 4.774c.145 0 .162-.04.488.35.65.76 1.475 3.09 2.028 5.18.122.46.25.89.366 1.322-2.314-.086-4.92-.16-7.505.473-.18.042-.38.067-.57.107.04-.222.1-.44.17-.685.47-1.92 1.48-4.34 3.17-5.75 1.08-.9 1.7-1.008 1.84-1.01zm13.133.71c.34-.01.685.02.976.132.59.225 1.12.62 1.54 1.89.33.96.51 2.464.29 4.61-.92-.026-1.66-.11-2.04-.26-.89-.35-1.75-.514-2.58-.58-.43-.034-.85-.04-1.25-.03.42-1.298.9-2.965 1.45-5.17.03.026.22-.265.66-.43.29-.11.62-.16.96-.166zM682.68 7.97c.06.005.29.052.748.367 1.156.796 2.75 3.23 2.912 6.01-.82.237-1.635.52-2.41.9-.397.195-.912.41-1.495.656.398-1.138.225-2.173-.167-3.463-.092-.3-.322-.622-.458-.93.084-.667.128-1.23.305-2.12.266-1.332.62-1.442.565-1.42zm41.918 1.663c1.625 0 2.077.292 2.15.336.002-.05-.002-.05.016-.02.01.02 0 .02-.015.01-.01.12 0 .554-.28 1.34-.37 1.043-1.1 2.43-1.86 3.78-.17.293-.33.57-.49.854-1.77-.988-3.61-1.85-5.75-2.41.04-.064.08-.134.12-.198 1.33-1.96 3.18-3.708 6.1-3.708zm-50.506.976c.077-.02.157-.01.243 0 .346.03.794.25 1.495.77.47.35.733.69 1.008 1.02-.09 1.11-.066 2.02.045 2.79.11.76.047 1.49 1.206 2.41.1.08.23.15.36.212-.47.285-.92.607-1.35.992-.36-.166-.75-.266-1.174-.23-2.227.186-3.02-.4-3.585-1.205-.564-.81-.795-2.2-.534-3.557.26-1.354 1.014-2.51 1.616-2.898.227-.147.424-.28.655-.32zM507 12.3c-.387.01-.745.04-1.098.076-1.418.144-2.628.365-3.875.365-2.788 0-6.288-.45-9.763.4-2.006.49-5.295.76-8.04 2.11-.852.42-2.255.948-3.675 1.62-1.42.674-2.93 1.45-4.06 2.93-.72.93-2.18 2.277-3.66 3.69-1.49 1.415-3.06 2.87-3.89 4.927-1.43 3.516-3.22 7.285-4.06 11.41-.66 3.253-1.06 6.346-1.06 9.84 0 .658-.036 1.41-.06 2.198-.21-.013-.4-.033-.61-.046-1.878-.113-3.936-.183-5.42-.228-.074-.006-.14-.006-.213 0-1.28.023-2.313 1.08-2.29 2.36.026 1.283 1.1 2.3 2.38 2.275 1.504.045 3.51.106 5.263.214.35.02.66.05.976.076.076.714.2 1.433.38 2.134.48 1.872.58 4.48.58 6.85 0 3.56.67 6.542.67 9.38v8.082c0 1.67.092 3.285.184 4.82-.26-.07-.514-.09-.79-.06-2.85.134-5.025.767-7.08 1.39-2.054.625-4.044 1.235-7.06 1.604-3.25.398-5.857 1.33-7.705 1.557-.49.03-.946.205-1.31.503-1.017-.51-2.11-.8-3.28-1.085-1.487-.36-3.06-.636-4.38-.883-.586-.11-.707-.143-1.16-.246-.365-.836-1.224-1.364-2.135-1.296-.195.012-.38.055-.566.12-.308.105-.59.232-.93.443-.34.21-.914.54-1.146 1.525-.23.984.376 1.965.764 2.304.382.34.665.447.93.55.993.41 2.032.58 3.29.81-.262.046-.656.097-.883.14-.66.127-1.05.194-1.62.442-.144.06-.3.127-.536.305-.235.18-.67.498-.852 1.298-.04.18-.043.356-.03.538-5.137-5.95-10.893-12.095-13.453-16.856-.41-.8-1.236-1.3-2.135-1.3-.844.005-1.62.447-2.044 1.177-.424.73-.44 1.64-.03 2.38 3.87 7.194 12.08 15.05 17.48 21.8 2.97 3.71 5.547 6.96 9.03 10.45.04.04.08.083.125.12-6.378.403-12.656.914-18.993.914-8.213 0-16.48-.246-24.8-.38 1.755-.213 3.63-.426 4.346-.426h17.235c.86.01 1.656-.43 2.09-1.175.433-.743.433-1.68 0-2.425-.434-.745-1.23-1.188-2.09-1.177h-17.23c-1.1 0-2.46.15-3.813.32-.448-.514-1.09-.8-1.77-.81-.66 0-1.285.27-1.74.75-.36.04-.814.115-1.48.38-.205.084-.373.16-.61.29-.117.067-.262.146-.457.306-.194.16-.508.36-.763 1.114-.254.75.15 2.11.67 2.577.095.082.165.14.246.2-1.43-.014-2.855-.017-4.288-.017-7.566 0-17.99-.894-24.59-.476-1.293.084-2.266 1.173-2.183 2.44.085 1.27 1.197 2.235 2.487 2.15 5.83-.37 16.37.475 24.29.475 8.78 0 17.565.286 26.375.41-.02 4.575-.458 12.705-.458 18.92v12.475c-.187.195-.45.44-.825.764-.884.76-2.154 1.74-3.46 2.712-1.305.973-3.363 4.466-4.44 5.247-.34.245-.604.433-.884.64-.96-.12-1.89.352-2.35 1.19-.46.84-.356 1.856.276 2.58.025.033.024.074.075.15.108.16.207.404.84.793.318.195.865.426 1.51.367.616-.056 1.145-.375 1.45-.656-.012.005.004-.007.045-.047.08-.065.274-.21.49-.366.333-.252.79-.574 1.323-.96 1.066-.774 3.155-4.275 4.5-5.28 1.025-.763 2.028-1.516 2.914-2.24.68.66 1.45 1.11 2.243 1.6 2.24 1.404 5.198 4.28 5.75 4.96.438.537.897 1.15 1.404 1.814.495.67 1.343 1.04 2.18.948.84-.095 1.55-.625 1.877-1.388.33-.766.198-1.65-.32-2.306-.45-.59-.92-1.25-1.48-1.94-1.84-2.265-5-4.774-6.91-5.966-.72-.45-1.024-.73-1.28-.96.36-.724.294-1.58-.15-2.258-.036-.056-.08-.117-.12-.17v-11.71c0-5.978.463-14.01.486-18.87 1.136.008 2.264.016 3.4.016 9.718 0 19.006-1.098 28.313-1.358.18.44.495.88.96 1.145.866.49 1.507.31 1.89.213.387-.1.66-.233.948-.38.465-.234.8-.61.994-1.05 2.834-.058 5.515-.346 8.16-.996 1.16-.26 1.947-1.34 1.816-2.5-.133-1.16-1.13-2.028-2.32-2.03-.21-.006-.42.022-.626.074-1.65.406-3.355.655-5.154.777.363-.58.74-1.183 1.08-1.782.59-1.026 1.122-2 1.45-3.066.47-.067.925-.27 1.282-.61 1.43-1.17 3.91-2.417 6.435-4.485.465-.38.975-.755 1.51-1.13-.01.076-.014.155-.03.215-.57 2.24-.396 4.3-.396 6.07v4.853c0 1.176.08 5.59.18 9.594.05 2.002.1 3.86.14 5.11.02.626.047 1.096.06 1.373.004.07-.004.12 0 .183.002.03.01.077.015.137.003.03.003.06.014.138.003.04.01.077.03.17.02.095.26.626.26.626l1.553.218c.66.494 1.417.772 2.12.93.148.034.28.052.43.077-.573.673-1.194 1.414-1.862 2.32-2.027 2.75-4.162 6.645-4.162 11.622 0 2.22.005 5.62.075 8.618.037 1.5.087 2.898.15 4.017.038.56.077 1.04.126 1.465.047.426.024.654.305 1.34.44 1.206 1.755 1.817 2.96 1.376 1.202-.44 1.83-1.757 1.39-2.96.01.015-.026-.105-.047-.29-.03-.283-.06-.695-.09-1.204-.06-1.02-.12-2.376-.15-3.844-.068-2.936-.076-6.32-.076-8.512 0-3.66 1.537-6.535 3.265-8.878.862-1.17 1.762-2.18 2.53-3.098.64-.763 1.28-1.293 1.633-2.44 1.45-.34 2.863-.78 4.07-1.267.755-.3 1.42-.61 2.015-.944l.138-.077c.21.1.492.204.747.32-1.625 1.107-2.91 2.735-3.89 4.453-1.71 3-2.694 6.527-3.155 9.703-.16 1.098-.315 2.2-.475 3.296-.55 3.785-.876 8.564.046 12.19.17.84.786 1.506 1.6 1.753.82.246 1.7.025 2.308-.58.602-.606.83-1.5.58-2.32-.574-2.25-.45-6.98.043-10.37.16-1.1.313-2.2.473-3.296.39-2.715 1.32-5.824 2.603-8.086 1.29-2.265 2.714-3.47 4.35-3.57.76-.02 1.444-.415 1.86-1.04 1.45.26 2.986.34 4.546.047 1.06-.2 1.803-.554 2.303-.713 1.26-.397 2.095-.74 2.774-1.05.994.71 2.48 1.523 5.11 2.59 2.126.863 4.17.87 5.767.29 1.6-.58 2.69-1.56 3.51-2.257.824-.7 1.384-1.07 1.617-1.13.237-.06.438-.157 1.498.597 2.855 2.025 6.86 2.59 10.83 2.53 2.984-.043 5.893-.38 8.253-1.572.285.58.8 1.02 1.436 1.208.81.237 1.69.017 2.29-.58.58-.574.81-1.405.61-2.195.034.04-.11-.964-.167-1.938-.067-1.116-.13-2.54-.17-3.95-.04-1.418-.065-2.83-.06-3.94.003-.554.015-1.03.03-1.374.013-.255.056-.494.046-.47.865-3.544.03-7.33.03-9.825 0-3.34-.17-6.494.31-9.32.516-3.05.364-6.04.365-8.783 0-2.89.99-6.253.99-10.02 0-4.014.32-8 .32-12.28V58.72c0-3.28-.32-6.492-.32-9.38 0-3.587-.543-6.635-1.386-9.946-.487-1.89-.72-3.756-1.33-6.148-.71-2.792-2.36-4.477-3.13-5.98-1.26-2.476-2.915-4.185-4.18-5.842-1.59-2.08-4.01-3.673-5.934-4.805-2.224-1.31-4.476-2.49-7.217-3.16-1.67-.41-3.23-.31-4.59-.29-1.368.02-2.516-.06-3.024-.26-.884-.35-1.75-.52-2.575-.58-.41-.04-.82-.04-1.204-.03zm362.19.686c-.3-.002-.61.01-.915.03-.693.043-1.397.132-2.105.29-1.288.288-2.103 1.578-1.815 2.868.288 1.287 1.58 2.087 2.868 1.8 3.45-.768 7.527.93 11.61 3.187-3.13-.24-6.29-.46-9.124-.45-1.14 0-2.22.04-3.22.12-4.01.35-5.97.43-7.81 1.15-.93.357-1.75.934-2.38 1.556-.63.623-1.13 1.268-1.8 2.074-.85 1.012-.7 2.525.32 3.37 1.01.844 2.49.693 3.34-.32.7-.84 1.18-1.41 1.49-1.72.31-.316.41-.38.73-.507.64-.25 2.492-.49 6.51-.84 2.41-.21 5.945-.05 9.625.2-5.214 1.966-10.113 4.697-13.76 8.343-.93.935-.92 2.44.016 3.37.936.93 2.427.934 3.357 0 1.88-1.883 4.352-3.566 7.123-5.004-1.33 1.633-2.213 3.213-3.445 5.23-1.672 2.738-2.21 5.51-3.126 7.764-.17.42-.32.84-.444 1.25-2.12-1.706-4.09-2.655-5.98-3.54-1.94-.91-3.826-1.77-6.3-3.506-2.666-1.873-5.216-2.938-6.725-3.998-.377-.275-.832-.43-1.295-.443-.4-1.07-1.02-2.024-1.694-3.02-.844-1.26-1.794-2.515-2.59-3.57-.348-.46-.4-.56-.656-.93.35-1.08-.188-2.247-1.24-2.67-.298-.13-.568-.25-.96-.32-.196-.037-.45-.09-.76-.06-.315.025-.675.15-1.086.423-.825.55-1.078 1.66-1.024 2.18.05.52.2.796.32 1.05.474 1.013 1.14 1.816 1.936 2.87-.276-.18-.66-.435-.9-.58-.57-.343-.908-.55-1.496-.747-.147-.048-.303-.096-.595-.12-.293-.027-.817-.086-1.48.364-.666.45-.974 1.45-.947 1.95.028.5.142.736.23.914.345.71.562.822.868 1.144.307.32.684.65 1.084 1.02.915.842 1.92 1.73 2.9 2.515-.725.08-1.27.1-1.953.26-1.08.254-1.7.447-1.904.488-.203.04-.105.09-.687-.043-.77-.227-1.61-.01-2.167.566-.56.578-.74 1.407-.49 2.168.255.76.903 1.32 1.696 1.448.883.204 1.782.238 2.5.093.713-.145 1.15-.31 2.042-.52.635-.15 2.87-.26 4.636-.655.44-.1.873-.2 1.37-.457.47-.244 1.155-.734 1.435-1.694.068.057.152.115.23.166 2.176 1.53 4.57 2.482 6.726 3.995 2.8 1.966 5.09 3.01 7 3.906 1.92.9 3.43 1.628 5.19 3.07.566.51 1.34.69 2.073.52-.037.826-.03 1.66-.03 2.504v5.447c-1.486-.09-2.968-.17-4.453-.26-.08-.01-.16-.013-.24-.014-1.28-.01-2.323 1.01-2.335 2.29-.012 1.28 1.023 2.335 2.305 2.35l4.683.29c-.087 2.48-.275 4.985-.275 7.685 0 3.058.655 5.58.655 8.087v8.07c0 2.35-.34 4.74-.34 7.43v3.14c-2.81.42-5.68.93-8.298 1.805-2.494.835-5.06 1.047-7.583 1.89-.085.03-.162.07-.242.11.007-1.01-.548-1.675-.93-2.044-.405-.39-.78-.62-1.175-.84-1.58-.885-3.687-1.626-4.256-1.95-.8-.46-1.16-.74-1.8-1.086s-1.508-.566-2.41-.625c-.078-.004-.16-.004-.23 0-1.13.066-2.016.976-2.03 2.105-.017 1.13.84 2.084 1.97 2.18.59.04.483.04.67.14.18.096.73.47 1.69 1.02.61.35 1.117.54 1.784.825-1.155.474-2.37 1.028-3.475 1.57-.49.24-.94.468-1.327.688-.38.222-.61.273-1.14.855-.134.145-.32.32-.488.793-.17.474-.14 1.515.366 2.135.508.62 1.01.72 1.3.777.287.06.454.066.61.06.62-.017 1.002-.138 1.647-.304.27-.07.707-.213 1.02-.305-1.07.79-1.933 1.37-2.68 2.21-.19.214-.382.434-.58.917-.197.484-.28 1.635.35 2.396.63.76 1.268.823 1.664.87.394.043.683.02 1.005-.017 1.137-.113 2.002-1.102 1.952-2.243.35-.28.424-.347.885-.687 1.064-.787 2.344-1.707 3.51-2.67.934-.773 1.796-1.533 2.485-2.456.423.114.88.12 1.328-.03 1.743-.58 4.51-.87 7.597-1.905 1.946-.654 4.325-1.097 6.817-1.48v.243c0 2.87.337 5.68.337 8.084 0 .892-.24 5.674-.52 10.08-.14 2.203-.3 4.354-.43 6.024-.063.834-.115 1.54-.166 2.06-.016.16-.04.3-.06.44-.175.327-.29.687-.29 1.084 0 1.28 1.055 2.334 2.336 2.334 1.54 0 3.435-.045 5.446-.09-.65.73-1.405 1.592-2.227 2.67-2.046 2.67-4.226 6.463-4.226 11.33 0 2.154.02 5.463.09 8.374.035 1.456.084 2.8.153 3.89.034.545.07 1.034.12 1.45.05.415 0 .636.29 1.326.454 1.18 1.78 1.766 2.96 1.314 1.182-.454 1.78-1.778 1.327-2.96.02.04-.01-.045-.03-.23-.032-.27-.06-.696-.09-1.19-.062-.984-.12-2.296-.154-3.72-.07-2.85-.09-6.125-.09-8.253 0-3.516 1.54-6.288 3.28-8.558.866-1.133 1.77-2.112 2.545-3.003.68-.786 1.396-1.28 1.74-2.58 1.72-.04 3.415-.078 5.006-.09-.78.842-1.45 1.8-2.016 2.79-1.71 3-2.68 6.53-3.14 9.702l-.478 3.298c-.55 3.784-.874 8.56.048 12.19.316 1.24 1.567 1.99 2.81 1.675 1.24-.313 2.007-1.563 1.69-2.807-.57-2.25-.444-6.996.05-10.39.158-1.097.31-2.2.47-3.294.396-2.716 1.29-5.825 2.58-8.087 1.287-2.263 2.74-3.468 4.377-3.57.85-.02 1.61-.495 2-1.25.043-.085.074-.186.106-.275h19.144c5.82 0 11.932.976 18.104.976 1.22 0 2.22-.163 3.114-.32.38.27.843.41 1.343.41.724 0 1.374-.318 1.8-.838.962-.283 1.663-1.173 1.663-2.227 0-.825-.436-1.542-1.085-1.954.023-1.664.043-3.177.09-5.737.07-3.77.122-7.335.122-8.113 0-2.23.004-4.47-.335-6.8-.42-2.865-.32-5.873-.32-9.045 0-2.935.33-5.922.33-9.045 0-3.44-.532-7.17-.045-9.56.862-4.234-.222-8.015.32-10.68.583-2.864 1.006-7.644.336-10.935-.54-2.644-1.264-6.397-1.264-8.59 0-1.917-.405-3.44-.856-4.667-.45-1.226-.886-2.147-1.19-3.34-.24-.935-.644-2.29-1.22-3.646-.58-1.356-1.16-2.73-2.61-3.798-1.44-1.06-3.5-2.867-3.92-3.695-.712-1.397-1.77-2.5-2.93-3.17-1.16-.677-2.356-.99-3.54-1.285-2.832-.697-5.072-1.47-8.22-2.244-2.51-.614-5.15-.715-7.46-.715-1.73 0-4.35-.69-7.2-.63-.15.008-.306.01-.46.02l-.105-.72s-.406-.11-.473-.12c-.135-.02-.154-.014-.184-.015-.322-.016-.32-.004-.35 0-.516-.426-1.194-.652-1.907-.532l-.09.015c-.277-.057-.55-.077-.838-.03-.585.05-1.954-.308-3.663-1.16-1.706-.85-3.74-2.086-5.947-3.326-3.625-2.037-7.825-4.2-12.343-4.21zM507.137 16.92c.715-.03 1.296.033 1.952.29 1.69.668 3.33.615 4.77.595 1.44-.02 2.71-.02 3.41.152 2.095.514 3.865 1.417 5.962 2.654 1.64.97 3.85 2.64 4.607 3.63 1.46 1.91 2.842 3.37 3.737 5.13 1.167 2.29 2.442 3.71 2.775 5.02.53 2.08.76 3.92 1.326 6.15.793 3.126 1.234 5.676 1.234 8.8 0 3.226.32 6.43.32 9.384v10.34c0 4.037-.32 8.023-.32 12.28 0 2.847-.99 6.22-.99 10.02 0 2.893.113 5.63-.29 8.01-.303 1.78-.414 3.52-.43 5.217-1.95.505-3.917 1.143-4.39 1.143-6.925 0-13.25 2.03-19.923 2.03-5.315 0-13.796-1.14-21.92-1.88-7.08-.65-13.774-1.188-18.746.01.036-.25.08-.49.137-.717.39-1.53.333-2.99.23-4.24.785-.446 1.584-.89 2.38-1.328 3.136-1.737 6.224-3.404 8.45-5.523.7-.65.916-1.66.564-2.546-.352-.89-1.212-1.47-2.165-1.466-.603 0-1.186.236-1.62.656-1.485 1.413-4.35 3.09-7.473 4.82-.093.05-.198.1-.29.15v-4.66c0-2.808-.336-5.56-.336-8.09v-8.09c0-.15-.013-.29-.015-.44.663-.02 1.42-.11 2.67-.21 2.82-.23 7.08-.55 8.435-.55h1.404c.86.01 1.655-.43 2.09-1.175.433-.745.433-1.683 0-2.427-.435-.746-1.23-1.19-2.09-1.178h-1.4c-1.952 0-5.803.32-8.603.55-.323-.1-.672-.11-1.01-.066-.9.11-1.483.174-1.86.23-.15-1.408-.272-2.77-.272-4.12 0-2.47-.06-5.364-.732-8.008-.08-.314-.138-.674-.183-1.054.248-.212.468-.48.61-.793.46-1.017.128-2.17-.73-2.81.013-1.06.046-2.148.046-3.174 0-3.173.33-5.883.944-8.91.687-3.366 2.333-6.91 3.83-10.586.28-.686 1.395-2.01 2.776-3.323 1.38-1.316 2.95-2.66 4.15-4.226.273-.36 1.194-1 2.363-1.553 1.17-.555 2.52-1.05 3.735-1.647 1.135-.557 3.29-.96 5.4-1.403.51.486 1.22.755 1.97.656 2.874-.385 4.98-.226 7.78 2.577.19.19.56 1.1.46 2.807-.107 1.707-.59 3.96-1.22 6.3-.638 2.34-1.406 4.784-2.03 7-.63 2.22-1.177 4.144-1.177 5.98 0 8.407 4.687 14.934 10.97 17.665 6.284 2.73 14.184 1.62 20.137-4.33 2.24-2.24 3.386-4.93 3.46-7.536.075-2.61-.82-5.048-2.196-7.14-2.75-4.188-7.32-7.25-11.882-8.01-2.686-.45-5.2.508-6.925 2.09-1.72 1.58-2.774 3.73-3.05 6.01-.276 2.28.28 4.8 2.03 6.696 1.75 1.898 4.53 2.99 8.023 2.99 1.13 0 2.51-1.1 2.834-2 .326-.9.255-1.532.183-2.12-.145-1.172-.51-2.17-.794-2.882-.31-.81-1.02-1.394-1.88-1.523-.857-.13-1.715.215-2.245.9-.53.683-.643 1.6-.303 2.394.024.06.036.16.063.23-1.16-.262-1.91-.722-2.364-1.22-.693-.75-.963-1.74-.824-2.88.137-1.146.746-2.327 1.556-3.07.81-.745 1.7-1.106 2.93-.9 2.843.473 6.71 2.97 8.646 5.916.97 1.474 1.46 2.98 1.42 4.38-.04 1.4-.526 2.784-2.044 4.3-4.706 4.71-10.32 5.312-14.886 3.325-4.564-1.983-8.084-6.603-8.084-13.284 0-.726.38-2.576.976-4.683.595-2.11 1.39-4.56 2.06-7.033.67-2.47 1.23-4.948 1.372-7.26.14-2.316-.083-4.72-1.846-6.485-.223-.22-.45-.424-.673-.625.856-.09 1.62-.19 2.26-.26.28-.024.525-.05.76-.06zm199.705 0c.72-.03 1.312.033 1.968.29 1.62.636 3.17.63 4.56.61l1.008.58 1.54-.472s.066-.053.092-.077c.38.03.724.05.977.11 1.963.48 3.655 1.33 5.582 2.44.18.78.75 1.45 1.57 1.73.38.13.77.14 1.14.078.97.733 1.86 1.49 2.29 2.045 1.46 1.91 2.82 3.37 3.72 5.125 1.17 2.29 2.44 3.72 2.77 5.03.53 2.085.76 3.906 1.325 6.135.795 3.122 1.235 5.672 1.235 8.8 0 3.22.32 6.424.32 9.38v10.34c0 4.037-.32 8.04-.32 12.296 0 2.846-.99 6.22-.99 10.02 0 2.89.11 5.615-.29 7.994-.303 1.78-.414 3.54-.43 5.23-1.95.51-3.92 1.13-4.39 1.13-6.924 0-13.25 2.03-19.92 2.03-5.318 0-13.8-1.12-21.92-1.86-2.7-.24-5.34-.48-7.858-.61 2.374-1.38 4.624-2.78 6.33-4.47.698-.66.905-1.69.535-2.57-.37-.886-1.25-1.45-2.21-1.42-.605.02-1.184.27-1.604.7-1.45 1.435-4.266 3.14-7.352 4.915-1.79 1.024-3.67 2.087-5.46 3.247-.39.07-.76.14-1.13.23.038-.25.08-.49.14-.717.65-2.555.078-5.028.078-6.41v-7.75c0-2.8-.32-5.557-.32-8.083V78.69c1.624.4 3.63.795 5.737 1.1 3.085.444 5.926.89 8.557 0 3.09-1.046 5.376-2.084 7.825-4.41 1.02-.97 1.58-2.05 2.214-3.28s1.24-2.6 1.845-3.874c.55-1.16 1.095-2.23 1.57-3.02 1.54-.96 2.914-2.21 3.69-4.054.344-.777.27-1.676-.197-2.38-.47-.71-1.26-1.13-2.105-1.116-1 .015-1.9.63-2.275 1.557-.027.06-.075.12-.108.18-1.46.456-2.153 1.296-2.73 2.198-.18.09-.356.188-.55.28-1.935.9-4.47 1.734-6.973 2.91-1.513.716-4.748.88-8.145.55-3.14-.302-6.384-.89-9.03-1.19-.03-2.135-.162-4.46-.716-6.634-.078-.29-.14-.63-.187-.978.622-.494.96-1.28.87-2.075-.078-.676-.446-1.257-.99-1.632.01-1.054.03-2.137.03-3.16 0-3.17.33-5.88.943-8.906.685-3.364 2.33-6.91 3.83-10.584.28-.687 1.393-2.01 2.774-3.324 1.38-1.318 2.964-2.66 4.16-4.228.274-.36 1.194-1 2.364-1.56 1.17-.553 2.51-1.05 3.725-1.645 1.44-.71 4.56-1.146 7.105-1.77 2.29-.564 5.495-.26 8.68-.26 1.78 0 3.2-.28 4.316-.398.278-.026.523-.05.762-.06zm188.205 10.86c2.072-.046 4.903.55 7.703.55 2.155 0 4.507.11 6.36.565 2.924.717 5.157 1.504 8.223 2.257 1.074.263 1.842.516 2.32.793.474.277.75.537 1.112 1.25 1.322 2.595 3.787 4.23 5.293 5.34-.02-.016.657.84 1.1 1.875.44 1.037.817 2.242 1.005 2.975.42 1.643.97 2.81 1.327 3.783.358.974.564 1.762.564 3.08 0 3.104.838 6.875 1.374 9.505.344 1.692.08 7.067-.336 9.106-.86 4.22.226 7.98-.32 10.66-.76 3.72-.047 7.66-.047 10.49 0 2.774-.35 5.78-.35 9.043 0 1.39-.03 2.815-.016 4.286-.16.063-.3.147-.45.244-.59.39-.927.807-1.027.96.07-.013.045 0-.016.064-.027.03-.02-.004.015-.06-.043.01-.083.016-.32.074-5.243 1.29-10.05 1.97-15.94 1.97-13.515 0-30.776-1.298-42.407-1.36-.045-.787-.078-1.565-.078-2.305V102c2.97-.43 5.836-.894 8.236-1.91 1.06-.41 1.66-1.54 1.417-2.652-.24-1.114-1.256-1.88-2.393-1.816-.29.012-.56.082-.825.2-1.47.617-3.815 1.08-6.438 1.493v-2.47c0-2.28.35-4.68.35-7.43v-5.96c1.195.155 2.587.29 4.196.38 2.88.164 6.114.17 8.845-.29 2.363-.39 4.29-1.623 5.98-2.834 1.692-1.21 3.2-2.48 4.18-3.062 1.054-.636.99-.64 1.494-.978.91-.58 1.31-1.703.99-2.733-.32-1.027-1.29-1.72-2.366-1.676-.452.017-.89.17-1.265.428-.705.474-.345.3-1.294.87-1.565.94-3.038 2.206-4.517 3.266-1.48 1.06-2.93 1.84-3.98 2.014-2.077.344-5.126.376-7.797.23-1.83-.105-3.544-.3-4.62-.46-.2-1.996-.52-3.737-.52-5.34 0-2.48.19-4.965.275-7.61.836-.31 1.466-1.08 1.524-2.03.063-1.03-.57-1.93-1.48-2.287v-5.86c0-2.645.054-4.346.824-6.236 1.13-2.774 1.683-5.268 2.81-7.11 1.78-2.917 2.43-4.24 4.575-6.346 1.66-1.633 3.67-2.478 6.3-3.768 2.18-1.07 5.685-1.27 9.09-2.106.388-.096.818-.127 1.297-.14zm-51.025 7.064c.132.02.155.08.107.06-.02-.003-.1-.054-.11-.06zM484.088 44.06c-.315-.002-.6.05-.824.106-.89.222-1.46.59-1.51.61-.354.14-.664.38-.885.687-.54.74-1.22 1.64-1.12 3.203.05.782.54 1.754 1.31 2.274.77.518 1.6.655 2.512.655.755 0 1.58-.184 2.243-.717.663-.533 1-1.318 1.1-1.937.2-1.24-.11-2.11-.29-2.82-.17-.67-.74-1.5-1.51-1.84-.387-.17-.72-.21-1.038-.21zm199.705 0c-.315-.002-.6.05-.824.106-.89.222-1.46.59-1.51.61-.36.14-.67.38-.89.687-.54.74-1.22 1.64-1.12 3.203.05.782.537 1.77 1.31 2.29.775.517 1.622.655 2.533.655.755 0 1.58-.18 2.243-.71.662-.53.984-1.32 1.082-1.933.195-1.24-.11-2.13-.29-2.84-.17-.67-.726-1.49-1.496-1.83-.385-.17-.74-.226-1.052-.23zm198.99 10.04c-.27-.002-.498.043-.686.09-.762.19-1.255.502-1.298.52-.3.118-.56.318-.75.58-.46.63-1.05 1.408-.96 2.744.04.668.46 1.51 1.13 1.953.66.443 1.38.563 2.16.563.64 0 1.34-.153 1.91-.608.56-.457.86-1.134.94-1.664.17-1.058-.12-1.805-.277-2.41-.147-.575-.607-1.282-1.266-1.572-.33-.144-.646-.197-.916-.197zm-334.46 5.383c-1.11.062-2.024.87-2.183 1.922-2.557 15.53-2.41 35.57-2.41 52.55 0 7.377-.153 14.793-.288 22.21-.062.053-.128.094-.184.153-.12.03-.104.046-.305.076-.84.126-2.236.216-3.723.244-2.97.055-6.352-.076-8.038-.076-6.933 0-14.313-1.45-21.965-1.45-4.9 0-9.83-.473-14.813-.473-2.036 0-3.975.96-4.972 2.36-.998 1.39-1.268 2.95-1.42 4.47-.3 3.03.026 6.3-.273 8.11-.51 3.03-.54 6.12-.52 9.072-.01.06-.03.107-.03.17-.06.72-.02 1.42.03 2.043v.72h.04c.01.16.01.337.01.472 0 .514.024.336-.018.502-.266.844-.046 1.764.58 2.392.627.63 1.55.86 2.395.593s1.486-.975 1.647-1.848c.144-.583.166-1.158.166-1.648 0-.46-.012-.94-.03-1.39 0-.035.003-.07 0-.107-.01-3.553-.072-7.12.444-10.25.474-2.88.075-6.128.304-8.436.11-1.152.4-1.974.624-2.287.224-.312.19-.38 1.006-.38 4.65 0 9.59.474 14.81.474 6.99 0 14.367 1.464 21.966 1.464 1.41 0 4.965.12 8.146.06 1.457-.024 2.81-.083 4.01-.24-.06 3.97-.12 7.932-.12 11.912 0 2.94-.458 5.44-.458 8.71 0 1.362.42 2.253.516 2.73.114.83.705 1.53 1.526 1.814.82.284 1.737.11 2.38-.458.64-.57.9-1.44.67-2.245-.22-1.05-.41-1.65-.41-1.844 0-2.82.455-5.336.455-8.71 0-12.92.475-25.906.475-38.93 0-16.997-.08-36.93 2.38-51.847.12-.674-.076-1.368-.55-1.878-.476-.507-1.18-.786-1.89-.746zm199.72.016c-1.11.06-2.023.85-2.18 1.9-2.56 15.53-2.426 35.57-2.426 52.55 0 7.37-.155 14.79-.29 22.21-.062.05-.128.11-.183.17-.12.03-.105.04-.305.07-.84.124-2.24.2-3.73.23-2.978.052-6.358-.08-8.04-.08-6.93 0-14.31-1.448-21.97-1.448-4.9 0-9.83-.475-14.81-.475-2.04 0-3.948.984-4.944 2.38-.998 1.397-1.284 2.936-1.434 4.455-.3 3.035.01 6.32-.29 8.13-.6 3.637-.447 5.682-.428 9.15-.004.053-.004.088 0 .14v1.036h.014c-.01.12 0 .2-.017.336-.067.62-.195 1.42-.045 2.41 0 .025-.003.08-.03.185-.256.84-.027 1.773.594 2.395.623.62 1.54.85 2.38.593.843-.255 1.474-.953 1.65-1.816.11-.434.29-1.133.135-2.06-.014-.07-.007-.573.06-1.19.06-.574.205-1.21.045-2.18-.012-3.453-.12-5.243.384-8.283.474-2.88.06-6.127.29-8.435.115-1.154.42-1.96.64-2.273.225-.312.175-.396.992-.396 4.648 0 9.593.49 14.812.49 6.99 0 14.365 1.448 21.964 1.448 1.41 0 4.965.12 8.146.06 1.46-.022 2.81-.07 4.01-.225-.06 3.975-.104 7.935-.104 11.915 0 2.94-.078 3.424-.078 6.694 0 1.362.416 2.252.516 2.73.116.83.706 1.53 1.53 1.814.82.286 1.736.11 2.377-.456.643-.57.903-1.44.672-2.246-.22-1.05-.41-1.65-.41-1.845 0-2.82.062-3.32.062-6.694 0-12.92.488-25.92.488-38.943 0-17-.09-36.934 2.368-51.85.12-.67-.074-1.35-.55-1.86-.475-.51-1.164-.786-1.876-.746zm197.906 0c-1.11.06-2.03.85-2.19 1.9-2.56 15.53-2.43 35.57-2.43 52.55 0 7.37-.14 14.79-.274 22.21-.06.05-.113.11-.168.17-.12.03-.137.04-.338.07-.84.124-2.22.2-3.704.23-2.973.052-6.354-.08-8.04-.08-6.93 0-14.328-1.448-21.98-1.448-4.9 0-9.83-.475-14.81-.475-2.04 0-3.948.984-4.944 2.38-.997 1.397-1.284 2.936-1.435 4.455-.3 3.035.01 6.32-.29 8.13-.598 3.63-.523 8.54-.503 12.004v.013c-.025.22-.05.442-.063.67-.025.584-.03 1.193-.03 1.68 0 .892.235 1.2.17.943.16.87.8 1.58 1.65 1.842.85.262 1.77.033 2.394-.596.63-.63.85-1.564.58-2.41-.013-.057-.005-.035-.013-.076.003-.3.02-.595.03-.887h.093v-.928c.1-.39.092-.79 0-1.176-.005-.003 0-.01 0-.014-.016-3.184-.025-7.55.44-10.356.474-2.88.092-6.13.32-8.438.114-1.153.402-1.96.625-2.272.223-.312.16-.396.976-.396 4.648 0 9.59.49 14.81.49 6.993 0 14.384 1.448 21.983 1.448 1.41 0 4.95.12 8.13.06 1.456-.023 2.824-.07 4.026-.226-.06 3.974-.107 7.934-.107 11.914 0 2.94-.474 5.423-.474 8.694 0 1.363.434 2.254.534 2.73.115.83.69 1.545 1.51 1.83.823.285 1.754.095 2.396-.473.64-.566.9-1.42.67-2.23-.22-1.05-.443-1.67-.443-1.86 0-2.82.49-5.32.49-8.694 0-12.92.47-25.92.47-38.943 0-17-.09-36.934 2.364-51.85.122-.673-.09-1.352-.565-1.86-.47-.51-1.16-.79-1.873-.75zM690.3 68.45c-.22.45-.437.914-.64 1.31-.548 1.06-1.132 1.88-1.19 1.94-1.947 1.844-3.04 2.29-5.965 3.28-.32.104-3.407.19-6.224-.218-2.57-.37-5.19-.95-6.49-1.328-.07-1.504-.24-2.92-.38-4.287 2.26.297 5.254.802 8.31 1.1 3.706.357 7.51.53 10.74-.993.59-.28 1.202-.55 1.844-.81zm-565.83 5.46c-.92.004-1.753.52-2.165 1.34-.413.823-.333 1.81.214 2.55.16.88.28 2.126.29 3.45 0 .675-.02 1.32-.03 1.92-1.13.21-2.34.433-3.68.776-10.16 2.607-24.41 3.86-34.92 3.86-22.178 0-44.46 1.697-66.49 1.16-.05-.864-.22-1.684-.35-2.534-.22-1.404-.4-2.693-.447-3.677l.03-.06c.406-.778.366-1.72-.107-2.457-.47-.738-1.305-1.16-2.18-1.115-.845.042-1.606.516-2.014 1.25-.016.02-.07.1-.15.23-.168.256-.52.834-.52 1.692 0 1.707.332 3.396.563 4.88.09.6.135 1.157.166 1.634l-.41-.02c-.92-.08-1.826.36-2.333 1.13-.51.77-.545 1.75-.108 2.56.434.81 1.29 1.323 2.21 1.325.48.02.965.042 1.45.06.07 42.186 1.876 84.976 1.92 127.006-4.615-.116-8.855-.382-12.494-.916-.9-.148-1.815.207-2.38.916-.57.707-.71 1.658-.37 2.5.34.84 1.113 1.44 2.014 1.557 3.967.58 8.47.88 13.286 1.005.32 10.03 1.86 36.71 1.86 46.34 0 1.71-.34 17.58-.75 33.04-.2 7.73-.417 15.4-.624 21.293-.104 2.945-.198 6.72-.29 8.54-.046.91-.097 1.637-.137 2.166-.03.398-.085.79-.076.81-.26 1.306.55 2.594 1.86 2.91 1.342.33 2.72-.5 3.05-1.843.16-.66.12-.878.17-1.48.04-.6.09-1.383.13-2.317.098-1.87.2-5.646.308-8.606.21-5.92.44-13.604.64-21.34.406-15.476.733-30.91.733-33.18 0-10.067-1.54-36.724-1.875-46.264 14.275.05 30.507-1.067 43.55-1.067 20.554 0 40.916-2.81 60.894-2.948.246 10.406 1.89 37.375 1.89 47.32 0 1.46.28 5.57.69 11.67.404 6.1.944 13.886 1.46 21.616.52 7.73 1.01 15.396 1.344 21.28.165 2.946.562 9.31.625 11.12.03.91.043 1.65.042 2.17 0 .257-.015.526-.03.657.01-.04.02-.07.048-.17-.33 1.347.5 2.706 1.846 3.036 1.348.33 2.708-.5 3.038-1.844.217-.884.12-1.06.12-1.677.005-.618-.01-1.41-.042-2.35-.064-1.88-.457-8.25-.624-11.21-.333-5.926-.84-13.606-1.357-21.34-.52-7.74-1.06-15.526-1.466-21.617-.405-6.094-.67-10.81-.67-11.336 0-10.433-1.634-37.4-1.89-47.3 4.18.03 8.335-.017 12.49-1.083 1.238-.297 2.04-1.47 1.894-2.73-.15-1.263-1.2-2.225-2.47-2.227-.23 0-.455.033-.673.093-3.405.87-7.163.93-11.29.915-.07-42.724-1.905-86.095-1.905-128.654.005-.675-.27-1.32-.75-1.8-.02-.02-.042-.03-.06-.044.285-.41.45-.9.44-1.42 0-.65.07-2.19.06-3.855-.01-1.663-.063-3.46-.473-5.095-.216-.86-.757-1.295-.993-1.48-.46-.47-1.093-.737-1.753-.73zm-1.48 14.324v.106c0 42.7 1.82 86.074 1.89 128.654-20.414.14-40.76 2.943-60.846 2.943-13.31 0-29.672 1.054-43.61 1.022-.042-42.15-1.833-84.91-1.908-126.93 22.05.48 44.07-1.21 65.668-1.21 10.896 0 25.31-1.24 36.167-4.03.88-.23 1.75-.4 2.64-.567zm517.6 2.944c.116-.018.126.045.077.045-.01 0-.107-.014-.123-.015.01 0 .04-.03.046-.03zm-174.78 1.036v6.147c-1.53.93-3 1.92-4.33 3.01-2.048 1.68-4.377 2.8-6.438 4.49-.075.053-.13.11-.2.17-.35-.93-1.084-1.35-1.57-1.557-.516-.222-.955-.302-1.404-.367-1.79-.262-4.027-.187-4.67-.29-.903-.142-1.35-.29-2.073-.38-.363-.047-.753-.048-1.176 0-.42.047-.86.14-1.3.273-1.14.35-1.79 1.55-1.44 2.685.35 1.135 1.565 1.768 2.7 1.418.57-.176.467-.133.67-.106.206.025.844.177 1.94.35.68.107 1.22.11 1.936.137-.918.854-1.87 1.797-2.716 2.7-.373.4-.693.77-.975 1.113-.284.34-.5.474-.795 1.203-.07.18-.19.41-.18.914.005.27.12.66.338 1.038-.88.04-1.763.09-2.64.138.864-.94.836-2.403-.076-3.31-1.64-1.64-3.06-3.22-4.453-4.866.695-.424 1.302-.95 1.692-1.48.43-.59.6-1.01 1.11-1.756.354-.52 1.942-2.076 2.974-3.554.26-.37.51-.735.702-1.266.176-.49.35-1.33-.063-2.196.068-.008.148-.005.214-.018 2.65-.323 5.065-1.217 7.702-1.54 3.41-.417 5.81-1.17 7.84-1.785 2.03-.617 3.64-1.084 5.936-1.19.253 0 .494-.048.73-.124zm-25.64 1.48c.05-.01.063.032.03.046-.01.004-.107.025-.12.03.005-.005.022-.04.03-.045.023-.016.042-.03.06-.032zm-9.107 6.194c.417.117.647.097.99.12.445.034.947.058 1.497.063 1.277.02 2.654-.03 3.937-.1-.475.54-.857.92-1.252 1.5-.62.91-.936 1.474-1.052 1.632-.116.158-.015.09-.534.38-.16.087-.31.2-.43.32-.49-.606-.97-1.22-1.48-1.86-.54-.676-1.1-1.357-1.68-2.045zm386.674 5.507c-3.936.036-8.15 1.282-11.9 2.486-2.498.81-4.75 1.64-6.376 2.22-.6.218-1 .35-1.38.475-4.43-3.703-10.102-4.202-15.24-3.783-5.532.45-10.86 1.8-14.03 1.8-.88-.013-1.69.443-2.134 1.204-.445.76-.445 1.71 0 2.47.44.76 1.254 1.217 2.134 1.206 4.37 0 9.49-1.415 14.43-1.82 4.945-.4 9.27.104 12.42 3.25.67.673 1.276.717 1.615.75.34.03.532-.01.715-.033.367-.05.64-.11.944-.2.615-.177 1.33-.42 2.168-.72 1.68-.6 3.866-1.406 6.24-2.17 4.75-1.52 10.397-2.656 13.042-1.995 2.365.59 4.42 1.577 6.634 2.682 1.21.602 2.677.11 3.28-1.098.6-1.21.11-2.68-1.1-3.28-2.264-1.135-4.7-2.3-7.64-3.04-1.223-.302-2.503-.42-3.814-.41zm30.172.55c-.02.014-.05.045-.14.03.02-.003.12-.03.14-.03zm-255.63.822c-.38.01-.77.03-1.15.06-1.008.077-1.99.232-2.945.397-3.818.66-7.463 1.706-9.214 1.706-.86-.01-1.654.432-2.09 1.175-.432.743-.432 1.683 0 2.425.436.744 1.23 1.188 2.09 1.175 3.2 0 6.64-1.2 10.02-1.784 3.386-.58 6.28-.53 8.12.84.68.53 1.6.66 2.394.32.793-.33 1.35-1.06 1.45-1.92.1-.85-.28-1.7-.977-2.21-2.337-1.75-5.04-2.24-7.705-2.18zm338.45 2c.28 1.92.302 3.943.302 6.144 0 .43-.067 4.26-.136 8.03-.048 2.57-.068 4.137-.093 5.83-.813.15-1.53.307-2.197.307-5.664 0-11.79-.977-18.104-.977h-25.99c-4.724 0-10.63.213-15.06.29.026-.31.05-.548.078-.9.13-1.708.287-3.88.427-6.1.28-4.44.533-8.844.533-10.36 0-.38-.005-.75-.015-1.13 11.3.08 28.454 1.327 42.146 1.327 6.25 0 11.52-.735 17.04-2.09.38-.095.74-.227 1.07-.367zM606 108.93c-.86-.01-1.655.44-2.09 1.18-.432.746-.432 1.686 0 2.428.435.745 1.23 1.19 2.09 1.176h29.32c.01.03.458.166 1.33.384.845.266 1.764.046 2.394-.58.63-.627.86-1.548.594-2.395-.263-.85-.973-1.49-1.845-1.65-.25-.06-1.03-.534-2.443-.534h-29.34zm-70.73.51v.03c0 3.26.54 6.93.06 8.8-.15.596-.13.85-.15 1.3-.02.445-.03.96-.03 1.554-.01 1.187.02 2.636.06 4.09.02.696.034 1.393.06 2.06-.174.1-.327.233-.47.38-.72.68-3.95 1.72-7.277 1.77-3.327.05-6.82-.787-8.055-1.662-1.76-1.247-3.72-1.73-5.356-1.312-1.64.42-2.66 1.382-3.495 2.09-.83.708-1.47 1.226-2.04 1.433-.574.21-1.15.3-2.44-.226-2.46-.997-3.68-1.71-4.18-2.073-.25-.184-.32-.282-.29-.245-.036-.075-.02-.1-.184-.307-.27-.34-1.295-.96-2.135-.854-.84.11-1.08.39-1.205.49-.126.1-.136.137-.15.15-.064.06.036-.015-.063.047-.194.127-.964.54-2.836 1.13-.853.27-1.416.5-1.754.564-1.64.31-4.2-.245-6.27-1.035-1.037-.394-1.95-.833-2.64-1.16-.346-.162-.627-.294-.886-.41-.13-.053-.238-.11-.443-.18-.1-.033-.21-.08-.5-.12-.144-.02-.334-.038-.685.015-.323.05-.893.21-1.37.735.03-.053-.138.127-.398.273-.347.195-.87.44-1.48.687-1.218.486-2.81.966-4.285 1.25-1.48.282-2.873.32-3.495.182-.18-.04-.134-.03-.168-.047-.03-.35-.16-.675-.32-.96-.03-1.074-.06-2.09-.095-3.433-.1-3.992-.197-8.6-.197-9.472v-4.177c3.196-1.093 10.69-1 18.457-.29 7.987.73 16.39 1.89 22.33 1.89 7.556 0 13.97-2.014 19.926-2.014 1.67 0 3.16-.497 4.453-.93zm199.706 0v.03c0 3.26.552 6.93.076 8.8-.215.84-.115 1.068-.093 1.558.02.49.07 1.05.135 1.693.13 1.287.33 2.845.55 4.41.054.38.114.756.17 1.13-.424.08-.824.277-1.16.595-.718.68-3.934 1.72-7.26 1.77-3.328.05-6.838-.772-8.07-1.647-1.758-1.246-3.718-1.73-5.354-1.31-1.636.42-2.66 1.366-3.492 2.074-.83.707-1.484 1.225-2.06 1.43-.57.21-1.13.31-2.423-.21-2.46-1-3.69-1.73-4.196-2.09-.25-.185-.303-.28-.27-.246-.037-.074-.02-.086-.187-.29-.268-.34-1.31-.977-2.15-.87-.84.11-1.05.388-1.176.49-.127.1-.15.136-.168.15-.063.06.037-.016-.06.046-.2.13-.968.54-2.84 1.13-.85.27-1.43.5-1.768.563-1.64.31-4.17-.247-6.24-1.037-1.036-.397-1.967-.82-2.654-1.146-.344-.163-.627-.31-.885-.427-.13-.057-.238-.113-.443-.182-.102-.032-.2-.07-.487-.105-.146-.02-.338-.037-.688.017-.328.05-.908.19-1.39.718.03-.05-.153.13-.41.275-.347.195-.856.44-1.466.687-1.217.49-2.795.97-4.27 1.25-1.476.284-2.886.323-3.508.184-.173-.04-.115-.03-.154-.047-.086-.985-.794-1.766-1.694-2.03.064-.67.12-1.135.185-1.86.183-2.066.363-4.26.5-6.07.14-1.815.244-3.12.244-3.908v-2.605c.18-.145.365-.29.55-.443.68-.576 1.45-1.14 2.285-1.706 3.82-.437 9.637-.24 15.605.306 7.988.73 16.394 1.88 22.334 1.88 7.55 0 13.966-2.013 19.92-2.013 1.67 0 3.16-.497 4.454-.93zm-686.35 1.028c-1.1.016-2.07.743-2.38 1.8-.31 1.016-.74 2.237-1.114 3.355-1.188 1.048-1.913 2.46-2.653 4.36-4.378 11.23-6.66 17.447-7.6 20.364-.233.73-.387 1.218-.487 1.708-.05.248-.21.296-.05 1.22.04.235.115.576.44 1.04.325.466 1.1 1 1.83 1.07 1.467.136 1.796-.51 2.014-.72.436-.414.473-.562.593-.76.12-.2.233-.395.35-.624.24-.46.508-1.02.826-1.71.784-1.703 1.843-4.16 3.002-6.982.096-.006.16-.004.274 0 1.302.01 3.22.22 5.202.516 1.76.26 3.603.603 5.23.945.343 1.196.68 2.406 1.02 3.57 1.27 4.363 2.43 8.28 3.737 10.97.61 1.245 2.11 1.762 3.36 1.16 1.25-.61 1.78-2.11 1.177-3.36-.945-1.94-2.19-5.85-3.45-10.172l-.304-1.056c.866-.155 1.632-.75 1.937-1.645.45-1.315-.244-2.74-1.557-3.19-.51-.174-1.173-.355-1.935-.55-.69-2.327-1.404-4.636-2.137-6.756-1.416-4.093-2.544-7.43-5.05-9.52-.11-.09-.246-.16-.365-.245.154-.487.36-1.04.502-1.51.25-.77.116-1.62-.366-2.27-.48-.653-1.25-1.02-2.06-1.008zm406.307 0c.047-.023.03.03-.108.06.014-.007.095-.057.107-.06zm402.613 3.583c-.21 0-.413.027-.62.08-2.513.616-5.12.87-8.052.87-10.994 0-21.452 1.417-32.065 1.417-11.39 0-22.87-.47-34.46-.47-7.565 0-17.99-.892-24.59-.473-1.29.085-2.266 1.174-2.18 2.44.084 1.27 1.21 2.236 2.5 2.15 5.825-.366 16.35.476 24.27.476 8.78 0 17.563.29 26.374.41-.02 4.577-.475 12.707-.475 18.92v12.48c-.186.19-.43.44-.807.76-.89.764-2.174 1.743-3.48 2.717-1.305.972-1.685 2.086-2.76 2.867-.34.247-.606.45-.885.655-.96-.125-1.89.35-2.35 1.19-.46.835-.357 1.855.274 2.576.027.037.04.063.09.138.107.16.206.42.84.81.317.196.866.41 1.51.35.616-.054 1.146-.36 1.45-.64l.046-.044c.08-.065.26-.21.475-.366.338-.253.794-.59 1.328-.977 1.067-.773 2.44-2.993 3.785-3.996 1.025-.762 1.08-.42 1.967-1.14.68.66 1.44 1.123 2.23 1.617 3.07 1.52 5.235 4.14 7.23 6.67.493.67 1.325 1.04 2.163.945.837-.095 1.55-.64 1.876-1.404.33-.76.227-1.647-.29-2.3-.45-.59-.934-1.25-1.494-1.94-1.84-2.26-5.066-4.664-6.97-5.856-.72-.453-1.028-.73-1.28-.963.354-.72.304-1.58-.14-2.255-.037-.056-.08-.1-.12-.154v-11.73c0-5.98.432-14.01.454-18.87 1.138.008 2.28.016 3.418.016 11.028 0 21.487-1.42 32.066-1.42 3.21 0 6.25-.28 9.21-1.01 1.16-.26 1.917-1.34 1.786-2.5-.13-1.16-1.13-2.023-2.32-2.03zm-408.3.567c-.09.14-.16.266-.242.4-.09 0-.184.013-.274.015.18-.14.36-.29.52-.413zm201.157.338c.07-.01.11.005.215.016l.15.033h-.52c.037-.01.13-.04.154-.046zm-409.8.276c-2.66-.054-5.058.643-6.62.643-3.58 0-5.69.546-8.527 1.128-2.563.527-5.283.72-8.13 1.45-1.578.406-2.527 1.207-3.616 1.984-1.085.777-2.16 1.603-2.652 1.906-2.238 1.38-4.36 3.65-5.706 5.036-1.8 1.847-2.846 3.97-3.155 4.286-1.926 1.98-2.52 4.562-2.883 5.31-1.35 2.77-1.967 4.98-2.622 7.67-.077.32-.15.64-.213.962-.86.983-1.45 2.198-1.45 3.72 0 2.222.11 5.065.82 7.857-.1 2.57-.29 5.356-.29 8.115 0 3.353-.34 6.593-.34 10.373 0 3.287.02 6.076-.623 8.724-.848 3.48-.077 7.258-.077 9.535 0 1.13.037 2.23.08 3.325-8.17-9.26-15.013-24.154-23.233-35.406-.448-.613-.728-1.39-1.02-2.38-.298-.992-.57-2.293-1.727-3.48-.21-.22-.464-.393-.734-.52.536-.504.76-1.12.87-1.553.146-.583.173-1.08.17-1.57-.02-1.96-.474-4.342-.474-5.062 0-1 .07-1.51.045-2.302-.022-.79-.27-1.725-.7-2.61-.412-.874-1.31-1.4-2.272-1.33-.78.056-1.49.5-1.878 1.177s-.394 1.5-.046 2.198c.286.58.24.486.246.716.01.23-.06.943-.06 2.15 0 .685.087 1.423.17 2.135-1.054-.82-2.21-1.66-3.296-2.398-.488-.33-.93-.61-1.343-.85-.412-.24-.592-.44-1.434-.626-.21-.045-.485-.13-1.025-.03s-1.497.694-1.8 1.496c-.305.805-.115 1.33-.016 1.634.1.3.188.47.276.61.35.574.64.874 1.143 1.39.228.23.626.59.9.855-1.33-.587-2.35-1.098-3.55-1.345-.303-.062-.628-.14-1.19-.062-.563.08-1.675.626-2.044 1.62-.37.994-.08 1.63.09 2.03.17.395.343.676.55.96.72 1.006 2.113 1.27 3.16.61.45.176.566.195 1.13.44 1.304.574 2.85 1.26 4.38 1.83 1.526.574 2.963 1.086 4.56 1.086.12 0 .263-.014.41-.03.11.22.25.43.43.61.05.055.31.556.61 1.556.294 1 .694 2.417 1.704 3.8 8.542 11.696 15.78 28.685 26.28 38.654.29.27.605.46.96.56.006.29.016.57.016.857 0 2.71.3 10.4.307 12.95v.066c-.76 10.51.01 15.68-.304 25.95v.076c0 2.47.37 4.156.37 6.088-.004.043-.01.085-.016.152-.014.187-.04.477-.063.823-.043.69-.12 1.64-.195 2.81-.16 2.33-.357 5.44-.566 8.526l-.58 8.51c-.074 1.168-.13 2.13-.18 2.823-.02.347-.05.627-.06.823l-.015.245c0 .016-.015.02-.016.016-.006.01 0 .04 0 .212-.018 1.388 1.1 2.53 2.484 2.548.437.006.844-.114 1.205-.304.267.208.57.353.917.443 1.85.472 3.567.44 5.17.44h13.166c0 .016.01.03.012.046v.013c.035.11.09.204.12.32-.008-.02-.04-.076-.045-.09.036.31.087.913.15 1.692.138 1.557.327 3.896.508 6.635.36 5.478.714 12.548.714 18.153 0 3.9.275 8.834.796 13.745-.66 1.15-1.64 2.646-2.775 4.164-1.794 2.393-3.896 4.97-5.54 7.26-1.625 2.27-2.86 3.232-4.697 5.156-.7.64-.99 1.603-.748 2.518.244.915.965 1.613 1.892 1.815.924.2 1.895-.126 2.5-.856 1.93-2.016 3.31-3.092 5.17-5.69 1.43-1.992 3.39-4.44 5.2-6.85.35 2.138.74 4.166 1.173 5.968.244 1.028.49 2.04.732 3.05.175.917.834 1.66 1.72 1.94.89.278 1.868.04 2.534-.61.663-.65.91-1.62.653-2.516-.243-1.013-.473-2.01-.72-3.037-.746-3.13-1.392-7.2-1.876-11.38.136-.326.28-.636.38-.96.257-.78.1-1.647-.38-2.307-.115-.156-.234-.284-.38-.41-.37-4.01-.58-7.925-.58-11 0-5.82-.366-12.944-.73-18.485-.184-2.77-.367-5.14-.505-6.744-.06-.68-.1-1.142-.14-1.54h10.267c5.824 0 12.035-1.343 16.58-.41 3.15.647 6.294.92 9.396 1.038-.48 13.39-4.3 28.543-4.3 45.18 0 3.606.066 7.033-.655 10.05-.255.897-.01 1.87.656 2.52.666.65 1.63.886 2.516.61.89-.28 1.56-1.025 1.74-1.938.81-3.39.82-6.75.807-9.884.87 1.29 1.816 2.635 2.76 3.967 3.196 4.504 7.34 10.91 7.994 11.823.818 1.135 2.39 1.393 3.525.58 1.136-.817 1.41-2.405.594-3.54-.86-1.198-4.84-7.37-7.98-11.79-1.57-2.214-3.113-4.468-4.285-6.318-1.175-1.85-1.98-3.64-1.955-3.525-.067-.295-.182-.568-.337-.81.924-12.845 3.6-25.102 3.996-36.838h1.723c1.59 0 4.813-.2 7.794-.384 1.49-.09 2.908-.16 3.937-.226.514-.036.93-.06 1.22-.08.045-.002.067-.01.107-.014.865.07 1.695-.323 2.21-1.022.155-.21.268-.434.352-.67.263.064.553.1.87.06 1.083-.14 1.56-.79 1.77-1.1.2-.305.26-.48.3-.61.09-.26.09-.37.104-.47.08-.446.037-.905-.12-1.33-.05-.574-.108-1.535-.17-2.79-.127-2.563-.267-6.226-.397-10.006-.26-7.56-.473-15.923-.473-16.58v-20.06c0-2.35.35-4.79.35-7.52v-7.016c7.855 9.3 14.54 23.66 22.517 34.58.45.613.698 1.373.99 2.364.298.99.588 2.308 1.74 3.49.215.22.454.39.718.505-.54.51-.744 1.137-.853 1.57-.146.59-.157 1.08-.152 1.57.02 1.97.47 4.35.47 5.07 0 1-.085 1.48-.06 2.27.024.79.285 1.725.716 2.61.33.8 1.074 1.35 1.94 1.434.862.08 1.68-.31 2.15-1.038s.515-1.655.09-2.41c-.283-.583-.22-.488-.228-.718-.01-.23.06-.945.06-2.15 0-.69-.1-1.435-.186-2.15 1.057.82 2.2 1.654 3.296 2.392.49.33.945.626 1.36.87.41.24.59.436 1.43.623.214.047.47.117 1.01.015.54-.1 1.496-.693 1.8-1.496.3-.8.13-1.314.03-1.616-.1-.3-.19-.468-.275-.61-.35-.575-.67-.87-1.173-1.39-.224-.23-.61-.588-.884-.855 1.33.587 2.347 1.1 3.552 1.346.3.064.626.127 1.19.048.56-.08 1.674-.606 2.043-1.6.37-.994.096-1.633-.076-2.03-.17-.395-.36-.676-.564-.96-.72-1.006-2.112-1.274-3.157-.61-.45-.176-.568-.196-1.13-.443-1.308-.57-2.837-1.29-4.364-1.86-1.53-.572-2.966-1.053-4.56-1.053-.13 0-.3-.002-.46.016-.106-.217-.216-.426-.395-.61-.058-.054-.3-.554-.6-1.556-.297-1-.714-2.4-1.723-3.78-8.46-11.585-15.64-28.36-25.977-38.365-.002-.003 0-.015 0-.016.03-.72.046-1.46.046-2.198v-7.87c0-2.33.35-4.79.35-7.52v-18.28c.077 0 .15-.006.23 0 2.065.08 4.265.295 5.52.38 1.385.09 2.58-.966 2.67-2.35.09-1.384-.95-2.58-2.333-2.67-1.078-.07-3.42-.275-5.677-.366l-.41-.016v-6.77c0-1.663-.523-3.037-1.01-4.394-.48-1.36-.99-2.66-1.156-3.356-.695-2.856-1.405-5.93-2.96-9.124-.233-.477-.47-.94-.7-1.42-.67-1.372-1.455-2.63-2.274-3.796.04-.26.075-.52.048-.856-.04-.503-.19-1.318-.96-1.983-.53-.46-1.2-.63-1.74-.65-.55-.695-1.073-1.366-1.57-2.043-1.31-1.793-3.083-2.786-4.605-3.57-1.52-.78-2.86-1.405-3.57-1.95-2.66-2.05-6.36-3.127-9.048-3.68-.58-.12-1.17-.245-1.753-.365-2.94-.603-5.998-1.104-8.59-1.77-.925-.237-1.844-.347-2.73-.366zm.062 5.143c.564-.024 1.05-.02 1.42.077 2.92.75 6.06 1.26 8.844 1.83.58.12 1.16.23 1.74.35 2.09.43 5.684 1.75 7 2.76 1.47 1.136 3.02 1.75 4.332 2.43 1.31.672 2.31 1.35 2.835 2.072.402.55.8 1.09 1.203 1.62-.1.09-.2.165-.305.257-1.03.903-2.15 1.88-3.126 2.56-.98.68-1.85.914-1.74.914-5.297 0-12.72-4.994-20.24-8.236-2.824-1.217-5.754-2.18-8.744-2.29-.998-.035-1.998.022-3.006.2-4.04.71-7.802 3.47-10.74 8.496-3.297 5.64-3.174 11.583-4.042 16.23-.867 4.65-2.048 7.917-8.25 10.466-2.097.86-3.33.8-4.135.5-.804-.294-1.463-.94-2.06-2.085-.296-.574-.553-1.267-.76-2.014-.003-.003 0-.01 0-.014.017-.65.03-1.294.03-1.937 0-2.06.04-4.41.26-6.438.05-.04.096-.085.15-.123 1.03-.736 2.544-1.36 3.797-1.514 1.253-.15 2 .11 2.365.503.36.39.843 1.42.35 4.055v.014c-.03.03-.125.122-.337.29-.424.332-1.203.77-2.03 1.616-.693.628-.997 1.595-.76 2.5.24.908.98 1.608 1.893 1.816.914.21 1.867-.11 2.47-.82.18-.185.787-.567 1.544-1.16s1.807-1.588 2.12-3.19c.7-3.6.242-6.596-1.557-8.54-1.8-1.95-4.405-2.33-6.65-2.06-.625.073-1.246.2-1.846.364.305-.854.65-1.71 1.13-2.7.775-1.59 1.575-3.606 1.97-4.01 1.59-1.637 2.25-3.37 3.14-4.29 1.334-1.366 3.578-3.55 4.745-4.27.962-.592 1.97-1.394 2.942-2.09.977-.695 2.085-1.237 1.955-1.204 2.27-.58 4.944-.794 7.9-1.4 2.96-.61 4.406-1.008 7.507-1.008 2.505 0 4.98-.46 6.68-.532zm-192.005.564c.744 1.304 1.678 3.155 2.566 5.72.424 1.233.83 2.57 1.25 3.935-.937-.16-1.89-.313-2.854-.455-1.474-.22-2.903-.38-4.224-.473 1.108-2.827 2.23-5.82 3.265-8.724zm39.725 4.867c-.107-.002-.22.003-.32.015-.115.012-.205.03-.306.06-1.64.492-1.71 1.255-2.05 1.846-.336.59-.64 1.256-.976 2.12-.275.677-.24 1.44.09 2.09.33.65.94 1.125 1.65 1.298-.08 2.17-.246 4.81-.52 8.04-.86 10.174-2.35 23.64-2.35 30.904-.056.933.393 1.806 1.19 2.29.8.483 1.81.483 2.61 0 .32-.193.58-.45.78-.75.796.066 2.394.57 4.5-.15 3.484-1.193 8.374-2.164 12.4-4.515 2.01-1.174 3.867-2.78 4.974-5.05 1.107-2.27 1.34-5.07.58-8.19-.928-3.805-3.08-6.54-5.676-8.114-.643-.39-1.31-.708-1.985-.976.086-.057.174-.11.26-.167 2.294-1.595 4.272-3.418 5.46-5.675 1.188-2.255 1.32-5.33-.38-7.655-1.453-1.99-3.69-2.6-5.75-2.926-2.06-.33-4.19-.335-6.04-.367-1.47-.024-2.4-.14-3.098-.243-.034-1.318-1.078-2.398-2.396-2.455h-.078c-.12-.22-.287-.457-.564-.718-.43-.4-1.276-.692-2.016-.7zm609.03 3.797c-.027-.06.18.246.305.46-.006-.005-.027-.01-.03-.015-.26-.326-.264-.416-.276-.442zm-464.226.124c2.18-.01 4.703.725 7.44 1.904 6.74 2.907 14.24 8.638 22.24 8.638 1.956 0 3.295-.902 4.61-1.815 1.31-.912 2.53-1.99 3.57-2.9.02-.02.025-.012.043-.03.684.97 1.31 1.94 1.8 2.946.232.476.44.956.67 1.434 1.27 2.6 1.927 5.22 2.624 8.08.323 1.324.873 2.63 1.313 3.86.44 1.23.7 2.423.7 2.715v7.094c-.28.102-.555.253-.884.455-.835.435-1.364 1.29-1.36 2.228.005.94.537 1.8 1.373 2.227.28.143.564.213.87.244v8.16c-.13-.058-.26-.106-.4-.138-.11-.06-.296-.15-.52-.29-.444-.272-1.038-.67-1.6-1.05-.564-.38-1.094-.74-1.54-1.038-.225-.15-.425-.28-.628-.398-.1-.06-.196-.117-.38-.2-.093-.04-.186-.092-.442-.152-.255-.056-.86-.425-1.935.415-.783.61-.83.86-1.22 1.34-.39.48-.85 1.038-1.265 1.495-.015.016 0 .016-.015.03-.26-.37-.405-.606-.78-1.02-.43-.474-1.078-1.162-2.335-1.25-1.257-.09-2.313.763-2.838 1.51-.49.695-1.124 1.49-1.693 1.966-.57.478-.856.55-1.1.507-2.728-.51-4.78-.02-6.36-.62-1.87-.715-4.36-3.04-6.917-4.365-.334-.177-.717-.276-1.096-.272-1.057 0-1.96.73-2.2 1.755-.24 1.025.26 2.083 1.203 2.55.373.19.87.53 1.434.943.252.8.943 1.428 1.815 1.54-.44-.044-.265-.083.11.37.43.53 1.02 1.41 1.66 2.38 1.283 1.943 2.64 4.304 4.97 5.69 4.234 2.517 6.778 4.543 12.387 4.927 4.554.31 8.19-1.637 11.594-4.79-.104 1.662-.274 3.426-.274 5.355v7.87c0 2.528-.337 5.37-.337 8.24v6.424c-14.98-.554-35.267 1.118-51.836.244-3.846-.2-8.33-.274-12.45-.593-4.116-.318-7.89-.953-9.916-1.89-.645-.3-1.096-.42-1.465-.443-.37-.023-.666.03-.99.03-.386 0-.543.01-.81.017-.08-2.96-.17-6.035-.17-7.37 0-3.705-.364-7.283-.364-10.737 0-3.06-.46-6.71-.06-8.36.835-3.43.76-6.654.76-9.9 0-3.457.37-6.69.37-10.372 0-.22.01-.45.014-.67.425.26.88.508 1.373.69 2.24.83 4.89.63 7.765-.55 7.617-3.126 10.307-8.834 11.305-14.185 1-5.35.98-10.434 3.433-14.63 2.44-4.177 4.78-5.646 7.276-6.085.47-.08.93-.136 1.436-.138zm-141.697 4.77c1.602.43 3.224.41 4.958.44 1.887.034 3.84.066 5.34.306 1.497.24 2.313.73 2.47.943.625.856.587 1.22 0 2.336s-1.994 2.582-3.874 3.89c-1.92 1.332-4.32 2.492-6.607 3.31-1.166.113-2.28.273-3.22.455.14-1.507.294-3.074.412-4.484.228-2.69.413-5.12.52-7.2zm5.232 16.076c2.06.042 4.08.462 5.622 1.4 1.55.94 2.76 2.31 3.416 5 .553 2.275.33 3.69-.213 4.808-.545 1.11-1.554 2.07-3.02 2.93-2.934 1.71-7.515 2.74-11.47 4.1-.167.05-.984-.08-2.35-.13.216-4.56.76-10.695 1.326-16.825 1.61-.205 3.303-.63 4.99-1.204.562-.038 1.11-.104 1.69-.09zm162.86 2.896c-.25.027-.52.097-.81.228-.76.353-1.26 1.168-1.416 1.818-.17.71-.47 1.57-.29 2.76.09.6.4 1.36 1.037 1.89.64.54 1.46.74 2.196.74.884 0 1.71-.144 2.457-.67.75-.525 1.19-1.462 1.24-2.21.094-1.5-.546-2.41-1.053-3.144-.21-.306-.51-.545-.85-.686-.035-.012-.577-.38-1.45-.61-.22-.055-.494-.11-.81-.105-.078 0-.158-.01-.243 0zM50.58 171.616c-4.757 0-8.384 2.94-10.052 6.744-1.667 3.802-1.847 8.427-1.006 12.996.84 4.57 2.727 9.104 5.674 12.66 2.95 3.56 7.14 6.164 12.11 6.164 1.536 0 2.618-.085 3.678-.473 1.06-.39 2.03-1.374 2.393-2.106.726-1.46.153-1.15 1.1-1.8 1.143-.78 1.44-2.35.655-3.49-.783-1.14-2.35-1.43-3.494-.65-1.826 1.25-2.43 2.88-2.592 3.36-.173.042-.62.152-1.74.152-3.27 0-5.99-1.62-8.25-4.35-2.26-2.726-3.905-6.544-4.607-10.356-.7-3.813-.42-7.584.67-10.07 1.09-2.482 2.53-3.736 5.46-3.736.302 0 .75.167 1.463.81.715.64 1.545 1.657 2.44 2.76.9 1.1 1.83 2.284 3.144 3.234 1.313.95 3.355 1.605 5.28.948.893-.257 1.574-.986 1.77-1.895.194-.907-.13-1.842-.84-2.44-.71-.597-1.686-.76-2.547-.412-.267.09-.18.13-.72-.26-.537-.387-1.335-1.274-2.196-2.332-.86-1.056-1.793-2.282-2.99-3.355-1.192-1.07-2.8-2.09-4.803-2.09zm442.14 2.945c-.93.03-1.753.6-2.09 1.47-1.04 2.56-1.76 5.09-2.03 7.45-.2 1.74-.21 3.417.276 4.94-1.468.297-3.037.706-4.487 1.39-1.068-2.122-1.84-4.572-2.7-7.123-.32-.992-1.25-1.642-2.29-1.602-.738.03-1.438.4-1.85 1.008-.412.61-.49 1.38-.245 2.077.81 2.384 1.59 4.99 2.84 7.52-1.103.54-2.245 1.18-3.188 2.182.08-.53-.006-1.09-.305-1.573-.72-1.175-1.477-1.19-1.97-1.297-.5-.106-.946-.14-1.42-.14-.95 0-2.01.12-3.14.306-2.27.376-4.627.873-6.486 2.244-1.03.76-1.25 2.207-.49 3.237.76 1.028 2.22 1.265 3.25.5.38-.28 2.614-1.09 4.484-1.4.934-.157 1.82-.247 2.38-.245.143 0 .16.008.243.016.542.32 1.16.39 1.74.244-.715.71-1.55 1.512-2.427 2.345-1.485 1.41-3.054 2.884-3.89 4.94-1.25 3.064-2.765 6.316-3.69 9.84-1.85-1.37-3.578-2.21-5.25-2.99-1.94-.91-3.844-1.76-6.315-3.496-2.67-1.874-5.203-2.94-6.712-3.996-.374-.275-.82-.43-1.28-.447-.4-1.065-1.02-2.02-1.693-3.02-.846-1.254-1.81-2.51-2.61-3.57-.347-.46-.4-.56-.656-.93.37-1.075-.163-2.252-1.22-2.682-.294-.13-.58-.237-.97-.308-.2-.036-.44-.09-.75-.06-.313.027-.688.15-1.1.425-.823.554-1.06 1.665-1.006 2.184.053.52.17.795.29 1.05.476 1.01 1.154 1.814 1.953 2.87-.278-.18-.648-.436-.887-.58-.57-.345-.904-.57-1.49-.763-.148-.043-.32-.08-.61-.102-.294-.025-.8-.084-1.466.366s-.99 1.438-.96 1.94c.028.505.158.74.244.917.345.708.563.823.87 1.143.304.32.65.667 1.05 1.037.908.836 1.923 1.716 2.898 2.5-.717.08-1.26.1-1.94.26-1.08.25-1.687.475-1.89.516-.205.04-.105.057-.687-.075-1.16-.27-2.328.44-2.596 1.6-.268 1.16.455 2.326 1.617 2.594.887.2 1.787.236 2.5.09.718-.144 1.138-.323 2.03-.533.638-.15 2.873-.24 4.638-.64.44-.1.873-.2 1.372-.46.473-.24 1.188-.75 1.465-1.72.07.063.15.13.23.183 2.177 1.53 4.554 2.485 6.71 4 2.8 1.966 5.1 3.023 7.018 3.92 1.917.9 3.415 1.607 5.17 3.05.316.283.686.486 1.085.566-.303 2.123-.47 4.26-.47 6.573 0 .654-.03 1.384-.06 2.168-.204-.012-.4-.03-.61-.043-1.873-.113-3.93-.152-5.414-.197-.075-.004-.14-.004-.214 0-1.28.024-2.31 1.068-2.29 2.35.027 1.28 1.1 2.31 2.38 2.286 1.506.048 3.514.094 5.265.2.35.02.66.05.976.076.08.715.205 1.434.38 2.137.48 1.87.58 4.494.58 6.86 0 3.563.675 6.546.675 9.38v8.07c0 2.9.32 5.67.32 8.083v4.76c-1.773.57-3.502 1.23-5.11 2.014-2.375 1.16-4.883 1.742-7.277 2.912-.076.03-.17.064-.24.105-.133-.98-.75-1.566-1.175-1.878-.453-.334-.86-.52-1.282-.686-1.68-.664-3.87-1.11-4.47-1.36-.846-.342-1.236-.566-1.92-.82-.68-.253-1.58-.366-2.483-.304-.78.037-1.48.49-1.83 1.19-.35.7-.29 1.538.15 2.18.445.648 1.206.99 1.985.918.598-.04.495-.023.687.05.194.07.76.374 1.785.79.645.265 1.18.375 1.875.566-1.095.627-2.24 1.325-3.28 2.016-.454.3-.85.584-1.204.853-.353.27-.584.364-1.037 1.01-.115.16-.29.35-.398.84-.106.49.054 1.533.64 2.09.59.55 1.114.57 1.407.59.29.02.456-.005.61-.03.61-.1.98-.25 1.6-.502.245-.1.63-.29.915-.41-.94.894-1.714 1.59-2.334 2.5-.16.23-.34.47-.473.975-.136.5-.075 1.655.654 2.33.73.68 1.373.65 1.77.64.398-.01.708-.073 1.023-.15 1.092-.262 1.792-1.316 1.615-2.426v-.016c.315-.325.394-.424.81-.823.96-.922 2.09-2.005 3.13-3.113.815-.877 1.57-1.718 2.133-2.7.465.05.948-.04 1.37-.274 1.66-.815 4.36-1.45 7.29-2.885.94-.46 1.98-.886 3.11-1.283.075 1.45.18 2.74.03 3.328-.57 2.237-.392 4.3-.392 6.07v4.852c0 1.174.08 5.59.183 9.594.05 2 .1 3.87.137 5.122.02.623.05 1.093.06 1.37.004.07-.004.107 0 .17.002.03.01.06.015.12 0 .03 0 .076.012.153.005.04.01.09.03.185.023.092.26.61.26.61l.884.12c.056.16.125.31.215.46.453.74 1.286 1.16 2.15 1.095h.46c-.46.557-.96 1.18-1.465 1.864-2.03 2.75-4.166 6.645-4.166 11.622 0 2.22.007 5.62.077 8.617.034 1.5.176 2.62.243 3.74.033.56.073 1.052.122 1.48.05.422.01.65.29 1.34.44 1.202 1.77 1.813 2.974 1.373 1.2-.44 1.83-1.77 1.39-2.972.005.01-.026-.092-.048-.273-.03-.285-.06-.697-.09-1.206-.06-1.017-.21-2.116-.243-3.584-.07-2.936-.08-6.32-.08-8.51 0-3.66 1.537-6.536 3.265-8.88.864-1.17 1.764-2.177 2.532-3.096.46-.553.93-.996 1.293-1.63 1.51-.036 3.02-.056 4.58-.09-.43.566-.81 1.16-1.16 1.77-1.71 3-2.695 6.526-3.156 9.7-.16 1.1-.312 2.2-.472 3.296-.55 3.78-.875 8.56.047 12.186.17.837.78 1.506 1.6 1.753.82.247 1.7.026 2.302-.58.604-.605.83-1.485.58-2.303-.572-2.25-.45-6.993.045-10.39.16-1.096.313-2.2.473-3.294.39-2.716 1.32-5.824 2.605-8.087 1.29-2.26 2.715-3.47 4.35-3.57.55-.01 1.06-.228 1.465-.58h23.977c5.823 0 11.934.96 18.107.96 2.47 0 4.08-.657 5.6-.657.32.023.63-.03.93-.138.623.013 1.25-.2 1.705-.66.58-.58.81-1.425.61-2.214.032.04-.11-.962-.17-1.936-.066-1.113-.13-2.522-.17-3.934-.04-1.413-.064-2.83-.06-3.935.004-.553.016-1.03.03-1.373.014-.257.057-.51.047-.49.865-3.542.03-7.33.03-9.822 0-3.34-.17-6.497.31-9.32.517-3.053.365-6.04.366-8.787 0-2.89.99-6.253.99-10.02 0-4.013.32-8.016.32-12.297v-10.33c0-3.282-.32-6.493-.32-9.382 0-3.585-.546-6.632-1.39-9.944-.48-1.89-.717-3.754-1.327-6.146-.71-2.795-2.363-4.48-3.128-5.98-1.263-2.478-2.916-4.187-4.18-5.845-1.59-2.08-4.013-3.67-5.935-4.803-2.223-1.31-4.474-2.49-7.215-3.16-.693-.17-1.376-.24-2.03-.28 1.018-.477 2.258-1.058 3.36-2.14.69-.66.896-1.68.533-2.56-.362-.88-1.225-1.45-2.18-1.43-.6.012-1.164.26-1.587.685-.227.22-1.83 1.03-3.328 1.86-.75.414-1.536.83-2.242 1.74-.275.353-.49.862-.595 1.42-.73-.24-1.437-.376-2.12-.43-.824-.066-1.594-.027-2.302.045-.424.047-.815.106-1.207.156-.05-.274-.136-.54-.29-.794.033-.06-.065-.926.23-2.06.325-1.247.876-2.586 1.22-3.766.22-.715.07-1.497-.38-2.09-.454-.595-1.16-.937-1.91-.916-1.014.03-1.894.726-2.164 1.706-.2.682-.834 2.228-1.265 3.89-.325 1.257-.695 2.678-.32 4.178-1.95-.074-4.114-.153-6.3.2-.272-.493-.52-1.764-.32-3.493.206-1.775.81-3.974 1.725-6.22.31-.73.235-1.574-.212-2.226-.445-.65-1.192-1.015-1.982-.99zm-220.13 2.29c.203.14.35.25.565.4.582.4 1.182.8 1.74 1.15.278.17.553.318.823.458.27.14.454.298 1.065.413.504.115.98.043 1.42-.155v2.335c-.657-.017-1.276.26-1.71.775-3.527 3.685-5.895 5.213-9.656 4.957-4.73-.324-5.97-1.656-10.45-4.317-.416-.25-1.06-.97-1.766-1.878 1.76.17 3.21-.006 4.06.154 1.97.37 3.69-.524 4.838-1.48.58-.48 1.066-.993 1.48-1.493.28.4.393.618.81 1.098.544.63 1.614 1.02 2.363.96.746-.057 1.205-.316 1.6-.563.79-.494 1.324-1.07 1.86-1.663.36-.4.66-.773.96-1.14zm462.52 7.1c-.15 0-.306.008-.46.02-1.23.083-2.53.454-3.84 1.097-5.738 2.817-8.738 7.42-10.16 11.213-.715 1.892-1.047 3.6-1.19 4.88-.006.026-.015.032-.018.06-2.732-.684-4.955-1.444-8.024-2.198-2.508-.614-5.136-.7-7.446-.7-1.73 0-4.364-.69-7.215-.626-.95.02-1.916.11-2.896.35-2.68.66-6.52.74-10.02 2.456-2.46 1.21-5.12 2.263-7.52 4.62-2.523 2.48-3.57 4.41-5.29 7.23-1.673 2.738-2.21 5.51-3.127 7.765-1.124 2.757-1.145 5.297-1.145 7.993v5.46c-1.485-.088-2.983-.18-4.47-.273-.08-.01-.148-.014-.228-.015-1.28-.015-2.338 1.02-2.35 2.3-.016 1.28 1.02 2.323 2.3 2.334 1.565.095 3.13.195 4.7.29-.09 2.478-.29 4.97-.29 7.67 0 3.058.654 5.58.654 8.086v8.085c0 .225-.01.448-.014.673-1.7-1.2-3.27-1.975-4.82-2.7-1.94-.91-3.86-1.79-6.33-3.525-2.67-1.874-5.22-2.924-6.73-3.982-.376-.27-.82-.41-1.28-.422-.4-1.07-1.007-2.046-1.68-3.05-.844-1.255-1.81-2.496-2.61-3.554-.347-.46-.396-.575-.654-.945.356-1.073-.176-2.24-1.22-2.67-.3-.126-.585-.234-.978-.304-.197-.038-.45-.077-.76-.048-.314.03-.674.12-1.086.398-.82.55-1.074 1.692-1.02 2.21.05.52.184.78.304 1.038.473 1.01 1.153 1.813 1.95 2.868-.275-.175-.66-.434-.9-.58-.57-.34-.89-.55-1.48-.745-.145-.05-.33-.11-.624-.138-.293-.03-.786-.088-1.45.363-.664.45-.99 1.45-.96 1.955.027.503.157.738.243.916.346.71.55.823.855 1.144.305.32.666.667 1.068 1.037.917.843 1.92 1.716 2.9 2.5-.72.083-1.27.117-1.95.277-1.08.254-1.69.463-1.893.504-.203.04-.103.057-.686-.075-.766-.22-1.586-.01-2.138.567-.55.575-.747 1.41-.502 2.17.246.755.897 1.322 1.68 1.462.886.204 1.786.237 2.5.092.717-.147 1.137-.326 2.03-.535.637-.15 2.87-.246 4.637-.64.442-.1.875-.217 1.374-.475.474-.244 1.188-.72 1.464-1.692.07.06.135.115.214.167 2.177 1.53 4.57 2.482 6.726 3.994 2.8 1.964 5.1 3.01 7.017 3.906 1.916.896 3.41 1.635 5.17 3.08.38.342.85.536 1.34.58-.02.53-.03 1.062-.03 1.616v1.45c-1.71.556-3.382 1.19-4.94 1.95-2.374 1.164-4.9 1.746-7.29 2.916-.08.04-.154.09-.23.136-.124-.99-.75-1.593-1.174-1.907-.453-.33-.862-.503-1.282-.67-1.68-.665-3.866-1.11-4.47-1.356-.846-.346-1.236-.584-1.92-.84-.684-.253-1.564-.37-2.47-.304-.786.022-1.506.484-1.86 1.19-.356.7-.31 1.53.136 2.18.44.65 1.212 1.004 1.994.93.597-.04.493-.028.687.043.197.073.777.375 1.8.794.64.26 1.187.374 1.88.564-1.09.62-2.23 1.324-3.268 2.01-.452.308-.88.57-1.232.84-.353.27-.568.37-1.02 1.01-.116.16-.275.36-.383.855-.11.493.054 1.524.64 2.076.59.552 1.098.59 1.39.61.294.02.474-.006.626-.03.61-.1.955-.268 1.574-.52.242-.1.646-.287.93-.41-.94.897-1.73 1.59-2.35 2.5-.16.233-.323.49-.458.992-.136.5-.074 1.64.656 2.317.727.676 1.37.65 1.767.64.4-.01.692-.075 1.01-.154 1.102-.253 1.812-1.32 1.63-2.44v-.014c.31-.325.38-.43.792-.825.96-.92 2.108-1.984 3.144-3.093.832-.894 1.596-1.755 2.165-2.762.444.06.91.015 1.344-.196 1.662-.815 4.357-1.466 7.29-2.9.874-.427 1.857-.816 2.9-1.19v1.694c0 2.87.32 5.68.32 8.083 0 .745-.355 5.71-.748 10.237-.198 2.26-.408 4.492-.58 6.21-.087.855-.15 1.597-.214 2.133-.064.535-.18 1.07-.106.776-.23.81-.02 1.676.58 2.27.6.597 1.464.816 2.274.58.324-.093.62-.26.87-.472.525.32 1.103.53 1.645.655.666.153 1.326.225 2 .228-.513.587-1.063 1.24-1.634 1.987-2.045 2.674-4.223 6.467-4.223 11.334 0 2.155.02 5.463.09 8.376.036 1.455.086 2.8.153 3.89.035.542.074 1.016.124 1.432.05.416-.005.65.29 1.343.45 1.18 1.774 1.765 2.96 1.31 1.18-.45 1.78-1.775 1.324-2.96.016.04-.01-.042-.03-.226-.036-.273-.064-.683-.094-1.176-.06-.985-.115-2.313-.15-3.737-.07-2.844-.076-6.12-.076-8.25 0-3.513 1.54-6.27 3.28-8.54.866-1.135 1.77-2.13 2.544-3.02.74-.85 1.516-1.365 1.814-2.943.685-.223 1.35-.465 1.954-.716.736-.305 1.4-.62 1.982-.96.032-.02.06-.043.092-.06.54.264 1.248.595 2.043.93-1.285 1.057-2.33 2.427-3.155 3.875-1.71 3-2.694 6.525-3.155 9.7-.16 1.096-.313 2.2-.473 3.294-.55 3.782-.876 8.56.046 12.186.313 1.24 1.58 1.99 2.82 1.676 1.245-.312 1.993-1.562 1.68-2.806-.572-2.25-.45-6.994.046-10.39.16-1.1.31-2.2.47-3.296.395-2.713 1.306-5.82 2.59-8.084 1.29-2.26 2.73-3.47 4.367-3.57.67-.015 1.27-.327 1.69-.824.77.02 1.57-.043 2.36-.2 1.05-.205 1.765-.56 2.244-.715 1.2-.394 2.01-.71 2.67-1.024.97.71 2.43 1.52 4.94 2.577 2.083.877 4.114.896 5.69.305 1.575-.59 2.617-1.6 3.417-2.307.8-.704 1.366-1.06 1.56-1.11.195-.054.347-.18 1.37.576 2.796 2.06 6.708 2.623 10.59 2.564 2.73-.04 5.41-.356 7.64-1.39.41.66 1.138 1.1 1.97 1.1 1.28 0 2.333-1.04 2.333-2.32 0-.89-.152-1.9-.35-3.46-.192-1.563-.442-3.47-.7-5.355-.255-1.887-.51-3.76-.7-5.217-.094-.73-.174-1.35-.23-1.817-.052-.467-.074-.91-.074-.73 0-2.23-.014-4.475-.353-6.805-.413-2.865-.302-5.857-.302-9.03 0-2.936.32-5.923.32-9.045 0-3.442-.534-7.173-.047-9.565.862-4.233-.208-8.015.334-10.677.583-2.867.99-7.647.32-10.94-.54-2.642-1.266-6.395-1.266-8.586 0-1.92-.39-3.445-.84-4.67-.34-.93-.687-1.687-.96-2.517.48.164.985.306 1.525.412 2.22.433 4.213 1.302 6.56 1.996 2.35.695 5.1 1.12 8.3.336 1.34-.33 1.806-.838 2.67-1.51.86-.68 1.78-1.534 2.653-2.444.873-.91 1.703-1.854 2.318-2.883.31-.514.57-1.05.735-1.707.162-.66.227-1.558-.23-2.458-.84-1.65-1.878-3.665-3.617-5.37-1.74-1.71-4.29-2.99-7.49-2.99-5.3 0-9.075 2.31-11.7 4.74-1.947 1.803-3.468 3.603-4.65 4.73-.32-.4-.676-.78-1.147-1.13-.88-.646-1.994-1.577-2.822-2.394 4.263-.547 7.92-2.007 11.516-5.537 3.115-3.06 4.006-7.84 3.005-11.87-.5-2.01-1.62-3.99-3.66-5.017-.895-.45-1.9-.666-2.96-.656zm169.562 2.978c-.387.01-.744.04-1.098.076-1.417.148-2.596.368-3.845.368-1.27 0-2.71-.08-4.21-.105-.51-.04-.99-.073-1.39-.073-6.076 0-9.44.006-11.15.076-.43.02-.748.02-1.07.06-.16.023-.307.043-.61.14-.15.048-.35.098-.702.35-.35.253-1.045 1.03-.974 2.06 0 .02.01.025.012.045-.238.066-.46.09-.78.307-.392.267-.842.84-1.022 1.464-.658.32-1.32.67-1.953 1.115-.8.13-1.584.35-2.35.703-.81.303-1.376 1.03-1.48 1.89-.042.376.01.756.14 1.1l-1.693 1.614c-1.484 1.415-3.038 2.888-3.875 4.944-1.43 3.514-3.23 7.267-4.07 11.395-.666 3.25-1.04 6.36-1.04 9.856 0 .653-.035 1.383-.06 2.167-.21-.015-.4-.034-.61-.046-1.876-.112-3.935-.15-5.417-.196-.074-.007-.153-.007-.23 0-1.28.02-2.296 1.065-2.27 2.35.024 1.28 1.083 2.31 2.363 2.283 1.503.05 3.51.095 5.263.2.344.02.67.054.99.077.076.716.188 1.435.366 2.14.477 1.87.594 4.495.594 6.86 0 3.565.65 6.548.65 9.383v8.07c0 1.742.12 3.43.215 5.032-1.66.27-3.088.693-4.47 1.112-2.056.626-4.06 1.25-7.08 1.62-3.25.397-5.857 1.3-7.703 1.525-.478.06-.916.256-1.25.55-1.03-.53-2.147-.824-3.34-1.114-1.487-.36-3.064-.64-4.38-.882-.586-.11-.707-.142-1.16-.244-.366-.84-1.224-1.35-2.135-1.283-.195.014-.384.057-.565.12-.307.107-.576.218-.916.43-.34.212-.928.557-1.16 1.54-.23.985.375 1.95.762 2.29.387.34.67.442.93.55 1 .41 2.036.574 3.295.81-.263.04-.658.09-.884.134-.66.127-1.037.195-1.605.44-.14.065-.31.13-.55.31-.237.18-.655.497-.84 1.297-.183.8.283 1.748.64 2.09.36.34.598.418.78.488.72.284.943.23 1.387.26.44.034.944.04 1.493.046 1.27.013 2.642-.015 3.92-.09-.47.535-.845.907-1.236 1.48-.624.91-.92 1.473-1.04 1.632-.12.156-.016.09-.535.38-1.042.576-1.43 1.886-.854 2.93.578 1.04 1.888 1.43 2.93.852.794-.44 1.49-1.026 1.923-1.616.43-.59.62-.994 1.13-1.74.352-.52 1.923-2.09 2.96-3.57.254-.37.506-.747.7-1.28.176-.49.35-1.316-.06-2.18.066-.004.14-.01.21-.017 2.65-.323 5.068-1.2 7.704-1.524 3.41-.416 5.825-1.184 7.853-1.8 1.15-.35 2.166-.637 3.25-.853v6.114c0 2.14.29 4.41.076 5.25-.56 2.193-.42 4.214-.41 5.963-1.397.947-2.83 1.84-4.15 2.958-.068.056-.12.123-.184.185-.364-.94-1.122-1.355-1.616-1.556-.518-.21-.955-.276-1.403-.336-1.793-.234-4.032-.136-4.68-.23-.91-.13-1.35-.27-2.073-.35-.724-.08-1.605.04-2.47.32-.78.197-1.385.82-1.57 1.6-.186.786.075 1.58.685 2.107.61.53 1.462.686 2.21.386.57-.185.462-.145.67-.123.206.023.852.18 1.952.335.68.095 1.22.062 1.922.075-1.13.098-2.285.153-3.51.153-10.994 0-21.48 1.403-32.095 1.403-4.216 0-8.45-.06-12.69-.14.855-.2 1.57-.895 1.753-1.815.244-1.256-.577-2.47-1.83-2.715-4.07-.8-9.26-1.123-14.1-1.343-4.83-.22-9.35-.333-11.47-.564-.15-.02-.3-.025-.455-.015-1.21.08-2.172 1.09-2.18 2.304-.007 1.216.94 2.224 2.152 2.32 2.616.285 6.98.363 11.747.58 4.664.213 9.64.55 13.18 1.22-6.82-.13-13.67-.275-20.563-.275-7.566 0-17.975-.91-24.575-.49-1.29.08-2.265 1.17-2.18 2.44.084 1.267 1.195 2.233 2.486 2.15 5.824-.37 16.35.473 24.27.473 8.78 0 17.56.274 26.373.4-.023 4.572-.46 12.732-.46 18.946v12.47c-.186.194-.448.44-.823.764-.886.76-2.156 1.725-3.46 2.7-1.306.972-2.647 1.947-3.72 2.73-.34.245-.607.433-.887.64-.96-.124-1.89.367-2.35 1.204-.46.837-.34 1.857.29 2.578.027.037.025.063.076.138.104.157.2.42.84.81.312.193.88.424 1.52.365.617-.058 1.146-.36 1.45-.64-.01.005.005-.008.046-.048.08-.067.26-.225.47-.384.34-.25.798-.59 1.33-.976 1.063-.773 2.42-1.757 3.766-2.76 1.024-.764 2.04-1.533 2.927-2.258.68.66 1.44 1.14 2.23 1.633 2.24 1.4 5.32 4.72 5.87 5.4.44.537.88 1.15 1.39 1.815.495.67 1.33 1.04 2.164.948.84-.093 1.55-.64 1.875-1.4.33-.763.23-1.648-.29-2.303-.446-.59-.933-1.25-1.49-1.937-1.845-2.264-5.08-5.2-6.988-6.392-.72-.452-1.04-.744-1.295-.976.36-.723.298-1.566-.15-2.242-.034-.054-.064-.115-.104-.166v-11.72c0-5.977.434-14.04.457-18.9 1.137.01 2.264.016 3.4.016 10.796 0 21.076-1.346 31.426-1.403-.05.105-.1.225-.154.367-.07.184-.173.41-.153.916.02.5.426 1.455 1.13 1.843.7.386 1.205.295 1.493.24.29-.05.453-.12.595-.18.57-.246.866-.475 1.402-.87.228-.166.59-.465.856-.67-.71 1.13-1.3 1.977-1.68 3.035-.1.265-.2.56-.2 1.08-.007.524.334 1.618 1.202 2.09.867.475 1.493.29 1.877.184.383-.105.66-.23.944-.38 1.01-.528 1.424-1.753.96-2.793.222-.39.26-.5.564-.99.7-1.126 1.55-2.457 2.275-3.784.574-1.053 1.09-2.06 1.386-3.16.45-.06.887-.238 1.237-.548.33-.285.72-.58 1.16-.885.01 1.564.09 5.29.18 8.94.05 2 .113 3.873.15 5.124.02.626.034 1.096.05 1.374 0 .07-.007.105 0 .167 0 .032.006.063.013.122.005.03-.01.073 0 .15.01.04.025.09.048.183.02.093.244.61.244.61s.575.09.92.136c.05.16.11.3.195.444.45.74 1.282 1.16 2.15 1.1h.44c-.46.558-.93 1.18-1.437 1.865-2.03 2.75-4.18 6.645-4.18 11.622 0 2.22.02 5.62.09 8.62.033 1.5.085 2.894.15 4.01.035.56.06 1.057.108 1.48.05.426.01.655.29 1.344.44 1.204 1.76 1.815 2.96 1.374 1.204-.44 1.83-1.77 1.39-2.974.006.01-.025-.108-.046-.29-.032-.283-.046-.695-.076-1.204-.06-1.02-.118-2.377-.15-3.845-.07-2.937-.078-6.32-.078-8.512 0-3.66 1.537-6.533 3.264-8.876.866-1.173 1.75-2.18 2.52-3.098.465-.554.93-.997 1.296-1.63 1.51-.037 3.02-.057 4.577-.092-.427.567-.81 1.16-1.157 1.77-1.71 3-2.684 6.527-3.145 9.7-.16 1.1-.312 2.2-.47 3.297-.552 3.785-.893 8.565.03 12.19.168.838.78 1.507 1.6 1.754.82.25 1.716.028 2.32-.58.603-.603.828-1.483.58-2.3-.573-2.25-.433-6.995.06-10.39.16-1.097.313-2.198.473-3.295.398-2.716 1.29-5.824 2.58-8.087 1.29-2.26 2.728-3.466 4.36-3.57.55-.015 1.07-.225 1.468-.58h23.962c5.822 0 11.95.964 18.122.964 2.47 0 4.063-.66 5.58-.66.325.027.65-.03.946-.134.628.016 1.24-.2 1.696-.656.58-.576.808-1.422.61-2.21.035.037-.094-.964-.152-1.938-.064-1.116-.125-2.525-.166-3.937-.04-1.41-.067-2.83-.06-3.933 0-.55.013-1.03.03-1.37.01-.257.054-.51.044-.488.86-3.543.045-7.33.045-9.823 0-3.34-.19-6.5.29-9.32.516-3.056.364-6.04.364-8.79 0-2.888.977-6.25.977-10.02 0-4.01.336-8.015.336-12.296v-10.34c0-3.282-.334-6.493-.334-9.382 0-3.585-.548-6.632-1.39-9.944-.48-1.89-.7-3.754-1.31-6.146-.71-2.794-2.38-4.48-3.144-5.98-1.26-2.477-2.916-4.186-4.18-5.844-1.59-2.08-4.013-3.67-5.935-4.803-2.222-1.31-4.457-2.49-7.2-3.16-1.667-.41-3.24-.298-4.605-.28-1.363.02-2.495-.074-3.003-.274-.887-.348-1.754-.515-2.58-.58-.41-.03-.83-.04-1.22-.03zm-169.427 1.618c.315.016.55.09.733.183.484.242.964.87 1.25 2.01.565 2.28-.3 6.017-1.756 7.444-3.66 3.593-6.517 4.3-11.41 4.438-.012-.062-.03-.115-.046-.18 0-.18.003-.4.044-.762.104-.915.37-2.29.93-3.782 1.12-2.982 3.324-6.44 7.856-8.663.9-.44 1.567-.63 2.06-.67.128-.013.23-.023.34-.016zm-228.106 3c.71-.03 1.29.05 1.95.307 1.693.666 3.33.615 4.77.595 1.44-.02 2.713-.032 3.416.14 2.1.516 3.87 1.42 5.965 2.656 1.64.967 3.85 2.62 4.608 3.616 1.457 1.91 2.84 3.384 3.736 5.14 1.17 2.293 2.44 3.72 2.78 5.034.53 2.08.76 3.89 1.325 6.116.796 3.122 1.237 5.69 1.237 8.814 0 3.223.32 6.43.32 9.383v10.323c0 4.037-.32 8.04-.32 12.296 0 2.85-.99 6.22-.99 10.02 0 2.895.11 5.65-.29 8.027-.305 1.78-.416 3.52-.43 5.22-1.95.503-3.92 1.125-4.39 1.125-6.927 0-13.25 2.014-19.925 2.014-5.32 0-13.8-1.103-21.92-1.845-7.08-.645-13.778-1.182-18.75.016.036-.254.08-.49.137-.72.58-2.283.18-4.49.09-5.92.613-.174 1.23-.36 1.846-.532 3.452-.97 6.82-1.88 9.472-3.433.94-.537 1.365-1.65 1.052-2.685-.314-1.035-1.285-1.724-2.364-1.65-.364.03-.71.15-1.022.338-1.77 1.04-4.95 1.994-8.39 2.96-.2.056-.41.11-.61.17v-3.404c0-2.8-.333-5.556-.333-8.08V253.3c1.63.397 3.64.794 5.75 1.1 3.087.443 5.93.903 8.56.013 3.09-1.047 5.374-2.08 7.823-4.41 1.02-.97 1.575-2.05 2.21-3.28.634-1.23 1.242-2.586 1.844-3.86.553-1.166 1.11-2.26 1.587-3.05 1.534-.96 2.9-2.217 3.678-4.057.334-.772.25-1.66-.216-2.363-.467-.7-1.246-1.11-2.09-1.1-.998.016-1.897.617-2.27 1.54-.02.054-.066.104-.09.155-1.48.456-2.177 1.33-2.764 2.24-.173.09-.345.174-.533.26-1.936.9-4.47 1.736-6.97 2.915-1.518.712-4.75.874-8.15.55-3.15-.308-6.4-.91-9.05-1.21-.03-2.13-.164-4.45-.716-6.62-.08-.31-.14-.686-.184-1.066.25-.21.47-.46.61-.78.46-1.01.13-2.18-.73-2.82.014-1.06.047-2.13.047-3.156 0-3.172.33-5.9.944-8.923.687-3.368 2.33-6.91 3.83-10.588.28-.69 1.395-2.01 2.776-3.326 1.38-1.317 2.95-2.66 4.15-4.227.272-.357 1.193-1 2.362-1.554 1.17-.558 2.522-1.05 3.736-1.65 1.44-.71 4.56-1.147 7.106-1.77 2.29-.565 5.466-.26 8.65-.26 1.78 0 3.23-.28 4.348-.398.28-.03.525-.05.764-.063zm392.18.993c1.452.21 2.08.23 3.69.503 3.85.65 7.6 1.337 8.94 1.555 1.26.21 2.45-.66 2.65-1.92.006-.05.01-.083.014-.135.11.014.255.02.35.044 2.096.514 3.866 1.42 5.964 2.654 1.64.964 3.85 2.62 4.606 3.613 1.46 1.91 2.83 3.385 3.72 5.14 1.17 2.294 2.44 3.722 2.78 5.035.53 2.08.76 3.89 1.328 6.117.796 3.123 1.236 5.69 1.236 8.815 0 3.22.337 6.425.337 9.38v10.325c0 4.035-.337 8.037-.337 12.294 0 2.845-.98 6.22-.98 10.02 0 2.89.1 5.645-.304 8.022-.303 1.78-.4 3.52-.413 5.217-1.95.505-3.933 1.13-4.41 1.13-6.922 0-13.23 2.01-19.904 2.01-5.32 0-13.8-1.105-21.92-1.847-2.7-.25-5.36-.473-7.87-.595 2.37-1.388 4.62-2.8 6.33-4.488.695-.66.9-1.69.53-2.58-.37-.885-1.25-1.446-2.21-1.416-.6.014-1.16.26-1.585.687-1.45 1.43-4.28 3.155-7.367 4.927-1.79 1.03-3.673 2.09-5.462 3.25-.387.07-.76.14-1.13.23.038-.254.097-.49.156-.72.65-2.55.076-5.024.076-6.407v-7.58c.21-.357.336-.76.332-1.208-.007-.48-.16-.93-.41-1.297-.1-1.985-.26-3.934-.26-5.75v-8.07c0-1.374-.12-2.66-.247-3.905 2.56-.31 5.633-.855 8.6-1.14 3.396-.33 6.63-.166 8.146.55 2.5 1.176 5.053 2.01 6.987 2.91 1.933.9 3.03 1.79 3.385 2.64.33.84 1.073 1.45 1.97 1.57.893.12 1.78-.267 2.32-.99.54-.726.66-1.68.29-2.503-1.135-2.69-3.536-4.122-5.876-5.214-2.34-1.09-4.845-1.916-6.957-2.91-2.42-1.14-5.164-1.334-7.948-1.206-.927.043-1.865.124-2.79.214-3.17.307-6.255.834-8.543 1.13-.007-.175 0-.346 0-.52 0-2.47-.06-5.363-.735-8.01-.075-.29-.14-.63-.185-.98.624-.49.96-1.276.87-2.07-.075-.68-.43-1.26-.975-1.635.01-1.057.03-2.12.03-3.144 0-3.17.313-5.896.93-8.922.686-3.366 2.332-6.91 3.83-10.586.28-.69 1.393-2.01 2.774-3.325 1.375-1.31 2.95-2.65 4.15-4.21 1.41-.02 3.12.263 4.94.84 2.716.86 5.54 2.287 7.993 3.692 1.233.764 2.412 1.532 3.416 2.27 1.41 1.04 2.27 1.62 2.836 1.97.144.086.255.167.444.26.096.044.2.105.49.18.144.04.314.094.763.06.45-.03 1.52-.4 1.952-1.34.43-.94.16-1.56.044-1.845-.116-.29-.206-.41-.274-.503-.14-.193-.205-.268-.272-.336-.135-.14-.234-.208-.35-.308-.938-.79-2.97-2.25-5.78-3.92-.268-.158-.608-.313-.886-.473-.9-.56-1.798-1.077-2.7-1.6 1.102.255 1.813.392 3.125.713 3.035.746 9.332 3.285 11.85 4.18.315.113.57.185.84.26.135.038.245.074.564.108.16.02.336.11.947-.073.305-.092.82-.29 1.235-.87.414-.578.473-1.427.366-1.89-.214-.927-.514-1.02-.657-1.16-.144-.14-.228-.202-.307-.26-.158-.115-.28-.18-.41-.258-.268-.16-.58-.338-1.01-.566-1.168-.62-4.62-2.327-7.688-3.844zm-455.52 9c.11.02.09.09.045.075-.01-.004-.08-.055-.09-.06.01 0 .04-.02.047-.016zm252.454.87c2.07-.05 4.917.53 7.716.53 2.156 0 4.49.126 6.347.58 2.923.72 5.172 1.523 8.24 2.274.44.11.804.2 1.142.307.025.05.06.104.09.154.414.648 1.125 1.047 1.89 1.068.094.14.19.29.29.49 1.32 2.597 3.79 4.246 5.294 5.356-.02-.015.67.855 1.113 1.89.44 1.037.803 2.226.99 2.96.42 1.64.97 2.81 1.327 3.783.358.98.565 1.767.565 3.087 0 3.1.835 6.87 1.372 9.5.34 1.693.09 7.07-.32 9.11-.86 4.22.21 7.974-.34 10.66-.76 3.724-.047 7.665-.047 10.495 0 2.777-.335 5.78-.335 9.046v.565c-.163.063-.312.144-.46.244-.59.385-.936.788-1.035.944.07-.015.044-.003-.017.06-.03.03-.024-.003.013-.06-.043.01-.066.02-.304.076-5.24 1.287-10.05 1.97-15.94 1.97-13.54 0-30.85-1.3-42.48-1.36v-1.72c.676-.198 1.362-.39 2.042-.58 3.453-.97 6.823-1.895 9.473-3.45.94-.537 1.384-1.65 1.07-2.686-.313-1.034-1.3-1.71-2.38-1.63-.363.026-.71.13-1.022.32-1.77 1.04-4.952 2.01-8.39 2.974-.26.073-.53.14-.792.215v-.09c0-2.284.338-4.68.338-7.43v-6.26c.784.604 1.715 1.12 2.82 1.464 2.53.784 6.545 1.94 10.04.807 2.55-.83 4.41-1.66 6.435-3.51.843-.77 1.304-1.625 1.83-2.605s1.04-2.07 1.54-3.08c.46-.934.906-1.79 1.3-2.41 1.262-.756 2.4-1.735 3.05-3.22.302-.66.24-1.44-.186-2.03-.426-.59-1.127-.9-1.847-.824-.73.08-1.368.545-1.65 1.22-.02.047-.065.09-.093.137-1.175.35-1.755 1.035-2.243 1.755-.154.077-.32.14-.49.216-1.604.717-3.704 1.382-5.765 2.317-1.165.524-4.386.67-7.644.38-2.786-.25-5.6-.69-7.78-.95.024-2.325.21-4.66.29-7.14.487-.152.91-.462 1.207-.897.48-.703.527-1.624.137-2.38-.275-.537-.744-.92-1.296-1.114v-5.825c0-2.65.05-4.35.82-6.24 1.13-2.773 1.67-5.268 2.794-7.11 1.784-2.917 2.43-4.224 4.578-6.33 1.66-1.632 3.69-2.494 6.317-3.784 2.183-1.07 5.67-1.267 9.077-2.104.39-.1.82-.13 1.3-.14zm51.266 3.31c2.07 0 3.2.626 4.257 1.66.943.925 1.72 2.266 2.457 3.68-.03.07-.03.063-.09.165-.312.526-.96 1.315-1.68 2.06-.71.744-1.5 1.463-2.16 1.983-.5.39-1.115.657-1.13.7-2.17.49-3.78.26-5.674-.3-1.96-.58-4.17-1.553-6.986-2.105-.5-.1-.865-.274-1.254-.43 1.285-1.293 2.435-2.695 3.74-3.902 2.16-2 4.494-3.506 8.525-3.506zm-630.67 1.41c-.14.004-.29.02-.428.047-8.323 1.423-17.336.792-26.51.93-1.39.02-2.493 1.16-2.472 2.547.02 1.39 1.16 2.51 2.546 2.49 8.888-.136 18.156.524 27.29-1.04 1.278-.23 2.17-1.39 2.06-2.684-.112-1.3-1.19-2.29-2.487-2.29zm84.37 9.84c.616.285 1.262.543 1.937.763.033.09.085.178.153.304.048.09.087.195.167.305.08.11.32.34.32.34l.016.018c2.505 5.05 4.63 8.025 8.238 12.965 2.17 2.97 5.03 5.31 8.41 6.118 3.38.808 7.21-.26 10.19-3.325 3.19-3.27 6.61-6.58 9-8.694.76-.67 1.1-.912 1.57-1.28h.02c.485.018.94-.1 1.34-.333.36.25.766.535 1.238.9 1.54 1.197 3.58 2.91 5.737 4.7s4.438 3.67 6.59 5.217c2.15 1.546 4.043 2.794 6.116 3.325 1.47.38 2.61.64 3.905.49 1.296-.153 2.64-1.08 3.28-2.044 1.28-1.93 1.445-3.68 2.9-6.67 2.253-4.63 2.606-6.46 4.5-10.386l.487.013c-.075 1.14-.15 2.33-.15 3.6v20.06c0 1.375.214 9.175.474 16.763.13 3.793.265 7.436.395 10.05.054 1.12.11 1.998.166 2.686-.12-.01-.176-.014-.213-.014-.08-.004-.1 0-.123 0h-.09c-.04 0-.08-.004-.124 0-.09.003-.19.02-.338.03-.3.02-.723.042-1.237.075-1.03.067-2.423.154-3.903.244-2.96.18-6.362.366-7.506.366-5.26 0-10.353-.03-15.18-1.02-1.54-.316-3.11-.456-4.664-.487-.584-.015-1.16-.02-1.74 0-4.05.11-7.97.79-11.196.79h-28.59c-1.626 0-2.885-.013-3.906-.276-.23-.057-.46-.08-.69-.075.033-.51.05-.92.093-1.56.157-2.33.386-5.41.595-8.495.208-3.09.407-6.18.565-8.513.077-1.165.136-2.142.182-2.836.02-.35.046-.63.06-.825l.013-.23c.004-.06 0 .13 0-.24 0-2.46-.335-4.146-.335-6.086.32-10.586-.47-15.53.273-25.717v-.2c0-.172-.012-.5-.015-.714.242 0 .48-.012.7-.012.488.007 1.097.268.367-.07zm2.333 1.235c.043.084.084.134.124.215-.108-.15-.123-.22-.123-.22zm280.54.474c-.316 0-.6.05-.825.106-.89.224-1.46.59-1.51.61-.35.136-.662.37-.885.673-.535.737-1.217 1.654-1.115 3.216.052.783.538 1.77 1.312 2.29.775.518 1.606.655 2.517.655.755 0 1.58-.183 2.243-.716.663-.532 1-1.317 1.098-1.937.198-1.237-.11-2.13-.29-2.837-.17-.68-.74-1.49-1.51-1.83-.386-.17-.722-.23-1.037-.23zm397.67 0c-.314 0-.6.05-.822.106-.89.224-1.44.59-1.49.61-.35.136-.66.37-.88.673-.532.737-1.213 1.654-1.112 3.216.05.783.54 1.77 1.31 2.29.775.518 1.62.655 2.534.655.753 0 1.56-.183 2.225-.716.664-.532 1-1.317 1.1-1.937.196-1.237-.126-2.13-.306-2.837-.17-.68-.725-1.49-1.495-1.83-.385-.17-.74-.23-1.053-.23zm-672.137.335c1.052.12 2.125.205 3.218.29 4.334.335 8.873.415 12.57.61 4.203.22 8.598.29 13.058.274-.645.49-1.323 1.083-2.15 1.814-2.557 2.26-6.008 5.63-9.26 8.97-2.013 2.067-3.647 2.35-5.445 1.92-1.8-.43-3.85-1.925-5.507-4.193-2.915-3.99-4.675-6.404-6.483-9.685zm58.743.564c1.01-.01 2 0 2.97 0-1.25 2.866-1.8 4.724-3.53 8.266-1.576 3.235-2.26 5.413-2.49 5.89-.205-.004-.733-.02-1.846-.305-.62-.16-2.46-1.135-4.424-2.546-1.962-1.41-4.18-3.233-6.314-5.003-2.13-1.77-4.17-3.494-5.857-4.804-.46-.36-.9-.682-1.314-.977 7.886-.154 15.728-.458 22.79-.52zm415.64 9.136c-.27 0-.5.045-.69.093-.76.19-1.25.5-1.3.517-.3.12-.56.32-.75.58-.457.633-1.064 1.41-.977 2.746.044.67.483 1.51 1.144 1.953.66.444 1.373.564 2.15.564.646 0 1.34-.16 1.91-.61.565-.46.86-1.14.944-1.67.17-1.06-.12-1.82-.275-2.428-.148-.576-.61-1.266-1.268-1.557-.33-.146-.63-.197-.9-.2zm-443.68 2.67c-.59-.04-1.39.123-2 .595-.61.475-.94 1.14-1.08 1.695-.44 1.74-.19 3.31.9 4.743.54.717 1.58 1.503 2.9 1.45 1.31-.057 2.28-.855 2.91-1.71.202-.283.36-.615.422-.96.42-2.098-.563-3.674-1.694-4.714-.565-.52-1.184-1.02-2.365-1.1zm307.99 3.265c-1.11.064-2.027.855-2.186 1.907-2.556 15.533-2.41 35.588-2.41 52.568 0 7.375-.15 14.776-.287 22.193-.06.055-.128.11-.184.17-.12.03-.105.045-.306.076-.84.128-2.234.203-3.72.23-2.97.055-6.35-.06-8.037-.06-6.932 0-14.312-1.45-21.964-1.45-4.9 0-9.83-.49-14.813-.49-2.037 0-3.976.984-4.973 2.38-.997 1.398-1.267 2.936-1.42 4.455-.3 3.036.027 6.32-.272 8.13-.5 3.03-.532 6.11-.52 9.06-.007.06-.026.122-.03.184-.05.718-.01 1.422.03 2.043v.714h.046c.01.16.014.323.014.458 0 .516.03.337-.01.504-.268.85-.048 1.78.58 2.41.625.63 1.546.86 2.393.6.85-.26 1.49-.97 1.65-1.84.147-.583.17-1.17.17-1.663 0-.457-.017-.937-.03-1.388v-.11c-.016-3.554-.077-7.11.44-10.236.474-2.882.075-6.13.304-8.436.114-1.153.4-1.974.625-2.288.224-.317.19-.384 1.006-.384 4.65 0 9.593.473 14.813.473 6.99 0 14.365 1.463 21.964 1.463 1.41 0 4.965.12 8.146.06 1.46-.027 2.81-.085 4.01-.243-.06 3.97-.12 7.932-.12 11.91 0 2.94-.46 5.44-.46 8.71 0 1.363.42 2.253.52 2.73.117.83.71 1.53 1.53 1.815.82.286 1.737.11 2.38-.456.64-.57.9-1.44.67-2.246-.22-1.05-.41-1.65-.41-1.844 0-2.822.455-5.335.455-8.71 0-12.92.475-25.91.475-38.93 0-17-.08-36.95 2.38-51.86.12-.675-.075-1.355-.55-1.86-.475-.51-1.18-.79-1.89-.75zm198.833 0c-1.11.064-2.01.855-2.167 1.907-2.56 15.533-2.44 35.588-2.44 52.568 0 7.375-.125 14.776-.26 22.193-.06.055-.128.11-.184.17-.12.03-.136.045-.337.076-.84.128-2.22.203-3.708.23-2.974.055-6.354-.06-8.04-.06-6.937 0-14.33-1.45-21.985-1.45-4.9 0-9.815-.49-14.8-.49-2.037 0-3.96.984-4.957 2.38-.995 1.398-1.283 2.936-1.433 4.455-.3 3.036.022 6.32-.277 8.13-.6 3.632-.52 7.35-.502 10.815v.016c-.023.225-.05.446-.06.673-.03.586-.03 1.194-.03 1.678 0 .67.13 1.004.166 1.023.18.837.81 1.515 1.63 1.77.847.263 1.767.034 2.394-.595.626-.63.846-1.564.58-2.41-.016-.057-.008-.035-.017-.076 0-.29.02-.59.03-.88h.09v-.93c.1-.39.096-.79 0-1.17v-.014c-.012-3.187-.004-6.345.458-9.152.475-2.88.076-6.13.305-8.434.115-1.153.4-1.974.626-2.288.225-.315.176-.382.99-.382 4.65 0 9.58.475 14.8.475 6.992 0 14.382 1.46 21.982 1.46 1.41 0 4.963.12 8.144.064 1.458-.03 2.826-.087 4.028-.246-.062 3.97-.122 7.933-.122 11.91 0 2.94-.457 5.44-.457 8.71 0 1.364.42 2.254.52 2.73.115.83.706 1.53 1.527 1.816.82.285 1.738.11 2.38-.457.643-.57.9-1.438.67-2.244-.22-1.05-.43-1.655-.43-1.848 0-2.824.475-5.338.475-8.71 0-12.92.474-25.91.474-38.93 0-17-.078-36.95 2.38-51.864.122-.673-.105-1.353-.58-1.86-.476-.51-1.163-.79-1.876-.75zm198.85 0c-1.11.064-2.023.855-2.18 1.907-2.56 15.533-2.426 35.588-2.426 52.568 0 7.375-.156 14.776-.29 22.193-.06.055-.11.11-.167.17-.12.03-.12.045-.322.076-.836.128-2.22.203-3.704.23-2.975.055-6.357-.06-8.04-.06-6.935 0-14.33-1.45-21.98-1.45-4.904 0-9.83-.49-14.815-.49-2.037 0-3.944.984-4.94 2.38-.997 1.398-1.28 2.936-1.435 4.455-.3 3.036.024 6.32-.274 8.13-.6 3.637-.535 7.36-.52 10.83v1.177h.02c-.006.12 0 .196-.015.334-.066.62-.195 1.42-.046 2.41 0 .025-.005.08-.03.185-.256.843-.028 1.774.594 2.396.62.623 1.537.85 2.38.595.842-.254 1.473-.952 1.647-1.815.108-.44.29-1.14.136-2.06-.01-.08-.005-.58.06-1.19.064-.58.207-1.22.05-2.18-.016-3.46-.046-6.91.455-9.95.477-2.88.08-6.13.307-8.44.115-1.156.4-1.977.626-2.29.224-.316.175-.38.992-.38 4.648 0 9.592.472 14.812.472 6.99 0 14.38 1.462 21.98 1.462 1.41 0 4.964.12 8.144.06 1.46-.028 2.813-.086 4.014-.244-.063 3.97-.108 7.933-.108 11.91 0 2.94-.49 6.066-.49 9.337 0 1.363.434 2.253.534 2.73.11.827.688 1.53 1.51 1.814.82.287 1.75.11 2.395-.46.642-.564.902-1.433.67-2.24-.22-1.05-.427-1.65-.427-1.843 0-2.82.473-5.96.473-9.336 0-12.917.474-25.906.474-38.927 0-17-.09-36.95 2.366-51.864.12-.675-.075-1.356-.55-1.86-.477-.51-1.164-.79-1.877-.75zm-705.178.46c.3-.014.555.082.746.182-.1.17-.12.3-.32.46-.1.08-.212.1-.322.15l-.794-.58c-.06.04-.07.06-.016-.01l.014.02c.09-.063.307-.197.687-.213zm249.752 7.976c-.216.448-.424.906-.626 1.298-.544 1.06-1.13 1.88-1.19 1.937-1.943 1.85-3.035 2.29-5.96 3.28-.323.11-3.41.193-6.225-.213-2.59-.372-5.216-.964-6.514-1.342-.073-1.497-.24-2.907-.382-4.27 2.264.297 5.265.817 8.33 1.113 3.704.36 7.51.516 10.736-1.006.587-.27 1.195-.53 1.83-.79zm-249.236 2.41c-.133-.004-.26.01-.394.015-.177.01-.347.02-.52.047-.684.106-1.334.353-1.936.704-.602.35-1.253.833-1.632 1.846-.377 1.01.036 2.52.75 3.233l.823.822c.606.61 1.13 1.06 1.845 1.41.714.35 2.005.597 3.05-.103 1.044-.7 1.244-1.684 1.31-2.305.02-.16-.03-.265-.03-.412.603-.455.955-1.165.946-1.92-.006-.75-.37-1.48-.974-1.922.05-.022-.43-.834-1.966-1.22-.438-.11-.86-.17-1.268-.183zm448.38 3.524c-.17.34-.33.69-.49.99-.45.84-.94 1.46-.99 1.51-1.61 1.47-2.52 1.83-4.94 2.62-1.39.45-5.386-.14-7.55-.81-1.997-.62-2.787-1.79-3.738-3.71 1.86.25 4.14.583 6.45.792 3.47.312 6.9.52 9.66-.733.51-.23 1.05-.456 1.603-.67zm-43.702 2.62c.11.02.093.08.046.06l-.09-.05c.006 0 .04-.018.045-.016zm195.236 16.67c.05-.01.066.03.033.04-.01.004-.107.024-.123.03.007-.004.023-.04.03-.046.025-.013.044-.025.06-.03zM221.41 277.9h.076c.004.04.006.072-.03.212-.016-.077-.033-.14-.048-.216zm405.224.52c-4.165 0-7.53 2.21-9.9 4.086-.92.727-1.543 1.308-2.138 1.83-1.438-1.367-2.96-2.237-4.53-2.623-2.084-.515-4.056-.146-5.75.425-3.39 1.142-6.098 2.852-8.314 2.852-1.285 0-2.337 1.02-2.337 2.3 0 1.28 1.05 2.335 2.333 2.335 4.142 0 7.29-2.254 9.79-3.096 1.25-.424 2.233-.554 3.173-.32.94.23 2.036.843 3.43 2.56.57.694 1.72.972 2.307.884.582-.09.87-.27 1.11-.41.487-.288.788-.555 1.16-.87.747-.64 1.62-1.44 2.64-2.245 2.04-1.61 4.574-3.08 7.017-3.08 2.845 0 6.468 3.63 9.597 6.09.647.555 1.538.713 2.335.41.8-.306 1.358-1.03 1.465-1.877.108-.848-.236-1.686-.93-2.183-2.372-1.86-6.513-7.075-12.463-7.075zm166.725.882c-1.226.124-2.153 1.192-2.09 2.423.064 1.232 1.085 2.212 2.32 2.212 4.146 0 11.915 1.56 19.875 3.187 7.96 1.63 16.18 3.33 22.24 3.404 1.28.017 2.32-1.023 2.337-2.303.015-1.28-.994-2.316-2.274-2.332-5.215-.068-13.41-1.67-21.355-3.298-7.95-1.63-15.612-3.296-20.822-3.296-.08-.007-.15-.007-.23 0zm-341.095.487c-.01.01-.032.045-.12.043.017-.004.11-.044.122-.045zm279.364 0c.05 1.17.143 2.36.32 3.58.28 1.924.32 3.933.32 6.134 0 .48.05.736.11 1.25.06.513.115 1.15.213 1.89.193 1.484.46 3.365.716 5.25.22 1.58.407 3.084.58 4.453-.78.682-3.79 1.675-6.94 1.722-3.22.05-6.59-.79-7.78-1.66-1.713-1.263-3.665-1.76-5.29-1.33-1.627.436-2.62 1.39-3.433 2.11-.81.713-1.447 1.23-1.983 1.432-.54.2-1.048.31-2.29-.214-2.39-1.005-3.587-1.738-4.073-2.105-.242-.18-.29-.276-.26-.24-.03-.073-.023-.084-.18-.29-.26-.338-1.31-1.016-2.17-.9-.86.115-1.063.415-1.19.517-.123.107-.15.14-.17.156-.06.06.036-.03-.06.03-.184.124-.91.55-2.73 1.145-.835.274-1.395.504-1.71.565-1.553.303-4.014-.246-6.02-1.04-1.01-.397-1.9-.83-2.568-1.16-.333-.163-.6-.308-.853-.427-.13-.06-.238-.097-.444-.17-.105-.035-.21-.096-.505-.137-.147-.02-.342-.042-.7.015-.335.055-.922.22-1.39.748.03-.046-.13.116-.38.26-.334.196-.83.444-1.42.69-1.18.49-2.72.982-4.15 1.266-1.426.284-2.79.317-3.37.182-.152-.036-.104-.014-.137-.03-.08-.807-.576-1.48-1.25-1.83.158-1.61.318-3.418.488-5.37.397-4.557.78-8.98.78-10.648 0-1.646-.11-3.295-.21-4.88 11.297.066 28.583 1.34 42.36 1.34 6.25 0 11.514-.734 17.04-2.09.254-.062.495-.127.73-.212zm-78.268.44c-.01.013-.034.05-.123.044.02-.005.11-.045.12-.046zm-228.9 3.77c-10.986 0-21.814.96-32.553.944-1.28 0-2.334 1.025-2.334 2.305s1.05 2.336 2.33 2.336c11.015.01 21.84-.95 32.553-.95 2.036 0 3.67.04 5.184.414 1.244.31 2.5-.463 2.81-1.706.31-1.244-.45-2.483-1.696-2.792-2.19-.533-4.24-.545-6.3-.545zm110.82.03v.045c0 3.26.54 6.926.06 8.8-.15.595-.13.835-.152 1.282-.02.445-.03.99-.03 1.584-.005 1.19.02 2.637.06 4.09.045 1.45.1 2.89.17 4.07 0 .058-.003.088 0 .14-1.673.174-2.912.55-4.043.55-5.666 0-11.79-.96-18.106-.96h-26.01c-5.376 0-12.29.266-16.78.304-.04-1.235-.09-2.967-.14-4.88-.1-3.995-.2-8.617-.2-9.49v-4.18c3.2-1.09 10.69-.984 18.46-.275 7.986.73 16.39 1.874 22.33 1.874 7.555 0 13.97-2.027 19.925-2.027 1.67 0 3.163-.502 4.454-.93zm397.687 0v.045c0 3.26.554 6.926.076 8.8-.15.595-.13.835-.156 1.282-.02.445-.04.99-.04 1.584-.007 1.19.02 2.637.06 4.09.04 1.45.113 2.89.183 4.07.003.058-.003.088 0 .14-1.68.173-2.925.55-4.057.55-5.668 0-11.806-.96-18.123-.96H884.9c-5.38 0-12.275.266-16.764.304-.04-1.235-.09-2.967-.14-4.88-.1-3.995-.2-8.617-.2-9.49v-2.61c.18-.144.37-.272.55-.426.683-.58 1.468-1.16 2.304-1.728 3.82-.436 9.623-.24 15.59.305 7.985.73 16.408 1.875 22.347 1.875 7.552 0 13.953-2.028 19.906-2.028 1.674 0 3.18-.504 4.47-.93zm-473.028 5.155c-.21-.005-.42.01-.625.06-2.515.617-5.137.885-8.07.885-10.992 0-21.45 1.403-32.063 1.403-11.387 0-22.87-.444-34.46-.444-7.564 0-17.988-.907-24.588-.488-1.296.082-2.27 1.17-2.186 2.44.09 1.267 1.2 2.233 2.49 2.15 5.83-.37 16.37.473 24.288.473 8.78 0 17.563.27 26.373.396-.02 4.575-.456 12.735-.456 18.95v12.48c-.187.195-.45.44-.825.765-.888.762-2.158 1.726-3.464 2.7-1.304.973-3.362 4.465-4.44 5.246-.34.25-.603.45-.883.657-.96-.123-1.89.337-2.35 1.174-.46.835-.356 1.87.276 2.59.026.035.024.06.076.136.106.156.205.404.838.792.32.193.866.424 1.51.365.618-.06 1.146-.36 1.45-.64-.01.005.005-.008.046-.05.08-.063.276-.206.487-.365.34-.253.797-.59 1.33-.976 1.07-.773 3.16-4.274 4.5-5.277 1.03-.764 2.03-1.533 2.917-2.258.68.66 1.453 1.14 2.243 1.63 2.24 1.4 5.195 4.26 5.75 4.94.435.536.894 1.164 1.4 1.83.5.67 1.347 1.025 2.185.93.837-.095 1.548-.64 1.876-1.404.327-.764.195-1.634-.32-2.29-.45-.588-.92-1.25-1.48-1.937-1.844-2.264-5.004-4.758-6.91-5.95-.723-.45-1.026-.744-1.28-.976.357-.724.29-1.567-.154-2.243-.038-.053-.08-.114-.124-.165v-11.71c0-5.976.465-14.04.488-18.9 1.14.01 2.266.017 3.404.017 11.027 0 21.486-1.405 32.063-1.405 3.21 0 6.24-.266 9.2-.99 1.16-.26 1.948-1.36 1.817-2.52-.13-1.16-1.13-2.023-2.32-2.03zm198.837 0c-.213-.005-.42.01-.626.06-2.515.617-5.123.885-8.054.885-10.99 0-21.46 1.403-32.08 1.403-11.38 0-22.87-.444-34.46-.444-7.56 0-17.982-.907-24.59-.488-1.29.082-2.25 1.17-2.16 2.44.087 1.267 1.197 2.233 2.488 2.15 5.824-.37 16.35.473 24.27.473 8.778 0 17.578.27 26.39.396-.023 4.575-.49 12.735-.49 18.95v12.48c-.186.195-.433.44-.808.765-.89.762-2.16 1.726-3.464 2.7-1.307.973-2.663 3.2-3.74 3.98-.34.247-.59.45-.87.656-.96-.12-1.887.354-2.347 1.19-.46.838-.36 1.87.27 2.594.028.034.04.06.09.135.108.157.19.405.826.794.317.194.88.425 1.526.366.616-.054 1.145-.36 1.45-.64l.045-.043c.08-.063.26-.22.472-.38.333-.252.79-.59 1.322-.976 1.066-.775 2.423-3.01 3.77-4.013 1.024-.762 2.042-1.53 2.93-2.256.68.66 1.45 1.14 2.24 1.63 2.24 1.403 5.74 3.35 4.867 3.34-.1 0 .895 1.15 1.403 1.816.498.67 1.33 1.026 2.168.93.838-.094 1.55-.624 1.877-1.387.328-.765.226-1.65-.29-2.305-.45-.59-.935-1.25-1.494-1.94-1.843-2.264-4.103-3.14-6.01-4.333-.72-.45-1.026-.742-1.28-.974.36-.72.292-1.564-.155-2.24-.038-.054-.08-.115-.124-.166v-11.71c0-5.976.436-14.04.458-18.9 1.138.01 2.28.016 3.418.016 11.03 0 21.505-1.403 32.08-1.403 3.21.003 6.24-.262 9.2-.99 1.158-.26 1.915-1.357 1.785-2.516-.13-1.16-1.116-2.025-2.303-2.03" fill="#fff"/></g></svg>