<svg xmlns="http://www.w3.org/2000/svg" width="948.47" height="342.777"><g fill-rule="evenodd"><path d="M110.457 66.238c-23.36.117-46.685 1.68-70.05 1.212-5.353-.027-15.382-1.626-14.21 6.58-.508 27.217-1.793 54.418-1.99 81.64-.744 11.202-.553 43.02 6.464 52.663 9.827 14.492 25.29 6.41 43.727 6.345 20.63.09 39.993-7.826 59.75-12.514 7.694-2.612 7.165-12.252 8.155-18.726 1.546-20.13-.55-40.288-.66-60.415.77-16.89 5.2-33.986 1.375-50.8-3.688-6.385-12.678-4.943-19.067-5.768-4.494-.183-8.993-.226-13.49-.217" fill="#c7e660"/><path d="M503.83 18.185c-15.516 24.17-2.51 42.83 31.21 42.06 4.92-.88 8.73-3.666 11.39-7.2 2.66-3.53 4.304-7.837 5.254-12.287 1.9-8.902 1.206-18.268-1.837-23.902-3.78-6.998-12.032-9.895-20.004-10.063-7.973-.17-16.03 2.072-21.08 6.153-1.97 1.59-3.598 3.363-4.933 5.24" fill="#faeb7d"/><path d="M658.055 290.715c-30.045 17.994-4.863 31.885 60.437 31.313 9.522-.657 16.903-2.73 22.052-5.36 5.15-2.63 8.335-5.835 10.174-9.15 3.677-6.625 2.336-13.598-3.556-17.793-7.318-5.21-23.298-7.365-38.737-7.49-15.438-.127-31.038 1.54-40.818 4.58-3.813 1.184-6.967 2.503-9.552 3.9" fill="#ffbfa7"/><path d="M670.57 8.904c-23.237 18.876-3.762 33.447 46.744 32.85 7.365-.69 13.074-2.865 17.056-5.624 3.983-2.76 6.446-6.122 7.87-9.597 2.843-6.952 1.805-14.267-2.752-18.667-5.66-5.465-18.02-7.727-29.96-7.86-11.94-.13-24.007 1.62-31.57 4.807-2.95 1.242-5.388 2.626-7.388 4.09" fill="#be9f81"/><path d="M898.295 94.985c34.812 21.522 5.635 38.135-70.027 37.452-11.033-.787-19.584-3.265-25.552-6.41-5.966-3.145-9.657-6.982-11.787-10.943-4.26-7.926-2.71-16.266 4.12-21.282 8.48-6.232 26.992-8.81 44.88-8.962 17.888-.15 35.965 1.847 47.296 5.48 4.416 1.417 8.07 2.994 11.067 4.665M508.76 251.22c-18.347 25.935-2.97 45.955 36.904 45.13 5.815-.945 10.322-3.934 13.466-7.722 3.145-3.79 5.09-8.413 6.213-13.186 2.245-9.55 1.426-19.6-2.173-25.647-4.467-7.507-14.226-10.615-23.654-10.796-9.427-.185-18.953 2.22-24.925 6.6-2.324 1.706-4.25 3.607-5.83 5.62" fill="#c0cae0"/><path d="M696.577 1.045c-1.717.002-3.3.803-4.882 2.12-1.36 1.135-2.33 2.474-3.066 3.83-.734-1.016-1.535-1.936-2.49-2.595-1.452-1-3.41-1.603-5.28-.838-1.474.605-2.453 1.93-3.033 3.555-2.363-1.357-5.062-1.414-6.957-.2-2.122 1.363-3.28 3.622-3.735 5.996-.46 2.374-.212 5.02 1.31 7.2.992 1.42 2.565 2.484 4.5 2.974-.145.138-.264.257-.412.397-1.482 1.414-3.05 2.885-3.888 4.943-1.433 3.513-3.218 7.267-4.058 11.393-.663 3.252-1.055 6.345-1.055 9.84 0 .657-.032 1.408-.06 2.197-.206-.014-.398-.034-.61-.047-1.875-.113-3.933-.168-5.416-.213-.075-.004-.14-.004-.213 0-1.282.025-2.314 1.068-2.29 2.348.026 1.282 1.1 2.314 2.38 2.29 1.503.045 3.512.09 5.263.198.344.02.66.052.977.076.077.71.202 1.43.38 2.132.478 1.875.596 4.5.596 6.865 0 3.56.654 6.53.654 9.364v8.086c0 2.9.32 5.67.32 8.084v3.754c-2.573-.87-4.738-1.095-6.805-1.282-2.138-.193-4.218-.353-7.154-1.143-3.162-.854-5.907-.984-7.704-1.467-.228-.067-.465-.098-.7-.092-.24.008-.47.05-.688.123-.757-.87-1.673-1.557-2.67-2.273-1.24-.89-2.593-1.75-3.72-2.47-.508-.325-.61-.42-.993-.686-.04-1.122-.937-2.025-2.06-2.075-.322-.02-.61-.025-1.004.044-.394.067-1.064.18-1.648 1.006-.585.827-.37 1.954-.138 2.41.23.46.438.658.64.856.777.758 1.67 1.302 2.76 1.997-.27-.06-.65-.168-.884-.213-.656-.13-1.043-.2-1.663-.184-.155.005-.323-.015-.61.062-.286.076-.795.212-1.266.884-.47.673-.4 1.73-.2 2.182.204.45.41.615.55.747.564.535.805.584 1.205.78.4.197.85.385 1.358.595 1.174.49 2.447.98 3.66 1.39-.636.32-1.115.515-1.69.9-.92.607-1.42 1.01-1.59 1.11-.165.105-.065.096-.655.17-.798.05-1.505.535-1.83 1.266-.325.73-.22 1.585.275 2.21.496.63 1.302.944 2.09.796.9-.113 1.772-.395 2.394-.78.622-.385.94-.69 1.693-1.19.524-.347 2.577-1.198 4.088-2.18.38-.246.736-.51 1.114-.93.35-.392.826-1.08.762-2.045.07.026.14.044.213.063 2.577.693 5.138.773 7.703 1.463 3.32.893 5.838 1.105 7.95 1.297 2.11.19 3.78.367 5.95 1.128.416.168.853.19 1.28.11.042 1.953.254 3.905.06 4.666-.56 2.195-.4 4.217-.396 5.964-1.396.947-2.832 1.84-4.15 2.96-.068.054-.138.12-.198.182-.367-.94-1.11-1.355-1.602-1.557-.52-.21-.956-.276-1.404-.335-1.795-.236-4.035-.136-4.683-.228-.91-.13-1.348-.272-2.074-.352-.726-.08-1.61.04-2.47.322-1.133.366-1.755 1.582-1.39 2.715.202.62.65 1.076 1.206 1.31-10.075.186-19.753 1.39-29.546 1.39-4.662 0-9.353-.093-14.05-.184l-1.707.077-.885-.122c-5.914-.118-11.847-.244-17.816-.244-7.566 0-17.975-.893-24.576-.475-1.29.082-2.266 1.17-2.18 2.44.084 1.267 1.18 2.233 2.47 2.15 5.825-.37 16.365.473 24.285.473 8.78 0 17.564.285 26.375.412-.022 4.572-.458 12.702-.458 18.915v12.478c-.186.193-.45.44-.824.763-.886.765-2.156 1.744-3.46 2.718-1.306.972-3.043 2.834-4.12 3.615-.34.247-.605.435-.885.64-.96-.123-1.903.352-2.363 1.19-.462.837-.343 1.872.288 2.594.028.036.042.06.093.137.106.155.205.403.84.79.315.196.864.426 1.51.368.615-.055 1.144-.36 1.447-.64-.01.007.005-.005.047-.045.077-.065.26-.223.47-.382.338-.252.795-.59 1.328-.976 1.065-.775 2.835-2.613 4.18-3.616 1.024-.766 2.026-1.533 2.912-2.258.68.657 1.453 1.122 2.242 1.616 2.242 1.402 4.267 2.555 4.82 3.234.438.537.896 1.165 1.403 1.83.498.67 1.33 1.026 2.166.93.84-.094 1.55-.624 1.88-1.388.327-.762.21-1.632-.305-2.287-.45-.59-.92-1.25-1.48-1.94-1.843-2.26-4.058-3.08-5.964-4.27-.723-.45-1.04-.73-1.296-.96.358-.724.292-1.583-.153-2.26-.036-.054-.065-.1-.106-.15v-11.73c0-5.98.45-14.013.473-18.87 1.137.007 2.264.015 3.402.015 10.906 0 21.28-1.39 31.742-1.42-.154.194-.306.427-.486.9-.07.186-.157.412-.138.916.02.504.43 1.46 1.13 1.846.7.388 1.205.297 1.494.244.288-.054.453-.123.594-.184.57-.248.866-.475 1.404-.87.227-.168.576-.465.838-.672-.7 1.132-1.28 1.994-1.662 3.052-.096.266-.21.53-.214 1.052-.004.52.34 1.63 1.205 2.104.868.474 1.508.29 1.89.183.386-.105.646-.228.933-.382 1.01-.526 1.44-1.75.976-2.79.22-.39.262-.506.564-.992.696-1.123 1.532-2.454 2.257-3.782.575-1.052 1.09-2.06 1.39-3.158.445-.06.885-.24 1.234-.55.318-.27.7-.55 1.113-.84-.034.64-.088 1.59-.183 2.854-.137 1.785-.32 3.96-.505 6.01-.182 2.048-.353 3.987-.488 5.247-.043.4-.06.557-.09.795v.015l-.016.03c-.003.022 0 .027 0 .046-.085.243-.133.502-.136.762 0 .097-.003.165.016.35.01.093-.01.196.12.58.033.096.058.21.153.38.096.172.594.672.595.672l1.555.504s1.068-.296 1.328-.504c.3-.24.48-.422.596-.564.523.3 1.096.474 1.632.594.1.024.188.043.29.06-.573.68-1.19 1.424-1.862 2.335-2.03 2.75-4.164 6.646-4.164 11.623 0 2.22.007 5.62.077 8.62.034 1.5.084 2.892.152 4.01.032.56.072 1.055.12 1.48.05.425.01.654.29 1.342.442 1.203 1.758 1.8 2.96 1.358 1.204-.44 1.83-1.757 1.39-2.96.007.015-.026-.105-.048-.29-.03-.283-.06-.695-.09-1.204-.06-1.02-.12-2.377-.153-3.845-.07-2.938-.06-6.32-.06-8.514 0-3.66 1.536-6.535 3.263-8.878.864-1.17 1.748-2.18 2.517-3.097.63-.753 1.27-1.264 1.63-2.38 1.507-.344 2.97-.824 4.227-1.33.753-.3 1.434-.61 2.03-.943l.135-.077c.185.087.424.207.642.305-1.653 1.108-2.962 2.732-3.952 4.47-1.707 3-2.695 6.527-3.157 9.702-.16 1.096-.314 2.197-.473 3.295-.55 3.783-.877 8.562.045 12.187.17.837.784 1.506 1.603 1.752.82.247 1.7.026 2.304-.58.602-.605.828-1.485.578-2.303-.572-2.25-.432-6.995.062-10.388.158-1.098.328-2.2.488-3.295.394-2.714 1.29-5.823 2.578-8.085 1.29-2.263 2.726-3.468 4.362-3.57.76-.023 1.434-.428 1.847-1.05 1.486.28 3.083.364 4.695.06 1.06-.203 1.803-.56 2.303-.72 1.25-.393 2.083-.724 2.76-1.035.993.71 2.513 1.51 5.14 2.577 2.125.863 4.17.884 5.766.305 1.598-.578 2.672-1.574 3.493-2.273.82-.7 1.383-1.054 1.616-1.114.234-.06.435-.174 1.495.58 2.856 2.026 6.86 2.59 10.83 2.533 3.36-.05 6.646-.475 9.14-2.076.06.345.13.675.2.945.183.822.79 1.472 1.6 1.707.81.235 1.69.017 2.29-.578.595-.598.824-1.48.59-2.29.016.056-.215-1.01-.41-2.228-.195-1.216-.427-2.77-.64-4.3-.214-1.532-.4-3.042-.52-4.226-.06-.592-.105-1.115-.12-1.465-.01-.174.005-.356.014-.426.81-3.506.015-7.24.015-9.704 0-3.34-.175-6.496.304-9.32.52-3.05.35-6.022.35-8.77 0-2.89.993-6.252.993-10.02 0-4.01.322-8.015.322-12.296-.002-3.45 0-6.894 0-10.343-.002-3.28-.322-6.49-.322-9.38 0-3.586-.545-6.634-1.387-9.945-.48-1.89-.705-3.756-1.314-6.147-.71-2.793-2.377-4.478-3.142-5.98-1.26-2.477-2.914-4.185-4.18-5.843-.846-1.107-1.933-2.064-3.05-2.897.195-.36.36-.708.58-1.1.77-1.373 1.624-2.903 2.196-4.53.573-1.625 1.015-3.653-.184-5.522-1.198-1.868-3.478-2.517-6.192-2.517-3.246 0-5.734 1.395-7.61 3.096-.078-.306-.12-.628-.215-.915-.8-2.39-2.49-4.082-4.35-4.804-1.856-.72-3.756-.59-5.337 0-1.582.59-3.077 1.628-3.57 3.6-.218.872-.33 1.114-.52 1.815-.482-1.574-1.098-3.18-2.287-4.575-.917-1.08-2.416-2.03-4.132-2.03zm.015 4.774c.145 0 .162-.034.488.35.65.763 1.475 3.09 2.028 5.185.122.46.25.896.366 1.327-2.314-.086-4.92-.16-7.505.473-.175.042-.375.067-.567.107.047-.224.107-.44.168-.687.478-1.92 1.48-4.338 3.173-5.75 1.082-.9 1.702-1.007 1.847-1.008zm13.133.715c.34-.01.685.025.976.137.585.225 1.117.62 1.54 1.89.326.96.51 2.464.29 4.608-.923-.024-1.66-.11-2.04-.26-.89-.347-1.754-.512-2.58-.58-.43-.032-.85-.04-1.25-.03.42-1.296.897-2.963 1.45-5.17.027.028.22-.263.656-.427.29-.11.622-.16.96-.167zM682.68 7.97c.06.005.29.052.748.367 1.156.796 2.75 3.23 2.912 6.01-.82.237-1.635.52-2.41.9-.397.195-.912.41-1.495.656.398-1.138.225-2.173-.167-3.463-.092-.3-.322-.622-.458-.93.084-.667.128-1.23.305-2.12.266-1.332.62-1.442.565-1.42zm41.918 1.663c1.625 0 2.077.292 2.15.336.002-.044-.002-.044.016-.018.01.018 0 .024-.015.015-.007.12 0 .557-.278 1.342-.37 1.044-1.1 2.43-1.86 3.78-.165.294-.326.57-.49.855-1.77-.988-3.61-1.85-5.75-2.41.043-.064.08-.134.122-.198 1.33-1.96 3.18-3.707 6.102-3.707zm-50.506.976c.077-.015.157-.01.243 0 .346.03.794.25 1.495.776.47.352.733.69 1.008 1.02-.09 1.11-.066 2.025.045 2.792.11.76.047 1.49 1.206 2.41.1.08.23.15.362.214-.465.285-.916.607-1.343.992-.36-.165-.75-.265-1.173-.23-2.227.187-3.022-.398-3.585-1.204-.564-.808-.795-2.2-.534-3.555.26-1.354 1.012-2.51 1.614-2.898.228-.147.425-.28.656-.32zM507 12.3c-.387.01-.745.04-1.098.076-1.418.144-2.628.365-3.875.365-2.788 0-6.288-.455-9.763.398-2.006.492-5.295.757-8.04 2.105-.852.418-2.255.945-3.675 1.616-1.42.674-2.93 1.45-4.06 2.93-.713.93-2.178 2.277-3.66 3.69-1.485 1.415-3.054 2.87-3.89 4.927-1.43 3.515-3.22 7.284-4.06 11.41-.66 3.252-1.052 6.345-1.052 9.84 0 .657-.034 1.408-.06 2.197-.207-.014-.4-.034-.61-.047-1.876-.113-3.934-.183-5.417-.228-.074-.005-.14-.005-.213 0-1.28.024-2.313 1.082-2.29 2.362.026 1.282 1.1 2.3 2.38 2.274 1.504.044 3.51.105 5.263.213.35.02.66.05.976.075.077.714.202 1.433.38 2.134.48 1.874.58 4.483.58 6.85 0 3.562.67 6.544.67 9.38v8.084c0 1.668.093 3.282.185 4.82-.26-.07-.515-.09-.792-.062-2.85.133-5.024.766-7.078 1.388-2.055.624-4.045 1.234-7.062 1.603-3.25.397-5.856 1.33-7.704 1.556-.49.03-.947.204-1.312.502-1.016-.51-2.11-.8-3.28-1.084-1.486-.36-3.06-.638-4.38-.885-.585-.11-.706-.142-1.158-.245-.366-.836-1.225-1.364-2.136-1.296-.193.013-.38.056-.564.12-.306.106-.59.233-.93.444-.34.21-.912.54-1.144 1.525-.232.984.375 1.965.763 2.304.385.337.668.442.93.548.996.41 2.035.578 3.294.81-.263.043-.657.094-.884.136-.66.128-1.05.195-1.617.443-.144.06-.3.127-.536.305-.237.18-.67.497-.854 1.297-.04.178-.044.353-.03.535-5.138-5.95-10.894-12.096-13.454-16.857-.41-.8-1.237-1.3-2.136-1.297-.844.003-1.62.445-2.044 1.175-.426.73-.442 1.64-.03 2.38 3.868 7.193 12.08 15.05 17.48 21.8 2.97 3.71 5.545 6.96 9.03 10.447.04.04.08.085.123.122-6.378.403-12.656.914-18.993.914-8.214 0-16.48-.246-24.8-.38 1.754-.213 3.628-.426 4.345-.426h17.238c.86.012 1.656-.43 2.09-1.175.433-.744.433-1.68 0-2.426-.434-.743-1.23-1.186-2.09-1.175h-17.238c-1.1 0-2.46.15-3.812.32-.448-.515-1.09-.8-1.77-.81-.66-.002-1.285.27-1.74.75-.36.04-.814.114-1.48.38-.205.083-.373.16-.61.29-.117.066-.262.145-.457.305-.193.16-.507.36-.762 1.114-.254.75.15 2.11.67 2.576.095.082.165.14.246.2-1.43-.014-2.854-.017-4.287-.017-7.566 0-17.99-.894-24.59-.476-1.293.084-2.266 1.173-2.183 2.442.086 1.267 1.198 2.233 2.488 2.15 5.826-.37 16.366.473 24.285.473 8.778 0 17.563.284 26.373.41-.02 4.573-.457 12.703-.457 18.916v12.477c-.186.193-.45.44-.824.762-.885.763-2.155 1.742-3.46 2.716-1.306.973-3.364 4.466-4.44 5.247-.34.246-.605.434-.885.64-.96-.122-1.89.353-2.35 1.19-.46.838-.356 1.857.276 2.578.026.036.025.077.076.152.108.158.207.405.84.794.318.195.865.426 1.51.367.616-.056 1.145-.375 1.45-.656-.012.008.004-.004.045-.044.08-.065.277-.21.49-.366.336-.253.794-.575 1.326-.96 1.066-.775 3.155-4.276 4.5-5.28 1.025-.764 2.028-1.517 2.914-2.242.68.66 1.452 1.11 2.243 1.603 2.24 1.403 5.197 4.28 5.75 4.958.437.538.896 1.15 1.403 1.815.496.67 1.344 1.04 2.18.946.84-.095 1.55-.625 1.878-1.388.328-.763.196-1.648-.32-2.303-.45-.59-.92-1.25-1.48-1.938-1.843-2.264-5.003-4.773-6.91-5.965-.722-.45-1.026-.73-1.28-.96.36-.723.292-1.58-.153-2.257-.036-.056-.08-.117-.122-.17v-11.71c0-5.978.465-14.01.488-18.87 1.136.008 2.264.016 3.4.016 9.718 0 19.006-1.098 28.313-1.358.18.438.494.88.96 1.144.865.49 1.506.31 1.89.213.386-.1.66-.233.947-.382.464-.232.8-.61.993-1.05 2.834-.056 5.515-.344 8.16-.994 1.16-.26 1.947-1.34 1.816-2.5-.132-1.16-1.13-2.027-2.32-2.03-.21-.005-.42.023-.625.075-1.653.406-3.356.655-5.155.777.364-.58.74-1.185 1.08-1.784.59-1.027 1.123-2 1.45-3.067.47-.066.926-.27 1.283-.61 1.432-1.17 3.91-2.416 6.437-4.484.464-.38.974-.755 1.51-1.13-.01.076-.015.155-.03.215-.57 2.24-.397 4.3-.397 6.07v4.853c0 1.176.082 5.592.183 9.594.05 2.002.1 3.86.138 5.11.02.626.048 1.096.06 1.373.005.07-.003.12 0 .183.003.03.01.077.016.137.003.03.003.06.014.138.006.04.01.075.03.168.024.094.26.625.26.625s.787.107 1.556.215c.66.494 1.415.772 2.12.93.146.034.28.052.428.077-.573.674-1.194 1.415-1.862 2.32-2.028 2.75-4.163 6.646-4.163 11.623 0 2.22.006 5.62.076 8.618.035 1.5.085 2.895.15 4.014.036.56.075 1.04.124 1.463.048.425.025.653.306 1.342.44 1.203 1.755 1.814 2.958 1.373 1.202-.44 1.828-1.757 1.388-2.96.008.015-.025-.105-.046-.29-.032-.283-.06-.695-.09-1.204-.062-1.02-.12-2.376-.154-3.844-.068-2.937-.076-6.32-.076-8.513 0-3.66 1.536-6.535 3.264-8.878.864-1.17 1.764-2.18 2.532-3.097.64-.764 1.28-1.294 1.633-2.442 1.45-.34 2.863-.78 4.07-1.266.755-.3 1.42-.61 2.015-.944.046-.026.093-.05.138-.076.21.1.492.205.747.32-1.626 1.108-2.91 2.736-3.89 4.454-1.71 3-2.695 6.527-3.156 9.703-.16 1.097-.314 2.198-.474 3.295-.55 3.785-.877 8.564.045 12.19.17.838.783 1.506 1.6 1.753.82.247 1.7.026 2.305-.58.604-.605.83-1.5.58-2.318-.572-2.25-.45-6.98.045-10.372.16-1.098.314-2.2.474-3.295.39-2.714 1.32-5.823 2.604-8.085 1.29-2.263 2.713-3.468 4.348-3.57.76-.017 1.445-.413 1.86-1.037 1.45.26 2.987.34 4.547.046 1.06-.2 1.803-.557 2.303-.716 1.26-.396 2.097-.738 2.776-1.05.992.71 2.477 1.524 5.11 2.59 2.124.864 4.17.87 5.765.29 1.598-.578 2.687-1.558 3.51-2.256.822-.7 1.382-1.07 1.615-1.13.236-.06.437-.158 1.497.596 2.855 2.026 6.86 2.59 10.83 2.532 2.984-.043 5.893-.378 8.253-1.572.283.58.8 1.02 1.434 1.206.81.235 1.69.015 2.288-.58.578-.576.807-1.407.61-2.197.033.04-.11-.964-.168-1.938-.066-1.114-.128-2.538-.168-3.95-.04-1.416-.066-2.83-.06-3.937.002-.554.014-1.03.03-1.374.012-.257.055-.496.045-.473.866-3.543.03-7.33.03-9.824 0-3.34-.17-6.497.31-9.32.517-3.052.365-6.04.366-8.786 0-2.89.99-6.253.99-10.02 0-4.014.32-8 .32-12.28V58.72c0-3.28-.32-6.492-.32-9.38 0-3.587-.544-6.635-1.387-9.946-.483-1.89-.72-3.756-1.33-6.148-.71-2.792-2.36-4.477-3.126-5.98-1.26-2.476-2.915-4.185-4.18-5.842-1.59-2.08-4.01-3.673-5.934-4.805-2.224-1.31-4.476-2.487-7.217-3.16-1.67-.41-3.228-.31-4.59-.29-1.366.02-2.514-.06-3.022-.26-.885-.35-1.75-.513-2.576-.58-.41-.032-.82-.04-1.205-.03zm362.19.686c-.3-.002-.61.01-.915.03-.693.043-1.397.132-2.105.29-1.288.288-2.103 1.578-1.815 2.868.288 1.287 1.58 2.087 2.868 1.8 3.45-.768 7.527.93 11.61 3.187-3.13-.24-6.29-.46-9.124-.456-1.138 0-2.22.035-3.22.12-4.01.35-5.965.432-7.81 1.146-.924.356-1.75.933-2.38 1.555-.63.623-1.13 1.268-1.8 2.074-.845 1.013-.693 2.526.32 3.37 1.013.845 2.496.694 3.34-.32.703-.84 1.18-1.41 1.495-1.72.316-.315.41-.38.732-.506.642-.25 2.495-.49 6.513-.84 2.41-.21 5.946-.05 9.626.2-5.214 1.965-10.113 4.696-13.76 8.342-.93.937-.92 2.442.016 3.372.935.93 2.426.934 3.356 0 1.882-1.883 4.353-3.566 7.124-5.004-1.33 1.633-2.215 3.213-3.447 5.232-1.674 2.737-2.21 5.51-3.128 7.763-.172.422-.32.84-.443 1.252-2.122-1.708-4.093-2.657-5.98-3.54-1.94-.91-3.828-1.773-6.3-3.508-2.668-1.873-5.218-2.938-6.727-3.998-.378-.274-.833-.43-1.296-.442-.4-1.068-1.02-2.022-1.692-3.02-.845-1.257-1.795-2.513-2.592-3.57-.348-.46-.4-.56-.656-.93.352-1.077-.186-2.245-1.238-2.67-.298-.127-.568-.25-.96-.32-.196-.035-.45-.09-.762-.06-.313.027-.673.15-1.084.425-.823.552-1.076 1.662-1.022 2.182.05.52.2.795.32 1.05.474 1.012 1.14 1.815 1.936 2.87-.275-.18-.66-.436-.9-.58-.57-.344-.907-.553-1.495-.748-.147-.048-.303-.096-.595-.12-.292-.027-.816-.086-1.48.364-.665.45-.973 1.45-.946 1.952.028.503.142.738.23.916.345.71.562.822.868 1.144.305.32.682.65 1.082 1.022.915.842 1.918 1.728 2.9 2.515-.725.08-1.27.1-1.953.26-1.08.253-1.702.446-1.905.487-.203.04-.105.087-.687-.046-.77-.227-1.608-.01-2.165.566-.56.576-.74 1.405-.49 2.166.254.76.902 1.32 1.695 1.448.886.203 1.785.237 2.5.092.716-.145 1.152-.31 2.045-.52.636-.148 2.87-.258 4.637-.655.44-.1.874-.2 1.372-.458.47-.243 1.154-.733 1.434-1.693.068.058.152.116.23.167 2.176 1.53 4.57 2.484 6.726 3.997 2.8 1.965 5.085 3.008 7 3.905 1.92.9 3.43 1.624 5.187 3.068.566.51 1.34.69 2.073.518-.037.825-.03 1.66-.03 2.503v5.447c-1.486-.09-2.968-.17-4.453-.26-.08-.01-.164-.015-.244-.016-1.28-.013-2.322 1.007-2.334 2.29-.013 1.28 1.022 2.335 2.304 2.347l4.682.29c-.086 2.482-.274 4.988-.274 7.688 0 3.056.655 5.58.655 8.085v8.07c0 2.35-.337 4.736-.337 7.428v3.14c-2.81.417-5.682.927-8.298 1.803-2.493.835-5.06 1.047-7.582 1.89-.086.03-.163.07-.243.11.008-1.01-.547-1.675-.93-2.044-.404-.39-.78-.618-1.174-.84-1.58-.884-3.688-1.625-4.257-1.95-.797-.46-1.157-.74-1.8-1.085s-1.505-.566-2.41-.625c-.075-.004-.157-.004-.23 0-1.127.066-2.013.976-2.03 2.105-.014 1.13.843 2.084 1.97 2.18.593.04.486.04.67.14.183.096.73.47 1.693 1.02.608.35 1.117.54 1.784.825-1.157.472-2.37 1.026-3.477 1.57-.49.24-.942.466-1.327.686-.385.224-.61.275-1.145.857-.133.145-.318.32-.487.793-.17.474-.14 1.515.367 2.135.506.62 1.01.72 1.297.778.288.058.455.066.61.06.62-.017 1.003-.138 1.648-.304.27-.07.705-.215 1.02-.307-1.07.79-1.935 1.37-2.682 2.21-.188.214-.382.434-.58.917-.197.484-.278 1.635.352 2.396.628.76 1.266.824 1.662.87.394.044.683.02 1.005-.016 1.137-.113 2.002-1.102 1.952-2.243.35-.28.424-.347.885-.687 1.064-.786 2.344-1.706 3.51-2.67.934-.772 1.796-1.532 2.485-2.455.422.112.88.118 1.327-.03 1.742-.583 4.51-.873 7.596-1.907 1.947-.653 4.326-1.096 6.818-1.48v.244c0 2.872.335 5.682.335 8.085 0 .893-.24 5.675-.52 10.082-.14 2.202-.3 4.353-.43 6.023-.063.835-.115 1.54-.166 2.06-.017.163-.042.302-.062.442-.174.326-.287.686-.287 1.083 0 1.28 1.052 2.332 2.333 2.332 1.54 0 3.434-.043 5.445-.09-.65.732-1.404 1.594-2.226 2.67-2.045 2.672-4.225 6.465-4.225 11.332 0 2.154.02 5.463.09 8.374.036 1.455.085 2.8.154 3.89.034.544.07 1.033.12 1.448.05.416 0 .637.29 1.327.454 1.18 1.78 1.766 2.96 1.314 1.182-.454 1.78-1.778 1.327-2.96.02.04-.007-.045-.03-.23-.032-.27-.06-.696-.09-1.19-.062-.984-.12-2.296-.154-3.72-.07-2.85-.09-6.125-.09-8.253 0-3.514 1.54-6.286 3.28-8.556.867-1.135 1.77-2.114 2.546-3.005.68-.783 1.393-1.28 1.738-2.578 1.718-.04 3.414-.077 5.005-.092-.78.845-1.45 1.8-2.015 2.79-1.707 3-2.68 6.53-3.14 9.705-.16 1.096-.315 2.197-.474 3.294-.55 3.783-.876 8.562.046 12.19.314 1.24 1.565 1.99 2.81 1.674 1.24-.312 2.005-1.562 1.69-2.806-.57-2.25-.446-6.995.048-10.388.158-1.098.312-2.2.472-3.295.394-2.714 1.29-5.823 2.578-8.085 1.287-2.263 2.74-3.468 4.377-3.57.85-.02 1.61-.495 2-1.25.043-.085.074-.186.106-.275h19.144c5.823 0 11.934.976 18.106.976 1.217 0 2.22-.162 3.112-.32.38.27.843.41 1.343.41.725 0 1.375-.317 1.8-.837.963-.282 1.664-1.172 1.664-2.226 0-.826-.435-1.543-1.084-1.955.025-1.662.045-3.175.09-5.735.07-3.77.124-7.336.124-8.114 0-2.23.004-4.473-.335-6.803-.42-2.865-.32-5.873-.32-9.045 0-2.937.334-5.924.334-9.047 0-3.44-.533-7.17-.046-9.56.862-4.235-.222-8.016.32-10.68.583-2.865 1.006-7.645.336-10.936-.54-2.644-1.266-6.397-1.266-8.59 0-1.917-.404-3.44-.855-4.667-.45-1.226-.885-2.147-1.19-3.34-.237-.935-.643-2.29-1.22-3.646-.577-1.355-1.16-2.73-2.608-3.797-1.44-1.06-3.5-2.865-3.92-3.693-.713-1.395-1.77-2.5-2.93-3.17-1.16-.675-2.357-.99-3.54-1.283-2.833-.695-5.073-1.468-8.22-2.242-2.51-.615-5.15-.716-7.46-.716-1.73 0-4.35-.69-7.2-.63-.15.006-.307.01-.46.018l-.106-.718s-.406-.112-.473-.122c-.135-.018-.154-.014-.184-.015-.323-.018-.322-.006-.35 0-.517-.428-1.195-.654-1.908-.534l-.092.014c-.277-.056-.55-.076-.838-.03-.584.05-1.953-.307-3.662-1.16-1.707-.85-3.74-2.085-5.948-3.325-3.624-2.036-7.824-4.2-12.342-4.21zM507.137 16.92c.715-.03 1.296.033 1.952.29 1.695.668 3.33.615 4.772.595 1.44-.02 2.713-.02 3.416.152 2.097.514 3.867 1.417 5.964 2.654 1.64.967 3.848 2.638 4.607 3.63 1.46 1.91 2.842 3.37 3.737 5.126 1.167 2.292 2.442 3.705 2.775 5.017.53 2.082.76 3.92 1.327 6.148.794 3.125 1.235 5.675 1.235 8.8 0 3.225.32 6.428.32 9.383V69.06c0 4.036-.32 8.022-.32 12.28 0 2.846-.99 6.22-.99 10.02 0 2.892.112 5.63-.29 8.01-.304 1.778-.415 3.518-.43 5.216-1.95.505-3.918 1.143-4.39 1.143-6.926 0-13.25 2.03-19.924 2.03-5.315 0-13.796-1.136-21.92-1.88-7.08-.646-13.774-1.182-18.746.017.036-.252.08-.49.137-.718.39-1.53.334-2.99.23-4.24.786-.446 1.585-.89 2.38-1.328 3.137-1.736 6.225-3.403 8.45-5.522.7-.65.917-1.66.565-2.546-.353-.888-1.213-1.47-2.166-1.465-.603 0-1.186.234-1.62.654-1.485 1.415-4.35 3.092-7.473 4.82-.092.05-.197.1-.29.15V91.04c0-2.805-.335-5.56-.335-8.086v-8.086c0-.15-.013-.292-.015-.443.663-.02 1.418-.11 2.67-.21 2.817-.23 7.077-.55 8.435-.55h1.403c.86.01 1.656-.432 2.09-1.175.434-.744.434-1.682 0-2.426-.434-.743-1.23-1.187-2.09-1.175h-1.403c-1.952 0-5.803.32-8.603.55-.325-.098-.674-.11-1.01-.064-.903.11-1.485.174-1.86.23-.15-1.408-.274-2.77-.274-4.12 0-2.47-.06-5.364-.733-8.008-.08-.313-.138-.673-.183-1.053.247-.213.467-.48.61-.794.46-1.013.127-2.17-.73-2.806.012-1.06.045-2.148.045-3.174 0-3.172.33-5.882.945-8.908.686-3.367 2.332-6.912 3.83-10.587.28-.688 1.394-2.01 2.775-3.325 1.38-1.316 2.952-2.658 4.15-4.226.274-.36 1.195-1 2.364-1.556 1.17-.554 2.52-1.05 3.735-1.646 1.133-.558 3.29-.96 5.4-1.404.505.486 1.216.755 1.966.656 2.876-.384 4.98-.225 7.78 2.578.19.188.563 1.098.46 2.806-.105 1.707-.587 3.96-1.22 6.3-.636 2.34-1.404 4.784-2.03 7-.627 2.22-1.175 4.144-1.175 5.98 0 8.407 4.685 14.934 10.968 17.665 6.282 2.732 14.182 1.62 20.135-4.33 2.24-2.24 3.387-4.93 3.46-7.536.076-2.61-.82-5.048-2.195-7.14-2.75-4.188-7.322-7.25-11.884-8.01-2.686-.45-5.2.508-6.925 2.09-1.722 1.58-2.774 3.73-3.05 6.01-.276 2.28.28 4.8 2.03 6.696 1.748 1.898 4.53 2.99 8.023 2.99 1.132 0 2.51-1.1 2.836-1.998.326-.9.255-1.534.183-2.12-.146-1.174-.51-2.17-.795-2.884-.305-.81-1.02-1.395-1.876-1.524-.857-.13-1.715.215-2.245.9-.53.683-.643 1.6-.303 2.394.024.057.036.16.063.23-1.16-.266-1.91-.726-2.365-1.22-.693-.754-.963-1.743-.824-2.885.137-1.144.746-2.325 1.556-3.067.81-.743 1.703-1.104 2.93-.9 2.844.475 6.71 2.972 8.647 5.918.967 1.475 1.458 2.98 1.418 4.38-.04 1.4-.525 2.785-2.043 4.3-4.706 4.71-10.32 5.313-14.886 3.326-4.565-1.985-8.085-6.605-8.085-13.286 0-.726.38-2.576.977-4.683.596-2.11 1.39-4.56 2.06-7.033.67-2.472 1.23-4.947 1.373-7.26.14-2.315-.082-4.72-1.845-6.484-.222-.22-.448-.425-.672-.626.854-.09 1.62-.194 2.26-.26.28-.027.523-.05.76-.06zm199.705 0c.72-.03 1.312.033 1.968.29 1.62.636 3.17.63 4.56.61l1.008.58 1.54-.472s.066-.053.092-.077c.38.025.724.046.977.108 1.963.482 3.655 1.323 5.582 2.44.18.782.75 1.452 1.57 1.725.383.127.77.14 1.142.075.974.733 1.866 1.492 2.29 2.045 1.458 1.91 2.826 3.37 3.72 5.125 1.17 2.293 2.443 3.72 2.776 5.033.53 2.084.76 3.905 1.327 6.134.795 3.124 1.235 5.674 1.235 8.8 0 3.223.32 6.426.32 9.382V69.06c0 4.037-.32 8.038-.32 12.296 0 2.847-.99 6.22-.99 10.02 0 2.892.112 5.616-.29 7.995-.303 1.78-.414 3.535-.428 5.23-1.95.51-3.92 1.13-4.393 1.13-6.924 0-13.25 2.03-19.92 2.03-5.318 0-13.8-1.12-21.92-1.86-2.7-.246-5.34-.486-7.858-.61 2.374-1.384 4.624-2.782 6.33-4.47.698-.66.905-1.69.535-2.576-.372-.887-1.252-1.45-2.213-1.42-.603.02-1.182.27-1.602.702-1.45 1.433-4.266 3.14-7.352 4.913-1.79 1.024-3.672 2.087-5.46 3.247-.39.07-.76.14-1.13.228.036-.25.08-.488.138-.716.65-2.553.077-5.026.077-6.408v-7.75c0-2.802-.322-5.557-.322-8.083v-4.273c1.624.4 3.628.795 5.737 1.1 3.085.444 5.926.89 8.557 0 3.09-1.046 5.375-2.084 7.824-4.41 1.02-.97 1.58-2.05 2.215-3.28s1.24-2.6 1.845-3.874c.55-1.16 1.096-2.23 1.57-3.02 1.54-.96 2.915-2.21 3.69-4.056.345-.775.27-1.674-.196-2.38-.47-.707-1.26-1.128-2.105-1.114-1 .014-1.9.63-2.275 1.556-.027.06-.075.12-.108.18-1.46.455-2.152 1.295-2.73 2.197-.18.09-.355.183-.55.275-1.934.9-4.47 1.734-6.972 2.912-1.513.714-4.748.878-8.145.55-3.14-.304-6.384-.892-9.03-1.19-.03-2.137-.162-4.463-.716-6.636-.074-.288-.14-.628-.183-.976.625-.494.96-1.28.87-2.075-.075-.676-.443-1.257-.99-1.632.01-1.055.03-2.138.03-3.16 0-3.17.33-5.88.946-8.907.685-3.365 2.33-6.91 3.828-10.585.28-.687 1.395-2.01 2.776-3.324 1.38-1.317 2.967-2.66 4.164-4.227.273-.36 1.193-1 2.363-1.556 1.17-.554 2.51-1.05 3.722-1.646 1.44-.71 4.56-1.144 7.106-1.77 2.29-.562 5.495-.26 8.68-.26 1.78 0 3.2-.28 4.316-.396.278-.027.523-.05.762-.06zm188.205 10.86c2.072-.046 4.903.55 7.703.55 2.155 0 4.507.11 6.36.565 2.924.717 5.157 1.504 8.223 2.257 1.074.263 1.842.516 2.32.793.474.277.75.537 1.112 1.25 1.322 2.595 3.787 4.23 5.293 5.34-.02-.016.657.84 1.1 1.875.44 1.037.817 2.242 1.005 2.975.42 1.643.97 2.81 1.327 3.783.358.974.564 1.762.564 3.08 0 3.104.838 6.875 1.374 9.505.344 1.692.08 7.067-.336 9.106-.86 4.22.226 7.98-.32 10.662-.76 3.726-.047 7.667-.047 10.496 0 2.776-.35 5.78-.35 9.045 0 1.39-.03 2.815-.016 4.286-.16.063-.3.147-.444.244-.59.387-.923.805-1.023.96.07-.015.045 0-.016.062-.027.028-.02-.003.015-.06-.043.01-.083.017-.32.075-5.243 1.29-10.05 1.97-15.94 1.97-13.515 0-30.776-1.295-42.407-1.36-.043-.784-.076-1.562-.076-2.302v-.93c2.97-.43 5.836-.895 8.236-1.91 1.06-.41 1.66-1.54 1.418-2.653-.24-1.113-1.258-1.878-2.395-1.815-.29.013-.56.083-.825.2-1.47.618-3.815 1.08-6.438 1.494v-2.472c0-2.283.35-4.68.35-7.43V81.46c1.195.154 2.587.29 4.196.38 2.88.163 6.115.168 8.846-.29 2.363-.392 4.29-1.624 5.98-2.835 1.692-1.213 3.2-2.48 4.18-3.067 1.054-.634.99-.64 1.494-.976.91-.58 1.312-1.702.99-2.732-.32-1.028-1.286-1.72-2.363-1.677-.453.016-.892.17-1.266.427-.707.472-.347.3-1.296.87-1.565.938-3.038 2.204-4.517 3.264-1.48 1.06-2.93 1.838-3.98 2.013-2.075.345-5.124.377-7.795.23-1.83-.104-3.543-.3-4.622-.46-.197-1.995-.518-3.736-.518-5.34 0-2.478.188-4.964.275-7.61.837-.31 1.467-1.08 1.525-2.03.062-1.03-.57-1.928-1.48-2.286v-5.86c0-2.645.053-4.346.823-6.236 1.13-2.773 1.682-5.267 2.808-7.108 1.782-2.918 2.43-4.24 4.576-6.347 1.66-1.633 3.67-2.478 6.3-3.768 2.18-1.07 5.685-1.27 9.09-2.104.388-.095.818-.126 1.297-.138zm-51.025 7.064c.132.02.155.08.107.06-.014-.003-.095-.054-.11-.06zM484.088 44.06c-.315-.002-.6.05-.824.106-.89.222-1.46.59-1.51.61-.354.14-.664.38-.885.687-.537.74-1.22 1.64-1.117 3.203.052.782.538 1.754 1.312 2.274.775.518 1.606.655 2.517.655.755 0 1.58-.184 2.243-.717.663-.533 1-1.318 1.098-1.937.198-1.24-.11-2.112-.29-2.82-.17-.673-.74-1.507-1.51-1.846-.386-.17-.722-.212-1.037-.213zm199.705 0c-.315-.002-.6.05-.824.106-.89.222-1.46.59-1.51.61-.355.14-.667.38-.887.687-.535.74-1.216 1.64-1.113 3.203.05.782.538 1.77 1.31 2.29.776.517 1.623.655 2.534.655.755 0 1.58-.183 2.243-.716.662-.532.984-1.318 1.082-1.937.196-1.238-.11-2.13-.29-2.838-.17-.673-.725-1.49-1.495-1.83-.387-.17-.74-.228-1.054-.23zm198.99 10.04c-.27-.002-.498.043-.686.09-.762.19-1.255.502-1.298.52-.3.118-.56.318-.75.58-.457.63-1.05 1.408-.96 2.744.042.668.466 1.51 1.13 1.953.66.443 1.385.563 2.163.563.645 0 1.34-.153 1.908-.608.567-.457.86-1.134.946-1.664.17-1.058-.12-1.805-.274-2.41-.147-.575-.607-1.282-1.266-1.572-.33-.144-.646-.197-.916-.197zm-334.46 5.383c-1.11.062-2.024.87-2.183 1.922-2.557 15.53-2.41 35.57-2.41 52.55 0 7.377-.153 14.793-.288 22.21-.062.053-.128.094-.184.153-.12.03-.104.046-.305.076-.84.126-2.236.216-3.723.244-2.97.055-6.352-.076-8.038-.076-6.933 0-14.313-1.45-21.965-1.45-4.9 0-9.83-.473-14.813-.473-2.036 0-3.975.966-4.972 2.362-.998 1.396-1.268 2.95-1.42 4.47-.3 3.036.026 6.303-.273 8.115-.504 3.03-.535 6.123-.52 9.075-.01.06-.03.107-.03.168-.054.72-.014 1.423.03 2.045v.72h.043c.01.16.015.337.015.472 0 .515.026.337-.016.503-.266.847-.046 1.767.58 2.395.627.63 1.548.858 2.395.594s1.486-.975 1.647-1.848c.145-.582.167-1.157.167-1.647 0-.457-.012-.938-.03-1.39 0-.033.003-.07 0-.105-.01-3.553-.072-7.122.444-10.25.475-2.88.076-6.128.305-8.436.113-1.153.4-1.975.624-2.288.224-.313.19-.382 1.006-.382 4.65 0 9.593.474 14.813.474 6.99 0 14.366 1.463 21.965 1.463 1.41 0 4.966.12 8.147.06 1.457-.023 2.81-.082 4.01-.24-.06 3.972-.12 7.933-.12 11.913 0 2.94-.458 5.44-.458 8.71 0 1.363.42 2.254.517 2.73.114.83.705 1.53 1.526 1.815.82.284 1.738.11 2.38-.458.64-.568.9-1.438.67-2.244-.22-1.05-.41-1.653-.41-1.846 0-2.822.456-5.336.456-8.71 0-12.92.473-25.906.473-38.93 0-16.997-.08-36.932 2.38-51.847.12-.673-.076-1.367-.55-1.877-.476-.508-1.18-.787-1.89-.747zm199.72.016c-1.11.06-2.023.85-2.18 1.903-2.56 15.53-2.426 35.57-2.426 52.55 0 7.377-.155 14.793-.29 22.21-.062.053-.128.11-.183.168-.12.03-.105.047-.305.077-.84.126-2.24.2-3.725.228-2.973.055-6.353-.077-8.04-.077-6.932 0-14.312-1.448-21.965-1.448-4.9 0-9.83-.474-14.81-.474-2.038 0-3.947.983-4.943 2.38-.998 1.396-1.284 2.935-1.434 4.454-.3 3.036.01 6.32-.29 8.13-.6 3.638-.446 5.683-.427 9.152-.002.052-.002.087 0 .138v1.037h.016c-.008.12 0 .2-.016.335-.067.618-.195 1.42-.045 2.41 0 .024-.002.08-.03.184-.255.84-.026 1.772.595 2.394.623.622 1.538.85 2.38.594.843-.255 1.474-.953 1.648-1.816.11-.435.29-1.134.137-2.06-.013-.07-.006-.574.06-1.19.06-.575.206-1.21.046-2.18-.014-3.454-.12-5.244.382-8.284.474-2.88.06-6.127.288-8.435.115-1.154.417-1.96.64-2.273.225-.313.175-.397.992-.397 4.648 0 9.593.49 14.812.49 6.992 0 14.367 1.448 21.966 1.448 1.41 0 4.965.12 8.146.06 1.458-.024 2.81-.07 4.01-.227-.06 3.975-.105 7.935-.105 11.915 0 2.94-.077 3.425-.077 6.695 0 1.364.417 2.254.517 2.73.114.83.704 1.53 1.527 1.816.82.286 1.737.11 2.378-.456.643-.568.903-1.436.672-2.243-.22-1.05-.412-1.65-.412-1.846 0-2.82.062-3.32.062-6.695 0-12.92.487-25.922.487-38.945 0-17-.09-36.934 2.367-51.85.12-.67-.075-1.35-.55-1.86-.476-.51-1.165-.786-1.877-.746zm197.906 0c-1.11.06-2.027.85-2.184 1.903-2.56 15.53-2.425 35.57-2.425 52.55 0 7.377-.14 14.793-.274 22.21-.06.053-.113.11-.168.168-.12.03-.136.047-.337.077-.84.126-2.22.2-3.705.228-2.973.055-6.354-.077-8.04-.077-6.93 0-14.328-1.448-21.98-1.448-4.9 0-9.83-.474-14.81-.474-2.04 0-3.948.983-4.944 2.38-.996 1.396-1.283 2.935-1.434 4.454-.3 3.036.01 6.32-.29 8.13-.598 3.632-.523 8.54-.503 12.005v.014c-.024.223-.05.444-.062.67-.027.586-.03 1.195-.03 1.68 0 .894.233 1.2.17.945.16.87.8 1.58 1.647 1.844.85.263 1.77.034 2.395-.595.627-.63.847-1.564.58-2.41-.015-.057-.007-.035-.015-.076.002-.298.02-.594.03-.886h.092v-.928c.1-.39.094-.79 0-1.174-.003-.005 0-.01 0-.016-.014-3.186-.023-7.55.44-10.358.476-2.88.094-6.128.32-8.436.116-1.153.404-1.958.627-2.272.224-.314.16-.398.977-.398 4.647 0 9.59.49 14.81.49 6.992 0 14.383 1.448 21.982 1.448 1.41 0 4.95.12 8.13.06 1.457-.025 2.825-.07 4.027-.228-.063 3.974-.108 7.934-.108 11.914 0 2.94-.473 5.423-.473 8.694 0 1.363.433 2.254.533 2.73.114.83.69 1.545 1.51 1.83.822.285 1.753.095 2.395-.473.644-.566.904-1.42.673-2.227-.22-1.05-.443-1.667-.443-1.86 0-2.822.49-5.32.49-8.695 0-12.92.47-25.922.47-38.945 0-16.998-.09-36.933 2.366-51.848.122-.673-.09-1.352-.565-1.86-.473-.51-1.16-.788-1.874-.748zm-255.645 8.95c-.22.452-.437.917-.64 1.31-.548 1.06-1.132 1.882-1.19 1.94-1.947 1.847-3.04 2.29-5.965 3.28-.32.107-3.406.19-6.223-.215-2.578-.37-5.194-.95-6.498-1.328-.07-1.504-.24-2.92-.38-4.287 2.26.298 5.255.803 8.31 1.1 3.707.358 7.51.53 10.74-.992.59-.28 1.203-.55 1.845-.81zm-565.833 5.46c-.92.005-1.754.52-2.166 1.342-.413.822-.333 1.81.214 2.548.16.88.28 2.127.29 3.45.004.676-.016 1.32-.03 1.92-1.13.21-2.333.434-3.677.777-10.155 2.607-24.41 3.86-34.916 3.86-22.175 0-44.46 1.697-66.492 1.16-.05-.864-.22-1.684-.35-2.534-.22-1.404-.395-2.693-.443-3.677l.03-.06c.406-.778.366-1.72-.107-2.457-.473-.738-1.306-1.16-2.18-1.115-.846.042-1.607.516-2.015 1.25-.014.02-.07.1-.15.23-.166.256-.52.834-.52 1.692 0 1.707.334 3.396.565 4.88.092.6.136 1.157.167 1.634l-.41-.014c-.92-.08-1.828.36-2.335 1.13-.508.77-.544 1.75-.107 2.562.437.812 1.29 1.325 2.212 1.327.482.02.966.042 1.45.06.07 42.186 1.877 84.976 1.92 127.006-4.614-.116-8.854-.382-12.493-.916-.898-.148-1.814.207-2.38.916-.57.707-.708 1.658-.368 2.5.34.842 1.113 1.44 2.014 1.557 3.967.58 8.47.88 13.286 1.006.32 10.034 1.86 36.71 1.86 46.34 0 1.71-.34 17.584-.747 33.04-.202 7.73-.418 15.404-.625 21.296-.103 2.945-.197 6.72-.29 8.54-.045.91-.096 1.637-.136 2.166-.03.397-.085.79-.076.81-.255 1.305.553 2.593 1.86 2.912 1.346.33 2.72-.5 3.05-1.846.16-.66.123-.878.168-1.48.046-.6.09-1.383.137-2.317.095-1.87.2-5.644.305-8.604.21-5.92.438-13.603.64-21.34.407-15.475.734-30.91.734-33.18 0-10.066-1.54-36.723-1.877-46.263 14.276.05 30.508-1.068 43.55-1.068 20.555 0 40.917-2.807 60.895-2.946.245 10.405 1.89 37.374 1.89 47.318 0 1.46.28 5.57.687 11.67.407 6.1.947 13.886 1.464 21.616.52 7.73 1.01 15.392 1.345 21.28.165 2.942.562 9.306.625 11.12.03.905.045 1.65.044 2.165 0 .257-.017.526-.03.657.01-.04.02-.07.046-.17-.33 1.348.5 2.707 1.845 3.037 1.346.33 2.706-.5 3.036-1.846.217-.883.12-1.06.12-1.676.005-.616-.01-1.41-.042-2.35-.065-1.88-.458-8.25-.625-11.21-.333-5.924-.84-13.604-1.357-21.34-.52-7.737-1.06-15.524-1.465-21.615-.405-6.093-.67-10.808-.67-11.335 0-10.434-1.634-37.4-1.892-47.302 4.18.032 8.337-.016 12.493-1.082 1.237-.297 2.04-1.47 1.893-2.73-.148-1.263-1.2-2.225-2.47-2.227-.228 0-.455.032-.673.092-3.405.872-7.163.932-11.29.915-.07-42.723-1.905-86.094-1.905-128.653.006-.677-.268-1.322-.748-1.8-.018-.02-.042-.03-.06-.046.285-.41.45-.9.442-1.42 0-.65.07-2.193.06-3.857-.01-1.663-.065-3.458-.475-5.095-.215-.857-.756-1.293-.992-1.48-.46-.47-1.094-.735-1.754-.73zm-1.48 14.325v.106c0 42.7 1.82 86.074 1.89 128.654-20.415.14-40.76 2.943-60.847 2.943-13.31 0-29.672 1.054-43.61 1.022-.042-42.144-1.833-84.906-1.908-126.93 22.05.48 44.07-1.205 65.668-1.205 10.896 0 25.31-1.24 36.167-4.028.88-.227 1.75-.398 2.64-.564zm517.6 2.944c.115-.018.125.045.076.045-.01 0-.107-.014-.123-.015.01 0 .04-.03.046-.03zm-174.78 1.036v6.147c-1.53.93-3 1.914-4.332 3.005-2.047 1.674-4.376 2.8-6.437 4.484-.075.053-.13.11-.2.17-.35-.932-1.084-1.35-1.57-1.557-.516-.222-.955-.302-1.404-.367-1.79-.262-4.027-.187-4.67-.288-.903-.143-1.35-.29-2.073-.382-.363-.046-.753-.047-1.176 0-.42.048-.86.14-1.295.274-1.136.35-1.784 1.55-1.434 2.685.35 1.134 1.565 1.767 2.7 1.417.57-.176.467-.133.67-.106.206.026.844.178 1.94.35.682.108 1.22.11 1.936.138-.918.854-1.87 1.797-2.716 2.7-.373.4-.693.77-.975 1.113-.283.342-.5.476-.794 1.205-.07.182-.19.412-.18.915.003.27.12.66.336 1.038-.88.04-1.763.09-2.64.138.864-.94.836-2.403-.076-3.31-1.64-1.64-3.06-3.22-4.455-4.866.697-.422 1.304-.947 1.694-1.48.43-.59.6-1.01 1.11-1.754.355-.52 1.943-2.076 2.975-3.554.258-.37.508-.735.702-1.266.177-.49.352-1.33-.062-2.196.067-.007.147-.004.213-.017 2.65-.323 5.066-1.217 7.703-1.54 3.41-.417 5.81-1.17 7.84-1.785 2.03-.615 3.64-1.082 5.936-1.19.255.003.496-.046.73-.122zm-25.642 1.48c.05-.01.064.032.03.046-.01.004-.106.025-.12.03.006-.005.023-.04.03-.045.024-.016.043-.03.06-.032zm-9.106 6.194c.417.117.647.097.99.12.445.034.947.058 1.497.063 1.277.013 2.654-.03 3.937-.106-.475.54-.857.917-1.252 1.495-.62.91-.936 1.474-1.052 1.632-.116.158-.015.092-.534.382-.158.086-.303.202-.428.32-.487-.607-.967-1.222-1.48-1.862-.54-.675-1.1-1.356-1.677-2.044zm386.674 5.507c-3.936.036-8.15 1.282-11.9 2.486-2.498.802-4.75 1.635-6.376 2.212-.606.216-1.002.35-1.387.473-4.434-3.703-10.105-4.202-15.24-3.783-5.535.45-10.862 1.8-14.033 1.8-.88-.013-1.692.443-2.135 1.204-.445.76-.445 1.71 0 2.47.442.76 1.254 1.217 2.134 1.206 4.37 0 9.49-1.413 14.43-1.817 4.946-.4 9.27.104 12.42 3.25.67.673 1.277.717 1.616.75.34.03.534-.008.717-.033.368-.05.64-.11.945-.198.614-.176 1.328-.42 2.167-.718 1.678-.597 3.865-1.404 6.238-2.167 4.75-1.523 10.398-2.658 13.043-1.997 2.367.59 4.424 1.577 6.636 2.682 1.21.602 2.677.11 3.28-1.098.6-1.21.11-2.677-1.1-3.28-2.264-1.132-4.7-2.3-7.64-3.036-1.223-.306-2.503-.425-3.814-.412zm30.172.55c-.013.014-.05.045-.138.03.02-.003.124-.03.138-.03zm-255.628.822c-.38.01-.766.03-1.144.06-1.006.077-1.99.232-2.943.397-3.818.66-7.463 1.706-9.214 1.706-.86-.01-1.654.432-2.09 1.175-.432.743-.432 1.683 0 2.425.436.744 1.23 1.188 2.09 1.175 3.2 0 6.64-1.2 10.02-1.784 3.386-.585 6.28-.538 8.12.84.68.525 1.6.654 2.394.32.793-.334 1.35-1.067 1.45-1.922.098-.855-.282-1.705-.977-2.212-2.336-1.753-5.04-2.243-7.704-2.182zm338.457 2c.28 1.92.303 3.943.303 6.144 0 .424-.067 4.253-.136 8.024-.048 2.572-.068 4.133-.093 5.825-.813.15-1.53.307-2.197.307-5.666 0-11.79-.978-18.106-.978h-25.99c-4.722 0-10.627.215-15.057.29.025-.31.05-.546.077-.9.132-1.706.287-3.88.427-6.1.278-4.44.533-8.842.533-10.36 0-.377-.005-.75-.015-1.127 11.3.08 28.454 1.327 42.146 1.327 6.25 0 11.517-.734 17.04-2.09.38-.094.738-.226 1.07-.366zm-324.73.164c-.86-.01-1.656.432-2.09 1.175-.433.743-.433 1.683 0 2.425.434.744 1.23 1.188 2.09 1.175h29.32c.01.03.457.166 1.33.384.844.266 1.763.046 2.393-.58.63-.627.858-1.548.594-2.395-.263-.85-.973-1.49-1.845-1.65-.248-.06-1.03-.534-2.442-.534h-29.346zm-70.732.504v.03c0 3.262.54 6.927.06 8.802-.15.593-.13.848-.152 1.296-.022.446-.03.96-.032 1.555-.007 1.187.02 2.636.06 4.09.02.696.036 1.393.062 2.06-.174.102-.327.233-.472.38-.72.68-3.95 1.72-7.277 1.77-3.327.05-6.82-.787-8.055-1.662-1.756-1.248-3.717-1.73-5.353-1.313-1.64.42-2.66 1.382-3.495 2.09-.833.708-1.47 1.226-2.045 1.433-.572.21-1.147.298-2.44-.227-2.46-.997-3.677-1.71-4.18-2.073-.25-.185-.32-.283-.29-.246-.034-.073-.02-.1-.182-.305-.27-.34-1.295-.962-2.135-.855-.84.11-1.078.388-1.206.49-.126.1-.136.136-.15.15-.064.06.036-.016-.063.046-.196.127-.966.54-2.838 1.13-.853.27-1.416.5-1.754.564-1.64.31-4.2-.247-6.27-1.037-1.034-.395-1.95-.834-2.64-1.16-.343-.163-.624-.295-.883-.412-.13-.056-.238-.112-.443-.18-.102-.036-.213-.085-.503-.124-.145-.02-.335-.037-.686.016-.324.05-.894.208-1.372.733.03-.053-.138.127-.398.273-.347.194-.87.44-1.48.686-1.218.487-2.81.967-4.285 1.25-1.477.283-2.872.322-3.494.183-.18-.04-.134-.03-.168-.046-.03-.35-.156-.674-.32-.96-.03-1.073-.058-2.09-.092-3.432-.1-3.994-.197-8.6-.197-9.474v-4.177c3.197-1.092 10.69-1 18.458-.29 7.987.73 16.39 1.89 22.33 1.89 7.556 0 13.97-2.013 19.926-2.013 1.67 0 3.162-.497 4.453-.93zm199.706 0v.03c0 3.262.552 6.927.076 8.802-.215.842-.115 1.065-.093 1.555.022.49.072 1.05.137 1.693.13 1.285.33 2.843.55 4.41.052.38.112.754.167 1.13-.422.08-.822.275-1.16.593-.716.68-3.932 1.72-7.26 1.77-3.326.05-6.836-.772-8.07-1.647-1.756-1.247-3.716-1.73-5.352-1.31-1.637.418-2.66 1.365-3.493 2.073-.833.708-1.486 1.226-2.06 1.433-.573.21-1.133.313-2.425-.21-2.46-1-3.69-1.727-4.195-2.09-.25-.184-.305-.28-.274-.245-.033-.074-.02-.086-.183-.29-.268-.34-1.31-.977-2.15-.87-.84.11-1.05.388-1.176.49-.125.1-.15.136-.166.15-.063.06.037-.016-.06.046-.2.13-.968.54-2.84 1.13-.85.27-1.43.5-1.768.566-1.64.31-4.17-.247-6.24-1.037-1.036-.396-1.967-.82-2.654-1.145-.344-.164-.627-.31-.885-.428-.13-.057-.237-.113-.442-.182-.103-.035-.2-.07-.488-.108-.145-.02-.337-.037-.687.017-.326.048-.906.187-1.388.716.03-.05-.153.13-.412.275-.346.194-.855.44-1.465.686-1.217.49-2.795.97-4.27 1.25-1.476.286-2.886.325-3.508.186-.173-.04-.115-.028-.154-.046-.085-.985-.793-1.766-1.693-2.03.063-.67.12-1.135.184-1.86.183-2.066.363-4.26.502-6.07.137-1.815.242-3.12.242-3.908v-2.606c.182-.145.368-.29.55-.443.682-.577 1.452-1.14 2.288-1.707 3.82-.438 9.637-.24 15.605.305 7.987.73 16.393 1.878 22.333 1.878 7.552 0 13.968-2.014 19.922-2.014 1.67 0 3.16-.497 4.454-.93zM48.63 110.462c-1.1.016-2.07.743-2.38 1.8-.31 1.016-.74 2.237-1.113 3.355-1.188 1.048-1.913 2.46-2.653 4.362-4.376 11.232-6.662 17.447-7.597 20.364-.234.73-.388 1.218-.488 1.708-.05.245-.21.293-.05 1.22.04.232.118.573.443 1.038.325.465 1.098 1 1.83 1.07 1.467.135 1.796-.51 2.014-.72.437-.415.474-.563.594-.76.12-.2.233-.396.35-.625.24-.46.508-1.02.826-1.71.786-1.706 1.845-4.164 3.004-6.985.097-.004.16-.002.275 0 1.302.01 3.22.224 5.202.518 1.76.26 3.604.603 5.232.945.343 1.195.68 2.405 1.02 3.57 1.27 4.362 2.43 8.28 3.737 10.967.606 1.248 2.11 1.765 3.357 1.16 1.248-.606 1.78-2.11 1.175-3.356-.945-1.94-2.19-5.853-3.45-10.175l-.304-1.056c.866-.157 1.632-.753 1.937-1.647.45-1.315-.243-2.74-1.556-3.19-.51-.174-1.174-.355-1.936-.55-.687-2.327-1.402-4.636-2.135-6.756-1.416-4.092-2.544-7.43-5.05-9.517-.107-.09-.246-.16-.365-.245.156-.487.36-1.04.504-1.51.25-.77.116-1.62-.366-2.27-.482-.653-1.25-1.02-2.06-1.008zm406.308 0c.047-.023.03.03-.108.06.015-.007.096-.057.108-.06zm402.613 3.583c-.21-.003-.416.025-.62.077-2.516.617-5.123.87-8.055.87-10.994 0-21.452 1.418-32.065 1.418-11.388 0-22.87-.47-34.46-.47-7.564 0-17.99-.893-24.59-.474-1.29.084-2.265 1.173-2.18 2.44.085 1.27 1.21 2.235 2.5 2.15 5.826-.367 16.35.475 24.27.475 8.78 0 17.564.287 26.375.41-.02 4.576-.473 12.706-.473 18.918v12.48c-.186.19-.432.44-.807.76-.888.765-2.173 1.744-3.48 2.718-1.304.972-1.684 2.086-2.76 2.867-.34.248-.605.45-.884.656-.96-.124-1.89.352-2.35 1.19-.46.836-.355 1.856.276 2.577.027.036.04.062.09.137.107.158.206.42.84.81.317.194.866.41 1.51.35.616-.056 1.146-.36 1.45-.64-.01.008.005-.006.046-.046.08-.065.26-.208.474-.366.337-.252.793-.59 1.327-.976 1.066-.772 2.44-2.992 3.784-3.995 1.025-.765 1.08-.42 1.967-1.144.68.66 1.44 1.124 2.23 1.618 3.072 1.517 5.237 4.14 7.23 6.666.495.67 1.327 1.04 2.165.945.836-.095 1.55-.64 1.875-1.404.33-.76.227-1.646-.29-2.3-.45-.59-.934-1.25-1.494-1.938-1.84-2.262-5.063-4.665-6.97-5.857-.72-.452-1.025-.73-1.28-.962.357-.72.307-1.58-.14-2.255-.034-.056-.08-.1-.12-.154v-11.728c0-5.977.435-14.01.457-18.868 1.138.007 2.28.015 3.418.015 11.027 0 21.486-1.42 32.065-1.42 3.21 0 6.252-.28 9.212-1.008 1.16-.258 1.916-1.34 1.785-2.5-.13-1.16-1.13-2.025-2.32-2.03zm-408.3.565c-.09.14-.16.265-.245.4-.09 0-.184.012-.274.014.18-.14.358-.29.52-.412zm201.154.337c.07-.012.11.004.215.015l.15.033c-.174 0-.344-.002-.518 0 .036-.012.13-.042.153-.047zm-409.8.275c-2.66-.054-5.058.643-6.62.643-3.58 0-5.69.545-8.527 1.127-2.562.526-5.282.72-8.13 1.45-1.577.405-2.526 1.206-3.615 1.983-1.087.777-2.16 1.603-2.654 1.906-2.237 1.38-4.358 3.65-5.705 5.036-1.8 1.847-2.847 3.97-3.156 4.286-1.926 1.98-2.52 4.564-2.883 5.31-1.35 2.77-1.967 4.98-2.622 7.67-.078.32-.152.64-.214.964-.855.983-1.45 2.198-1.45 3.72 0 2.222.11 5.065.825 7.857-.1 2.57-.29 5.357-.29 8.116 0 3.352-.337 6.592-.337 10.372 0 3.287.02 6.076-.625 8.724-.847 3.48-.076 7.256-.076 9.533 0 1.13.035 2.23.078 3.326-8.168-9.258-15.013-24.153-23.233-35.405-.447-.613-.727-1.39-1.02-2.38-.297-.992-.57-2.293-1.726-3.48-.208-.22-.463-.393-.733-.52.536-.504.76-1.12.87-1.553.146-.586.173-1.08.168-1.57-.02-1.964-.472-4.345-.472-5.065 0-1 .07-1.51.045-2.303-.023-.79-.27-1.723-.7-2.61-.413-.872-1.31-1.4-2.273-1.327-.778.055-1.49.5-1.876 1.176-.387.676-.394 1.5-.046 2.196.284.58.238.486.244.716.008.23-.06.944-.06 2.15 0 .686.086 1.424.168 2.136-1.053-.82-2.208-1.66-3.295-2.395-.487-.33-.93-.61-1.342-.853-.412-.24-.592-.438-1.434-.625-.21-.046-.482-.13-1.022-.03s-1.496.693-1.8 1.495c-.304.804-.114 1.33-.015 1.633.1.3.187.467.275.61.35.572.64.872 1.144 1.388.225.23.623.59.9.855-1.333-.584-2.35-1.095-3.554-1.342-.303-.062-.628-.14-1.19-.062-.563.08-1.675.625-2.044 1.62-.37.993-.08 1.63.09 2.03.17.394.343.675.55.96.72 1.005 2.113 1.27 3.158.61.45.175.565.194 1.128.44 1.305.573 2.85 1.26 4.38 1.83 1.527.573 2.964 1.085 4.56 1.085.122 0 .264-.015.412-.03.11.218.247.43.427.61.05.054.31.555.61 1.555.296 1 .696 2.416 1.706 3.8 8.542 11.695 15.78 28.684 26.28 38.653.288.272.605.463.96.563.006.29.016.57.016.855 0 2.707.298 10.4.305 12.95v.064c-.76 10.51.01 15.68-.304 25.948v.076c0 2.47.367 4.156.367 6.088-.003.043-.01.085-.015.152-.013.188-.038.478-.062.824-.045.69-.12 1.64-.197 2.806-.16 2.33-.357 5.44-.566 8.528l-.58 8.51c-.077 1.167-.135 2.128-.182 2.822-.022.348-.048.628-.06.824l-.016.245c0 .014-.014.018-.015.014-.004.01 0 .04 0 .215-.016 1.388 1.1 2.53 2.486 2.548.437.005.844-.115 1.205-.305.266.208.57.353.916.443 1.85.474 3.568.443 5.172.443h13.165c.002.015.01.03.014.045v.015c.036.11.09.205.12.32-.007-.02-.04-.075-.044-.09.034.31.085.914.152 1.693.134 1.558.323 3.897.504 6.636.36 5.477.714 12.547.714 18.152 0 3.9.273 8.833.794 13.744-.66 1.15-1.64 2.646-2.775 4.164-1.794 2.393-3.896 4.97-5.54 7.26-1.625 2.27-2.86 3.232-4.697 5.156-.702.638-.992 1.602-.748 2.517.244.914.965 1.612 1.892 1.814.925.202 1.896-.125 2.5-.855 1.93-2.018 3.312-3.094 5.172-5.69 1.43-1.994 3.39-4.443 5.2-6.85.35 2.136.744 4.164 1.175 5.966.244 1.026.49 2.04.732 3.05.176.915.835 1.66 1.722 1.94.89.276 1.867.04 2.533-.61.666-.65.91-1.623.656-2.518-.242-1.012-.472-2.01-.717-3.036-.747-3.126-1.393-7.2-1.877-11.38.137-.323.278-.633.382-.96.256-.776.1-1.644-.382-2.304-.116-.158-.235-.286-.38-.41-.37-4.01-.58-7.927-.58-11 0-5.82-.367-12.946-.732-18.487-.183-2.77-.366-5.14-.504-6.744-.06-.682-.098-1.144-.138-1.54h10.266c5.825 0 12.036-1.345 16.58-.41 3.15.645 6.295.92 9.397 1.036-.48 13.39-4.3 28.545-4.3 45.183 0 3.606.064 7.033-.657 10.052-.255.895-.01 1.867.656 2.517.665.65 1.628.886 2.515.61.89-.28 1.56-1.025 1.74-1.938.81-3.392.82-6.75.806-9.885.87 1.29 1.816 2.635 2.76 3.967 3.196 4.503 7.34 10.91 7.994 11.822.817 1.136 2.388 1.394 3.524.58 1.137-.816 1.412-2.404.595-3.54-.86-1.197-4.84-7.37-7.98-11.79-1.57-2.213-3.113-4.467-4.285-6.317-1.173-1.85-1.98-3.638-1.953-3.524-.067-.295-.182-.568-.337-.81.925-12.845 3.6-25.102 3.997-36.838h1.724c1.59 0 4.814-.2 7.795-.382 1.49-.09 2.906-.162 3.935-.228.515-.034.93-.058 1.22-.077.046-.002.068-.01.108-.014.865.07 1.695-.323 2.21-1.022.155-.208.268-.434.352-.67.266.064.556.1.87.06 1.086-.14 1.564-.79 1.77-1.1.204-.305.26-.48.304-.61.09-.26.09-.368.105-.47.08-.446.038-.905-.12-1.33-.05-.574-.107-1.535-.17-2.79-.126-2.563-.266-6.226-.396-10.006-.26-7.563-.474-15.925-.474-16.582v-20.06c0-2.35.35-4.79.35-7.52v-7.016c7.855 9.3 14.54 23.66 22.517 34.58.447.614.696 1.374.99 2.365.296.99.586 2.307 1.74 3.49.213.22.452.388.716.504-.54.51-.746 1.134-.855 1.57-.146.588-.157 1.08-.152 1.57.02 1.966.472 4.347.472 5.067 0 1-.085 1.482-.06 2.272.024.79.285 1.723.716 2.61.33.8 1.075 1.35 1.94 1.432.863.08 1.68-.31 2.15-1.038s.516-1.655.09-2.41c-.282-.583-.22-.488-.227-.718-.008-.23.06-.944.06-2.15 0-.69-.1-1.434-.183-2.15 1.056.822 2.2 1.655 3.295 2.393.488.33.945.627 1.358.87.412.24.592.437 1.433.624.212.048.468.118 1.008.016.54-.1 1.496-.692 1.8-1.495.302-.8.13-1.313.03-1.615-.1-.3-.188-.466-.275-.61-.35-.573-.67-.87-1.176-1.388-.225-.23-.61-.588-.885-.855 1.33.585 2.347 1.098 3.552 1.344.3.063.627.126 1.19.047.562-.08 1.675-.607 2.044-1.6.37-.995.095-1.634-.077-2.03-.17-.396-.358-.677-.564-.96-.72-1.007-2.113-1.275-3.158-.61-.45-.177-.567-.197-1.13-.444-1.307-.57-2.836-1.29-4.363-1.86-1.53-.572-2.966-1.053-4.56-1.053-.13 0-.3-.003-.46.015-.106-.218-.216-.427-.395-.61-.054-.055-.298-.555-.596-1.557-.297-1-.714-2.4-1.723-3.78-8.46-11.585-15.64-28.36-25.976-38.365-.003-.002 0-.014 0-.015.03-.72.045-1.46.045-2.196v-7.87c0-2.33.35-4.79.35-7.523v-18.28c.077.002.152-.004.23 0 2.065.082 4.265.297 5.52.38 1.385.09 2.58-.964 2.67-2.348.09-1.384-.95-2.58-2.333-2.67-1.077-.07-3.42-.275-5.676-.366l-.41-.015v-6.772c0-1.662-.523-3.036-1.01-4.393-.48-1.357-.99-2.66-1.156-3.355-.695-2.856-1.405-5.93-2.96-9.124-.233-.477-.47-.94-.702-1.42-.67-1.372-1.453-2.63-2.272-3.796.037-.26.073-.52.046-.856-.04-.503-.19-1.318-.96-1.983-.53-.46-1.2-.63-1.74-.653-.55-.696-1.076-1.367-1.57-2.044-1.31-1.792-3.086-2.785-4.608-3.57-1.52-.78-2.858-1.404-3.568-1.95-2.66-2.05-6.36-3.126-9.047-3.677-.58-.12-1.172-.247-1.753-.367-2.94-.603-5.997-1.104-8.59-1.77-.924-.237-1.843-.347-2.73-.366zm.062 5.143c.566-.025 1.053-.02 1.42.076 2.92.75 6.063 1.26 8.846 1.83.583.12 1.16.23 1.74.35 2.09.43 5.686 1.75 7 2.76 1.473 1.136 3.023 1.75 4.334 2.428 1.31.674 2.31 1.35 2.836 2.074.403.55.8 1.09 1.204 1.62-.1.09-.2.165-.305.257-1.032.904-2.15 1.882-3.127 2.562-.978.68-1.848.915-1.74.915-5.296 0-12.718-4.995-20.24-8.237-2.823-1.217-5.753-2.18-8.743-2.29-.996-.035-1.996.022-3.004.2-4.038.708-7.802 3.468-10.74 8.496-3.297 5.64-3.174 11.582-4.042 16.23-.867 4.65-2.048 7.916-8.252 10.465-2.096.86-3.33.8-4.134.5-.806-.296-1.465-.94-2.06-2.087-.298-.574-.555-1.267-.763-2.014-.002-.007 0-.013 0-.018.018-.65.03-1.293.03-1.936 0-2.058.04-4.408.26-6.437.05-.04.097-.085.152-.123 1.032-.734 2.544-1.36 3.797-1.512 1.253-.15 2 .11 2.365.504.36.39.843 1.422.35 4.057v.015c-.03.028-.125.123-.337.29-.425.333-1.204.77-2.03 1.617-.694.627-.998 1.594-.762 2.5.238.907.98 1.607 1.893 1.815.912.21 1.865-.11 2.47-.823.178-.182.785-.564 1.542-1.16.757-.594 1.807-1.585 2.12-3.188.7-3.6.242-6.595-1.557-8.54-1.8-1.95-4.406-2.332-6.65-2.06-.626.074-1.247.2-1.847.365.304-.855.648-1.71 1.13-2.7.774-1.59 1.574-3.607 1.97-4.01 1.59-1.638 2.25-3.37 3.14-4.29 1.333-1.367 3.577-3.55 4.744-4.27.963-.593 1.968-1.395 2.943-2.09.976-.696 2.084-1.238 1.954-1.205 2.27-.583 4.944-.796 7.9-1.403 2.96-.608 4.406-1.007 7.507-1.007 2.506 0 4.98-.46 6.68-.533zm-192.003.563c.742 1.304 1.676 3.155 2.564 5.72.426 1.233.83 2.57 1.25 3.935-.935-.162-1.887-.314-2.852-.456-1.475-.218-2.904-.38-4.225-.473 1.106-2.827 2.23-5.82 3.263-8.724zm39.723 4.867c-.106-.002-.22.003-.32.015-.114.012-.204.03-.305.06-1.637.492-1.707 1.255-2.044 1.846-.336.59-.64 1.255-.976 2.12-.276.676-.24 1.44.09 2.09.33.65.938 1.124 1.648 1.297-.08 2.17-.247 4.81-.52 8.04-.86 10.174-2.35 23.64-2.35 30.904-.057.932.392 1.805 1.19 2.29.8.482 1.81.482 2.61 0 .318-.194.577-.45.777-.75.798.065 2.396.57 4.5-.15 3.486-1.194 8.376-2.165 12.403-4.516 2.01-1.175 3.865-2.78 4.972-5.05 1.107-2.27 1.338-5.072.58-8.19-.928-3.806-3.08-6.54-5.676-8.115-.642-.39-1.31-.707-1.984-.975.087-.058.175-.11.26-.168 2.295-1.595 4.273-3.418 5.462-5.675 1.187-2.257 1.318-5.33-.382-7.657-1.453-1.99-3.69-2.6-5.75-2.928-2.06-.33-4.19-.335-6.04-.367-1.472-.025-2.402-.14-3.098-.244-.033-1.316-1.077-2.396-2.395-2.453h-.077c-.12-.217-.286-.455-.563-.716-.427-.4-1.274-.692-2.014-.7zm609.032 3.797c-.027-.06.18.245.305.458-.005-.005-.026-.01-.03-.015-.26-.327-.263-.417-.275-.443zm-464.226.123c2.184-.01 4.708.727 7.444 1.906 6.737 2.905 14.24 8.636 22.24 8.636 1.956 0 3.295-.903 4.607-1.816 1.314-.914 2.533-1.99 3.57-2.9.02-.02.028-.014.046-.03.684.97 1.31 1.94 1.8 2.944.232.477.44.957.67 1.435 1.27 2.603 1.927 5.22 2.624 8.08.324 1.326.874 2.63 1.314 3.86.44 1.23.7 2.425.7 2.717v7.093c-.28.104-.555.255-.884.457-.833.435-1.362 1.29-1.358 2.228.005.94.537 1.8 1.373 2.227.28.144.566.214.87.245v8.16c-.13-.056-.257-.104-.398-.136-.11-.06-.296-.152-.52-.29-.444-.273-1.038-.67-1.6-1.052-.564-.38-1.094-.74-1.54-1.037-.225-.15-.425-.28-.628-.396-.1-.06-.196-.117-.38-.2-.093-.04-.186-.092-.442-.152-.258-.056-.86-.425-1.938.415-.784.61-.83.86-1.22 1.342-.39.48-.852 1.037-1.266 1.494-.015.016 0 .016-.015.03-.26-.37-.405-.606-.78-1.02-.43-.474-1.078-1.162-2.335-1.25-1.256-.09-2.312.763-2.837 1.51-.49.695-1.124 1.49-1.693 1.966-.57.475-.853.55-1.098.504-2.724-.514-4.78-.022-6.36-.625-1.87-.715-4.355-3.04-6.913-4.365-.335-.177-.718-.276-1.097-.272-1.054 0-1.96.73-2.2 1.754-.236 1.026.263 2.084 1.206 2.55.373.19.87.53 1.434.944.253.8.944 1.427 1.816 1.54-.44-.045-.265-.084.107.368.435.53 1.02 1.41 1.662 2.38 1.285 1.944 2.64 4.305 4.973 5.69 4.233 2.518 6.777 4.544 12.386 4.928 4.555.31 8.19-1.637 11.595-4.79-.106 1.662-.276 3.426-.276 5.355v7.87c0 2.526-.335 5.37-.335 8.238v6.423c-14.98-.554-35.266 1.118-51.835.244-3.843-.2-8.33-.275-12.446-.594-4.116-.317-7.89-.952-9.916-1.89-.645-.3-1.096-.42-1.465-.442-.37-.024-.667.03-.99.03-.387 0-.544.01-.81.016-.08-2.96-.17-6.036-.17-7.37 0-3.706-.365-7.284-.365-10.738 0-3.06-.46-6.71-.06-8.358.835-3.43.76-6.655.76-9.9 0-3.458.37-6.69.37-10.373 0-.22.01-.45.014-.67.424.26.88.505 1.372.686 2.24.83 4.89.63 7.764-.55 7.616-3.125 10.306-8.833 11.304-14.184.998-5.35.98-10.433 3.432-14.63 2.44-4.176 4.78-5.645 7.275-6.084.47-.082.93-.135 1.435-.137zM91.497 134.49c1.602.43 3.224.41 4.958.442 1.886.033 3.84.065 5.34.305 1.496.24 2.312.73 2.47.945.624.854.586 1.22 0 2.334s-1.995 2.584-3.875 3.89c-1.92 1.334-4.32 2.494-6.606 3.31-1.166.115-2.28.275-3.22.457.14-1.507.294-3.074.412-4.484.228-2.684.413-5.12.52-7.2zm5.232 16.077c2.06.044 4.08.464 5.627 1.403 1.55.94 2.762 2.312 3.418 5.003.552 2.273.33 3.69-.214 4.806-.545 1.115-1.554 2.07-3.02 2.93-2.934 1.71-7.515 2.746-11.47 4.1-.167.056-.984-.08-2.35-.123.216-4.56.76-10.695 1.326-16.825 1.61-.205 3.305-.63 4.99-1.204.564-.038 1.113-.104 1.692-.09zm162.866 2.898c-.252.027-.522.097-.81.228-.76.353-1.26 1.168-1.417 1.818-.173.705-.473 1.568-.29 2.76.09.6.4 1.358 1.036 1.89.64.54 1.46.735 2.196.735.885 0 1.71-.144 2.458-.67.748-.525 1.188-1.462 1.236-2.21.094-1.5-.546-2.41-1.053-3.144-.21-.305-.51-.544-.852-.685-.034-.014-.576-.38-1.45-.61-.22-.057-.493-.11-.81-.107-.077 0-.157-.01-.242 0zm-209.01 18.152c-4.758 0-8.385 2.94-10.053 6.743-1.667 3.802-1.847 8.427-1.006 12.996.84 4.57 2.727 9.104 5.674 12.66 2.95 3.56 7.14 6.164 12.113 6.164 1.535 0 2.617-.085 3.677-.473 1.06-.39 2.03-1.374 2.394-2.106.726-1.462.153-1.152 1.098-1.8 1.144-.78 1.438-2.35.656-3.492-.783-1.145-2.35-1.437-3.494-.656-1.827 1.25-2.43 2.88-2.593 3.357-.173.042-.622.152-1.74.152-3.27 0-5.99-1.62-8.25-4.35-2.26-2.726-3.905-6.544-4.607-10.356-.7-3.813-.417-7.584.672-10.068 1.09-2.483 2.528-3.737 5.46-3.737.305 0 .75.166 1.466.808.715.64 1.545 1.658 2.44 2.76.898 1.102 1.83 2.285 3.144 3.235 1.313.95 3.355 1.603 5.278.946.895-.257 1.576-.986 1.77-1.895.196-.907-.127-1.842-.84-2.44-.71-.597-1.684-.76-2.545-.412-.266.09-.18.13-.718-.26-.538-.388-1.336-1.275-2.197-2.333-.86-1.057-1.794-2.283-2.99-3.356-1.193-1.07-2.8-2.09-4.804-2.09zm442.138 2.944c-.93.03-1.753.6-2.09 1.466-1.042 2.555-1.76 5.092-2.03 7.444-.2 1.74-.21 3.416.276 4.94-1.467.296-3.036.705-4.486 1.39-1.063-2.123-1.834-4.573-2.7-7.124-.318-.992-1.248-1.642-2.29-1.602-.733.03-1.433.398-1.844 1.007-.412.61-.49 1.38-.245 2.076.81 2.384 1.59 4.99 2.837 7.52-1.103.54-2.245 1.18-3.188 2.182.08-.53-.006-1.09-.305-1.572-.72-1.174-1.475-1.19-1.97-1.296-.497-.105-.944-.138-1.42-.138-.95 0-2.01.118-3.14.305-2.268.376-4.625.873-6.484 2.244-1.03.76-1.25 2.205-.49 3.235.762 1.028 2.22 1.265 3.25.502.38-.28 2.615-1.092 4.485-1.402.936-.157 1.823-.247 2.38-.245.145 0 .16.007.245.015.542.32 1.16.39 1.738.244-.713.71-1.55 1.513-2.425 2.346-1.484 1.414-3.053 2.887-3.89 4.943-1.25 3.063-2.764 6.315-3.69 9.837-1.85-1.367-3.577-2.208-5.25-2.99-1.94-.91-3.843-1.76-6.314-3.494-2.67-1.873-5.204-2.938-6.713-3.995-.374-.273-.82-.43-1.28-.445-.4-1.068-1.02-2.022-1.693-3.02-.846-1.257-1.81-2.513-2.61-3.57-.347-.46-.4-.56-.656-.93.366-1.078-.166-2.255-1.22-2.685-.297-.126-.584-.234-.975-.305-.197-.035-.437-.09-.748-.06-.312.028-.687.15-1.1.426-.822.553-1.058 1.664-1.005 2.183.052.52.17.796.29 1.052.475 1.01 1.153 1.813 1.952 2.87-.277-.18-.647-.437-.886-.58-.57-.346-.906-.57-1.494-.764-.147-.046-.318-.08-.61-.105-.293-.025-.8-.084-1.465.366s-.99 1.435-.96 1.94c.027.502.157.736.243.914.346.708.564.823.87 1.143.305.322.65.668 1.052 1.038.908.837 1.923 1.717 2.898 2.502-.716.08-1.26.1-1.938.26-1.08.253-1.687.477-1.89.518-.205.04-.105.056-.687-.076-1.16-.27-2.327.44-2.595 1.6-.268 1.16.455 2.326 1.617 2.594.886.202 1.786.236 2.5.09.717-.144 1.137-.323 2.03-.533.637-.15 2.872-.244 4.637-.64.44-.1.874-.2 1.373-.46.472-.243 1.187-.75 1.464-1.72.07.062.148.127.228.182 2.178 1.53 4.555 2.484 6.712 3.998 2.8 1.966 5.1 3.023 7.017 3.92 1.916.898 3.414 1.607 5.17 3.05.315.283.685.486 1.084.566-.305 2.125-.473 4.26-.473 6.575 0 .654-.033 1.384-.06 2.168-.205-.015-.4-.034-.61-.046-1.874-.113-3.933-.152-5.415-.197-.075-.004-.14-.004-.214 0-1.28.024-2.31 1.068-2.29 2.35.027 1.28 1.1 2.31 2.38 2.286 1.506.047 3.514.093 5.265.2.35.02.66.05.976.075.08.716.204 1.435.38 2.138.48 1.873.58 4.497.58 6.863 0 3.565.674 6.548.674 9.383v8.07c0 2.9.32 5.67.32 8.082v4.76c-1.773.57-3.502 1.23-5.11 2.015-2.375 1.16-4.883 1.743-7.277 2.913-.078.033-.17.066-.243.107-.132-.98-.75-1.564-1.174-1.876-.455-.334-.862-.52-1.284-.686-1.68-.666-3.868-1.113-4.47-1.36-.847-.344-1.237-.568-1.922-.823-.684-.253-1.58-.366-2.486-.304-.782.035-1.482.49-1.83 1.19-.35.7-.29 1.536.15 2.18.444.646 1.205.99 1.984.916.597-.04.494-.024.686.048.194.072.758.375 1.785.792.646.264 1.18.374 1.876.565-1.096.625-2.24 1.323-3.28 2.014-.455.3-.85.585-1.205.854-.353.268-.584.365-1.037 1.007-.114.16-.29.35-.397.84-.107.49.053 1.537.64 2.09.59.55 1.113.575 1.406.595.29.018.458-.007.61-.032.61-.1.983-.252 1.6-.504.247-.1.633-.287.917-.41-.94.896-1.714 1.59-2.334 2.5-.16.233-.338.473-.473.977-.134.502-.073 1.656.656 2.332.73.68 1.372.65 1.77.64.397-.01.707-.074 1.022-.15 1.093-.263 1.793-1.317 1.616-2.427v-.015c.316-.326.395-.425.81-.824.96-.922 2.09-2.005 3.13-3.113.816-.876 1.57-1.717 2.134-2.7.465.05.948-.04 1.372-.273 1.662-.814 4.36-1.45 7.292-2.884.937-.46 1.98-.885 3.11-1.282.072 1.45.18 2.74.03 3.326-.57 2.237-.395 4.3-.395 6.07v4.852c0 1.175.082 5.59.183 9.595.05 2 .1 3.874.137 5.125.02.625.048 1.095.06 1.373.005.07-.003.107 0 .17.003.03.01.06.016.12.002.03.002.076.013.153.006.04.01.09.03.184.024.094.26.61.26.61l.885.12c.054.16.123.31.213.46.453.74 1.286 1.16 2.15 1.097h.46c-.46.556-.96 1.18-1.465 1.863-2.03 2.75-4.164 6.646-4.164 11.623 0 2.22.007 5.62.077 8.617.034 1.5.176 2.62.243 3.738.033.56.073 1.054.122 1.48.05.424.01.653.29 1.342.44 1.202 1.77 1.813 2.974 1.373 1.2-.44 1.83-1.773 1.39-2.975.005.01-.026-.093-.048-.274-.03-.283-.06-.695-.09-1.204-.06-1.017-.21-2.116-.244-3.584-.068-2.936-.076-6.32-.076-8.51 0-3.66 1.536-6.536 3.264-8.88.864-1.17 1.764-2.177 2.532-3.096.465-.554.933-.997 1.297-1.63 1.51-.037 3.02-.057 4.577-.092-.43.566-.81 1.158-1.16 1.77-1.71 3-2.695 6.526-3.156 9.7-.16 1.098-.313 2.2-.473 3.296-.55 3.783-.877 8.563.045 12.188.17.838.783 1.507 1.6 1.754.82.247 1.7.026 2.305-.58.604-.605.83-1.485.58-2.303-.572-2.25-.45-6.994.045-10.39.16-1.097.314-2.2.474-3.295.392-2.714 1.32-5.822 2.605-8.085 1.29-2.26 2.714-3.468 4.35-3.57.55-.01 1.06-.227 1.464-.58h23.978c5.822 0 11.933.962 18.106.962 2.472 0 4.08-.657 5.6-.657.324.025.632-.03.93-.136.625.015 1.252-.2 1.707-.658.58-.577.81-1.423.61-2.212.034.04-.11-.962-.167-1.936-.066-1.115-.128-2.524-.168-3.936-.04-1.414-.066-2.83-.06-3.936.002-.553.014-1.03.03-1.373.012-.258.055-.51.045-.49.864-3.543.03-7.332.03-9.823 0-3.34-.172-6.498.308-9.32.517-3.054.365-6.04.366-8.788 0-2.89.99-6.253.99-10.02 0-4.013.32-8.016.32-12.297v-10.326c0-3.283-.32-6.494-.32-9.383 0-3.585-.545-6.632-1.39-9.944-.48-1.89-.716-3.754-1.326-6.146-.71-2.794-2.363-4.48-3.128-5.98-1.262-2.477-2.915-4.186-4.18-5.844-1.59-2.08-4.012-3.67-5.934-4.803-2.224-1.31-4.475-2.485-7.216-3.158-.695-.17-1.378-.24-2.03-.277 1.016-.474 2.256-1.055 3.357-2.136.692-.66.897-1.68.534-2.563-.363-.882-1.226-1.45-2.18-1.432-.602.013-1.165.26-1.588.686-.225.22-1.83 1.03-3.326 1.86-.75.415-1.536.83-2.242 1.74-.276.354-.492.863-.596 1.42-.73-.24-1.438-.375-2.12-.43-.825-.065-1.595-.026-2.303.046-.423.045-.814.104-1.206.154-.05-.273-.136-.54-.29-.793.033-.06-.065-.926.23-2.06.325-1.247.876-2.586 1.22-3.766.22-.714.07-1.496-.38-2.09-.454-.594-1.16-.936-1.91-.915-1.014.03-1.894.728-2.164 1.708-.2.682-.834 2.228-1.265 3.89-.327 1.257-.697 2.678-.32 4.178-1.95-.075-4.116-.154-6.3.2-.274-.494-.52-1.765-.32-3.494.204-1.777.808-3.976 1.723-6.222.31-.728.234-1.575-.213-2.227-.446-.65-1.193-1.016-1.983-.99zm-220.132 2.29c.204.137.35.248.566.396.582.394 1.182.8 1.74 1.144.278.17.553.317.823.457.27.14.456.297 1.067.412.504.115.98.043 1.42-.155v2.334c-.657-.015-1.276.263-1.71.777-3.527 3.685-5.895 5.213-9.656 4.957-4.732-.324-5.972-1.656-10.45-4.317-.417-.25-1.06-.97-1.767-1.877 1.755.17 3.21-.005 4.057.155 1.966.37 3.69-.526 4.833-1.48.58-.483 1.066-.995 1.48-1.495.28.4.393.618.81 1.098.544.63 1.614 1.02 2.363.96.748-.058 1.207-.317 1.6-.564.79-.494 1.326-1.07 1.862-1.663.363-.4.66-.772.96-1.14zm462.52 7.093c-.15 0-.305.005-.46.016-1.23.083-2.532.454-3.842 1.097-5.735 2.816-8.735 7.42-10.16 11.212-.712 1.894-1.044 3.602-1.19 4.88-.003.028-.012.034-.015.06-2.732-.682-4.955-1.442-8.024-2.196-2.506-.614-5.134-.7-7.444-.7-1.73 0-4.364-.69-7.215-.626-.95.022-1.917.11-2.897.35-2.682.66-6.522.74-10.023 2.457-2.463 1.21-5.12 2.265-7.52 4.623-2.528 2.48-3.57 4.41-5.296 7.23-1.672 2.738-2.21 5.512-3.126 7.765-1.125 2.757-1.146 5.297-1.146 7.993v5.46c-1.485-.087-2.983-.18-4.47-.272-.08-.01-.148-.014-.228-.015-1.28-.014-2.337 1.02-2.348 2.3-.014 1.28 1.022 2.324 2.302 2.335 1.566.095 3.133.195 4.7.29-.087 2.478-.29 4.97-.29 7.67 0 3.058.655 5.58.655 8.086v8.086c0 .225-.01.448-.015.673-1.697-1.2-3.27-1.975-4.82-2.7-1.94-.91-3.86-1.79-6.33-3.525-2.668-1.874-5.22-2.924-6.728-3.982-.374-.275-.822-.41-1.282-.428-.4-1.072-1.003-2.047-1.677-3.05-.843-1.256-1.81-2.497-2.61-3.555-.346-.46-.395-.576-.653-.946.357-1.074-.175-2.24-1.22-2.67-.3-.127-.584-.235-.977-.305-.196-.037-.45-.076-.76-.047-.313.028-.673.12-1.085.396-.822.55-1.075 1.692-1.022 2.21.052.52.185.78.305 1.038.473 1.01 1.153 1.812 1.95 2.867-.275-.178-.66-.437-.9-.58-.57-.344-.89-.553-1.48-.748-.145-.048-.33-.11-.624-.137-.292-.027-.785-.086-1.448.365-.665.45-.99 1.45-.962 1.953.028.503.158.738.244.916.346.708.55.822.855 1.143.305.32.666.667 1.068 1.037.915.842 1.92 1.715 2.9 2.5-.72.082-1.27.116-1.953.276-1.08.254-1.688.463-1.892.504-.203.04-.103.056-.686-.076-.765-.22-1.585-.01-2.137.564-.55.574-.748 1.41-.503 2.168.244.756.895 1.323 1.68 1.463.884.205 1.784.238 2.5.093.715-.145 1.135-.324 2.03-.533.635-.15 2.87-.245 4.635-.64.442-.1.875-.216 1.374-.474.472-.245 1.186-.72 1.462-1.693.07.06.135.115.214.167 2.177 1.53 4.57 2.484 6.726 3.996 2.8 1.966 5.1 3.01 7.017 3.908 1.917.897 3.414 1.636 5.172 3.08.38.343.85.537 1.342.58-.022.53-.03 1.063-.03 1.617v1.45c-1.71.555-3.385 1.19-4.942 1.95-2.377 1.163-4.9 1.745-7.293 2.915-.08.04-.153.09-.228.138-.125-.99-.75-1.593-1.175-1.907-.453-.33-.862-.503-1.282-.67-1.682-.665-3.867-1.11-4.47-1.356-.847-.347-1.237-.585-1.922-.84-.684-.254-1.564-.368-2.47-.305-.786.025-1.506.487-1.86 1.19-.356.7-.31 1.532.136 2.18.443.65 1.215 1.007 1.997.93.597-.04.493-.025.687.046.193.073.773.375 1.8.794.64.26 1.183.373 1.875.563-1.09.623-2.23 1.326-3.265 2.013-.456.304-.882.57-1.236.84-.353.27-.568.365-1.02 1.008-.116.16-.275.362-.383.853-.11.493.052 1.524.64 2.076.588.553 1.096.59 1.388.61.293.02.473-.005.625-.03.61-.1.955-.267 1.574-.52.243-.098.647-.286.93-.41-.94.898-1.73 1.592-2.35 2.5-.158.234-.322.49-.457.993-.135.5-.073 1.64.657 2.316.728.678 1.37.65 1.768.642.4-.01.694-.074 1.01-.153 1.104-.253 1.814-1.32 1.63-2.44v-.014c.313-.325.38-.43.794-.825.96-.92 2.106-1.986 3.142-3.095.834-.894 1.598-1.755 2.167-2.762.442.06.91.013 1.342-.198 1.663-.814 4.358-1.465 7.29-2.9.875-.426 1.858-.815 2.9-1.19v1.695c0 2.87.32 5.68.32 8.083 0 .743-.354 5.71-.747 10.235-.198 2.26-.408 4.493-.58 6.21-.087.856-.15 1.598-.214 2.134-.064.535-.18 1.07-.106.776-.233.812-.02 1.678.578 2.273.6.597 1.464.816 2.274.58.325-.093.62-.26.87-.472.526.32 1.104.53 1.646.657.667.153 1.327.225 2 .228-.512.584-1.062 1.236-1.633 1.984-2.047 2.674-4.225 6.467-4.225 11.334 0 2.155.02 5.463.09 8.376.036 1.456.086 2.8.153 3.89.035.543.074 1.017.124 1.433.05.415-.003.65.29 1.342.452 1.18 1.776 1.764 2.96 1.31 1.18-.452 1.78-1.776 1.326-2.96.018.04-.01-.043-.03-.227-.034-.272-.062-.682-.092-1.175-.06-.985-.116-2.313-.15-3.737-.07-2.847-.077-6.124-.077-8.25 0-3.516 1.54-6.27 3.28-8.544.868-1.136 1.77-2.13 2.546-3.02.74-.853 1.516-1.366 1.814-2.944.685-.225 1.35-.467 1.954-.718.736-.306 1.4-.62 1.982-.96.032-.02.06-.044.092-.06.54.263 1.248.594 2.043.93-1.288 1.056-2.334 2.426-3.158 3.874-1.71 3-2.696 6.526-3.157 9.7-.16 1.097-.314 2.2-.474 3.295-.55 3.784-.876 8.563.046 12.188.313 1.243 1.58 1.99 2.82 1.678 1.245-.312 1.993-1.562 1.68-2.806-.572-2.25-.45-6.993.046-10.388.16-1.098.313-2.2.473-3.296.395-2.713 1.306-5.82 2.59-8.084 1.29-2.26 2.73-3.467 4.367-3.568.67-.015 1.27-.327 1.693-.824.77.02 1.57-.043 2.362-.2 1.053-.205 1.765-.56 2.244-.715 1.2-.394 2.01-.71 2.67-1.024.97.71 2.43 1.52 4.942 2.577 2.083.877 4.114.896 5.69.305 1.575-.59 2.617-1.6 3.417-2.304.8-.706 1.362-1.062 1.556-1.113.195-.052.347-.177 1.37.578 2.796 2.06 6.708 2.624 10.59 2.565 2.73-.042 5.41-.357 7.64-1.39.41.658 1.138 1.1 1.97 1.1 1.28 0 2.333-1.04 2.333-2.32 0-.89-.154-1.9-.35-3.46-.194-1.564-.444-3.47-.7-5.356-.257-1.887-.51-3.76-.702-5.217-.094-.73-.174-1.348-.23-1.815-.052-.468-.074-.913-.074-.733 0-2.23-.013-4.474-.352-6.804-.415-2.864-.304-5.856-.304-9.03 0-2.935.32-5.922.32-9.044 0-3.443-.533-7.174-.046-9.566.864-4.232-.206-8.014.336-10.676.584-2.866.992-7.646.322-10.938-.54-2.643-1.267-6.396-1.267-8.587 0-1.92-.39-3.444-.837-4.67-.342-.93-.688-1.686-.962-2.516.48.164.986.306 1.526.412 2.218.434 4.212 1.303 6.56 1.997 2.348.695 5.1 1.12 8.298.336 1.34-.33 1.807-.836 2.67-1.51.86-.677 1.78-1.532 2.654-2.442.873-.91 1.703-1.853 2.318-2.882.307-.515.568-1.052.733-1.708.163-.658.228-1.557-.23-2.457-.84-1.65-1.877-3.663-3.616-5.368-1.74-1.707-4.29-2.99-7.49-2.99-5.3 0-9.075 2.312-11.7 4.743-1.947 1.802-3.468 3.602-4.65 4.73-.32-.403-.676-.782-1.147-1.13-.88-.647-1.996-1.578-2.824-2.395 4.263-.547 7.92-2.007 11.516-5.537 3.115-3.06 4.006-7.84 3.005-11.868-.5-2.013-1.62-3.99-3.66-5.018-.893-.45-1.898-.665-2.96-.655zm169.563 2.975c-.387.01-.744.04-1.098.076-1.417.148-2.596.368-3.845.368-1.27 0-2.71-.082-4.21-.106-.512-.04-.985-.075-1.388-.075-6.074 0-9.438.006-11.152.076-.428.02-.746.02-1.067.06-.16.023-.308.043-.61.14-.15.048-.35.098-.703.35-.35.253-1.046 1.03-.975 2.06 0 .02.013.025.015.045-.237.065-.46.09-.778.306-.393.268-.843.84-1.023 1.465-.657.32-1.32.67-1.952 1.114-.803.13-1.586.35-2.35.702-.81.305-1.378 1.03-1.48 1.89-.044.378.01.758.14 1.1l-1.695 1.616c-1.484 1.415-3.038 2.888-3.875 4.944-1.43 3.513-3.233 7.266-4.073 11.394-.662 3.25-1.037 6.36-1.037 9.854 0 .652-.034 1.382-.06 2.166-.208-.015-.4-.034-.61-.046-1.875-.114-3.934-.153-5.416-.198-.074-.004-.153-.004-.23 0-1.28.024-2.296 1.068-2.27 2.35.024 1.28 1.083 2.31 2.363 2.286 1.503.047 3.51.093 5.263.2.345.02.673.052.992.075.075.716.187 1.435.365 2.138.477 1.873.594 4.497.594 6.863 0 3.565.654 6.548.654 9.383v8.07c0 1.743.12 3.43.214 5.033-1.66.272-3.087.694-4.47 1.113-2.055.623-4.06 1.248-7.078 1.616-3.25.398-5.857 1.3-7.703 1.526-.478.06-.916.258-1.252.55-1.03-.527-2.146-.822-3.34-1.112-1.486-.362-3.063-.64-4.38-.885-.585-.11-.706-.142-1.158-.244-.367-.84-1.225-1.35-2.136-1.282-.194.013-.383.056-.564.12-.307.106-.576.217-.916.428-.34.213-.927.558-1.16 1.54-.23.986.376 1.95.763 2.29.387.34.67.443.93.55.998.41 2.036.575 3.295.81-.263.04-.658.09-.884.135-.66.126-1.036.194-1.604.44-.14.064-.31.13-.548.308-.237.178-.655.496-.84 1.296-.183.8.283 1.747.64 2.09.36.34.598.417.78.487.72.284.943.23 1.387.26.442.034.944.04 1.493.046 1.27.013 2.643-.015 3.92-.09-.47.535-.844.907-1.235 1.48-.623.908-.92 1.473-1.038 1.632-.117.157-.015.092-.534.38-1.043.577-1.43 1.887-.855 2.93.577 1.04 1.887 1.43 2.93.853.793-.44 1.49-1.025 1.922-1.615.433-.59.62-.994 1.13-1.74.354-.52 1.925-2.09 2.96-3.57.256-.37.508-.747.7-1.28.178-.49.353-1.316-.06-2.18.068-.004.143-.01.213-.017 2.648-.324 5.067-1.203 7.703-1.525 3.41-.416 5.826-1.184 7.854-1.8 1.153-.35 2.168-.637 3.25-.853v6.115c0 2.14.29 4.41.078 5.25-.56 2.194-.42 4.215-.413 5.964-1.396.947-2.83 1.84-4.15 2.958-.067.055-.12.122-.183.184-.365-.94-1.123-1.355-1.617-1.556-.518-.21-.955-.276-1.403-.336-1.795-.235-4.034-.137-4.683-.23-.91-.128-1.35-.27-2.074-.35-.726-.08-1.607.04-2.47.32-.78.196-1.387.82-1.573 1.602-.185.784.076 1.58.686 2.105.61.526 1.464.684 2.21.384.57-.185.464-.145.672-.123.206.024.852.18 1.952.336.68.096 1.22.063 1.923.076-1.13.098-2.283.153-3.51.153-10.992 0-21.48 1.402-32.093 1.402-4.215 0-8.45-.058-12.69-.138.856-.202 1.572-.895 1.754-1.815.247-1.257-.574-2.47-1.83-2.716-4.067-.8-9.26-1.122-14.096-1.342-4.832-.22-9.35-.334-11.47-.565-.152-.02-.302-.025-.457-.015-1.212.08-2.173 1.088-2.182 2.303-.006 1.216.94 2.224 2.153 2.32 2.615.285 6.98.363 11.746.58 4.663.213 9.638.55 13.178 1.22-6.82-.132-13.672-.275-20.563-.275-7.566 0-17.975-.906-24.575-.487-1.29.082-2.265 1.17-2.18 2.44.084 1.267 1.195 2.233 2.486 2.15 5.826-.37 16.35.473 24.27.473 8.78 0 17.564.273 26.375.398-.022 4.572-.46 12.732-.46 18.946v12.47c-.185.194-.447.44-.822.764-.887.762-2.157 1.726-3.462 2.7-1.305.973-2.646 1.948-3.72 2.73-.34.246-.606.434-.886.64-.962-.123-1.89.368-2.35 1.205-.46.836-.342 1.856.29 2.577.026.037.024.063.075.138.107.157.204.42.84.81.315.193.88.424 1.524.365.617-.056 1.146-.36 1.45-.64-.01.007.005-.006.046-.046.08-.066.26-.224.472-.383.337-.25.795-.59 1.327-.975 1.064-.773 2.422-1.757 3.767-2.76 1.025-.764 2.042-1.533 2.928-2.258.68.66 1.44 1.14 2.23 1.633 2.24 1.402 5.318 4.72 5.87 5.4.44.537.88 1.15 1.39 1.815.496.67 1.328 1.04 2.165.946.84-.095 1.55-.64 1.876-1.403.33-.763.23-1.648-.29-2.303-.446-.59-.933-1.252-1.49-1.938-1.845-2.265-5.08-5.2-6.988-6.393-.72-.452-1.04-.744-1.296-.976.36-.723.295-1.566-.152-2.242-.035-.054-.065-.115-.105-.166v-11.715c0-5.977.434-14.04.457-18.9 1.137.008 2.264.016 3.4.016 10.796 0 21.076-1.345 31.426-1.402-.05.105-.1.225-.153.367-.07.185-.172.412-.152.917.02.503.428 1.457 1.13 1.845.7.386 1.207.295 1.495.242.29-.05.453-.12.595-.18.57-.248.868-.477 1.404-.87.227-.168.59-.467.855-.67-.705 1.13-1.3 1.975-1.68 3.033-.097.266-.195.56-.198 1.082-.005.523.336 1.617 1.204 2.09.866.474 1.492.29 1.876.183.384-.105.66-.23.945-.38 1.01-.528 1.425-1.753.96-2.793.223-.39.26-.502.565-.99.696-1.125 1.548-2.456 2.273-3.783.575-1.053 1.09-2.06 1.387-3.16.448-.06.886-.238 1.236-.548.334-.284.72-.58 1.16-.884.014 1.565.092 5.29.183 8.94.05 2 .113 3.874.15 5.125.02.625.034 1.095.048 1.373.002.07-.005.106 0 .168 0 .032.008.063.015.122.002.03-.013.075 0 .152.006.04.022.09.045.184.022.094.243.61.243.61s.575.09.918.137c.053.157.11.3.197.444.452.74 1.284 1.16 2.15 1.098h.443c-.458.556-.93 1.18-1.434 1.863-2.03 2.75-4.18 6.646-4.18 11.623 0 2.22.02 5.62.09 8.618.035 1.5.087 2.894.153 4.012.034.56.06 1.055.107 1.48.05.424.01.653.29 1.342.44 1.203 1.758 1.814 2.96 1.373 1.203-.44 1.83-1.77 1.39-2.974.005.01-.026-.108-.047-.29-.033-.283-.047-.695-.077-1.204-.06-1.018-.118-2.376-.152-3.844-.07-2.937-.076-6.32-.076-8.512 0-3.66 1.536-6.534 3.263-8.877.866-1.172 1.75-2.178 2.52-3.097.465-.554.93-.997 1.296-1.63 1.51-.037 3.02-.057 4.577-.092-.427.566-.81 1.158-1.157 1.77-1.71 3-2.682 6.526-3.143 9.7-.16 1.098-.314 2.2-.472 3.296-.552 3.783-.893 8.563.03 12.188.168.838.782 1.507 1.6 1.754.82.247 1.716.026 2.32-.58.603-.605.828-1.485.58-2.303-.573-2.25-.433-6.995.06-10.39.16-1.097.313-2.198.473-3.295.396-2.714 1.29-5.822 2.58-8.085 1.288-2.26 2.726-3.466 4.36-3.57.55-.015 1.068-.225 1.466-.58h23.963c5.823 0 11.95.964 18.123.964 2.47 0 4.065-.657 5.582-.657.325.025.65-.03.946-.136.626.018 1.24-.2 1.694-.654.58-.577.807-1.423.61-2.212.034.038-.095-.963-.153-1.937-.065-1.115-.126-2.524-.167-3.936-.04-1.413-.067-2.83-.06-3.935 0-.553.013-1.03.03-1.373.01-.255.054-.51.044-.486.86-3.544.045-7.333.045-9.824 0-3.34-.19-6.498.29-9.32.517-3.054.365-6.04.365-8.788 0-2.888.978-6.252.978-10.02-.002-4.012.335-8.015.335-12.296V233.34c0-3.283-.335-6.494-.335-9.383-.002-3.585-.547-6.632-1.39-9.944-.48-1.89-.702-3.755-1.31-6.147-.712-2.794-2.378-4.48-3.143-5.98-1.26-2.477-2.915-4.186-4.18-5.844-1.59-2.08-4.012-3.67-5.934-4.803-2.222-1.31-4.457-2.487-7.2-3.16-1.667-.41-3.24-.294-4.605-.275-1.364.02-2.496-.075-3.004-.275-.888-.346-1.755-.513-2.58-.58-.41-.03-.833-.04-1.22-.03zm-169.427 1.618c.315.015.55.09.733.182.486.245.966.873 1.25 2.014.567 2.28-.3 6.017-1.754 7.444-3.66 3.593-6.517 4.302-11.41 4.438-.012-.064-.03-.117-.046-.18 0-.18.004-.4.045-.764.104-.916.37-2.292.93-3.783 1.12-2.983 3.324-6.44 7.856-8.664.9-.44 1.565-.63 2.06-.67.126-.013.23-.023.337-.016zM507.14 191.54c.715-.03 1.296.05 1.952.306 1.697.666 3.332.615 4.774.595 1.44-.02 2.713-.036 3.416.138 2.098.514 3.868 1.42 5.965 2.654 1.64.966 3.848 2.62 4.607 3.615 1.458 1.91 2.842 3.385 3.737 5.14 1.167 2.294 2.44 3.722 2.775 5.035.53 2.08.76 3.888 1.327 6.115.796 3.124 1.237 5.69 1.237 8.816 0 3.225.32 6.43.32 9.385v10.326c0 4.037-.32 8.04-.32 12.296 0 2.848-.99 6.22-.99 10.02 0 2.893.11 5.648-.29 8.025-.305 1.78-.416 3.52-.43 5.22-1.95.505-3.92 1.127-4.39 1.127-6.927 0-13.25 2.014-19.925 2.014-5.316 0-13.797-1.103-21.92-1.845-7.08-.645-13.775-1.182-18.747.016.036-.252.08-.49.137-.717.58-2.285.183-4.49.09-5.92.615-.176 1.233-.36 1.848-.534 3.453-.97 6.82-1.88 9.473-3.432.94-.537 1.366-1.65 1.053-2.685-.315-1.036-1.286-1.725-2.365-1.65-.365.03-.71.15-1.023.337-1.77 1.04-4.953 1.995-8.39 2.96-.2.057-.41.11-.61.17v-3.403c0-2.802-.336-5.558-.336-8.083v-4.287c1.628.398 3.642.795 5.75 1.1 3.087.444 5.928.904 8.558.014 3.09-1.046 5.376-2.082 7.825-4.41 1.02-.97 1.576-2.05 2.21-3.28.635-1.23 1.243-2.585 1.845-3.86.554-1.165 1.112-2.26 1.588-3.05 1.532-.96 2.9-2.216 3.676-4.056.334-.773.252-1.662-.216-2.364-.467-.703-1.246-1.11-2.09-1.1-.998.014-1.897.615-2.272 1.54-.02.052-.064.102-.09.153-1.48.455-2.175 1.33-2.762 2.24-.173.09-.345.173-.533.26-1.935.9-4.472 1.735-6.972 2.914-1.515.714-4.75.876-8.146.55-3.147-.306-6.4-.907-9.047-1.207-.03-2.13-.164-4.452-.716-6.62-.08-.312-.138-.687-.183-1.067.247-.212.467-.462.61-.78.46-1.01.127-2.182-.73-2.82.012-1.06.045-2.13.045-3.157 0-3.173.33-5.898.944-8.924.686-3.367 2.332-6.91 3.83-10.587.28-.69 1.394-2.01 2.775-3.325 1.38-1.316 2.95-2.66 4.15-4.226.273-.358 1.194-1 2.363-1.555 1.17-.553 2.522-1.05 3.736-1.647 1.44-.71 4.562-1.145 7.107-1.77 2.29-.563 5.464-.26 8.65-.26 1.777 0 3.23-.28 4.346-.396.28-.028.524-.05.763-.062zm392.18.992c1.458.21 2.086.23 3.692.504 3.853.65 7.605 1.337 8.938 1.555 1.264.206 2.45-.66 2.655-1.922.007-.052.01-.085.015-.137.112.016.256.02.35.046 2.097.514 3.867 1.42 5.965 2.654 1.64.964 3.85 2.62 4.606 3.613 1.458 1.91 2.828 3.385 3.72 5.14 1.17 2.294 2.44 3.722 2.778 5.035.53 2.08.76 3.888 1.326 6.115.796 3.124 1.236 5.69 1.236 8.816 0 3.222.334 6.426.334 9.382v10.326c0 4.035-.335 8.037-.335 12.294 0 2.848-.978 6.22-.978 10.02 0 2.893.1 5.648-.305 8.025-.303 1.78-.4 3.52-.413 5.217-1.952.506-3.934 1.128-4.41 1.128-6.923 0-13.232 2.014-19.905 2.014-5.318 0-13.798-1.105-21.92-1.847-2.7-.25-5.358-.474-7.87-.596 2.37-1.386 4.622-2.8 6.33-4.486.695-.66.902-1.69.532-2.578-.37-.887-1.25-1.448-2.212-1.418-.6.013-1.162.26-1.585.686-1.45 1.432-4.282 3.155-7.368 4.927-1.79 1.03-3.673 2.09-5.462 3.25-.388.07-.76.14-1.13.23.037-.253.096-.49.155-.718.65-2.553.076-5.025.076-6.408v-7.58c.212-.356.338-.76.334-1.207-.005-.48-.16-.93-.41-1.297-.097-1.984-.26-3.933-.26-5.75v-8.07c0-1.373-.12-2.662-.245-3.904 2.56-.312 5.635-.858 8.602-1.144 3.396-.33 6.63-.165 8.146.55 2.5 1.177 5.052 2.01 6.986 2.912 1.932.902 3.03 1.79 3.384 2.64.328.84 1.073 1.45 1.968 1.57.895.122 1.78-.267 2.32-.99.54-.726.66-1.68.29-2.503-1.133-2.69-3.534-4.124-5.874-5.216-2.34-1.09-4.845-1.916-6.957-2.912-2.42-1.14-5.163-1.332-7.947-1.204-.927.042-1.865.123-2.79.213-3.17.307-6.255.834-8.543 1.13-.004-.175 0-.346 0-.52 0-2.47-.06-5.363-.732-8.008-.073-.29-.14-.63-.183-.978.622-.493.958-1.278.868-2.073-.075-.678-.428-1.258-.975-1.634.012-1.056.03-2.12.03-3.143 0-3.173.314-5.898.93-8.924.687-3.367 2.333-6.91 3.83-10.587.28-.69 1.394-2.01 2.775-3.325 1.377-1.313 2.954-2.65 4.15-4.21 1.41-.022 3.124.262 4.942.838 2.716.86 5.538 2.288 7.993 3.693 1.234.764 2.413 1.532 3.417 2.27 1.408 1.04 2.27 1.62 2.837 1.97.142.086.253.167.442.26.095.044.2.105.488.18.144.04.314.094.763.06.45-.03 1.52-.4 1.952-1.34.432-.94.16-1.56.046-1.845-.117-.29-.207-.41-.275-.506-.14-.193-.207-.268-.274-.336-.135-.138-.234-.207-.35-.307-.938-.79-2.97-2.25-5.782-3.92-.267-.158-.607-.313-.885-.473-.9-.556-1.797-1.074-2.7-1.6 1.103.258 1.814.395 3.126.716 3.036.745 9.333 3.284 11.852 4.18.315.112.57.184.84.26.135.037.245.073.564.107.16.016.334.107.945-.077.305-.092.82-.29 1.235-.87.413-.578.472-1.427.365-1.89-.213-.927-.513-1.02-.656-1.16-.144-.14-.228-.202-.307-.26-.156-.115-.28-.18-.41-.258-.266-.16-.577-.337-1.01-.565-1.166-.62-4.62-2.327-7.686-3.844zm-455.515 9c.11.02.092.09.046.076-.01-.004-.08-.055-.09-.06.007 0 .035-.02.044-.016zm252.455.87c2.07-.05 4.918.53 7.717.53 2.155 0 4.49.127 6.346.58 2.924.72 5.173 1.524 8.24 2.275.44.11.805.2 1.143.306.027.05.06.104.09.154.416.647 1.127 1.046 1.892 1.067.094.137.19.29.29.49 1.32 2.595 3.788 4.244 5.294 5.354-.02-.015.67.855 1.113 1.89.44 1.037.803 2.226.99 2.96.418 1.642.97 2.81 1.327 3.783.357.975.564 1.763.564 3.083 0 3.1.836 6.87 1.373 9.5.344 1.694.094 7.07-.32 9.11-.86 4.22.21 7.975-.338 10.66-.757 3.725-.045 7.666-.045 10.496 0 2.775-.336 5.78-.336 9.044v.565c-.163.063-.312.144-.46.244-.59.385-.936.788-1.035.944.07-.015.045-.003-.016.06-.028.03-.023-.003.014-.06-.045.01-.068.02-.306.076-5.243 1.288-10.05 1.97-15.94 1.97-13.543 0-30.85-1.3-42.483-1.36v-1.72c.677-.197 1.363-.39 2.043-.58 3.453-.97 6.823-1.894 9.473-3.448.94-.536 1.383-1.65 1.07-2.685-.314-1.034-1.302-1.71-2.38-1.63-.364.026-.71.13-1.023.32-1.772 1.04-4.953 2.01-8.39 2.974-.26.072-.53.14-.793.214v-.092c0-2.282.335-4.68.335-7.43v-6.253c.785.604 1.716 1.12 2.82 1.464 2.53.785 6.546 1.943 10.04.808 2.55-.83 4.41-1.66 6.436-3.51.842-.77 1.303-1.627 1.83-2.607.525-.98 1.04-2.07 1.54-3.08.46-.933.905-1.788 1.297-2.41 1.265-.755 2.4-1.734 3.05-3.22.305-.658.24-1.44-.183-2.03-.425-.588-1.126-.9-1.846-.823-.73.08-1.366.545-1.648 1.222-.022.046-.065.09-.093.136-1.175.35-1.755 1.035-2.243 1.755-.154.075-.32.137-.488.214-1.606.717-3.706 1.382-5.767 2.317-1.164.527-4.385.674-7.643.38-2.788-.25-5.6-.688-7.78-.946.022-2.326.21-4.66.29-7.14.485-.153.91-.463 1.205-.898.48-.703.528-1.624.138-2.38-.275-.537-.744-.92-1.296-1.114v-5.826c0-2.65.05-4.35.82-6.24 1.13-2.772 1.668-5.267 2.793-7.108 1.782-2.917 2.43-4.224 4.576-6.33 1.66-1.632 3.686-2.494 6.314-3.784 2.182-1.07 5.67-1.268 9.076-2.105.39-.096.82-.126 1.298-.137zm51.267 3.31c2.07 0 3.2.627 4.256 1.66.944.926 1.72 2.267 2.458 3.68-.034.072-.03.064-.09.166-.316.526-.963 1.315-1.68 2.06-.714.744-1.502 1.463-2.164 1.983-.498.39-1.115.653-1.13.7-2.17.49-3.78.256-5.674-.304-1.96-.58-4.17-1.553-6.987-2.105-.498-.1-.863-.275-1.252-.43 1.285-1.294 2.435-2.696 3.74-3.903 2.16-2.002 4.494-3.507 8.525-3.507zM116.85 207.13c-.14.003-.29.02-.428.046-8.323 1.423-17.336.792-26.51.93-1.39.02-2.493 1.16-2.472 2.547.02 1.39 1.16 2.51 2.546 2.49 8.888-.136 18.156.524 27.29-1.04 1.278-.23 2.17-1.39 2.06-2.684-.112-1.295-1.19-2.283-2.487-2.29zm84.37 9.84c.616.284 1.262.542 1.937.762.033.09.085.178.153.304.048.09.087.195.167.305.08.108.32.334.32.334l.016.015c2.505 5.05 4.63 8.024 8.238 12.964 2.17 2.97 5.024 5.31 8.407 6.118 3.38.807 7.206-.262 10.19-3.326 3.184-3.268 6.61-6.58 9-8.695.757-.67 1.097-.914 1.57-1.28h.015c.483.016.94-.1 1.34-.335.358.248.764.533 1.236.9 1.54 1.195 3.58 2.908 5.737 4.698 2.157 1.79 4.438 3.67 6.59 5.217 2.15 1.545 4.043 2.793 6.116 3.324 1.47.38 2.61.64 3.905.49 1.295-.154 2.64-1.08 3.28-2.045 1.28-1.93 1.444-3.68 2.9-6.668 2.252-4.63 2.605-6.46 4.5-10.388l.486.015c-.077 1.142-.152 2.33-.152 3.6v20.06c0 1.375.212 9.175.472 16.763.13 3.794.266 7.437.396 10.052.055 1.12.113 1.997.167 2.685-.12-.01-.177-.013-.214-.013-.08-.002-.1 0-.124 0h-.09c-.04.002-.08-.002-.123 0-.088.005-.187.02-.336.03-.297.02-.722.044-1.236.077-1.03.066-2.424.153-3.904.243-2.96.182-6.362.367-7.506.367-5.26 0-10.354-.032-15.18-1.022-1.54-.316-3.11-.456-4.665-.487-.583-.012-1.16-.017-1.74 0-4.05.11-7.97.793-11.195.793h-28.586c-1.625 0-2.884-.012-3.905-.275-.23-.057-.46-.08-.69-.075.033-.51.05-.92.093-1.556.157-2.33.386-5.41.595-8.497.207-3.088.406-6.18.564-8.512.077-1.165.136-2.142.182-2.836.022-.348.048-.628.06-.824l.015-.23c.004-.06 0 .13 0-.242 0-2.46-.335-4.145-.335-6.085.322-10.586-.468-15.53.274-25.717.002-.065.002-.134 0-.2 0-.175-.013-.502-.016-.717.242-.002.48-.014.7-.014.488.003 1.097.264.367-.075zm2.333 1.234c.043.084.084.134.124.215-.108-.147-.123-.216-.123-.215zm280.54.474c-.316 0-.6.05-.825.107-.89.224-1.46.59-1.51.61-.35.136-.662.37-.885.673-.535.738-1.217 1.655-1.115 3.217.052.783.538 1.77 1.312 2.29.775.518 1.606.655 2.517.655.755 0 1.58-.184 2.243-.717.663-.532 1-1.317 1.098-1.937.198-1.237-.11-2.13-.29-2.837-.17-.674-.74-1.49-1.51-1.83-.386-.17-.722-.23-1.037-.23zm397.67 0c-.314 0-.6.05-.822.107-.89.224-1.444.59-1.494.61-.352.136-.662.37-.885.673-.533.738-1.214 1.655-1.113 3.217.05.783.54 1.77 1.312 2.29.773.518 1.62.655 2.532.655.753 0 1.56-.184 2.225-.717.664-.532 1-1.317 1.1-1.937.196-1.237-.126-2.13-.306-2.837-.17-.674-.725-1.49-1.495-1.83-.385-.17-.738-.23-1.053-.23zm-672.137.336c1.052.12 2.125.205 3.218.29 4.334.335 8.873.415 12.57.61 4.203.22 8.598.29 13.058.274-.645.492-1.323 1.084-2.15 1.815-2.557 2.26-6.008 5.63-9.26 8.97-2.013 2.067-3.647 2.35-5.445 1.92-1.8-.43-3.85-1.925-5.507-4.193-2.915-3.99-4.675-6.405-6.483-9.686zm58.743.564c1.01-.01 2 0 2.973 0-1.252 2.867-1.798 4.725-3.523 8.267-1.575 3.235-2.26 5.413-2.488 5.89-.206-.004-.734-.02-1.847-.305-.622-.16-2.46-1.136-4.424-2.547-1.963-1.41-4.182-3.233-6.315-5.003-2.132-1.77-4.17-3.495-5.857-4.805-.46-.36-.9-.682-1.313-.977 7.885-.153 15.727-.457 22.79-.52zm415.64 9.137c-.27 0-.496.045-.686.093-.76.19-1.252.502-1.295.518-.3.12-.56.32-.748.58-.457.633-1.064 1.41-.977 2.746.045.67.484 1.51 1.145 1.953.66.444 1.373.564 2.15.564.646 0 1.34-.156 1.908-.61.567-.457.86-1.135.946-1.664.17-1.057-.12-1.82-.276-2.425-.146-.575-.608-1.265-1.266-1.556-.33-.146-.63-.197-.9-.2zm-443.68 2.67c-.59-.04-1.387.123-1.996.595-.607.474-.942 1.14-1.082 1.694-.435 1.74-.183 3.31.9 4.743.54.717 1.586 1.503 2.898 1.45 1.312-.057 2.28-.855 2.914-1.71.207-.283.36-.615.427-.96.42-2.098-.562-3.674-1.693-4.714-.565-.52-1.184-1.02-2.365-1.1zm307.997 3.265c-1.11.063-2.024.854-2.183 1.906-2.556 15.533-2.41 35.588-2.41 52.568 0 7.375-.152 14.776-.287 22.193-.062.055-.128.11-.184.17-.12.03-.105.045-.306.076-.84.128-2.236.203-3.723.23-2.97.055-6.35-.06-8.037-.06-6.933 0-14.313-1.45-21.965-1.45-4.9 0-9.83-.49-14.813-.49-2.037 0-3.976.984-4.973 2.38-.998 1.398-1.268 2.936-1.42 4.455-.3 3.037.026 6.32-.273 8.13-.502 3.032-.533 6.11-.52 9.06-.008.06-.027.123-.03.185-.052.718-.012 1.422.03 2.043v.714h.045c.01.16.014.322.014.457 0 .516.027.337-.015.504-.267.847-.047 1.78.58 2.41.626.63 1.547.86 2.394.596.848-.263 1.487-.973 1.648-1.846.145-.583.167-1.172.167-1.663 0-.457-.014-.937-.03-1.388v-.108c-.013-3.554-.074-7.108.442-10.236.475-2.882.076-6.13.305-8.436.114-1.153.4-1.974.625-2.288.224-.315.19-.382 1.006-.382 4.65 0 9.593.473 14.813.473 6.99 0 14.367 1.466 21.966 1.466 1.41 0 4.965.12 8.146.06 1.457-.027 2.81-.085 4.01-.243-.06 3.972-.12 7.933-.12 11.912 0 2.94-.458 5.44-.458 8.71 0 1.363.42 2.253.518 2.73.114.83.705 1.53 1.526 1.815.82.286 1.738.11 2.38-.456.64-.568.9-1.437.67-2.244-.22-1.05-.41-1.65-.41-1.844 0-2.824.456-5.337.456-8.71 0-12.92.474-25.908.474-38.93 0-17-.08-36.95 2.38-51.863.12-.674-.075-1.354-.55-1.86-.475-.51-1.18-.79-1.89-.75zm198.836 0c-1.11.063-2.01.854-2.167 1.906-2.56 15.533-2.44 35.588-2.44 52.568 0 7.375-.125 14.776-.26 22.193-.06.055-.128.11-.184.17-.12.03-.136.045-.337.076-.84.128-2.22.203-3.707.23-2.973.055-6.353-.06-8.038-.06-6.935 0-14.33-1.45-21.983-1.45-4.9 0-9.813-.49-14.797-.49-2.037 0-3.96.984-4.957 2.38-.995 1.398-1.283 2.936-1.433 4.455-.3 3.037.024 6.32-.275 8.13-.6 3.633-.522 7.35-.503 10.816v.016c-.025.224-.05.445-.063.672-.03.586-.03 1.194-.03 1.678 0 .67.13 1.003.167 1.022.182.837.81 1.515 1.632 1.77.847.263 1.767.034 2.394-.595.627-.63.847-1.564.58-2.41-.015-.057-.007-.035-.016-.076.002-.296.02-.59.03-.883h.092v-.93c.1-.39.095-.79 0-1.175-.002-.004 0-.01 0-.015-.013-3.187-.005-6.345.457-9.152.474-2.88.075-6.13.304-8.435.114-1.153.4-1.974.625-2.288.223-.315.174-.382.99-.382 4.65 0 9.578.474 14.797.474 6.993 0 14.383 1.462 21.983 1.462 1.41 0 4.963.12 8.144.062 1.457-.028 2.825-.085 4.027-.244-.063 3.972-.123 7.933-.123 11.912 0 2.942-.458 5.44-.458 8.71 0 1.364.418 2.254.518 2.73.113.83.704 1.532 1.525 1.816.82.286 1.737.11 2.38-.456.642-.567.9-1.436.67-2.242-.22-1.05-.43-1.653-.43-1.846 0-2.822.474-5.336.474-8.71 0-12.918.473-25.907.473-38.928 0-17-.078-36.95 2.38-51.864.122-.672-.105-1.352-.58-1.86-.476-.51-1.163-.79-1.876-.75zm198.85 0c-1.11.063-2.023.854-2.18 1.906-2.56 15.533-2.426 35.588-2.426 52.568 0 7.375-.156 14.776-.29 22.193-.06.055-.112.11-.167.17-.12.03-.12.045-.322.076-.838.128-2.22.203-3.706.23-2.974.055-6.356-.06-8.04-.06-6.934 0-14.33-1.45-21.98-1.45-4.903 0-9.83-.49-14.814-.49-2.038 0-3.945.984-4.942 2.38-.997 1.398-1.283 2.936-1.435 4.455-.3 3.037.025 6.32-.273 8.13-.6 3.638-.538 7.36-.52 10.83-.002.052-.002.087 0 .138v1.04h.016c-.006.12 0 .196-.015.334-.066.62-.195 1.42-.046 2.41 0 .024-.003.08-.03.184-.254.843-.026 1.774.596 2.396.62.622 1.537.85 2.38.594.842-.254 1.473-.952 1.647-1.815.108-.437.29-1.136.136-2.06-.01-.074-.005-.576.06-1.19.064-.578.207-1.214.048-2.18-.014-3.456-.044-6.908.457-9.948.475-2.882.077-6.13.305-8.436.113-1.153.4-1.974.624-2.288.224-.315.175-.382.992-.382 4.648 0 9.592.474 14.812.474 6.99 0 14.382 1.463 21.98 1.463 1.412 0 4.965.12 8.145.06 1.458-.027 2.812-.085 4.013-.243-.063 3.972-.108 7.933-.108 11.912 0 2.94-.488 6.064-.488 9.335 0 1.365.435 2.255.535 2.732.112.827.688 1.53 1.51 1.814.82.285 1.752.11 2.395-.458.642-.568.902-1.437.67-2.243-.22-1.05-.427-1.65-.427-1.845 0-2.82.473-5.96.473-9.335 0-12.917.474-25.906.474-38.927 0-17-.094-36.95 2.363-51.864.122-.673-.073-1.354-.548-1.86-.477-.51-1.164-.79-1.877-.75zm-705.178.458c.302-.013.556.083.747.183-.1.165-.12.3-.32.458-.1.076-.213.1-.323.152l-.794-.58c-.058.04-.07.06-.015-.016l.015.016c.09-.063.307-.197.687-.213zm249.753 7.977c-.215.448-.423.906-.625 1.298-.547 1.06-1.13 1.88-1.19 1.937-1.946 1.85-3.038 2.29-5.963 3.28-.322.11-3.407.192-6.224-.214-2.59-.372-5.216-.964-6.514-1.342-.074-1.497-.24-2.907-.383-4.27 2.264.297 5.265.817 8.33 1.113 3.704.36 7.51.516 10.736-1.006.587-.275 1.195-.535 1.83-.793zm-249.235 2.41c-.136-.004-.263.01-.397.015-.176.01-.346.02-.518.046-.685.106-1.335.353-1.937.704-.602.35-1.253.832-1.632 1.845-.378 1.01.035 2.52.748 3.233l.824.823c.607.608 1.13 1.057 1.846 1.404.715.346 2.006.594 3.05-.106 1.045-.7 1.245-1.683 1.312-2.304.018-.16-.032-.265-.03-.412.602-.456.954-1.166.945-1.92-.008-.75-.37-1.48-.976-1.923.05-.024-.43-.836-1.967-1.22-.437-.11-.858-.17-1.267-.185zm448.378 3.524c-.17.34-.33.696-.49.99-.45.84-.94 1.465-.99 1.51-1.61 1.47-2.52 1.835-4.942 2.623-1.388.45-5.385-.136-7.55-.81-1.996-.617-2.786-1.784-3.737-3.706 1.858.25 4.14.585 6.45.794 3.47.313 6.9.52 9.658-.732.51-.23 1.05-.455 1.603-.67zm-43.703 2.623c.11.024.093.078.046.06l-.09-.044c.005 0 .038-.018.044-.016zm195.236 16.67c.05-.007.065.033.032.046-.012.004-.107.024-.123.03.006-.004.022-.042.03-.046.024-.013.043-.025.06-.03zm-619.847 9.595h.076c.004.04.006.074-.03.214-.016-.077-.033-.14-.048-.216zm405.224.52c-4.164 0-7.528 2.213-9.9 4.088-.92.726-1.542 1.307-2.137 1.83-1.437-1.368-2.96-2.238-4.53-2.624-2.083-.515-4.055-.146-5.75.425-3.39 1.143-6.097 2.853-8.313 2.853-1.282 0-2.334 1.02-2.334 2.303 0 1.28 1.052 2.334 2.334 2.334 4.143 0 7.292-2.255 9.792-3.097 1.25-.422 2.232-.552 3.172-.32.94.23 2.034.845 3.43 2.56.57.696 1.72.974 2.305.886.584-.087.87-.27 1.113-.41.486-.286.787-.553 1.16-.87.746-.637 1.62-1.437 2.64-2.243 2.04-1.612 4.573-3.082 7.016-3.082 2.842 0 6.465 3.63 9.594 6.09.646.557 1.537.715 2.334.41.798-.304 1.357-1.03 1.464-1.875.108-.848-.236-1.686-.93-2.183-2.372-1.86-6.513-7.077-12.463-7.077zm166.726.884c-1.226.124-2.153 1.192-2.09 2.423.064 1.232 1.085 2.212 2.32 2.212 4.146 0 11.915 1.56 19.875 3.188 7.96 1.63 16.18 3.327 22.24 3.402 1.28.017 2.318-1.023 2.336-2.303.015-1.282-.994-2.318-2.274-2.334-5.217-.066-13.41-1.67-21.357-3.296-7.95-1.628-15.612-3.295-20.822-3.295-.08-.006-.15-.006-.23 0zm-341.095.487c-.01.012-.033.046-.122.044.018-.004.11-.044.123-.045zm279.363 0c.05 1.172.143 2.362.32 3.582.28 1.924.32 3.933.32 6.134 0 .48.05.737.108 1.25.06.514.117 1.15.215 1.892.193 1.483.46 3.364.716 5.248.216 1.58.405 3.085.58 4.454-.782.683-3.79 1.676-6.94 1.723-3.22.05-6.594-.79-7.78-1.66-1.715-1.264-3.667-1.76-5.293-1.33-1.626.435-2.62 1.39-3.432 2.107-.81.715-1.447 1.233-1.983 1.434-.54.2-1.048.31-2.29-.213-2.39-1.004-3.587-1.737-4.073-2.104-.244-.18-.29-.277-.26-.242-.03-.072-.025-.083-.18-.29-.26-.337-1.31-1.015-2.17-.9-.86.116-1.065.416-1.19.518-.125.104-.152.138-.17.153-.06.06.034-.03-.06.03-.186.124-.913.55-2.73 1.145-.837.274-1.397.504-1.71.565-1.555.304-4.016-.245-6.023-1.04-1.004-.396-1.894-.83-2.563-1.16-.334-.162-.6-.307-.854-.426-.128-.06-.237-.096-.443-.17-.104-.034-.208-.095-.504-.136-.147-.02-.342-.043-.7.014-.335.053-.922.22-1.39.746.03-.047-.13.115-.38.26-.334.195-.83.443-1.42.688-1.18.49-2.72.982-4.15 1.266-1.426.284-2.79.317-3.37.182-.152-.035-.104-.013-.137-.03-.08-.806-.577-1.48-1.25-1.83.157-1.61.317-3.417.487-5.37.396-4.556.778-8.98.778-10.647 0-1.648-.113-3.297-.21-4.883 11.296.067 28.582 1.342 42.36 1.342 6.247 0 11.513-.735 17.037-2.09.256-.063.497-.128.732-.213zm-78.268.44c-.01.014-.034.048-.123.045.016-.004.11-.044.12-.045zm-228.902 3.768c-10.985 0-21.813.958-32.552.945-1.28 0-2.333 1.023-2.333 2.303s1.054 2.334 2.334 2.334c11.015.013 21.84-.947 32.553-.947 2.037 0 3.672.04 5.185.412 1.244.31 2.5-.465 2.808-1.708.31-1.244-.45-2.483-1.694-2.792-2.184-.536-4.24-.548-6.3-.548zm110.82.03v.046c0 3.26.54 6.926.062 8.8-.152.595-.132.835-.153 1.282-.023.448-.03.993-.033 1.587-.007 1.187.02 2.635.06 4.087.043 1.453.1 2.892.17 4.073 0 .055-.005.085 0 .137-1.675.174-2.914.55-4.045.55-5.666 0-11.79-.96-18.106-.96h-26.01c-5.373 0-12.287.266-16.78.304-.036-1.234-.088-2.966-.137-4.88-.1-3.994-.198-8.616-.198-9.49v-4.18c3.197-1.09 10.69-.983 18.458-.274 7.985.73 16.39 1.876 22.33 1.876 7.554 0 13.97-2.028 19.924-2.028 1.67 0 3.162-.503 4.453-.93zm397.688 0v.046c0 3.26.555 6.926.077 8.8-.15.595-.13.835-.152 1.282-.022.448-.043.993-.045 1.587-.007 1.187.018 2.635.06 4.087.042 1.453.113 2.892.183 4.073.003.055-.003.085 0 .137-1.68.173-2.925.55-4.057.55-5.668 0-11.806-.96-18.123-.96h-26.007c-5.38 0-12.275.266-16.764.304-.04-1.234-.09-2.966-.14-4.88-.1-3.994-.2-8.616-.2-9.49v-2.608c.18-.145.37-.273.55-.427.683-.58 1.468-1.157 2.304-1.726 3.82-.437 9.623-.24 15.59.304 7.985.73 16.408 1.875 22.347 1.875 7.553 0 13.954-2.028 19.907-2.028 1.672 0 3.18-.503 4.47-.93zm-473.027 5.156c-.21-.005-.42.01-.625.06-2.515.617-5.137.885-8.07.885-10.992 0-21.45 1.402-32.063 1.402-11.387 0-22.87-.442-34.46-.442-7.564 0-17.988-.906-24.588-.487-1.292.083-2.266 1.17-2.182 2.44.085 1.268 1.196 2.234 2.486 2.15 5.827-.37 16.367.474 24.286.474 8.78 0 17.564.272 26.374.397-.022 4.573-.458 12.733-.458 18.947v12.48c-.188.192-.45.44-.826.762-.886.762-2.156 1.726-3.462 2.7-1.305.973-3.363 4.465-4.44 5.246-.34.248-.604.45-.884.656-.96-.122-1.89.338-2.35 1.175-.46.836-.357 1.87.275 2.592.027.036.025.062.077.137.106.156.205.404.838.792.318.195.865.426 1.51.367.617-.058 1.145-.36 1.45-.64-.012.006.004-.007.045-.048.08-.064.277-.207.488-.366.338-.253.796-.59 1.328-.976 1.068-.774 3.156-4.275 4.5-5.278 1.026-.764 2.03-1.533 2.915-2.258.68.66 1.453 1.14 2.243 1.633 2.24 1.402 5.197 4.263 5.75 4.942.437.536.896 1.164 1.403 1.83.498.67 1.345 1.025 2.183.93.837-.095 1.548-.64 1.876-1.404.326-.762.194-1.632-.32-2.288-.45-.588-.92-1.25-1.48-1.937-1.845-2.263-5.005-4.757-6.91-5.95-.724-.45-1.027-.743-1.28-.975.356-.723.29-1.566-.155-2.242-.036-.054-.08-.115-.122-.166v-11.714c0-5.977.465-14.04.488-18.9 1.138.008 2.265.016 3.403.016 11.027 0 21.486-1.404 32.063-1.404 3.21 0 6.238-.263 9.2-.99 1.157-.26 1.945-1.36 1.814-2.516-.132-1.16-1.13-2.024-2.32-2.03zm198.837 0c-.212-.005-.42.01-.625.06-2.515.617-5.123.885-8.054.885-10.993 0-21.465 1.402-32.08 1.402-11.385 0-22.87-.442-34.46-.442-7.563 0-17.987-.906-24.59-.487-1.29.083-2.25 1.17-2.163 2.44.085 1.268 1.195 2.234 2.486 2.15 5.824-.37 16.35.474 24.27.474 8.778 0 17.578.272 26.39.397-.023 4.573-.49 12.733-.49 18.947v12.48c-.186.192-.433.44-.808.762-.888.762-2.158 1.726-3.463 2.7-1.307.973-2.663 3.2-3.74 3.98-.34.247-.59.45-.87.656-.96-.122-1.887.353-2.347 1.19-.46.837-.357 1.872.274 2.593.026.036.04.06.09.137.106.157.19.405.824.794.317.195.88.426 1.526.367.615-.057 1.144-.36 1.448-.64-.01.007.005-.006.046-.046.08-.064.26-.222.473-.38.337-.253.793-.59 1.326-.977 1.067-.775 2.424-3.01 3.77-4.013 1.025-.764 2.043-1.533 2.93-2.258.68.66 1.452 1.14 2.242 1.632 2.24 1.402 5.74 3.348 4.866 3.34-.1 0 .895 1.15 1.403 1.815.496.67 1.328 1.025 2.166.93.836-.095 1.547-.625 1.875-1.388.328-.763.226-1.648-.29-2.303-.45-.59-.935-1.25-1.494-1.94-1.842-2.263-4.102-3.14-6.01-4.332-.72-.452-1.025-.744-1.28-.976.36-.723.293-1.566-.154-2.242-.036-.054-.08-.115-.122-.166V315.02c0-5.976.436-14.04.458-18.9 1.138.01 2.28.016 3.418.016 11.026 0 21.502-1.403 32.08-1.403 3.21.003 6.236-.262 9.197-.99 1.158-.26 1.915-1.357 1.785-2.516-.13-1.16-1.116-2.024-2.303-2.03" fill="#fff"/></g></svg>