<svg viewBox="0 0 691 394" xmlns="http://www.w3.org/2000/svg"><g fill-rule="evenodd"><path d="M488.537 104.76c-4.85 8.875-5.014 21.434-6.008 32.684-.65 8.646.1 19.412 5.3 24.31 23.13 12.553 50.72 10.795 74.38 2.82 6.24-2.317 12.31-8.018 14.96-17.86 4.71-16.345 2.08-39.11-7.75-49.612-22.454-20.242-61.264-21.682-80.9 7.66" fill="#00aaef"/><path d="M352.233 170.306c-32.27 1.034-69.414-.516-97.862-.446-14.34-1.924-37.57.005-42.38-4.465-16.43-13.18-11.06-32.806-8.52-47.746-2.04-4.17 7.6-12.31 20.66-13.68 33.64-5.68 71.37-3.81 105.87-2.51 30.89 1.14 42.48-1.45 65.83 4.86 33.35 8.71 23.97 43.37 10.01 54.7-6.04 4.39-19.47 8.55-35.19 8.53-6.13.26-12.27.52-18.4.74" fill="#6adf5f"/><path d="M370.572.005c-9.846.27-19.69.604-29.53.97-5.89.426-11.6 3.61-15 8.842-4.755 7.194-6.06 16.174-6.5 24.782-.333 8.24.226 16.55 1.405 24.68 1.266 5.59 4.317 10.66 8.22 14.59 3.99 3.77 9.53 4 14.56 4.59 8.214 1.35 16.57 1.49 24.876 1.434.748.527.417 1.87.75 2.72.302 1.977.677 3.947 1.156 5.875-9.58.383-19.16.9-28.75.56-16.07-.425-32.18-.905-48.22.345-29.52 1.15-59.54-3.903-88.66 2.5-.04.927-.1 1.86-.22 2.78-.02.14-.05.27-.07.41 30.32-7.01 62.993-.724 94.78-2.94 22.583-1.57 44.33 1.11 66.97-.47 1.56-.105 3.26-.185 5-.216.58 1.78 1.293 3.502 2.19 5.156 2.81 6 6.143 11.814 10.47 16.72 1.47 1.94 2.47 4.4 4.53 5.715 1.36.905 3.33-.207 3.25-1.97-.22-2.7-1.948-4.94-3.098-7.282-1.29-2.298-2.826-4.437-3.563-7.03-1.328-3.597-2.518-7.307-3.345-11.097 5.14.25 10.24.667 14.435 1.22 6.61.87 13.937 1.85 20.72 3.53 6.555 1.63 10.02 4.863 12.156 9.03 2.14 4.17 2.83 9.34 3.44 14.53 1.32 11.225 4.23 21.27-4.47 29.815-4.633 4.55-13.605 6.9-23.188 7.814-9.584.915-19.71.45-26.627-.19-13.61-1.253-27.252.65-40.44-.22-7.38-.48-15.45-.63-22.75-.123-7.56.53-16.352.95-23.56 0-4.81-.63-10.573.576-14.283 2.783-.302.18-.504.467-.563.78-.13.72-.422 2.5-.217 4.25.83 7.06 3.174 14.556 6.625 21.128 2.54 4.833 6.19 9.196 9.22 12.97.457.57.737 1.02 1.157 1.56-5.96-5.862-13.176-13.013-15.656-15.78-4.66-5.2-6.784-11.444-9.374-17.437-.95-2.203-1.787-6.152-2.09-8.75-.04-.316-.246-.62-.53-.812-.29-.195-.646-.27-1-.22-13.366 1.92-27.677.38-41.566 1h-.03c-10.436.903-21.874-.908-31.03-6.28-4.38-3.55-6.478-6.026-7.47-8.877-.998-2.863-.895-6.312-.56-11.652v-.03c.032-6.253-.01-11.987.624-16.97-1.225.298-2.41.5-3.535.626-.8 7-.18 14.23-.72 21.22-.423 5.414 1.47 10.973 5.69 14.684 5.15 5.547 12.884 7.893 20.187 9.5 9.67 2.086 19.563.28 29.343.72 9.175.114 18.403.414 27.53-.66.985 6.755 4.186 12.97 7.16 19.09 4.39 7.99 11.915 13.71 18.125 20.346 3.3 3.084 6.295 6.59 9.81 9.407 2.02.87 3.755-1.573 2.657-3.28-2.46-6.422-8.13-11.06-11.814-16.78-5.38-7.793-8.56-16.89-9.406-26.155-.385-2.2 2.54-2.2 4.095-2.812 5.84-1.557 11.82.45 17.78.063 10.985-.12 21.945-1.464 32.94-.625 15.85 1.316 31.765-1.18 47.59.717 13.4.69 27.386.864 40.093-3.81 8.99-3.16 15.23-11.91 15.19-21.067.04-7.6-1.5-15.046-2.44-22.56-1.027-7.25-4.68-14.765-11.936-18-7.254-3.15-15.393-3.818-23.187-5.065-6.2-.89-12.45-1.444-18.715-1.716-.46-2.9-.65-5.856-.5-8.815 3.41-3.15 8.22-3.73 12.596-3.622 7.39.28 14.897 1.59 22.22-.06 6.047-1.19 12.307-4.41 15.22-10.5 2.5-5.178 4.023-11.11 3.34-16.94.336-11.02-.21-22.36-4.095-32.69-2.435-6.37-6.927-12.33-13.345-14.22-3.54-.957-7.266-.91-10.908-1.31-7.34-.67-14.71 0-22.08-.27-4.35-.068-8.71-.188-13.06-.157zM181.228 115.38c.125-1.083.266-2.18.47-3.25-.956.107-1.915.17-2.876.094-1.806-2.347-4.83-2.666-7.563-2.594-8.78 1.53-17.52 3.31-26.35 4.594-14.29 1.908-28.48-7.038-35.13-19.407-4.62-8.14-4.5-19.086 1.78-26.343 6.832-8.14 17.31-12.362 27.53-14.22 16.54-2.773 34.87.262 48.31 10.563 7.072 5.625 13.426 13.524 13.937 22.907.193 1.597.21 3.224.093 4.874.688-.146 1.38-.266 2.065-.374.456-.106.917-.212 1.373-.313.18-4.36-.53-8.67-1.716-12.43-.007-.01.004-.02 0-.03-.037-.1-.05-.18-.096-.28-6.786-15.07-21.558-24.3-38.063-27.59l-.78-.153c-.273-.05-.546-.11-.812-.155-6.43-1.127-13.115-1.362-19.72-.72-.99.1-1.982.21-2.97.345-2.952.406-5.873 1.01-8.75 1.78-.02.01-.07-.007-.09 0-.04.012.002.02-.03.03-13.357 4.132-21.72 10.596-25.78 18.093-4.06 7.496-3.68 15.72-.567 23 6.224 14.54 23.117 26.195 40.188 23.47 15.206-2.43 21.054-3.67 23.687-4.22 2.666-.555 1.158-.397 4.22-.157.635.05.965.127 1.06.156.1.03.03 0 .16.09.046.04.814.84 2.093 1.78.515.387 1.12.607 1.78.63h.127c.064 0 .113.003.184 0v-.03c.7.006 1.46-.04 2.22-.128zm20.22-22.78c-7.236 1.56-14.34 5.38-17.44 12.092-1.11 2.422-1.83 4.904-2.31 7.438 1.21-.134 2.405-.374 3.593-.72.29-1.345.67-2.614 1.13-3.81 2.15-5.63 6.14-9.6 14.6-11.69.23-1.086.36-2.205.44-3.31zm-.44 3.31c-1.116 5.464-4.084 10.496-9.25 13-2.06.93-4.24 1.856-6.468 2.5-.227 1.062-.384 2.2-.53 3.345 1.03-.25 2.057-.56 3.124-.906 3.314-1.08 6.668-2.54 9.125-4.6 4.57-3.84 6.83-8.99 7.59-14.16l-.66.15c-.03.01-.04.024-.07.03-1.02.18-1.965.4-2.877.624zM372.104 3.88c8.418.072 16.834.37 25.25.094 5.772.033 11.553.55 17.28 1.218 5.003.875 8.823 5.108 10.94 9.813 3.94 8.584 4.81 18.365 4.968 27.812.072 2.803-.22 5.594.032 8.375-.22 4.75-1.55 9.434-3.625 13.625-3.07 4.898-8.69 7.023-13.94 7.782-7.41 1.24-14.83-.62-22.25-.38-4.51.22-9.24 1.48-12.63 4.81-1.64 1.99-1.06 4.85-1.1 7.28.29 5.46 1.61 10.76 3.31 15.9-.867.964-1.106-.85-1.564-1.41-2.01-3.917-4.15-7.85-5-12.28-.67-3.56-1.36-7.17-1.373-10.813.51-1.536-1.12-3.206-2.53-2.435-.973.4-1.057 1.61-1.157 2.53-1.01.467-2.39.116-3.53.22-7.556-.104-15.135-.326-22.594-1.625-4.054-.59-8.816-.802-11.813-4.25-2.844-3.454-5.165-7.54-6.31-12-1.32-9.775-1.905-19.782-.78-29.623.882-6.91 2.705-14.235 7.592-19.187 3.422-3.533 8.32-4.793 12.97-4.624 9.273-.27 18.565-.71 27.842-.845zm164.28 56.125c-2.132.005-4.26.126-6.342.343-8.486.81-17.354 2.547-24.5 7.407-7.974 4.875-9.662 16.364-4.406 23.78 6.608 8.457 18.46 10.075 28.532 9.657 4.188.217 8.29-1.91 12.406-1.25 1.65 1.412 1.64 3.59 1.437 5.75-.6-.017-1.21-.036-1.84-.03h-.09c-5.57-.19-11.12-.375-16.69-.564-6.4-.216-18.15.298-24.15.094-5.81-.196-10.784.108-17.872.782h-.03c-.03.003-.066.03-.095.03-7.55.337-13.32 2.123-16.877 6.876-3.553 4.755-4.685 11.837-4.5 22.25-.964 5.414 1.217 12.12 3.5 16 .02.036.04.06.064.094 2.824 4.26 7.366 6.513 12 7.656 4.63 1.145 9.455 1.21 13.34.937 3.27-.256 6.94.148 10.81-.594 3.467-.522 6.637-.472 9.28 1.22.406.317.73.568.75.593 0 .015-.03-.006-.03.063v.06c.234 7.47-2.61 15.22-5.75 22.28-.193.29-2.05 3.01-3.53 5.53-.77 1.31-1.43 2.46-1.78 3.62-.09.29-.156.58-.16 1.03 0 .45.103 1.31.875 1.9.772.595 1.64.496 2.093.374.45-.12.75-.306 1.06-.5.13-.076.236-.144.343-.25 2.024-1.955 3.01-4.08 4.376-5.405l.064-.06c4.544-4.8 7.772-10.64 10.655-16.22l.03-.03c1.074-2.12 2-5.21 2.47-7.564.263-1.326.66-2.91.934-4.53 5.856.125 16.894-.21 22.22-1.095 4.86-.806 11.12-.33 15.812-4.873 3.3-3.19 6.998-8.78 7.72-13.844 1.526-9.61 1.088-18.49-3.063-25.22-3.5-5.68-9.68-9.45-18.627-10.406.07-.926.157-1.826.377-2.686 6.828-3.015 14.6-6.1 18.75-12.843 4.61-6.913 1.698-16.234-4.154-21.437-6.75-6.713-16.164-8.953-25.41-8.933zm-.53 3.406c.78-.01 1.568 0 2.344 0 5.18.07 10.295.84 14.875 3.47 6.625 3.52 13.672 10.56 11.5 18.72-2.723 7.68-10.884 11.58-18.094 14-1.52-1.68-3.44-3.55-6-3.19-10.03 1.93-20.91 2.73-30.38-1.75-7.58-2.92-11.38-13.06-6.88-19.96 5.86-7.9 16.5-9.74 25.68-10.87 2.283-.17 4.604-.35 6.938-.403zM381.79 85.82c.003.012.077.085.22.157-.15-.117-.22-.168-.22-.157zM75.323 100.974c-1.234-.008-2.467.003-3.687.03-12.793.18-26.582 3.543-34.906 14.063-5.955 6.707-8.048 17.668-1.876 24.907 5.63 7.106 14.894 9.586 23.062 12.093 1.835 4.738.818 11.115 5.03 14.97.624 2.256 4.357 2.57 4.314-.157-1.203-2.835-4.415-4.8-4.03-8.375-.196-3.43-2.625-7.934.06-10.844 4.59-1.3 9.55.53 14.282-.28 11.51-.88 24.786-4.33 31.156-14.84 4.975-9.14 1.51-21.94-8.22-26.4-7.68-3.99-16.55-5.09-25.186-5.15zm-1.906 3.812c10.59.05 22.923.708 30.656 8.906 6.056 7.243 3.1 19.282-5.125 23.625-10.163 6.36-22.648 6.925-34.312 6.094-2.964-.06-4.847 2.33-6.344 4.44-8.524-1.77-18.367-5.11-22.5-13.47-3.57-8.98 3.505-17.95 10.564-22.84 7.763-5.78 17.75-6.35 27.062-6.75zm445.906 4.375c2.045-.01 3.907-.01 5.406.04 5.6.19 11.21.41 16.81.6.03.005.06 0 .09 0 .58-.004 1.13-.01 1.69 0 .04.35.06.706.03 1.03-.03.33-.1.63-.19.94-.09.31-.21.61-.35.907-.28.63-.617 1.24-.97 1.845-.13.22-.28.43-.404.654-.016.03-.016.067-.03.095-.32.57-.605 1.165-.784 1.78.03.3.107.545.22.75.054.1.114.17.186.25.15.17.302.29.5.374.094.04.21.075.31.095.103.02.206.03.313.03.427.01.863-.12 1.25-.377.1-.064.19-.133.28-.22.088-.074.177-.16.25-.25.155-.185.265-.38.345-.623.045-.115.08-.216.097-.343.203-.235.397-.473.563-.72 0-.01-.01-.023 0-.03.09-.14.162-.294.25-.44.063-.114.153-.224.22-.343.122-.244.24-.497.34-.75l.03-.063c.1-.24.175-.495.25-.75.01-.03.022-.06.03-.09.02-.06.016-.125.03-.19.06-.217.113-.437.158-.66.052-.26.116-.514.155-.78.005-.03-.004-.063 0-.094.078-.54.15-1.1.187-1.654.002-.05 0-.1 0-.153 7.83.83 12.543 3.933 15.342 8.47 3.35 5.43 3.97 13.36 2.53 22.437v.065c-.47 3.28-3.988 8.972-6.53 11.434-3.21 3.11-8.12 2.9-13.63 3.815-4.48.745-15.73 1.1-21.31 1-.013-.25.006-.506-.03-.75-.154-1.125-1.185-1.91-2.31-1.75-1.124.156-1.906 1.19-1.75 2.31.193 1.363-.56 5.217-1.124 8.03-.39 1.95-1.396 5.1-2.123 6.53-1.265 2.44-2.58 4.854-4 7.188 2.095-5.584 3.72-11.57 3.53-17.75 0-1.007-.42-2.004-.97-2.655-.55-.65-1.04-.94-1.438-1.25-.05-.037-.104-.09-.157-.124-3.91-2.526-8.388-2.395-12.25-1.81-.03 0-.066-.008-.096 0-3.08.59-6.57.23-10.346.53-3.59.25-8.02.18-12.03-.81-3.99-.99-7.45-2.81-9.53-5.91-1.72-2.946-3.65-9.96-2.97-13.376.025-.147.033-.285.03-.437-.197-10.15 1.1-16.34 3.72-19.846 2.615-3.5 6.76-4.95 13.84-5.25.04 0 .09-.023.124-.03 7.097-.674 11.816-.94 17.44-.75 4.81.166 12.616-.1 18.75-.154zm-359.406 8.63c-.29-.01-.588.04-.875.1-.234.05-.397.08-.468.1-4.76 1.145-7.563 5.02-6.938 8.78.594 3.57 3.923 6.484 8.5 7.095-.17.027-.39.09-.468.094-.224.01-.405.045-.625.094-.014.006-.016 0-.03 0-.177.047-.366.09-.532.158-2 .82-3.66 1.946-4.62 3.564-1.05 1.774-.89 3.87.28 5.47 2.06 2.813 6.03 3.695 10.32 3.34 1.83-.15 3.55-.717 4.78-1.937 1.268-1.247 1.65-2.827 1.538-4.22-.22-2.586-1.913-4.83-4.25-6.094-.38-.205-.747-.35-1.126-.47 1.717-.236 3.39-.747 4.875-1.687 1.43-.9 2.66-2.325 3.063-4.124.397-1.76-.04-3.584-.97-5.342-.622-1.187-1.67-1.86-2.31-2.25-.764-.464-1.596-.84-2.44-1.19-.833-.342-1.696-.62-2.5-.843-.552-.154-1.154-.34-1.84-.405-.23-.02-.44 0-.69 0-.66.004-1.566-.095-2.375-.19-.094-.01-.183-.028-.28-.03zm-.22 3.16c2.642 0 5.186.32 7.532 1.6 3.3.91 3.9 6.28.43 7.44-3.88 1.45-9.6 1.74-12.1-2.22-1.875-2.98 1.01-6.487 4.123-6.81zm3.72 15.69c1.542.09 2.86 1.28 3.53 2.63 1.386 2.156-.77 4.528-3.062 4.25-2.517.138-6.55-.06-7.25-3.06.144-2.89 3.77-3.66 6.094-3.78.22-.037.46-.045.68-.033zm3.906 11.88c-.185.02-.356.07-.5.096-.745.13-1.353.26-1.25.25-.228.02-.415.057-.625.124-.02.007-.043.025-.063.03-.166.06-.323.14-.468.22-1.277.71-2.335 1.67-2.938 2.937-.67 1.407-.66 2.89.06 4.22 1.24 2.288 4.15 3.16 6.9 2.78 1.29-.172 2.6-.805 3.4-1.84.83-1.06 1.04-2.2 1-3.25-.077-1.94-.96-3.734-2.56-4.843-.62-.43-1.32-.62-1.94-.69-.154-.017-.292-.025-.437-.03-.22-.006-.41-.02-.596 0zm-.156 3.096c.133-.01.273-.015.406 0 1.03-.034 1.55 1.09 1.78 1.936.827 2.43-2.315 3.324-4 2.28-2.02-1.34-.178-4.08 1.814-4.22zm457.437 28c-.874.01-1.824.14-2.937.405-1.578.377-2.455 1.42-3.25 2.406-.655.817-1.188 1.643-1.688 2.44-1.13-2.28-2.81-4.032-4.94-4.813-1.49-.54-3.35-.47-4.78.53-1.17.815-1.97 2.08-2.5 3.66-.34-.793-.7-1.606-1.19-2.375-.51-.794-1.14-1.677-2.44-2.063-.49-.143-1-.14-1.5-.03-.17.037-.34.067-.5.125-.65.232-1.25.63-1.69 1.094-.51.538-.97 1.21-1.41 2-.07-.11-.076-.2-.16-.313-.345-.46-.937-.93-1.624-1.12-.687-.19-1.368-.09-1.94.097-1.14.377-2.033 1.09-3.155 2.188-1.63 1.6-1.72 3.505-2.06 4.75-.13.474-.227.718-.313.906-.11-.06-.74-.2-1.654-.592-1.075-.46-2.318-1.05-3.56-1.44-.62-.192-1.24-.364-1.97-.375-.73-.01-1.766.21-2.5 1.03-.734.827-.846 1.857-.75 2.72.096.868.375 1.717.813 2.75.583 1.385.97 2.406 1.31 3.315-1.44-.38-3.274-.453-4.935.72-1.987 1.406-3.16 3.15-3.342 4.968-.18 1.818.614 3.33 1.53 4.406.92 1.078 1.972 1.815 2.94 2.28.084.04.2.057.28.095-.6 2.906-1.225 5.696-1.844 8.688-.58 2.827-1.386 6.1-1.407 9.408-.003.76-.04 1.58-.093 2.436-1.07-.14-2.16-.284-3.28-.437-1.64-.22-3.233-.43-4.44-.597-1.203-.167-2.204-.303-2.06-.28-.34-.062-.7-.047-1.03.06-.91.31-1.49 1.2-1.406 2.158.086.96.8 1.74 1.75 1.878.34.056.98.145 2.187.313 1.21.17 2.79.37 4.44.596 1.275.174 2.49.346 3.658.5-.004 1.17.06 2.33.25 3.5.48 3 .425 6.105.404 9.438-.02 3.29-.29 6.565-.31 10.062-.02 3.34.2 6.454.19 9.624-8.21 5.25-17.68 13.502-27.065 16.155-.698.2-1.395.396-2.093.592-.86-.086-1.73-.195-2.59-.345.143-.19.286-.454.374-.874.126-.606-.15-1.503-.564-1.907-.41-.4-.712-.57-.97-.628-.253-.057-.453.01-.623 0-.34-.017-.63-.004-.97.03-1.363.147-3.475.604-6.875 1.533-.728.2-1.353.5-1.938.844-.415.247-.796.5-1.156.78-1.33.186-2.41.36-3.22.627-.445.148-.83.29-1.31.657-.075.06-.14.23-.22.317-.524-.258-1.01-.468-1.53-.593-.234-.053-.51-.116-.91-.092-.37.023-.98.163-1.5.655-1.31-.44-2.77-.888-4.684-1.25-8.378-1.597-16.895-8.63-23.876-14.5-.005-.657-.022-1.31-.03-1.97-.04-3.22.197-6.39.157-9.78-.04-3.5-.335-6.777-.374-10.06-.04-3.337-.09-6.438.38-9.44.18-1.17.23-2.33.22-3.5 1.17-.16 2.38-.35 3.658-.53 1.65-.23 3.26-.45 4.47-.627s1.815-.255 2.154-.313c.994-.16 1.73-.99 1.75-2 .02-1.005-.7-1.897-1.69-2.093-.25-.047-.5-.044-.75 0 .147-.023-.89.14-2.092.313-1.203.175-2.795.395-4.437.625-1.126.16-2.173.29-3.25.435-.057-.854-.117-1.68-.126-2.44-.04-3.305-.84-6.584-1.438-9.405-.64-3.01-1.286-5.79-1.907-8.717-.74-3.484-2.66-6.514-4.594-9.03-2.3-2.994-5.1-4.24-6.97-6.063-.55-.54-1.17-1.015-1.843-1.437 2.933-.186 6.21-.09 9.28.626.825.193 1.834.66 3.064 1.094.708.27 1.487.11 2.065-.376.58-.485.864-1.225.72-1.97-.146-.74-.688-1.36-1.407-1.592-.94-.33-2.08-.884-3.5-1.22-5.077-1.18-10.234-.883-14.125-.34-1.945.273-3.56.606-4.687.876-.087.02-.136.044-.22.06-1.674-.284-3.492-.65-4.342-1.06-.37-.18-.734-.34-1.092-.44-1.074-.29-2.12-.235-3.19-.28-1.423-.055-2.87-.09-3.28-.155-2.18-.336-4.913-.528-7.283.094-1.8.47-3.81.76-5.66.78-2.486.03-4.94.577-6.437.594-1.404.017-2.418.59-3.25 1.03-.833.44-1.53.786-1.875.876-2.5.655-4.387 2.223-5.53 2.81-1.97 1.015-3.18 2.403-4.408 3.344-1.11.855-1.535 1.84-2 2.69-.467.85-.95 1.606-1 1.655-.953.973-1.333 2.03-1.657 2.81-.326.78-.58 1.293-.878 1.593-1.92 1.965-3.244 4.79-3.814 7.19-.623 2.62-1.54 4.58-1.5 8 .033 2.84-.193 5.846-.157 9 .035 3.01-.193 6.11-.157 9.28.038 3.18.068 6.3.657 9.594.406 2.27-.224 5.28-.187 8.436.028 2.41-.128 5.04.218 7.75-8.67 8.99-14.792 23.118-22.03 33-.9 1.233-1.24 2.463-1.5 3.346s-.48 1.294-.53 1.342c-.16.167-.28.36-.372.56-.153-.017-.28 0-.405 0-1.416.02-2.72.453-4.09.97-1.37.517-2.765 1.14-3.94 1.656-.515.23-.62.28-1.03.44-.935-.586-2.176-.34-2.813.56-.185.254-.35.487-.5.844-.152.36-.415.95-.063 1.847.354.893 1.35 1.343 1.844 1.404.492.063.794-.004 1.06-.062 1.06-.223 1.972-.695 3.155-1.22-.216.21-.54.51-.72.69-.45.46-.718.738-1.03 1.25-.08.13-.16.29-.25.563-.09.27-.23.743.06 1.465.29.725 1.154 1.2 1.625 1.28.474.083.69.013.876-.03.735-.167.91-.346 1.28-.56.37-.217.75-.457 1.19-.75 1-.676 2.04-1.44 3-2.19-.07.636-.103 1.26-.096 1.875.01 1.067.066 1.685.06 1.876-.003.19.03.113-.22.624-.34.67-.29 1.47.127 2.096.42.624 1.16.963 1.91.904.75-.056 1.404-.504 1.72-1.186.38-.787.61-1.64.625-2.346.016-.703-.05-1.122-.06-2-.006-.612.347-2.723.344-4.467 0-.437-.016-.85-.157-1.377-.1-.377-.286-.936-.75-1.375.224-.102.41-.22.593-.406 1.03-1.05 1.274-2.215 1.53-3.09.256-.88.48-1.56.875-2.1 6.785-9.264 12.49-21.3 19.095-29.56-.05 1.627-.18 3.35-.158 5.158.036 3.002.09 5.995.126 9 .03 2.7.312 4.72.34 7.22.03 2.34.544 4.23.564 5.902.006.726.11 2.388.28 4.97.17 2.585.4 5.88.624 9.19.225 3.31.456 6.596.625 9.185.17 2.59.28 4.677.28 4.814.012 1.15.98 2.076 2.124 2.064.17 0 .31-.052.47-.094.026 0 .066.03.093.03.6-.007 1.21-.024 1.81-.03 3.25-.04 6.19-.34 9.25-.377 1.404-.016 2.91-.11 4.404-.22 0 .01-.03.023-.03.032.023.94.096 2.155.217 3.623.25 2.936.68 6.802 1.097 10.812.415 4.01.827 8.184 1.125 11.626.3 3.44.446 6.31.378 7.153-.59 7.29 1.16 12.582.875 18.53-.21.154-.4.315-.714.53-.95.64-2.268 1.49-3.625 2.343-1.026.647-2.026 1.257-2.97 1.844l.032.03-2.128 1.53c-3.328 1.09-2.426 5.186 1.122 4 .13-.095 1.11-.723 2.25-1.437 1.134-.715 2.53-1.576 3.902-2.44 1.37-.862 2.722-1.714 3.75-2.405.51-.345.924-.63 1.28-.906.175-.137.322-.268.5-.438.09-.085.213-.173.342-.344.13-.17.37-.39.436-1.187.59-7.284-1.412-12.605-.873-19.28.14-1.706-.07-4.41-.374-7.91-.3-3.496-.74-7.645-1.156-11.656-.415-4.01-.825-7.89-1.064-10.75-.12-1.43-.2-2.595-.22-3.377-.003-.104 0-.14 0-.22 2.77-.167 5.406-.23 7.437.25 5.93 1.41 11.594.075 16.47.626 4.073.464 8.048.11 11.905-.25.17 13.6.39 29.158-1.907 41.658-.353 1.936-.584 3.964-.56 6.03-.07 1.11.377 1.98.875 2.69.56.794 1.27 1.476 2.09 2.187 1.65 1.426 3.77 2.89 5.908 4.22 2.138 1.33 4.288 2.53 5.937 3.44.826.45 1.53.827 2.03 1.095.255.135.456.27.596.344.07.034.18.064.22.09 3.824.707 3.07-3.35 1-4.22-.49-.26-1.074-.59-1.815-1-1.61-.88-3.71-2.04-5.75-3.31s-4.036-2.655-5.376-3.813c-.67-.58-1.17-1.1-1.408-1.44-.11-.16-.12-.246-.125-.25v-.095c-.02-1.697.175-3.455.5-5.22 2.43-13.24 2.173-29.102 2-42.75.806-.048 1.584-.115 2.374-.125 2.716-.03 6.353.088 9.22.126.357.65 1.05 1.105 1.843 1.096.98-.01 1.79-.71 2-1.623.38-.347.647-.826.688-1.377.047-.597-.183-1.153-.56-1.563.07-2.23.172-5.523.313-9.404.202-5.56.424-11.043.404-12.686-.03-2.72.696-5.613.656-9.03l-.095-8c-.032-3 .198-6.22.16-9.5-.006-.55-.024-1.11-.03-1.656 6.405 5.38 14.24 11.264 22.874 12.907 2.767.524 4.57 1.293 6.75 1.97.634.67 1.39 1.412 2.25 2.214 1.173 1.092 2.5 2.263 3.813 3.374-.07.045-.124.116-.28.25-.102.09-.277.187-.5.564-.112.19-.25.47-.282.91-.03.44.146 1.04.44 1.406.59.74 1.1.725 1.347.75.247.03.37.01.47 0 1.006-.084 2.1-.16 3.28-.31.04.03.09.1.127.128.754.55 1.31.91 1.97 1.22 1.034.48 2.25.033 2.78-1.002.23-.448.317-.93.22-1.377.53-.188 1.014-.45 1.53-1 .12-.13.18-.348.28-.53.774.16 1.524.293 2.378.22.32-.03.706-.1 1.158-.317.453-.216 1.02-.703 1.28-1.343.26-.637.274-1.13.157-1.562.07.016.15-.003.22 0 .05.017.07.025.124.03.1.024.216.05.313.066l.94-4.062c-.098-.014-.183-.01-.28-.03-.014 0-.02.005-.03 0-.488-.293-1.18-.804-1.91-1.34h2.126c.68-.193 1.355-.37 2.03-.564 8.693-2.456 17.786-9.75 26.065-15.28-.01 1.495.01 3.008 0 4.5-.02 3.28.21 6.5.19 9.5-.017 2.66-.015 5.34-.03 8-.023 3.418.703 6.28.685 9-.01 1.645.238 7.16.47 12.72.164 3.914.295 7.217.375 9.437-.38.44-.59 1.04-.5 1.654.07.475.3.88.625 1.19.2.937 1.035 1.653 2.03 1.657.793.005 1.46-.443 1.813-1.094 2.87-.057 6.508-.17 9.22-.16.79.006 1.6.05 2.408.094-.1 13.648-.31 29.524 2.19 42.75.335 1.764.575 3.52.564 5.22v.06c0-.005-.033.08-.15.25-.236.34-.708.887-1.374 1.47-1.333 1.165-3.34 2.532-5.374 3.812-2.033 1.28-4.115 2.485-5.72 3.376-4.13 1.94-3.374 5.132 0 4.78.503-.27 1.21-.668 2.03-1.125 1.647-.912 3.808-2.126 5.94-3.47 2.13-1.34 4.236-2.784 5.875-4.216.82-.715 1.538-1.42 2.094-2.22.493-.71.92-1.576.84-2.686h.03c.012-2.07-.23-4.097-.595-6.03-2.36-12.493-2.25-28.06-2.157-41.66 3.87.34 7.865.704 11.94.22 4.87-.577 10.546.723 16.47-.72 2.026-.49 4.636-.466 7.404-.31 0 .08.002.113 0 .22-.016.78-.108 1.974-.22 3.404-.22 2.862-.574 6.706-.968 10.72-.396 4.012-.81 8.187-1.097 11.687-.28 3.5-.49 6.17-.34 7.88.574 6.674-1.377 12.03-.75 19.31.07.795.31 1.02.436 1.19.13.17.22.26.31.34.176.17.32.27.5.405.355.27.8.564 1.31.906 1.03.685 2.37 1.55 3.75 2.406 1.374.858 2.794 1.7 3.935 2.408 1.143.71 2.09 1.347 2.22 1.44 4.205 1.04 3.37-2.07 1.218-3.905-.59-.5-1.19-1-1.78-1.5-.03 0-.06.002-.093 0-1.03-.63-2.144-1.29-3.28-2-1.364-.847-2.68-1.68-3.63-2.313-.32-.21-.53-.373-.75-.53-.313-5.944 1.41-11.21.78-18.5-.07-.842.07-3.742.348-7.19.28-3.44.67-7.61 1.065-11.62s.8-7.875 1.03-10.813c.116-1.467.17-2.685.19-3.625v-.03c1.5.1 2.97.18 4.376.19 3.057.02 5.997.29 9.25.31.6.005 1.21.03 1.81.03.038 0 .09-.03.127-.03.154.04.3.06.47.06 1.146.01 2.086-.91 2.09-2.06 0-.136.095-2.19.25-4.78.157-2.59.357-5.91.563-9.22.208-3.307.438-6.6.595-9.186.154-2.58.243-4.244.25-4.967.01-1.675.545-3.565.56-5.905.015-2.5.264-4.52.28-7.22.02-3.003.044-6.026.063-9.03.01-1.82-.092-3.523-.154-5.158 6.657 8.226 12.377 20.254 19.218 29.5.4.54.645 1.19.907 2.06.26.875.494 2.045 1.53 3.094.182.183.4.333.623.434-.46.44-.65.964-.75 1.343-.14.526-.16.94-.16 1.375.008 1.745.41 3.856.407 4.47-.006.876-.11 1.326-.095 2.03.02.707.27 1.53.658 2.31.32.68.97 1.137 1.72 1.19.75.055 1.46-.28 1.874-.905.414-.63.47-1.457.125-2.126-.25-.51-.214-.4-.22-.594 0-.19.09-.81.095-1.873.005-.62-.085-1.27-.156-1.908.968.747 2.02 1.513 3.03 2.186.44.29.85.535 1.22.75.37.214.515.4 1.25.56.186.04.436.115.907.03.47-.08 1.31-.584 1.595-1.31.287-.73.15-1.2.06-1.47s-.2-.436-.28-.56c-.316-.516-.58-.797-1.03-1.25-.18-.18-.472-.45-.69-.66 1.188.515 2.096.97 3.158 1.186.267.055.538.127 1.03.062.495-.066 1.497-.54 1.845-1.44.35-.897.092-1.457-.062-1.813-.152-.356-.312-.59-.5-.845-.64-.893-1.88-1.15-2.81-.56-.41-.16-.542-.18-1.062-.408-1.172-.51-2.56-1.113-3.933-1.623s-2.645-.96-4.064-.97c-.12 0-.29.015-.44.03-.096-.203-.206-.42-.373-.593-.047-.047-.268-.46-.53-1.343-.265-.88-.625-2.12-1.533-3.347-7.29-9.85-13.483-23.963-22.22-32.906.33-2.7.178-5.35.19-7.75.02-3.153-.61-6.13-.22-8.403.57-3.297.578-6.445.598-9.626.02-3.166-.206-6.236-.188-9.25.02-3.15-.205-6.19-.187-9.03.02-3.416-.96-5.35-1.597-7.97-.38-1.57-1.075-3.33-2.06-4.905 2.073-1.566 3.52-3.28 4.312-5.065.81-1.814.945-3.78.126-5.437-.815-1.656-2.604-2.725-4.56-2.907-1.743-.162-3.677.27-5.782 1.25.2-.905.377-1.76.75-2.97.28-.89.554-1.74.72-2.562.085-.41.16-.806.157-1.28-.003-.473-.01-1.115-.626-1.844-.615-.728-1.818-.948-2.468-.81-.65.133-1.07.384-1.536.684-.846.55-1.817 1.39-3.06 2.592.225-.94.445-1.93.56-2.904.12-.997.26-1.995-.344-3.19-.303-.596-.92-1.224-1.657-1.5-.737-.274-1.45-.205-2.094-.06-1.29.285-2.51.95-4.126 2.092-.884.623-1.28.85-1.938 1.28.282-.95.403-2.02 0-3.28-.37-1.157-1.587-2.216-2.876-2.5-.48-.11-.975-.134-1.5-.127zm0 4.186c.14 0 .25-.01.344 0-.074.14-.195 1.145-.656 2.34-.257.674-.554 1.32-.718 2.096-.03.15-.044.32-.063.5-.6-.05-1.22-.12-1.84-.124-.75 0-1.53-.04-2.31-.122.18-.287.37-.564.57-.875.57-.915 1.16-1.9 1.72-2.594.49-.607 1.008-.893 1.033-.937.9-.212 1.523-.276 1.935-.28zm-14.875.03c.15-.025.33.02.62.124.85.31 2.21 1.632 3 3.53-1.62-.08-3.26.09-4.66.312-.16.026-.48.043-.88.063.132-.454.27-.94.404-1.533.35-1.5.865-2.14 1.155-2.346.073-.05.155-.097.22-.126.05-.02.074-.02.124-.03zm-9.82.47c.24.42.53.966.81 1.623.31.74.58 1.517.9 2.25.042.098.084.22.124.315-.194.073-.397.12-.594.218-.777.386-2.382.748-3.937 1.03.373-.76.83-1.755 1.436-3.153.51-1.17.93-1.835 1.25-2.28zm-385 1.84c-.1.004-.19.01-.28.03-.79.168-1.08.56-1.25.784-1.87 2.436-3.28 4.114-4.35 5.22l.03-.19c.06-.297.11-.58.155-.844.043-.26.133-.327.06-1-.016-.17-.017-.398-.25-.815-.23-.417-1.03-1.054-1.78-1.064-.75-.01-1.11.28-1.31.437-.2.156-.298.25-.377.344-.31.37-.404.584-.594.937-.28.52-.68 1.35-1.185 2.407-.216 0-.406.005-.624 0-.54 0-1.09-.012-1.623 0-.088-.145-.164-.305-.25-.47-.73-1.36-1.32-2.77-1.938-3.81-.155-.26-.275-.5-.626-.842-.174-.17-.426-.4-.97-.563-.54-.16-1.48.006-1.966.406-.973.8-.793 1.304-.842 1.685-.05.38-.04.742-.03 1.185.033 1.576-.134 2.61-.313 3.125-.077.21-.13.294-.16.34.035 0 .066.02.03.03-.016.01-.055.03-.06.035l.03-.063c-.055 0-.184 0-.44-.094-.423-.153-1.053-.522-1.72-1-1.33-.953-2.82-2.35-4-3.47-.587-.56-1.063-1.044-1.56-1.44-.25-.192-.445-.39-1-.59-.14-.05-.32-.098-.563-.126-.06-.007-.12-.03-.186-.03-.205 0-.446.033-.72.123-.726.244-1.295 1.08-1.405 1.563-.35 1.544-.678 3.59-.53 5.623.01.164.04.335.06.5-2.51-.357-4.95-.46-7.158-.78-1.11-.16-2.155.606-2.313 1.716-.16 1.11.64 2.16 1.75 2.316 2.77.4 5.416.496 7.813.875-1.69 1.14-3.69 2.28-5.47 4.37-2 2.367-4.02 5.23-4.904 8.597-.745 2.826-1.488 5.497-2.25 8.406-.718 2.725-1.65 5.903-1.847 9.126-.044.743-.154 1.54-.25 2.374-1.043-.19-2.067-.385-3.157-.593-1.59-.3-3.146-.615-4.31-.842-1.166-.227-2.14-.407-2-.377-.2-.04-.39-.05-.595-.03-1.016.07-1.84.86-1.908 1.88-.066 1.015.63 1.926 1.624 2.125.33.077.958.18 2.128.41 1.17.23 2.713.54 4.31.845 1.23.24 2.402.45 3.53.66-.06 1.135-.058 2.29.063 3.44.313 2.95.1 5.97-.093 9.22-.19 3.204-.64 6.37-.845 9.78-.2 3.306-.126 6.393-.313 9.53-.1 1.725-.206 3.465-.31 5.187-5.24 3.215-9.37 5.11-13.218 4.25-3.98-.885-8.642-4.945-14.47-15.53-.48-.88-1.06-1.656-1.653-2.343.065-.144.15-.286.19-.407.4-1.326.33-2.664.25-4.094-.08-1.43-.27-2.88-.41-4.127-.06-.55-.065-.663-.096-1.093.812-.7.96-1.926.312-2.78-.18-.246-.368-.474-.657-.72-.29-.245-.78-.66-1.72-.594-.938.07-1.644.87-1.845 1.31-.2.44-.196.73-.22 1-.1 1.06.044 2.04.19 3.31-.137-.27-.32-.65-.44-.877-.297-.55-.457-.9-.845-1.344-.097-.11-.208-.24-.438-.4-.23-.16-.65-.436-1.41-.377-.76.06-1.444.743-1.657 1.16-.21.416-.23.63-.25.81-.052.737.068.97.16 1.376.097.41.2.853.347 1.345.34 1.134.766 2.32 1.187 3.436-.57-.244-1.145-.514-1.72-.687-.994-.3-1.6-.41-1.78-.47-.177-.06-.094.005-.5-.376-.815-.77-2.105-.725-2.874.092-.766.817-.722 2.107.096 2.875.625.585 1.35 1.032 2 1.25.656.22 1.06.286 1.878.53.577.173 2.44 1.153 4.064 1.657.404.13.81.23 1.34.25.28.012.644 0 1.03-.125.654.55 1.338 1.335 1.91 2.373 6.05 10.995 11.35 16.24 17.154 17.534 4.787 1.068 9.225-.72 13.814-3.344-.126 2.85-.095 5.67-.25 8.283-.155 2.596-.315 5.19-.47 7.78-.198 3.334.38 6.198.22 8.847-.096 1.6-.157 6.975-.22 12.41-.043 3.822-.086 7.05-.125 9.22-.365.383-.585.93-.562 1.5.02.492.22.91.53 1.25.13.94.924 1.69 1.907 1.75.775.044 1.465-.35 1.844-.97 2.8.1 6.35.153 9 .31 2.644.16 5.405.62 8.22 1 .282 13.59.77 27.36 3.654 40.596.372 1.71.62 3.436.655 5.093v.064c-.003.007.01.093-.094.25-.22.338-.706.883-1.342 1.47-1.27 1.174-3.174 2.57-5.124 3.875-1.95 1.303-3.96 2.523-5.5 3.436-.45.27-.76.45-1.123.66-4.165 2.69-1.457 6.04 1.28 4 .485-.28 1.15-.658 1.94-1.126 1.58-.935 3.64-2.195 5.687-3.56 2.043-1.37 4.062-2.84 5.623-4.28.78-.724 1.45-1.43 1.97-2.22.465-.71.886-1.577.78-2.66-.04-2.02-.34-3.995-.75-5.873-2.7-12.41-3.283-25.76-3.56-39.25 1.876.16 3.79.22 5.72.094 4.78-.31 10.243 1.256 16.092.158 3.45-.648 8.502.323 13.154.81-.004.758-.033 1.757-.095 3-.14 2.8-.41 6.575-.687 10.5-.276 3.93-.536 8.016-.72 11.44-.18 3.422-.313 6.03-.125 7.686.74 6.5-.59 12.944.22 20.034.085.745.35.98.5 1.154.15.177.278.267.375.346.196.157.323.265.5.374.356.216.79.43 1.28.685.984.51 2.263 1.1 3.564 1.72 1.3.62 2.615 1.26 3.688 1.78s2.027 1.02 2 1c3.7 1.66 4.46-2.717 1.342-3.94-.438-.23-.95-.453-1.563-.75-1.11-.537-2.43-1.166-3.72-1.78-1.29-.613-2.546-1.226-3.44-1.687-.22-.118-.33-.16-.5-.25-.444-5.76.62-12.1-.186-19.16-.095-.823-.055-3.633.124-7 .18-3.37.474-7.448.75-11.377.275-3.924.543-7.72.686-10.59.06-1.13.08-2.06.095-2.88 2.386.21 4.75.54 7.313.69.587.04 1.197.06 1.78.097h.096c.145.042.31.082.47.09 1.115.07 2.055-.785 2.12-1.905.01-.133.21-2.17.5-4.686.285-2.52.69-5.72 1.06-8.94.375-3.214.746-6.423 1.03-8.936.288-2.51.46-4.106.5-4.81.1-1.633.74-3.47.877-5.75.144-2.435.5-4.367.654-7 .174-2.927.324-5.883.5-8.81.017-.28.05-.536.06-.81 8.03-9.494 12.82-24.276 19.157-34.815.77-1.276 1.015-2.524 1.19-3.407.17-.88.33-1.325.374-1.376.15-.176.24-.358.316-.564.144.006.29-.02.402-.03 1.376-.14 2.615-.69 3.904-1.312 1.29-.624 2.56-1.364 3.656-1.97.49-.27.614-.305 1-.5.956.48 2.115.144 2.655-.78.16-.26.29-.515.408-.876.117-.36.297-.97-.126-1.81-.424-.84-1.424-1.17-1.91-1.19-.484-.013-.745.08-1 .158-1.005.31-1.872.8-2.97 1.408.188-.213.473-.495.626-.685.397-.486.648-.755.907-1.28.064-.133.124-.29.186-.565.063-.273.16-.76-.187-1.438-.35-.68-1.19-1.09-1.66-1.127-.462-.035-.7.07-.872.125-.7.23-.845.383-1.185.624-.34.244-.727.55-1.126.875-.92.75-1.85 1.59-2.72 2.403.01-.623 0-1.27-.06-1.873-.11-1.036-.207-1.626-.22-1.814-.015-.184-.07-.07.124-.59.25-.64.152-1.38-.25-1.94-.406-.556-1.03-.88-1.72-.843-.81.045-1.535.58-1.81 1.344-.305.8-.427 1.626-.378 2.313.05.686.13 1.12.22 1.97.06.595-.095 2.68.06 4.373.04.422.068.812.25 1.31.13.354.367.865.845 1.25-.21.124-.374.273-.53.47-.91 1.115-1.047 2.282-1.22 3.154-.17.87-.32 1.53-.656 2.09-5.612 9.34-10 21.124-15.47 29.687.07-.56.16-1.115.286-1.655.68-2.977.62-5.945.78-8.596.184-3.078-.28-6.026.22-8.22.73-3.18.91-6.24 1.093-9.34.185-3.09.106-6.1.28-9.03.185-3.078.117-6.05.28-8.818.2-3.33-.61-5.286-1.093-7.874-.44-2.363-1.596-5.15-3.375-7.154-.27-.305-.5-.85-.78-1.624-.277-.777-.585-1.818-1.47-2.815-.044-.05-.49-.804-.905-1.655-.413-.85-.77-1.83-1.81-2.72-1.15-.97-2.28-2.38-4.154-3.464-1.086-.624-2.84-2.21-5.25-2.965-.33-.105-1.02-.5-1.81-.97s-1.724-1.074-3.093-1.156c-.46-.026-1.04-.11-1.657-.22.69-.45 1.415-.98 2.185-1.624.86-.715.97-2.01.25-2.87-.72-.86-2.01-.97-2.87-.25-2.23 1.864-3.65 2.31-4.158 2.312-.505.006-.52-.082-.843-.656-.32-.57-.59-1.54-.75-2.374-.076-.417-.1-.756-.217-1.19-.06-.215.05-.434-.56-1.094-.267-.286-.99-.67-1.69-.655zm377.43.25c.004.358.02.674 0 1.064-.03.65-.078 1.3-.095 1.873-.01.29-.02.53.03.903.02.14.042.307.125.53-.75.226-1.5.485-2.25.81.357-.66.524-1.27.688-1.876.41-1.505.86-2.77.97-2.873.302-.3.3-.254.53-.436zm42.624.22c-.088.648-.265 1.436-.47 2.28-.193.808-.397 1.62-.56 2.408-.238-.08-.47-.154-.72-.22-.347-.086-1.04-.436-1.876-.874-.32-.17-.676-.364-1.06-.53.842-.54 1.82-1.2 3-2.034.672-.475 1.244-.796 1.686-1.03zm-421.72 2.31c.002.008-.005.16 0 .19-.053-.12 0-.193 0-.19zm367.375 2.72c.78.286 1.65.66 2.596 1.064 1.105.474 2.004.983 3.405 1.03-.153.136-.32.293-.465.44-.973.96-2.19 1.77-3.47 2.75-.403-1.217-1.05-2.764-1.967-4.94-.078-.177-.04-.19-.097-.344zm31.72.03c1.017-.002 1.955.058 2.595.22 2.14.55 4.46.86 6.69.877 1.824.01 4.18.55 6.44.56.075 0 .62.15 1.342.53s1.6.95 2.78 1.25c1.28.33 2.935 1.53 4.72 2.44 1.12.57 2.136 1.71 3.75 2.934-.054-.04.47.59.906 1.377.44.79.82 1.65 1.69 2.53.21.215.473.73.81 1.53.334.8.77 1.884 1.75 2.875 1.03 1.045 2.383 3.75 2.75 5.25.732 3.015 1.453 4.323 1.435 6.97-.02 3.08.235 6.08.216 9-.02 3.24.206 6.347.19 9.28-.02 3.18-.07 6.04-.565 8.907-.598 3.44.2 6.7.185 9.128-.015 2.23.08 4.398-.064 6.375-.34.28-.604.654-.72 1.095-.156.62-.03 1.25.346 1.75-.41 3.477.08 6.653.064 9.564-.006 1.045.008 2.074 0 3.12l-.03.035c-.42.21-.584.334-.685.406-4.36.086-7.305 1.74-10 1.72-8.137-.05-16.295 1.15-24.44 1.097-5.658-.034-13.854-.64-21.064-1.28-6.77-.6-12.52-.803-17.53-.345-.053-1.6-.102-3.19-.093-4.72.02-3.09.01-6.16.03-9.25.017-2.415-.093-4.72-.155-6.97 4.235 1.855 10.138 2.995 14.688 2 3.986-.87 5.846-2.13 8.78-3.81 2.034-1.167 3.317-2.76 4.28-4.22.96-1.46 1.687-2.81 2.72-4.063.857-1.04 2.1-2.764 3.25-4.56 1.146-1.797 2.206-3.347 2.56-5.28.048-.075.11-.147.156-.22.41-.64.732-1.23 1-1.69.17-.285.334-.57.406-.686.05-.06.04-.08.033-.06.52-.65.68-1.53.374-2.313-.316-.803-1.047-1.37-1.907-1.47-.86-.094-1.73.29-2.217 1-.39.514-.456.74-.72 1.19-.26.45-.553.987-.903 1.53-.7 1.09-1.664 2.186-2.03 2.44-5.463 3.802-12.214 6.76-18.69 6.72-5.69-.037-6.844-.167-11.5-3.75-.04-1.89-.154-3.806-.467-5.75-.12-.72-.15-1.506-.16-2.346h.064c.743.067 1.48-.263 1.906-.876.426-.61.507-1.387.187-2.06-.32-.674-1.01-1.13-1.75-1.19-.05-.003-.183-.023-.25-.03.05-.974.086-1.966.09-2.94.02-2.64.716-5.694 1.314-8.59.61-2.97 1.23-5.773 1.84-8.75.517-2.494 2.044-5.09 3.78-7.374 1.564-2.056 4.065-3.19 6.564-5.657 1.048-1.036 5.15-2.656 7.128-2.97 1.86-.3 4.56-.61 6.75-1.69-.03.02 1.32-.285 2.626-.345 1.307-.06 2.63-.035 3.78-.22.88-.14 1.957-.216 2.97-.22zm-163.624.097c.314 0 .647.02.97.03.302.41.737.684 1.28.78 5.605 1.31 10.172 5.42 15.874 10.154.57.515 1.377.664 2.096.41.72-.25 1.226-.87 1.344-1.623.12-.754-.176-1.536-.78-2-2.206-1.83-4.327-3.66-6.5-5.313.08.016.463.092.56.092.106 0 .17.004.22 0 .094-.01.12-.025.154-.03.173-.03.37-.087.53-.158.015-.004.02.007.03 0 .023-.01.1-.023.125-.03l.44.06c.243.04.51.11.81.19 2.13.53 5.392 1.85 6.31 2.75 2.51 2.455 4.99 3.578 6.56 5.625 1.75 2.28 3.316 4.886 3.845 7.378.63 2.975 1.276 5.75 1.904 8.72.61 2.896 1.31 5.955 1.34 8.595.01.97.07 1.93.126 2.906-.07.01-.23.06-.28.065-.746.06-1.37.51-1.69 1.185-.315.676-.27 1.454.16 2.063.43.61 1.16.94 1.903.87.02 0 .046.003.063 0-.003.84-.046 1.63-.157 2.344-.3 1.95-.407 3.865-.44 5.75-4.64 3.616-5.773 3.748-11.47 3.815-6.473.077-13.234-2.85-18.72-6.624-.364-.25-1.324-1.35-2.03-2.437-.352-.542-.673-1.084-.937-1.53-.264-.447-.324-.647-.72-1.157-.79-1.02-2.265-1.224-3.285-.436-1 .775-1.2 2.204-.47 3.22.02.05.265.407.467.75.27.46.617 1.08 1.03 1.72.047.075.108.147.156.22.364 1.933 1.404 3.46 2.56 5.25 1.16 1.79 2.42 3.493 3.283 4.53 1.037 1.25 1.747 2.576 2.717 4.03.973 1.46 2.274 3.036 4.314 4.19 2.946 1.666 4.854 2.933 8.846 3.78 4.552.97 10.403-.19 14.626-2.06-.047 2.25-.122 4.552-.094 6.97.035 3.09.06 6.16.093 9.25.02 1.526-.05 3.12-.09 4.716-5.018-.955-11.49-.51-18.25.124-7.208.68-14.69 1.622-20.346 1.687-8.15.1-16.307-1.03-24.44-.932-2.7.03-5.61-1.63-9.97-1.69-.1-.074-.294-.2-.72-.41-.006-.003-.02.006-.03 0l-.03-3.155c-.035-2.91.457-6.066.03-9.53.385-.515.52-1.187.344-1.817-.125-.44-.404-.794-.75-1.065-.156-1.97-.07-4.15-.096-6.374-.03-2.426.74-5.66.124-9.09-.51-2.864-.56-5.726-.598-8.906-.034-2.937.195-6.076.156-9.316-.034-2.916.192-5.92.156-9-.03-2.645.69-3.95 1.407-6.97.358-1.5 1.695-4.2 2.72-5.25.97-.994 1.418-2.103 1.75-2.904.33-.8.57-1.28.78-1.5.865-.885 1.256-1.805 1.688-2.595.434-.79.93-1.41.875-1.37 1.608-1.235 2.665-2.36 3.78-2.938 1.78-.915 3.41-2.134 4.688-2.47 1.18-.31 2.06-.865 2.78-1.25.724-.38 1.236-.53 1.314-.53 1.55-.02 3.152-.27 4.592-.44.29.55.81.977 1.47 1.096 3.537.827 4.775 1.59 6.313 2.72 1.54 1.13 3.38 2.75 7.096 4.656.663.383 1.505.373 2.156-.03.65-.406 1.017-1.14.97-1.908-.05-.765-.523-1.464-1.22-1.783-3.37-1.73-4.755-3.01-6.53-4.314-.66-.48-1.356-.93-2.19-1.372l.47-.12c.6-.156 1.462-.24 2.406-.25zm-234.53.686c.09.226.152.46.25.686-.227-.06-.438-.12-.658-.19.14-.167.26-.325.404-.5zm-27.815.186c.756.71 1.57 1.49 2.47 2.22-.633.204-1.26.465-1.873.75-.118-.06-.163-.176-.28-.41-.15-.29-.298-.803-.346-1.47-.022-.32.018-.73.03-1.093zm454.597.623c-.175.547-.36 1.094-.5 1.656-.24-.176-.485-.36-.75-.53.382-.335.8-.687 1.25-1.126zm-178.626.437c.1.02.18.046.28.064.09.122.265.35.28.373-.19-.144-.37-.297-.56-.44zm-251.875 2.72c.7.06 1.325.17 1.78.31 2.06.65 4.33 1.06 6.5 1.19 1.78.107 4.02.775 6.22.906.076.004.595.155 1.28.56.69.41 1.52.99 2.66 1.346 1.23.387 2.745 1.68 4.44 2.657 1.06.616 2.02 1.754 3.53 3.03-.05-.04.43.59.81 1.38.39.79.7 1.69 1.5 2.59.2.22.437.71.72 1.5.29.8.66 1.92 1.56 2.94.95 1.07 2.13 3.738 2.41 5.22.56 2.975 1.217 4.29 1.063 6.87-.18 3.01-.11 5.97-.28 8.82-.19 3.155-.11 6.2-.28 9.06-.185 3.1-.366 5.89-1 8.654-.758 3.32-.17 6.507-.31 8.874-.17 2.846-.156 5.61-.69 7.94-.7 3.07-.597 5.946-.625 8.594-.078.29-.067.6 0 .905-.01.3-.018.58-.036.874-.06 1.023-.125 2.043-.186 3.063-.41.178-.58.306-.684.375-4.263-.15-7.21 1.346-9.843 1.188-7.93-.472-15.938.226-23.877-.25-5.51-.33-12.75-1.624-19.75-2.624-5.243-.75-10.332-1.35-14.683-1.22-1.094.038-2.134.11-3.126.25.03-1.56.038-3.1.127-4.59.18-3.01.382-6.02.562-9.03.14-2.358.16-4.586.217-6.783 4.036 2.023 9.71 3.45 14.19 2.72 3.93-.64 5.8-1.794 8.75-3.28 2.046-1.03 3.42-2.5 4.438-3.877 1.016-1.375 1.74-2.642 2.814-3.812.89-.97 2.195-2.586 3.406-4.28 1.212-1.69 2.335-3.13 2.78-5 .054-.07.106-.15.157-.22.43-.6.806-1.16 1.09-1.592.216-.323.448-.665.47-.717.55-.67.677-1.58.31-2.372-.37-.816-1.193-1.348-2.09-1.345-.67.008-1.29.298-1.72.813-.41.48-.532.704-.81 1.126-.28.427-.6.927-.97 1.44-.74 1.027-1.724 2.053-2.094 2.28-5.527 3.425-12.256 5.94-18.566 5.563-5.55-.33-6.645-.508-11-4.25.06-1.838.045-3.716-.158-5.626-.077-.705-.07-1.46-.03-2.28h.06c.73.12 1.45-.17 1.906-.75.46-.58.57-1.38.28-2.06-.28-.68-.92-1.14-1.654-1.22l-.25-.03c.1-.95.195-1.93.25-2.877.155-2.572.987-5.49 1.72-8.28.75-2.865 1.497-5.567 2.25-8.437.63-2.405 2.28-4.86 4.09-7 1.63-1.922 4.09-2.91 6.66-5.187 1.073-.95 5.18-2.328 7.125-2.53 1.604-.17 3.84-.31 5.846-.97.395.422.867.78 1.437 1.09.903.5 2.36.666 3.437.063.457-.252.8-.623 1.128-1 .203.187.41.385.69.5.792.337 1.604.22 2.186 0 .695-.26 1.257-.65 1.877-1.19zm439.22 2.437c.126 0 .235.025.343.034.863.08 1.045.306 1.19.595.143.29.253.915-.188 1.904-.426.96-1.356 2.196-2.937 3.406-.07-.15-.117-.325-.19-.5-.33-.78-.73-1.845-1.69-2.815-.04-.04-.395-.616-.78-1.28.114-.056.226-.095.343-.156.957-.498 1.784-.825 2.5-1 .54-.13 1.027-.187 1.407-.19zm-73.69 2c.07-.014.115.006.19 0 .515-.02 1.21.28 2.155.66-.845 1.203-1.65 2.476-2.31 3.874-.425-.235-.98-.63-1.375-1.093-.45-.53-.598-.96-.56-1.316.033-.356.22-1 1.59-1.97.096-.065.207-.13.31-.155zm-496.84 3.03c-.346 0-.7.02-1.03.03-1.325.067-2.48.25-3.343.19-2.92-.19-4.648.097-7 .407-2.128.28-4.39.326-6.75.75-1.287.236-2.1.787-3.03 1.346-.93.56-1.86 1.16-2.28 1.376-1.897.97-3.767 2.66-4.94 3.685-1.57 1.373-2.51 3.013-2.78 3.25-1.68 1.47-2.327 3.53-2.657 4.09-1.25 2.14-1.88 3.86-2.56 5.97-.08.25-.15.524-.217.78-.745.738-1.29 1.646-1.374 2.877-.12 1.77-.19 4.07.25 6.34-.22 2.03-.515 4.22-.66 6.406-.176 2.665-.643 5.235-.843 8.25-.172 2.62-.304 4.81-.967 6.875-.89 2.75-.42 5.825-.54 7.626-.117 1.776-.16 3.49-.187 5.155-.006.008.003.03 0 .03-9.11 7.37-15.964 20.5-23.564 29.348-.9 1.05-1.3 2.16-1.594 2.94-.297.78-.517 1.148-.563 1.188-.16.14-.274.297-.375.47-.136-.025-.268-.024-.377-.03-1.285-.085-2.473.255-3.75.625-1.277.37-2.59.83-3.687 1.213-.49.17-.62.195-1 .313-.8-.586-1.894-.476-2.534.28-.185.217-.37.44-.53.75-.164.31-.445.82-.188 1.657.253.834 1.12 1.315 1.56 1.405.44.09.723.06.97.03.972-.13 1.83-.487 2.936-.876-.21.172-.51.41-.684.562-.44.383-.713.59-1.03 1.03-.08.112-.185.23-.284.47-.1.24-.273.67-.06 1.343.21.677.986 1.177 1.407 1.28.42.11.643.09.813.065.677-.1.807-.236 1.156-.406.35-.17.74-.39 1.153-.628.957-.546 1.952-1.17 2.876-1.786-.1.572-.21 1.16-.25 1.72-.06.963-.043 1.513-.06 1.686-.02.174.04.117-.22.56-.38.583-.43 1.3-.09 1.906.334.61.994 1.005 1.69 1 .69-.006 1.33-.418 1.654-1.03.4-.686.654-1.427.72-2.064.06-.637.04-1.02.09-1.813.036-.557.504-2.457.624-4.03.03-.397.06-.77-.03-1.25-.068-.35-.215-.86-.597-1.284.21-.077.415-.187.594-.343 1.007-.88 1.3-1.913 1.595-2.69.29-.773.54-1.35.94-1.813 7.18-8.363 13.46-19.595 20.47-26.56-.06 1.146-.08 2.423-.13 3.78-.17.27-.298.602-.31.94-.05.762.01 1.45.152 2.122-.026.597-.04 1.225-.063 1.595-.003.03 0 .13 0 .157-1.158 8.26-.803 12.45-1.594 20.56v.063c-.13 1.976.07 3.315-.03 4.844v.06c-.008.07-.05.156-.063.28-.026.26-.073.627-.123 1.097-.1.94-.24 2.28-.406 3.878-.343 3.194-.77 7.446-1.22 11.69-.454 4.24-.91 8.493-1.25 11.685-.17 1.597-.308 2.933-.407 3.874-.05.47-.13.834-.16 1.093-.012.13.01.21 0 .28 0 .02-.03.037-.03.034-.002.005.01.01 0 .157-.075 1.12.756 2.08 1.875 2.154.337.026.68-.03.97-.154.22.193.48.355.78.438 1.476.476 2.845.54 4.156.626 2.85.19 5.714.373 8.565.56 1.543.1 3.08.18 4.624.28-.006.09.02.186.03.28.545 6.61 1.14 9.156 1.405 16.5.045 3.11.327 7.01.812 10.907-.53.917-1.314 2.13-2.22 3.342-1.44 1.93-3.12 3.993-4.436 5.842-.444.62-.958 1.25-1.47 1.876v.03c-.047.06-.11.1-.156.16-1.77 2.29-5.49 4.57-1.94 6.714.736.17 1.536-.08 2.03-.653 1.555-1.63 3.38-3.653 4.874-5.75 1.164-1.63 2.777-3.625 4.25-5.59.314 1.714.654 3.33 1.033 4.78.21.816.414 1.633.624 2.44.148.743.707 1.345 1.436 1.56.73.215 1.5.014 2.03-.53.53-.546.738-1.37.5-2.095-.21-.806-.44-1.59-.653-2.407-.644-2.477-1.21-5.714-1.654-9.03.105-.256.233-.495.313-.75.206-.63.08-1.31-.31-1.846-.098-.133-.22-.27-.34-.375-.35-3.184-.59-6.277-.628-8.72v-.06c-.266-7.405-.88-10.156-1.406-16.347 2.023.14 4.04.275 6.06.41 4.75.313 9.904-.4 13.595.592 3.137.846 6.297 1.21 9.408 1.47-.253 9.948-2.504 15.745-2.313 28.75.042 2.88.114 5.626-.438 8.03-.216.73.014 1.504.56 2.03.546.53 1.34.708 2.062.47.72-.236 1.243-.843 1.37-1.593.63-2.754.58-5.45.53-7.97.75 1.05 1.557 2.13 2.376 3.22 2.67 3.553 5.487 7.06 6.03 7.78.69.9 1.945 1.06 2.846.374 1.87-2.15-.737-4.214-2.062-6.09h-.06c-1.035-1.328-2.25-2.91-3.47-4.535-1.31-1.746-2.61-3.508-3.592-4.97-.98-1.46-1.654-2.9-1.624-2.782-.06-.244-.175-.457-.31-.656.48-8.185 1.966-13.456 2.19-21.75 1.37.073 3.81.08 6.092.094 1.223.01 2.373.03 3.218.03h1.03c.71.12 1.44-.14 1.91-.69.17-.2.292-.414.374-.656.427.115.844.19.844.188 0 0 1.035-.446 1.22-.656.37-.414.365-.57.405-.685.04-.116.05-.19.06-.25.08-.315.075-.65 0-.968 0-.16-.004-.29 0-.595.016-.878.066-2.27.126-3.97.12-3.4.32-8.09.53-12.907.426-9.627.936-19.925.97-20.437.11-1.615.236-3.227.344-4.843.12-1.805.23-3.63.348-5.438.128-1.9.25-3.79.376-5.69.12-1.864.51-3.787.654-5.97.03-.527.09-1.06.12-1.59 1.26 2.71 2.414 5.486 3.877 8.22 2.357 4.402 5.59 8.642 11.25 11.685.656.35 1.08.32 1.47.31.39-.01.76-.05 1.16-.125.792-.15 1.69-.405 2.72-.72 2.054-.62 4.58-1.515 7.06-2.404 2.48-.886 4.93-1.773 6.78-2.373.885-.287 1.62-.478 2.126-.596.18.1.36.14.5.19 1.228.397 2.456.39 3.78.345 1.33-.048 2.69-.175 3.848-.28.515-.046.634-.04 1.03-.06.635.764 1.76.922 2.565.342.233-.165.423-.33.657-.596.236-.26.64-.72.595-1.595-.043-.87-.75-1.524-1.154-1.72-.407-.196-.69-.22-.938-.25-.98-.114-1.89.02-3.06.124.25-.115.603-.3.81-.405.52-.264.833-.4 1.25-.75.105-.085.22-.164.375-.374.152-.21.445-.603.403-1.31-.04-.706-.647-1.357-1.03-1.563-.382-.204-.61-.232-.78-.25-.68-.067-.87.017-1.25.095-.38.08-.79.217-1.25.344-1.06.292-2.204.63-3.25 1 .24-.53.484-1.06.656-1.595.3-.92.44-1.46.5-1.63.06-.163-.016-.1.345-.47.552-.543.713-1.38.404-2.09-.31-.71-1.04-1.15-1.816-1.127-.496.02-.946.233-1.28.592-.558.565-1 1.21-1.22 1.81-.218.604-.258.995-.5 1.75-.17.53-1.125 2.22-1.626 3.72-.126.374-.22.758-.25 1.25-.018.26-.02.633.092 1-.515.143-1.066.3-1.687.5-1.96.634-4.435 1.52-6.906 2.406-2.47.885-4.96 1.76-6.874 2.34-.96.29-1.765.525-2.316.627-.193.04-.3.056-.405.065-4.74-2.627-7.346-6.03-9.47-10-2.167-4.05-3.75-8.67-6.47-13.22-.044-.076-.103-.15-.157-.22.164-1.25.346-2.577.436-3.937.14-2.09.3-4.19.44-6.28.124-1.85.514-3.79.657-5.97l.345-5.127.44-6.564.19-2.846c.07.01.15.027.22.034 1.685.18 3.48.46 4.5.596 1.11.15 2.132-.635 2.28-1.75.15-1.11-.638-2.13-1.75-2.28-.88-.115-2.788-.4-4.626-.594l-.343-.03c.12-1.79.225-3.585.342-5.376.09-1.347-.27-2.487-.594-3.596-.325-1.108-.68-2.164-.78-2.72-.42-2.31-.833-4.805-1.94-7.44-.164-.39-.334-.76-.5-1.154-.47-1.12-1.054-2.16-1.656-3.125.04-.2.093-.415.09-.69-.008-.41-.1-1.086-.69-1.655-.424-.41-.97-.584-1.404-.623-.41-.58-.82-1.122-1.188-1.684-.98-1.502-2.33-2.39-3.53-3.092-1.2-.705-2.29-1.273-2.844-1.75-2.06-1.77-5.03-2.856-7.19-3.44-.47-.125-.94-.246-1.41-.374-2.37-.64-4.814-1.17-6.903-1.843-1.1-.354-2.232-.49-3.28-.5zm242.19 1.97c-8.77-.056-17.45 3.157-23.374 10.126-2.95 3.465-3.33 7.27-3 10.686.33 3.42 1.17 6.62.97 9.91-.066 1.02-.36 1.334-1 1.72-.644.38-1.81.63-3.13.622-2.64-.015-5.97-1.287-6.623-1.845-.884-.75-1.15-1.37-1.22-2-.065-.63.15-1.38.595-2.158.84-1.456 2.66-2.76 3.815-3.094.208.18.523.603.688.97.13.29.12.435.13.53-1.038.43-1.52 1.62-1.096 2.656.43 1.037 1.62 1.522 2.655 1.093 1.276-.465 2.252-1.706 2.47-2.875.214-1.167-.064-2.19-.47-3.094-.406-.9-.977-1.7-1.72-2.34-.74-.644-1.78-1.256-3.152-1-2.783.52-5.31 2.453-6.844 5.124-.766 1.336-1.27 2.914-1.093 4.593.078.73.32 1.46.658 2.16-.823.005-1.653.1-2.5.437-1.25.5-2.42 1.52-3.124 2.94-1.623 3.28-1.97 6.703-.97 9.652 1.008 2.95 3.46 5.34 6.785 6.22 3.085.815 5.735 1.026 8.095.28 2.314-.73 4.12-2.434 5.44-4.656-.006.04 0 .085 0 .123-.137 2.184-.276 4.34-.41 6.53l-.312 5.123c-.134 2.185.05 4.185-.06 6.03-.06.973-.128 1.938-.188 2.908-.114.067-.21.138-.31.22-3.978 3.25-9.055 5.25-12.72 7.75-1.83 1.25-3.466 2.72-4.03 4.88-.566 2.156.18 4.52 1.97 6.97 2.784 3.82 7.97 7.454 10.72 10.874 1.37 1.715 2.02 3.21 1.902 4.316-.08.793-.514 1.692-1.81 2.75-.69-.158-1.415-.238-2.157-.314-1.324-.13-2.715-.194-3.876-.25-.51-.02-.6-.027-1-.06-.348-.568-.99-.917-1.657-.908-.298.006-.58.076-.844.22-.25.13-.48.27-.75.5-.267.226-.706.6-.78 1.466-.074.87.56 1.625.937 1.874.374.25.634.315.873.376.958.247 1.855.26 3.03.312-.26.085-.62.175-.84.25-.55.194-.88.305-1.34.595-.114.076-.254.16-.437.346-.18.186-.505.513-.56 1.22-.057.704.46 1.46.812 1.716.35.257.553.305.72.345.665.16.893.06 1.28.03.39-.026.81-.06 1.28-.125 1.09-.143 2.23-.34 3.314-.56-.31.486-.6.97-.845 1.47-.42.87-.635 1.406-.72 1.56-.08.155.006.092-.403.406-.822.64-.95 1.83-.31 2.656.64.828 1.8.984 2.63.345.627-.487 1.172-1.09 1.47-1.66.295-.566.372-.97.72-1.69.135-.28.59-.883 1.06-1.623-.173 1.43-.32 2.742-.5 4.22-.353 2.854-.727 5.58-1 7.5-.083.583-.157.92-.22 1.31-.254.18-.53.405-.53.405-.323.666-.265 1.43.156 2.033.13.183.293.34.47.47.15.225.393.52.904.716.64.25 1.47.055 1.843-.19.03-.02.067-.04.094-.06.064.003.096.03.16.03 1.163.07 2.733.15 4.376.25 3.286.203 6.846.43 7.968.5 2.726.166 5.498.333 8.314.28-.03.13-.06.27-.064.405-.45 9.843 1.016 25.52 1.065 37.405-.145.19-.275.415-.345.655.034-.117-.7 1.303-1.75 2.716-1.05 1.416-2.42 3.1-3.81 4.784-1.168 1.41-2.297 2.772-3.316 3.964-.036.045-.086.08-.124.125-1.784 2.14-5.57 4.824-1.72 6.78.747.118 1.48-.185 1.94-.782.58-.695 3.54-4.04 6.377-7.47.87-1.05 1.733-2.11 2.53-3.127-.162 2.516-.252 5.812.25 8.592.095.754.605 1.417 1.315 1.687s1.49.1 2.06-.404c.57-.503.836-1.26.656-2-.44-2.43-.336-5.78-.16-8.657.845-13.8-1.377-33.11-.875-44.092.02-.286-.026-.58-.124-.845.35-.035.71-.043 1.062-.092 3.486-.473 8 .627 12.405 1.036.1.386.253.905.47 1.657.47 1.675 1.22 4.22 2.09 7.125 1.744 5.812 5.354 17.15 6.907 21.53.816 2.305 1.686 5.297 2.47 8.407-.02.034-.048.06-.065.095-.358.71-.276 1.56.22 2.185.16.216.343.428.53.628.74 3.274 1.335 6.484 1.592 9.03.086.84.17 1.67.25 2.5.11 1.128 1.124 1.92 2.25 1.81 1.13-.11 1.923-1.09 1.813-2.22l-.25-2.5c-.15-1.49-.38-3.12-.687-4.84 2.064 1.33 4.28 2.627 5.934 3.75 2.13 1.445 8.44 6.135 10.47 7.126.66.34 1.44.31 2.06-.1 1.163-1.256-.02-3.096-3.717-5.78-2.785-2.022-5.79-4.16-6.5-4.66-1.88-1.273-4.2-2.595-6.22-3.905-1.27-.82-2.465-1.665-3.28-2.342-.91-3.832-1.994-7.63-3.034-10.56-1.495-4.215-5.11-15.565-6.845-21.346-.867-2.89-1.6-5.422-2.063-7.06-.03-.113-.03-.145-.06-.25 3.88.237 7.748.482 11.628.72 2.85.174 5.71.356 8.56.53.07.005 1.59.347 2.937.687.674.173 1.347.323 2 .44.654.12 1.187.257 2.063.093.74-.1 1.365-.61 1.624-1.314.183-.506.18-1.024-.03-1.5-.008-.09.002-.17 0-.28l-.098-2c-.08-1.657-.202-3.844-.312-6.034-.11-2.19-.23-4.41-.312-6.064l-.093-1.97c-.01-.24.005-.46 0-.59 0-.027-.03-.04-.03-.064.095-1.52.47-2.82.59-4.78.003-.02 0-.04 0-.07.246-8.15 1.133-12.254 1.03-20.593.12-1.94.743-8.25.877-10.44.015-.22.015-.43.03-.658.04-.003.09-.02.127-.03 8.786-2.373 21.26-10.09 24.5-30.78.21-1.335.806-2.3 1.47-2.97.01.007.024.03.03.034.54.195.924.15 1.22.094 1.264-.244 2.36-.88 3.5-1.564 1.14-.68 2.286-1.44 3.25-2.093.43-.287.534-.35.875-.56.93.364 1.956-.066 2.376-.97.124-.253.234-.47.31-.81.08-.344.21-.915-.25-1.657-.455-.74-1.42-.992-1.87-.97-.45.027-.677.128-.907.22-.912.373-1.65.937-2.625 1.594.16-.22.4-.53.53-.72.33-.48.524-.77.72-1.28.05-.13.09-.275.125-.53.033-.26.093-.717-.283-1.317-.373-.598-1.22-.878-1.654-.875-.436.003-.626.09-.78.155-.63.27-.77.47-1.066.72-.294.25-.595.54-.936.876-.79.763-1.61 1.61-2.345 2.433-.04-.57-.08-1.17-.187-1.72-.183-.943-.35-1.48-.376-1.65-.024-.17-.042-.094.097-.592.163-.55.08-1.153-.25-1.624-.33-.47-.864-.744-1.437-.78-.9-.054-1.71.535-1.937 1.407-.214.76-.29 1.522-.19 2.153.1.63.26 1.033.41 1.81.107.55.094 2.48.377 4.03.07.39.167.778.377 1.22.05.11.105.25.186.378-1.15 1.184-2.13 2.854-2.47 5-2.874 18.37-12.867 24.89-20.5 27.316.14-1.242.264-2.5.344-3.81.11-1.8.967-4.784.438-7.625-.393-2.13-.25-4.348-.09-6.97.184-3.014.055-5.615.22-8.28.1-1.627.103-3.265.123-4.844.68.22 1.37.34 2.03.38 1.228.075 2.38-.075 3.41-.344 1.03-.27 1.9-.587 2.72-1.314 1.568-1.382 2.86-3.334 3.408-5.622.546-2.285.202-5.073-1.75-7.124-3.815-4.005-11.01 1.044-8.72 6.03.29.684.92 1.145 1.656 1.22.736.08 1.454-.235 1.875-.844.42-.606.486-1.4.156-2.06-.354-.776 1.445-2.215 2.096-1.53.913.96 1.04 2.004.72 3.342-.32 1.334-1.22 2.78-2.1 3.563-.033.007-.502.26-1.06.408-.637.166-1.44.26-2.156.22-.713-.046-1.3-.23-1.655-.47-.19-.13-.358-.25-.47-.44.13-2.17.25-4.715-.188-7.06-.406-2.18-.81-4-1.78-6.28-.26-.606-.648-2.706-2.128-4.38-.237-.27-.96-2-2.344-3.562-1.03-1.165-2.68-3.104-4.435-4.31-.39-.267-1.21-.95-2.062-1.624-.85-.67-1.627-1.354-2.874-1.75-2.29-.72-4.49-1.01-6.567-1.56-1.546-.408-2.82-.777-4.377-1.03-1.37-1.698-3.088-3.018-5.064-3.815-3.09-1.243-6.37-2.047-9.69-2.406-.62-.066-1.25-.12-1.874-.156-.583-.03-1.163-.055-1.75-.06zm-248.53 2.22c.51-.005 1.05.02 1.69.062 1.694.114 3.415-.03 4.75-.06.8-.017 1.45.01 1.904.155 2.345.754 4.907 1.3 7.155 1.906.47.13.91.28 1.38.41 1.69.46 4.594 1.68 5.622 2.564 1.14.98 2.37 1.576 3.408 2.185 1.037.61 1.83 1.18 2.22 1.78.29.45.58.884.873 1.312l-.25.187c-.89.663-1.82 1.384-2.657 1.873-.836.49-1.586.623-1.53.625-4.37-.29-10.18-4.704-16.153-7.69-2.99-1.49-6.127-2.626-9.44-2.28-3.316.34-6.548 2.335-9.22 6.185-3 4.325-3.207 9.075-4.158 12.72-.95 3.644-2.09 6.175-7.31 7.874-1.77.575-2.78.475-3.44.186-.66-.287-1.17-.84-1.593-1.78-.21-.47-.37-1.022-.5-1.626.05-.51.09-1.054.126-1.56.107-1.63.25-3.474.53-5.064.043-.028.078-.065.125-.094.886-.53 2.17-.948 3.22-1 1.045-.056 1.69.23 1.97.56.27.33.595 1.106.06 3.157-.025.02-.1.1-.284.22-.366.246-1.03.56-1.75 1.19-.844.74-.928 2.03-.187 2.874.74.846 2.03.93 2.875.19.156-.133.665-.442 1.314-.874.65-.43 1.59-1.155 1.94-2.44.765-2.843.49-5.257-.877-6.907-1.37-1.648-3.447-2.124-5.28-2.03-.53.027-1.05.115-1.564.22.29-.65.63-1.288 1.067-2.033.72-1.23 1.47-2.79 1.815-3.09 1.39-1.218 2.035-2.57 2.814-3.25 1.16-1.018 3.12-2.61 4.123-3.127.813-.418 1.663-.998 2.5-1.5.832-.5 1.74-.89 1.654-.876 1.894-.343 4.12-.364 6.56-.688 1.84-.24 2.968-.456 4.5-.47zm248.594 1.843c.514.01 1.015.04 1.53.07.55.03 1.107.065 1.656.123 1.88.2 3.746.596 5.565 1.126-.187.02-.372.025-.562.06-2.157.403-4.695.636-7.126.97-.48.066-.99.12-1.47.186-2.214.303-5.26 1.005-7.53 2.5-.61.402-1.75.83-3.03 1.374-1.28.55-2.747 1.23-3.91 2.597-1.78 2.1-4.127 4.217-5.81 7.126-.214.37-.41.756-.627 1.124-.29.505-.54.98-.78 1.47-.13-.82-.24-1.59-.313-2.34-.284-2.94-.115-5.127 2.06-7.69 5.046-5.933 12.63-8.74 20.345-8.69zM72.6 215.1c2-.09 4.298.68 6.81 1.938 5.365 2.68 11.19 7.633 17.69 8.063 1.567.1 2.724-.54 3.843-1.19 1.12-.66 2.166-1.43 3.062-2.1.04-.03.05-.04.09-.06.51.82.96 1.63 1.31 2.47l.5 1.18c.89 2.14 1.3 4.248 1.72 6.566.19 1.08.58 2.155.87 3.156.29 1 .45 1.945.435 2.155-.124 1.876-.25 3.75-.375 5.625-.23.07-.48.176-.75.315-1 .513-1.42 1.72-.906 2.72.283.554.81.933 1.373 1.062-.058.852-.1 1.71-.158 2.56-.088 1.333-.19 2.67-.28 4-.118-.066-.24-.118-.377-.158-.09-.05-.235-.16-.406-.28-.35-.24-.81-.57-1.25-.91-.44-.332-.87-.676-1.22-.936-.17-.13-.34-.24-.5-.343-.077-.05-.135-.08-.28-.153-.07-.035-.143-.095-.343-.155-.2-.06-.645-.385-1.56.22-.668.44-.718.636-1.063 1-.348.36-.73.78-1.098 1.123-.03.03-.06.032-.095.06-.198-.32-.294-.54-.594-.906-.325-.4-.82-.96-1.812-1.096-.99-.133-1.904.464-2.376 1.03-.434.53-.974 1.123-1.466 1.47-.493.35-.745.4-.97.345-2.177-.55-3.877-.24-5.155-.814-1.504-.676-3.427-2.69-5.437-3.876-.317-.195-.69-.27-1.06-.25-.81.045-1.5.62-1.69 1.403-.187.788.175 1.597.875 2 .297.175.69.488 1.127.844.15.61.6 1.106 1.22 1.28-.07 0 .05.077.25.348.326.443.744 1.16 1.22 1.97.95 1.616 1.96 3.56 3.78 4.78 3.33 2.233 5.29 3.986 9.84 4.592 3.707.496 6.787-.84 9.75-3.187-.17 1.312-.4 2.72-.5 4.25-.14 2.09-.267 4.16-.406 6.25-.13 1.892-.55 4-.72 6.156-5.9 3.37-13.77 6.01-20.878 6.657-1.638.15-4.77.203-7.783.093-3.01-.106-6.11-.456-7.125-.81-.766-.267-1.76.157-2.097.5-.337.343-.42.56-.5.75-.156.38-.194.655-.25.97-.114.626-.195 1.352-.25 2.123-.07.99-.1 1.94-.094 2.75-1.2-.44-2.33-.89-3.31-1.408-8.02-4.21-17.74-8.176-21.19-15.94.04-.982.095-1.84.128-2.342.195-2.954.1-5.844.28-8.59.16-2.45-.033-5.36.375-6.625.866-2.7.984-5.29 1.156-7.878.18-2.75.65-5.28.842-8.22.01-.175.014-.385.03-.56.35.25.74.473 1.154.653 1.77.776 3.91.78 6.31 0 6.374-2.072 8.897-6.5 10-10.72 1.1-4.215 1.342-8.24 3.56-11.435 2.213-3.19 4.194-4.252 6.28-4.47.133-.012.275-.023.41-.03zm257.968.157c.09-.006.182 0 .28 0 1.304.005 3.46.56 5.69.75-3.304 4.475-6.89 9.515-10.5 14.03-4.068 5.087-8.233 9.38-11.408 10.97-.072.035-.15.052-.218.094-3.198 2.1-10.994 2.44-15.47 2.21.057-.91.102-1.81.157-2.72.012-.21.3-1.14.72-2.09.42-.96.92-1.99 1.25-3.03.71-2.25 1.4-4.28 2.56-6.29.213-.363.41-.75.624-1.12 1.28-2.21 3.34-4.15 5.34-6.5.46-.545 1.33-1.027 2.44-1.5 1.1-.47 2.4-.89 3.65-1.72 1.13-.745 4.132-1.636 5.87-1.875.48-.066.958-.12 1.438-.188 2.306-.318 4.89-.55 7.31-1 .08-.016.16-.026.25-.03zm14.687 2.5c1.52.33 2.93.572 4.18.97-.08-.026.8.49 1.56 1.092.76.602 1.554 1.26 2.31 1.78.93.64 2.632 2.5 3.654 3.655.684.776 1.15 2.212 2.373 3.594.304.34.85 1.93 1.407 3.25.397.93.687 1.73.906 2.53-.51-.16-1.055-.28-1.626-.32-3.62-.22-5.28-.77-6.624-1.85-1.343-1.07-2.56-2.97-4.53-5.967-1.02-1.55-1.693-4.54-2.875-7.25-.22-.51-.452-1.01-.75-1.5zm-5.6.812c.12-.017.24 0 .34 0 .43.002.68.13.934.31.41.29.893.97 1.342 2 .9 2.065 1.455 5.246 3.187 7.876 1.94 2.95 3.275 5.18 5.406 6.875 2.134 1.7 4.89 2.507 8.908 2.75.71.046.995.22 1.19.377.197.16.366.383.53.843.336.92.43 2.58.75 4.31.04.19.076.38.127.56-.173 2.85-.085 5.86-.25 8.56-.18 2.94-.05 5.56-.22 8.31-.156 2.58-.36 5.15.158 7.934.24 1.31-.32 4.175-.47 6.625-.17 2.745-.63 5.57-.81 8.53-.058.875-.238 2.746-.41 4.69-.22-.015-.378-.04-.72-.065-.263-.015-.48-.06-.78-.06-.297 0-.655.08-1.186.28-1.714.65-4.865.952-8.25 1-3.385.05-7.068-.125-10.22-.156-13.608-.13-30.133-2.474-42.405-2.78.08-1.32.17-2.62.25-3.94.14-2.29 0-4.556.124-6.56.13-2.09.245-4.19.373-6.28.134-2.225-.018-4.204.092-6 .103-1.71.205-3.445.31-5.158.133-2.184.272-4.342.405-6.53.112-1.82.202-3.644.313-5.47 4.672.275 12.58.488 17.75-2.78.003-.002.024-.027.03-.03.062-.04.125-.053.19-.094l-.035-.03c.393-.2.8-.416 1.19-.658.11.15.23.263.37.375.58.45 1.254.61 1.97.653.594.04 1.266-.074 1.81-.467.546-.392.834-.987.94-1.47.21-.96.01-1.677-.095-2.25-.04-.2-.137-.41-.25-.623 2.224-2.136 4.426-4.72 6.624-7.47 3.665-4.58 7.246-9.625 10.47-14zm257.22 1.75c-.3 0-.54.07-.75.122-.85.21-1.4.548-1.44.563-.338.134-.64.364-.848.656-.506.71-1.148 1.56-1.06 3.04.04.74.455 1.69 1.185 2.19.73.51 1.544.65 2.406.66.718.005 1.527-.18 2.157-.69.63-.506.937-1.26 1.032-1.842.19-1.17-.087-2.01-.25-2.69-.157-.64-.675-1.417-1.408-1.75-.37-.17-.73-.25-1.03-.25zm-132.38.03c-.3.003-.636.05-1 .22-.73.34-1.225 1.14-1.378 1.78-.16.68-.447 1.52-.25 2.69.1.58.43 1.305 1.062 1.81.63.505 1.41.695 2.122.69.86-.01 1.65-.18 2.373-.69.727-.51 1.18-1.42 1.22-2.158.076-1.472-.585-2.33-1.095-3.03-.21-.292-.48-.525-.814-.657-.04-.015-.62-.356-1.47-.563-.21-.05-.48-.096-.78-.094zm-271.75 3.155c-.13.015-.24.042-.346.062-.84.16-1.4.455-1.44.47-.335.11-.623.32-.845.592-.53.66-1.193 1.466-1.187 2.906.004.72.377 1.656 1.062 2.187.683.53 1.47.732 2.31.78.7.043 1.454-.098 2.094-.562.64-.46 1-1.153 1.127-1.72.25-1.126 0-1.983-.122-2.654-.116-.63-.582-1.416-1.28-1.78-.346-.182-.67-.264-.966-.282-.075-.004-.15 0-.22 0-.07.004-.124-.006-.188 0zm-99 11.906c-.2.01-.42.07-.66.16-.627.24-1.114.83-1.28 1.35-.18.558-.464 1.24-.376 2.22.042.49.26 1.14.75 1.598.49.46 1.154.646 1.75.685.713.05 1.364 0 2-.374.633-.375 1.044-1.14 1.123-1.75.16-1.216-.31-1.98-.69-2.595-.156-.253-.385-.433-.655-.56-.03-.016-.464-.337-1.154-.564-.17-.05-.375-.14-.625-.152-.063-.004-.12 0-.188 0zm247.81 4.79c-.2.01-.42.04-.657.13-.626.238-1.084.856-1.25 1.375-.173.554-.467 1.24-.374 2.22.046.49.29 1.136.78 1.593.495.456 1.125.62 1.72.655.716.044 1.367.003 2-.376.63-.38 1.08-1.14 1.156-1.75.153-1.218-.34-1.95-.72-2.566-.16-.255-.415-.466-.687-.593-.033-.014-.433-.34-1.124-.562-.176-.057-.408-.11-.66-.127h-.19zm-61.126 1.47h.342c.156.01.3.01.47.03 1.353.17 3.083 1.09 3.28 1.25.767.658.872 1.26.75 1.91-.117.62-.58 1.2-1.125 1.47-.228-.09-.488-.202-.75-.22-1.028-.082-1.955.616-2.157 1.626-.2 1.01.394 2.03 1.375 2.344 0 .005.026 0 .03 0 .095.07.04.07.22.157.42.21 1.026.3 1.5.25.47-.05.85-.19 1.28-.377 1.916-.816 3.226-2.546 3.593-4.5.173-.91.103-1.9-.187-2.844.9.13 1.814.213 2.75.22 1.045.004 2.11-.08 3.12-.347-.032.56-.09 1.13-.123 1.69-.755.5-1.36 1.122-1.78 1.78-.98 1.52-1.46 3.1-2.127 4.25-.986 1.7-1.95 2.492-3.25 2.904-1.305.413-3.176.395-5.845-.31-2.135-.566-3.37-1.806-3.97-3.564-.6-1.754-.47-4.09.75-6.56.3-.6.59-.834 1-1 .23-.09.52-.136.844-.155zm49.842 3.97c-.6.01-1.16.35-1.438.88-.456.835-.392 1.36-.406 2.03-.01.674.037 1.41.096 2.157.118 1.493.3 3.005.376 3.72.095.904.91 1.595 1.81 1.5.905-.096 1.566-.94 1.47-1.845-.086-.83-.266-2.253-.375-3.624-.055-.686-.104-1.36-.095-1.845.005-.24.04-.477.063-.593-.013.02-.034.012-.06.06.29-.51.3-1.118 0-1.626-.3-.505-.85-.82-1.44-.812zM602 247.55c-1.066 1.42-1.792 2.75-2.47 3.78-.786 1.196-1.437 2.005-2.687 2.72-3.085 1.77-4.052 2.567-7.47 3.313-2.965.648-10.05-.702-12.967-2.25-.22-.126-.446-.197-.687-.25.07-2.12.2-4.274.25-6.5 3.66 2.22 6.71 2.723 11.47 2.75 5.1.035 10.07-1.415 14.56-3.56zm-142.47.03c4.507 2.13 9.48 3.53 14.594 3.47 4.754-.055 7.822-.55 11.47-2.78.062 2.226.196 4.373.28 6.5-.236.043-.466.13-.688.25-2.91 1.56-9.97 2.944-12.94 2.31-3.42-.725-4.403-1.53-7.5-3.28-1.253-.71-1.957-1.53-2.75-2.72-.682-1.024-1.395-2.335-2.47-3.75zm-288.25 2.157c3.456 2.35 6.457 2.974 11.094 3.25 4.976.298 9.854-.8 14.343-2.656-1.11 1.33-1.845 2.56-2.56 3.53-.83 1.123-1.524 1.9-2.78 2.53-3.1 1.567-4.1 2.267-7.47 2.815-2.925.48-9.735-1.18-12.5-2.843-.21-.132-.45-.222-.686-.28.18-2.07.4-4.172.57-6.343zm-68.156 5.063c.17.126.29.205.47.342.453.346.936.697 1.373 1 .22.152.447.28.658.406.213.126.335.255.813.375.41.12.823.088 1.19-.06-.04.63-.08 1.25-.125 1.877-.52-.056-1.053.13-1.438.5-3.08 2.744-5.105 3.82-8.19 3.407-3.866-.516-4.795-1.64-8.31-4-.327-.22-.83-.78-1.346-1.5 1.42.225 2.61.135 3.31.31 1.562.396 3.014-.21 4-.906.52-.366.934-.794 1.31-1.187.212.35.32.567.653 1 .413.534 1.215.883 1.81.875.6-.002 1.01-.165 1.345-.34.67-.346 1.125-.773 1.595-1.22.33-.304.605-.59.876-.872zm209 1.592c-.53.037-1.026.32-1.31.812-.46.788-.19 1.795.592 2.25.34.2.78.49 1.25.846.156.496.54.91 1.06 1.06-.04.01.18.13.44.44.346.41.792 1.072 1.28 1.78.976 1.416 2.047 3.103 3.72 4.19 3.39 2.2 5.234 3.736 9.686 4.716 4.074.9 7.386-.155 10.72-2.22 1.36-.84 2.744-2.19 3.97-3.654 1.224-1.46 2.266-2.95 2.75-4.407.01-.024-.01-.037 0-.062.735-.45 1.57-.9 2.624-1.59.398-.26.527-.46.53-.47.52-.44.73-1.17.5-1.81-.222-.64-.816-1.072-1.5-1.092-.425-.01-.84.15-1.153.44-.118.107-.184.19-.218.22-1.59 1.04-2.937 1.584-4.5 2.968-.508.45-1.39 1.136-2.22 1.594-.728.405-1.35.485-1.5.5.08.047.103.09-.06.03 0 0 .04-.024.06-.03-.105-.05-.326-.14-.53-.28-.367-.24-.836-.58-1.28-.905-.45-.32-.906-.63-1.25-.874-.177-.12-.33-.22-.47-.31-.07-.043-.11-.096-.22-.154-.056-.03-.14-.046-.28-.096s-.28-.356-1.19.03c-.66.282-.755.465-1.093.72-.337.255-.712.52-1.06.75-.166.11-.24.146-.376.22-.254-.36-.46-.71-.873-1.16-.315-.34-.747-.77-1.5-.94-.755-.166-1.643.174-2.157.627-.42.37-.93.776-1.406 1-.477.223-.842.263-1.28.124-2.01-.632-3.778-.583-5.25-1.28-1.685-.796-3.668-2.672-5.56-3.78-.297-.17-.62-.21-.94-.19zm16 7.094c.24.33.49.704.97 1.25.376.424.94.67 1.404.716.47.05.87-.026 1.187-.127.64-.2 1.123-.5 1.593-.81.384-.252.703-.493 1-.72.26.19.5.34.813.564.46.33.95.683 1.38.97.43.286.607.495 1.315.717.62.195 1.203.204 1.75.124-.61.586-1.214 1.102-1.656 1.375-3.01 1.86-5.074 2.53-8.344 1.81-3.974-.876-5.093-1.99-8.62-4.28-.284-.185-.594-.46-.94-.845 1.18.243 2.21.333 2.94.562 1.358.43 2.65.143 3.627-.315.653-.303 1.16-.652 1.594-1zm182.124 1.123c-.308-.005-.583.026-.844.092-1.04.27-1.717 1.01-2.28 1.62-.75.823-1.347 1.737-1.813 2.53-.43.657-.47 1.483-.12 2.157.35.673 1.02 1.083 1.78 1.06.76-.02 1.48-.46 1.847-1.16.373-.63.885-1.34 1.28-1.78.22-.24.317-.294.283-.31 1.032-.09 1.86-.965 1.935-2.03.077-1.097-.654-2.033-1.72-2.157-.106-.01-.24-.03-.343-.03zm6.187 5.06c0 .002-.78.188-.78.188 0 .005-.24.14-.315.19-.287.2-.327.264-.375.314-.093.1-.1.12-.124.15l-.09.126c-.06.08-.13.164-.22.28-.16.24-.38.585-.62.94-.484.71-1.05 1.535-1.44 2.092-.46.625-.58 1.436-.28 2.126.3.69.97 1.144 1.72 1.186.75.04 1.458-.32 1.878-.97.4-.58.99-1.423 1.47-2.125.24-.35.475-.66.625-.874.027-.034.01-.062.034-.093.465-.49.695-1.186.595-1.844l-.594-1.124zm-223.374 8.44c-.03 1.82.03 3.553-.06 5.063-.12 1.996-.22 4.004-.342 6-.132 2.18.02 4.133-.093 6-.114 1.9-.226 3.816-.342 5.72l-.06 1c-.082-.108-.164-.208-.25-.315-3.314-4.122-8.536-7.9-10.593-10.72-1.426-1.952-1.578-3.068-1.375-3.842.202-.77.99-1.65 2.5-2.685 2.52-1.72 6.663-3.51 10.623-6.22zm-250.37 4.907c5.24 5.51 12.92 8.626 18.75 11.687 4.02 2.11 8.8 3.29 11.54 5.03 0 .07-.007.127 0 .18-2.266-.57-4.61-.46-6.91-.37-2.75.11-5.422.21-7.467-.31-1.12-.285-2.01-.36-2.6-.41-.05-.396-.11-.867-.19-1.813-.062-.774-.624-1.576-1.154-1.906-.53-.33-.99-.383-1.406-.44-.83-.107-1.587-.07-2.346 0-.76.073-1.49.177-2.03.22-.143.013-.21.028-.312.03-.13-.154-.37-.433-.62-.873-.424-.746-.88-1.785-1.344-2.875-.926-2.18-1.715-4.423-2.562-5.874-.464-.8-.93-1.564-1.34-2.28zm606.63.78c.1.002.186.01.28 0v1.314c-.014 2.157-.22 4.01-.28 6.343-15.22 2.53-30.34 2.04-46 1.25-8.92-.71-18.76-.79-27.35-.403.02-2.21.02-4.41.03-6.62.007-.2.007-.392 0-.592 20.59-.61 28.76 2.95 57.818.596 1.72-.08 3.415-.134 5.093-.124 4.233.03 7.08-1.77 10.406-1.75zm-237.19.282c.1.01.21.033.31.03 3.328-.04 6.178 1.737 10.41 1.687 1.677-.02 3.376.02 5.095.09-.04.26-.083.835.125 1.626.536 2.03 1.607 5.89 2.78 9.15.59 1.635 1.166 3.105 1.846 4.25.34.577.63 1.095 1.346 1.596.36.25.906.52 1.596.5.693-.02 1.375-.397 1.75-.78 1.01-1.036 3.955-4.45 6.845-7.597 1.27-1.38 2.49-2.66 3.436-3.59.17.72.5 1.404.964 1.874.82.834 1.787 1.37 2.844 1.69-.81.584-1.205 1.317-1.563 2.186-.377.917-.673 2.007-.937 3.405-.97 5.17-.855 8.403.155 12.25.41 1.56.65 3.447 1.47 5.094.207.412.49.84.94 1.25.45.413 1.18.8 1.97.78 1.577-.035 2.398-.995 3.156-2.03.36-.485.695-1.095 1.22-2 .53-.905 1.15-2.01 1.75-3.126.605-1.11 1.17-2.202 1.596-3.12.213-.456.422-.854.56-1.25.07-.195.107-.4.157-.655s.263-.545-.093-1.406c-.296-.718-1.58-3.997-2.75-6.97-.585-1.488-1.157-2.926-1.625-4-.055-.13-.1-.225-.155-.346.31-.176.59-.396.78-.627.443-.535.61-1.053.72-1.5.214-.89.203-1.65.22-2.343.005-.325.014-.397.03-.627.384.292.85.43 1.343.406.18.11.286.17.59.403.995.753 2.45 2.013 3.91 3.373 1.457 1.36 2.95 2.834 4.156 4.064 1.206 1.23 2.2 2.344 2.343 2.53.283.37.71.784 1.435.97.73.187 1.577-.037 2.03-.343.917-.61 1.1-1.215 1.38-1.842.56-1.252.953-2.81 1.312-4.53.36-1.722.636-3.575.844-5.157.208-1.58.356-2.8.344-3.69-.007-.457.005-.89 0-1.346 2.76-.008 5.152.136 7 .564 0 .2-.004.394 0 .592l.092 8c.033 2.72-.696 5.583-.656 9 .015 1.1-.17 6.94-.374 12.5-.126 3.41-.27 6.555-.346 8.873-2.74-.044-6.295-.158-9.06-.127-1.464.02-2.91.115-4.346.22-.19-.01-.38-.004-.564.03-4.606.37-9.036.966-13.128.5-5.848-.66-11.295.584-15.97-.53-5.61-1.33-12.297.07-17 .126-3.28.04-6.224.34-9.25.376-.125.004-.25 0-.375 0-.05-.794-.11-1.705-.186-2.874-.17-2.597-.4-5.91-.62-9.22-.224-3.31-.456-6.61-.625-9.19-.17-2.57-.28-4.66-.28-4.75-.03-2.38-.545-4.286-.564-5.904-.03-2.77-.315-4.77-.343-7.19-.003-.44-.025-.9-.03-1.345zm62.47.47c0 .43-.01.85 0 1.28 0 .29-.09 1.607-.28 3.093-.2 1.49-.48 3.26-.814 4.84-.19.906-.39 1.4-.594 2.094-.337-.35-.49-.514-.907-.94-1.25-1.273-2.77-2.774-4.28-4.186-1.51-1.41-2.97-2.73-4.19-3.655-.61-.46-1.12-.83-1.75-1.12-.183-.085-.383-.187-.655-.25 2.276-.233 4.555-.442 6.81-.656 2.278-.215 4.53-.388 6.657-.5zm-300.41.686c1.49.025 3.11.135 4.816.28-.577 1.04-1.584 2.43-2.907 3.66-1.95 1.815-4.467 3.38-6.847 3.906-.04.01-.17.034-.28.032.136-2.32.3-4.648.436-6.97.012-.194-.01-.398 0-.594.973-.176 2.093-.25 3.343-.28.462-.012.942-.04 1.44-.032zm-71.25.095c-.49 1.488-.85 3.03-1.37 4.35-.417 1.056-.888 1.92-1.346 2.375-.456.454-.765.61-1.5.56-5.735-.38-9.17-.2-13.72-2.47 6.045-.55 12.395-2.31 17.94-4.81zm356.598.568c-.14.067-.3.115-.437.22-.04.03-.057.09-.095.125-.092-.065-.18-.137-.282-.19-.062-.03-.157-.05-.25-.06.354-.035.708-.06 1.063-.095zm-276.25.095c1.156.143 2.317.268 3.5.437 6.9.986 14.18 2.304 20.094 2.656 6.694.4 13.184 0 19.375.065-.097 2.05.513 3.952 1.5 5.5 1.28 2.014 3.13 3.53 4.968 4.72 2.96 1.91 5.84 2.965 6.907 3.31-.06.597-.2 2.04-.44 4.095-.286 2.503-.66 5.72-1.03 8.935-.376 3.216-.777 6.442-1.065 8.97-.13 1.132-.227 2.01-.312 2.78-.12-.008-.25.006-.373 0-2.95-.177-5.802-.59-9-.78-4.585-.277-11.027-1.978-16.563-.94-4.61.864-9.86-.59-15.595-.22-5.417.35-11.357-1.19-17.562-1.563-2.7-.16-6.17-.252-8.84-.343.035-2.267.085-5.335.124-8.66.06-5.43.124-11.113.19-12.188.12-2.016-.044-3.87-.16-5.596.32-.01.716-.033 1.12-.124 3.37-.75 6.39-2.676 8.75-4.875 2.108-1.96 3.71-4.03 4.407-6.19zm248.844.125c4.57.277 9.27.626 14.094.625-.327.266-.656.58-1.03.935-1.117 1.07-2.56 2.557-4.032 4.157-2.326 2.532-4.11 4.542-5.342 5.905-.34-.72-.676-1.4-1.06-2.47-1.077-2.99-2.134-6.736-2.657-8.72.014 0 .034-.22.03-.44zm-191.75 2c.2 0 .39-.012.594 0 .104.007.216.036.313.03-.026.433-.07.85-.095 1.28-.14 2.36-.496 4.3-.657 7-.04.655-.196 1.4-.343 2.158-1.32-.49-3.385-1.395-5.28-2.623-1.534-.99-2.905-2.187-3.72-3.47-.65-1.015-1.01-2.016-.907-3.22.156.01.32.025.47.034 3.87.233 6.63-1.17 9.627-1.187zm-199.22.125c.478 1.095 1.175 2.82 1.876 4.466.49 1.153 1.007 2.3 1.566 3.283.558.98 1 1.86 2.22 2.5.64.33.99.3 1.345.31.354.01.686-.007 1.03-.03.69-.06 1.432-.19 2.094-.25.372-.04.536 0 .814 0 .045.5.078 1.09.156 1.5.07.36.18.733.405 1.15.224.42.65.866 1.09 1.097.884.46 1.39.362 1.906.403.514.046 1.12.09 2 .316 2.88.73 5.823.543 8.53.435 2.705-.102 5.12-.112 6.69.5.05.025.1.05.153.067.01 1.82.004 3.524 0 3.814-.02 2.305-.54 10.195-1.09 17.97-.52 7.367-1.04 14.446-1.25 17.5-2.468.026-4.83.165-6.844.03-4.94-.325-9.9-.64-14.843-.97-2.85-.185-5.68-.37-8.53-.56-1.33-.09-2.354-.17-3.19-.44-.19-.06-.39-.116-.59-.123h-.03c.097-.917.22-2.035.375-3.47.34-3.19.798-7.445 1.25-11.688.454-4.24.88-8.464 1.22-11.658.17-1.594.337-2.93.437-3.873.05-.47.1-.84.127-1.097.01-.126-.01-.24 0-.31v-.03c0-.003.02-.01.03-.156.13-1.97-.07-3.337.03-4.875.65-6.63.54-10.52 1.03-15.81zm411.84.46c.2.03.468.09.75.158.286.066.6.132.908.217.11.03.175.063.28.094-.006.29-.053.66-.06.94-.006.32-.04.45-.06.71-1.58-.16-2.78-.604-3.063-.78.113-.214.506-.7 1.25-1.344zm-382.44 1.03c1.3.235 2.76.385 4.315.47.13.067.29.12.437.157 1.35.394 5.45 1.894 6.81 2.655 5.856 3.27 10.43 3.045 16.347 3.436 1.775.12 3.397-.616 4.47-1.686.603-.604 1.05-1.286 1.435-2-.11 1.64-.2 3.3-.31 4.936-.12 1.808-.224 3.603-.344 5.408-.104 1.616-.233 3.228-.34 4.843-.074 1.11-.51 10.89-.938 20.53-.21 4.82-.44 9.54-.56 12.96-.06 1.713-.08 3.07-.093 4-.004.174 0 .296 0 .44-.018-.01-.056-.06-.064-.06l-.186-.03c-.06-.01-.076 0-.093 0h-1.47c-.84-.006-2-.026-3.22-.03-2.424-.02-5.18-.03-6.12-.097-4.306-.284-8.477-.6-12.38-1.656-1.206-.323-2.456-.514-3.69-.624.21-3.06.73-10.074 1.25-17.375.55-7.785 1.07-15.4 1.094-18.155.003-.4.016-2.686 0-4.91-.01-1.11-.035-2.21-.063-3.06-.015-.425-.01-.76-.03-1.064-.013-.15-.037-.3-.065-.465-.016-.084-.02-.156-.065-.314-.046-.155.094-.41-.718-1.03-1.64-1.256-3.57-2.143-5.53-2.906.01-.15.015-.29 0-.44-.024-.31-.004-2.077.096-3.467.012-.188.014-.294.03-.47zm226.096 1.69c11.815.296 28.47 2.646 42.53 2.782 3.04.03 6.756.207 10.312.156 3.437-.05 6.704-.254 9.343-1.19.04.006.34-.044.59-.03.195.012.375.046.593.062-.05.64-.1 1.275-.124 1.688-.007.05 0 .106 0 .156.11 8.146-.78 12.11-1.034 20.563-.093 1.535-.47 2.81-.593 4.78-.014.245-.003.254 0 .25 0 .046-.002.12 0 .186.007.14.02.313.03.56.026.498.087 1.207.127 2.03.08 1.658.17 3.847.28 6.03.11 2.19.23 4.38.313 6.036l.03.59c-.174-.05-.35-.11-.53-.16-1.283-.32-2.44-.73-3.69-.81-2.85-.177-5.71-.36-8.56-.53-4.944-.3-9.87-.57-14.813-.88-3.024-.185-6.722-1.12-10.53-1.28-1.27-.053-2.573-.02-3.843.155-4 .55-8.166.296-12.47.033-1.116-.07-4.68-.267-7.97-.47-1.31-.08-2.45-.155-3.5-.22.004-.045.02-.077.03-.125.28-1.97.644-4.725 1-7.597.353-2.867.7-5.86.97-8.217s.46-3.92.5-4.596c.1-1.617.18-3.23.28-4.845.11-1.808.23-3.6.34-5.41.12-1.9.23-3.816.347-5.72.087-1.433.04-2.76.03-4zm352.28 4.25c-.1.8-.18 1.636-.188 2.564 0 .074-.1 1.736-.22 3.78-14.84 2.49-29.62 1.98-44.906 1.186-8.803-.722-18.5-.763-26.965-.375v-.153c.014-2.293-.314-4.328-.53-6.25 8.434-.373 18.2-.32 26.91.376.014.006.042-.003.06 0 15.356.777 30.47 1.3 45.844-1.124zm-340.22 2.126c-.896-.01-1.7.58-1.97 1.44-.264.86.07 1.78.815 2.28.11.077.2.158.37.596.177.44.363 1.14.813 2 .45.86 1.24 1.85 2.405 2.5 1.165.65 2.626 1.006 4.53 1.123 2.325.142 4.27-.968 5.31-2.283 1.046-1.313 1.5-2.663 2-3.53.4-.63.458-1.443.095-2.095-.36-.65-1.07-1.04-1.81-1.03-.743.01-1.433.404-1.78 1.063-.737 1.273-1.2 2.45-1.687 3.06-.49.614-.67.824-1.875.75-1.503-.09-2.36-.37-2.812-.625-.45-.25-.59-.446-.78-.81-.19-.365-.36-.916-.655-1.658-.3-.74-.81-1.747-1.816-2.438-.337-.24-.747-.34-1.157-.35zm-160.56.066c-.038.043-.074.055-.094.06.007-.006-.004-.02 0-.03.028-.014.086-.025.095-.03zm305.344 1.4c.662 1.317 1.35 3.315 1.905 5.31-.51-.67-1.03-1.383-1.25-1.81-.31-.6-.37-.88-.94-1.47-.046-.05-.12-.09-.186-.154l.03-.156c.15-.806.28-1.22.434-1.72zm-120.377.31c-.262.005-.52.05-.78.16-1.034.44-1.5 1.655-1.062 2.687.4.92.69 2.32 1.57 3.75.876 1.43 2.676 2.76 5 2.9 1.904.12 3.39-.06 4.625-.56 1.238-.5 2.138-1.357 2.69-2.157.55-.8.836-1.525 1.063-1.94.23-.41.29-.47.407-.53.823-.405 1.27-1.287 1.093-2.19-.174-.9-.93-1.593-1.842-1.657-.387-.03-.78.066-1.124.25-1.082.563-1.71 1.49-2.093 2.19s-.61 1.223-.842 1.56c-.236.34-.397.525-.878.72-.48.195-1.34.373-2.844.28-1.204-.074-1.34-.33-1.75-1-.41-.667-.765-1.86-1.343-3.22-.33-.774-1.08-1.25-1.875-1.25zm209.095 3.25c-.557.05-1.09.29-1.47.72-.043.03-.06.03-.125.065-.32.173-.837.44-1.406.685-1.138.496-2.56 1.03-2.908 1.123-.757.176-1.368.74-1.596 1.47-.227.73-.04 1.51.5 2.03.54.524 1.354.705 2.094.47.95-.26 2.223-.784 3.5-1.344.64-.28 1.24-.57 1.75-.84.255-.136.49-.25.75-.436.13-.093.253-.21.436-.406.184-.194.523-.452.624-1.282.15-1.08-.577-2.07-1.66-2.25-.09-.013-.16.004-.25 0-.08 0-.17-.006-.25 0zm-454.93 1.09c-1.07-.018-1.95.81-1.97 1.876-.02 1.07.838 1.98 1.907 2 2.048.136 4.556.295 6.563.438 1.01.072 1.9.15 2.54.187.32.02.57.03.78.04.1.003.16.003.28 0 .06 0 .123.02.28 0 .073-.01.15-.03.402-.126.13-.046.306-.093.594-.343.143-.124.466-.593.466-.594l.22-1.03c-.036-.547-.32-1.067-.75-1.407-.43-.34-.99-.468-1.532-.376-.14-.004-.29-.015-.53-.03-.605-.035-1.47-.085-2.47-.156-1.995-.14-4.52-.33-6.593-.47-.06 0-.122.01-.185 0zm-77.094.72c.015-.01.044.015.032.03l-.07.064c.025-.057.015-.084.03-.094zm541.375.406c-.19.016-.354.066-.47.094-.304.076-.456.12-.593.187-.28.14-.44.27-.63.4-.37.263-.73.58-1.128.904-.8.65-1.74 1.4-2.04 1.594-.675.395-1.074 1.115-1.06 1.875.014.76.436 1.43 1.126 1.75.69.32 1.52.24 2.156-.22.83-.54 1.655-1.26 2.41-1.88.343-.28.645-.51.843-.658.804-.24 1.404-.94 1.53-1.75.13-.81-.236-1.586-.934-2-.282-.176-.54-.276-.78-.315-.08-.01-.146 0-.22 0-.07 0-.15-.007-.216 0zm96.72 1.125c-.12 1.91-.214 3.74-.345 5.85-14.616 2.448-29.19 1.98-44.25 1.19-8.71-.724-18.275-.794-26.656-.407-.08-2.097-.18-4.216-.25-5.906 8.32-.384 17.99-.3 26.6.407.02.005.04-.004.06 0 15.023.78 29.793 1.28 44.84-1.125zM67.98 308.13c-.686.116-1.224.64-1.41.938-.21.34-.245.5-.28.657-.14.627-.073.902-.062 1.28.02.762.068 1.728.06 1.845-.07 1.065.748 1.99 1.814 2.06 1.066.074 1.96-.745 2.03-1.81.048-.716-.004-1.37-.03-1.94.338-.604.325-1.34-.032-1.936-.075-.13-.142-.293-.343-.5-.203-.207-.616-.583-1.44-.594-.102 0-.214-.015-.31 0zm387.56 2.53c.076.053.14.143.22.19l-.158.28c-.024-.142-.034-.32-.062-.47zm192.156 5.533c-.108 1.782-.256 3.73-.344 5.188-.07 1.17-.11 2.08-.156 2.88h-.375c-3.02-.02-6-.29-9.28-.31-4.7-.03-11.36-1.42-16.97-.06-4.67 1.14-10.15-.06-16 .63-4.09.488-8.51-.06-13.12-.404-.17-.034-.32-.04-.5-.033-1.44-.1-2.9-.177-4.37-.187-2.77-.02-6.32.1-9.06.154-.07-1.877-.2-4.53-.31-7.19 8.228-.38 17.758-.3 26.25.407h.065c14.793.777 29.37 1.297 44.186-1.063zM68.04 321.036c-.823-.01-1.538.6-1.75.938-.21.34-.245.53-.28.687-.14.63-.073.88-.063 1.25.02.77.07 1.76.063 1.88-.05.7.267 1.34.844 1.72.576.39 1.347.44 1.968.13.62-.3 1.022-.93 1.063-1.62.047-.712-.036-1.37-.063-1.94.344-.603.33-1.334-.03-1.933-.077-.13-.143-.292-.345-.5-.2-.205-.583-.582-1.406-.593" fill="#fff"/></g></svg>