<svg viewBox="0 0 691 394" xmlns="http://www.w3.org/2000/svg"><g fill-rule="evenodd"><path d="M488.537 104.76c-4.85 8.875-5.014 21.434-6.008 32.684-.65 8.646.1 19.412 5.3 24.31 23.13 12.553 50.72 10.795 74.38 2.82 6.24-2.317 12.31-8.018 14.96-17.86 4.71-16.345 2.08-39.11-7.75-49.612-22.46-20.242-61.27-21.682-80.9 7.66" fill="#00aaef"/><path d="M352.233 170.306c-32.27 1.034-69.414-.516-97.862-.446-14.34-1.924-37.57.005-42.38-4.465-16.43-13.18-11.06-32.806-8.52-47.746-2.04-4.17 7.6-12.31 20.66-13.68 33.64-5.68 71.37-3.81 105.87-2.51 30.89 1.14 42.48-1.45 65.83 4.86 33.35 8.71 23.97 43.37 10.01 54.7-6.04 4.39-19.47 8.55-35.19 8.53-6.13.26-12.27.52-18.4.74" fill="#6adf5f"/><path d="M370.572.005c-9.846.27-19.69.604-29.53.97-5.89.426-11.6 3.61-15 8.842-4.755 7.194-6.06 16.174-6.5 24.782-.333 8.24.226 16.55 1.405 24.68 1.266 5.59 4.317 10.66 8.22 14.59 3.99 3.77 9.53 4 14.56 4.59 8.214 1.35 16.57 1.49 24.876 1.43.748.52.417 1.87.75 2.72.302 1.97.677 3.94 1.156 5.87-9.58.382-19.16.9-28.75.56-16.07-.426-32.18-.906-48.22.344-29.52 1.15-59.54-3.903-88.66 2.5-.04.927-.1 1.86-.22 2.78-.02.14-.05.27-.07.41 30.32-7.01 62.99-.724 94.78-2.94 22.58-1.57 44.33 1.11 66.97-.47 1.56-.105 3.26-.185 5-.216.58 1.78 1.29 3.502 2.19 5.156 2.81 6 6.14 11.816 10.47 16.72 1.47 1.94 2.47 4.4 4.53 5.717 1.36.906 3.33-.206 3.25-1.97-.22-2.7-1.95-4.94-3.1-7.28-1.29-2.298-2.83-4.437-3.57-7.03-1.33-3.597-2.52-7.307-3.346-11.097 5.14.25 10.24.666 14.435 1.22 6.61.87 13.937 1.85 20.72 3.53 6.555 1.63 10.02 4.862 12.156 9.03 2.14 4.17 2.83 9.34 3.44 14.53 1.32 11.224 4.23 21.27-4.47 29.814-4.633 4.55-13.605 6.9-23.188 7.813-9.586.916-19.71.45-26.63-.19-13.61-1.252-27.252.65-40.44-.22-7.38-.48-15.45-.63-22.75-.122-7.56.53-16.352.95-23.56 0-4.81-.63-10.573.577-14.283 2.784-.3.18-.504.467-.563.78-.13.72-.42 2.5-.217 4.25.83 7.06 3.175 14.556 6.626 21.128 2.54 4.833 6.19 9.196 9.22 12.97.456.57.736 1.02 1.156 1.56-5.96-5.862-13.175-13.013-15.655-15.78-4.66-5.2-6.783-11.444-9.373-17.437-.95-2.204-1.786-6.153-2.09-8.75-.04-.317-.245-.62-.53-.813-.29-.195-.645-.27-1-.22-13.365 1.92-27.676.38-41.565 1h-.03c-10.434.903-21.872-.908-31.03-6.28-4.38-3.55-6.476-6.026-7.47-8.877-.996-2.863-.893-6.312-.56-11.652v-.03c.034-6.25-.01-11.985.626-16.97-1.223.3-2.41.5-3.533.628-.8 7-.18 14.23-.72 21.22-.42 5.413 1.47 10.972 5.69 14.683 5.15 5.548 12.886 7.894 20.19 9.5 9.67 2.087 19.562.28 29.342.72 9.176.115 18.404.415 27.53-.66.986 6.756 4.19 12.97 7.16 19.09 4.39 7.99 11.916 13.71 18.126 20.347 3.3 3.086 6.293 6.59 9.81 9.41 2.02.87 3.753-1.573 2.655-3.28-2.46-6.42-8.13-11.06-11.813-16.78-5.38-7.793-8.56-16.89-9.407-26.155-.384-2.2 2.54-2.2 4.096-2.81 5.84-1.558 11.82.45 17.78.062 10.985-.12 21.945-1.466 32.94-.627 15.85 1.316 31.765-1.18 47.59.717 13.4.69 27.386.864 40.093-3.81 8.99-3.16 15.23-11.91 15.19-21.067.04-7.6-1.5-15.045-2.44-22.56-1.025-7.25-4.68-14.764-11.934-18-7.256-3.15-15.395-3.82-23.19-5.064-6.2-.89-12.45-1.443-18.715-1.715-.46-2.9-.65-5.855-.5-8.814 3.41-3.15 8.22-3.73 12.597-3.62 7.39.28 14.896 1.59 22.22-.06 6.046-1.19 12.306-4.41 15.22-10.5 2.5-5.18 4.022-11.11 3.34-16.94.335-11.02-.21-22.36-4.096-32.69-2.435-6.37-6.927-12.33-13.345-14.22-3.54-.958-7.268-.91-10.91-1.31-7.34-.67-14.71 0-22.08-.27-4.35-.07-8.71-.19-13.06-.158zM181.228 115.38c.125-1.083.266-2.18.47-3.25-.956.107-1.915.17-2.876.094-1.806-2.347-4.83-2.666-7.563-2.594-8.78 1.53-17.52 3.31-26.35 4.594-14.29 1.908-28.48-7.038-35.13-19.407-4.62-8.14-4.5-19.086 1.78-26.343 6.83-8.14 17.31-12.362 27.53-14.22 16.54-2.773 34.87.262 48.31 10.563 7.07 5.625 13.42 13.524 13.93 22.907.19 1.597.21 3.224.09 4.874.687-.146 1.38-.266 2.064-.374.456-.106.917-.212 1.373-.313.18-4.36-.53-8.67-1.716-12.43-.006-.01.005-.02 0-.03-.036-.1-.05-.18-.095-.28-6.787-15.07-21.56-24.3-38.064-27.59l-.78-.15c-.273-.05-.546-.11-.81-.15-6.43-1.125-13.117-1.36-19.72-.72-.99.1-1.984.21-2.97.347-2.954.406-5.875 1.01-8.75 1.78-.02.01-.07-.007-.09 0-.04.01 0 .02-.03.03-13.36 4.13-21.72 10.596-25.78 18.093-4.06 7.496-3.68 15.72-.57 23 6.225 14.54 23.118 26.195 40.19 23.47 15.206-2.43 21.054-3.67 23.687-4.22 2.666-.555 1.158-.397 4.22-.157.635.05.965.127 1.06.156.1.03.03 0 .16.09.046.04.814.84 2.093 1.78.517.385 1.12.605 1.78.63h.313v-.03c.7.004 1.46-.04 2.22-.13zm20.22-22.78c-7.236 1.56-14.34 5.38-17.44 12.092-1.11 2.422-1.83 4.904-2.31 7.438 1.21-.134 2.405-.374 3.593-.72.29-1.345.67-2.614 1.13-3.81 2.15-5.63 6.14-9.6 14.6-11.69.23-1.086.36-2.205.44-3.31zm-.44 3.31c-1.116 5.464-4.084 10.496-9.25 13-2.06.93-4.24 1.856-6.468 2.5-.227 1.062-.384 2.2-.53 3.345 1.03-.25 2.057-.56 3.124-.906 3.314-1.08 6.668-2.54 9.125-4.6 4.57-3.84 6.83-8.99 7.59-14.16l-.66.15c-.03.01-.04.02-.07.03-1.02.18-1.97.4-2.88.62zM372.104 3.88c8.418.072 16.834.37 25.25.094 5.772.033 11.553.55 17.28 1.218 5.003.875 8.823 5.108 10.94 9.813 3.94 8.584 4.81 18.365 4.968 27.812.072 2.803-.22 5.594.032 8.375-.22 4.75-1.55 9.434-3.625 13.625-3.07 4.898-8.69 7.023-13.94 7.782-7.41 1.24-14.83-.62-22.25-.38-4.51.22-9.24 1.48-12.63 4.81-1.64 1.99-1.06 4.85-1.1 7.28.29 5.46 1.61 10.76 3.31 15.9-.87.96-1.11-.85-1.57-1.41-2.01-3.92-4.15-7.85-5-12.28-.67-3.56-1.36-7.17-1.377-10.82.51-1.54-1.12-3.21-2.53-2.438-.973.4-1.057 1.61-1.157 2.53-1.01.467-2.39.116-3.53.22-7.556-.104-15.135-.326-22.594-1.625-4.054-.59-8.816-.8-11.813-4.25-2.844-3.454-5.165-7.54-6.31-12-1.32-9.775-1.905-19.78-.78-29.623.882-6.91 2.705-14.236 7.592-19.188C334.7 5.8 339.6 4.54 344.25 4.71c9.272-.27 18.564-.71 27.84-.845zm164.28 56.125c-2.132.005-4.26.126-6.342.343-8.486.81-17.354 2.547-24.5 7.407-7.974 4.875-9.662 16.364-4.406 23.78 6.608 8.457 18.46 10.075 28.532 9.657 4.188.217 8.29-1.91 12.406-1.25 1.65 1.412 1.64 3.59 1.437 5.75-.6-.017-1.21-.036-1.84-.03h-.09c-5.57-.19-11.12-.375-16.69-.564-6.4-.216-18.15.298-24.15.094-5.81-.196-10.78.108-17.87.782h-.03c-.03.003-.06.03-.09.03-7.55.337-13.32 2.123-16.874 6.876-3.553 4.755-4.685 11.837-4.5 22.25-.964 5.414 1.217 12.12 3.5 16 .02.036.04.06.064.094 2.824 4.26 7.366 6.513 12 7.656 4.63 1.145 9.455 1.21 13.34.937 3.27-.256 6.94.148 10.81-.594 3.467-.522 6.637-.472 9.28 1.22.406.317.73.568.75.593 0 .015-.03-.006-.03.063v.06c.234 7.47-2.61 15.22-5.75 22.28-.193.29-2.05 3.01-3.53 5.53-.77 1.31-1.43 2.46-1.78 3.62-.09.29-.156.58-.16 1.03 0 .45.103 1.31.875 1.9.77.59 1.64.49 2.09.37.45-.12.75-.31 1.06-.5.13-.08.237-.15.344-.25 2.022-1.96 3.01-4.08 4.374-5.41l.064-.06c4.543-4.8 7.77-10.64 10.654-16.22l.03-.03c1.07-2.12 2-5.21 2.47-7.565.26-1.326.66-2.91.93-4.53 5.86.125 16.897-.21 22.22-1.095 4.86-.806 11.12-.33 15.815-4.873 3.3-3.19 6.997-8.78 7.72-13.844 1.525-9.61 1.087-18.49-3.064-25.22-3.5-5.68-9.68-9.45-18.626-10.407.07-.925.156-1.825.376-2.685 6.83-3.013 14.6-6.1 18.75-12.84 4.61-6.915 1.7-16.236-4.153-21.44-6.75-6.712-16.165-8.952-25.41-8.932zm-.53 3.406c.78-.01 1.568 0 2.344 0 5.18.07 10.295.84 14.875 3.47 6.625 3.52 13.672 10.56 11.5 18.72-2.723 7.68-10.884 11.58-18.094 14-1.52-1.68-3.44-3.55-6-3.19-10.03 1.93-20.91 2.73-30.38-1.75-7.58-2.92-11.38-13.06-6.88-19.96 5.86-7.9 16.5-9.74 25.68-10.87 2.28-.17 4.6-.35 6.93-.4zM381.79 85.82c.003.012.077.085.22.157-.15-.117-.22-.168-.22-.157zM75.323 100.974c-1.234-.008-2.467.003-3.687.03-12.793.18-26.582 3.543-34.906 14.063-5.955 6.707-8.048 17.668-1.876 24.907 5.63 7.106 14.894 9.586 23.062 12.093 1.835 4.738.818 11.115 5.03 14.97.624 2.256 4.357 2.57 4.314-.157-1.203-2.835-4.415-4.8-4.03-8.375-.196-3.43-2.625-7.934.06-10.844 4.59-1.3 9.55.53 14.282-.28 11.51-.88 24.786-4.33 31.156-14.84 4.975-9.14 1.51-21.94-8.22-26.4-7.68-3.99-16.55-5.09-25.186-5.15zm-1.906 3.812c10.59.05 22.923.708 30.656 8.906 6.056 7.243 3.1 19.282-5.125 23.625-10.163 6.36-22.648 6.925-34.312 6.094-2.964-.06-4.847 2.33-6.344 4.44-8.524-1.77-18.367-5.11-22.5-13.47-3.57-8.98 3.505-17.95 10.564-22.84 7.763-5.78 17.75-6.35 27.062-6.75zm445.906 4.375c2.045-.01 3.907-.01 5.406.04 5.6.19 11.21.41 16.81.6.03.01.06 0 .09 0 .58 0 1.13-.01 1.69 0 .04.35.06.71.03 1.03-.03.33-.1.63-.19.94-.09.31-.21.61-.35.91-.28.63-.62 1.24-.97 1.85-.13.22-.28.43-.41.656-.02.03-.02.067-.03.095-.32.57-.61 1.165-.788 1.78.03.3.107.545.22.75.054.1.114.17.186.25.15.17.302.29.5.374.094.04.21.075.31.095.103.02.206.03.313.03.427.01.863-.12 1.25-.377.1-.064.19-.133.28-.22.088-.074.177-.16.25-.25.155-.185.265-.38.345-.623.045-.116.08-.217.097-.344.204-.234.398-.472.564-.72 0-.01-.01-.022 0-.03.09-.14.16-.293.25-.44.062-.113.152-.223.22-.342.12-.243.24-.496.34-.75l.03-.062c.1-.24.174-.494.25-.75l.03-.09c.02-.06.015-.124.03-.19.06-.216.112-.436.16-.66.05-.26.113-.513.152-.78.005-.03-.004-.062 0-.093.078-.54.15-1.1.187-1.655.002-.05 0-.1 0-.152 7.83.83 12.543 3.935 15.342 8.47 3.35 5.43 3.97 13.36 2.53 22.44v.06c-.47 3.28-3.99 8.972-6.53 11.434-3.21 3.11-8.12 2.9-13.63 3.815-4.48.745-15.73 1.1-21.31 1-.014-.25.005-.506-.03-.75-.155-1.125-1.186-1.91-2.31-1.75-1.125.156-1.907 1.19-1.75 2.31.192 1.363-.56 5.217-1.125 8.03-.39 1.95-1.398 5.1-2.125 6.53-1.266 2.44-2.58 4.854-4 7.188 2.094-5.583 3.72-11.57 3.53-17.75 0-1.006-.42-2.003-.97-2.654-.55-.65-1.04-.94-1.44-1.25-.05-.038-.103-.09-.156-.125-3.91-2.523-8.386-2.392-12.25-1.81-.03 0-.064-.005-.094 0-3.08.59-6.57.23-10.35.53-3.59.25-8.02.18-12.03-.81-3.99-.99-7.45-2.81-9.53-5.91-1.72-2.943-3.65-9.96-2.97-13.373.026-.147.034-.285.03-.437-.196-10.15 1.1-16.34 3.72-19.846 2.616-3.5 6.76-4.95 13.84-5.25.04 0 .09-.023.125-.03 7.1-.674 11.82-.94 17.44-.75 4.81.166 12.62-.1 18.75-.154zm-359.406 8.63c-.29-.01-.588.04-.875.1-.234.05-.397.08-.468.1-4.76 1.15-7.563 5.02-6.938 8.78.594 3.57 3.923 6.49 8.5 7.1-.17.03-.39.09-.468.1-.224.01-.405.045-.625.094-.014.006-.016 0-.03 0-.177.047-.366.09-.532.158-2 .82-3.66 1.947-4.62 3.565-1.05 1.775-.89 3.87.28 5.47 2.06 2.814 6.03 3.696 10.32 3.34 1.83-.15 3.55-.716 4.78-1.936 1.27-1.25 1.65-2.83 1.54-4.22-.22-2.587-1.91-4.83-4.25-6.095-.38-.205-.74-.35-1.12-.47 1.72-.236 3.39-.747 4.877-1.687 1.43-.9 2.66-2.324 3.063-4.123.397-1.76-.04-3.585-.97-5.343-.62-1.186-1.67-1.86-2.31-2.25-.764-.463-1.596-.84-2.44-1.19-.833-.34-1.696-.62-2.5-.842-.55-.154-1.154-.34-1.84-.405-.23-.02-.44 0-.69 0-.66.002-1.566-.097-2.375-.19-.094-.01-.183-.03-.28-.03zm-.22 3.16c2.642 0 5.186.32 7.532 1.6 3.3.91 3.9 6.28.43 7.44-3.88 1.45-9.6 1.74-12.1-2.22-1.88-2.98 1.01-6.48 4.12-6.81zm3.72 15.69c1.542.09 2.86 1.28 3.53 2.63 1.386 2.16-.77 4.53-3.062 4.25-2.517.14-6.55-.06-7.25-3.06.144-2.89 3.77-3.66 6.094-3.78.22-.03.46-.04.68-.03zm3.906 11.88c-.185.02-.356.07-.5.1-.745.13-1.353.26-1.25.25-.228.02-.415.06-.625.13-.02.008-.043.026-.063.03-.166.06-.323.14-.468.22-1.277.71-2.335 1.67-2.938 2.938-.67 1.408-.66 2.89.06 4.22 1.24 2.29 4.15 3.16 6.9 2.78 1.29-.17 2.6-.804 3.4-1.84.83-1.06 1.04-2.2 1-3.25-.08-1.94-.96-3.733-2.56-4.842-.62-.43-1.32-.62-1.94-.69-.16-.016-.3-.024-.44-.03-.22-.005-.41-.02-.6 0zm-.156 3.1c.133-.01.273-.01.406 0 1.03-.03 1.55 1.09 1.78 1.94.827 2.43-2.315 3.326-4 2.28-2.02-1.34-.178-4.08 1.814-4.22zm457.437 28c-.874.01-1.824.14-2.937.41-1.578.378-2.455 1.42-3.25 2.407-.655.817-1.188 1.643-1.688 2.44-1.13-2.28-2.81-4.032-4.94-4.813-1.49-.54-3.35-.47-4.78.53-1.17.815-1.97 2.08-2.5 3.66-.34-.793-.7-1.606-1.19-2.375-.51-.793-1.14-1.676-2.44-2.06-.49-.145-1-.14-1.5-.03-.17.035-.34.065-.5.123-.65.23-1.25.63-1.69 1.094-.51.538-.97 1.21-1.41 2-.07-.11-.08-.2-.16-.313-.35-.46-.94-.93-1.63-1.12-.69-.19-1.37-.09-1.94.096-1.14.377-2.037 1.09-3.16 2.19-1.63 1.6-1.72 3.503-2.06 4.75-.13.472-.227.716-.313.904-.11-.06-.74-.2-1.654-.59-1.076-.46-2.32-1.05-3.56-1.44-.62-.193-1.24-.365-1.97-.376-.73-.01-1.767.21-2.5 1.03-.735.827-.847 1.857-.75 2.72.095.868.374 1.717.812 2.75.58 1.385.97 2.406 1.31 3.315-1.44-.38-3.276-.454-4.937.72-1.986 1.405-3.16 3.15-3.34 4.967-.18 1.82.613 3.33 1.53 4.407.92 1.078 1.97 1.815 2.94 2.28.083.04.2.057.28.095-.6 2.906-1.226 5.696-1.845 8.69-.58 2.825-1.387 6.1-1.408 9.406-.003.76-.04 1.58-.093 2.435-1.07-.14-2.16-.284-3.28-.437-1.64-.22-3.234-.43-4.44-.597-1.204-.17-2.205-.305-2.06-.28-.34-.064-.7-.05-1.03.06-.91.31-1.49 1.2-1.407 2.156.084.96.8 1.74 1.75 1.88.34.055.98.144 2.185.312 1.21.17 2.79.37 4.44.594 1.275.175 2.49.347 3.66.5-.006 1.17.06 2.33.25 3.5.48 3 .423 6.106.402 9.44-.02 3.29-.29 6.564-.31 10.06-.02 3.34.2 6.455.19 9.625-8.21 5.25-17.68 13.5-27.065 16.154-.7.2-1.397.393-2.095.59-.86-.087-1.73-.196-2.59-.346.143-.19.286-.453.374-.873.124-.605-.15-1.502-.566-1.906-.41-.4-.713-.57-.97-.63-.254-.056-.454.01-.624 0-.34-.016-.63-.003-.97.03-1.36.148-3.473.605-6.873 1.534-.728.2-1.353.5-1.938.844-.418.248-.8.5-1.16.78-1.33.187-2.41.36-3.22.628-.445.148-.83.29-1.31.657-.075.06-.14.23-.22.316-.524-.26-1.01-.47-1.53-.594-.234-.054-.51-.117-.91-.093-.37.023-.98.163-1.5.655-1.31-.44-2.77-.89-4.684-1.25-8.38-1.6-16.895-8.63-23.876-14.5-.007-.66-.024-1.31-.03-1.97-.04-3.22.195-6.39.155-9.78-.04-3.5-.337-6.78-.376-10.06-.04-3.34-.09-6.44.38-9.44.18-1.17.23-2.33.22-3.5 1.17-.16 2.38-.35 3.66-.53 1.65-.23 3.26-.45 4.47-.63s1.815-.25 2.154-.31c.994-.16 1.73-.99 1.75-2 .02-1.003-.7-1.895-1.69-2.09-.25-.048-.5-.045-.75 0 .147-.024-.89.14-2.092.312-1.2.174-2.793.394-4.435.624-1.124.16-2.17.29-3.25.437-.055-.857-.115-1.68-.124-2.44-.04-3.308-.84-6.587-1.44-9.408-.64-3.01-1.285-5.79-1.906-8.72-.74-3.483-2.66-6.513-4.594-9.03-2.3-2.993-5.1-4.24-6.97-6.062-.55-.54-1.17-1.015-1.843-1.44 2.93-.183 6.21-.09 9.28.63.823.19 1.832.66 3.062 1.092.71.27 1.49.11 2.067-.374.58-.484.864-1.224.72-1.97-.146-.74-.688-1.36-1.407-1.59-.94-.33-2.08-.885-3.5-1.22-5.077-1.18-10.234-.884-14.125-.34-1.947.27-3.56.605-4.69.875-.086.02-.135.046-.22.06-1.673-.282-3.49-.65-4.34-1.06-.37-.18-.735-.34-1.093-.44-1.073-.29-2.12-.233-3.19-.28-1.422-.053-2.87-.09-3.28-.153-2.18-.335-4.912-.527-7.282.095-1.8.47-3.81.76-5.66.78-2.487.03-4.94.577-6.44.594-1.402.016-2.416.59-3.25 1.03-.83.44-1.53.785-1.873.875-2.5.655-4.386 2.223-5.53 2.81-1.97 1.015-3.18 2.403-4.407 3.344-1.11.854-1.537 1.84-2 2.69-.47.85-.95 1.605-1 1.654-.955.97-1.335 2.03-1.66 2.81-.325.78-.58 1.29-.877 1.59-1.92 1.966-3.243 4.79-3.813 7.19-.626 2.62-1.54 4.58-1.5 8 .03 2.84-.196 5.847-.16 9 .036 3.01-.19 6.11-.156 9.28.04 3.18.07 6.3.656 9.595.408 2.27-.222 5.28-.185 8.436.03 2.41-.127 5.04.22 7.75-8.67 8.99-14.793 23.12-22.03 33-.9 1.235-1.24 2.465-1.5 3.35s-.48 1.292-.53 1.34c-.16.166-.28.36-.373.56-.154-.018-.28 0-.406 0-1.416.02-2.72.452-4.09.97-1.37.516-2.765 1.14-3.94 1.655-.515.23-.62.28-1.03.44-.935-.585-2.176-.34-2.813.56-.185.255-.35.488-.5.845-.152.36-.415.95-.063 1.848.353.894 1.35 1.344 1.843 1.405.492.065.794-.002 1.06-.06 1.06-.223 1.972-.695 3.155-1.22-.216.21-.54.51-.72.69-.45.46-.72.738-1.03 1.25-.08.13-.16.29-.25.563-.09.27-.23.743.06 1.465.29.727 1.154 1.2 1.625 1.28.47.085.69.015.873-.03.735-.165.91-.344 1.28-.56.37-.215.75-.455 1.19-.75 1-.674 2.04-1.44 3-2.19-.07.638-.103 1.26-.096 1.877.01 1.067.067 1.685.06 1.876-.002.19.03.113-.22.624-.34.67-.29 1.47.128 2.096.42.623 1.16.962 1.91.903.75-.057 1.405-.505 1.72-1.187.38-.788.61-1.64.626-2.347.017-.7-.05-1.12-.06-2-.005-.61.348-2.72.345-4.464 0-.438-.012-.85-.153-1.378-.1-.38-.284-.94-.75-1.377.226-.1.41-.22.595-.405 1.03-1.05 1.274-2.216 1.53-3.09.256-.88.48-1.56.875-2.1 6.785-9.265 12.49-21.3 19.095-29.56-.05 1.626-.18 3.35-.16 5.157.035 3.002.09 5.995.125 9 .03 2.7.313 4.72.34 7.22.03 2.34.545 4.23.565 5.902.005.724.11 2.386.28 4.97.17 2.583.4 5.88.623 9.19.225 3.31.456 6.594.625 9.183.17 2.59.28 4.678.28 4.815.012 1.15.98 2.076 2.124 2.064.17 0 .31-.053.47-.095.026 0 .066.03.093.03.6-.007 1.21-.024 1.81-.03 3.25-.04 6.19-.34 9.25-.377 1.404-.015 2.91-.11 4.404-.22 0 .01-.03.024-.03.033.023.94.096 2.155.217 3.623.25 2.936.68 6.802 1.098 10.812.416 4.01.828 8.184 1.126 11.626.3 3.44.444 6.31.376 7.155-.59 7.29 1.16 12.58.874 18.53-.21.153-.4.314-.714.53-.95.64-2.27 1.49-3.625 2.342-1.024.647-2.024 1.257-2.97 1.844l.034.03-2.128 1.53c-3.33 1.09-2.425 5.19 1.12 4 .13-.09 1.11-.72 2.25-1.433 1.137-.716 2.53-1.577 3.905-2.44 1.37-.863 2.72-1.715 3.75-2.406.51-.345.923-.63 1.28-.906.174-.136.32-.267.5-.437.09-.086.212-.174.34-.345.13-.17.37-.39.437-1.184.59-7.284-1.41-12.605-.873-19.28.14-1.706-.07-4.41-.373-7.91-.3-3.496-.74-7.645-1.155-11.656-.413-4.01-.823-7.89-1.062-10.75-.12-1.43-.2-2.594-.22-3.376v-.22c2.77-.167 5.408-.23 7.44.25 5.93 1.41 11.593.075 16.47.626 4.072.464 8.047.11 11.904-.25.17 13.6.39 29.158-1.906 41.658-.354 1.936-.585 3.964-.56 6.03-.07 1.11.376 1.98.874 2.69.56.794 1.27 1.476 2.09 2.187 1.65 1.424 3.77 2.89 5.91 4.22 2.135 1.33 4.285 2.53 5.934 3.44.825.45 1.53.825 2.03 1.093.254.132.455.27.595.34.07.035.18.065.22.09 3.823.708 3.07-3.35 1-4.22-.49-.26-1.075-.59-1.816-1-1.61-.88-3.71-2.04-5.75-3.31s-4.036-2.654-5.376-3.812c-.67-.58-1.17-1.1-1.408-1.44-.11-.16-.12-.246-.127-.25v-.095c-.02-1.698.175-3.456.5-5.22 2.43-13.24 2.173-29.103 2-42.75.806-.05 1.584-.116 2.374-.126 2.715-.03 6.352.09 9.22.125.356.65 1.05 1.104 1.842 1.095.98-.01 1.79-.71 2-1.62.38-.35.646-.828.687-1.38.048-.596-.182-1.15-.56-1.56.07-2.23.173-5.526.314-9.407.2-5.56.423-11.042.403-12.685-.03-2.72.695-5.615.655-9.03l-.097-8c-.03-3 .2-6.22.16-9.5-.004-.55-.022-1.11-.03-1.658 6.407 5.38 14.24 11.264 22.876 12.907 2.766.526 4.57 1.295 6.75 1.97.633.67 1.39 1.414 2.25 2.216 1.172 1.092 2.5 2.263 3.812 3.374-.07.046-.124.117-.28.25-.102.09-.277.188-.5.565-.112.19-.25.47-.282.91-.03.44.146 1.04.44 1.406.59.74 1.1.723 1.347.75.248.03.37.01.47 0 1.007-.086 2.1-.16 3.28-.31.04.03.09.1.128.126.756.55 1.31.91 1.97 1.22 1.036.48 2.25.032 2.78-1.003.23-.447.32-.93.22-1.376.53-.187 1.016-.45 1.53-1 .12-.13.18-.347.28-.53.776.16 1.526.294 2.38.22.32-.03.706-.1 1.158-.316.454-.215 1.02-.7 1.28-1.34.26-.64.275-1.13.158-1.564.07.016.15-.003.22 0 .05.017.07.025.125.03.1.024.218.05.315.066l.94-4.062c-.1-.012-.185-.01-.28-.03-.016 0-.02.007-.03 0-.49-.29-1.18-.802-1.91-1.34h2.124c.68-.19 1.354-.37 2.03-.562 8.692-2.456 17.785-9.75 26.064-15.28-.01 1.495.01 3.008 0 4.5-.02 3.28.21 6.5.19 9.5-.015 2.66-.013 5.34-.03 8-.02 3.418.705 6.28.687 9-.01 1.645.24 7.16.47 12.72.167 3.914.298 7.217.378 9.437-.38.44-.59 1.04-.5 1.652.07.474.3.88.625 1.19.2.936 1.034 1.652 2.03 1.656.792.004 1.46-.444 1.812-1.095 2.87-.058 6.507-.17 9.22-.16.79.005 1.6.05 2.407.093-.1 13.648-.31 29.524 2.19 42.75.334 1.764.574 3.52.563 5.22v.06c0-.005-.03.08-.15.25-.234.34-.706.887-1.372 1.47-1.333 1.165-3.34 2.53-5.374 3.81-2.036 1.28-4.118 2.486-5.72 3.377-4.13 1.94-3.377 5.133 0 4.78.5-.27 1.21-.667 2.03-1.124 1.644-.913 3.805-2.127 5.94-3.47 2.13-1.34 4.233-2.785 5.872-4.217.82-.712 1.537-1.42 2.093-2.22.492-.71.92-1.573.84-2.683h.03c.01-2.07-.23-4.097-.596-6.03-2.36-12.493-2.25-28.06-2.158-41.66 3.87.34 7.866.704 11.94.22 4.87-.577 10.547.723 16.47-.72 2.027-.49 4.637-.466 7.405-.31 0 .08.003.113 0 .22-.015.78-.107 1.974-.22 3.404-.22 2.86-.573 6.708-.967 10.72-.396 4.01-.81 8.19-1.097 11.69-.28 3.5-.49 6.17-.34 7.88.574 6.674-1.377 12.03-.75 19.31.07.795.31 1.02.436 1.19.13.17.22.26.31.34.175.17.32.27.5.405.354.27.8.566 1.31.91 1.03.683 2.37 1.55 3.75 2.404 1.373.857 2.793 1.7 3.934 2.407 1.144.71 2.09 1.35 2.22 1.44 4.206 1.04 3.37-2.07 1.22-3.903-.59-.5-1.19-1-1.78-1.5-.03 0-.06.003-.093 0-1.03-.63-2.143-1.29-3.28-2-1.363-.846-2.68-1.68-3.63-2.312-.32-.21-.53-.372-.75-.53-.312-5.943 1.41-11.21.78-18.5-.07-.84.07-3.74.35-7.19.28-3.44.67-7.61 1.064-11.62s.8-7.874 1.03-10.812c.117-1.467.17-2.685.19-3.625v-.03c1.5.1 2.97.18 4.377.19 3.057.02 5.997.29 9.25.31.6.004 1.21.03 1.81.03.038 0 .09-.03.127-.03.155.04.3.06.47.06 1.147.01 2.087-.91 2.09-2.06 0-.137.096-2.19.25-4.78.158-2.59.358-5.91.564-9.22.21-3.308.44-6.6.597-9.187.152-2.58.24-4.242.25-4.965.01-1.675.543-3.565.56-5.905.013-2.5.262-4.52.28-7.22.02-3 .042-6.025.06-9.03.01-1.82-.09-3.52-.153-5.157 6.657 8.225 12.377 20.253 19.218 29.5.4.54.648 1.19.91 2.06.26.874.494 2.044 1.53 3.093.18.18.4.33.623.433-.46.44-.65.962-.75 1.34-.14.527-.16.94-.16 1.376.01 1.746.41 3.857.41 4.47-.005.877-.11 1.327-.094 2.03.02.708.27 1.53.658 2.31.32.68.97 1.138 1.72 1.19.75.056 1.46-.28 1.874-.904.414-.63.47-1.456.125-2.125-.25-.51-.214-.4-.22-.593 0-.19.09-.81.095-1.872.005-.62-.085-1.27-.156-1.908.967.745 2.02 1.51 3.03 2.184.44.29.85.534 1.22.75.37.213.514.4 1.25.56.185.04.435.114.906.03.47-.08 1.31-.585 1.596-1.31.288-.73.15-1.2.06-1.47s-.2-.437-.28-.56c-.315-.517-.58-.8-1.03-1.25-.18-.18-.47-.45-.69-.66 1.19.514 2.097.97 3.16 1.185.267.056.54.128 1.03.063.495-.065 1.497-.54 1.845-1.44.35-.896.09-1.456-.062-1.812-.15-.356-.31-.59-.5-.845-.64-.894-1.88-1.15-2.81-.56-.41-.16-.54-.18-1.06-.41-1.17-.51-2.56-1.113-3.933-1.623s-2.645-.96-4.064-.97c-.12 0-.29.015-.44.03-.097-.203-.207-.42-.374-.593-.047-.046-.268-.46-.53-1.34-.265-.88-.625-2.12-1.53-3.35-7.29-9.85-13.486-23.96-22.22-32.904.33-2.7.175-5.35.19-7.75.02-3.15-.61-6.13-.22-8.4.57-3.298.575-6.446.595-9.627.02-3.164-.205-6.234-.187-9.25.02-3.15-.207-6.19-.19-9.03.02-3.414-.96-5.35-1.596-7.97-.38-1.57-1.076-3.33-2.06-4.903 2.072-1.565 3.52-3.28 4.31-5.064.81-1.816.946-3.78.127-5.44-.813-1.656-2.6-2.725-4.56-2.907-1.74-.166-3.675.27-5.78 1.25.2-.91.377-1.76.75-2.97.28-.89.554-1.74.72-2.566.085-.41.16-.806.157-1.28-.002-.473-.01-1.115-.625-1.844-.614-.73-1.817-.95-2.467-.81-.65.133-1.07.384-1.535.684-.842.55-1.813 1.39-3.06 2.59.23-.94.45-1.93.56-2.903.12-.994.26-1.992-.34-3.19-.303-.593-.92-1.22-1.657-1.5-.735-.27-1.45-.202-2.092-.06-1.29.288-2.51.95-4.123 2.095-.884.623-1.28.85-1.938 1.28.28-.95.4-2.02 0-3.28-.37-1.157-1.59-2.216-2.878-2.5-.48-.11-.974-.134-1.5-.127zm0 4.19c.14 0 .25-.01.344 0-.074.14-.195 1.147-.656 2.34-.257.676-.554 1.32-.718 2.098-.03.15-.044.32-.063.5-.6-.05-1.22-.12-1.84-.124-.75 0-1.53-.04-2.31-.122.18-.286.37-.563.57-.874.57-.915 1.16-1.9 1.72-2.594.49-.607 1.01-.893 1.04-.937.9-.21 1.526-.275 1.938-.28zm-14.875.03c.15-.023.33.02.62.126.85.31 2.21 1.63 3 3.53-1.62-.08-3.26.09-4.66.31-.16.027-.48.044-.88.064.13-.455.27-.94.4-1.534.35-1.5.86-2.14 1.15-2.347.072-.05.154-.1.22-.128.05-.02.073-.02.123-.03zm-9.82.47c.24.42.53.968.81 1.625.31.74.58 1.517.9 2.25.04.098.08.22.12.315-.2.073-.4.12-.6.22-.778.384-2.383.746-3.938 1.03.372-.76.83-1.757 1.435-3.155.51-1.17.93-1.835 1.25-2.28zm-385 1.84c-.1.006-.19.01-.28.03-.79.17-1.08.56-1.25.786-1.87 2.436-3.28 4.114-4.35 5.22l.03-.19c.06-.297.11-.58.15-.844.04-.26.13-.327.06-1-.02-.17-.02-.4-.25-.815-.23-.417-1.03-1.054-1.78-1.064-.75-.01-1.11.28-1.31.437-.2.157-.3.25-.38.345-.31.37-.406.587-.596.94-.28.52-.68 1.35-1.185 2.407-.216 0-.406.006-.624 0-.54 0-1.09-.01-1.623 0-.09-.144-.165-.304-.25-.47-.73-1.36-1.32-2.77-1.94-3.81-.154-.26-.274-.5-.625-.84-.176-.17-.428-.4-.97-.564-.54-.16-1.48.005-1.968.405-.97.8-.79 1.305-.84 1.686-.05.38-.04.74-.03 1.184.032 1.577-.135 2.61-.314 3.126-.078.21-.13.294-.16.34.034 0 .065.02.03.03-.017.01-.056.03-.06.035l.03-.062c-.056 0-.185 0-.44-.094-.424-.155-1.054-.524-1.72-1-1.33-.955-2.82-2.35-4-3.47-.588-.56-1.064-1.046-1.56-1.44-.25-.194-.446-.39-1-.59-.14-.05-.32-.1-.564-.128-.06-.007-.12-.03-.187-.03-.206 0-.447.033-.72.123-.727.242-1.296 1.08-1.406 1.56-.35 1.543-.68 3.59-.53 5.62.01.166.04.337.06.5-2.51-.355-4.95-.46-7.16-.78-1.11-.16-2.154.608-2.31 1.718-.16 1.11.64 2.16 1.75 2.315 2.77.4 5.416.495 7.813.874-1.69 1.14-3.69 2.28-5.47 4.37-2 2.366-4.02 5.23-4.903 8.596-.744 2.827-1.487 5.498-2.25 8.407-.717 2.727-1.65 5.905-1.846 9.128-.044.744-.154 1.54-.25 2.375-1.043-.19-2.067-.384-3.157-.592-1.59-.3-3.145-.614-4.31-.84-1.165-.226-2.14-.406-2-.376-.2-.04-.39-.05-.594-.03-1.014.07-1.84.86-1.906 1.88-.066 1.016.63 1.927 1.624 2.126.33.08.96.18 2.13.41 1.17.23 2.714.54 4.31.846 1.23.24 2.403.45 3.53.66-.06 1.137-.057 2.29.064 3.44.315 2.95.1 5.97-.09 9.22-.19 3.206-.64 6.37-.846 9.78-.2 3.308-.127 6.395-.314 9.53-.1 1.727-.205 3.467-.31 5.19-5.24 3.215-9.37 5.11-13.217 4.25-3.98-.885-8.644-4.945-14.47-15.53-.48-.88-1.06-1.656-1.655-2.343.064-.145.15-.287.19-.408.4-1.327.33-2.665.25-4.095-.08-1.43-.27-2.88-.41-4.124-.06-.55-.066-.664-.097-1.094.812-.7.96-1.926.312-2.78-.18-.246-.37-.474-.658-.72-.29-.245-.78-.66-1.72-.594-.938.07-1.644.87-1.845 1.31-.2.44-.196.73-.22 1-.1 1.06.044 2.04.19 3.31-.137-.27-.32-.65-.44-.878-.297-.55-.457-.9-.845-1.345-.096-.11-.207-.24-.437-.4-.23-.16-.65-.436-1.41-.377-.76.06-1.445.745-1.66 1.16-.21.418-.23.63-.25.81-.05.74.07.97.16 1.378.1.41.2.853.35 1.345.34 1.135.763 2.32 1.184 3.437-.57-.243-1.146-.513-1.72-.686-.995-.3-1.6-.41-1.78-.47-.178-.06-.095.005-.5-.376-.816-.77-2.106-.726-2.875.09-.765.818-.72 2.108.097 2.876.624.584 1.35 1.03 2 1.25.655.22 1.06.285 1.877.53.578.172 2.44 1.152 4.065 1.656.402.13.81.23 1.34.25.28.01.642 0 1.03-.128.652.55 1.336 1.336 1.91 2.374 6.05 10.996 11.35 16.24 17.152 17.535 4.786 1.067 9.224-.72 13.813-3.345-.126 2.85-.095 5.67-.25 8.284-.155 2.593-.315 5.19-.47 7.78-.198 3.33.38 6.195.22 8.844-.096 1.6-.157 6.976-.22 12.41-.043 3.823-.086 7.05-.125 9.22-.363.384-.583.93-.56 1.5.02.493.22.91.53 1.25.13.94.924 1.69 1.907 1.75.772.045 1.462-.35 1.84-.97 2.8.1 6.35.154 9 .31 2.644.16 5.405.62 8.22 1 .28 13.59.77 27.36 3.654 40.597.372 1.71.62 3.435.655 5.09v.066c-.006.007.01.093-.097.25-.22.338-.706.883-1.342 1.47-1.27 1.174-3.172 2.57-5.122 3.875-1.95 1.304-3.96 2.524-5.5 3.437-.45.27-.76.45-1.126.66-4.164 2.69-1.456 6.04 1.28 4 .486-.28 1.15-.66 1.94-1.127 1.58-.94 3.64-2.2 5.688-3.56 2.043-1.37 4.06-2.84 5.623-4.28.78-.728 1.45-1.43 1.97-2.22.466-.71.887-1.58.78-2.66-.04-2.02-.34-4-.75-5.877-2.7-12.41-3.282-25.76-3.56-39.25 1.877.16 3.79.22 5.72.093 4.78-.31 10.244 1.256 16.093.158 3.45-.646 8.5.325 13.153.81 0 .76-.03 1.76-.093 3-.14 2.8-.41 6.577-.687 10.5-.276 3.93-.536 8.018-.72 11.44-.18 3.424-.313 6.03-.125 7.688.74 6.5-.59 12.945.22 20.035.085.747.35.98.5 1.156.15.18.278.27.375.35.195.156.322.264.5.373.355.216.79.43 1.28.685.983.51 2.262 1.1 3.563 1.72 1.3.62 2.614 1.26 3.687 1.78s2.027 1.02 2 1c3.7 1.66 4.46-2.717 1.342-3.94-.44-.23-.95-.453-1.566-.75-1.11-.537-2.43-1.166-3.72-1.78-1.29-.613-2.544-1.226-3.44-1.687-.22-.116-.33-.16-.5-.25-.442-5.76.62-12.1-.184-19.16-.094-.82-.054-3.63.125-7 .18-3.37.475-7.446.75-11.375.276-3.925.544-7.72.687-10.59.06-1.13.08-2.06.095-2.88 2.386.21 4.75.54 7.313.69.59.04 1.2.06 1.78.096h.098c.146.044.31.084.47.09 1.116.07 2.056-.783 2.12-1.903.01-.135.21-2.17.5-4.688.286-2.52.69-5.72 1.06-8.94.376-3.217.747-6.426 1.03-8.94.29-2.51.46-4.105.5-4.81.1-1.63.74-3.47.878-5.75.144-2.434.5-4.366.654-7 .174-2.926.324-5.88.5-8.81.017-.28.05-.535.06-.81 8.03-9.493 12.82-24.275 19.157-34.814.77-1.275 1.012-2.523 1.19-3.406.17-.88.33-1.323.37-1.374.15-.178.24-.36.317-.566.145.008.29-.02.403-.03 1.374-.14 2.613-.69 3.902-1.31 1.29-.624 2.56-1.364 3.656-1.97.49-.27.61-.305 1-.5.953.48 2.112.144 2.652-.78.16-.26.29-.515.407-.876.12-.36.3-.97-.125-1.81-.424-.84-1.424-1.17-1.91-1.19-.484-.013-.745.08-1 .158-1.005.31-1.872.8-2.97 1.41.188-.214.473-.496.626-.686.397-.488.65-.757.907-1.28.062-.135.122-.29.184-.567.062-.276.16-.76-.188-1.44-.35-.68-1.19-1.09-1.66-1.128-.462-.035-.7.07-.872.125-.7.23-.843.383-1.183.624-.34.247-.727.55-1.126.878-.92.75-1.85 1.59-2.72 2.405.01-.62 0-1.27-.06-1.87-.11-1.037-.205-1.627-.22-1.815-.013-.185-.07-.07.126-.59.25-.64.15-1.38-.25-1.94-.405-.557-1.03-.88-1.72-.844-.81.047-1.534.58-1.81 1.346-.304.8-.426 1.626-.38 2.313.05.685.13 1.12.22 1.97.06.594-.092 2.68.06 4.372.04.425.07.815.25 1.31.13.357.37.868.848 1.25-.21.127-.374.276-.53.47-.91 1.118-1.047 2.285-1.22 3.157-.17.87-.32 1.53-.656 2.09-5.61 9.34-10 21.124-15.47 29.687.07-.56.16-1.117.287-1.657.68-2.976.62-5.944.78-8.595.183-3.078-.28-6.026.22-8.22.73-3.18.91-6.24 1.092-9.34.183-3.09.104-6.1.28-9.03.183-3.078.115-6.05.28-8.818.2-3.33-.61-5.284-1.095-7.872-.44-2.364-1.595-5.15-3.374-7.155-.27-.304-.5-.85-.78-1.623-.275-.778-.583-1.82-1.47-2.816-.042-.05-.49-.803-.903-1.654-.413-.85-.77-1.83-1.81-2.72-1.15-.97-2.28-2.38-4.154-3.465-1.085-.622-2.84-2.21-5.25-2.963-.33-.103-1.02-.5-1.81-.97s-1.723-1.072-3.092-1.154c-.46-.026-1.04-.11-1.657-.22.69-.45 1.415-.98 2.185-1.624.86-.715.97-2.01.25-2.87-.72-.86-2.01-.97-2.87-.25-2.23 1.864-3.65 2.31-4.16 2.312-.505.01-.52-.08-.843-.653-.32-.57-.59-1.54-.75-2.377-.073-.417-.1-.756-.214-1.19-.06-.215.05-.434-.56-1.094-.268-.287-.99-.67-1.69-.656zm377.43.25c0 .36.02.676 0 1.066-.03.65-.08 1.3-.1 1.873-.01.29-.02.53.03.903.02.14.04.307.12.53-.75.226-1.5.485-2.25.81.356-.66.523-1.27.687-1.876.41-1.504.86-2.77.97-2.872.302-.3.3-.252.53-.434zm42.62.22c-.09.65-.27 1.438-.47 2.28-.2.81-.4 1.62-.56 2.41-.24-.08-.47-.153-.72-.22-.35-.085-1.04-.435-1.88-.873-.32-.17-.678-.364-1.06-.53.84-.54 1.82-1.2 3-2.034.67-.475 1.242-.796 1.684-1.03zm-421.72 2.31c0 .01-.01.16 0 .19-.06-.12 0-.19 0-.19zm367.37 2.72c.78.288 1.65.66 2.595 1.066 1.105.474 2.004.983 3.405 1.03-.153.136-.32.293-.465.44-.973.96-2.19 1.77-3.47 2.75-.403-1.217-1.05-2.764-1.967-4.94-.08-.177-.04-.19-.098-.344zm31.72.03c1.016 0 1.954.06 2.594.22 2.14.55 4.46.86 6.69.88 1.824.01 4.18.55 6.44.56.075 0 .62.15 1.342.53s1.6.95 2.78 1.25c1.28.33 2.934 1.53 4.72 2.44 1.12.57 2.135 1.71 3.75 2.934-.055-.04.47.59.905 1.377.44.79.82 1.65 1.69 2.53.21.216.473.73.81 1.53.334.8.77 1.885 1.75 2.876 1.03 1.046 2.383 3.75 2.75 5.25.73 3.016 1.453 4.324 1.435 6.97-.02 3.08.234 6.08.215 9-.02 3.24.208 6.348.19 9.28-.02 3.18-.07 6.04-.563 8.908-.597 3.44.2 6.7.186 9.13-.014 2.23.08 4.4-.063 6.375-.34.28-.603.653-.72 1.094-.155.62-.03 1.25.347 1.75-.41 3.476.08 6.652.063 9.563-.006 1.044.008 2.073 0 3.12l-.03.034c-.42.21-.584.335-.685.407-4.36.086-7.306 1.74-10 1.72-8.138-.05-16.296 1.15-24.44 1.097-5.66-.034-13.855-.64-21.065-1.28-6.77-.6-12.52-.803-17.53-.345-.056-1.6-.105-3.19-.096-4.72.02-3.09.01-6.16.03-9.25.016-2.416-.094-4.72-.156-6.97 4.236 1.854 10.14 2.994 14.69 2 3.985-.87 5.845-2.13 8.78-3.81 2.033-1.168 3.316-2.76 4.28-4.22.96-1.46 1.686-2.81 2.72-4.064.856-1.04 2.1-2.765 3.25-4.56 1.145-1.8 2.205-3.35 2.56-5.28.047-.076.11-.15.155-.22.41-.64.733-1.23 1-1.69.17-.286.335-.57.407-.687.05-.06.04-.08.034-.06.52-.65.68-1.53.374-2.315-.317-.802-1.048-1.37-1.908-1.47-.86-.093-1.73.29-2.216 1-.39.515-.455.74-.72 1.19-.26.45-.552.988-.902 1.53-.7 1.09-1.66 2.187-2.03 2.44-5.46 3.8-12.21 6.76-18.69 6.72-5.69-.04-6.84-.17-11.5-3.75-.04-1.89-.15-3.805-.464-5.75-.12-.72-.15-1.505-.16-2.345h.064c.743.066 1.48-.264 1.906-.877.426-.61.507-1.388.187-2.06-.32-.675-1.01-1.13-1.75-1.19-.05-.004-.18-.024-.25-.03.05-.975.09-1.967.09-2.94.02-2.64.72-5.695 1.317-8.59.61-2.97 1.23-5.774 1.84-8.75.516-2.495 2.043-5.09 3.78-7.375 1.563-2.056 4.064-3.19 6.563-5.657 1.05-1.036 5.15-2.656 7.13-2.97 1.86-.3 4.56-.61 6.75-1.69-.03.02 1.32-.285 2.624-.345 1.305-.06 2.63-.035 3.78-.22.88-.14 1.955-.216 2.97-.22zm-163.625.1c.314 0 .647.02.97.03.302.41.737.684 1.28.78 5.605 1.31 10.172 5.42 15.874 10.154.57.515 1.377.664 2.096.41.72-.25 1.228-.87 1.346-1.623.12-.753-.176-1.535-.78-2-2.206-1.83-4.327-3.66-6.5-5.312.08.016.463.092.56.092.106 0 .17.002.22 0 .094-.01.12-.027.154-.03.173-.03.37-.09.53-.16.015-.005.02.006.03 0 .023-.01.1-.024.125-.03l.44.06c.244.04.51.11.81.19 2.13.53 5.393 1.85 6.31 2.75 2.51 2.454 4.99 3.577 6.56 5.624 1.75 2.28 3.317 4.886 3.846 7.378.63 2.977 1.278 5.75 1.906 8.72.61 2.898 1.31 5.957 1.34 8.597.01.97.07 1.93.126 2.903-.07.01-.23.06-.28.065-.747.06-1.37.51-1.69 1.185-.316.676-.27 1.454.16 2.063.43.61 1.16.94 1.902.87h.063c-.007.84-.05 1.63-.16 2.34-.3 1.95-.407 3.865-.44 5.75-4.64 3.616-5.77 3.748-11.47 3.815-6.47.08-13.234-2.85-18.72-6.622-.364-.25-1.324-1.35-2.03-2.435-.35-.544-.67-1.086-.937-1.53-.265-.45-.325-.65-.72-1.16-.79-1.02-2.266-1.223-3.286-.435-1 .774-1.2 2.203-.47 3.22.02.05.263.406.465.75.27.46.616 1.08 1.03 1.72.046.074.107.146.155.22.365 1.932 1.405 3.46 2.56 5.25 1.16 1.79 2.42 3.492 3.284 4.53 1.036 1.25 1.746 2.575 2.716 4.03.975 1.46 2.276 3.035 4.316 4.19 2.946 1.665 4.854 2.932 8.846 3.78 4.552.97 10.403-.19 14.626-2.06-.046 2.25-.12 4.55-.093 6.97.036 3.09.06 6.16.094 9.25.02 1.525-.05 3.12-.09 4.715-5.016-.953-11.49-.51-18.25.126-7.206.68-14.69 1.624-20.344 1.69-8.15.1-16.306-1.03-24.44-.93-2.7.03-5.61-1.63-9.97-1.69-.1-.076-.293-.2-.72-.41-.005-.005-.02.004-.03 0l-.03-3.157c-.034-2.91.458-6.066.03-9.53.386-.515.52-1.187.345-1.817-.123-.44-.402-.796-.75-1.067-.154-1.97-.07-4.15-.094-6.376-.03-2.426.74-5.66.122-9.09-.51-2.864-.56-5.726-.6-8.906-.034-2.938.195-6.077.156-9.317-.033-2.92.193-5.92.157-9-.03-2.647.69-3.95 1.41-6.97.36-1.5 1.695-4.2 2.72-5.25.97-.996 1.42-2.105 1.75-2.906.33-.8.57-1.28.78-1.5.865-.885 1.256-1.805 1.69-2.595.432-.79.93-1.41.873-1.37 1.61-1.236 2.665-2.36 3.78-2.94 1.78-.915 3.41-2.134 4.69-2.47 1.18-.31 2.06-.865 2.78-1.25.722-.38 1.234-.53 1.312-.53 1.55-.02 3.15-.27 4.59-.44.29.55.81.977 1.47 1.096 3.537.828 4.775 1.59 6.313 2.72 1.54 1.13 3.38 2.75 7.094 4.657.664.384 1.506.374 2.157-.03.65-.405 1.016-1.14.97-1.907-.05-.764-.524-1.463-1.22-1.782-3.37-1.73-4.756-3.01-6.53-4.314-.66-.48-1.357-.93-2.19-1.372l.47-.12c.6-.154 1.46-.24 2.405-.25zm-234.53.686c.09.226.152.46.25.686-.227-.06-.438-.12-.658-.19.14-.167.26-.325.403-.5zm-27.815.186c.756.71 1.57 1.49 2.47 2.22-.633.204-1.26.465-1.873.75-.118-.06-.163-.176-.28-.41-.15-.29-.298-.803-.346-1.47-.02-.32.02-.73.03-1.093zm454.597.623c-.175.547-.36 1.094-.5 1.656-.24-.175-.485-.36-.75-.53.382-.334.8-.686 1.25-1.125zm-178.626.437c.1.02.18.044.28.062l.28.37c-.19-.143-.37-.296-.56-.44zm-251.873 2.72c.7.06 1.326.17 1.78.31 2.06.65 4.33 1.06 6.5 1.19 1.78.105 4.02.773 6.22.904.077.005.596.156 1.28.56.69.41 1.52.99 2.66 1.347 1.23.388 2.746 1.68 4.44 2.658 1.06.618 2.02 1.756 3.53 3.03-.05-.04.43.59.81 1.38.39.79.7 1.69 1.5 2.59.2.22.44.71.72 1.5.29.8.66 1.92 1.56 2.94.95 1.07 2.13 3.74 2.41 5.22.56 2.977 1.22 4.29 1.064 6.87-.18 3.01-.11 5.97-.28 8.82-.19 3.157-.11 6.2-.28 9.06-.183 3.1-.364 5.89-1 8.656-.756 3.32-.17 6.508-.31 8.875-.17 2.847-.154 5.61-.69 7.94-.7 3.07-.595 5.947-.623 8.595-.08.29-.068.6 0 .905-.01.3-.02.58-.037.874-.06 1.023-.127 2.043-.188 3.063-.41.178-.58.306-.685.375-4.263-.15-7.21 1.347-9.843 1.19-7.93-.473-15.94.225-23.878-.25-5.51-.33-12.75-1.625-19.75-2.625-5.243-.75-10.332-1.35-14.683-1.22-1.095.036-2.135.11-3.127.25.03-1.56.038-3.1.127-4.59.18-3.01.385-6.02.565-9.03.14-2.36.16-4.588.216-6.785 4.037 2.024 9.71 3.45 14.19 2.72 3.93-.64 5.8-1.793 8.75-3.28 2.047-1.03 3.42-2.5 4.44-3.876 1.016-1.376 1.74-2.643 2.814-3.813.89-.97 2.195-2.587 3.406-4.28 1.213-1.69 2.336-3.13 2.78-5 .055-.07.107-.15.16-.22.43-.6.803-1.16 1.09-1.593.213-.323.445-.665.47-.717.55-.67.674-1.58.31-2.374-.37-.816-1.196-1.348-2.09-1.345-.67.01-1.29.3-1.72.814-.41.48-.535.702-.81 1.124-.28.427-.6.927-.97 1.44-.74 1.027-1.727 2.053-2.097 2.28-5.528 3.425-12.257 5.94-18.567 5.563-5.55-.33-6.648-.507-11-4.25.06-1.837.042-3.715-.16-5.625-.078-.706-.07-1.46-.03-2.28h.06c.73.12 1.45-.17 1.905-.75.46-.58.57-1.38.28-2.06-.28-.68-.92-1.14-1.654-1.22l-.25-.03c.1-.95.2-1.93.25-2.878.16-2.574.99-5.49 1.72-8.28.75-2.867 1.5-5.57 2.25-8.44.63-2.403 2.28-4.86 4.09-7 1.63-1.92 4.09-2.91 6.66-5.185 1.077-.95 5.18-2.33 7.13-2.53 1.604-.17 3.84-.31 5.846-.97.396.42.868.78 1.438 1.09.905.5 2.36.665 3.44.062.456-.254.8-.625 1.127-1 .204.185.41.383.69.5.793.335 1.605.22 2.187 0 .695-.26 1.257-.65 1.877-1.19zm439.22 2.435c.127 0 .236.024.344.033.865.08 1.047.305 1.19.594.145.29.255.916-.186 1.905-.426.96-1.356 2.194-2.937 3.404-.07-.15-.118-.324-.19-.5-.33-.78-.73-1.844-1.69-2.814-.04-.04-.396-.616-.78-1.28.113-.056.225-.095.342-.156.956-.5 1.783-.827 2.5-1 .54-.13 1.026-.19 1.406-.19zm-73.69 2c.07-.015.116.005.19 0 .516-.02 1.21.28 2.156.66-.845 1.202-1.65 2.475-2.31 3.873-.425-.236-.98-.63-1.375-1.094-.45-.53-.596-.96-.56-1.316.035-.356.22-1 1.59-1.97.098-.065.21-.13.31-.155zm-496.84 3.03c-.345 0-.7.02-1.03.03-1.324.066-2.48.25-3.34.19-2.92-.19-4.65.096-7 .406-2.13.28-4.39.327-6.75.75-1.29.237-2.1.788-3.03 1.347-.93.56-1.86 1.16-2.28 1.376-1.9.97-3.77 2.66-4.94 3.687-1.57 1.372-2.51 3.012-2.78 3.25-1.68 1.47-2.33 3.53-2.66 4.09-1.25 2.14-1.88 3.86-2.56 5.97-.08.25-.15.523-.217.78-.746.737-1.29 1.645-1.375 2.876-.12 1.77-.19 4.07.25 6.34-.22 2.03-.516 4.22-.66 6.405-.177 2.664-.644 5.234-.844 8.25-.17 2.62-.302 4.81-.965 6.874-.89 2.75-.42 5.826-.54 7.627-.117 1.778-.16 3.49-.187 5.157-.006.008.003.03 0 .03-9.11 7.37-15.964 20.5-23.564 29.348-.9 1.05-1.3 2.16-1.595 2.94-.3.78-.52 1.15-.566 1.19-.16.14-.273.296-.374.47-.136-.026-.268-.025-.377-.03-1.286-.086-2.474.254-3.75.624-1.278.37-2.59.83-3.688 1.214-.49.17-.62.196-1 .314-.8-.588-1.894-.478-2.534.28-.19.215-.37.44-.53.75-.166.31-.45.82-.19 1.655.25.833 1.12 1.314 1.56 1.404.44.09.72.06.97.03.97-.13 1.83-.485 2.936-.874-.21.173-.51.41-.683.563-.44.38-.713.59-1.03 1.03-.08.11-.185.23-.284.47-.1.24-.276.67-.06 1.34.21.677.983 1.177 1.404 1.28.42.11.643.09.813.065.676-.1.806-.236 1.155-.406.35-.17.74-.39 1.15-.63.96-.548 1.955-1.17 2.88-1.788-.1.574-.21 1.16-.25 1.72-.06.965-.044 1.515-.06 1.688-.02.176.04.12-.22.56-.38.585-.43 1.3-.09 1.91.333.61.993 1.003 1.69 1 .69-.008 1.33-.42 1.653-1.03.4-.688.657-1.43.72-2.066.06-.636.04-1.02.09-1.812.04-.556.507-2.456.627-4.03.03-.396.06-.77-.03-1.25-.066-.35-.213-.86-.595-1.283.21-.08.415-.19.594-.345 1.007-.88 1.3-1.913 1.595-2.69.29-.773.54-1.35.94-1.813 7.18-8.363 13.46-19.595 20.47-26.56-.06 1.146-.08 2.423-.13 3.78-.17.27-.298.6-.31.94-.05.76.01 1.45.152 2.12-.026.6-.04 1.227-.063 1.597-.005.03 0 .13 0 .16-1.16 8.26-.805 12.45-1.596 20.56v.06c-.13 1.977.07 3.316-.03 4.845v.06c-.008.07-.05.158-.063.28-.025.26-.072.63-.122 1.1-.1.94-.24 2.28-.407 3.877-.342 3.193-.77 7.445-1.22 11.69-.453 4.24-.91 8.492-1.25 11.684-.17 1.596-.307 2.932-.406 3.873-.05.47-.13.834-.16 1.093-.01.13.01.21 0 .28 0 .02-.03.04-.03.037 0 .005.01.01 0 .157-.076 1.12.755 2.08 1.874 2.152.336.024.68-.03.97-.156.22.195.48.357.78.44 1.475.476 2.844.54 4.155.626 2.85.19 5.713.375 8.564.56 1.544.1 3.08.18 4.625.28-.006.09.02.188.03.28.545 6.61 1.14 9.158 1.405 16.5.045 3.11.327 7.01.81 10.91-.53.92-1.312 2.13-2.22 3.343-1.44 1.93-3.12 3.993-4.434 5.842-.443.62-.957 1.25-1.47 1.877v.03c-.046.06-.11.1-.155.16-1.77 2.29-5.49 4.57-1.94 6.713.736.17 1.536-.08 2.03-.652 1.555-1.63 3.38-3.65 4.874-5.75 1.162-1.63 2.775-3.622 4.25-5.59.312 1.717.652 3.33 1.03 4.78.21.82.413 1.636.623 2.44.148.746.707 1.348 1.436 1.56.73.218 1.5.017 2.03-.53.53-.543.736-1.37.5-2.092-.21-.803-.44-1.59-.655-2.404-.645-2.476-1.21-5.713-1.655-9.03.106-.255.234-.494.314-.75.206-.63.08-1.31-.31-1.845-.098-.132-.22-.27-.34-.374-.35-3.185-.59-6.278-.628-8.72v-.06c-.27-7.406-.88-10.157-1.41-16.348 2.023.14 4.04.276 6.06.41 4.75.314 9.904-.4 13.595.593 3.14.847 6.3 1.21 9.41 1.47-.25 9.95-2.502 15.746-2.31 28.75.04 2.88.113 5.627-.44 8.03-.215.73.015 1.505.56 2.03.547.53 1.34.71 2.063.47.72-.235 1.244-.842 1.37-1.592.63-2.754.58-5.45.53-7.97.75 1.05 1.558 2.13 2.377 3.22 2.67 3.553 5.484 7.06 6.03 7.78.69.9 1.942 1.06 2.843.374 1.87-2.15-.736-4.213-2.06-6.09h-.06c-1.036-1.33-2.25-2.91-3.47-4.534-1.31-1.746-2.61-3.51-3.593-4.97-.98-1.46-1.653-2.9-1.623-2.782-.06-.243-.175-.456-.31-.655.48-8.185 1.966-13.456 2.19-21.75 1.37.073 3.81.08 6.092.094 1.22.01 2.37.03 3.214.03h1.03c.71.12 1.44-.14 1.91-.69.17-.2.29-.414.372-.656.428.114.845.19.845.187 0 0 1.035-.445 1.22-.655.37-.414.365-.57.405-.685.04-.115.05-.19.06-.25.08-.314.074-.65 0-.967 0-.16-.005-.29 0-.595.015-.878.065-2.27.125-3.97.12-3.4.32-8.09.53-12.907.426-9.626.936-19.924.97-20.436.11-1.616.236-3.228.344-4.844.12-1.805.23-3.63.345-5.438.13-1.9.25-3.79.375-5.69.12-1.865.51-3.788.654-5.97.03-.528.09-1.06.12-1.59 1.26 2.71 2.413 5.485 3.876 8.22 2.357 4.4 5.59 8.64 11.25 11.684.656.35 1.08.32 1.47.31.39-.01.76-.05 1.16-.124.792-.15 1.69-.406 2.72-.72 2.054-.62 4.58-1.516 7.06-2.405 2.48-.886 4.93-1.773 6.78-2.373.885-.285 1.62-.476 2.126-.594.18.1.36.14.5.19 1.23.398 2.458.39 3.78.346 1.33-.05 2.69-.176 3.85-.28.515-.047.634-.04 1.03-.06.635.763 1.76.92 2.565.34.233-.164.423-.33.657-.595.238-.26.64-.72.597-1.594-.045-.87-.75-1.524-1.156-1.72-.405-.196-.69-.22-.936-.25-.98-.114-1.89.02-3.06.124.25-.115.6-.3.81-.405.52-.265.83-.4 1.25-.75.102-.086.22-.165.372-.375.15-.21.446-.605.404-1.31-.04-.708-.646-1.36-1.03-1.565-.38-.206-.61-.234-.78-.25-.68-.07-.87.015-1.25.093-.38.08-.79.217-1.25.344-1.06.29-2.203.63-3.25 1 .24-.53.485-1.06.657-1.598.3-.92.44-1.46.5-1.63.06-.16-.015-.1.346-.47.55-.54.712-1.38.403-2.09-.31-.71-1.04-1.15-1.817-1.125-.496.02-.946.235-1.28.594-.558.565-1 1.21-1.22 1.81-.218.604-.258.995-.5 1.75-.17.53-1.125 2.22-1.626 3.72-.126.374-.22.758-.25 1.25-.018.26-.02.633.092 1-.517.143-1.068.3-1.69.5-1.96.634-4.433 1.52-6.904 2.406-2.47.885-4.96 1.76-6.875 2.34-.96.29-1.764.525-2.315.627-.194.04-.3.058-.406.067-4.74-2.625-7.348-6.03-9.47-10-2.17-4.05-3.75-8.67-6.47-13.22-.046-.074-.105-.15-.16-.22.167-1.25.35-2.575.44-3.935.14-2.09.3-4.19.44-6.28.123-1.85.513-3.79.656-5.97l.344-5.125.44-6.565.19-2.85c.07.01.15.027.22.034 1.685.18 3.48.46 4.5.593 1.11.15 2.13-.638 2.28-1.75.15-1.11-.64-2.13-1.75-2.28-.88-.118-2.79-.4-4.626-.597l-.344-.03c.12-1.79.224-3.585.34-5.376.09-1.347-.27-2.487-.593-3.596-.326-1.107-.68-2.163-.78-2.72-.42-2.31-.834-4.804-1.94-7.44-.165-.39-.335-.76-.5-1.153-.47-1.12-1.055-2.16-1.657-3.125.04-.2.095-.414.09-.69-.006-.41-.1-1.085-.69-1.654-.422-.41-.97-.584-1.402-.623-.41-.58-.82-1.12-1.186-1.684-.98-1.505-2.33-2.39-3.53-3.095-1.2-.704-2.29-1.272-2.845-1.75-2.06-1.77-5.03-2.855-7.19-3.44-.47-.124-.94-.245-1.41-.373-2.37-.64-4.816-1.17-6.905-1.842-1.1-.355-2.233-.49-3.28-.5zm242.19 1.97c-8.77-.057-17.45 3.156-23.373 10.125-2.95 3.465-3.33 7.27-3 10.686.33 3.42 1.17 6.62.97 9.91-.066 1.02-.36 1.336-1 1.72-.644.38-1.81.63-3.13.624-2.64-.016-5.97-1.288-6.623-1.846-.882-.75-1.15-1.37-1.22-2-.063-.63.15-1.38.597-2.16.84-1.455 2.66-2.76 3.813-3.093.206.18.52.6.686.97.13.29.12.437.13.53-1.037.43-1.52 1.62-1.095 2.658.43 1.038 1.62 1.523 2.656 1.094 1.276-.465 2.252-1.706 2.47-2.875.214-1.167-.064-2.19-.47-3.094-.406-.9-.977-1.7-1.72-2.34-.74-.644-1.78-1.256-3.15-1-2.785.52-5.31 2.45-6.846 5.124-.768 1.337-1.27 2.915-1.095 4.594.08.73.32 1.46.66 2.16-.82.005-1.65.1-2.5.437-1.25.5-2.42 1.52-3.122 2.94-1.623 3.28-1.97 6.705-.97 9.654 1.008 2.95 3.46 5.34 6.785 6.22 3.085.815 5.735 1.026 8.095.28 2.312-.73 4.12-2.434 5.44-4.656-.008.04 0 .087 0 .125-.14 2.182-.278 4.34-.41 6.53l-.314 5.12c-.135 2.185.05 4.185-.06 6.03-.06.973-.13 1.938-.19 2.908-.114.068-.21.14-.31.22-3.98 3.25-9.055 5.25-12.72 7.75-1.83 1.25-3.466 2.72-4.03 4.88-.566 2.157.18 4.52 1.97 6.97 2.784 3.82 7.97 7.455 10.72 10.875 1.37 1.714 2.02 3.21 1.9 4.315-.08.793-.512 1.692-1.81 2.75-.69-.158-1.413-.238-2.155-.314-1.323-.13-2.714-.195-3.875-.25-.51-.02-.6-.03-1-.06-.35-.57-.99-.92-1.66-.91-.3.007-.58.077-.843.22-.25.13-.48.27-.75.5-.266.227-.705.6-.78 1.467-.073.87.56 1.624.938 1.873.375.25.635.314.874.375.96.247 1.854.26 3.03.31-.26.087-.62.177-.84.25-.55.196-.88.307-1.34.597-.115.08-.255.16-.438.35-.18.188-.503.515-.56 1.22-.055.706.46 1.46.814 1.718.35.257.554.305.72.345.666.16.894.06 1.28.03.39-.027.81-.06 1.28-.126 1.09-.143 2.23-.34 3.315-.56-.31.486-.6.97-.845 1.47-.42.87-.634 1.406-.72 1.56-.08.155.007.09-.402.406-.822.64-.95 1.83-.31 2.657.64.827 1.8.983 2.63.344.627-.485 1.17-1.09 1.47-1.66.295-.564.37-.97.72-1.69.135-.28.59-.88 1.06-1.62-.173 1.43-.32 2.743-.5 4.22-.353 2.855-.727 5.58-1 7.5-.083.584-.157.92-.22 1.31-.254.18-.53.406-.53.406-.323.665-.265 1.43.156 2.032.13.182.292.34.47.47.15.224.392.52.903.715.64.25 1.47.056 1.84-.19.03-.02.068-.04.095-.06.062.004.094.03.16.03 1.16.07 2.73.15 4.374.25 3.287.204 6.847.43 7.97.5 2.725.167 5.497.334 8.313.28-.03.13-.06.27-.063.406-.45 9.84 1.015 25.52 1.064 37.403-.145.19-.275.416-.345.656.034-.118-.7 1.302-1.75 2.715-1.05 1.416-2.42 3.1-3.81 4.784-1.17 1.41-2.297 2.77-3.316 3.963-.038.045-.088.08-.126.125-1.784 2.14-5.57 4.826-1.72 6.78.747.12 1.48-.183 1.94-.78.58-.694 3.54-4.04 6.377-7.47.87-1.05 1.734-2.11 2.53-3.126-.16 2.516-.25 5.812.25 8.592.096.754.606 1.417 1.316 1.687s1.49.1 2.06-.404c.57-.504.838-1.26.658-2-.44-2.43-.336-5.78-.16-8.658.845-13.8-1.377-33.11-.875-44.092.02-.285-.028-.58-.126-.844.35-.035.71-.043 1.06-.092 3.486-.472 8 .628 12.405 1.037.1.388.255.907.47 1.66.47 1.674 1.22 4.22 2.09 7.124 1.746 5.81 5.356 17.15 6.91 21.53.815 2.305 1.685 5.297 2.47 8.407-.02.034-.05.06-.066.095-.358.71-.276 1.56.22 2.185.16.214.343.426.53.626.74 3.275 1.335 6.485 1.592 9.03.086.84.17 1.67.25 2.5.11 1.13 1.124 1.92 2.25 1.81 1.13-.11 1.923-1.09 1.813-2.22l-.25-2.5c-.15-1.49-.38-3.12-.687-4.84 2.064 1.33 4.28 2.628 5.934 3.75 2.13 1.446 8.44 6.136 10.47 7.127.66.34 1.44.31 2.06-.1 1.163-1.255-.02-3.095-3.717-5.78-2.787-2.02-5.79-4.16-6.5-4.66-1.88-1.272-4.2-2.594-6.22-3.904-1.27-.82-2.467-1.666-3.28-2.343-.91-3.83-1.996-7.63-3.036-10.56-1.496-4.215-5.11-15.565-6.846-21.346-.867-2.89-1.6-5.42-2.063-7.06-.03-.113-.03-.145-.06-.25 3.88.237 7.75.482 11.63.72 2.85.174 5.71.356 8.56.53.07.005 1.59.347 2.936.687.676.175 1.35.325 2 .44.656.12 1.19.26 2.065.095.74-.1 1.364-.61 1.623-1.314.18-.505.18-1.023-.03-1.5-.01-.09 0-.17 0-.28l-.1-2c-.08-1.656-.204-3.843-.314-6.033-.11-2.19-.23-4.41-.31-6.064l-.094-1.97c-.01-.24.005-.46 0-.59 0-.03-.03-.04-.03-.067.095-1.52.47-2.82.59-4.78.003-.02 0-.04 0-.07.246-8.15 1.133-12.254 1.03-20.593.12-1.94.743-8.25.877-10.44.012-.22.012-.43.03-.657.04-.004.09-.02.124-.03 8.786-2.374 21.26-10.09 24.5-30.78.21-1.336.806-2.3 1.47-2.97.01.006.024.03.03.033.54.196.924.15 1.22.095 1.264-.243 2.36-.88 3.5-1.563 1.14-.68 2.286-1.44 3.25-2.092.43-.29.534-.35.875-.56.93.362 1.958-.068 2.378-.97.124-.255.234-.47.31-.81.08-.346.21-.917-.25-1.66-.455-.74-1.42-.992-1.87-.97-.45.027-.677.128-.907.22-.91.373-1.65.937-2.624 1.594.16-.22.4-.53.53-.72.33-.48.525-.77.72-1.28.05-.13.09-.277.126-.53.033-.26.093-.72-.283-1.32-.377-.6-1.22-.88-1.658-.876-.437.003-.627.09-.78.155-.63.27-.77.47-1.067.72-.294.25-.595.54-.936.876-.79.764-1.61 1.61-2.344 2.434-.04-.57-.08-1.17-.186-1.72-.184-.943-.35-1.48-.377-1.65-.025-.17-.043-.094.096-.592.16-.55.08-1.15-.25-1.62-.33-.47-.87-.745-1.44-.78-.9-.055-1.71.534-1.94 1.406-.214.76-.29 1.522-.19 2.153.1.63.26 1.032.41 1.81.107.55.094 2.48.377 4.03.07.39.167.777.377 1.22.05.11.105.25.186.377-1.15 1.186-2.13 2.856-2.47 5-2.874 18.37-12.867 24.89-20.5 27.318.14-1.242.264-2.5.344-3.81.11-1.8.967-4.784.438-7.625-.393-2.13-.25-4.35-.09-6.97.184-3.015.055-5.616.22-8.28.1-1.628.103-3.266.123-4.845.68.22 1.37.34 2.03.38 1.226.074 2.38-.076 3.41-.345 1.03-.27 1.9-.59 2.72-1.316 1.566-1.38 2.86-3.333 3.406-5.62.547-2.283.203-5.07-1.75-7.12-3.814-4.008-11.01 1.04-8.72 6.03.29.68.92 1.142 1.657 1.22.74.08 1.458-.238 1.88-.847.42-.607.484-1.4.154-2.06-.353-.777 1.446-2.216 2.097-1.53.913.96 1.04 2.003.72 3.34-.32 1.335-1.22 2.78-2.1 3.564-.033.006-.5.26-1.06.407-.637.17-1.44.26-2.156.22-.713-.043-1.3-.23-1.655-.47-.19-.13-.36-.25-.47-.44.13-2.17.25-4.712-.19-7.06-.407-2.18-.81-4-1.78-6.28-.26-.603-.65-2.703-2.13-4.38-.236-.27-.96-2-2.343-3.56-1.03-1.164-2.68-3.103-4.436-4.31-.39-.266-1.21-.95-2.06-1.623-.85-.67-1.627-1.352-2.874-1.75-2.29-.72-4.49-1.01-6.567-1.56-1.547-.406-2.82-.775-4.378-1.03-1.37-1.696-3.085-3.016-5.06-3.813-3.09-1.243-6.37-2.047-9.69-2.406-.62-.063-1.25-.12-1.875-.153-.582-.03-1.162-.057-1.75-.06zm-248.53 2.22c.51-.006 1.05.02 1.69.06 1.695.115 3.416-.03 4.75-.06.8-.016 1.45.01 1.905.156 2.345.755 4.907 1.3 7.155 1.907.47.13.91.28 1.38.41 1.69.46 4.593 1.68 5.62 2.564 1.14.98 2.37 1.576 3.41 2.185 1.04.61 1.83 1.18 2.22 1.78.29.45.58.885.874 1.313l-.25.186c-.89.663-1.82 1.384-2.657 1.873-.836.49-1.586.62-1.53.622-4.37-.29-10.18-4.705-16.153-7.69-2.99-1.49-6.128-2.627-9.44-2.28-3.317.34-6.55 2.334-9.22 6.184-3 4.324-3.208 9.074-4.16 12.72-.95 3.643-2.09 6.174-7.31 7.873-1.77.578-2.78.478-3.44.19-.66-.288-1.17-.84-1.593-1.78-.21-.47-.37-1.023-.5-1.627.05-.51.09-1.053.126-1.56.103-1.63.25-3.473.53-5.063.04-.03.074-.066.12-.095.887-.53 2.17-.95 3.22-1 1.046-.057 1.69.23 1.97.56.27.33.596 1.105.06 3.156-.024.02-.1.1-.283.22-.367.25-1.03.56-1.75 1.19-.845.74-.93 2.03-.19 2.878.74.846 2.03.93 2.877.19.158-.133.667-.442 1.316-.874.65-.43 1.59-1.155 1.94-2.44.765-2.843.49-5.257-.877-6.907-1.37-1.65-3.447-2.125-5.28-2.03-.53.026-1.05.114-1.564.22.29-.65.63-1.29 1.07-2.034.72-1.23 1.47-2.79 1.814-3.09 1.39-1.22 2.036-2.57 2.815-3.25 1.16-1.02 3.12-2.61 4.12-3.127.818-.42 1.668-1 2.5-1.5.837-.5 1.74-.89 1.66-.878 1.895-.342 4.12-.363 6.56-.687 1.84-.24 2.97-.456 4.5-.47zm248.595 1.842c.514.01 1.015.04 1.53.07.55.03 1.107.064 1.656.122 1.88.2 3.75.596 5.568 1.126-.187.02-.372.027-.562.06-2.157.405-4.695.638-7.126.97-.48.068-.99.12-1.47.188-2.216.305-5.26 1.007-7.53 2.5-.61.404-1.75.83-3.03 1.376-1.28.55-2.75 1.23-3.91 2.597-1.78 2.1-4.13 4.216-5.81 7.125-.216.37-.41.755-.63 1.123-.29.505-.54.98-.78 1.47-.13-.82-.24-1.59-.312-2.34-.285-2.94-.116-5.127 2.06-7.69 5.045-5.933 12.63-8.74 20.344-8.69zM72.6 215.1c2-.09 4.298.68 6.81 1.938 5.365 2.68 11.19 7.633 17.69 8.063 1.567.1 2.724-.54 3.843-1.19 1.12-.66 2.166-1.43 3.062-2.1.04-.03.05-.04.09-.06.51.82.96 1.63 1.31 2.47l.5 1.18c.89 2.14 1.3 4.25 1.72 6.57.19 1.08.58 2.16.87 3.16.29 1 .45 1.947.435 2.157-.124 1.876-.25 3.75-.375 5.625-.23.07-.48.176-.75.315-1 .51-1.42 1.72-.906 2.72.28.552.81.93 1.37 1.06-.06.852-.1 1.71-.16 2.56-.09 1.333-.19 2.67-.28 4-.12-.066-.24-.118-.38-.158-.09-.05-.237-.16-.408-.28-.35-.24-.81-.57-1.25-.91-.44-.333-.87-.677-1.22-.937-.17-.13-.34-.24-.5-.343-.077-.05-.135-.08-.28-.153-.07-.034-.143-.094-.343-.154-.2-.06-.645-.388-1.56.22-.668.44-.718.633-1.063 1-.348.36-.73.78-1.098 1.12-.03.03-.06.03-.096.06-.198-.32-.294-.54-.594-.91-.323-.4-.82-.96-1.81-1.094-.99-.134-1.903.463-2.375 1.03-.435.53-.975 1.122-1.467 1.47-.494.35-.746.4-.97.344-2.178-.55-3.878-.24-5.156-.81-1.505-.676-3.43-2.69-5.44-3.876-.315-.192-.69-.27-1.06-.25-.81.048-1.5.62-1.69 1.406-.185.79.177 1.597.877 2 .296.175.69.49 1.126.844.15.61.6 1.106 1.22 1.28-.07 0 .05.077.25.35.326.44.744 1.16 1.22 1.97.95 1.614 1.96 3.56 3.78 4.78 3.33 2.23 5.29 3.984 9.84 4.59 3.707.496 6.787-.84 9.75-3.187-.17 1.314-.4 2.72-.5 4.25-.14 2.09-.267 4.16-.406 6.25-.13 1.894-.55 4-.72 6.158-5.9 3.37-13.77 6.01-20.88 6.658-1.64.15-4.77.203-7.782.093-3.01-.104-6.11-.454-7.125-.81-.765-.265-1.76.16-2.096.5-.338.345-.42.56-.5.75-.157.38-.195.657-.25.97-.115.63-.196 1.354-.25 2.125-.07.99-.1 1.94-.095 2.75-1.2-.44-2.33-.89-3.31-1.41-8.02-4.21-17.74-8.173-21.19-15.94.04-.98.097-1.84.13-2.34.195-2.953.1-5.843.28-8.59.16-2.45-.033-5.36.375-6.624.866-2.7.984-5.29 1.156-7.88.18-2.75.65-5.28.843-8.22.01-.172.012-.382.03-.56.35.25.74.476 1.152.656 1.77.778 3.91.78 6.31 0 6.374-2.07 8.897-6.5 10-10.72 1.1-4.213 1.342-8.24 3.56-11.433 2.213-3.19 4.194-4.254 6.28-4.47.133-.014.275-.025.41-.03zm257.968.157c.09-.006.182 0 .28 0 1.304.005 3.46.56 5.69.75-3.304 4.475-6.89 9.515-10.5 14.03-4.068 5.087-8.233 9.38-11.408 10.97-.072.035-.15.052-.218.094-3.198 2.1-10.994 2.44-15.47 2.21.057-.91.102-1.81.157-2.72.01-.21.3-1.14.72-2.09.42-.96.92-1.99 1.25-3.03.71-2.25 1.4-4.28 2.56-6.29.21-.36.41-.75.62-1.12 1.28-2.21 3.34-4.15 5.34-6.5.46-.54 1.33-1.02 2.44-1.5 1.1-.47 2.4-.89 3.65-1.72 1.13-.74 4.13-1.63 5.87-1.87.48-.06.96-.12 1.44-.19 2.3-.32 4.89-.55 7.31-1l.25-.03zm14.687 2.5c1.52.33 2.93.572 4.18.97-.08-.026.8.49 1.56 1.092.76.6 1.554 1.26 2.31 1.78.93.64 2.632 2.5 3.654 3.65.68.77 1.15 2.21 2.37 3.59.3.34.85 1.93 1.4 3.25.396.93.686 1.73.905 2.53-.51-.16-1.055-.28-1.626-.32-3.62-.22-5.28-.77-6.625-1.85-1.343-1.07-2.56-2.97-4.53-5.968-1.02-1.55-1.693-4.54-2.875-7.25-.22-.51-.45-1.01-.75-1.5zm-5.6.812c.12-.02.24 0 .34 0 .43 0 .68.13.934.31.41.29.89.97 1.34 2 .9 2.06 1.45 5.24 3.18 7.87 1.94 2.95 3.274 5.18 5.405 6.87 2.134 1.7 4.89 2.507 8.91 2.75.71.046.994.22 1.19.377.196.16.365.383.53.843.335.92.43 2.58.75 4.31.04.19.075.38.126.56-.173 2.85-.085 5.86-.25 8.56-.18 2.94-.05 5.56-.22 8.31-.156 2.58-.36 5.15.158 7.934.24 1.31-.32 4.174-.47 6.624-.17 2.746-.63 5.57-.81 8.53-.058.876-.238 2.747-.41 4.69-.22-.014-.378-.04-.72-.064-.263-.016-.48-.06-.78-.06-.297 0-.655.08-1.186.28-1.715.65-4.866.95-8.25 1-3.386.05-7.07-.126-10.22-.157-13.61-.13-30.134-2.476-42.406-2.78.08-1.32.17-2.62.25-3.94.14-2.29 0-4.558.123-6.56.13-2.09.244-4.19.372-6.28.134-2.227-.018-4.206.092-6 .102-1.71.204-3.447.31-5.16.132-2.184.27-4.34.404-6.53.11-1.82.2-3.644.312-5.47 4.67.275 12.58.49 17.75-2.78.002 0 .023-.027.03-.03.06-.04.124-.053.19-.094l-.036-.03c.395-.2.8-.416 1.19-.658.11.15.23.262.37.374.58.45 1.256.61 1.97.652.596.04 1.268-.074 1.81-.467.548-.393.836-.988.94-1.47.21-.96.01-1.678-.093-2.25-.04-.2-.137-.41-.25-.624 2.224-2.135 4.426-4.72 6.624-7.47 3.664-4.58 7.245-9.624 10.47-14zm257.22 1.75c-.3 0-.54.07-.75.12-.85.21-1.4.55-1.44.56-.338.13-.64.36-.848.65-.506.71-1.148 1.56-1.06 3.04.04.74.455 1.69 1.185 2.19.73.51 1.544.65 2.406.66.718.005 1.527-.18 2.157-.69.63-.506.937-1.26 1.032-1.842.19-1.17-.087-2.01-.25-2.69-.157-.64-.675-1.417-1.408-1.75-.37-.17-.73-.25-1.03-.25zm-132.38.03c-.3 0-.636.05-1 .22-.73.34-1.225 1.14-1.378 1.78-.16.68-.447 1.52-.25 2.69.1.58.43 1.3 1.062 1.81.63.5 1.41.69 2.12.69.86-.01 1.65-.18 2.37-.69.722-.51 1.18-1.42 1.22-2.16.07-1.47-.59-2.33-1.1-3.03-.21-.29-.48-.53-.815-.66-.04-.02-.62-.36-1.47-.568-.21-.05-.48-.096-.78-.094zm-271.75 3.15c-.13.01-.24.04-.346.06-.84.16-1.4.452-1.44.47-.34.11-.63.32-.85.59-.53.66-1.198 1.465-1.19 2.905.002.72.375 1.656 1.06 2.187.682.53 1.47.732 2.31.78.7.043 1.453-.098 2.093-.56.64-.46 1-1.155 1.127-1.72.25-1.128 0-1.985-.12-2.656-.116-.63-.58-1.416-1.28-1.78-.346-.18-.67-.264-.966-.28-.076-.006-.15 0-.22 0-.07.002-.125-.008-.19 0zm-99 11.9c-.2.01-.42.07-.66.16-.627.24-1.114.83-1.28 1.35-.18.558-.464 1.24-.376 2.22.04.49.26 1.14.75 1.598.49.46 1.15.646 1.75.685.71.05 1.36 0 2-.375.63-.374 1.04-1.14 1.12-1.75.16-1.215-.31-1.98-.69-2.594-.16-.254-.39-.434-.66-.56-.03-.017-.466-.338-1.156-.565-.17-.05-.375-.14-.625-.15-.063-.004-.12 0-.188 0zm247.81 4.79c-.2.01-.42.04-.657.13-.626.238-1.084.856-1.25 1.375-.173.554-.467 1.24-.374 2.22.046.49.29 1.136.78 1.593.495.456 1.125.62 1.72.655.716.042 1.367 0 2-.378.63-.38 1.08-1.14 1.156-1.75.153-1.218-.34-1.95-.72-2.566-.16-.254-.415-.465-.687-.59-.033-.016-.433-.34-1.124-.564-.18-.057-.41-.11-.66-.127h-.19zm-61.126 1.47h.34c.15.01.3.01.47.03 1.35.17 3.08 1.09 3.28 1.25.76.658.87 1.26.75 1.91-.12.62-.58 1.2-1.13 1.47-.23-.09-.49-.202-.75-.22-1.03-.082-1.958.616-2.16 1.626-.2 1.01.393 2.03 1.374 2.344 0 .005.026 0 .03 0 .095.07.04.07.22.157.42.21 1.026.3 1.5.25.47-.05.85-.19 1.28-.375 1.916-.817 3.226-2.547 3.593-4.5.173-.91.103-1.9-.187-2.845.9.13 1.815.213 2.75.22 1.046.004 2.11-.08 3.12-.347-.03.56-.09 1.13-.122 1.69-.753.5-1.36 1.12-1.78 1.78-.98 1.52-1.46 3.1-2.125 4.25-.986 1.7-1.95 2.49-3.25 2.904-1.305.414-3.176.396-5.845-.31-2.135-.565-3.37-1.805-3.97-3.563-.6-1.752-.47-4.09.75-6.56.3-.6.59-.832 1-1 .23-.09.52-.134.844-.153zm49.84 3.97c-.6.01-1.16.35-1.44.88-.46.835-.39 1.36-.41 2.03-.01.674.035 1.41.094 2.157.12 1.493.3 3.005.376 3.72.095.904.91 1.595 1.81 1.5.905-.096 1.566-.94 1.47-1.845-.086-.83-.266-2.253-.375-3.624-.053-.686-.102-1.36-.093-1.845.004-.24.04-.477.062-.593-.016.02-.037.01-.06.06.29-.51.3-1.12 0-1.627-.3-.504-.85-.82-1.44-.81zM602 247.55c-1.066 1.42-1.792 2.75-2.47 3.78-.786 1.196-1.437 2.005-2.687 2.72-3.085 1.77-4.052 2.567-7.47 3.313-2.965.648-10.05-.702-12.967-2.25-.22-.126-.446-.197-.687-.25.07-2.12.2-4.274.25-6.5 3.66 2.22 6.71 2.723 11.47 2.75 5.1.035 10.07-1.415 14.56-3.56zm-142.47.03c4.507 2.13 9.48 3.53 14.594 3.47 4.754-.055 7.822-.55 11.47-2.78.062 2.226.196 4.373.28 6.5-.236.043-.466.13-.688.25-2.91 1.56-9.97 2.944-12.94 2.31-3.42-.725-4.403-1.53-7.5-3.28-1.253-.71-1.957-1.53-2.75-2.72-.682-1.024-1.395-2.335-2.47-3.75zm-288.25 2.157c3.456 2.35 6.457 2.974 11.094 3.25 4.976.298 9.854-.8 14.343-2.656-1.11 1.33-1.845 2.56-2.56 3.53-.83 1.13-1.524 1.9-2.78 2.53-3.1 1.57-4.1 2.27-7.47 2.82-2.925.48-9.735-1.18-12.5-2.84-.21-.13-.45-.22-.686-.28.18-2.07.4-4.17.57-6.34zm-68.156 5.063c.17.126.29.205.47.342.453.346.936.697 1.373 1 .22.152.447.28.658.406.213.126.335.255.813.375.41.12.823.088 1.19-.06-.04.63-.08 1.25-.125 1.877-.52-.056-1.053.13-1.438.5-3.08 2.744-5.105 3.82-8.19 3.407-3.866-.516-4.795-1.64-8.31-4-.327-.22-.83-.78-1.346-1.5 1.42.225 2.61.135 3.31.31 1.56.396 3.01-.21 4-.906.52-.36.93-.79 1.31-1.18.21.35.32.57.65 1 .41.537 1.21.886 1.81.878.6-.002 1.01-.165 1.34-.34.67-.346 1.123-.773 1.593-1.22.33-.304.605-.59.876-.872zm209 1.592c-.53.037-1.026.32-1.31.812-.46.788-.19 1.795.592 2.25.34.2.78.49 1.25.846.156.496.54.91 1.06 1.06-.04.01.18.13.44.44.346.41.792 1.072 1.28 1.78.976 1.416 2.047 3.103 3.72 4.19 3.39 2.2 5.234 3.736 9.686 4.716 4.074.9 7.386-.155 10.72-2.22 1.36-.84 2.744-2.19 3.97-3.654 1.224-1.46 2.266-2.95 2.75-4.407.01-.024-.01-.037 0-.062.735-.45 1.57-.9 2.624-1.59.398-.26.527-.46.53-.47.52-.44.73-1.17.5-1.81-.222-.64-.816-1.072-1.5-1.092-.425-.01-.84.15-1.153.44-.118.11-.184.19-.218.22-1.59 1.04-2.937 1.59-4.5 2.97-.508.45-1.39 1.14-2.22 1.6-.728.407-1.35.487-1.5.5.08.05.103.09-.06.03 0 0 .04-.022.06-.03-.105-.05-.326-.14-.53-.28-.367-.24-.836-.58-1.28-.903-.45-.32-.906-.63-1.25-.874-.177-.12-.33-.22-.47-.31-.07-.043-.11-.096-.22-.154-.056-.03-.14-.045-.28-.095s-.28-.354-1.19.03c-.66.284-.755.467-1.093.72-.337.257-.712.52-1.06.75-.166.11-.24.148-.376.22-.254-.36-.46-.71-.873-1.16-.315-.34-.747-.77-1.5-.94-.755-.164-1.643.176-2.157.63-.42.37-.93.776-1.406 1-.477.223-.842.263-1.28.124-2.01-.633-3.778-.584-5.25-1.28-1.685-.797-3.668-2.673-5.56-3.78-.297-.17-.62-.21-.94-.19zm16 7.094c.24.33.49.704.97 1.25.376.424.94.67 1.404.716.47.05.87-.026 1.187-.127.64-.2 1.123-.5 1.593-.81.384-.252.703-.493 1-.72.26.19.5.34.813.564.46.33.95.68 1.38.97.43.28.61.49 1.32.71.62.192 1.208.2 1.75.12-.61.586-1.21 1.1-1.65 1.375-3.01 1.86-5.074 2.53-8.344 1.81-3.974-.876-5.093-1.99-8.62-4.28-.284-.185-.594-.46-.94-.845 1.18.243 2.21.333 2.94.56 1.358.43 2.65.145 3.627-.313.653-.303 1.16-.65 1.594-1zm182.124 1.123c-.308-.01-.583.02-.844.09-1.04.27-1.717 1.01-2.28 1.62-.75.82-1.347 1.73-1.813 2.53-.43.65-.47 1.48-.12 2.15s1.02 1.082 1.78 1.06c.76-.02 1.48-.46 1.85-1.16.38-.63.89-1.34 1.28-1.78.22-.24.32-.295.29-.31 1.033-.09 1.86-.966 1.936-2.03.077-1.098-.654-2.034-1.72-2.158-.106-.01-.24-.03-.343-.03zm6.187 5.06l-.78.18c0 .003-.24.14-.315.19-.287.2-.327.262-.375.312-.093.1-.1.12-.124.15l-.09.126c-.06.08-.13.164-.22.28-.16.24-.38.585-.62.94-.48.71-1.05 1.535-1.44 2.092-.46.623-.58 1.434-.28 2.124.3.69.97 1.143 1.72 1.185.75.04 1.46-.32 1.88-.97.4-.58.99-1.42 1.47-2.124.24-.35.48-.66.63-.874.03-.034.01-.062.037-.093.465-.49.695-1.187.595-1.845l-.594-1.124zm-223.374 8.44c-.03 1.82.03 3.55-.06 5.06-.12 1.99-.22 4-.34 6-.13 2.18.02 4.13-.09 6-.11 1.9-.22 3.81-.34 5.72l-.06 1c-.08-.11-.16-.21-.25-.32-3.31-4.12-8.533-7.9-10.59-10.72-1.425-1.95-1.577-3.07-1.374-3.84.2-.77.99-1.65 2.5-2.688 2.52-1.72 6.663-3.51 10.623-6.22zm-250.37 4.9c5.24 5.51 12.92 8.622 18.75 11.683 4.02 2.11 8.8 3.29 11.54 5.03v.18c-2.26-.57-4.61-.46-6.91-.37-2.75.11-5.42.21-7.46-.31-1.12-.285-2.01-.36-2.6-.41-.05-.396-.11-.867-.19-1.813-.06-.774-.622-1.576-1.152-1.906-.53-.33-.99-.38-1.405-.44-.83-.105-1.59-.07-2.347 0-.76.075-1.49.18-2.03.22-.143.015-.21.03-.312.03-.13-.152-.37-.43-.62-.87-.422-.746-.88-1.785-1.342-2.875-.925-2.18-1.714-4.424-2.56-5.875-.464-.8-.93-1.562-1.34-2.28zm606.63.78c.1 0 .19.01.28 0v1.31c-.01 2.156-.22 4.01-.28 6.342-15.22 2.53-30.34 2.04-46 1.25-8.92-.71-18.76-.79-27.35-.404.02-2.21.02-4.41.03-6.62.01-.2.01-.393 0-.593 20.59-.61 28.76 2.95 57.82.596 1.72-.08 3.42-.134 5.1-.124 4.233.03 7.08-1.77 10.406-1.75zm-237.19.28c.1.01.21.03.31.03 3.33-.04 6.18 1.735 10.41 1.685 1.68-.02 3.38.02 5.1.09-.04.26-.08.835.13 1.626.536 2.03 1.607 5.89 2.78 9.15.59 1.636 1.166 3.106 1.846 4.25.34.578.63 1.096 1.346 1.597.36.25.906.52 1.596.5.694-.02 1.376-.398 1.75-.78 1.01-1.037 3.956-4.45 6.846-7.598 1.27-1.38 2.49-2.66 3.438-3.59.17.72.5 1.402.965 1.872.82.833 1.788 1.37 2.845 1.69-.81.583-1.205 1.316-1.563 2.185-.377.917-.673 2.007-.937 3.405-.97 5.17-.856 8.402.154 12.25.41 1.56.65 3.446 1.47 5.093.207.41.49.84.94 1.25.45.41 1.18.8 1.97.78 1.577-.037 2.398-.997 3.156-2.03.36-.487.693-1.097 1.22-2 .53-.907 1.15-2.01 1.75-3.128.603-1.11 1.17-2.202 1.594-3.12.213-.456.42-.854.56-1.25.07-.195.107-.4.157-.655s.265-.544-.09-1.405c-.3-.718-1.58-3.997-2.75-6.97-.59-1.488-1.16-2.926-1.63-4-.055-.13-.1-.225-.155-.346.31-.177.59-.397.78-.63.44-.534.61-1.052.72-1.5.212-.89.2-1.65.22-2.342.003-.324.012-.396.03-.626.382.29.85.43 1.34.406.18.11.286.17.59.405.995.753 2.45 2.013 3.91 3.373 1.457 1.36 2.95 2.834 4.156 4.064 1.208 1.23 2.2 2.345 2.345 2.53.28.37.71.785 1.434.97.73.188 1.577-.036 2.03-.342.917-.61 1.1-1.215 1.38-1.842.56-1.252.953-2.81 1.312-4.53.36-1.722.635-3.575.843-5.157.21-1.58.353-2.8.34-3.69-.006-.455.006-.89 0-1.344 2.76-.008 5.153.136 7 .564 0 .2-.003.393 0 .59l.093 8c.032 2.72-.697 5.584-.657 9 .017 1.1-.17 6.94-.372 12.5-.125 3.41-.27 6.556-.345 8.874-2.74-.044-6.29-.158-9.06-.127-1.46.02-2.91.116-4.343.22-.19-.01-.38-.003-.564.03-4.605.37-9.035.967-13.127.5-5.848-.66-11.295.585-15.97-.53-5.61-1.33-12.297.07-17 .127-3.28.04-6.224.34-9.25.376-.125.002-.25 0-.375 0-.05-.796-.11-1.707-.185-2.876-.17-2.598-.4-5.91-.62-9.22-.224-3.31-.456-6.61-.625-9.19-.17-2.57-.28-4.66-.28-4.75-.03-2.38-.545-4.287-.564-5.905-.03-2.77-.315-4.77-.343-7.19-.003-.44-.025-.9-.03-1.347zm62.47.47c0 .43-.01.85 0 1.28 0 .29-.09 1.605-.28 3.09-.2 1.49-.48 3.26-.81 4.84-.19.907-.39 1.4-.59 2.095-.336-.35-.49-.514-.906-.94-1.25-1.273-2.77-2.774-4.28-4.186-1.51-1.41-2.97-2.73-4.19-3.657-.61-.46-1.12-.83-1.75-1.12-.183-.085-.383-.187-.655-.25 2.276-.233 4.555-.44 6.81-.656 2.28-.215 4.53-.388 6.657-.5zm-300.41.684c1.49.026 3.11.136 4.82.28-.572 1.04-1.58 2.43-2.902 3.66-1.95 1.816-4.466 3.38-6.846 3.907-.04.01-.17.034-.28.03.136-2.32.3-4.646.436-6.97.01-.192-.01-.396 0-.592.972-.176 2.092-.25 3.342-.28.462-.01.942-.04 1.44-.03zm-71.25.096c-.49 1.488-.85 3.03-1.37 4.35-.41 1.056-.88 1.92-1.34 2.375-.453.455-.762.61-1.5.56-5.732-.38-9.17-.2-13.72-2.47 6.048-.55 12.398-2.31 17.94-4.81zm356.6.568c-.14.067-.3.115-.43.22-.04.03-.057.09-.095.125-.09-.066-.18-.138-.28-.19-.063-.03-.158-.05-.25-.06.353-.036.707-.06 1.062-.096zm-276.25.095c1.16.142 2.32.267 3.5.436 6.9.984 14.18 2.302 20.1 2.654 6.695.4 13.185 0 19.376.064-.097 2.05.513 3.953 1.5 5.5 1.28 2.015 3.13 3.53 4.968 4.72 2.96 1.91 5.84 2.966 6.908 3.31-.06.6-.2 2.04-.44 4.096-.285 2.503-.66 5.72-1.03 8.935-.375 3.217-.776 6.443-1.064 8.97-.13 1.133-.23 2.01-.314 2.78-.12-.007-.25.007-.373 0-2.95-.176-5.802-.59-9-.78-4.585-.276-11.027-1.977-16.563-.94-4.61.865-9.86-.59-15.594-.22-5.418.35-11.358-1.19-17.563-1.56-2.7-.16-6.17-.254-8.84-.345.034-2.267.084-5.335.123-8.66.06-5.43.126-11.113.19-12.188.12-2.018-.042-3.87-.16-5.598.32-.01.718-.033 1.12-.124 3.37-.75 6.39-2.677 8.75-4.876 2.11-1.96 3.71-4.03 4.41-6.19zm248.85.124c4.57.276 9.27.625 14.095.624-.326.267-.655.58-1.03.936-1.116 1.07-2.56 2.56-4.03 4.16-2.327 2.53-4.11 4.54-5.343 5.903-.34-.72-.676-1.4-1.06-2.47-1.077-2.99-2.134-6.737-2.657-8.72.013 0 .033-.22.03-.44zm-191.75 2c.2 0 .39-.013.595 0 .105.006.217.035.314.03-.026.432-.07.85-.095 1.28-.14 2.36-.497 4.3-.658 7-.04.654-.195 1.4-.342 2.157-1.32-.49-3.385-1.395-5.28-2.623-1.534-.99-2.905-2.186-3.72-3.47-.65-1.014-1.01-2.015-.907-3.22.156.01.32.026.47.035 3.87.233 6.63-1.17 9.627-1.187zm-199.22.124c.48 1.096 1.176 2.82 1.877 4.467.49 1.152 1.007 2.3 1.566 3.282.557.98 1 1.86 2.22 2.5.64.33.99.3 1.344.31.355.01.687-.008 1.03-.03.69-.06 1.433-.19 2.095-.25.37-.04.535 0 .813 0 .046.5.08 1.09.157 1.5.07.36.18.732.404 1.15.223.42.65.865 1.09 1.096.883.46 1.39.36 1.905.402.513.047 1.12.09 2 .317 2.88.73 5.82.542 8.53.434 2.704-.103 5.12-.113 6.69.5.05.024.1.05.15.066.01 1.82.005 3.523 0 3.813-.02 2.303-.54 10.193-1.09 17.97-.52 7.365-1.04 14.444-1.25 17.5-2.47.024-4.83.163-6.843.03-4.94-.327-9.9-.64-14.843-.97-2.85-.187-5.68-.37-8.53-.56-1.33-.09-2.353-.17-3.19-.44-.19-.06-.39-.118-.59-.125h-.03c.098-.92.22-2.037.376-3.47.34-3.19.797-7.447 1.25-11.69.453-4.24.88-8.464 1.22-11.658.17-1.595.336-2.93.436-3.874.05-.47.1-.84.127-1.096.01-.126-.01-.24 0-.31v-.03c0-.003.02-.01.03-.156.13-1.97-.07-3.34.03-4.876.65-6.63.54-10.52 1.03-15.81zm411.84.46c.2.03.47.09.75.16.287.066.6.132.91.217.11.03.175.063.28.094-.006.29-.053.66-.06.94-.006.32-.04.45-.06.71-1.58-.16-2.78-.603-3.063-.78.114-.213.507-.7 1.25-1.343zm-382.44 1.03c1.3.236 2.76.386 4.316.47.13.068.29.12.437.158 1.35.395 5.45 1.895 6.81 2.656 5.855 3.27 10.43 3.046 16.346 3.437 1.774.12 3.396-.615 4.47-1.685.602-.602 1.05-1.284 1.434-2-.11 1.64-.2 3.3-.31 4.938-.12 1.808-.223 3.603-.343 5.408-.103 1.617-.232 3.23-.34 4.844-.073 1.11-.51 10.89-.937 20.53-.21 4.82-.44 9.54-.56 12.96-.06 1.713-.08 3.07-.094 4-.005.174 0 .296 0 .44-.02-.01-.057-.06-.065-.06l-.185-.03c-.06-.01-.077 0-.094 0h-1.47c-.84-.006-2-.026-3.22-.03-2.426-.02-5.18-.03-6.12-.097-4.31-.286-8.48-.6-12.38-1.658-1.21-.324-2.46-.515-3.69-.625.21-3.06.73-10.075 1.25-17.376.55-7.787 1.07-15.4 1.09-18.157.005-.4.018-2.687 0-4.91-.01-1.11-.033-2.21-.06-3.06-.017-.426-.01-.76-.03-1.065-.015-.15-.04-.3-.067-.465-.018-.085-.02-.157-.067-.315-.047-.153.093-.41-.72-1.03-1.64-1.254-3.57-2.14-5.53-2.904.01-.15.016-.29 0-.44-.023-.31-.003-2.076.097-3.466.01-.188.014-.294.03-.47zm226.097 1.69c11.815.297 28.47 2.647 42.53 2.78 3.04.03 6.756.21 10.31.16 3.44-.05 6.706-.254 9.345-1.19.04.006.34-.044.59-.03.195.012.375.046.593.062-.05.64-.1 1.275-.122 1.688-.006.05 0 .108 0 .158.11 8.144-.78 12.11-1.033 20.56-.095 1.535-.47 2.81-.595 4.78-.013.245-.002.254 0 .25v.186c.008.14.02.314.03.56.027.5.088 1.208.128 2.03.08 1.66.17 3.848.28 6.03.11 2.19.23 4.38.313 6.037l.03.59c-.174-.05-.35-.11-.53-.16-1.283-.32-2.44-.73-3.69-.81-2.85-.174-5.71-.36-8.56-.53-4.944-.3-9.87-.57-14.813-.88-3.024-.182-6.722-1.12-10.53-1.28-1.27-.05-2.573-.02-3.843.158-4 .55-8.167.295-12.47.032-1.117-.07-4.68-.27-7.97-.47-1.31-.08-2.45-.158-3.5-.22.003-.048.02-.08.03-.128.28-1.97.643-4.724 1-7.596.35-2.866.7-5.86.97-8.216s.46-3.92.5-4.594c.1-1.615.18-3.23.28-4.843.11-1.81.23-3.6.34-5.41.12-1.9.23-3.816.346-5.72.085-1.433.04-2.76.03-4zm352.28 4.25c-.1.8-.18 1.637-.19 2.565 0 .074-.1 1.736-.22 3.78-14.84 2.49-29.62 1.98-44.904 1.186-8.804-.722-18.5-.763-26.966-.375v-.153c.015-2.29-.313-4.326-.53-6.25 8.435-.37 18.2-.32 26.91.378.015.007.043-.002.06 0 15.357.778 30.47 1.3 45.845-1.123zm-340.22 2.127c-.896-.01-1.7.58-1.97 1.44-.264.86.07 1.78.815 2.28.11.076.2.157.37.595.177.44.363 1.14.813 2 .45.86 1.24 1.85 2.407 2.5 1.163.65 2.624 1.008 4.53 1.125 2.323.14 4.27-.97 5.31-2.284 1.044-1.313 1.5-2.663 2-3.53.4-.63.456-1.443.093-2.095-.36-.65-1.07-1.04-1.81-1.03-.742.01-1.432.405-1.78 1.064-.736 1.27-1.2 2.45-1.686 3.06-.49.612-.67.822-1.875.75-1.504-.09-2.36-.37-2.813-.627-.45-.25-.59-.445-.78-.81-.19-.364-.36-.915-.655-1.657-.3-.74-.81-1.746-1.817-2.44-.337-.24-.747-.34-1.157-.35zm-160.56.065c-.04.045-.074.057-.094.06.006-.004-.005-.02 0-.03.027-.012.085-.023.094-.03zm305.344 1.4c.66 1.32 1.35 3.317 1.905 5.31-.51-.67-1.03-1.38-1.25-1.81-.31-.6-.37-.88-.94-1.47-.046-.05-.12-.09-.186-.152l.03-.156c.15-.807.28-1.22.433-1.72zm-120.377.31c-.262.007-.52.05-.78.16-1.034.44-1.5 1.657-1.062 2.69.4.92.69 2.32 1.57 3.75.877 1.43 2.677 2.76 5 2.9 1.905.12 3.39-.06 4.626-.56 1.236-.5 2.136-1.358 2.69-2.158.55-.8.834-1.526 1.06-1.94.23-.41.29-.47.408-.53.823-.406 1.27-1.288 1.093-2.19-.174-.9-.93-1.594-1.842-1.658-.386-.03-.78.064-1.123.25-1.08.56-1.71 1.49-2.09 2.19s-.61 1.22-.84 1.56c-.236.34-.397.523-.878.72-.48.193-1.34.37-2.843.28-1.206-.076-1.34-.33-1.75-1-.41-.67-.767-1.86-1.345-3.22-.33-.776-1.08-1.25-1.875-1.25zm209.095 3.25c-.555.05-1.09.29-1.47.72-.04.03-.06.03-.123.067-.32.172-.835.44-1.404.684-1.136.497-2.56 1.03-2.906 1.124-.757.175-1.37.74-1.596 1.47-.226.73-.04 1.51.5 2.03.54.523 1.355.704 2.095.47.95-.26 2.223-.785 3.5-1.345.64-.28 1.24-.57 1.75-.84.255-.135.49-.25.75-.435.13-.094.253-.21.436-.407.184-.192.523-.45.624-1.28.15-1.08-.576-2.07-1.66-2.25-.09-.013-.16.004-.25 0-.08 0-.17-.006-.25 0zm-454.93 1.09c-1.07-.016-1.95.81-1.97 1.878-.02 1.07.84 1.98 1.91 2 2.047.136 4.555.295 6.562.438 1.01.074 1.9.15 2.54.19.32.02.57.03.78.04.1.002.16.002.28 0 .06 0 .122.02.28 0 .072-.01.15-.03.4-.127.13-.047.304-.094.59-.344.145-.126.468-.595.468-.596l.22-1.03c-.038-.55-.32-1.07-.75-1.41-.43-.34-.99-.467-1.534-.375-.14-.004-.29-.015-.53-.03-.604-.035-1.47-.085-2.47-.156-1.994-.14-4.52-.33-6.592-.47-.06 0-.12.01-.184 0zm-77.092.72c.015-.01.044.017.032.03l-.07.066c.024-.055.014-.082.03-.092zm541.375.408c-.19.016-.353.066-.47.094-.303.075-.455.12-.592.186-.28.14-.44.27-.63.4-.37.263-.73.58-1.13.904-.8.65-1.74 1.4-2.04 1.595-.674.394-1.073 1.114-1.06 1.874.015.76.437 1.43 1.127 1.75.69.32 1.52.24 2.158-.22.83-.54 1.655-1.26 2.41-1.88.343-.28.645-.51.843-.66.804-.24 1.404-.94 1.53-1.75.13-.81-.236-1.586-.934-2-.28-.176-.54-.276-.78-.315-.08-.01-.145 0-.22 0-.07 0-.15-.006-.215 0zm96.72 1.125c-.12 1.91-.213 3.74-.344 5.85-14.616 2.448-29.19 1.98-44.25 1.19-8.71-.724-18.275-.794-26.656-.407-.08-2.095-.18-4.214-.25-5.904 8.32-.385 17.99-.3 26.6.406.02.005.04-.004.06 0 15.022.78 29.792 1.28 44.84-1.125zM67.98 308.13c-.686.116-1.224.64-1.41.938-.21.34-.245.5-.28.657-.14.627-.073.902-.062 1.28.02.762.068 1.728.06 1.845-.07 1.065.748 1.99 1.814 2.06 1.066.074 1.96-.745 2.03-1.81.048-.716-.004-1.37-.03-1.94.338-.604.325-1.34-.032-1.936-.075-.13-.142-.293-.343-.5-.203-.207-.616-.583-1.44-.594-.102 0-.214-.015-.31 0zm387.56 2.53c.076.053.14.143.22.19l-.158.28c-.024-.142-.034-.32-.062-.47zm192.156 5.533c-.108 1.782-.256 3.73-.344 5.188-.07 1.17-.11 2.08-.156 2.88h-.375c-3.02-.02-6-.29-9.28-.31-4.7-.03-11.36-1.42-16.97-.06-4.67 1.14-10.15-.06-16 .63-4.09.49-8.51-.06-13.12-.4-.17-.03-.32-.04-.5-.03-1.44-.1-2.9-.174-4.37-.184-2.77-.02-6.32.1-9.06.154-.07-1.877-.2-4.53-.31-7.19 8.23-.38 17.76-.3 26.25.407h.07c14.798.78 29.37 1.3 44.19-1.06zM68.04 321.036c-.823-.01-1.538.6-1.75.938-.21.34-.245.53-.28.687-.14.63-.073.88-.063 1.25.02.77.07 1.76.063 1.88-.05.7.267 1.34.844 1.72.576.39 1.347.44 1.968.13.62-.3 1.022-.93 1.063-1.62.047-.71-.036-1.37-.063-1.94.344-.6.33-1.33-.03-1.93-.077-.13-.143-.29-.345-.5-.2-.2-.583-.58-1.406-.59" fill="#fff"/></g></svg>