<svg viewBox="0 0 691 394" xmlns="http://www.w3.org/2000/svg"><g fill-rule="evenodd"><path d="M488.537 104.76c-4.85 8.875-5.014 21.434-6.008 32.684-.65 8.646.1 19.412 5.3 24.31 23.13 12.553 50.724 10.795 74.38 2.82 6.245-2.317 12.31-8.018 14.96-17.86 4.713-16.345 2.08-39.11-7.743-49.612-22.453-20.242-61.263-21.682-80.9 7.66" fill="#00aaef"/><path d="M352.233 170.306c-32.27 1.034-69.414-.516-97.862-.446-14.34-1.924-37.57.005-42.38-4.465-16.43-13.18-11.064-32.806-8.52-47.746-2.04-4.17 7.6-12.31 20.66-13.68 33.64-5.68 71.37-3.81 105.87-2.508 30.89 1.146 42.48-1.445 65.83 4.86 33.345 8.713 23.97 43.37 10.007 54.698-6.04 4.39-19.47 8.55-35.19 8.538-6.136.26-12.27.52-18.406.74" fill="#6adf5f"/><path d="M370.572.005c-9.846.27-19.69.604-29.53.97-5.89.426-11.6 3.61-15 8.842-4.755 7.194-6.06 16.174-6.5 24.782-.333 8.24.226 16.55 1.405 24.68 1.266 5.594 4.317 10.66 8.22 14.592 3.99 3.77 9.53 4 14.56 4.593 8.214 1.35 16.57 1.493 24.876 1.437.748.527.417 1.87.75 2.72.302 1.977.677 3.947 1.156 5.875-9.58.383-19.16.9-28.75.56-16.07-.425-32.18-.905-48.22.345-29.52 1.15-59.54-3.905-88.66 2.5-.04.925-.1 1.86-.22 2.78-.02.138-.045.27-.065.408 30.32-7.01 62.996-.724 94.78-2.94 22.586-1.57 44.33 1.11 66.97-.47 1.563-.105 3.263-.185 5-.216.583 1.78 1.296 3.502 2.19 5.156 2.81 6 6.146 11.815 10.47 16.72 1.47 1.94 2.472 4.4 4.53 5.716 1.362.904 3.333-.208 3.25-1.97-.22-2.7-1.945-4.94-3.095-7.283-1.29-2.295-2.825-4.434-3.562-7.03-1.328-3.594-2.518-7.304-3.345-11.094 5.142.25 10.24.666 14.436 1.22 6.61.87 13.935 1.85 20.72 3.53 6.553 1.63 10.02 4.862 12.154 9.03 2.14 4.17 2.83 9.34 3.44 14.53 1.32 11.224 4.232 21.27-4.47 29.814-4.632 4.55-13.604 6.9-23.187 7.815-9.583.915-19.71.45-26.626-.19-13.61-1.253-27.254.65-40.44-.22-7.38-.48-15.452-.63-22.75-.123-7.56.53-16.354.95-23.56 0-4.81-.63-10.575.576-14.285 2.783-.303.18-.505.466-.564.78-.13.72-.422 2.5-.217 4.25.83 7.06 3.174 14.555 6.625 21.127 2.54 4.832 6.19 9.195 9.22 12.97.456.568.736 1.02 1.156 1.56-5.96-5.863-13.177-13.014-15.657-15.78-4.663-5.2-6.786-11.445-9.376-17.438-.95-2.205-1.787-6.154-2.092-8.75-.04-.318-.244-.62-.53-.814-.29-.193-.644-.27-1-.22-13.364 1.92-27.675.38-41.564 1h-.03c-10.436.905-21.874-.906-31.032-6.28-4.382-3.55-6.477-6.024-7.47-8.875-.997-2.864-.894-6.313-.562-11.653.003-.018.003-.013 0-.03.034-6.254-.007-11.988.626-16.97-1.225.297-2.41.5-3.535.625-.8 7-.18 14.23-.72 21.22-.423 5.417 1.47 10.976 5.69 14.687 5.15 5.546 12.884 7.892 20.187 9.5 9.67 2.085 19.563.28 29.343.72 9.175.113 18.403.413 27.53-.66.985 6.754 4.186 12.97 7.16 19.09 4.39 7.99 11.915 13.71 18.125 20.345 3.3 3.084 6.295 6.59 9.81 9.407 2.02.87 3.755-1.574 2.657-3.28-2.46-6.423-8.13-11.062-11.814-16.78-5.38-7.794-8.56-16.89-9.406-26.156-.387-2.2 2.54-2.202 4.093-2.813 5.842-1.555 11.822.453 17.78.065 10.986-.12 21.946-1.465 32.94-.626 15.85 1.315 31.766-1.18 47.592.716 13.4.69 27.387.866 40.094-3.81 8.99-3.16 15.23-11.907 15.19-21.065.04-7.6-1.5-15.044-2.44-22.56-1.026-7.25-4.68-14.763-11.935-18-7.254-3.15-15.393-3.816-23.187-5.063-6.2-.89-12.45-1.444-18.717-1.716-.46-2.9-.652-5.854-.5-8.813 3.41-3.15 8.22-3.73 12.595-3.623 7.39.28 14.897 1.59 22.22-.06 6.047-1.19 12.307-4.41 15.22-10.5 2.5-5.176 4.023-11.11 3.342-16.94.334-11.018-.21-22.358-4.097-32.688-2.436-6.37-6.928-12.33-13.346-14.22-3.54-.957-7.264-.91-10.906-1.31C398.37-.24 391 .43 383.63.16c-4.35-.068-8.71-.188-13.06-.157zM181.228 115.38c.125-1.083.266-2.18.47-3.25-.956.107-1.915.17-2.876.094-1.806-2.347-4.83-2.666-7.563-2.594-8.78 1.53-17.52 3.31-26.35 4.594-14.285 1.908-28.48-7.038-35.127-19.407-4.62-8.14-4.494-19.086 1.78-26.343 6.837-8.14 17.316-12.362 27.53-14.22 16.538-2.773 34.873.262 48.315 10.563 7.072 5.625 13.426 13.524 13.937 22.907.193 1.597.21 3.224.093 4.874.687-.146 1.38-.266 2.064-.374.456-.106.917-.212 1.373-.313.18-4.36-.53-8.67-1.718-12.43-.007-.01.004-.02 0-.03-.037-.103-.05-.185-.096-.28-6.785-15.07-21.557-24.3-38.062-27.595-.252-.05-.506-.103-.78-.156-.273-.05-.546-.11-.812-.156-6.433-1.127-13.117-1.362-19.72-.72-.99.1-1.984.21-2.97.345-2.954.407-5.875 1.01-8.75 1.78-.023.01-.07-.006-.093 0-.038.013.004.02-.03.03-13.355 4.133-21.72 10.597-25.78 18.094-4.06 7.496-3.68 15.72-.565 23 6.224 14.54 23.117 26.195 40.188 23.47 15.205-2.43 21.053-3.67 23.686-4.22 2.665-.555 1.157-.397 4.22-.157.634.05.964.127 1.06.156.1.03.03 0 .16.092.045.038.813.84 2.092 1.78.513.386 1.117.606 1.78.628.016 0 .05.002.063 0h.062c.066 0 .115.004.186 0v-.03c.696.007 1.456-.04 2.216-.127zm20.22-22.78c-7.236 1.56-14.34 5.38-17.44 12.092-1.11 2.422-1.83 4.904-2.31 7.438 1.21-.134 2.405-.374 3.593-.72.29-1.345.67-2.614 1.13-3.81 2.15-5.63 6.137-9.6 14.597-11.69.224-1.086.36-2.205.438-3.31zm-.44 3.31c-1.116 5.464-4.084 10.496-9.25 13-2.06.93-4.24 1.856-6.468 2.5-.227 1.062-.384 2.2-.53 3.345 1.03-.25 2.057-.56 3.124-.906 3.314-1.08 6.668-2.54 9.125-4.6 4.57-3.84 6.83-8.99 7.59-14.16-.22.05-.44.105-.66.156-.03.01-.035.026-.064.03-1.017.182-1.963.402-2.875.626zM372.104 3.88c8.418.072 16.834.37 25.25.094 5.772.033 11.553.55 17.28 1.218 5.003.875 8.823 5.108 10.94 9.813 3.94 8.584 4.81 18.365 4.968 27.812.072 2.803-.22 5.594.032 8.375-.22 4.75-1.55 9.434-3.625 13.625-3.07 4.898-8.69 7.023-13.94 7.782-7.41 1.24-14.83-.62-22.25-.38-4.51.22-9.24 1.48-12.63 4.81-1.64 1.99-1.058 4.853-1.096 7.28.29 5.462 1.614 10.765 3.313 15.905-.866.967-1.105-.85-1.563-1.406-2.01-3.918-4.15-7.85-5-12.28-.67-3.56-1.36-7.17-1.373-10.814.51-1.536-1.12-3.206-2.53-2.435-.972.4-1.056 1.61-1.156 2.53-1.01.468-2.39.117-3.53.22-7.558-.103-15.137-.325-22.596-1.624-4.054-.59-8.816-.804-11.813-4.25-2.844-3.456-5.165-7.54-6.31-12-1.32-9.777-1.905-19.784-.78-29.625.882-6.91 2.705-14.235 7.592-19.187 3.422-3.533 8.32-4.793 12.97-4.624 9.273-.27 18.565-.71 27.842-.844zm164.28 56.125c-2.132.005-4.26.126-6.342.343-8.486.81-17.354 2.547-24.5 7.407-7.974 4.875-9.662 16.364-4.406 23.78 6.608 8.457 18.46 10.075 28.532 9.657 4.188.217 8.29-1.91 12.406-1.25 1.65 1.412 1.64 3.59 1.437 5.75-.6-.017-1.21-.036-1.84-.03h-.09c-5.57-.19-11.12-.375-16.69-.564-6.4-.216-18.15.298-24.155.094-5.81-.196-10.787.108-17.875.782h-.03c-.03.003-.067.03-.096.03-7.55.337-13.32 2.123-16.877 6.876-3.554 4.755-4.686 11.837-4.5 22.25-.965 5.414 1.216 12.12 3.5 16 .02.036.04.06.063.094 2.824 4.26 7.366 6.513 12 7.656 4.63 1.145 9.455 1.21 13.34.937 3.268-.256 6.94.148 10.81-.594 3.467-.522 6.637-.472 9.28 1.22.406.317.73.568.75.593 0 .015-.03-.006-.03.063v.06c.234 7.47-2.61 15.22-5.75 22.28-.193.29-2.05 3.01-3.53 5.53-.77 1.31-1.43 2.46-1.78 3.62-.09.293-.156.58-.16 1.032-.002.45.103 1.31.875 1.905.773.596 1.64.497 2.094.375.45-.12.75-.306 1.06-.5.13-.076.236-.144.343-.25 2.023-1.955 3.008-4.08 4.375-5.405l.062-.06c4.545-4.8 7.773-10.64 10.656-16.22l.03-.03c1.075-2.12 2-5.21 2.47-7.564.264-1.326.66-2.91.935-4.53 5.857.125 16.895-.21 22.22-1.095 4.86-.807 11.12-.33 15.813-4.874 3.3-3.19 6.996-8.78 7.72-13.844 1.524-9.61 1.086-18.49-3.065-25.22-3.5-5.677-9.68-9.45-18.624-10.404.07-.927.156-1.827.376-2.687 6.826-3.016 14.597-6.1 18.75-12.844 4.607-6.914 1.696-16.235-4.156-21.438-6.746-6.716-16.158-8.957-25.406-8.937zm-.53 3.406c.78-.01 1.568 0 2.344 0 5.18.07 10.295.84 14.875 3.47 6.625 3.52 13.672 10.56 11.5 18.72-2.723 7.68-10.884 11.58-18.094 14-1.52-1.68-3.44-3.55-6-3.19-10.03 1.93-20.91 2.73-30.38-1.75-7.58-2.92-11.38-13.06-6.878-19.96 5.862-7.907 16.507-9.74 25.687-10.875 2.282-.172 4.603-.35 6.937-.406zM381.79 85.82c.003.012.077.085.22.157-.15-.117-.22-.168-.22-.157zM75.323 100.974c-1.234-.008-2.467.003-3.687.03-12.793.18-26.582 3.543-34.906 14.063-5.955 6.707-8.048 17.668-1.876 24.907 5.63 7.106 14.894 9.586 23.062 12.093 1.835 4.738.818 11.115 5.03 14.97.624 2.256 4.357 2.57 4.314-.157-1.203-2.835-4.415-4.8-4.03-8.375-.196-3.43-2.625-7.934.06-10.844 4.59-1.3 9.55.53 14.282-.28 11.51-.88 24.786-4.33 31.156-14.84 4.975-9.14 1.51-21.94-8.22-26.402-7.68-3.99-16.55-5.095-25.186-5.155zm-1.906 3.812c10.59.05 22.923.708 30.656 8.906 6.056 7.243 3.1 19.282-5.125 23.625-10.163 6.36-22.648 6.925-34.312 6.094-2.964-.06-4.847 2.33-6.344 4.44-8.524-1.77-18.367-5.11-22.5-13.47-3.57-8.98 3.505-17.95 10.564-22.84 7.763-5.782 17.75-6.35 27.062-6.75zm445.906 4.375c2.045-.01 3.907-.01 5.406.04 5.6.19 11.21.405 16.81.594.03.003.06 0 .09 0 .584-.006 1.13-.013 1.69 0 .045.35.06.704.03 1.03-.03.33-.098.63-.188.94-.09.31-.212.61-.344.905-.28.63-.617 1.24-.97 1.844-.13.22-.28.432-.404.654-.016.03-.016.067-.03.095-.32.57-.605 1.165-.784 1.78.032.3.108.545.22.75.055.1.115.17.187.25.15.17.303.29.5.374.095.04.21.075.312.095.102.02.205.03.312.03.426.01.862-.12 1.25-.376.1-.065.19-.134.28-.218.087-.076.176-.158.25-.25.154-.187.264-.382.344-.625.043-.114.077-.215.095-.342.204-.236.398-.474.564-.72.002-.01-.008-.024 0-.03.092-.14.163-.295.25-.44.064-.115.154-.225.22-.344.123-.243.24-.496.34-.75.01-.02.022-.04.03-.062.1-.242.176-.496.25-.75.01-.03.023-.06.032-.092.02-.06.015-.124.03-.188.06-.217.112-.437.157-.66.053-.26.117-.514.156-.78.004-.03-.005-.063 0-.094.077-.54.15-1.1.186-1.655.004-.05-.002-.1 0-.153 7.83.83 12.545 3.934 15.344 8.47 3.35 5.43 3.97 13.36 2.53 22.438v.064c-.467 3.28-3.986 8.974-6.53 11.436-3.21 3.11-8.12 2.9-13.627 3.814-4.48.746-15.73 1.1-21.31 1-.015-.25.004-.505-.03-.75-.156-1.124-1.187-1.907-2.312-1.75-1.124.157-1.906 1.19-1.75 2.312.193 1.364-.56 5.218-1.124 8.03-.39 1.95-1.397 5.1-2.124 6.532-1.265 2.44-2.58 4.854-4 7.188 2.095-5.585 3.72-11.572 3.53-17.75 0-1.008-.42-2.005-.97-2.656-.55-.65-1.04-.94-1.438-1.25-.047-.038-.102-.09-.155-.125-3.91-2.524-8.387-2.393-12.25-1.81-.03.002-.065-.006-.095 0-3.078.59-6.567.233-10.344.53-3.59.252-8.02.18-12.03-.81-3.99-.987-7.45-2.81-9.53-5.91-1.72-2.944-3.65-9.96-2.97-13.374.027-.147.035-.285.03-.437-.195-10.15 1.1-16.34 3.72-19.845 2.617-3.5 6.76-4.95 13.84-5.25.04 0 .09-.026.126-.03 7.095-.677 11.814-.94 17.44-.75 4.81.163 12.614-.104 18.75-.157zm-359.406 8.63c-.29-.01-.588.04-.875.098-.234.048-.397.078-.468.095-4.76 1.144-7.563 5.018-6.938 8.78.594 3.57 3.923 6.483 8.5 7.094-.17.027-.39.09-.468.094-.224.01-.405.046-.625.095-.014.006-.016 0-.03 0-.177.047-.366.09-.532.158-2 .82-3.66 1.945-4.62 3.563-1.052 1.775-.89 3.87.28 5.47 2.06 2.814 6.03 3.696 10.317 3.34 1.825-.15 3.548-.716 4.78-1.936 1.263-1.246 1.65-2.826 1.533-4.22-.22-2.585-1.914-4.83-4.25-6.093-.38-.202-.748-.35-1.127-.47 1.717-.233 3.39-.744 4.875-1.684 1.43-.9 2.66-2.324 3.063-4.123.397-1.76-.04-3.585-.97-5.343-.622-1.186-1.67-1.86-2.31-2.25-.764-.463-1.596-.84-2.44-1.187-.833-.344-1.696-.62-2.5-.845-.552-.154-1.154-.338-1.84-.405-.23-.02-.44 0-.69 0-.66.006-1.566-.093-2.375-.188-.095-.01-.184-.028-.28-.03zm-.22 3.16c2.642 0 5.186.32 7.532 1.594 3.3.907 3.9 6.28.43 7.438-3.878 1.45-9.6 1.74-12.094-2.22-1.873-2.98 1.01-6.487 4.125-6.81zm3.72 15.688c1.542.086 2.86 1.28 3.53 2.626 1.386 2.154-.77 4.526-3.062 4.25-2.517.136-6.55-.06-7.25-3.063.144-2.89 3.77-3.66 6.094-3.78.22-.036.46-.044.68-.032zm3.906 11.876c-.185.02-.356.07-.5.094-.745.13-1.353.26-1.25.25-.228.02-.415.057-.625.124-.02.008-.043.026-.063.03-.166.06-.323.14-.468.22-1.277.71-2.335 1.67-2.938 2.938-.67 1.405-.66 2.888.06 4.22 1.24 2.286 4.15 3.158 6.902 2.78 1.295-.174 2.6-.807 3.405-1.842.83-1.06 1.04-2.2 1-3.25-.076-1.94-.96-3.734-2.56-4.843-.62-.43-1.32-.618-1.938-.69-.155-.017-.293-.025-.438-.03-.218-.006-.41-.02-.595 0zm-.156 3.094c.133-.01.273-.015.406 0 1.03-.034 1.55 1.09 1.78 1.936.827 2.43-2.315 3.324-4 2.28-2.02-1.34-.178-4.078 1.814-4.22zm457.437 28c-.874.01-1.824.14-2.937.405-1.578.377-2.455 1.42-3.25 2.406-.655.816-1.188 1.642-1.688 2.44-1.13-2.28-2.81-4.033-4.94-4.814-1.49-.542-3.35-.47-4.78.53-1.168.814-1.97 2.08-2.5 3.66-.34-.794-.7-1.607-1.19-2.376-.51-.795-1.14-1.678-2.44-2.064-.487-.144-.998-.14-1.5-.03-.168.036-.338.066-.5.124-.647.233-1.247.63-1.688 1.095-.51.537-.97 1.21-1.407 2-.066-.11-.073-.2-.156-.314-.346-.464-.938-.932-1.625-1.123-.687-.19-1.368-.092-1.94.096-1.14.377-2.033 1.09-3.155 2.188-1.63 1.6-1.72 3.505-2.06 4.75-.13.474-.228.718-.314.906-.11-.06-.74-.2-1.654-.593-1.074-.46-2.317-1.05-3.56-1.44-.62-.192-1.238-.364-1.97-.375-.73-.01-1.765.21-2.5 1.03-.733.825-.845 1.855-.75 2.72.097.866.376 1.715.814 2.75.582 1.383.97 2.404 1.31 3.313-1.443-.38-3.275-.453-4.936.72-1.988 1.406-3.16 3.15-3.343 4.968-.18 1.817.615 3.33 1.53 4.405.92 1.077 1.973 1.814 2.94 2.28.085.04.2.056.28.094-.6 2.906-1.224 5.696-1.843 8.688-.582 2.826-1.385 6.1-1.406 9.407-.002.76-.04 1.58-.092 2.436-1.072-.14-2.16-.284-3.28-.437-1.642-.22-3.234-.427-4.44-.595-1.204-.167-2.205-.303-2.06-.28-.342-.062-.702-.047-1.032.06-.91.31-1.492 1.2-1.406 2.158.085.96.8 1.74 1.75 1.876.34.055.98.144 2.186.312 1.21.17 2.79.37 4.437.595 1.275.173 2.49.345 3.658.5-.004 1.17.06 2.33.25 3.5.48 3 .425 6.104.404 9.437-.02 3.29-.29 6.567-.31 10.064-.02 3.34.2 6.453.19 9.623-8.21 5.25-17.68 13.503-27.065 16.156-.698.2-1.395.397-2.093.593-.86-.087-1.73-.196-2.59-.346.144-.19.287-.454.375-.874.126-.606-.15-1.503-.564-1.907-.41-.4-.712-.567-.97-.626-.253-.057-.453.01-.623 0-.34-.017-.63-.004-.97.03-1.365.147-3.477.604-6.877 1.533-.728.2-1.353.5-1.938.844-.415.247-.796.5-1.156.78-1.33.186-2.41.36-3.22.627-.447.148-.83.29-1.31.657-.077.06-.14.23-.22.316-.526-.258-1.01-.468-1.53-.593-.236-.055-.51-.118-.91-.094-.37.023-.98.163-1.5.655-1.312-.436-2.77-.884-4.686-1.25-8.376-1.593-16.893-8.625-23.874-14.5-.006-.653-.023-1.31-.03-1.97-.04-3.22.196-6.386.156-9.78-.04-3.496-.336-6.773-.375-10.06-.04-3.333-.09-6.434.378-9.438.18-1.17.23-2.33.22-3.5 1.17-.16 2.38-.35 3.656-.53 1.65-.23 3.26-.45 4.47-.625 1.21-.174 1.816-.255 2.155-.313.993-.157 1.73-.99 1.75-2 .02-1.004-.7-1.896-1.69-2.092-.25-.047-.5-.044-.75 0 .146-.023-.89.14-2.093.313-1.203.176-2.795.396-4.437.626-1.126.16-2.173.29-3.25.437-.057-.854-.117-1.68-.126-2.44-.04-3.305-.84-6.584-1.437-9.405-.64-3.01-1.286-5.79-1.907-8.717-.74-3.486-2.66-6.516-4.595-9.03-2.3-2.996-5.1-4.24-6.97-6.065-.55-.54-1.17-1.013-1.842-1.435 2.932-.187 6.21-.09 9.28.625.824.193 1.833.66 3.063 1.094.707.27 1.486.11 2.064-.376.58-.486.864-1.226.72-1.97-.146-.74-.688-1.36-1.407-1.593-.94-.33-2.08-.885-3.5-1.22-5.077-1.18-10.234-.884-14.125-.34-1.944.272-3.56.605-4.686.875-.087.02-.136.044-.22.06-1.674-.284-3.492-.65-4.342-1.06-.37-.18-.736-.34-1.094-.44-1.073-.29-2.12-.235-3.188-.28-1.423-.055-2.87-.09-3.28-.155-2.18-.336-4.913-.528-7.283.094-1.8.47-3.81.76-5.66.78-2.486.03-4.94.576-6.437.593-1.403.016-2.417.59-3.25 1.03-.832.44-1.53.785-1.874.875-2.5.656-4.387 2.224-5.53 2.812-1.97 1.014-3.18 2.402-4.408 3.343-1.11.855-1.535 1.84-2 2.69-.467.85-.95 1.606-1 1.655-.953.974-1.333 2.03-1.657 2.81-.325.78-.58 1.294-.877 1.594-1.92 1.964-3.244 4.79-3.814 7.19-.624 2.62-1.54 4.58-1.5 8 .032 2.84-.194 5.845-.158 9 .035 3.01-.193 6.11-.157 9.28.038 3.18.068 6.3.657 9.593.406 2.27-.224 5.28-.187 8.437.028 2.41-.128 5.04.218 7.75-8.672 8.99-14.795 23.117-22.03 33-.9 1.232-1.24 2.462-1.5 3.345-.26.884-.484 1.296-.53 1.344-.164.167-.28.36-.375.56-.154-.017-.28 0-.406 0-1.416.018-2.72.453-4.09.97-1.37.517-2.765 1.14-3.94 1.656-.515.23-.62.28-1.03.44-.935-.585-2.176-.338-2.813.56-.186.255-.35.488-.5.845-.153.36-.416.95-.064 1.846.355.894 1.35 1.344 1.845 1.405.493.063.795-.004 1.06-.062 1.06-.224 1.973-.696 3.156-1.22-.214.21-.54.508-.72.69-.447.46-.716.737-1.03 1.25-.077.128-.16.29-.25.562-.087.27-.227.743.063 1.465.29.726 1.153 1.2 1.624 1.28.473.084.69.014.875-.03.735-.166.912-.345 1.28-.56.37-.216.752-.456 1.19-.75 1-.675 2.04-1.44 3-2.19-.068.637-.103 1.26-.096 1.876.013 1.068.068 1.686.063 1.877-.003.193.03.114-.22.625-.34.67-.29 1.47.127 2.095.42.626 1.16.965 1.91.906.75-.055 1.402-.503 1.72-1.185.38-.785.61-1.64.623-2.344.015-.703-.052-1.122-.062-2-.006-.612.347-2.723.344-4.467 0-.435-.015-.85-.156-1.375-.1-.377-.286-.936-.75-1.375.224-.102.41-.22.593-.406 1.03-1.052 1.275-2.215 1.53-3.092.257-.878.48-1.557.876-2.097 6.784-9.265 12.49-21.3 19.094-29.56-.05 1.626-.177 3.35-.156 5.157.036 3.004.09 5.997.126 9 .03 2.7.313 4.72.342 7.22.028 2.34.543 4.23.563 5.904.007.725.11 2.387.28 4.97.17 2.584.4 5.88.625 9.188.225 3.31.456 6.597.625 9.186.17 2.59.28 4.677.28 4.814.013 1.15.98 2.076 2.125 2.064.17 0 .31-.052.47-.094.027 0 .067.032.094.03.6-.006 1.21-.023 1.81-.03 3.25-.038 6.19-.34 9.25-.376 1.403-.016 2.91-.11 4.403-.22 0 .01-.03.023-.03.032.023.94.096 2.156.217 3.624.247 2.938.68 6.804 1.096 10.814.414 4.01.826 8.184 1.124 11.626.298 3.44.444 6.31.376 7.155-.59 7.29 1.16 12.583.875 18.53-.21.155-.4.316-.715.53-.95.64-2.268 1.49-3.625 2.344-1.026.648-2.026 1.258-2.97 1.845l.032.03-2.126 1.53c-3.327 1.088-2.425 5.186 1.123 4 .13-.095 1.11-.723 2.25-1.437 1.135-.716 2.53-1.577 3.903-2.44 1.37-.863 2.724-1.715 3.75-2.406.51-.345.926-.63 1.28-.906.177-.136.324-.267.5-.437.09-.085.215-.173.344-.344.13-.17.372-.39.437-1.187.59-7.285-1.412-12.606-.873-19.28.14-1.707-.07-4.41-.374-7.91-.3-3.497-.74-7.646-1.154-11.657-.414-4.01-.824-7.89-1.063-10.75-.12-1.43-.2-2.593-.22-3.375-.003-.103 0-.14 0-.22 2.77-.166 5.406-.23 7.437.25 5.93 1.41 11.593.076 16.47.627 4.072.462 8.047.11 11.904-.25.17 13.6.39 29.156-1.905 41.656-.354 1.935-.585 3.963-.562 6.03-.07 1.11.377 1.98.875 2.688.56.795 1.27 1.477 2.092 2.188 1.65 1.424 3.77 2.89 5.908 4.22 2.138 1.33 4.288 2.53 5.937 3.437.825.45 1.53.825 2.03 1.093.254.135.455.27.595.344.07.037.18.067.22.093 3.824.705 3.07-3.35 1-4.22-.49-.26-1.074-.593-1.815-1-1.61-.883-3.71-2.043-5.75-3.31-2.04-1.27-4.036-2.657-5.376-3.815-.67-.58-1.168-1.1-1.407-1.44-.11-.16-.12-.244-.125-.25v-.093c-.02-1.697.174-3.455.5-5.22 2.43-13.24 2.172-29.102 2-42.75.805-.048 1.583-.115 2.373-.125 2.716-.03 6.353.088 9.22.126.357.65 1.05 1.106 1.843 1.097.978-.01 1.788-.712 2-1.625.38-.345.646-.824.687-1.375.046-.597-.184-1.153-.562-1.563.07-2.233.173-5.525.314-9.406.204-5.56.426-11.042.406-12.685-.03-2.72.695-5.614.655-9.03l-.095-8c-.033-3.002.197-6.22.158-9.5-.005-.55-.023-1.11-.03-1.657 6.406 5.38 14.24 11.264 22.875 12.907 2.768.526 4.57 1.295 6.75 1.97.635.672 1.39 1.414 2.25 2.216 1.174 1.093 2.5 2.264 3.814 3.375-.07.044-.124.115-.28.25-.102.088-.277.186-.5.563-.112.19-.25.47-.282.91-.032.44.144 1.04.44 1.405.59.74 1.1.723 1.345.75.246.03.37.01.47 0 1.005-.086 2.1-.16 3.28-.312.04.03.09.1.126.127.753.55 1.31.91 1.97 1.22 1.033.48 2.25.032 2.78-1.003.23-.448.316-.93.22-1.377.528-.185 1.013-.45 1.53-1 .12-.127.178-.345.28-.53.773.163 1.523.296 2.377.218.32-.027.704-.094 1.156-.312.452-.216 1.02-.703 1.28-1.343.26-.638.273-1.13.156-1.563.07.015.15-.004.22 0 .05.016.07.024.124.03.1.023.217.048.314.065l.94-4.062c-.098-.017-.183-.012-.28-.03-.014-.002-.02.002-.03 0-.488-.296-1.18-.807-1.91-1.344h2.126c.68-.193 1.355-.37 2.03-.564 8.693-2.456 17.786-9.75 26.065-15.28-.01 1.495.01 3.008 0 4.5-.02 3.28.21 6.5.19 9.5-.016 2.66-.014 5.34-.03 8-.022 3.418.704 6.28.686 9-.01 1.645.235 7.16.467 12.72.164 3.914.295 7.217.375 9.437-.38.44-.59 1.04-.5 1.653.07.474.3.878.625 1.188.2.937 1.036 1.653 2.03 1.657.794.004 1.46-.444 1.814-1.095 2.87-.054 6.508-.17 9.22-.156.79.005 1.6.05 2.408.093-.1 13.646-.313 29.522 2.188 42.75.334 1.762.574 3.52.563 5.22v.06c0-.007-.036.08-.154.25-.236.337-.708.885-1.374 1.467-1.332 1.166-3.34 2.533-5.373 3.813-2.034 1.28-4.116 2.485-5.72 3.376-4.13 1.94-3.375 5.134 0 4.78.502-.27 1.21-.666 2.03-1.123 1.646-.912 3.807-2.126 5.94-3.47 2.13-1.34 4.235-2.784 5.874-4.216.82-.716 1.536-1.422 2.092-2.22.495-.71.92-1.577.842-2.687h.03c.013-2.07-.228-4.098-.594-6.03-2.36-12.494-2.25-28.06-2.156-41.66 3.87.34 7.866.703 11.94.22 4.87-.578 10.547.722 16.47-.72 2.027-.49 4.637-.467 7.405-.31 0 .08.002.112 0 .22-.016.78-.108 1.973-.22 3.403-.22 2.863-.574 6.707-.968 10.72-.393 4.013-.81 8.188-1.094 11.688-.284 3.5-.49 6.17-.344 7.88.574 6.673-1.377 12.03-.75 19.31.07.794.31 1.017.436 1.187.13.17.222.26.31.342.178.17.323.27.5.404.357.27.8.563 1.313.905 1.03.684 2.37 1.55 3.75 2.405 1.374.856 2.794 1.7 3.935 2.406 1.143.71 2.09 1.346 2.22 1.44 4.205 1.038 3.37-2.07 1.218-3.906-.59-.5-1.19-1-1.78-1.5-.03 0-.06.003-.094 0-1.03-.63-2.144-1.29-3.28-2-1.364-.846-2.677-1.68-3.628-2.312-.32-.21-.533-.374-.75-.53-.315-5.945 1.41-11.212.78-18.5-.07-.843.067-3.743.346-7.19.28-3.44.67-7.61 1.064-11.622.392-4.014.8-7.876 1.03-10.814.114-1.467.167-2.685.187-3.625v-.03c1.5.1 2.97.178 4.377.187 3.056.018 5.996.29 9.25.31.6.006 1.21.03 1.81.032.037 0 .09-.03.126-.03.153.036.3.06.47.06 1.145.006 2.085-.914 2.09-2.063 0-.137.094-2.19.25-4.78.156-2.59.356-5.91.562-9.22.207-3.308.437-6.6.594-9.187.154-2.58.243-4.244.25-4.967.01-1.675.545-3.565.56-5.905.015-2.5.264-4.52.28-7.22.02-3.003.044-6.026.063-9.03.01-1.82-.093-3.523-.155-5.158 6.656 8.226 12.376 20.254 19.217 29.5.4.54.645 1.19.907 2.06.26.875.497 2.045 1.53 3.094.185.184.4.334.626.435-.46.44-.65.963-.75 1.342-.14.525-.16.94-.158 1.374.008 1.744.41 3.855.407 4.47-.007.875-.11 1.325-.096 2.03.018.706.27 1.53.656 2.31.32.68.968 1.136 1.718 1.19.75.054 1.46-.28 1.875-.906.413-.63.47-1.457.124-2.126-.25-.507-.214-.4-.22-.592-.002-.19.09-.81.095-1.874.004-.62-.086-1.27-.157-1.907.967.748 2.02 1.514 3.03 2.187.44.29.85.534 1.22.75.37.213.514.4 1.25.56.185.04.435.114.906.03.47-.082 1.31-.585 1.594-1.312.287-.727.15-1.197.06-1.47-.09-.27-.2-.434-.28-.56-.316-.514-.58-.795-1.03-1.25-.18-.18-.472-.45-.69-.66 1.188.517 2.096.97 3.158 1.188.267.055.538.127 1.03.062.495-.064 1.497-.54 1.845-1.438.35-.896.092-1.456-.062-1.812-.154-.355-.314-.59-.5-.844-.64-.893-1.88-1.15-2.812-.56-.41-.16-.542-.18-1.062-.408-1.173-.51-2.56-1.113-3.934-1.623s-2.644-.96-4.063-.97c-.12 0-.29.016-.436.032-.097-.204-.207-.423-.374-.594-.046-.048-.267-.46-.53-1.344-.264-.88-.624-2.118-1.532-3.345-7.29-9.85-13.485-23.964-22.22-32.907.33-2.703.176-5.35.19-7.75.02-3.155-.612-6.133-.22-8.405.57-3.296.576-6.444.596-9.625.02-3.167-.206-6.237-.188-9.25.02-3.152-.204-6.19-.186-9.03.02-3.417-.958-5.35-1.596-7.97-.38-1.57-1.075-3.33-2.06-4.906 2.073-1.565 3.52-3.28 4.312-5.064.81-1.814.945-3.78.126-5.437-.817-1.656-2.606-2.725-4.562-2.907-1.743-.164-3.677.27-5.782 1.25.2-.907.375-1.76.75-2.97.277-.89.552-1.74.72-2.564.083-.41.16-.806.155-1.28-.005-.473-.01-1.115-.628-1.844-.615-.727-1.818-.947-2.468-.81-.65.134-1.07.385-1.534.685-.846.553-1.817 1.39-3.062 2.594.227-.94.447-1.932.562-2.905.12-.997.26-1.995-.344-3.19-.303-.596-.92-1.224-1.657-1.5-.738-.274-1.45-.205-2.095-.06-1.29.285-2.508.95-4.126 2.092-.884.625-1.28.85-1.938 1.28.282-.948.403-2.017 0-3.28-.37-1.155-1.587-2.214-2.876-2.5-.482-.107-.975-.132-1.5-.125zm0 4.186c.14 0 .25-.008.344 0-.074.142-.195 1.145-.656 2.342-.257.672-.554 1.317-.718 2.094-.03.15-.044.32-.063.5-.6-.05-1.22-.12-1.84-.126-.75-.003-1.53-.04-2.31-.124.18-.288.37-.565.564-.876.57-.915 1.158-1.9 1.718-2.594.49-.608 1.008-.894 1.033-.938.9-.212 1.523-.276 1.935-.28zm-14.875.03c.15-.025.33.02.62.124.85.313 2.21 1.634 3 3.53-1.62-.077-3.257.09-4.66.314-.155.026-.474.043-.874.063.134-.454.27-.94.406-1.533.35-1.5.865-2.14 1.155-2.346.073-.05.155-.096.22-.125.05-.02.074-.023.124-.03zm-9.82.47c.247.42.536.966.812 1.623.31.74.583 1.517.905 2.25.043.098.085.22.125.315-.194.073-.397.12-.594.218-.778.384-2.383.746-3.938 1.03.375-.76.833-1.757 1.438-3.155.508-1.17.93-1.834 1.25-2.28zm-385 1.842c-.1.002-.183.01-.28.03-.784.166-1.078.56-1.25.782-1.867 2.438-3.28 4.116-4.344 5.22.013-.064.02-.126.032-.19.06-.295.11-.58.155-.842.043-.26.133-.325.06-1-.016-.168-.017-.396-.25-.813-.23-.417-1.03-1.054-1.78-1.064-.75-.01-1.11.28-1.312.436-.2.156-.296.25-.375.344-.31.373-.404.584-.594.937-.28.518-.68 1.35-1.185 2.406-.216 0-.406.004-.624 0-.542-.002-1.09-.013-1.624 0-.088-.146-.164-.306-.25-.47-.73-1.36-1.32-2.77-1.938-3.81-.154-.26-.274-.5-.625-.843-.175-.17-.427-.4-.97-.563-.54-.16-1.48.006-1.967.406-.973.8-.793 1.305-.842 1.686-.05.38-.04.743-.03 1.186.033 1.576-.134 2.61-.313 3.125-.075.21-.13.294-.157.34.034 0 .065.02.03.03-.017.01-.056.03-.06.035l.03-.063c-.056 0-.185 0-.44-.092-.424-.154-1.054-.523-1.72-1-1.33-.954-2.82-2.35-4-3.47-.588-.56-1.064-1.045-1.56-1.44-.25-.193-.446-.39-1-.592-.14-.05-.32-.097-.564-.125-.06-.006-.12-.03-.187-.03-.206-.002-.447.034-.72.124-.727.244-1.296 1.08-1.406 1.563-.35 1.544-.675 3.59-.53 5.623.01.165.044.336.06.5-2.507-.356-4.95-.46-7.155-.78-1.11-.16-2.155.607-2.313 1.717-.16 1.11.64 2.16 1.75 2.317 2.77.4 5.416.496 7.813.875-1.69 1.143-3.69 2.28-5.47 4.374-2 2.364-4.02 5.23-4.904 8.594-.744 2.826-1.487 5.497-2.25 8.406-.717 2.724-1.65 5.902-1.846 9.125-.043.745-.153 1.54-.25 2.376-1.042-.19-2.066-.386-3.156-.594-1.59-.3-3.145-.616-4.31-.843-1.165-.226-2.14-.406-2-.376-.2-.04-.39-.05-.594-.03-1.015.07-1.84.86-1.907 1.877-.066 1.015.63 1.926 1.624 2.125.328.075.955.18 2.125.408 1.17.228 2.716.54 4.31.844 1.23.24 2.405.45 3.53.66-.06 1.135-.055 2.29.066 3.44.313 2.95.1 5.97-.093 9.22-.19 3.204-.64 6.37-.844 9.78-.2 3.306-.127 6.393-.314 9.53-.103 1.725-.208 3.465-.313 5.187-5.24 3.214-9.37 5.11-13.217 4.25-3.98-.886-8.643-4.946-14.47-15.53-.482-.88-1.06-1.657-1.654-2.344.067-.145.153-.287.19-.408.4-1.327.332-2.665.25-4.095-.08-1.43-.267-2.88-.407-4.125-.06-.55-.065-.664-.096-1.094.812-.7.96-1.925.312-2.78-.18-.245-.367-.473-.656-.72-.287-.244-.78-.66-1.718-.593-.938.07-1.644.87-1.845 1.313-.2.44-.193.733-.22 1-.1 1.06.047 2.043.19 3.31-.134-.267-.317-.65-.44-.875-.294-.55-.454-.9-.842-1.342-.097-.11-.208-.24-.438-.402-.23-.16-.65-.435-1.41-.376-.76.06-1.443.744-1.656 1.16-.21.417-.234.63-.25.812-.056.736.064.97.158 1.375.095.41.198.853.345 1.345.34 1.134.766 2.32 1.187 3.436-.57-.244-1.144-.514-1.72-.687-.993-.3-1.6-.41-1.78-.47-.176-.06-.093.005-.5-.376-.814-.768-2.104-.723-2.873.094-.768.818-.724 2.108.094 2.876.624.586 1.348 1.033 2 1.25.655.22 1.058.287 1.877.53.577.174 2.44 1.154 4.064 1.658.404.128.81.23 1.34.25.28.013.644 0 1.03-.124.654.55 1.338 1.336 1.91 2.374 6.05 10.994 11.35 16.24 17.154 17.533 4.786 1.068 9.224-.72 13.813-3.344-.126 2.85-.095 5.67-.25 8.282-.155 2.595-.315 5.19-.47 7.78-.198 3.333.38 6.197.22 8.846-.096 1.6-.157 6.977-.22 12.41-.043 3.824-.086 7.05-.125 9.22-.365.385-.585.93-.562 1.5.02.494.22.91.53 1.25.13.94.924 1.69 1.907 1.75.774.046 1.464-.35 1.843-.97 2.8.1 6.35.155 9 .312 2.645.16 5.406.62 8.22 1 .283 13.588.77 27.36 3.655 40.596.373 1.71.62 3.437.656 5.094v.063c-.002.007.01.093-.093.25-.22.338-.708.883-1.344 1.47-1.27 1.174-3.175 2.57-5.125 3.875-1.95 1.303-3.96 2.523-5.5 3.436-.45.27-.76.45-1.122.66-4.166 2.69-1.458 6.04 1.28 4 .484-.28 1.15-.658 1.94-1.126 1.58-.935 3.64-2.195 5.686-3.562 2.044-1.367 4.063-2.84 5.624-4.28.78-.722 1.45-1.427 1.97-2.22.465-.706.886-1.575.78-2.656-.04-2.02-.34-3.997-.75-5.875-2.7-12.41-3.283-25.76-3.56-39.25 1.876.16 3.79.218 5.72.093 4.78-.31 10.243 1.253 16.092.155 3.45-.647 8.502.324 13.154.812-.003.757-.032 1.756-.094 3-.14 2.8-.41 6.574-.688 10.5-.275 3.93-.535 8.015-.72 11.438-.18 3.423-.312 6.03-.124 7.687.74 6.5-.59 12.944.22 20.034.085.745.35.98.5 1.154.15.175.278.265.375.344.198.157.325.265.5.374.358.218.79.434 1.28.687.986.51 2.265 1.1 3.566 1.72 1.3.62 2.613 1.26 3.686 1.78s2.027 1.02 2 1c3.7 1.66 4.46-2.716 1.342-3.938-.437-.232-.95-.454-1.562-.75-1.108-.538-2.428-1.167-3.718-1.782-1.29-.612-2.546-1.225-3.438-1.686-.22-.117-.33-.16-.5-.25-.446-5.76.617-12.1-.188-19.16-.095-.822-.055-3.632.124-7 .18-3.37.475-7.447.75-11.376.276-3.926.544-7.72.687-10.594.06-1.13.08-2.058.095-2.876 2.387.21 4.75.537 7.314.69.586.037 1.196.06 1.78.095h.095c.147.042.31.082.47.09 1.117.07 2.057-.785 2.123-1.905.01-.134.21-2.17.5-4.687.283-2.52.69-5.72 1.06-8.94.373-3.213.744-6.422 1.03-8.935.286-2.51.46-4.107.5-4.812.1-1.632.74-3.47.875-5.75.147-2.434.5-4.366.657-7 .174-2.926.324-5.882.5-8.81.017-.277.052-.535.062-.81 8.03-9.493 12.82-24.275 19.155-34.814.77-1.274 1.015-2.522 1.19-3.405.172-.88.332-1.323.374-1.374.15-.176.238-.358.315-.564.146.005.29-.02.404-.03 1.377-.14 2.616-.69 3.905-1.313 1.29-.625 2.56-1.365 3.657-1.97.49-.27.615-.306 1-.5.957.48 2.116.143 2.656-.78.16-.26.29-.516.407-.877.116-.358.296-.97-.127-1.81-.423-.84-1.423-1.17-1.908-1.19-.485-.014-.746.08-1 .157-1.006.31-1.873.8-2.97 1.408.187-.214.472-.496.625-.686.397-.486.648-.755.907-1.28.066-.133.126-.29.188-.565.064-.273.16-.76-.186-1.438-.35-.68-1.19-1.09-1.66-1.127-.463-.035-.7.07-.873.125-.7.23-.846.383-1.186.624-.34.244-.726.55-1.125.875-.92.75-1.848 1.59-2.72 2.405.01-.623 0-1.272-.06-1.873-.108-1.037-.206-1.627-.22-1.815-.014-.184-.07-.07.125-.59.25-.64.153-1.38-.25-1.94-.405-.556-1.03-.88-1.72-.843-.81.045-1.534.58-1.81 1.344-.304.8-.426 1.626-.377 2.313.05.686.13 1.12.22 1.97.06.595-.096 2.68.06 4.373.04.424.067.814.25 1.31.13.356.366.867.844 1.25-.21.126-.375.275-.532.47-.908 1.117-1.046 2.284-1.218 3.156-.172.872-.32 1.532-.657 2.09-5.612 9.34-10 21.125-15.47 29.688.07-.56.16-1.118.286-1.658.68-2.975.624-5.943.78-8.594.187-3.076-.28-6.024.22-8.22.73-3.18.91-6.24 1.096-9.34.185-3.09.106-6.097.28-9.03.185-3.076.117-6.047.28-8.816.2-3.33-.61-5.286-1.093-7.874-.442-2.363-1.596-5.15-3.375-7.154-.27-.308-.5-.85-.78-1.627-.277-.777-.585-1.818-1.47-2.815-.044-.05-.49-.803-.905-1.654-.415-.85-.77-1.83-1.812-2.72-1.15-.97-2.28-2.382-4.154-3.465-1.087-.626-2.84-2.21-5.25-2.967-.33-.104-1.02-.5-1.81-.97-.79-.468-1.725-1.073-3.094-1.155-.46-.025-1.04-.11-1.657-.22.69-.45 1.415-.98 2.185-1.623.86-.717.968-2.01.25-2.873-.72-.86-2.014-.97-2.876-.25-2.23 1.865-3.65 2.31-4.156 2.313-.505.005-.52-.083-.843-.657-.32-.57-.59-1.54-.75-2.374-.075-.416-.1-.755-.216-1.188-.057-.215.05-.434-.56-1.094-.266-.286-.99-.67-1.687-.655zm377.437.25c.005.356.02.672 0 1.062-.03.65-.077 1.3-.094 1.875-.01.29-.02.53.03.904.02.142.042.307.125.532-.75.226-1.5.485-2.25.81.356-.66.523-1.27.687-1.876.41-1.505.862-2.77.97-2.873.303-.3.3-.255.53-.437zm42.625.22c-.088.646-.265 1.434-.47 2.28-.193.806-.397 1.617-.56 2.406-.238-.08-.47-.154-.72-.22-.347-.086-1.04-.436-1.876-.874-.32-.167-.676-.362-1.06-.53.842-.537 1.82-1.197 3-2.032.672-.473 1.244-.794 1.686-1.03zm-421.72 2.31c.002.006-.005.16 0 .19-.053-.12 0-.195 0-.19zm367.375 2.72c.78.284 1.65.657 2.596 1.062 1.105.476 2.004.985 3.405 1.03-.154.138-.32.295-.466.44-.974.96-2.19 1.77-3.47 2.75-.404-1.215-1.05-2.762-1.968-4.94-.076-.175-.038-.19-.095-.342zm31.72.03c1.017-.004 1.955.056 2.595.22 2.137.55 4.457.86 6.687.875 1.825.01 4.182.55 6.44.56.076 0 .62.15 1.343.53s1.598.95 2.78 1.25c1.278.33 2.935 1.53 4.72 2.44 1.12.57 2.136 1.71 3.75 2.935-.054-.04.468.59.906 1.375.44.79.82 1.65 1.69 2.53.21.215.475.73.81 1.53.336.8.77 1.884 1.75 2.875 1.03 1.044 2.385 3.75 2.75 5.25.734 3.014 1.455 4.322 1.437 6.97-.02 3.08.236 6.08.217 9-.02 3.24.206 6.346.188 9.28-.02 3.18-.067 6.04-.563 8.906-.597 3.44.2 6.7.186 9.128-.015 2.23.08 4.396-.064 6.373-.342.28-.605.655-.72 1.096-.157.62-.03 1.25.345 1.75-.41 3.476.08 6.652.064 9.563-.006 1.046.008 2.075 0 3.122l-.03.035c-.42.21-.584.334-.685.406-4.36.084-7.304 1.74-10 1.72-8.136-.05-16.294 1.147-24.44 1.095-5.657-.035-13.853-.64-21.063-1.282-6.77-.6-12.518-.802-17.53-.344-.055-1.6-.104-3.19-.095-4.72.02-3.09.01-6.16.03-9.25.017-2.416-.093-4.72-.155-6.97 4.234 1.854 10.137 2.994 14.687 2 3.987-.87 5.847-2.13 8.782-3.81 2.035-1.168 3.318-2.76 4.28-4.22.963-1.46 1.688-2.81 2.72-4.064.858-1.042 2.102-2.765 3.25-4.562 1.147-1.796 2.207-3.346 2.562-5.28.047-.074.11-.146.155-.22.412-.64.733-1.228 1-1.688.17-.286.335-.57.407-.687.05-.06.04-.08.033-.06.52-.65.68-1.53.375-2.313-.315-.805-1.046-1.37-1.906-1.47-.86-.096-1.73.287-2.217 1-.39.512-.456.74-.72 1.19-.26.447-.553.985-.903 1.53-.7 1.09-1.663 2.184-2.03 2.437-5.462 3.803-12.213 6.76-18.69 6.72-5.69-.036-6.843-.166-11.5-3.75-.04-1.89-.153-3.805-.466-5.75-.117-.72-.15-1.505-.158-2.345h.064c.743.065 1.48-.265 1.906-.878.425-.61.506-1.386.186-2.06-.32-.673-1.01-1.13-1.75-1.187-.05-.004-.184-.024-.25-.03.05-.975.085-1.967.09-2.94.018-2.64.715-5.695 1.313-8.592.612-2.97 1.23-5.772 1.842-8.75.516-2.493 2.043-5.09 3.78-7.373 1.563-2.056 4.064-3.19 6.563-5.657 1.046-1.035 5.15-2.655 7.126-2.97 1.86-.3 4.56-.61 6.75-1.69-.03.02 1.32-.284 2.626-.344 1.306-.06 2.63-.034 3.78-.22.88-.14 1.956-.215 2.97-.22zm-163.624.095c.314 0 .647.02.97.03.302.41.737.685 1.28.78 5.605 1.31 10.172 5.42 15.874 10.155.57.513 1.375.662 2.094.407.72-.25 1.227-.87 1.345-1.622.12-.754-.175-1.536-.78-2-2.205-1.828-4.326-3.658-6.5-5.313.08.018.464.094.56.094.107 0 .17.005.22 0 .095-.01.12-.024.155-.03.174-.03.37-.086.53-.157.016-.004.02.007.03 0 .024-.01.1-.023.126-.03l.44.062c.246.04.51.11.81.19 2.13.53 5.395 1.852 6.314 2.75 2.512 2.454 4.99 3.577 6.562 5.624 1.75 2.28 3.314 4.884 3.843 7.376.63 2.973 1.276 5.75 1.904 8.72.613 2.894 1.31 5.953 1.343 8.593.01.97.07 1.93.125 2.904-.07.01-.23.06-.28.064-.746.06-1.37.51-1.69 1.187-.315.677-.27 1.455.16 2.064.43.61 1.16.942 1.903.87.02 0 .047.005.064 0-.003.84-.046 1.63-.157 2.346-.3 1.95-.406 3.864-.438 5.75-4.64 3.615-5.773 3.747-11.47 3.814-6.473.076-13.234-2.85-18.72-6.625-.364-.25-1.324-1.35-2.03-2.438-.352-.542-.673-1.084-.937-1.53-.263-.447-.323-.647-.718-1.157-.79-1.02-2.265-1.223-3.285-.435-.997.773-1.2 2.202-.468 3.22.02.05.265.405.467.75.27.457.617 1.08 1.03 1.717.047.075.108.147.156.22.366 1.933 1.406 3.46 2.562 5.25 1.157 1.79 2.418 3.493 3.282 4.53 1.037 1.25 1.747 2.576 2.717 4.03.973 1.46 2.274 3.036 4.314 4.19 2.946 1.666 4.854 2.933 8.846 3.78 4.553.97 10.404-.19 14.627-2.062-.047 2.25-.122 4.554-.094 6.97.035 3.09.06 6.16.093 9.25.017 1.528-.05 3.122-.094 4.718-5.017-.954-11.49-.51-18.25.125-7.207.68-14.69 1.623-20.345 1.688-8.146.1-16.304-1.03-24.44-.934-2.696.033-5.607-1.627-9.967-1.687-.1-.075-.294-.2-.72-.41-.006-.004-.02.005-.03 0l-.03-3.156c-.035-2.91.457-6.064.03-9.53.385-.513.52-1.185.344-1.815-.123-.44-.402-.793-.75-1.064-.154-1.97-.068-4.15-.094-6.375-.028-2.427.74-5.66.125-9.092-.51-2.863-.56-5.725-.597-8.905-.033-2.936.196-6.075.157-9.315-.034-2.916.192-5.92.156-9-.03-2.645.69-3.95 1.407-6.97.357-1.5 1.694-4.2 2.72-5.25.97-.994 1.417-2.103 1.75-2.904.33-.8.57-1.28.78-1.5.864-.883 1.255-1.803 1.687-2.593.434-.79.93-1.414.875-1.374 1.607-1.234 2.664-2.36 3.78-2.937 1.78-.916 3.41-2.135 4.687-2.47 1.18-.31 2.06-.866 2.78-1.25.723-.38 1.235-.53 1.313-.53 1.55-.02 3.152-.27 4.592-.44.29.55.81.976 1.47 1.095 3.537.826 4.775 1.59 6.313 2.72 1.54 1.13 3.38 2.75 7.096 4.655.663.383 1.505.373 2.156-.03.65-.406 1.017-1.14.97-1.908-.05-.766-.523-1.465-1.22-1.784-3.37-1.73-4.755-3.01-6.53-4.313-.66-.482-1.356-.93-2.19-1.374.157-.04.315-.083.47-.124.6-.156 1.462-.24 2.406-.25zm-234.53.687c.09.228.152.463.25.688-.227-.06-.438-.12-.658-.188.14-.166.26-.324.406-.5zm-27.815.188c.755.71 1.57 1.49 2.47 2.22-.634.206-1.26.467-1.874.75-.118-.058-.163-.174-.28-.408-.15-.29-.298-.802-.346-1.47-.023-.32.017-.73.03-1.092zm454.596.625c-.175.545-.36 1.092-.5 1.654-.24-.174-.485-.36-.75-.53.382-.333.8-.685 1.25-1.124zm-178.626.435c.1.02.18.045.28.063.09.123.264.35.28.374-.19-.143-.37-.296-.56-.438zm-251.876 2.72c.7.06 1.324.17 1.78.31 2.057.65 4.33 1.06 6.5 1.19 1.78.106 4.02.774 6.22.905.075.003.594.154 1.28.56.687.408 1.52.988 2.657 1.345 1.23.386 2.747 1.68 4.44 2.656 1.06.618 2.02 1.756 3.53 3.03-.05-.04.43.59.812 1.38.39.79.7 1.69 1.5 2.594.2.22.437.706.72 1.5.288.8.66 1.92 1.56 2.94.95 1.07 2.13 3.735 2.41 5.22.56 2.972 1.217 4.29 1.063 6.87-.18 3.007-.11 5.97-.28 8.816-.19 3.157-.11 6.2-.282 9.06-.184 3.1-.365 5.89-1 8.656-.757 3.32-.17 6.508-.31 8.875-.17 2.847-.155 5.61-.69 7.94-.7 3.07-.596 5.947-.624 8.595-.076.293-.065.603 0 .906-.01.3-.016.58-.034.875-.06 1.023-.125 2.043-.186 3.063-.41.178-.58.306-.684.375-4.263-.15-7.21 1.346-9.843 1.188-7.93-.472-15.938.226-23.877-.25-5.51-.33-12.75-1.624-19.75-2.624-5.246-.75-10.335-1.352-14.686-1.22-1.093.037-2.133.11-3.125.25.03-1.56.036-3.102.125-4.592.18-3.01.383-6.02.563-9.03.14-2.357.16-4.585.218-6.782 4.036 2.024 9.71 3.45 14.19 2.72 3.93-.64 5.8-1.793 8.75-3.28 2.046-1.03 3.42-2.5 4.438-3.876 1.015-1.375 1.74-2.642 2.813-3.812.89-.972 2.195-2.587 3.406-4.28 1.212-1.692 2.335-3.132 2.78-5 .054-.072.106-.15.157-.22.432-.602.807-1.16 1.092-1.593.215-.322.447-.664.47-.716.55-.67.676-1.58.31-2.374-.37-.816-1.194-1.348-2.09-1.345-.67.008-1.29.298-1.72.813-.41.48-.533.704-.812 1.126-.278.427-.6.927-.97 1.44-.737 1.027-1.723 2.053-2.093 2.28-5.526 3.425-12.255 5.94-18.565 5.563-5.55-.33-6.644-.508-11-4.25.06-1.838.046-3.716-.157-5.626-.076-.705-.068-1.46-.03-2.28h.06c.73.12 1.45-.17 1.907-.75.457-.58.567-1.38.28-2.062-.282-.68-.922-1.137-1.654-1.22l-.25-.03c.1-.947.195-1.93.25-2.875.155-2.573.987-5.49 1.72-8.28.75-2.866 1.497-5.568 2.25-8.438.63-2.405 2.28-4.86 4.09-7 1.63-1.922 4.09-2.91 6.66-5.187 1.073-.95 5.18-2.326 7.125-2.53 1.603-.17 3.84-.307 5.845-.97.395.424.867.78 1.437 1.093.903.5 2.36.668 3.437.065.455-.254.8-.625 1.126-1 .205.185.41.383.69.5.794.335 1.606.22 2.188 0 .694-.262 1.256-.652 1.876-1.19zm439.22 2.436c.125 0 .234.026.342.035.864.08 1.046.305 1.188.594.144.29.254.915-.187 1.904-.426.96-1.356 2.196-2.937 3.406-.068-.15-.115-.326-.188-.5-.328-.78-.73-1.846-1.69-2.816-.04-.04-.394-.617-.78-1.28.115-.057.227-.096.344-.157.957-.497 1.784-.824 2.5-1 .538-.13 1.027-.186 1.407-.19zm-73.69 2c.07-.013.114.007.19 0 .514-.02 1.21.28 2.154.66-.847 1.204-1.65 2.477-2.313 3.875-.424-.236-.98-.63-1.374-1.094-.45-.53-.596-.96-.56-1.314.035-.355.222-.998 1.593-1.968.094-.066.205-.13.31-.156zm-496.84 3.03c-.347 0-.7.02-1.03.03-1.326.068-2.483.25-3.344.19-2.92-.19-4.648.098-7 .408-2.128.28-4.39.324-6.75.75-1.287.234-2.1.785-3.03 1.344-.93.56-1.86 1.156-2.28 1.373-1.897.973-3.767 2.66-4.94 3.687-1.57 1.373-2.51 3.013-2.78 3.25-1.68 1.47-2.327 3.53-2.657 4.09-1.25 2.14-1.883 3.86-2.562 5.97-.08.25-.15.524-.217.78-.745.738-1.292 1.646-1.374 2.877-.12 1.772-.19 4.07.25 6.342-.218 2.03-.514 4.22-.658 6.406-.176 2.664-.643 5.234-.843 8.25-.173 2.62-.305 4.81-.968 6.874-.89 2.75-.418 5.826-.537 7.627-.118 1.775-.16 3.49-.188 5.154-.005.006.004.03 0 .03-9.11 7.37-15.963 20.5-23.563 29.346-.9 1.05-1.3 2.16-1.595 2.94-.297.78-.517 1.147-.563 1.187-.16.14-.273.296-.374.47-.134-.026-.266-.025-.375-.032-1.284-.084-2.472.256-3.75.626-1.276.37-2.59.83-3.686 1.214-.49.17-.62.195-1 .313-.8-.587-1.894-.477-2.534.28-.185.216-.37.44-.53.75-.164.312-.445.822-.188 1.656.253.835 1.12 1.316 1.56 1.406.44.09.723.06.97.03.972-.13 1.83-.487 2.936-.876-.21.172-.512.41-.686.562-.44.384-.713.59-1.03 1.03-.08.113-.185.23-.284.47-.1.24-.274.67-.062 1.344.21.676.987 1.176 1.408 1.28.42.11.644.09.814.064.676-.1.806-.236 1.155-.406.35-.17.74-.39 1.154-.626.957-.545 1.952-1.17 2.876-1.785-.103.572-.21 1.16-.25 1.72-.062.963-.044 1.513-.06 1.686-.02.174.04.117-.22.56-.38.583-.43 1.3-.093 1.906.336.61.996 1.005 1.69 1 .693-.006 1.33-.418 1.656-1.03.4-.686.656-1.427.72-2.064.06-.637.04-1.02.092-1.813.036-.556.504-2.456.624-4.03.03-.396.06-.767-.03-1.25-.067-.348-.214-.858-.596-1.283.21-.077.415-.187.594-.343 1.007-.88 1.3-1.913 1.595-2.688.29-.774.54-1.35.935-1.814 7.18-8.364 13.46-19.596 20.47-26.563-.057 1.148-.08 2.425-.13 3.78-.168.27-.296.604-.31.94-.05.764.01 1.45.154 2.124-.027.597-.04 1.225-.064 1.595-.002.03 0 .13 0 .156-1.157 8.26-.802 12.45-1.593 20.562v.063c-.13 1.976.07 3.315-.03 4.844v.06c-.008.07-.05.153-.063.28-.027.26-.074.624-.124 1.094-.1.94-.24 2.28-.408 3.876-.342 3.194-.768 7.446-1.22 11.69-.453 4.24-.91 8.493-1.25 11.685-.17 1.597-.307 2.933-.406 3.874-.05.47-.13.834-.157 1.093-.013.13.01.21 0 .28 0 .02-.03.036-.03.033-.003.002.01.01 0 .154-.076 1.12.755 2.08 1.874 2.155.336.024.68-.03.97-.156.22.193.482.355.78.438 1.475.475 2.844.54 4.155.625 2.85.19 5.713.374 8.564.562 1.543.1 3.08.18 4.624.28-.005.093.02.186.03.28.546 6.61 1.142 9.156 1.406 16.5.046 3.11.328 7.01.813 10.907-.53.918-1.316 2.13-2.22 3.343-1.44 1.93-3.12 3.995-4.438 5.844-.444.62-.958 1.25-1.47 1.875v.03c-.047.06-.11.1-.156.16-1.77 2.292-5.49 4.57-1.94 6.715.736.168 1.536-.08 2.03-.654 1.555-1.632 3.38-3.653 4.874-5.75 1.163-1.63 2.776-3.625 4.25-5.592.313 1.716.653 3.333 1.032 4.78.212.818.415 1.635.625 2.44.148.745.707 1.347 1.436 1.56.73.217 1.5.016 2.03-.53.53-.544.737-1.37.5-2.093-.21-.806-.44-1.59-.654-2.407-.644-2.476-1.21-5.713-1.654-9.03.105-.255.233-.494.313-.75.208-.63.08-1.31-.31-1.845-.096-.133-.22-.27-.34-.375-.35-3.183-.59-6.276-.626-8.72v-.06c-.266-7.404-.88-10.155-1.406-16.346 2.022.137 4.04.274 6.06.407 4.748.315 9.903-.4 13.594.594 3.135.846 6.295 1.21 9.406 1.47-.253 9.948-2.504 15.745-2.313 28.75.042 2.88.114 5.626-.438 8.03-.216.73.014 1.504.56 2.03.546.53 1.34.708 2.062.47.72-.236 1.245-.843 1.373-1.593.63-2.752.58-5.45.53-7.97.75 1.05 1.556 2.13 2.375 3.22 2.67 3.555 5.486 7.06 6.03 7.78.688.9 1.944 1.06 2.845.376 1.87-2.15-.737-4.214-2.062-6.09h-.06c-1.035-1.328-2.25-2.91-3.47-4.535-1.31-1.744-2.61-3.506-3.592-4.967-.98-1.46-1.654-2.9-1.624-2.783-.06-.243-.175-.456-.31-.655.48-8.185 1.966-13.456 2.19-21.75 1.37.073 3.81.08 6.092.094 1.223.01 2.373.03 3.218.03.424.002.764 0 1 0h.03c.71.123 1.44-.14 1.91-.69.17-.2.292-.412.374-.654.427.115.844.19.844.188 0 0 1.035-.447 1.22-.657.37-.414.365-.57.405-.685.04-.116.047-.192.06-.25.08-.315.073-.65 0-.968 0-.16-.006-.288 0-.594.014-.874.064-2.266.124-3.97.12-3.4.32-8.09.53-12.903.426-9.628.936-19.926.97-20.438.107-1.616.236-3.228.344-4.844.12-1.805.228-3.63.346-5.438.128-1.9.25-3.788.376-5.69.123-1.863.51-3.786.656-5.97.032-.526.09-1.06.122-1.59 1.26 2.71 2.413 5.487 3.876 8.22 2.356 4.403 5.59 8.643 11.25 11.686.655.35 1.08.32 1.467.31.39-.01.76-.05 1.16-.126.793-.15 1.69-.405 2.72-.72 2.055-.62 4.58-1.515 7.06-2.404 2.48-.887 4.93-1.774 6.78-2.374.886-.285 1.62-.476 2.127-.594.177.1.357.14.5.19 1.226.395 2.454.39 3.78.343 1.33-.048 2.687-.175 3.846-.28.514-.046.633-.04 1.03-.06.634.764 1.76.922 2.564.342.233-.163.423-.33.657-.594.236-.26.64-.72.595-1.596-.043-.87-.75-1.522-1.154-1.72-.405-.194-.69-.22-.936-.25-.98-.112-1.888.02-3.06.126.25-.114.604-.3.81-.404.52-.265.834-.4 1.25-.75.106-.086.22-.165.376-.375.154-.21.447-.604.405-1.31-.04-.707-.647-1.358-1.03-1.564-.382-.204-.61-.232-.78-.25-.68-.067-.87.017-1.25.095-.38.08-.79.216-1.25.343-1.06.292-2.204.63-3.25 1 .24-.53.484-1.06.656-1.595.298-.92.44-1.46.5-1.628.06-.164-.017-.1.344-.47.553-.544.714-1.38.405-2.093-.31-.71-1.037-1.15-1.814-1.125-.494.02-.944.235-1.28.594-.556.566-1 1.21-1.22 1.812-.216.603-.256.994-.5 1.75-.17.53-1.123 2.22-1.624 3.72-.126.373-.22.757-.25 1.25-.018.26-.02.632.092 1-.514.142-1.065.3-1.686.5-1.96.633-4.436 1.52-6.907 2.405-2.47.884-4.96 1.76-6.875 2.34-.96.29-1.764.524-2.315.626-.193.04-.3.056-.405.065-4.738-2.628-7.344-6.03-9.47-10-2.165-4.05-3.75-8.67-6.468-13.22-.044-.077-.103-.15-.157-.22.165-1.25.347-2.578.437-3.938.14-2.09.3-4.19.438-6.28.124-1.85.514-3.79.657-5.97l.344-5.127.44-6.564.187-2.845c.07.01.15.026.22.033 1.686.18 3.48.46 4.5.594 1.11.15 2.133-.635 2.28-1.75.15-1.11-.637-2.13-1.75-2.28-.88-.115-2.787-.4-4.625-.594l-.343-.03c.12-1.79.226-3.586.343-5.377.09-1.348-.27-2.488-.593-3.597-.325-1.108-.68-2.164-.78-2.72-.418-2.31-.833-4.805-1.938-7.44-.166-.39-.336-.76-.5-1.154-.47-1.12-1.056-2.16-1.658-3.125.04-.2.094-.415.09-.69-.007-.41-.098-1.086-.688-1.655-.425-.41-.972-.585-1.405-.624-.41-.58-.82-1.122-1.187-1.684-.98-1.503-2.33-2.39-3.53-3.093-1.2-.705-2.29-1.273-2.843-1.75-2.06-1.77-5.03-2.856-7.188-3.44-.47-.125-.94-.246-1.41-.374-2.37-.638-4.815-1.17-6.904-1.843-1.103-.355-2.234-.49-3.28-.5zm242.188 1.97c-8.77-.055-17.45 3.158-23.373 10.127-2.95 3.466-3.33 7.272-3 10.687.33 3.42 1.17 6.62.97 9.91-.067 1.02-.36 1.335-1 1.72-.645.382-1.81.632-3.13.623-2.64-.013-5.97-1.285-6.624-1.843-.884-.75-1.15-1.368-1.22-2-.065-.63.15-1.378.595-2.157.84-1.455 2.66-2.758 3.815-3.093.208.18.523.603.688.97.13.29.12.435.127.53-1.037.43-1.52 1.62-1.095 2.656.43 1.037 1.62 1.522 2.656 1.093 1.277-.465 2.253-1.706 2.47-2.875.215-1.168-.063-2.19-.47-3.095-.405-.9-.976-1.7-1.718-2.34-.74-.644-1.78-1.256-3.153-1-2.783.52-5.31 2.453-6.844 5.124-.765 1.336-1.27 2.914-1.092 4.593.077.73.318 1.46.657 2.16-.823.004-1.653.1-2.5.436-1.25.5-2.42 1.52-3.124 2.94-1.624 3.28-1.97 6.705-.97 9.654 1.007 2.95 3.46 5.34 6.784 6.22 3.085.816 5.735 1.027 8.095.28 2.312-.73 4.12-2.433 5.437-4.655-.005.04 0 .085 0 .123-.136 2.186-.275 4.344-.408 6.53l-.313 5.125c-.135 2.185.05 4.185-.063 6.03-.057.973-.126 1.938-.186 2.908-.114.064-.212.135-.312.22-3.976 3.25-9.053 5.25-12.72 7.75-1.83 1.25-3.464 2.72-4.03 4.876-.564 2.158.18 4.52 1.97 6.97 2.786 3.82 7.97 7.456 10.72 10.876 1.373 1.715 2.02 3.21 1.904 4.316-.08.795-.514 1.694-1.81 2.75-.69-.156-1.415-.236-2.157-.312-1.323-.13-2.714-.193-3.875-.25-.512-.02-.6-.026-1-.06-.346-.567-.99-.916-1.655-.907-.297.007-.58.077-.843.22-.252.13-.482.27-.75.5-.267.227-.706.6-.78 1.467-.074.87.56 1.626.937 1.875.374.25.634.314.873.375.956.248 1.853.26 3.03.313-.26.085-.62.175-.842.25-.55.194-.88.305-1.34.595-.115.074-.255.158-.438.344-.18.186-.505.513-.56 1.22-.057.704.46 1.46.812 1.716.35.256.553.304.72.344.665.16.893.06 1.28.03.39-.025.81-.06 1.28-.124 1.09-.143 2.23-.34 3.314-.56-.31.486-.603.97-.844 1.47-.42.87-.635 1.406-.72 1.56-.08.155.006.092-.403.406-.824.64-.95 1.83-.31 2.654.64.828 1.8.984 2.627.345.628-.485 1.173-1.09 1.47-1.657.296-.566.373-.97.72-1.688.136-.282.59-.885 1.06-1.625-.172 1.43-.32 2.742-.5 4.22-.352 2.854-.726 5.58-1 7.5-.082.583-.156.92-.22 1.31-.253.18-.53.405-.53.405-.322.665-.264 1.43.157 2.032.13.183.293.34.47.47.15.225.393.52.904.716.64.25 1.47.055 1.844-.188.03-.02.067-.043.094-.063.063.004.095.03.158.03 1.164.07 2.734.15 4.377.25 3.286.204 6.846.432 7.968.5 2.726.167 5.498.334 8.314.28-.03.13-.06.27-.063.406-.45 9.843 1.014 25.52 1.063 37.405-.145.192-.275.416-.345.656.035-.118-.7 1.302-1.75 2.715-1.048 1.414-2.42 3.1-3.81 4.782-1.167 1.41-2.296 2.774-3.315 3.966-.035.045-.085.08-.123.125-1.786 2.142-5.57 4.825-1.72 6.782.745.117 1.48-.186 1.94-.783.58-.693 3.54-4.04 6.375-7.47.87-1.05 1.733-2.11 2.53-3.125-.162 2.516-.252 5.812.25 8.592.095.755.605 1.418 1.315 1.688s1.492.098 2.062-.405c.57-.502.835-1.26.655-2-.44-2.43-.336-5.78-.16-8.656.845-13.802-1.377-33.11-.875-44.093.018-.286-.027-.58-.125-.845.35-.037.71-.045 1.064-.094 3.487-.474 8 .626 12.406 1.035.1.385.254.904.47 1.656.47 1.674 1.22 4.22 2.09 7.124 1.745 5.812 5.355 17.15 6.908 21.53.816 2.305 1.686 5.297 2.47 8.407-.02.035-.048.06-.065.096-.358.71-.276 1.564.22 2.188.16.215.343.427.53.627.74 3.273 1.335 6.483 1.592 9.03.087.84.17 1.67.25 2.5.11 1.127 1.125 1.92 2.25 1.81 1.13-.11 1.924-1.09 1.814-2.22l-.25-2.5c-.15-1.49-.38-3.12-.687-4.84 2.065 1.33 4.28 2.626 5.935 3.75 2.13 1.444 8.44 6.134 10.47 7.125.66.342 1.44.314 2.06-.096 1.162-1.257-.02-3.097-3.718-5.78-2.785-2.023-5.79-4.16-6.5-4.66-1.88-1.274-4.2-2.596-6.22-3.906-1.27-.822-2.465-1.666-3.28-2.343-.91-3.833-1.994-7.63-3.034-10.562-1.493-4.214-5.108-15.564-6.843-21.345-.866-2.89-1.598-5.422-2.062-7.06-.03-.113-.03-.145-.06-.25 3.88.237 7.746.482 11.626.72 2.852.174 5.71.356 8.562.53.07.005 1.59.347 2.937.687.673.172 1.346.322 2 .438.653.12 1.186.258 2.062.094.74-.1 1.365-.61 1.624-1.314.185-.504.18-1.022-.03-1.5-.006-.09.004-.167 0-.28l-.096-2c-.08-1.655-.204-3.842-.314-6.032-.108-2.188-.23-4.41-.312-6.063l-.094-1.97c-.01-.24.005-.46 0-.59 0-.027-.03-.04-.03-.064.095-1.518.47-2.82.59-4.78.003-.02 0-.04 0-.067.246-8.15 1.133-12.255 1.03-20.594.12-1.937.743-8.247.877-10.44.014-.22.014-.43.03-.656.04-.006.09-.02.126-.03 8.786-2.376 21.26-10.09 24.5-30.782.21-1.337.806-2.3 1.468-2.97.01.005.026.03.03.032.54.195.926.15 1.22.094 1.266-.245 2.36-.88 3.5-1.565 1.14-.682 2.288-1.442 3.25-2.094.43-.287.536-.35.877-.56.93.364 1.956-.066 2.376-.97.126-.253.236-.47.314-.81.08-.344.21-.915-.25-1.657-.458-.742-1.424-.993-1.874-.97-.45.026-.675.127-.905.22-.912.372-1.65.936-2.625 1.593.16-.22.4-.53.53-.72.33-.48.526-.77.72-1.28.05-.13.09-.275.127-.53.034-.26.094-.717-.282-1.317-.374-.598-1.22-.878-1.655-.875-.435.003-.625.09-.78.155-.63.27-.77.47-1.065.72-.294.25-.595.54-.936.876-.788.765-1.608 1.61-2.345 2.435-.043-.573-.083-1.17-.188-1.72-.184-.946-.35-1.48-.377-1.653-.024-.17-.042-.094.097-.592.163-.55.08-1.154-.25-1.625-.33-.47-.864-.746-1.437-.78-.9-.056-1.71.533-1.937 1.405-.214.762-.29 1.523-.187 2.154.1.63.256 1.032.406 1.81.107.55.094 2.478.377 4.03.07.39.167.777.377 1.22.05.11.106.25.187.377-1.15 1.182-2.13 2.852-2.47 5-2.872 18.37-12.865 24.89-20.5 27.314.14-1.244.266-2.502.346-3.812.11-1.8.966-4.784.437-7.625-.395-2.13-.253-4.347-.093-6.97.185-3.013.056-5.614.22-8.28.1-1.626.104-3.264.124-4.843.678.215 1.367.335 2.03.375 1.226.076 2.378-.074 3.408-.343 1.03-.27 1.9-.587 2.72-1.314 1.566-1.383 2.86-3.335 3.406-5.623.547-2.285.203-5.073-1.75-7.124-3.814-4.003-11.01 1.046-8.72 6.03.29.686.92 1.147 1.657 1.22.738.08 1.456-.233 1.877-.842.42-.608.483-1.4.153-2.063-.355-.775 1.444-2.214 2.095-1.53.914.96 1.04 2.005.72 3.343-.32 1.334-1.217 2.78-2.097 3.563-.035.006-.504.26-1.063.407-.636.165-1.44.26-2.155.22-.714-.047-1.3-.23-1.656-.47-.19-.13-.357-.25-.47-.44.13-2.17.25-4.716-.187-7.06-.404-2.18-.81-4-1.78-6.28-.257-.607-.646-2.707-2.126-4.38-.235-.27-.96-2-2.342-3.563-1.032-1.167-2.68-3.106-4.436-4.312-.39-.267-1.21-.95-2.062-1.624-.85-.673-1.626-1.355-2.873-1.75-2.286-.72-4.488-1.013-6.564-1.563-1.545-.407-2.82-.776-4.376-1.03-1.368-1.697-3.087-3.017-5.063-3.814-3.09-1.242-6.37-2.046-9.69-2.405-.62-.066-1.25-.12-1.873-.156-.584-.03-1.164-.056-1.75-.06zm-248.53 2.22c.51-.004 1.05.02 1.69.063 1.695.115 3.416-.03 4.75-.06.8-.016 1.452.01 1.905.156 2.346.753 4.908 1.3 7.156 1.905.47.128.908.28 1.377.407 1.692.458 4.595 1.68 5.623 2.563 1.14.98 2.37 1.575 3.407 2.184 1.037.61 1.83 1.18 2.22 1.78.29.45.58.884.873 1.312l-.25.186c-.89.664-1.82 1.385-2.657 1.874-.837.49-1.587.624-1.532.626-4.37-.29-10.18-4.702-16.154-7.687-2.988-1.49-6.125-2.627-9.44-2.28-3.314.34-6.546 2.334-9.218 6.184-3 4.325-3.206 9.075-4.157 12.72-.95 3.644-2.09 6.175-7.31 7.874-1.77.576-2.78.476-3.438.187-.66-.287-1.17-.84-1.594-1.78-.213-.47-.37-1.022-.5-1.626.05-.51.09-1.054.124-1.56.107-1.63.25-3.474.53-5.064.043-.028.078-.065.125-.094.886-.53 2.17-.947 3.218-1 1.047-.055 1.692.23 1.97.56.27.33.597 1.107.06 3.158-.023.02-.1.1-.282.22-.366.245-1.03.56-1.75 1.188-.844.74-.928 2.03-.187 2.875.74.845 2.03.93 2.875.19.156-.134.665-.443 1.314-.875.65-.43 1.59-1.153 1.94-2.438.765-2.843.49-5.257-.877-6.907-1.37-1.647-3.446-2.123-5.28-2.03-.53.028-1.05.116-1.563.22.29-.65.627-1.287 1.064-2.032.72-1.23 1.47-2.79 1.813-3.093 1.39-1.216 2.035-2.567 2.814-3.25 1.16-1.016 3.122-2.61 4.124-3.125.815-.417 1.665-.997 2.5-1.5.834-.5 1.74-.89 1.656-.875 1.896-.342 4.12-.363 6.563-.687 1.837-.24 2.966-.454 4.5-.47zm248.595 1.844c.515.008 1.016.038 1.53.066.55.03 1.108.066 1.657.124 1.88.2 3.745.595 5.564 1.125-.188.02-.373.025-.563.06-2.155.403-4.693.636-7.124.97-.48.066-.99.12-1.47.186-2.213.304-5.26 1.006-7.53 2.5-.61.403-1.75.83-3.03 1.375-1.28.55-2.746 1.23-3.91 2.598-1.78 2.1-4.126 4.217-5.81 7.126-.213.37-.41.756-.626 1.124-.29.503-.542.977-.78 1.47-.13-.822-.24-1.593-.314-2.343-.283-2.938-.114-5.126 2.06-7.688 5.047-5.934 12.63-8.74 20.346-8.69zM72.605 215.1c2-.09 4.297.68 6.81 1.936 5.364 2.68 11.19 7.633 17.69 8.063 1.566.1 2.723-.54 3.842-1.19 1.12-.66 2.166-1.43 3.062-2.1.04-.03.05-.036.09-.06.51.82.96 1.633 1.31 2.47l.5 1.184c.895 2.14 1.3 4.245 1.72 6.563.194 1.08.58 2.155.872 3.156.293 1 .45 1.945.437 2.155-.124 1.876-.25 3.75-.375 5.625-.23.067-.48.176-.75.315-1 .513-1.42 1.72-.907 2.72.285.554.81.933 1.375 1.062-.057.856-.1 1.71-.157 2.562-.088 1.335-.19 2.668-.28 4-.118-.064-.24-.116-.377-.156-.09-.05-.235-.16-.406-.28-.35-.24-.81-.57-1.25-.91-.44-.333-.87-.677-1.22-.937-.173-.13-.34-.24-.5-.343-.078-.05-.136-.08-.28-.156-.07-.034-.144-.094-.344-.154-.2-.06-.645-.386-1.56.22-.668.44-.718.635-1.063 1-.346.36-.73.78-1.096 1.122-.03.03-.06.032-.092.06-.197-.32-.293-.54-.593-.906-.327-.4-.82-.96-1.814-1.095-.99-.134-1.902.463-2.374 1.03-.435.53-.975 1.122-1.467 1.47-.493.35-.745.4-.97.344-2.177-.55-3.877-.24-5.155-.813-1.504-.677-3.427-2.69-5.437-3.877-.317-.193-.69-.27-1.06-.25-.81.047-1.5.62-1.69 1.405-.187.787.175 1.596.875 2 .295.174.688.487 1.125.843.15.61.6 1.105 1.22 1.28-.07 0 .05.076.25.347.327.443.745 1.16 1.22 1.97.95 1.616 1.96 3.56 3.782 4.78 3.33 2.233 5.29 3.986 9.842 4.592 3.706.496 6.786-.84 9.75-3.187-.17 1.313-.4 2.72-.5 4.25-.14 2.092-.268 4.16-.407 6.25-.13 1.893-.55 4-.72 6.157-5.9 3.37-13.77 6.01-20.877 6.657-1.638.15-4.77.203-7.783.093-3.01-.107-6.11-.457-7.123-.812-.766-.266-1.76.158-2.097.5-.336.344-.42.56-.5.75-.155.38-.193.656-.25.97-.113.627-.194 1.353-.25 2.124-.07.993-.1 1.94-.093 2.75-1.2-.44-2.333-.89-3.31-1.405-8.02-4.21-17.74-8.177-21.19-15.94.04-.983.092-1.84.125-2.343.195-2.956.1-5.846.28-8.592.16-2.45-.033-5.36.375-6.625.867-2.697.985-5.29 1.157-7.876.18-2.75.65-5.28.842-8.22.01-.175.016-.385.03-.56.35.25.743.473 1.156.653 1.77.775 3.91.78 6.31 0 6.375-2.073 8.898-6.5 10-10.72 1.1-4.216 1.343-8.24 3.56-11.436 2.214-3.19 4.195-4.253 6.28-4.47.134-.013.276-.024.41-.03zm257.967.155c.09-.006.182 0 .28 0 1.304.005 3.46.56 5.69.75-3.304 4.475-6.89 9.515-10.5 14.03-4.068 5.087-8.233 9.38-11.408 10.97-.072.035-.15.052-.218.094-3.198 2.1-10.994 2.44-15.47 2.21.057-.91.102-1.806.157-2.72.014-.21.3-1.136.72-2.09.418-.957.92-1.986 1.25-3.03.71-2.248 1.4-4.277 2.56-6.285.215-.367.413-.755.626-1.125 1.28-2.21 3.34-4.15 5.34-6.5.46-.543 1.33-1.025 2.44-1.5 1.1-.47 2.4-.89 3.65-1.72 1.13-.743 4.136-1.634 5.875-1.873.48-.066.957-.12 1.437-.188 2.306-.318 4.89-.55 7.31-1 .08-.016.16-.026.25-.03zm14.687 2.5c1.52.33 2.93.572 4.18.97-.08-.026.8.49 1.56 1.092.765.605 1.558 1.264 2.313 1.78.93.64 2.633 2.503 3.655 3.658.686.776 1.153 2.212 2.375 3.594.304.34.85 1.93 1.407 3.25.397.93.687 1.73.906 2.53-.51-.16-1.055-.28-1.626-.32-3.62-.22-5.278-.77-6.624-1.845-1.344-1.07-2.56-2.973-4.53-5.968-1.02-1.55-1.694-4.54-2.876-7.25-.222-.51-.454-1.01-.75-1.5zm-5.6.812c.124-.014.24 0 .34 0 .43.005.68.133.938.313.41.29.895.97 1.344 2 .9 2.064 1.455 5.245 3.187 7.875 1.94 2.95 3.275 5.18 5.406 6.875 2.133 1.697 4.89 2.505 8.907 2.75.707.044.993.217 1.188.375.197.16.366.384.53.844.336.92.43 2.58.75 4.31.04.19.076.38.127.56-.174 2.85-.086 5.86-.25 8.56-.18 2.94-.05 5.562-.22 8.31-.157 2.584-.36 5.153.157 7.937.243 1.31-.32 4.175-.47 6.625-.167 2.746-.63 5.572-.81 8.53-.056.876-.236 2.747-.41 4.69-.22-.014-.376-.04-.717-.064-.264-.015-.482-.06-.78-.06-.298 0-.656.08-1.187.28-1.713.65-4.864.952-8.25 1-3.384.05-7.067-.125-10.22-.156-13.607-.134-30.132-2.476-42.404-2.78.08-1.32.17-2.623.25-3.94.14-2.29 0-4.558.124-6.563.13-2.09.247-4.188.375-6.28.135-2.224-.017-4.203.093-6 .105-1.71.207-3.444.312-5.157.134-2.185.273-4.343.406-6.53.113-1.82.203-3.645.314-5.47 4.674.274 12.58.487 17.75-2.78.005-.003.026-.028.03-.03.064-.04.127-.054.19-.095l-.033-.03c.393-.2.8-.414 1.19-.656.11.15.23.263.372.375.58.45 1.252.61 1.97.653.592.038 1.264-.075 1.81-.468.544-.393.832-.988.94-1.47.21-.96.01-1.678-.097-2.25-.04-.2-.137-.41-.25-.624 2.224-2.134 4.426-4.72 6.624-7.47 3.666-4.58 7.247-9.623 10.47-14zm257.22 1.75c-.3 0-.54.074-.75.125-.85.21-1.398.548-1.44.563-.334.134-.635.364-.844.656-.505.71-1.147 1.56-1.06 3.04.04.738.456 1.684 1.186 2.188.73.507 1.544.65 2.406.657.717.005 1.526-.18 2.156-.69.63-.506.937-1.26 1.032-1.842.19-1.167-.086-2.01-.25-2.687-.156-.638-.674-1.417-1.407-1.75-.367-.168-.728-.25-1.03-.25zm-132.378.03c-.3.006-.634.05-1 .22-.732.34-1.223 1.144-1.376 1.78-.16.68-.446 1.52-.25 2.69.1.584.432 1.308 1.063 1.81.632.508 1.41.698 2.125.69.86-.01 1.65-.18 2.372-.69.727-.507 1.18-1.417 1.22-2.155.076-1.472-.585-2.33-1.095-3.03-.21-.292-.48-.525-.814-.657-.04-.015-.62-.356-1.47-.563-.21-.05-.48-.096-.78-.094zm-271.75 3.158c-.127.015-.24.042-.344.062-.838.16-1.397.456-1.438.47-.334.11-.622.32-.844.593-.53.66-1.194 1.466-1.188 2.906.004.72.377 1.657 1.062 2.188.684.53 1.47.732 2.312.78.7.043 1.453-.098 2.093-.562.64-.462 1-1.154 1.127-1.72.248-1.127 0-1.984-.124-2.655-.118-.63-.584-1.416-1.282-1.78-.346-.182-.67-.264-.966-.282-.074-.004-.15 0-.22 0-.068.004-.123-.006-.187 0zm-99 11.906c-.2.01-.422.07-.657.16-.628.24-1.115.83-1.28 1.35-.18.553-.465 1.24-.377 2.22.044.49.26 1.134.75 1.593.49.46 1.156.648 1.75.687.715.05 1.366 0 2-.375.635-.374 1.046-1.14 1.125-1.75.16-1.215-.31-1.98-.69-2.594-.156-.253-.385-.433-.655-.56-.032-.016-.464-.337-1.154-.564-.17-.054-.376-.14-.626-.155-.063-.003-.12 0-.188 0zm247.812 4.79c-.2.006-.42.038-.657.125-.626.238-1.084.856-1.25 1.375-.173.553-.467 1.24-.374 2.22.046.49.29 1.135.78 1.592.495.458 1.125.62 1.72.657.716.044 1.367.003 2-.376.63-.38 1.08-1.14 1.156-1.75.153-1.217-.34-1.95-.72-2.565-.16-.256-.415-.467-.687-.594-.033-.015-.433-.34-1.124-.563-.174-.057-.406-.11-.658-.127-.064-.002-.12 0-.19 0zm-61.126 1.47c.11-.006.226-.004.344 0 .156.004.3.01.47.03 1.353.168 3.083 1.084 3.28 1.25.767.653.872 1.254.75 1.906-.117.62-.58 1.2-1.125 1.47-.227-.092-.487-.203-.75-.22-1.027-.083-1.954.615-2.156 1.625-.2 1.01.394 2.03 1.375 2.344 0 .004.025 0 .03 0 .094.068.04.07.22.156.42.21 1.025.3 1.5.25.47-.05.85-.19 1.28-.377 1.915-.816 3.225-2.546 3.592-4.5.172-.91.102-1.9-.188-2.844.9.13 1.814.212 2.75.22 1.045.003 2.11-.08 3.123-.348-.035.56-.09 1.13-.126 1.69-.755.502-1.36 1.125-1.78 1.78-.98 1.52-1.46 3.1-2.127 4.25-.986 1.704-1.948 2.495-3.25 2.907-1.305.413-3.176.395-5.845-.31-2.135-.566-3.37-1.806-3.97-3.564-.6-1.755-.47-4.09.75-6.56.3-.6.59-.835 1-1 .23-.09.52-.137.844-.156zm49.844 3.968c-.6.01-1.16.346-1.438.876-.456.835-.392 1.36-.406 2.03-.012.674.037 1.41.096 2.157.118 1.493.3 3.005.376 3.72.097.904.91 1.595 1.813 1.5.904-.096 1.565-.94 1.47-1.845-.087-.83-.267-2.252-.376-3.623-.056-.684-.105-1.36-.096-1.843.006-.24.04-.478.064-.594-.013.02-.034.013-.06.06.29-.51.3-1.117 0-1.625-.3-.505-.85-.82-1.44-.812zm271.72 1.907c-1.067 1.42-1.793 2.75-2.47 3.78-.787 1.196-1.438 2.005-2.688 2.72-3.085 1.77-4.052 2.567-7.47 3.313-2.965.646-10.05-.704-12.967-2.252-.22-.126-.446-.197-.687-.25.074-2.12.2-4.274.25-6.5 3.663 2.22 6.71 2.723 11.47 2.75 5.106.035 10.073-1.415 14.56-3.56zm-142.47.03c4.506 2.13 9.48 3.53 14.593 3.47 4.754-.055 7.822-.55 11.47-2.78.062 2.226.196 4.373.28 6.5-.236.043-.466.13-.688.25-2.91 1.56-9.97 2.944-12.94 2.31-3.42-.725-4.403-1.53-7.5-3.28-1.253-.71-1.957-1.53-2.75-2.72-.682-1.024-1.395-2.335-2.47-3.75zm-288.25 2.157c3.455 2.35 6.456 2.974 11.093 3.25 4.976.298 9.854-.8 14.343-2.656-1.11 1.33-1.845 2.565-2.56 3.53-.83 1.127-1.524 1.9-2.78 2.534-3.1 1.565-4.1 2.265-7.47 2.813-2.925.48-9.735-1.18-12.5-2.843-.21-.134-.45-.224-.686-.28.18-2.073.398-4.174.563-6.345zm-68.157 5.063c.17.126.29.205.47.342.453.347.936.698 1.373 1 .22.153.447.28.658.407.213.126.335.255.813.375.41.12.823.084 1.19-.063-.04.63-.08 1.25-.125 1.876-.52-.056-1.053.13-1.438.5-3.08 2.744-5.105 3.82-8.19 3.407-3.866-.515-4.795-1.64-8.31-4-.327-.218-.83-.78-1.346-1.5 1.42.226 2.616.136 3.315.312 1.565.395 3.017-.21 4-.907.52-.366.937-.794 1.312-1.187.213.35.32.567.654 1 .414.534 1.216.883 1.81.875.6-.004 1.01-.167 1.346-.342.668-.347 1.125-.774 1.595-1.22.33-.305.604-.59.875-.873zm209 1.592c-.53.038-1.026.32-1.31.813-.46.786-.19 1.793.592 2.25.34.2.78.49 1.25.844.156.496.54.91 1.06 1.06-.04.01.18.13.44.44.346.41.792 1.072 1.28 1.78.976 1.416 2.047 3.103 3.72 4.19 3.39 2.2 5.234 3.736 9.686 4.716 4.074.897 7.386-.157 10.72-2.22 1.36-.84 2.744-2.193 3.97-3.656 1.224-1.46 2.266-2.95 2.75-4.407.01-.024-.01-.037 0-.062.735-.453 1.57-.9 2.624-1.592.398-.26.527-.463.53-.47.52-.44.73-1.17.5-1.81-.222-.642-.816-1.075-1.5-1.095-.425-.01-.84.15-1.153.44-.118.107-.184.19-.218.22-1.59 1.04-2.937 1.584-4.5 2.968-.508.45-1.39 1.136-2.22 1.594-.728.404-1.35.484-1.5.5.08.046.103.087-.06.03 0 0 .04-.025.06-.03-.105-.053-.326-.142-.53-.28-.367-.242-.836-.583-1.28-.906-.45-.32-.906-.63-1.25-.874-.177-.12-.33-.22-.47-.312-.07-.043-.11-.096-.22-.154-.056-.03-.14-.045-.28-.095s-.28-.355-1.19.03c-.66.283-.755.466-1.093.72-.337.256-.712.52-1.06.75-.166.11-.24.147-.376.22-.254-.36-.46-.71-.873-1.158-.315-.34-.747-.77-1.5-.938-.755-.168-1.643.172-2.157.625-.42.37-.93.776-1.406 1-.477.223-.842.263-1.28.124-2.01-.634-3.778-.585-5.25-1.28-1.685-.798-3.668-2.674-5.56-3.783-.297-.17-.62-.21-.94-.19zm16 7.095c.24.33.49.704.97 1.25.376.424.94.67 1.404.716.47.05.87-.024 1.187-.125.64-.2 1.123-.5 1.593-.81.384-.252.703-.493 1-.72.26.19.5.34.813.564.46.33.944.683 1.374.97.43.286.605.495 1.313.717.62.195 1.203.204 1.75.124-.61.587-1.214 1.103-1.656 1.376-3.01 1.86-5.073 2.53-8.343 1.81-3.974-.876-5.093-1.99-8.62-4.28-.284-.185-.594-.46-.938-.845 1.18.243 2.21.333 2.938.562 1.358.43 2.65.144 3.627-.314.652-.303 1.16-.652 1.593-1zm182.124 1.123c-.308-.005-.583.026-.844.092-1.04.27-1.717 1.01-2.28 1.625-.75.823-1.347 1.737-1.813 2.53-.43.657-.478 1.483-.125 2.157.35.674 1.02 1.084 1.78 1.06.76-.02 1.48-.46 1.844-1.16.372-.63.884-1.34 1.28-1.78.22-.24.316-.293.282-.31 1.033-.09 1.86-.964 1.936-2.03.077-1.096-.654-2.032-1.72-2.156-.106-.01-.24-.03-.343-.03zm6.187 5.06c0 .002-.78.188-.78.188 0 .005-.24.14-.315.19-.287.2-.327.264-.375.314-.093.1-.1.124-.124.154l-.093.126c-.06.08-.136.166-.22.28-.162.24-.38.587-.623.94-.486.71-1.05 1.537-1.44 2.094-.46.625-.58 1.436-.28 2.126.3.692.97 1.145 1.72 1.187.75.04 1.456-.32 1.876-.97.4-.58.99-1.423 1.47-2.125.24-.35.474-.658.624-.874.027-.035.01-.063.034-.094.465-.49.695-1.186.595-1.844l-.594-1.123zm-223.374 8.44c-.037 1.82.03 3.553-.064 5.063-.124 1.998-.224 4.006-.346 6-.133 2.182.02 4.135-.094 6-.114 1.903-.226 3.818-.342 5.72l-.06 1c-.083-.106-.165-.206-.25-.313-3.315-4.122-8.537-7.9-10.594-10.72-1.426-1.952-1.578-3.068-1.375-3.842.204-.77.99-1.65 2.5-2.685 2.52-1.72 6.665-3.51 10.625-6.22zm-250.37 4.907c5.24 5.51 12.92 8.626 18.75 11.687 4.015 2.11 8.792 3.29 11.532 5.03 0 .07-.007.123 0 .18-2.266-.57-4.61-.462-6.91-.372-2.75.11-5.422.207-7.467-.313-1.12-.284-2.01-.358-2.598-.408-.05-.396-.11-.867-.19-1.813-.063-.774-.625-1.576-1.155-1.906-.53-.33-.99-.383-1.405-.44-.828-.107-1.586-.07-2.345 0-.76.073-1.49.177-2.03.22-.143.013-.21.028-.312.03-.13-.154-.375-.433-.624-.873-.423-.746-.88-1.785-1.343-2.875-.927-2.18-1.716-4.424-2.563-5.875-.466-.8-.93-1.564-1.343-2.28zm606.625.78c.1.002.183.01.28 0v1.314c-.017 2.157-.22 4.01-.28 6.343-15.22 2.532-30.34 2.04-46 1.25-8.92-.713-18.76-.79-27.348-.407.016-2.21.018-4.41.03-6.62.003-.2.003-.392 0-.592 20.59-.612 28.758 2.95 57.814.594 1.72-.08 3.415-.134 5.093-.124 4.233.027 7.082-1.77 10.406-1.75zm-237.19.282c.1.01.21.033.31.03 3.325-.04 6.175 1.737 10.407 1.687 1.677-.02 3.376.02 5.095.09-.04.26-.083.834.125 1.625.537 2.035 1.608 5.893 2.78 9.155.59 1.634 1.167 3.104 1.847 4.25.34.576.627 1.094 1.344 1.595.36.25.905.52 1.595.5.693-.018 1.375-.395 1.75-.78 1.01-1.034 3.955-4.45 6.845-7.595 1.27-1.38 2.49-2.662 3.435-3.592.17.72.505 1.405.968 1.875.82.834 1.787 1.37 2.844 1.69-.81.584-1.205 1.317-1.563 2.186-.378.914-.674 2.004-.938 3.402-.97 5.17-.855 8.403.155 12.25.41 1.56.65 3.447 1.47 5.094.207.412.49.84.94 1.25.45.413 1.18.8 1.97.78 1.577-.035 2.398-.995 3.156-2.03.355-.485.692-1.095 1.218-2 .53-.905 1.15-2.013 1.75-3.126.604-1.11 1.168-2.204 1.595-3.122.213-.456.422-.854.56-1.25.07-.195.107-.4.157-.655s.262-.545-.094-1.406c-.296-.717-1.58-3.996-2.75-6.97-.585-1.487-1.157-2.925-1.625-4-.056-.13-.1-.224-.156-.345.31-.173.59-.393.78-.624.443-.535.61-1.053.72-1.5.214-.89.203-1.65.22-2.343.005-.326.014-.398.03-.628.384.292.85.43 1.343.406.18.112.285.172.592.405.992.756 2.448 2.016 3.906 3.376 1.458 1.36 2.95 2.834 4.157 4.064 1.207 1.23 2.2 2.343 2.344 2.53.285.37.71.783 1.437.968.73.188 1.577-.036 2.03-.342.917-.61 1.1-1.215 1.38-1.842.56-1.253.953-2.81 1.312-4.53.36-1.723.636-3.576.844-5.158.206-1.58.354-2.796.342-3.688-.007-.455.005-.89 0-1.344 2.76-.008 5.152.136 7 .564 0 .2-.004.394 0 .592l.092 8c.033 2.72-.696 5.585-.656 9 .014 1.103-.17 6.943-.375 12.5-.126 3.41-.27 6.557-.346 8.875-2.74-.044-6.294-.158-9.06-.127-1.463.018-2.91.113-4.345.22-.19-.012-.38-.006-.564.03-4.605.37-9.035.964-13.127.5-5.848-.66-11.295.582-15.97-.53-5.61-1.333-12.297.07-17 .124-3.28.04-6.224.34-9.25.376-.125.003-.25 0-.375 0-.05-.795-.11-1.706-.186-2.875-.17-2.595-.4-5.91-.625-9.22-.223-3.31-.455-6.61-.624-9.19-.17-2.57-.28-4.66-.28-4.75-.03-2.38-.546-4.284-.565-5.902-.03-2.77-.315-4.77-.343-7.19-.004-.44-.026-.9-.03-1.345zm62.47.47c0 .43-.008.85 0 1.28 0 .29-.088 1.607-.28 3.093-.2 1.49-.48 3.26-.817 4.845-.19.906-.39 1.4-.594 2.094-.337-.35-.49-.514-.907-.94-1.25-1.273-2.77-2.774-4.28-4.186-1.51-1.41-2.97-2.73-4.188-3.657-.61-.46-1.12-.83-1.75-1.12-.185-.085-.385-.187-.657-.25 2.276-.233 4.555-.442 6.81-.656 2.278-.214 4.53-.387 6.657-.5zm-300.41.686c1.487.023 3.108.133 4.813.28-.577 1.04-1.584 2.427-2.907 3.657-1.95 1.816-4.466 3.38-6.846 3.907-.04.01-.168.034-.28.032.136-2.32.3-4.648.436-6.97.013-.194-.01-.398 0-.594.974-.176 2.094-.25 3.344-.28.464-.012.944-.04 1.44-.032zm-71.25.093c-.494 1.488-.854 3.03-1.374 4.35-.416 1.056-.887 1.92-1.345 2.375-.456.456-.765.613-1.5.563-5.735-.38-9.17-.2-13.72-2.47 6.045-.55 12.395-2.312 17.94-4.812zm356.595.568c-.14.067-.3.115-.438.22-.04.03-.057.09-.095.125-.093-.065-.18-.137-.283-.19-.063-.03-.158-.05-.25-.06.353-.035.707-.06 1.062-.095zm-276.25.095c1.155.143 2.316.268 3.5.437 6.9.986 14.18 2.304 20.093 2.656 6.694.4 13.184 0 19.375.064-.097 2.05.513 3.952 1.5 5.5 1.28 2.014 3.13 3.53 4.968 4.72 2.96 1.91 5.84 2.965 6.906 3.31-.06.597-.2 2.04-.438 4.095-.285 2.505-.658 5.72-1.03 8.937-.375 3.216-.776 6.442-1.064 8.97-.13 1.132-.228 2.01-.313 2.78-.12-.008-.25.006-.373 0-2.95-.177-5.802-.59-9-.78-4.585-.277-11.027-1.978-16.563-.94-4.61.864-9.86-.59-15.594-.22-5.417.35-11.357-1.19-17.562-1.563-2.7-.16-6.17-.252-8.844-.343.036-2.265.086-5.333.125-8.658.062-5.43.123-11.113.19-12.188.12-2.016-.045-3.87-.16-5.596.32-.01.715-.033 1.122-.124 3.37-.75 6.39-2.676 8.75-4.875 2.106-1.96 3.71-4.025 4.405-6.186zm248.843.125c4.57.277 9.27.626 14.094.625-.328.266-.657.58-1.03.935-1.118 1.07-2.56 2.557-4.033 4.157-2.328 2.534-4.113 4.544-5.344 5.907-.34-.72-.677-1.4-1.062-2.47-1.076-2.99-2.133-6.736-2.656-8.72.014 0 .034-.22.03-.44zm-191.75 2c.2 0 .392-.012.594 0 .103.007.215.036.312.03-.025.433-.068.85-.094 1.28-.14 2.36-.496 4.3-.657 7-.04.655-.196 1.4-.343 2.158-1.318-.49-3.384-1.396-5.28-2.624-1.533-.99-2.904-2.187-3.72-3.47-.648-1.015-1.01-2.016-.906-3.22.155.01.32.025.47.034 3.87.232 6.628-1.17 9.626-1.188zm-199.218.125c.477 1.095 1.174 2.82 1.875 4.466.49 1.153 1.006 2.3 1.565 3.283.557.982.998 1.86 2.218 2.5.64.334.99.3 1.346.31.355.013.687-.002 1.03-.03.69-.056 1.433-.19 2.095-.25.373-.035.537.004.815 0 .045.505.078 1.093.156 1.5.07.36.18.738.408 1.155.225.42.65.864 1.092 1.095.885.462 1.39.363 1.907.404.514.044 1.12.09 2 .314 2.88.73 5.823.545 8.53.437 2.705-.105 5.12-.115 6.69.5.05.022.1.05.153.064.01 1.82.006 3.523 0 3.813-.02 2.304-.54 10.194-1.09 17.97-.52 7.366-1.04 14.445-1.25 17.5-2.466.025-4.83.164-6.842.03-4.94-.326-9.9-.64-14.843-.97-2.85-.186-5.68-.37-8.53-.56-1.33-.09-2.356-.17-3.19-.44-.192-.062-.39-.117-.593-.124h-.03c.098-.916.22-2.034.376-3.47.34-3.19.798-7.444 1.25-11.687.454-4.24.88-8.462 1.22-11.656.17-1.596.337-2.933.437-3.875.05-.47.1-.838.126-1.097.013-.126-.008-.24 0-.31v-.03c0-.003.02-.01.03-.156.13-1.97-.07-3.337.03-4.875.65-6.63.543-10.52 1.03-15.81zM453 288.7c.2.03.466.09.75.158.284.066.6.132.906.217.11.03.175.063.28.094-.006.294-.053.664-.06.94-.006.326-.04.457-.06.717-1.58-.16-2.78-.603-3.063-.78.113-.213.506-.7 1.25-1.343zm-382.44 1.03c1.3.235 2.76.385 4.313.47.13.067.29.12.437.157 1.35.394 5.45 1.894 6.81 2.655 5.854 3.27 10.43 3.045 16.345 3.436 1.775.12 3.397-.616 4.47-1.686.603-.604 1.05-1.286 1.435-2-.11 1.64-.202 3.3-.31 4.936-.12 1.808-.225 3.603-.345 5.408-.105 1.616-.234 3.228-.342 4.843-.073 1.11-.51 10.892-.937 20.53-.21 4.82-.44 9.54-.56 12.967-.06 1.714-.078 3.068-.093 4-.003.175 0 .297 0 .438-.017-.01-.055-.06-.063-.062-.11-.018-.157-.027-.187-.03-.06-.006-.076 0-.093 0-.035-.002-.046 0-.063 0h-.406c-.244 0-.577.002-1 0-.844-.003-2.004-.023-3.22-.032-2.427-.014-5.18-.03-6.124-.092-4.305-.284-8.476-.6-12.378-1.656-1.206-.324-2.456-.515-3.688-.625.21-3.06.73-10.074 1.25-17.375.55-7.786 1.07-15.4 1.092-18.156.003-.4.016-2.686 0-4.91-.008-1.11-.035-2.21-.063-3.06-.016-.425-.01-.76-.03-1.064-.014-.15-.038-.3-.066-.466-.017-.084-.02-.156-.066-.314-.045-.157.095-.41-.717-1.03-1.644-1.258-3.573-2.145-5.533-2.908.01-.15.015-.29 0-.44-.024-.31-.004-2.077.096-3.467.013-.187.015-.293.03-.47zm226.094 1.69c11.815.296 28.47 2.646 42.53 2.782 3.04.03 6.756.207 10.312.156 3.437-.05 6.704-.254 9.343-1.19.04.006.343-.044.593-.03.195.012.375.046.593.062-.05.64-.1 1.275-.124 1.688-.006.05 0 .106 0 .156.11 8.146-.78 12.11-1.033 20.563-.093 1.535-.47 2.81-.593 4.78-.014.245-.003.254 0 .25 0 .046-.002.12 0 .186.007.14.02.313.03.56.026.498.087 1.207.127 2.03.08 1.658.173 3.847.28 6.03.11 2.19.233 4.38.315 6.036l.03.592c-.174-.044-.35-.11-.53-.158-1.283-.32-2.44-.732-3.69-.81-2.85-.173-5.71-.356-8.56-.53-4.944-.3-9.87-.57-14.813-.875-3.025-.186-6.723-1.12-10.53-1.28-1.27-.054-2.574-.02-3.844.154-4 .55-8.164.296-12.47.033-1.114-.07-4.68-.267-7.967-.47-1.31-.08-2.45-.155-3.5-.22.006-.045.024-.077.03-.125.28-1.97.646-4.723 1-7.595.355-2.866.7-5.86.97-8.216.27-2.356.46-3.92.5-4.595.1-1.617.18-3.23.28-4.845.11-1.806.234-3.6.344-5.407.118-1.9.23-3.816.345-5.72.087-1.433.04-2.76.03-4zm352.28 4.25c-.1.8-.18 1.636-.188 2.564 0 .074-.1 1.736-.22 3.78-14.84 2.49-29.62 1.98-44.906 1.186-8.805-.722-18.5-.763-26.967-.375v-.153c.015-2.293-.313-4.328-.53-6.25 8.435-.373 18.2-.32 26.91.376.015.006.043-.003.06 0 15.357.777 30.47 1.3 45.845-1.124zm-340.22 2.126c-.896-.01-1.7.58-1.97 1.44-.264.86.07 1.78.815 2.28.11.077.2.158.374.596.176.44.362 1.14.812 2 .45.86 1.24 1.85 2.405 2.5 1.165.65 2.626 1.006 4.53 1.123 2.325.142 4.27-.968 5.31-2.283 1.046-1.313 1.5-2.663 2-3.53.4-.63.458-1.443.095-2.095-.364-.65-1.07-1.04-1.814-1.03-.743.01-1.433.404-1.78 1.063-.737 1.273-1.2 2.45-1.687 3.06-.49.614-.67.824-1.876.75-1.503-.09-2.36-.37-2.812-.625-.45-.25-.59-.446-.78-.81-.19-.365-.36-.916-.656-1.658-.298-.74-.808-1.747-1.815-2.438-.336-.235-.746-.34-1.156-.345zm-160.56.066c-.038.043-.074.055-.094.06.005-.006-.006-.02 0-.03.026-.014.084-.025.093-.03zm305.344 1.4c.664 1.317 1.35 3.315 1.907 5.31-.51-.67-1.03-1.383-1.25-1.81-.31-.6-.37-.88-.94-1.47-.046-.05-.12-.09-.186-.154.01-.053.023-.1.033-.156.15-.806.284-1.22.436-1.72zm-120.375.31c-.262.005-.52.05-.78.16-1.034.44-1.5 1.655-1.062 2.687.394.924.688 2.32 1.564 3.75.876 1.435 2.676 2.766 5 2.907 1.904.118 3.39-.06 4.625-.562 1.237-.5 2.137-1.355 2.69-2.155.55-.8.835-1.524 1.062-1.94.228-.41.29-.47.406-.53.823-.404 1.27-1.286 1.093-2.188-.175-.9-.93-1.594-1.843-1.658-.388-.03-.78.067-1.125.25-1.083.564-1.71 1.49-2.094 2.19-.383.7-.61 1.224-.843 1.56-.235.34-.396.526-.877.72-.48.196-1.34.374-2.843.28-1.206-.073-1.34-.33-1.75-1-.41-.666-.767-1.86-1.345-3.22-.33-.773-1.083-1.25-1.876-1.25zm209.095 3.25c-.556.05-1.09.29-1.47.72-.042.03-.06.03-.124.065-.32.173-.837.44-1.406.685-1.136.496-2.56 1.03-2.906 1.123-.757.176-1.368.74-1.596 1.47-.227.73-.04 1.51.5 2.03.54.524 1.354.705 2.094.47.95-.26 2.222-.784 3.5-1.344.64-.28 1.24-.57 1.75-.847.254-.137.49-.25.75-.437.13-.093.252-.21.435-.406.184-.195.523-.453.624-1.283.154-1.08-.573-2.07-1.656-2.25-.09-.015-.16.002-.25 0-.08 0-.17-.008-.25 0zm-454.93 1.09c-1.068-.018-1.948.81-1.968 1.876-.02 1.07.837 1.98 1.906 2 2.048.136 4.556.295 6.563.438 1.01.072 1.9.15 2.54.187.32.02.574.03.78.04.102.003.164.003.28 0 .06 0 .127.02.28 0 .077-.01.15-.03.406-.126.13-.046.306-.093.594-.343.144-.124.467-.593.467-.594l.22-1.03c-.036-.547-.32-1.067-.75-1.407-.43-.34-.99-.468-1.532-.376-.14-.004-.29-.015-.53-.03-.606-.035-1.47-.085-2.47-.156-1.996-.14-4.52-.33-6.594-.47-.06-.003-.122.004-.185 0zm-77.093.72c.015-.01.044.015.032.03l-.07.064c.025-.057.015-.084.03-.094zm541.375.406c-.19.016-.354.066-.47.094-.304.076-.456.12-.593.187-.28.14-.44.274-.63.406-.37.265-.73.582-1.128.906-.795.65-1.735 1.4-2.033 1.594-.676.395-1.075 1.115-1.06 1.875.013.76.435 1.43 1.125 1.75.69.32 1.52.24 2.156-.22.83-.54 1.654-1.26 2.408-1.88.343-.28.645-.51.843-.657.804-.24 1.404-.94 1.53-1.75.13-.81-.236-1.585-.934-2-.284-.175-.543-.275-.78-.314-.08-.01-.148.003-.22 0-.07 0-.153-.005-.218 0zm96.72 1.125c-.12 1.91-.214 3.74-.345 5.85-14.616 2.448-29.19 1.98-44.25 1.19-8.71-.724-18.275-.794-26.656-.407-.08-2.097-.18-4.216-.25-5.906 8.32-.384 17.99-.3 26.6.407.02.005.04-.004.063 0 15.026.78 29.796 1.28 44.844-1.125zM67.98 308.13c-.686.116-1.224.64-1.41.938-.21.34-.245.5-.28.657-.14.627-.073.902-.062 1.28.02.762.068 1.728.06 1.845-.07 1.065.748 1.99 1.814 2.06 1.066.074 1.96-.745 2.03-1.81.048-.716-.004-1.37-.03-1.94.338-.604.325-1.34-.032-1.936-.075-.13-.142-.293-.343-.5-.203-.207-.616-.583-1.44-.594-.102 0-.214-.015-.31 0zm387.56 2.53c.076.053.14.143.22.19l-.158.28c-.024-.142-.034-.32-.062-.47zm192.156 5.533c-.108 1.782-.256 3.73-.344 5.188-.07 1.17-.11 2.08-.156 2.88h-.375c-3.02-.02-6-.29-9.28-.31-4.7-.03-11.36-1.425-16.97-.062-4.67 1.137-10.15-.065-16 .626-4.09.486-8.51-.063-13.12-.406-.17-.034-.322-.04-.5-.033-1.44-.1-2.9-.177-4.372-.187-2.77-.018-6.32.1-9.062.156-.07-1.876-.2-4.528-.312-7.188 8.226-.38 17.756-.3 26.25.407h.063c14.793.777 29.37 1.297 44.186-1.063zM68.04 321.036c-.823-.01-1.538.6-1.75.938-.21.34-.245.53-.28.687-.14.63-.073.88-.063 1.25.02.77.07 1.76.063 1.88-.05.697.267 1.338.844 1.72.576.39 1.347.438 1.968.128.62-.307 1.022-.93 1.063-1.624.047-.714-.036-1.37-.063-1.94.344-.605.33-1.336-.03-1.935-.077-.13-.143-.293-.345-.5-.2-.206-.583-.583-1.406-.594" fill="#fff"/></g></svg>