<svg viewBox="0 0 691 394" xmlns="http://www.w3.org/2000/svg"><g fill-rule="evenodd"><path d="M488.537 104.76c-4.85 8.875-5.014 21.434-6.008 32.684-.65 8.646.1 19.412 5.3 24.31 23.13 12.553 50.72 10.795 74.38 2.82 6.24-2.317 12.31-8.018 14.96-17.86 4.71-16.345 2.08-39.11-7.75-49.612-22.46-20.242-61.27-21.682-80.9 7.66" fill="#00aaef"/><path d="M352.233 170.306c-32.27 1.034-69.414-.516-97.862-.446-14.34-1.924-37.57.005-42.38-4.465-16.43-13.18-11.06-32.806-8.52-47.746-2.04-4.17 7.6-12.31 20.66-13.68 33.64-5.68 71.37-3.81 105.87-2.51 30.89 1.14 42.48-1.45 65.83 4.86 33.35 8.71 23.97 43.37 10.01 54.7-6.04 4.39-19.47 8.55-35.19 8.53-6.13.26-12.27.52-18.4.74" fill="#6adf5f"/><path d="M370.572.005c-9.846.27-19.69.604-29.53.97-5.89.426-11.6 3.61-15 8.842-4.755 7.194-6.06 16.174-6.5 24.782-.333 8.24.226 16.55 1.405 24.68 1.266 5.59 4.317 10.66 8.22 14.59 3.99 3.77 9.53 4 14.56 4.59 8.214 1.35 16.57 1.49 24.876 1.43.748.52.417 1.87.75 2.72.302 1.97.677 3.94 1.156 5.87-9.58.38-19.16.9-28.75.56-16.07-.43-32.18-.91-48.22.34-29.52 1.15-59.54-3.902-88.66 2.5-.04.928-.1 1.86-.22 2.78-.02.14-.05.27-.07.41 30.32-7.01 62.99-.723 94.78-2.94 22.58-1.57 44.33 1.11 66.97-.47 1.56-.104 3.26-.184 5-.215.58 1.78 1.29 3.502 2.19 5.156 2.81 6 6.14 11.817 10.47 16.72 1.47 1.94 2.47 4.4 4.53 5.718 1.36.905 3.33-.207 3.25-1.97-.22-2.7-1.95-4.94-3.1-7.28-1.29-2.3-2.83-4.438-3.57-7.03-1.33-3.598-2.52-7.308-3.35-11.098 5.14.25 10.24.666 14.436 1.22 6.61.87 13.937 1.85 20.72 3.53 6.555 1.63 10.02 4.862 12.156 9.03 2.14 4.17 2.83 9.34 3.44 14.53 1.32 11.224 4.23 21.27-4.47 29.814-4.633 4.55-13.605 6.9-23.188 7.813-9.586.915-19.71.45-26.63-.19-13.61-1.253-27.252.65-40.44-.22-7.38-.48-15.45-.63-22.75-.123-7.56.53-16.352.95-23.56 0-4.81-.63-10.573.577-14.283 2.784-.3.18-.503.468-.562.78-.13.72-.42 2.5-.218 4.25.83 7.06 3.175 14.557 6.626 21.13 2.54 4.832 6.19 9.195 9.22 12.97.455.57.735 1.02 1.155 1.56-5.96-5.863-13.174-13.014-15.654-15.78-4.66-5.2-6.783-11.445-9.373-17.438-.95-2.204-1.786-6.153-2.09-8.75-.04-.317-.245-.62-.53-.813-.29-.196-.645-.27-1-.22-13.365 1.92-27.676.38-41.565 1h-.03c-10.434.902-21.872-.91-31.03-6.28-4.38-3.55-6.476-6.027-7.47-8.878-.996-2.864-.893-6.313-.56-11.653v-.03c.034-6.25-.01-11.984.626-16.97-1.223.3-2.41.5-3.533.63-.8 7-.18 14.23-.72 21.22-.42 5.412 1.47 10.97 5.69 14.682 5.15 5.547 12.887 7.893 20.19 9.5 9.67 2.086 19.563.28 29.343.72 9.176.114 18.404.414 27.53-.66.986 6.755 4.19 12.97 7.16 19.09 4.39 7.99 11.916 13.71 18.126 20.346 3.3 3.084 6.293 6.59 9.81 9.41 2.02.87 3.753-1.575 2.655-3.28-2.46-6.42-8.13-11.06-11.813-16.78-5.38-7.795-8.56-16.89-9.407-26.157-.384-2.2 2.54-2.2 4.096-2.81 5.84-1.56 11.82.45 17.78.06 10.986-.12 21.946-1.465 32.94-.626 15.85 1.315 31.766-1.18 47.59.716 13.4.69 27.387.864 40.094-3.81 8.99-3.16 15.23-11.91 15.19-21.067.04-7.6-1.5-15.046-2.44-22.56-1.025-7.25-4.68-14.765-11.934-18-7.255-3.15-15.394-3.82-23.19-5.065-6.2-.89-12.45-1.443-18.714-1.715-.46-2.9-.65-5.855-.5-8.814 3.41-3.15 8.22-3.73 12.597-3.62 7.39.28 14.896 1.59 22.22-.06 6.046-1.19 12.306-4.41 15.22-10.5 2.5-5.18 4.022-11.11 3.34-16.94.335-11.02-.21-22.36-4.096-32.69-2.436-6.37-6.928-12.33-13.346-14.22-3.54-.96-7.266-.91-10.91-1.31-7.34-.67-14.71 0-22.08-.27-4.35-.07-8.71-.19-13.06-.16zM181.228 115.38c.125-1.083.266-2.18.47-3.25-.956.107-1.915.17-2.876.094-1.806-2.347-4.83-2.666-7.563-2.594-8.78 1.53-17.52 3.31-26.35 4.594-14.29 1.908-28.48-7.038-35.13-19.407-4.62-8.14-4.5-19.086 1.78-26.343 6.83-8.14 17.31-12.362 27.53-14.22 16.54-2.773 34.87.262 48.31 10.563 7.07 5.625 13.42 13.524 13.93 22.907.19 1.597.21 3.224.09 4.874.684-.146 1.38-.266 2.06-.374.457-.106.918-.212 1.374-.313.18-4.36-.53-8.67-1.716-12.43-.007-.01.004-.02 0-.03-.037-.1-.05-.18-.096-.28-6.787-15.07-21.56-24.3-38.064-27.59l-.78-.15c-.272-.05-.545-.11-.81-.15-6.43-1.122-13.116-1.36-19.72-.72-.99.1-1.983.21-2.97.35-2.953.406-5.874 1.01-8.75 1.78-.02.01-.07-.007-.09 0-.04.01 0 .02-.03.03-13.36 4.13-21.72 10.596-25.78 18.093-4.06 7.497-3.68 15.72-.57 23 6.226 14.54 23.12 26.196 40.19 23.47 15.207-2.43 21.055-3.67 23.688-4.22 2.666-.554 1.158-.396 4.22-.156.635.05.965.127 1.06.156.1.03.03 0 .16.09.046.04.814.84 2.093 1.78.52.385 1.12.605 1.78.63h.314v-.03c.7.004 1.46-.04 2.22-.13zm20.22-22.78c-7.236 1.56-14.34 5.38-17.44 12.092-1.11 2.422-1.83 4.904-2.31 7.438 1.21-.134 2.405-.374 3.593-.72.29-1.345.67-2.614 1.13-3.81 2.15-5.63 6.14-9.6 14.6-11.69.23-1.086.36-2.205.44-3.31zm-.44 3.31c-1.116 5.464-4.084 10.496-9.25 13-2.06.93-4.24 1.856-6.468 2.5-.227 1.062-.384 2.2-.53 3.345 1.03-.25 2.057-.56 3.124-.906 3.314-1.08 6.668-2.54 9.125-4.6 4.57-3.84 6.83-8.99 7.59-14.16l-.66.15c-.03.01-.04.02-.07.03-1.02.18-1.97.4-2.88.62zM372.104 3.88c8.418.072 16.834.37 25.25.094 5.772.033 11.553.55 17.28 1.218 5.003.875 8.823 5.108 10.94 9.813 3.94 8.584 4.81 18.365 4.968 27.812.072 2.803-.22 5.594.032 8.375-.22 4.75-1.55 9.434-3.625 13.625-3.07 4.898-8.69 7.023-13.94 7.782-7.41 1.24-14.83-.62-22.25-.38-4.51.22-9.24 1.48-12.63 4.81-1.64 1.99-1.06 4.85-1.1 7.28.29 5.46 1.61 10.76 3.31 15.9-.87.96-1.11-.85-1.57-1.41-2.01-3.92-4.15-7.85-5-12.28-.67-3.56-1.36-7.17-1.38-10.82.51-1.54-1.12-3.21-2.53-2.44-.973.4-1.057 1.61-1.157 2.53-1.01.466-2.39.115-3.53.22-7.556-.105-15.135-.327-22.594-1.626-4.054-.59-8.816-.8-11.813-4.25-2.844-3.454-5.165-7.54-6.31-12-1.32-9.775-1.905-19.78-.78-29.623.882-6.91 2.705-14.235 7.592-19.187C334.7 5.8 339.6 4.54 344.25 4.71c9.272-.27 18.564-.71 27.84-.845zm164.28 56.125c-2.132.005-4.26.126-6.342.343-8.486.81-17.354 2.547-24.5 7.407-7.974 4.875-9.662 16.364-4.406 23.78 6.608 8.457 18.46 10.075 28.532 9.657 4.188.217 8.29-1.91 12.406-1.25 1.65 1.412 1.64 3.59 1.437 5.75-.6-.017-1.21-.036-1.84-.03h-.09c-5.57-.19-11.12-.375-16.69-.564-6.4-.216-18.15.298-24.15.094-5.81-.196-10.78.108-17.87.782h-.03c-.03.003-.06.03-.09.03-7.55.337-13.32 2.123-16.87 6.876-3.554 4.755-4.686 11.837-4.5 22.25-.965 5.414 1.216 12.12 3.5 16 .02.036.04.06.063.094 2.825 4.26 7.367 6.513 12 7.656 4.63 1.145 9.456 1.21 13.34.937 3.27-.256 6.94.148 10.81-.594 3.468-.522 6.638-.472 9.28 1.22.407.317.73.568.75.593 0 .015-.03-.006-.03.063v.06c.235 7.47-2.61 15.22-5.75 22.28-.192.29-2.05 3.01-3.53 5.53-.77 1.31-1.43 2.46-1.78 3.62-.09.29-.155.58-.16 1.03 0 .45.104 1.31.876 1.9.77.59 1.64.49 2.09.37.45-.12.75-.31 1.06-.5.13-.08.236-.15.343-.25 2.022-1.96 3.01-4.08 4.374-5.41l.064-.06c4.544-4.8 7.77-10.64 10.655-16.22l.03-.03c1.07-2.12 2-5.21 2.47-7.568.26-1.326.66-2.91.93-4.53 5.86.125 16.897-.21 22.22-1.095 4.86-.807 11.12-.33 15.815-4.874 3.3-3.19 6.996-8.78 7.72-13.844 1.524-9.61 1.086-18.49-3.065-25.22-3.5-5.68-9.68-9.45-18.626-10.408.07-.925.154-1.825.374-2.685 6.83-3.013 14.6-6.1 18.75-12.84 4.61-6.915 1.7-16.236-4.153-21.44-6.75-6.712-16.164-8.952-25.41-8.932zm-.53 3.406c.78-.01 1.568 0 2.344 0 5.18.07 10.295.84 14.875 3.47 6.625 3.52 13.672 10.56 11.5 18.72-2.723 7.68-10.884 11.58-18.094 14-1.52-1.68-3.44-3.55-6-3.19-10.03 1.93-20.91 2.73-30.38-1.75-7.58-2.92-11.38-13.06-6.88-19.96 5.86-7.9 16.5-9.74 25.68-10.87 2.28-.17 4.6-.35 6.93-.4zM381.79 85.82c.003.012.077.085.22.157-.15-.117-.22-.168-.22-.157zM75.323 100.974c-1.234-.008-2.467.003-3.687.03-12.793.18-26.582 3.543-34.906 14.063-5.955 6.707-8.048 17.668-1.876 24.907 5.63 7.106 14.894 9.586 23.062 12.093 1.835 4.738.818 11.115 5.03 14.97.624 2.256 4.357 2.57 4.314-.157-1.203-2.835-4.415-4.8-4.03-8.375-.196-3.43-2.625-7.934.06-10.844 4.59-1.3 9.55.53 14.282-.28 11.51-.88 24.786-4.33 31.156-14.84 4.975-9.14 1.51-21.94-8.22-26.4-7.68-3.99-16.55-5.09-25.186-5.15zm-1.906 3.812c10.59.05 22.923.708 30.656 8.906 6.056 7.243 3.1 19.282-5.125 23.625-10.163 6.36-22.648 6.925-34.312 6.094-2.964-.06-4.847 2.33-6.344 4.44-8.524-1.77-18.367-5.11-22.5-13.47-3.57-8.98 3.505-17.95 10.564-22.84 7.763-5.78 17.75-6.35 27.062-6.75zm445.906 4.375c2.045-.01 3.907-.01 5.406.04 5.6.19 11.21.41 16.81.6.03.01.06 0 .09 0 .58 0 1.13-.01 1.69 0 .04.35.06.71.03 1.03-.03.33-.1.63-.19.94-.09.31-.21.61-.35.91-.28.63-.62 1.24-.97 1.85-.13.22-.28.43-.41.66-.02.03-.02.066-.03.094-.32.57-.61 1.165-.79 1.78.03.3.106.545.22.75.053.1.113.17.185.25.15.17.302.29.5.374.094.04.21.075.31.095.103.02.206.03.313.03.426.01.862-.12 1.25-.376.1-.064.19-.133.28-.22.087-.074.176-.16.25-.25.154-.185.264-.38.344-.623.045-.115.08-.216.097-.343.204-.233.4-.47.564-.72 0-.01-.01-.02 0-.03.09-.14.16-.292.25-.44.062-.112.152-.222.22-.34.12-.244.24-.497.34-.75l.03-.063c.1-.24.174-.494.25-.75l.03-.09c.02-.06.015-.124.03-.19.06-.216.112-.436.16-.66.05-.26.113-.513.152-.78.005-.03-.004-.062 0-.093.078-.54.15-1.1.187-1.655.002-.05 0-.1 0-.153 7.83.83 12.543 3.935 15.342 8.47 3.35 5.43 3.97 13.36 2.53 22.44v.06c-.47 3.28-3.99 8.972-6.53 11.434-3.21 3.11-8.12 2.9-13.63 3.816-4.48.745-15.73 1.1-21.31 1-.014-.25.005-.506-.03-.75-.155-1.125-1.186-1.91-2.31-1.75-1.125.156-1.907 1.19-1.75 2.31.192 1.363-.56 5.217-1.125 8.03-.39 1.95-1.397 5.1-2.124 6.53-1.266 2.44-2.58 4.854-4 7.188 2.094-5.583 3.72-11.57 3.53-17.75 0-1.006-.42-2.003-.97-2.654-.55-.65-1.04-.94-1.44-1.25-.05-.04-.103-.09-.156-.126-3.91-2.522-8.385-2.39-12.25-1.81-.03 0-.063-.004-.093 0-3.08.59-6.57.23-10.35.53-3.59.25-8.02.18-12.03-.81-3.99-.99-7.45-2.81-9.53-5.91-1.72-2.942-3.65-9.96-2.97-13.372.026-.147.034-.285.03-.437-.196-10.15 1.1-16.34 3.72-19.845 2.616-3.5 6.76-4.95 13.84-5.25.04 0 .09-.023.125-.03 7.1-.674 11.82-.94 17.44-.75 4.81.166 12.62-.1 18.75-.154zm-359.406 8.63c-.29-.01-.588.04-.875.1-.234.05-.397.08-.468.1-4.76 1.15-7.563 5.02-6.938 8.78.594 3.57 3.923 6.49 8.5 7.1-.17.03-.39.09-.468.1-.224.01-.405.048-.625.097-.014.006-.016 0-.03 0-.177.047-.366.09-.532.158-2 .82-3.66 1.947-4.62 3.565-1.05 1.774-.89 3.87.28 5.47 2.06 2.813 6.03 3.695 10.32 3.34 1.83-.15 3.55-.717 4.78-1.937 1.27-1.25 1.65-2.83 1.54-4.22-.22-2.587-1.91-4.83-4.25-6.095-.38-.205-.74-.35-1.12-.47 1.72-.236 3.39-.747 4.88-1.687 1.43-.9 2.66-2.322 3.063-4.12.398-1.76-.04-3.586-.97-5.344-.62-1.186-1.67-1.86-2.31-2.25-.763-.463-1.595-.84-2.44-1.19-.832-.34-1.695-.62-2.5-.842-.55-.154-1.153-.34-1.84-.405-.23-.02-.44 0-.69 0-.66 0-1.565-.098-2.374-.19-.095-.01-.184-.03-.28-.03zm-.22 3.16c2.642 0 5.186.32 7.532 1.6 3.3.91 3.9 6.28.43 7.44-3.88 1.45-9.6 1.74-12.1-2.22-1.88-2.98 1.01-6.48 4.12-6.81zm3.72 15.69c1.542.09 2.86 1.28 3.53 2.63 1.386 2.16-.77 4.53-3.062 4.25-2.517.14-6.55-.06-7.25-3.06.144-2.89 3.77-3.66 6.094-3.78.22-.03.46-.04.68-.03zm3.906 11.88c-.185.02-.356.07-.5.1-.745.13-1.353.26-1.25.25-.228.02-.415.06-.625.13-.02.01-.043.03-.063.03-.166.06-.323.14-.468.22-1.277.71-2.335 1.67-2.938 2.94-.67 1.41-.66 2.89.06 4.22 1.24 2.29 4.15 3.16 6.9 2.78 1.29-.17 2.6-.803 3.4-1.84.83-1.06 1.04-2.2 1-3.25-.08-1.94-.96-3.732-2.56-4.84-.62-.43-1.32-.62-1.94-.69-.16-.017-.3-.025-.44-.03-.22-.006-.41-.02-.6 0zm-.156 3.1c.133-.01.273-.01.406 0 1.03-.03 1.55 1.09 1.78 1.94.827 2.43-2.315 3.33-4 2.28-2.02-1.34-.178-4.08 1.814-4.22zm457.437 28c-.874.01-1.824.14-2.937.41-1.578.38-2.455 1.42-3.25 2.41-.655.817-1.188 1.643-1.688 2.44-1.13-2.28-2.81-4.032-4.94-4.813-1.49-.54-3.35-.47-4.78.53-1.17.815-1.97 2.08-2.5 3.66-.34-.793-.7-1.606-1.19-2.375-.51-.792-1.14-1.675-2.44-2.06-.49-.144-1-.14-1.5-.03-.17.036-.34.066-.5.124-.65.23-1.25.63-1.69 1.094-.51.538-.97 1.21-1.41 2-.07-.11-.08-.2-.16-.313-.35-.46-.94-.93-1.63-1.12-.69-.19-1.37-.09-1.94.096-1.14.378-2.04 1.09-3.16 2.19-1.63 1.6-1.72 3.504-2.06 4.75-.13.473-.23.717-.316.905-.11-.06-.74-.2-1.654-.59-1.075-.46-2.32-1.05-3.56-1.44-.62-.193-1.24-.365-1.97-.376-.73-.01-1.766.21-2.5 1.03-.734.826-.846 1.856-.75 2.72.096.867.375 1.716.813 2.75.58 1.384.97 2.405 1.31 3.314-1.44-.38-3.276-.454-4.937.72-1.986 1.405-3.16 3.15-3.34 4.967-.18 1.82.613 3.33 1.53 4.408.92 1.08 1.97 1.816 2.94 2.28.083.04.2.058.28.096-.6 2.906-1.226 5.696-1.845 8.69-.58 2.825-1.385 6.1-1.406 9.406-.003.76-.04 1.58-.093 2.434-1.07-.14-2.16-.284-3.28-.437-1.64-.22-3.232-.43-4.44-.598-1.202-.17-2.203-.306-2.06-.28-.34-.065-.7-.05-1.03.06-.91.31-1.49 1.2-1.405 2.155.084.96.8 1.74 1.75 1.88.34.055.98.144 2.185.312 1.21.17 2.79.37 4.44.593 1.273.177 2.49.35 3.66.5-.008 1.17.06 2.33.25 3.5.48 3 .42 6.108.4 9.44-.02 3.29-.29 6.566-.31 10.06-.02 3.34.2 6.457.19 9.627-8.21 5.25-17.68 13.5-27.065 16.154-.7.2-1.397.394-2.095.59-.86-.086-1.73-.195-2.59-.345.144-.19.287-.454.375-.874.124-.604-.15-1.5-.566-1.905-.41-.4-.716-.57-.97-.63-.257-.055-.457.01-.627 0-.34-.015-.63-.002-.97.03-1.36.15-3.473.606-6.873 1.535-.727.2-1.352.5-1.937.844-.418.247-.8.5-1.16.78-1.33.186-2.41.36-3.22.627-.445.15-.83.29-1.31.658-.075.06-.14.23-.22.316-.524-.26-1.01-.47-1.53-.593-.234-.054-.51-.117-.91-.093-.37.022-.98.162-1.5.654-1.31-.44-2.77-.89-4.684-1.25-8.38-1.6-16.897-8.63-23.878-14.5-.007-.66-.024-1.31-.03-1.97-.04-3.22.195-6.39.155-9.78-.04-3.5-.338-6.78-.377-10.06-.04-3.34-.09-6.44.38-9.44.18-1.17.23-2.33.22-3.5 1.17-.16 2.38-.35 3.66-.53 1.65-.23 3.26-.45 4.47-.63s1.816-.25 2.155-.31c.994-.16 1.73-.99 1.75-2 .02-1.003-.7-1.895-1.69-2.09-.25-.048-.5-.045-.75 0 .147-.024-.89.14-2.092.312-1.2.174-2.793.394-4.435.624-1.124.16-2.17.29-3.25.437-.055-.856-.115-1.68-.124-2.44-.04-3.307-.84-6.586-1.44-9.407-.64-3.01-1.285-5.79-1.906-8.72-.74-3.484-2.66-6.514-4.594-9.03-2.3-2.994-5.1-4.24-6.97-6.063-.55-.54-1.17-1.015-1.843-1.44 2.93-.183 6.21-.09 9.28.63.825.19 1.834.66 3.064 1.092.71.27 1.49.11 2.067-.375.58-.484.865-1.224.72-1.97-.145-.74-.687-1.36-1.406-1.59-.94-.33-2.08-.885-3.5-1.22-5.077-1.18-10.234-.884-14.125-.34-1.948.27-3.56.605-4.69.875-.087.02-.136.046-.22.06-1.674-.282-3.49-.65-4.34-1.06-.37-.18-.736-.34-1.094-.44-1.073-.29-2.12-.233-3.19-.28-1.422-.053-2.87-.09-3.28-.153-2.18-.336-4.912-.528-7.282.094-1.8.47-3.81.76-5.66.78-2.487.03-4.94.577-6.44.594-1.402.016-2.416.59-3.25 1.03-.83.44-1.53.785-1.873.875-2.5.655-4.385 2.223-5.53 2.81-1.97 1.015-3.18 2.403-4.406 3.344-1.11.854-1.537 1.84-2 2.69-.47.85-.95 1.605-1 1.654-.955.97-1.335 2.03-1.66 2.81-.325.78-.58 1.29-.877 1.59-1.92 1.967-3.243 4.79-3.813 7.19-.626 2.62-1.54 4.58-1.5 8 .03 2.84-.196 5.848-.16 9 .036 3.01-.19 6.11-.156 9.28.04 3.18.07 6.3.655 9.596.408 2.27-.222 5.28-.185 8.436.03 2.41-.127 5.04.22 7.75-8.67 8.99-14.793 23.12-22.03 33-.9 1.234-1.24 2.464-1.5 3.35s-.48 1.29-.53 1.34c-.16.165-.28.36-.373.56-.154-.02-.28 0-.406 0-1.416.02-2.72.45-4.09.97-1.37.515-2.765 1.14-3.94 1.654-.515.23-.62.28-1.03.44-.935-.585-2.176-.34-2.813.56-.185.255-.35.488-.5.845-.152.36-.415.95-.063 1.848.353.894 1.35 1.344 1.843 1.405.492.066.794 0 1.06-.06 1.06-.222 1.972-.694 3.155-1.22-.215.21-.54.51-.72.69-.45.46-.72.74-1.03 1.25-.08.13-.16.29-.25.564-.09.27-.23.743.06 1.465.29.727 1.155 1.2 1.626 1.28.47.085.69.015.873-.03.736-.165.91-.344 1.28-.56.37-.215.75-.455 1.19-.75 1-.674 2.04-1.44 3-2.19-.07.638-.102 1.26-.095 1.877.01 1.066.067 1.684.06 1.875-.002.19.03.113-.22.624-.34.67-.29 1.47.128 2.095.42.623 1.16.962 1.91.903.75-.057 1.405-.505 1.72-1.187.38-.79.61-1.64.626-2.347.015-.7-.05-1.12-.06-2-.007-.61.346-2.72.343-4.463 0-.44-.012-.85-.153-1.38-.1-.38-.284-.94-.75-1.377.226-.1.41-.22.595-.405 1.03-1.05 1.274-2.216 1.53-3.09.256-.88.48-1.56.875-2.1 6.786-9.265 12.49-21.3 19.096-29.56-.05 1.626-.18 3.35-.16 5.157.035 3.002.09 5.995.125 9 .03 2.7.316 4.72.34 7.22.03 2.34.548 4.23.568 5.902.005.724.11 2.386.28 4.97.17 2.583.4 5.88.623 9.19.225 3.31.456 6.594.625 9.183.17 2.59.28 4.677.28 4.814.012 1.15.98 2.076 2.124 2.064.17 0 .31-.053.47-.095.025 0 .065.03.092.03.6-.007 1.21-.024 1.81-.03 3.25-.04 6.19-.34 9.25-.377 1.406-.015 2.91-.11 4.406-.22 0 .01-.03.024-.03.033.023.94.096 2.152.217 3.62.25 2.936.68 6.802 1.098 10.812.417 4.01.83 8.184 1.127 11.626.3 3.44.444 6.31.376 7.154-.59 7.29 1.16 12.58.874 18.53-.21.153-.4.314-.714.53-.95.64-2.27 1.49-3.625 2.342-1.023.647-2.023 1.257-2.97 1.844l.035.03-2.127 1.53c-3.33 1.09-2.425 5.19 1.12 4 .13-.09 1.11-.72 2.25-1.432 1.137-.716 2.53-1.577 3.905-2.44 1.37-.863 2.72-1.715 3.75-2.406.51-.345.923-.63 1.28-.906.174-.136.32-.267.5-.437.09-.088.212-.176.34-.347.13-.17.37-.39.437-1.184.59-7.285-1.41-12.606-.873-19.28.14-1.707-.07-4.41-.373-7.91-.3-3.497-.74-7.646-1.155-11.657-.414-4.01-.824-7.89-1.063-10.75-.12-1.43-.2-2.595-.22-3.377v-.22c2.77-.167 5.408-.23 7.44.25 5.93 1.41 11.593.075 16.47.626 4.072.463 8.047.11 11.904-.25.17 13.6.39 29.157-1.905 41.657-.353 1.937-.584 3.965-.56 6.03-.07 1.11.377 1.98.875 2.69.56.795 1.27 1.477 2.09 2.188 1.65 1.423 3.77 2.89 5.91 4.22 2.135 1.33 4.285 2.53 5.934 3.44.824.45 1.53.824 2.03 1.092.253.132.454.27.594.34.07.035.18.065.22.09 3.823.708 3.07-3.35 1-4.22-.49-.26-1.075-.59-1.816-1-1.61-.88-3.71-2.04-5.75-3.31s-4.036-2.654-5.376-3.812c-.67-.58-1.17-1.1-1.407-1.44-.11-.16-.12-.246-.128-.25v-.095c-.02-1.698.175-3.456.5-5.22 2.43-13.24 2.173-29.103 2-42.75.806-.05 1.584-.116 2.374-.126 2.715-.03 6.352.09 9.22.124.356.65 1.05 1.105 1.842 1.096.98-.01 1.79-.71 2-1.62.38-.35.646-.83.687-1.38.048-.597-.182-1.15-.56-1.56.07-2.23.173-5.527.314-9.408.2-5.56.422-11.042.402-12.685-.03-2.72.695-5.614.655-9.03l-.096-8c-.03-3 .2-6.22.16-9.5-.003-.55-.02-1.11-.03-1.657 6.408 5.38 14.24 11.263 22.877 12.906 2.766.526 4.57 1.295 6.75 1.97.633.67 1.39 1.414 2.25 2.216 1.172 1.092 2.5 2.263 3.812 3.374-.07.047-.125.118-.28.25-.103.09-.278.19-.5.566-.113.19-.25.47-.283.91-.03.44.146 1.04.44 1.407.59.74 1.1.723 1.347.75.247.03.37.01.47 0 1.006-.086 2.1-.16 3.28-.31.04.03.09.1.127.126.757.55 1.31.91 1.97 1.22 1.037.48 2.25.03 2.78-1.005.23-.447.32-.93.22-1.376.53-.188 1.017-.45 1.53-1 .12-.13.18-.348.28-.53.777.16 1.527.293 2.38.22.32-.03.707-.1 1.16-.317.453-.215 1.02-.7 1.28-1.34.26-.64.274-1.13.157-1.564.07.015.15-.004.22 0 .05.016.07.024.126.03.1.023.217.05.314.065l.94-4.062c-.1-.012-.184-.01-.28-.03-.015 0-.02.007-.03 0-.49-.29-1.18-.802-1.91-1.34h2.125c.68-.19 1.353-.37 2.03-.562 8.69-2.455 17.784-9.75 26.063-15.28-.01 1.496.01 3.01 0 4.5-.02 3.28.21 6.5.19 9.5-.016 2.66-.014 5.34-.03 8-.02 3.42.704 6.28.686 9-.01 1.646.24 7.16.47 12.72.167 3.915.298 7.218.378 9.438-.38.44-.59 1.04-.5 1.65.07.475.3.88.625 1.19.2.937 1.033 1.653 2.03 1.657.79.005 1.46-.443 1.81-1.094 2.87-.057 6.508-.17 9.22-.16.79.006 1.6.05 2.408.094-.1 13.647-.31 29.523 2.19 42.75.335 1.763.575 3.52.564 5.22v.06c0-.006-.03.08-.15.25-.233.34-.705.886-1.37 1.47-1.334 1.164-3.34 2.53-5.375 3.81-2.037 1.28-4.12 2.485-5.72 3.376-4.13 1.94-3.378 5.133 0 4.78.5-.27 1.21-.667 2.03-1.124 1.643-.913 3.804-2.127 5.94-3.47 2.13-1.34 4.232-2.785 5.87-4.217.82-.71 1.538-1.42 2.094-2.22.492-.71.92-1.573.84-2.683h.03c.01-2.07-.23-4.097-.596-6.03-2.36-12.493-2.25-28.06-2.158-41.66 3.87.34 7.865.704 11.94.22 4.87-.577 10.546.723 16.47-.72 2.026-.49 4.636-.466 7.404-.31 0 .08.004.113 0 .22-.014.78-.106 1.974-.22 3.404-.22 2.86-.572 6.71-.966 10.72-.396 4.01-.81 8.19-1.097 11.69-.28 3.5-.49 6.17-.34 7.88.576 6.675-1.375 12.03-.75 19.31.07.796.31 1.02.438 1.19.13.17.22.26.31.34.175.17.32.27.5.406.354.27.8.567 1.31.91 1.03.684 2.37 1.55 3.75 2.405 1.373.858 2.793 1.7 3.934 2.408 1.145.71 2.09 1.35 2.22 1.44 4.207 1.04 3.37-2.07 1.22-3.904-.59-.5-1.19-1-1.78-1.5-.03 0-.06.002-.092 0-1.03-.63-2.143-1.29-3.28-2-1.363-.847-2.68-1.68-3.63-2.313-.32-.21-.53-.37-.75-.53-.312-5.942 1.41-11.21.78-18.5-.07-.84.07-3.74.35-7.19.28-3.44.67-7.61 1.064-11.62s.8-7.873 1.03-10.81c.117-1.467.17-2.685.19-3.625v-.03c1.5.1 2.97.18 4.377.19 3.057.02 5.997.29 9.25.31.6.004 1.21.03 1.81.03.038 0 .09-.03.127-.03.155.04.3.06.47.06 1.147.01 2.087-.91 2.09-2.06 0-.137.096-2.19.25-4.78.158-2.59.358-5.91.564-9.22.21-3.308.44-6.6.598-9.187.152-2.58.24-4.243.25-4.966.01-1.675.543-3.565.56-5.905.013-2.5.262-4.52.28-7.22.02-3 .042-6.026.06-9.03.01-1.82-.09-3.52-.153-5.158 6.657 8.224 12.377 20.252 19.218 29.5.4.54.648 1.19.91 2.06.26.873.494 2.043 1.53 3.092.18.18.4.33.623.432-.46.44-.65.962-.75 1.34-.14.527-.16.94-.16 1.376.01 1.746.41 3.857.41 4.47-.004.877-.11 1.327-.093 2.03.02.708.27 1.53.658 2.31.32.68.97 1.138 1.72 1.19.75.056 1.46-.28 1.875-.904.413-.63.47-1.457.124-2.126-.25-.51-.215-.4-.22-.594 0-.19.09-.81.094-1.872.004-.62-.086-1.27-.157-1.908.967.745 2.02 1.51 3.03 2.184.44.29.85.534 1.22.75.37.213.514.4 1.25.56.185.04.435.114.906.03.47-.08 1.31-.585 1.595-1.31.288-.73.15-1.2.06-1.47s-.2-.437-.28-.56c-.315-.517-.58-.8-1.03-1.25-.18-.18-.47-.45-.69-.66 1.19.514 2.097.97 3.16 1.185.267.055.54.127 1.03.062.495-.065 1.497-.54 1.845-1.44.35-.896.09-1.456-.062-1.812-.15-.356-.31-.59-.5-.845-.64-.893-1.88-1.15-2.81-.56-.41-.16-.54-.18-1.06-.41-1.17-.51-2.56-1.112-3.932-1.622s-2.645-.96-4.064-.97c-.12 0-.29.015-.44.03-.096-.203-.206-.42-.373-.593-.046-.046-.267-.46-.53-1.34-.264-.88-.624-2.12-1.53-3.35-7.29-9.85-13.485-23.96-22.22-32.904.33-2.7.176-5.35.19-7.75.02-3.15-.61-6.13-.22-8.4.57-3.296.576-6.444.596-9.625.02-3.164-.205-6.234-.187-9.25.02-3.15-.208-6.19-.19-9.03.02-3.414-.96-5.35-1.597-7.97-.38-1.57-1.077-3.33-2.06-4.903 2.07-1.564 3.52-3.28 4.31-5.063.81-1.817.945-3.78.126-5.44-.814-1.657-2.6-2.726-4.56-2.908-1.74-.166-3.676.27-5.78 1.25.2-.91.376-1.76.75-2.97.28-.89.553-1.74.72-2.566.084-.41.16-.805.156-1.28-.002-.472-.01-1.114-.625-1.843-.613-.73-1.816-.95-2.466-.81-.65.133-1.07.384-1.534.684-.843.55-1.814 1.39-3.06 2.59.23-.94.45-1.93.56-2.902.12-.993.26-1.99-.34-3.19-.304-.592-.92-1.22-1.658-1.5-.736-.27-1.45-.2-2.093-.06-1.29.29-2.51.95-4.125 2.096-.884.624-1.28.85-1.938 1.28.28-.95.4-2.02 0-3.28-.37-1.156-1.59-2.215-2.878-2.5-.48-.11-.975-.133-1.5-.126zm0 4.19c.14 0 .25-.01.344 0-.074.14-.195 1.15-.656 2.34-.257.68-.554 1.32-.718 2.1-.03.15-.044.32-.063.5-.6-.05-1.22-.12-1.84-.123-.75 0-1.53-.04-2.31-.122.18-.286.37-.563.57-.874.57-.915 1.16-1.9 1.72-2.594.49-.607 1.01-.893 1.04-.937.9-.21 1.53-.276 1.94-.28zm-14.875.03c.15-.02.33.02.62.13.85.31 2.21 1.63 3 3.53-1.62-.08-3.26.09-4.66.31-.16.026-.48.043-.88.063.13-.454.27-.94.4-1.533.35-1.5.86-2.14 1.15-2.348.07-.05.15-.1.22-.128.05-.02.07-.02.12-.03zm-9.82.47c.24.42.53.97.81 1.628.31.74.58 1.517.9 2.25.04.098.08.22.12.315-.2.074-.4.12-.6.22-.78.385-2.386.747-3.94 1.03.37-.76.83-1.756 1.434-3.154.51-1.17.93-1.836 1.25-2.28zm-385 1.84c-.1.01-.19.01-.28.03-.79.17-1.08.56-1.25.79-1.87 2.435-3.28 4.113-4.35 5.22l.03-.19c.06-.298.11-.58.15-.845.04-.26.13-.327.06-1-.02-.17-.02-.4-.25-.815-.23-.418-1.03-1.055-1.78-1.065-.75-.01-1.11.28-1.31.437-.2.158-.3.25-.38.346-.31.37-.41.587-.6.94-.28.52-.68 1.35-1.184 2.407-.216 0-.406.006-.624 0-.54 0-1.09-.01-1.623 0-.09-.144-.165-.304-.25-.47-.73-1.36-1.32-2.77-1.94-3.81-.154-.26-.274-.5-.625-.84-.176-.17-.428-.4-.97-.564-.54-.16-1.48.006-1.968.406-.97.8-.79 1.305-.84 1.686-.05.38-.04.74-.03 1.185.032 1.577-.135 2.61-.314 3.126-.078.21-.13.295-.16.34.034 0 .065.02.03.03-.017.01-.056.03-.06.036l.03-.063c-.056 0-.185 0-.44-.094-.424-.156-1.054-.525-1.72-1-1.33-.956-2.82-2.35-4-3.47-.588-.56-1.064-1.047-1.56-1.44-.25-.195-.446-.39-1-.59-.14-.05-.32-.1-.564-.13-.06-.006-.12-.03-.188-.03-.206 0-.447.034-.72.124-.727.242-1.296 1.08-1.406 1.56-.35 1.543-.68 3.59-.53 5.62.01.166.04.337.06.5-2.51-.355-4.95-.46-7.16-.78-1.11-.16-2.154.608-2.31 1.718-.16 1.11.64 2.16 1.75 2.315 2.77.4 5.416.495 7.813.874-1.69 1.14-3.69 2.28-5.47 4.37-2 2.368-4.02 5.23-4.904 8.598-.744 2.827-1.487 5.498-2.25 8.407-.717 2.726-1.65 5.904-1.846 9.127-.042.744-.152 1.54-.25 2.375-1.04-.19-2.065-.384-3.155-.592-1.59-.3-3.145-.614-4.31-.84-1.165-.226-2.14-.406-2-.376-.2-.04-.39-.05-.594-.03-1.012.07-1.84.86-1.904 1.88-.066 1.015.63 1.926 1.624 2.125.33.08.96.18 2.13.41 1.17.23 2.713.54 4.31.845 1.23.24 2.402.45 3.53.66-.06 1.14-.058 2.29.063 3.44.315 2.95.1 5.97-.09 9.22-.19 3.208-.64 6.37-.846 9.78-.2 3.31-.127 6.397-.314 9.53-.1 1.73-.205 3.47-.31 5.19-5.24 3.217-9.37 5.11-13.217 4.25-3.98-.883-8.644-4.943-14.47-15.53-.48-.88-1.06-1.654-1.655-2.34.066-.146.15-.288.19-.41.4-1.326.33-2.664.25-4.094-.08-1.43-.27-2.88-.41-4.123-.06-.55-.064-.663-.095-1.093.812-.7.96-1.927.312-2.78-.18-.247-.37-.475-.658-.72-.29-.246-.78-.66-1.72-.595-.94.07-1.645.87-1.846 1.31-.2.44-.196.73-.22 1-.1 1.06.044 2.04.19 3.31-.137-.27-.32-.65-.44-.88-.297-.55-.457-.9-.845-1.344-.097-.11-.208-.24-.438-.4-.23-.16-.65-.436-1.41-.377-.76.06-1.444.744-1.66 1.16-.21.417-.23.63-.25.81-.05.74.07.97.16 1.377.1.41.2.854.35 1.346.34 1.134.764 2.32 1.185 3.436-.57-.244-1.146-.514-1.72-.687-.995-.3-1.6-.41-1.78-.47-.178-.06-.095.005-.5-.376-.816-.77-2.106-.725-2.875.09-.766.82-.72 2.11.096 2.877.624.585 1.35 1.03 2 1.25.655.22 1.06.286 1.877.53.578.173 2.44 1.153 4.065 1.657.402.13.81.23 1.34.25.28.01.642 0 1.03-.127.652.55 1.336 1.335 1.91 2.373 6.05 10.995 11.35 16.24 17.152 17.534 4.786 1.067 9.224-.72 13.813-3.345-.126 2.85-.095 5.67-.25 8.283-.155 2.593-.315 5.19-.47 7.78-.198 3.33.38 6.195.22 8.844-.096 1.6-.157 6.975-.22 12.41-.043 3.822-.086 7.05-.125 9.22-.363.383-.583.93-.56 1.5.02.492.22.91.53 1.25.13.94.924 1.69 1.907 1.75.772.044 1.462-.35 1.84-.97 2.8.1 6.35.153 9 .31 2.644.16 5.405.62 8.22 1 .28 13.59.77 27.36 3.654 40.596.37 1.71.62 3.435.654 5.09v.066c-.006.007.01.093-.097.25-.22.338-.706.883-1.342 1.47-1.27 1.174-3.172 2.57-5.122 3.875-1.95 1.303-3.96 2.523-5.5 3.436-.45.27-.76.45-1.126.66-4.164 2.69-1.456 6.04 1.28 4 .486-.28 1.15-.66 1.94-1.127 1.58-.94 3.64-2.2 5.688-3.56 2.043-1.37 4.06-2.84 5.623-4.28.78-.73 1.45-1.43 1.97-2.22.466-.71.887-1.58.78-2.66-.04-2.02-.34-4-.75-5.878-2.7-12.41-3.282-25.76-3.56-39.25 1.877.16 3.79.22 5.72.093 4.78-.31 10.244 1.257 16.093.16 3.45-.647 8.5.324 13.155.81 0 .76-.03 1.76-.093 3-.14 2.8-.41 6.576-.685 10.5-.276 3.93-.536 8.017-.72 11.44-.18 3.423-.313 6.03-.125 7.687.74 6.5-.59 12.945.22 20.035.084.747.35.98.5 1.156.15.18.277.27.374.35.195.157.322.265.5.374.355.217.79.43 1.28.686.983.51 2.262 1.1 3.563 1.72 1.3.62 2.613 1.26 3.686 1.78s2.027 1.02 2 1c3.7 1.66 4.46-2.717 1.342-3.94-.44-.23-.95-.453-1.566-.75-1.11-.537-2.43-1.166-3.72-1.78-1.29-.613-2.544-1.226-3.44-1.687-.22-.117-.33-.16-.5-.25-.442-5.76.62-12.1-.184-19.16-.094-.82-.054-3.63.125-7 .18-3.37.477-7.447.75-11.376.278-3.925.546-7.72.69-10.59.06-1.13.08-2.06.094-2.88 2.386.21 4.75.54 7.313.69.59.04 1.2.06 1.78.096h.098c.146.044.31.084.47.09 1.116.07 2.056-.783 2.12-1.903.01-.135.21-2.17.5-4.688.286-2.52.69-5.72 1.06-8.94.376-3.218.747-6.427 1.03-8.94.29-2.51.46-4.106.5-4.81.1-1.63.74-3.47.878-5.75.144-2.435.5-4.367.654-7 .174-2.927.324-5.88.5-8.81.017-.28.05-.536.06-.81 8.03-9.494 12.82-24.276 19.157-34.815.77-1.275 1.012-2.523 1.19-3.406.17-.88.33-1.323.37-1.374.15-.178.24-.36.317-.566.146.007.29-.02.404-.03 1.374-.14 2.613-.69 3.902-1.31 1.29-.625 2.56-1.365 3.656-1.97.49-.27.61-.306 1-.5.954.48 2.113.143 2.653-.78.16-.26.29-.516.406-.877.12-.36.3-.97-.125-1.81-.423-.84-1.423-1.17-1.91-1.19-.483-.013-.744.08-1 .158-1.004.31-1.87.8-2.97 1.41.19-.212.474-.494.627-.684.398-.487.65-.756.908-1.28.063-.134.123-.29.185-.566.062-.277.16-.76-.188-1.44-.35-.68-1.19-1.09-1.66-1.13-.462-.034-.7.07-.872.126-.7.23-.843.383-1.183.624-.34.246-.728.55-1.127.877-.92.75-1.85 1.59-2.72 2.406.01-.62 0-1.27-.06-1.87-.11-1.037-.205-1.627-.22-1.815-.013-.184-.07-.07.126-.59.25-.64.15-1.38-.25-1.94-.405-.556-1.03-.88-1.72-.843-.81.047-1.534.58-1.81 1.346-.304.8-.426 1.624-.38 2.31.05.686.13 1.12.22 1.97.06.595-.092 2.68.06 4.373.04.425.07.815.25 1.31.13.357.37.868.848 1.25-.21.127-.374.276-.53.47-.91 1.118-1.047 2.285-1.22 3.157-.17.87-.32 1.53-.656 2.09-5.61 9.34-10 21.125-15.47 29.688.07-.56.16-1.116.288-1.656.68-2.974.62-5.942.78-8.593.183-3.077-.28-6.025.22-8.22.73-3.18.91-6.24 1.092-9.34.183-3.09.104-6.1.28-9.03.183-3.077.115-6.05.28-8.817.2-3.33-.61-5.285-1.095-7.873-.44-2.364-1.595-5.15-3.374-7.155-.27-.303-.5-.85-.78-1.622-.275-.778-.583-1.82-1.47-2.816-.04-.05-.49-.803-.903-1.654-.412-.85-.77-1.83-1.81-2.72-1.15-.97-2.28-2.38-4.153-3.465-1.085-.622-2.84-2.21-5.25-2.963-.33-.103-1.02-.5-1.81-.97s-1.723-1.072-3.092-1.154c-.46-.025-1.04-.11-1.657-.22.69-.45 1.415-.98 2.185-1.623.86-.715.97-2.01.25-2.87-.72-.86-2.01-.97-2.87-.25-2.23 1.864-3.65 2.31-4.16 2.312-.505.01-.52-.08-.843-.654-.32-.57-.59-1.54-.75-2.376-.073-.417-.1-.756-.214-1.19-.06-.215.05-.434-.56-1.094-.268-.287-.99-.67-1.69-.656zm377.43.25c0 .36.02.68 0 1.07-.03.65-.08 1.3-.1 1.872-.01.29-.02.53.03.904.02.14.04.307.12.53-.75.226-1.5.485-2.25.81.353-.66.52-1.27.684-1.876.41-1.504.86-2.77.97-2.872.302-.3.3-.252.53-.434zm42.62.22c-.09.65-.27 1.44-.47 2.28-.2.81-.4 1.62-.56 2.41-.24-.08-.47-.15-.72-.22-.35-.082-1.04-.432-1.88-.87-.32-.17-.68-.364-1.06-.53.84-.54 1.82-1.2 3-2.034.67-.475 1.24-.796 1.68-1.03zm-421.72 2.31c0 .01-.01.16 0 .19-.06-.12 0-.19 0-.19zm367.37 2.72c.78.29 1.65.66 2.592 1.07 1.105.473 2.004.982 3.405 1.03-.154.135-.32.292-.466.44-.972.96-2.19 1.77-3.47 2.75-.402-1.218-1.05-2.765-1.966-4.94-.08-.178-.04-.19-.098-.345zm31.72.03c1.013 0 1.95.06 2.59.22 2.14.55 4.46.86 6.69.88 1.825.01 4.18.55 6.44.56.076 0 .62.15 1.343.53s1.6.95 2.78 1.25c1.28.33 2.934 1.53 4.72 2.44 1.12.57 2.135 1.71 3.75 2.937-.055-.04.47.59.905 1.377.44.79.82 1.65 1.69 2.53.21.216.472.73.81 1.53.333.8.77 1.885 1.75 2.876 1.03 1.045 2.382 3.75 2.75 5.25.73 3.015 1.452 4.323 1.434 6.97-.02 3.08.234 6.08.215 9-.02 3.24.207 6.347.19 9.28-.02 3.18-.07 6.04-.564 8.907-.597 3.44.2 6.7.186 9.13-.015 2.23.08 4.4-.064 6.375-.34.28-.604.654-.72 1.095-.156.62-.03 1.25.346 1.75-.41 3.476.08 6.652.063 9.563-.007 1.044.007 2.073 0 3.12l-.03.034c-.42.21-.585.335-.686.407-4.36.087-7.307 1.74-10 1.72-8.14-.05-16.297 1.15-24.44 1.098-5.66-.034-13.856-.64-21.066-1.28-6.77-.6-12.52-.803-17.53-.345-.057-1.6-.106-3.19-.097-4.72.02-3.09.01-6.16.03-9.25.016-2.415-.094-4.72-.156-6.97 4.237 1.855 10.14 2.995 14.69 2 3.986-.87 5.846-2.13 8.78-3.81 2.034-1.167 3.317-2.76 4.28-4.22.96-1.46 1.687-2.81 2.72-4.063.857-1.04 2.1-2.766 3.25-4.56 1.146-1.8 2.206-3.35 2.56-5.28.048-.077.11-.15.156-.22.41-.64.733-1.23 1-1.69.17-.287.335-.57.407-.688.05-.06.04-.08.033-.06.52-.65.68-1.53.374-2.315-.317-.802-1.048-1.37-1.908-1.47-.86-.093-1.73.29-2.217 1-.39.515-.455.74-.72 1.19-.26.45-.552.988-.902 1.53-.7 1.09-1.66 2.187-2.03 2.44-5.46 3.8-12.21 6.76-18.69 6.72-5.69-.04-6.84-.17-11.5-3.75-.04-1.89-.15-3.805-.463-5.75-.12-.72-.15-1.505-.16-2.345h.064c.744.066 1.48-.264 1.907-.877.427-.61.508-1.388.188-2.06-.32-.675-1.01-1.13-1.75-1.19-.05-.004-.18-.024-.25-.03.05-.975.09-1.967.09-2.94.02-2.64.72-5.695 1.317-8.59.61-2.97 1.23-5.774 1.84-8.75.517-2.495 2.044-5.09 3.78-7.375 1.564-2.056 4.065-3.19 6.564-5.657 1.05-1.035 5.15-2.655 7.13-2.97 1.86-.3 4.56-.61 6.75-1.69-.03.02 1.32-.284 2.623-.344s2.63-.037 3.78-.22c.88-.14 1.954-.218 2.97-.22zm-163.628.1c.314 0 .647.02.97.03.302.41.737.687 1.28.78 5.605 1.31 10.172 5.42 15.874 10.157.57.515 1.377.664 2.096.41.72-.25 1.228-.87 1.346-1.623.12-.753-.177-1.535-.78-2-2.207-1.83-4.328-3.66-6.5-5.312.08.017.462.093.56.093.105 0 .17.002.22 0 .093-.01.12-.027.153-.03.174-.03.37-.09.53-.16.016-.005.02.006.03 0 .024-.01.1-.024.126-.03l.44.06c.243.04.51.11.81.19 2.13.53 5.392 1.85 6.31 2.75 2.51 2.454 4.99 3.577 6.56 5.624 1.75 2.28 3.316 4.885 3.845 7.377.63 2.977 1.28 5.75 1.907 8.72.61 2.898 1.31 5.957 1.34 8.597.01.97.07 1.93.126 2.904-.07.01-.23.06-.28.065-.747.06-1.37.51-1.69 1.185-.316.676-.27 1.454.16 2.063.43.61 1.16.94 1.902.87h.062c-.007.84-.05 1.63-.16 2.34-.3 1.95-.407 3.866-.44 5.75-4.64 3.617-5.77 3.75-11.47 3.816-6.47.08-13.234-2.85-18.72-6.622-.364-.25-1.324-1.35-2.03-2.434-.35-.544-.67-1.086-.937-1.53-.265-.45-.325-.65-.72-1.16-.79-1.02-2.266-1.223-3.286-.435-1 .775-1.2 2.204-.47 3.22.02.05.262.407.464.75.27.46.617 1.08 1.03 1.72.047.075.108.147.156.22.364 1.933 1.404 3.46 2.56 5.25 1.16 1.79 2.42 3.493 3.283 4.53 1.035 1.25 1.745 2.576 2.715 4.03.974 1.46 2.275 3.036 4.315 4.19 2.946 1.666 4.854 2.933 8.846 3.78 4.553.97 10.404-.19 14.627-2.06-.046 2.25-.12 4.55-.093 6.97.036 3.09.06 6.16.094 9.25.02 1.526-.05 3.12-.09 4.716-5.015-.952-11.49-.51-18.25.127-7.205.68-14.69 1.625-20.343 1.69-8.15.1-16.306-1.03-24.44-.93-2.7.03-5.61-1.63-9.97-1.69-.1-.075-.293-.2-.72-.41-.005-.004-.02.005-.03 0l-.03-3.156c-.034-2.91.458-6.065.03-9.53.386-.514.52-1.186.345-1.816-.124-.44-.403-.797-.75-1.068-.155-1.97-.07-4.15-.095-6.376-.03-2.426.74-5.66.122-9.09-.51-2.864-.56-5.726-.6-8.906-.035-2.938.194-6.077.155-9.317-.033-2.92.193-5.92.157-9-.03-2.646.69-3.95 1.41-6.97.36-1.5 1.695-4.2 2.72-5.25.97-.995 1.42-2.104 1.75-2.905.33-.8.57-1.28.78-1.5.865-.885 1.256-1.805 1.69-2.595.432-.79.93-1.41.873-1.37 1.61-1.236 2.665-2.36 3.78-2.94 1.78-.915 3.41-2.134 4.69-2.47 1.18-.31 2.06-.865 2.78-1.25.722-.38 1.234-.53 1.312-.53 1.55-.02 3.15-.27 4.59-.44.29.55.81.977 1.47 1.096 3.537.827 4.775 1.59 6.313 2.72 1.54 1.13 3.38 2.75 7.094 4.656.664.383 1.506.373 2.157-.03.65-.406 1.016-1.14.97-1.908-.05-.765-.524-1.464-1.22-1.783-3.37-1.73-4.756-3.01-6.53-4.315-.66-.48-1.357-.93-2.19-1.372l.47-.12c.6-.153 1.46-.24 2.405-.25zm-234.53.69c.09.225.152.46.25.685-.227-.06-.438-.12-.658-.19.14-.167.26-.325.403-.5zm-27.815.185c.755.71 1.57 1.49 2.47 2.22-.634.204-1.26.465-1.874.75-.118-.06-.163-.176-.28-.41-.15-.29-.298-.803-.346-1.47-.02-.32.02-.73.03-1.093zm454.596.623c-.175.547-.36 1.094-.5 1.656-.24-.175-.485-.36-.75-.53.382-.334.8-.686 1.25-1.125zm-178.626.437c.1.02.18.044.28.062l.28.37c-.19-.143-.37-.296-.56-.44zm-251.873 2.72c.7.06 1.326.17 1.78.31 2.06.65 4.33 1.06 6.5 1.19 1.78.105 4.02.773 6.22.904.077.004.596.155 1.28.56.69.41 1.52.99 2.66 1.346 1.23.388 2.746 1.68 4.44 2.658 1.06.618 2.02 1.756 3.53 3.03-.05-.04.43.59.81 1.38.39.79.7 1.69 1.5 2.59.2.22.44.71.72 1.5.29.8.66 1.92 1.56 2.94.95 1.07 2.13 3.74 2.41 5.22.56 2.977 1.22 4.29 1.064 6.87-.18 3.01-.11 5.97-.28 8.82-.19 3.157-.11 6.2-.28 9.06-.183 3.1-.364 5.89-1 8.656-.756 3.32-.17 6.507-.31 8.874-.17 2.847-.154 5.61-.69 7.94-.7 3.07-.595 5.947-.623 8.595-.08.29-.068.6 0 .903-.01.3-.02.58-.037.874-.06 1.023-.126 2.043-.187 3.063-.41.18-.58.307-.684.376-4.263-.15-7.21 1.347-9.843 1.19-7.93-.473-15.94.225-23.878-.25-5.51-.33-12.75-1.625-19.75-2.625-5.243-.75-10.332-1.35-14.683-1.22-1.095.038-2.135.11-3.127.25.03-1.56.038-3.1.127-4.59.18-3.01.385-6.02.565-9.03.14-2.36.16-4.586.214-6.783 4.038 2.024 9.71 3.45 14.19 2.72 3.93-.64 5.8-1.793 8.75-3.28 2.048-1.03 3.42-2.5 4.44-3.876 1.017-1.376 1.74-2.643 2.815-3.813.89-.97 2.194-2.587 3.405-4.28 1.213-1.69 2.336-3.13 2.78-5 .055-.07.107-.15.16-.22.43-.6.803-1.16 1.09-1.593.213-.323.445-.665.47-.717.55-.67.674-1.58.31-2.374-.37-.816-1.196-1.348-2.09-1.345-.67.01-1.29.3-1.72.814-.41.48-.535.704-.81 1.126-.28.427-.6.927-.97 1.44-.74 1.027-1.727 2.053-2.097 2.28-5.528 3.425-12.257 5.94-18.567 5.563-5.55-.33-6.648-.507-11-4.25.06-1.837.042-3.715-.16-5.625-.078-.706-.07-1.46-.03-2.28h.06c.73.12 1.45-.17 1.905-.75.46-.58.57-1.38.28-2.06-.28-.68-.92-1.14-1.653-1.22l-.25-.03c.1-.95.2-1.93.25-2.878.16-2.574.99-5.49 1.72-8.28.75-2.867 1.5-5.57 2.25-8.44.63-2.403 2.28-4.86 4.09-7 1.63-1.92 4.09-2.91 6.66-5.185 1.078-.95 5.18-2.33 7.13-2.53 1.605-.17 3.84-.31 5.847-.97.396.42.868.78 1.438 1.09.905.5 2.36.666 3.44.063.456-.254.8-.625 1.127-1 .203.185.41.383.69.5.792.335 1.604.22 2.186 0 .694-.26 1.256-.65 1.876-1.19zm439.22 2.435c.127 0 .236.023.344.032.865.08 1.047.306 1.19.595.145.29.255.916-.186 1.905-.426.96-1.356 2.194-2.937 3.404-.07-.15-.118-.324-.19-.5-.33-.78-.73-1.844-1.69-2.814-.04-.04-.396-.616-.78-1.28.113-.056.225-.095.342-.156.955-.5 1.782-.827 2.5-1 .54-.13 1.025-.19 1.405-.19zm-73.69 2c.07-.016.116.004.19 0 .516-.02 1.21.28 2.156.66-.844 1.2-1.65 2.474-2.31 3.872-.424-.235-.98-.63-1.374-1.093-.45-.53-.596-.96-.56-1.318.035-.355.22-1 1.59-1.97.098-.064.21-.13.31-.154zm-496.84 3.03c-.345 0-.7.02-1.03.03-1.324.065-2.48.25-3.34.19-2.92-.19-4.65.095-7 .405-2.13.28-4.39.327-6.75.75-1.29.237-2.1.788-3.03 1.347-.93.56-1.86 1.16-2.28 1.377-1.9.97-3.77 2.66-4.94 3.685-1.57 1.372-2.51 3.012-2.78 3.25-1.68 1.47-2.33 3.53-2.66 4.09-1.25 2.14-1.88 3.86-2.56 5.97-.08.25-.15.523-.217.78-.746.737-1.29 1.645-1.375 2.876-.12 1.77-.19 4.07.25 6.34-.22 2.03-.516 4.22-.66 6.406-.177 2.664-.644 5.234-.844 8.25-.17 2.62-.3 4.81-.965 6.874-.89 2.75-.42 5.826-.54 7.627-.117 1.778-.16 3.49-.187 5.157-.007.008.002.03 0 .03-9.11 7.37-15.965 20.5-23.565 29.348-.9 1.05-1.3 2.16-1.594 2.94-.3.78-.52 1.15-.566 1.19-.16.14-.273.297-.374.47-.136-.025-.268-.024-.377-.03-1.286-.085-2.474.255-3.75.625-1.278.37-2.59.83-3.688 1.214-.49.17-.62.197-1 .315-.8-.588-1.894-.478-2.534.28-.19.215-.37.44-.53.75-.166.31-.45.82-.19 1.655.25.832 1.12 1.313 1.56 1.403.44.09.72.06.97.03.97-.13 1.83-.485 2.936-.874-.21.17-.51.41-.683.56-.44.38-.712.59-1.03 1.03-.08.11-.184.23-.283.47-.1.24-.277.67-.06 1.34.21.68.982 1.18 1.403 1.28.42.11.643.09.813.067.676-.1.806-.236 1.155-.406.35-.17.74-.39 1.15-.63.96-.547 1.956-1.17 2.88-1.787-.1.574-.21 1.16-.25 1.72-.06.965-.043 1.515-.06 1.688-.02.177.04.12-.22.56-.38.586-.43 1.3-.09 1.91.334.61.994 1.004 1.69 1 .69-.007 1.33-.42 1.654-1.03.4-.687.657-1.43.72-2.065.06-.636.04-1.02.09-1.812.04-.556.507-2.456.627-4.03.03-.396.06-.77-.03-1.25-.066-.35-.213-.86-.595-1.283.21-.08.415-.19.594-.345 1.007-.88 1.3-1.913 1.595-2.69.29-.773.54-1.35.94-1.813 7.18-8.362 13.46-19.594 20.47-26.56-.06 1.147-.08 2.424-.13 3.78-.17.27-.298.6-.31.94-.05.76.01 1.45.152 2.12-.026.6-.04 1.228-.063 1.598-.005.03 0 .13 0 .16-1.16 8.26-.805 12.45-1.596 20.56v.06c-.13 1.977.07 3.316-.03 4.845v.06c-.01.07-.05.158-.065.28-.025.26-.072.63-.122 1.1-.1.94-.24 2.28-.406 3.877-.342 3.193-.77 7.445-1.22 11.69-.453 4.24-.91 8.492-1.25 11.684-.17 1.596-.307 2.932-.406 3.873-.05.47-.13.832-.16 1.09-.01.13.01.21 0 .28 0 .02-.03.04-.03.038 0 .004.01.01 0 .156-.075 1.12.756 2.08 1.875 2.152.336.024.68-.03.97-.156.22.195.48.357.78.44 1.475.476 2.844.54 4.155.626 2.85.19 5.713.375 8.564.56 1.544.1 3.08.18 4.625.28-.008.09.02.188.03.28.543 6.61 1.14 9.158 1.403 16.5.045 3.11.327 7.01.81 10.91-.53.92-1.312 2.13-2.22 3.343-1.44 1.93-3.12 3.992-4.434 5.84-.444.62-.958 1.25-1.47 1.88v.03c-.047.06-.11.1-.156.16-1.77 2.29-5.49 4.57-1.94 6.71.736.17 1.536-.08 2.03-.65 1.555-1.63 3.38-3.65 4.874-5.75 1.16-1.63 2.774-3.622 4.25-5.59.31 1.717.65 3.33 1.03 4.78.21.82.412 1.636.622 2.44.148.746.707 1.348 1.436 1.56.73.218 1.5.017 2.03-.53.53-.543.736-1.37.5-2.092-.21-.804-.44-1.59-.655-2.405-.644-2.476-1.21-5.713-1.654-9.03.106-.255.234-.494.314-.75.206-.63.08-1.31-.31-1.845-.098-.132-.22-.27-.34-.374-.35-3.185-.59-6.278-.628-8.72v-.06c-.27-7.406-.88-10.157-1.41-16.348 2.022.14 4.04.276 6.06.41 4.75.314 9.903-.4 13.594.593 3.14.846 6.3 1.21 9.41 1.47-.25 9.95-2.503 15.745-2.31 28.75.04 2.88.112 5.626-.44 8.03-.216.73.014 1.504.56 2.03.546.53 1.34.71 2.062.47.72-.236 1.243-.843 1.37-1.593.63-2.754.58-5.45.53-7.97.75 1.05 1.557 2.13 2.376 3.22 2.67 3.553 5.483 7.06 6.03 7.78.69.9 1.94 1.06 2.842.374 1.87-2.15-.736-4.21-2.06-6.09h-.06c-1.036-1.33-2.25-2.91-3.47-4.532-1.31-1.747-2.61-3.51-3.593-4.97-.98-1.46-1.653-2.9-1.623-2.783-.06-.243-.174-.456-.31-.655.48-8.185 1.967-13.456 2.19-21.75 1.37.073 3.81.08 6.093.094 1.22.01 2.37.03 3.214.03h1.03c.71.12 1.44-.14 1.91-.69.17-.2.29-.414.372-.656.427.114.844.19.844.187 0 0 1.034-.445 1.22-.655.37-.414.364-.57.404-.685.04-.115.05-.19.06-.25.08-.314.074-.65 0-.967 0-.16-.005-.29 0-.595.015-.878.065-2.27.125-3.97.12-3.4.32-8.09.53-12.907.424-9.626.934-19.924.97-20.436.11-1.616.234-3.228.342-4.844.12-1.805.23-3.63.345-5.438.13-1.9.25-3.79.376-5.69.12-1.865.51-3.788.654-5.97.03-.528.09-1.06.12-1.59 1.26 2.71 2.413 5.485 3.876 8.22 2.357 4.4 5.59 8.64 11.25 11.684.656.35 1.08.32 1.47.31.39-.01.76-.05 1.16-.124.792-.15 1.69-.406 2.72-.72 2.054-.62 4.58-1.516 7.06-2.405 2.48-.886 4.93-1.773 6.78-2.373.885-.285 1.62-.476 2.126-.594.18.1.36.14.5.19 1.23.398 2.456.39 3.78.346 1.33-.05 2.69-.176 3.85-.28.513-.047.632-.04 1.03-.06.633.763 1.76.92 2.563.34.233-.164.423-.33.657-.595.24-.26.64-.72.598-1.595-.044-.87-.75-1.524-1.155-1.72-.405-.196-.69-.22-.936-.25-.98-.114-1.89.02-3.06.124.25-.116.6-.3.81-.406.52-.265.83-.4 1.25-.75.1-.086.22-.165.37-.375s.447-.606.405-1.31c-.04-.71-.646-1.36-1.03-1.566-.38-.207-.61-.235-.78-.25-.68-.07-.87.014-1.25.092-.38.08-.79.217-1.25.344-1.06.29-2.203.63-3.25 1 .24-.53.485-1.06.657-1.6.3-.92.44-1.46.5-1.63.06-.16-.017-.1.344-.47.55-.54.712-1.38.403-2.09-.31-.71-1.04-1.15-1.817-1.123-.495.02-.945.235-1.28.594-.557.566-1 1.21-1.22 1.81-.217.605-.257.996-.5 1.75-.17.53-1.124 2.22-1.625 3.72-.126.375-.22.76-.25 1.25-.018.26-.02.634.092 1-.517.144-1.068.3-1.69.5-1.96.635-4.433 1.52-6.904 2.407-2.47.885-4.96 1.76-6.875 2.34-.96.29-1.763.525-2.314.627-.194.04-.3.06-.406.068-4.74-2.624-7.348-6.03-9.47-10-2.17-4.05-3.75-8.67-6.47-13.22-.046-.073-.105-.15-.16-.22.167-1.25.35-2.574.44-3.934.14-2.09.3-4.19.44-6.28.123-1.85.513-3.79.656-5.97l.344-5.125.44-6.565.19-2.85c.07.01.15.027.22.034 1.685.18 3.48.46 4.5.59 1.11.15 2.13-.637 2.28-1.75.15-1.11-.64-2.13-1.75-2.28-.88-.117-2.79-.4-4.626-.596l-.343-.03c.12-1.79.224-3.585.34-5.376.09-1.35-.27-2.49-.593-3.598-.326-1.107-.68-2.163-.78-2.72-.42-2.31-.834-4.804-1.94-7.44-.165-.39-.335-.76-.5-1.153-.47-1.12-1.055-2.16-1.657-3.126.04-.2.096-.413.09-.69-.005-.41-.1-1.084-.69-1.653-.42-.41-.97-.583-1.4-.622-.41-.58-.82-1.12-1.187-1.684-.98-1.504-2.33-2.39-3.53-3.094-1.2-.706-2.29-1.274-2.846-1.75-2.06-1.77-5.03-2.857-7.19-3.44-.47-.126-.94-.247-1.41-.375-2.37-.64-4.816-1.17-6.905-1.84-1.1-.356-2.234-.49-3.28-.5zm242.19 1.97c-8.77-.058-17.45 3.155-23.373 10.124-2.95 3.465-3.33 7.27-3 10.686.33 3.42 1.17 6.62.97 9.91-.065 1.02-.36 1.335-1 1.72-.643.38-1.81.63-3.13.623-2.64-.016-5.97-1.288-6.622-1.846-.88-.75-1.15-1.37-1.22-2-.063-.63.15-1.38.597-2.16.84-1.455 2.66-2.76 3.813-3.093.207.18.52.6.687.97.13.29.12.437.13.53-1.037.43-1.52 1.62-1.095 2.658.43 1.038 1.62 1.523 2.656 1.094 1.276-.465 2.252-1.706 2.47-2.875.214-1.164-.064-2.19-.47-3.09-.406-.9-.977-1.7-1.72-2.34-.74-.645-1.78-1.257-3.15-1-2.785.52-5.31 2.45-6.846 5.123-.768 1.338-1.27 2.916-1.095 4.595.08.73.32 1.46.66 2.16-.82.005-1.65.1-2.5.437-1.25.5-2.42 1.52-3.122 2.94-1.623 3.28-1.97 6.705-.97 9.654 1.008 2.95 3.46 5.34 6.785 6.22 3.085.814 5.735 1.025 8.095.28 2.312-.73 4.12-2.435 5.44-4.657-.008.04 0 .087 0 .125-.14 2.182-.278 4.34-.41 6.53l-.314 5.12c-.134 2.185.05 4.185-.06 6.03-.06.973-.13 1.938-.19 2.908-.113.068-.21.14-.31.22-3.98 3.25-9.054 5.25-12.72 7.75-1.83 1.25-3.465 2.72-4.03 4.88-.565 2.157.18 4.52 1.97 6.97 2.785 3.82 7.97 7.455 10.72 10.875 1.37 1.715 2.02 3.21 1.9 4.316-.08.793-.51 1.692-1.81 2.75-.69-.158-1.41-.238-2.154-.314-1.323-.13-2.714-.195-3.875-.25-.51-.02-.6-.03-1-.06-.35-.57-.99-.92-1.66-.91-.3.007-.58.077-.84.22-.25.13-.48.27-.75.5-.267.227-.706.6-.78 1.467-.074.87.56 1.623.937 1.872.375.25.635.313.874.374.96.247 1.855.26 3.03.31-.26.087-.62.177-.84.25-.55.196-.88.307-1.34.597-.114.08-.254.16-.437.35-.18.19-.503.517-.56 1.22-.055.708.46 1.46.814 1.72.35.257.554.305.72.345.666.16.894.06 1.28.03.39-.027.81-.06 1.28-.126 1.09-.144 2.23-.34 3.315-.56-.31.485-.6.97-.844 1.47-.42.87-.635 1.405-.72 1.56-.08.154.006.09-.403.405-.822.64-.95 1.83-.31 2.657.64.828 1.8.984 2.63.345.627-.486 1.17-1.09 1.47-1.66.295-.565.37-.97.72-1.69.135-.28.59-.88 1.06-1.62-.173 1.43-.32 2.742-.5 4.22-.353 2.854-.727 5.58-1 7.5-.083.583-.157.92-.22 1.31-.254.18-.53.405-.53.405-.323.666-.265 1.43.156 2.033.13.182.293.34.47.47.15.224.393.52.904.715.64.25 1.47.057 1.84-.19.03-.02.068-.04.095-.06.062.005.094.03.16.03 1.16.07 2.73.15 4.374.25 3.287.205 6.847.43 7.97.5 2.725.168 5.497.335 8.313.28-.03.13-.06.27-.063.407-.45 9.84 1.015 25.52 1.064 37.403-.146.19-.276.416-.346.656.035-.12-.7 1.3-1.75 2.714-1.05 1.417-2.42 3.1-3.81 4.785-1.17 1.41-2.296 2.77-3.315 3.962-.04.045-.09.08-.127.125-1.785 2.14-5.57 4.826-1.72 6.78.746.12 1.48-.183 1.94-.78.58-.694 3.54-4.04 6.376-7.47.87-1.05 1.733-2.11 2.53-3.126-.16 2.517-.25 5.813.25 8.593.095.753.605 1.416 1.315 1.686s1.49.1 2.06-.405c.57-.505.84-1.26.66-2-.44-2.43-.337-5.78-.16-8.66.844-13.8-1.378-33.11-.876-44.09.02-.286-.028-.58-.126-.845.35-.035.71-.043 1.06-.092 3.485-.472 8 .628 12.404 1.037.1.388.255.907.47 1.66.47 1.674 1.22 4.22 2.09 7.124 1.746 5.81 5.356 17.15 6.91 21.53.815 2.304 1.685 5.296 2.47 8.406-.02.035-.05.06-.066.096-.358.71-.276 1.56.22 2.184.16.215.343.427.53.627.74 3.276 1.335 6.486 1.592 9.03.086.84.17 1.67.25 2.5.11 1.13 1.124 1.92 2.25 1.81 1.13-.11 1.923-1.09 1.813-2.22l-.25-2.5c-.15-1.49-.38-3.12-.686-4.84 2.064 1.33 4.28 2.63 5.934 3.75 2.13 1.447 8.44 6.137 10.47 7.128.66.34 1.44.31 2.06-.1 1.163-1.254-.02-3.094-3.717-5.78-2.786-2.02-5.79-4.16-6.5-4.66-1.88-1.27-4.2-2.593-6.22-3.903-1.27-.82-2.466-1.666-3.28-2.343-.91-3.83-1.995-7.63-3.035-10.56-1.497-4.214-5.11-15.564-6.847-21.345-.866-2.89-1.6-5.42-2.062-7.06-.03-.113-.03-.145-.06-.25 3.88.237 7.75.482 11.63.72 2.85.174 5.71.356 8.56.53.07.005 1.59.347 2.937.687.676.175 1.35.325 2 .44.656.12 1.19.26 2.065.095.74-.1 1.363-.61 1.622-1.314.18-.506.18-1.024-.03-1.5-.01-.09 0-.17 0-.28l-.1-2c-.08-1.657-.204-3.844-.314-6.034-.11-2.19-.23-4.41-.31-6.064l-.094-1.97c-.01-.24.005-.46 0-.59 0-.03-.03-.04-.03-.067.095-1.52.47-2.82.59-4.78.003-.02 0-.04 0-.07.246-8.15 1.133-12.255 1.03-20.594.12-1.94.743-8.25.877-10.44.012-.22.012-.43.03-.658.04-.005.09-.02.124-.03 8.786-2.375 21.26-10.09 24.5-30.78.21-1.337.806-2.3 1.47-2.97.01.005.024.03.03.032.54.196.924.15 1.22.095 1.264-.244 2.36-.88 3.5-1.564 1.14-.68 2.286-1.44 3.25-2.092.43-.29.534-.35.875-.56.93.362 1.957-.068 2.377-.97.125-.255.235-.47.31-.81.08-.346.21-.917-.25-1.66-.454-.74-1.42-.992-1.87-.97-.45.027-.676.128-.906.22-.91.373-1.65.937-2.622 1.594.16-.22.4-.53.53-.72.33-.48.526-.77.72-1.28.05-.13.09-.277.127-.53.033-.26.093-.72-.283-1.32-.377-.6-1.22-.88-1.658-.876-.437.003-.627.09-.78.155-.63.27-.77.47-1.067.72-.295.25-.596.54-.937.877-.79.764-1.61 1.61-2.345 2.434-.04-.57-.08-1.17-.186-1.72-.186-.942-.35-1.48-.38-1.65-.024-.17-.042-.093.097-.59.16-.55.08-1.15-.25-1.62-.33-.47-.87-.746-1.44-.78-.9-.056-1.71.533-1.94 1.405-.214.76-.29 1.523-.19 2.154.1.63.26 1.032.41 1.81.107.55.094 2.48.377 4.03.07.39.167.777.377 1.22.05.11.106.25.187.377-1.15 1.187-2.13 2.857-2.47 5-2.874 18.37-12.867 24.89-20.5 27.32.14-1.243.264-2.5.344-3.81.11-1.8.968-4.785.44-7.626-.394-2.13-.25-4.35-.09-6.97.183-3.015.054-5.616.22-8.28.1-1.628.102-3.266.122-4.845.68.22 1.37.34 2.03.38 1.226.073 2.38-.077 3.41-.346 1.03-.27 1.9-.59 2.72-1.316 1.566-1.38 2.86-3.332 3.406-5.62.547-2.282.203-5.07-1.75-7.12-3.814-4.007-11.01 1.04-8.72 6.03.29.68.92 1.143 1.657 1.22.74.08 1.458-.237 1.88-.846.42-.606.484-1.4.154-2.06-.353-.776 1.446-2.215 2.097-1.53.913.96 1.04 2.004.72 3.34-.32 1.336-1.22 2.78-2.1 3.565-.033.004-.5.26-1.06.405-.637.17-1.44.26-2.156.22-.71-.042-1.3-.23-1.653-.47-.19-.13-.36-.25-.47-.44.13-2.17.25-4.71-.19-7.06-.407-2.18-.81-4-1.78-6.28-.26-.602-.65-2.702-2.13-4.38-.236-.27-.96-2-2.343-3.56-1.03-1.163-2.68-3.102-4.436-4.31-.39-.265-1.21-.95-2.06-1.622-.85-.67-1.628-1.352-2.875-1.75-2.29-.72-4.49-1.01-6.567-1.56-1.547-.406-2.82-.775-4.378-1.03-1.37-1.696-3.085-3.016-5.06-3.813-3.09-1.243-6.37-2.047-9.69-2.406-.62-.064-1.25-.12-1.875-.154-.582-.03-1.162-.056-1.75-.06zm-248.53 2.22c.51-.007 1.05.02 1.69.06 1.695.114 3.416-.03 4.75-.06.8-.017 1.45.01 1.905.155 2.344.755 4.906 1.3 7.154 1.907.47.13.91.28 1.38.41 1.69.46 4.593 1.68 5.62 2.565 1.14.98 2.37 1.576 3.41 2.185 1.04.61 1.83 1.18 2.22 1.78.29.45.58.885.874 1.313l-.25.186c-.89.664-1.82 1.385-2.657 1.874-.835.49-1.585.62-1.53.622-4.37-.29-10.18-4.705-16.152-7.69-2.99-1.49-6.127-2.627-9.44-2.28-3.316.34-6.55 2.334-9.22 6.184-3 4.323-3.207 9.073-4.16 12.72-.95 3.642-2.09 6.173-7.31 7.872-1.77.58-2.78.48-3.44.19-.66-.287-1.17-.84-1.592-1.78-.21-.47-.37-1.022-.5-1.626.05-.51.09-1.053.126-1.56.103-1.63.25-3.473.53-5.063.04-.03.074-.065.12-.094.887-.53 2.17-.95 3.22-1 1.046-.06 1.69.23 1.97.56.27.33.596 1.103.06 3.154-.024.02-.1.1-.283.22-.366.25-1.03.56-1.75 1.19-.844.74-.93 2.03-.19 2.878.74.846 2.03.93 2.88.19.156-.133.665-.442 1.314-.874.65-.43 1.59-1.156 1.94-2.44.765-2.844.49-5.258-.877-6.908-1.37-1.65-3.447-2.126-5.28-2.03-.53.025-1.05.113-1.564.22.29-.65.63-1.29 1.07-2.035.72-1.23 1.47-2.79 1.814-3.09 1.39-1.22 2.036-2.57 2.815-3.25 1.16-1.02 3.12-2.61 4.12-3.127.818-.42 1.668-1 2.5-1.5.837-.5 1.74-.89 1.66-.878 1.895-.342 4.12-.363 6.56-.687 1.84-.24 2.97-.456 4.5-.47zm248.595 1.84c.513.01 1.014.04 1.53.07.55.03 1.106.065 1.655.123 1.88.2 3.75.596 5.568 1.126-.187.02-.372.025-.562.06-2.156.403-4.694.636-7.125.97-.48.066-.99.12-1.47.186-2.216.305-5.26 1.007-7.53 2.5-.61.404-1.75.83-3.03 1.376-1.28.55-2.75 1.23-3.91 2.597-1.78 2.1-4.13 4.214-5.81 7.123-.216.37-.41.755-.63 1.123-.29.505-.54.98-.78 1.47-.13-.82-.24-1.59-.312-2.34-.285-2.94-.116-5.127 2.06-7.69 5.045-5.933 12.63-8.74 20.344-8.69zM72.6 215.1c2-.09 4.298.68 6.81 1.938 5.365 2.68 11.19 7.633 17.69 8.063 1.567.1 2.724-.54 3.843-1.19 1.12-.66 2.166-1.43 3.062-2.1.04-.03.05-.04.09-.06.51.82.96 1.63 1.31 2.47l.5 1.18c.89 2.14 1.3 4.25 1.72 6.57.19 1.08.58 2.16.87 3.16.29 1 .45 1.95.435 2.16-.124 1.876-.25 3.75-.375 5.625-.23.07-.48.176-.75.315-1 .51-1.42 1.72-.906 2.72.28.55.81.93 1.37 1.06-.06.85-.1 1.71-.16 2.56-.09 1.332-.19 2.67-.28 4-.12-.067-.24-.12-.38-.16-.09-.05-.24-.16-.41-.28-.35-.24-.81-.57-1.25-.91-.44-.332-.87-.676-1.22-.936-.17-.13-.34-.24-.5-.343-.078-.05-.136-.08-.28-.15-.07-.035-.144-.095-.344-.155-.2-.06-.645-.388-1.56.22-.668.44-.718.633-1.063 1-.348.36-.73.78-1.098 1.12-.03.03-.06.03-.096.06-.198-.32-.294-.54-.594-.91-.323-.4-.82-.96-1.81-1.094-.99-.134-1.903.463-2.375 1.03-.434.53-.974 1.12-1.466 1.47-.494.35-.746.4-.97.344-2.178-.55-3.878-.24-5.156-.81-1.507-.676-3.43-2.69-5.44-3.876-.317-.192-.69-.27-1.06-.25-.81.048-1.5.62-1.69 1.406-.187.79.175 1.597.875 2 .296.175.69.49 1.126.844.15.61.6 1.106 1.22 1.28-.07 0 .05.077.25.35.326.44.744 1.16 1.22 1.97.95 1.614 1.96 3.56 3.78 4.78 3.33 2.23 5.29 3.984 9.84 4.59 3.707.496 6.787-.84 9.75-3.187-.17 1.315-.4 2.72-.5 4.25-.14 2.09-.267 4.16-.406 6.25-.13 1.895-.55 4-.72 6.16-5.9 3.37-13.77 6.01-20.88 6.657-1.64.15-4.77.203-7.782.093-3.01-.106-6.11-.456-7.125-.81-.766-.267-1.76.16-2.097.5-.337.343-.42.56-.5.75-.156.38-.194.655-.25.97-.114.63-.195 1.352-.25 2.123-.07.99-.1 1.94-.094 2.75-1.2-.44-2.33-.89-3.31-1.41-8.02-4.21-17.74-8.173-21.19-15.94.04-.98.097-1.84.13-2.34.195-2.953.1-5.843.28-8.59.16-2.45-.033-5.36.375-6.624.868-2.7.986-5.29 1.158-7.88.18-2.75.65-5.28.842-8.22.01-.174.01-.384.03-.56.35.25.74.474 1.15.654 1.77.778 3.91.78 6.31 0 6.375-2.07 8.898-6.5 10-10.72 1.1-4.213 1.343-8.24 3.56-11.433 2.214-3.19 4.195-4.253 6.28-4.47.134-.013.276-.024.41-.03zm257.968.157c.09-.006.182 0 .28 0 1.304.005 3.46.56 5.69.75-3.304 4.475-6.89 9.515-10.5 14.03-4.068 5.087-8.233 9.38-11.408 10.97-.072.035-.15.052-.218.094-3.198 2.1-10.994 2.44-15.47 2.21.057-.91.102-1.81.157-2.72.01-.21.3-1.14.72-2.09.42-.96.92-1.99 1.25-3.03.71-2.25 1.4-4.28 2.56-6.29.21-.36.41-.75.62-1.12 1.28-2.21 3.34-4.15 5.34-6.5.46-.54 1.33-1.02 2.44-1.5 1.1-.47 2.4-.89 3.65-1.72 1.13-.74 4.13-1.63 5.87-1.87.48-.06.96-.12 1.44-.19 2.3-.32 4.89-.55 7.31-1l.25-.03zm14.687 2.5c1.52.33 2.93.572 4.18.97-.08-.026.8.49 1.56 1.092.76.6 1.554 1.26 2.31 1.78.93.64 2.632 2.5 3.654 3.65.68.77 1.15 2.21 2.37 3.59.3.34.85 1.93 1.4 3.25.393.93.683 1.73.902 2.53-.51-.16-1.055-.28-1.626-.32-3.62-.22-5.28-.77-6.625-1.85-1.342-1.07-2.56-2.97-4.53-5.97-1.02-1.55-1.692-4.54-2.874-7.25-.22-.51-.45-1.01-.75-1.5zm-5.6.812c.12-.02.24 0 .34 0 .43 0 .68.13.934.31.41.29.89.97 1.34 2 .9 2.06 1.45 5.24 3.18 7.87 1.94 2.95 3.27 5.18 5.402 6.87 2.134 1.7 4.89 2.504 8.91 2.75.71.043.994.22 1.19.374.196.16.365.383.53.843.335.92.43 2.58.75 4.31.04.19.075.38.126.56-.174 2.85-.086 5.86-.25 8.56-.18 2.94-.05 5.56-.22 8.31-.157 2.58-.36 5.15.157 7.933.24 1.31-.32 4.175-.47 6.625-.17 2.746-.63 5.57-.81 8.53-.058.876-.238 2.747-.41 4.69-.22-.014-.378-.04-.72-.064-.263-.014-.48-.06-.78-.06-.297 0-.655.08-1.186.28-1.715.65-4.866.95-8.25 1-3.386.05-7.07-.124-10.22-.155-13.61-.13-30.134-2.476-42.406-2.78.08-1.32.17-2.62.25-3.94.14-2.29 0-4.558.123-6.56.13-2.09.243-4.19.37-6.28.135-2.227-.017-4.206.093-6 .103-1.71.205-3.447.31-5.16.133-2.184.27-4.34.405-6.53.11-1.82.2-3.644.312-5.47 4.67.275 12.58.49 17.75-2.78 0 0 .022-.027.03-.03.06-.04.123-.053.19-.094l-.037-.03c.395-.2.8-.415 1.19-.657.11.15.23.262.37.374.58.45 1.256.61 1.97.652.596.04 1.268-.075 1.81-.468.548-.392.836-.987.94-1.47.21-.96.01-1.677-.093-2.25-.04-.2-.137-.41-.25-.623 2.224-2.137 4.426-4.72 6.624-7.47 3.666-4.58 7.247-9.626 10.47-14zm257.22 1.75c-.3 0-.54.07-.75.12-.85.21-1.4.55-1.44.56-.338.13-.64.36-.848.65-.506.71-1.148 1.56-1.06 3.04.04.74.455 1.69 1.185 2.19.73.51 1.544.65 2.406.66.718.002 1.527-.18 2.157-.69.63-.51.937-1.26 1.032-1.845.19-1.17-.087-2.01-.25-2.69-.157-.64-.675-1.417-1.408-1.75-.37-.17-.73-.25-1.03-.25zm-132.38.03c-.3 0-.636.05-1 .22-.73.34-1.225 1.14-1.378 1.78-.16.68-.447 1.52-.25 2.69.1.58.43 1.3 1.062 1.81.63.5 1.41.69 2.12.69.86-.01 1.65-.18 2.37-.69.72-.51 1.18-1.42 1.22-2.16.07-1.47-.59-2.33-1.1-3.03-.21-.29-.48-.53-.818-.66-.04-.02-.62-.36-1.47-.57-.21-.05-.48-.097-.78-.095zm-271.75 3.15c-.13.01-.24.04-.346.06-.84.16-1.4.45-1.44.47-.34.11-.63.32-.85.59-.53.66-1.2 1.462-1.19 2.902 0 .72.372 1.656 1.06 2.187.68.53 1.47.732 2.31.78.7.043 1.45-.098 2.09-.56.64-.46 1-1.155 1.127-1.72.25-1.128 0-1.985-.12-2.656-.117-.63-.58-1.416-1.28-1.78-.347-.18-.67-.264-.967-.28-.075-.006-.15 0-.22 0-.07.002-.124-.008-.19 0zm-99 11.9c-.2.01-.42.07-.66.16-.627.24-1.114.83-1.28 1.35-.18.555-.464 1.24-.376 2.22.04.49.26 1.14.75 1.595.49.46 1.15.646 1.75.685.71.05 1.36 0 2-.374.63-.374 1.04-1.14 1.12-1.75.16-1.215-.31-1.98-.69-2.594-.16-.254-.39-.434-.66-.56-.03-.017-.47-.338-1.16-.565-.17-.05-.374-.14-.624-.15-.063-.004-.12 0-.188 0zm247.81 4.79c-.2.01-.42.04-.657.13-.626.235-1.084.853-1.25 1.372-.173.554-.467 1.24-.374 2.22.046.49.29 1.136.78 1.593.495.456 1.125.62 1.72.655.716.043 1.367 0 2-.377.63-.38 1.08-1.14 1.156-1.75.153-1.218-.34-1.95-.72-2.566-.16-.254-.415-.465-.687-.59-.033-.016-.433-.34-1.124-.564-.18-.057-.41-.11-.66-.127h-.19zm-61.126 1.47h.34c.15.01.3.01.47.03 1.35.17 3.08 1.09 3.28 1.25.76.655.87 1.26.75 1.91-.12.62-.58 1.2-1.13 1.47-.23-.09-.49-.205-.75-.22-1.03-.085-1.96.613-2.16 1.623-.2 1.01.39 2.03 1.37 2.344 0 .004.027 0 .03 0 .096.07.04.07.22.156.42.21 1.027.3 1.5.25.47-.05.85-.19 1.28-.375 1.917-.817 3.227-2.547 3.594-4.5.173-.91.103-1.9-.187-2.845.9.13 1.814.213 2.75.22 1.045.004 2.11-.08 3.12-.347-.03.56-.09 1.13-.123 1.69-.753.5-1.36 1.12-1.78 1.78-.98 1.52-1.46 3.1-2.125 4.25-.987 1.7-1.95 2.49-3.25 2.903-1.306.414-3.177.396-5.846-.31-2.135-.565-3.37-1.805-3.97-3.563-.6-1.752-.47-4.09.75-6.56.3-.6.59-.832 1-1 .23-.09.52-.134.844-.153zm49.84 3.97c-.6.01-1.16.35-1.44.88-.46.832-.39 1.36-.41 2.03-.01.67.032 1.41.09 2.154.12 1.493.3 3.005.377 3.72.094.904.91 1.595 1.81 1.5.904-.096 1.565-.94 1.47-1.845-.087-.83-.267-2.253-.376-3.624-.052-.686-.1-1.36-.092-1.845.004-.24.04-.476.062-.592-.016.02-.037.01-.06.06.29-.51.3-1.12 0-1.63-.3-.503-.85-.82-1.44-.81zM602 247.55c-1.066 1.42-1.792 2.75-2.47 3.78-.786 1.196-1.437 2.005-2.687 2.72-3.085 1.77-4.052 2.567-7.47 3.313-2.965.648-10.05-.702-12.967-2.25-.22-.126-.446-.197-.687-.25.07-2.12.2-4.274.25-6.5 3.66 2.22 6.71 2.723 11.47 2.75 5.1.035 10.07-1.415 14.56-3.56zm-142.47.03c4.507 2.13 9.48 3.53 14.594 3.47 4.754-.055 7.822-.55 11.47-2.78.062 2.226.196 4.373.28 6.5-.236.043-.466.13-.688.25-2.91 1.56-9.97 2.944-12.94 2.31-3.42-.725-4.403-1.53-7.5-3.28-1.253-.71-1.957-1.53-2.75-2.72-.682-1.024-1.395-2.335-2.47-3.75zm-288.25 2.157c3.456 2.35 6.457 2.974 11.094 3.25 4.976.298 9.854-.8 14.343-2.656-1.11 1.33-1.845 2.56-2.56 3.53-.83 1.13-1.524 1.9-2.78 2.53-3.1 1.57-4.1 2.27-7.47 2.82-2.925.48-9.735-1.18-12.5-2.84-.21-.13-.45-.22-.686-.28.18-2.07.4-4.17.57-6.34zm-68.156 5.063c.17.126.29.205.47.342.453.346.936.697 1.373 1 .22.152.447.28.658.406.213.126.335.255.813.375.41.12.823.088 1.19-.06-.04.63-.08 1.25-.125 1.877-.52-.056-1.053.13-1.438.5-3.08 2.744-5.105 3.82-8.19 3.407-3.866-.516-4.795-1.64-8.31-4-.327-.22-.83-.78-1.346-1.5 1.42.225 2.61.135 3.31.31 1.56.396 3.01-.21 4-.906.52-.36.93-.79 1.31-1.18.21.35.32.57.65 1 .41.54 1.21.89 1.81.88.6 0 1.01-.164 1.34-.34.67-.345 1.12-.772 1.59-1.22.33-.303.605-.59.876-.87zm209 1.592c-.53.037-1.026.32-1.31.812-.46.788-.19 1.795.592 2.25.34.2.78.49 1.25.846.156.496.54.91 1.06 1.06-.04.01.18.13.44.44.346.41.792 1.072 1.28 1.78.976 1.416 2.047 3.103 3.72 4.19 3.39 2.2 5.234 3.736 9.686 4.716 4.074.9 7.386-.155 10.72-2.22 1.36-.84 2.744-2.19 3.97-3.654 1.224-1.46 2.266-2.95 2.75-4.407.01-.024-.01-.037 0-.062.735-.45 1.57-.9 2.624-1.59.398-.26.527-.46.53-.47.52-.44.73-1.17.5-1.81-.222-.64-.816-1.072-1.5-1.092-.425-.01-.84.15-1.153.44-.118.11-.184.19-.218.22-1.59 1.04-2.937 1.59-4.5 2.97-.508.45-1.39 1.14-2.22 1.6-.728.41-1.35.49-1.5.5.08.05.103.09-.06.03l.06-.03c-.105-.05-.326-.14-.53-.28-.367-.24-.836-.58-1.28-.9-.45-.32-.906-.63-1.25-.874-.177-.12-.33-.22-.47-.31-.07-.043-.11-.096-.22-.154-.056-.03-.14-.044-.28-.094s-.28-.354-1.19.03c-.66.284-.755.467-1.093.72-.337.257-.712.52-1.06.75-.166.11-.24.148-.376.22-.254-.36-.46-.71-.873-1.16-.315-.34-.747-.77-1.5-.94-.755-.164-1.643.176-2.157.63-.42.37-.93.776-1.406 1-.477.223-.842.263-1.28.124-2.01-.634-3.778-.585-5.25-1.28-1.685-.798-3.668-2.674-5.56-3.78-.297-.17-.62-.21-.94-.19zm16 7.094c.24.33.49.704.97 1.25.376.424.94.67 1.404.716.47.05.87-.026 1.187-.127.64-.2 1.123-.5 1.593-.81.384-.252.703-.493 1-.72.26.19.5.34.813.564.46.33.95.68 1.38.97.43.28.61.49 1.32.71.62.19 1.21.2 1.75.12-.61.583-1.21 1.1-1.65 1.372-3.01 1.86-5.07 2.53-8.34 1.81-3.975-.876-5.094-1.99-8.62-4.28-.285-.185-.595-.46-.94-.845 1.18.242 2.21.332 2.94.56 1.357.43 2.65.144 3.626-.314.653-.303 1.16-.65 1.594-1zm182.124 1.123c-.308-.01-.583.02-.844.09-1.04.27-1.717 1.01-2.28 1.62-.75.82-1.347 1.73-1.813 2.53-.43.65-.47 1.48-.12 2.15s1.02 1.08 1.78 1.06c.76-.02 1.48-.46 1.85-1.16.38-.63.89-1.34 1.28-1.78.22-.24.32-.298.29-.31 1.036-.09 1.86-.97 1.94-2.03.076-1.1-.655-2.037-1.72-2.16-.107-.01-.24-.03-.344-.03zm6.187 5.06l-.78.18s-.24.14-.315.19c-.287.2-.327.26-.375.31-.093.1-.1.12-.124.15l-.09.125c-.06.08-.13.164-.22.28-.16.24-.38.585-.62.94-.48.71-1.05 1.535-1.44 2.092-.46.622-.58 1.433-.28 2.123.3.69.97 1.144 1.72 1.186.75.04 1.46-.32 1.88-.97.4-.58.99-1.42 1.47-2.124.24-.35.48-.66.63-.874.03-.034.01-.062.04-.093.465-.49.695-1.187.595-1.845l-.594-1.124zm-223.374 8.44c-.03 1.82.03 3.55-.06 5.06-.12 1.99-.22 4-.34 6-.13 2.18.02 4.13-.09 6-.11 1.9-.22 3.81-.34 5.72l-.06 1c-.08-.11-.16-.21-.25-.32-3.31-4.12-8.53-7.9-10.59-10.72-1.422-1.95-1.574-3.07-1.37-3.84.2-.77.99-1.65 2.5-2.69 2.52-1.72 6.662-3.51 10.622-6.22zm-250.37 4.9c5.24 5.51 12.92 8.62 18.75 11.68 4.02 2.11 8.8 3.29 11.54 5.03v.18c-2.26-.57-4.61-.46-6.91-.37-2.75.11-5.42.21-7.46-.31-1.12-.285-2.01-.36-2.6-.41-.05-.396-.11-.867-.19-1.813-.06-.775-.62-1.577-1.15-1.907-.53-.33-.99-.38-1.404-.44-.83-.104-1.59-.07-2.347 0-.76.076-1.49.18-2.03.22-.144.016-.21.03-.313.03-.13-.15-.37-.43-.62-.87-.422-.745-.88-1.784-1.342-2.874-.925-2.18-1.714-4.424-2.56-5.875-.464-.8-.93-1.56-1.34-2.28zm606.63.78c.1 0 .19.01.28 0v1.31c-.01 2.153-.22 4.01-.28 6.34-15.22 2.53-30.34 2.04-46 1.25-8.92-.71-18.76-.79-27.35-.405.02-2.21.02-4.41.03-6.62.01-.2.01-.393 0-.593 20.59-.61 28.76 2.95 57.82.596 1.72-.08 3.42-.135 5.1-.125 4.236.03 7.08-1.77 10.41-1.75zm-237.19.28c.1.01.21.03.31.03 3.33-.04 6.18 1.732 10.41 1.682 1.68-.02 3.38.02 5.1.09-.04.26-.08.835.13 1.626.54 2.03 1.61 5.89 2.78 9.15.59 1.635 1.17 3.105 1.85 4.25.34.577.63 1.095 1.345 1.596.36.25.906.52 1.596.5.694-.02 1.376-.398 1.75-.78 1.01-1.037 3.956-4.45 6.846-7.598 1.27-1.38 2.49-2.66 3.438-3.59.17.72.5 1.4.965 1.87.82.834 1.787 1.37 2.844 1.69-.81.584-1.205 1.317-1.563 2.186-.376.917-.672 2.007-.936 3.405-.97 5.17-.856 8.402.154 12.25.41 1.56.65 3.446 1.47 5.093.207.41.49.84.94 1.25.45.41 1.18.8 1.97.78 1.577-.037 2.398-.997 3.156-2.03.36-.487.693-1.097 1.22-2 .53-.907 1.15-2.01 1.75-3.128.603-1.11 1.17-2.202 1.594-3.12.213-.456.42-.854.56-1.25.07-.195.107-.4.157-.655s.265-.543-.09-1.404c-.3-.718-1.58-3.997-2.75-6.97-.59-1.488-1.16-2.926-1.63-4-.055-.13-.1-.225-.155-.346.31-.177.59-.397.78-.63.44-.534.61-1.052.72-1.5.21-.89.2-1.65.22-2.342 0-.324.01-.396.03-.626.38.29.85.43 1.34.405.18.11.284.17.59.405.993.753 2.45 2.013 3.91 3.373 1.455 1.36 2.95 2.834 4.154 4.064 1.208 1.23 2.2 2.345 2.345 2.53.28.37.71.785 1.432.97.73.188 1.577-.036 2.03-.342.917-.61 1.1-1.215 1.38-1.842.56-1.252.953-2.81 1.312-4.53.36-1.722.635-3.575.843-5.157.21-1.58.352-2.8.34-3.69-.007-.457.005-.89 0-1.346 2.76-.008 5.152.136 7 .564 0 .2-.004.392 0 .59l.092 8c.03 2.72-.698 5.583-.658 9 .017 1.1-.17 6.94-.372 12.5-.124 3.41-.27 6.555-.344 8.873-2.74-.043-6.29-.157-9.06-.126-1.46.02-2.91.117-4.343.22-.19-.01-.38-.002-.564.03-4.606.37-9.036.968-13.128.5-5.848-.66-11.295.586-15.97-.53-5.61-1.33-12.297.07-17 .128-3.28.04-6.224.34-9.25.377h-.375c-.05-.797-.11-1.708-.186-2.877-.17-2.598-.4-5.91-.62-9.22-.223-3.31-.455-6.61-.624-9.19-.17-2.57-.28-4.66-.28-4.75-.03-2.38-.546-4.287-.565-5.905-.03-2.77-.314-4.77-.342-7.19-.004-.44-.026-.9-.03-1.347zm62.47.47c0 .43-.01.85 0 1.28 0 .29-.09 1.602-.28 3.09-.2 1.49-.48 3.26-.81 4.84-.19.904-.39 1.4-.59 2.092-.333-.35-.49-.514-.903-.94-1.25-1.273-2.77-2.774-4.28-4.186-1.51-1.41-2.97-2.73-4.19-3.657-.61-.46-1.12-.83-1.75-1.12-.183-.085-.383-.187-.655-.25 2.277-.233 4.556-.44 6.81-.656 2.28-.215 4.53-.388 6.658-.5zm-300.41.68c1.49.027 3.11.137 4.82.28-.57 1.04-1.58 2.43-2.9 3.66-1.95 1.817-4.465 3.38-6.845 3.908-.04.01-.17.033-.28.03.136-2.32.3-4.647.436-6.97.01-.193-.01-.397 0-.593.97-.176 2.09-.25 3.34-.28.464-.01.944-.04 1.44-.03zm-71.25.097c-.49 1.487-.85 3.03-1.37 4.35-.41 1.055-.88 1.92-1.34 2.374-.45.456-.76.61-1.5.56-5.73-.38-9.17-.2-13.72-2.47 6.05-.55 12.4-2.31 17.94-4.81zm356.6.567c-.14.067-.3.115-.43.22-.04.03-.054.09-.092.125-.09-.067-.18-.14-.28-.19-.063-.03-.158-.05-.25-.06.353-.037.707-.06 1.062-.097zm-276.25.095c1.16.14 2.32.266 3.5.435 6.9.984 14.18 2.302 20.1 2.654 6.698.4 13.188 0 19.38.063-.098 2.05.512 3.953 1.5 5.5 1.28 2.015 3.13 3.53 4.967 4.72 2.96 1.91 5.84 2.966 6.908 3.31-.06.6-.2 2.04-.44 4.096-.285 2.502-.66 5.72-1.03 8.934-.375 3.217-.776 6.443-1.064 8.97-.13 1.133-.23 2.01-.314 2.78-.12-.007-.25.007-.373 0-2.95-.176-5.802-.59-9-.78-4.585-.276-11.027-1.977-16.563-.94-4.61.865-9.86-.59-15.596-.22-5.418.35-11.358-1.19-17.563-1.56-2.7-.16-6.17-.254-8.84-.345.036-2.268.086-5.336.125-8.66.06-5.43.126-11.114.19-12.19.12-2.017-.042-3.87-.16-5.597.32-.01.718-.033 1.12-.124 3.37-.75 6.39-2.678 8.75-4.877 2.11-1.96 3.71-4.03 4.41-6.19zm248.85.123c4.57.276 9.27.625 14.098.624-.326.267-.655.58-1.03.936-1.116 1.07-2.56 2.56-4.03 4.16-2.327 2.53-4.11 4.54-5.343 5.903-.34-.72-.676-1.4-1.06-2.47-1.077-2.99-2.134-6.738-2.657-8.72.013 0 .033-.22.03-.44zm-191.75 2c.2 0 .39-.013.598 0 .105.006.217.035.314.03-.025.432-.07.85-.094 1.28-.14 2.36-.497 4.3-.658 7-.04.654-.195 1.4-.342 2.157-1.32-.49-3.385-1.394-5.28-2.622-1.534-.99-2.905-2.186-3.72-3.47-.65-1.014-1.01-2.015-.907-3.22.156.01.32.026.47.035 3.87.233 6.63-1.17 9.627-1.187zm-199.22.124c.48 1.096 1.18 2.82 1.88 4.467.49 1.152 1.007 2.3 1.566 3.282.557.98 1 1.86 2.22 2.5.64.33.99.3 1.344.31.354.01.686-.01 1.03-.03.69-.06 1.432-.19 2.094-.25.37-.04.535 0 .813 0 .046.5.08 1.09.157 1.5.07.36.18.73.404 1.15.223.42.65.864 1.09 1.095.883.46 1.39.36 1.905.403.513.047 1.12.09 2 .317 2.88.73 5.82.543 8.53.435 2.704-.103 5.12-.113 6.69.5.05.024.1.05.15.066.01 1.82.005 3.525 0 3.815-.02 2.303-.54 10.193-1.09 17.97-.52 7.365-1.04 14.444-1.25 17.5-2.47.024-4.83.163-6.843.03-4.94-.327-9.9-.64-14.844-.97-2.85-.187-5.68-.37-8.53-.56-1.33-.09-2.353-.17-3.19-.44-.19-.06-.39-.118-.59-.125h-.03c.098-.92.22-2.038.376-3.47.34-3.19.797-7.448 1.25-11.69.453-4.24.88-8.465 1.22-11.66.17-1.594.336-2.93.436-3.873.05-.47.1-.84.127-1.096.01-.124-.01-.24 0-.31v-.03s.02-.01.03-.154c.13-1.97-.07-3.34.03-4.876.65-6.63.54-10.52 1.03-15.81zm411.84.46c.2.03.47.09.75.16.29.066.6.132.91.217.11.03.178.063.28.094-.003.29-.05.66-.06.94-.003.32-.04.45-.06.71-1.58-.16-2.78-.603-3.06-.78.114-.213.507-.7 1.25-1.343zm-382.44 1.03c1.3.236 2.76.386 4.32.47.13.068.29.12.436.158 1.35.395 5.45 1.895 6.81 2.656 5.855 3.27 10.43 3.047 16.346 3.438 1.775.12 3.397-.615 4.47-1.685.603-.602 1.05-1.284 1.435-2-.11 1.64-.2 3.3-.31 4.938-.12 1.81-.223 3.604-.343 5.41-.102 1.617-.23 3.23-.34 4.844-.072 1.11-.51 10.89-.936 20.53-.21 4.82-.44 9.54-.56 12.96-.06 1.713-.08 3.07-.094 4-.005.174 0 .296 0 .44-.02-.01-.057-.06-.065-.06l-.186-.03c-.06-.01-.077 0-.094 0h-1.47c-.84-.006-2-.026-3.22-.03-2.426-.02-5.18-.03-6.12-.097-4.31-.287-8.48-.6-12.38-1.66-1.21-.323-2.46-.514-3.69-.624.21-3.06.73-10.075 1.25-17.376.55-7.787 1.07-15.4 1.09-18.157.005-.4.018-2.686 0-4.91-.01-1.11-.033-2.21-.06-3.06-.017-.425-.01-.76-.03-1.064-.015-.15-.04-.3-.067-.465-.02-.083-.02-.155-.067-.313-.047-.153.093-.41-.72-1.03-1.64-1.254-3.57-2.14-5.53-2.904.01-.15.016-.29 0-.44-.023-.31-.003-2.076.097-3.466.01-.188.013-.294.03-.47zm226.1 1.69c11.815.297 28.47 2.647 42.53 2.78 3.04.03 6.756.21 10.31.16 3.44-.05 6.706-.254 9.345-1.19.04.006.34-.044.59-.03.195.012.375.046.593.062-.05.64-.1 1.274-.122 1.687-.006.05 0 .108 0 .158.11 8.144-.78 12.11-1.033 20.56-.094 1.535-.47 2.81-.594 4.78-.014.245-.003.254 0 .25v.186c.007.14.02.315.03.56.026.5.087 1.21.127 2.03.08 1.66.17 3.85.28 6.03.11 2.19.23 4.38.313 6.038l.03.59c-.175-.05-.35-.11-.53-.16-1.284-.32-2.44-.73-3.69-.81-2.85-.174-5.71-.36-8.56-.53-4.945-.3-9.87-.57-14.814-.88-3.024-.18-6.722-1.12-10.53-1.28-1.27-.05-2.573-.02-3.843.16-4 .55-8.166.293-12.47.03-1.116-.07-4.68-.27-7.97-.47-1.31-.08-2.45-.158-3.5-.22.004-.048.02-.08.03-.128.28-1.97.644-4.724 1-7.596.35-2.866.7-5.86.97-8.216s.46-3.92.5-4.593c.1-1.615.18-3.23.28-4.843.11-1.81.23-3.6.34-5.41.12-1.9.23-3.816.347-5.72.085-1.433.04-2.76.03-4zm352.28 4.25c-.1.8-.18 1.637-.19 2.565 0 .074-.1 1.736-.22 3.78-14.84 2.49-29.62 1.98-44.904 1.186-8.804-.72-18.5-.763-26.966-.375v-.153c.014-2.29-.314-4.326-.53-6.25 8.434-.37 18.2-.32 26.91.378.014.008.042 0 .06 0 15.356.78 30.47 1.3 45.844-1.122zm-340.22 2.127c-.896-.01-1.7.58-1.97 1.44-.264.86.07 1.78.815 2.28.11.076.2.157.37.595.177.44.363 1.14.813 2 .45.86 1.24 1.85 2.407 2.5 1.163.65 2.624 1.007 4.53 1.124 2.323.14 4.27-.97 5.31-2.284 1.044-1.312 1.5-2.662 2-3.53.4-.63.456-1.442.093-2.094-.36-.65-1.07-1.04-1.81-1.03-.742.01-1.432.405-1.78 1.064-.736 1.27-1.2 2.45-1.686 3.06-.49.612-.67.822-1.874.75-1.504-.09-2.36-.37-2.813-.627-.45-.25-.59-.445-.78-.81-.19-.364-.36-.915-.655-1.657-.3-.74-.81-1.746-1.817-2.44-.336-.24-.746-.34-1.156-.35zm-160.56.065c-.04.044-.074.056-.094.06.006-.005-.005-.02 0-.03.027-.013.085-.024.094-.03zm305.344 1.4c.66 1.32 1.35 3.316 1.905 5.31-.51-.67-1.03-1.38-1.25-1.81-.31-.6-.37-.88-.94-1.47-.047-.05-.12-.09-.187-.153l.03-.156c.15-.806.28-1.22.434-1.72zm-120.377.31c-.262.006-.52.05-.78.16-1.034.44-1.5 1.656-1.062 2.69.4.92.69 2.32 1.57 3.75.877 1.43 2.677 2.76 5 2.9 1.905.12 3.39-.06 4.626-.56 1.236-.5 2.136-1.36 2.69-2.16.55-.8.834-1.525 1.06-1.94.23-.41.29-.47.408-.53.823-.405 1.27-1.287 1.093-2.19-.173-.9-.93-1.593-1.84-1.657-.387-.03-.78.064-1.124.25-1.08.56-1.71 1.49-2.09 2.19s-.61 1.22-.84 1.56c-.236.34-.397.523-.878.72-.48.193-1.34.37-2.843.28-1.206-.076-1.34-.33-1.75-1-.41-.67-.767-1.86-1.345-3.22-.33-.776-1.08-1.25-1.877-1.25zm209.095 3.25c-.554.05-1.09.29-1.47.72-.04.03-.06.03-.122.066-.32.17-.835.44-1.404.683-1.136.496-2.56 1.03-2.906 1.123-.757.175-1.37.74-1.596 1.47-.225.73-.04 1.51.5 2.03.54.523 1.356.704 2.096.47.95-.26 2.223-.785 3.5-1.345.64-.28 1.24-.57 1.75-.84.255-.136.49-.25.75-.436.13-.094.253-.21.436-.407.184-.192.523-.45.624-1.28.15-1.08-.576-2.07-1.66-2.25-.09-.013-.16.004-.25 0-.08 0-.17-.006-.25 0zM87.3 303.9c-1.07-.016-1.95.81-1.97 1.878-.02 1.07.84 1.98 1.91 2 2.048.136 4.556.295 6.563.438 1.01.074 1.9.15 2.54.19.32.02.57.03.78.04.1.002.16.002.28 0 .06 0 .122.02.28 0 .072-.01.15-.03.4-.127.13-.048.304-.095.59-.345.145-.126.468-.595.468-.596l.22-1.03c-.036-.55-.32-1.07-.75-1.41-.43-.34-.99-.467-1.532-.375-.14-.004-.29-.015-.53-.03-.604-.035-1.47-.085-2.47-.156-1.994-.14-4.52-.33-6.592-.47-.06 0-.12.01-.184 0zm-77.09.72c.014-.01.043.017.03.03l-.07.066c.025-.055.015-.082.03-.092zm541.374.408c-.19.016-.353.066-.47.094-.303.075-.455.12-.592.186-.28.14-.44.27-.63.4-.37.263-.73.58-1.13.904-.8.65-1.74 1.4-2.04 1.595-.673.393-1.072 1.113-1.06 1.873.016.76.438 1.43 1.128 1.75.69.32 1.52.24 2.158-.22.83-.54 1.655-1.26 2.41-1.88.343-.28.645-.51.843-.66.805-.24 1.405-.94 1.53-1.75.13-.81-.235-1.586-.933-2-.28-.176-.54-.276-.78-.315-.08-.01-.145 0-.22 0-.07 0-.15-.006-.215 0zm96.72 1.125c-.12 1.91-.213 3.74-.344 5.85-14.617 2.448-29.19 1.98-44.25 1.19-8.71-.724-18.276-.794-26.657-.407-.08-2.095-.18-4.214-.25-5.904 8.32-.385 17.99-.3 26.6.406.02.005.04-.004.06 0 15.022.78 29.792 1.28 44.84-1.125zM67.98 308.13c-.686.116-1.224.64-1.41.938-.21.34-.245.5-.28.657-.14.627-.073.902-.062 1.28.02.762.068 1.728.06 1.845-.07 1.065.748 1.99 1.814 2.06 1.066.074 1.96-.745 2.03-1.81.048-.716-.004-1.37-.03-1.94.338-.604.325-1.34-.032-1.936-.075-.13-.142-.293-.343-.5-.203-.207-.616-.583-1.44-.594-.102 0-.214-.015-.31 0zm387.56 2.53c.076.053.14.143.22.19l-.158.28c-.024-.142-.034-.32-.062-.47zm192.156 5.533c-.108 1.782-.256 3.73-.344 5.188-.07 1.17-.11 2.08-.156 2.88h-.375c-3.02-.02-6-.29-9.28-.31-4.7-.03-11.36-1.42-16.97-.06-4.67 1.14-10.15-.06-16 .63-4.09.49-8.51-.06-13.12-.4-.17-.03-.32-.04-.5-.03-1.44-.1-2.9-.17-4.37-.18-2.77-.02-6.32.1-9.06.153-.07-1.876-.2-4.53-.31-7.19 8.23-.38 17.76-.3 26.25.408h.07c14.8.78 29.37 1.3 44.19-1.06zM68.04 321.036c-.823-.01-1.538.6-1.75.938-.21.34-.245.53-.28.687-.14.63-.073.88-.063 1.25.02.77.07 1.76.063 1.88-.05.7.267 1.34.844 1.72.576.39 1.347.44 1.968.13.62-.3 1.022-.93 1.063-1.62.047-.71-.036-1.37-.063-1.94.344-.6.33-1.33-.03-1.93-.077-.13-.143-.29-.345-.5-.2-.2-.583-.58-1.406-.59" fill="#fff"/></g></svg>