<svg xmlns="http://www.w3.org/2000/svg" viewBox="0 0 1038 339"><path d="M206.275 99.676c-.635.035-1.24.4-1.567.952-.323.548-.358 1.26-.08 1.832 5.172 11.142 10.323 16.41 16.343 19.638 2.88 1.543 5.89 2.632 9.17 3.774 6 .83 13.29 2.238 18.62 3.985.66.21 1.81.37 3.04 1.02.32.166.67.376.99.67.16-.02.33-.035.48-.054.49-.063.94-.127 1.33-.2.4-.078.62-.055 1.23-.39.16-.084.37-.187.65-.533.28-.346.577-1.23.337-1.914-.243-.69-.653-.922-.883-1.06-.23-.136-.372-.185-.51-.23-.53-.165-.883-.18-1.483-.224-.234-.02-.63-.03-.907-.038 1.143-.367 2.062-.617 2.94-1.114.22-.128.47-.254.776-.6.305-.348.73-1.27.43-2.115-.31-.845-.857-1.104-1.185-1.26-.32-.156-.592-.22-.88-.283-.186-.043-.38-.063-.57-.053-.778.05-1.49.62-1.716 1.36v.01c-.39.13-.5.18-1.01.34-1.137.36-2.495.785-3.774 1.27-1.28.49-2.46.955-3.47 1.82-.19.165-.434.39-.615.77-.077-.06-.165-.11-.253-.156-8.933-4.04-15.564-5.39-20.892-8.24-5.322-2.853-9.687-7.15-14.652-17.843-.317-.713-1.1-1.192-1.874-1.153zm46.347 38.267c-.048.063-.097.122-.147.185.147-.043.3-.087.455-.146-.074-.01-.294-.034-.307-.04zM174.767 154.1c-.64.04-1.246.42-1.562.977-.323.556-.353 1.27-.07 1.845 5.695 11.856 12.55 25.786 15.7 37.89.434 1.66 1.005 3.33 1.752 4.966.054.113.083.235.136.348l.01-.015c.587 1.65 1.924 2.43 3.32 3.16 1.5.79 3.258 1.45 4.995 2 1.74.55 3.443 1 4.752 1.31.654.16 1.205.28 1.615.36.415.1.547.13.83.18 1.02.16 2.085-.63 2.236-1.64.16-1.01-.63-2.08-1.64-2.23.16.025-.2-.04-.59-.12-.38-.08-.92-.198-1.54-.35-1.24-.297-2.86-.717-4.46-1.23-1.61-.51-3.23-1.124-4.36-1.73-1.14-.6-1.57-1.336-1.482-1.015-.034-.116-.08-.234-.136-.346-.686-1.43-1.2-3-1.62-4.62-3.31-12.73-10.29-26.764-15.964-38.586-.33-.71-1.12-1.184-1.905-1.135z" fill="#fff"/><path d="M170.835 222.572c-13.735 4.775-27.475 9.54-41.21 14.326 2.68 6.914 5.33 13.843 7.993 20.767 14.126-4.614 28.256-9.23 42.387-13.843-2.817-7.17-5.576-14.35-8.374-21.524l-.41.142-.38.132z" fill="#e6e6e6"/><path d="M227.056 125.32c-.914-.01-1.74.562-2.046 1.422-.337.923-.8 2.15-1.075 3.52-.267 1.373-.4 3.013.47 4.575.288.518.776.89 1.35 1.032 1.028.26 2.145.49 3.308.7-.137.75-.293 1.61-.347 2.57-.063 1.18-.04 2.52.723 3.83.32.56.88.94 1.52 1.033 4.15.66 9.81.28 13.53.293.12 0 .26-.006.38-.03.86-.146 1.12.2 2.68.11.572-.036 1.39-.394 1.98-.91.38.05.71-.006.91-.03.4-.044.69-.12 1.16-.17-.076.004.5.004.94 0-.14 1.29-.38 2.95-.34 4.843.08 3.124.204 6.302.54 9.5.01.084.03.162.05.245.517 2.395 1.255 4.402 1.953 6.433-.175.13-.346.3-.477.482-.378.52-.495 1.183-.324 1.803 1.4 5.43 3.245 10.714 5.13 15.93-32.735 5.237-56.69 9.046-98.204 13.33-.42.042-.8.21-1.11.452l-11.528-29.65c1.94-.337 3.857-.825 5.68-1.5 3.016-1.113 6.43-1.74 9.78-2.983 2.91-1.07 5.82-2.354 8.513-3.16 1.173-.342 3-.84 4.683-1.68.843-.42 1.663-.91 2.382-1.645.717-.73 1.357-1.856 1.337-3.136-.007-.53.09-1.29-.027-2.272-.117-.973-.586-2.23-1.58-3.142-1.01-.93-2.166-1.48-3.24-1.77-1.073-.29-2.046-.377-3.09-.547-3.536-.58-7.193-.353-10.493-.308-3.654.05-7.35-.32-11.27-.27-5.763.07-11.39.34-17.06.41-1.407.02-4.234-.13-6.973.054-1.374.09-2.73.272-4.006.653-1.276.38-2.574.954-3.453 2.233-.03.04-.055.08-.085.12-1.61 2.75-3.5 5.006-4.08 7.926-.29 1.46-.09 3.15.78 4.6.87 1.456 2.254 2.67 4.19 3.9 2.48 1.71 5.354 2.5 8.42 2.89 4.17.536 8.39.32 12.445.27.916-.01 1.835-.06 2.753-.125l3.79 9.77c-5.26 8.58-10.607 18.15-15.93 27.973-12.57-6.98-26.2-9.94-39.5-9.236-16.045.845-31.6 7.032-44.204 17.867-.195-.07-.394-.11-.615-.116-3.144-.12-5.6-.15-7.56-.05-1.96.09-3.44.31-4.65.71-.113.04-.21.14-.33.182-.395-.19-.84-.254-1.273-.186-.816.13-1.783.29-2.793.818-1.014.53-1.932 1.45-2.61 2.67-1.76 3.175-2.613 7.22-1.524 10.616.54 1.705 1.493 3.85 3.53 5.274.346.25.755.46 1.19.62-1.49 2.915-3.16 6.58-4.658 10.585-2.477 6.62-4.5 13.99-4.1 20.186.013.11.03.222.053.335.423 1.86 2.195 3.026 3.695 3.315 1.5.295 2.99.14 4.43-.105 1.19-.196 2.296-.463 3.25-.71-.007.33-.01.65-.01.98-.34 36.084 27.81 65.723 62.905 66.054 26.07.242 48.64-15.765 58.66-38.807l35.647 5.153c.064.013.13.023.2.03 7.797.26 13.92-3.098 17.76-8.07.516.41 1.044.822 1.527 1.212-.05.17-.07.352-.07.533-.005.18-.064 1.42-.054 2.597.01.585.03 1.172.09 1.74.037.28.086.57.18.9.09.323.1.753.853 1.36 1.966 1.59 3.206 3.07 5.447 3.563 1.12.24 2.525-.114 3.454-.875.93-.754 1.565-1.74 2.24-3.02.583-1.122.974-1.96 1.19-2.875.21-.924.09-2.174-.484-2.99-1.14-1.625-2.165-1.66-3.4-2.66-1.12-.904-1.92-1.92-3.654-2.36-.87-.214-2.08-.033-2.89.538-.09.06-.137.137-.216.2-.62-.503-1.26-1.02-1.913-1.54 2.2-4.35 3.06-9.39 2.555-14.32-.01-.06-.01-.115-.01-.173-.01-.02-.02-.043-.02-.06-.22-2.35-.79-4.62-1.66-6.72-.107-.27-.23-.535-.346-.79-.038-.09-.068-.17-.107-.257-.016-.03-.03-.055-.04-.085-.875-1.91-1.97-3.67-3.267-5.26l55.196-65.677c.64 2.01 1.22 4.012 1.736 6.025.25.958 1.13 1.62 2.115 1.608l1.434-.014c.686-.01 1.296-.16 1.834-.36.19.562.37 1.12.56 1.69-22.234 14.224-35.7 40.36-34.19 68.9v.012c.4 6.55 2.88 24.294 10.922 33.752.07.083.15.15.24.224 1.13.97 2.65 1.44 3.94 1.18 1.283-.26 2.16-1 2.83-1.688.506-.512.89-1.01 1.218-1.46 11.386 16.568 30.054 27.466 51.265 27.666 35.094.33 63.863-28.765 64.205-64.848.26-27.316-15.86-50.924-38.92-60.94.552-.764 1.182-1.64 1.807-2.64 1.053-1.673 2.162-3.3 2.152-5.497 0-.942-.617-1.762-1.516-2.036-3.024-.933-5.944-1.543-8.834-2.02.04-.065.076-.124.11-.188.96-1.72 1.45-3.85 1.42-6.17-.03-2.32-.56-4.45-1.565-6.145-.804-1.364-2.044-2.58-3.61-2.985-.266-.22-.58-.385-.94-.46-.645-.13-1.278-.17-1.9-.145-1.865.078-3.63.777-5.356 1.475-2.29.93-4.534 2.015-6.26 2.474-1.604.427-3.523 1.203-5.314 2.29-1.79 1.086-3.54 2.404-4.355 4.508-.47 1.22-.672 2.42-.316 3.56.09.316.22.59.36.83-8.555 1.34-16.49 4.13-23.62 8.1-.2-.582-.39-1.18-.58-1.763.312-.25.556-.56.693-.92.115-.01.242-.04.36-.067 1.147-.294 1.82-1.465 1.527-2.608-2.14-8.263-5.324-16.217-8.1-24.147 1.437-5.105 5.67-10.14 7.04-16.72 1.146-5.48-.28-10.157-3.572-12.716-2.057-1.595-4.67-2.29-7.48-2.06-.58.05-1.17.14-1.77.27l.03-.1c.16-.663.35-1.59.267-2.69-.08-1.093-.584-2.67-2.073-3.45-.218-.11-.42-.225-.63-.333-1.25-.654-2.71-.967-4.31-1.314-.975-.21-1.82-.37-2.61-.48-.05-.41-.17-.814-.356-1.175-.45-.884-1.18-1.39-1.793-1.714-1.23-.644-2.39-.805-3.04-1.015-6.256-2.054-15.234-3.642-21.617-4.374-.07-.018-.14-.028-.216-.03zm1.46 4.552c6.01.782 13.808 2.202 19.048 3.92h.024c.918.294 1.646.494 2.06.66-.097.23-.16.395-.2.47-.508-.143-1.802-.485-3.735-.513v-.01c-5.273-.68-12.662-1.34-17.652-2.43 0-.26 0-.53.07-.89.08-.38.26-.81.39-1.22zm24.238 7.94c.092.014 1.646.194 3.027.493 1.45.312 3.1.85 3.24.922.14.074.27.147.4.215 0 .024-.02 0-.01.093.03.35-.05.967-.14 1.367-.21.9-.44 1.802-.65 2.705-.682 2.837-.5 5.4-.59 7.788-.16 4.24 1.07 7.59 2.267 10.977-.143.044-.284.098-.415.147-.38.12-.77.22-1.1.29-.685-1.99-1.325-3.79-1.755-5.73-.306-2.99-.43-6.02-.506-9.07-.04-1.63.71-4.04.44-6.6-.09-.87-.68-1.497-1.08-1.77s-.71-.368-.99-.447c-.565-.15-1.047-.185-1.526-.21-.796-.043-1.34-.008-1.81.025-.01.014-.022.014-.03 0h.03c.01-.026.02-.108.04-.216.302-.155.594-.33.83-.575.13-.137.233-.283.346-.426zm-19.634.8c4.004.06 8.985.425 12.37 1.26h.023c.312.073.307.068.537.117-.445-.02-.947-.02-1.53.05v-.01c-3.475-.02-8.147.18-11.454-.11-.023-.23-.068-.25-.053-.55.015-.23.073-.51.107-.76zm32.9 7.334c1.626-.034 2.984.445 4 1.23 1.806 1.406 2.92 4.078 2.006 8.448-.756 3.628-3.076 7.168-4.975 11.19-.5-1.63-.95-3.265-1.38-4.902-.19-.776-.79-1.366-1.54-1.562-1.07-3.09-1.93-5.683-1.82-8.78.07-1.78.04-3.363.15-4.833 1.29-.507 2.49-.766 3.57-.79zm-115.04 2.583c3.605-.05 7.306.32 11.27.26 3.434-.05 6.895-.23 9.756.24 1.183.19 2.057.31 2.662.47.61.16.962.32 1.46.77.19.17.16.16.2.51.045.33.005.944.015 1.75-.01.003-.03.04-.122.13-.19.203-.64.52-1.23.813-1.17.584-2.8 1.08-4 1.434-3.05.91-6.01 2.21-8.75 3.224-2.88 1.063-6.32 1.718-9.8 2.997-3.4 1.26-7.39 1.825-11.38 1.88-4.15.053-8.19.23-11.84-.24-2.65-.34-4.92-1.045-6.61-2.21l-.08-.056c-1.596-1.01-2.422-1.87-2.783-2.475-.355-.6-.394-.937-.267-1.577.252-1.26 1.775-3.504 3.51-6.44 0 0 .01.01.01 0 .02-.02.365-.33 1.136-.56.78-.234 1.88-.385 3.064-.47 2.372-.16 4.994-.027 6.732-.05 5.777-.074 11.4-.34 17.065-.416zm111.29 17.68c.054.02.108.06.16.08.724 2.47 1.52 4.93 2.355 7.36.034.3.138.61.297.87 2.672 7.69 5.666 15.16 7.72 22.69-.14.04-.277.09-.414.16-.943.49-1.528 1.04-2.114 1.43-.508.336-.83.443-1.055.48-3.04-10.95-7.71-21.418-10.65-32.014 1.01-.054 1.73-.395 2.63-.698.36-.12.71-.25 1.06-.378zM149.6 181.99l15.298 39.337-9.757 3.398c-3.58-4.1-7.43-7.51-11.18-11.386-.06-.06-.12-.12-.19-.17-2.71-2.24-5.48-4.25-8.33-6.05 4.75-8.79 9.49-17.34 14.17-25.14zm172.216 2.262c.138 0 .562.147 1.084 1.03.528.89.943 2.354.968 4.004.018 1.65-.372 3.13-.874 4.03-.504.896-.924 1.04-1.055 1.044-.14 0-.57-.133-1.09-1.016-.53-.89-.96-2.354-.98-4.004-.03-1.65.38-3.13.88-4.03.5-.9.92-1.054 1.05-1.058zm-5.58.767c-.44 1.32-.65 2.8-.63 4.37.024 1.72.317 3.32.883 4.73l-1.67-.27c-.09-.01-.16-.01-.25-.01-1.45-.07-2.86-.11-4.28-.11-2.24 0-4.45.11-6.61.302-.1-.36-.28-.696-.56-.975-.33-.324-.46-.48-.5-.524v-.016c0-.07.04-.274.23-.76s1.18-1.545 2.56-2.38c1.37-.834 3.07-1.523 4.2-1.82 2.32-.61 4.56-1.71 6.62-2.554zm-55.68 1.6c.563 1.55 1.124 3.1 1.66 4.65L205.6 258.64c-3.422-2.855-7.705-4.67-12.53-5.028-.12-.015-.248-.03-.37-.038-.04-.005-.072 0-.107 0-.513-.045-1.02-.064-1.538-.07-.92-.01-1.826.035-2.72.132l-6.265.04-2.5-6.42 2.73-.9c.976-.282 1.64-1.51 1.406-2.597l-9.238-23.74c-.342-.8-1.162-1.31-1.953-1.23-.25-.01-.504.05-.737.14l-2.823.973-7.695-19.805c.02-.006.044 0 .07 0 41.95-4.327 66.063-8.185 99.226-13.497zm49.66 11.4c1.336-.01 2.684.02 4.05.09 6.344 1.02 12.028 1.55 17.804 3.05-.244.53-.502 1.12-.87 1.7-.795 1.26-1.67 2.43-2.304 3.29-6.26-2.205-12.97-3.44-19.94-3.51-11.182-.106-21.705 2.79-30.88 7.94-.48-1.278-.947-2.557-1.406-3.83 9.726-5.52 21.084-8.69 33.545-8.74zm-214.928 1.75c.376 0 .747-.01 1.123 0 11.25.08 22.64 2.97 33.28 8.91-.56 1.04-1.12 2.07-1.67 3.11-8.87-4.995-19.02-7.885-29.83-7.99-33.3-.31-60.86 25.89-63.88 59.4-.24.06-.46.104-.72.17-1.04.276-2.29.607-3.48.808-1.19.2-2.33.22-2.903.107-.16-.03-.232-.023-.277-.03-.24-4.97 1.5-11.883 3.825-18.093 2.36-6.328 5.307-12.035 6.826-14.36 13.385-20.13 34.57-31.455 56.6-32.026.37-.01.75-.014 1.126-.014zm213.628 7c32.774.31 59.17 28 58.848 61.9-.318 33.9-27.227 61.05-60 60.73-32.774-.31-59.102-27.946-58.784-61.847.2-21.294 10.87-39.946 26.89-50.796.502 1.28 1.01 2.554 1.522 3.83-14.682 10.2-24.398 27.43-24.585 46.99-.297 31.54 24.312 57.452 54.995 57.74 30.684.29 55.84-25.156 56.133-56.695.3-31.536-24.365-57.49-55.05-57.776-10.1-.098-19.603 2.607-27.81 7.397-.51-1.262-1-2.52-1.5-3.782 8.27-4.75 17.74-7.516 27.813-7.687.512-.005 1.016-.02 1.528-.01zM98.14 207.94c10.12.097 19.644 2.8 27.944 7.495-.635 1.19-1.28 2.38-1.914 3.57-7.754-4.37-16.62-6.9-26.07-6.99-30.683-.287-55.785 25.2-56.084 56.74-.292 31.534 24.326 57.452 55.01 57.74 21.972.204 41.08-12.788 50.274-31.763l4.042.575c-9.59 21.034-30.395 35.48-54.355 35.253-32.773-.31-59.116-27.944-58.798-61.85.01-1.007.03-2 .09-3 .04-.13.07-.267.09-.414.02-.21.02-.41-.02-.614 2.28-31.472 27.46-56.22 58.232-56.73.51-.01 1.027-.02 1.54-.015zm174.81 1.11c.46 1.26.928 2.54 1.405 3.8-17.573 11.515-29.32 31.676-29.536 54.675-.13 12.62 3.25 24.45 9.19 34.52-.04.04-.08.073-.11.113-.22.267-.4.517-.59.776-.38.523-.77 1.06-1.13 1.42-.36.36-.63.47-.63.47l-.18-.107c-6.41-7.706-9.44-25.358-9.797-31.095-1.416-26.747 10.864-51.09 31.36-64.574zm-139.57 1.85c2.606 1.665 5.17 3.515 7.655 5.567l.015.01c3.384 3.48 6.64 6.5 9.634 9.784l-4.04 1.41c-4.25-5.3-9.305-9.91-14.964-13.62.56-1.05 1.137-2.1 1.7-3.145zm175.468 4.15c28.365.264 51.216 24.19 50.942 53.55-.28 29.355-23.58 52.852-51.95 52.588-28.362-.265-51.16-24.192-50.882-53.552.166-17.886 8.867-33.6 22.056-43.08 3.51 8.475 7.21 16.86 10.615 25.066 1.9 4.59 5.14 8.463 8.52 11.754.48.47.98.956 1.47 1.43.24.235.48.46.72.684-.77 1.343-1.22 2.89-1.23 4.537-.05 5.08 4.05 9.36 9.15 9.41 5.11.05 9.3-4.15 9.34-9.24.05-5.09-4.06-9.35-9.17-9.4-1.91-.014-3.7.554-5.18 1.545-.226-.206-.446-.397-.656-.607-.488-.473-.976-.955-1.46-1.43-3.15-3.07-6.01-6.56-7.578-10.33-3.53-8.52-7.33-17.15-10.91-25.82 7.344-4.38 15.82-6.945 24.86-7.096.44-.01.88-.02 1.32-.01zm-212.114 1.18c.438-.005.884-.005 1.322 0 8.755.082 16.993 2.397 24.176 6.45-5.913 11.132-11.676 22.02-17.12 31.586l-9.062.07c-.06-.006-.103-.006-.16 0-2 .2-3.892.755-5.62 1.605-.03.02-.065.03-.094.04-.03.02-.053.04-.084.06-5.102 2.44-8.763 7.49-9.286 13.37v.03c-.015.14-.03.29-.04.43-.072.98-.06 1.978.054 2.98.49 4.45 2.28 8.08 5.5 10.586.843.654 1.77 1.236 2.786 1.743.005 0 .005.01.01.01 1.724.973 3.643 1.642 5.674 1.925 1.51.334 3.115.57 4.86.75v.013l43.367 6.25c-8.725 16.96-26.093 28.426-45.952 28.24-28.364-.27-51.16-24.194-50.884-53.55.27-28.9 22.8-52.11 50.56-52.572zm-53.11 1.415c-1.69 1.705-3.307 3.51-4.86 5.396-.76-2.22-1.938-3.99-2.275-4.84-.01-.01 0 0 0-.01l.04-.01c.71-.23 2.3-.44 4.91-.502.65-.014 1.4-.014 2.18-.014zm86.127.054c4.76 3.17 9.05 7.02 12.73 11.42l-4.02 1.4c-3.14-3.52-6.71-6.63-10.61-9.25.64-1.19 1.28-2.38 1.92-3.58zm-97.43 1.39c.07.22.11.48.19.67.68 1.71 1.72 3.16 2.22 4.65.51 1.47.63 2.71-.36 4.43-.69.97-1.18 1.23-1.31 1.27-.13.03-.11.06-.4-.15-.58-.41-1.58-2.04-1.91-3.08-.47-1.48.02-5.097 1.2-7.217.154-.285.266-.45.384-.59zm139.33 3.21c2.81 7.17 5.57 14.34 8.38 21.51-14.13 4.62-28.26 9.24-42.39 13.85-2.66-6.93-5.31-13.86-7.99-20.77 13.74-4.79 27.48-9.55 41.21-14.33l.39-.13.4-.14zm-45.76 2.67c3 2.04 5.77 4.4 8.29 7.03l-6.82 2.37c-.96.29-1.61 1.5-1.38 2.58l6.587 17.1-22.486.16c5.088-9.03 10.41-19.05 15.82-29.25zm49.62 23.6l2 5.14-18.132.13 16.14-5.27zm3.05 8.48c-6.55 4.13-10.97 11.45-11.05 19.712 0 .226.01.445.018.67l-6.84-.377c.275-2.36.436-4.754.455-7.187.043-4.336-.34-8.58-1.086-12.69l18.51-.13zm-22.72.16c.79 4.073 1.18 8.292 1.14 12.62-.022 2.37-.163 4.705-.442 7.01l-3.84-.204c.285-2.247.436-4.53.456-6.856.04-4.3-.39-8.495-1.23-12.54l3.92-.04zm-21.99.17l.97 2.52c.41 1.06 1.69 1.593 2.64 1.1l10.316-3.378c.846 3.902 1.27 7.965 1.23 12.14-.02 2.26-.164 4.467-.453 6.65l-35.69-1.9c.26-1.138.4-2.324.41-3.535.05-4.946-2.14-9.444-5.62-12.5l.52-.908 25.685-.19zm57.18.26c4.474.04 8.565 1.65 11.808 4.29l-4.096 4.87c-2.054-1.61-4.61-2.605-7.386-2.717-.012 0-.022-.014-.04-.014-.115-.02-.226-.04-.343-.04-.224-.004-.44.005-.66.015-1.356.053-2.66.317-3.88.775l-2.316-5.95c1.865-.71 3.856-1.14 5.93-1.23.328-.012.666-.012.99-.01zm-94.516.972c.203-.008.404-.003.614 0 1.723.016 3.36.407 4.844 1.086-.503.85-.99 1.69-1.484 2.513-1.05-.433-2.19-.67-3.39-.682-5.1-.05-9.29 4.14-9.34 9.226-.05 5.085 4.06 9.36 9.17 9.41 2.126.02 4.088-.703 5.66-1.913l3.867.2c-2.248 2.84-5.706 4.668-9.558 4.63-6.66-.06-12.056-5.674-11.99-12.364.06-6.484 5.22-11.83 11.604-12.1zm83.77 2.247l2.395 6.16c-2.836 2.363-4.67 5.91-4.71 9.852-.006.376.014.752.04 1.122l-6.32-.336c-.01-.28-.015-.57-.01-.854.06-6.61 3.476-12.49 8.604-15.94zm-74.78 1.286c2.257 2.25 3.64 5.372 3.61 8.79-.01 1.158-.19 2.286-.503 3.346l-2.96-.156c.376-1 .59-2.083.6-3.202.025-2.35-.854-4.523-2.3-6.193.514-.845 1.03-1.704 1.554-2.583zm202.92.79c2.8.022 5.08 2.376 5.06 5.204-.027 2.828-2.35 5.14-5.155 5.11-2.798-.02-5.068-2.38-5.045-5.202.004-.623.12-1.223.337-1.776 1.028.85 2.02 1.67 2.918 2.54.42.41.56.894 1.476 1.783.532.58 1.36.813 2.12.613.77-.2 1.35-.81 1.53-1.58.18-.77-.073-1.58-.67-2.104-.297-.29-.497-.855-1.46-1.79-.93-.917-1.88-1.727-2.82-2.508.535-.19 1.112-.298 1.713-.29zM205.84 265c2.638 3.355 4.206 7.602 4.16 12.167-.03 3.316-.905 6.446-2.42 9.18-1.713-1.28-3.46-2.54-5.13-3.76-.002-.005-.002-.01-.01-.014.8-1.665 1.25-3.51 1.27-5.46.027-2.61-.74-5.055-2.072-7.11l4.206-5.006zm-108.79.683c.408.004.8.063 1.18.16-.557.89-1.1 1.77-1.646 2.62-.64.996-.35 2.33.643 2.974.994.64 2.317.35 2.957-.646.465-.72.93-1.46 1.397-2.21.33.7.53 1.48.52 2.3-.02 2.83-2.34 5.15-5.132 5.12-2.802-.026-5.072-2.38-5.05-5.206.03-2.83 2.34-5.14 5.14-5.114zm93.426 2.504c.145-.01.29-.007.44 0 4.8.042 8.68 4.06 8.63 8.885-.01 1.034-.21 2.015-.546 2.943-.79-.6-1.54-1.184-2.198-1.716-1.54-1.26-2.678-2.4-2.946-2.79-.435-.68-1.217-1.05-2.017-.967-.75.08-1.4.554-1.72 1.243-.31.687-.244 1.494.186 2.113.86 1.277 2.133 2.365 3.79 3.713.763.62 1.61 1.272 2.5 1.95-1.557 1.406-3.607 2.255-5.844 2.236-4.797-.05-8.698-4.083-8.65-8.903.045-4.673 3.77-8.536 8.365-8.726zm-79.237 10.52l36.56 1.965c-.76 3.575-1.86 7.008-3.28 10.265l-39.75-5.74c2.71-1.5 4.966-3.76 6.464-6.49zm40.74 2.18l3.88.2c-.727 3.82-1.8 7.505-3.17 11.03l-3.95-.56c1.4-3.4 2.49-6.97 3.24-10.666zm8.08.43l7.94.424c1.15 5.56 4.27 10.44 8.59 13.83l-19.67-2.84c1.36-3.65 2.42-7.48 3.14-11.41zm12.26.654l6.81.36c2.017 4.43 6.43 7.58 11.58 7.63 3.615.04 6.897-1.46 9.26-3.88 1.69 1.24 3.433 2.51 5.126 3.78-3.556 4.025-8.736 6.564-14.453 6.51-8.775-.084-16.148-6.235-18.325-14.39zm43.54 12.64c.18.15.66.45 1.644 1.243 1.245 1.01 1.983 1.52 2.29 1.66-.097.3-.274.725-.71 1.555-.515.98-.916 1.457-1.086 1.608-.143-.063-1.48-1.014-3.04-2.235-.024-.292-.05-.663-.05-1.093-.01-.67.022-1.127.04-1.636.31-.2.56-.487.723-.815.12-.23.108-.163.19-.28z" fill="#e6e6e6" fill-rule="evenodd"/><path d="M167.676 227.913c-2.656.845-5.088 2.423-7.793 3.062-1.753 1.416-1.002 4.02-.567 5.865.948 2.33 3.932 2.626 6.022 1.845 1.122-.13 1.967-1.338 3.115-1.143 1.288.563 1.283 2.398.292 3.238-1.537 2.017-4.38 1.67-6.41 2.71-1.29 1.255.346 3.374 1.928 2.984 1.91-.45 3.92-.825 5.517-2.08 2.38-1.534 3.91-4.66 2.69-7.413-1.035-2.79-4.945-3.83-7.24-1.98-.79.33-2.026 1.04-2.784.36-.112-.6-.346-1.58.538-1.72 1.61-.33 2.866-1.44 4.44-1.89 1.16-.41 2.664-1.68 1.81-3.01-.318-.53-.933-.87-1.558-.82zm-16.147 6.583c-2.28-.186-4.1 1.694-4.57 3.784-.4 1.72-.55 3.56-.26 5.302.72 3.21 4.46 5.89 7.66 4.337 3.64-2.55 4.55-8.52 1.48-11.85-1.13-1.19-2.71-1.69-4.33-1.58zm-12.28 3.266c-1.59.195-1.92 2.144-1.41 3.41 1 3.97 2.43 7.88 3.62 11.81.83 1.202 2.74.567 3.04-.766.42-1.377-.69-2.594-.9-3.926-1.16-3.213-2.14-6.48-2.83-9.8-.33-.488-.94-.782-1.53-.728zm12.68.167c1.91.01 2.55 2.3 2.25 3.86-.22 1.04-.507 2.41-1.54 2.93-1.59.35-2.84-1.3-2.567-2.82-.014-1.32-.206-3.24 1.19-3.94.22-.02.44-.03.656-.04z" fill="#808080"/><path d="M192.636 53.495c-1.527.327-1.2 2.827-1.66 4.2-.43 3.67.225 7.7 3.2 10.185 3.836 3.745 10.624 5.312 14.925 1.45 2.41-1.596 4.74-4.014 7.89-3.48 1.79 1.326 2.21-3.96.59-3.23-9.08.27-15.6-8.05-24.36-9.14-.19.02-.39-.024-.57.015z" fill="#b3b3b3"/><path d="M135.732 99.555c-.913 3.29-.752 6.367-1.767 10.102-.4 1.455-.4 3.305-.99 5.45-.02.078-.45 1.967-.964 4.32-.51 2.354-1.17 5.367-1.82 8.394-.65 3.03-1.3 6.06-1.82 8.44-.23 1.07-.41 1.91-.57 2.64l.34.1c2.72.75 5.45 1.25 8.41 2.06.788.217 1.65.42 2.56.61 2.536-7.668 6.83-22.99 9.41-35.915.065-.424.225-.824.455-1.122l-13.222-5.06zm15.767 6.02c.06.347.07.712.01 1.06-2.55 12.787-6.62 27.436-9.28 35.63 2.1.415 4.3.89 6.37 1.616 2.55-7.86 6.66-22.62 9.16-35.17.04-.23.1-.45.19-.66l-6.47-2.47zm9.34 3.575c0 .156-.02.316-.04.47-2.55 12.752-6.61 27.342-9.27 35.55.09.044.18.082.27.13 3.9 2.204 8.3 3.47 13.37 5.57 4.79 1.985 11.37 2.034 17.1 3.61 2.49.685 5.71 1.09 8.16 1.837.66-2.06 1.58-4.848 2.57-7.87 1.61-4.932 3.3-10.118 3.573-11.11.847-3.076 2.26-5.477 2.93-7.925l1.97-7.172c.05-.18.107-.356.16-.536.21-1.255.367-2.125.523-2.97l-36.967-7.91-4.366-1.674z" fill="#199319"/><path d="M161.153.004c-.362.02-.718.073-1.084.19-.74.23-1.52.893-1.83 1.646-.6 1.504-.05 2.412.2 3.197.2.622.28 1.032.34 1.34-1.19-.02-2.758-.036-4.39.36-1.03.25-2.138.66-2.987 1.66-.757.894-1.03 2.217-.845 3.492-.103 1.89-1.104 5.07.36 8.23-.22.75-.83 1.25-1.86 2.21-.6.56-1.34 1.28-1.723 2.43-.385 1.15-.204 2.56.44 3.84.025.04.045.08.07.12 1.084 1.81 2.54 3.97 4.244 6.19-.26.372-.515.75-.725 1.12-1.234 2.19-2.566 3.71-3.41 6.786-.704 2.554-1.686 5.205-2.46 8.04-.75 2.71-1.75 5.42-2.536 8.274-.784 2.86-1.56 5.677-1.883 8.78-.22 2.145-1.55 4.66-2.33 7.5-.67 2.448-1.64 5.13-1.94 8.03-.293 2.86-1.58 5.646-2.49 8.957l-2.22 8.11c-.67 2.435-.935 4.3-1.55 6.546-.58 2.105-.59 3.956-1.005 5.465-.176.65-.504 2.15-1.016 4.51-.51 2.36-1.157 5.38-1.806 8.406-.652 3.022-1.3 6.05-1.82 8.412-.52 2.37-.96 4.25-.99 4.38-.16.56-.036 1.184.307 1.653.347.475.904.78 1.484.81l.1.01 1.616.44c2.93.808 5.653 1.306 8.41 2.06 3.19.88 6.934 1.46 10.102 2.307-.17.34-.238.722-.2 1.093.498 5.916 2.408 10.178 2.73 13.32.165 1.574.014 2.82-.708 4.207-.72 1.374-2.117 2.932-4.686 4.76-.01-.007-.57.33-1.22.66-.74.37-1.75.852-2.916 1.413-2.34 1.124-5.35 2.55-8.352 3.99-2.998 1.44-5.98 2.885-8.31 4.082-1.16.6-2.158 1.143-2.93 1.592-.39.23-.726.42-1.02.63-.22.152-.42.303-.67.59-.076.09-.15.133-.253.274l.04.03c-1.08 1.295-1.05 2.87-.825 4.283.24 1.52.766 3.078 1.363 4.568.59 1.49 1.26 2.88 1.79 3.94.27.533.5.977.67 1.3.085.16.154.3.2.39v.01c0 .015.005.03.01.045.01.024.02.053.03.063.4.943 1.635 1.43 2.58 1.03.95-.4 1.43-1.62 1.03-2.57-.11-.28-.12-.267-.175-.38l-.2-.4c-.164-.32-.39-.745-.64-1.248-.5-1-1.125-2.32-1.66-3.657-.535-1.34-.98-2.713-1.135-3.72-.135-.83.02-1.22-.03-1.23l.03-.03c.003-.004.003-.02.01-.023l.042-.04c.01-.015.025-.02.04-.03.155-.1.418-.26.75-.454.664-.39 1.617-.904 2.745-1.486 2.26-1.164 5.237-2.61 8.22-4.04 2.99-1.435 5.996-2.856 8.355-3.99 1.17-.566 2.19-1.054 2.97-1.445.78-.39 1.17-.55 1.71-.94 2.9-2.06 4.8-4.056 5.914-6.18 1.11-2.13 1.34-4.33 1.125-6.41-.415-4.015-2.144-7.77-2.67-12.69.18.086.36.174.52.27 4.958 2.79 10.387 3.064 14.62 4.816 5.597 2.314 11.6 2.7 16.81 4.136 2.42.66 5.618 1.69 8.167 2.46.13.803.826 1.472 1.63 1.59.807.12 1.66-.328 2.023-1.056.92-.46 1.33-1.725.852-2.637.64-1.992 1.598-4.91 2.72-8.34 1.618-4.935 3.22-9.804 3.63-11.283.67-2.442 2.07-4.85 2.914-7.92l1.66-6.02c1.48 1.704 3.05 3.11 4.734 4.35 5.51 4.043 11.82 6.21 19.747 11.255.567.4 1.36.46 1.98.148-.11.537 0 1.01.106 1.337.16.48.366.82.59 1.16.89 1.36 2.26 2.81 2.57 3.29.44.686.605 1.077.976 1.62.37.54.97 1.08 1.673 1.5.87.52 2.14.2 2.66-.67.52-.875.204-2.144-.67-2.666-.455-.27-.366-.21-.47-.364-.1-.144-.36-.67-.893-1.505-.357-.55-.69-.91-1.12-1.423 1.14.1 2.37.165 3.51.18.49.003.94.003 1.336-.015.4-.02.613.03 1.273-.214.17-.064.38-.123.71-.43.33-.303.75-1.133.6-1.845-.14-.715-.51-1.013-.72-1.18-.21-.17-.35-.233-.48-.29-.51-.245-.85-.32-1.438-.446-.24-.06-.63-.11-.91-.167 1.193-.2 2.15-.31 3.09-.68.24-.092.49-.18.842-.48.35-.3.903-1.17.722-2.05-.18-.88-.69-1.2-.994-1.4-.3-.204-.555-.302-.83-.404-.232-.096-.49-.14-.746-.136-.71.02-1.392.465-1.7 1.11-.4.087-.512.127-1.04.215-1.18.2-2.587.423-3.92.72-1.34.3-2.57.615-3.68 1.33-.21.13-.48.32-.71.653-.08-.067-.156-.126-.245-.18-8.276-5.263-14.657-7.533-19.526-11.11-2.09-1.53-3.987-3.303-5.72-5.724.53-1.68 1.1-3.402 1.58-5.165l2.29-8.34c.795-2.893 1.81-5.686 2.646-8.74.87-3.143 1.45-6.14 2.268-9.1.828-3 1.58-5.805 2.77-8.38.46-.994.807-2.035 1.1-3.075 1.088.16 2.22.31 3.413.484 1.54.21 3.02.42 4.15.57 1.13.153 1.718.232 2.036.27 1.01.113 2.04-.707 2.156-1.718.114-1.006-.706-2.02-1.713-2.14.13.016-.82-.1-1.946-.253-1.12-.155-2.615-.36-4.15-.575-1.043-.143-2.05-.294-3.05-.442.174-.78.35-1.53.54-2.22.66-2.39.874-4.88 1.03-7.16 1.494-.793 2.7-1.994 3.427-3.56.04-.084.1-.163.135-.25 3.972-6.68 6.31-15.957 3.41-23.544-.005-.018-.005-.037-.01-.057h-.015c-2.66-7.465-6.52-12.13-11.38-15.58-4.876-3.453-10.62-5.76-17.39-9.087-.03-.02-.07-.036-.097-.054C186 4.35 175.663 3.04 162.473.1c-.07-.018-.14-.033-.213-.043-.382-.038-.743-.068-1.105-.053zm-6.465 38.106c2.636 3.05 5.645 5.976 8.74 8.046.83.835 1.723 1.596 2.676 2.3-.733 1.806-1.426 3.663-1.793 6.025v.01c-1.3 8.8-2.53 16.64-1.15 27.28l.06.23c.98 4.2 4.27 10.92 7.57 17.39 2.05 4.02 4.04 7.79 5.46 10.48-2.99-.56-5.802-1.14-8.2-1.8-7.33-2.01-14.35-5.13-21.67-7.14-2.43-.67-4.643-2.925-8.554-4.097-.072-.1-.176-.264-.492-.55-.004-.006-.01-.006-.014-.01l.78-2.814c.796-2.89 2.23-5.904 2.612-9.585.23-2.27 1.08-4.774 1.804-7.396.6-2.19 2.112-4.894 2.443-8.126.283-2.7 1-5.293 1.782-8.154.727-2.638 1.714-5.366 2.515-8.28.72-2.63 1.7-5.275 2.463-8.05.64-2.333 1.61-3.334 2.984-5.74zm14.858 12.514c3.735 2.04 7.876 3.423 11.63 4.58.015.005.035.005.054.01l.117.043c2.383.914 4.66.602 6.627.133-.29 1.225-.494 2.577-.346 4.096.356 5.484 2.997 10.338 6.84 12.89 4.205 2.69 9.492 3.653 13.745 1.578.068-.034.132-.068.2-.108 1.43-.897 2.95-1.78 4.458-2.767.13-.09.24-.18.35-.29 1.1-1.11 1.81-1.64 2.61-1.57.18.02.36.01.54-.01h.06c.087.06.18.12.27.17-.15.59-.29 1.18-.43 1.78-.04-.01-.21-.04-.24-.04-.192-.05-.392-.06-.59-.05-.92.092-1.72.93-1.75 1.86-.035.925.693 1.82 1.607 1.98l.053.014c-.22.757-.45 1.455-.74 2.075-.816 1.766-2.686 7.47-3.223 9.253-14.15.54-5.215 6.04-1.997 8.48-.647 2.084-2.058 6.805-2.678 9.07l-2.29 8.34c-.154.55-.324 1.123-.495 1.684-1.27-2.56-2.426-3.296-3.59-7.148-.23-.808-1.033-1.408-1.873-1.404-.602.003-1.192.31-1.55.8-.35.493-.463 1.152-.28 1.73 1.14 3.772 2.31 4.6 3.63 7.303-3.88-1.43-8.62-2.43-13.544-3.36-1.816-.34-3.632-.666-5.45-.988-1.166-2.37-4.046-7.623-7.024-13.48-3.234-6.354-6.476-13.38-7.174-16.276-1.27-9.914-.146-17.08 1.15-25.83.002-.01 0-.02 0-.03.26-1.66.745-3.05 1.34-4.55zm23.5 3.71c.68-.02 1.324.065 1.954.293.064.02.127.04.19.054 2.77.71 5.952 2.51 9.25 4.34 3.29 1.83 6.707 3.71 10.384 4.31h.015c.96.16 1.92.21 2.84.15-.05.53-.09 1.05-.15 1.56-.25-.03-.5-.07-.75-.09-.2-.01-.38-.02-.61-.01-.11.01-.238 0-.42.03-.09.02-.22.03-.384.08-2.215.14-3.865 1.43-4.993 2.53-1.304.85-2.696 1.68-4.107 2.56-2.385 1.14-6.37.65-9.514-1.36-3.16-2.024-5.325-5.21-4.87-9.236.015-.146.015-.293 0-.44-.127-1.333.33-2.865.79-4.725.123-.01.246-.028.363-.028zm8.34 7.813c-.087.005-.175.015-.267.03-.75.112-1.41.698-1.7 1.23-.33.567-.79 1.245-.92 2.344-.06.55.02 1.3.46 1.92.43.62 1.09.97 1.74 1.15.77.22 1.53.3 2.31.03s1.42-.99 1.64-1.64c.45-1.3.09-2.25-.19-3.01-.117-.31-.322-.59-.59-.79-.033-.022-.43-.48-1.137-.882-.31-.177-.758-.387-1.365-.362zm-65.224 38.213c.088.035.185.054.283.084 2.99.82 5.08 3.168 8.887 4.213 1.51.415 3.013.9 4.537 1.407 29.32 11.66 41.46 7.787 52.1 14.08-.72 2.516-1.43 5.143-2.13 7.706-.67 2.447-2.09 4.854-2.93 7.925-.28.99-1.96 6.177-3.58 11.11-.99 3.02-1.91 5.81-2.57 7.87-2.45-.748-5.61-1.753-8.1-2.436-9.41-2.78-22.728-4.37-30.55-8.58-4.69-2.65-11.036-3.09-15.27-4.26-2.954-.81-5.684-1.31-8.408-2.06l-.333-.09.58-2.64c.52-2.37 1.17-5.41 1.82-8.43.65-3.03 1.304-6.04 1.82-8.39.51-2.36.94-4.25.964-4.33.586-2.15.59-3.99.99-5.45.685-2.5.954-4.38 1.55-6.57l.32-1.18z" fill="#fff"/><path d="M165.474 33.656c-.84.01-1.65.566-1.958 1.348-.312.786-.104 1.743.503 2.328 4.63 4.562 13.39 9.757 20.23 10.387 1.12.1 2.23-.82 2.33-1.94.1-1.12-.82-2.23-1.94-2.34-4.74-.44-13.91-5.51-17.64-9.17-.408-.4-.97-.64-1.545-.63zm-4.444-15.41c-1.015.05-1.93.913-2.03 1.924-.11 1.015.62 2.046 1.605 2.295 7.603 1.94 17.735 4.175 26.524 7.157 8.79 2.99 16.05 6.954 18.12 10.978.46 1.074 1.9 1.586 2.94 1.054s1.46-2.007.85-3.008c-3.23-6.27-11.42-9.98-20.54-13.076-9.12-3.095-19.37-5.346-26.85-7.255-.21-.054-.42-.074-.63-.07zm7.388-8.002c-1.03.023-1.978.897-2.08 1.928-.108 1.025.644 2.075 1.656 2.304 7.606 1.934 17.733 4.16 26.522 7.144 8.794 2.984 16.04 6.962 18.11 10.99.52.997 1.895 1.437 2.89.924 1.003-.518 1.44-1.894.924-2.89-3.223-6.27-11.42-9.982-20.54-13.077-9.122-3.1-19.366-5.35-26.852-7.256-.205-.05-.415-.07-.63-.06zM162.25 4.06c13.004 2.867 22.832 4.19 35.87 9.757.03.015.06.03.092.04 6.857 3.364 12.438 5.663 16.76 8.73 4.34 3.075 7.528 6.86 9.97 13.745.01.014.02.034.03.054 2.274 5.907.32 14.545-3.228 20.395-.054.09-.1.18-.138.27-.76 1.84-2.938 2.95-6.127 2.4h-.02c-2.72-.44-5.86-2.06-9.11-3.87-3.21-1.78-6.51-3.71-10.02-4.64-.01 0-.02.01-.03 0-.058-.01-.1-.04-.15-.05v.02c-2.964-1-5.684-.224-7.9.36-2.257.6-3.947.98-5.59.31-.06-.018-.12-.038-.178-.053-5.97-1.83-12.566-4.284-16.38-8.215-.106-.103-.218-.19-.34-.27-5.455-3.573-11.64-11.464-14.49-16.234-.29-.59-.247-.69-.218-.777.03-.09.214-.377.682-.817.93-.873 2.97-2.37 3.21-5.126.036-.418-.062-.848-.282-1.2-1.006-1.65-.3-3.96-.176-6.9.01-.183-.01-.37-.056-.544-.137-.568-.063-.46-.04-.49.03-.033.32-.248.913-.39 1.17-.283 3.092-.23 4.45-.24.26-.004.512-.058.752-.16.727-.303 1.396-.835 1.79-1.514.4-.677.505-1.41.495-2.01-.03-1.095-.35-1.906-.574-2.57z" fill="#2c2c2c"/><path d="M182.817 120.73c-.337.02-.668.123-.962.298-3.925 2.305-7.495 4.733-11.376 5.983-.15.04-.28.1-.4.17-.61.29-1.06.86-1.2 1.52-.13.658.06 1.36.51 1.86 3.47 3.95 6.56 7.314 9.47 11.445.55.8 1.7 1.13 2.59.75 3.57-1.515 9.172-4.465 12.702-5.514.99-.29 1.67-1.385 1.5-2.405-.267-1.572-1.018-2.34-1.917-3.48-.9-1.143-2.02-2.39-3.2-3.64-2.357-2.503-4.965-5.072-6.025-6.253-.425-.47-1.074-.74-1.714-.71z"/><path d="M182.295 123.743c-3.394 2.115-6.806 4.103-10.533 5.607 3.12 3.52 6.202 7.093 8.97 10.897 4.063-1.894 8.092-3.88 12.31-5.395-2.773-4.346-6.738-7.666-10.156-11.445l-.37.215-.22.12zm536.815 34.634c-.644.04-1.244.42-1.566.978-.323.556-.35 1.274-.07 1.85 5.695 11.855 12.555 25.786 15.7 37.89.435 1.66 1.006 3.33 1.757 4.966.05.12.08.24.14.35l.02-.01c.58 1.65 1.93 2.42 3.32 3.16 1.5.79 3.25 1.44 4.99 2 1.74.56 3.44 1 4.75 1.317.66.156 1.21.27 1.62.36.41.088.55.13.83.176 1.02.15 2.08-.63 2.24-1.647.157-1.02-.63-2.084-1.646-2.235.16.024-.205-.04-.585-.122-.38-.08-.916-.2-1.54-.344-1.24-.296-2.858-.72-4.47-1.23-1.61-.512-3.22-1.13-4.364-1.73-1.135-.6-1.565-1.336-1.483-1.013-.035-.12-.08-.24-.13-.35-.69-1.424-1.2-3-1.62-4.61-3.31-12.737-10.29-26.766-15.97-38.59-.326-.715-1.117-1.188-1.9-1.14zm84.61-87.637c-.292-.014-.526.05-.707.093-.362.09-.615.21-.884.348-.91.44-1.37 1.64-.98 2.57-.22.37-.27.47-.56.93-.68 1.04-1.49 2.26-2.2 3.48-.71 1.23-1.34 2.38-1.58 3.72-.02.12-.04.25-.04.4-.35.09-.66.28-.9.53-12.59 12.93-23.31 17.958-39.51 17.32-1.06-.06-2.08.867-2.12 1.93-.04 1.06.91 2.06 1.97 2.077 17.14.67 29.49-5.13 42.53-18.524.08-.08.15-.164.214-.256.34.49.81.755 1.155.91.475.216.885.304 1.3.37 1.657.277 3.727.24 4.31.35.83.146 1.23.3 1.904.4.67.098 1.506.01 2.316-.23 1.008-.3 1.65-1.485 1.354-2.49-.3-1.01-1.488-1.65-2.49-1.352-.53.157-.42.12-.61.098-.18-.03-.767-.186-1.777-.36-.59-.11-1.22-.14-1.84-.177.87-.8 1.77-1.67 2.575-2.516.347-.37.66-.71.923-1.03.262-.314.46-.44.736-1.11.068-.17.16-.4.157-.86 0-.46-.33-1.35-.975-1.74-.64-.39-1.13-.32-1.4-.28-.276.04-.427.11-.565.164-.538.216-.816.435-1.323.787-.206.147-.53.4-.762.577.684-1.046 1.265-1.853 1.646-2.824.097-.246.194-.513.213-.99.02-.48-.25-1.49-1.05-1.97-.396-.24-.75-.32-1.045-.33zm-4.99 9.835c.005 0 .035.005.04 0-.015.01-.084.063-.094.068-.04.02-.054-.038.054-.068z" fill="#fff"/><path d="M716.49 226.717c2.802 7.174 5.56 14.346 8.38 21.51-14.133 4.62-28.264 9.238-42.39 13.85-2.66-6.917-5.313-13.85-7.992-20.77 13.735-4.785 27.475-9.54 41.21-14.32l.39-.132.4-.138z" fill="#e6e6e6" fill-rule="evenodd"/><path d="M708.41 234.53c-2.242-.224-4.112 1.552-4.586 3.63-.494 1.907-.67 4.026-.16 5.96.965 3.624 6.34 6.04 8.9 2.564 2.64-3.194 2.787-8.81-.81-11.358-.958-.68-2.203-.83-3.345-.796zm-15.734 3.184c-1.675.253-1.87 2.26-1.602 3.613.21 1.953-.4 3.863-.405 5.825.02 1.412-.46 2.98.01 4.307.85 1.31 2.63.5 3.56-.29 1.07-.75 2.56-1.28 3.7-1.53.61 1.41.53 3.88 2.472 4.19 1.385.25 2.29-1.4 1.737-2.58-.367-1.4-1.235-2.558-1.617-3.92-.11-1.39-.34-3.568-2.11-3.72-1.426-.078-2.006 1.66-1.743 2.73-.87.36-1.75.69-2.64 1.03.038-2.998 1.15-6.16.06-9.06-.33-.437-.896-.65-1.433-.61zm16.06.235c2.02.02 2.583 2.5 2.235 4.08-.28.99-.54 2.37-1.65 2.74-1.53.22-2.69-1.39-2.42-2.84 0-1.33-.17-3.12 1.11-3.95.25-.036.5-.03.74-.05zm-26.046 3.75c-1.567.22-1.884 2.12-1.386 3.37 1.01 4 2.43 7.95 3.652 11.88 1.05 1.39 3.335.12 3.125-1.486-1.25-4.35-3-8.607-3.83-13.04-.33-.514-.95-.8-1.56-.737z" fill="#820202"/><path d="M771.9 129.735c-.914-.01-1.74.562-2.046 1.42-.338.924-.802 2.15-1.075 3.52-.27 1.374-.4 3.015.46 4.577.29.523.78.89 1.35 1.03 1.02.264 2.14.498 3.3.713-.14.742-.29 1.61-.35 2.57-.064 1.185-.04 2.517.72 3.84.33.557.89.934 1.53 1.03 4.156.66 9.815.28 13.53.295.127.005.26-.005.386-.025.86-.152 1.12.195 2.68.102.58-.03 1.393-.39 1.98-.907.384.048.706-.005.91-.025.403-.05.695-.128 1.164-.177-.074.01.5.01.937 0-.13 1.295-.38 2.95-.332 4.844.08 3.125.204 6.304.535 9.503.01.082.034.166.054.243.52 2.398 1.257 4.405 1.956 6.437-.175.13-.347.297-.48.482-.374.523-.492 1.188-.32 1.808 1.4 5.428 3.24 10.712 5.127 15.927-32.735 5.24-56.69 9.053-98.2 13.33-.42.044-.805.21-1.11.454l-11.525-29.644c1.94-.34 3.853-.83 5.674-1.5 3.02-1.116 6.43-1.746 9.78-2.986 2.92-1.075 5.82-2.354 8.52-3.16 1.17-.346 3-.845 4.68-1.684.843-.42 1.663-.914 2.382-1.646.72-.733 1.36-1.85 1.34-3.13-.006-.536.09-1.3-.026-2.275-.116-.98-.584-2.23-1.58-3.15-1.004-.92-2.16-1.47-3.235-1.76-1.073-.28-2.045-.38-3.09-.55-3.535-.57-7.193-.35-10.493-.31-3.653.05-7.35-.31-11.27-.27-5.762.08-11.39.35-17.06.42-1.41.02-4.238-.13-6.977.06-1.372.1-2.73.28-4.003.66-1.278.38-2.577.95-3.455 2.23-.03.04-.055.09-.085.13-1.615 2.75-3.5 5.006-4.08 7.926-.29 1.46-.09 3.15.775 4.606.865 1.45 2.25 2.665 4.19 3.89 2.48 1.715 5.35 2.5 8.42 2.89 4.17.54 8.39.324 12.445.27.914-.01 1.833-.06 2.75-.117l3.79 9.77c-5.26 8.575-10.607 18.15-15.93 27.97-12.57-6.983-26.2-9.937-39.5-9.234-16.05.85-31.606 7.03-44.21 17.866-.194-.064-.394-.107-.614-.117-3.143-.118-5.6-.153-7.556-.055-1.963.097-3.438.31-4.65.71-.115.037-.214.14-.33.19-.397-.196-.84-.26-1.275-.19-.82.13-1.787.286-2.797.814-1.02.53-1.937 1.45-2.615 2.68-1.76 3.17-2.61 7.21-1.525 10.61.54 1.703 1.494 3.85 3.53 5.273.346.245.756.46 1.19.617-1.49 2.915-3.16 6.58-4.657 10.59-2.48 6.616-4.5 13.985-4.1 20.18.012.114.03.226.052.34.424 1.86 2.196 3.026 3.696 3.315 1.5.29 3 .134 4.43-.105 1.19-.2 2.3-.47 3.25-.715-.004.327-.01.65-.01.977-.34 36.082 27.814 65.72 62.908 66.053 26.07.244 48.64-15.763 58.66-38.804l35.645 5.158c.06.01.13.02.2.024 7.794.26 13.92-3.092 17.756-8.07.52.41 1.05.827 1.53 1.22-.05.17-.07.35-.07.53 0 .185-.06 1.425-.05 2.6.01.59.03 1.17.09 1.74.036.284.085.57.178.9.09.33.1.756.855 1.37 1.97 1.59 3.21 3.064 5.45 3.556 1.118.246 2.524-.11 3.453-.867.93-.765 1.56-1.75 2.24-3.03.587-1.12.98-1.96 1.19-2.877.21-.92.09-2.17-.48-2.98-1.14-1.63-2.163-1.665-3.4-2.666-1.117-.902-1.92-1.92-3.65-2.353-.868-.22-2.08-.04-2.89.53-.087.06-.136.14-.215.2-.62-.503-1.26-1.02-1.91-1.54 2.197-4.35 3.06-9.39 2.553-14.32-.005-.06-.005-.116-.01-.17-.005-.025-.015-.05-.015-.07-.217-2.35-.79-4.613-1.66-6.72-.106-.266-.227-.53-.345-.79-.04-.09-.07-.165-.106-.253-.015-.026-.03-.05-.04-.075-.874-1.915-1.97-3.68-3.267-5.264l55.198-65.674c.64 2.01 1.22 4.01 1.74 6.02.25.96 1.13 1.625 2.115 1.61.48-.005.954-.005 1.433-.015.683-.003 1.293-.156 1.83-.36.19.57.372 1.127.562 1.69-22.238 14.23-35.704 40.365-34.195 68.905v.014c.4 6.55 2.88 24.296 10.92 33.755.075.08.15.15.24.222 1.13.97 2.647 1.44 3.936 1.18 1.29-.265 2.168-1.007 2.84-1.69.505-.51.89-1.01 1.218-1.46 11.382 16.57 30.05 27.463 51.262 27.663 35.09.333 63.86-28.76 64.2-64.844.26-27.315-15.86-50.927-38.92-60.94.55-.76 1.18-1.64 1.806-2.638 1.052-1.674 2.16-3.3 2.15-5.5 0-.936-.614-1.756-1.513-2.034-3.023-.925-5.943-1.54-8.833-2.02.04-.062.078-.12.11-.184.96-1.723 1.45-3.85 1.42-6.17-.03-2.32-.56-4.45-1.563-6.145-.807-1.36-2.047-2.575-3.615-2.98-.266-.22-.58-.38-.94-.454-.645-.134-1.28-.173-1.9-.15-1.865.08-3.633.777-5.356 1.476-2.29.93-4.54 2.02-6.26 2.475-1.61.43-3.527 1.2-5.32 2.29-1.786 1.087-3.535 2.406-4.35 4.51-.47 1.22-.674 2.417-.317 3.565.09.303.22.58.36.83-8.557 1.33-16.49 4.122-23.626 8.092-.2-.586-.385-1.18-.575-1.767.315-.243.56-.56.696-.92.118-.01.246-.04.36-.07 1.15-.29 1.825-1.465 1.53-2.607-2.14-8.26-5.325-16.22-8.1-24.15 1.436-5.102 5.67-10.14 7.04-16.717 1.145-5.476-.282-10.158-3.573-12.717-2.053-1.6-4.67-2.29-7.48-2.06-.58.05-1.17.14-1.77.27l.03-.1c.16-.67.35-1.596.27-2.69-.08-1.1-.584-2.675-2.073-3.456-.214-.11-.42-.22-.63-.335-1.25-.658-2.71-.97-4.31-1.318-.972-.21-1.82-.37-2.61-.476-.05-.414-.164-.82-.35-1.182-.45-.875-1.18-1.383-1.792-1.705-1.23-.65-2.388-.81-3.038-1.02-6.256-2.058-15.235-3.644-21.617-4.376-.074-.016-.14-.026-.215-.03zm1.46 4.55c6.01.782 13.807 2.204 19.047 3.922.005 0 .015.005.024 0 .92.298 1.65.498 2.07.66-.1.23-.16.4-.2.468-.51-.136-1.8-.484-3.73-.508v-.015c-5.27-.678-12.66-1.332-17.65-2.42 0-.26-.002-.528.067-.886.078-.375.258-.805.39-1.22zm24.238 7.94c.092.02 1.646.196 3.027.494 1.445.31 3.1.85 3.237.92.137.07.264.14.4.21 0 .02-.018 0-.015.09.03.35-.048.96-.146 1.36-.21.9-.43 1.8-.65 2.702-.68 2.84-.5 5.4-.59 7.79-.16 4.236 1.07 7.586 2.27 10.975-.14.05-.28.105-.41.15-.38.13-.77.224-1.1.292-.68-1.985-1.32-3.78-1.75-5.727-.304-2.985-.43-6.02-.504-9.06-.04-1.62.706-4.04.44-6.594-.09-.87-.686-1.497-1.086-1.77s-.71-.367-.99-.44c-.565-.157-1.047-.19-1.526-.215-.8-.046-1.34-.01-1.81.023-.01.014-.022.014-.03 0h.03c.01-.025.02-.108.04-.216.306-.156.598-.33.83-.57.135-.14.237-.29.35-.43zm-19.634.8c4.003.06 8.985.426 12.368 1.26h.024c.313.075.308.075.538.124-.445-.02-.948-.02-1.53.05v-.02c-3.475-.02-8.148.18-11.454-.11-.024-.23-.07-.25-.054-.55.015-.23.074-.51.108-.77zm32.9 7.335c1.626-.034 2.983.445 4 1.236 1.806 1.4 2.92 4.076 2.006 8.44-.756 3.63-3.076 7.17-4.975 11.194-.504-1.63-.958-3.268-1.383-4.898-.19-.78-.796-1.372-1.537-1.567-1.07-3.09-1.94-5.684-1.82-8.78.066-1.778.032-3.364.145-4.834 1.29-.5 2.485-.76 3.564-.79zm-115.04 2.584c3.605-.044 7.306.322 11.27.268 3.433-.045 6.895-.225 9.756.244 1.183.19 2.056.303 2.66.47.613.16.964.316 1.46.775.193.18.163.17.203.51.043.33.008.95.013 1.76-.01.01-.03.04-.12.13-.197.21-.646.53-1.232.82-1.172.59-2.808 1.08-4 1.44-3.055.91-6.015 2.21-8.754 3.22-2.886 1.068-6.328 1.72-9.8 3-3.408 1.26-7.397 1.82-11.386 1.877-4.155.055-8.194.23-11.847-.24-2.65-.34-4.92-1.043-6.61-2.21-.03-.014-.055-.034-.083-.054-1.598-1.01-2.423-1.87-2.784-2.475-.356-.6-.395-.937-.27-1.577.256-1.26 1.78-3.503 3.512-6.44 0 0 .01.007.01 0 .02-.02.367-.325 1.138-.56.78-.23 1.88-.385 3.066-.47 2.374-.154 4.995-.03 6.734-.05 5.776-.076 11.4-.345 17.065-.417zm111.29 17.68c.053.03.107.063.16.083.723 2.48 1.52 4.932 2.355 7.363.03.302.13.606.29.87 2.67 7.69 5.66 15.165 7.72 22.7-.14.04-.28.087-.42.156-.94.488-1.53 1.045-2.12 1.435-.508.34-.83.45-1.055.48-3.034-10.94-7.706-21.41-10.646-32.01 1.016-.05 1.73-.39 2.637-.7.36-.11.71-.25 1.06-.37zm-112.67 15.78l15.297 39.337-9.75 3.41c-3.58-4.11-7.43-7.51-11.18-11.39-.06-.06-.12-.11-.19-.16-2.71-2.24-5.48-4.25-8.33-6.05 4.748-8.78 9.49-17.34 14.17-25.13zm172.216 2.262c.138 0 .56.146 1.084 1.035.527.89.942 2.35.967 4 .02 1.65-.37 3.13-.87 4.03-.5.9-.92 1.05-1.05 1.05-.14 0-.56-.13-1.08-1.01-.53-.89-.96-2.35-.98-4-.02-1.65.39-3.13.89-4.03.507-.895.927-1.05 1.058-1.06zm-5.58.766c-.44 1.33-.65 2.808-.63 4.375.024 1.724.316 3.325.883 4.737-.557-.083-1.108-.175-1.67-.264-.083-.014-.16-.01-.244-.014-1.45-.074-2.87-.112-4.29-.107-2.24 0-4.44.11-6.61.3-.1-.36-.28-.7-.56-.98-.33-.32-.46-.48-.5-.53v-.017c0-.074.04-.28.23-.763.18-.482 1.17-1.547 2.56-2.382 1.38-.833 3.07-1.52 4.2-1.82 2.32-.61 4.56-1.71 6.62-2.553zm-55.68 1.607c.563 1.55 1.124 3.09 1.66 4.64l-56.616 67.38c-3.423-2.86-7.705-4.68-12.53-5.04-.122-.02-.248-.03-.37-.04-.04-.01-.073 0-.108 0-.512-.04-1.02-.06-1.537-.07-.92-.01-1.83.03-2.72.13l-6.27.04-2.5-6.43 2.73-.9c.97-.28 1.64-1.51 1.4-2.6l-9.24-23.74c-.34-.795-1.16-1.31-1.95-1.22-.25-.004-.51.05-.74.147l-2.82.98-7.7-19.81h.07c41.95-4.326 66.06-8.183 99.23-13.49zm49.66 11.4c1.336-.01 2.684.02 4.05.09 6.344 1.03 12.027 1.54 17.804 3.05-.244.54-.503 1.12-.87 1.7-.795 1.26-1.67 2.43-2.304 3.29-6.26-2.21-12.97-3.45-19.94-3.51-11.182-.11-21.705 2.79-30.88 7.94-.48-1.28-.947-2.56-1.406-3.83 9.726-5.52 21.084-8.69 33.545-8.74zm-214.93 1.75h1.125c11.245.08 22.636 2.97 33.276 8.91-.56 1.04-1.11 2.07-1.67 3.11-8.87-5-19.02-7.89-29.83-7.99-33.3-.31-60.86 25.89-63.88 59.4-.24.06-.46.11-.72.172-1.04.27-2.29.602-3.48.802-1.19.2-2.33.22-2.9.105-.16-.03-.234-.026-.28-.026-.24-4.976 1.504-11.89 3.83-18.096 2.36-6.334 5.307-12.04 6.825-14.365 13.384-20.126 34.57-31.454 56.6-32.026.37-.01.748-.014 1.12-.014zm213.63 7c32.774.31 59.17 28 58.847 61.9-.317 33.9-27.226 61.05-60 60.74-32.773-.32-59.1-27.95-58.783-61.85.2-21.29 10.868-39.95 26.888-50.8.504 1.28 1.012 2.55 1.524 3.83-14.682 10.2-24.4 27.43-24.585 46.99-.29 31.54 24.32 57.45 55 57.74 30.69.29 55.84-25.16 56.14-56.7.3-31.54-24.36-57.49-55.05-57.78-10.1-.1-19.6 2.61-27.81 7.4-.5-1.265-1-2.525-1.492-3.79 8.27-4.75 17.74-7.514 27.81-7.685.513-.006 1.016-.02 1.53-.01zm-210.776 1.16c10.12.1 19.643 2.8 27.943 7.49-.635 1.19-1.278 2.38-1.913 3.57-7.754-4.37-16.622-6.9-26.07-6.988-30.683-.29-55.785 25.2-56.084 56.735-.293 31.54 24.326 57.45 55.01 57.74 21.972.205 41.08-12.788 50.274-31.763l4.042.575c-9.59 21.032-30.395 35.48-54.355 35.25-32.77-.31-59.11-27.944-58.79-61.846.01-1.01.04-2 .1-2.993.05-.135.08-.272.1-.414.026-.213.02-.414-.014-.614 2.283-31.48 27.468-56.22 58.24-56.74.51-.006 1.025-.02 1.54-.016zm174.808 1.11c.46 1.26.93 2.54 1.407 3.8-17.58 11.51-29.33 31.67-29.54 54.67-.12 12.62 3.26 24.45 9.19 34.516-.04.044-.08.08-.11.122-.22.262-.4.51-.59.774-.38.516-.77 1.054-1.13 1.415-.36.363-.628.47-.63.47 0 0-.13-.083-.18-.107-6.41-7.7-9.442-25.358-9.795-31.09-1.416-26.754 10.864-51.1 31.36-64.58zm-139.57 1.84c2.613 1.663 5.172 3.514 7.657 5.564l.01.015c3.38 3.482 6.64 6.5 9.63 9.785l-4.04 1.41c-4.26-5.31-9.31-9.914-14.97-13.63.56-1.05 1.132-2.094 1.7-3.144zm175.47 4.15c28.364.262 51.215 24.193 50.942 53.55-.28 29.354-23.58 52.85-51.95 52.59-28.363-.27-51.16-24.198-50.883-53.55.17-17.89 8.87-33.607 22.06-43.09 3.51 8.475 7.21 16.86 10.62 25.067 1.91 4.59 5.15 8.46 8.53 11.753.49.473.99.956 1.47 1.43.25.234.49.46.728.68-.77 1.345-1.214 2.89-1.23 4.538-.05 5.086 4.048 9.36 9.156 9.41 5.107.05 9.297-4.15 9.346-9.232.045-5.08-4.066-9.35-9.17-9.4-1.91-.014-3.695.552-5.18 1.544-.224-.206-.444-.397-.654-.607-.49-.473-.975-.957-1.46-1.43-3.15-3.072-6.01-6.563-7.58-10.333-3.53-8.52-7.326-17.145-10.905-25.82 7.346-4.38 15.82-6.942 24.86-7.09.44-.01.88-.017 1.32-.013zm-212.115 1.18c.44-.008.884-.008 1.323 0 8.755.08 16.992 2.394 24.175 6.45-5.913 11.13-11.675 22.02-17.12 31.584l-9.06.07c-.055-.005-.104-.005-.163 0-1.997.2-3.89.76-5.62 1.606-.03.015-.063.025-.092.04-.03.014-.054.04-.084.054-5.102 2.44-8.764 7.484-9.286 13.367v.03c-.01.14-.03.286-.04.43-.073.97-.06 1.97.054 2.97.488 4.455 2.28 8.08 5.498 10.588.844.66 1.773 1.235 2.788 1.742.005.005.005.01.01.01 1.724.98 3.642 1.65 5.68 1.93 1.502.33 3.11.57 4.857.75v.01l43.364 6.25c-8.72 16.96-26.09 28.425-45.94 28.24-28.37-.265-51.16-24.195-50.89-53.55.28-28.897 22.8-52.11 50.56-52.574zm-53.11 1.42c-1.69 1.7-3.306 3.503-4.858 5.39-.77-2.228-1.94-3.99-2.28-4.846-.01-.01 0-.003 0-.013l.04-.013c.71-.23 2.31-.44 4.91-.507.65-.014 1.4-.014 2.18-.01zm86.128.052c4.755 3.16 9.042 7.014 12.73 11.413l-4.03 1.4c-3.144-3.515-6.708-6.62-10.614-9.248l1.92-3.57zm-97.436 1.39c.06.22.11.473.18.67.67 1.706 1.71 3.15 2.22 4.656.5 1.47.63 2.716-.36 4.43-.69.967-1.18 1.236-1.31 1.27-.13.04-.11.06-.4-.146-.59-.404-1.58-2.036-1.92-3.076-.48-1.484.01-5.098 1.19-7.217.16-.285.27-.45.39-.587zm139.33 3.206c2.8 7.176 5.56 14.35 8.38 21.51l-42.39 13.854c-2.66-6.92-5.32-13.852-8-20.77 13.73-4.78 27.47-9.54 41.21-14.32l.39-.13.4-.137zm-45.77 2.684c3 2.04 5.77 4.4 8.28 7.027l-6.83 2.364c-.96.296-1.61 1.51-1.378 2.586l6.58 17.105-22.484.16c5.087-9.027 10.41-19.047 15.82-29.24zm49.61 23.594l2 5.14-18.14.133 16.133-5.275zm3.05 8.486c-6.56 4.136-10.98 11.45-11.06 19.717 0 .225.01.445.014.67l-6.84-.376c.28-2.36.433-4.75.452-7.184.044-4.334-.337-8.58-1.085-12.684l18.51-.134zm-22.73.16c.785 4.08 1.176 8.297 1.136 12.62-.02 2.38-.163 4.715-.44 7.016l-3.84-.2c.28-2.247.435-4.53.455-6.85.04-4.308-.39-8.5-1.23-12.545l3.92-.04zm-21.994.177l.97 2.515c.41 1.07 1.69 1.597 2.637 1.1l10.315-3.374c.843 3.9 1.27 7.963 1.23 12.14-.02 2.26-.168 4.465-.456 6.647l-35.695-1.9c.26-1.137.4-2.323.415-3.53.043-4.95-2.145-9.447-5.626-12.504l.525-.91 25.68-.185zm57.18.254c4.47.04 8.565 1.65 11.807 4.3l-4.096 4.87c-2.056-1.62-4.61-2.61-7.39-2.72-.013 0-.023-.017-.038-.017-.12-.02-.23-.04-.348-.04-.227 0-.44.006-.66.015-1.358.053-2.66.32-3.88.775l-2.318-5.94c1.86-.72 3.85-1.143 5.93-1.236.32-.01.656-.014.984-.01zm-94.52.98c.21-.01.41-.01.62 0 1.723.01 3.36.4 4.844 1.08-.502.85-.99 1.69-1.484 2.513-1.05-.435-2.19-.67-3.39-.684-5.103-.045-9.293 4.14-9.34 9.223-.05 5.082 4.062 9.36 9.17 9.41 2.124.02 4.09-.704 5.66-1.915l3.866.2c-2.245 2.84-5.703 4.67-9.555 4.633-6.66-.066-12.055-5.68-11.99-12.37.063-6.485 5.224-11.83 11.606-12.1zm83.77 2.24l2.4 6.16c-2.84 2.364-4.67 5.914-4.71 9.854-.006.377.014.754.04 1.125l-6.32-.338c-.01-.28-.015-.565-.01-.85.058-6.615 3.476-12.494 8.603-15.945zm-74.77 1.287c2.254 2.25 3.642 5.375 3.612 8.793-.01 1.16-.195 2.286-.508 3.35l-2.958-.16c.373-.997.59-2.08.6-3.2.022-2.357-.857-4.53-2.3-6.2.51-.844 1.03-1.704 1.55-2.583zm202.92.79c2.802.03 5.082 2.38 5.06 5.205-.03 2.833-2.356 5.143-5.16 5.12-2.8-.03-5.07-2.383-5.044-5.21.006-.624.12-1.22.338-1.777 1.028.85 2.025 1.67 2.918 2.544.42.41.562.89 1.475 1.78.537.58 1.362.813 2.124.612.767-.2 1.35-.81 1.53-1.58.18-.77-.074-1.58-.67-2.103-.3-.29-.5-.854-1.46-1.79-.933-.91-1.88-1.725-2.823-2.506.54-.187 1.116-.3 1.717-.295zm-102.58 2.06c2.636 3.355 4.203 7.603 4.16 12.17-.03 3.32-.91 6.444-2.422 9.18-1.714-1.28-3.458-2.54-5.128-3.76-.003-.006-.003-.01-.01-.016.8-1.66 1.25-3.51 1.27-5.46.026-2.61-.74-5.053-2.073-7.11l4.203-5.004zm-108.79.684c.406.006.8.065 1.177.16-.557.895-1.1 1.774-1.646 2.624-.64.995-.35 2.327.646 2.972.99.64 2.315.35 2.955-.648.464-.715.927-1.46 1.396-2.205.34.7.53 1.48.52 2.3-.025 2.83-2.34 5.14-5.137 5.12-2.805-.03-5.075-2.38-5.05-5.21.03-2.825 2.34-5.134 5.14-5.11zm93.423 2.506c.146-.01.292-.006.44 0 4.8.043 8.68 4.06 8.632 8.885-.01 1.034-.207 2.017-.55 2.944-.79-.6-1.537-1.18-2.19-1.715-1.545-1.254-2.68-2.392-2.95-2.783-.436-.68-1.217-1.05-2.017-.966-.758.08-1.4.56-1.72 1.245-.31.685-.244 1.495.186 2.11.86 1.275 2.136 2.364 3.79 3.71.76.62 1.608 1.277 2.5 1.954-1.56 1.407-3.61 2.257-5.843 2.24-4.793-.047-8.694-4.084-8.645-8.904.04-4.67 3.766-8.53 8.36-8.724zm-79.23 10.518l36.56 1.97c-.756 3.577-1.86 7.01-3.276 10.27l-39.75-5.742c2.71-1.51 4.963-3.764 6.462-6.494zm40.74 2.186l3.88.2c-.725 3.82-1.8 7.504-3.17 11.03l-3.95-.563c1.4-3.4 2.493-6.97 3.24-10.67zm8.08.43l7.94.424c1.153 5.552 4.27 10.435 8.59 13.83l-19.674-2.838c1.37-3.656 2.43-7.475 3.145-11.415zm12.263.653l6.81.36c2.015 4.424 6.43 7.584 11.576 7.63 3.62.032 6.9-1.467 9.262-3.88 1.69 1.236 3.43 2.505 5.125 3.775-3.557 4.02-8.737 6.56-14.454 6.506-8.775-.08-16.148-6.23-18.325-14.39zm43.54 12.64c.18.15.656.442 1.643 1.243 1.245 1.003 1.982 1.512 2.29 1.653-.098.3-.274.724-.71 1.554-.51.988-.915 1.457-1.085 1.608-.14-.06-1.48-1.014-3.035-2.23-.026-.3-.05-.664-.055-1.1-.01-.67.03-1.127.04-1.634.31-.2.56-.48.72-.812.13-.23.11-.163.19-.276z" fill="#fff" fill-rule="evenodd"/><path d="M737.07 57.772c-1.522.338-1.18 2.84-1.66 4.204-.45 3.662.26 7.7 3.2 10.186 3.836 3.72 10.58 5.33 14.925 1.45 2.34-1.514 4.516-3.877 7.56-3.525 2.094 1.596 2.504-3.585 1.02-3.19-9.23.368-15.772-8.256-24.722-9.135-.108.02-.22-.024-.323.01z" fill="#b3b3b3"/><path d="M680.4 102.275c-.917 3.285-.756 6.366-1.768 10.102-.4 1.455-.4 3.305-.99 5.45-.025.076-.45 1.966-.962 4.32s-1.173 5.366-1.82 8.394c-.656 3.03-1.305 6.06-1.823 8.44-.235 1.07-.415 1.91-.576 2.64l.34.1c2.72.75 5.45 1.25 8.41 2.06.79.217 1.65.417 2.56.6 2.54-7.66 6.83-22.98 9.41-35.905.07-.425.23-.825.46-1.124l-13.22-5.057zm15.768 6.02c.067.34.072.712.008 1.06-2.55 12.787-6.616 27.436-9.272 35.625 2.105.42 4.297.892 6.372 1.62 2.554-7.865 6.665-22.622 9.165-35.17.04-.235.11-.455.19-.66l-6.46-2.475zm9.34 3.573c0 .157-.014.313-.04.47-2.543 12.753-6.605 27.343-9.262 35.547.088.05.18.087.27.136 3.905 2.21 8.3 3.47 13.373 5.57 4.79 1.99 11.37 2.04 17.1 3.61 2.48.69 5.71 1.1 8.16 1.84.66-2.06 1.58-4.85 2.57-7.87 1.61-4.93 3.3-10.12 3.57-11.11.85-3.07 2.26-5.48 2.93-7.92l1.96-7.17c.05-.18.11-.35.16-.53.21-1.254.364-2.123.515-2.97l-36.965-7.91-4.364-1.673z" fill="#fc0"/><path d="M705.494 4.286c-.358.015-.72.074-1.085.185-.74.24-1.52.9-1.83 1.65-.6 1.51-.05 2.42.2 3.21.2.62.29 1.03.35 1.34-1.2-.02-2.76-.03-4.39.36-1.03.25-2.14.66-2.99 1.66-.75.89-1.03 2.22-.84 3.49-.11 1.9-1.11 5.08.36 8.24-.23.75-.84 1.248-1.86 2.21-.61.562-1.35 1.285-1.73 2.437-.39 1.154-.21 2.56.44 3.845.02.04.04.08.062.118 1.083 1.818 2.543 3.976 4.242 6.2-.26.378-.513.755-.724 1.126-1.235 2.195-2.57 3.71-3.413 6.79-.705 2.55-1.68 5.205-2.46 8.04-.75 2.71-1.75 5.42-2.53 8.27-.787 2.86-1.568 5.676-1.89 8.78-.22 2.14-1.55 4.655-2.33 7.497-.67 2.446-1.64 5.13-1.938 8.033-.3 2.854-1.585 5.64-2.49 8.953l-2.225 8.11c-.67 2.425-.93 4.29-1.55 6.54-.578 2.105-.59 3.95-1.008 5.46-.175.654-.5 2.15-1.015 4.51-.51 2.365-1.15 5.38-1.807 8.41-.65 3.02-1.3 6.05-1.82 8.418-.51 2.36-.955 4.25-.99 4.374-.156.56-.033 1.186.31 1.66.345.473.9.78 1.49.8.03.01.06.01.09.015l1.62.442c2.928.802 5.658 1.3 8.406 2.06 3.193.88 6.934 1.452 10.11 2.3-.173.335-.247.72-.207 1.1.502 5.905 2.406 10.17 2.734 13.31.16 1.578.01 2.82-.713 4.205-.72 1.377-2.117 2.94-4.685 4.766-.01-.01-.57.33-1.218.65-.74.37-1.748.86-2.92 1.42-2.34 1.125-5.35 2.55-8.354 3.99-3 1.436-5.983 2.88-8.31 4.08-1.16.604-2.154 1.14-2.93 1.595-.386.225-.72.426-1.016.63-.222.15-.42.308-.665.586-.085.095-.158.14-.26.285l.044.025c-1.084 1.3-1.055 2.873-.83 4.284.238 1.515.766 3.072 1.36 4.562.6 1.49 1.266 2.89 1.798 3.95.267.525.5.973.67 1.3.086.16.158.293.2.38 0 .003-.003.01 0 .013.007.014.01.03.017.04.01.03.02.056.027.066.4.945 1.63 1.434 2.58 1.03.946-.4 1.434-1.62 1.03-2.57-.11-.28-.118-.264-.17-.376-.06-.113-.124-.244-.208-.4-.16-.32-.39-.743-.64-1.247-.505-1-1.125-2.32-1.66-3.65-.54-1.34-.984-2.718-1.14-3.73-.13-.83.02-1.22-.03-1.23.01-.005.02-.015.03-.025.005-.005.01-.02.015-.03l.04-.04c.01-.008.026-.01.04-.02.15-.11.42-.27.75-.46.667-.39 1.61-.908 2.747-1.49 2.252-1.162 5.226-2.61 8.214-4.043 2.985-1.43 5.99-2.856 8.35-3.985 1.178-.566 2.19-1.06 2.974-1.45.773-.385 1.164-.546 1.71-.932 2.902-2.063 4.8-4.056 5.914-6.185 1.11-2.124 1.335-4.327 1.12-6.41-.418-4.016-2.146-7.77-2.664-12.687.175.085.356.17.52.266 4.95 2.792 10.383 3.066 14.61 4.82 5.6 2.32 11.6 2.704 16.81 4.135 2.428.67 5.62 1.695 8.17 2.466.13.803.82 1.477 1.63 1.594.804.12 1.662-.324 2.02-1.06.92-.45 1.332-1.72.86-2.633.64-1.987 1.59-4.907 2.714-8.335 1.618-4.935 3.224-9.81 3.63-11.28.675-2.448 2.07-4.85 2.916-7.927l1.66-6.02c1.48 1.704 3.052 3.11 4.74 4.346 5.5 4.046 11.81 6.213 19.74 11.26.57.393 1.36.452 1.983.145-.11.54 0 1.01.1 1.34.16.484.37.825.59 1.163.89 1.36 2.26 2.81 2.57 3.293.44.686.604 1.073.98 1.614.37.545.97 1.083 1.67 1.5.873.52 2.14.203 2.664-.67.52-.87.2-2.14-.67-2.66-.46-.276-.37-.217-.47-.365-.1-.145-.36-.67-.897-1.51-.348-.54-.69-.91-1.114-1.416 1.147.09 2.367.154 3.51.17.49.01.937.01 1.34-.016.393-.02.61.036 1.267-.21.17-.06.38-.126.71-.43.33-.3.75-1.13.607-1.844-.147-.715-.51-1.01-.72-1.184-.21-.164-.36-.23-.487-.29-.507-.24-.845-.31-1.43-.44-.235-.052-.635-.106-.914-.16 1.198-.2 2.15-.312 3.098-.683.236-.098.49-.18.84-.488.36-.3.91-1.168.725-2.047-.18-.88-.69-1.206-.99-1.406-.3-.2-.56-.294-.83-.4-.236-.09-.495-.14-.75-.134-.71.023-1.395.47-1.697 1.11-.405.085-.516.128-1.043.217-1.18.196-2.59.426-3.92.724-1.334.3-2.56.61-3.68 1.328-.21.138-.48.323-.71.66-.074-.07-.153-.127-.24-.176-8.277-5.268-14.66-7.533-19.527-11.108-2.09-1.54-3.98-3.31-5.71-5.73.53-1.683 1.09-3.41 1.573-5.164l2.29-8.34c.795-2.902 1.81-5.69 2.65-8.74.65-2.38 1.15-4.67 1.7-6.92.757-.542 1.04-1.65.64-2.49.795-2.885 1.543-5.587 2.69-8.072.464-.995.805-2.035 1.1-3.075 1.09.156 2.22.31 3.41.48 1.54.22 3.02.42 4.15.575 1.13.154 1.717.23 2.03.27 1.01.114 2.04-.707 2.16-1.717.11-1.01-.7-2.026-1.712-2.144.137.02-.814-.096-1.943-.252-1.12-.15-2.615-.355-4.144-.575-1.05-.142-2.05-.29-3.05-.44.17-.78.345-1.53.53-2.22.66-2.384.875-4.874 1.03-7.16 1.495-.79 2.706-2 3.43-3.56.043-.09.096-.16.135-.253 3.977-6.68 6.31-15.956 3.416-23.54-.01-.02-.01-.04-.014-.052h-.013c-2.66-7.464-6.52-12.132-11.376-15.58-4.87-3.46-10.62-5.765-17.39-9.09-.03-.015-.058-.035-.09-.05C730.33 8.65 720 7.34 706.81 4.4c-.07-.016-.146-.03-.215-.04-.39-.043-.75-.07-1.115-.053zM699.03 42.39c2.635 3.053 5.642 5.978 8.74 8.043.83.84 1.727 1.602 2.674 2.305-.732 1.802-1.42 3.662-1.792 6.02v.015c-1.298 8.79-2.533 16.64-1.152 27.275.015.08.034.157.054.23.98 4.2 4.272 10.918 7.563 17.388 2.045 4.02 4.038 7.782 5.46 10.48-2.995-.567-5.807-1.15-8.205-1.81-7.328-2.015-14.35-5.135-21.668-7.146-2.433-.67-4.64-2.92-8.55-4.098-.08-.092-.177-.258-.5-.546-.004-.005-.01-.01-.01-.015l.778-2.8c.79-2.89 2.227-5.9 2.607-9.58.23-2.27 1.08-4.77 1.8-7.4.6-2.18 2.11-4.883 2.45-8.12.27-2.7.99-5.287 1.77-8.15.73-2.64 1.71-5.37 2.52-8.284.713-2.63 1.7-5.274 2.46-8.043.64-2.333 1.61-3.335 2.98-5.742zm14.856 12.516c3.736 2.036 7.876 3.422 11.63 4.575.02.01.035.01.055.02.04.01.09.03.13.04 2.38.92 4.65.61 6.62.14-.29 1.23-.49 2.58-.34 4.09.36 5.49 3 10.34 6.84 12.89 4.21 2.7 9.49 3.66 13.75 1.58.07-.03.137-.07.2-.1 1.437-.9 2.95-1.79 4.46-2.77.127-.08.24-.175.347-.28 1.094-1.102 1.806-1.64 2.61-1.565.177.02.36.016.535-.014h.05c.09.06.178.12.27.17-.15.59-.292 1.19-.43 1.78-.04-.003-.204-.033-.24-.04-.19-.042-.39-.052-.59-.04-.923.09-1.714.935-1.753 1.86-.03.93.696 1.82 1.61 1.985.013 0 .04.01.05.01-.217.758-.447 1.46-.736 2.075-.813 1.77-1.423 3.56-1.965 5.342-.368 1.396-.71 2.74-1.03 4.027-4.298 2.342-5.714 2.3-10.856 1.59-3.023-.413-5.098-1.576-7.173-3.274-2.07-1.703-4.07-3.993-6.624-6.37-.383-.367-.92-.57-1.453-.547-.795.03-1.536.57-1.81 1.315-.27.74-.05 1.63.532 2.167 2.37 2.21 4.386 4.535 6.81 6.53 2.434 2 5.35 3.625 9.17 4.15 4.12.56 6.9.57 10.187-.63-.59 2.357-1.14 4.417-1.72 6.067-.64 2.08-1.34 4.18-1.963 6.45l-2.29 8.33c-.15.557-.326 1.123-.497 1.69-1.27-2.564-2.426-3.297-3.59-7.15-.23-.804-1.033-1.41-1.87-1.405-.603.005-1.2.31-1.55.806-.355.49-.47 1.15-.28 1.726 1.142 3.778 2.31 4.603 3.63 7.308-3.88-1.432-8.62-2.43-13.548-3.355-1.81-.345-3.63-.666-5.45-.994-1.16-2.365-4.046-7.62-7.025-13.478-3.234-6.35-6.476-13.38-7.175-16.278-1.27-9.915-.147-17.08 1.152-25.834 0-.01-.008-.013 0-.02.26-1.67.744-3.06 1.334-4.55zm23.5 3.706c.68-.02 1.325.064 1.955.293.07.025.13.038.19.053 2.78.704 5.96 2.505 9.25 4.342 3.29 1.826 6.72 3.71 10.39 4.306h.02c.97.166 1.93.215 2.85.146-.04.528-.08 1.05-.15 1.568-.25-.034-.5-.073-.74-.093-.193-.015-.38-.02-.6-.015-.11.005-.234 0-.414.03-.096.014-.22.024-.39.078-2.216.127-3.866 1.416-4.99 2.53-1.303.848-2.7 1.678-4.11 2.558-2.39 1.133-6.373.644-9.517-1.367-3.166-2.02-5.324-5.21-4.87-9.23.015-.14.015-.29 0-.44-.13-1.33.333-2.86.786-4.72l.36-.03zm8.34 7.818c-.086.005-.175.01-.267.023-.75.118-1.4.7-1.7 1.237-.33.566-.79 1.24-.91 2.34-.07.55.01 1.297.45 1.912.43.615 1.09.977 1.74 1.153.77.215 1.53.297 2.31.024.78-.27 1.42-1 1.65-1.65.44-1.3.08-2.25-.19-3.01-.12-.31-.33-.59-.59-.79-.04-.03-.43-.48-1.14-.89-.318-.18-.768-.39-1.37-.36zm-65.22 38.212c.085.034.188.054.28.08 2.993.824 5.078 3.168 8.886 4.218 1.51.415 3.013.897 4.537 1.406 29.32 11.66 41.47 7.782 52.11 14.076-.73 2.52-1.43 5.146-2.13 7.71-.68 2.446-2.09 4.85-2.94 7.925-.27.992-1.96 6.178-3.57 11.11-.99 3.02-1.91 5.81-2.57 7.87-2.45-.747-5.61-1.754-8.1-2.437-9.41-2.778-22.73-4.36-30.54-8.58-4.7-2.645-11.04-3.094-15.28-4.256-2.96-.81-5.69-1.314-8.41-2.06l-.337-.094c.163-.728.343-1.573.58-2.636.515-2.374 1.164-5.41 1.82-8.433.65-3.02 1.31-6.04 1.82-8.39.512-2.35.94-4.24.96-4.32.592-2.14.592-3.99.992-5.45.682-2.49.95-4.38 1.55-6.56l.32-1.17z" fill="#fff"/><path d="M709.82 37.934c-.845.015-1.65.57-1.964 1.352-.312.78-.102 1.743.504 2.33 4.638 4.555 13.398 9.755 20.234 10.385 1.118.11 2.23-.81 2.338-1.93.103-1.12-.82-2.23-1.933-2.33-4.75-.44-13.92-5.51-17.65-9.17-.41-.4-.97-.63-1.54-.63zm-4.444-15.405c-1.02.04-1.933.91-2.036 1.92-.102 1.01.62 2.04 1.606 2.29 7.608 1.93 17.735 4.17 26.53 7.16 8.788 2.98 16.05 6.95 18.12 10.97.463 1.07 1.903 1.59 2.943 1.05s1.46-2.007.86-3.008c-3.23-6.27-11.43-9.98-20.55-13.084-9.12-3.094-19.37-5.345-26.85-7.25-.21-.054-.42-.077-.63-.067zm7.388-8.01c-1.035.02-1.983.9-2.085 1.92-.11 1.03.64 2.07 1.65 2.3 7.6 1.94 17.74 4.16 26.53 7.15 8.78 2.98 16.03 6.96 18.1 10.98.52 1 1.89 1.44 2.89.92.992-.51 1.43-1.888.92-2.89-3.23-6.264-11.43-9.98-20.55-13.075-9.12-3.094-19.367-5.346-26.85-7.25-.207-.053-.417-.08-.627-.07zm-6.173-6.18c13.01 2.86 22.84 4.18 35.87 9.75.04.01.07.02.1.04 6.86 3.35 12.44 5.65 16.76 8.72 4.35 3.08 7.53 6.86 9.98 13.74.01.02.02.04.03.05 2.28 5.916.325 14.554-3.225 20.404-.05.08-.1.174-.13.267-.77 1.83-2.94 2.948-6.134 2.397h-.01c-2.72-.44-5.86-2.055-9.115-3.867-3.205-1.78-6.505-3.72-10.01-4.644-.01-.004-.02 0-.03 0-.05-.014-.1-.04-.147-.05v.01c-2.96-1.005-5.682-.23-7.893.36-2.266.597-3.95.983-5.6.31-.06-.025-.116-.04-.175-.054-5.97-1.84-12.56-4.296-16.38-8.22-.105-.1-.217-.19-.33-.27-5.46-3.574-11.65-11.47-14.5-16.235-.29-.595-.247-.69-.218-.78.03-.093.214-.38.683-.816.93-.87 2.967-2.364 3.21-5.123.04-.42-.063-.85-.28-1.204-1.003-1.65-.306-3.95-.173-6.89.005-.184-.01-.37-.054-.55-.14-.56-.07-.45-.045-.484.03-.03.327-.244.912-.387 1.17-.282 3.094-.233 4.456-.24.257-.003.516-.06.75-.16.73-.307 1.4-.835 1.794-1.513.4-.68.516-1.408.5-2.008-.03-1.093-.35-1.905-.574-2.568z" fill="#2c2c2c"/><path d="M727.485 123.45c-.336.02-.67.124-.96.294-3.927 2.31-7.496 4.736-11.38 5.986-.14.04-.272.094-.4.156-.604.284-1.06.865-1.19 1.52-.132.65.064 1.36.508 1.855 3.47 3.95 6.567 7.32 9.477 11.45.55.8 1.7 1.13 2.593.75 3.57-1.51 9.175-4.46 12.705-5.51.986-.29 1.67-1.39 1.5-2.4-.264-1.57-1.022-2.34-1.915-3.48-.898-1.14-2.022-2.386-3.203-3.64-2.354-2.506-4.966-5.07-6.02-6.25-.425-.475-1.075-.743-1.715-.71z"/><path d="M726.962 126.464c-3.393 2.115-6.806 4.1-10.53 5.605 3.12 3.52 6.2 7.09 8.968 10.89 4.063-1.9 8.09-3.88 12.31-5.4-2.774-4.35-6.74-7.67-10.156-11.45l-.372.213-.22.123z" fill="#fff"/><path d="M370.24 128.993c-.92-.01-1.744.562-2.05 1.42-.34.924-.803 2.15-1.07 3.522-.274 1.37-.4 3.012.467 4.575.29.522.777.888 1.353 1.03 1.02.263 2.144.497 3.306.712-.136.743-.297 1.61-.35 2.57-.065 1.185-.04 2.52.72 3.84.328.56.89.934 1.53 1.03 4.16.666 9.814.28 13.53.295.13.005.26-.005.39-.025.855-.15 1.114.196 2.676.108.577-.034 1.397-.395 1.983-.913.385.05.702 0 .907-.025.405-.05.7-.126 1.163-.175-.074.01.507.01.938 0-.137 1.294-.382 2.95-.333 4.844.074 3.13.2 6.31.533 9.51.015.08.038.16.053.24.523 2.4 1.255 4.41 1.958 6.44-.18.14-.35.3-.483.49-.37.52-.49 1.19-.32 1.81 1.4 5.43 3.25 10.713 5.13 15.928-32.73 5.24-56.68 9.054-98.2 13.33-.42.045-.8.21-1.11.457l-11.52-29.65c1.94-.343 3.86-.83 5.68-1.5 3.02-1.113 6.43-1.75 9.786-2.99 2.91-1.07 5.82-2.352 8.51-3.154 1.174-.35 3-.85 4.69-1.69.84-.42 1.66-.914 2.38-1.65.72-.73 1.358-1.85 1.34-3.125-.01-.54.09-1.3-.03-2.277-.113-.98-.582-2.23-1.573-3.147-1.01-.93-2.17-1.48-3.242-1.767-1.07-.29-2.04-.38-3.09-.553-3.533-.578-7.19-.35-10.49-.31-3.657.05-7.353-.315-11.27-.27-5.76.08-11.39.346-17.065.418-1.4.02-4.225-.127-6.97.053-1.372.096-2.724.28-4.003.66-1.275.38-2.574.95-3.453 2.23-.024.048-.05.087-.077.126-1.62 2.75-3.504 5.005-4.08 7.925-.29 1.46-.093 3.15.776 4.608.862 1.453 2.25 2.664 4.187 3.89 2.485 1.713 5.356 2.5 8.42 2.894 4.177.537 8.396.32 12.45.27.917-.01 1.836-.056 2.76-.12l3.79 9.77c-5.265 8.573-10.61 18.15-15.928 27.973-12.576-6.985-26.21-9.934-39.5-9.24-16.055.85-31.61 7.035-44.21 17.875-.194-.07-.4-.114-.614-.123-3.15-.117-5.6-.15-7.563-.053-1.96.098-3.43.31-4.64.708-.12.04-.22.14-.336.19-.398-.19-.837-.26-1.27-.19-.82.13-1.784.29-2.8.815-1.017.535-1.93 1.45-2.614 2.68-1.752 3.17-2.612 7.215-1.523 10.61.55 1.707 1.497 3.856 3.537 5.277.34.245.75.46 1.19.616-1.497 2.917-3.167 6.585-4.66 10.59-2.478 6.62-4.504 13.987-4.098 20.18.01.116.025.228.055.34.42 1.86 2.19 3.028 3.69 3.32 1.5.29 3 .134 4.434-.11 1.187-.2 2.295-.465 3.25-.71-.01.33-.01.65-.013.977-.24 25.244 13.474 47.32 33.74 58.422-8.71-.057-16.06-.12-17.905-.12-4.24 0-107.97.25-193.058.45v4.284c85.16-.204 189.014-.454 193.056-.454 2.403 0 14.014.127 27.73.2v-.024c2.85-.19 4.32-2.85.336-4.286-23.342-8.417-40.002-31.44-39.75-58.437.01-1.01.035-2 .094-2.996.044-.13.08-.27.092-.413.02-.213.02-.413-.02-.613 2.28-31.48 27.467-56.22 58.238-56.74.506-.01 1.025-.02 1.54-.02 10.12.1 19.64 2.805 27.946 7.498-.64 1.195-1.284 2.38-1.914 3.574-7.755-4.37-16.627-6.894-26.076-6.987-30.682-.29-55.784 25.2-56.08 56.738-.295 31.54 24.328 57.45 55.01 57.74 21.97.206 41.076-12.79 50.27-31.76l4.04.576c-6.83 14.99-19.352 26.62-34.66 31.995-2.012 2.26 1.24 4.007 2.78 3.397 6.635-.11 10.057.205 11.635-.19 7.763-1.94 18.803-.625 27.76-.625h99.34c6.02 0 14.255.813 20.26 2.015 5.564 1.114 11.765.8 17.605.445 3.587.17 2.41-4.703-1.34-4.537-26.43-6.386-46.01-30.985-45.73-60.244.2-21.29 10.864-39.946 26.884-50.795.5 1.28 1.01 2.553 1.53 3.827-14.69 10.2-24.407 27.43-24.59 46.994-.296 31.538 24.313 57.45 55 57.744 30.68.29 55.83-25.16 56.13-56.698.295-31.54-24.37-57.49-55.05-57.78-10.11-.1-19.607 2.606-27.815 7.4-.513-1.264-1.005-2.524-1.5-3.79 8.272-4.75 17.736-7.513 27.813-7.68.51-.01 1.014-.02 1.526-.013 32.775.31 59.17 28 58.854 61.9-.27 28.34-19.105 51.95-44.42 58.76-3.24.045-4.996 3.3-2.65 4.376.58-.005 1.24-.005 1.833-.01l-.03.133c.196-.045.387-.104.577-.148 18.6-.17 44.87-.27 49.093.79 8.247 2.06 18.58.062 26.03.062h81.396c2.64 0 5.276-.067 7.897-.16l-8.725-4.12h-80.6c-8.137 0-18.29 1.743-24.99.07-3.67-.92-18.992-1.115-34.246-1.07-1.245 0-2.436.006-3.653.01 21.43-10.376 36.38-32.705 36.62-58.647.26-27.314-15.86-50.928-38.92-60.943.56-.756 1.19-1.64 1.81-2.636 1.055-1.67 2.16-3.3 2.16-5.5-.006-.94-.616-1.76-1.51-2.037-3.03-.926-5.95-1.54-8.836-2.02.033-.06.07-.12.11-.184.953-1.726 1.442-3.855 1.413-6.175-.03-2.313-.563-4.442-1.57-6.142-.804-1.36-2.044-2.573-3.61-2.98-.26-.22-.583-.38-.94-.453-.64-.135-1.28-.174-1.9-.15-1.86.084-3.63.776-5.35 1.475-2.295.93-4.536 2.02-6.265 2.474-1.608.424-3.527 1.2-5.315 2.29-1.79 1.084-3.54 2.402-4.35 4.512-.467 1.217-.67 2.413-.32 3.56.096.308.224.58.36.83-8.55 1.333-16.484 4.126-23.62 8.096-.2-.587-.38-1.18-.578-1.768.32-.244.562-.56.7-.922.11-.01.243-.03.36-.07 1.143-.29 1.822-1.46 1.523-2.603-2.14-8.26-5.32-16.215-8.094-24.145 1.43-5.103 5.663-10.143 7.04-16.72 1.14-5.473-.29-10.156-3.58-12.714-2.055-1.596-4.67-2.29-7.485-2.06-.578.05-1.174.143-1.764.27.005-.035.018-.063.023-.093.162-.67.353-1.593.27-2.69-.083-1.1-.58-2.673-2.076-3.45-.21-.114-.41-.23-.63-.34-1.25-.654-2.7-.97-4.302-1.313-.98-.21-1.82-.37-2.613-.48-.04-.415-.16-.815-.345-1.18-.455-.88-1.177-1.39-1.79-1.71-1.237-.65-2.39-.81-3.045-1.02-6.256-2.06-15.23-3.643-21.617-4.376-.07-.01-.14-.025-.21-.03zm1.454 4.55c6.016.782 13.808 2.203 19.048 3.927h.024c.924.292 1.646.492 2.066.654-.102.23-.166.4-.205.468-.508-.136-1.802-.482-3.73-.507v-.015c-5.274-.68-12.667-1.333-17.657-2.42 0-.255-.005-.53.07-.885.07-.376.258-.806.384-1.22zm24.238 7.94c.093.02 1.647.195 3.028.493 1.45.313 3.1.855 3.237.924.137.072.27.146.405.214 0 .025-.023 0-.015.098.025.347-.053.967-.146 1.362l-.65 2.705c-.68 2.83-.49 5.4-.58 7.78-.162 4.24 1.07 7.59 2.26 10.97-.132.05-.273.1-.41.142-.38.126-.767.224-1.1.293-.68-1.988-1.322-3.785-1.752-5.728-.306-2.99-.432-6.02-.506-9.064-.04-1.62.71-4.04.44-6.596-.09-.87-.68-1.494-1.085-1.767-.4-.27-.705-.37-.984-.44-.564-.156-1.047-.19-1.525-.215-.8-.04-1.34-.01-1.81.027.01-.026.02-.11.04-.21.304-.16.6-.34.83-.58.13-.137.24-.29.347-.43zm-19.633.8c4 .06 8.98.426 12.36 1.26h.03c.3.074.3.074.53.123-.44-.02-.95-.02-1.53.054v-.015c-3.48-.015-8.158.18-11.46-.108-.02-.225-.07-.248-.058-.546.015-.23.08-.51.11-.76zm32.9 7.34c1.62-.04 2.98.44 4 1.23 1.8 1.402 2.91 4.078 2 8.443-.76 3.627-3.08 7.173-4.98 11.19-.51-1.625-.96-3.265-1.38-4.896-.19-.782-.8-1.373-1.54-1.568-1.07-3.09-1.94-5.684-1.82-8.78.062-1.776.03-3.364.14-4.834 1.29-.507 2.48-.766 3.56-.786zm-115.04 2.583c3.6-.05 7.3.318 11.27.264 3.43-.044 6.9-.225 9.75.244 1.18.19 2.05.302 2.66.468.6.162.96.318 1.46.777.18.17.15.16.2.5.04.33 0 .95.01 1.75-.01.01-.03.04-.12.13-.2.2-.648.53-1.23.82-1.17.58-2.81 1.07-4.008 1.43-3.057.91-6.017 2.21-8.756 3.22-2.884 1.07-6.326 1.72-9.793 3-3.414 1.253-7.404 1.82-11.39 1.87-4.15.052-8.19.227-11.85-.24-2.645-.343-4.92-1.047-6.61-2.208-.024-.02-.054-.04-.077-.055-1.602-1.018-2.43-1.877-2.783-2.48-.36-.6-.396-.94-.27-1.58.25-1.264 1.773-3.505 3.506-6.435 0-.004.01 0 .017 0 .015-.023.363-.332 1.14-.566.775-.23 1.874-.387 3.06-.47 2.38-.156 5-.03 6.734-.05 5.778-.08 11.4-.34 17.067-.414zm111.29 17.68c.05.025.1.06.16.08.72 2.48 1.52 4.93 2.36 7.363.03.3.13.6.29.86 2.67 7.69 5.67 15.16 7.72 22.7-.14.04-.28.09-.42.16-.94.48-1.54 1.04-2.12 1.43-.51.33-.836.44-1.06.48-3.03-10.96-7.7-21.42-10.64-32.02 1.01-.058 1.73-.4 2.64-.7.354-.12.705-.25 1.052-.37zm-112.67 15.776L308.08 225l-9.755 3.402c-3.584-4.106-7.43-7.51-11.19-11.39-.055-.055-.13-.113-.186-.162-2.71-2.236-5.49-4.25-8.34-6.05 4.75-8.78 9.48-17.34 14.17-25.138zM465 187.93c.13-.006.556.14 1.084 1.03.522.882.942 2.347.962 3.997.02 1.657-.366 3.13-.87 4.03-.502.903-.922 1.044-1.06 1.044-.13 0-.556-.13-1.082-1.01-.523-.89-.953-2.35-.978-4-.02-1.65.38-3.12.884-4.02.504-.9.924-1.052 1.06-1.052zm-5.58.76c-.44 1.33-.65 2.812-.63 4.375.02 1.724.31 3.326.882 4.74-.556-.086-1.112-.18-1.675-.268-.077-.014-.16-.01-.238-.014-1.45-.073-2.87-.112-4.29-.107-2.24.005-4.44.113-6.61.308-.1-.362-.28-.7-.56-.977-.33-.317-.46-.478-.5-.522v-.015c0-.074.04-.28.22-.76.18-.485 1.18-1.545 2.56-2.385 1.37-.835 3.07-1.523 4.2-1.82 2.32-.61 4.56-1.71 6.62-2.555zm-55.68 1.607c.56 1.553 1.12 3.095 1.655 4.643l-56.61 67.38c-3.43-2.858-7.71-4.675-12.53-5.037-.128-.008-.25-.028-.376-.038-.04-.005-.08.005-.11 0-.51-.04-1.02-.064-1.54-.07-.92-.008-1.83.04-2.72.133l-6.27.044-2.51-6.426 2.73-.898c.975-.278 1.644-1.508 1.405-2.593l-9.23-23.745c-.346-.795-1.16-1.31-1.95-1.22-.257 0-.506.048-.74.15l-2.827.977-7.695-19.81h.064c41.96-4.325 66.063-8.182 99.232-13.49zm3.263 9.41c.638 2.005 1.22 4.008 1.742 6.02.244.956 1.124 1.625 2.115 1.605.477-.004.95-.004 1.43-.014.684-.005 1.294-.156 1.836-.36.185.565.367 1.122.562 1.688-22.237 14.23-35.708 40.36-34.2 68.9v.016c.4 6.548 2.886 24.298 10.923 33.755.08.083.16.156.24.225 1.14.97 2.65 1.44 3.94 1.18 1.29-.262 2.17-1 2.84-1.69.51-.51.9-1.008 1.22-1.453 6.69 9.73 15.9 17.52 26.66 22.32-1.33-.11-2.62-.27-3.83-.51-6.36-1.28-14.7-2.12-21.1-2.12h-99.34c-4.77 0-10.42-.48-16.06-.5-4.383-.02-8.773.25-12.74 1.24-.36.087-.99.165-1.843.238 12.065-6.86 21.748-17.63 27.417-30.663l35.64 5.16c.064.01.137.016.2.02 7.798.26 13.92-3.09 17.764-8.07.51.41 1.04.826 1.523 1.22-.043.18-.063.354-.07.535 0 .18-.062 1.42-.052 2.597.01.59.03 1.175.098 1.74.03.28.08.566.17.894.093.325.103.755.86 1.365 1.97 1.59 3.21 3.064 5.444 3.56 1.124.242 2.525-.11 3.46-.87.926-.758 1.56-1.74 2.23-3.03.59-1.124.98-1.954 1.19-2.876.216-.926.09-2.176-.48-2.986-1.136-1.63-2.166-1.667-3.4-2.668-1.12-.906-1.92-1.92-3.655-2.356-.87-.22-2.08-.04-2.89.53-.084.06-.138.14-.217.2-.62-.5-1.255-1.02-1.913-1.54 2.198-4.35 3.06-9.39 2.56-14.32l-.015-.172-.016-.07c-.22-2.35-.79-4.614-1.66-6.72-.107-.263-.23-.527-.346-.79-.04-.088-.07-.165-.108-.254-.01-.027-.03-.052-.04-.075-.872-1.917-1.966-3.68-3.265-5.267l55.2-65.67zm46.39 1.99c1.343-.004 2.69.025 4.058.094 6.35 1.03 12.03 1.56 17.8 3.06-.24.54-.5 1.12-.87 1.7-.79 1.27-1.67 2.44-2.3 3.3-6.26-2.2-12.97-3.44-19.94-3.5-11.18-.107-21.7 2.788-30.87 7.934-.48-1.274-.94-2.554-1.4-3.83 9.73-5.516 21.08-8.69 33.54-8.74zm-214.927 1.754h1.13c11.24.09 22.635 2.97 33.27 8.92-.56 1.04-1.114 2.08-1.675 3.12-8.87-5-19.01-7.89-29.83-7.99-33.3-.31-60.86 25.89-63.88 59.4-.24.07-.45.11-.72.18-1.04.27-2.29.6-3.48.8-1.18.2-2.33.22-2.9.11-.16-.022-.24-.02-.28-.02-.24-4.973 1.51-11.89 3.83-18.093 2.37-6.33 5.31-12.04 6.83-14.364 13.384-20.13 34.57-31.456 56.6-32.027.377-.01.75-.01 1.12-.016zm177.666 9.28c.46 1.27.928 2.54 1.407 3.8-17.58 11.52-29.33 31.68-29.55 54.68-.12 12.62 3.26 24.45 9.19 34.52-.04.05-.08.08-.11.13-.218.266-.4.52-.59.78-.377.516-.772 1.054-1.13 1.415-.35.36-.623.47-.623.47l-.174-.11c-6.41-7.7-9.448-25.355-9.8-31.087-1.416-26.753 10.864-51.1 31.362-64.58zm-139.57 1.85c2.608 1.67 5.167 3.52 7.652 5.57l.015.02c3.38 3.48 6.64 6.508 9.63 9.79l-4.05 1.405c-4.257-5.31-9.31-9.91-14.97-13.627.56-1.05 1.137-2.095 1.704-3.145zm175.464 4.15c28.37.27 51.22 24.2 50.943 53.55-.28 29.36-23.58 52.86-51.95 52.59-28.37-.27-51.16-24.19-50.89-53.55.17-17.89 8.87-33.6 22.06-43.08 3.5 8.48 7.21 16.86 10.61 25.07 1.91 4.598 5.15 8.46 8.52 11.75l1.47 1.437c.24.233.48.458.722.683-.77 1.342-1.217 2.89-1.23 4.535-.05 5.084 4.046 9.36 9.153 9.41 5.103.05 9.293-4.15 9.34-9.233.05-5.083-4.066-9.35-9.17-9.394-1.904-.02-3.695.548-5.18 1.54-.22-.205-.44-.395-.654-.605-.484-.47-.97-.957-1.46-1.43-3.15-3.072-6.01-6.564-7.573-10.332-3.53-8.515-7.335-17.142-10.91-25.82 7.34-4.38 15.82-6.94 24.85-7.09.44-.01.884-.02 1.32-.013zm-212.114 1.18h1.328c8.75.09 16.987 2.4 24.17 6.45-5.908 11.14-11.675 22.02-17.12 31.59l-9.056.07h-.162c-1.997.2-3.896.76-5.625 1.61-.03.016-.058.026-.092.04-.025.016-.054.045-.08.055-5.106 2.44-8.77 7.483-9.29 13.37v.026c-.01.14-.03.28-.04.426-.073.974-.054 1.97.054 2.97.48 4.454 2.28 8.08 5.5 10.586.84.66 1.77 1.24 2.78 1.75l.01.016c1.72.97 3.63 1.64 5.67 1.92 1.51.34 3.11.58 4.86.754v.01l43.36 6.254c-8.727 16.953-26.09 28.423-45.95 28.23-28.364-.26-51.162-24.19-50.89-53.55.275-28.894 22.795-52.11 50.553-52.57zm-53.106 1.42c-1.69 1.7-3.31 3.51-4.857 5.39-.77-2.22-1.94-3.99-2.28-4.84-.01 0 0 0 0-.01.02-.01 0 0 .04-.01.7-.23 2.31-.44 4.91-.51.65-.01 1.39-.01 2.18-.01zm86.13.06c4.75 3.168 9.036 7.02 12.723 11.42l-4.03 1.405c-3.14-3.52-6.71-6.624-10.61-9.25.63-1.19 1.28-2.38 1.91-3.57zm-97.442 1.39c.067.22.11.48.19.67.673 1.718 1.708 3.16 2.22 4.66.505 1.47.63 2.718-.36 4.43-.694.97-1.187 1.24-1.314 1.27-.126.04-.108.06-.4-.144-.586-.407-1.583-2.04-1.914-3.08-.474-1.483.015-5.1 1.19-7.215.158-.285.275-.45.388-.59zM314.824 226c2.803 7.17 5.567 14.34 8.38 21.51-14.127 4.614-28.258 9.23-42.39 13.85-2.66-6.923-5.312-13.855-7.987-20.775 13.73-4.785 27.47-9.54 41.21-14.32l.387-.133.4-.133zm-45.757 2.676c2.993 2.04 5.772 4.4 8.282 7.024l-6.83 2.37c-.96.29-1.61 1.506-1.38 2.58l6.58 17.103-22.49.16c5.09-9.03 10.404-19.05 15.82-29.24zm49.614 23.59l2 5.14-18.13.136 16.14-5.275zm3.06 8.488c-6.56 4.138-10.98 11.45-11.05 19.72 0 .223.01.443.01.668l-6.83-.376c.274-2.364.43-4.75.454-7.19.04-4.34-.34-8.58-1.084-12.69l18.51-.133zm-22.73.16c.79 4.08 1.18 8.3 1.14 12.626-.02 2.38-.16 4.71-.44 7.01l-3.84-.2c.28-2.243.44-4.53.46-6.85.046-4.304-.39-8.493-1.23-12.542l3.92-.04zm-21.99.18l.97 2.513c.42 1.07 1.69 1.6 2.64 1.1l10.32-3.377c.85 3.9 1.274 7.964 1.234 12.14-.02 2.26-.17 4.467-.456 6.654l-35.695-1.905c.263-1.14.405-2.328.415-3.53.044-4.95-2.14-9.45-5.62-12.5l.52-.916 25.685-.186zm57.18.253c4.47.04 8.57 1.65 11.8 4.295l-4.09 4.868c-2.05-1.61-4.61-2.6-7.39-2.714-.01 0-.03-.02-.04-.02-.11-.02-.23-.033-.34-.04-.22 0-.437.005-.657.015-1.354.056-2.66.32-3.88.774l-2.313-5.943c1.86-.716 3.845-1.14 5.93-1.23.322-.014.654-.02.99-.014zm-94.52.975c.21-.01.41-.005.62 0 1.73.015 3.37.405 4.848 1.083-.496.85-.985 1.69-1.483 2.51-1.045-.43-2.187-.666-3.383-.68-5.102-.046-9.297 4.14-9.346 9.22-.046 5.084 4.06 9.36 9.17 9.41 2.13.02 4.085-.7 5.66-1.914l3.87.2c-2.25 2.843-5.71 4.67-9.557 4.634-6.668-.063-12.06-5.68-12-12.366.063-6.483 5.224-11.83 11.605-12.1zm83.78 2.246l2.397 6.16c-2.832 2.36-4.672 5.91-4.712 9.85 0 .374.017.75.047 1.122l-6.32-.333c-.01-.288-.013-.57-.013-.86.06-6.61 3.48-12.49 8.606-15.94zm-74.78 1.29c2.26 2.25 3.65 5.37 3.617 8.79-.01 1.153-.194 2.28-.507 3.35l-2.96-.16c.377-1 .59-2.08.606-3.2.02-2.36-.86-4.53-2.308-6.2.513-.85 1.036-1.71 1.553-2.585zm202.92.787c2.807.03 5.09 2.384 5.06 5.21-.02 2.83-2.35 5.138-5.15 5.114-2.8-.03-5.07-2.386-5.05-5.21.01-.63.13-1.22.34-1.78 1.026.85 2.023 1.67 2.92 2.543.42.41.558.89 1.47 1.778.538.58 1.363.82 2.13.618.766-.2 1.343-.807 1.523-1.58.185-.77-.074-1.577-.67-2.104-.293-.29-.5-.857-1.455-1.79-.936-.91-1.883-1.72-2.826-2.5.54-.19 1.115-.307 1.716-.3zm-102.58 2.06c2.64 3.357 4.208 7.604 4.17 12.17-.034 3.32-.913 6.446-2.427 9.18-1.71-1.28-3.457-2.534-5.122-3.76-.003-.004-.01-.01-.013-.01.8-1.665 1.258-3.516 1.27-5.463.027-2.614-.74-5.055-2.072-7.106l4.207-5.01zm-108.79.685c.41.008.8.066 1.18.164-.56.894-1.092 1.772-1.65 2.623-.64.995-.35 2.332.65 2.972.997.64 2.316.35 2.96-.648.465-.718.92-1.46 1.39-2.206.338.7.53 1.48.525 2.306-.03 2.828-2.34 5.138-5.143 5.11-2.797-.026-5.072-2.38-5.044-5.21.03-2.824 2.34-5.133 5.14-5.11zm93.428 2.508c.15-.005.293-.005.445 0 4.794.044 8.677 4.063 8.633 8.888-.01 1.04-.21 2.02-.55 2.948-.785-.6-1.536-1.18-2.19-1.714-1.543-1.254-2.68-2.39-2.944-2.783-.44-.672-1.22-1.05-2.02-.96-.75.084-1.4.557-1.712 1.24-.31.69-.244 1.5.186 2.12.86 1.27 2.133 2.36 3.79 3.706.765.62 1.61 1.276 2.503 1.955-1.56 1.407-3.618 2.256-5.85 2.237-4.8-.042-8.69-4.08-8.65-8.9.04-4.673 3.766-8.53 8.36-8.725zm-79.237 10.51l36.567 1.97c-.76 3.575-1.867 7.007-3.28 10.268l-39.754-5.74c2.71-1.51 4.966-3.765 6.465-6.495zm40.74 2.184l3.885.2c-.723 3.82-1.797 7.507-3.173 11.03l-3.944-.56c1.4-3.402 2.49-6.97 3.237-10.67zm8.088.43l7.936.43c1.15 5.548 4.27 10.43 8.594 13.824l-19.68-2.834c1.372-3.66 2.432-7.48 3.15-11.42zm12.258.656l6.817.36c2.017 4.424 6.426 7.583 11.577 7.63 3.613.036 6.9-1.463 9.263-3.88 1.69 1.235 3.435 2.505 5.12 3.775-3.552 4.018-8.732 6.557-14.45 6.5-8.774-.08-16.142-6.23-18.324-14.39zm43.54 12.635c.186.147.66.444 1.646 1.246 1.25 1.007 1.98 1.514 2.29 1.66-.1.294-.28.718-.71 1.553-.52.983-.92 1.452-1.09 1.603-.146-.063-1.48-1.016-3.036-2.23-.03-.3-.05-.665-.055-1.1-.01-.67.025-1.13.04-1.63.308-.207.55-.49.723-.82.123-.23.103-.17.187-.28zm332.44 30.328c-1.59.014-3.35.23-5.672.698-3.56.714-7.61.22-11.92.265l-8.69 5.19c1.418-.16 2.815-.336 4.15-.56 5.11-.85 11.097.547 17.308-.7 5.878-1.17 6.43-.766 12.17.67 4.41 1.104 9.46.054 12.93.054h2.11c.105.03.21.045.325.055 2.77.26 8.36 1.334 12.63 1.334H748.9c4.083 0 8.06-.167 11.2.62 5.78 1.444 11.61-.62 15.7-.62h19.3c7.196 0 13.95-1.39 20.692-1.39 5.776 0 11.684-.68 17.25-.68.454 0 .918.02 1.377.04l-6.47-4.19c-4.186.2-8.297.546-12.165.546-7.306 0-14.063 1.39-20.694 1.39h-19.31c-5.255 0-10.632 1.76-14.65.753-4.043-1.015-8.31-.756-12.247-.756h-22.07c-3.51 0-8.98-1.01-12.23-1.32-.08-.01-.17-.01-.25-.01-.164-.04-.33-.052-.505-.052h-2.075c-4.157 0-9.01.787-11.885.07-2.843-.714-4.8-1.197-6.83-1.353-.504-.04-1.022-.06-1.55-.056zm213.078.16c-4.38-.013-8.76.255-12.72 1.246-3.663.918-8.072.894-12.54.777l-7.963 4.15c.337-.006.68-.016 1.016-.016 6.255 0 13.798.932 20.52-.75 7.765-1.94 18.805-.626 27.76-.626h53.804c6.01 0 47.26-.563 53.27.64 3.85.77 7.49 1.14 11.05 1.31V331.2c-3.47-.166-6.84-.503-10.216-1.177-6.37-1.277-47.71-.74-54.11-.74h-53.81c-4.78 0-10.424-.48-16.063-.49z" fill="#fff" fill-rule="evenodd"/><path d="M349.595 103.216c-.635.035-1.24.4-1.567.953-.323.54-.357 1.26-.08 1.83 5.172 11.14 10.323 16.41 16.345 19.63 2.875 1.54 5.883 2.63 9.165 3.77 5.996.83 13.29 2.23 18.617 3.99.655.21 1.806.37 3.038 1.02.317.16.668.37.99.67l.485-.06c.487-.068.932-.13 1.322-.21.396-.074.615-.05 1.235-.387.153-.084.36-.19.64-.54.284-.346.576-1.225.338-1.914-.245-.684-.655-.917-.884-1.055-.24-.134-.38-.183-.51-.23-.54-.163-.89-.18-1.49-.22-.24-.02-.63-.03-.91-.045 1.15-.36 2.06-.61 2.94-1.11.22-.12.47-.25.77-.6.303-.35.73-1.27.43-2.12-.31-.84-.86-1.1-1.187-1.25-.32-.156-.595-.22-.88-.283-.19-.044-.384-.064-.575-.054-.777.055-1.49.622-1.715 1.364v.016c-.39.136-.496.185-1.004.346-1.14.36-2.497.78-3.776 1.27-1.278.48-2.46.95-3.466 1.82-.19.16-.435.39-.616.76-.08-.057-.17-.106-.258-.15-8.936-4.04-15.567-5.39-20.895-8.24-5.32-2.854-9.685-7.147-14.65-17.84-.32-.713-1.1-1.192-1.875-1.153zm46.347 38.268c-.048.063-.097.12-.146.184.146-.043.298-.092.454-.146-.074-.01-.292-.04-.307-.04zm-77.856 16.152c-.64.044-1.24.424-1.562.976-.323.556-.35 1.274-.07 1.85 5.695 11.856 12.55 25.786 15.7 37.89.434 1.66 1.005 3.33 1.752 4.966.054.113.083.235.136.348l.016-.015c.58 1.65 1.923 2.43 3.315 3.16 1.5.79 3.257 1.44 4.996 2 1.73.56 3.44 1 4.75 1.31.65.16 1.2.28 1.62.36.41.09.54.14.82.18 1.02.15 2.08-.63 2.23-1.64.15-1.01-.63-2.08-1.65-2.23.16.025-.207-.04-.59-.12-.38-.08-.92-.197-1.54-.35-1.24-.297-2.857-.717-4.468-1.23-1.61-.51-3.23-1.13-4.367-1.73-1.14-.6-1.568-1.336-1.485-1.013-.036-.122-.08-.24-.14-.35-.683-1.43-1.196-2.994-1.616-4.616-3.31-12.73-10.294-26.763-15.968-38.59-.33-.713-1.116-1.186-1.903-1.137z" fill="#fff"/><path d="M314.043 226.244c-13.735 4.776-27.475 9.54-41.21 14.326 2.675 6.92 5.326 13.842 7.992 20.767 14.126-4.615 28.258-9.224 42.388-13.844-2.818-7.162-5.577-14.35-8.38-21.518l-.404.137-.39.13z" fill="#e6e6e6"/><path d="M307.725 232.85c-1.534.166-1.95 1.997-1.52 3.252.826 4.03 1.43 8.208 3.508 11.83.897.914 2.538.5 2.826-.76.35-.947-.14-1.866-.68-2.583-1.43-3.48-1.82-7.28-2.6-10.94-.33-.51-.93-.86-1.54-.8zm-8.863 2.3c-2.666.93-5.186 2.402-7.88 3.17-1.563 1.69-1.007 4.374-.167 6.27 1.4 2.245 4.513 1.937 6.626 1.01.9-.25 2.08-1.43 2.88-.36 1 1.59-.45 3.426-1.95 4.046-1.55.805-3.62.542-4.98 1.67-1.13 1.563 1.16 3.486 2.65 2.587 3.58-.415 7.51-2.787 8.05-6.626.37-2.616-1.53-5.317-4.21-5.57-1.53-.332-2.85.55-4.13 1.22-.63.288-2.23.723-2.15-.45-.124-.56-.01-1.156.686-1.258 1.165-.2 2.13-.83 3.11-1.41 1.336-.49 3.47-1.11 3.343-2.9-.143-.85-1.003-1.51-1.86-1.41zm-16.4 6.294c-1.602.2-1.91 2.138-1.412 3.403 1.025 3.985 2.408 7.94 3.666 11.86.958 1.28 2.974.31 3.086-1.137.113-1.4-.863-2.636-1.132-4.01-1.11-3.08-2.007-6.234-2.69-9.403-.328-.49-.93-.77-1.52-.714z"/><path d="M335.957 57.035c-1.528.327-1.2 2.827-1.66 4.2-.43 3.666.224 7.695 3.198 10.185 3.837 3.745 10.625 5.312 14.927 1.45 2.407-1.6 4.732-4.02 7.88-3.48 1.783 1.322 2.203-3.966.592-3.23-9.083.265-15.602-8.055-24.36-9.14-.192.02-.392-.024-.577.015z" fill="#b3b3b3"/><path d="M279.38 101.532c-3.848 12.173-6.636 27.447-9.595 40.635 15.235 1.72 31.875 10.088 46.025 12.432l18.78 5.47 12.43-37.54-1.454-.36c-4.867-2.49-27.34-7.37-36.714-9.37-11.757-2.59-16.38-6.27-29.472-11.27z" fill="#ececec"/><path d="M277.895 106.55c-.966 3.463-1.86 7.106-2.72 10.817.58.205 1.202.318 1.846.318 3.08 0 5.6-2.54 5.6-5.607 0-2.772-2.06-5.102-4.72-5.527zm17.945 6.398c-3.066 0-5.58 2.54-5.58 5.605 0 3.072 2.514 5.61 5.58 5.61 3.07 0 5.595-2.538 5.595-5.61 0-3.066-2.524-5.605-5.595-5.605zm18.886 5.38c-3.066 0-5.58 2.54-5.58 5.607 0 3.07 2.514 5.61 5.58 5.61 3.07 0 5.596-2.54 5.596-5.61 0-3.067-2.525-5.607-5.596-5.607zm-32.172 1.875c-3.07 0-5.58 2.54-5.58 5.607-.002 3.066 2.508 5.61 5.58 5.61 3.066 0 5.59-2.544 5.59-5.61 0-3.067-2.524-5.607-5.59-5.607zm52.114 2.193c-3.067 0-5.58 2.54-5.58 5.61 0 3.067 2.513 5.606 5.58 5.606 3.07 0 5.596-2.54 5.596-5.606 0-3.07-2.525-5.61-5.597-5.61zm-33.218 4.365c-3.066 0-5.58 2.54-5.58 5.61 0 3.07 2.514 5.61 5.58 5.61 3.066 0 5.596-2.54 5.596-5.61 0-3.06-2.53-5.6-5.596-5.6zm-29.096 3.48c-.787 3.71-1.558 7.37-2.344 10.9.54.18 1.117.28 1.714.28 3.066 0 5.595-2.54 5.595-5.6 0-2.85-2.2-5.25-4.97-5.57zm18.188 6.44c-3.067 0-5.58 2.54-5.58 5.61 0 1.39.517 2.67 1.367 3.66 1.85.57 3.71 1.17 5.56 1.78 2.42-.61 4.24-2.82 4.24-5.43 0-3.063-2.53-5.602-5.6-5.602zm18.887 5.37c-3.08 0-5.59 2.54-5.59 5.61 0 1.98 1.05 3.74 2.62 4.74 1.05.31 2.09.59 3.13.86 2.98-.09 5.42-2.58 5.42-5.59 0-3.07-2.53-5.61-5.59-5.61zm19.94 4.08c-3.07 0-5.58 2.54-5.58 5.61 0 3.07 2.51 5.61 5.58 5.61 3.06 0 5.59-2.54 5.59-5.6 0-3.07-2.53-5.61-5.6-5.61z" fill="#d40000"/><path d="M304.473 3.543c-.362.015-.718.074-1.084.192-.74.228-1.52.892-1.83 1.645-.6 1.503-.05 2.412.2 3.198.2.62.29 1.025.35 1.338-1.2-.02-2.76-.035-4.4.36-1.03.25-2.137.66-2.987 1.66-.756.89-1.03 2.217-.845 3.492-.1 1.895-1.104 5.074.36 8.233-.22.75-.83 1.25-1.86 2.21-.6.57-1.336 1.29-1.72 2.44-.388 1.15-.206 2.56.44 3.84.022.04.042.09.066.13 1.087 1.82 2.54 3.97 4.246 6.2-.26.378-.514.75-.724 1.12-1.236 2.197-2.568 3.71-3.41 6.79-.707 2.557-1.688 5.208-2.46 8.04-.75 2.71-1.75 5.42-2.53 8.277-.796 2.86-1.57 5.676-1.89 8.78-.22 2.145-1.55 4.66-2.33 7.496-.677 2.448-1.64 5.134-1.94 8.034-.3 2.86-1.58 5.642-2.49 8.952l-2.22 8.11c-.67 2.43-.94 4.293-1.556 6.545-.58 2.1-.59 3.954-1.007 5.46-.17.65-.5 2.15-1.01 4.508-.514 2.36-1.157 5.38-1.807 8.406-.653 3.022-1.303 6.05-1.82 8.417-.52 2.37-.96 4.256-.99 4.38-.16.56-.036 1.19.306 1.66.35.473.904.78 1.49.805.03.006.06.01.093.01l1.615.445c2.93.803 5.653 1.3 8.41 2.06 3.19.88 6.935 1.453 10.103 2.3-.17.334-.24.72-.2 1.1.5 5.91 2.405 10.17 2.73 13.32.164 1.57.012 2.813-.71 4.2-.72 1.372-2.116 2.934-4.685 4.76-.01-.01-.57.33-1.22.66-.74.37-1.747.853-2.913 1.416-2.34 1.12-5.353 2.55-8.356 3.99-2.996 1.44-5.98 2.88-8.31 4.08-1.16.6-2.16 1.14-2.93 1.59-.39.23-.726.425-1.02.63-.22.157-.42.31-.67.59-.076.087-.15.13-.253.277l.046.03c-1.084 1.294-1.054 2.87-.83 4.28.24 1.515.77 3.078 1.363 4.568.595 1.482 1.264 2.884 1.79 3.944.27.53.503.975.674 1.297.08.162.15.303.2.392 0 0-.002 0 0 .006.008.02.008.03.01.04.018.03.027.06.03.07.4.95 1.638 1.438 2.58 1.03.95-.4 1.43-1.62 1.03-2.57-.102-.274-.112-.26-.17-.372-.056-.107-.12-.24-.2-.4-.168-.317-.39-.742-.64-1.245-.504-1-1.124-2.317-1.66-3.65-.538-1.34-.98-2.72-1.14-3.726-.13-.83.02-1.226-.03-1.23l.03-.03c.005-.004.005-.02.01-.024.01-.01.033-.03.043-.043.01-.01.022-.017.04-.027.15-.106.41-.262.744-.452.665-.39 1.618-.9 2.745-1.49 2.26-1.16 5.236-2.602 8.22-4.033 2.99-1.434 6-2.86 8.357-3.99 1.174-.564 2.19-1.053 2.97-1.444.78-.39 1.17-.55 1.71-.94 2.903-2.06 4.803-4.05 5.92-6.18 1.11-2.122 1.335-4.324 1.12-6.41-.416-4.01-2.145-7.763-2.663-12.684.18.09.36.178.52.27 4.956 2.794 10.386 3.068 14.62 4.815 5.595 2.32 11.6 2.705 16.81 4.136 2.417.67 5.616 1.695 8.165 2.466.13.804.824 1.477 1.63 1.595.805.116 1.66-.33 2.02-1.06.923-.455 1.333-1.725.854-2.637.64-1.987 1.6-4.9 2.72-8.334 1.617-4.938 3.22-9.806 3.63-11.285.67-2.446 2.07-4.85 2.915-7.925l1.66-6.02c1.48 1.706 3.05 3.11 4.74 4.35 5.503 4.044 11.81 6.213 19.74 11.26.57.4 1.36.46 1.98.143-.1.536 0 1.01.11 1.336.16.48.37.82.59 1.164.89 1.358 2.263 2.808 2.57 3.29.44.69.605 1.075.976 1.62.372.544.973 1.08 1.675 1.5.878.524 2.14.2 2.666-.667.52-.876.203-2.145-.67-2.67-.456-.275-.367-.22-.47-.36-.097-.15-.36-.68-.894-1.52-.35-.54-.69-.9-1.114-1.413 1.146.095 2.367.153 3.505.17.492.01.94.01 1.34-.01.397-.02.61.03 1.27-.217.167-.065.382-.13.71-.43.325-.3.745-1.13.604-1.847-.148-.715-.518-1.01-.725-1.18-.207-.17-.355-.234-.48-.3-.51-.236-.85-.31-1.43-.44-.24-.05-.637-.105-.915-.16 1.196-.2 2.15-.31 3.09-.68.24-.094.494-.18.845-.484.35-.3.904-1.17.723-2.05-.18-.88-.685-1.205-.99-1.405-.3-.2-.554-.3-.83-.4-.23-.09-.49-.14-.744-.13-.713.02-1.396.46-1.7 1.11-.404.08-.516.123-1.044.21-1.18.197-2.585.427-3.92.724-1.337.3-2.567.61-3.68 1.324-.21.137-.48.323-.71.66-.077-.064-.154-.123-.24-.177-8.28-5.263-14.66-7.533-19.53-11.107-2.09-1.54-3.983-3.305-5.71-5.73.525-1.682 1.09-3.405 1.575-5.163l2.29-8.34c.796-2.892 1.81-5.69 2.646-8.74.87-3.15 1.45-6.14 2.264-9.1.824-3 1.576-5.804 2.767-8.38.468-.993.81-2.033 1.1-3.074 1.09.157 2.22.31 3.415.48 1.538.22 3.018.42 4.15.58 1.128.16 1.714.24 2.03.27 1.01.12 2.04-.7 2.16-1.71.113-1.01-.708-2.03-1.713-2.14.13.013-.82-.105-1.946-.256-1.12-.157-2.616-.36-4.15-.577-1.043-.15-2.05-.3-3.046-.445.166-.78.346-1.532.53-2.22.66-2.387.875-4.877 1.03-7.157 1.495-.798 2.7-2 3.428-3.56.04-.09.098-.168.133-.26 3.972-6.676 6.312-15.958 3.41-23.54-.006-.02-.006-.04-.01-.054h-.014c-2.66-7.464-6.52-12.13-11.377-15.58-4.875-3.456-10.62-5.765-17.39-9.085-.03-.02-.06-.036-.094-.05-13.76-5.9-24.09-7.22-37.283-10.16-.07-.012-.143-.03-.216-.04-.385-.04-.746-.066-1.108-.05zm-6.465 38.107c2.637 3.05 5.645 5.976 8.74 8.04.83.84 1.723 1.602 2.676 2.306-.733 1.8-1.42 3.662-1.793 6.02v.015c-1.3 8.79-2.53 16.65-1.15 27.28l.06.23c.98 4.2 4.27 10.92 7.56 17.39 2.05 4.02 4.04 7.79 5.46 10.48-2.99-.56-5.8-1.15-8.2-1.8-7.33-2.02-14.35-5.13-21.67-7.15-2.43-.67-4.64-2.92-8.55-4.09-.07-.1-.17-.26-.49-.55l-.012-.013.777-2.806c.793-2.89 2.23-5.902 2.61-9.584.234-2.278 1.08-4.778 1.805-7.406.6-2.18 2.116-4.888 2.447-8.12.288-2.7 1-5.29 1.787-8.154.726-2.642 1.713-5.372 2.514-8.287.72-2.62 1.703-5.27 2.466-8.04.64-2.337 1.61-3.338 2.983-5.74zm14.858 12.513c3.735 2.037 7.877 3.424 11.632 4.576.013 0 .033 0 .053.01.04.01.08.03.12.04 2.39.92 4.66.6 6.63.13-.29 1.22-.49 2.57-.34 4.09.36 5.48 3 10.34 6.84 12.883 4.21 2.695 9.49 3.656 13.75 1.58.07-.03.138-.066.2-.106 1.43-.895 2.95-1.78 4.46-2.77.123-.08.24-.177.346-.28 1.09-1.103 1.806-1.64 2.606-1.567.18.02.36.016.535-.014h.055c.08.07.173.13.27.176-.155.59-.296 1.187-.43 1.78-.048-.01-.21-.032-.24-.04-.198-.04-.4-.053-.59-.04-.926.09-1.72.934-1.756 1.86-.034.93.693 1.824 1.607 1.985.02 0 .04.01.058.013-.22.754-.45 1.452-.735 2.07-.814 1.77-2.684 7.47-3.222 9.255-14.15.543-5.216 6.04-1.998 8.48-.644 2.09-2.055 6.81-2.675 9.076l-2.29 8.34c-.15.555-.32 1.126-.49 1.687-1.27-2.56-2.426-3.293-3.59-7.145-.23-.807-1.034-1.407-1.874-1.407-.603 0-1.194.314-1.55.802-.35.49-.462 1.147-.28 1.73 1.14 3.772 2.31 4.6 3.63 7.303-3.876-1.433-8.62-2.43-13.543-3.36-1.81-.34-3.633-.66-5.45-.99-1.165-2.36-4.05-7.62-7.025-13.474-3.233-6.356-6.475-13.38-7.173-16.278-1.27-9.918-.147-17.08 1.152-25.836 0-.005-.005-.015 0-.025.26-1.67.74-3.056 1.337-4.55zm23.502 3.707c.678-.02 1.322.068 1.952.297.064.02.128.04.19.054 2.77.7 5.953 2.51 9.25 4.34 3.29 1.83 6.708 3.71 10.385 4.31.005.01.01 0 .014 0 .96.17 1.92.22 2.84.15-.05.53-.09 1.06-.15 1.57-.25-.03-.5-.07-.75-.09-.2-.01-.39-.02-.61-.01-.11.007-.23 0-.42.03-.09.017-.217.027-.384.08-2.216.134-3.866 1.42-4.99 2.53-1.307.85-2.7 1.68-4.11 2.56-2.39 1.133-6.37.644-9.517-1.367-3.164-2.025-5.327-5.214-4.873-9.237.017-.147.017-.3 0-.444-.125-1.33.335-2.86.79-4.72.125-.01.247-.026.365-.03zm8.34 7.817c-.09.005-.177.015-.27.03-.742.11-1.4.698-1.7 1.23-.32.566-.784 1.245-.912 2.34-.06.55.02 1.298.46 1.913.434.62 1.093.976 1.738 1.152.776.215 1.532.298 2.314.03.786-.27 1.42-.996 1.646-1.646.45-1.304.092-2.256-.186-3.013-.117-.312-.323-.59-.59-.79-.03-.025-.43-.48-1.14-.885-.307-.176-.755-.386-1.36-.36zM279.483 103.9c.087.035.185.053.283.078 2.988.825 5.078 3.17 8.887 4.22 1.508.414 3.012.898 4.536 1.405 29.32 11.66 41.47 7.788 52.1 14.078-.73 2.52-1.42 5.15-2.13 7.71-.68 2.45-2.09 4.85-2.94 7.93-.278.99-1.96 6.18-3.58 11.11-.985 3.02-1.903 5.81-2.57 7.87-2.444-.75-5.603-1.75-8.093-2.43-9.408-2.77-22.725-4.36-30.547-8.58-4.69-2.64-11.035-3.09-15.27-4.26-2.953-.81-5.68-1.31-8.406-2.06l-.335-.09.574-2.64c.518-2.37 1.168-5.4 1.82-8.43.65-3.03 1.305-6.04 1.818-8.39.515-2.35.943-4.24.968-4.32.59-2.14.597-3.99.997-5.445.68-2.49.95-4.38 1.55-6.56l.32-1.177z" fill="#fff"/><path d="M308.794 37.19c-.84.016-1.65.572-1.958 1.354-.312.786-.102 1.743.503 2.328 4.63 4.557 13.39 9.757 20.23 10.387 1.11.1 2.23-.82 2.33-1.94.1-1.12-.82-2.23-1.94-2.34-4.74-.44-13.91-5.51-17.64-9.17-.407-.4-.973-.64-1.544-.63zm-4.444-15.404c-1.015.05-1.928.913-2.03 1.924-.104 1.01.62 2.046 1.606 2.295 7.608 1.94 17.734 4.175 26.523 7.157 8.79 2.984 16.05 6.954 18.12 10.978.46 1.074 1.9 1.586 2.94 1.054 1.04-.537 1.46-2.007.85-3.008-3.23-6.27-11.42-9.98-20.54-13.076-9.13-3.1-19.37-5.35-26.86-7.255-.205-.054-.415-.08-.63-.07zm7.39-8.002c-1.033.023-1.98.897-2.08 1.923-.11 1.03.642 2.075 1.654 2.304 7.607 1.94 17.733 4.17 26.527 7.15 8.79 2.99 16.04 6.97 18.11 10.99.52 1 1.9 1.44 2.89.93 1-.52 1.44-1.89.93-2.89-3.22-6.27-11.42-9.98-20.54-13.08-9.12-3.09-19.36-5.34-26.85-7.25-.21-.05-.41-.08-.63-.07zM305.57 7.6c13.004 2.867 22.834 4.186 35.87 9.757.035.015.06.024.094.04 6.855 3.36 12.436 5.663 16.757 8.725 4.34 3.082 7.53 6.865 9.97 13.75.01.014.02.034.03.05 2.28 5.912.33 14.55-3.22 20.4-.05.082-.1.175-.13.268-.76 1.83-2.94 2.944-6.13 2.392h-.01c-2.72-.44-5.86-2.056-9.11-3.867-3.2-1.778-6.5-3.72-10.01-4.644-.005 0-.015.01-.025 0-.05-.01-.1-.03-.15-.05v.02c-2.956-1-5.68-.22-7.9.36-2.254.6-3.944.98-5.59.31-.06-.02-.116-.04-.175-.05-5.97-1.83-12.563-4.29-16.38-8.212-.103-.103-.215-.19-.34-.27-5.45-3.573-11.64-11.47-14.49-16.234-.29-.59-.244-.69-.214-.776.03-.095.218-.38.687-.817.93-.874 2.968-2.37 3.21-5.13.035-.414-.063-.844-.283-1.205-1.006-1.643-.3-3.95-.176-6.89.01-.183-.01-.37-.052-.55-.14-.555-.065-.45-.04-.48.03-.032.326-.25.91-.39 1.174-.282 3.097-.23 4.455-.24.26-.003.517-.06.75-.16.73-.31 1.398-.834 1.794-1.513.4-.68.51-1.406.5-2.006-.025-1.093-.35-1.903-.573-2.57z" fill="#2c2c2c"/><path d="M322.925 126.507c-.343.02-.674.123-.968.3-3.924 2.303-7.494 4.73-11.376 5.98-.13.04-.27.093-.4.16-.6.284-1.06.86-1.19 1.515-.13.654.07 1.36.51 1.855 3.47 3.95 6.57 7.314 9.48 11.445.56.8 1.7 1.133 2.6.753 3.57-1.52 9.18-4.464 12.7-5.518.99-.294 1.67-1.387 1.5-2.407-.25-1.573-1.01-2.34-1.91-3.482-.9-1.142-2.02-2.387-3.2-3.637-2.35-2.5-4.96-5.07-6.02-6.25-.43-.47-1.07-.74-1.71-.71z"/><path d="M322.402 129.52c-3.393 2.115-6.806 4.102-10.532 5.606 3.12 3.52 6.2 7.095 8.965 10.9 4.067-1.896 8.09-3.884 12.315-5.398-2.774-4.345-6.744-7.666-10.16-11.445l-.373.215-.215.122z" fill="#fff"/></svg>