<svg xmlns="http://www.w3.org/2000/svg" viewBox="0 0 1038 339"><path d="M206.275 99.676c-.635.035-1.24.4-1.567.952-.323.548-.358 1.26-.08 1.832 5.172 11.142 10.323 16.41 16.343 19.638 2.88 1.543 5.89 2.632 9.17 3.774 6 .83 13.29 2.238 18.62 3.985.658.21 1.81.37 3.04 1.02.32.166.67.376.99.67.16-.02.328-.035.48-.054.49-.063.936-.127 1.327-.2.396-.078.616-.055 1.23-.39.157-.084.367-.187.646-.533.28-.346.575-1.23.335-1.914-.243-.69-.653-.922-.883-1.06-.23-.136-.372-.185-.51-.23-.53-.165-.883-.18-1.483-.224-.234-.02-.63-.03-.907-.038 1.145-.367 2.064-.617 2.943-1.114.22-.128.47-.254.777-.6.306-.348.73-1.27.43-2.115-.31-.845-.856-1.104-1.184-1.26-.32-.156-.594-.22-.883-.283-.184-.043-.38-.063-.57-.053-.776.05-1.49.62-1.714 1.36v.01c-.39.137-.5.186-1.01.347-1.136.362-2.494.787-3.773 1.27-1.28.49-2.46.957-3.47 1.82-.19.167-.435.392-.616.77-.077-.06-.165-.11-.253-.154-8.934-4.04-15.565-5.39-20.893-8.24-5.322-2.853-9.687-7.15-14.652-17.843-.317-.713-1.1-1.192-1.874-1.153zm46.347 38.267c-.048.063-.097.122-.147.185.147-.043.3-.087.455-.146-.074-.01-.294-.034-.307-.04zM174.767 154.1c-.64.04-1.246.42-1.562.977-.323.556-.353 1.27-.07 1.845 5.695 11.856 12.55 25.786 15.7 37.89.434 1.66 1.005 3.33 1.752 4.966.054.113.083.235.136.348l.01-.015c.587 1.65 1.924 2.43 3.32 3.16 1.5.79 3.258 1.45 4.995 2 1.74.55 3.443 1 4.752 1.31.654.16 1.205.28 1.615.36.415.1.547.13.83.18 1.02.16 2.085-.63 2.236-1.644.16-1.015-.63-2.08-1.64-2.236.16.025-.2-.04-.59-.12-.38-.08-.92-.198-1.54-.35-1.24-.297-2.86-.717-4.462-1.23-1.61-.512-3.23-1.124-4.365-1.73-1.14-.6-1.57-1.336-1.484-1.015-.035-.116-.08-.234-.137-.346-.686-1.43-1.2-2.998-1.62-4.62-3.31-12.73-10.29-26.763-15.964-38.585-.33-.71-1.12-1.184-1.904-1.135z" fill="#fff"/><path d="M170.835 222.572c-13.735 4.775-27.475 9.54-41.21 14.326 2.68 6.914 5.33 13.843 7.993 20.767 14.126-4.614 28.256-9.23 42.387-13.843-2.817-7.17-5.576-14.35-8.374-21.524l-.41.142-.38.132z" fill="#e6e6e6"/><path d="M227.056 125.32c-.914-.01-1.74.562-2.046 1.422-.337.923-.8 2.15-1.075 3.52-.267 1.373-.4 3.013.47 4.575.288.518.776.89 1.35 1.032 1.028.26 2.145.49 3.308.7-.137.75-.293 1.61-.347 2.57-.063 1.186-.04 2.52.723 3.837.32.562.88.94 1.52 1.035 4.154.66 9.812.28 13.53.293.125 0 .26-.006.384-.03.86-.146 1.12.2 2.68.11.577-.036 1.392-.394 1.98-.91.384.05.71-.006.912-.03.4-.044.693-.12 1.16-.17-.073.004.504.004.94 0-.137 1.29-.38 2.95-.34 4.843.08 3.124.207 6.302.54 9.5.01.084.033.162.053.245.517 2.396 1.255 4.403 1.953 6.434-.175.13-.346.3-.477.483-.378.52-.495 1.185-.324 1.805 1.4 5.43 3.246 10.714 5.13 15.93-32.734 5.237-56.69 9.046-98.203 13.33-.42.042-.8.21-1.11.452l-11.527-29.65c1.94-.336 3.858-.824 5.68-1.5 3.017-1.112 6.43-1.74 9.78-2.982 2.91-1.073 5.82-2.356 8.514-3.16 1.175-.344 3-.843 4.685-1.683.845-.42 1.665-.91 2.384-1.645.717-.73 1.357-1.855 1.337-3.135-.005-.53.093-1.292-.025-2.274-.118-.974-.587-2.23-1.58-3.143-1.01-.93-2.167-1.48-3.24-1.77-1.074-.29-2.047-.377-3.09-.547-3.537-.582-7.194-.353-10.494-.308-3.656.05-7.352-.32-11.27-.27-5.765.072-11.39.34-17.063.414-1.407.02-4.234-.13-6.973.054-1.373.092-2.73.273-4.005.654-1.278.38-2.576.954-3.455 2.233-.03.04-.054.08-.084.12-1.614 2.75-3.5 5.006-4.08 7.926-.29 1.457-.09 3.15.776 4.6.87 1.455 2.255 2.67 4.19 3.898 2.48 1.71 5.355 2.5 8.422 2.89 4.17.537 8.392.322 12.445.27.917-.01 1.836-.06 2.754-.124l3.79 9.77c-5.26 8.58-10.606 18.15-15.93 27.974-12.57-6.98-26.2-9.937-39.5-9.234-16.044.846-31.6 7.033-44.203 17.868-.195-.07-.394-.112-.615-.117-3.144-.12-5.6-.15-7.56-.052-1.96.093-3.44.31-4.65.71-.113.04-.212.14-.33.184-.395-.19-.84-.254-1.273-.186-.816.13-1.783.29-2.793.816-1.014.53-1.932 1.45-2.61 2.673-1.76 3.175-2.613 7.22-1.524 10.616.54 1.706 1.495 3.85 3.53 5.275.348.247.757.46 1.19.618-1.49 2.915-3.16 6.58-4.656 10.585-2.476 6.622-4.5 13.99-4.098 20.187.012.112.03.223.052.336.422 1.86 2.194 3.026 3.694 3.315 1.5.295 2.99.14 4.43-.105 1.19-.198 2.296-.465 3.25-.71-.007.327-.01.65-.01.977-.34 36.085 27.81 65.724 62.905 66.055 26.07.244 48.64-15.763 58.66-38.805l35.647 5.152c.065.014.13.024.2.03 7.798.26 13.92-3.097 17.76-8.07.517.41 1.045.823 1.528 1.213-.048.174-.068.355-.068.536-.005.18-.064 1.42-.054 2.596.01.585.03 1.172.09 1.74.037.28.086.57.18.9.09.323.1.753.853 1.36 1.966 1.59 3.206 3.07 5.447 3.563 1.12.24 2.525-.115 3.454-.876.93-.757 1.564-1.743 2.238-3.02.584-1.125.975-1.96 1.19-2.878.21-.924.09-2.174-.483-2.99-1.14-1.625-2.163-1.66-3.4-2.66-1.117-.904-1.92-1.92-3.652-2.36-.87-.214-2.08-.033-2.89.538-.09.056-.138.134-.217.2-.62-.506-1.26-1.02-1.912-1.54 2.198-4.35 3.06-9.39 2.554-14.323-.007-.06-.007-.116-.01-.174-.007-.02-.017-.044-.017-.062-.22-2.35-.79-4.618-1.66-6.72-.108-.27-.23-.534-.347-.79-.038-.09-.068-.17-.107-.256-.015-.03-.03-.053-.04-.083-.874-1.91-1.968-3.67-3.266-5.26l55.195-65.677c.64 2.013 1.22 4.014 1.737 6.027.25.957 1.13 1.62 2.115 1.607l1.435-.015c.685-.01 1.295-.158 1.833-.36.19.563.37 1.12.56 1.69-22.233 14.225-35.7 40.36-34.19 68.9v.013c.4 6.55 2.88 24.295 10.923 33.753.072.083.15.15.24.224 1.13.967 2.65 1.44 3.94 1.177 1.284-.26 2.16-1 2.832-1.687.505-.513.89-1.01 1.217-1.46 11.386 16.567 30.054 27.465 51.265 27.665 35.093.33 63.862-28.765 64.204-64.848.257-27.315-15.86-50.923-38.923-60.938.553-.765 1.183-1.64 1.808-2.64 1.053-1.674 2.162-3.3 2.152-5.498 0-.943-.615-1.763-1.514-2.037-3.024-.933-5.944-1.543-8.834-2.02.04-.065.076-.124.11-.188.96-1.72 1.45-3.85 1.42-6.17-.03-2.32-.56-4.45-1.565-6.144-.807-1.364-2.047-2.58-3.614-2.985-.266-.22-.58-.385-.94-.46-.645-.13-1.278-.17-1.9-.145-1.865.078-3.63.777-5.356 1.475-2.29.93-4.535 2.015-6.26 2.474-1.605.426-3.524 1.202-5.315 2.29-1.79 1.085-3.54 2.403-4.355 4.507-.47 1.22-.673 2.42-.317 3.56.09.314.22.587.36.83-8.554 1.34-16.49 4.13-23.62 8.1-.2-.584-.39-1.18-.58-1.765.313-.25.557-.56.694-.92.116-.01.243-.04.36-.067 1.148-.294 1.82-1.465 1.528-2.608-2.14-8.263-5.325-16.217-8.1-24.147 1.436-5.104 5.67-10.14 7.04-16.72 1.145-5.48-.28-10.156-3.573-12.715-2.056-1.596-4.67-2.29-7.48-2.06-.58.05-1.17.14-1.768.27l.03-.1c.16-.664.35-1.59.267-2.69-.08-1.094-.585-2.67-2.074-3.45-.216-.11-.42-.226-.63-.334-1.25-.653-2.71-.966-4.31-1.313-.973-.21-1.818-.37-2.61-.482-.05-.41-.17-.814-.354-1.175-.45-.883-1.178-1.386-1.793-1.713-1.23-.646-2.39-.807-3.04-1.017-6.256-2.054-15.234-3.642-21.617-4.374-.07-.018-.14-.028-.215-.03zm1.46 4.552c6.01.782 13.808 2.202 19.048 3.92h.024c.918.294 1.646.494 2.06.66-.097.23-.16.395-.2.47-.508-.143-1.802-.485-3.735-.513v-.01c-5.273-.68-12.662-1.34-17.652-2.43 0-.26 0-.53.07-.887.08-.376.26-.805.39-1.22zm24.238 7.94c.092.014 1.646.194 3.027.493 1.45.312 3.1.85 3.24.922.14.074.27.147.4.215 0 .024-.02 0-.01.093.03.35-.05.967-.143 1.367-.215.9-.44 1.802-.654 2.705-.684 2.837-.5 5.4-.59 7.788-.163 4.24 1.068 7.59 2.265 10.977-.143.044-.284.098-.415.147-.38.12-.77.22-1.1.29-.685-1.99-1.325-3.79-1.755-5.73-.304-2.99-.43-6.02-.504-9.068-.04-1.626.71-4.04.44-6.596-.09-.87-.68-1.494-1.08-1.768s-.71-.367-.99-.446c-.565-.15-1.047-.185-1.526-.21-.796-.043-1.34-.008-1.808.025-.01.014-.024.014-.03 0h.027c.01-.026.02-.108.04-.216.303-.154.595-.33.83-.574.13-.137.234-.283.347-.426zm-19.634.8c4.004.06 8.985.425 12.37 1.26h.023c.312.073.307.068.537.117-.445-.02-.947-.02-1.53.05v-.01c-3.475-.02-8.147.18-11.454-.11-.023-.228-.068-.25-.053-.55.015-.23.073-.51.107-.76zm32.9 7.334c1.626-.034 2.984.445 4 1.23 1.806 1.406 2.92 4.078 2.006 8.448-.756 3.628-3.076 7.168-4.975 11.19-.5-1.63-.95-3.265-1.38-4.902-.19-.776-.79-1.366-1.54-1.562-1.07-3.09-1.93-5.683-1.82-8.78.07-1.78.04-3.363.15-4.833 1.29-.507 2.49-.766 3.57-.79zm-115.04 2.583c3.605-.05 7.306.32 11.27.26 3.434-.045 6.895-.23 9.756.24 1.183.193 2.057.31 2.662.47.61.163.962.32 1.46.773.19.175.16.167.2.513.045.332.005.947.015 1.752-.01.004-.03.04-.122.132-.19.203-.64.52-1.23.813-1.17.585-2.8 1.08-4 1.435-3.05.91-6.01 2.21-8.75 3.224-2.88 1.062-6.322 1.717-9.8 2.996-3.402 1.26-7.392 1.823-11.38 1.877-4.155.054-8.194.23-11.846-.24-2.65-.34-4.92-1.044-6.612-2.21-.027-.016-.052-.035-.08-.055-1.597-1.01-2.423-1.87-2.784-2.475-.355-.6-.394-.936-.267-1.576.253-1.263 1.776-3.505 3.51-6.44 0-.003.01.007.01 0 .02-.02.366-.33 1.137-.56.78-.235 1.88-.386 3.066-.47 2.373-.16 4.995-.028 6.733-.053 5.777-.073 11.4-.342 17.065-.415zm111.29 17.68c.054.02.108.06.16.08.724 2.47 1.52 4.93 2.355 7.36.034.3.138.61.297.87 2.672 7.69 5.666 15.162 7.72 22.692-.14.04-.277.093-.414.16-.943.49-1.528 1.045-2.114 1.436-.508.337-.83.444-1.055.48-3.04-10.948-7.71-21.417-10.65-32.013 1.01-.054 1.73-.395 2.632-.698.362-.118.71-.25 1.06-.377zM149.6 181.99l15.298 39.337-9.757 3.398c-3.58-4.1-7.43-7.51-11.18-11.386-.06-.06-.122-.12-.19-.17-2.71-2.24-5.48-4.25-8.33-6.05 4.746-8.785 9.49-17.34 14.17-25.138zm172.216 2.262c.138 0 .562.147 1.084 1.03.528.89.943 2.354.968 4.004.018 1.65-.372 3.13-.874 4.03-.504.896-.924 1.04-1.055 1.044-.14 0-.57-.133-1.09-1.016-.53-.89-.96-2.354-.98-4.004-.025-1.65.38-3.13.882-4.03.504-.9.924-1.054 1.055-1.058zm-5.58.767c-.44 1.32-.65 2.8-.63 4.37.024 1.72.317 3.32.883 4.73-.56-.083-1.11-.176-1.67-.27-.09-.01-.16-.01-.25-.01-1.45-.07-2.86-.11-4.28-.106-2.24.005-4.448.112-6.61.307-.1-.36-.28-.695-.56-.974-.33-.324-.46-.48-.5-.524v-.016c0-.07.04-.276.23-.76s1.18-1.547 2.56-2.382c1.372-.834 3.07-1.523 4.2-1.82 2.32-.61 4.56-1.71 6.62-2.554zm-55.68 1.6c.563 1.55 1.124 3.1 1.66 4.65L205.6 258.64c-3.422-2.855-7.705-4.67-12.53-5.028-.12-.015-.248-.03-.37-.038-.04-.005-.072 0-.107 0-.513-.045-1.02-.064-1.538-.07-.92-.01-1.826.035-2.72.132l-6.265.04-2.5-6.42 2.73-.9c.976-.282 1.64-1.51 1.406-2.597l-9.238-23.74c-.342-.8-1.162-1.31-1.953-1.23-.25-.007-.504.05-.737.145l-2.823.977-7.695-19.805c.02-.006.044 0 .07 0 41.95-4.327 66.063-8.185 99.226-13.497zm49.66 11.4c1.336-.008 2.684.022 4.05.09 6.344 1.026 12.028 1.55 17.804 3.052-.244.536-.502 1.12-.87 1.7-.795 1.264-1.67 2.435-2.304 3.295-6.26-2.203-12.97-3.44-19.94-3.51-11.182-.104-21.705 2.793-30.88 7.94-.48-1.276-.947-2.555-1.406-3.83 9.726-5.518 21.084-8.69 33.545-8.74zm-214.928 1.75c.376 0 .747-.005 1.123 0 11.25.082 22.64 2.97 33.28 8.915-.56 1.04-1.12 2.075-1.67 3.115-8.87-4.995-19.02-7.885-29.832-7.99-33.302-.31-60.864 25.89-63.882 59.4-.24.06-.46.104-.722.17-1.044.276-2.29.607-3.48.808-1.19.2-2.33.22-2.906.107-.16-.03-.232-.023-.277-.03-.24-4.97 1.5-11.883 3.826-18.093 2.362-6.328 5.307-12.035 6.826-14.36 13.384-20.13 34.57-31.455 56.6-32.026.37-.01.75-.013 1.125-.013zm213.628 7c32.774.31 59.17 28 58.848 61.9-.318 33.907-27.227 61.05-60 60.737-32.774-.307-59.102-27.944-58.784-61.845.2-21.294 10.87-39.946 26.89-50.796.502 1.28 1.01 2.554 1.522 3.83-14.682 10.2-24.398 27.43-24.585 46.99-.297 31.54 24.312 57.452 54.995 57.74 30.684.29 55.84-25.156 56.133-56.695.3-31.535-24.365-57.49-55.05-57.775-10.1-.098-19.603 2.607-27.81 7.397-.51-1.263-1-2.52-1.5-3.783 8.27-4.75 17.74-7.515 27.813-7.686.512-.005 1.016-.02 1.528-.01zM98.14 207.94c10.12.097 19.644 2.8 27.944 7.495-.635 1.19-1.28 2.38-1.914 3.57-7.754-4.37-16.62-6.9-26.07-6.99-30.683-.287-55.785 25.2-56.084 56.74-.292 31.534 24.326 57.452 55.01 57.74 21.972.204 41.08-12.788 50.274-31.763l4.042.575c-9.59 21.034-30.395 35.48-54.355 35.253-32.773-.31-59.116-27.944-58.798-61.85.01-1.007.03-2 .09-3 .04-.13.07-.267.09-.414.024-.21.02-.41-.016-.614 2.28-31.472 27.466-56.22 58.237-56.73.51-.01 1.028-.02 1.54-.015zm174.81 1.11c.46 1.26.928 2.54 1.405 3.8-17.573 11.515-29.32 31.676-29.536 54.675-.13 12.62 3.25 24.45 9.19 34.52-.04.04-.08.073-.11.113-.22.267-.4.517-.59.776-.38.523-.77 1.06-1.126 1.42-.357.36-.625.47-.63.47 0 0-.13-.08-.177-.107-6.41-7.706-9.44-25.358-9.795-31.095-1.416-26.747 10.864-51.09 31.36-64.574zm-139.57 1.85c2.606 1.665 5.17 3.515 7.655 5.567l.015.01c3.384 3.48 6.64 6.5 9.634 9.784l-4.04 1.405c-4.25-5.304-9.305-9.91-14.964-13.624.56-1.05 1.137-2.1 1.7-3.145zm175.468 4.15c28.365.264 51.216 24.19 50.942 53.55-.28 29.355-23.58 52.852-51.95 52.588-28.362-.265-51.16-24.192-50.882-53.552.166-17.886 8.867-33.6 22.056-43.08 3.51 8.475 7.21 16.86 10.615 25.066 1.9 4.59 5.14 8.463 8.52 11.754.48.47.982.956 1.47 1.43.24.235.48.46.72.684-.77 1.343-1.218 2.89-1.23 4.537-.05 5.08 4.05 9.36 9.152 9.41 5.11.05 9.3-4.15 9.34-9.24.05-5.09-4.06-9.35-9.164-9.4-1.91-.014-3.7.554-5.18 1.545-.225-.206-.445-.397-.655-.607-.488-.473-.976-.955-1.46-1.43-3.15-3.07-6.01-6.56-7.578-10.33-3.53-8.52-7.33-17.15-10.91-25.82 7.345-4.38 15.82-6.945 24.86-7.096.44-.008.88-.018 1.32-.01zm-212.114 1.18c.438-.005.884-.005 1.322 0 8.755.082 16.993 2.397 24.176 6.45-5.913 11.132-11.676 22.02-17.12 31.586l-9.062.07c-.06-.006-.103-.006-.16 0-2 .2-3.892.755-5.62 1.605-.03.02-.065.03-.094.04-.03.02-.053.04-.084.06-5.102 2.44-8.763 7.49-9.286 13.37v.03c-.015.14-.03.285-.04.426-.072.977-.06 1.973.054 2.974.49 4.45 2.28 8.08 5.5 10.586.843.654 1.77 1.236 2.786 1.743.005 0 .005.01.01.01 1.724.974 3.643 1.643 5.674 1.926 1.51.334 3.115.57 4.86.75v.013l43.367 6.25c-8.725 16.96-26.093 28.425-45.952 28.24-28.364-.27-51.16-24.195-50.884-53.55.27-28.9 22.8-52.11 50.56-52.573zm-53.11 1.415c-1.69 1.705-3.307 3.51-4.86 5.396-.76-2.22-1.938-3.99-2.275-4.84-.01-.01 0 0 0-.01l.04-.014c.71-.233 2.3-.44 4.91-.507.65-.015 1.4-.015 2.18-.015zm86.127.054c4.76 3.17 9.05 7.02 12.73 11.42l-4.02 1.4c-3.144-3.52-6.71-6.63-10.614-9.25.634-1.19 1.28-2.38 1.914-3.58zm-97.43 1.39c.067.22.11.48.19.67.674 1.71 1.714 3.16 2.22 4.65.505 1.473.63 2.713-.36 4.432-.693.97-1.18 1.236-1.31 1.27-.13.034-.11.06-.4-.146-.585-.41-1.58-2.04-1.913-3.08-.477-1.48.016-5.094 1.193-7.214.154-.285.266-.452.384-.59zm139.33 3.21c2.808 7.17 5.567 14.34 8.38 21.51-14.13 4.62-28.26 9.24-42.39 13.85-2.66-6.927-5.31-13.856-7.99-20.77 13.738-4.79 27.478-9.55 41.21-14.326l.39-.13.4-.137zm-45.76 2.67c3 2.045 5.77 4.404 8.29 7.03l-6.826 2.37c-.963.29-1.61 1.507-1.38 2.58l6.584 17.106-22.486.16c5.088-9.027 10.41-19.046 15.82-29.246zm49.617 23.6l1.997 5.14-18.135.13 16.14-5.27zm3.05 8.485c-6.555 4.135-10.974 11.45-11.053 19.716 0 .227.01.446.015.67l-6.84-.376c.274-2.36.435-4.754.454-7.187.043-4.336-.34-8.58-1.086-12.69l18.51-.13zm-22.723.16c.786 4.077 1.178 8.296 1.138 12.622-.023 2.373-.164 4.707-.443 7.012l-3.84-.204c.284-2.247.435-4.53.455-6.856.04-4.3-.39-8.496-1.23-12.54l3.92-.04zm-21.992.17l.968 2.52c.41 1.065 1.69 1.597 2.638 1.1l10.318-3.374c.846 3.903 1.27 7.966 1.23 12.14-.02 2.26-.164 4.468-.453 6.65l-35.69-1.9c.26-1.137.4-2.323.41-3.534.05-4.946-2.14-9.444-5.62-12.5.17-.298.35-.61.522-.908l25.684-.19zm57.18.26c4.473.04 8.564 1.65 11.807 4.292l-4.097 4.872c-2.054-1.61-4.61-2.605-7.386-2.717-.013 0-.023-.014-.04-.014-.116-.02-.227-.04-.344-.04-.224-.004-.44.005-.66.015-1.356.053-2.66.317-3.88.775l-2.316-5.95c1.864-.712 3.855-1.142 5.93-1.23.327-.014.665-.014.99-.01zm-94.517.976c.203-.007.404-.002.614 0 1.722.017 3.36.408 4.843 1.087-.504.85-.992 1.69-1.485 2.513-1.05-.433-2.19-.67-3.39-.682-5.1-.05-9.29 4.14-9.34 9.224-.05 5.084 4.06 9.36 9.17 9.41 2.126.018 4.088-.704 5.66-1.914l3.867.2c-2.246 2.84-5.704 4.667-9.556 4.63-6.66-.06-12.056-5.675-11.99-12.365.06-6.483 5.22-11.83 11.604-12.1zm83.77 2.248l2.395 6.16c-2.836 2.363-4.67 5.91-4.71 9.852-.006.377.014.753.04 1.123l-6.32-.335c-.01-.282-.015-.57-.01-.853.06-6.61 3.476-12.49 8.604-15.942zm-74.777 1.285c2.256 2.25 3.64 5.373 3.61 8.792-.01 1.157-.192 2.285-.504 3.345l-2.96-.155c.376-1 .59-2.085.6-3.204.025-2.352-.854-4.524-2.3-6.194.514-.846 1.03-1.705 1.554-2.584zm202.92.79c2.8.023 5.08 2.377 5.058 5.205-.026 2.826-2.35 5.14-5.154 5.11-2.797-.023-5.067-2.38-5.044-5.204.005-.625.123-1.225.338-1.778 1.027.85 2.02 1.67 2.917 2.54.42.41.56.893 1.476 1.782.536.58 1.36.813 2.124.613.768-.2 1.35-.81 1.53-1.58.18-.77-.073-1.58-.67-2.103-.297-.29-.497-.855-1.46-1.79-.93-.917-1.88-1.727-2.82-2.508.535-.19 1.112-.297 1.713-.29zm-102.58 2.06c2.638 3.355 4.206 7.602 4.16 12.167-.03 3.317-.905 6.447-2.42 9.18-1.713-1.278-3.46-2.538-5.13-3.76-.002-.004-.002-.01-.01-.013.8-1.665 1.25-3.51 1.27-5.46.027-2.61-.74-5.055-2.072-7.11l4.206-5.006zm-108.79.683c.408.004.8.063 1.18.16-.557.89-1.1 1.77-1.646 2.62-.64.996-.35 2.33.643 2.974.994.64 2.317.35 2.957-.645.465-.72.93-1.46 1.397-2.21.33.695.526 1.48.516 2.3-.024 2.83-2.34 5.143-5.135 5.114-2.804-.026-5.074-2.38-5.05-5.206.03-2.83 2.34-5.14 5.14-5.115zm93.426 2.504c.145-.01.29-.006.44 0 4.8.043 8.68 4.062 8.63 8.886-.01 1.034-.21 2.015-.546 2.943-.79-.6-1.54-1.183-2.196-1.715-1.54-1.255-2.678-2.394-2.946-2.784-.435-.68-1.217-1.05-2.017-.966-.75.082-1.4.555-1.713 1.244-.31.687-.243 1.494.187 2.113.86 1.277 2.133 2.365 3.788 3.713.764.62 1.61 1.273 2.5 1.95-1.556 1.407-3.606 2.256-5.843 2.237-4.796-.05-8.697-4.083-8.648-8.903.044-4.675 3.77-8.538 8.364-8.728zm-79.237 10.52l36.563 1.966c-.757 3.575-1.86 7.008-3.277 10.265l-39.75-5.74c2.71-1.502 4.965-3.76 6.463-6.49zm40.743 2.182l3.877.2c-.722 3.818-1.797 7.504-3.17 11.03l-3.95-.562c1.4-3.4 2.495-6.97 3.243-10.665zm8.08.43l7.94.423c1.152 5.553 4.268 10.435 8.59 13.83l-19.674-2.84c1.366-3.655 2.426-7.48 3.144-11.414zm12.262.653l6.81.36c2.017 4.425 6.43 7.58 11.58 7.63 3.615.032 6.897-1.466 9.26-3.884 1.69 1.24 3.433 2.51 5.126 3.776-3.555 4.025-8.735 6.564-14.452 6.51-8.774-.084-16.147-6.235-18.324-14.39zm43.54 12.632c.18.15.66.45 1.644 1.244 1.246 1.01 1.984 1.52 2.29 1.66-.096.3-.273.724-.71 1.554-.514.98-.915 1.457-1.085 1.608-.143-.064-1.48-1.015-3.04-2.236-.024-.293-.05-.664-.052-1.094-.01-.67.023-1.128.038-1.637.31-.2.56-.488.726-.816.12-.23.107-.165.19-.28z" fill="#e6e6e6" fill-rule="evenodd"/><path d="M167.676 227.913c-2.656.845-5.088 2.423-7.793 3.062-1.753 1.416-1.002 4.02-.567 5.865.948 2.33 3.932 2.626 6.022 1.845 1.122-.13 1.967-1.338 3.115-1.143 1.288.563 1.283 2.398.292 3.238-1.537 2.017-4.38 1.67-6.41 2.71-1.29 1.255.346 3.374 1.928 2.984 1.91-.45 3.92-.825 5.517-2.08 2.38-1.534 3.91-4.66 2.69-7.413-1.035-2.79-4.945-3.83-7.24-1.98-.79.33-2.026 1.04-2.784.36-.112-.6-.346-1.58.538-1.72 1.61-.33 2.866-1.44 4.44-1.89 1.16-.41 2.664-1.68 1.81-3.01-.318-.53-.933-.87-1.558-.82zm-16.147 6.583c-2.28-.186-4.1 1.694-4.57 3.784-.396 1.72-.548 3.56-.26 5.302.722 3.21 4.464 5.89 7.66 4.337 3.647-2.55 4.55-8.52 1.485-11.85-1.13-1.19-2.71-1.69-4.326-1.58zm-12.28 3.266c-1.59.195-1.915 2.144-1.41 3.41 1.004 3.97 2.43 7.88 3.622 11.81.834 1.202 2.74.567 3.04-.766.425-1.377-.687-2.594-.9-3.926-1.16-3.213-2.14-6.48-2.825-9.8-.327-.488-.937-.782-1.53-.728zm12.68.167c1.914.01 2.554 2.3 2.255 3.86-.22 1.04-.503 2.41-1.538 2.93-1.588.35-2.838-1.3-2.565-2.82-.014-1.32-.206-3.238 1.19-3.94.22-.015.44-.03.656-.04z" fill="#808080"/><path d="M192.636 53.495c-1.527.327-1.2 2.827-1.66 4.2-.43 3.67.225 7.7 3.2 10.185 3.836 3.745 10.624 5.312 14.925 1.45 2.41-1.596 4.74-4.014 7.89-3.48 1.784 1.326 2.204-3.96.59-3.23-9.08.27-15.6-8.05-24.36-9.14-.19.02-.39-.024-.576.015z" fill="#b3b3b3"/><path d="M135.732 99.555c-.913 3.29-.752 6.367-1.767 10.102-.4 1.455-.4 3.305-.99 5.45-.02.078-.45 1.967-.964 4.32-.51 2.354-1.17 5.367-1.82 8.394-.65 3.03-1.3 6.06-1.82 8.44-.23 1.07-.41 1.91-.57 2.64l.34.094c2.72.746 5.45 1.25 8.404 2.06.785.214 1.65.42 2.557.606 2.536-7.668 6.83-22.99 9.41-35.915.065-.424.225-.824.455-1.122l-13.222-5.06zm15.767 6.02c.06.347.07.712.01 1.06-2.55 12.787-6.62 27.436-9.28 35.63 2.102.415 4.3.89 6.37 1.616 2.552-7.86 6.664-22.62 9.164-35.17.04-.23.102-.45.19-.66l-6.465-2.47zm9.34 3.575c0 .156-.02.316-.04.47-2.55 12.752-6.61 27.342-9.27 35.55.09.044.18.082.27.13 3.904 2.204 8.3 3.47 13.372 5.57 4.794 1.985 11.376 2.034 17.104 3.61 2.49.685 5.713 1.09 8.16 1.837.664-2.06 1.58-4.848 2.573-7.87 1.61-4.932 3.3-10.118 3.573-11.11.847-3.076 2.258-5.477 2.93-7.925l1.97-7.172c.048-.18.107-.356.16-.536.21-1.255.367-2.125.523-2.97l-36.967-7.91-4.366-1.674z" fill="#199319"/><path d="M161.153.004c-.362.02-.718.073-1.084.19-.74.23-1.52.893-1.83 1.646-.6 1.504-.05 2.412.2 3.197.2.622.286 1.032.345 1.34-1.19-.02-2.754-.036-4.39.36-1.025.25-2.134.66-2.983 1.66-.757.894-1.03 2.217-.845 3.492-.103 1.89-1.104 5.07.36 8.23-.22.75-.83 1.25-1.86 2.21-.6.56-1.34 1.28-1.723 2.43-.384 1.153-.203 2.56.44 3.84.026.04.046.08.07.12 1.085 1.816 2.54 3.974 4.245 6.196-.26.375-.515.75-.725 1.123-1.233 2.19-2.565 3.71-3.41 6.786-.703 2.554-1.685 5.205-2.46 8.04-.748 2.71-1.75 5.42-2.535 8.274-.785 2.86-1.562 5.676-1.884 8.78-.22 2.144-1.55 4.66-2.33 7.5-.672 2.447-1.64 5.128-1.94 8.028-.294 2.86-1.58 5.647-2.49 8.958l-2.22 8.11c-.67 2.433-.936 4.3-1.552 6.544-.58 2.105-.59 3.956-1.005 5.465-.176.647-.504 2.146-1.016 4.51-.512 2.36-1.157 5.376-1.806 8.404-.654 3.022-1.303 6.05-1.82 8.412-.52 2.37-.96 4.253-.99 4.38-.16.56-.038 1.186.305 1.655.346.474.903.78 1.483.806l.1.013 1.615.44c2.93.805 5.655 1.303 8.41 2.06 3.19.88 6.936 1.46 10.104 2.304-.17.34-.238.724-.2 1.095.498 5.914 2.408 10.176 2.73 13.32.165 1.572.014 2.817-.708 4.205-.72 1.375-2.116 2.933-4.685 4.76-.01-.006-.57.33-1.22.66-.74.37-1.747.853-2.914 1.414-2.34 1.125-5.35 2.55-8.352 3.99-2.998 1.44-5.98 2.886-8.31 4.083-1.16.6-2.158 1.143-2.93 1.592-.39.23-.726.42-1.02.63-.22.152-.42.303-.67.59-.076.09-.15.133-.253.274l.04.03c-1.08 1.295-1.05 2.87-.824 4.283.24 1.518.766 3.076 1.363 4.566.594 1.49 1.264 2.883 1.79 3.943.27.532.503.976.67 1.3.087.16.156.3.205.39v.01c0 .014.002.03.01.044.01.024.02.053.03.063.4.946 1.632 1.434 2.58 1.03.95-.4 1.43-1.62 1.03-2.57-.11-.28-.12-.264-.178-.377l-.2-.4c-.165-.32-.39-.744-.64-1.247-.5-1-1.126-2.318-1.66-3.655-.536-1.34-.98-2.714-1.136-3.72-.133-.83.02-1.22-.03-1.23l.03-.03c.005-.005.005-.02.01-.024l.044-.04c.01-.014.022-.02.037-.03.154-.1.417-.26.75-.453.663-.39 1.616-.904 2.744-1.486 2.26-1.166 5.236-2.61 8.22-4.042 2.99-1.435 5.995-2.856 8.354-3.99 1.173-.566 2.19-1.054 2.97-1.445.78-.39 1.17-.55 1.71-.94 2.904-2.06 4.804-4.057 5.917-6.18 1.11-2.13 1.34-4.33 1.125-6.41-.416-4.016-2.145-7.77-2.668-12.69.18.085.36.173.52.27 4.955 2.79 10.384 3.063 14.62 4.815 5.594 2.315 11.6 2.7 16.81 4.137 2.416.66 5.615 1.69 8.164 2.46.13.804.826 1.473 1.63 1.59.807.12 1.66-.327 2.023-1.055.923-.46 1.333-1.724.854-2.636.64-1.993 1.596-4.91 2.72-8.34 1.616-4.936 3.218-9.805 3.628-11.284.67-2.443 2.07-4.85 2.914-7.922l1.66-6.02c1.48 1.705 3.05 3.11 4.734 4.35 5.51 4.044 11.82 6.212 19.747 11.256.567.4 1.36.46 1.98.147-.11.537 0 1.01.106 1.337.16.482.364.823.59 1.165.89 1.362 2.26 2.81 2.57 3.29.44.687.603 1.078.974 1.62.372.54.972 1.08 1.675 1.5.872.52 2.14.2 2.66-.67.52-.874.204-2.143-.67-2.665-.455-.27-.366-.21-.47-.364-.098-.146-.36-.672-.893-1.507-.355-.55-.69-.91-1.116-1.424 1.14.1 2.37.163 3.507.178.493.002.943.002 1.338-.016.4-.02.613.028 1.273-.215.168-.064.38-.123.71-.43.328-.303.748-1.133.6-1.845-.14-.716-.512-1.014-.722-1.18-.206-.17-.35-.234-.478-.29-.51-.246-.85-.32-1.437-.447-.235-.056-.63-.11-.91-.164 1.197-.2 2.15-.31 3.09-.68.24-.096.495-.18.846-.48.35-.3.903-1.17.722-2.05-.18-.88-.69-1.2-.994-1.4-.3-.208-.556-.306-.83-.408-.233-.095-.49-.14-.747-.135-.71.02-1.394.466-1.7 1.11-.402.088-.514.128-1.042.216-1.18.2-2.587.424-3.92.72-1.338.3-2.568.616-3.68 1.33-.21.13-.48.32-.71.654-.08-.065-.156-.124-.245-.177-8.276-5.265-14.657-7.535-19.526-11.11-2.09-1.533-3.986-3.305-5.72-5.726.53-1.68 1.1-3.403 1.58-5.166l2.29-8.34c.796-2.893 1.81-5.686 2.647-8.74.87-3.143 1.45-6.14 2.266-9.1.827-3 1.58-5.805 2.77-8.38.46-.994.806-2.035 1.1-3.075 1.087.16 2.22.312 3.412.484 1.538.215 3.018.42 4.15.57 1.128.157 1.714.236 2.032.27 1.01.117 2.04-.703 2.156-1.714.113-1.006-.707-2.02-1.714-2.14.13.016-.82-.1-1.944-.253-1.123-.156-2.617-.36-4.15-.576-1.045-.143-2.05-.294-3.052-.442.173-.78.348-1.532.54-2.22.66-2.39.873-4.88 1.03-7.16 1.493-.795 2.7-1.996 3.426-3.56.04-.086.098-.165.133-.252 3.972-6.68 6.31-15.958 3.41-23.545-.005-.016-.005-.035-.01-.055h-.015c-2.66-7.465-6.52-12.13-11.38-15.58-4.874-3.453-10.62-5.762-17.387-9.087-.03-.02-.066-.037-.095-.055C186 4.35 175.663 3.04 162.475.1c-.07-.018-.142-.033-.215-.043-.382-.038-.743-.068-1.105-.053zm-6.465 38.106c2.636 3.05 5.645 5.976 8.74 8.046.83.835 1.723 1.596 2.676 2.3-.733 1.806-1.426 3.663-1.793 6.025v.01c-1.3 8.8-2.53 16.64-1.15 27.28l.06.23c.98 4.2 4.27 10.92 7.565 17.39 2.047 4.02 4.04 7.786 5.46 10.48-2.993-.565-5.806-1.146-8.203-1.805-7.33-2.012-14.352-5.132-21.67-7.144-2.432-.67-4.644-2.925-8.555-4.097-.072-.1-.176-.264-.492-.55-.005-.006-.01-.006-.015-.01l.778-2.814c.798-2.89 2.233-5.904 2.614-9.585.232-2.27 1.082-4.775 1.804-7.397.6-2.19 2.114-4.893 2.445-8.125.285-2.7 1-5.293 1.784-8.154.727-2.638 1.714-5.366 2.515-8.28.72-2.63 1.7-5.275 2.462-8.05.64-2.333 1.61-3.334 2.983-5.74zm14.858 12.514c3.735 2.04 7.876 3.423 11.63 4.58.015.005.035.005.054.01l.117.043c2.383.914 4.66.602 6.627.133-.29 1.225-.494 2.577-.346 4.096.356 5.484 2.997 10.338 6.84 12.89 4.205 2.69 9.492 3.653 13.745 1.578.068-.034.132-.068.2-.108 1.43-.897 2.95-1.78 4.458-2.767.13-.09.24-.18.35-.29 1.1-1.108 1.81-1.64 2.61-1.57.18.02.36.013.54-.01h.055c.083.062.175.12.27.17-.152.59-.295 1.185-.43 1.78-.045-.01-.21-.034-.24-.04-.196-.043-.396-.056-.59-.043-.924.094-1.72.933-1.754 1.862-.035.925.693 1.82 1.607 1.98l.053.014c-.22.757-.45 1.455-.74 2.075-.815 1.766-2.685 7.47-3.222 9.253-14.15.54-5.216 6.04-1.998 8.48-.646 2.086-2.057 6.807-2.677 9.073l-2.29 8.34c-.154.55-.324 1.122-.495 1.683-1.27-2.56-2.427-3.295-3.59-7.147-.23-.806-1.034-1.406-1.874-1.402-.604.004-1.194.31-1.55.8-.353.494-.465 1.153-.28 1.73 1.14 3.773 2.31 4.6 3.63 7.304-3.88-1.43-8.62-2.43-13.546-3.36-1.817-.34-3.633-.665-5.45-.987-1.167-2.37-4.047-7.623-7.025-13.48-3.235-6.354-6.477-13.38-7.175-16.276-1.27-9.915-.147-17.08 1.148-25.83.003-.01 0-.02 0-.03.262-1.662.746-3.05 1.342-4.55zm23.5 3.71c.68-.02 1.324.065 1.954.293.064.02.127.04.19.054 2.77.71 5.952 2.51 9.25 4.34 3.29 1.83 6.707 3.71 10.384 4.31h.015c.96.16 1.92.21 2.84.15-.048.53-.09 1.05-.15 1.56-.25-.03-.5-.07-.748-.09-.197-.012-.38-.02-.607-.012-.11.006-.234 0-.415.03-.09.016-.22.026-.384.078-2.215.135-3.865 1.424-4.993 2.53-1.303.85-2.695 1.68-4.106 2.56-2.387 1.14-6.37.645-9.516-1.366-3.16-2.024-5.325-5.21-4.87-9.236.015-.146.015-.293 0-.44-.127-1.333.33-2.865.79-4.725.123-.01.246-.027.363-.027zm8.34 7.813c-.087.005-.175.015-.267.03-.75.112-1.41.698-1.7 1.23-.33.567-.79 1.245-.92 2.344-.06.55.02 1.3.46 1.92.43.62 1.09.97 1.74 1.15.772.216 1.53.3 2.31.03s1.42-.995 1.645-1.645c.45-1.304.09-2.25-.185-3.012-.117-.312-.322-.59-.59-.79-.033-.024-.428-.48-1.137-.884-.31-.178-.757-.388-1.364-.363zm-65.224 38.213c.088.035.185.054.283.084 2.99.82 5.08 3.168 8.887 4.213 1.51.415 3.013.9 4.537 1.407 29.32 11.66 41.46 7.787 52.1 14.08-.72 2.516-1.43 5.143-2.13 7.706-.67 2.447-2.09 4.854-2.93 7.925-.278.99-1.96 6.177-3.58 11.11-.986 3.02-1.905 5.81-2.57 7.87-2.445-.748-5.61-1.753-8.094-2.436-9.41-2.78-22.725-4.37-30.547-8.58-4.69-2.65-11.036-3.09-15.27-4.26-2.954-.81-5.684-1.31-8.408-2.06l-.332-.09.578-2.64c.52-2.37 1.17-5.41 1.82-8.43.65-3.03 1.305-6.04 1.82-8.39.51-2.36.94-4.25.965-4.33.585-2.15.59-3.99.99-5.45.684-2.495.953-4.38 1.55-6.563l.32-1.177z" fill="#fff"/><path d="M165.474 33.656c-.84.01-1.65.566-1.958 1.348-.312.786-.104 1.743.503 2.328 4.63 4.562 13.39 9.757 20.23 10.387 1.12.1 2.23-.82 2.33-1.94.105-1.12-.818-2.23-1.935-2.338-4.736-.435-13.91-5.508-17.638-9.17-.406-.4-.97-.635-1.543-.625zm-4.444-15.41c-1.015.05-1.93.913-2.03 1.924-.11 1.015.62 2.046 1.605 2.295 7.603 1.94 17.735 4.175 26.524 7.157 8.79 2.99 16.05 6.954 18.12 10.978.46 1.074 1.9 1.586 2.94 1.054s1.46-2.007.853-3.008c-3.223-6.27-11.42-9.98-20.54-13.076-9.12-3.095-19.367-5.346-26.85-7.255-.207-.054-.417-.074-.63-.07zm7.388-8.002c-1.03.023-1.978.897-2.08 1.928-.108 1.025.644 2.075 1.656 2.304 7.606 1.934 17.733 4.16 26.522 7.144 8.794 2.984 16.04 6.962 18.11 10.99.52.997 1.895 1.437 2.89.924 1.003-.518 1.44-1.894.924-2.89-3.223-6.27-11.42-9.982-20.54-13.077-9.122-3.1-19.366-5.35-26.852-7.256-.205-.05-.415-.07-.63-.06zM162.25 4.06c13.004 2.867 22.832 4.19 35.87 9.757.03.015.06.03.092.04 6.857 3.364 12.438 5.663 16.76 8.73 4.34 3.075 7.528 6.86 9.97 13.745.01.014.02.034.03.054 2.274 5.907.32 14.545-3.228 20.395-.054.09-.1.18-.138.27-.76 1.84-2.938 2.95-6.127 2.4h-.02c-2.72-.44-5.86-2.06-9.11-3.87-3.21-1.78-6.51-3.71-10.02-4.64-.006 0-.015.006-.025 0-.054-.01-.098-.04-.146-.053v.015c-2.964-1-5.684-.225-7.9.36-2.257.6-3.947.98-5.59.308-.06-.018-.12-.038-.178-.053-5.97-1.83-12.565-4.285-16.38-8.216-.105-.103-.217-.19-.34-.27-5.454-3.573-11.64-11.464-14.49-16.234-.29-.59-.246-.69-.217-.778.03-.088.215-.377.683-.817.93-.874 2.97-2.37 3.212-5.127.035-.417-.063-.847-.283-1.2-1.006-1.65-.3-3.958-.176-6.898.01-.184-.01-.37-.054-.545-.137-.567-.063-.46-.04-.49.03-.032.32-.247.913-.39 1.17-.282 3.092-.23 4.45-.24.26-.003.512-.057.752-.16.728-.302 1.397-.834 1.792-1.513.4-.676.504-1.408.494-2.008-.03-1.096-.35-1.907-.575-2.57z" fill="#2c2c2c"/><path d="M182.817 120.73c-.337.02-.668.123-.962.298-3.925 2.305-7.495 4.733-11.376 5.983-.15.04-.28.1-.4.17-.61.284-1.06.86-1.2 1.514-.13.655.06 1.36.51 1.856 3.47 3.95 6.563 7.314 9.473 11.445.552.8 1.7 1.13 2.593.75 3.57-1.515 9.175-4.465 12.705-5.514.99-.29 1.67-1.385 1.5-2.405-.266-1.572-1.017-2.34-1.916-3.48-.9-1.143-2.02-2.39-3.2-3.64-2.357-2.503-4.965-5.072-6.025-6.253-.425-.473-1.074-.742-1.714-.71z"/><path d="M182.295 123.743c-3.394 2.115-6.806 4.103-10.533 5.607 3.12 3.52 6.202 7.093 8.97 10.897 4.063-1.894 8.092-3.88 12.31-5.395-2.773-4.346-6.738-7.666-10.156-11.445l-.37.215-.22.12zm536.815 34.634c-.644.04-1.244.42-1.566.978-.323.556-.35 1.274-.07 1.85 5.695 11.855 12.555 25.786 15.7 37.89.435 1.66 1.006 3.33 1.757 4.966.05.12.08.24.14.35l.018-.01c.58 1.65 1.924 2.42 3.32 3.16 1.494.79 3.25 1.44 4.99 1.994 1.74.556 3.44 1 4.75 1.314.655.156 1.207.27 1.62.36.41.088.55.13.83.176 1.017.15 2.08-.63 2.234-1.647.156-1.02-.63-2.084-1.647-2.235.16.023-.205-.04-.585-.123-.38-.08-.916-.2-1.54-.345-1.24-.297-2.858-.722-4.47-1.23-1.61-.513-3.22-1.13-4.364-1.73-1.136-.6-1.566-1.337-1.484-1.014-.035-.12-.078-.24-.13-.35-.69-1.427-1.2-3-1.62-4.614-3.31-12.736-10.29-26.765-15.97-38.59-.326-.714-1.117-1.187-1.9-1.14zm84.61-87.637c-.292-.014-.526.05-.707.093-.362.09-.615.21-.884.348-.91.44-1.37 1.64-.98 2.57-.22.37-.27.47-.56.93-.68 1.036-1.49 2.26-2.2 3.48-.71 1.227-1.34 2.375-1.58 3.72-.02.115-.035.25-.04.394-.343.09-.655.277-.9.53-12.59 12.93-23.304 17.955-39.51 17.32-1.06-.064-2.08.864-2.12 1.93-.04 1.06.91 2.06 1.973 2.074 17.144.67 29.49-5.13 42.535-18.524.08-.08.15-.164.215-.256.34.493.81.757 1.155.913.475.215.885.303 1.3.37 1.657.276 3.727.24 4.31.35.83.145 1.23.3 1.904.4.67.097 1.506.01 2.316-.23 1.006-.3 1.65-1.486 1.352-2.49-.3-1.01-1.485-1.65-2.49-1.353-.53.156-.42.12-.606.097-.18-.03-.768-.186-1.778-.36-.59-.11-1.22-.14-1.84-.177.87-.797 1.77-1.67 2.574-2.515.347-.37.66-.71.923-1.03.263-.315.46-.44.737-1.11.067-.17.16-.4.156-.86 0-.462-.33-1.35-.976-1.74-.64-.39-1.128-.322-1.402-.28-.276.04-.427.11-.565.163-.538.217-.816.436-1.323.788-.207.146-.528.4-.763.576.683-1.046 1.264-1.853 1.645-2.824.096-.246.193-.513.212-.99.02-.48-.25-1.49-1.046-1.97-.396-.24-.747-.32-1.045-.33zm-4.99 9.835c.005 0 .035.005.04 0-.015.01-.084.063-.094.068-.04.02-.054-.038.054-.068z" fill="#fff"/><path d="M716.49 226.717c2.802 7.174 5.56 14.346 8.38 21.51-14.133 4.62-28.264 9.238-42.39 13.85-2.66-6.917-5.313-13.85-7.992-20.77 13.735-4.785 27.475-9.54 41.21-14.32l.39-.132.4-.138z" fill="#e6e6e6" fill-rule="evenodd"/><path d="M708.41 234.53c-2.242-.224-4.112 1.552-4.586 3.63-.494 1.907-.67 4.026-.16 5.96.965 3.624 6.34 6.04 8.9 2.564 2.64-3.194 2.787-8.81-.81-11.358-.958-.68-2.203-.83-3.345-.796zm-15.734 3.184c-1.675.253-1.87 2.26-1.602 3.613.21 1.953-.4 3.863-.405 5.825.02 1.412-.46 2.98.01 4.307.85 1.31 2.63.5 3.56-.29 1.07-.75 2.562-1.28 3.705-1.53.615 1.41.532 3.88 2.476 4.192 1.386.255 2.29-1.396 1.738-2.577-.367-1.397-1.235-2.554-1.617-3.92-.11-1.39-.34-3.564-2.11-3.72-1.427-.074-2.007 1.66-1.744 2.73-.87.364-1.75.692-2.64 1.03.036-2.994 1.15-6.16.06-9.06-.33-.433-.898-.65-1.435-.61zm16.06.235c2.02.02 2.583 2.5 2.235 4.08-.28.99-.54 2.37-1.65 2.74-1.53.22-2.69-1.387-2.42-2.837 0-1.33-.17-3.12 1.107-3.945.245-.035.493-.03.737-.048zm-26.046 3.75c-1.567.222-1.884 2.122-1.386 3.372 1.01 4 2.43 7.955 3.652 11.885 1.05 1.393 3.335.122 3.125-1.484-1.25-4.35-3-8.607-3.83-13.04-.33-.514-.95-.8-1.56-.737z" fill="#820202"/><path d="M771.9 129.735c-.914-.01-1.74.562-2.046 1.42-.338.924-.802 2.15-1.075 3.52-.27 1.374-.4 3.015.46 4.577.29.523.78.89 1.35 1.03 1.026.264 2.144.498 3.306.713-.136.742-.29 1.61-.346 2.57-.064 1.185-.04 2.517.72 3.84.33.557.89.934 1.53 1.03 4.156.66 9.815.28 13.53.295.127.005.26-.005.386-.025.86-.152 1.12.195 2.68.102.58-.03 1.393-.39 1.98-.907.384.048.706-.005.91-.025.403-.05.695-.128 1.164-.177-.074.01.5.01.937 0-.133 1.295-.38 2.95-.334 4.844.08 3.125.205 6.304.536 9.503.01.082.033.166.053.243.52 2.398 1.256 4.405 1.955 6.437-.176.13-.348.297-.48.482-.375.523-.493 1.188-.32 1.808 1.4 5.428 3.24 10.712 5.126 15.927-32.733 5.24-56.69 9.053-98.2 13.33-.42.044-.803.21-1.11.454l-11.523-29.644c1.94-.34 3.854-.83 5.675-1.5 3.02-1.116 6.43-1.746 9.78-2.986 2.918-1.075 5.82-2.354 8.518-3.16 1.172-.346 3-.845 4.682-1.684.844-.42 1.664-.914 2.383-1.646.72-.733 1.36-1.85 1.34-3.13-.007-.536.09-1.3-.027-2.275-.116-.98-.584-2.23-1.58-3.15-1.004-.92-2.16-1.47-3.235-1.76-1.074-.28-2.046-.38-3.09-.55-3.536-.57-7.194-.35-10.494-.31-3.654.05-7.35-.31-11.27-.27-5.763.08-11.39.35-17.062.42-1.41.02-4.237-.13-6.976.06-1.373.092-2.73.28-4.004.66-1.277.38-2.576.95-3.454 2.23-.03.04-.053.083-.083.122-1.613 2.75-3.5 5.005-4.08 7.925-.29 1.46-.09 3.15.777 4.606.865 1.45 2.252 2.665 4.19 3.89 2.48 1.715 5.352 2.5 8.42 2.89 4.17.54 8.392.324 12.445.27.917-.01 1.836-.06 2.753-.117l3.79 9.77c-5.26 8.575-10.606 18.15-15.928 27.97-12.57-6.983-26.2-9.937-39.498-9.234-16.05.85-31.608 7.03-44.21 17.866-.196-.064-.396-.107-.616-.117-3.144-.117-5.6-.152-7.557-.054-1.962.097-3.437.31-4.65.71-.114.037-.213.14-.33.19-.396-.196-.84-.26-1.274-.19-.816.13-1.784.286-2.794.814-1.018.53-1.936 1.45-2.614 2.68-1.758 3.17-2.61 7.21-1.524 10.61.54 1.704 1.493 3.852 3.53 5.274.345.243.755.458 1.19.615-1.49 2.913-3.16 6.58-4.658 10.59-2.478 6.614-4.5 13.983-4.1 20.18.013.112.03.224.053.336.424 1.86 2.196 3.028 3.696 3.317 1.5.29 2.997.135 4.43-.104 1.19-.2 2.297-.47 3.25-.716-.006.328-.01.65-.01.978-.34 36.083 27.812 65.722 62.906 66.054 26.07.243 48.642-15.764 58.66-38.805l35.646 5.157c.062.01.13.02.2.024 7.795.26 13.92-3.094 17.757-8.07.52.41 1.048.825 1.53 1.22-.05.17-.07.35-.07.53-.002.183-.06 1.423-.05 2.6.01.59.03 1.17.09 1.74.035.282.084.57.177.897.09.33.1.757.854 1.37 1.97 1.59 3.21 3.065 5.45 3.557 1.118.245 2.524-.112 3.453-.868.93-.764 1.56-1.75 2.238-3.03.587-1.12.978-1.957 1.19-2.876.21-.92.09-2.17-.48-2.98-1.14-1.63-2.163-1.667-3.4-2.668-1.117-.902-1.92-1.92-3.652-2.353-.867-.22-2.08-.04-2.89.53-.086.06-.135.14-.214.2-.62-.505-1.26-1.02-1.91-1.54 2.196-4.35 3.06-9.39 2.552-14.32-.004-.06-.004-.118-.01-.17-.004-.027-.014-.05-.014-.07-.217-2.35-.79-4.615-1.66-6.72-.106-.268-.227-.53-.345-.79-.04-.09-.07-.167-.106-.255-.015-.028-.03-.053-.04-.077-.874-1.916-1.968-3.68-3.267-5.265l55.198-65.674c.64 2.01 1.22 4.01 1.74 6.02.25.96 1.13 1.623 2.113 1.61.483-.007.956-.007 1.435-.017.684-.004 1.294-.157 1.83-.362.19.57.373 1.127.563 1.69-22.238 14.23-35.704 40.365-34.195 68.905v.015c.4 6.548 2.88 24.297 10.92 33.756.075.082.15.15.24.223 1.13.97 2.647 1.44 3.936 1.18 1.29-.264 2.165-1.006 2.84-1.69.502-.51.89-1.01 1.215-1.46 11.385 16.57 30.052 27.466 51.264 27.666 35.09.333 63.86-28.76 64.2-64.844.26-27.314-15.86-50.926-38.92-60.94.55-.76 1.18-1.64 1.806-2.637 1.052-1.675 2.16-3.302 2.15-5.5 0-.937-.614-1.757-1.513-2.035-3.023-.925-5.943-1.54-8.833-2.02.04-.062.076-.12.11-.184.96-1.722 1.45-3.85 1.42-6.17-.03-2.32-.56-4.45-1.565-6.144-.808-1.36-2.048-2.575-3.616-2.98-.266-.22-.58-.38-.94-.454-.645-.137-1.28-.176-1.9-.15-1.865.08-3.633.774-5.356 1.473-2.29.93-4.54 2.02-6.26 2.476-1.61.427-3.526 1.2-5.32 2.29-1.785 1.085-3.534 2.404-4.35 4.51-.47 1.22-.673 2.415-.316 3.563.09.305.22.58.36.83-8.554 1.332-16.49 4.124-23.623 8.094-.2-.586-.385-1.18-.575-1.767.315-.243.56-.56.696-.922.116-.01.244-.04.36-.07 1.15-.29 1.823-1.463 1.53-2.605-2.14-8.26-5.327-16.218-8.1-24.147 1.434-5.103 5.668-10.142 7.04-16.718 1.143-5.475-.284-10.157-3.575-12.716-2.054-1.598-4.672-2.29-7.48-2.06-.58.05-1.172.14-1.77.27l.03-.096c.16-.67.35-1.597.27-2.69-.082-1.1-.585-2.676-2.074-3.457-.215-.11-.42-.22-.63-.334-1.25-.654-2.71-.966-4.31-1.314-.973-.21-1.818-.37-2.61-.478-.048-.414-.165-.82-.35-1.182-.45-.876-1.178-1.384-1.793-1.706-1.23-.65-2.388-.81-3.038-1.02-6.255-2.057-15.234-3.643-21.616-4.375-.073-.016-.14-.026-.214-.03zm1.46 4.55c6.01.782 13.807 2.204 19.047 3.922.005 0 .015.005.024 0 .92.298 1.65.498 2.07.66-.1.23-.16.4-.2.468-.51-.136-1.8-.484-3.735-.508v-.015c-5.27-.678-12.66-1.332-17.65-2.42 0-.26-.006-.528.063-.886.078-.375.258-.805.39-1.22zm24.238 7.94c.092.02 1.646.196 3.027.494 1.445.31 3.1.85 3.237.92.137.07.264.14.4.21 0 .022-.018 0-.015.09.03.35-.048.966-.146 1.366-.21.9-.43 1.803-.65 2.705-.68 2.84-.5 5.4-.59 7.79-.16 4.237 1.07 7.587 2.27 10.976-.14.05-.282.105-.413.148-.382.13-.77.225-1.1.293-.683-1.984-1.323-3.78-1.753-5.726-.307-2.986-.434-6.02-.507-9.06-.04-1.62.706-4.04.44-6.595-.09-.87-.686-1.496-1.086-1.77s-.71-.366-.99-.44c-.564-.156-1.046-.19-1.525-.214-.8-.044-1.34-.01-1.81.025-.01.014-.022.014-.03 0h.03c.01-.025.02-.108.04-.216.306-.156.598-.33.83-.57.135-.14.237-.29.35-.43zm-19.634.8c4.003.06 8.985.426 12.368 1.26h.024c.313.075.308.075.538.124-.445-.02-.948-.02-1.53.05v-.02c-3.475-.017-8.148.18-11.454-.11-.024-.225-.07-.25-.054-.55.015-.23.074-.51.108-.764zm32.9 7.335c1.626-.034 2.983.445 4 1.236 1.806 1.4 2.92 4.076 2.006 8.44-.756 3.63-3.076 7.17-4.975 11.194-.504-1.63-.958-3.268-1.383-4.898-.19-.78-.796-1.372-1.537-1.567-1.07-3.09-1.94-5.684-1.82-8.78.066-1.778.032-3.364.145-4.834 1.29-.5 2.485-.76 3.564-.79zm-115.04 2.584c3.605-.044 7.306.322 11.27.268 3.433-.045 6.895-.225 9.756.244 1.183.19 2.056.303 2.66.47.613.16.964.316 1.46.775.193.18.163.17.203.51.043.33.008.95.013 1.76-.01.01-.03.04-.12.13-.197.207-.646.53-1.232.817-1.172.586-2.808 1.08-4 1.436-3.055.907-6.015 2.21-8.754 3.22-2.886 1.066-6.328 1.72-9.8 3-3.408 1.26-7.397 1.82-11.386 1.875-4.155.055-8.194.23-11.847-.24-2.65-.34-4.92-1.043-6.61-2.21-.03-.014-.055-.034-.083-.054-1.598-1.01-2.423-1.87-2.784-2.475-.356-.6-.395-.938-.27-1.578.256-1.262 1.78-3.504 3.512-6.44 0 0 .01.006.01 0 .02-.02.367-.326 1.138-.56.78-.23 1.88-.386 3.066-.47 2.374-.155 4.995-.03 6.734-.052 5.776-.076 11.4-.345 17.065-.417zm111.29 17.68c.053.03.107.063.16.083.723 2.48 1.52 4.932 2.355 7.363.03.302.13.606.29.87 2.67 7.69 5.662 15.165 7.72 22.7-.14.04-.28.087-.418.156-.94.488-1.527 1.045-2.113 1.435-.508.34-.83.45-1.055.48-3.034-10.94-7.706-21.41-10.646-32.01 1.016-.05 1.73-.39 2.637-.7.36-.11.71-.25 1.06-.37zm-112.67 15.78l15.297 39.337-9.75 3.41c-3.58-4.11-7.43-7.51-11.182-11.39-.06-.06-.126-.11-.19-.16-2.71-2.24-5.484-4.25-8.335-6.05 4.746-8.784 9.487-17.34 14.17-25.136zm172.216 2.262c.138 0 .56.146 1.084 1.035.527.89.942 2.35.967 4 .02 1.65-.37 3.13-.87 4.03-.5.9-.92 1.05-1.05 1.05-.14 0-.56-.13-1.082-1.014-.53-.89-.96-2.353-.98-4.003-.02-1.65.384-3.13.886-4.03.504-.897.924-1.053 1.055-1.06zm-5.58.766c-.44 1.33-.65 2.808-.63 4.375.024 1.724.316 3.325.883 4.737-.557-.083-1.108-.175-1.67-.264-.083-.014-.16-.01-.244-.014-1.45-.074-2.87-.112-4.29-.107-2.24 0-4.44.11-6.61.3-.1-.36-.28-.7-.56-.98-.33-.318-.46-.48-.5-.524v-.014c.003-.074.042-.28.23-.763.183-.483 1.175-1.548 2.56-2.383 1.38-.833 3.074-1.52 4.2-1.82 2.32-.61 4.563-1.71 6.623-2.553zm-55.68 1.607c.563 1.55 1.124 3.09 1.66 4.64l-56.616 67.38c-3.423-2.86-7.705-4.68-12.53-5.04-.122-.018-.248-.03-.37-.04-.04-.007-.073 0-.108 0-.512-.04-1.02-.06-1.537-.07-.92-.01-1.83.033-2.72.13l-6.27.045-2.5-6.427 2.73-.898c.97-.278 1.64-1.51 1.4-2.598l-9.24-23.74c-.34-.797-1.16-1.31-1.95-1.22-.25-.006-.505.05-.74.145l-2.82.98-7.696-19.81h.07c41.952-4.326 66.063-8.183 99.23-13.49zm49.66 11.4c1.336-.01 2.684.02 4.05.09 6.344 1.03 12.027 1.542 17.804 3.05-.244.54-.503 1.12-.87 1.7-.795 1.26-1.67 2.432-2.304 3.29-6.26-2.203-12.97-3.443-19.94-3.51-11.182-.104-21.705 2.79-30.88 7.94-.48-1.275-.947-2.555-1.406-3.83 9.726-5.52 21.084-8.69 33.545-8.74zm-214.93 1.75h1.125c11.245.08 22.636 2.97 33.276 8.91-.56 1.04-1.11 2.075-1.67 3.115-8.87-4.995-19.02-7.886-29.83-7.99-33.3-.31-60.862 25.89-63.88 59.4-.24.06-.46.11-.724.176-1.045.27-2.29.603-3.48.803-1.192.2-2.33.22-2.906.106-.16-.03-.234-.025-.28-.025-.24-4.975 1.504-11.89 3.83-18.095 2.36-6.332 5.307-12.04 6.825-14.363 13.384-20.127 34.57-31.455 56.6-32.027.37-.01.748-.014 1.12-.014zm213.63 7c32.774.31 59.17 28 58.847 61.9-.317 33.902-27.226 61.05-60 60.74-32.773-.315-59.1-27.95-58.783-61.85.2-21.29 10.868-39.95 26.888-50.8.504 1.28 1.012 2.554 1.524 3.83-14.682 10.2-24.4 27.43-24.585 46.99-.29 31.54 24.32 57.45 55 57.74 30.69.29 55.84-25.157 56.138-56.694.298-31.54-24.365-57.49-55.05-57.78-10.102-.096-19.603 2.61-27.812 7.404-.506-1.265-1-2.525-1.497-3.79 8.27-4.75 17.74-7.514 27.81-7.685.512-.006 1.015-.02 1.53-.01zm-210.776 1.16c10.12.1 19.643 2.8 27.943 7.493-.635 1.197-1.278 2.383-1.913 3.574-7.754-4.37-16.622-6.9-26.07-6.986-30.683-.29-55.785 25.2-56.084 56.736-.293 31.54 24.326 57.45 55.01 57.74 21.972.205 41.08-12.788 50.274-31.763l4.042.576c-9.59 21.034-30.395 35.48-54.355 35.253-32.77-.31-59.11-27.945-58.79-61.847.01-1.01.04-2 .1-2.994.044-.136.074-.273.092-.415.025-.212.02-.413-.015-.613 2.283-31.48 27.468-56.22 58.24-56.738.51-.006 1.025-.02 1.54-.016zm174.808 1.112c.46 1.264.93 2.54 1.407 3.8-17.58 11.513-29.33 31.673-29.54 54.676-.12 12.622 3.26 24.45 9.19 34.517-.035.044-.075.08-.11.122-.22.263-.4.51-.59.775-.372.516-.767 1.054-1.124 1.415-.356.364-.625.47-.63.47 0 0-.13-.082-.176-.106-6.41-7.7-9.442-25.357-9.795-31.09-1.416-26.753 10.864-51.1 31.36-64.58zm-139.57 1.845c2.613 1.665 5.172 3.516 7.657 5.566l.01.015c3.38 3.482 6.64 6.5 9.63 9.785l-4.04 1.408c-4.254-5.31-9.308-9.914-14.966-13.63.56-1.05 1.137-2.094 1.7-3.144zm175.47 4.15c28.364.264 51.215 24.195 50.942 53.55-.28 29.356-23.58 52.852-51.95 52.59-28.363-.27-51.16-24.196-50.883-53.55.17-17.89 8.87-33.605 22.06-43.087 3.51 8.475 7.21 16.86 10.62 25.067 1.906 4.59 5.148 8.46 8.526 11.753.484.473.988.956 1.47 1.43.245.234.484.46.723.682-.77 1.343-1.215 2.89-1.23 4.536-.05 5.084 4.047 9.36 9.155 9.41 5.107.05 9.297-4.152 9.346-9.234.045-5.08-4.066-9.35-9.17-9.4-1.91-.013-3.695.553-5.18 1.545-.224-.207-.444-.398-.654-.608-.49-.473-.975-.957-1.46-1.43-3.15-3.072-6.01-6.563-7.58-10.333-3.53-8.52-7.326-17.146-10.905-25.82 7.344-4.38 15.82-6.943 24.86-7.09.437-.01.877-.018 1.32-.014zm-212.115 1.18c.44-.006.884-.006 1.323 0 8.755.08 16.992 2.396 24.175 6.45-5.913 11.13-11.675 22.02-17.12 31.586l-9.06.07c-.055-.005-.104-.005-.163 0-1.997.2-3.89.76-5.62 1.606-.03.014-.063.024-.092.04-.03.013-.054.04-.084.053-5.102 2.44-8.764 7.484-9.286 13.367v.03c-.01.14-.03.284-.04.43-.073.97-.06 1.967.054 2.97.488 4.453 2.28 8.08 5.498 10.586.844.66 1.773 1.236 2.788 1.743.005.006.005.01.01.01 1.724.98 3.642 1.65 5.68 1.93 1.502.332 3.11.57 4.857.752v.01l43.364 6.25c-8.72 16.962-26.09 28.427-45.94 28.24-28.37-.263-51.164-24.193-50.89-53.55.278-28.895 22.798-52.108 50.556-52.572zm-53.11 1.42c-1.69 1.7-3.306 3.505-4.858 5.39-.77-2.226-1.94-3.99-2.28-4.844-.01-.01 0-.003 0-.013l.04-.013c.71-.23 2.31-.44 4.91-.507.65-.014 1.4-.014 2.18-.01zm86.128.054c4.755 3.16 9.042 7.015 12.73 11.414l-4.03 1.4c-3.144-3.515-6.708-6.62-10.614-9.248l1.92-3.57zm-97.436 1.39c.06.22.11.474.18.67.67 1.707 1.71 3.15 2.22 4.657.5 1.47.63 2.716-.36 4.43-.69.967-1.18 1.236-1.31 1.27-.13.04-.11.06-.4-.146-.59-.405-1.58-2.037-1.918-3.077-.48-1.483.015-5.097 1.19-7.216.158-.285.27-.45.388-.587zm139.33 3.207c2.8 7.176 5.56 14.35 8.38 21.51l-42.39 13.854c-2.66-6.92-5.32-13.853-8-20.772 13.733-4.78 27.473-9.54 41.21-14.32l.39-.13.4-.136zm-45.77 2.684c3 2.04 5.77 4.398 8.285 7.026l-6.827 2.364c-.96.295-1.61 1.51-1.377 2.585l6.58 17.104-22.483.16c5.087-9.028 10.41-19.048 15.82-29.24zm49.612 23.593l2 5.142-18.137.132 16.137-5.275zm3.053 8.487c-6.558 4.135-10.977 11.45-11.055 19.716 0 .225.01.445.014.668l-6.84-.375c.28-2.36.433-4.75.452-7.185.045-4.335-.336-8.58-1.084-12.685l18.512-.134zm-22.725.16c.785 4.077 1.176 8.296 1.136 12.62-.022 2.38-.163 4.714-.44 7.015l-3.84-.2c.28-2.247.435-4.53.455-6.85.04-4.308-.39-8.5-1.23-12.545l3.92-.04zm-21.994.176l.97 2.515c.41 1.07 1.69 1.598 2.637 1.1l10.316-3.373c.844 3.9 1.27 7.964 1.23 12.14-.02 2.26-.167 4.466-.455 6.648l-35.696-1.9c.26-1.137.4-2.323.416-3.53.043-4.95-2.145-9.447-5.626-12.504l.526-.91 25.68-.183zm57.18.254c4.47.04 8.565 1.65 11.807 4.297l-4.095 4.87c-2.056-1.616-4.61-2.607-7.39-2.718-.013 0-.023-.016-.038-.016-.117-.02-.228-.04-.346-.04-.226 0-.44.005-.66.014-1.357.054-2.66.322-3.88.776l-2.317-5.94c1.86-.72 3.85-1.143 5.933-1.236.32-.01.656-.014.984-.01zm-94.52.977c.208-.01.41-.007.62 0 1.723.012 3.36.403 4.844 1.082-.502.85-.99 1.69-1.484 2.514-1.05-.436-2.19-.67-3.39-.685-5.103-.044-9.293 4.14-9.34 9.224-.05 5.083 4.062 9.36 9.17 9.41 2.124.02 4.09-.703 5.66-1.914l3.866.2c-2.246 2.84-5.704 4.67-9.556 4.634-6.66-.065-12.056-5.68-11.992-12.37.063-6.484 5.224-11.83 11.606-12.1zm83.77 2.244l2.4 6.158c-2.84 2.364-4.672 5.914-4.712 9.854-.005.377.015.754.04 1.125l-6.318-.337c-.01-.28-.016-.564-.01-.85.057-6.614 3.475-12.493 8.602-15.944zm-74.772 1.286c2.255 2.25 3.643 5.375 3.613 8.793-.01 1.16-.194 2.286-.507 3.35l-2.957-.16c.375-.997.59-2.08.6-3.2.024-2.357-.855-4.53-2.3-6.2.512-.844 1.03-1.704 1.552-2.583zm202.92.79c2.803.03 5.083 2.38 5.06 5.205-.03 2.833-2.355 5.143-5.158 5.12-2.8-.03-5.07-2.383-5.045-5.21.006-.624.12-1.22.338-1.777 1.027.85 2.024 1.67 2.917 2.544.42.41.562.89 1.475 1.778.537.58 1.362.815 2.124.614.766-.2 1.35-.81 1.53-1.58.18-.77-.075-1.58-.67-2.102-.3-.29-.5-.856-1.46-1.793-.934-.91-1.88-1.724-2.824-2.505.54-.186 1.116-.3 1.717-.294zm-102.578 2.06c2.635 3.355 4.202 7.603 4.16 12.17-.03 3.32-.91 6.444-2.423 9.18-1.712-1.28-3.456-2.54-5.126-3.76-.003-.006-.003-.01-.01-.016.8-1.66 1.25-3.51 1.27-5.46.026-2.612-.74-5.054-2.073-7.11l4.202-5.005zm-108.79.684c.405.005.8.064 1.176.16-.556.894-1.1 1.773-1.645 2.623-.64.995-.35 2.327.646 2.972.99.64 2.314.35 2.954-.647.464-.715.927-1.46 1.396-2.205.338.7.53 1.48.52 2.3-.025 2.828-2.34 5.14-5.137 5.118-2.805-.03-5.075-2.38-5.05-5.21.03-2.825 2.34-5.134 5.14-5.11zm93.422 2.505c.146-.01.292-.006.44 0 4.8.043 8.68 4.06 8.632 8.885-.01 1.034-.206 2.017-.55 2.944-.79-.6-1.536-1.18-2.19-1.714-1.544-1.254-2.68-2.392-2.95-2.783-.435-.68-1.216-1.05-2.016-.965-.756.08-1.4.56-1.717 1.244-.31.685-.245 1.495.185 2.11.86 1.275 2.134 2.364 3.79 3.71.76.622 1.606 1.277 2.5 1.954-1.56 1.407-3.61 2.257-5.845 2.238-4.793-.046-8.694-4.083-8.645-8.903.042-4.67 3.767-8.53 8.362-8.725zm-79.234 10.516l36.56 1.97c-.757 3.576-1.86 7.01-3.277 10.27l-39.75-5.743c2.71-1.51 4.963-3.764 6.462-6.494zm40.74 2.185l3.88.2c-.726 3.82-1.8 7.504-3.17 11.03l-3.95-.563c1.4-3.403 2.492-6.973 3.24-10.67zm8.08.43l7.94.424c1.152 5.552 4.27 10.435 8.59 13.83l-19.675-2.838c1.37-3.656 2.43-7.475 3.145-11.415zm12.262.653l6.81.36c2.015 4.426 6.43 7.586 11.576 7.63 3.62.034 6.9-1.465 9.263-3.878 1.69 1.236 3.43 2.505 5.125 3.775-3.556 4.02-8.736 6.56-14.453 6.506-8.775-.08-16.148-6.23-18.325-14.39zm43.54 12.638c.18.15.656.446 1.643 1.247 1.245 1.004 1.982 1.513 2.29 1.654-.098.3-.274.725-.71 1.555-.51.987-.915 1.456-1.085 1.607-.142-.06-1.48-1.014-3.037-2.23-.026-.3-.05-.664-.055-1.1-.01-.67.023-1.127.04-1.634.31-.2.554-.483.72-.815.123-.23.108-.163.19-.276z" fill="#fff" fill-rule="evenodd"/><path d="M737.07 57.772c-1.522.338-1.18 2.84-1.66 4.204-.45 3.662.26 7.7 3.2 10.186 3.836 3.72 10.58 5.33 14.925 1.45 2.34-1.514 4.516-3.877 7.56-3.525 2.094 1.596 2.504-3.585 1.02-3.19-9.23.368-15.772-8.256-24.722-9.135-.108.02-.22-.024-.323.01z" fill="#b3b3b3"/><path d="M680.4 102.275c-.917 3.285-.756 6.366-1.768 10.102-.4 1.455-.4 3.305-.99 5.45-.025.076-.45 1.966-.962 4.32s-1.173 5.366-1.82 8.394c-.656 3.03-1.305 6.06-1.823 8.44-.235 1.066-.415 1.91-.576 2.64l.34.093c2.72.747 5.45 1.25 8.41 2.06.787.215 1.65.415 2.56.6 2.534-7.66 6.83-22.982 9.41-35.907.063-.425.224-.825.453-1.124l-13.223-5.057zm15.768 6.02c.067.34.072.712.008 1.06-2.55 12.787-6.616 27.436-9.272 35.625 2.105.42 4.297.892 6.372 1.62 2.554-7.865 6.665-22.622 9.165-35.17.04-.235.11-.455.19-.66l-6.46-2.475zm9.34 3.573c0 .157-.014.313-.04.47-2.543 12.753-6.605 27.343-9.262 35.547.088.05.18.087.27.136 3.905 2.21 8.3 3.47 13.373 5.57 4.79 1.99 11.37 2.04 17.1 3.61 2.48.69 5.71 1.1 8.16 1.84.66-2.06 1.58-4.85 2.57-7.87 1.61-4.93 3.3-10.12 3.57-11.11.85-3.07 2.26-5.48 2.932-7.92l1.965-7.17c.05-.18.11-.357.162-.538.21-1.255.364-2.124.515-2.97l-36.965-7.91-4.365-1.674z" fill="#fc0"/><path d="M705.494 4.286c-.358.015-.72.074-1.085.185-.74.24-1.52.9-1.83 1.65-.6 1.51-.05 2.42.2 3.21.2.62.29 1.026.35 1.34-1.196-.02-2.76-.037-4.39.36-1.03.25-2.14.66-2.99 1.66-.75.89-1.03 2.216-.837 3.49-.11 1.895-1.11 5.073.36 8.233-.225.747-.835 1.246-1.86 2.207-.606.562-1.344 1.285-1.73 2.437-.385 1.153-.205 2.56.445 3.844.02.04.04.08.063.118 1.084 1.818 2.544 3.976 4.243 6.2-.26.378-.512.755-.723 1.126-1.235 2.195-2.57 3.71-3.413 6.79-.704 2.55-1.68 5.205-2.46 8.04-.75 2.71-1.75 5.42-2.53 8.27-.786 2.86-1.567 5.676-1.89 8.78-.22 2.14-1.55 4.655-2.33 7.497-.67 2.446-1.64 5.13-1.937 8.033-.3 2.855-1.582 5.642-2.49 8.954l-2.222 8.11c-.67 2.426-.93 4.292-1.55 6.542-.577 2.104-.59 3.95-1.007 5.46-.175.653-.5 2.15-1.015 4.51-.512 2.364-1.152 5.38-1.807 8.41-.65 3.02-1.3 6.05-1.82 8.417-.51 2.362-.954 4.252-.99 4.374-.155.56-.032 1.187.31 1.66.346.474.9.78 1.49.8.03.01.06.01.092.016l1.62.443c2.927.803 5.657 1.302 8.405 2.06 3.193.88 6.934 1.453 10.11 2.3-.173.336-.247.72-.207 1.1.503 5.906 2.407 10.17 2.735 13.312.16 1.578.01 2.82-.713 4.205-.72 1.377-2.117 2.94-4.685 4.766-.01-.01-.57.33-1.216.653-.74.37-1.747.86-2.92 1.42-2.34 1.125-5.35 2.55-8.353 3.99-3 1.436-5.982 2.88-8.31 4.08-1.16.604-2.153 1.14-2.93 1.595-.385.225-.72.426-1.015.63-.224.15-.42.308-.667.586-.084.095-.157.14-.26.285l.045.025c-1.084 1.3-1.055 2.877-.83 4.288.238 1.515.766 3.072 1.36 4.562.6 1.49 1.266 2.89 1.798 3.95.266.527.5.975.67 1.3.085.16.157.295.2.383 0 .004-.004.01 0 .014.006.015.01.03.016.04.01.03.02.057.026.067.404.947 1.634 1.436 2.582 1.03.947-.4 1.435-1.62 1.03-2.568-.108-.28-.117-.264-.17-.376-.06-.113-.123-.244-.207-.4-.16-.318-.39-.743-.638-1.247-.506-1-1.126-2.32-1.66-3.65-.54-1.34-.985-2.718-1.14-3.73-.13-.83.02-1.22-.03-1.23.01-.005.02-.015.03-.025.004-.005.01-.02.014-.03l.04-.04c.01-.008.026-.013.04-.023.15-.11.42-.264.75-.46.667-.386 1.61-.903 2.747-1.484 2.253-1.163 5.227-2.61 8.215-4.044 2.984-1.43 5.99-2.856 8.35-3.985 1.177-.567 2.19-1.06 2.973-1.45.773-.386 1.164-.547 1.71-.933 2.902-2.064 4.8-4.057 5.914-6.186 1.112-2.124 1.336-4.327 1.12-6.41-.417-4.016-2.145-7.77-2.663-12.687.176.084.357.17.522.265 4.95 2.792 10.384 3.066 14.613 4.82 5.597 2.32 11.6 2.704 16.81 4.135 2.426.67 5.618 1.694 8.167 2.465.13.803.823 1.477 1.63 1.594.806.12 1.664-.326 2.02-1.06.923-.45 1.334-1.72.86-2.635.64-1.986 1.59-4.906 2.716-8.334 1.617-4.934 3.223-9.81 3.628-11.282.675-2.445 2.07-4.85 2.916-7.924l1.66-6.02c1.48 1.705 3.055 3.11 4.74 4.347 5.503 4.046 11.812 6.213 19.742 11.26.568.393 1.36.452 1.984.145-.107.54 0 1.01.103 1.34.16.485.37.826.59 1.164.89 1.36 2.26 2.81 2.57 3.293.44.686.604 1.073.98 1.614.37.545.97 1.083 1.67 1.5.873.52 2.14.203 2.664-.67.52-.87.2-2.14-.67-2.66-.46-.276-.37-.217-.47-.365-.1-.145-.36-.672-.897-1.512-.347-.54-.688-.907-1.113-1.414 1.148.09 2.368.154 3.51.17.49.01.938.01 1.34-.016.394-.02.61.035 1.268-.21.168-.063.38-.127.71-.43.328-.302.748-1.132.606-1.845-.146-.715-.51-1.01-.72-1.184-.21-.164-.358-.23-.486-.29-.507-.24-.845-.31-1.43-.44-.235-.052-.635-.106-.914-.16 1.198-.2 2.15-.312 3.098-.683.233-.095.487-.18.84-.485.356-.298.907-1.167.722-2.046-.18-.88-.69-1.207-.99-1.407-.3-.2-.56-.295-.83-.4-.237-.09-.496-.14-.75-.135-.71.023-1.396.47-1.698 1.112-.407.083-.518.126-1.045.215-1.182.196-2.59.426-3.92.724-1.335.3-2.56.61-3.68 1.324-.21.137-.48.322-.71.66-.075-.07-.154-.128-.24-.177-8.278-5.268-14.66-7.533-19.528-11.108-2.09-1.54-3.98-3.31-5.71-5.73.53-1.683 1.09-3.41 1.573-5.164l2.29-8.34c.795-2.902 1.812-5.69 2.65-8.74.65-2.38 1.15-4.67 1.7-6.92.757-.542 1.04-1.65.64-2.49.795-2.885 1.543-5.587 2.69-8.072.464-.996.805-2.036 1.1-3.076 1.09.155 2.22.312 3.412.48 1.538.22 3.02.42 4.15.574 1.128.155 1.715.23 2.03.27 1.01.115 2.04-.706 2.16-1.716.11-1.01-.703-2.026-1.714-2.144.137.02-.814-.096-1.943-.252-1.12-.15-2.616-.356-4.145-.576-1.05-.143-2.05-.29-3.05-.44.17-.78.345-1.53.53-2.22.66-2.385.875-4.875 1.03-7.16 1.495-.792 2.706-2 3.43-3.56.043-.09.096-.162.135-.254 3.976-6.68 6.31-15.957 3.415-23.54-.01-.02-.01-.04-.015-.053h-.016c-2.66-7.465-6.52-12.133-11.377-15.58-4.87-3.46-10.62-5.766-17.39-9.09-.027-.016-.056-.036-.09-.05C730.34 8.64 720.01 7.33 706.82 4.39c-.072-.016-.145-.03-.214-.04-.39-.043-.75-.07-1.115-.053zM699.03 42.39c2.635 3.053 5.642 5.978 8.74 8.043.83.84 1.727 1.602 2.674 2.305-.732 1.802-1.42 3.662-1.792 6.02v.015c-1.298 8.79-2.533 16.64-1.152 27.275.015.08.034.157.054.23.98 4.2 4.272 10.918 7.563 17.388 2.045 4.02 4.038 7.782 5.46 10.48-2.995-.567-5.807-1.15-8.205-1.81-7.328-2.015-14.35-5.135-21.668-7.146-2.433-.67-4.64-2.92-8.55-4.098-.08-.092-.177-.258-.5-.546-.004-.005-.01-.01-.01-.015l.778-2.8c.79-2.893 2.227-5.9 2.607-9.583.23-2.275 1.08-4.775 1.8-7.402.6-2.182 2.11-4.887 2.45-8.124.276-2.7.99-5.287 1.776-8.15.73-2.64 1.714-5.37 2.52-8.284.716-2.63 1.7-5.274 2.46-8.043.64-2.333 1.61-3.335 2.984-5.742zm14.856 12.516c3.736 2.036 7.876 3.422 11.63 4.575.02.01.035.01.055.02.04.01.09.03.13.04 2.38.92 4.65.61 6.62.14-.29 1.226-.49 2.58-.344 4.09.36 5.485 3 10.34 6.84 12.89 4.21 2.698 9.49 3.66 13.746 1.58.068-.03.136-.07.2-.104 1.436-.9 2.95-1.79 4.458-2.774.127-.08.24-.176.347-.28 1.093-1.103 1.805-1.64 2.61-1.566.176.02.358.016.534-.014h.05c.09.06.178.12.27.172-.15.59-.292 1.188-.43 1.78-.04-.005-.204-.035-.24-.04-.19-.044-.39-.054-.59-.04-.923.088-1.714.933-1.753 1.86-.03.93.697 1.82 1.61 1.983.014 0 .04.01.05.01-.216.758-.446 1.46-.735 2.075-.814 1.77-1.424 3.56-1.966 5.344-.367 1.397-.708 2.74-1.03 4.028-4.297 2.345-5.713 2.3-10.855 1.594-3.022-.414-5.097-1.577-7.172-3.275-2.07-1.703-4.07-3.993-6.625-6.37-.382-.367-.92-.57-1.452-.547-.793.03-1.534.57-1.81 1.314-.27.737-.05 1.63.534 2.163 2.368 2.21 4.385 4.536 6.81 6.532 2.433 2 5.348 3.625 9.17 4.15 4.118.56 6.9.57 10.186-.63-.59 2.357-1.14 4.417-1.716 6.067-.642 2.082-1.34 4.182-1.966 6.45l-2.29 8.332c-.15.558-.324 1.124-.495 1.69-1.27-2.563-2.427-3.296-3.59-7.15-.23-.803-1.034-1.41-1.87-1.404-.604.004-1.2.31-1.552.805-.354.488-.47 1.148-.28 1.725 1.143 3.777 2.31 4.602 3.628 7.307-3.877-1.433-8.62-2.43-13.545-3.356-1.81-.344-3.633-.665-5.45-.993-1.16-2.364-4.048-7.618-7.027-13.477-3.235-6.35-6.477-13.38-7.176-16.275-1.27-9.916-.147-17.08 1.152-25.835 0-.01-.008-.012 0-.02.26-1.67.744-3.058 1.334-4.55zm23.5 3.706c.68-.02 1.325.064 1.955.293.07.025.13.038.19.053 2.78.704 5.96 2.505 9.25 4.342 3.29 1.826 6.72 3.71 10.39 4.306h.02c.966.166 1.924.215 2.85.146-.047.528-.086 1.05-.15 1.568-.25-.034-.5-.073-.748-.093-.194-.015-.38-.02-.6-.015-.112.005-.235 0-.415.03-.096.014-.22.024-.39.078-2.216.127-3.866 1.416-4.99 2.53-1.303.848-2.7 1.678-4.11 2.558-2.39 1.133-6.373.644-9.517-1.367-3.166-2.02-5.324-5.21-4.87-9.23.015-.14.015-.29 0-.44-.13-1.33.333-2.86.786-4.72.123-.01.244-.023.36-.03zm8.34 7.818c-.086.005-.175.01-.267.023-.75.118-1.4.7-1.7 1.237-.33.566-.79 1.24-.91 2.34-.07.55.01 1.297.45 1.912.43.615 1.09.977 1.74 1.153.772.215 1.53.297 2.31.024.786-.27 1.425-1 1.65-1.65.448-1.3.087-2.25-.19-3.01-.12-.31-.323-.59-.587-.79-.034-.03-.43-.48-1.138-.888-.314-.176-.764-.39-1.37-.36zm-65.22 38.212c.085.034.188.054.28.08 2.993.824 5.078 3.168 8.886 4.218 1.51.415 3.013.897 4.537 1.406 29.32 11.66 41.47 7.782 52.11 14.076-.73 2.52-1.43 5.146-2.13 7.71-.68 2.446-2.09 4.85-2.94 7.925-.27.992-1.96 6.178-3.57 11.11-.99 3.02-1.91 5.81-2.57 7.87-2.45-.747-5.61-1.754-8.1-2.437-9.41-2.778-22.726-4.36-30.54-8.58-4.696-2.645-11.04-3.094-15.277-4.256-2.955-.81-5.685-1.314-8.405-2.06l-.336-.094c.163-.728.343-1.573.58-2.636.515-2.374 1.164-5.41 1.82-8.433.65-3.02 1.31-6.04 1.82-8.39.512-2.35.94-4.24.96-4.32.592-2.14.592-3.99.992-5.45.683-2.49.952-4.38 1.552-6.56l.32-1.17z" fill="#fff"/><path d="M709.82 37.934c-.845.015-1.65.57-1.964 1.352-.312.78-.102 1.743.504 2.33 4.638 4.555 13.398 9.755 20.234 10.385 1.118.11 2.23-.81 2.338-1.93.103-1.12-.82-2.23-1.933-2.33-4.75-.44-13.92-5.51-17.65-9.17-.407-.402-.97-.632-1.54-.63zm-4.444-15.405c-1.02.04-1.933.91-2.036 1.92-.102 1.01.62 2.04 1.606 2.29 7.608 1.932 17.735 4.173 26.53 7.16 8.788 2.98 16.05 6.95 18.12 10.973.463 1.07 1.903 1.59 2.943 1.055 1.04-.536 1.46-2.006.86-3.007-3.23-6.27-11.43-9.98-20.55-13.083-9.12-3.094-19.37-5.345-26.85-7.25-.21-.054-.42-.077-.63-.067zm7.388-8.01c-1.035.02-1.983.9-2.085 1.92-.11 1.03.64 2.075 1.65 2.304 7.602 1.94 17.74 4.165 26.53 7.15 8.782 2.982 16.03 6.96 18.1 10.985.52 1 1.893 1.44 2.895.92.996-.51 1.435-1.888.922-2.89-3.228-6.264-11.427-9.98-20.548-13.075-9.12-3.094-19.367-5.346-26.85-7.25-.207-.053-.417-.08-.627-.07zm-6.173-6.18c13.01 2.86 22.84 4.18 35.87 9.75.04.014.07.024.1.04 6.858 3.357 12.44 5.657 16.76 8.724 4.343 3.08 7.53 6.866 9.973 13.746.01.02.018.04.028.05 2.28 5.916.325 14.554-3.225 20.404-.05.08-.1.174-.13.267-.77 1.83-2.94 2.947-6.134 2.396h-.01c-2.72-.44-5.86-2.055-9.115-3.867-3.205-1.778-6.505-3.72-10.01-4.644-.01-.003-.02 0-.03 0-.05-.013-.1-.04-.147-.052v.014c-2.96-1.006-5.683-.23-7.894.36-2.263.596-3.95.982-5.6.31-.06-.026-.113-.04-.172-.055-5.97-1.837-12.56-4.294-16.38-8.22-.103-.1-.215-.19-.33-.267-5.46-3.575-11.647-11.47-14.498-16.236-.29-.594-.246-.69-.217-.78.03-.092.216-.38.685-.815.93-.872 2.967-2.365 3.21-5.124.04-.42-.063-.85-.28-1.204-1.003-1.65-.306-3.95-.173-6.89.004-.185-.01-.372-.055-.552-.14-.56-.07-.45-.043-.483.03-.03.327-.244.912-.387 1.17-.283 3.094-.234 4.456-.24.254-.004.513-.06.747-.16.728-.308 1.398-.836 1.793-1.514.4-.68.513-1.407.498-2.007-.03-1.093-.35-1.905-.576-2.568z" fill="#2c2c2c"/><path d="M727.485 123.45c-.336.02-.67.124-.96.294-3.927 2.31-7.496 4.736-11.38 5.986-.14.04-.272.094-.4.156-.604.284-1.06.865-1.19 1.52-.132.65.064 1.36.508 1.855 3.47 3.95 6.567 7.32 9.477 11.45.55.8 1.7 1.13 2.593.75 3.57-1.51 9.175-4.46 12.705-5.51.986-.298 1.67-1.39 1.5-2.406-.264-1.573-1.022-2.34-1.915-3.483-.898-1.14-2.022-2.386-3.203-3.64-2.354-2.506-4.966-5.07-6.02-6.25-.425-.475-1.075-.743-1.715-.71z"/><path d="M726.962 126.464c-3.393 2.115-6.806 4.1-10.53 5.605 3.12 3.52 6.2 7.09 8.968 10.89 4.063-1.896 8.09-3.88 12.31-5.397-2.774-4.346-6.74-7.666-10.156-11.445l-.372.214-.22.123z" fill="#fff"/><path d="M370.24 128.993c-.92-.01-1.744.562-2.05 1.42-.34.924-.803 2.15-1.07 3.522-.274 1.37-.4 3.012.467 4.575.29.522.777.888 1.353 1.03 1.02.263 2.144.497 3.306.712-.136.743-.297 1.61-.35 2.57-.065 1.185-.04 2.52.72 3.84.328.56.89.934 1.53 1.03 4.16.666 9.814.28 13.53.295.13.005.26-.005.39-.025.855-.15 1.114.196 2.676.108.577-.034 1.397-.395 1.983-.913.385.05.702 0 .907-.025.405-.05.7-.126 1.163-.175-.074.01.507.01.938 0-.137 1.294-.382 2.95-.333 4.844.074 3.13.2 6.31.533 9.51.015.08.038.16.053.24.523 2.4 1.255 4.41 1.958 6.44-.18.137-.35.3-.483.485-.37.52-.49 1.186-.32 1.806 1.4 5.43 3.25 10.713 5.13 15.928-32.73 5.24-56.68 9.053-98.2 13.33-.42.044-.8.21-1.11.456l-11.524-29.65c1.94-.343 3.855-.83 5.676-1.5 3.02-1.113 6.43-1.748 9.785-2.988 2.91-1.07 5.82-2.353 8.51-3.155 1.174-.35 3-.85 4.69-1.69.84-.42 1.66-.914 2.382-1.65.72-.73 1.356-1.85 1.34-3.125-.01-.538.09-1.3-.03-2.277-.115-.98-.584-2.23-1.575-3.148-1.01-.928-2.17-1.48-3.242-1.767-1.07-.29-2.04-.38-3.09-.552-3.534-.575-7.192-.35-10.492-.306-3.657.05-7.353-.317-11.27-.27-5.76.08-11.39.344-17.065.416-1.4.02-4.226-.126-6.97.054-1.373.093-2.725.28-4.004.66-1.275.38-2.574.95-3.453 2.23-.024.045-.052.084-.077.123-1.62 2.75-3.505 5.004-4.08 7.924-.29 1.46-.094 3.15.775 4.608.863 1.454 2.25 2.665 4.188 3.89 2.484 1.714 5.355 2.5 8.42 2.895 4.176.533 8.395.318 12.448.265.918-.01 1.837-.055 2.76-.118l3.79 9.77c-5.264 8.573-10.61 18.15-15.927 27.973-12.575-6.986-26.208-9.935-39.5-9.24-16.054.85-31.61 7.034-44.21 17.874-.193-.07-.4-.114-.613-.123-3.15-.116-5.6-.15-7.562-.052-1.96.097-3.43.312-4.642.707-.12.04-.22.14-.334.19-.397-.19-.836-.26-1.27-.19-.82.13-1.783.29-2.798.814-1.017.534-1.93 1.45-2.614 2.68-1.752 3.17-2.612 7.214-1.523 10.61.55 1.706 1.497 3.855 3.537 5.276.34.246.75.46 1.19.617-1.495 2.915-3.165 6.583-4.66 10.59-2.476 6.618-4.502 13.985-4.096 20.18.01.114.025.226.055.34.42 1.86 2.19 3.026 3.69 3.32 1.5.288 3 .132 4.435-.11 1.187-.2 2.295-.467 3.25-.71-.01.33-.01.647-.013.975-.24 25.245 13.474 47.32 33.74 58.423-8.71-.053-16.06-.116-17.905-.116-4.237 0-107.97.25-193.056.452v4.284c85.16-.205 189.015-.455 193.057-.455 2.404 0 14.015.127 27.73.2v-.024c2.85-.19 4.32-2.85.337-4.287-23.343-8.416-40.003-31.44-39.75-58.436.01-1.01.034-2 .093-2.997.045-.13.08-.272.093-.414.023-.214.023-.414-.017-.614 2.28-31.48 27.466-56.22 58.237-56.74.507-.006 1.026-.02 1.54-.016 10.12.097 19.642 2.802 27.947 7.495-.64 1.194-1.283 2.38-1.913 3.573-7.755-4.37-16.627-6.894-26.076-6.987-30.683-.29-55.785 25.2-56.08 56.738-.296 31.54 24.327 57.45 55.01 57.74 21.968.206 41.075-12.79 50.27-31.76l4.04.576c-6.83 14.99-19.353 26.62-34.66 31.995-2.013 2.26 1.24 4.006 2.78 3.396 6.634-.11 10.056.207 11.634-.19 7.765-1.94 18.805-.623 27.76-.623h99.34c6.02 0 14.257.814 20.263 2.016 5.563 1.114 11.764.8 17.604.445 3.587.17 2.41-4.703-1.34-4.537-26.43-6.386-46.01-30.985-45.732-60.244.202-21.29 10.866-39.947 26.886-50.796.504 1.28 1.01 2.552 1.53 3.826-14.688 10.2-24.404 27.43-24.59 46.994-.293 31.537 24.316 57.45 55 57.743 30.683.29 55.834-25.16 56.132-56.697.296-31.54-24.368-57.49-55.05-57.78-10.11-.097-19.606 2.608-27.814 7.403-.513-1.265-1.005-2.525-1.5-3.79 8.272-4.75 17.736-7.514 27.813-7.68.51-.01 1.014-.02 1.526-.014 32.775.31 59.17 28 58.854 61.9-.27 28.34-19.106 51.95-44.423 58.76-3.237.044-4.994 3.3-2.65 4.375.58-.004 1.24-.004 1.835-.01l-.03.134c.196-.045.387-.104.577-.148 18.603-.17 44.872-.27 49.095.79 8.247 2.063 18.58.065 26.03.065h81.396c2.64 0 5.274-.067 7.895-.16l-8.726-4.12H541.38c-8.137 0-18.29 1.743-24.99.07-3.67-.92-18.992-1.115-34.246-1.07-1.245 0-2.436.006-3.653.01 21.43-10.376 36.38-32.705 36.62-58.647.26-27.314-15.86-50.928-38.92-60.943.56-.756 1.188-1.64 1.81-2.636 1.057-1.67 2.16-3.3 2.16-5.5-.004-.936-.614-1.756-1.512-2.034-3.027-.926-5.947-1.54-8.832-2.02.035-.06.07-.12.11-.184.955-1.724 1.444-3.853 1.415-6.173-.03-2.313-.563-4.442-1.57-6.142-.804-1.36-2.044-2.573-3.61-2.98-.26-.22-.583-.38-.94-.453-.64-.136-1.28-.175-1.9-.15-1.86.083-3.63.775-5.35 1.474-2.295.93-4.536 2.02-6.265 2.474-1.607.425-3.526 1.2-5.314 2.29-1.79 1.085-3.54 2.403-4.35 4.513-.467 1.216-.672 2.412-.32 3.56.096.307.224.58.36.83-8.55 1.332-16.484 4.125-23.622 8.095-.2-.585-.382-1.18-.577-1.766.32-.244.563-.56.7-.922.11-.01.244-.034.36-.07 1.144-.29 1.823-1.46 1.524-2.606-2.14-8.26-5.322-16.215-8.094-24.145 1.43-5.102 5.664-10.142 7.04-16.72 1.14-5.472-.29-10.155-3.58-12.713-2.054-1.597-4.67-2.29-7.484-2.062-.577.05-1.173.143-1.763.27.005-.035.018-.063.023-.093.163-.67.354-1.596.27-2.69-.082-1.1-.58-2.676-2.075-3.452-.21-.115-.412-.228-.63-.34-1.25-.655-2.702-.968-4.303-1.314-.98-.21-1.822-.37-2.614-.48-.042-.416-.16-.816-.345-1.18-.455-.88-1.177-1.39-1.79-1.71-1.237-.65-2.39-.81-3.045-1.02-6.257-2.058-15.23-3.644-21.618-4.377-.07-.01-.14-.024-.21-.03zm1.454 4.55c6.016.782 13.808 2.203 19.048 3.927h.024c.924.292 1.646.492 2.066.654-.102.23-.166.4-.205.468-.508-.136-1.802-.482-3.73-.507v-.015c-5.274-.68-12.667-1.333-17.657-2.42 0-.255-.005-.53.07-.885.07-.376.258-.806.384-1.22zm24.238 7.94c.093.02 1.647.195 3.028.493 1.45.313 3.1.855 3.237.924.137.072.27.146.405.214 0 .025-.023 0-.015.098.025.347-.053.967-.146 1.362l-.65 2.705c-.682 2.83-.492 5.4-.585 7.78-.166 4.24 1.07 7.59 2.26 10.975-.136.05-.277.102-.414.146-.38.127-.767.225-1.1.294-.68-1.988-1.322-3.785-1.752-5.728-.307-2.99-.433-6.02-.507-9.063-.04-1.62.71-4.04.44-6.595-.09-.87-.68-1.495-1.085-1.768-.4-.27-.705-.368-.984-.44-.564-.156-1.047-.19-1.525-.215-.798-.043-1.34-.01-1.81.025.01-.025.02-.11.04-.21.304-.16.6-.338.83-.578.13-.138.24-.29.347-.43zm-19.633.8c4 .06 8.98.426 12.36 1.26h.03c.305.074.3.074.53.123-.44-.02-.95-.02-1.525.054v-.015c-3.476-.015-8.154.18-11.46-.108-.02-.225-.07-.248-.054-.546.016-.23.08-.51.11-.76zm32.9 7.34c1.62-.04 2.98.44 4 1.23 1.8 1.402 2.91 4.078 2 8.443-.756 3.627-3.08 7.173-4.98 11.19-.504-1.625-.96-3.265-1.38-4.896-.19-.782-.8-1.373-1.54-1.568-1.065-3.09-1.94-5.684-1.816-8.78.067-1.776.033-3.364.146-4.834 1.29-.507 2.48-.766 3.56-.786zm-115.04 2.583c3.6-.05 7.3.318 11.27.264 3.43-.044 6.9-.225 9.75.244 1.183.19 2.052.302 2.662.468.606.162.963.318 1.46.777.186.17.156.16.2.5.04.33.005.95.01 1.75-.005.01-.03.044-.117.13-.2.206-.644.53-1.23.82-1.17.58-2.808 1.076-4.004 1.43-3.056.91-6.016 2.215-8.755 3.225-2.884 1.07-6.326 1.72-9.793 3-3.414 1.257-7.404 1.825-11.39 1.874-4.15.052-8.19.227-11.85-.24-2.645-.343-4.92-1.047-6.61-2.208-.024-.02-.054-.04-.077-.054-1.604-1.018-2.43-1.877-2.785-2.48-.36-.6-.395-.94-.27-1.58.25-1.264 1.774-3.505 3.507-6.435 0-.005.01 0 .017 0 .015-.024.363-.333 1.14-.567.775-.23 1.874-.387 3.06-.47 2.38-.156 5-.03 6.734-.05 5.777-.08 11.4-.342 17.066-.414zm111.29 17.68c.05.025.1.06.16.08.72 2.48 1.52 4.93 2.36 7.363.03.3.13.6.29.86 2.67 7.69 5.67 15.165 7.72 22.7-.14.04-.28.09-.418.16-.94.482-1.534 1.04-2.114 1.43-.508.336-.835.444-1.06.482-3.03-10.953-7.7-21.42-10.64-32.017 1.012-.054 1.73-.396 2.64-.7.355-.115.706-.247 1.053-.37zm-112.67 15.776L308.08 225l-9.755 3.402c-3.584-4.106-7.43-7.51-11.19-11.39-.055-.055-.13-.113-.186-.162-2.71-2.236-5.49-4.25-8.34-6.05 4.75-8.78 9.48-17.34 14.17-25.138zM465 187.93c.13-.006.556.14 1.084 1.03.522.882.942 2.347.962 3.997.02 1.657-.366 3.13-.87 4.03-.502.903-.922 1.044-1.06 1.044-.13 0-.556-.13-1.082-1.01-.523-.89-.953-2.35-.978-4-.02-1.65.38-3.124.884-4.026.504-.9.924-1.055 1.06-1.055zm-5.58.76c-.44 1.33-.65 2.812-.63 4.375.02 1.724.31 3.326.882 4.74-.556-.086-1.112-.18-1.675-.268-.077-.014-.16-.01-.238-.014-1.45-.073-2.87-.112-4.29-.107-2.24.005-4.44.113-6.61.308-.1-.362-.28-.7-.56-.977-.33-.317-.46-.478-.5-.522v-.015c0-.074.04-.28.22-.76.186-.485 1.183-1.545 2.56-2.385 1.376-.835 3.075-1.523 4.203-1.82 2.32-.61 4.565-1.71 6.625-2.555zm-55.68 1.607c.56 1.553 1.12 3.095 1.655 4.643l-56.61 67.38c-3.43-2.858-7.71-4.675-12.53-5.037-.128-.008-.25-.028-.376-.038-.04-.005-.08.005-.11 0-.51-.04-1.02-.064-1.54-.07-.92-.008-1.83.04-2.72.133l-6.266.044-2.505-6.426 2.73-.898c.975-.278 1.644-1.508 1.405-2.593l-9.232-23.745c-.345-.795-1.16-1.31-1.95-1.22-.256 0-.505.048-.74.15l-2.826.977-7.695-19.81h.066c41.96-4.325 66.064-8.182 99.233-13.49zm3.263 9.41c.638 2.005 1.22 4.008 1.742 6.02.244.956 1.124 1.625 2.115 1.605.477-.004.95-.004 1.43-.014.684-.005 1.294-.156 1.836-.36.185.565.367 1.122.562 1.688-22.237 14.23-35.708 40.36-34.2 68.9v.016c.4 6.548 2.886 24.298 10.923 33.755.08.083.16.156.24.225 1.14.97 2.65 1.44 3.94 1.18 1.29-.262 2.17-1 2.84-1.69.505-.51.895-1.008 1.22-1.453 6.69 9.73 15.9 17.52 26.66 22.32-1.33-.108-2.62-.27-3.83-.51-6.363-1.278-14.703-2.12-21.105-2.12h-99.34c-4.773 0-10.42-.48-16.06-.496-4.387-.014-8.777.254-12.742 1.246-.36.087-.99.165-1.845.238 12.065-6.86 21.748-17.63 27.417-30.663l35.64 5.158c.064.01.137.018.2.023 7.798.26 13.92-3.09 17.764-8.07.51.41 1.04.825 1.522 1.22-.043.18-.063.353-.07.534 0 .18-.062 1.42-.052 2.598.01.59.03 1.176.097 1.742.03.28.08.566.17.894.093.325.103.755.86 1.365 1.97 1.59 3.21 3.065 5.444 3.56 1.124.243 2.525-.11 3.46-.87.926-.757 1.56-1.74 2.23-3.028.59-1.125.98-1.955 1.19-2.877.216-.924.09-2.174-.48-2.984-1.136-1.63-2.166-1.666-3.402-2.667-1.12-.905-1.92-1.92-3.653-2.355-.87-.22-2.08-.04-2.89.53-.083.06-.137.14-.216.2-.62-.5-1.255-1.02-1.913-1.537 2.197-4.35 3.06-9.39 2.558-14.32l-.014-.173-.015-.07c-.22-2.35-.79-4.613-1.66-6.72-.108-.262-.23-.526-.347-.79-.04-.087-.07-.164-.107-.253-.01-.027-.03-.052-.04-.075-.872-1.915-1.966-3.68-3.265-5.265l55.2-65.67zm46.39 1.99c1.343-.004 2.69.025 4.058.094 6.35 1.03 12.03 1.56 17.8 3.06-.24.54-.5 1.12-.87 1.7-.79 1.265-1.67 2.437-2.3 3.296-6.26-2.2-12.97-3.442-19.94-3.505-11.18-.107-21.7 2.788-30.87 7.934-.48-1.274-.948-2.554-1.406-3.83 9.726-5.516 21.08-8.69 33.54-8.74zm-214.927 1.754h1.13c11.24.09 22.635 2.97 33.27 8.92-.56 1.04-1.114 2.08-1.675 3.12-8.87-5-19.01-7.89-29.83-7.99-33.3-.31-60.86 25.89-63.88 59.4-.24.066-.45.11-.72.178-1.044.268-2.29.6-3.48.8-1.186.2-2.33.22-2.9.108-.16-.027-.24-.022-.284-.022-.24-4.976 1.51-11.89 3.83-18.096 2.367-6.33 5.307-12.04 6.825-14.364 13.384-20.128 34.57-31.456 56.6-32.027.377-.01.75-.01 1.12-.016zm177.666 9.28c.46 1.27.928 2.54 1.407 3.8-17.58 11.52-29.33 31.68-29.55 54.68-.118 12.62 3.26 24.45 9.193 34.52-.033.046-.073.08-.107.123-.215.264-.4.518-.586.777-.377.516-.772 1.054-1.13 1.415-.35.36-.623.47-.623.47l-.174-.11c-6.41-7.7-9.447-25.355-9.8-31.087-1.415-26.753 10.865-51.1 31.363-64.58zm-139.57 1.85c2.608 1.668 5.167 3.52 7.652 5.57l.015.015c3.38 3.48 6.64 6.504 9.63 9.785l-4.045 1.405c-4.253-5.31-9.306-9.91-14.965-13.627.56-1.05 1.137-2.095 1.704-3.145zm175.464 4.15c28.37.27 51.22 24.198 50.943 53.55-.28 29.36-23.58 52.86-51.95 52.59-28.368-.27-51.16-24.194-50.89-53.55.17-17.89 8.87-33.602 22.06-43.085 3.505 8.478 7.21 16.86 10.61 25.07 1.91 4.594 5.15 8.46 8.523 11.75l1.475 1.433c.24.233.48.458.723.683-.77 1.343-1.216 2.89-1.23 4.536-.05 5.084 4.047 9.36 9.154 9.41 5.103.05 9.293-4.15 9.34-9.233.05-5.083-4.066-9.35-9.17-9.394-1.904-.02-3.695.546-5.18 1.537-.22-.204-.44-.394-.654-.604-.484-.47-.97-.958-1.46-1.43-3.15-3.073-6.01-6.565-7.573-10.333-3.53-8.518-7.334-17.145-10.908-25.82 7.34-4.38 15.82-6.94 24.852-7.09.437-.01.882-.02 1.32-.016zm-212.114 1.18c.444-.004.884-.004 1.328 0 8.75.085 16.987 2.4 24.17 6.45-5.908 11.135-11.675 22.02-17.12 31.59l-9.056.066c-.06-.004-.108-.004-.162 0-1.997.2-3.896.76-5.625 1.607-.03.014-.058.024-.092.04-.025.014-.054.043-.08.053-5.106 2.44-8.77 7.483-9.29 13.372v.025c-.01.14-.03.28-.04.426-.073.972-.054 1.97.054 2.97.48 4.452 2.28 8.08 5.5 10.584.84.66 1.77 1.238 2.78 1.747l.01.015c1.72.97 3.637 1.64 5.674 1.92 1.51.34 3.115.58 4.86.755v.01l43.363 6.254c-8.725 16.954-26.09 28.424-45.947 28.233-28.364-.263-51.162-24.19-50.89-53.55.275-28.896 22.795-52.11 50.553-52.573zm-53.106 1.42c-1.69 1.7-3.31 3.507-4.857 5.39-.77-2.225-1.94-3.99-2.28-4.843-.01-.007 0-.004 0-.012.02-.01 0 0 .04-.01.7-.234 2.31-.444 4.91-.512.65-.013 1.39-.013 2.18-.01zm86.13.055c4.75 3.164 9.036 7.016 12.723 11.416l-4.03 1.405c-3.14-3.52-6.71-6.624-10.61-9.25.63-1.19 1.28-2.38 1.91-3.57zm-97.442 1.39c.067.22.11.475.19.67.673 1.714 1.708 3.155 2.22 4.66.505 1.47.63 2.714-.36 4.428-.694.97-1.187 1.237-1.314 1.27-.126.04-.108.06-.4-.146-.586-.407-1.583-2.038-1.914-3.078-.474-1.485.015-5.1 1.19-7.217.158-.285.275-.45.388-.588zm139.33 3.214c2.803 7.17 5.567 14.34 8.38 21.51-14.127 4.613-28.258 9.23-42.39 13.85-2.66-6.924-5.312-13.856-7.987-20.776 13.73-4.785 27.47-9.54 41.21-14.32l.387-.133.4-.133zm-45.757 2.675c2.993 2.04 5.772 4.4 8.282 7.024l-6.83 2.37c-.96.29-1.61 1.507-1.38 2.58l6.583 17.104-22.485.16c5.09-9.03 10.405-19.05 15.82-29.24zm49.614 23.592l2 5.14-18.132.134 16.14-5.275zm3.06 8.486c-6.56 4.137-10.98 11.45-11.052 19.72-.005.222.01.442.01.667l-6.837-.377c.274-2.364.43-4.75.454-7.19.04-4.34-.34-8.58-1.084-12.69l18.51-.133zm-22.73.16c.79 4.08 1.18 8.3 1.14 12.625-.02 2.38-.16 4.71-.44 7.01l-3.84-.2c.28-2.243.433-4.53.453-6.85.044-4.304-.39-8.493-1.23-12.542l3.92-.04zm-21.99.18l.967 2.512c.415 1.07 1.688 1.603 2.636 1.1l10.317-3.375c.85 3.9 1.274 7.963 1.234 12.14-.02 2.26-.17 4.466-.456 6.653l-35.695-1.904c.263-1.14.405-2.327.415-3.53.045-4.95-2.138-9.45-5.62-12.5l.522-.915 25.684-.185zm57.18.252c4.47.04 8.567 1.65 11.8 4.297l-4.09 4.868c-2.055-1.61-4.614-2.602-7.39-2.715-.014 0-.03-.018-.044-.018-.112-.018-.228-.033-.346-.038-.22 0-.437.004-.657.014-1.354.057-2.66.32-3.88.775l-2.313-5.944c1.86-.716 3.845-1.14 5.93-1.23.322-.014.654-.02.99-.014zm-94.52.977c.205-.01.407-.005.615 0 1.73.015 3.365.405 4.844 1.083-.497.852-.986 1.692-1.484 2.512-1.045-.43-2.187-.668-3.383-.683-5.102-.045-9.297 4.14-9.346 9.22-.047 5.085 4.06 9.36 9.17 9.41 2.13.02 4.084-.7 5.66-1.913l3.87.2c-2.25 2.843-5.71 4.67-9.558 4.634-6.666-.063-12.058-5.68-12-12.366.065-6.485 5.226-11.832 11.607-12.1zm83.775 2.246l2.393 6.157c-2.832 2.36-4.672 5.91-4.712 9.85 0 .376.016.752.046 1.124l-6.32-.334c-.01-.286-.013-.57-.013-.86.06-6.61 3.48-12.49 8.606-15.94zm-74.78 1.29c2.26 2.25 3.648 5.37 3.613 8.787-.01 1.155-.194 2.282-.507 3.35l-2.96-.16c.378-1 .59-2.08.607-3.2.02-2.36-.86-4.53-2.306-6.198.513-.85 1.036-1.71 1.553-2.584zm202.92.785c2.803.03 5.088 2.383 5.058 5.21-.023 2.828-2.352 5.137-5.15 5.113-2.803-.03-5.073-2.385-5.05-5.21.01-.628.128-1.22.338-1.78 1.026.85 2.023 1.67 2.92 2.544.42.41.558.888 1.47 1.777.538.58 1.363.82 2.13.616.766-.2 1.343-.807 1.523-1.58.185-.77-.074-1.577-.67-2.104-.293-.29-.498-.855-1.455-1.79-.937-.91-1.884-1.72-2.827-2.5.54-.19 1.115-.305 1.716-.3zm-102.58 2.06c2.637 3.356 4.204 7.603 4.166 12.17-.034 3.32-.913 6.445-2.427 9.18-1.71-1.28-3.457-2.535-5.122-3.76-.004-.005-.01-.01-.014-.01.8-1.666 1.258-3.517 1.27-5.464.027-2.614-.74-5.055-2.072-7.106l4.205-5.01zm-108.79.684c.41.007.8.065 1.18.163-.56.894-1.096 1.772-1.65 2.623-.64.995-.35 2.332.647 2.972.996.64 2.315.35 2.96-.646.464-.716.92-1.46 1.39-2.204.337.698.53 1.48.524 2.305-.03 2.828-2.34 5.138-5.143 5.11-2.797-.026-5.072-2.38-5.044-5.21.03-2.824 2.34-5.133 5.14-5.11zm93.424 2.507c.15-.005.292-.005.444 0 4.794.044 8.677 4.063 8.633 8.888-.01 1.038-.21 2.02-.55 2.947-.786-.6-1.537-1.18-2.192-1.714-1.542-1.253-2.68-2.39-2.943-2.782-.44-.673-1.22-1.05-2.02-.96-.75.083-1.4.556-1.712 1.24-.312.69-.245 1.5.185 2.12.86 1.27 2.134 2.36 3.79 3.705.766.62 1.61 1.274 2.504 1.953-1.56 1.406-3.616 2.255-5.85 2.236-4.797-.043-8.69-4.08-8.65-8.9.043-4.674 3.768-8.53 8.363-8.726zm-79.238 10.51l36.567 1.97c-.76 3.575-1.866 7.007-3.28 10.268l-39.753-5.74c2.71-1.51 4.966-3.766 6.465-6.496zm40.74 2.184l3.885.202c-.724 3.817-1.798 7.504-3.174 11.03l-3.945-.562c1.4-3.403 2.49-6.97 3.237-10.67zm8.088.43l7.935.43c1.152 5.547 4.272 10.43 8.594 13.823l-19.68-2.836c1.373-3.66 2.433-7.48 3.15-11.42zm12.257.655l6.816.36c2.017 4.424 6.426 7.583 11.577 7.63 3.614.036 6.9-1.463 9.264-3.88 1.69 1.235 3.434 2.505 5.12 3.775-3.553 4.018-8.733 6.557-14.45 6.503-8.775-.08-16.143-6.23-18.325-14.39zm43.54 12.635c.185.147.658.444 1.645 1.246 1.25 1.007 1.98 1.514 2.29 1.66-.1.294-.28.718-.71 1.553-.52.983-.92 1.452-1.09 1.603-.147-.064-1.48-1.017-3.037-2.233-.03-.297-.05-.663-.055-1.098-.01-.67.024-1.13.04-1.63.307-.206.55-.49.722-.82.122-.23.102-.168.186-.28zm332.44 30.328c-1.592.014-3.35.23-5.673.698-3.56.714-7.61.22-11.92.265l-8.69 5.193c1.417-.16 2.814-.337 4.15-.56 5.11-.85 11.096.546 17.307-.7 5.875-1.172 6.426-.767 12.17.67 4.41 1.103 9.456.053 12.93.053h2.108c.104.03.21.044.324.054 2.77.264 8.36 1.337 12.63 1.337h22.076c4.083 0 8.06-.166 11.202.62 5.78 1.445 11.61-.62 15.698-.62h19.303c7.197 0 13.95-1.39 20.693-1.39 5.776 0 11.684-.68 17.25-.68.454 0 .918.02 1.377.04l-6.465-4.19c-4.185.2-8.296.547-12.164.547-7.305 0-14.062 1.39-20.693 1.39H775.78c-5.257 0-10.634 1.76-14.652.755-4.043-1.013-8.31-.754-12.247-.754h-22.07c-3.51 0-8.98-1.01-12.23-1.32-.08-.01-.17-.01-.25-.01-.164-.04-.33-.053-.505-.053h-2.075c-4.158 0-9.01.786-11.886.07-2.845-.715-4.8-1.198-6.83-1.354-.506-.04-1.024-.06-1.55-.055zm213.077.16c-4.38-.013-8.76.255-12.72 1.246-3.664.917-8.073.893-12.54.776l-7.964 4.15c.336-.005.678-.015 1.015-.015 6.255 0 13.798.933 20.52-.75 7.765-1.94 18.805-.625 27.76-.625h53.804c6.013 0 47.263-.562 53.27.64 3.855.77 7.493 1.142 11.053 1.312v-4.326c-3.47-.165-6.84-.502-10.214-1.176-6.37-1.275-47.71-.737-54.11-.737h-53.81c-4.78 0-10.424-.48-16.063-.492z" fill="#fff" fill-rule="evenodd"/><path d="M349.595 103.216c-.635.035-1.24.4-1.567.953-.323.54-.357 1.26-.08 1.83 5.172 11.14 10.323 16.41 16.345 19.63 2.875 1.54 5.883 2.63 9.165 3.77 5.996.835 13.29 2.236 18.617 3.99.655.21 1.806.37 3.038 1.02.317.165.668.375.99.67.162-.02.328-.037.485-.055.487-.064.932-.128 1.322-.205.396-.074.615-.05 1.235-.387.153-.083.36-.19.64-.538.284-.347.576-1.226.338-1.915-.245-.683-.655-.916-.884-1.054-.24-.134-.38-.183-.51-.23-.54-.163-.89-.18-1.49-.222-.24-.02-.63-.028-.91-.043 1.15-.36 2.06-.613 2.94-1.11.22-.123.47-.25.775-.6.307-.35.732-1.272.43-2.12-.308-.84-.855-1.1-1.183-1.252-.32-.157-.595-.22-.88-.284-.19-.044-.384-.064-.575-.054-.777.055-1.49.622-1.715 1.364v.014c-.39.136-.498.185-1.006.346-1.14.36-2.497.784-3.776 1.27-1.277.48-2.46.954-3.465 1.82-.19.164-.435.39-.616.76-.08-.054-.17-.103-.258-.146-8.936-4.043-15.567-5.39-20.895-8.242-5.32-2.855-9.685-7.148-14.65-17.84-.32-.714-1.1-1.193-1.875-1.154zm46.347 38.268c-.048.063-.097.12-.146.184.146-.043.298-.092.454-.146-.074-.01-.292-.04-.307-.04zm-77.856 16.152c-.64.044-1.24.424-1.562.976-.323.556-.35 1.274-.07 1.85 5.695 11.856 12.55 25.786 15.7 37.89.434 1.66 1.005 3.33 1.752 4.966.054.113.083.235.136.348l.016-.015c.58 1.65 1.923 2.43 3.315 3.16 1.5.79 3.257 1.44 4.996 2 1.73.56 3.44 1 4.75 1.31.65.16 1.2.28 1.62.36.41.09.54.14.82.18 1.02.15 2.08-.63 2.232-1.644.156-1.015-.63-2.08-1.645-2.236.16.025-.205-.04-.59-.12-.38-.08-.92-.197-1.54-.35-1.24-.297-2.855-.717-4.466-1.23-1.61-.512-3.23-1.13-4.366-1.73-1.14-.6-1.568-1.336-1.485-1.013-.036-.123-.08-.24-.138-.35-.685-1.43-1.198-2.995-1.618-4.617-3.31-12.73-10.293-26.764-15.967-38.59-.33-.714-1.116-1.187-1.903-1.138z" fill="#fff"/><path d="M314.043 226.244c-13.735 4.776-27.475 9.54-41.21 14.326 2.675 6.92 5.326 13.842 7.992 20.767 14.126-4.615 28.258-9.224 42.388-13.844-2.818-7.162-5.577-14.35-8.38-21.518l-.404.137-.39.13z" fill="#e6e6e6"/><path d="M307.725 232.85c-1.534.166-1.95 1.997-1.52 3.252.826 4.03 1.43 8.208 3.508 11.83.897.914 2.538.5 2.826-.76.35-.947-.14-1.866-.68-2.583-1.43-3.48-1.82-7.28-2.6-10.94-.33-.51-.93-.86-1.54-.8zm-8.863 2.3c-2.666.93-5.186 2.402-7.88 3.17-1.563 1.69-1.007 4.374-.167 6.27 1.4 2.245 4.513 1.937 6.626 1.01.9-.25 2.08-1.43 2.88-.36 1 1.59-.45 3.426-1.95 4.046-1.55.805-3.62.542-4.98 1.67-1.13 1.563 1.16 3.486 2.65 2.587 3.58-.415 7.51-2.787 8.05-6.626.37-2.616-1.53-5.317-4.21-5.57-1.53-.332-2.855.55-4.133 1.22-.635.288-2.237.723-2.154-.45-.126-.56-.01-1.156.684-1.258 1.165-.2 2.13-.83 3.11-1.41 1.336-.49 3.47-1.11 3.343-2.9-.143-.85-1.003-1.507-1.86-1.41zm-16.4 6.294c-1.602.2-1.91 2.138-1.412 3.403 1.025 3.985 2.408 7.94 3.666 11.86.958 1.28 2.974.31 3.086-1.137.113-1.4-.863-2.636-1.132-4.01-1.11-3.08-2.007-6.234-2.69-9.403-.328-.49-.93-.77-1.52-.714z"/><path d="M335.957 57.035c-1.528.327-1.2 2.827-1.66 4.2-.43 3.666.224 7.695 3.198 10.185 3.837 3.745 10.625 5.312 14.927 1.45 2.407-1.6 4.732-4.02 7.88-3.48 1.783 1.322 2.203-3.966.592-3.23-9.083.265-15.602-8.055-24.36-9.14-.192.02-.392-.024-.577.015z" fill="#b3b3b3"/><path d="M279.38 101.532c-3.848 12.173-6.636 27.447-9.595 40.635 15.235 1.72 31.875 10.088 46.025 12.432l18.78 5.47 12.43-37.54-1.454-.36c-4.867-2.49-27.34-7.37-36.714-9.37-11.757-2.59-16.38-6.27-29.472-11.27z" fill="#ececec"/><path d="M277.895 106.55c-.966 3.463-1.86 7.106-2.72 10.817.58.205 1.202.318 1.846.318 3.08 0 5.6-2.54 5.6-5.607 0-2.772-2.06-5.102-4.72-5.527zm17.945 6.398c-3.066 0-5.58 2.54-5.58 5.605 0 3.072 2.514 5.61 5.58 5.61 3.07 0 5.595-2.538 5.595-5.61 0-3.066-2.524-5.605-5.595-5.605zm18.886 5.38c-3.066 0-5.58 2.54-5.58 5.607 0 3.07 2.514 5.61 5.58 5.61 3.07 0 5.596-2.54 5.596-5.61 0-3.067-2.525-5.607-5.596-5.607zm-32.172 1.875c-3.07 0-5.58 2.54-5.58 5.607-.002 3.066 2.508 5.61 5.58 5.61 3.066 0 5.59-2.544 5.59-5.61 0-3.067-2.524-5.607-5.59-5.607zm52.114 2.193c-3.067 0-5.58 2.54-5.58 5.61 0 3.067 2.513 5.606 5.58 5.606 3.07 0 5.596-2.54 5.596-5.606 0-3.07-2.525-5.61-5.597-5.61zm-33.218 4.365c-3.066 0-5.58 2.54-5.58 5.61 0 3.07 2.514 5.61 5.58 5.61 3.066 0 5.596-2.54 5.596-5.61 0-3.06-2.53-5.6-5.596-5.6zm-29.096 3.48c-.787 3.71-1.558 7.37-2.344 10.9.54.18 1.117.28 1.714.28 3.066 0 5.595-2.54 5.595-5.6 0-2.857-2.2-5.25-4.97-5.57zm18.188 6.44c-3.067 0-5.58 2.54-5.58 5.61 0 1.39.517 2.67 1.367 3.66 1.85.57 3.71 1.168 5.56 1.778 2.422-.61 4.24-2.826 4.24-5.434 0-3.066-2.53-5.605-5.597-5.605zm18.887 5.37c-3.08 0-5.59 2.54-5.59 5.61 0 1.98 1.05 3.74 2.62 4.74 1.055.304 2.095.59 3.13.856 2.987-.093 5.42-2.584 5.42-5.59 0-3.073-2.525-5.61-5.59-5.61zm19.94 4.08c-3.07 0-5.58 2.54-5.58 5.61 0 3.07 2.51 5.61 5.58 5.61 3.06 0 5.59-2.54 5.59-5.605 0-3.07-2.53-5.61-5.6-5.61z" fill="#d40000"/><path d="M304.473 3.543c-.362.015-.718.074-1.084.192-.74.228-1.52.892-1.83 1.645-.6 1.503-.05 2.412.2 3.198.2.62.29 1.025.35 1.338-1.197-.02-2.76-.035-4.394.36-1.026.25-2.134.66-2.984 1.66-.756.89-1.03 2.217-.845 3.492-.1 1.895-1.104 5.074.36 8.233-.22.75-.83 1.25-1.86 2.21-.6.57-1.336 1.29-1.72 2.44-.388 1.15-.206 2.56.44 3.84.022.04.042.088.066.128 1.087 1.817 2.54 3.97 4.246 6.197-.26.374-.514.75-.724 1.12-1.234 2.193-2.566 3.71-3.41 6.788-.705 2.555-1.686 5.206-2.46 8.04-.75 2.71-1.75 5.42-2.53 8.275-.794 2.86-1.57 5.676-1.89 8.78-.22 2.145-1.55 4.66-2.33 7.496-.675 2.448-1.64 5.134-1.94 8.034-.297 2.86-1.58 5.644-2.49 8.954l-2.22 8.11c-.67 2.43-.94 4.294-1.554 6.546-.58 2.1-.59 3.953-1.006 5.46-.172.65-.5 2.148-1.012 4.507-.513 2.36-1.156 5.38-1.806 8.406-.654 3.023-1.304 6.05-1.82 8.418-.52 2.37-.96 4.255-.99 4.378-.16.56-.037 1.19.305 1.66.347.474.903.78 1.49.806.028.006.057.01.092.01l1.616.445c2.93.805 5.655 1.303 8.41 2.06 3.19.88 6.937 1.455 10.105 2.3-.17.336-.24.72-.2 1.1.5 5.91 2.406 10.17 2.73 13.32.165 1.57.013 2.815-.71 4.2-.72 1.374-2.115 2.936-4.684 4.763-.01-.01-.57.333-1.22.66-.74.37-1.746.854-2.912 1.417-2.34 1.12-5.353 2.55-8.356 3.99-2.997 1.44-5.98 2.88-8.31 4.08-1.16.6-2.16 1.14-2.93 1.59-.39.23-.727.425-1.02.63-.22.157-.42.31-.67.592-.077.085-.15.13-.254.275l.045.03c-1.083 1.293-1.053 2.87-.83 4.28.24 1.514.77 3.077 1.364 4.567.595 1.483 1.264 2.885 1.79 3.945.27.532.503.976.674 1.298.08.163.15.304.2.393 0 0-.006.003 0 .008.004.02.004.03.01.04.014.03.023.06.03.07.4.95 1.634 1.438 2.58 1.03.948-.4 1.43-1.62 1.03-2.57-.106-.274-.116-.26-.175-.372-.055-.107-.12-.24-.2-.4-.167-.317-.39-.742-.64-1.245-.503-1-1.123-2.316-1.66-3.65-.537-1.34-.98-2.718-1.14-3.725-.13-.83.02-1.226-.03-1.23l.03-.03c.006-.004.006-.02.01-.024.01-.01.034-.03.044-.043.01-.01.022-.017.04-.027.15-.107.41-.263.744-.453.664-.39 1.617-.9 2.744-1.49 2.26-1.16 5.235-2.602 8.218-4.033 2.99-1.434 6-2.86 8.358-3.99 1.176-.564 2.192-1.053 2.97-1.444.78-.39 1.17-.552 1.712-.94 2.904-2.063 4.804-4.055 5.92-6.184 1.11-2.122 1.336-4.324 1.12-6.41-.415-4.01-2.144-7.763-2.662-12.684.177.088.357.176.518.27 4.956 2.792 10.386 3.066 14.62 4.813 5.595 2.32 11.6 2.705 16.81 4.136 2.417.67 5.616 1.695 8.165 2.466.13.802.825 1.475 1.63 1.593.806.117 1.66-.328 2.022-1.06.923-.454 1.333-1.724.854-2.636.64-1.987 1.6-4.9 2.72-8.334 1.617-4.938 3.22-9.806 3.63-11.285.67-2.446 2.07-4.85 2.915-7.925l1.66-6.02c1.48 1.706 3.05 3.11 4.74 4.35 5.504 4.044 11.812 6.213 19.742 11.257.568.4 1.36.46 1.98.146-.1.536 0 1.01.11 1.336.16.48.37.822.59 1.164.89 1.358 2.262 2.808 2.57 3.29.44.69.604 1.075.975 1.62.372.544.973 1.08 1.675 1.5.876.524 2.14.2 2.664-.667.52-.876.202-2.145-.67-2.668-.457-.274-.368-.216-.47-.36-.098-.15-.36-.676-.895-1.516-.35-.542-.69-.903-1.112-1.416 1.147.095 2.368.153 3.506.17.492.01.94.01 1.34-.01.397-.02.61.03 1.27-.217.167-.062.382-.126.71-.43.325-.3.745-1.13.604-1.844-.147-.715-.517-1.01-.724-1.18-.207-.17-.355-.234-.48-.3-.51-.236-.85-.31-1.43-.44-.24-.05-.637-.105-.915-.16 1.196-.2 2.15-.31 3.09-.68.24-.094.494-.18.845-.484.35-.3.904-1.17.723-2.047-.18-.88-.688-1.206-.992-1.406-.3-.2-.555-.297-.83-.4-.232-.09-.49-.137-.745-.13-.713.02-1.396.464-1.7 1.11-.404.082-.516.126-1.044.214-1.18.196-2.584.426-3.92.723-1.336.297-2.566.61-3.68 1.323-.21.138-.48.324-.71.66-.076-.063-.153-.122-.24-.176-8.278-5.264-14.66-7.534-19.528-11.108-2.09-1.54-3.984-3.307-5.713-5.73.527-1.684 1.093-3.407 1.577-5.165l2.29-8.34c.797-2.892 1.81-5.69 2.647-8.74.87-3.15 1.45-6.14 2.263-9.1.824-3 1.576-5.804 2.767-8.38.466-.993.807-2.033 1.1-3.074 1.088.155 2.22.31 3.413.477 1.536.22 3.016.42 4.15.578 1.126.16 1.712.238 2.03.27 1.01.12 2.04-.7 2.157-1.712.114-1.007-.707-2.027-1.712-2.14.13.016-.82-.102-1.946-.253-1.123-.157-2.617-.36-4.15-.577-1.044-.15-2.05-.296-3.047-.442.166-.78.346-1.532.532-2.22.66-2.387.873-4.877 1.03-7.157 1.493-.797 2.7-1.998 3.426-3.56.04-.088.097-.167.132-.26 3.974-6.675 6.314-15.957 3.412-23.54-.006-.02-.006-.038-.01-.053h-.014c-2.662-7.465-6.52-12.132-11.378-15.58-4.872-3.457-10.62-5.766-17.387-9.086-.03-.02-.06-.033-.092-.052-13.76-5.9-24.09-7.214-37.282-10.154-.07-.014-.143-.03-.216-.04-.383-.043-.744-.068-1.106-.053zm-6.465 38.107c2.637 3.05 5.645 5.976 8.74 8.04.83.84 1.723 1.602 2.676 2.306-.733 1.8-1.42 3.662-1.793 6.02v.015c-1.3 8.79-2.53 16.65-1.15 27.28l.06.23c.98 4.2 4.27 10.92 7.56 17.39 2.05 4.02 4.04 7.786 5.46 10.48-2.99-.565-5.802-1.15-8.2-1.805-7.33-2.02-14.35-5.133-21.67-7.15-2.43-.67-4.643-2.92-8.555-4.09-.072-.1-.17-.265-.492-.552l-.014-.015.776-2.806c.793-2.89 2.23-5.902 2.61-9.584.234-2.276 1.082-4.776 1.805-7.404.6-2.18 2.116-4.886 2.447-8.12.288-2.7 1-5.29 1.787-8.152.728-2.642 1.715-5.372 2.516-8.287.72-2.62 1.702-5.267 2.465-8.04.64-2.334 1.61-3.335 2.983-5.74zm14.858 12.513c3.735 2.037 7.877 3.424 11.632 4.576.013 0 .033 0 .053.01.04.01.08.03.12.04 2.39.92 4.66.6 6.63.13-.29 1.225-.49 2.577-.343 4.096.356 5.48 2.997 10.34 6.84 12.886 4.205 2.695 9.49 3.656 13.746 1.58.067-.03.136-.066.2-.106 1.43-.895 2.95-1.78 4.457-2.77.123-.08.24-.177.346-.28 1.092-1.103 1.806-1.64 2.606-1.567.18.02.36.015.535-.015h.054c.08.07.175.13.27.178-.153.59-.294 1.185-.43 1.78-.046-.01-.21-.034-.24-.043-.196-.04-.4-.052-.59-.04-.924.09-1.72.935-1.754 1.86-.035.93.692 1.825 1.606 1.986.017 0 .04.01.055.013-.22.754-.448 1.452-.737 2.07-.815 1.77-2.685 7.47-3.223 9.255-14.15.543-5.215 6.04-1.997 8.478-.644 2.09-2.055 6.81-2.675 9.076l-2.29 8.34c-.15.553-.32 1.124-.49 1.685-1.27-2.56-2.427-3.294-3.59-7.146-.23-.808-1.035-1.408-1.875-1.408-.605.004-1.196.317-1.552.805-.35.49-.463 1.148-.28 1.73 1.14 3.773 2.31 4.6 3.63 7.304-3.877-1.433-8.62-2.43-13.544-3.36-1.812-.34-3.633-.66-5.45-.99-1.165-2.36-4.05-7.62-7.025-13.474-3.235-6.355-6.477-13.38-7.175-16.277-1.27-9.918-.144-17.08 1.155-25.836 0-.005-.006-.015 0-.025.26-1.67.74-3.057 1.336-4.55zm23.502 3.707c.678-.02 1.322.068 1.952.297.064.02.128.04.19.054 2.77.7 5.953 2.51 9.25 4.34 3.29 1.83 6.708 3.71 10.385 4.31.005.008.01 0 .014 0 .96.17 1.92.218 2.84.15-.046.527-.09 1.055-.15 1.568-.25-.034-.5-.072-.747-.092-.196-.013-.383-.02-.608-.013-.11.005-.23 0-.416.03-.09.015-.217.025-.384.078-2.216.134-3.866 1.42-4.99 2.53-1.307.85-2.7 1.68-4.11 2.56-2.39 1.133-6.372.644-9.517-1.367-3.164-2.025-5.327-5.214-4.873-9.237.015-.147.015-.3 0-.444-.127-1.33.333-2.86.79-4.72.123-.01.245-.026.363-.03zm8.34 7.817c-.09.005-.177.015-.27.03-.742.11-1.4.698-1.7 1.23-.32.566-.784 1.245-.912 2.34-.06.55.02 1.298.46 1.913.434.62 1.093.976 1.738 1.152.776.215 1.532.298 2.314.03.786-.27 1.42-.996 1.646-1.646.45-1.304.092-2.256-.186-3.013-.117-.312-.323-.59-.59-.79-.03-.025-.43-.48-1.14-.885-.307-.176-.755-.386-1.36-.36zM279.483 103.9c.087.035.185.053.283.078 2.988.825 5.078 3.17 8.887 4.22 1.508.414 3.012.898 4.536 1.405 29.32 11.66 41.47 7.788 52.1 14.078-.73 2.52-1.42 5.15-2.13 7.71-.675 2.45-2.09 4.85-2.935 7.93-.274.99-1.96 6.18-3.575 11.11-.985 3.02-1.903 5.81-2.57 7.87-2.444-.75-5.603-1.75-8.093-2.432-9.408-2.774-22.725-4.362-30.547-8.58-4.69-2.64-11.035-3.09-15.27-4.258-2.953-.81-5.68-1.313-8.406-2.06l-.334-.09.576-2.64c.517-2.37 1.167-5.404 1.82-8.43.65-3.03 1.304-6.042 1.817-8.395.515-2.354.943-4.243.968-4.322.59-2.142.596-3.992.996-5.447.683-2.49.952-4.38 1.552-6.56l.318-1.177z" fill="#fff"/><path d="M308.794 37.19c-.84.016-1.65.572-1.958 1.354-.312.786-.102 1.743.503 2.328 4.63 4.557 13.39 9.757 20.23 10.387 1.112.1 2.23-.82 2.33-1.94.106-1.12-.818-2.23-1.935-2.338-4.736-.44-13.91-5.507-17.636-9.17-.407-.4-.973-.635-1.544-.63zm-4.444-15.404c-1.015.05-1.928.913-2.03 1.924-.104 1.01.62 2.046 1.606 2.295 7.608 1.94 17.734 4.175 26.523 7.157 8.79 2.984 16.05 6.954 18.12 10.978.46 1.074 1.9 1.586 2.94 1.054 1.04-.537 1.46-2.007.852-3.008-3.223-6.27-11.42-9.98-20.54-13.076-9.123-3.1-19.367-5.35-26.853-7.255-.205-.054-.415-.08-.63-.07zm7.39-8.002c-1.033.023-1.98.897-2.08 1.923-.11 1.03.642 2.075 1.654 2.304 7.607 1.94 17.733 4.17 26.527 7.15 8.79 2.99 16.04 6.97 18.11 10.99.52 1 1.9 1.44 2.89.93 1-.52 1.44-1.89.93-2.89-3.223-6.27-11.42-9.98-20.54-13.08-9.123-3.095-19.366-5.345-26.85-7.25-.21-.054-.416-.08-.63-.07zM305.57 7.6c13.004 2.867 22.834 4.186 35.87 9.757.035.015.06.024.094.04 6.855 3.36 12.436 5.663 16.757 8.725 4.34 3.082 7.53 6.865 9.97 13.75.01.014.02.034.03.05 2.28 5.912.33 14.55-3.22 20.4-.05.082-.1.175-.13.268-.765 1.83-2.943 2.944-6.13 2.392h-.016c-2.72-.44-5.86-2.056-9.112-3.867-3.2-1.778-6.502-3.72-10.012-4.644-.005 0-.015.01-.025 0-.05-.01-.1-.03-.15-.05v.02c-2.956-1.005-5.68-.224-7.9.36-2.254.598-3.944.98-5.59.31-.06-.02-.116-.04-.175-.054-5.97-1.835-12.563-4.29-16.38-8.217-.103-.104-.215-.19-.34-.27-5.452-3.574-11.64-11.47-14.49-16.235-.29-.59-.244-.69-.214-.776.03-.094.216-.38.685-.816.93-.874 2.968-2.37 3.21-5.13.035-.414-.063-.844-.283-1.205-1.004-1.645-.3-3.95-.174-6.89.01-.185-.01-.37-.052-.55-.14-.557-.065-.45-.04-.48.03-.034.326-.25.91-.39 1.174-.284 3.097-.23 4.455-.24.26-.005.516-.06.75-.16.728-.31 1.397-.836 1.793-1.515.4-.68.51-1.407.498-2.007-.026-1.092-.35-1.902-.574-2.57z" fill="#2c2c2c"/><path d="M322.925 126.507c-.343.02-.674.123-.968.3-3.924 2.303-7.494 4.73-11.376 5.98-.13.04-.27.093-.4.16-.6.284-1.06.86-1.19 1.515-.13.654.07 1.36.51 1.855 3.47 3.95 6.57 7.314 9.48 11.445.56.8 1.7 1.133 2.6.753 3.57-1.52 9.177-4.464 12.7-5.518.99-.294 1.67-1.387 1.5-2.407-.257-1.573-1.014-2.34-1.912-3.482-.9-1.142-2.02-2.387-3.2-3.637-2.35-2.5-4.963-5.07-6.02-6.25-.43-.47-1.077-.74-1.712-.71z"/><path d="M322.402 129.52c-3.393 2.115-6.806 4.102-10.532 5.606 3.12 3.52 6.2 7.095 8.965 10.9 4.067-1.896 8.09-3.884 12.315-5.398-2.774-4.345-6.744-7.666-10.16-11.445l-.373.215-.215.122z" fill="#fff"/></svg>