<svg xmlns="http://www.w3.org/2000/svg" viewBox="0 0 1038 339"><path d="M206.275 99.676c-.635.035-1.24.4-1.567.952-.323.548-.358 1.26-.08 1.832 5.172 11.142 10.323 16.41 16.343 19.638 2.88 1.543 5.89 2.632 9.17 3.774 6 .83 13.29 2.238 18.62 3.985.66.21 1.81.37 3.04 1.02.32.166.67.376.99.67.16-.02.33-.035.48-.054.49-.063.94-.127 1.33-.2.4-.078.62-.055 1.23-.39.16-.084.37-.187.65-.533.28-.346.58-1.23.34-1.914-.24-.69-.65-.922-.88-1.06-.23-.136-.37-.185-.51-.23-.53-.165-.88-.18-1.48-.224-.235-.02-.63-.03-.908-.038 1.143-.367 2.06-.617 2.94-1.114.22-.128.47-.254.776-.6.306-.348.73-1.27.43-2.115-.31-.845-.856-1.104-1.184-1.26-.32-.156-.59-.22-.88-.283-.185-.043-.38-.063-.57-.053-.78.05-1.49.62-1.715 1.36v.01c-.39.13-.5.18-1.01.34-1.138.36-2.496.78-3.775 1.27-1.28.49-2.46.95-3.47 1.82-.19.16-.435.39-.616.77-.077-.06-.165-.11-.253-.16-8.93-4.04-15.56-5.39-20.89-8.24-5.32-2.857-9.686-7.15-14.65-17.847-.32-.714-1.1-1.193-1.876-1.154zm46.347 38.267c-.048.063-.097.122-.147.185.147-.043.3-.087.455-.146-.074-.01-.294-.034-.307-.04zM174.767 154.1c-.64.04-1.246.42-1.562.977-.323.556-.353 1.27-.07 1.845 5.695 11.856 12.55 25.786 15.7 37.89.434 1.66 1.005 3.33 1.752 4.966.054.113.083.235.136.348l.01-.015c.587 1.65 1.924 2.43 3.32 3.16 1.5.79 3.258 1.45 4.995 2 1.74.55 3.443 1 4.752 1.31.654.16 1.205.28 1.615.36.415.1.547.13.83.18 1.02.16 2.085-.63 2.236-1.64.16-1.01-.63-2.08-1.64-2.23.16.03-.2-.04-.59-.12-.38-.08-.92-.19-1.54-.35-1.24-.29-2.86-.71-4.46-1.23-1.61-.51-3.23-1.12-4.36-1.73-1.14-.6-1.57-1.33-1.48-1.01-.03-.113-.08-.23-.13-.343-.686-1.43-1.2-3-1.62-4.62-3.31-12.73-10.29-26.763-15.964-38.585-.33-.71-1.12-1.184-1.905-1.135z" fill="#fff"/><path d="M170.835 222.572c-13.735 4.775-27.475 9.54-41.21 14.326 2.68 6.914 5.33 13.843 7.993 20.767 14.126-4.614 28.256-9.23 42.387-13.843-2.817-7.17-5.576-14.35-8.374-21.524l-.41.142-.38.132z" fill="#e6e6e6"/><path d="M227.056 125.32c-.914-.01-1.74.562-2.046 1.422-.337.923-.8 2.15-1.075 3.52-.267 1.373-.4 3.013.47 4.575.288.518.776.89 1.35 1.032 1.028.26 2.145.49 3.308.7-.137.75-.293 1.61-.347 2.57-.063 1.18-.04 2.52.723 3.83.32.56.88.94 1.52 1.03 4.15.66 9.81.28 13.53.29.12 0 .26-.008.38-.03.86-.148 1.12.2 2.68.11.57-.038 1.39-.396 1.98-.91.38.05.71-.008.91-.03.4-.046.69-.12 1.16-.17-.08.002.5.002.94 0-.14 1.29-.38 2.95-.34 4.84.08 3.125.2 6.303.54 9.5.01.085.03.163.05.246.51 2.395 1.25 4.402 1.95 6.433-.18.13-.35.3-.48.482-.38.52-.497 1.183-.326 1.803 1.4 5.43 3.245 10.713 5.13 15.93-32.735 5.236-56.69 9.045-98.204 13.33-.42.04-.8.21-1.11.45l-11.527-29.65c1.94-.336 3.855-.824 5.68-1.5 3.014-1.112 6.43-1.74 9.78-2.982 2.91-1.07 5.82-2.355 8.51-3.16 1.174-.343 3-.84 4.684-1.68.842-.42 1.662-.91 2.38-1.646.718-.73 1.358-1.856 1.338-3.136-.007-.53.09-1.29-.027-2.273-.117-.973-.586-2.23-1.58-3.142-1.01-.93-2.166-1.48-3.24-1.77-1.073-.29-2.046-.377-3.09-.547-3.536-.58-7.193-.354-10.493-.31-3.653.05-7.35-.32-11.27-.27-5.762.07-11.39.34-17.06.41-1.406.02-4.233-.13-6.972.054-1.373.09-2.73.272-4.005.653-1.275.38-2.573.954-3.452 2.233-.03.04-.055.08-.085.12-1.61 2.75-3.5 5.006-4.08 7.926-.29 1.46-.09 3.15.78 4.6.87 1.456 2.256 2.67 4.19 3.9 2.48 1.71 5.356 2.5 8.42 2.89 4.17.536 8.39.32 12.447.27.916-.01 1.835-.06 2.753-.125l3.79 9.77c-5.26 8.58-10.606 18.15-15.93 27.975-12.57-6.98-26.2-9.94-39.5-9.237-16.044.844-31.6 7.03-44.203 17.866-.195-.07-.394-.11-.615-.115-3.144-.12-5.6-.15-7.56-.05-1.96.09-3.44.31-4.65.71-.113.04-.21.14-.33.18-.395-.19-.84-.254-1.273-.186-.82.13-1.786.29-2.796.816-1.014.53-1.93 1.45-2.61 2.67-1.76 3.176-2.613 7.22-1.524 10.617.54 1.704 1.494 3.85 3.53 5.273.347.25.756.46 1.19.62-1.49 2.916-3.16 6.58-4.657 10.586-2.48 6.62-4.5 13.99-4.1 20.187.01.11.03.222.05.335.425 1.86 2.197 3.024 3.697 3.313 1.5.3 2.99.14 4.43-.1 1.19-.2 2.298-.466 3.25-.71-.005.33-.01.65-.01.98-.34 36.08 27.81 65.72 62.907 66.05 26.07.24 48.64-15.766 58.66-38.81l35.648 5.155c.065.013.13.023.2.03 7.798.26 13.92-3.1 17.76-8.07.517.41 1.045.82 1.528 1.21-.05.17-.07.354-.07.535-.005.18-.064 1.42-.054 2.594.01.588.03 1.175.09 1.74.035.28.084.57.18.9.09.326.1.756.85 1.36 1.967 1.59 3.207 3.07 5.448 3.566 1.12.24 2.524-.113 3.453-.874.93-.755 1.566-1.74 2.24-3.02.584-1.123.975-1.96 1.19-2.876.21-.925.09-2.175-.483-2.99-1.14-1.626-2.165-1.66-3.4-2.66-1.12-.905-1.92-1.92-3.654-2.36-.87-.215-2.08-.034-2.89.537-.09.06-.136.14-.215.2-.62-.5-1.26-1.02-1.91-1.54 2.2-4.35 3.06-9.39 2.554-14.32-.01-.06-.01-.113-.01-.17-.01-.02-.02-.045-.02-.06-.22-2.35-.79-4.62-1.66-6.72-.107-.27-.23-.537-.346-.79-.04-.09-.07-.17-.11-.26-.015-.03-.03-.054-.04-.084-.874-1.91-1.97-3.67-3.266-5.26l55.196-65.676c.64 2.01 1.22 4.01 1.736 6.025.25.957 1.13 1.62 2.116 1.607l1.434-.016c.687-.01 1.297-.16 1.835-.36.19.56.37 1.12.56 1.69-22.233 14.22-35.7 40.36-34.19 68.9v.01c.4 6.55 2.88 24.293 10.923 33.75.07.084.15.15.24.225 1.13.97 2.65 1.44 3.94 1.18 1.283-.26 2.16-1 2.83-1.688.506-.513.89-1.01 1.218-1.46 11.388 16.567 30.056 27.465 51.267 27.665 35.093.33 63.862-28.764 64.204-64.847.26-27.315-15.86-50.923-38.92-60.94.552-.763 1.182-1.64 1.807-2.64 1.055-1.672 2.164-3.3 2.154-5.496 0-.942-.616-1.762-1.515-2.036-3.024-.933-5.944-1.543-8.834-2.02.04-.065.077-.124.11-.19.96-1.72 1.45-3.85 1.42-6.17-.03-2.32-.56-4.45-1.564-6.143-.805-1.363-2.045-2.58-3.61-2.984-.267-.22-.58-.384-.94-.46-.646-.13-1.28-.17-1.9-.144-1.866.08-3.63.778-5.357 1.476-2.29.93-4.534 2.016-6.26 2.475-1.604.427-3.523 1.203-5.314 2.29-1.79 1.086-3.54 2.404-4.357 4.508-.47 1.22-.673 2.42-.317 3.56.09.316.22.59.36.83-8.554 1.34-16.49 4.13-23.62 8.1-.2-.582-.39-1.18-.58-1.763.313-.25.557-.56.694-.92.118-.01.245-.04.36-.068 1.15-.294 1.82-1.465 1.53-2.608-2.14-8.263-5.324-16.217-8.1-24.147 1.437-5.105 5.67-10.14 7.04-16.72 1.146-5.48-.28-10.157-3.57-12.716-2.06-1.594-4.67-2.29-7.48-2.06-.58.05-1.17.14-1.77.27l.03-.1c.16-.662.35-1.59.265-2.69-.08-1.092-.584-2.67-2.073-3.45-.22-.11-.42-.224-.63-.332-1.25-.654-2.71-.967-4.31-1.314-.976-.21-1.82-.37-2.61-.48-.05-.41-.17-.816-.357-1.177-.45-.885-1.18-1.39-1.793-1.715-1.23-.644-2.39-.805-3.04-1.015-6.253-2.054-15.23-3.64-21.614-4.374-.07-.02-.14-.03-.216-.03zm1.46 4.552c6.01.782 13.808 2.202 19.048 3.92h.024c.918.294 1.646.494 2.06.66-.097.23-.16.395-.2.47-.508-.143-1.802-.485-3.735-.513v-.01c-5.273-.68-12.662-1.34-17.652-2.43 0-.26 0-.53.07-.89.08-.38.26-.81.39-1.22zm24.238 7.94c.092.014 1.646.194 3.027.493 1.45.312 3.1.85 3.24.922.14.074.27.147.4.215 0 .024-.02 0-.01.093.03.35-.05.967-.14 1.367-.21.9-.44 1.802-.65 2.705-.68 2.837-.5 5.4-.59 7.788-.16 4.24 1.07 7.59 2.27 10.977-.14.044-.28.098-.41.147-.38.12-.77.22-1.1.29-.685-1.99-1.325-3.79-1.755-5.73-.306-2.99-.43-6.02-.506-9.07-.04-1.63.71-4.04.44-6.6-.09-.87-.68-1.5-1.08-1.77s-.71-.37-.99-.45c-.566-.15-1.048-.19-1.527-.21-.795-.048-1.34-.01-1.81.02-.01.014-.02.014-.03 0h.03c.01-.026.02-.108.04-.216.303-.155.595-.33.83-.575.13-.137.234-.283.347-.426zm-19.634.8c4.004.06 8.985.425 12.37 1.26h.023c.312.073.307.068.537.117-.445-.02-.947-.02-1.53.05v-.01c-3.475-.02-8.147.18-11.454-.11-.023-.23-.068-.25-.053-.55.015-.23.073-.51.107-.76zm32.9 7.334c1.626-.034 2.984.445 4 1.23 1.806 1.406 2.92 4.078 2.006 8.448-.756 3.628-3.076 7.168-4.975 11.19-.5-1.63-.95-3.265-1.38-4.902-.19-.776-.79-1.366-1.54-1.562-1.07-3.09-1.93-5.683-1.82-8.78.07-1.78.04-3.363.15-4.833 1.29-.507 2.49-.766 3.57-.79zm-115.04 2.583c3.605-.05 7.306.32 11.27.26 3.434-.05 6.895-.23 9.756.24 1.183.19 2.057.31 2.662.47.61.16.962.32 1.46.77.19.17.16.16.2.51.045.33.005.94.015 1.75-.01 0-.03.04-.122.13-.19.2-.64.52-1.23.81-1.17.58-2.8 1.08-4 1.43-3.05.91-6.01 2.21-8.75 3.223-2.88 1.062-6.32 1.717-9.8 2.996-3.4 1.26-7.39 1.825-11.38 1.88-4.15.053-8.19.23-11.84-.24-2.65-.34-4.92-1.045-6.61-2.21l-.08-.056c-1.59-1.01-2.42-1.87-2.78-2.474-.35-.6-.39-.935-.262-1.575.253-1.26 1.776-3.506 3.51-6.44 0 0 .01.01.01 0 .02-.02.366-.33 1.137-.56.78-.236 1.88-.387 3.064-.47 2.372-.16 4.994-.03 6.732-.05 5.777-.076 11.4-.34 17.065-.418zm111.29 17.68c.054.02.108.06.16.08.724 2.47 1.52 4.93 2.355 7.36.034.3.138.61.297.87 2.672 7.69 5.666 15.16 7.72 22.69-.14.04-.277.09-.414.16-.943.49-1.528 1.04-2.114 1.43-.508.33-.83.44-1.055.48-3.04-10.95-7.71-21.42-10.65-32.02 1.01-.056 1.73-.397 2.63-.7.36-.12.71-.25 1.06-.378zM149.6 181.99l15.298 39.337-9.757 3.398c-3.58-4.1-7.43-7.51-11.18-11.386-.06-.06-.12-.12-.19-.17-2.71-2.24-5.48-4.25-8.33-6.05 4.75-8.79 9.49-17.34 14.17-25.14zm172.216 2.262c.138 0 .562.147 1.084 1.03.528.89.943 2.354.968 4.004.018 1.65-.372 3.13-.874 4.03-.504.896-.924 1.04-1.055 1.044-.14 0-.57-.133-1.09-1.016-.53-.89-.96-2.354-.98-4.004-.03-1.65.38-3.13.88-4.03.5-.9.92-1.054 1.05-1.058zm-5.58.767c-.44 1.32-.65 2.8-.63 4.37.024 1.72.317 3.32.883 4.73l-1.67-.27c-.09-.01-.16-.01-.25-.01-1.45-.07-2.86-.11-4.28-.11-2.24 0-4.45.11-6.61.3-.1-.36-.28-.7-.56-.98-.33-.325-.46-.48-.5-.525v-.016c0-.07.04-.274.23-.76s1.18-1.545 2.56-2.38c1.37-.834 3.07-1.523 4.2-1.82 2.32-.61 4.56-1.71 6.62-2.554zm-55.68 1.6c.563 1.55 1.124 3.1 1.66 4.65L205.6 258.64c-3.422-2.855-7.705-4.67-12.53-5.028-.12-.015-.248-.03-.37-.038-.04-.005-.072 0-.107 0-.513-.045-1.02-.064-1.538-.07-.92-.01-1.826.035-2.72.132l-6.265.04-2.5-6.42 2.73-.9c.976-.282 1.64-1.51 1.406-2.597l-9.238-23.74c-.342-.8-1.162-1.31-1.953-1.23-.25-.01-.504.05-.737.14l-2.823.97-7.695-19.81c.02-.006.044 0 .07 0 41.95-4.327 66.063-8.185 99.226-13.497zm49.66 11.4c1.336-.01 2.684.02 4.05.09 6.344 1.02 12.028 1.55 17.804 3.05-.244.53-.502 1.12-.87 1.7-.795 1.26-1.67 2.43-2.304 3.29-6.26-2.21-12.97-3.44-19.94-3.51-11.182-.11-21.705 2.79-30.88 7.94-.48-1.28-.947-2.56-1.406-3.83 9.726-5.52 21.084-8.69 33.545-8.74zm-214.928 1.75c.376 0 .747-.01 1.123 0 11.25.08 22.64 2.97 33.28 8.91-.56 1.04-1.12 2.07-1.67 3.11-8.87-5-19.02-7.89-29.83-7.99-33.3-.31-60.86 25.89-63.88 59.4-.24.06-.46.1-.72.17-1.04.27-2.29.6-3.48.8-1.19.2-2.33.22-2.9.107-.16-.03-.23-.023-.272-.03-.24-4.97 1.5-11.883 3.826-18.093 2.36-6.328 5.307-12.035 6.826-14.36 13.384-20.13 34.57-31.455 56.6-32.026.37-.01.75-.014 1.125-.014zm213.628 7c32.774.31 59.17 28 58.848 61.9-.318 33.9-27.227 61.05-60 60.73-32.774-.31-59.102-27.95-58.784-61.85.2-21.3 10.87-39.95 26.89-50.8.502 1.28 1.01 2.553 1.522 3.83-14.682 10.2-24.398 27.43-24.585 46.99-.297 31.54 24.312 57.45 54.995 57.74 30.684.29 55.84-25.157 56.133-56.696.3-31.536-24.365-57.49-55.05-57.776-10.1-.098-19.603 2.607-27.81 7.397-.51-1.26-1-2.52-1.5-3.78 8.27-4.75 17.74-7.518 27.813-7.69.512-.004 1.016-.02 1.528-.01zM98.14 207.94c10.12.097 19.644 2.8 27.944 7.495-.635 1.19-1.28 2.38-1.914 3.57-7.754-4.37-16.62-6.9-26.07-6.99-30.683-.287-55.785 25.2-56.084 56.74-.292 31.534 24.326 57.452 55.01 57.74 21.972.204 41.08-12.788 50.274-31.763l4.042.575c-9.59 21.034-30.395 35.48-54.355 35.253-32.773-.31-59.116-27.944-58.798-61.85.01-1.007.03-2 .09-3 .04-.13.07-.267.09-.414.02-.21.02-.41-.02-.614 2.28-31.472 27.46-56.22 58.23-56.73.51-.01 1.02-.02 1.54-.015zm174.81 1.11c.46 1.26.928 2.54 1.405 3.8-17.573 11.515-29.32 31.676-29.536 54.675-.13 12.62 3.25 24.45 9.19 34.52-.04.04-.08.073-.11.113-.22.267-.4.517-.59.776-.38.523-.77 1.06-1.13 1.42-.36.36-.63.47-.63.47l-.18-.107c-6.41-7.706-9.44-25.358-9.8-31.095-1.42-26.747 10.86-51.09 31.36-64.574zm-139.57 1.85c2.606 1.665 5.17 3.515 7.655 5.567l.015.01c3.384 3.48 6.64 6.5 9.634 9.784l-4.04 1.41c-4.25-5.3-9.305-9.91-14.964-13.62.56-1.05 1.137-2.1 1.7-3.14zm175.468 4.15c28.365.264 51.216 24.19 50.942 53.55-.28 29.355-23.58 52.852-51.95 52.588-28.362-.265-51.16-24.192-50.882-53.552.166-17.886 8.867-33.6 22.056-43.08 3.51 8.475 7.21 16.86 10.615 25.066 1.9 4.59 5.14 8.463 8.52 11.754.48.47.98.956 1.47 1.43.24.235.48.46.72.684-.77 1.343-1.22 2.89-1.23 4.537-.05 5.08 4.05 9.36 9.15 9.41 5.11.05 9.3-4.15 9.34-9.24.05-5.09-4.06-9.35-9.17-9.4-1.91-.014-3.7.554-5.18 1.545-.23-.206-.45-.397-.66-.607-.49-.473-.98-.955-1.46-1.43-3.15-3.07-6.01-6.56-7.58-10.33-3.53-8.52-7.33-17.15-10.91-25.82 7.342-4.38 15.82-6.945 24.86-7.096.44-.01.88-.02 1.32-.01zm-212.114 1.18c.438-.005.884-.005 1.322 0 8.755.082 16.993 2.397 24.176 6.45-5.913 11.132-11.676 22.02-17.12 31.586l-9.062.07c-.06-.006-.103-.006-.16 0-2 .2-3.892.755-5.62 1.605-.03.02-.065.03-.094.04-.03.02-.053.04-.084.06-5.102 2.44-8.763 7.49-9.286 13.37v.03c-.015.14-.03.29-.04.43-.072.98-.06 1.98.054 2.98.49 4.45 2.28 8.08 5.5 10.59.843.658 1.77 1.24 2.786 1.747.005 0 .005.01.01.01 1.724.974 3.643 1.643 5.674 1.926 1.51.334 3.115.57 4.86.75v.013l43.367 6.25c-8.725 16.96-26.093 28.426-45.952 28.24-28.364-.27-51.16-24.194-50.884-53.55.27-28.9 22.8-52.11 50.56-52.572zm-53.11 1.415c-1.69 1.705-3.307 3.51-4.86 5.396-.76-2.22-1.938-3.99-2.275-4.84-.01-.01 0 0 0-.01l.04-.01c.71-.23 2.3-.44 4.91-.5.65-.01 1.4-.01 2.18-.01zm86.127.054c4.76 3.17 9.05 7.02 12.73 11.42l-4.02 1.4c-3.14-3.52-6.71-6.63-10.61-9.25.64-1.19 1.28-2.38 1.92-3.58zm-97.43 1.39c.07.22.11.48.19.67.68 1.71 1.72 3.16 2.22 4.65.51 1.47.63 2.71-.36 4.43-.69.97-1.18 1.23-1.31 1.27-.13.03-.11.06-.4-.15-.58-.41-1.58-2.04-1.91-3.08-.47-1.48.02-5.1 1.2-7.22.16-.29.27-.45.39-.59zm139.33 3.21c2.81 7.17 5.57 14.34 8.38 21.51-14.13 4.62-28.26 9.24-42.39 13.85-2.66-6.93-5.31-13.86-7.99-20.77 13.74-4.79 27.48-9.55 41.21-14.33l.39-.13.4-.14zm-45.76 2.67c3 2.04 5.77 4.4 8.29 7.03l-6.82 2.37c-.96.29-1.61 1.5-1.38 2.58l6.59 17.1-22.48.16c5.087-9.03 10.41-19.05 15.82-29.25zm49.62 23.6l2 5.14-18.13.13 16.14-5.27zm3.05 8.48c-6.55 4.13-10.97 11.45-11.05 19.71 0 .22.01.44.02.67l-6.84-.38c.28-2.36.44-4.757.46-7.19.044-4.336-.34-8.58-1.085-12.69l18.51-.13zm-22.72.16c.79 4.07 1.18 8.29 1.14 12.62-.02 2.37-.16 4.7-.44 7.01l-3.84-.21c.29-2.25.44-4.53.46-6.858.04-4.3-.39-8.496-1.23-12.54l3.92-.04zm-21.99.17l.97 2.52c.41 1.06 1.69 1.59 2.64 1.1l10.32-3.38c.85 3.9 1.27 7.96 1.23 12.14-.02 2.26-.16 4.46-.45 6.65l-35.69-1.9c.26-1.14.4-2.33.41-3.54.05-4.947-2.14-9.445-5.62-12.5l.52-.91 25.686-.19zm57.18.26c4.48.04 8.57 1.65 11.81 4.29l-4.09 4.87c-2.054-1.61-4.61-2.61-7.386-2.72-.012 0-.022-.02-.04-.02-.115-.02-.226-.04-.343-.04-.224-.003-.44.006-.66.016-1.356.053-2.66.317-3.88.775l-2.316-5.95c1.865-.71 3.856-1.14 5.93-1.23.328-.01.666-.01.99-.01zm-94.51.97c.205-.01.406-.01.616 0 1.723.01 3.36.4 4.844 1.08-.504.85-.99 1.69-1.485 2.513-1.05-.434-2.19-.67-3.39-.683-5.1-.05-9.29 4.14-9.34 9.227-.05 5.085 4.06 9.36 9.17 9.41 2.124.02 4.086-.703 5.66-1.913l3.865.2c-2.25 2.84-5.707 4.67-9.56 4.63-6.66-.06-12.056-5.673-11.99-12.363.06-6.482 5.22-11.83 11.604-12.1zm83.77 2.24l2.397 6.16c-2.835 2.364-4.67 5.91-4.71 9.853-.005.375.015.75.04 1.12l-6.32-.335c-.01-.28-.014-.57-.01-.854.06-6.61 3.477-12.49 8.605-15.94zm-74.78 1.287c2.26 2.25 3.64 5.372 3.61 8.79-.01 1.16-.19 2.286-.5 3.346l-2.96-.157c.375-1 .59-2.083.6-3.2.024-2.35-.855-4.524-2.3-6.194.513-.846 1.03-1.705 1.553-2.584zm202.92.79c2.8.022 5.08 2.376 5.06 5.204-.025 2.83-2.35 5.14-5.153 5.11-2.797-.02-5.067-2.38-5.044-5.2.004-.624.12-1.224.337-1.777 1.027.85 2.02 1.67 2.917 2.54.42.41.56.893 1.477 1.782.534.58 1.36.81 2.12.61.77-.2 1.35-.81 1.53-1.58.18-.77-.07-1.58-.67-2.103-.295-.29-.495-.855-1.46-1.79-.93-.917-1.88-1.727-2.82-2.508.537-.19 1.114-.3 1.715-.29zM205.84 265c2.638 3.355 4.206 7.602 4.16 12.167-.03 3.316-.905 6.446-2.42 9.18-1.713-1.28-3.46-2.54-5.13-3.76-.002-.005-.002-.01-.01-.014.8-1.665 1.25-3.51 1.27-5.46.027-2.61-.74-5.055-2.072-7.11l4.206-5.006zm-108.79.683c.408.004.8.063 1.18.16-.557.89-1.1 1.77-1.646 2.62-.64.996-.35 2.33.643 2.974.994.64 2.317.35 2.957-.646.465-.72.93-1.46 1.397-2.21.33.7.53 1.48.52 2.3-.02 2.83-2.34 5.15-5.13 5.12-2.8-.02-5.07-2.38-5.05-5.2.03-2.83 2.34-5.14 5.14-5.112zm93.426 2.504c.145-.01.29-.007.44 0 4.8.042 8.68 4.06 8.63 8.885-.01 1.034-.21 2.015-.546 2.943-.79-.6-1.54-1.184-2.198-1.716-1.54-1.26-2.678-2.4-2.946-2.79-.435-.68-1.217-1.05-2.017-.97-.75.08-1.4.55-1.72 1.24-.31.685-.25 1.492.18 2.11.86 1.278 2.13 2.366 3.79 3.714.76.62 1.61 1.272 2.5 1.95-1.56 1.406-3.61 2.255-5.846 2.236-4.797-.05-8.698-4.082-8.65-8.902.045-4.673 3.77-8.536 8.365-8.726zm-79.237 10.52l36.56 1.965c-.76 3.575-1.86 7.008-3.28 10.265l-39.75-5.74c2.71-1.5 4.96-3.76 6.46-6.49zm40.74 2.18l3.88.2c-.73 3.82-1.8 7.505-3.17 11.03l-3.95-.56c1.4-3.4 2.49-6.97 3.24-10.666zm8.08.43l7.94.424c1.15 5.56 4.27 10.44 8.59 13.83l-19.67-2.84c1.36-3.65 2.42-7.48 3.14-11.41zm12.26.654l6.81.36c2.01 4.43 6.43 7.58 11.58 7.63 3.61.04 6.89-1.46 9.26-3.88 1.69 1.24 3.43 2.51 5.12 3.78-3.558 4.03-8.738 6.57-14.455 6.51-8.775-.08-16.148-6.23-18.325-14.39zm43.54 12.64c.18.15.66.45 1.64 1.25 1.24 1.01 1.98 1.52 2.29 1.66-.1.3-.278.726-.71 1.556-.52.98-.92 1.457-1.09 1.608-.143-.062-1.48-1.013-3.04-2.234-.024-.293-.05-.664-.05-1.094-.01-.67.022-1.13.04-1.638.31-.2.56-.487.723-.815.12-.23.107-.164.19-.28z" fill="#e6e6e6" fill-rule="evenodd"/><path d="M167.676 227.913c-2.656.845-5.088 2.423-7.793 3.062-1.753 1.416-1.002 4.02-.567 5.865.948 2.33 3.932 2.626 6.022 1.845 1.122-.13 1.967-1.338 3.115-1.143 1.288.563 1.283 2.398.292 3.238-1.537 2.017-4.38 1.67-6.41 2.71-1.29 1.255.346 3.374 1.928 2.984 1.91-.45 3.92-.825 5.517-2.08 2.38-1.534 3.91-4.66 2.69-7.413-1.035-2.79-4.945-3.83-7.24-1.98-.79.33-2.026 1.04-2.784.36-.112-.6-.346-1.58.538-1.72 1.61-.33 2.866-1.44 4.44-1.89 1.16-.41 2.664-1.68 1.81-3.01-.318-.53-.933-.87-1.558-.82zm-16.147 6.583c-2.28-.186-4.1 1.694-4.57 3.784-.4 1.72-.55 3.56-.26 5.302.72 3.21 4.46 5.89 7.66 4.337 3.64-2.55 4.55-8.52 1.48-11.85-1.13-1.19-2.71-1.69-4.33-1.58zm-12.28 3.266c-1.59.195-1.92 2.144-1.41 3.41 1 3.97 2.43 7.88 3.62 11.81.83 1.202 2.74.567 3.04-.766.42-1.377-.69-2.594-.9-3.926-1.16-3.213-2.14-6.48-2.83-9.8-.33-.488-.94-.782-1.53-.728zm12.68.167c1.91.01 2.55 2.3 2.25 3.86-.22 1.04-.51 2.41-1.54 2.93-1.59.35-2.84-1.3-2.57-2.82-.02-1.32-.21-3.24 1.19-3.94.22-.02.44-.03.65-.04z" fill="#808080"/><path d="M192.636 53.495c-1.527.327-1.2 2.827-1.66 4.2-.43 3.67.225 7.7 3.2 10.185 3.836 3.745 10.624 5.312 14.925 1.45 2.41-1.596 4.74-4.014 7.89-3.48 1.79 1.326 2.21-3.96.59-3.23-9.08.27-15.6-8.05-24.36-9.14-.19.02-.39-.024-.57.015z" fill="#b3b3b3"/><path d="M135.732 99.555c-.913 3.29-.752 6.367-1.767 10.102-.4 1.455-.4 3.305-.99 5.45-.02.078-.45 1.967-.964 4.32-.51 2.354-1.17 5.367-1.82 8.394-.65 3.03-1.3 6.06-1.82 8.44-.23 1.07-.41 1.91-.57 2.64l.34.1c2.72.75 5.45 1.25 8.41 2.06.79.22 1.65.42 2.56.61 2.54-7.66 6.83-22.99 9.41-35.91.07-.42.23-.82.46-1.12l-13.22-5.06zm15.767 6.02c.06.347.07.712.01 1.06-2.55 12.787-6.62 27.436-9.28 35.63 2.1.415 4.3.89 6.37 1.616 2.55-7.86 6.66-22.62 9.16-35.17.04-.23.1-.45.19-.66l-6.47-2.47zm9.34 3.575c0 .156-.02.316-.04.47-2.55 12.752-6.61 27.342-9.27 35.55.09.044.18.082.27.13 3.9 2.204 8.3 3.47 13.37 5.57 4.79 1.985 11.37 2.034 17.1 3.61 2.49.685 5.71 1.09 8.16 1.837.66-2.06 1.58-4.848 2.57-7.87 1.61-4.932 3.3-10.118 3.57-11.11.842-3.076 2.26-5.477 2.93-7.925l1.97-7.172c.05-.18.102-.356.16-.536.21-1.255.362-2.125.52-2.97l-36.97-7.91-4.365-1.674z" fill="#199319"/><path d="M161.153.004c-.362.02-.718.073-1.084.19-.74.23-1.52.893-1.83 1.646-.6 1.504-.05 2.412.2 3.197.2.622.28 1.032.34 1.34-1.19-.02-2.76-.036-4.39.36-1.03.25-2.14.66-2.99 1.66-.76.894-1.03 2.217-.85 3.492-.103 1.89-1.104 5.07.36 8.23-.22.75-.83 1.25-1.86 2.21-.6.56-1.34 1.28-1.723 2.43-.385 1.15-.204 2.56.44 3.84.025.04.045.08.07.12 1.084 1.81 2.54 3.97 4.244 6.19-.26.37-.514.75-.724 1.12-1.234 2.19-2.566 3.71-3.41 6.78-.704 2.552-1.686 5.203-2.46 8.04-.75 2.71-1.75 5.42-2.536 8.272-.783 2.86-1.56 5.676-1.882 8.78-.22 2.144-1.55 4.66-2.33 7.5-.67 2.447-1.64 5.13-1.94 8.03-.292 2.86-1.58 5.645-2.49 8.956l-2.22 8.11c-.67 2.435-.934 4.3-1.55 6.546-.58 2.104-.59 3.955-1.004 5.464-.177.65-.505 2.15-1.017 4.51-.51 2.36-1.157 5.38-1.806 8.408-.65 3.023-1.3 6.05-1.82 8.413-.52 2.37-.96 4.25-.99 4.38-.16.56-.034 1.186.31 1.655.347.475.904.78 1.484.81l.1.01 1.616.44c2.93.808 5.653 1.306 8.41 2.06 3.19.88 6.934 1.46 10.102 2.307-.17.34-.238.724-.2 1.095.498 5.916 2.408 10.178 2.73 13.32.165 1.574.014 2.82-.708 4.207-.72 1.375-2.117 2.933-4.686 4.76-.01-.006-.57.33-1.22.66-.74.37-1.75.853-2.917 1.414-2.34 1.123-5.35 2.55-8.35 3.99-2.997 1.44-5.98 2.884-8.31 4.08-1.16.6-2.157 1.144-2.93 1.593-.39.23-.725.42-1.02.63-.22.153-.42.304-.67.59-.075.09-.15.134-.252.275l.04.03c-1.08 1.295-1.05 2.87-.828 4.283.24 1.52.765 3.076 1.362 4.566.59 1.49 1.26 2.88 1.79 3.94.27.533.5.977.67 1.3.084.16.153.3.2.39v.01c0 .015.004.03.01.045.01.02.02.05.03.06.4.944 1.634 1.43 2.58 1.03.95-.4 1.43-1.62 1.03-2.57-.11-.28-.12-.266-.176-.38l-.2-.4c-.164-.32-.39-.744-.64-1.247-.5-1-1.125-2.32-1.66-3.657-.535-1.34-.98-2.713-1.135-3.72-.134-.83.02-1.22-.03-1.23l.03-.03c.004-.004.004-.02.01-.023l.04-.04c.01-.015.028-.02.04-.03.158-.1.42-.26.75-.454.667-.39 1.62-.907 2.748-1.49 2.26-1.163 5.238-2.61 8.22-4.04 2.99-1.434 5.997-2.855 8.356-3.99 1.17-.565 2.19-1.053 2.97-1.444.78-.39 1.17-.55 1.71-.94 2.9-2.06 4.8-4.057 5.915-6.18 1.11-2.13 1.34-4.33 1.124-6.41-.415-4.016-2.144-7.77-2.67-12.69.18.085.36.173.52.27 4.958 2.79 10.387 3.063 14.62 4.815 5.597 2.314 11.6 2.7 16.81 4.136 2.42.66 5.618 1.69 8.167 2.46.13.803.827 1.472 1.63 1.59.808.12 1.66-.328 2.024-1.056.92-.46 1.33-1.725.852-2.64.64-1.99 1.596-4.91 2.72-8.34 1.616-4.93 3.22-9.8 3.63-11.28.67-2.44 2.07-4.85 2.912-7.92l1.66-6.02c1.48 1.705 3.05 3.11 4.733 4.35 5.51 4.044 11.82 6.21 19.748 11.256.568.4 1.36.46 1.98.15-.11.537 0 1.01.107 1.337.16.48.366.82.59 1.16.89 1.36 2.26 2.81 2.57 3.29.44.687.605 1.078.976 1.62.37.54.97 1.08 1.673 1.5.87.52 2.14.2 2.66-.67.52-.874.202-2.143-.67-2.665-.457-.27-.368-.21-.47-.362-.1-.144-.36-.67-.895-1.505-.358-.55-.69-.91-1.12-1.422 1.14.1 2.37.164 3.51.18.49.002.94.002 1.335-.016.4-.02.614.03 1.274-.213.17-.064.38-.123.71-.43.33-.303.75-1.133.6-1.845-.14-.715-.51-1.013-.72-1.18-.21-.17-.35-.233-.48-.29-.51-.245-.85-.32-1.44-.446-.24-.06-.63-.11-.91-.168 1.193-.2 2.15-.31 3.09-.68.24-.094.49-.18.842-.48.35-.3.902-1.17.72-2.05-.18-.88-.69-1.2-.993-1.4-.3-.206-.554-.304-.83-.406-.23-.1-.49-.14-.745-.14-.71.02-1.39.466-1.7 1.11-.4.088-.51.128-1.04.216-1.18.2-2.586.424-3.92.72-1.34.3-2.57.616-3.68 1.33-.21.13-.48.32-.71.654-.08-.067-.155-.126-.244-.18-8.277-5.263-14.658-7.533-19.527-11.11-2.09-1.53-3.987-3.303-5.72-5.724.53-1.68 1.1-3.402 1.58-5.165l2.29-8.34c.795-2.892 1.81-5.685 2.646-8.74.87-3.142 1.45-6.14 2.265-9.1.83-3 1.58-5.804 2.77-8.38.46-.993.81-2.034 1.1-3.074 1.09.16 2.22.31 3.415.486 1.54.21 3.02.42 4.15.57 1.13.154 1.717.233 2.035.27 1.01.114 2.04-.706 2.156-1.717.114-1.008-.706-2.02-1.713-2.14.13.014-.82-.1-1.948-.255-1.12-.153-2.615-.36-4.15-.573-1.043-.142-2.05-.293-3.05-.44.174-.78.35-1.53.54-2.22.66-2.39.874-4.88 1.03-7.16 1.494-.793 2.7-1.994 3.427-3.56.04-.084.1-.163.134-.25 3.97-6.68 6.31-15.957 3.41-23.544-.007-.02-.007-.036-.01-.056h-.017c-2.66-7.464-6.52-12.13-11.38-15.58-4.878-3.452-10.62-5.76-17.39-9.086-.03-.02-.07-.036-.1-.054C186 4.35 175.665 3.04 162.475.1c-.07-.018-.14-.033-.213-.043-.38-.038-.74-.068-1.102-.053zm-6.465 38.106c2.636 3.05 5.645 5.976 8.74 8.046.83.835 1.723 1.596 2.676 2.3-.733 1.806-1.426 3.663-1.793 6.025v.01c-1.3 8.8-2.53 16.64-1.15 27.28l.06.23c.98 4.2 4.27 10.92 7.57 17.39 2.05 4.02 4.04 7.79 5.46 10.48-2.99-.56-5.8-1.14-8.2-1.8-7.33-2.01-14.35-5.13-21.67-7.14-2.43-.67-4.64-2.92-8.55-4.09-.07-.1-.172-.263-.49-.55-.002-.005-.01-.005-.012-.01l.78-2.813c.797-2.89 2.23-5.903 2.613-9.584.23-2.27 1.08-4.774 1.804-7.396.6-2.19 2.11-4.895 2.443-8.127.283-2.7 1-5.294 1.782-8.155.726-2.64 1.713-5.367 2.514-8.28.72-2.63 1.7-5.276 2.46-8.05.64-2.334 1.61-3.335 2.985-5.74zm14.858 12.514c3.735 2.04 7.876 3.423 11.63 4.58.015.005.035.005.054.01l.117.043c2.383.914 4.66.602 6.627.133-.29 1.225-.494 2.577-.346 4.096.356 5.484 2.997 10.338 6.84 12.89 4.205 2.69 9.492 3.653 13.745 1.578.068-.034.132-.068.2-.108 1.43-.897 2.95-1.78 4.458-2.767.13-.09.24-.18.35-.29 1.1-1.11 1.81-1.64 2.61-1.57.18.02.36.01.54-.01h.06c.09.06.18.12.27.17-.15.59-.29 1.18-.43 1.78-.04-.01-.21-.04-.24-.04-.19-.05-.39-.06-.59-.05-.92.09-1.72.93-1.75 1.86-.03.92.7 1.82 1.61 1.98l.058.01c-.22.753-.45 1.45-.74 2.07-.815 1.767-2.685 7.47-3.222 9.254-14.15.54-5.214 6.04-1.996 8.48-.647 2.084-2.058 6.805-2.678 9.07l-2.29 8.34c-.154.55-.324 1.123-.495 1.684-1.27-2.56-2.425-3.296-3.59-7.148-.23-.808-1.032-1.408-1.872-1.404-.602 0-1.192.31-1.55.8-.35.49-.463 1.15-.28 1.73 1.14 3.77 2.31 4.6 3.63 7.3-3.88-1.43-8.62-2.43-13.544-3.36-1.814-.34-3.63-.665-5.45-.987-1.164-2.37-4.044-7.623-7.022-13.48-3.233-6.354-6.475-13.38-7.173-16.276-1.27-9.914-.146-17.08 1.15-25.83.002-.01 0-.02 0-.03.26-1.66.745-3.05 1.34-4.55zm23.5 3.71c.68-.02 1.324.065 1.954.293.064.02.127.04.19.054 2.77.71 5.952 2.51 9.25 4.34 3.29 1.83 6.707 3.71 10.384 4.31h.015c.96.16 1.92.21 2.84.15-.05.53-.09 1.05-.15 1.56-.25-.03-.5-.07-.75-.09-.2-.01-.38-.02-.61-.01-.11.01-.24 0-.42.03-.09.02-.22.03-.39.08-2.217.14-3.867 1.43-4.995 2.53-1.304.85-2.696 1.68-4.107 2.56-2.385 1.14-6.37.65-9.514-1.36-3.16-2.02-5.325-5.21-4.87-9.23.015-.144.015-.29 0-.44-.127-1.33.33-2.863.79-4.723.123-.01.246-.027.363-.027zm8.34 7.813c-.087.005-.175.015-.267.03-.75.112-1.41.698-1.7 1.23-.33.567-.79 1.245-.92 2.344-.06.55.02 1.3.46 1.92.43.62 1.09.97 1.74 1.15.77.22 1.53.3 2.31.03s1.42-.99 1.64-1.64c.45-1.3.09-2.25-.19-3.01-.12-.31-.33-.59-.59-.79-.04-.02-.43-.48-1.14-.88-.31-.17-.76-.38-1.37-.36zm-65.224 38.213c.088.035.185.054.283.084 2.99.82 5.08 3.168 8.887 4.213 1.51.415 3.013.9 4.537 1.407 29.32 11.66 41.46 7.787 52.1 14.08-.72 2.516-1.43 5.143-2.13 7.706-.67 2.447-2.09 4.854-2.93 7.925-.28.99-1.96 6.177-3.58 11.11-.99 3.02-1.91 5.81-2.57 7.87-2.45-.748-5.61-1.753-8.1-2.436-9.41-2.78-22.73-4.37-30.55-8.58-4.69-2.65-11.04-3.09-15.27-4.26-2.96-.81-5.69-1.31-8.41-2.06l-.34-.09.58-2.64c.52-2.37 1.17-5.41 1.82-8.43.65-3.03 1.305-6.04 1.82-8.39.51-2.36.94-4.25.965-4.33.586-2.15.59-3.99.99-5.45.685-2.5.954-4.38 1.55-6.57l.32-1.18z" fill="#fff"/><path d="M165.474 33.656c-.84.01-1.65.566-1.958 1.348-.312.786-.104 1.743.503 2.328 4.63 4.562 13.39 9.757 20.23 10.387 1.12.1 2.23-.82 2.33-1.94.1-1.12-.82-2.23-1.94-2.34-4.74-.44-13.91-5.51-17.64-9.17-.41-.4-.97-.64-1.55-.63zm-4.444-15.41c-1.015.05-1.93.913-2.03 1.924-.11 1.015.62 2.046 1.605 2.295 7.603 1.94 17.735 4.175 26.524 7.157 8.79 2.99 16.05 6.954 18.12 10.978.46 1.074 1.9 1.586 2.94 1.054s1.46-2.007.85-3.008c-3.23-6.27-11.42-9.98-20.54-13.076-9.12-3.095-19.37-5.346-26.85-7.255-.21-.054-.42-.074-.63-.07zm7.388-8.002c-1.03.023-1.978.897-2.08 1.928-.108 1.025.644 2.075 1.656 2.304 7.606 1.934 17.733 4.16 26.522 7.144 8.794 2.984 16.04 6.962 18.11 10.99.52.997 1.895 1.437 2.89.924 1.003-.518 1.44-1.894.924-2.89-3.223-6.27-11.42-9.982-20.54-13.077-9.122-3.1-19.366-5.35-26.852-7.256-.205-.05-.415-.07-.63-.06zM162.25 4.06c13.004 2.867 22.832 4.19 35.87 9.757.03.015.06.03.092.04 6.857 3.364 12.438 5.663 16.76 8.73 4.34 3.075 7.528 6.86 9.97 13.745.01.014.02.034.03.054 2.274 5.907.32 14.545-3.228 20.395-.054.09-.1.18-.138.27-.76 1.84-2.938 2.95-6.127 2.4h-.02c-2.72-.44-5.86-2.06-9.11-3.87-3.21-1.78-6.51-3.71-10.02-4.64-.01 0-.02.01-.03 0-.06-.01-.1-.04-.15-.05v.02c-2.97-1-5.69-.22-7.9.36-2.26.6-3.95.98-5.59.31-.06-.01-.12-.03-.18-.05-5.97-1.83-12.57-4.28-16.38-8.21-.11-.103-.22-.19-.34-.27-5.46-3.573-11.64-11.464-14.49-16.234-.29-.59-.25-.69-.22-.777.03-.09.21-.378.68-.818.93-.873 2.97-2.37 3.21-5.126.034-.42-.06-.85-.28-1.2-1.01-1.65-.3-3.96-.18-6.9.01-.185-.01-.37-.055-.546-.138-.568-.064-.46-.04-.49.03-.033.32-.248.912-.39 1.17-.283 3.09-.23 4.45-.24.26-.004.51-.058.75-.16.728-.303 1.397-.835 1.79-1.514.4-.676.506-1.41.496-2.01-.03-1.094-.35-1.905-.573-2.57z" fill="#2c2c2c"/><path d="M182.817 120.73c-.337.02-.668.123-.962.298-3.925 2.305-7.495 4.733-11.376 5.983-.15.04-.28.1-.4.17-.61.29-1.06.86-1.2 1.52-.13.66.06 1.36.51 1.86 3.47 3.95 6.56 7.32 9.47 11.45.55.8 1.7 1.13 2.59.75 3.57-1.512 9.17-4.462 12.7-5.51.99-.29 1.67-1.386 1.5-2.406-.27-1.572-1.02-2.34-1.92-3.48-.9-1.143-2.02-2.39-3.2-3.64-2.36-2.503-4.968-5.072-6.028-6.253-.426-.47-1.075-.74-1.715-.71z"/><path d="M182.295 123.743c-3.394 2.115-6.806 4.103-10.533 5.607 3.12 3.52 6.202 7.093 8.97 10.897 4.063-1.894 8.092-3.88 12.31-5.395-2.773-4.346-6.738-7.666-10.156-11.445l-.37.215-.22.12zm536.815 34.634c-.644.04-1.244.42-1.566.978-.323.556-.35 1.274-.07 1.85 5.695 11.855 12.555 25.786 15.7 37.89.435 1.66 1.006 3.33 1.757 4.966.05.12.08.24.14.35l.02-.01c.58 1.65 1.93 2.42 3.32 3.16 1.5.79 3.25 1.44 4.99 2 1.74.56 3.44 1 4.75 1.32.66.16 1.21.27 1.62.36.41.09.55.13.83.18 1.02.15 2.08-.63 2.24-1.646.16-1.02-.63-2.084-1.64-2.235.16.023-.203-.04-.583-.123-.38-.08-.915-.2-1.54-.343-1.24-.298-2.857-.72-4.47-1.23-1.61-.514-3.22-1.13-4.363-1.73-1.135-.6-1.565-1.338-1.483-1.015-.035-.12-.08-.24-.13-.35-.69-1.425-1.2-3-1.62-4.61-3.31-12.738-10.29-26.767-15.97-38.59-.326-.716-1.117-1.19-1.9-1.14zm84.61-87.637c-.292-.014-.526.05-.707.093-.362.09-.615.21-.884.348-.91.44-1.37 1.64-.98 2.57-.22.37-.27.47-.56.93-.68 1.04-1.49 2.26-2.2 3.48-.71 1.23-1.34 2.38-1.58 3.72-.02.12-.04.25-.04.4-.35.09-.66.28-.9.53-12.59 12.93-23.31 17.96-39.51 17.32-1.06-.06-2.08.87-2.12 1.93-.04 1.06.91 2.06 1.97 2.08 17.14.67 29.49-5.13 42.53-18.52.08-.08.15-.163.21-.255.34.49.81.755 1.15.91.476.216.886.304 1.3.37 1.658.277 3.728.24 4.31.35.83.146 1.23.3 1.905.4.67.098 1.506.01 2.316-.23 1.01-.3 1.65-1.485 1.355-2.49-.3-1.01-1.486-1.65-2.49-1.352-.53.158-.42.12-.61.1-.18-.03-.765-.187-1.775-.36-.59-.11-1.22-.14-1.84-.178.87-.8 1.77-1.67 2.576-2.516.346-.37.66-.71.922-1.03.26-.314.46-.44.735-1.11.067-.17.16-.4.156-.86 0-.46-.33-1.35-.976-1.74-.64-.39-1.13-.32-1.4-.28-.278.04-.43.11-.567.164-.54.216-.817.435-1.324.787-.205.148-.53.4-.76.578.684-1.045 1.265-1.852 1.646-2.823.096-.246.193-.513.212-.99.02-.48-.25-1.49-1.05-1.97-.398-.24-.75-.32-1.047-.33zm-4.99 9.835c.005 0 .035.005.04 0-.015.01-.084.063-.094.068-.04.02-.054-.038.054-.068z" fill="#fff"/><path d="M716.49 226.717c2.802 7.174 5.56 14.346 8.38 21.51-14.133 4.62-28.264 9.238-42.39 13.85-2.66-6.917-5.313-13.85-7.992-20.77 13.735-4.785 27.475-9.54 41.21-14.32l.39-.132.4-.138z" fill="#e6e6e6" fill-rule="evenodd"/><path d="M708.41 234.53c-2.242-.224-4.112 1.552-4.586 3.63-.494 1.907-.67 4.026-.16 5.96.965 3.624 6.34 6.04 8.9 2.564 2.64-3.194 2.787-8.81-.81-11.358-.958-.68-2.203-.83-3.345-.796zm-15.734 3.184c-1.675.253-1.87 2.26-1.602 3.613.21 1.953-.4 3.863-.405 5.825.02 1.412-.46 2.98.01 4.307.85 1.31 2.63.5 3.56-.29 1.07-.75 2.56-1.28 3.7-1.53.61 1.41.53 3.88 2.47 4.19 1.38.25 2.29-1.4 1.73-2.58-.366-1.4-1.234-2.56-1.616-3.92-.11-1.39-.34-3.57-2.11-3.72-1.426-.08-2.006 1.66-1.743 2.73-.87.36-1.75.69-2.64 1.03.04-3 1.15-6.16.06-9.06-.33-.44-.895-.65-1.432-.61zm16.06.235c2.02.02 2.583 2.5 2.235 4.08-.28.99-.54 2.37-1.65 2.74-1.53.22-2.69-1.39-2.42-2.84 0-1.33-.17-3.12 1.11-3.95.25-.04.5-.03.74-.05zm-26.046 3.75c-1.567.22-1.884 2.12-1.386 3.37 1.01 4 2.43 7.95 3.652 11.88 1.05 1.39 3.335.12 3.125-1.49-1.25-4.35-3-8.61-3.83-13.04-.33-.518-.95-.8-1.56-.74z" fill="#820202"/><path d="M771.9 129.735c-.914-.01-1.74.562-2.046 1.42-.338.924-.802 2.15-1.075 3.52-.27 1.374-.4 3.015.46 4.577.29.523.78.89 1.35 1.03 1.02.264 2.14.498 3.3.713-.14.742-.29 1.61-.35 2.57-.07 1.185-.04 2.517.72 3.84.33.557.89.934 1.53 1.03 4.15.66 9.81.28 13.53.295.12.005.26-.005.38-.025.86-.152 1.12.195 2.68.102.58-.03 1.39-.39 1.98-.907.382.048.704-.005.91-.025.4-.05.693-.128 1.162-.177-.075.01.5.01.936 0-.13 1.295-.38 2.95-.33 4.844.08 3.125.203 6.304.534 9.503.01.082.033.166.053.243.52 2.398 1.255 4.405 1.954 6.437-.176.13-.348.297-.48.482-.375.523-.493 1.188-.32 1.808 1.4 5.428 3.24 10.712 5.126 15.927-32.734 5.24-56.69 9.053-98.2 13.33-.42.044-.804.21-1.11.454l-11.524-29.644c1.94-.34 3.854-.83 5.675-1.5 3.02-1.116 6.43-1.746 9.78-2.986 2.92-1.075 5.82-2.354 8.52-3.16 1.17-.346 3-.845 4.68-1.684.843-.42 1.663-.914 2.382-1.646.72-.733 1.36-1.85 1.34-3.13-.007-.536.09-1.3-.027-2.275-.115-.98-.583-2.23-1.58-3.15-1.003-.92-2.16-1.47-3.234-1.76-1.074-.28-2.046-.38-3.09-.55-3.536-.57-7.194-.35-10.494-.31-3.65.05-7.35-.31-11.27-.27-5.76.08-11.39.35-17.06.42-1.41.02-4.237-.13-6.976.06-1.37.1-2.73.28-4.002.66-1.275.38-2.574.95-3.452 2.23-.03.04-.057.09-.087.13-1.615 2.75-3.5 5.01-4.08 7.93-.29 1.46-.09 3.15.775 4.61.864 1.45 2.25 2.665 4.19 3.89 2.48 1.715 5.35 2.5 8.42 2.89 4.17.54 8.39.324 12.444.27.915-.01 1.834-.06 2.75-.117l3.79 9.77c-5.26 8.575-10.606 18.15-15.93 27.97-12.57-6.983-26.2-9.937-39.5-9.234-16.05.85-31.605 7.03-44.21 17.865-.193-.063-.393-.106-.613-.116-3.143-.118-5.6-.153-7.556-.055-1.962.096-3.437.31-4.65.71-.114.036-.213.14-.33.19-.396-.197-.84-.26-1.274-.19-.82.13-1.788.285-2.798.813-1.02.53-1.937 1.45-2.615 2.68-1.76 3.17-2.61 7.21-1.526 10.61.54 1.703 1.493 3.85 3.53 5.273.345.246.755.46 1.19.618-1.49 2.915-3.16 6.58-4.658 10.59-2.48 6.616-4.5 13.985-4.1 20.18.01.114.03.226.05.34.424 1.86 2.196 3.026 3.696 3.315 1.5.29 3 .134 4.43-.105 1.19-.2 2.3-.47 3.25-.715-.004.327-.01.65-.01.977-.34 36.08 27.814 65.72 62.91 66.052 26.07.244 48.64-15.763 58.66-38.804l35.643 5.16c.06.01.13.02.2.023 7.792.26 13.92-3.09 17.754-8.07.52.41 1.05.828 1.53 1.22-.05.17-.07.35-.07.53 0 .186-.06 1.426-.05 2.6.01.59.03 1.17.09 1.74.036.285.085.57.18.9.09.33.1.757.853 1.37 1.97 1.59 3.21 3.065 5.45 3.557 1.118.245 2.524-.11 3.453-.868.93-.766 1.56-1.75 2.24-3.03.587-1.12.98-1.96 1.19-2.878.21-.92.09-2.17-.48-2.98-1.14-1.63-2.163-1.664-3.4-2.665-1.117-.9-1.92-1.92-3.65-2.352-.868-.22-2.08-.04-2.89.53-.087.06-.136.14-.215.2-.62-.503-1.26-1.02-1.91-1.54 2.197-4.35 3.06-9.39 2.553-14.32-.003-.06-.003-.116-.01-.17-.003-.025-.013-.05-.013-.07-.218-2.35-.79-4.613-1.66-6.72-.107-.266-.228-.53-.346-.79-.04-.09-.07-.165-.104-.253-.017-.027-.03-.05-.04-.076-.876-1.916-1.97-3.68-3.27-5.265l55.2-65.675c.64 2.01 1.22 4.01 1.74 6.02.25.96 1.13 1.627 2.114 1.61.48-.003.954-.003 1.433-.013.682-.002 1.292-.155 1.83-.36.19.57.37 1.128.56 1.69-22.24 14.23-35.704 40.366-34.195 68.906v.015c.4 6.55 2.88 24.297 10.92 33.756.076.08.15.15.24.22 1.13.97 2.648 1.44 3.937 1.18 1.29-.265 2.17-1.007 2.84-1.69.507-.51.89-1.01 1.22-1.46 11.38 16.57 30.05 27.463 51.26 27.663 35.09.33 63.86-28.76 64.2-64.845.26-27.315-15.86-50.927-38.92-60.94.55-.76 1.18-1.64 1.808-2.638 1.054-1.674 2.16-3.3 2.15-5.5 0-.936-.612-1.756-1.51-2.034-3.024-.925-5.944-1.54-8.834-2.02.04-.062.08-.12.11-.184.96-1.726 1.45-3.85 1.42-6.17-.03-2.32-.56-4.45-1.56-6.148-.81-1.36-2.05-2.576-3.617-2.98-.267-.22-.58-.38-.94-.455-.646-.136-1.28-.175-1.9-.15-1.866.08-3.634.775-5.357 1.474-2.29.93-4.54 2.02-6.26 2.477-1.61.43-3.527 1.2-5.32 2.29-1.786 1.086-3.535 2.405-4.35 4.51-.47 1.22-.674 2.416-.317 3.564.09.305.22.58.36.83-8.556 1.33-16.49 4.124-23.625 8.094-.2-.585-.383-1.18-.573-1.766.314-.243.56-.56.695-.92.12-.01.247-.04.36-.07 1.15-.29 1.826-1.465 1.53-2.607-2.14-8.26-5.324-16.22-8.1-24.15 1.437-5.103 5.67-10.14 7.04-16.718 1.146-5.476-.28-10.158-3.572-12.717-2.053-1.6-4.67-2.29-7.48-2.06-.58.05-1.17.14-1.77.27l.03-.1c.16-.67.35-1.597.27-2.69-.08-1.1-.584-2.676-2.073-3.457-.216-.11-.42-.22-.63-.335-1.25-.66-2.71-.97-4.31-1.32-.974-.21-1.82-.37-2.61-.475-.05-.415-.166-.82-.35-1.183-.45-.876-1.18-1.384-1.794-1.706-1.23-.65-2.39-.81-3.04-1.02-6.256-2.057-15.235-3.643-21.617-4.375-.073-.017-.14-.027-.214-.03zm1.46 4.55c6.01.782 13.807 2.204 19.047 3.922.005 0 .015.005.024 0 .92.298 1.65.498 2.07.66-.1.23-.16.4-.2.468-.51-.136-1.8-.484-3.73-.508v-.015c-5.27-.678-12.66-1.332-17.65-2.42 0-.26 0-.528.07-.886.08-.375.26-.805.39-1.22zm24.238 7.94c.092.02 1.646.196 3.027.494 1.445.31 3.1.85 3.237.92.137.07.264.14.4.21 0 .02-.018 0-.015.09.03.35-.048.96-.146 1.36-.21.9-.43 1.8-.65 2.7-.68 2.84-.5 5.4-.59 7.79-.16 4.23 1.07 7.58 2.27 10.97-.14.05-.28.104-.41.15-.38.13-.77.223-1.1.29-.68-1.984-1.32-3.78-1.75-5.726-.3-2.985-.43-6.02-.5-9.06-.04-1.62.71-4.04.44-6.594-.09-.87-.682-1.496-1.082-1.77s-.71-.366-.99-.44c-.564-.156-1.046-.19-1.525-.214-.8-.046-1.34-.01-1.81.023-.01.013-.022.013-.03 0h.03c.01-.026.02-.11.04-.217.306-.158.598-.33.83-.57.135-.14.237-.29.35-.43zm-19.634.8c4.003.06 8.985.426 12.368 1.26h.024c.313.075.308.075.538.124-.445-.02-.948-.02-1.53.05v-.02c-3.475-.02-8.148.18-11.454-.11-.024-.23-.07-.25-.054-.55.015-.23.074-.51.108-.77zm32.9 7.335c1.626-.034 2.983.445 4 1.236 1.806 1.4 2.92 4.076 2.006 8.44-.756 3.63-3.076 7.17-4.975 11.194-.504-1.63-.958-3.268-1.383-4.898-.19-.78-.796-1.372-1.537-1.567-1.07-3.09-1.94-5.684-1.82-8.78.066-1.778.032-3.364.145-4.834 1.29-.5 2.485-.76 3.564-.79zm-115.04 2.584c3.605-.044 7.306.322 11.27.268 3.433-.045 6.895-.225 9.756.244 1.183.19 2.056.303 2.66.47.613.16.964.316 1.46.775.193.18.163.17.203.51.043.33.008.95.013 1.76-.01.01-.03.04-.12.13-.197.21-.646.53-1.232.82-1.172.59-2.808 1.08-4 1.44-3.055.91-6.015 2.21-8.754 3.22-2.886 1.07-6.328 1.72-9.8 3-3.408 1.26-7.397 1.82-11.386 1.88-4.155.06-8.194.23-11.847-.24-2.65-.34-4.92-1.04-6.61-2.21-.03-.01-.055-.03-.083-.05-1.598-1.01-2.423-1.87-2.784-2.474-.356-.6-.395-.937-.27-1.577.256-1.26 1.78-3.504 3.512-6.44 0 0 .01.006.01 0 .02-.02.367-.326 1.138-.56.78-.23 1.88-.386 3.066-.47 2.374-.155 4.995-.03 6.734-.05 5.776-.077 11.4-.346 17.065-.418zm111.29 17.68c.053.03.107.063.16.083.723 2.48 1.52 4.932 2.355 7.363.03.302.13.606.29.87 2.67 7.69 5.66 15.165 7.72 22.7-.14.04-.28.087-.42.156-.94.488-1.53 1.045-2.12 1.435-.51.34-.83.45-1.06.48-3.037-10.94-7.71-21.41-10.65-32.01 1.017-.05 1.73-.39 2.638-.7.36-.11.71-.25 1.06-.37zm-112.67 15.78l15.297 39.337-9.75 3.41c-3.58-4.11-7.43-7.51-11.18-11.39-.06-.06-.12-.11-.19-.16-2.71-2.24-5.48-4.25-8.33-6.05 4.75-8.78 9.49-17.34 14.17-25.13zm172.216 2.262c.138 0 .56.146 1.084 1.035.527.89.942 2.35.967 4 .02 1.65-.37 3.13-.87 4.03-.5.9-.92 1.05-1.05 1.05-.14 0-.56-.13-1.08-1.01-.53-.89-.96-2.35-.98-4-.02-1.65.39-3.13.89-4.03.51-.89.93-1.05 1.06-1.06zm-5.58.766c-.44 1.33-.65 2.808-.63 4.375.024 1.724.316 3.325.883 4.737-.557-.083-1.108-.175-1.67-.264-.083-.014-.16-.01-.244-.014-1.45-.074-2.87-.112-4.29-.107-2.24 0-4.44.11-6.61.3-.1-.36-.28-.7-.56-.98-.33-.32-.46-.48-.5-.53v-.02c0-.08.04-.28.23-.768.18-.483 1.17-1.548 2.56-2.383 1.38-.833 3.07-1.52 4.2-1.82 2.32-.61 4.56-1.71 6.62-2.553zm-55.68 1.607c.563 1.55 1.124 3.09 1.66 4.64l-56.616 67.38c-3.423-2.86-7.705-4.68-12.53-5.04-.122-.02-.248-.03-.37-.04-.04-.01-.073 0-.108 0-.512-.04-1.02-.06-1.537-.07-.92-.01-1.83.03-2.72.13l-6.27.04-2.5-6.43 2.73-.9c.97-.28 1.64-1.51 1.4-2.6l-9.24-23.74c-.34-.8-1.16-1.31-1.95-1.22-.25-.01-.51.05-.74.14l-2.82.98-7.7-19.81h.07c41.95-4.327 66.06-8.184 99.23-13.49zm49.66 11.4c1.336-.01 2.684.02 4.05.09 6.344 1.03 12.027 1.54 17.804 3.05-.244.54-.503 1.12-.87 1.7-.795 1.26-1.67 2.43-2.304 3.29-6.26-2.21-12.97-3.45-19.94-3.51-11.182-.11-21.705 2.79-30.88 7.94-.48-1.28-.947-2.56-1.406-3.83 9.726-5.52 21.084-8.69 33.545-8.74zm-214.93 1.75h1.125c11.245.08 22.636 2.97 33.276 8.91-.56 1.04-1.11 2.07-1.67 3.11-8.87-5-19.02-7.89-29.83-7.99-33.3-.31-60.86 25.89-63.88 59.4-.24.06-.46.11-.72.17-1.04.27-2.29.6-3.48.8-1.19.2-2.33.22-2.9.1-.16-.03-.23-.025-.28-.025-.24-4.976 1.51-11.89 3.83-18.096 2.36-6.334 5.31-12.04 6.83-14.365 13.387-20.126 34.57-31.454 56.6-32.026.37-.01.75-.014 1.12-.014zm213.63 7c32.774.31 59.17 28 58.847 61.9-.317 33.9-27.226 61.05-60 60.74-32.773-.32-59.1-27.95-58.783-61.85.2-21.29 10.868-39.95 26.888-50.8.504 1.28 1.012 2.55 1.524 3.83-14.682 10.2-24.4 27.43-24.585 46.99-.29 31.54 24.32 57.45 55 57.74 30.69.29 55.84-25.16 56.14-56.7.3-31.54-24.36-57.49-55.05-57.78-10.1-.1-19.6 2.61-27.81 7.4-.5-1.27-1-2.53-1.49-3.79 8.27-4.75 17.74-7.52 27.81-7.69.52-.01 1.02-.02 1.53-.01zm-210.776 1.16c10.12.1 19.643 2.8 27.943 7.49-.635 1.19-1.278 2.38-1.913 3.57-7.754-4.37-16.622-6.9-26.07-6.99-30.683-.29-55.785 25.2-56.084 56.73-.293 31.54 24.326 57.45 55.01 57.74 21.972.204 41.08-12.79 50.274-31.764l4.042.575c-9.59 21.033-30.395 35.48-54.355 35.25-32.77-.31-59.11-27.943-58.79-61.845.01-1.01.04-2 .1-2.993.05-.136.08-.273.1-.415.03-.214.02-.415-.01-.615 2.287-31.48 27.47-56.22 58.24-56.74.51-.008 1.03-.02 1.54-.018zm174.808 1.11c.46 1.26.93 2.54 1.407 3.8-17.58 11.51-29.33 31.67-29.54 54.67-.12 12.62 3.26 24.45 9.19 34.51-.04.042-.08.08-.11.12-.22.262-.4.51-.59.774-.38.516-.77 1.054-1.13 1.415-.36.363-.63.47-.63.47s-.13-.083-.18-.107c-6.41-7.7-9.45-25.36-9.8-31.09-1.42-26.756 10.86-51.1 31.36-64.58zm-139.57 1.84c2.613 1.66 5.172 3.51 7.657 5.56l.01.01c3.38 3.483 6.64 6.5 9.63 9.786l-4.04 1.41c-4.26-5.31-9.31-9.914-14.97-13.63.56-1.05 1.13-2.094 1.7-3.144zm175.47 4.15c28.364.26 51.215 24.19 50.942 53.55-.28 29.35-23.58 52.85-51.95 52.59-28.363-.27-51.16-24.2-50.883-53.55.17-17.89 8.87-33.61 22.06-43.09 3.51 8.47 7.21 16.86 10.62 25.06 1.91 4.59 5.15 8.46 8.53 11.752.49.472.99.955 1.47 1.43.25.233.49.46.73.68-.77 1.344-1.21 2.89-1.23 4.537-.05 5.086 4.05 9.36 9.16 9.41 5.11.05 9.3-4.15 9.348-9.23.046-5.08-4.065-9.35-9.17-9.4-1.91-.015-3.694.55-5.18 1.543-.223-.207-.443-.398-.653-.608-.49-.474-.975-.958-1.46-1.43-3.15-3.073-6.01-6.564-7.58-10.334-3.53-8.52-7.326-17.145-10.905-25.82 7.345-4.38 15.82-6.942 24.86-7.09.44-.01.88-.017 1.32-.013zm-212.115 1.18c.44-.01.884-.01 1.323 0 8.755.08 16.992 2.39 24.175 6.45-5.913 11.13-11.675 22.02-17.12 31.58l-9.06.07c-.055-.01-.104-.01-.163 0-1.997.2-3.89.76-5.62 1.602-.03.014-.063.024-.092.04-.03.013-.054.04-.084.053-5.102 2.44-8.764 7.484-9.286 13.367v.03c-.01.14-.03.286-.04.43-.073.97-.06 1.97.054 2.97.488 4.455 2.28 8.08 5.498 10.588.844.66 1.773 1.236 2.788 1.743.005.005.005.01.01.01 1.724.98 3.642 1.65 5.68 1.93 1.502.33 3.11.57 4.857.75v.01l43.364 6.25c-8.72 16.96-26.09 28.425-45.94 28.24-28.37-.265-51.16-24.195-50.89-53.55.28-28.897 22.8-52.11 50.56-52.574zm-53.11 1.42c-1.69 1.7-3.306 3.5-4.858 5.39-.77-2.23-1.94-3.99-2.28-4.85-.01-.01 0-.007 0-.017l.04-.014c.71-.23 2.31-.44 4.91-.507.65-.015 1.4-.015 2.18-.01zm86.128.05c4.755 3.16 9.042 7.01 12.73 11.41l-4.03 1.4c-3.144-3.518-6.708-6.62-10.614-9.25l1.92-3.57zm-97.436 1.39c.06.22.11.47.18.67.67 1.7 1.71 3.15 2.22 4.65.5 1.47.63 2.716-.36 4.43-.69.967-1.18 1.236-1.31 1.27-.13.04-.11.06-.4-.146-.59-.404-1.58-2.036-1.92-3.076-.48-1.484.01-5.098 1.19-7.217.16-.284.27-.45.39-.586zm139.33 3.2c2.8 7.176 5.56 14.35 8.38 21.51l-42.39 13.854c-2.66-6.92-5.32-13.85-8-20.77 13.73-4.78 27.47-9.54 41.21-14.32l.39-.13.4-.137zm-45.77 2.684c3 2.04 5.77 4.4 8.28 7.027l-6.83 2.365c-.96.296-1.61 1.51-1.38 2.586l6.58 17.106-22.49.16c5.087-9.027 10.41-19.047 15.82-29.24zm49.61 23.594l2 5.14-18.14.133 16.13-5.274zm3.05 8.486c-6.56 4.138-10.98 11.45-11.06 19.72 0 .224.01.444.01.67l-6.84-.377c.28-2.36.43-4.75.45-7.184.042-4.336-.34-8.58-1.087-12.686l18.51-.13zm-22.73.16c.78 4.08 1.17 8.3 1.13 12.62-.02 2.38-.165 4.717-.44 7.018l-3.84-.2c.28-2.247.433-4.53.453-6.85.04-4.308-.39-8.5-1.23-12.545l3.92-.04zm-22 .18l.97 2.514c.41 1.07 1.69 1.6 2.635 1.1l10.315-3.372c.844 3.9 1.27 7.962 1.23 12.14-.02 2.26-.167 4.464-.455 6.646l-35.695-1.9c.26-1.137.4-2.323.416-3.53.046-4.95-2.142-9.447-5.623-12.504l.525-.91 25.68-.186zm57.18.253c4.47.04 8.563 1.65 11.805 4.3l-4.096 4.87c-2.056-1.62-4.61-2.61-7.39-2.72-.013 0-.023-.017-.038-.017-.12-.02-.23-.04-.348-.04-.23 0-.44.006-.66.015-1.36.052-2.66.32-3.88.774l-2.32-5.94c1.86-.72 3.85-1.144 5.93-1.237.32-.01.656-.015.984-.01zm-94.52.98c.21-.01.41-.01.62 0 1.72.01 3.36.4 4.842 1.08-.503.85-.99 1.69-1.485 2.513-1.05-.435-2.19-.67-3.39-.684-5.103-.045-9.293 4.14-9.34 9.223-.05 5.08 4.062 9.36 9.17 9.41 2.124.02 4.09-.705 5.66-1.916l3.866.2c-2.245 2.84-5.703 4.67-9.555 4.63-6.66-.065-12.055-5.68-11.99-12.37.063-6.484 5.224-11.83 11.606-12.1zm83.77 2.24l2.4 6.16c-2.84 2.364-4.67 5.914-4.71 9.854-.008.378.012.755.04 1.126l-6.32-.338c-.01-.28-.017-.565-.01-.85.06-6.615 3.474-12.494 8.6-15.945zm-74.77 1.287c2.252 2.25 3.64 5.374 3.61 8.792-.01 1.16-.195 2.285-.508 3.35l-2.96-.16c.374-.998.59-2.08.6-3.2.023-2.358-.856-4.53-2.3-6.2.51-.845 1.03-1.705 1.55-2.584zm202.92.79c2.8.03 5.08 2.38 5.06 5.204-.03 2.834-2.358 5.144-5.16 5.12-2.8-.03-5.07-2.382-5.046-5.21.006-.623.12-1.22.34-1.776 1.026.85 2.023 1.67 2.916 2.544.42.41.563.89 1.476 1.78.537.58 1.362.813 2.124.612.768-.2 1.35-.81 1.53-1.58.18-.77-.073-1.58-.67-2.103-.3-.29-.5-.853-1.46-1.79-.932-.91-1.88-1.724-2.822-2.505.54-.187 1.116-.3 1.717-.295zm-102.58 2.06c2.634 3.354 4.2 7.602 4.16 12.17-.03 3.32-.91 6.443-2.42 9.18-1.717-1.28-3.46-2.54-5.13-3.76-.004-.007-.004-.01-.01-.017.8-1.66 1.25-3.51 1.27-5.46.025-2.61-.74-5.05-2.074-7.11l4.203-5zm-108.79.683c.404.01.8.068 1.175.16-.557.898-1.1 1.777-1.646 2.627-.64.995-.35 2.327.646 2.972.99.64 2.317.35 2.957-.65.464-.718.927-1.46 1.396-2.208.34.7.53 1.48.52 2.3-.025 2.83-2.34 5.14-5.137 5.12-2.805-.03-5.075-2.38-5.05-5.21.03-2.824 2.34-5.133 5.14-5.11zm93.42 2.51c.147-.01.293-.01.44 0 4.8.04 8.68 4.06 8.633 8.88-.01 1.034-.208 2.017-.55 2.944-.79-.6-1.538-1.18-2.19-1.714-1.546-1.255-2.68-2.39-2.95-2.784-.437-.68-1.218-1.05-2.018-.967-.76.08-1.4.56-1.72 1.243-.31.684-.245 1.494.185 2.11.86 1.274 2.136 2.363 3.79 3.71.76.62 1.608 1.276 2.5 1.953-1.56 1.408-3.61 2.258-5.843 2.24-4.793-.046-8.694-4.083-8.645-8.903.04-4.67 3.766-8.53 8.36-8.725zm-79.23 10.514l36.56 1.97c-.755 3.578-1.86 7.01-3.275 10.27l-39.75-5.74c2.71-1.51 4.963-3.764 6.462-6.494zm40.74 2.187l3.88.2c-.724 3.82-1.8 7.504-3.17 11.03l-3.95-.563c1.4-3.4 2.494-6.97 3.24-10.67zm8.08.43l7.94.424c1.154 5.553 4.27 10.436 8.59 13.83l-19.673-2.837c1.37-3.657 2.43-7.476 3.145-11.416zm12.264.653l6.81.36c2.015 4.424 6.43 7.584 11.576 7.63 3.62.032 6.9-1.467 9.263-3.88 1.69 1.236 3.43 2.505 5.123 3.775-3.557 4.02-8.737 6.56-14.454 6.506-8.776-.08-16.15-6.23-18.326-14.39zm43.54 12.64c.18.15.656.442 1.643 1.243 1.245 1.002 1.982 1.51 2.29 1.652-.098.3-.274.723-.71 1.553-.51.99-.915 1.46-1.085 1.61-.14-.06-1.48-1.012-3.037-2.23-.027-.3-.05-.662-.056-1.1-.01-.67.03-1.125.04-1.632.31-.2.56-.48.72-.812.13-.23.11-.163.19-.276z" fill="#fff" fill-rule="evenodd"/><path d="M737.07 57.772c-1.522.338-1.18 2.84-1.66 4.204-.45 3.662.26 7.7 3.2 10.186 3.836 3.72 10.58 5.33 14.925 1.45 2.34-1.514 4.516-3.877 7.56-3.525 2.094 1.596 2.504-3.585 1.02-3.19-9.23.368-15.772-8.256-24.722-9.135-.108.02-.22-.024-.323.01z" fill="#b3b3b3"/><path d="M680.4 102.275c-.917 3.285-.756 6.366-1.768 10.102-.4 1.455-.4 3.305-.99 5.45-.025.076-.45 1.966-.962 4.32s-1.173 5.366-1.82 8.394c-.656 3.03-1.305 6.06-1.823 8.44-.235 1.07-.415 1.91-.576 2.64l.34.1c2.72.75 5.45 1.25 8.41 2.06.79.22 1.65.42 2.56.6 2.54-7.66 6.83-22.98 9.41-35.9.07-.422.23-.822.46-1.12l-13.22-5.058zm15.768 6.02c.067.34.072.712.008 1.06-2.55 12.787-6.616 27.436-9.272 35.625 2.105.42 4.297.892 6.372 1.62 2.554-7.865 6.665-22.622 9.165-35.17.04-.235.11-.455.19-.66l-6.46-2.475zm9.34 3.573c0 .157-.014.313-.04.47-2.543 12.753-6.605 27.343-9.262 35.547.088.05.18.087.27.136 3.905 2.21 8.3 3.47 13.373 5.57 4.79 1.99 11.37 2.04 17.1 3.61 2.48.69 5.71 1.1 8.16 1.84.66-2.06 1.58-4.85 2.57-7.87 1.61-4.93 3.3-10.12 3.57-11.11.85-3.07 2.26-5.48 2.93-7.92l1.96-7.17c.05-.18.11-.35.16-.53.21-1.25.36-2.12.51-2.97l-36.968-7.91-4.365-1.67z" fill="#fc0"/><path d="M705.494 4.286c-.358.015-.72.074-1.085.185-.74.24-1.52.9-1.83 1.65-.6 1.51-.05 2.42.2 3.21.2.62.29 1.03.35 1.34-1.2-.02-2.76-.03-4.39.36-1.03.25-2.14.66-2.99 1.66-.75.89-1.03 2.22-.84 3.49-.11 1.9-1.11 5.08.36 8.24-.23.75-.84 1.25-1.86 2.21-.61.57-1.35 1.29-1.73 2.44-.39 1.16-.21 2.56.44 3.85l.06.118c1.08 1.82 2.54 3.977 4.24 6.2-.26.38-.517.756-.728 1.127-1.236 2.195-2.57 3.71-3.414 6.79-.705 2.55-1.68 5.205-2.46 8.04-.75 2.71-1.75 5.42-2.53 8.27-.787 2.86-1.568 5.676-1.89 8.78-.22 2.14-1.55 4.655-2.33 7.497-.67 2.446-1.64 5.13-1.938 8.033-.3 2.852-1.585 5.64-2.49 8.95l-2.225 8.11c-.67 2.426-.93 4.29-1.55 6.54-.578 2.106-.59 3.95-1.008 5.46-.176.655-.5 2.15-1.016 4.51-.51 2.366-1.15 5.38-1.806 8.41-.65 3.02-1.3 6.05-1.82 8.42-.51 2.36-.953 4.25-.99 4.373-.154.56-.03 1.186.31 1.66.347.473.9.78 1.49.8.03.01.06.01.09.015l1.62.44c2.93.8 5.66 1.3 8.408 2.06 3.192.88 6.933 1.45 10.11 2.3-.174.336-.248.72-.208 1.1.5 5.906 2.405 10.17 2.733 13.31.16 1.58.01 2.82-.71 4.206-.72 1.376-2.118 2.94-4.686 4.765-.01-.01-.57.33-1.217.65-.74.37-1.748.86-2.92 1.42-2.34 1.126-5.35 2.55-8.354 3.99-3 1.437-5.983 2.88-8.31 4.08-1.16.605-2.154 1.14-2.93 1.596-.386.226-.72.427-1.016.63-.222.15-.42.31-.665.587-.086.098-.16.14-.26.288l.043.025c-1.085 1.3-1.056 2.874-.83 4.285.237 1.515.765 3.072 1.36 4.562.6 1.49 1.265 2.89 1.797 3.95.268.523.5.97.67 1.3.087.16.16.29.2.38 0 0-.002.01 0 .01.008.015.01.03.018.04.01.03.02.057.03.067.4.944 1.63 1.433 2.58 1.03.946-.4 1.434-1.62 1.03-2.57-.11-.28-.118-.265-.17-.377-.06-.112-.124-.243-.208-.4-.16-.32-.39-.742-.64-1.246-.504-1-1.124-2.32-1.66-3.65-.54-1.34-.983-2.717-1.14-3.73-.13-.83.02-1.22-.03-1.23.01-.004.02-.014.03-.024.006-.006.01-.02.016-.03l.04-.04c.01-.01.026-.01.04-.02.15-.11.42-.27.75-.46.667-.39 1.61-.91 2.747-1.49 2.252-1.16 5.226-2.61 8.214-4.044 2.983-1.43 5.99-2.856 8.35-3.985 1.176-.564 2.19-1.06 2.972-1.45.77-.383 1.16-.544 1.71-.93 2.9-2.062 4.8-4.055 5.91-6.184 1.11-2.125 1.335-4.328 1.12-6.41-.418-4.017-2.146-7.77-2.664-12.688.173.082.354.17.52.263 4.95 2.792 10.38 3.066 14.61 4.82 5.6 2.32 11.6 2.704 16.81 4.135 2.426.67 5.62 1.694 8.17 2.465.13.803.82 1.477 1.63 1.594.802.12 1.66-.326 2.02-1.06.92-.45 1.33-1.72.86-2.635.64-1.987 1.59-4.907 2.712-8.335 1.62-4.935 3.225-9.81 3.63-11.28.676-2.45 2.07-4.85 2.917-7.927l1.66-6.02c1.48 1.705 3.05 3.11 4.74 4.347 5.5 4.045 11.81 6.212 19.74 11.26.57.392 1.36.45 1.98.144-.11.54 0 1.01.1 1.34.16.485.37.826.59 1.164.89 1.36 2.26 2.81 2.57 3.293.44.687.6 1.074.98 1.615.37.546.97 1.084 1.67 1.5.87.52 2.14.204 2.66-.67.52-.87.2-2.14-.67-2.66-.46-.275-.37-.216-.47-.364-.1-.146-.36-.67-.895-1.51-.35-.54-.69-.91-1.114-1.417 1.148.09 2.368.154 3.51.17.49.01.938.01 1.34-.016.394-.02.61.04 1.268-.21.17-.06.38-.123.71-.43.33-.3.75-1.13.608-1.84-.146-.716-.51-1.01-.72-1.185-.21-.164-.36-.23-.486-.29-.507-.24-.845-.31-1.43-.44-.235-.052-.635-.106-.914-.16 1.2-.2 2.15-.312 3.1-.683.235-.1.49-.18.84-.49.36-.3.91-1.167.724-2.046-.18-.88-.69-1.205-.99-1.405-.3-.2-.56-.293-.83-.4-.236-.09-.495-.14-.75-.133-.71.025-1.395.47-1.697 1.11-.404.087-.515.13-1.04.22-1.18.195-2.59.425-3.92.723-1.336.3-2.56.61-3.68 1.33-.21.137-.48.322-.71.66-.076-.07-.155-.128-.24-.177-8.28-5.27-14.66-7.534-19.53-11.11-2.09-1.54-3.98-3.31-5.71-5.73.53-1.682 1.09-3.41 1.574-5.163l2.29-8.34c.796-2.9 1.81-5.69 2.65-8.74.65-2.38 1.15-4.67 1.7-6.92.758-.54 1.04-1.65.64-2.49.796-2.884 1.544-5.586 2.69-8.07.465-.996.806-2.036 1.1-3.076 1.09.158 2.22.31 3.41.48 1.54.22 3.02.42 4.15.577 1.13.154 1.718.23 2.03.27 1.01.114 2.04-.707 2.16-1.717.11-1.01-.7-2.027-1.71-2.145.136.02-.815-.095-1.944-.25-1.12-.15-2.616-.356-4.145-.576-1.05-.14-2.05-.29-3.05-.44.17-.78.343-1.53.53-2.22.66-2.383.873-4.873 1.03-7.16 1.493-.79 2.704-2 3.43-3.56.04-.09.094-.16.133-.252 3.978-6.68 6.31-15.954 3.417-23.54-.01-.02-.01-.04-.014-.05h-.013c-2.66-7.464-6.52-12.132-11.374-15.58-4.87-3.46-10.62-5.765-17.39-9.09-.03-.015-.058-.035-.09-.05C730.33 8.65 720 7.34 706.81 4.4c-.07-.016-.146-.03-.215-.04-.39-.043-.75-.07-1.115-.053zM699.03 42.39c2.635 3.053 5.642 5.978 8.74 8.043.83.84 1.727 1.602 2.674 2.305-.732 1.802-1.42 3.662-1.792 6.02v.015c-1.298 8.79-2.533 16.64-1.152 27.275.015.08.034.157.054.23.98 4.2 4.272 10.918 7.563 17.388 2.045 4.02 4.038 7.782 5.46 10.48-2.995-.567-5.807-1.15-8.205-1.81-7.328-2.015-14.35-5.135-21.668-7.146-2.433-.67-4.64-2.92-8.55-4.098-.08-.092-.177-.258-.5-.546-.004-.005-.01-.01-.01-.015l.778-2.8c.79-2.89 2.227-5.9 2.607-9.58.23-2.27 1.08-4.77 1.8-7.4.6-2.18 2.11-4.88 2.45-8.12.27-2.7.99-5.28 1.77-8.15.73-2.64 1.71-5.37 2.52-8.28.71-2.63 1.7-5.27 2.46-8.04.64-2.332 1.61-3.334 2.98-5.74zm14.856 12.516c3.736 2.036 7.876 3.422 11.63 4.575.02.01.035.01.055.02.04.01.09.03.13.04 2.38.92 4.65.61 6.62.14-.29 1.23-.49 2.58-.34 4.09.36 5.49 3 10.34 6.84 12.89 4.21 2.7 9.49 3.66 13.75 1.58.07-.03.14-.07.2-.1 1.44-.9 2.95-1.79 4.46-2.77.13-.08.24-.17.35-.28 1.1-1.1 1.81-1.64 2.61-1.56.18.02.36.02.54-.01h.05c.09.06.178.12.27.17-.15.59-.292 1.19-.43 1.78-.04-.004-.204-.034-.24-.04-.19-.043-.39-.053-.59-.04-.923.09-1.714.934-1.753 1.86-.03.93.697 1.82 1.61 1.984.014 0 .04.01.05.01-.216.758-.446 1.46-.735 2.075-.813 1.77-1.423 3.56-1.965 5.34-.37 1.396-.71 2.74-1.03 4.027-4.3 2.343-5.715 2.3-10.857 1.59-3.023-.412-5.098-1.575-7.173-3.273-2.07-1.703-4.07-3.993-6.624-6.37-.383-.367-.92-.57-1.453-.547-.795.03-1.536.57-1.81 1.315-.27.74-.05 1.63.532 2.17 2.37 2.21 4.385 4.534 6.81 6.53 2.433 2 5.35 3.624 9.17 4.15 4.12.56 6.9.57 10.186-.63-.59 2.356-1.14 4.416-1.72 6.066-.64 2.08-1.34 4.18-1.963 6.45l-2.29 8.33c-.15.56-.327 1.125-.5 1.69-1.27-2.562-2.424-3.295-3.59-7.15-.23-.802-1.03-1.41-1.87-1.403-.6.004-1.2.31-1.55.805-.353.49-.47 1.15-.28 1.727 1.144 3.777 2.31 4.602 3.63 7.307-3.88-1.432-8.62-2.43-13.546-3.355-1.81-.347-3.63-.668-5.45-.996-1.16-2.366-4.047-7.62-7.026-13.48-3.233-6.35-6.475-13.38-7.174-16.28-1.27-9.916-.147-17.08 1.152-25.835 0-.01-.008-.014 0-.02.26-1.67.744-3.06 1.334-4.55zm23.5 3.706c.68-.02 1.325.064 1.955.293.07.025.13.038.19.053 2.78.704 5.96 2.505 9.25 4.342 3.29 1.826 6.72 3.71 10.39 4.306h.02c.97.166 1.93.215 2.85.146-.04.528-.08 1.05-.15 1.568-.25-.034-.5-.073-.74-.093-.19-.015-.38-.02-.6-.015-.11.005-.23 0-.41.03-.092.014-.22.024-.39.078-2.212.127-3.862 1.416-4.99 2.53-1.3.848-2.7 1.678-4.11 2.558-2.39 1.133-6.37.644-9.513-1.367-3.165-2.02-5.323-5.21-4.87-9.23.016-.14.016-.29 0-.44-.13-1.33.334-2.86.787-4.72l.36-.03zm8.34 7.818c-.086.005-.175.01-.267.023-.75.118-1.4.7-1.7 1.237-.33.566-.79 1.24-.91 2.34-.07.55.01 1.297.45 1.912.43.615 1.09.977 1.74 1.153.77.215 1.53.297 2.31.024.78-.27 1.42-1 1.65-1.65.44-1.3.08-2.25-.19-3.01-.12-.31-.33-.59-.59-.79-.04-.03-.43-.48-1.14-.89-.32-.18-.77-.39-1.37-.36zm-65.22 38.212c.085.034.188.054.28.08 2.993.824 5.078 3.168 8.886 4.218 1.51.415 3.013.897 4.537 1.406 29.32 11.66 41.47 7.782 52.11 14.076-.73 2.52-1.43 5.146-2.13 7.71-.68 2.446-2.09 4.85-2.94 7.925-.27.992-1.96 6.178-3.57 11.11-.99 3.02-1.91 5.81-2.57 7.87-2.45-.747-5.61-1.754-8.1-2.437-9.41-2.778-22.73-4.36-30.54-8.58-4.7-2.645-11.04-3.094-15.28-4.256-2.96-.81-5.69-1.314-8.41-2.06l-.34-.094c.16-.728.34-1.573.58-2.636.51-2.374 1.16-5.41 1.82-8.433.65-3.02 1.31-6.04 1.82-8.39.51-2.35.94-4.24.96-4.32.59-2.14.59-3.99.99-5.45.68-2.49.95-4.38 1.55-6.56l.32-1.17z" fill="#fff"/><path d="M709.82 37.934c-.845.015-1.65.57-1.964 1.352-.312.78-.102 1.743.504 2.33 4.638 4.555 13.398 9.755 20.234 10.385 1.118.11 2.23-.81 2.338-1.93.103-1.12-.82-2.23-1.933-2.33-4.75-.44-13.92-5.51-17.65-9.17-.41-.4-.97-.63-1.54-.63zm-4.444-15.405c-1.02.04-1.933.91-2.036 1.92-.102 1.01.62 2.04 1.606 2.29 7.608 1.93 17.735 4.17 26.53 7.16 8.788 2.98 16.05 6.95 18.12 10.97.463 1.07 1.903 1.59 2.943 1.05s1.46-2.01.86-3.01c-3.23-6.27-11.43-9.98-20.55-13.09-9.12-3.094-19.37-5.345-26.85-7.25-.21-.054-.42-.077-.63-.067zm7.388-8.01c-1.035.02-1.983.9-2.085 1.92-.11 1.03.64 2.07 1.65 2.3 7.6 1.94 17.74 4.16 26.53 7.15 8.78 2.98 16.03 6.96 18.1 10.98.52 1 1.89 1.44 2.89.92.99-.51 1.43-1.89.92-2.89-3.23-6.27-11.43-9.98-20.55-13.08-9.12-3.097-19.37-5.35-26.85-7.25-.21-.056-.42-.08-.63-.07zm-6.173-6.18c13.01 2.86 22.84 4.18 35.87 9.75.04.01.07.02.1.04 6.86 3.35 12.44 5.65 16.76 8.72 4.35 3.08 7.53 6.86 9.98 13.74.01.02.02.04.03.05 2.28 5.91.33 14.55-3.22 20.4-.05.08-.1.17-.13.263-.77 1.83-2.94 2.947-6.13 2.396h-.01c-2.72-.44-5.86-2.055-9.116-3.867-3.205-1.78-6.505-3.72-10.01-4.645-.01-.005-.02 0-.03 0-.05-.015-.1-.04-.147-.05v.01c-2.96-1.006-5.68-.23-7.892.36-2.265.596-3.95.982-5.6.31-.06-.026-.115-.04-.174-.055-5.97-1.84-12.56-4.295-16.38-8.22-.105-.1-.217-.19-.33-.27-5.46-3.573-11.65-11.47-14.5-16.234-.29-.595-.247-.69-.22-.78.03-.093.216-.38.685-.816.93-.87 2.968-2.363 3.21-5.122.04-.42-.062-.85-.28-1.204-1.002-1.65-.305-3.95-.172-6.89.005-.183-.01-.37-.054-.55-.14-.56-.07-.45-.045-.483.03-.03.325-.244.91-.387 1.17-.28 3.094-.23 4.456-.24.258 0 .517-.06.75-.16.73-.304 1.4-.832 1.795-1.51.4-.68.517-1.41.5-2.01-.03-1.09-.35-1.903-.573-2.566z" fill="#2c2c2c"/><path d="M727.485 123.45c-.336.02-.67.124-.96.294-3.927 2.31-7.496 4.736-11.38 5.986-.14.04-.272.094-.4.156-.604.284-1.06.865-1.19 1.52-.132.65.064 1.36.508 1.855 3.47 3.95 6.567 7.32 9.477 11.45.55.8 1.7 1.13 2.593.75 3.57-1.51 9.175-4.46 12.705-5.51.986-.29 1.67-1.39 1.5-2.4-.264-1.57-1.022-2.34-1.915-3.48-.898-1.14-2.022-2.38-3.203-3.64-2.354-2.5-4.966-5.07-6.02-6.25-.425-.47-1.075-.74-1.715-.71z"/><path d="M726.962 126.464c-3.393 2.115-6.806 4.1-10.53 5.605 3.12 3.52 6.2 7.09 8.968 10.89 4.063-1.9 8.09-3.88 12.31-5.4-2.774-4.35-6.74-7.67-10.156-11.45l-.372.21-.22.12z" fill="#fff"/><path d="M370.24 128.993c-.92-.01-1.744.562-2.05 1.42-.34.924-.803 2.15-1.07 3.522-.274 1.37-.4 3.012.467 4.575.29.522.777.888 1.353 1.03 1.02.263 2.144.497 3.306.712-.136.743-.297 1.61-.35 2.57-.065 1.185-.04 2.52.72 3.84.328.56.89.934 1.53 1.03 4.16.666 9.814.28 13.53.295.13.005.26-.005.39-.025.855-.15 1.114.196 2.676.108.577-.034 1.397-.395 1.983-.913.385.05.702 0 .907-.025.405-.05.7-.126 1.163-.175-.074.01.507.01.938 0-.137 1.294-.382 2.95-.333 4.844.074 3.13.2 6.31.533 9.51.015.08.038.16.053.24.523 2.4 1.255 4.41 1.958 6.44-.18.14-.35.3-.483.49-.37.52-.49 1.19-.32 1.81 1.4 5.43 3.25 10.72 5.13 15.93-32.73 5.24-56.68 9.06-98.2 13.33-.42.05-.8.21-1.11.46l-11.52-29.65c1.94-.34 3.86-.83 5.68-1.5 3.02-1.11 6.43-1.75 9.79-2.99 2.91-1.07 5.82-2.35 8.51-3.15 1.178-.35 3-.85 4.69-1.69.84-.42 1.66-.915 2.38-1.65.72-.73 1.36-1.85 1.34-3.126-.01-.54.09-1.3-.03-2.277-.11-.98-.58-2.23-1.57-3.146-1.01-.93-2.17-1.48-3.24-1.767-1.07-.29-2.04-.38-3.09-.555-3.534-.578-7.19-.35-10.49-.31-3.658.05-7.354-.315-11.27-.27-5.76.08-11.39.346-17.066.418-1.4.02-4.225-.126-6.97.054-1.372.094-2.724.28-4.003.66-1.275.38-2.574.95-3.453 2.23-.023.046-.05.085-.076.124-1.62 2.75-3.503 5.005-4.08 7.925-.29 1.46-.092 3.15.777 4.605.862 1.453 2.25 2.664 4.187 3.89 2.485 1.713 5.356 2.5 8.42 2.894 4.177.535 8.396.32 12.45.27.917-.01 1.836-.058 2.76-.12l3.79 9.77c-5.265 8.57-10.61 18.15-15.93 27.97-12.575-6.984-26.21-9.933-39.5-9.24-16.054.85-31.61 7.036-44.21 17.876-.193-.07-.4-.114-.613-.123-3.15-.117-5.6-.15-7.562-.053-1.96.1-3.43.31-4.64.71-.12.04-.22.14-.336.19-.396-.19-.835-.26-1.27-.19-.82.13-1.782.29-2.8.816-1.015.535-1.93 1.45-2.612 2.68-1.752 3.17-2.612 7.215-1.523 10.61.55 1.707 1.497 3.856 3.537 5.277.34.246.75.46 1.19.617-1.496 2.916-3.166 6.584-4.66 10.59-2.477 6.62-4.503 13.986-4.097 20.18.01.115.024.227.054.34.42 1.86 2.19 3.027 3.69 3.32 1.5.29 3 .133 4.434-.11 1.188-.2 2.296-.466 3.25-.71-.01.33-.01.65-.012.976-.24 25.244 13.475 47.32 33.74 58.422-8.71-.057-16.06-.12-17.904-.12-4.24 0-107.97.25-193.06.45v4.284c85.16-.205 189.012-.455 193.054-.455 2.403 0 14.014.127 27.73.2v-.024c2.85-.19 4.32-2.85.336-4.284-23.34-8.42-40-31.44-39.75-58.44.01-1.01.036-2 .095-2.998.045-.13.08-.27.093-.41.02-.213.02-.413-.02-.613 2.28-31.48 27.466-56.22 58.237-56.74.506-.01 1.025-.02 1.54-.02 10.12.1 19.64 2.803 27.946 7.496-.64 1.195-1.284 2.38-1.914 3.574-7.756-4.37-16.628-6.89-26.077-6.984-30.683-.29-55.785 25.2-56.08 56.74-.296 31.54 24.327 57.45 55.01 57.74 21.97.205 41.075-12.79 50.27-31.76l4.04.575c-6.83 14.99-19.353 26.62-34.66 31.995-2.013 2.26 1.24 4.007 2.78 3.397 6.634-.11 10.056.206 11.634-.19 7.764-1.94 18.804-.624 27.76-.624h99.34c6.02 0 14.256.815 20.26 2.017 5.565 1.113 11.766.8 17.606.444 3.587.17 2.41-4.703-1.34-4.537-26.43-6.384-46.01-30.983-45.73-60.242.2-21.29 10.864-39.945 26.884-50.794.5 1.28 1.01 2.553 1.53 3.827-14.69 10.2-24.407 27.43-24.59 46.99-.296 31.54 24.313 57.45 55 57.745 30.68.29 55.83-25.16 56.13-56.698.295-31.54-24.37-57.49-55.05-57.78-10.11-.1-19.607 2.605-27.815 7.4-.518-1.265-1.01-2.525-1.5-3.79 8.27-4.75 17.73-7.514 27.81-7.68.51-.01 1.012-.02 1.524-.014 32.776.31 59.17 28 58.855 61.9-.27 28.34-19.105 51.95-44.42 58.76-3.24.045-4.996 3.3-2.65 4.376.58-.007 1.24-.007 1.833-.01l-.03.13c.195-.044.386-.103.576-.15 18.6-.17 44.87-.27 49.094.79 8.248 2.06 18.58.065 26.03.065h81.39c2.64 0 5.277-.067 7.898-.16l-8.725-4.12h-80.6c-8.137 0-18.29 1.743-24.99.07-3.67-.92-18.992-1.115-34.246-1.07-1.245 0-2.436.006-3.653.01 21.43-10.376 36.38-32.705 36.62-58.647.26-27.314-15.86-50.928-38.92-60.943.56-.756 1.19-1.64 1.81-2.636 1.055-1.67 2.16-3.3 2.16-5.5-.006-.94-.616-1.76-1.51-2.037-3.03-.927-5.95-1.54-8.836-2.02.035-.06.07-.12.11-.185.955-1.727 1.444-3.856 1.415-6.176-.03-2.312-.56-4.44-1.57-6.14-.8-1.36-2.04-2.574-3.61-2.98-.26-.22-.58-.38-.94-.454-.64-.136-1.28-.175-1.9-.15-1.86.083-3.63.775-5.35 1.474-2.29.93-4.53 2.02-6.26 2.475-1.61.423-3.53 1.2-5.317 2.29-1.79 1.083-3.54 2.4-4.35 4.51-.467 1.218-.67 2.414-.32 3.56.096.31.224.58.36.83-8.55 1.334-16.484 4.127-23.62 8.097-.2-.587-.38-1.18-.58-1.768.32-.245.564-.56.7-.923.11-.01.245-.03.36-.07 1.145-.29 1.824-1.46 1.525-2.6-2.14-8.26-5.32-16.218-8.095-24.148 1.43-5.102 5.66-10.142 7.04-16.72 1.14-5.472-.29-10.155-3.58-12.713-2.057-1.6-4.67-2.29-7.487-2.06-.577.05-1.173.14-1.763.27.004-.038.017-.066.02-.096.16-.67.354-1.594.27-2.69-.082-1.1-.58-2.674-2.075-3.45-.21-.115-.41-.23-.63-.34-1.25-.655-2.7-.97-4.302-1.314-.98-.21-1.82-.37-2.612-.48-.04-.414-.16-.814-.343-1.18-.454-.88-1.176-1.39-1.79-1.71-1.236-.65-2.39-.81-3.044-1.02-6.255-2.06-15.23-3.642-21.616-4.375-.07-.01-.14-.025-.21-.03zm1.454 4.55c6.016.782 13.808 2.203 19.048 3.927h.024c.924.292 1.646.492 2.066.654-.102.23-.166.4-.205.468-.508-.136-1.802-.482-3.73-.507v-.015c-5.274-.68-12.667-1.333-17.657-2.42 0-.255-.005-.53.07-.885.07-.376.258-.806.384-1.22zm24.238 7.94c.093.02 1.647.195 3.028.493 1.45.313 3.1.855 3.237.924.137.072.27.146.405.214 0 .025-.023 0-.015.098.025.347-.053.967-.146 1.362l-.65 2.705c-.68 2.83-.49 5.4-.58 7.78-.16 4.24 1.07 7.59 2.26 10.97-.13.05-.27.1-.41.14-.38.12-.76.22-1.1.29-.68-1.99-1.32-3.788-1.75-5.73-.3-2.99-.43-6.02-.5-9.065-.04-1.62.71-4.04.44-6.596-.09-.87-.68-1.494-1.085-1.767-.4-.27-.705-.37-.984-.44-.564-.157-1.047-.19-1.525-.216-.8-.04-1.34-.01-1.81.027.01-.027.02-.11.04-.21.304-.16.6-.34.83-.58.13-.138.24-.29.347-.43zm-19.633.8c4 .06 8.98.426 12.36 1.26h.03c.3.074.3.074.53.123-.44-.02-.95-.02-1.53.054v-.015c-3.48-.015-8.16.18-11.46-.108-.02-.225-.07-.248-.06-.546.01-.23.08-.51.11-.76zm32.9 7.34c1.62-.04 2.98.44 4 1.23 1.8 1.402 2.91 4.078 2 8.443-.76 3.627-3.08 7.173-4.98 11.19-.51-1.625-.96-3.265-1.38-4.896-.19-.782-.8-1.373-1.54-1.568-1.07-3.09-1.94-5.684-1.82-8.78.06-1.776.03-3.364.14-4.834 1.29-.507 2.48-.766 3.56-.786zm-115.04 2.583c3.6-.05 7.3.318 11.27.264 3.43-.044 6.9-.225 9.75.244 1.18.19 2.05.302 2.66.468.6.162.96.318 1.46.777.18.17.15.16.2.5.04.33 0 .95.01 1.75-.01.01-.03.04-.12.13-.2.2-.65.53-1.23.82-1.17.58-2.81 1.07-4.01 1.43-3.06.91-6.02 2.21-8.76 3.22-2.886 1.07-6.328 1.72-9.795 3-3.414 1.25-7.404 1.82-11.39 1.87-4.15.05-8.19.22-11.85-.24-2.645-.35-4.92-1.05-6.61-2.21-.024-.02-.054-.04-.077-.06-1.6-1.02-2.43-1.878-2.783-2.48-.36-.6-.394-.94-.27-1.58.25-1.265 1.775-3.506 3.508-6.436 0-.004.01 0 .017 0 .015-.023.363-.33 1.14-.566.775-.23 1.874-.387 3.06-.47 2.38-.156 5-.03 6.734-.05 5.775-.08 11.4-.34 17.064-.414zm111.29 17.68c.05.025.1.06.16.08.72 2.48 1.52 4.93 2.36 7.363.03.3.13.6.29.86 2.67 7.69 5.67 15.16 7.72 22.7-.14.04-.28.09-.42.16-.94.48-1.54 1.04-2.12 1.43-.51.33-.84.44-1.06.48-3.03-10.96-7.7-21.42-10.64-32.02 1.01-.06 1.73-.4 2.64-.7.35-.12.7-.25 1.05-.37zm-112.67 15.776L308.08 225l-9.755 3.402c-3.584-4.106-7.43-7.51-11.19-11.39-.055-.055-.13-.113-.186-.162-2.71-2.236-5.49-4.25-8.34-6.05 4.75-8.78 9.48-17.34 14.17-25.138zM465 187.93c.13-.006.556.14 1.084 1.03.522.882.942 2.347.962 3.997.02 1.657-.366 3.13-.87 4.03-.502.903-.922 1.044-1.06 1.044-.13 0-.556-.13-1.082-1.01-.523-.89-.953-2.35-.978-4-.02-1.65.38-3.12.884-4.02.504-.9.924-1.05 1.06-1.05zm-5.58.76c-.44 1.33-.65 2.812-.63 4.375.02 1.724.31 3.326.882 4.74-.556-.086-1.112-.18-1.675-.268-.077-.014-.16-.01-.238-.014-1.45-.073-2.87-.112-4.29-.107-2.24.005-4.44.113-6.61.308-.1-.362-.28-.7-.56-.977-.33-.317-.46-.478-.5-.522v-.015c0-.074.04-.28.22-.76.18-.485 1.18-1.545 2.56-2.385 1.37-.835 3.07-1.523 4.2-1.82 2.32-.61 4.56-1.71 6.62-2.555zm-55.68 1.607c.56 1.553 1.12 3.095 1.655 4.643l-56.61 67.38c-3.43-2.858-7.71-4.675-12.53-5.037-.128-.008-.25-.028-.376-.038-.04-.005-.08.005-.11 0-.51-.04-1.02-.064-1.54-.07-.92-.008-1.83.04-2.72.133l-6.27.044-2.51-6.426 2.73-.898c.97-.278 1.64-1.508 1.4-2.593l-9.23-23.745c-.35-.795-1.16-1.31-1.95-1.22-.26 0-.51.048-.74.15l-2.83.977-7.695-19.81h.064c41.96-4.325 66.063-8.182 99.232-13.49zm3.263 9.41c.638 2.005 1.22 4.008 1.742 6.02.244.956 1.124 1.625 2.115 1.605.477-.004.95-.004 1.43-.014.684-.005 1.294-.156 1.836-.36.185.565.367 1.122.562 1.688-22.237 14.23-35.708 40.36-34.2 68.9v.016c.4 6.548 2.886 24.298 10.923 33.755.08.083.16.156.24.225 1.14.97 2.65 1.44 3.94 1.18 1.29-.262 2.17-1 2.84-1.69.51-.51.9-1.008 1.22-1.453 6.69 9.73 15.9 17.52 26.66 22.32-1.33-.11-2.62-.27-3.83-.51-6.36-1.28-14.7-2.12-21.1-2.12h-99.34c-4.77 0-10.42-.48-16.06-.5-4.38-.02-8.77.25-12.74 1.24-.36.08-.99.16-1.84.23 12.07-6.86 21.75-17.63 27.42-30.663l35.64 5.16c.066.01.14.016.2.02 7.8.26 13.92-3.09 17.766-8.07.51.41 1.04.826 1.523 1.22-.044.18-.064.354-.07.535 0 .18-.063 1.42-.053 2.596.01.59.03 1.175.1 1.74.03.28.08.566.17.894.092.325.102.755.86 1.365 1.97 1.59 3.21 3.065 5.443 3.56 1.123.243 2.524-.11 3.46-.87.925-.757 1.56-1.74 2.23-3.03.59-1.123.98-1.953 1.19-2.875.215-.927.09-2.177-.48-2.987-1.137-1.63-2.167-1.67-3.4-2.67-1.12-.907-1.92-1.92-3.656-2.357-.87-.22-2.08-.04-2.89.53-.083.06-.137.14-.216.2-.62-.5-1.254-1.02-1.912-1.54 2.198-4.35 3.06-9.39 2.56-14.32l-.015-.172-.015-.07c-.22-2.35-.79-4.613-1.66-6.72-.106-.262-.23-.526-.345-.79-.04-.087-.07-.164-.108-.253-.01-.028-.03-.053-.04-.076-.87-1.916-1.964-3.68-3.263-5.266l55.2-65.67zm46.39 1.99c1.343-.004 2.69.025 4.058.094 6.35 1.03 12.03 1.56 17.8 3.06-.24.54-.5 1.12-.87 1.7-.79 1.27-1.67 2.44-2.3 3.3-6.26-2.2-12.97-3.44-19.94-3.5-11.18-.1-21.7 2.79-30.87 7.94-.48-1.272-.94-2.552-1.4-3.83 9.73-5.514 21.08-8.69 33.54-8.74zm-214.927 1.754h1.13c11.24.09 22.635 2.97 33.27 8.92-.56 1.04-1.114 2.08-1.675 3.12-8.87-5-19.01-7.89-29.83-7.99-33.3-.31-60.86 25.89-63.88 59.4-.24.07-.45.11-.72.18-1.04.27-2.29.6-3.48.8-1.18.2-2.33.22-2.9.11-.16-.02-.24-.02-.28-.02-.24-4.97 1.51-11.89 3.83-18.09 2.37-6.33 5.31-12.04 6.83-14.36 13.39-20.13 34.57-31.455 56.6-32.026.38-.01.75-.01 1.12-.016zm177.666 9.28c.46 1.27.928 2.54 1.407 3.8-17.58 11.52-29.33 31.68-29.55 54.68-.12 12.62 3.26 24.45 9.19 34.52-.04.05-.08.08-.11.13-.22.27-.4.52-.59.78-.38.52-.78 1.06-1.13 1.42-.35.36-.63.47-.63.47l-.175-.11c-6.41-7.7-9.448-25.352-9.8-31.084-1.416-26.753 10.864-51.1 31.362-64.58zm-139.57 1.85c2.608 1.67 5.167 3.52 7.652 5.57l.015.02c3.38 3.48 6.64 6.51 9.63 9.79l-4.05 1.41c-4.26-5.31-9.31-9.91-14.97-13.624.56-1.05 1.13-2.095 1.7-3.145zm175.464 4.15c28.37.27 51.22 24.2 50.943 53.55-.28 29.36-23.58 52.86-51.95 52.59-28.37-.27-51.16-24.19-50.89-53.55.17-17.89 8.87-33.6 22.06-43.08 3.5 8.48 7.21 16.86 10.61 25.07 1.91 4.6 5.15 8.46 8.52 11.75l1.47 1.44c.24.238.48.46.72.688-.77 1.343-1.22 2.89-1.23 4.536-.05 5.084 4.04 9.36 9.15 9.41 5.1.05 9.29-4.15 9.34-9.233.05-5.083-4.07-9.35-9.17-9.394-1.907-.02-3.698.548-5.18 1.54-.22-.205-.44-.395-.657-.605-.485-.47-.97-.956-1.46-1.43-3.15-3.07-6.01-6.563-7.574-10.33-3.53-8.516-7.335-17.143-10.91-25.82 7.34-4.38 15.82-6.94 24.85-7.09.44-.01.884-.02 1.32-.014zm-212.114 1.18h1.328c8.75.09 16.987 2.4 24.17 6.45-5.908 11.14-11.675 22.02-17.12 31.59l-9.056.07h-.162c-1.997.2-3.896.76-5.625 1.61-.03.02-.058.03-.092.04-.025.02-.054.05-.08.06-5.106 2.44-8.77 7.486-9.29 13.37v.03c-.01.14-.03.28-.04.425-.073.974-.054 1.97.054 2.97.48 4.454 2.28 8.08 5.5 10.586.84.66 1.77 1.24 2.78 1.75l.01.016c1.72.97 3.63 1.64 5.67 1.92 1.51.34 3.11.58 4.86.756v.01l43.36 6.256c-8.73 16.952-26.09 28.422-45.95 28.23-28.37-.26-51.17-24.19-50.89-53.55.27-28.895 22.79-52.11 50.55-52.57zm-53.106 1.42c-1.69 1.7-3.31 3.51-4.857 5.39-.77-2.22-1.94-3.99-2.28-4.84-.01 0 0 0 0-.01.02-.01 0 0 .04-.01.7-.23 2.31-.44 4.91-.51.65-.01 1.39-.01 2.18-.01zm86.13.06c4.75 3.17 9.036 7.02 12.723 11.42l-4.03 1.41c-3.14-3.52-6.71-6.62-10.61-9.25.63-1.19 1.28-2.38 1.91-3.57zm-97.442 1.39c.067.22.11.48.19.67.673 1.72 1.708 3.16 2.22 4.66.505 1.47.63 2.72-.36 4.43-.694.97-1.187 1.24-1.314 1.27-.126.04-.108.06-.4-.14-.586-.403-1.583-2.04-1.914-3.08-.474-1.48.015-5.1 1.19-7.21.158-.286.275-.45.388-.59zm139.33 3.22c2.803 7.17 5.567 14.34 8.38 21.51-14.127 4.62-28.258 9.23-42.39 13.85-2.66-6.92-5.312-13.85-7.987-20.77 13.73-4.783 27.47-9.54 41.21-14.32l.387-.13.4-.134zm-45.757 2.68c2.993 2.04 5.772 4.4 8.282 7.027l-6.83 2.37c-.96.29-1.61 1.507-1.38 2.58l6.58 17.104-22.49.16c5.09-9.03 10.4-19.05 15.82-29.24zm49.614 23.59l2 5.14-18.13.14 16.14-5.276zm3.06 8.49c-6.56 4.14-10.98 11.45-11.05 19.72 0 .224.01.444.01.67l-6.83-.377c.28-2.364.43-4.75.46-7.19.04-4.34-.34-8.58-1.082-12.69l18.51-.133zm-22.73.16c.79 4.08 1.18 8.3 1.14 12.627-.02 2.38-.16 4.71-.44 7.01l-3.84-.2c.28-2.242.44-4.53.46-6.85.05-4.303-.39-8.492-1.23-12.54l3.92-.04zm-21.99.18l.97 2.514c.42 1.07 1.69 1.6 2.64 1.1l10.32-3.377c.85 3.9 1.28 7.965 1.24 12.14-.02 2.26-.17 4.468-.454 6.655l-35.695-1.904c.263-1.14.405-2.33.415-3.53.042-4.95-2.14-9.45-5.62-12.5l.52-.917 25.683-.186zm57.18.254c4.47.04 8.57 1.65 11.8 4.295l-4.09 4.867c-2.05-1.61-4.61-2.6-7.39-2.713-.01 0-.03-.02-.04-.02-.11-.02-.23-.035-.34-.04-.22 0-.43.003-.65.013-1.353.057-2.66.32-3.88.775l-2.312-5.943c1.86-.717 3.846-1.14 5.93-1.23.323-.015.655-.02.99-.015zm-94.52.975c.21-.01.41-.006.62 0 1.73.014 3.37.404 4.85 1.082-.49.85-.98 1.69-1.48 2.51-1.042-.43-2.184-.665-3.38-.68-5.102-.045-9.297 4.14-9.346 9.22-.046 5.085 4.06 9.36 9.17 9.41 2.13.02 4.085-.7 5.66-1.913l3.87.2c-2.25 2.843-5.71 4.67-9.557 4.634-6.667-.063-12.06-5.68-12-12.366.064-6.483 5.225-11.83 11.606-12.1zm83.78 2.245l2.4 6.16c-2.83 2.36-4.67 5.91-4.71 9.85 0 .374.02.75.05 1.12l-6.32-.33c-.01-.29-.013-.57-.013-.86.06-6.61 3.48-12.49 8.607-15.94zm-74.78 1.29c2.26 2.25 3.65 5.37 3.62 8.79-.01 1.153-.19 2.28-.502 3.35l-2.96-.16c.378-1 .59-2.08.607-3.2.02-2.36-.86-4.53-2.31-6.2.514-.85 1.037-1.71 1.554-2.585zm202.92.787c2.81.03 5.09 2.385 5.06 5.21-.02 2.83-2.35 5.14-5.15 5.115-2.8-.03-5.07-2.386-5.05-5.21.01-.63.13-1.22.34-1.78 1.03.85 2.03 1.67 2.92 2.543.42.41.56.89 1.47 1.778.54.58 1.37.82 2.13.62.77-.2 1.35-.808 1.53-1.58.186-.77-.073-1.578-.67-2.105-.292-.29-.5-.856-1.454-1.79-.936-.91-1.883-1.72-2.826-2.5.54-.19 1.114-.306 1.715-.3zm-102.58 2.06c2.64 3.358 4.21 7.605 4.17 12.17-.03 3.32-.91 6.447-2.42 9.18-1.71-1.28-3.456-2.533-5.12-3.76-.004-.003-.01-.01-.014-.01.8-1.664 1.258-3.515 1.27-5.462.027-2.614-.74-5.055-2.072-7.106l4.208-5.01zm-108.79.686c.41.01.8.07 1.18.167-.56.893-1.09 1.77-1.65 2.622-.64.994-.35 2.33.65 2.97 1 .64 2.32.35 2.96-.65.47-.716.92-1.46 1.39-2.204.34.7.53 1.48.53 2.307-.03 2.83-2.34 5.14-5.14 5.11-2.797-.024-5.072-2.38-5.044-5.21.03-2.822 2.34-5.13 5.14-5.11zm93.43 2.51c.15-.004.3-.004.45 0 4.795.045 8.678 4.064 8.634 8.89-.01 1.04-.21 2.02-.55 2.947-.785-.6-1.536-1.18-2.19-1.715-1.543-1.253-2.68-2.39-2.944-2.782-.44-.67-1.22-1.05-2.02-.96-.75.085-1.4.558-1.713 1.24-.31.69-.243 1.5.187 2.12.86 1.27 2.133 2.36 3.79 3.707.765.62 1.61 1.276 2.503 1.955-1.56 1.407-3.618 2.256-5.85 2.237-4.8-.043-8.69-4.08-8.65-8.9.04-4.674 3.766-8.53 8.36-8.726zm-79.23 10.51l36.566 1.97c-.76 3.576-1.867 7.008-3.28 10.27l-39.754-5.74c2.71-1.51 4.966-3.766 6.465-6.496zm40.74 2.185l3.884.2c-.723 3.82-1.797 7.508-3.173 11.03l-3.944-.56c1.4-3.4 2.49-6.97 3.238-10.67zm8.087.43l7.937.43c1.15 5.55 4.27 10.43 8.594 13.825l-19.68-2.834c1.373-3.66 2.433-7.48 3.15-11.42zm12.26.657l6.816.36c2.017 4.424 6.426 7.583 11.577 7.63 3.612.036 6.9-1.463 9.262-3.88 1.69 1.235 3.433 2.505 5.12 3.775-3.554 4.02-8.734 6.558-14.45 6.5-8.776-.08-16.144-6.23-18.326-14.39zm43.54 12.635c.185.148.66.445 1.645 1.247 1.25 1.006 1.98 1.513 2.29 1.66-.1.293-.28.717-.71 1.552-.52.983-.92 1.452-1.09 1.603-.146-.063-1.48-1.016-3.036-2.23-.03-.3-.05-.665-.055-1.1-.01-.67.025-1.13.04-1.63.308-.207.55-.49.723-.82.125-.23.105-.17.19-.28zm332.44 30.33c-1.59.014-3.35.23-5.673.7-3.56.712-7.61.22-11.92.263l-8.69 5.19c1.418-.16 2.815-.336 4.15-.56 5.11-.85 11.097.547 17.308-.7 5.88-1.17 6.43-.766 12.17.67 4.41 1.104 9.46.054 12.93.054h2.11c.106.03.21.045.326.055 2.77.26 8.36 1.334 12.63 1.334h22.07c4.083 0 8.06-.17 11.2.62 5.78 1.44 11.61-.62 15.7-.62h19.3c7.196 0 13.95-1.39 20.692-1.39 5.776 0 11.684-.68 17.25-.68.454 0 .918.02 1.377.04l-6.47-4.19c-4.186.2-8.3.544-12.165.544-7.307 0-14.064 1.39-20.695 1.39h-19.31c-5.255 0-10.632 1.76-14.65.754-4.043-1.014-8.31-.755-12.247-.755h-22.07c-3.51 0-8.98-1.01-12.23-1.32-.08-.01-.17-.01-.25-.01-.164-.04-.33-.05-.505-.05h-2.074c-4.16 0-9.01.786-11.886.07-2.842-.715-4.8-1.198-6.83-1.354-.503-.04-1.02-.06-1.55-.057zm213.077.16c-4.38-.013-8.76.255-12.72 1.246-3.663.917-8.072.893-12.54.776l-7.963 4.15c.337-.005.68-.015 1.016-.015 6.254 0 13.797.93 20.52-.75 7.764-1.94 18.804-.627 27.76-.627h53.803c6.01 0 47.26-.563 53.27.64 3.85.77 7.49 1.14 11.05 1.31v-4.34c-3.47-.166-6.84-.503-10.217-1.177-6.37-1.277-47.71-.74-54.11-.74h-53.81c-4.78 0-10.426-.48-16.065-.49z" fill="#fff" fill-rule="evenodd"/><path d="M349.595 103.216c-.635.035-1.24.4-1.567.953-.323.54-.357 1.26-.08 1.83 5.172 11.14 10.323 16.41 16.345 19.63 2.875 1.54 5.883 2.63 9.165 3.77 5.996.83 13.29 2.23 18.617 3.99.655.21 1.806.37 3.038 1.02.317.16.668.37.99.67l.485-.06c.487-.07.932-.13 1.322-.21.396-.08.615-.05 1.235-.39.153-.09.36-.19.64-.54.284-.35.576-1.23.338-1.92-.245-.683-.655-.916-.884-1.054-.24-.134-.38-.183-.51-.23-.54-.163-.89-.18-1.49-.22-.24-.02-.63-.03-.91-.045 1.15-.36 2.06-.61 2.94-1.11.22-.12.47-.25.77-.6.3-.35.73-1.27.43-2.12-.31-.84-.86-1.1-1.19-1.25-.32-.155-.6-.22-.88-.282-.19-.045-.39-.065-.58-.055-.777.054-1.49.62-1.715 1.363v.016c-.39.137-.496.186-1.004.347-1.14.36-2.496.78-3.775 1.27-1.276.48-2.46.95-3.464 1.82-.19.16-.434.39-.615.76-.08-.057-.17-.106-.26-.15-8.935-4.04-15.566-5.39-20.894-8.24-5.32-2.854-9.684-7.147-14.65-17.84-.32-.713-1.1-1.19-1.874-1.153zm46.347 38.268c-.048.063-.097.12-.146.184.146-.043.298-.092.454-.146-.074-.01-.292-.04-.307-.04zm-77.856 16.152c-.64.044-1.24.424-1.562.976-.323.556-.35 1.274-.07 1.85 5.695 11.856 12.55 25.786 15.7 37.89.434 1.66 1.005 3.33 1.752 4.966.054.113.083.235.136.348l.016-.015c.58 1.65 1.923 2.43 3.315 3.16 1.5.79 3.257 1.44 4.996 2 1.73.56 3.44 1 4.75 1.31.65.16 1.2.28 1.62.36.41.09.54.14.82.18 1.02.15 2.08-.63 2.23-1.64.15-1.01-.63-2.08-1.65-2.23.16.03-.21-.04-.59-.12-.38-.08-.92-.19-1.54-.35-1.24-.29-2.86-.71-4.47-1.23-1.61-.51-3.23-1.13-4.37-1.73-1.14-.6-1.57-1.33-1.488-1.01-.037-.12-.08-.24-.14-.35-.684-1.43-1.197-2.99-1.617-4.61-3.31-12.73-10.294-26.764-15.968-38.59-.33-.714-1.117-1.187-1.904-1.138z" fill="#fff"/><path d="M314.043 226.244c-13.735 4.776-27.475 9.54-41.21 14.326 2.675 6.92 5.326 13.842 7.992 20.767 14.126-4.615 28.258-9.224 42.388-13.844-2.818-7.162-5.577-14.35-8.38-21.518l-.404.137-.39.13z" fill="#e6e6e6"/><path d="M307.725 232.85c-1.534.166-1.95 1.997-1.52 3.252.826 4.03 1.43 8.208 3.508 11.83.897.914 2.538.5 2.826-.76.35-.947-.14-1.866-.68-2.583-1.43-3.48-1.82-7.28-2.6-10.94-.33-.51-.93-.86-1.54-.8zm-8.863 2.3c-2.666.93-5.186 2.402-7.88 3.17-1.563 1.69-1.007 4.374-.167 6.27 1.4 2.245 4.513 1.937 6.626 1.01.9-.25 2.08-1.43 2.88-.36 1 1.59-.45 3.426-1.95 4.046-1.55.805-3.62.542-4.98 1.67-1.13 1.563 1.16 3.486 2.65 2.587 3.58-.415 7.51-2.787 8.05-6.626.37-2.616-1.53-5.317-4.21-5.57-1.53-.332-2.85.55-4.13 1.22-.63.288-2.23.723-2.15-.45-.12-.56-.01-1.156.69-1.258 1.17-.2 2.13-.83 3.11-1.41 1.34-.49 3.47-1.11 3.347-2.9-.142-.85-1.002-1.51-1.86-1.41zm-16.4 6.294c-1.602.2-1.91 2.138-1.412 3.403 1.025 3.985 2.408 7.94 3.666 11.86.958 1.28 2.974.31 3.086-1.137.113-1.4-.863-2.636-1.132-4.01-1.11-3.08-2.007-6.234-2.69-9.403-.328-.49-.93-.77-1.52-.714z"/><path d="M335.957 57.035c-1.528.327-1.2 2.827-1.66 4.2-.43 3.666.224 7.695 3.198 10.185 3.837 3.745 10.625 5.312 14.927 1.45 2.407-1.6 4.732-4.02 7.88-3.48 1.783 1.322 2.203-3.966.592-3.23-9.083.265-15.602-8.055-24.36-9.14-.192.02-.392-.024-.577.015z" fill="#b3b3b3"/><path d="M279.38 101.532c-3.848 12.173-6.636 27.447-9.595 40.635 15.235 1.72 31.875 10.088 46.025 12.432l18.78 5.47 12.43-37.54-1.454-.36c-4.867-2.49-27.34-7.37-36.714-9.37-11.757-2.59-16.38-6.27-29.472-11.27z" fill="#ececec"/><path d="M277.895 106.55c-.966 3.463-1.86 7.106-2.72 10.817.58.205 1.202.318 1.846.318 3.08 0 5.6-2.54 5.6-5.607 0-2.772-2.06-5.102-4.72-5.527zm17.945 6.398c-3.066 0-5.58 2.54-5.58 5.605 0 3.072 2.514 5.61 5.58 5.61 3.07 0 5.595-2.538 5.595-5.61 0-3.066-2.524-5.605-5.595-5.605zm18.886 5.38c-3.066 0-5.58 2.54-5.58 5.607 0 3.07 2.514 5.61 5.58 5.61 3.07 0 5.596-2.54 5.596-5.61 0-3.067-2.525-5.607-5.596-5.607zm-32.172 1.875c-3.07 0-5.58 2.54-5.58 5.607-.002 3.066 2.508 5.61 5.58 5.61 3.066 0 5.59-2.544 5.59-5.61 0-3.067-2.524-5.607-5.59-5.607zm52.114 2.193c-3.067 0-5.58 2.54-5.58 5.61 0 3.067 2.513 5.606 5.58 5.606 3.07 0 5.596-2.54 5.596-5.606 0-3.07-2.525-5.61-5.597-5.61zm-33.218 4.365c-3.066 0-5.58 2.54-5.58 5.61 0 3.07 2.514 5.61 5.58 5.61 3.066 0 5.596-2.54 5.596-5.61 0-3.06-2.53-5.6-5.596-5.6zm-29.096 3.48c-.787 3.71-1.558 7.37-2.344 10.9.54.18 1.117.28 1.714.28 3.066 0 5.595-2.54 5.595-5.6 0-2.85-2.2-5.25-4.97-5.57zm18.188 6.44c-3.067 0-5.58 2.54-5.58 5.61 0 1.39.517 2.67 1.367 3.66 1.85.57 3.71 1.17 5.56 1.78 2.42-.61 4.24-2.82 4.24-5.43 0-3.06-2.53-5.6-5.6-5.6zm18.887 5.37c-3.08 0-5.59 2.54-5.59 5.61 0 1.98 1.05 3.74 2.62 4.74 1.05.31 2.09.59 3.13.86 2.98-.09 5.42-2.58 5.42-5.59 0-3.07-2.53-5.61-5.59-5.61zm19.94 4.08c-3.07 0-5.58 2.54-5.58 5.61 0 3.07 2.51 5.61 5.58 5.61 3.06 0 5.59-2.54 5.59-5.6 0-3.07-2.53-5.61-5.6-5.61z" fill="#d40000"/><path d="M304.473 3.543c-.362.015-.718.074-1.084.192-.74.228-1.52.892-1.83 1.645-.6 1.503-.05 2.412.2 3.198.2.62.29 1.025.35 1.338-1.2-.02-2.76-.035-4.4.36-1.03.25-2.14.66-2.99 1.66-.76.89-1.03 2.217-.85 3.492-.1 1.895-1.104 5.074.36 8.233-.22.75-.83 1.25-1.86 2.21-.6.57-1.336 1.29-1.72 2.44-.388 1.15-.206 2.56.44 3.84.022.04.042.09.066.13 1.087 1.82 2.54 3.97 4.246 6.2-.26.38-.515.75-.725 1.12-1.236 2.2-2.568 3.71-3.41 6.79-.707 2.56-1.688 5.21-2.46 8.04-.75 2.71-1.75 5.42-2.53 8.28-.796 2.86-1.57 5.68-1.89 8.78-.22 2.15-1.55 4.66-2.33 7.5-.677 2.45-1.64 5.135-1.94 8.035-.3 2.86-1.58 5.64-2.49 8.95l-2.22 8.11c-.67 2.43-.94 4.295-1.556 6.547-.58 2.1-.59 3.954-1.007 5.46-.17.65-.5 2.15-1.01 4.508-.515 2.36-1.158 5.38-1.808 8.406-.654 3.02-1.304 6.05-1.82 8.417-.52 2.37-.96 4.257-.99 4.38-.16.56-.037 1.19.305 1.66.35.474.906.78 1.49.806.03.01.06.01.095.01l1.614.447c2.93.803 5.65 1.3 8.41 2.06 3.19.88 6.933 1.453 10.1 2.3-.17.334-.24.72-.2 1.1.5 5.91 2.405 10.17 2.73 13.32.164 1.57.01 2.813-.71 4.2-.72 1.372-2.116 2.934-4.685 4.76-.01-.01-.57.33-1.22.66-.74.37-1.745.853-2.91 1.416-2.34 1.12-5.353 2.55-8.356 3.99-2.996 1.44-5.98 2.88-8.31 4.08-1.16.6-2.16 1.14-2.93 1.59-.39.23-.726.423-1.02.63-.22.155-.42.31-.67.59-.076.085-.15.13-.253.275l.048.03c-1.083 1.294-1.053 2.87-.83 4.28.24 1.515.77 3.078 1.364 4.568.595 1.483 1.264 2.885 1.79 3.945.27.53.503.977.674 1.3.08.16.15.3.2.39 0 0-.002 0 0 .007.008.02.008.03.01.04.018.03.027.06.03.07.4.95 1.638 1.437 2.58 1.03.95-.4 1.43-1.62 1.03-2.57-.102-.275-.112-.26-.17-.373-.056-.106-.12-.24-.2-.4-.168-.316-.39-.74-.64-1.244-.504-1-1.124-2.318-1.66-3.65-.538-1.34-.98-2.72-1.14-3.727-.13-.83.02-1.227-.03-1.23l.03-.03c.005-.005.005-.02.01-.025.01-.01.033-.03.043-.044.01-.01.022-.017.04-.027.15-.108.41-.264.744-.454.667-.39 1.62-.9 2.747-1.49 2.26-1.16 5.235-2.603 8.22-4.034 2.99-1.435 6-2.86 8.356-3.99 1.174-.565 2.19-1.054 2.97-1.445.78-.39 1.17-.55 1.71-.94 2.903-2.06 4.803-4.05 5.92-6.18 1.11-2.12 1.335-4.323 1.12-6.41-.416-4.01-2.145-7.762-2.663-12.683.18.09.36.176.52.27 4.958 2.792 10.388 3.066 14.62 4.813 5.597 2.32 11.6 2.707 16.81 4.138 2.42.67 5.618 1.697 8.167 2.468.13.805.823 1.478 1.63 1.596.804.116 1.66-.33 2.02-1.06.922-.455 1.332-1.725.853-2.637.64-1.986 1.6-4.9 2.72-8.333 1.62-4.937 3.22-9.805 3.63-11.284.67-2.446 2.07-4.85 2.916-7.925l1.66-6.02c1.48 1.707 3.05 3.11 4.74 4.35 5.503 4.045 11.81 6.214 19.74 11.26.57.4 1.36.46 1.98.144-.1.536 0 1.01.11 1.336.16.48.37.82.59 1.165.89 1.36 2.263 2.81 2.57 3.29.44.69.605 1.077.976 1.62.37.546.972 1.08 1.674 1.5.877.526 2.14.2 2.665-.665.52-.876.2-2.145-.67-2.67-.455-.275-.37-.22-.47-.36-.1-.15-.36-.68-.893-1.52-.35-.54-.69-.9-1.113-1.413 1.147.096 2.368.154 3.506.17.49.01.94.01 1.34-.01.395-.02.61.03 1.27-.216.165-.065.38-.13.71-.43.323-.3.743-1.13.602-1.847-.146-.715-.516-1.01-.723-1.18-.21-.17-.358-.234-.48-.3-.51-.236-.85-.31-1.43-.44-.24-.05-.64-.105-.918-.16 1.2-.2 2.15-.31 3.09-.68.24-.094.497-.18.848-.484.35-.3.907-1.17.726-2.05-.18-.88-.684-1.205-.99-1.405-.3-.2-.553-.3-.83-.4-.23-.09-.49-.14-.743-.13-.713.02-1.396.46-1.7 1.11-.404.08-.516.123-1.044.21-1.18.197-2.587.427-3.92.724-1.34.3-2.57.61-3.68 1.326-.21.136-.48.322-.71.66-.08-.065-.156-.124-.24-.178-8.28-5.266-14.66-7.536-19.53-11.11-2.09-1.54-3.985-3.304-5.71-5.73.523-1.68 1.09-3.404 1.573-5.16l2.29-8.34c.8-2.894 1.81-5.69 2.65-8.74.87-3.15 1.45-6.14 2.264-9.1.824-3 1.576-5.806 2.767-8.38.47-.995.81-2.035 1.1-3.076 1.09.156 2.22.31 3.416.48 1.54.22 3.02.42 4.15.58 1.13.16 1.715.24 2.03.27 1.01.12 2.04-.7 2.16-1.71.114-1.01-.707-2.03-1.712-2.14.13.012-.82-.106-1.948-.257-1.12-.158-2.616-.36-4.15-.578-1.043-.15-2.05-.3-3.046-.444.165-.78.345-1.532.53-2.22.66-2.39.874-4.88 1.03-7.16 1.494-.8 2.7-2 3.427-3.56.04-.09.1-.17.135-.26 3.97-6.674 6.31-15.96 3.41-23.54-.005-.02-.005-.04-.01-.052h-.013c-2.66-7.463-6.52-12.13-11.376-15.58-4.876-3.455-10.62-5.764-17.39-9.084-.03-.02-.06-.035-.095-.05-13.76-5.9-24.09-7.22-37.282-10.16-.07-.01-.143-.03-.216-.04-.384-.04-.745-.065-1.107-.05zm-6.465 38.107c2.637 3.05 5.645 5.976 8.74 8.04.83.84 1.723 1.602 2.676 2.306-.733 1.8-1.42 3.662-1.793 6.02v.015c-1.3 8.79-2.53 16.65-1.15 27.28l.06.23c.98 4.2 4.27 10.92 7.56 17.39 2.05 4.02 4.04 7.79 5.46 10.48-2.99-.56-5.8-1.15-8.2-1.8-7.33-2.02-14.35-5.13-21.67-7.15-2.43-.67-4.64-2.92-8.55-4.09-.07-.1-.17-.26-.49-.55l-.01-.01.78-2.8c.796-2.89 2.23-5.903 2.61-9.585.237-2.28 1.08-4.78 1.808-7.406.6-2.18 2.117-4.89 2.448-8.12.29-2.7 1-5.29 1.788-8.155.727-2.644 1.714-5.374 2.515-8.29.72-2.62 1.702-5.27 2.465-8.04.64-2.335 1.61-3.336 2.984-5.74zm14.858 12.513c3.735 2.037 7.877 3.424 11.632 4.576.013 0 .033 0 .053.01.04.01.08.03.12.04 2.39.92 4.66.6 6.63.13-.29 1.22-.49 2.57-.34 4.09.36 5.48 3 10.34 6.84 12.88 4.21 2.69 9.49 3.65 13.75 1.58.07-.03.14-.07.2-.11 1.43-.896 2.95-1.78 4.46-2.77.13-.08.24-.178.35-.28 1.09-1.104 1.81-1.64 2.61-1.568.18.02.36.015.535-.015h.055c.08.07.172.13.27.176-.156.59-.297 1.187-.43 1.78-.05-.01-.21-.03-.24-.04-.2-.04-.4-.053-.59-.04-.927.09-1.72.934-1.757 1.86-.034.93.693 1.824 1.607 1.985.02 0 .04.01.057.013-.22.754-.45 1.45-.735 2.07-.815 1.77-2.685 7.47-3.223 9.255-14.15.54-5.22 6.04-2 8.48-.647 2.09-2.058 6.81-2.678 9.074l-2.29 8.34c-.15.555-.32 1.126-.49 1.687-1.27-2.56-2.426-3.293-3.59-7.145-.23-.807-1.034-1.407-1.874-1.407-.607 0-1.198.314-1.55.802-.35.49-.466 1.147-.28 1.73 1.14 3.772 2.31 4.6 3.63 7.303-3.88-1.432-8.62-2.43-13.547-3.36-1.81-.34-3.632-.66-5.45-.99-1.164-2.36-4.05-7.62-7.024-13.473-3.234-6.356-6.476-13.38-7.174-16.278-1.27-9.92-.147-17.08 1.152-25.838 0-.005-.007-.015 0-.025.26-1.67.74-3.055 1.335-4.55zm23.502 3.707c.678-.02 1.322.068 1.952.297.064.02.128.04.19.054 2.77.7 5.953 2.51 9.25 4.34 3.29 1.83 6.708 3.71 10.385 4.31.005.01.01 0 .014 0 .96.17 1.92.22 2.84.15-.05.53-.09 1.06-.15 1.57-.25-.03-.5-.07-.75-.09-.2-.01-.39-.02-.61-.01-.11.01-.23 0-.42.03-.09.02-.22.03-.39.08-2.218.14-3.868 1.42-4.99 2.53-1.31.85-2.7 1.68-4.11 2.56-2.39 1.14-6.37.65-9.52-1.36-3.163-2.024-5.326-5.213-4.872-9.236.017-.147.017-.3 0-.444-.125-1.33.335-2.86.79-4.72.125-.01.247-.027.365-.03zm8.34 7.817c-.09.005-.177.015-.27.03-.742.11-1.4.698-1.7 1.23-.32.566-.784 1.245-.912 2.34-.06.55.02 1.298.46 1.913.434.62 1.093.976 1.738 1.152.776.215 1.532.298 2.314.03.786-.27 1.42-.996 1.646-1.646.45-1.304.092-2.256-.186-3.013-.117-.312-.323-.59-.59-.79-.03-.025-.43-.48-1.14-.885-.307-.176-.755-.386-1.36-.36zM279.483 103.9c.087.035.185.053.283.078 2.988.825 5.078 3.17 8.887 4.22 1.508.414 3.012.898 4.536 1.405 29.32 11.66 41.47 7.788 52.1 14.078-.73 2.52-1.42 5.15-2.13 7.71-.68 2.45-2.09 4.85-2.94 7.93-.28.99-1.96 6.18-3.58 11.11-.99 3.02-1.91 5.81-2.57 7.87-2.45-.75-5.61-1.75-8.1-2.43-9.41-2.77-22.726-4.36-30.548-8.58-4.69-2.64-11.036-3.09-15.27-4.26-2.954-.81-5.68-1.31-8.407-2.06l-.335-.09.575-2.64c.517-2.37 1.167-5.4 1.82-8.43.65-3.03 1.304-6.04 1.817-8.39.515-2.35.943-4.24.968-4.32.59-2.14.598-3.99.998-5.44.68-2.49.95-4.38 1.55-6.56l.32-1.174z" fill="#fff"/><path d="M308.794 37.19c-.84.016-1.65.572-1.958 1.354-.312.786-.102 1.743.503 2.328 4.63 4.557 13.39 9.757 20.23 10.387 1.11.1 2.23-.82 2.33-1.94.1-1.12-.82-2.23-1.94-2.34-4.74-.44-13.91-5.51-17.64-9.17-.41-.4-.98-.64-1.55-.63zm-4.444-15.404c-1.015.05-1.928.913-2.03 1.924-.104 1.01.62 2.046 1.606 2.295 7.608 1.94 17.734 4.175 26.523 7.157 8.79 2.984 16.05 6.954 18.12 10.978.46 1.074 1.9 1.586 2.94 1.054 1.04-.537 1.46-2.007.85-3.008-3.23-6.27-11.42-9.98-20.54-13.076-9.13-3.1-19.37-5.35-26.86-7.255-.21-.054-.42-.08-.63-.07zm7.39-8.002c-1.033.023-1.98.897-2.08 1.923-.11 1.03.642 2.075 1.654 2.304 7.607 1.94 17.733 4.17 26.527 7.15 8.79 2.99 16.04 6.97 18.11 10.99.52 1 1.9 1.44 2.89.93 1-.52 1.44-1.89.93-2.89-3.22-6.27-11.42-9.98-20.54-13.08-9.12-3.09-19.36-5.34-26.85-7.25-.21-.05-.41-.08-.63-.07zM305.57 7.6c13.004 2.867 22.834 4.186 35.87 9.757.035.015.06.024.094.04 6.855 3.36 12.436 5.663 16.757 8.725 4.34 3.082 7.53 6.865 9.97 13.75.01.014.02.034.03.05 2.28 5.912.33 14.55-3.22 20.4-.05.082-.1.175-.13.268-.76 1.83-2.94 2.944-6.13 2.392h-.01c-2.72-.44-5.86-2.056-9.11-3.867-3.2-1.778-6.5-3.72-10.01-4.644 0 0-.01.01-.02 0-.05-.01-.1-.03-.15-.05v.02c-2.953-1-5.68-.22-7.9.36-2.25.6-3.94.98-5.59.31-.06-.02-.113-.04-.172-.05-5.97-1.83-12.562-4.29-16.38-8.21-.102-.1-.214-.19-.34-.27-5.45-3.57-11.64-11.47-14.49-16.23-.29-.59-.243-.69-.213-.774.03-.095.218-.38.687-.817.93-.875 2.968-2.37 3.21-5.13.035-.415-.063-.845-.283-1.206-1.006-1.642-.3-3.95-.176-6.89.01-.182-.01-.37-.05-.55-.14-.554-.066-.45-.04-.48.03-.03.325-.25.91-.39 1.173-.28 3.096-.23 4.454-.24.26-.002.52-.06.75-.16.73-.31 1.4-.833 1.796-1.512.4-.68.51-1.405.5-2.005-.026-1.093-.35-1.903-.574-2.57z" fill="#2c2c2c"/><path d="M322.925 126.507c-.343.02-.674.123-.968.3-3.924 2.303-7.494 4.73-11.376 5.98-.13.04-.27.093-.4.16-.6.284-1.06.86-1.19 1.515-.13.654.07 1.36.51 1.855 3.47 3.95 6.57 7.314 9.48 11.445.56.8 1.7 1.133 2.6.753 3.57-1.52 9.18-4.464 12.7-5.518.99-.294 1.67-1.387 1.5-2.407-.25-1.573-1.01-2.34-1.91-3.482-.9-1.142-2.02-2.387-3.2-3.637-2.35-2.5-4.96-5.07-6.02-6.25-.43-.47-1.07-.74-1.71-.71z"/><path d="M322.402 129.52c-3.393 2.115-6.806 4.102-10.532 5.606 3.12 3.52 6.2 7.095 8.965 10.9 4.067-1.896 8.09-3.884 12.315-5.398-2.774-4.345-6.744-7.666-10.16-11.445l-.373.215-.215.122z" fill="#fff"/></svg>