<svg xmlns="http://www.w3.org/2000/svg" width="1038.745" height="339.153"><path d="M206.275 99.676c-.635.035-1.24.4-1.567.952-.323.548-.358 1.26-.08 1.832 5.172 11.142 10.323 16.41 16.343 19.638 2.88 1.543 5.887 2.632 9.168 3.774 5.996.83 13.29 2.238 18.62 3.985.653.21 1.805.37 3.036 1.02.318.166.67.376.992.67.16-.02.326-.035.482-.054.49-.063.933-.127 1.324-.2.396-.078.616-.055 1.23-.39.157-.084.367-.187.646-.533.282-.346.576-1.23.336-1.914-.243-.69-.653-.922-.883-1.06-.233-.136-.375-.185-.512-.23-.532-.165-.884-.18-1.484-.224-.234-.02-.63-.03-.907-.038 1.147-.367 2.066-.617 2.945-1.114.22-.128.47-.254.777-.6.306-.348.73-1.27.43-2.115-.31-.845-.856-1.104-1.184-1.26-.32-.156-.594-.22-.883-.283-.184-.043-.38-.063-.57-.053-.776.055-1.49.622-1.714 1.364v.014c-.39.136-.498.185-1.007.346-1.137.362-2.495.787-3.774 1.27-1.28.488-2.46.957-3.468 1.82-.19.167-.435.392-.616.768-.078-.06-.166-.108-.254-.153-8.935-4.04-15.566-5.39-20.894-8.24-5.322-2.853-9.687-7.15-14.652-17.843-.318-.714-1.1-1.193-1.875-1.154zm46.347 38.267c-.048.063-.097.122-.147.185.147-.043.3-.087.455-.146-.074-.01-.294-.034-.307-.04zM174.767 154.1c-.64.04-1.246.42-1.562.977-.323.556-.353 1.27-.07 1.845 5.695 11.856 12.55 25.786 15.7 37.89.434 1.66 1.005 3.33 1.752 4.966.054.113.083.235.136.348l.01-.015c.587 1.65 1.924 2.43 3.32 3.16 1.5.79 3.258 1.448 4.995 2 1.74.55 3.443.995 4.752 1.31.654.16 1.205.272 1.615.36.415.092.547.13.83.175 1.02.157 2.085-.63 2.236-1.646.16-1.016-.63-2.08-1.642-2.237.16.026-.205-.038-.59-.12-.382-.08-.92-.197-1.54-.348-1.24-.297-2.86-.717-4.467-1.23-1.61-.512-3.23-1.124-4.365-1.73-1.138-.598-1.568-1.336-1.484-1.015-.034-.117-.08-.235-.136-.347-.684-1.43-1.197-2.996-1.617-4.618-3.31-12.73-10.292-26.762-15.966-38.584-.33-.71-1.12-1.185-1.903-1.136z" fill="#fff"/><path d="M170.835 222.572c-13.735 4.775-27.475 9.54-41.21 14.326 2.68 6.914 5.33 13.843 7.993 20.767 14.126-4.614 28.256-9.23 42.387-13.843-2.817-7.17-5.576-14.35-8.374-21.524l-.41.142-.383.132z" fill="#e6e6e6"/><path d="M227.056 125.32c-.914-.01-1.74.562-2.046 1.422-.337.923-.8 2.15-1.075 3.52-.267 1.373-.4 3.013.47 4.575.288.518.776.89 1.35 1.032 1.028.26 2.145.494 3.308.704-.137.748-.293 1.61-.347 2.574-.063 1.185-.04 2.52.723 3.836.324.562.886.938 1.524 1.035 4.157.66 9.815.28 13.532.293.126 0 .258-.005.385-.03.86-.145 1.12.2 2.68.11.578-.035 1.393-.393 1.98-.91.385.048.71-.005.913-.03.4-.043.694-.122 1.162-.17-.074.005.503.005.938 0-.136 1.29-.38 2.95-.338 4.844.08 3.124.206 6.302.538 9.5.01.084.034.162.054.245.517 2.397 1.255 4.404 1.953 6.435-.174.132-.345.3-.476.484-.377.523-.494 1.187-.323 1.807 1.4 5.43 3.245 10.714 5.13 15.93-32.735 5.237-56.69 9.046-98.204 13.33-.42.042-.8.21-1.11.452l-11.526-29.65c1.94-.336 3.856-.824 5.677-1.5 3.018-1.112 6.43-1.74 9.78-2.982 2.91-1.074 5.82-2.357 8.515-3.16 1.174-.345 3-.844 4.684-1.684.845-.42 1.665-.912 2.384-1.645.717-.73 1.357-1.855 1.337-3.135-.005-.532.093-1.293-.025-2.275-.116-.975-.585-2.23-1.58-3.144-1.007-.927-2.165-1.478-3.24-1.767-1.072-.29-2.045-.378-3.09-.548-3.535-.582-7.192-.353-10.492-.308-3.658.05-7.354-.317-11.27-.27-5.767.074-11.392.342-17.065.416-1.407.02-4.234-.13-6.973.055-1.372.092-2.73.273-4.004.654-1.275.38-2.573.955-3.452 2.234-.03.04-.054.08-.084.123-1.615 2.747-3.5 5.004-4.08 7.924-.29 1.456-.09 3.15.775 4.6.87 1.454 2.256 2.67 4.19 3.897 2.48 1.71 5.356 2.5 8.423 2.89 4.17.537 8.393.322 12.446.27.917-.01 1.836-.06 2.754-.124l3.788 9.77c-5.258 8.58-10.605 18.15-15.927 27.975-12.57-6.98-26.2-9.937-39.5-9.234-16.046.845-31.603 7.032-44.205 17.867-.196-.07-.395-.112-.616-.117-3.146-.122-5.6-.15-7.56-.054-1.963.093-3.44.31-4.65.71-.115.04-.214.14-.33.184-.397-.19-.84-.254-1.275-.186-.816.13-1.783.29-2.793.815-1.014.533-1.932 1.45-2.61 2.675-1.76 3.176-2.613 7.22-1.524 10.617.542 1.704 1.495 3.848 3.53 5.273.348.245.757.46 1.192.616-1.49 2.915-3.16 6.58-4.658 10.585-2.476 6.622-4.5 13.99-4.098 20.187.014.113.03.224.054.337.424 1.86 2.196 3.027 3.696 3.316 1.5.293 2.993.137 4.43-.107 1.19-.196 2.298-.463 3.25-.708-.005.327-.01.65-.01.977-.34 36.085 27.813 65.724 62.907 66.055 26.068.245 48.64-15.762 58.66-38.804l35.645 5.152c.064.015.13.025.2.03 7.797.26 13.92-3.096 17.76-8.07.516.41 1.044.824 1.527 1.214-.047.174-.067.355-.067.536-.005.18-.064 1.42-.054 2.597.01.587.03 1.174.09 1.74.037.282.086.57.18.9.09.325.1.755.853 1.36 1.967 1.592 3.207 3.072 5.448 3.565 1.12.242 2.525-.114 3.454-.875.927-.757 1.562-1.743 2.236-3.02.585-1.125.976-1.96 1.19-2.878.21-.922.09-2.172-.482-2.99-1.14-1.623-2.164-1.66-3.4-2.66-1.118-.902-1.92-1.92-3.653-2.357-.868-.215-2.08-.034-2.89.537-.087.058-.136.136-.215.2-.62-.504-1.26-1.02-1.913-1.538 2.196-4.35 3.06-9.39 2.552-14.323-.007-.06-.007-.117-.01-.175-.007-.02-.017-.046-.017-.064-.218-2.35-.79-4.617-1.66-6.72-.107-.27-.228-.533-.346-.79-.037-.09-.067-.168-.106-.255-.014-.03-.03-.053-.04-.083-.873-1.91-1.967-3.67-3.265-5.26l55.196-65.677c.64 2.013 1.22 4.014 1.738 6.027.25.956 1.13 1.62 2.115 1.606l1.435-.014c.685-.01 1.295-.157 1.833-.36.19.564.37 1.12.56 1.69-22.234 14.226-35.7 40.36-34.192 68.9v.014c.4 6.55 2.88 24.297 10.923 33.755.074.083.15.15.24.224 1.13.967 2.65 1.44 3.94 1.177 1.286-.26 2.16-1 2.834-1.684.504-.513.89-1.01 1.216-1.46 11.387 16.567 30.055 27.465 51.266 27.665 35.093.33 63.862-28.764 64.204-64.847.258-27.315-15.86-50.923-38.922-60.938.552-.763 1.182-1.64 1.807-2.638 1.054-1.674 2.163-3.3 2.153-5.498 0-.943-.615-1.763-1.514-2.037-3.023-.932-5.943-1.542-8.833-2.02.04-.064.076-.123.11-.187.96-1.72 1.45-3.85 1.42-6.17-.03-2.32-.56-4.45-1.565-6.142-.807-1.363-2.047-2.58-3.614-2.984-.264-.22-.58-.385-.94-.46-.643-.13-1.276-.17-1.9-.145-1.863.077-3.63.776-5.354 1.474-2.29.932-4.536 2.016-6.26 2.475-1.606.426-3.525 1.202-5.316 2.29-1.79 1.085-3.538 2.403-4.353 4.507-.47 1.22-.674 2.418-.318 3.56.09.313.22.586.36.83-8.554 1.338-16.49 4.13-23.62 8.1-.2-.585-.39-1.18-.58-1.766.313-.25.557-.56.694-.922.117-.01.244-.04.362-.067 1.147-.293 1.82-1.464 1.527-2.607-2.14-8.262-5.326-16.216-8.1-24.146 1.435-5.103 5.67-10.14 7.04-16.72 1.144-5.478-.282-10.155-3.574-12.714-2.055-1.596-4.67-2.29-7.48-2.06-.58.05-1.17.14-1.767.27l.03-.1c.16-.664.35-1.59.267-2.69-.08-1.094-.584-2.67-2.073-3.45-.215-.11-.42-.226-.63-.334-1.25-.654-2.71-.967-4.31-1.314-.972-.21-1.817-.372-2.608-.484-.05-.41-.17-.814-.354-1.175-.45-.884-1.177-1.387-1.792-1.714-1.23-.645-2.388-.806-3.038-1.016-6.255-2.055-15.233-3.643-21.616-4.375-.07-.015-.14-.025-.213-.03zm1.46 4.552c6.01.782 13.808 2.202 19.048 3.92h.024c.918.294 1.646.494 2.06.66-.097.23-.16.395-.2.47-.508-.143-1.802-.485-3.735-.513v-.01c-5.273-.68-12.662-1.337-17.652-2.426 0-.26-.002-.527.067-.884.08-.375.26-.804.39-1.22zm24.238 7.94c.092.014 1.646.194 3.027.493 1.448.312 3.1.85 3.24.922.137.074.265.147.4.215 0 .024-.02 0-.014.093.03.35-.05.967-.146 1.367-.216.9-.44 1.802-.655 2.705-.684 2.837-.5 5.4-.59 7.788-.163 4.24 1.068 7.59 2.265 10.977-.144.044-.285.098-.416.147-.38.123-.768.222-1.1.29-.683-1.988-1.323-3.785-1.753-5.728-.304-2.988-.43-6.02-.504-9.063-.04-1.626.708-4.04.44-6.596-.094-.87-.684-1.494-1.084-1.768-.4-.273-.71-.366-.99-.445-.563-.15-1.045-.184-1.524-.21-.796-.042-1.34-.007-1.808.026-.008.015-.023.015-.028 0h.027c.01-.025.02-.107.04-.215.302-.155.594-.33.83-.575.13-.136.233-.282.346-.425zm-19.634.8c4.004.06 8.985.425 12.37 1.26h.023c.312.073.307.068.537.117-.445-.017-.947-.017-1.53.05v-.008c-3.475-.015-8.147.18-11.454-.108-.023-.225-.068-.25-.053-.552.015-.23.073-.508.107-.762zm32.9 7.334c1.626-.034 2.984.445 4 1.23 1.806 1.406 2.92 4.078 2.006 8.448-.756 3.628-3.076 7.168-4.975 11.19-.5-1.63-.954-3.265-1.38-4.902-.19-.776-.795-1.366-1.54-1.562-1.07-3.09-1.935-5.683-1.82-8.78.07-1.78.036-3.363.148-4.833 1.29-.507 2.485-.766 3.564-.79zm-115.04 2.583c3.605-.047 7.306.32 11.27.265 3.434-.043 6.895-.228 9.756.24 1.183.195 2.057.308 2.662.47.61.165.962.322 1.46.775.19.176.16.168.2.514.045.332.005.947.015 1.752-.01.005-.03.04-.122.133-.193.203-.642.52-1.23.813-1.17.586-2.805 1.08-4 1.436-3.053.91-6.013 2.21-8.752 3.223-2.886 1.063-6.327 1.718-9.8 2.997-3.407 1.26-7.397 1.823-11.386 1.877-4.154.054-8.193.23-11.845-.24-2.65-.34-4.92-1.044-6.612-2.21-.028-.016-.053-.035-.082-.055-1.596-1.01-2.422-1.87-2.783-2.474-.356-.6-.395-.937-.268-1.577.253-1.264 1.776-3.506 3.51-6.44 0-.004.01.006.01 0 .02-.02.366-.332 1.137-.562.78-.234 1.88-.385 3.066-.47 2.373-.16 4.995-.027 6.733-.052 5.776-.073 11.4-.342 17.064-.415zm111.29 17.68c.054.023.108.06.16.08.724 2.477 1.52 4.933 2.355 7.36.034.302.138.61.297.873 2.672 7.69 5.666 15.166 7.72 22.696-.14.04-.277.093-.414.16-.943.49-1.528 1.045-2.114 1.436-.508.337-.83.444-1.055.48-3.036-10.948-7.708-21.417-10.648-32.013 1.016-.054 1.73-.395 2.637-.698.362-.117.71-.25 1.06-.376zM149.6 181.99l15.298 39.337-9.757 3.398c-3.58-4.1-7.43-7.51-11.183-11.386-.06-.06-.126-.116-.19-.165-2.71-2.24-5.484-4.252-8.335-6.05 4.747-8.783 9.49-17.338 14.17-25.136zm172.216 2.262c.138 0 .562.147 1.084 1.03.528.89.943 2.354.968 4.004.018 1.65-.372 3.13-.874 4.03-.504.896-.924 1.04-1.055 1.044-.14 0-.564-.133-1.087-1.016-.527-.89-.958-2.354-.978-4.004-.023-1.65.382-3.13.884-4.03.504-.9.924-1.054 1.055-1.058zm-5.58.767c-.44 1.32-.65 2.804-.63 4.372.024 1.723.317 3.325.883 4.736-.56-.084-1.11-.177-1.67-.27-.086-.01-.16-.01-.247-.01-1.445-.07-2.86-.11-4.282-.107-2.236.006-4.442.113-6.61.308-.097-.36-.277-.696-.56-.975-.328-.323-.46-.48-.498-.523v-.015c.005-.072.043-.277.228-.76.19-.485 1.18-1.548 2.56-2.383 1.378-.835 3.077-1.524 4.2-1.822 2.32-.61 4.566-1.708 6.626-2.553zm-55.68 1.6c.563 1.555 1.124 3.1 1.66 4.65L205.6 258.64c-3.422-2.855-7.705-4.67-12.53-5.028-.12-.015-.248-.03-.37-.038-.04-.005-.072 0-.107 0-.513-.045-1.02-.064-1.538-.07-.92-.01-1.826.035-2.72.132l-6.265.04-2.5-6.42 2.73-.9c.976-.282 1.64-1.51 1.406-2.597l-9.238-23.74c-.342-.8-1.162-1.31-1.953-1.225-.25-.005-.504.05-.737.147l-2.823.977-7.695-19.805c.02-.005.044 0 .07 0 41.95-4.326 66.063-8.184 99.226-13.496zm49.66 11.404c1.336-.005 2.684.025 4.05.092 6.344 1.027 12.028 1.55 17.804 3.053-.244.536-.502 1.12-.87 1.7-.795 1.264-1.67 2.435-2.304 3.295-6.26-2.203-12.97-3.442-19.94-3.51-11.182-.104-21.705 2.793-30.88 7.94-.48-1.276-.947-2.555-1.406-3.83 9.726-5.518 21.084-8.69 33.545-8.74zm-214.928 1.752c.376 0 .747-.003 1.123 0 11.248.084 22.64 2.97 33.28 8.917-.562 1.04-1.12 2.075-1.675 3.115-8.872-4.996-19.02-7.886-29.834-7.99-33.302-.31-60.864 25.89-63.882 59.4-.24.06-.46.103-.723.17-1.045.275-2.29.606-3.482.807-1.19.2-2.328.22-2.905.108-.16-.03-.233-.025-.278-.03-.24-4.97 1.502-11.885 3.826-18.095 2.363-6.328 5.308-12.035 6.827-14.36 13.383-20.13 34.57-31.455 56.6-32.026.372-.01.75-.016 1.124-.016zm213.628 7.003c32.774.31 59.17 28 58.848 61.9-.318 33.906-27.227 61.05-60 60.736-32.774-.307-59.102-27.944-58.784-61.845.2-21.293 10.87-39.945 26.89-50.795.502 1.28 1.01 2.554 1.522 3.83-14.682 10.2-24.398 27.43-24.585 46.99-.297 31.54 24.312 57.452 54.995 57.74 30.684.288 55.84-25.156 56.133-56.695.3-31.535-24.365-57.49-55.05-57.775-10.1-.098-19.603 2.607-27.81 7.397-.51-1.264-1-2.52-1.5-3.784 8.27-4.75 17.74-7.514 27.813-7.685.512-.004 1.016-.02 1.528-.01zM98.14 207.944c10.12.097 19.644 2.802 27.944 7.495-.635 1.195-1.28 2.38-1.914 3.572-7.754-4.37-16.62-6.9-26.07-6.987-30.683-.288-55.785 25.2-56.084 56.738-.292 31.534 24.326 57.452 55.01 57.74 21.972.204 41.08-12.788 50.274-31.763l4.042.576c-9.59 21.035-30.395 35.48-54.355 35.254-32.773-.308-59.116-27.944-58.798-61.85.01-1.007.036-1.998.094-3 .044-.13.074-.267.093-.414.024-.21.02-.41-.016-.615 2.28-31.472 27.467-56.22 58.238-56.73.51-.01 1.027-.02 1.54-.015zm174.81 1.112c.46 1.26.928 2.54 1.405 3.8-17.573 11.513-29.32 31.674-29.536 54.673-.124 12.625 3.254 24.45 9.192 34.52-.034.043-.074.077-.108.117-.22.268-.4.518-.59.777-.376.522-.767 1.058-1.123 1.42-.356.36-.624.468-.63.468 0 0-.13-.082-.176-.107-6.41-7.705-9.442-25.357-9.795-31.094-1.415-26.745 10.865-51.09 31.36-64.572zm-139.57 1.846c2.606 1.665 5.17 3.515 7.655 5.567l.015.014c3.384 3.48 6.64 6.498 9.634 9.784l-4.04 1.402c-4.25-5.303-9.305-9.908-14.964-13.623.56-1.05 1.137-2.1 1.7-3.145zm175.468 4.15c28.365.264 51.216 24.19 50.942 53.55-.28 29.355-23.58 52.852-51.95 52.588-28.362-.265-51.16-24.192-50.882-53.552.166-17.886 8.867-33.6 22.056-43.08 3.51 8.475 7.21 16.86 10.615 25.066 1.902 4.59 5.143 8.463 8.522 11.754.483.47.987.956 1.47 1.43.245.235.483.46.722.684-.77 1.343-1.215 2.89-1.23 4.537-.05 5.083 4.048 9.36 9.155 9.41 5.11.05 9.3-4.15 9.34-9.235.05-5.09-4.06-9.35-9.164-9.4-1.91-.015-3.7.553-5.18 1.544-.225-.206-.445-.397-.655-.607-.487-.473-.975-.955-1.46-1.43-3.15-3.07-6.01-6.562-7.577-10.332-3.53-8.52-7.33-17.15-10.908-25.82 7.344-4.38 15.82-6.943 24.86-7.094.438-.005.878-.015 1.32-.01zM96.734 216.23c.438-.005.884-.005 1.322 0 8.755.082 16.993 2.397 24.176 6.45-5.913 11.132-11.676 22.02-17.12 31.586l-9.062.07c-.06-.006-.103-.006-.16 0-2 .2-3.892.755-5.62 1.605-.03.018-.065.028-.094.04-.03.017-.053.04-.084.056-5.102 2.44-8.763 7.486-9.286 13.37v.028c-.015.14-.03.284-.04.425-.072.976-.06 1.972.054 2.973.49 4.45 2.28 8.082 5.5 10.587.843.653 1.77 1.235 2.786 1.742.005 0 .005.01.01.01 1.724.976 3.643 1.645 5.674 1.928 1.51.333 3.115.57 4.86.748v.014l43.367 6.25c-8.725 16.963-26.093 28.427-45.952 28.242-28.364-.268-51.16-24.194-50.884-53.55.27-28.9 22.797-52.11 50.556-52.572zm-53.11 1.415c-1.69 1.705-3.307 3.51-4.86 5.396-.76-2.223-1.938-3.99-2.275-4.84-.007-.01.002-.006 0-.016.03-.01.01-.005.04-.015.71-.234 2.305-.44 4.91-.508.653-.014 1.4-.014 2.18-.014zm86.127.054c4.758 3.17 9.046 7.02 12.73 11.42l-4.025 1.4c-3.146-3.516-6.71-6.627-10.616-9.248.633-1.192 1.28-2.38 1.913-3.575zm-97.433 1.39c.063.223.11.48.185.67.675 1.712 1.715 3.16 2.22 4.655.506 1.475.63 2.715-.36 4.434-.692.97-1.18 1.236-1.31 1.27-.13.034-.11.06-.4-.146-.584-.41-1.58-2.04-1.912-3.08-.478-1.48.015-5.094 1.192-7.214.155-.285.267-.452.385-.59zm139.33 3.212c2.804 7.172 5.563 14.346 8.38 21.508-14.13 4.62-28.262 9.24-42.39 13.854-2.66-6.924-5.31-13.853-7.99-20.77 13.734-4.786 27.474-9.548 41.21-14.323l.39-.13.4-.136zm-45.76 2.676c2.996 2.044 5.77 4.403 8.285 7.03l-6.825 2.37c-.963.29-1.61 1.506-1.378 2.58l6.582 17.105-22.486.16c5.087-9.027 10.41-19.046 15.82-29.246zm49.613 23.6l1.996 5.14-18.135.13 16.14-5.27zm3.05 8.484c-6.556 4.135-10.975 11.45-11.054 19.716 0 .226.01.445.015.67l-6.84-.377c.275-2.36.436-4.753.455-7.186.045-4.335-.337-8.58-1.084-12.69l18.51-.13zm-22.724.16c.786 4.077 1.178 8.296 1.138 12.622-.024 2.374-.165 4.708-.444 7.013l-3.84-.203c.284-2.246.435-4.53.455-6.855.04-4.3-.39-8.497-1.23-12.54l3.92-.04zm-21.992.17l.967 2.52c.41 1.065 1.69 1.597 2.638 1.1l10.318-3.374c.845 3.902 1.27 7.965 1.23 12.14-.02 2.26-.165 4.467-.454 6.65l-35.692-1.9c.26-1.138.4-2.324.41-3.535.05-4.946-2.138-9.444-5.62-12.5.17-.298.352-.61.523-.908l25.683-.19zm57.178.26c4.474.04 8.565 1.65 11.808 4.292l-4.097 4.873c-2.055-1.61-4.61-2.604-7.387-2.716-.014 0-.024-.013-.04-.013-.117-.02-.228-.04-.345-.04-.223-.003-.44.006-.66.016-1.355.054-2.66.318-3.88.776l-2.315-5.948c1.863-.713 3.854-1.143 5.93-1.23.326-.015.664-.015.99-.01zm-94.516.976c.205-.008.406-.003.616 0 1.723.016 3.36.407 4.844 1.086-.504.85-.992 1.69-1.485 2.514-1.05-.434-2.19-.67-3.39-.683-5.1-.05-9.29 4.14-9.34 9.223-.05 5.084 4.06 9.36 9.17 9.41 2.126.018 4.088-.704 5.66-1.914l3.867.2c-2.245 2.84-5.703 4.667-9.555 4.63-6.66-.06-12.055-5.675-11.99-12.365.062-6.483 5.22-11.83 11.605-12.1zm83.77 2.247l2.397 6.158c-2.836 2.364-4.67 5.91-4.71 9.853-.006.377.014.753.04 1.123l-6.32-.335c-.01-.284-.015-.57-.01-.855.06-6.61 3.476-12.49 8.604-15.942zm-74.775 1.285c2.256 2.25 3.64 5.375 3.61 8.794-.01 1.157-.192 2.285-.504 3.345l-2.96-.155c.377-1 .59-2.085.6-3.204.026-2.352-.853-4.524-2.3-6.194.515-.845 1.032-1.704 1.555-2.583zm202.92.792c2.8.023 5.08 2.377 5.058 5.205-.028 2.824-2.352 5.14-5.156 5.11-2.796-.025-5.066-2.38-5.043-5.206.004-.624.122-1.224.337-1.777 1.025.85 2.02 1.67 2.915 2.54.42.41.56.894 1.474 1.783.536.58 1.36.814 2.124.614.766-.2 1.347-.81 1.527-1.578.18-.77-.072-1.582-.67-2.105-.296-.286-.496-.852-1.46-1.79-.93-.914-1.88-1.724-2.82-2.505.536-.19 1.113-.297 1.714-.292zm-102.58 2.06c2.638 3.355 4.206 7.602 4.16 12.167-.03 3.317-.905 6.447-2.42 9.18-1.713-1.278-3.46-2.538-5.13-3.76-.002-.004-.002-.01-.01-.013.8-1.664 1.25-3.51 1.27-5.46.027-2.61-.74-5.054-2.072-7.108l4.204-5.007zm-108.79.683c.408.005.8.064 1.18.162-.557.89-1.1 1.77-1.646 2.62-.64.995-.35 2.33.644 2.973.992.64 2.315.352 2.955-.644.465-.72.93-1.46 1.397-2.21.332.695.527 1.48.517 2.3-.025 2.83-2.34 5.143-5.136 5.114-2.803-.025-5.073-2.38-5.05-5.205.03-2.83 2.34-5.14 5.14-5.114zm93.426 2.505c.146-.01.292-.005.44 0 4.8.044 8.68 4.063 8.632 8.887-.01 1.033-.21 2.014-.547 2.942-.79-.6-1.54-1.183-2.196-1.715-1.54-1.255-2.677-2.394-2.945-2.784-.436-.68-1.218-1.05-2.018-.966-.75.083-1.4.556-1.712 1.245-.312.686-.244 1.493.186 2.112.86 1.276 2.133 2.364 3.788 3.712.764.62 1.61 1.274 2.5 1.952-1.556 1.406-3.606 2.255-5.843 2.236-4.795-.05-8.696-4.083-8.647-8.903.044-4.673 3.77-8.536 8.364-8.726zm-79.236 10.52l36.563 1.967c-.757 3.574-1.86 7.007-3.277 10.264l-39.75-5.74c2.71-1.503 4.966-3.76 6.464-6.49zm40.743 2.183l3.877.2c-.722 3.818-1.797 7.504-3.17 11.03l-3.95-.562c1.4-3.4 2.495-6.97 3.243-10.665zm8.08.43l7.94.423c1.152 5.553 4.268 10.435 8.59 13.83l-19.674-2.84c1.364-3.655 2.424-7.48 3.142-11.414zm12.262.653l6.81.36c2.018 4.425 6.43 7.58 11.58 7.63 3.616.032 6.898-1.466 9.26-3.884 1.69 1.24 3.434 2.51 5.127 3.775-3.555 4.024-8.735 6.563-14.452 6.51-8.775-.085-16.148-6.236-18.325-14.39zm43.54 12.632c.18.152.66.45 1.645 1.245 1.245 1.01 1.983 1.518 2.29 1.66-.097.298-.274.723-.712 1.553-.513.98-.914 1.455-1.084 1.606-.143-.064-1.48-1.015-3.038-2.236-.025-.293-.048-.664-.053-1.094-.01-.668.023-1.127.038-1.636.31-.2.56-.487.726-.815.122-.23.107-.163.19-.28z" fill="#e6e6e6" fill-rule="evenodd"/><path d="M167.676 227.913c-2.656.845-5.088 2.423-7.793 3.062-1.753 1.416-1.002 4.02-.567 5.865.948 2.33 3.932 2.626 6.022 1.845 1.122-.13 1.967-1.338 3.115-1.143 1.288.563 1.283 2.398.292 3.238-1.537 2.017-4.38 1.67-6.41 2.71-1.29 1.255.346 3.374 1.928 2.984 1.91-.45 3.92-.825 5.517-2.08 2.38-1.534 3.91-4.66 2.69-7.413-1.035-2.79-4.945-3.834-7.24-1.98-.79.328-2.026 1.04-2.784.36-.112-.6-.346-1.58.538-1.72 1.61-.333 2.866-1.44 4.44-1.89 1.16-.41 2.664-1.686 1.81-3.01-.318-.53-.933-.878-1.558-.824zm-16.147 6.583c-2.28-.186-4.096 1.694-4.564 3.784-.395 1.72-.547 3.56-.26 5.302.723 3.21 4.465 5.89 7.662 4.337 3.646-2.55 4.55-8.52 1.484-11.85-1.13-1.186-2.71-1.69-4.326-1.576zm-12.274 3.266c-1.592.195-1.914 2.144-1.412 3.41 1.006 3.97 2.428 7.88 3.624 11.81.834 1.202 2.74.567 3.04-.766.425-1.377-.687-2.594-.9-3.926-1.16-3.213-2.14-6.48-2.825-9.8-.327-.488-.937-.782-1.53-.728zm12.68.167c1.915.01 2.555 2.3 2.256 3.86-.22 1.04-.503 2.41-1.538 2.93-1.587.355-2.837-1.3-2.564-2.818-.012-1.314-.204-3.233 1.193-3.937.22-.013.44-.028.655-.038z" fill="#808080"/><path d="M192.636 53.495c-1.527.327-1.2 2.827-1.66 4.2-.43 3.67.225 7.7 3.2 10.185 3.836 3.745 10.624 5.312 14.925 1.45 2.41-1.596 4.734-4.014 7.884-3.48 1.783 1.326 2.203-3.96.592-3.23-9.083.27-15.602-8.05-24.362-9.14-.19.02-.39-.024-.576.015z" fill="#b3b3b3"/><path d="M135.732 99.555c-.913 3.29-.752 6.367-1.767 10.102-.4 1.455-.4 3.305-.99 5.45-.02.078-.45 1.967-.964 4.32-.51 2.354-1.17 5.367-1.82 8.394-.652 3.03-1.302 6.06-1.82 8.436-.233 1.07-.414 1.908-.576 2.637l.338.094c2.72.746 5.45 1.25 8.405 2.06.785.214 1.65.42 2.557.606 2.536-7.667 6.832-22.99 9.41-35.914.065-.426.225-.826.455-1.124l-13.224-5.058zm15.767 6.02c.065.347.07.712.01 1.06-2.55 12.787-6.62 27.436-9.276 35.63 2.105.415 4.298.89 6.373 1.616 2.552-7.86 6.664-22.62 9.164-35.17.04-.23.103-.452.19-.66l-6.464-2.473zm9.34 3.575c0 .156-.017.316-.04.47-2.546 12.752-6.608 27.342-9.265 35.55.09.044.182.082.27.13 3.906 2.204 8.3 3.47 13.374 5.57 4.794 1.985 11.376 2.034 17.104 3.61 2.49.685 5.713 1.09 8.16 1.837.664-2.06 1.58-4.848 2.573-7.87 1.61-4.932 3.3-10.118 3.573-11.11.847-3.076 2.258-5.477 2.93-7.925l1.97-7.172c.048-.18.107-.356.16-.536.21-1.255.367-2.125.523-2.97l-36.967-7.91-4.365-1.674z" fill="#199319"/><path d="M161.153.004c-.362.02-.718.073-1.084.19-.736.23-1.52.893-1.824 1.646-.602 1.504-.05 2.412.2 3.197.2.622.287 1.032.346 1.34-1.192-.02-2.754-.036-4.39.36-1.025.25-2.134.66-2.983 1.66-.757.894-1.03 2.217-.845 3.492-.102 1.892-1.103 5.074.362 8.23-.22.75-.83 1.25-1.86 2.21-.602.563-1.34 1.28-1.724 2.433-.386 1.157-.205 2.56.44 3.842.024.04.044.083.067.123 1.086 1.815 2.54 3.973 4.246 6.195-.26.375-.514.75-.724 1.123-1.234 2.19-2.566 3.71-3.41 6.786-.704 2.554-1.686 5.205-2.462 8.04-.747 2.71-1.748 5.42-2.534 8.274-.786 2.86-1.563 5.674-1.885 8.78-.22 2.142-1.55 4.657-2.33 7.5-.672 2.445-1.64 5.126-1.94 8.026-.294 2.86-1.58 5.644-2.49 8.955l-2.22 8.11c-.67 2.433-.936 4.3-1.552 6.544-.58 2.105-.59 3.956-1.005 5.465-.175.647-.503 2.146-1.015 4.51-.512 2.36-1.157 5.376-1.806 8.404-.655 3.026-1.304 6.052-1.82 8.416-.52 2.37-.96 4.253-.993 4.38-.157.56-.036 1.186.307 1.655.346.475.903.78 1.483.807l.1.015 1.615.44c2.93.806 5.654 1.304 8.408 2.06 3.19.88 6.935 1.46 10.103 2.305-.17.34-.238.724-.2 1.095.498 5.914 2.408 10.176 2.73 13.32.165 1.572.014 2.817-.708 4.205-.718 1.376-2.114 2.934-4.683 4.76-.01-.005-.57.332-1.22.66-.74.37-1.748.854-2.915 1.415-2.34 1.124-5.35 2.55-8.354 3.99-2.998 1.44-5.98 2.885-8.31 4.082-1.16.6-2.158 1.143-2.93 1.592-.39.23-.726.423-1.02.63-.22.154-.42.305-.67.59-.076.09-.15.135-.253.276l.04.03c-1.08 1.294-1.05 2.87-.826 4.282.24 1.517.767 3.075 1.364 4.565.596 1.49 1.266 2.884 1.793 3.944.268.532.502.976.67 1.3.086.16.155.3.204.39v.01c0 .014.005.03.01.044.014.023.024.052.03.062.4.948 1.635 1.436 2.58 1.03.95-.4 1.432-1.62 1.032-2.567-.108-.28-.118-.265-.177-.378l-.2-.4c-.166-.318-.39-.743-.64-1.246-.502-1-1.127-2.316-1.66-3.653-.537-1.34-.98-2.715-1.137-3.72-.134-.83.018-1.22-.03-1.23l.03-.03c.004-.006.004-.02.01-.025l.043-.04c.01-.014.022-.02.037-.03.153-.1.416-.258.75-.453.662-.39 1.615-.904 2.743-1.486 2.26-1.167 5.234-2.61 8.217-4.043 2.99-1.434 5.996-2.855 8.355-3.99 1.175-.565 2.19-1.053 2.97-1.444.78-.39 1.17-.55 1.712-.938 2.904-2.06 4.804-4.057 5.917-6.18 1.11-2.13 1.34-4.332 1.124-6.412-.416-4.014-2.145-7.77-2.668-12.69.18.087.362.175.523.27 4.955 2.79 10.384 3.065 14.62 4.817 5.594 2.314 11.6 2.7 16.81 4.136 2.416.66 5.615 1.69 8.164 2.46.13.804.825 1.473 1.63 1.59.806.12 1.66-.327 2.022-1.055.923-.46 1.333-1.724.854-2.636.64-1.994 1.595-4.91 2.72-8.34 1.615-4.937 3.217-9.806 3.627-11.285.67-2.446 2.07-4.85 2.915-7.925l1.66-6.02c1.48 1.705 3.05 3.11 4.735 4.35 5.51 4.044 11.818 6.212 19.746 11.256.567.4 1.36.46 1.98.146-.11.537 0 1.01.106 1.337.16.483.364.824.59 1.166.89 1.363 2.26 2.808 2.57 3.292.44.686.603 1.077.974 1.62.372.54.972 1.08 1.675 1.5.873.52 2.14.2 2.66-.67.52-.875.205-2.144-.67-2.666-.454-.27-.365-.21-.47-.362-.097-.147-.36-.673-.892-1.508-.353-.548-.69-.91-1.114-1.422 1.142.098 2.368.162 3.506.177.492.002.942.002 1.337-.016.4-.02.614.028 1.274-.215.166-.065.38-.124.71-.43.326-.304.746-1.134.6-1.846-.14-.715-.514-1.013-.724-1.18-.206-.17-.35-.233-.478-.29-.51-.245-.85-.32-1.436-.446-.234-.055-.63-.11-.908-.163 1.196-.2 2.148-.31 3.09-.68.24-.095.494-.18.845-.48.35-.3.904-1.17.723-2.05-.18-.88-.69-1.2-.992-1.4-.3-.207-.555-.305-.83-.407-.232-.094-.49-.14-.746-.134-.713.02-1.396.463-1.7 1.11-.404.085-.516.125-1.044.213-1.18.2-2.586.425-3.92.722-1.337.298-2.567.615-3.68 1.33-.21.13-.48.32-.71.653-.078-.064-.155-.123-.244-.176-8.276-5.264-14.657-7.534-19.526-11.11-2.09-1.532-3.984-3.304-5.718-5.725.533-1.68 1.1-3.404 1.583-5.167l2.29-8.34c.794-2.895 1.81-5.688 2.645-8.74.87-3.145 1.45-6.142 2.266-9.1.827-3 1.58-5.807 2.77-8.38.46-.996.806-2.037 1.1-3.077 1.087.16 2.22.313 3.412.485 1.538.215 3.018.42 4.15.57 1.128.157 1.714.236 2.032.27 1.01.117 2.04-.703 2.156-1.714.113-1.005-.707-2.02-1.714-2.14.133.017-.82-.1-1.942-.252-1.124-.156-2.618-.36-4.15-.576-1.046-.145-2.05-.296-3.053-.444.173-.78.348-1.532.54-2.22.66-2.39.873-4.88 1.03-7.16 1.493-.795 2.7-1.996 3.426-3.56.04-.086.098-.165.133-.252 3.973-6.68 6.31-15.958 3.41-23.545-.004-.015-.004-.034-.01-.054h-.014c-2.66-7.465-6.517-12.13-11.376-15.58-4.874-3.453-10.62-5.762-17.387-9.087-.03-.02-.066-.035-.095-.053C186 4.35 175.663 3.04 162.475.1c-.07-.018-.142-.033-.215-.043-.384-.038-.745-.068-1.107-.053zm-6.465 38.106c2.636 3.05 5.645 5.976 8.74 8.046.83.835 1.723 1.596 2.676 2.3-.733 1.806-1.426 3.663-1.793 6.025v.01c-1.3 8.797-2.535 16.64-1.15 27.28.016.08.036.154.055.228.98 4.2 4.272 10.918 7.563 17.388 2.047 4.018 4.04 7.783 5.46 10.478-2.993-.566-5.806-1.147-8.203-1.806-7.33-2.012-14.352-5.132-21.67-7.144-2.432-.668-4.644-2.925-8.555-4.097-.074-.098-.178-.264-.494-.55-.005-.006-.01-.006-.015-.01l.778-2.814c.797-2.89 2.232-5.903 2.613-9.584.234-2.27 1.084-4.776 1.806-7.398.6-2.19 2.115-4.893 2.446-8.125.286-2.7 1-5.293 1.785-8.154.727-2.637 1.714-5.365 2.515-8.28.72-2.63 1.703-5.274 2.464-8.05.64-2.332 1.61-3.333 2.984-5.74zm14.858 12.514c3.735 2.04 7.876 3.423 11.63 4.58.015.005.035.005.054.01l.117.043c2.383.914 4.66.602 6.627.133-.29 1.225-.494 2.577-.346 4.096.356 5.484 2.997 10.338 6.84 12.89 4.205 2.69 9.492 3.653 13.745 1.578.068-.034.132-.068.2-.108 1.43-.897 2.95-1.78 4.458-2.767.126-.087.24-.18.35-.287 1.093-1.104 1.807-1.64 2.607-1.568.18.02.36.015.537-.01h.054c.083.064.175.123.27.172-.152.59-.295 1.185-.43 1.78-.045-.01-.21-.034-.24-.04-.196-.043-.396-.056-.59-.043-.924.094-1.72.933-1.754 1.862-.035.926.693 1.82 1.607 1.98.013.005.038.01.053.015-.22.758-.45 1.456-.737 2.076-.816 1.767-2.686 7.47-3.223 9.254-14.15.54-5.215 6.04-1.997 8.48-.645 2.087-2.056 6.808-2.676 9.074l-2.29 8.34c-.154.552-.324 1.123-.495 1.684-1.27-2.558-2.427-3.294-3.59-7.146-.23-.807-1.034-1.407-1.874-1.403-.604.004-1.194.312-1.55.8-.353.494-.465 1.153-.28 1.73 1.14 3.773 2.31 4.6 3.63 7.304-3.88-1.43-8.62-2.432-13.546-3.36-1.817-.34-3.633-.664-5.45-.986-1.167-2.37-4.047-7.624-7.025-13.48-3.235-6.355-6.477-13.38-7.175-16.277-1.27-9.916-.147-17.08 1.148-25.83.003-.01 0-.02 0-.03.262-1.663.746-3.05 1.342-4.55zm23.5 3.71c.68-.02 1.324.065 1.954.293.064.02.127.04.19.054 2.77.707 5.952 2.508 9.25 4.34 3.29 1.83 6.707 3.71 10.384 4.31.005 0 .01-.005.015 0 .964.16 1.92.21 2.843.146-.044.527-.088 1.05-.146 1.562-.25-.033-.5-.072-.748-.092-.197-.014-.38-.02-.607-.014-.112.006-.234 0-.415.03-.09.016-.22.026-.385.078-2.217.133-3.867 1.422-4.995 2.53-1.303.85-2.695 1.68-4.106 2.56-2.388 1.137-6.372.643-9.517-1.368-3.163-2.023-5.327-5.21-4.872-9.235.014-.146.014-.293 0-.44-.128-1.333.33-2.865.79-4.725.122-.01.245-.025.362-.025zm8.34 7.813c-.087.005-.175.015-.267.03-.746.112-1.406.698-1.7 1.23-.326.567-.79 1.245-.916 2.344-.06.55.02 1.297.46 1.917.434.615 1.093.97 1.738 1.147.776.215 1.532.298 2.314.03.78-.268 1.42-.996 1.645-1.646.45-1.304.09-2.25-.184-3.012-.118-.313-.323-.592-.592-.792-.033-.023-.428-.478-1.137-.883-.31-.177-.757-.387-1.364-.362zm-65.224 38.213c.088.035.185.054.283.084 2.99.82 5.08 3.168 8.887 4.213 1.51.415 3.013.9 4.537 1.407 29.322 11.66 41.465 7.787 52.1 14.08-.72 2.516-1.425 5.143-2.128 7.706-.67 2.447-2.085 4.854-2.93 7.925-.273.99-1.958 6.177-3.574 11.11-.987 3.02-1.906 5.81-2.57 7.87-2.446-.748-5.61-1.753-8.095-2.436-9.41-2.777-22.725-4.365-30.547-8.58-4.69-2.645-11.036-3.09-15.27-4.26-2.954-.81-5.684-1.31-8.408-2.06l-.332-.09.576-2.64c.518-2.37 1.168-5.406 1.82-8.43.65-3.026 1.305-6.038 1.818-8.39.512-2.356.942-4.25.967-4.328.585-2.144.59-3.99.99-5.444.684-2.496.953-4.38 1.55-6.564l.32-1.177z" fill="#fff"/><path d="M165.474 33.656c-.84.01-1.65.566-1.958 1.348-.312.786-.104 1.743.503 2.328 4.635 4.562 13.395 9.757 20.23 10.387 1.12.104 2.233-.818 2.335-1.937.107-1.118-.816-2.226-1.933-2.334-4.736-.435-13.91-5.508-17.638-9.17-.405-.4-.97-.635-1.542-.625zm-4.444-15.41c-1.015.05-1.93.913-2.03 1.924-.11 1.015.62 2.046 1.605 2.295 7.603 1.94 17.735 4.175 26.524 7.157 8.79 2.99 16.052 6.954 18.122 10.978.464 1.074 1.905 1.586 2.945 1.054 1.04-.532 1.46-2.007.853-3.008-3.222-6.27-11.42-9.98-20.54-13.076-9.12-3.095-19.366-5.346-26.85-7.255-.206-.054-.416-.074-.63-.07zm7.388-8.002c-1.03.023-1.978.897-2.08 1.928-.108 1.025.644 2.075 1.656 2.304 7.606 1.934 17.733 4.16 26.522 7.144 8.794 2.984 16.04 6.962 18.11 10.99.52.997 1.895 1.437 2.89.924 1.003-.518 1.44-1.894.924-2.89-3.223-6.27-11.42-9.982-20.54-13.077-9.122-3.1-19.366-5.35-26.852-7.256-.205-.05-.415-.074-.63-.064zM162.25 4.06c13.004 2.867 22.832 4.19 35.87 9.757.03.015.06.03.092.04 6.857 3.364 12.438 5.663 16.76 8.73 4.34 3.075 7.528 6.86 9.97 13.745.01.014.02.034.03.054 2.274 5.907.32 14.545-3.228 20.395-.054.09-.1.18-.138.27-.76 1.838-2.938 2.946-6.127 2.4h-.018c-2.72-.446-5.86-2.06-9.11-3.873-3.204-1.778-6.51-3.715-10.016-4.644-.005 0-.014.006-.024 0-.054-.008-.098-.038-.146-.053v.014c-2.964-1-5.684-.225-7.902.362-2.255.6-3.945.98-5.59.307-.058-.018-.117-.038-.176-.053-5.97-1.83-12.565-4.286-16.38-8.217-.105-.103-.217-.19-.34-.27-5.454-3.573-11.64-11.464-14.49-16.234-.29-.59-.246-.69-.217-.778.03-.088.216-.377.684-.817.933-.873 2.97-2.367 3.214-5.126.035-.416-.063-.846-.283-1.2-1.006-1.65-.302-3.957-.176-6.897.01-.184-.008-.37-.053-.545-.136-.563-.062-.455-.038-.485.03-.033.32-.248.912-.39 1.17-.283 3.094-.23 4.452-.24.26-.004.512-.058.752-.16.728-.303 1.397-.835 1.792-1.514.4-.674.506-1.406.496-2.006-.03-1.094-.352-1.905-.576-2.57z" fill="#2c2c2c"/><path d="M182.817 120.73c-.337.02-.668.123-.962.298-3.925 2.305-7.495 4.733-11.376 5.983-.144.04-.277.095-.4.164-.61.283-1.06.86-1.196 1.513-.13.655.064 1.362.51 1.856 3.47 3.95 6.566 7.315 9.476 11.446.553.8 1.7 1.13 2.594.75 3.57-1.517 9.175-4.467 12.705-5.516.99-.293 1.67-1.387 1.5-2.407-.267-1.572-1.018-2.338-1.917-3.48-.9-1.143-2.02-2.39-3.2-3.64-2.356-2.503-4.964-5.072-6.024-6.253-.425-.474-1.074-.743-1.714-.71z"/><path d="M182.295 123.743c-3.394 2.115-6.806 4.103-10.533 5.607 3.12 3.52 6.202 7.093 8.97 10.897 4.063-1.894 8.092-3.88 12.31-5.395-2.773-4.346-6.738-7.666-10.156-11.445l-.37.215-.22.12zm536.815 34.634c-.644.04-1.244.42-1.566.978-.323.556-.35 1.274-.07 1.85 5.695 11.855 12.555 25.786 15.7 37.89.435 1.66 1.006 3.33 1.757 4.966.05.116.08.238.136.35l.015-.014c.58 1.65 1.924 2.42 3.32 3.158 1.494.792 3.25 1.442 4.99 1.993 1.74.556 3.44 1 4.75 1.314.655.156 1.207.27 1.62.36.41.088.55.13.83.176 1.017.152 2.08-.63 2.234-1.645.156-1.02-.63-2.084-1.647-2.235.162.023-.205-.04-.585-.123-.38-.08-.916-.2-1.54-.344-1.24-.298-2.858-.723-4.47-1.23-1.61-.514-3.22-1.13-4.364-1.73-1.137-.6-1.567-1.338-1.485-1.015-.033-.12-.076-.24-.13-.35-.69-1.427-1.2-3-1.62-4.614-3.31-12.736-10.29-26.765-15.968-38.59-.326-.714-1.117-1.187-1.9-1.14zm84.61-87.637c-.292-.014-.526.05-.707.093-.362.09-.615.21-.884.348-.91.44-1.366 1.638-.98 2.57-.22.367-.263.47-.56.924-.678 1.035-1.49 2.26-2.197 3.48-.71 1.226-1.338 2.374-1.578 3.72-.018.114-.033.25-.038.393-.343.092-.655.277-.9.532-12.592 12.93-23.304 17.953-39.51 17.32-1.06-.066-2.08.862-2.12 1.927-.04 1.06.908 2.06 1.973 2.075 17.145.67 29.49-5.13 42.536-18.524.078-.08.15-.162.215-.254.34.493.81.757 1.155.913.473.215.883.303 1.298.372 1.656.277 3.726.242 4.308.35.83.146 1.23.302 1.904.4.67.098 1.506.01 2.316-.23 1.006-.297 1.65-1.485 1.352-2.49-.3-1.006-1.485-1.65-2.49-1.352-.53.156-.42.12-.606.097-.18-.03-.768-.186-1.778-.36-.586-.11-1.22-.14-1.836-.177.87-.797 1.768-1.67 2.573-2.515.347-.37.66-.713.923-1.03.264-.318.46-.44.738-1.113.067-.167.16-.397.156-.856 0-.464-.332-1.352-.977-1.742-.64-.392-1.128-.323-1.402-.28-.276.04-.427.108-.565.162-.537.215-.815.434-1.322.786-.207.147-.528.4-.763.577.684-1.045 1.265-1.852 1.646-2.823.096-.245.193-.512.212-.99.02-.48-.25-1.49-1.044-1.97-.397-.24-.748-.32-1.046-.33zm-4.99 9.835c.005 0 .035.005.04 0-.015.01-.084.063-.094.068-.04.02-.054-.038.054-.068z" fill="#fff"/><path d="M716.49 226.717c2.802 7.174 5.56 14.346 8.38 21.51-14.133 4.62-28.264 9.238-42.39 13.85-2.66-6.917-5.313-13.85-7.992-20.77 13.735-4.785 27.475-9.54 41.21-14.32l.39-.132.4-.138z" fill="#e6e6e6" fill-rule="evenodd"/><path d="M708.41 234.53c-2.242-.224-4.112 1.552-4.586 3.63-.494 1.907-.67 4.026-.16 5.96.965 3.624 6.34 6.04 8.9 2.564 2.64-3.194 2.787-8.81-.81-11.358-.958-.68-2.203-.83-3.345-.796zm-15.734 3.184c-1.675.253-1.87 2.26-1.602 3.613.21 1.953-.4 3.863-.405 5.825.022 1.412-.46 2.98.01 4.307.852 1.315 2.633.504 3.566-.29 1.07-.748 2.563-1.28 3.706-1.525.615 1.412.532 3.882 2.476 4.194 1.385.255 2.29-1.396 1.737-2.577-.367-1.397-1.235-2.554-1.617-3.922-.11-1.39-.34-3.562-2.112-3.72-1.427-.072-2.007 1.66-1.744 2.73-.87.366-1.753.694-2.64 1.03.034-2.992 1.15-6.16.057-9.057-.33-.434-.897-.65-1.434-.61zm16.06.235c2.02.02 2.583 2.502 2.235 4.08-.284.994-.543 2.37-1.65 2.743-1.53.224-2.692-1.383-2.423-2.833 0-1.33-.17-3.12 1.103-3.944.244-.035.492-.03.736-.048zM682.69 241.7c-1.567.228-1.884 2.128-1.386 3.378 1.01 4 2.43 7.955 3.652 11.885 1.05 1.393 3.335.122 3.125-1.484-1.252-4.35-3-8.606-3.83-13.04-.332-.513-.957-.8-1.56-.736z" fill="#820202"/><path d="M771.9 129.735c-.914-.01-1.74.562-2.046 1.42-.338.924-.802 2.15-1.075 3.52-.27 1.374-.4 3.015.465 4.577.29.523.778.89 1.353 1.03 1.025.264 2.143.498 3.305.713-.136.742-.292 1.61-.346 2.57-.065 1.185-.04 2.517.72 3.84.33.557.89.934 1.53 1.03 4.155.66 9.814.28 13.53.295.126.005.26-.005.385-.025.86-.152 1.12.195 2.68.102.578-.03 1.393-.39 1.98-.907.384.048.706-.005.91-.025.403-.05.695-.128 1.164-.177-.075.01.5.01.936 0-.136 1.295-.38 2.95-.337 4.844.08 3.125.205 6.304.536 9.503.01.082.035.166.055.243.52 2.398 1.256 4.405 1.955 6.437-.176.13-.348.297-.48.482-.375.523-.493 1.188-.32 1.808 1.4 5.428 3.24 10.712 5.126 15.927-32.733 5.24-56.69 9.053-98.2 13.33-.42.044-.803.21-1.11.454l-11.523-29.644c1.938-.34 3.853-.83 5.674-1.5 3.02-1.116 6.43-1.746 9.78-2.986 2.916-1.075 5.82-2.354 8.516-3.16 1.172-.346 3-.845 4.682-1.684.845-.42 1.665-.914 2.384-1.646.72-.733 1.36-1.85 1.34-3.13-.007-.536.09-1.3-.027-2.275-.117-.98-.585-2.23-1.582-3.15-1.005-.92-2.162-1.476-3.236-1.76-1.074-.287-2.046-.38-3.09-.55-3.536-.577-7.194-.352-10.494-.31-3.656.05-7.352-.316-11.27-.27-5.765.08-11.39.344-17.064.418-1.407.02-4.234-.133-6.973.054-1.373.093-2.73.28-4.004.66-1.276.38-2.575.952-3.453 2.23-.03.04-.053.084-.083.123-1.615 2.75-3.5 5.005-4.08 7.925-.29 1.46-.09 3.15.775 4.605.867 1.45 2.254 2.665 4.19 3.89 2.48 1.715 5.354 2.5 8.42 2.89 4.17.54 8.394.324 12.447.27.917-.01 1.836-.06 2.753-.117l3.79 9.77c-5.26 8.575-10.605 18.15-15.927 27.97-12.57-6.983-26.202-9.937-39.498-9.234-16.05.85-31.606 7.032-44.21 17.867-.194-.064-.394-.107-.614-.117-3.143-.117-5.6-.152-7.556-.054-1.963.096-3.438.31-4.65.71-.115.036-.214.14-.33.19-.397-.197-.84-.26-1.275-.19-.816.13-1.784.285-2.794.813-1.017.532-1.935 1.45-2.613 2.68-1.758 3.17-2.613 7.212-1.524 10.61.54 1.705 1.493 3.853 3.53 5.275.345.243.755.458 1.19.615-1.49 2.915-3.16 6.58-4.658 10.59-2.475 6.616-4.498 13.985-4.097 20.18.013.114.03.226.053.338.424 1.86 2.196 3.028 3.696 3.317 1.5.292 2.997.136 4.43-.103 1.19-.2 2.297-.468 3.25-.712-.006.328-.01.65-.01.978-.34 36.083 27.812 65.722 62.906 66.054 26.068.244 48.642-15.763 58.66-38.804l35.646 5.156c.063.01.13.02.2.024 7.796.26 13.92-3.095 17.758-8.07.517.41 1.045.824 1.528 1.22-.048.17-.068.35-.068.53-.005.182-.064 1.422-.054 2.6.01.59.03 1.17.092 1.738.035.283.084.57.177.898.09.328.1.756.854 1.368 1.967 1.59 3.207 3.066 5.448 3.558 1.118.245 2.524-.112 3.453-.868.927-.762 1.56-1.748 2.236-3.028.586-1.122.977-1.957 1.19-2.876.21-.923.09-2.173-.48-2.983-1.14-1.63-2.164-1.665-3.4-2.666-1.118-.903-1.92-1.92-3.653-2.354-.867-.22-2.08-.038-2.89.533-.086.06-.135.14-.214.2-.62-.504-1.26-1.02-1.913-1.54 2.197-4.35 3.06-9.39 2.553-14.32-.005-.06-.005-.117-.01-.17-.005-.026-.015-.05-.015-.07-.217-2.35-.79-4.614-1.66-6.72-.106-.267-.227-.53-.345-.79-.04-.09-.07-.166-.107-.254-.014-.028-.03-.053-.04-.077-.873-1.916-1.967-3.68-3.266-5.265l55.198-65.674c.638 2.008 1.22 4.01 1.737 6.02.25.96 1.13 1.623 2.114 1.608.482-.005.955-.005 1.434-.015.683-.004 1.293-.157 1.83-.362.19.57.372 1.125.562 1.69-22.237 14.23-35.703 40.363-34.194 68.903v.015c.4 6.547 2.88 24.296 10.922 33.755.074.082.15.15.24.223 1.128.973 2.646 1.442 3.935 1.183 1.29-.265 2.163-1.007 2.836-1.69.504-.514.89-1.01 1.217-1.46 11.385 16.566 30.052 27.465 51.264 27.665 35.09.333 63.86-28.76 64.202-64.844.26-27.314-15.86-50.926-38.92-60.94.55-.76 1.18-1.64 1.806-2.637 1.052-1.675 2.16-3.302 2.15-5.5 0-.937-.614-1.757-1.513-2.035-3.022-.928-5.942-1.543-8.832-2.022.04-.063.073-.122.108-.185.962-1.722 1.45-3.85 1.422-6.17-.03-2.32-.563-4.45-1.568-6.144-.807-1.362-2.047-2.577-3.615-2.983-.263-.22-.58-.38-.937-.454-.645-.137-1.28-.176-1.9-.15-1.865.08-3.633.774-5.356 1.473-2.29.932-4.538 2.02-6.26 2.475-1.608.425-3.526 1.2-5.318 2.29-1.787 1.083-3.536 2.402-4.35 4.507-.47 1.22-.675 2.416-.318 3.564.092.306.22.58.36.83-8.553 1.333-16.488 4.125-23.622 8.095-.2-.586-.386-1.18-.576-1.767.313-.244.557-.562.694-.923.116-.01.244-.04.36-.07 1.15-.292 1.823-1.464 1.53-2.606-2.14-8.26-5.327-16.217-8.1-24.146 1.434-5.103 5.668-10.142 7.04-16.718 1.143-5.474-.284-10.156-3.575-12.715-2.056-1.596-4.674-2.29-7.48-2.06-.58.05-1.174.14-1.77.27l.03-.094c.16-.67.35-1.597.268-2.69-.083-1.1-.586-2.676-2.075-3.457-.215-.11-.42-.22-.63-.334-1.25-.654-2.71-.966-4.31-1.314-.973-.21-1.818-.37-2.61-.476-.048-.414-.165-.82-.35-1.182-.45-.878-1.178-1.386-1.793-1.708-1.23-.65-2.388-.81-3.038-1.02-6.255-2.057-15.234-3.643-21.616-4.375-.073-.015-.142-.025-.214-.03zm1.46 4.55c6.01.782 13.807 2.204 19.047 3.922.005 0 .015.005.024 0 .92.298 1.65.498 2.065.66-.098.23-.162.4-.2.468-.51-.136-1.803-.484-3.737-.508v-.015c-5.27-.678-12.66-1.332-17.65-2.42 0-.26-.006-.528.063-.886.078-.375.258-.805.39-1.22zm24.238 7.94c.092.02 1.646.196 3.027.494 1.445.31 3.1.852 3.237.92.137.073.264.145.4.214 0 .025-.018 0-.015.093.03.35-.048.966-.146 1.366-.212.9-.436 1.803-.65 2.705-.684 2.84-.5 5.4-.59 7.79-.163 4.236 1.07 7.586 2.265 10.975-.143.05-.284.103-.415.146-.383.13-.77.225-1.1.293-.684-1.986-1.324-3.784-1.754-5.728-.307-2.987-.434-6.02-.507-9.062-.04-1.62.706-4.043.44-6.596-.09-.87-.686-1.495-1.086-1.77-.4-.273-.71-.365-.99-.44-.564-.155-1.046-.19-1.525-.213-.798-.045-1.34-.01-1.81.024-.008.015-.023.015-.028 0h.028c.01-.024.02-.107.04-.215.305-.156.597-.33.83-.57.134-.142.236-.29.35-.43zm-19.634.8c4.003.06 8.985.426 12.368 1.26h.024c.313.075.308.075.538.124-.445-.02-.948-.02-1.53.05v-.015c-3.475-.015-8.148.18-11.454-.107-.024-.226-.07-.25-.054-.55.015-.232.074-.51.108-.765zm32.9 7.335c1.626-.034 2.983.445 4 1.236 1.806 1.4 2.92 4.076 2.006 8.44-.756 3.63-3.076 7.17-4.975 11.194-.504-1.63-.958-3.268-1.383-4.898-.19-.78-.796-1.372-1.537-1.567-1.07-3.09-1.94-5.684-1.82-8.78.066-1.778.032-3.364.145-4.834 1.29-.504 2.485-.763 3.564-.79zm-115.04 2.584c3.605-.044 7.306.322 11.27.268 3.433-.045 6.895-.225 9.756.244 1.183.19 2.056.303 2.66.47.613.16.964.316 1.46.775.193.174.163.164.203.51.043.33.008.948.013 1.754-.01.01-.03.04-.12.132-.197.205-.646.527-1.232.815-1.172.586-2.808 1.08-4 1.436-3.055.907-6.015 2.21-8.754 3.222-2.886 1.064-6.328 1.72-9.8 2.998-3.408 1.26-7.397 1.82-11.386 1.875-4.155.055-8.194.23-11.847-.24-2.65-.34-4.92-1.043-6.61-2.21-.03-.014-.055-.034-.083-.054-1.598-1.01-2.423-1.87-2.784-2.475-.356-.6-.395-.937-.27-1.577.256-1.263 1.78-3.505 3.512-6.44 0 0 .01.005.01 0 .02-.02.367-.327 1.138-.56.78-.23 1.88-.387 3.066-.47 2.374-.156 4.995-.03 6.734-.053 5.776-.076 11.4-.345 17.065-.417zm111.29 17.68c.053.03.107.063.16.083.723 2.48 1.52 4.932 2.355 7.363.03.302.134.606.294.87 2.67 7.69 5.665 15.165 7.72 22.7-.14.04-.277.087-.415.156-.94.488-1.527 1.045-2.113 1.435-.508.34-.83.448-1.055.48-3.033-10.946-7.705-21.414-10.645-32.01 1.016-.053 1.728-.396 2.637-.7.36-.116.708-.25 1.06-.374zm-112.67 15.78l15.297 39.337-9.753 3.407c-3.584-4.108-7.43-7.51-11.186-11.393-.06-.058-.126-.11-.19-.16-2.71-2.242-5.484-4.248-8.335-6.05 4.746-8.785 9.487-17.338 14.17-25.137zm172.216 2.262c.138 0 .56.146 1.084 1.035.527.887.942 2.35.967 4 .02 1.65-.37 3.13-.87 4.03-.5.9-.924 1.046-1.055 1.046-.138 0-.562-.133-1.084-1.017-.53-.89-.96-2.354-.98-4.004-.02-1.65.384-3.13.886-4.03.504-.897.924-1.053 1.055-1.058zm-5.58.766c-.44 1.33-.65 2.808-.63 4.375.024 1.724.316 3.325.883 4.737-.557-.083-1.108-.175-1.67-.264-.083-.014-.16-.01-.244-.014-1.448-.074-2.864-.112-4.286-.107-2.236 0-4.442.11-6.61.304-.098-.36-.278-.7-.562-.977-.328-.318-.46-.48-.498-.524v-.014c.005-.074.044-.28.23-.763.185-.483 1.177-1.548 2.558-2.383 1.377-.835 3.076-1.523 4.2-1.82 2.32-.61 4.565-1.71 6.625-2.555zm-55.68 1.607c.563 1.55 1.124 3.093 1.66 4.64l-56.616 67.38c-3.423-2.858-7.705-4.675-12.53-5.036-.122-.015-.248-.03-.37-.04-.04-.004-.073 0-.108 0-.512-.037-1.02-.062-1.537-.067-.92-.012-1.83.033-2.72.13l-6.268.045-2.5-6.427 2.73-.898c.976-.278 1.64-1.51 1.406-2.598l-9.24-23.74c-.34-.797-1.16-1.31-1.95-1.22-.25-.006-.506.05-.74.145l-2.82.982-7.697-19.81h.07c41.953-4.327 66.064-8.184 99.23-13.492zm49.66 11.4c1.336-.007 2.684.023 4.05.092 6.344 1.03 12.027 1.547 17.804 3.05-.244.538-.503 1.12-.87 1.7-.795 1.265-1.67 2.437-2.304 3.296-6.26-2.204-12.97-3.444-19.94-3.51-11.182-.105-21.705 2.79-30.88 7.94-.48-1.276-.947-2.556-1.406-3.83 9.726-5.52 21.084-8.69 33.545-8.74zm-214.93 1.752h1.125c11.245.082 22.636 2.968 33.276 8.916-.56 1.04-1.116 2.074-1.672 3.114-8.87-4.995-19.02-7.886-29.834-7.99-33.3-.31-60.863 25.89-63.88 59.4-.24.06-.46.11-.725.176-1.046.27-2.29.602-3.48.802-1.193.2-2.33.22-2.907.108-.16-.03-.233-.025-.278-.025-.238-4.975 1.504-11.89 3.83-18.095 2.362-6.334 5.307-12.04 6.825-14.365 13.383-20.128 34.57-31.456 56.6-32.028.37-.008.747-.013 1.12-.013zm213.63 7c32.774.308 59.17 28 58.847 61.9-.317 33.907-27.226 61.05-60 60.743-32.773-.313-59.1-27.95-58.783-61.85.2-21.29 10.868-39.947 26.888-50.797.504 1.28 1.012 2.553 1.524 3.83-14.682 10.2-24.4 27.43-24.585 46.99-.294 31.54 24.314 57.45 54.998 57.74 30.684.29 55.84-25.158 56.133-56.695.298-31.54-24.365-57.49-55.05-57.78-10.102-.096-19.603 2.61-27.812 7.404-.507-1.266-1-2.526-1.498-3.79 8.27-4.75 17.74-7.515 27.81-7.686.513-.004 1.016-.02 1.53-.01zm-210.776 1.163c10.12.098 19.643 2.803 27.943 7.495-.635 1.198-1.278 2.384-1.913 3.575-7.754-4.37-16.622-6.9-26.07-6.986-30.683-.29-55.785 25.2-56.084 56.735-.293 31.54 24.326 57.45 55.01 57.74 21.972.205 41.08-12.788 50.274-31.763l4.042.576c-9.59 21.035-30.395 35.48-54.355 35.254-32.77-.31-59.113-27.945-58.796-61.847.01-1.01.04-2.002.098-2.997.045-.136.075-.273.093-.415.025-.214.02-.415-.015-.615 2.282-31.48 27.467-56.22 58.238-56.738.51-.005 1.026-.02 1.54-.015zm174.808 1.114c.46 1.264.93 2.54 1.407 3.8-17.576 11.513-29.325 31.673-29.54 54.676-.12 12.622 3.26 24.448 9.195 34.517-.033.044-.073.078-.107.122-.22.264-.4.512-.59.776-.373.518-.768 1.056-1.125 1.417-.356.362-.625.47-.63.47 0 0-.13-.084-.176-.108-6.41-7.7-9.443-25.358-9.796-31.09-1.414-26.754 10.866-51.1 31.36-64.58zm-139.57 1.845c2.613 1.665 5.172 3.516 7.657 5.566l.012.016c3.383 3.482 6.64 6.5 9.633 9.785l-4.038 1.408c-4.254-5.31-9.308-9.915-14.966-13.63.56-1.05 1.138-2.095 1.7-3.145zm175.47 4.15c28.364.264 51.215 24.195 50.942 53.55-.28 29.356-23.58 52.852-51.95 52.59-28.363-.27-51.16-24.196-50.883-53.55.17-17.892 8.87-33.605 22.06-43.087 3.51 8.474 7.21 16.86 10.614 25.066 1.905 4.59 5.147 8.46 8.525 11.753.483.473.987.956 1.47 1.43.244.234.483.46.722.682-.77 1.343-1.214 2.89-1.23 4.536-.05 5.083 4.048 9.36 9.156 9.41 5.107.05 9.297-4.153 9.346-9.235.045-5.08-4.066-9.35-9.17-9.4-1.91-.013-3.695.553-5.18 1.545-.224-.206-.444-.397-.654-.607-.49-.473-.976-.957-1.46-1.43-3.15-3.072-6.01-6.563-7.58-10.333-3.53-8.52-7.327-17.146-10.906-25.82 7.344-4.38 15.82-6.943 24.86-7.09.437-.01.877-.018 1.32-.014zm-212.115 1.178c.44-.005.884-.005 1.323 0 8.755.082 16.992 2.397 24.175 6.45-5.913 11.132-11.675 22.02-17.12 31.587l-9.06.07c-.055-.005-.104-.005-.163 0-1.997.2-3.89.76-5.62 1.606-.03.015-.063.025-.092.04-.03.014-.054.04-.084.054-5.102 2.44-8.764 7.484-9.286 13.367v.03c-.01.14-.03.283-.04.43-.073.97-.06 1.966.054 2.968.488 4.453 2.28 8.08 5.498 10.586.844.66 1.773 1.238 2.788 1.745.005.006.005.01.01.01 1.724.977 3.642 1.647 5.68 1.93 1.502.332 3.11.57 4.857.752v.01l43.364 6.25c-8.722 16.962-26.09 28.427-45.944 28.24-28.37-.263-51.167-24.193-50.89-53.55.275-28.895 22.795-52.108 50.553-52.572zm-53.11 1.42c-1.69 1.7-3.306 3.506-4.858 5.39-.766-2.225-1.94-3.988-2.28-4.843-.003-.01.005-.003 0-.013.03-.01.01-.005.04-.014.713-.23 2.31-.44 4.912-.508.655-.014 1.4-.014 2.182-.01zm86.128.055c4.755 3.16 9.042 7.014 12.73 11.413l-4.03 1.4c-3.144-3.513-6.708-6.62-10.614-9.246.637-1.19 1.28-2.377 1.917-3.568zm-97.436 1.39c.064.22.11.473.182.67.673 1.706 1.713 3.15 2.22 4.656.505 1.47.63 2.714-.36 4.43-.688.965-1.182 1.234-1.31 1.268-.13.04-.11.06-.4-.146-.585-.406-1.582-2.038-1.913-3.078-.48-1.483.015-5.097 1.19-7.216.158-.284.27-.45.388-.586zm139.33 3.206c2.8 7.174 5.56 14.347 8.38 21.51-14.135 4.62-28.266 9.238-42.39 13.852-2.66-6.92-5.315-13.854-7.995-20.773 13.735-4.785 27.475-9.54 41.212-14.32l.39-.132.4-.137zm-45.765 2.682c2.998 2.04 5.772 4.397 8.287 7.025l-6.827 2.368c-.962.294-1.61 1.51-1.377 2.584l6.58 17.104-22.484.16c5.088-9.026 10.41-19.046 15.82-29.24zm49.614 23.592l2 5.142-18.137.132 16.137-5.274zm3.053 8.487c-6.558 4.134-10.977 11.448-11.055 19.715 0 .225.01.445.013.668l-6.84-.375c.28-2.363.435-4.75.454-7.187.045-4.335-.336-8.58-1.084-12.685l18.513-.135zm-22.725.16c.784 4.076 1.175 8.295 1.135 12.62-.024 2.38-.165 4.713-.44 7.014l-3.84-.2c.28-2.247.433-4.53.453-6.85.037-4.308-.393-8.5-1.233-12.545l3.922-.04zm-21.995.175l.968 2.515c.41 1.07 1.69 1.596 2.637 1.1l10.316-3.375c.845 3.9 1.27 7.964 1.232 12.14-.02 2.26-.168 4.466-.456 6.648l-35.694-1.9c.26-1.137.4-2.323.415-3.53.045-4.95-2.143-9.447-5.624-12.504l.524-.91 25.682-.185zm57.18.254c4.47.04 8.563 1.65 11.805 4.296l-4.095 4.87c-2.056-1.614-4.61-2.605-7.39-2.716-.013 0-.023-.015-.038-.015-.117-.02-.228-.04-.346-.04-.224 0-.44.006-.66.015-1.355.054-2.66.322-3.88.776l-2.315-5.94c1.86-.72 3.852-1.143 5.934-1.236.32-.01.656-.015.984-.01zm-94.52.976c.206-.01.408-.005.618 0 1.723.014 3.36.405 4.844 1.084-.503.85-.99 1.69-1.485 2.515-1.05-.435-2.187-.67-3.388-.684-5.103-.043-9.293 4.14-9.342 9.225-.047 5.083 4.064 9.36 9.17 9.41 2.126.02 4.09-.703 5.66-1.914l3.868.2c-2.246 2.84-5.704 4.668-9.556 4.633-6.66-.064-12.057-5.68-11.993-12.37.063-6.483 5.224-11.83 11.606-12.1zm83.77 2.246l2.4 6.156c-2.84 2.364-4.674 5.914-4.714 9.854-.005.376.015.753.04 1.124l-6.318-.337c-.01-.284-.015-.568-.01-.855.058-6.613 3.476-12.492 8.603-15.943zm-74.774 1.284c2.255 2.25 3.643 5.376 3.613 8.794-.01 1.158-.195 2.285-.508 3.35l-2.958-.16c.375-.998.59-2.08.6-3.2.024-2.358-.855-4.53-2.3-6.202.512-.843 1.03-1.703 1.552-2.582zm202.92.79c2.803.03 5.083 2.38 5.06 5.206-.03 2.832-2.355 5.142-5.158 5.118-2.798-.03-5.068-2.384-5.044-5.21.004-.625.12-1.222.336-1.778 1.025.85 2.022 1.67 2.915 2.544.42.41.562.89 1.475 1.778.537.58 1.362.815 2.124.614.766-.2 1.35-.81 1.53-1.577.18-.77-.075-1.58-.67-2.103-.3-.288-.5-.855-1.46-1.792-.934-.91-1.88-1.724-2.824-2.505.538-.185 1.114-.298 1.715-.293zm-102.578 2.06c2.636 3.356 4.203 7.604 4.16 12.17-.03 3.32-.908 6.445-2.422 9.18-1.712-1.28-3.456-2.54-5.126-3.76-.005-.005-.005-.01-.01-.015.796-1.66 1.25-3.51 1.27-5.458.024-2.613-.743-5.055-2.075-7.11l4.202-5.006zm-108.79.685c.406.006.8.065 1.177.162-.556.893-1.1 1.772-1.645 2.622-.64.995-.35 2.327.644 2.972.99.64 2.314.352 2.954-.645.464-.717.927-1.46 1.396-2.207.338.7.53 1.48.52 2.3-.025 2.828-2.34 5.14-5.137 5.118-2.803-.03-5.073-2.382-5.048-5.21.028-2.827 2.338-5.136 5.14-5.112zm93.423 2.506c.147-.01.293-.004.44 0 4.8.045 8.682 4.063 8.633 8.887-.01 1.034-.206 2.017-.55 2.944-.79-.6-1.536-1.18-2.19-1.712-1.544-1.254-2.68-2.392-2.95-2.783-.435-.68-1.216-1.05-2.016-.966-.753.082-1.4.56-1.714 1.245-.31.687-.244 1.497.186 2.112.86 1.275 2.134 2.364 3.79 3.71.76.622 1.606 1.277 2.5 1.954-1.56 1.407-3.61 2.257-5.845 2.238-4.794-.046-8.695-4.083-8.646-8.903.043-4.67 3.768-8.53 8.363-8.724zm-79.233 10.518l36.562 1.968c-.756 3.576-1.86 7.01-3.276 10.27l-39.75-5.743c2.71-1.51 4.964-3.764 6.463-6.494zm40.742 2.183l3.878.2c-.723 3.82-1.798 7.506-3.17 11.033l-3.95-.563c1.4-3.403 2.495-6.973 3.242-10.67zm8.08.43l7.94.426c1.153 5.552 4.27 10.435 8.59 13.83l-19.674-2.838c1.37-3.657 2.43-7.476 3.146-11.416zm12.263.655l6.81.36c2.016 4.425 6.43 7.585 11.577 7.628 3.618.035 6.9-1.464 9.263-3.877 1.69 1.237 3.432 2.506 5.126 3.776-3.555 4.02-8.735 6.557-14.452 6.504-8.774-.083-16.147-6.23-18.324-14.39zm43.54 12.637c.18.147.657.444 1.644 1.245 1.246 1.004 1.983 1.513 2.29 1.654-.097.3-.273.724-.712 1.554-.51.986-.913 1.455-1.083 1.606-.143-.063-1.48-1.015-3.038-2.23-.026-.3-.05-.665-.055-1.1-.01-.67.024-1.128.04-1.635.312-.2.555-.483.722-.815.122-.23.107-.165.19-.278z" fill="#fff" fill-rule="evenodd"/><path d="M737.07 57.772c-1.522.338-1.18 2.84-1.66 4.204-.45 3.662.26 7.7 3.2 10.186 3.836 3.72 10.58 5.33 14.925 1.45 2.34-1.514 4.516-3.877 7.56-3.525 2.094 1.596 2.504-3.585 1.02-3.19-9.23.368-15.772-8.256-24.722-9.135-.108.02-.22-.024-.323.01z" fill="#b3b3b3"/><path d="M680.4 102.275c-.917 3.285-.756 6.366-1.768 10.102-.4 1.455-.4 3.305-.99 5.45-.025.076-.45 1.966-.962 4.32s-1.173 5.366-1.82 8.394c-.656 3.026-1.305 6.06-1.823 8.436-.235 1.063-.415 1.908-.576 2.636l.34.094c2.72.747 5.45 1.25 8.403 2.06.787.215 1.65.415 2.56.6 2.534-7.66 6.83-22.982 9.41-35.907.063-.426.224-.826.453-1.125l-13.223-5.057zm15.768 6.02c.067.34.072.712.008 1.06-2.55 12.787-6.616 27.436-9.272 35.625 2.105.42 4.297.892 6.372 1.62 2.554-7.865 6.665-22.622 9.165-35.17.037-.235.106-.455.19-.66l-6.46-2.475zm9.34 3.573c0 .157-.014.313-.04.47-2.543 12.753-6.605 27.343-9.262 35.547.088.05.18.087.27.136 3.905 2.205 8.3 3.47 13.373 5.57 4.792 1.987 11.373 2.035 17.102 3.61 2.485.687 5.712 1.092 8.158 1.84.665-2.06 1.583-4.85 2.574-7.87 1.613-4.933 3.3-10.12 3.57-11.11.85-3.077 2.26-5.48 2.935-7.926l1.965-7.172c.05-.18.108-.356.162-.537.21-1.255.365-2.124.516-2.97l-36.964-7.91-4.366-1.674z" fill="#fc0"/><path d="M705.494 4.286c-.358.015-.72.074-1.085.185-.736.238-1.52.897-1.825 1.65-.6 1.51-.048 2.416.2 3.202.202.62.29 1.027.353 1.34-1.197-.02-2.76-.036-4.39.36-1.03.25-2.14.66-2.99 1.66-.75.89-1.03 2.217-.838 3.49-.108 1.896-1.11 5.074.36 8.234-.224.747-.834 1.246-1.86 2.207-.605.563-1.343 1.286-1.73 2.438-.384 1.153-.204 2.56.446 3.844.02.04.038.078.063.117 1.083 1.818 2.543 3.976 4.242 6.2-.26.378-.512.755-.723 1.126-1.235 2.194-2.57 3.712-3.413 6.79-.704 2.552-1.68 5.204-2.46 8.04-.75 2.71-1.75 5.42-2.53 8.27-.786 2.862-1.567 5.675-1.89 8.78-.22 2.14-1.55 4.654-2.33 7.496-.67 2.446-1.64 5.13-1.937 8.033-.3 2.856-1.582 5.643-2.49 8.955l-2.222 8.11c-.67 2.426-.932 4.292-1.552 6.542-.577 2.105-.592 3.95-1.007 5.46-.176.654-.5 2.152-1.016 4.51-.512 2.365-1.152 5.382-1.807 8.41-.65 3.02-1.304 6.05-1.822 8.418-.513 2.362-.957 4.252-.992 4.374-.156.56-.033 1.186.31 1.66.345.473.902.78 1.488.8.03.01.06.01.093.015l1.622.443c2.925.804 5.655 1.303 8.403 2.06 3.193.88 6.934 1.454 10.11 2.3-.173.337-.247.722-.207 1.1.503 5.907 2.407 10.17 2.735 13.313.16 1.578.01 2.823-.713 4.205-.718 1.377-2.115 2.94-4.683 4.766-.01-.01-.57.333-1.216.655-.742.37-1.747.86-2.92 1.42-2.338 1.125-5.35 2.55-8.353 3.99-3 1.436-5.982 2.88-8.31 4.08-1.16.604-2.153 1.14-2.93 1.595-.385.225-.72.426-1.015.63-.225.152-.42.308-.668.586-.084.095-.157.14-.26.285l.045.024c-1.084 1.3-1.055 2.875-.83 4.286.238 1.515.766 3.072 1.362 4.562.6 1.49 1.264 2.89 1.796 3.95.266.528.5.976.67 1.3.085.16.157.296.2.384 0 .004-.004.01 0 .014.006.016.01.03.016.04.01.03.02.058.025.068.407.948 1.637 1.437 2.585 1.03.947-.4 1.435-1.62 1.03-2.567-.108-.278-.117-.263-.17-.375-.06-.113-.123-.244-.207-.4-.16-.318-.39-.743-.638-1.247-.505-1-1.125-2.318-1.66-3.65-.54-1.34-.984-2.716-1.14-3.727-.13-.83.02-1.22-.03-1.23.01-.004.02-.014.03-.024.005-.005.01-.02.015-.03l.04-.04c.01-.008.024-.013.04-.023.15-.107.42-.263.75-.46.665-.385 1.61-.902 2.745-1.483 2.254-1.162 5.228-2.608 8.216-4.043 2.984-1.43 5.992-2.856 8.35-3.985 1.177-.567 2.192-1.06 2.973-1.45.773-.386 1.164-.547 1.71-.933 2.902-2.065 4.8-4.058 5.914-6.187 1.114-2.124 1.338-4.327 1.123-6.41-.416-4.016-2.144-7.77-2.662-12.687.176.083.357.17.522.264 4.95 2.793 10.386 3.067 14.615 4.82 5.595 2.318 11.6 2.705 16.81 4.136 2.424.67 5.616 1.694 8.165 2.465.133.802.825 1.476 1.63 1.593.808.12 1.666-.325 2.023-1.06.923-.45 1.334-1.72.86-2.634.64-1.987 1.59-4.907 2.716-8.335 1.616-4.936 3.222-9.81 3.627-11.284.674-2.446 2.07-4.85 2.915-7.925l1.66-6.02c1.48 1.705 3.056 3.11 4.74 4.347 5.504 4.048 11.813 6.215 19.743 11.26.568.395 1.36.454 1.984.147-.107.536 0 1.01.103 1.337.16.485.37.826.59 1.164.89 1.36 2.26 2.812 2.568 3.295.44.687.607 1.074.978 1.615.375.547.976 1.085 1.674 1.5.875.522 2.143.205 2.666-.67.522-.87.2-2.14-.67-2.66-.458-.274-.37-.215-.468-.363-.102-.145-.36-.672-.898-1.512-.347-.542-.688-.908-1.113-1.415 1.148.092 2.368.156 3.51.17.49.01.938.01 1.34-.014.394-.02.61.035 1.268-.21.167-.063.38-.127.71-.43.327-.302.747-1.132.605-1.845-.146-.713-.512-1.01-.722-1.182-.21-.166-.356-.233-.484-.292-.507-.24-.845-.31-1.43-.44-.235-.052-.635-.106-.914-.16 1.197-.2 2.15-.312 3.097-.683.233-.093.487-.18.84-.483.356-.298.907-1.167.722-2.046-.18-.88-.69-1.206-.99-1.406-.3-.2-.56-.296-.83-.4-.236-.092-.495-.14-.75-.136-.71.025-1.395.47-1.697 1.114-.407.083-.518.126-1.045.215-1.183.195-2.59.425-3.922.723-1.335.297-2.56.61-3.68 1.322-.21.138-.48.323-.71.66-.075-.07-.154-.127-.24-.176-8.278-5.268-14.66-7.533-19.528-11.108-2.09-1.537-3.98-3.31-5.71-5.727.53-1.685 1.094-3.41 1.576-5.166l2.29-8.34c.796-2.902 1.813-5.69 2.65-8.74.65-2.38 1.15-4.67 1.7-6.92.758-.542 1.04-1.65.64-2.49.796-2.885 1.544-5.587 2.69-8.072.465-.996.806-2.036 1.1-3.076 1.09.156 2.22.313 3.413.48 1.538.22 3.02.42 4.15.575 1.128.156 1.715.23 2.03.27 1.01.116 2.04-.705 2.16-1.715.11-1.01-.703-2.026-1.714-2.144.136.02-.815-.096-1.944-.252-1.12-.152-2.615-.357-4.144-.577-1.05-.145-2.05-.292-3.05-.44.17-.78.345-1.53.53-2.22.66-2.387.875-4.877 1.03-7.16 1.495-.794 2.706-2 3.43-3.562.043-.09.096-.162.135-.254 3.976-6.68 6.31-15.957 3.415-23.54-.01-.02-.01-.04-.015-.053h-.016c-2.66-7.465-6.52-12.133-11.376-15.58-4.87-3.46-10.62-5.766-17.39-9.09-.027-.016-.056-.036-.09-.05-13.767-5.91-24.097-7.22-37.287-10.16-.072-.016-.145-.03-.214-.04-.39-.043-.75-.07-1.113-.053zM699.03 42.39c2.635 3.053 5.642 5.978 8.74 8.043.83.84 1.727 1.602 2.674 2.305-.732 1.802-1.42 3.662-1.792 6.02v.015c-1.298 8.79-2.533 16.64-1.152 27.275.015.08.034.157.054.23.98 4.2 4.272 10.918 7.563 17.388 2.045 4.02 4.038 7.782 5.46 10.48-2.995-.567-5.807-1.15-8.205-1.81-7.328-2.015-14.35-5.135-21.668-7.146-2.433-.67-4.64-2.92-8.55-4.098-.08-.092-.177-.258-.5-.546-.004-.005-.01-.01-.01-.015l.778-2.804c.79-2.896 2.227-5.904 2.607-9.586.232-2.276 1.082-4.776 1.804-7.403.6-2.183 2.114-4.888 2.452-8.125.277-2.7.99-5.287 1.777-8.148.728-2.642 1.714-5.37 2.52-8.286.716-2.628 1.7-5.274 2.46-8.043.64-2.333 1.61-3.335 2.984-5.742zm14.856 12.516c3.736 2.036 7.876 3.422 11.63 4.575.02.01.035.01.055.018.04.01.086.03.126.04 2.377.918 4.652.605 6.62.136-.288 1.225-.493 2.578-.347 4.092.36 5.483 3 10.34 6.84 12.89 4.208 2.696 9.49 3.657 13.745 1.582.068-.034.136-.07.2-.107 1.436-.9 2.95-1.79 4.458-2.774.127-.078.24-.175.347-.278 1.092-1.104 1.804-1.64 2.61-1.567.175.02.357.016.533-.014h.052c.09.063.177.122.27.176-.152.59-.293 1.188-.43 1.78-.04-.005-.205-.035-.24-.04-.19-.044-.39-.054-.59-.04-.924.088-1.715.933-1.754 1.86-.03.93.696 1.82 1.61 1.983.013 0 .04.01.05.01-.217.758-.447 1.46-.736 2.075-.815 1.768-1.425 3.56-1.967 5.343-.367 1.397-.708 2.74-1.03 4.028-4.297 2.345-5.713 2.3-10.855 1.594-3.022-.414-5.097-1.577-7.172-3.275-2.07-1.706-4.072-3.996-6.626-6.374-.385-.365-.923-.57-1.455-.545-.794.03-1.535.57-1.81 1.313-.27.737-.05 1.63.533 2.163 2.368 2.212 4.385 4.537 6.81 6.533 2.433 1.997 5.348 3.623 9.17 4.15 4.118.56 6.9.57 10.186-.63-.59 2.355-1.137 4.415-1.714 6.065-.643 2.084-1.342 4.184-1.967 6.45l-2.29 8.334c-.15.556-.324 1.122-.495 1.69-1.268-2.565-2.426-3.298-3.588-7.15-.23-.805-1.035-1.41-1.87-1.406-.605.005-1.202.31-1.553.806-.356.487-.47 1.147-.282 1.724 1.143 3.777 2.31 4.602 3.628 7.307-3.877-1.434-8.62-2.43-13.545-3.357-1.81-.345-3.632-.666-5.45-.994-1.16-2.364-4.047-7.618-7.026-13.477-3.234-6.35-6.476-13.378-7.175-16.274-1.268-9.917-.146-17.08 1.153-25.836 0-.01-.006-.013 0-.022.263-1.67.746-3.057 1.336-4.55zm23.5 3.706c.68-.02 1.325.064 1.955.293.066.025.13.038.19.053 2.777.704 5.956 2.505 9.25 4.342 3.29 1.826 6.716 3.71 10.387 4.306h.015c.967.166 1.925.215 2.85.146-.046.528-.085 1.05-.15 1.568-.25-.034-.5-.073-.747-.093-.194-.015-.38-.02-.6-.015-.112.005-.235 0-.415.03-.097.014-.22.024-.39.078-2.217.127-3.867 1.416-4.99 2.53-1.304.848-2.7 1.678-4.112 2.558-2.388 1.133-6.372.644-9.516-1.367-3.166-2.023-5.324-5.212-4.87-9.23.015-.147.015-.298 0-.445-.13-1.328.333-2.86.786-4.722.123-.01.244-.023.362-.028zm8.34 7.818c-.086.005-.175.01-.267.023-.746.118-1.4.7-1.7 1.237-.325.566-.788 1.24-.91 2.34-.065.55.014 1.297.454 1.912.434.615 1.094.977 1.738 1.153.776.215 1.533.297 2.315.024.785-.27 1.424-.995 1.65-1.648.447-1.3.086-2.252-.19-3.008-.12-.312-.324-.59-.588-.79-.034-.026-.43-.48-1.138-.885-.313-.176-.763-.39-1.368-.36zm-65.22 38.212c.085.034.188.054.28.08 2.993.824 5.078 3.168 8.886 4.218 1.51.415 3.013.897 4.537 1.406 29.323 11.66 41.47 7.782 52.11 14.076-.73 2.52-1.43 5.146-2.13 7.71-.676 2.446-2.087 4.85-2.937 7.925-.27.992-1.958 6.178-3.57 11.11-.99 3.02-1.91 5.81-2.572 7.87-2.446-.747-5.606-1.754-8.096-2.437-9.41-2.778-22.724-4.36-30.54-8.58-4.694-2.645-11.04-3.094-15.275-4.256-2.954-.81-5.684-1.314-8.404-2.06l-.336-.094c.164-.728.344-1.573.58-2.636.516-2.374 1.165-5.41 1.82-8.433.65-3.024 1.31-6.04 1.82-8.39.513-2.354.94-4.244.96-4.32.593-2.146.593-3.996.993-5.45.684-2.497.953-4.38 1.553-6.56l.323-1.177z" fill="#fff"/><path d="M709.82 37.934c-.845.015-1.65.57-1.964 1.352-.312.78-.102 1.743.504 2.33 4.638 4.555 13.398 9.755 20.234 10.385 1.118.11 2.23-.813 2.338-1.93.103-1.12-.82-2.23-1.933-2.334-4.745-.44-13.92-5.51-17.645-9.17-.405-.405-.97-.635-1.538-.63zm-4.444-15.405c-1.02.04-1.933.91-2.036 1.92-.102 1.01.62 2.045 1.606 2.295 7.608 1.934 17.735 4.175 26.53 7.158 8.788 2.984 16.05 6.95 18.12 10.976.463 1.07 1.903 1.59 2.943 1.055 1.04-.536 1.46-2.006.86-3.007-3.23-6.27-11.43-9.98-20.55-13.084-9.12-3.095-19.366-5.346-26.85-7.25-.206-.055-.416-.078-.626-.068zm7.388-8.007c-1.035.025-1.983.9-2.085 1.924-.106 1.03.642 2.075 1.652 2.304 7.607 1.94 17.74 4.166 26.53 7.15 8.787 2.983 16.033 6.962 18.103 10.986.518 1 1.895 1.44 2.897.92.996-.51 1.435-1.888.922-2.89-3.227-6.264-11.426-9.98-20.547-13.075-9.12-3.095-19.366-5.347-26.85-7.25-.206-.054-.416-.08-.626-.07zm-6.173-6.18c13.007 2.865 22.836 4.184 35.87 9.755.037.013.067.023.096.04 6.855 3.356 12.44 5.656 16.757 8.723 4.343 3.08 7.53 6.867 9.973 13.747.01.02.018.04.028.05 2.278 5.915.324 14.553-3.226 20.403-.05.082-.098.175-.13.268-.77 1.83-2.94 2.945-6.135 2.394h-.01c-2.72-.44-5.86-2.056-9.116-3.868-3.204-1.777-6.504-3.72-10.01-4.643-.01-.004-.02 0-.03 0-.05-.014-.098-.04-.146-.053v.014c-2.96-1.005-5.683-.23-7.894.36-2.262.597-3.95.983-5.597.31-.06-.025-.117-.04-.176-.054-5.97-1.837-12.562-4.294-16.38-8.22-.104-.1-.216-.19-.332-.267-5.46-3.575-11.646-11.47-14.497-16.236-.29-.593-.244-.69-.215-.778.03-.093.215-.38.684-.816.93-.874 2.968-2.367 3.21-5.126.04-.42-.062-.85-.28-1.206-1.002-1.65-.305-3.95-.172-6.89.005-.185-.01-.372-.054-.552-.14-.56-.07-.45-.044-.483.03-.03.328-.245.913-.388 1.172-.283 3.096-.234 4.458-.24.255-.004.514-.06.748-.16.728-.308 1.398-.836 1.793-1.514.4-.68.513-1.407.498-2.007-.03-1.093-.35-1.905-.576-2.568z" fill="#2c2c2c"/><path d="M727.485 123.45c-.336.02-.67.124-.96.294-3.927 2.31-7.496 4.736-11.38 5.986-.14.04-.272.094-.4.156-.604.284-1.06.865-1.19 1.52-.132.65.064 1.36.508 1.855 3.47 3.95 6.567 7.317 9.477 11.448.55.8 1.7 1.128 2.593.748 3.57-1.514 9.175-4.464 12.705-5.514.986-.297 1.67-1.39 1.5-2.405-.264-1.573-1.022-2.34-1.915-3.483-.898-1.14-2.022-2.386-3.203-3.64-2.354-2.506-4.966-5.07-6.02-6.25-.425-.475-1.075-.743-1.715-.71z"/><path d="M726.962 126.464c-3.393 2.115-6.806 4.1-10.53 5.605 3.12 3.52 6.2 7.092 8.968 10.895 4.063-1.894 8.09-3.88 12.31-5.395-2.774-4.345-6.74-7.665-10.156-11.444l-.372.214-.22.124z" fill="#fff"/><path d="M370.24 128.993c-.92-.01-1.744.562-2.05 1.42-.34.924-.803 2.15-1.07 3.522-.274 1.37-.4 3.012.467 4.575.29.522.777.888 1.353 1.03 1.02.263 2.144.497 3.306.712-.136.743-.297 1.61-.35 2.57-.065 1.185-.04 2.52.72 3.84.328.56.89.934 1.53 1.03 4.16.666 9.814.28 13.53.295.13.005.26-.005.39-.025.855-.15 1.114.196 2.676.108.577-.034 1.397-.395 1.983-.913.385.05.702 0 .907-.025.405-.05.7-.126 1.163-.175-.074.01.507.01.938 0-.137 1.294-.382 2.95-.333 4.844.074 3.128.2 6.307.533 9.51.015.08.038.16.053.24.523 2.395 1.255 4.403 1.958 6.434-.18.136-.35.298-.483.484-.37.522-.49 1.186-.32 1.806 1.4 5.43 3.248 10.713 5.128 15.928-32.735 5.24-56.685 9.053-98.2 13.33-.423.044-.805.21-1.112.456L291.43 170.34c1.94-.342 3.854-.83 5.675-1.5 3.022-1.112 6.43-1.747 9.785-2.987 2.91-1.07 5.82-2.353 8.51-3.155 1.173-.35 3-.848 4.688-1.688.84-.42 1.66-.914 2.383-1.647.72-.732 1.356-1.85 1.34-3.128-.01-.538.088-1.3-.03-2.277-.115-.98-.584-2.23-1.575-3.148-1.012-.924-2.17-1.475-3.243-1.763-1.07-.29-2.04-.38-3.09-.552-3.535-.577-7.193-.352-10.493-.308-3.658.05-7.354-.317-11.27-.27-5.76.08-11.39.344-17.066.416-1.4.02-4.227-.126-6.97.054-1.374.093-2.726.28-4.005.66-1.276.38-2.575.95-3.454 2.23-.025.045-.053.084-.078.123-1.62 2.75-3.505 5.005-4.08 7.925-.29 1.46-.094 3.15.775 4.605.863 1.455 2.25 2.666 4.188 3.89 2.483 1.715 5.354 2.5 8.42 2.896 4.175.532 8.394.317 12.447.264.917-.01 1.836-.054 2.758-.117l3.79 9.77c-5.264 8.574-10.61 18.15-15.927 27.974-12.574-6.987-26.207-9.936-39.498-9.24-16.055.85-31.61 7.033-44.21 17.873-.194-.068-.4-.113-.614-.122-3.15-.117-5.6-.152-7.563-.053-1.962.097-3.432.312-4.643.707-.12.04-.22.14-.336.19-.396-.19-.835-.26-1.27-.19-.82.13-1.782.288-2.797.815-1.016.533-1.93 1.45-2.613 2.68-1.752 3.17-2.612 7.213-1.523 10.61.548 1.705 1.496 3.854 3.536 5.275.34.244.75.46 1.19.615-1.494 2.915-3.164 6.583-4.658 10.59-2.476 6.618-4.502 13.985-4.096 20.18.01.114.024.226.054.34.42 1.86 2.19 3.026 3.69 3.32 1.5.288 3 .132 4.435-.11 1.187-.2 2.295-.467 3.25-.71-.01.33-.01.647-.013.975-.238 25.244 13.474 47.32 33.742 58.422-8.71-.053-16.06-.116-17.907-.116-4.238 0-107.97.25-193.057.454v4.283c85.16-.205 189.014-.455 193.056-.455 2.402 0 14.013.127 27.73.2v-.024c2.85-.19 4.32-2.85.335-4.287-23.343-8.416-40.003-31.438-39.75-58.436.01-1.01.034-2 .093-2.998.044-.132.077-.273.092-.415.025-.214.025-.414-.015-.614 2.282-31.48 27.467-56.22 58.238-56.738.507-.006 1.026-.02 1.54-.016 10.12.097 19.642 2.802 27.947 7.495-.64 1.195-1.283 2.382-1.913 3.574-7.755-4.37-16.627-6.894-26.076-6.987-30.684-.29-55.786 25.2-56.08 56.738-.297 31.54 24.326 57.45 55.01 57.74 21.967.205 41.074-12.79 50.27-31.762l4.04.577c-6.83 14.99-19.354 26.617-34.66 31.992-2.014 2.26 1.24 4.007 2.78 3.397 6.633-.112 10.055.206 11.633-.19 7.763-1.938 18.803-.624 27.758-.624h99.338c6.02 0 14.258.814 20.264 2.016 5.563 1.112 11.764.8 17.604.443 3.585.17 2.408-4.703-1.34-4.537-26.433-6.387-46.01-30.986-45.734-60.245.204-21.288 10.868-39.946 26.888-50.795.504 1.28 1.01 2.554 1.53 3.828-14.688 10.2-24.404 27.43-24.59 46.994-.293 31.536 24.316 57.45 55 57.742 30.683.29 55.834-25.16 56.132-56.698.298-31.54-24.366-57.49-55.05-57.78-10.107-.097-19.604 2.608-27.812 7.403-.513-1.264-1.005-2.524-1.5-3.79 8.272-4.75 17.736-7.513 27.813-7.68.51-.01 1.013-.02 1.525-.013 32.774.31 59.17 28 58.853 61.9-.27 28.34-19.106 51.95-44.423 58.76-3.238.044-4.995 3.3-2.65 4.375.58-.005 1.24-.005 1.834-.01l-.03.133c.197-.045.388-.104.578-.148 18.604-.17 44.873-.27 49.096.79 8.244 2.063 18.576.065 26.03.065h81.393c2.642 0 5.275-.068 7.896-.16l-8.727-4.122H541.38c-8.137 0-18.29 1.743-24.99.07-3.67-.92-18.992-1.115-34.246-1.072-1.245 0-2.436.007-3.653.01 21.425-10.375 36.376-32.704 36.62-58.646.258-27.314-15.86-50.928-38.922-60.943.558-.756 1.183-1.64 1.808-2.636 1.054-1.67 2.162-3.3 2.157-5.5-.004-.936-.614-1.756-1.512-2.034-3.027-.927-5.947-1.542-8.832-2.02.034-.063.068-.12.108-.185.956-1.724 1.445-3.853 1.416-6.173-.03-2.313-.563-4.442-1.57-6.142-.804-1.36-2.044-2.577-3.61-2.982-.26-.22-.583-.38-.94-.455-.64-.136-1.28-.175-1.9-.15-1.86.083-3.63.775-5.35 1.474-2.295.933-4.536 2.02-6.265 2.475-1.606.425-3.525 1.2-5.313 2.29-1.79 1.085-3.54 2.403-4.35 4.513-.467 1.216-.672 2.412-.32 3.56.096.307.224.58.36.83-8.55 1.332-16.484 4.125-23.622 8.095-.2-.587-.382-1.182-.577-1.768.32-.244.563-.56.7-.922.11-.01.244-.035.36-.07 1.144-.292 1.823-1.46 1.524-2.607-2.14-8.26-5.324-16.215-8.096-24.145 1.43-5.102 5.668-10.142 7.04-16.718 1.143-5.474-.29-10.157-3.575-12.715-2.056-1.597-4.673-2.29-7.486-2.062-.576.05-1.172.143-1.762.27.005-.035.018-.063.023-.093.163-.67.354-1.597.27-2.69-.082-1.1-.58-2.677-2.075-3.453-.21-.112-.415-.225-.63-.337-1.25-.654-2.705-.967-4.306-1.313-.98-.21-1.822-.37-2.614-.48-.043-.414-.16-.814-.346-1.18-.455-.88-1.177-1.387-1.792-1.71-1.235-.65-2.388-.81-3.043-1.02-6.256-2.056-15.23-3.642-21.617-4.375-.07-.01-.14-.025-.21-.03zm1.454 4.55c6.016.782 13.808 2.203 19.048 3.927h.024c.924.292 1.646.492 2.066.654-.102.23-.166.4-.205.468-.508-.136-1.802-.482-3.73-.507v-.015c-5.274-.68-12.667-1.333-17.657-2.42 0-.255-.005-.53.07-.885.07-.376.258-.806.384-1.22zm24.238 7.94c.093.02 1.647.195 3.028.493 1.45.313 3.1.855 3.237.924.137.072.27.146.405.214 0 .025-.023 0-.015.098.025.347-.053.967-.146 1.362l-.656 2.705c-.683 2.834-.493 5.4-.586 7.785-.166 4.24 1.07 7.588 2.26 10.977-.136.048-.277.102-.414.146-.38.126-.767.224-1.098.293-.68-1.987-1.324-3.784-1.754-5.727-.307-2.99-.433-6.02-.507-9.062-.038-1.62.71-4.043.44-6.597-.088-.87-.678-1.494-1.085-1.767-.4-.27-.707-.368-.986-.44-.565-.156-1.048-.19-1.526-.215-.797-.043-1.34-.01-1.808.025.01-.025.02-.11.04-.21.303-.16.6-.338.83-.578.13-.137.24-.288.346-.43zm-19.633.8c4.005.06 8.985.426 12.365 1.26h.03c.307.074.302.074.532.123-.44-.02-.95-.02-1.525.054v-.015c-3.476-.015-8.154.18-11.46-.108-.02-.225-.07-.248-.054-.546.015-.232.08-.51.11-.764zm32.9 7.34c1.623-.04 2.985.44 4.002 1.23 1.8 1.402 2.915 4.078 2.006 8.443-.757 3.627-3.08 7.173-4.98 11.19-.505-1.625-.96-3.265-1.38-4.896-.19-.782-.8-1.373-1.54-1.568-1.066-3.09-1.94-5.684-1.817-8.78.068-1.776.034-3.364.147-4.834 1.29-.507 2.48-.766 3.56-.786zm-115.04 2.583c3.602-.05 7.303.318 11.27.264 3.43-.044 6.9-.225 9.753.244 1.187.19 2.056.302 2.666.468.606.162.963.318 1.46.777.186.17.156.16.2.504.04.333.005.948.01 1.754-.005.01-.03.043-.117.13-.2.205-.644.53-1.23.82-1.172.58-2.808 1.075-4.004 1.43-3.057.91-6.017 2.214-8.756 3.224-2.886 1.07-6.328 1.72-9.795 3-3.414 1.257-7.404 1.825-11.39 1.874-4.15.052-8.19.227-11.85-.24-2.645-.343-4.92-1.047-6.61-2.208-.024-.02-.054-.04-.077-.054-1.603-1.016-2.428-1.875-2.784-2.48-.36-.6-.396-.938-.27-1.577.25-1.265 1.773-3.506 3.506-6.436 0-.004.01 0 .015 0 .015-.023.363-.332 1.14-.566.775-.23 1.874-.386 3.06-.468 2.38-.157 5-.03 6.734-.05 5.776-.08 11.4-.343 17.065-.415zm111.29 17.68c.05.025.104.06.16.08.72 2.48 1.522 4.93 2.36 7.363.03.3.133.602.29.865 2.67 7.69 5.67 15.167 7.724 22.7-.14.04-.282.088-.415.162-.94.482-1.534 1.04-2.114 1.43-.508.336-.835.444-1.06.482-3.032-10.953-7.7-21.42-10.64-32.017 1.012-.054 1.73-.396 2.638-.7.356-.115.707-.247 1.054-.37zM292.78 185.662L308.08 225l-9.755 3.402c-3.584-4.106-7.43-7.51-11.19-11.39-.055-.055-.13-.113-.186-.162-2.71-2.236-5.49-4.25-8.34-6.05 4.75-8.78 9.484-17.34 14.172-25.138zM465 187.93c.13-.006.556.14 1.084 1.03.522.882.942 2.347.962 3.997.02 1.657-.366 3.13-.87 4.03-.502.903-.922 1.044-1.06 1.044-.13 0-.556-.13-1.082-1.012-.523-.89-.953-2.354-.978-4.005-.02-1.65.38-3.124.884-4.026.504-.9.924-1.055 1.06-1.055zm-5.58.76c-.44 1.33-.65 2.812-.63 4.375.02 1.724.31 3.326.882 4.74-.556-.086-1.112-.18-1.675-.268-.077-.014-.16-.01-.238-.014-1.448-.073-2.87-.112-4.29-.107-2.237.005-4.44.113-6.61.308-.094-.362-.275-.7-.56-.977-.33-.317-.457-.478-.496-.522v-.015c.004-.074.04-.28.224-.76.185-.485 1.182-1.545 2.56-2.385 1.375-.835 3.074-1.523 4.202-1.82 2.32-.61 4.566-1.71 6.626-2.555zm-55.68 1.607c.56 1.553 1.12 3.095 1.655 4.643l-56.61 67.38c-3.43-2.858-7.71-4.675-12.53-5.037-.128-.008-.25-.028-.376-.038-.037-.005-.076.005-.11 0-.508-.04-1.02-.064-1.538-.07-.92-.008-1.827.04-2.715.133l-6.266.044-2.504-6.426 2.73-.898c.975-.278 1.644-1.508 1.405-2.593l-9.233-23.745c-.345-.795-1.16-1.31-1.95-1.22-.256 0-.505.048-.74.15l-2.826.977-7.694-19.81h.066c41.96-4.325 66.065-8.182 99.234-13.49zm3.263 9.41c.638 2.005 1.22 4.008 1.742 6.02.244.956 1.124 1.625 2.115 1.605.477-.004.95-.004 1.43-.014.684-.005 1.294-.156 1.836-.36.185.565.367 1.122.562 1.688-22.237 14.23-35.708 40.36-34.2 68.9v.016c.4 6.548 2.886 24.298 10.923 33.755.077.083.154.156.24.225 1.136.97 2.65 1.44 3.938 1.18 1.29-.262 2.168-1 2.836-1.69.504-.51.894-1.008 1.222-1.453 6.688 9.733 15.898 17.522 26.66 22.322-1.333-.103-2.618-.27-3.83-.51-6.365-1.273-14.705-2.118-21.107-2.118h-99.34c-4.774 0-10.42-.478-16.06-.493-4.388-.013-8.778.255-12.743 1.247-.36.086-.99.164-1.846.237 12.064-6.86 21.747-17.63 27.416-30.663l35.64 5.157c.063.01.136.018.2.023 7.797.26 13.92-3.093 17.763-8.07.512.41 1.04.825 1.523 1.22-.043.178-.063.353-.068.534 0 .18-.063 1.42-.053 2.598.01.59.03 1.176.097 1.742.03.28.08.566.17.894.093.327.103.757.86 1.367 1.97 1.59 3.21 3.066 5.444 3.56 1.124.244 2.525-.112 3.46-.87.926-.756 1.56-1.742 2.23-3.027.59-1.123.98-1.953 1.19-2.875.216-.924.09-2.174-.478-2.984-1.137-1.63-2.167-1.666-3.403-2.667-1.12-.904-1.92-1.92-3.653-2.354-.87-.22-2.08-.04-2.89.532-.082.06-.136.14-.215.2-.62-.502-1.254-1.02-1.912-1.537 2.197-4.35 3.06-9.39 2.558-14.32l-.014-.173c-.004-.025-.01-.043-.014-.068-.22-2.35-.79-4.614-1.66-6.72-.108-.263-.23-.527-.347-.79-.04-.088-.07-.165-.107-.254-.01-.027-.03-.052-.04-.075-.874-1.914-1.968-3.678-3.267-5.264l55.197-65.672zm46.39 1.99c1.343-.004 2.69.025 4.058.094 6.346 1.03 12.025 1.556 17.8 3.054-.24.538-.502 1.12-.87 1.7-.794 1.264-1.67 2.436-2.3 3.295-6.26-2.2-12.97-3.443-19.944-3.506-11.18-.107-21.7 2.788-30.874 7.934-.48-1.274-.947-2.554-1.405-3.828 9.726-5.518 21.08-8.69 33.54-8.74zm-214.927 1.754h1.13c11.24.086 22.635 2.97 33.27 8.92-.56 1.04-1.114 2.074-1.675 3.12-8.87-5-19.016-7.89-29.83-7.994-33.3-.313-60.864 25.888-63.883 59.4-.24.063-.454.107-.723.175-1.045.268-2.29.6-3.48.8-1.187.2-2.33.22-2.9.108-.162-.028-.24-.023-.285-.023-.24-4.977 1.51-11.89 3.83-18.097 2.366-6.332 5.306-12.04 6.824-14.365 13.384-20.127 34.57-31.455 56.602-32.026.376-.01.752-.01 1.122-.015zm177.666 9.28c.46 1.266.928 2.54 1.407 3.8-17.58 11.513-29.33 31.68-29.545 54.677-.116 12.622 3.263 24.45 9.195 34.516-.032.046-.072.08-.106.123-.215.264-.4.518-.586.777-.378.517-.773 1.055-1.13 1.416-.35.36-.624.47-.624.47s-.136-.084-.176-.11c-6.41-7.7-9.447-25.356-9.8-31.088-1.415-26.753 10.865-51.1 31.363-64.58zm-139.57 1.846c2.608 1.665 5.167 3.516 7.652 5.567l.015.015c3.38 3.48 6.64 6.504 9.635 9.785l-4.043 1.406c-4.253-5.31-9.306-9.91-14.965-13.628.56-1.05 1.136-2.095 1.703-3.145zm175.464 4.15c28.37.27 51.22 24.195 50.943 53.55-.277 29.356-23.58 52.857-51.947 52.588-28.364-.27-51.16-24.195-50.89-53.55.172-17.89 8.874-33.603 22.062-43.086 3.507 8.478 7.212 16.86 10.61 25.07 1.91 4.594 5.152 8.46 8.525 11.75l1.476 1.433c.24.233.48.458.723.683-.77 1.343-1.217 2.89-1.23 4.536-.05 5.082 4.046 9.36 9.153 9.41 5.103.047 9.293-4.15 9.34-9.235.05-5.083-4.066-9.35-9.17-9.394-1.904-.02-3.695.547-5.18 1.538-.22-.205-.44-.395-.654-.605-.484-.47-.97-.957-1.46-1.43-3.15-3.072-6.01-6.564-7.573-10.332-3.53-8.516-7.334-17.143-10.908-25.82 7.34-4.38 15.82-6.938 24.853-7.09.438-.01.883-.02 1.322-.014zm-212.114 1.177c.444-.004.884-.004 1.328 0 8.75.085 16.987 2.4 24.17 6.45-5.908 11.135-11.675 22.022-17.12 31.59l-9.056.066c-.06-.005-.108-.005-.162 0-1.997.2-3.896.76-5.625 1.606-.03.014-.058.024-.092.04-.025.014-.054.043-.08.053-5.106 2.44-8.77 7.484-9.29 13.373v.025c-.01.14-.03.282-.04.428-.073.973-.054 1.97.054 2.97.485 4.453 2.28 8.08 5.5 10.585.84.66 1.773 1.236 2.783 1.745l.015.014c1.72.97 3.636 1.64 5.673 1.923 1.51.337 3.116.576 4.86.752v.01l43.364 6.255c-8.725 16.957-26.09 28.427-45.947 28.236-28.365-.263-51.163-24.19-50.89-53.55.274-28.896 22.794-52.11 50.552-52.573zm-53.106 1.422c-1.69 1.7-3.31 3.506-4.857 5.39-.766-2.226-1.94-3.99-2.28-4.844-.005-.007.005-.004 0-.012.025-.01.005 0 .04-.01.708-.235 2.31-.445 4.91-.513.657-.015 1.398-.015 2.184-.01zm86.13.054c4.75 3.163 9.036 7.015 12.723 11.415l-4.03 1.406c-3.14-3.52-6.706-6.625-10.61-9.252.63-1.19 1.28-2.378 1.913-3.57zm-97.442 1.39c.067.22.11.474.19.67.673 1.713 1.708 3.154 2.22 4.66.505 1.47.63 2.713-.36 4.427-.694.97-1.187 1.235-1.314 1.268-.126.04-.108.06-.4-.146-.586-.406-1.583-2.037-1.914-3.077-.474-1.484.015-5.098 1.19-7.216.158-.284.275-.45.388-.587zm139.33 3.213c2.803 7.17 5.567 14.34 8.38 21.51-14.127 4.614-28.258 9.232-42.39 13.85-2.66-6.923-5.312-13.855-7.987-20.775 13.73-4.785 27.47-9.54 41.21-14.32l.387-.133.4-.132zm-45.757 2.676c2.993 2.04 5.772 4.4 8.282 7.025l-6.83 2.37c-.96.292-1.61 1.508-1.377 2.582l6.587 17.105-22.484.16c5.088-9.03 10.405-19.05 15.82-29.243zm49.614 23.593l1.996 5.14-18.135.134 16.14-5.274zm3.056 8.486c-6.563 4.135-10.978 11.45-11.055 19.717-.005.223.01.443.01.668l-6.837-.376c.274-2.364.43-4.75.454-7.188.04-4.337-.34-8.58-1.084-12.687l18.512-.136zm-22.73.16c.786 4.08 1.18 8.3 1.137 12.623-.018 2.377-.16 4.71-.438 7.01l-3.842-.2c.282-2.245.434-4.53.454-6.85.043-4.306-.392-8.495-1.232-12.544l3.922-.04zm-21.988.177l.963 2.513c.415 1.07 1.688 1.602 2.636 1.1l10.317-3.376c.85 3.902 1.275 7.964 1.235 12.14-.023 2.26-.17 4.467-.458 6.654l-35.695-1.904c.263-1.137.405-2.325.415-3.53.045-4.95-2.138-9.448-5.62-12.5.17-.298.347-.61.522-.913l25.684-.184zm57.178.253c4.468.04 8.565 1.65 11.802 4.296l-4.092 4.868c-2.055-1.61-4.614-2.602-7.388-2.715-.014 0-.03-.017-.044-.017-.112-.018-.228-.033-.346-.038-.22 0-.435.005-.655.015-1.356.058-2.66.32-3.88.776l-2.315-5.943c1.86-.717 3.848-1.142 5.93-1.23.325-.015.657-.02.99-.015zm-94.522.976c.205-.01.407-.005.615 0 1.73.015 3.364.405 4.843 1.083-.496.853-.985 1.693-1.483 2.513-1.046-.43-2.188-.668-3.384-.683-5.103-.044-9.298 4.14-9.347 9.223-.045 5.083 4.06 9.36 9.17 9.41 2.13.02 4.086-.703 5.66-1.915l3.87.2c-2.25 2.843-5.71 4.67-9.556 4.634-6.665-.063-12.057-5.678-11.998-12.366.064-6.485 5.225-11.832 11.606-12.1zm83.775 2.246l2.392 6.157c-2.832 2.36-4.672 5.91-4.712 9.85 0 .377.015.753.045 1.125l-6.318-.333c-.01-.286-.015-.57-.015-.858.062-6.61 3.48-12.49 8.607-15.942zm-74.78 1.29c2.26 2.25 3.647 5.37 3.612 8.787-.01 1.156-.194 2.283-.507 3.35l-2.958-.16c.376-1 .59-2.08.605-3.2.02-2.36-.86-4.53-2.306-6.197.513-.85 1.036-1.71 1.553-2.584zm202.92.785c2.802.03 5.087 2.382 5.057 5.21-.024 2.827-2.353 5.136-5.15 5.112-2.804-.03-5.074-2.384-5.05-5.21.01-.627.127-1.22.337-1.78 1.025.85 2.022 1.67 2.92 2.545.42.41.557.888 1.47 1.777.537.582 1.362.82 2.13.616.765-.2 1.342-.806 1.522-1.578.186-.772-.073-1.578-.67-2.105-.292-.29-.497-.855-1.454-1.792-.937-.908-1.884-1.72-2.827-2.5.538-.19 1.114-.303 1.715-.298zm-102.58 2.06c2.636 3.355 4.203 7.602 4.165 12.17-.034 3.32-.913 6.444-2.427 9.178-1.71-1.28-3.457-2.534-5.122-3.76-.005-.004-.01-.01-.015-.01.797-1.665 1.256-3.516 1.27-5.463.025-2.613-.742-5.054-2.074-7.105l4.204-5.01zm-108.79.683c.41.006.8.064 1.18.162-.56.894-1.097 1.772-1.65 2.623-.64.996-.35 2.333.646 2.973.996.64 2.315.35 2.96-.645.464-.717.922-1.46 1.39-2.205.337.697.53 1.48.524 2.304-.03 2.826-2.34 5.136-5.144 5.11-2.798-.028-5.073-2.38-5.045-5.21.027-2.826 2.337-5.135 5.14-5.112zm93.423 2.506c.152-.006.293-.006.445 0 4.794.043 8.677 4.062 8.633 8.887-.01 1.036-.21 2.018-.552 2.945-.786-.6-1.537-1.18-2.192-1.714-1.543-1.254-2.68-2.392-2.944-2.783-.44-.672-1.22-1.05-2.02-.96-.752.084-1.4.557-1.713 1.24-.313.69-.246 1.5.184 2.12.86 1.27 2.135 2.36 3.79 3.706.767.62 1.61 1.276 2.505 1.955-1.56 1.407-3.614 2.256-5.85 2.237-4.795-.043-8.69-4.08-8.647-8.9.043-4.674 3.768-8.53 8.363-8.726zM254.41 282.39l36.566 1.97c-.76 3.574-1.865 7.006-3.28 10.267l-39.752-5.74c2.71-1.51 4.966-3.766 6.465-6.496zm40.74 2.183l3.884.202c-.724 3.817-1.798 7.504-3.174 11.03l-3.946-.562c1.4-3.403 2.49-6.97 3.237-10.67zm8.087.43l7.935.43c1.152 5.547 4.272 10.43 8.594 13.823l-19.68-2.837c1.374-3.66 2.434-7.48 3.15-11.42zm12.257.655l6.816.362c2.016 4.423 6.425 7.582 11.576 7.63 3.614.035 6.9-1.464 9.264-3.88 1.69 1.234 3.433 2.504 5.12 3.774-3.554 4.018-8.734 6.557-14.45 6.503-8.776-.082-16.144-6.23-18.326-14.39zm43.54 12.636c.185.147.658.444 1.645 1.246 1.25 1.006 1.98 1.513 2.29 1.66-.1.293-.277.717-.71 1.552-.518.983-.92 1.452-1.086 1.603-.146-.064-1.48-1.017-3.036-2.233-.03-.297-.05-.663-.055-1.098-.01-.67.024-1.128.04-1.63.307-.205.55-.49.722-.82.122-.23.102-.167.186-.28zm332.44 30.328c-1.592.014-3.35.23-5.673.698-3.562.713-7.614.22-11.925.264l-8.688 5.194c1.416-.16 2.813-.336 4.15-.56 5.11-.85 11.095.547 17.306-.698 5.875-1.173 6.426-.768 12.17.67 4.412 1.102 9.456.052 12.93.052h2.108c.104.03.21.044.324.054 2.77.264 8.36 1.337 12.63 1.337h22.076c4.083 0 8.06-.166 11.202.62 5.78 1.445 11.61-.62 15.698-.62h19.303c7.197 0 13.95-1.39 20.693-1.39 5.777 0 11.685-.68 17.252-.68.453 0 .917.02 1.376.04l-6.464-4.19c-4.185.2-8.296.547-12.164.547-7.305 0-14.062 1.39-20.693 1.39H775.78c-5.257 0-10.634 1.76-14.652.754-4.043-1.012-8.31-.753-12.247-.753H726.81c-3.51 0-8.984-1.012-12.23-1.32-.084-.01-.172-.015-.255-.015-.165-.038-.33-.053-.506-.053h-2.075c-4.157 0-9.01.787-11.885.07-2.843-.714-4.8-1.197-6.827-1.353-.507-.04-1.025-.06-1.552-.055zm213.077.16c-4.382-.013-8.76.255-12.722 1.246-3.667.918-8.076.894-12.544.777l-7.963 4.15c.336-.005.678-.015 1.015-.015 6.255 0 13.798.932 20.522-.75 7.764-1.94 18.804-.626 27.76-.626h53.803c6.014 0 47.264-.562 53.27.64 3.856.77 7.494 1.142 11.054 1.312v-4.326c-3.47-.166-6.84-.503-10.215-1.177-6.37-1.275-47.71-.737-54.11-.737h-53.807c-4.78 0-10.425-.48-16.064-.493z" fill="#fff" fill-rule="evenodd"/><path d="M349.595 103.216c-.635.035-1.24.4-1.567.953-.323.544-.357 1.26-.08 1.83 5.172 11.14 10.323 16.41 16.345 19.632 2.875 1.542 5.883 2.632 9.165 3.774 5.996.836 13.29 2.237 18.617 3.99.655.21 1.806.37 3.038 1.02.317.166.668.376.99.67.162-.02.328-.036.485-.054.487-.064.932-.128 1.322-.205.396-.075.615-.052 1.235-.388.153-.083.36-.19.64-.538.284-.346.576-1.225.338-1.914-.245-.684-.655-.917-.884-1.055-.238-.136-.38-.185-.51-.23-.538-.165-.89-.18-1.49-.224-.236-.02-.63-.028-.91-.043 1.15-.363 2.067-.616 2.945-1.11.22-.126.47-.254.777-.6.307-.353.732-1.275.43-2.12-.308-.844-.855-1.1-1.183-1.255-.32-.156-.595-.22-.88-.283-.19-.044-.384-.064-.575-.054-.776.057-1.49.624-1.714 1.366v.014c-.39.137-.496.186-1.004.347-1.138.362-2.496.787-3.775 1.27-1.277.483-2.46.957-3.465 1.82-.19.167-.435.392-.616.763-.078-.054-.166-.103-.255-.146-8.935-4.043-15.566-5.39-20.894-8.242-5.32-2.855-9.686-7.148-14.65-17.84-.32-.714-1.1-1.193-1.876-1.154zm46.347 38.268c-.048.063-.097.12-.146.184.146-.043.298-.092.454-.146-.074-.01-.292-.04-.307-.04zm-77.856 16.152c-.64.044-1.24.424-1.562.976-.323.556-.35 1.274-.07 1.85 5.695 11.856 12.55 25.786 15.7 37.89.434 1.66 1.005 3.33 1.752 4.966.054.113.083.235.136.348l.016-.015c.58 1.65 1.923 2.426 3.315 3.16 1.5.79 3.257 1.44 4.996 2 1.734.552 3.44.996 4.75 1.31.652.154 1.203.272 1.62.36.41.087.54.132.823.176 1.02.15 2.085-.63 2.236-1.647.156-1.016-.63-2.08-1.645-2.237.16.026-.205-.038-.59-.12-.38-.08-.92-.196-1.54-.348-1.24-.297-2.855-.717-4.466-1.23-1.61-.512-3.23-1.128-4.367-1.728-1.138-.6-1.567-1.338-1.484-1.015-.035-.123-.08-.24-.137-.35-.684-1.43-1.197-2.995-1.617-4.617-3.31-12.73-10.293-26.762-15.967-38.588-.33-.714-1.118-1.187-1.905-1.138z" fill="#fff"/><path d="M314.043 226.244c-13.735 4.776-27.475 9.54-41.21 14.326 2.675 6.92 5.326 13.842 7.992 20.767 14.126-4.615 28.258-9.224 42.388-13.844-2.818-7.162-5.577-14.35-8.38-21.518l-.404.137-.39.13z" fill="#e6e6e6"/><path d="M307.725 232.85c-1.534.166-1.95 1.997-1.52 3.252.826 4.03 1.43 8.208 3.508 11.83.897.914 2.538.5 2.826-.76.353-.947-.14-1.866-.68-2.583-1.427-3.475-1.82-7.28-2.6-10.94-.322-.51-.927-.86-1.537-.8zm-8.863 2.3c-2.666.93-5.186 2.402-7.88 3.17-1.563 1.69-1.007 4.374-.167 6.27 1.4 2.245 4.513 1.937 6.626 1.01.9-.25 2.08-1.43 2.88-.36.996 1.59-.45 3.426-1.95 4.046-1.557.805-3.627.542-4.98 1.67-1.137 1.563 1.158 3.486 2.65 2.587 3.576-.415 7.51-2.787 8.05-6.626.37-2.616-1.53-5.317-4.215-5.57-1.528-.332-2.857.55-4.135 1.22-.636.288-2.238.723-2.155-.45-.126-.56-.01-1.156.684-1.258 1.165-.2 2.13-.828 3.11-1.41 1.336-.483 3.47-1.108 3.343-2.896-.142-.85-1.002-1.504-1.86-1.406zm-16.4 6.294c-1.602.2-1.91 2.138-1.412 3.403 1.025 3.985 2.408 7.94 3.666 11.86.958 1.28 2.974.31 3.086-1.137.113-1.4-.863-2.636-1.132-4.01-1.11-3.08-2.007-6.234-2.69-9.403-.328-.49-.93-.77-1.52-.714z"/><path d="M335.957 57.035c-1.528.327-1.2 2.827-1.66 4.2-.43 3.666.224 7.695 3.198 10.185 3.837 3.745 10.625 5.312 14.927 1.45 2.407-1.6 4.732-4.02 7.88-3.48 1.783 1.322 2.203-3.966.592-3.23-9.083.265-15.602-8.055-24.36-9.14-.192.02-.392-.024-.577.015z" fill="#b3b3b3"/><path d="M279.38 101.532c-3.848 12.173-6.636 27.447-9.595 40.635 15.235 1.72 31.875 10.088 46.025 12.432l18.78 5.47 12.43-37.538-1.454-.362c-4.867-2.49-27.34-7.362-36.714-9.37-11.757-2.582-16.38-6.264-29.472-11.27z" fill="#ececec"/><path d="M277.895 106.55c-.966 3.463-1.86 7.106-2.72 10.817.58.205 1.202.318 1.846.318 3.075 0 5.6-2.54 5.6-5.607 0-2.772-2.067-5.102-4.723-5.527zm17.945 6.398c-3.066 0-5.58 2.54-5.58 5.605 0 3.072 2.514 5.61 5.58 5.61 3.07 0 5.595-2.538 5.595-5.61 0-3.066-2.524-5.605-5.595-5.605zm18.886 5.38c-3.066 0-5.58 2.54-5.58 5.607 0 3.07 2.514 5.61 5.58 5.61 3.07 0 5.596-2.54 5.596-5.61 0-3.067-2.525-5.607-5.596-5.607zm-32.172 1.875c-3.07 0-5.58 2.54-5.58 5.607-.002 3.066 2.508 5.61 5.58 5.61 3.066 0 5.59-2.544 5.59-5.61 0-3.067-2.524-5.607-5.59-5.607zm52.114 2.193c-3.067 0-5.58 2.54-5.58 5.61 0 3.067 2.513 5.606 5.58 5.606 3.07 0 5.596-2.54 5.596-5.606 0-3.07-2.525-5.61-5.597-5.61zm-33.218 4.365c-3.066 0-5.58 2.54-5.58 5.61 0 3.07 2.514 5.61 5.58 5.61 3.066 0 5.596-2.54 5.596-5.61 0-3.067-2.53-5.607-5.596-5.607zm-29.096 3.48c-.787 3.71-1.558 7.368-2.344 10.898.54.176 1.117.28 1.714.28 3.066 0 5.595-2.54 5.595-5.606 0-2.856-2.195-5.25-4.968-5.57zm18.188 6.44c-3.067 0-5.58 2.54-5.58 5.605 0 1.388.517 2.672 1.367 3.658 1.852.572 3.71 1.168 5.563 1.778 2.426-.61 4.242-2.826 4.242-5.434 0-3.066-2.528-5.605-5.595-5.605zm18.887 5.367c-3.075 0-5.585 2.538-5.585 5.61 0 1.982 1.05 3.736 2.623 4.736 1.054.304 2.094.592 3.13.856 2.986-.094 5.42-2.585 5.42-5.59 0-3.074-2.526-5.61-5.59-5.61zm19.94 4.082c-3.068 0-5.58 2.54-5.58 5.61 0 3.065 2.512 5.604 5.58 5.604 3.064 0 5.594-2.54 5.594-5.605 0-3.07-2.53-5.61-5.596-5.61z" fill="#d40000"/><path d="M304.473 3.543c-.362.015-.718.074-1.084.192-.736.228-1.52.892-1.824 1.645-.602 1.503-.05 2.412.2 3.198.2.62.288 1.025.35 1.338-1.196-.02-2.758-.035-4.393.36-1.026.25-2.134.66-2.984 1.66-.756.89-1.03 2.217-.845 3.492-.102 1.895-1.104 5.074.36 8.233-.22.75-.83 1.25-1.86 2.21-.6.567-1.336 1.284-1.722 2.437-.387 1.152-.205 2.558.44 3.842.023.04.043.082.067.122 1.087 1.817 2.54 3.97 4.246 6.197-.26.374-.513.75-.723 1.12-1.236 2.193-2.568 3.71-3.413 6.788-.704 2.554-1.685 5.205-2.46 8.04-.75 2.71-1.75 5.42-2.53 8.274-.793 2.86-1.57 5.674-1.89 8.78-.22 2.143-1.55 4.66-2.33 7.494-.674 2.447-1.64 5.133-1.94 8.033-.296 2.86-1.58 5.644-2.49 8.954l-2.22 8.11c-.67 2.428-.938 4.293-1.553 6.545-.58 2.102-.59 3.954-1.006 5.462-.173.65-.5 2.148-1.013 4.507-.513 2.362-1.156 5.38-1.806 8.407-.654 3.023-1.304 6.05-1.822 8.418-.517 2.37-.957 4.253-.99 4.376-.157.56-.035 1.19.307 1.66.347.474.903.78 1.49.806.028.005.057.01.092.01l1.616.444c2.93.805 5.654 1.303 8.408 2.06 3.19.88 6.935 1.455 10.103 2.3-.17.336-.238.72-.2 1.1.5 5.91 2.408 10.17 2.73 13.32.167 1.57.015 2.815-.708 4.2-.718 1.374-2.114 2.936-4.683 4.763-.01-.01-.57.332-1.22.66-.74.37-1.747.853-2.913 1.416-2.34 1.12-5.353 2.55-8.356 3.99-2.996 1.44-5.98 2.88-8.31 4.08-1.16.6-2.158 1.14-2.93 1.59-.39.23-.726.425-1.02.63-.22.157-.42.31-.67.592-.076.087-.15.13-.253.277l.044.03c-1.083 1.293-1.053 2.87-.83 4.28.24 1.514.77 3.077 1.364 4.567.596 1.483 1.265 2.885 1.792 3.945.27.532.502.976.673 1.298.082.163.15.304.2.393 0 0-.005.003 0 .008.005.017.005.03.01.04.015.03.024.06.03.07.4.947 1.635 1.436 2.582 1.03.947-.4 1.43-1.62 1.03-2.57-.107-.276-.117-.26-.176-.374-.056-.107-.12-.24-.2-.4-.168-.317-.39-.742-.64-1.245-.504-1-1.124-2.314-1.66-3.65-.538-1.34-.98-2.716-1.14-3.723-.132-.83.02-1.225-.03-1.23l.03-.03c.005-.003.005-.018.01-.023.01-.01.033-.03.043-.044.01-.01.025-.016.04-.026.15-.107.414-.263.747-.453.663-.39 1.616-.902 2.743-1.49 2.262-1.16 5.235-2.604 8.218-4.035 2.99-1.435 5.998-2.862 8.357-3.99 1.176-.565 2.192-1.054 2.97-1.445.78-.39 1.17-.553 1.712-.94 2.904-2.064 4.804-4.056 5.92-6.185 1.11-2.123 1.336-4.325 1.12-6.41-.415-4.01-2.144-7.764-2.662-12.685.177.087.357.175.518.268 4.956 2.793 10.386 3.067 14.62 4.814 5.595 2.32 11.6 2.705 16.81 4.136 2.417.67 5.616 1.694 8.165 2.465.13.802.826 1.475 1.63 1.593.807.118 1.66-.327 2.023-1.06.923-.453 1.333-1.723.854-2.635.64-1.986 1.598-4.9 2.72-8.333 1.616-4.937 3.218-9.805 3.63-11.284.668-2.446 2.07-4.85 2.914-7.925l1.66-6.02c1.48 1.705 3.05 3.11 4.74 4.35 5.505 4.043 11.813 6.212 19.743 11.256.567.4 1.358.46 1.978.146-.102.537 0 1.01.108 1.337.16.483.367.825.59 1.167.89 1.358 2.262 2.808 2.57 3.29.438.69.604 1.075.975 1.62.372.544.973 1.08 1.675 1.5.874.524 2.14.2 2.662-.667.52-.875.203-2.144-.67-2.667-.456-.273-.367-.215-.47-.36-.097-.148-.36-.675-.894-1.515-.35-.542-.688-.903-1.113-1.416 1.147.096 2.368.154 3.506.17.492.01.94.01 1.34-.01.397-.02.61.03 1.27-.216.167-.063.382-.127.71-.43.325-.302.745-1.132.604-1.845-.147-.714-.517-1.01-.724-1.178-.207-.17-.355-.234-.48-.298-.51-.238-.85-.312-1.43-.44-.24-.053-.637-.107-.915-.16 1.196-.2 2.15-.313 3.09-.683.24-.093.494-.18.845-.483.352-.297.905-1.167.724-2.045-.18-.88-.688-1.207-.992-1.407-.302-.2-.556-.297-.83-.4-.233-.092-.492-.137-.746-.132-.714.02-1.397.464-1.7 1.11-.405.082-.517.126-1.045.214-1.18.195-2.584.425-3.92.722-1.336.297-2.566.61-3.68 1.323-.21.136-.48.322-.71.66-.076-.065-.153-.124-.24-.178-8.278-5.263-14.66-7.533-19.528-11.107-2.09-1.54-3.983-3.306-5.712-5.728.528-1.685 1.094-3.408 1.578-5.166l2.29-8.34c.796-2.895 1.81-5.69 2.646-8.74.87-3.15 1.45-6.142 2.267-9.1.825-3 1.577-5.807 2.768-8.38.465-.996.806-2.036 1.1-3.077 1.087.155 2.22.31 3.412.477 1.537.22 3.017.42 4.15.577 1.127.157 1.713.236 2.03.27 1.01.117 2.04-.703 2.158-1.714.113-1.008-.708-2.028-1.713-2.14.13.015-.817-.103-1.944-.254-1.122-.156-2.616-.36-4.15-.576-1.043-.15-2.05-.297-3.046-.443.167-.78.347-1.534.533-2.222.66-2.387.874-4.877 1.03-7.157 1.494-.796 2.7-1.997 3.427-3.56.04-.087.098-.166.133-.26 3.974-6.674 6.314-15.956 3.412-23.54-.006-.02-.006-.037-.01-.052h-.014c-2.662-7.466-6.52-12.133-11.378-15.58-4.872-3.458-10.62-5.767-17.387-9.087-.03-.02-.06-.035-.093-.054-13.767-5.89-24.097-7.204-37.29-10.144-.07-.014-.143-.03-.216-.04-.383-.043-.744-.068-1.106-.053zm-6.465 38.107c2.637 3.05 5.645 5.976 8.74 8.04.83.84 1.723 1.602 2.676 2.306-.733 1.8-1.42 3.662-1.793 6.02v.015c-1.3 8.79-2.53 16.644-1.15 27.28.016.077.036.154.056.228.98 4.2 4.272 10.917 7.562 17.387 2.046 4.02 4.04 7.784 5.46 10.48-2.994-.567-5.806-1.148-8.204-1.807-7.328-2.018-14.35-5.133-21.67-7.15-2.43-.668-4.643-2.92-8.555-4.09-.073-.1-.17-.265-.493-.552l-.015-.016.777-2.808c.795-2.89 2.23-5.902 2.612-9.584.234-2.275 1.082-4.775 1.805-7.403.6-2.182 2.115-4.887 2.446-8.12.286-2.7.998-5.292 1.785-8.153.727-2.642 1.714-5.372 2.515-8.287.72-2.622 1.702-5.268 2.465-8.042.64-2.333 1.61-3.334 2.982-5.74zm14.858 12.513c3.735 2.037 7.877 3.424 11.632 4.576.013.006.033.006.053.01.04.017.08.03.12.04 2.383.92 4.658.607 6.626.138-.288 1.224-.493 2.576-.346 4.095.355 5.48 2.996 10.338 6.84 12.886 4.204 2.695 9.49 3.656 13.745 1.58.067-.03.136-.066.2-.106 1.43-.897 2.95-1.78 4.457-2.772.124-.08.24-.177.347-.28 1.092-1.103 1.806-1.64 2.606-1.567.18.02.36.015.537-.015h.054c.083.07.176.13.27.178-.152.59-.293 1.185-.43 1.78-.045-.01-.21-.034-.24-.043-.195-.04-.396-.054-.59-.04-.923.09-1.72.933-1.753 1.86-.035.93.692 1.823 1.606 1.984.015 0 .038.01.053.013-.22.757-.448 1.455-.737 2.07-.815 1.773-2.685 7.47-3.223 9.258-14.15.543-5.215 6.04-1.997 8.478-.644 2.09-2.055 6.81-2.675 9.076l-2.29 8.34c-.15.552-.32 1.123-.492 1.684-1.27-2.56-2.426-3.294-3.59-7.146-.23-.807-1.034-1.407-1.874-1.407-.605.004-1.196.317-1.552.805-.35.49-.463 1.148-.28 1.73 1.14 3.773 2.31 4.6 3.63 7.304-3.877-1.436-8.62-2.432-13.544-3.36-1.813-.34-3.634-.664-5.45-.99-1.166-2.364-4.048-7.62-7.026-13.477-3.234-6.355-6.476-13.38-7.174-16.277-1.27-9.917-.146-17.08 1.153-25.835 0-.005-.006-.015 0-.025.26-1.67.74-3.056 1.336-4.55zm23.502 3.707c.678-.02 1.322.068 1.952.297.064.02.128.04.19.054 2.77.7 5.953 2.508 9.25 4.34 3.29 1.825 6.708 3.71 10.385 4.305.005.006.01 0 .014 0 .964.167 1.92.216 2.844.148-.043.527-.088 1.055-.146 1.568-.25-.034-.5-.072-.748-.092-.195-.014-.382-.02-.607-.014-.11.005-.228 0-.415.03-.09.015-.217.025-.384.078-2.217.133-3.867 1.42-4.99 2.53-1.308.85-2.7 1.68-4.11 2.56-2.39 1.132-6.373.643-9.518-1.368-3.164-2.023-5.327-5.212-4.873-9.235.015-.148.015-.3 0-.445-.127-1.328.333-2.86.79-4.72.123-.01.245-.025.363-.03zm8.34 7.817c-.09.005-.177.015-.27.03-.742.11-1.4.698-1.7 1.23-.32.566-.784 1.245-.912 2.34-.06.55.02 1.298.46 1.913.434.62 1.093.976 1.738 1.152.776.215 1.532.298 2.314.03.786-.27 1.42-.996 1.646-1.646.45-1.304.092-2.256-.186-3.013-.117-.312-.323-.59-.59-.79-.03-.025-.43-.48-1.14-.885-.307-.176-.755-.386-1.36-.36zM279.483 103.9c.087.035.185.053.283.078 2.988.825 5.078 3.17 8.887 4.22 1.508.414 3.012.898 4.536 1.405 29.323 11.66 41.47 7.788 52.1 14.078-.722 2.52-1.42 5.15-2.123 7.71-.675 2.45-2.09 4.85-2.935 7.927-.274.99-1.96 6.177-3.575 11.11-.986 3.02-1.904 5.81-2.57 7.87-2.445-.748-5.604-1.753-8.094-2.436-9.408-2.774-22.725-4.362-30.547-8.58-4.69-2.64-11.036-3.09-15.27-4.258-2.954-.81-5.682-1.312-8.407-2.06l-.334-.09c.16-.728.343-1.568.576-2.638.518-2.37 1.168-5.404 1.822-8.43.65-3.03 1.303-6.042 1.816-8.395.515-2.355.943-4.244.968-4.323.588-2.143.593-3.993.993-5.448.685-2.49.954-4.38 1.554-6.56l.318-1.177z" fill="#fff"/><path d="M308.794 37.19c-.84.016-1.65.572-1.958 1.354-.312.786-.102 1.743.503 2.328 4.636 4.557 13.396 9.757 20.232 10.387 1.117.104 2.23-.818 2.334-1.937.107-1.118-.817-2.23-1.934-2.334-4.736-.44-13.91-5.507-17.636-9.17-.407-.4-.973-.635-1.544-.63zm-4.444-15.404c-1.015.05-1.928.913-2.03 1.924-.104 1.01.62 2.046 1.606 2.295 7.608 1.94 17.734 4.175 26.523 7.157 8.792 2.984 16.052 6.954 18.122 10.978.463 1.074 1.905 1.586 2.945 1.054 1.04-.537 1.46-2.007.852-3.008-3.223-6.27-11.42-9.98-20.54-13.076-9.123-3.1-19.367-5.35-26.853-7.255-.205-.054-.415-.08-.63-.07zm7.39-8.002c-1.033.023-1.98.897-2.08 1.923-.11 1.03.642 2.075 1.654 2.304 7.607 1.94 17.733 4.168 26.527 7.15 8.79 2.986 16.04 6.964 18.11 10.988.517 1 1.893 1.44 2.89.928 1-.518 1.44-1.894.923-2.89-3.223-6.27-11.42-9.98-20.54-13.082-9.123-3.096-19.366-5.346-26.85-7.25-.208-.055-.416-.078-.63-.068zM305.57 7.6c13.004 2.867 22.834 4.186 35.87 9.757.035.015.06.024.094.04 6.855 3.36 12.436 5.663 16.757 8.725 4.34 3.082 7.53 6.865 9.97 13.75.01.014.02.034.03.05 2.278 5.912.326 14.55-3.224 20.4-.054.082-.098.175-.133.268-.765 1.83-2.943 2.944-6.13 2.392h-.016c-2.72-.44-5.86-2.056-9.112-3.867-3.202-1.778-6.503-3.72-10.013-4.644-.005-.002-.015.008-.025 0-.05-.01-.098-.036-.147-.05v.014c-2.958-1.006-5.683-.225-7.9.362-2.256.596-3.946.98-5.59.307-.06-.018-.118-.038-.177-.053-5.97-1.836-12.563-4.29-16.38-8.218-.103-.103-.215-.19-.34-.27-5.452-3.573-11.64-11.47-14.49-16.234-.29-.59-.244-.69-.214-.776.03-.093.214-.38.683-.815.93-.875 2.968-2.37 3.21-5.128.035-.417-.063-.847-.283-1.208-1.005-1.644-.302-3.95-.175-6.89.01-.184-.01-.37-.053-.55-.14-.556-.066-.45-.04-.48.03-.033.325-.248.91-.39 1.173-.283 3.096-.23 4.454-.24.26-.004.517-.058.752-.16.728-.308 1.397-.835 1.793-1.514.4-.68.51-1.407.497-2.007-.028-1.093-.35-1.903-.576-2.57z" fill="#2c2c2c"/><path d="M322.925 126.507c-.343.02-.674.123-.968.3-3.924 2.303-7.494 4.73-11.376 5.98-.134.04-.27.093-.4.16-.6.284-1.06.86-1.19 1.515-.13.654.065 1.36.51 1.855 3.47 3.95 6.567 7.314 9.477 11.445.556.8 1.7 1.133 2.598.753 3.568-1.52 9.175-4.464 12.7-5.518.99-.294 1.67-1.387 1.498-2.407-.257-1.573-1.014-2.34-1.912-3.482-.9-1.142-2.02-2.387-3.2-3.637-2.35-2.502-4.963-5.07-6.02-6.25-.43-.476-1.077-.745-1.712-.71z"/><path d="M322.402 129.52c-3.393 2.115-6.806 4.102-10.532 5.606 3.12 3.52 6.2 7.095 8.965 10.9 4.067-1.896 8.09-3.884 12.315-5.398-2.774-4.345-6.744-7.666-10.16-11.445l-.373.215-.215.122z" fill="#fff"/></svg>